G04 #@! TF.GenerationSoftware,KiCad,Pcbnew,(5.1.5)-3*
G04 #@! TF.CreationDate,2020-07-14T08:42:12+02:00*
G04 #@! TF.ProjectId,Airrohr_pcb,41697272-6f68-4725-9f70-63622e6b6963,rev?*
G04 #@! TF.SameCoordinates,Original*
G04 #@! TF.FileFunction,Legend,Top*
G04 #@! TF.FilePolarity,Positive*
%FSLAX46Y46*%
G04 Gerber Fmt 4.6, Leading zero omitted, Abs format (unit mm)*
G04 Created by KiCad (PCBNEW (5.1.5)-3) date 2020-07-14 08:42:12*
%MOMM*%
%LPD*%
G04 APERTURE LIST*
%ADD10C,0.100000*%
%ADD11C,0.080000*%
%ADD12C,0.150000*%
%ADD13C,0.300000*%
%ADD14C,0.500000*%
%ADD15C,0.200000*%
%ADD16C,0.120000*%
%ADD17C,0.152400*%
%ADD18C,0.010000*%
G04 APERTURE END LIST*
D10*
X185997720Y-28320017D02*
X186083434Y-28348588D01*
X186226291Y-28348588D01*
X186283434Y-28320017D01*
X186312005Y-28291445D01*
X186340577Y-28234302D01*
X186340577Y-28177160D01*
X186312005Y-28120017D01*
X186283434Y-28091445D01*
X186226291Y-28062874D01*
X186112005Y-28034302D01*
X186054862Y-28005731D01*
X186026291Y-27977160D01*
X185997720Y-27920017D01*
X185997720Y-27862874D01*
X186026291Y-27805731D01*
X186054862Y-27777160D01*
X186112005Y-27748588D01*
X186254862Y-27748588D01*
X186340577Y-27777160D01*
X186940577Y-28291445D02*
X186912005Y-28320017D01*
X186826291Y-28348588D01*
X186769148Y-28348588D01*
X186683434Y-28320017D01*
X186626291Y-28262874D01*
X186597720Y-28205731D01*
X186569148Y-28091445D01*
X186569148Y-28005731D01*
X186597720Y-27891445D01*
X186626291Y-27834302D01*
X186683434Y-27777160D01*
X186769148Y-27748588D01*
X186826291Y-27748588D01*
X186912005Y-27777160D01*
X186940577Y-27805731D01*
X187483434Y-28348588D02*
X187197720Y-28348588D01*
X187197720Y-27748588D01*
X187540577Y-28405731D02*
X187997720Y-28405731D01*
X188140577Y-28034302D02*
X188340577Y-28034302D01*
X188426291Y-28348588D02*
X188140577Y-28348588D01*
X188140577Y-27748588D01*
X188426291Y-27748588D01*
X188626291Y-27748588D02*
X189026291Y-28348588D01*
X189026291Y-27748588D02*
X188626291Y-28348588D01*
X186410154Y-23102857D02*
X186495868Y-23131428D01*
X186638725Y-23131428D01*
X186695868Y-23102857D01*
X186724440Y-23074285D01*
X186753011Y-23017142D01*
X186753011Y-22960000D01*
X186724440Y-22902857D01*
X186695868Y-22874285D01*
X186638725Y-22845714D01*
X186524440Y-22817142D01*
X186467297Y-22788571D01*
X186438725Y-22760000D01*
X186410154Y-22702857D01*
X186410154Y-22645714D01*
X186438725Y-22588571D01*
X186467297Y-22560000D01*
X186524440Y-22531428D01*
X186667297Y-22531428D01*
X186753011Y-22560000D01*
X187010154Y-23131428D02*
X187010154Y-22531428D01*
X187153011Y-22531428D01*
X187238725Y-22560000D01*
X187295868Y-22617142D01*
X187324440Y-22674285D01*
X187353011Y-22788571D01*
X187353011Y-22874285D01*
X187324440Y-22988571D01*
X187295868Y-23045714D01*
X187238725Y-23102857D01*
X187153011Y-23131428D01*
X187010154Y-23131428D01*
X187581582Y-22960000D02*
X187867297Y-22960000D01*
X187524440Y-23131428D02*
X187724440Y-22531428D01*
X187924440Y-23131428D01*
X187981582Y-23188571D02*
X188438725Y-23188571D01*
X188581582Y-22817142D02*
X188781582Y-22817142D01*
X188867297Y-23131428D02*
X188581582Y-23131428D01*
X188581582Y-22531428D01*
X188867297Y-22531428D01*
X189067297Y-22531428D02*
X189467297Y-23131428D01*
X189467297Y-22531428D02*
X189067297Y-23131428D01*
X183561451Y-28140337D02*
X184018594Y-28140337D01*
X183790022Y-28368908D02*
X183790022Y-27911765D01*
X184590022Y-27768908D02*
X184304308Y-27768908D01*
X184275737Y-28054622D01*
X184304308Y-28026051D01*
X184361451Y-27997480D01*
X184504308Y-27997480D01*
X184561451Y-28026051D01*
X184590022Y-28054622D01*
X184618594Y-28111765D01*
X184618594Y-28254622D01*
X184590022Y-28311765D01*
X184561451Y-28340337D01*
X184504308Y-28368908D01*
X184361451Y-28368908D01*
X184304308Y-28340337D01*
X184275737Y-28311765D01*
X184790022Y-27768908D02*
X184990022Y-28368908D01*
X185190022Y-27768908D01*
X183744331Y-24038237D02*
X184201474Y-24038237D01*
X183972902Y-24266808D02*
X183972902Y-23809665D01*
X184772902Y-23666808D02*
X184487188Y-23666808D01*
X184458617Y-23952522D01*
X184487188Y-23923951D01*
X184544331Y-23895380D01*
X184687188Y-23895380D01*
X184744331Y-23923951D01*
X184772902Y-23952522D01*
X184801474Y-24009665D01*
X184801474Y-24152522D01*
X184772902Y-24209665D01*
X184744331Y-24238237D01*
X184687188Y-24266808D01*
X184544331Y-24266808D01*
X184487188Y-24238237D01*
X184458617Y-24209665D01*
X184972902Y-23666808D02*
X185172902Y-24266808D01*
X185372902Y-23666808D01*
X190207957Y-22580320D02*
X190150814Y-22551748D01*
X190065100Y-22551748D01*
X189979385Y-22580320D01*
X189922242Y-22637462D01*
X189893671Y-22694605D01*
X189865100Y-22808891D01*
X189865100Y-22894605D01*
X189893671Y-23008891D01*
X189922242Y-23066034D01*
X189979385Y-23123177D01*
X190065100Y-23151748D01*
X190122242Y-23151748D01*
X190207957Y-23123177D01*
X190236528Y-23094605D01*
X190236528Y-22894605D01*
X190122242Y-22894605D01*
X190493671Y-23151748D02*
X190493671Y-22551748D01*
X190836528Y-23151748D01*
X190836528Y-22551748D01*
X191122242Y-23151748D02*
X191122242Y-22551748D01*
X191265100Y-22551748D01*
X191350814Y-22580320D01*
X191407957Y-22637462D01*
X191436528Y-22694605D01*
X191465100Y-22808891D01*
X191465100Y-22894605D01*
X191436528Y-23008891D01*
X191407957Y-23066034D01*
X191350814Y-23123177D01*
X191265100Y-23151748D01*
X191122242Y-23151748D01*
X190146997Y-27817800D02*
X190089854Y-27789228D01*
X190004140Y-27789228D01*
X189918425Y-27817800D01*
X189861282Y-27874942D01*
X189832711Y-27932085D01*
X189804140Y-28046371D01*
X189804140Y-28132085D01*
X189832711Y-28246371D01*
X189861282Y-28303514D01*
X189918425Y-28360657D01*
X190004140Y-28389228D01*
X190061282Y-28389228D01*
X190146997Y-28360657D01*
X190175568Y-28332085D01*
X190175568Y-28132085D01*
X190061282Y-28132085D01*
X190432711Y-28389228D02*
X190432711Y-27789228D01*
X190775568Y-28389228D01*
X190775568Y-27789228D01*
X191061282Y-28389228D02*
X191061282Y-27789228D01*
X191204140Y-27789228D01*
X191289854Y-27817800D01*
X191346997Y-27874942D01*
X191375568Y-27932085D01*
X191404140Y-28046371D01*
X191404140Y-28132085D01*
X191375568Y-28246371D01*
X191346997Y-28303514D01*
X191289854Y-28360657D01*
X191204140Y-28389228D01*
X191061282Y-28389228D01*
D11*
X187117480Y-34073444D02*
X187174622Y-34092492D01*
X187269860Y-34092492D01*
X187307956Y-34073444D01*
X187327003Y-34054397D01*
X187346051Y-34016301D01*
X187346051Y-33978206D01*
X187327003Y-33940111D01*
X187307956Y-33921063D01*
X187269860Y-33902016D01*
X187193670Y-33882968D01*
X187155575Y-33863920D01*
X187136527Y-33844873D01*
X187117480Y-33806778D01*
X187117480Y-33768682D01*
X187136527Y-33730587D01*
X187155575Y-33711540D01*
X187193670Y-33692492D01*
X187288908Y-33692492D01*
X187346051Y-33711540D01*
X187746051Y-34054397D02*
X187727003Y-34073444D01*
X187669860Y-34092492D01*
X187631765Y-34092492D01*
X187574622Y-34073444D01*
X187536527Y-34035349D01*
X187517480Y-33997254D01*
X187498432Y-33921063D01*
X187498432Y-33863920D01*
X187517480Y-33787730D01*
X187536527Y-33749635D01*
X187574622Y-33711540D01*
X187631765Y-33692492D01*
X187669860Y-33692492D01*
X187727003Y-33711540D01*
X187746051Y-33730587D01*
X188107956Y-34092492D02*
X187917480Y-34092492D01*
X187917480Y-33692492D01*
X188146051Y-34130587D02*
X188450813Y-34130587D01*
X188546051Y-33882968D02*
X188679384Y-33882968D01*
X188736527Y-34092492D02*
X188546051Y-34092492D01*
X188546051Y-33692492D01*
X188736527Y-33692492D01*
X188869860Y-33692492D02*
X189136527Y-34092492D01*
X189136527Y-33692492D02*
X188869860Y-34092492D01*
D10*
X185549094Y-31383257D02*
X185634808Y-31411828D01*
X185777665Y-31411828D01*
X185834808Y-31383257D01*
X185863380Y-31354685D01*
X185891951Y-31297542D01*
X185891951Y-31240400D01*
X185863380Y-31183257D01*
X185834808Y-31154685D01*
X185777665Y-31126114D01*
X185663380Y-31097542D01*
X185606237Y-31068971D01*
X185577665Y-31040400D01*
X185549094Y-30983257D01*
X185549094Y-30926114D01*
X185577665Y-30868971D01*
X185606237Y-30840400D01*
X185663380Y-30811828D01*
X185806237Y-30811828D01*
X185891951Y-30840400D01*
X186149094Y-31411828D02*
X186149094Y-30811828D01*
X186291951Y-30811828D01*
X186377665Y-30840400D01*
X186434808Y-30897542D01*
X186463380Y-30954685D01*
X186491951Y-31068971D01*
X186491951Y-31154685D01*
X186463380Y-31268971D01*
X186434808Y-31326114D01*
X186377665Y-31383257D01*
X186291951Y-31411828D01*
X186149094Y-31411828D01*
X186720522Y-31240400D02*
X187006237Y-31240400D01*
X186663380Y-31411828D02*
X186863380Y-30811828D01*
X187063380Y-31411828D01*
X187120522Y-31468971D02*
X187577665Y-31468971D01*
X187720522Y-31097542D02*
X187920522Y-31097542D01*
X188006237Y-31411828D02*
X187720522Y-31411828D01*
X187720522Y-30811828D01*
X188006237Y-30811828D01*
X188206237Y-30811828D02*
X188606237Y-31411828D01*
X188606237Y-30811828D02*
X188206237Y-31411828D01*
D12*
X191284385Y-33817868D02*
X192046290Y-33817868D01*
X191665338Y-34198820D02*
X191665338Y-33436916D01*
X192998671Y-33198820D02*
X192522480Y-33198820D01*
X192474861Y-33675011D01*
X192522480Y-33627392D01*
X192617719Y-33579773D01*
X192855814Y-33579773D01*
X192951052Y-33627392D01*
X192998671Y-33675011D01*
X193046290Y-33770249D01*
X193046290Y-34008344D01*
X192998671Y-34103582D01*
X192951052Y-34151201D01*
X192855814Y-34198820D01*
X192617719Y-34198820D01*
X192522480Y-34151201D01*
X192474861Y-34103582D01*
X193332004Y-33198820D02*
X193665338Y-34198820D01*
X193998671Y-33198820D01*
X190527465Y-31770628D02*
X191289370Y-31770628D01*
X190908418Y-32151580D02*
X190908418Y-31389676D01*
X192241751Y-31151580D02*
X191765560Y-31151580D01*
X191717941Y-31627771D01*
X191765560Y-31580152D01*
X191860799Y-31532533D01*
X192098894Y-31532533D01*
X192194132Y-31580152D01*
X192241751Y-31627771D01*
X192289370Y-31723009D01*
X192289370Y-31961104D01*
X192241751Y-32056342D01*
X192194132Y-32103961D01*
X192098894Y-32151580D01*
X191860799Y-32151580D01*
X191765560Y-32103961D01*
X191717941Y-32056342D01*
X192575084Y-31151580D02*
X192908418Y-32151580D01*
X193241751Y-31151580D01*
X182374635Y-34803460D02*
X182279397Y-34755840D01*
X182136540Y-34755840D01*
X181993682Y-34803460D01*
X181898444Y-34898698D01*
X181850825Y-34993936D01*
X181803206Y-35184412D01*
X181803206Y-35327269D01*
X181850825Y-35517745D01*
X181898444Y-35612983D01*
X181993682Y-35708221D01*
X182136540Y-35755840D01*
X182231778Y-35755840D01*
X182374635Y-35708221D01*
X182422254Y-35660602D01*
X182422254Y-35327269D01*
X182231778Y-35327269D01*
X182850825Y-35755840D02*
X182850825Y-34755840D01*
X183422254Y-35755840D01*
X183422254Y-34755840D01*
X183898444Y-35755840D02*
X183898444Y-34755840D01*
X184136540Y-34755840D01*
X184279397Y-34803460D01*
X184374635Y-34898698D01*
X184422254Y-34993936D01*
X184469873Y-35184412D01*
X184469873Y-35327269D01*
X184422254Y-35517745D01*
X184374635Y-35612983D01*
X184279397Y-35708221D01*
X184136540Y-35755840D01*
X183898444Y-35755840D01*
X181155435Y-32329500D02*
X181060197Y-32281880D01*
X180917340Y-32281880D01*
X180774482Y-32329500D01*
X180679244Y-32424738D01*
X180631625Y-32519976D01*
X180584006Y-32710452D01*
X180584006Y-32853309D01*
X180631625Y-33043785D01*
X180679244Y-33139023D01*
X180774482Y-33234261D01*
X180917340Y-33281880D01*
X181012578Y-33281880D01*
X181155435Y-33234261D01*
X181203054Y-33186642D01*
X181203054Y-32853309D01*
X181012578Y-32853309D01*
X181631625Y-33281880D02*
X181631625Y-32281880D01*
X182203054Y-33281880D01*
X182203054Y-32281880D01*
X182679244Y-33281880D02*
X182679244Y-32281880D01*
X182917340Y-32281880D01*
X183060197Y-32329500D01*
X183155435Y-32424738D01*
X183203054Y-32519976D01*
X183250673Y-32710452D01*
X183250673Y-32853309D01*
X183203054Y-33043785D01*
X183155435Y-33139023D01*
X183060197Y-33234261D01*
X182917340Y-33281880D01*
X182679244Y-33281880D01*
X196064950Y-35679640D02*
X195731617Y-35203450D01*
X195493521Y-35679640D02*
X195493521Y-34679640D01*
X195874474Y-34679640D01*
X195969712Y-34727260D01*
X196017331Y-34774879D01*
X196064950Y-34870117D01*
X196064950Y-35012974D01*
X196017331Y-35108212D01*
X195969712Y-35155831D01*
X195874474Y-35203450D01*
X195493521Y-35203450D01*
X196779236Y-34679640D02*
X196779236Y-35393926D01*
X196731617Y-35536783D01*
X196636379Y-35632021D01*
X196493521Y-35679640D01*
X196398283Y-35679640D01*
X197779236Y-35679640D02*
X197207807Y-35679640D01*
X197493521Y-35679640D02*
X197493521Y-34679640D01*
X197398283Y-34822498D01*
X197303045Y-34917736D01*
X197207807Y-34965355D01*
X198160188Y-34774879D02*
X198207807Y-34727260D01*
X198303045Y-34679640D01*
X198541140Y-34679640D01*
X198636379Y-34727260D01*
X198683998Y-34774879D01*
X198731617Y-34870117D01*
X198731617Y-34965355D01*
X198683998Y-35108212D01*
X198112569Y-35679640D01*
X198731617Y-35679640D01*
X186652160Y-67626265D02*
X186652160Y-68197694D01*
X186652160Y-67911980D02*
X185652160Y-67911980D01*
X185795018Y-68007218D01*
X185890256Y-68102456D01*
X185937875Y-68197694D01*
X189151904Y-70734180D02*
X189151904Y-69734180D01*
X189580476Y-69496085D02*
X189675714Y-69448466D01*
X189818571Y-69448466D01*
X189913809Y-69496085D01*
X189961428Y-69591323D01*
X189961428Y-69686561D01*
X189913809Y-69781800D01*
X189580476Y-70115133D01*
X189961428Y-70115133D01*
X190961428Y-70638942D02*
X190913809Y-70686561D01*
X190770952Y-70734180D01*
X190675714Y-70734180D01*
X190532857Y-70686561D01*
X190437619Y-70591323D01*
X190390000Y-70496085D01*
X190342380Y-70305609D01*
X190342380Y-70162752D01*
X190390000Y-69972276D01*
X190437619Y-69877038D01*
X190532857Y-69781800D01*
X190675714Y-69734180D01*
X190770952Y-69734180D01*
X190913809Y-69781800D01*
X190961428Y-69829419D01*
X192580476Y-70067514D02*
X192580476Y-70734180D01*
X192151904Y-70067514D02*
X192151904Y-70591323D01*
X192199523Y-70686561D01*
X192294761Y-70734180D01*
X192437619Y-70734180D01*
X192532857Y-70686561D01*
X192580476Y-70638942D01*
X193056666Y-70638942D02*
X193104285Y-70686561D01*
X193056666Y-70734180D01*
X193009047Y-70686561D01*
X193056666Y-70638942D01*
X193056666Y-70734180D01*
X194770952Y-69734180D02*
X194294761Y-69734180D01*
X194247142Y-70210371D01*
X194294761Y-70162752D01*
X194390000Y-70115133D01*
X194628095Y-70115133D01*
X194723333Y-70162752D01*
X194770952Y-70210371D01*
X194818571Y-70305609D01*
X194818571Y-70543704D01*
X194770952Y-70638942D01*
X194723333Y-70686561D01*
X194628095Y-70734180D01*
X194390000Y-70734180D01*
X194294761Y-70686561D01*
X194247142Y-70638942D01*
X195104285Y-69734180D02*
X195437619Y-70734180D01*
X195770952Y-69734180D01*
X198194894Y-71234560D02*
X197623465Y-71234560D01*
X197909180Y-71234560D02*
X197909180Y-70234560D01*
X197813941Y-70377418D01*
X197718703Y-70472656D01*
X197623465Y-70520275D01*
X198128854Y-65230000D02*
X197557425Y-65230000D01*
X197843140Y-65230000D02*
X197843140Y-64230000D01*
X197747901Y-64372858D01*
X197652663Y-64468096D01*
X197557425Y-64515715D01*
X198245694Y-56273960D02*
X197674265Y-56273960D01*
X197959980Y-56273960D02*
X197959980Y-55273960D01*
X197864741Y-55416818D01*
X197769503Y-55512056D01*
X197674265Y-55559675D01*
X176576954Y-48613320D02*
X176005525Y-48613320D01*
X176291240Y-48613320D02*
X176291240Y-47613320D01*
X176196001Y-47756178D01*
X176100763Y-47851416D01*
X176005525Y-47899035D01*
X189031314Y-56891180D02*
X189031314Y-55891180D01*
X189459885Y-55653085D02*
X189555123Y-55605466D01*
X189697980Y-55605466D01*
X189793219Y-55653085D01*
X189840838Y-55748323D01*
X189840838Y-55843561D01*
X189793219Y-55938800D01*
X189459885Y-56272133D01*
X189840838Y-56272133D01*
X190840838Y-56795942D02*
X190793219Y-56843561D01*
X190650361Y-56891180D01*
X190555123Y-56891180D01*
X190412266Y-56843561D01*
X190317028Y-56748323D01*
X190269409Y-56653085D01*
X190221790Y-56462609D01*
X190221790Y-56319752D01*
X190269409Y-56129276D01*
X190317028Y-56034038D01*
X190412266Y-55938800D01*
X190555123Y-55891180D01*
X190650361Y-55891180D01*
X190793219Y-55938800D01*
X190840838Y-55986419D01*
X192459885Y-56224514D02*
X192459885Y-56891180D01*
X192031314Y-56224514D02*
X192031314Y-56748323D01*
X192078933Y-56843561D01*
X192174171Y-56891180D01*
X192317028Y-56891180D01*
X192412266Y-56843561D01*
X192459885Y-56795942D01*
X192936076Y-56795942D02*
X192983695Y-56843561D01*
X192936076Y-56891180D01*
X192888457Y-56843561D01*
X192936076Y-56795942D01*
X192936076Y-56891180D01*
X194078933Y-55891180D02*
X194697980Y-55891180D01*
X194364647Y-56272133D01*
X194507504Y-56272133D01*
X194602742Y-56319752D01*
X194650361Y-56367371D01*
X194697980Y-56462609D01*
X194697980Y-56700704D01*
X194650361Y-56795942D01*
X194602742Y-56843561D01*
X194507504Y-56891180D01*
X194221790Y-56891180D01*
X194126552Y-56843561D01*
X194078933Y-56795942D01*
X194983695Y-55891180D02*
X195317028Y-56891180D01*
X195650361Y-55891180D01*
X195888457Y-55891180D02*
X196507504Y-55891180D01*
X196174171Y-56272133D01*
X196317028Y-56272133D01*
X196412266Y-56319752D01*
X196459885Y-56367371D01*
X196507504Y-56462609D01*
X196507504Y-56700704D01*
X196459885Y-56795942D01*
X196412266Y-56843561D01*
X196317028Y-56891180D01*
X196031314Y-56891180D01*
X195936076Y-56843561D01*
X195888457Y-56795942D01*
X199556714Y-86804285D02*
X200223380Y-86804285D01*
X199175761Y-87042380D02*
X199890047Y-87280476D01*
X199890047Y-86661428D01*
X199842428Y-85518571D02*
X199842428Y-84756666D01*
X200223380Y-85137619D02*
X199461476Y-85137619D01*
X199223380Y-83804285D02*
X199223380Y-84280476D01*
X199699571Y-84328095D01*
X199651952Y-84280476D01*
X199604333Y-84185238D01*
X199604333Y-83947142D01*
X199651952Y-83851904D01*
X199699571Y-83804285D01*
X199794809Y-83756666D01*
X200032904Y-83756666D01*
X200128142Y-83804285D01*
X200175761Y-83851904D01*
X200223380Y-83947142D01*
X200223380Y-84185238D01*
X200175761Y-84280476D01*
X200128142Y-84328095D01*
X199223380Y-83470952D02*
X200223380Y-83137619D01*
X199223380Y-82804285D01*
D13*
X203508871Y-57660254D02*
X205008871Y-57160254D01*
X203508871Y-56660254D01*
X205008871Y-55374540D02*
X205008871Y-56231682D01*
X205008871Y-55803111D02*
X203508871Y-55803111D01*
X203723157Y-55945968D01*
X203866014Y-56088825D01*
X203937442Y-56231682D01*
X204866014Y-54731682D02*
X204937442Y-54660254D01*
X205008871Y-54731682D01*
X204937442Y-54803111D01*
X204866014Y-54731682D01*
X205008871Y-54731682D01*
X204008871Y-53374540D02*
X205008871Y-53374540D01*
X203437442Y-53731682D02*
X204508871Y-54088825D01*
X204508871Y-53160254D01*
D12*
X184905614Y-68112900D02*
X184334185Y-68112900D01*
X184619900Y-68112900D02*
X184619900Y-67112900D01*
X184524661Y-67255758D01*
X184429423Y-67350996D01*
X184334185Y-67398615D01*
X198314514Y-62250580D02*
X197743085Y-62250580D01*
X198028800Y-62250580D02*
X198028800Y-61250580D01*
X197933561Y-61393438D01*
X197838323Y-61488676D01*
X197743085Y-61536295D01*
D14*
X204746966Y-74869523D02*
X204746966Y-73679047D01*
X205461252Y-75107619D02*
X202961252Y-74274285D01*
X205461252Y-73440952D01*
X205461252Y-72607619D02*
X202961252Y-72607619D01*
X205461252Y-69988571D02*
X204270776Y-70821904D01*
X205461252Y-71417142D02*
X202961252Y-71417142D01*
X202961252Y-70464761D01*
X203080300Y-70226666D01*
X203199347Y-70107619D01*
X203437442Y-69988571D01*
X203794585Y-69988571D01*
X204032680Y-70107619D01*
X204151728Y-70226666D01*
X204270776Y-70464761D01*
X204270776Y-71417142D01*
X205461252Y-67488571D02*
X204270776Y-68321904D01*
X205461252Y-68917142D02*
X202961252Y-68917142D01*
X202961252Y-67964761D01*
X203080300Y-67726666D01*
X203199347Y-67607619D01*
X203437442Y-67488571D01*
X203794585Y-67488571D01*
X204032680Y-67607619D01*
X204151728Y-67726666D01*
X204270776Y-67964761D01*
X204270776Y-68917142D01*
X202961252Y-65940952D02*
X202961252Y-65464761D01*
X203080300Y-65226666D01*
X203318395Y-64988571D01*
X203794585Y-64869523D01*
X204627919Y-64869523D01*
X205104109Y-64988571D01*
X205342204Y-65226666D01*
X205461252Y-65464761D01*
X205461252Y-65940952D01*
X205342204Y-66179047D01*
X205104109Y-66417142D01*
X204627919Y-66536190D01*
X203794585Y-66536190D01*
X203318395Y-66417142D01*
X203080300Y-66179047D01*
X202961252Y-65940952D01*
X205461252Y-63798095D02*
X202961252Y-63798095D01*
X204151728Y-63798095D02*
X204151728Y-62369523D01*
X205461252Y-62369523D02*
X202961252Y-62369523D01*
X205461252Y-59750476D02*
X204270776Y-60583809D01*
X205461252Y-61179047D02*
X202961252Y-61179047D01*
X202961252Y-60226666D01*
X203080300Y-59988571D01*
X203199347Y-59869523D01*
X203437442Y-59750476D01*
X203794585Y-59750476D01*
X204032680Y-59869523D01*
X204151728Y-59988571D01*
X204270776Y-60226666D01*
X204270776Y-61179047D01*
D12*
X197043300Y-47737114D02*
X196043300Y-47737114D01*
X195805205Y-47308542D02*
X195757586Y-47213304D01*
X195757586Y-47070447D01*
X195805205Y-46975209D01*
X195900443Y-46927590D01*
X195995681Y-46927590D01*
X196090920Y-46975209D01*
X196424253Y-47308542D01*
X196424253Y-46927590D01*
X196948062Y-45927590D02*
X196995681Y-45975209D01*
X197043300Y-46118066D01*
X197043300Y-46213304D01*
X196995681Y-46356161D01*
X196900443Y-46451400D01*
X196805205Y-46499019D01*
X196614729Y-46546638D01*
X196471872Y-46546638D01*
X196281396Y-46499019D01*
X196186158Y-46451400D01*
X196090920Y-46356161D01*
X196043300Y-46213304D01*
X196043300Y-46118066D01*
X196090920Y-45975209D01*
X196138539Y-45927590D01*
X196662348Y-45499019D02*
X196662348Y-44737114D01*
X196519491Y-44260923D02*
X196519491Y-43927590D01*
X197043300Y-43784733D02*
X197043300Y-44260923D01*
X196043300Y-44260923D01*
X196043300Y-43784733D01*
X196043300Y-43451400D02*
X197043300Y-42784733D01*
X196043300Y-42784733D02*
X197043300Y-43451400D01*
X196376634Y-41213304D02*
X197043300Y-41213304D01*
X196376634Y-41641876D02*
X196900443Y-41641876D01*
X196995681Y-41594257D01*
X197043300Y-41499019D01*
X197043300Y-41356161D01*
X196995681Y-41260923D01*
X196948062Y-41213304D01*
X196948062Y-40737114D02*
X196995681Y-40689495D01*
X197043300Y-40737114D01*
X196995681Y-40784733D01*
X196948062Y-40737114D01*
X197043300Y-40737114D01*
X196043300Y-39022828D02*
X196043300Y-39499019D01*
X196519491Y-39546638D01*
X196471872Y-39499019D01*
X196424253Y-39403780D01*
X196424253Y-39165685D01*
X196471872Y-39070447D01*
X196519491Y-39022828D01*
X196614729Y-38975209D01*
X196852824Y-38975209D01*
X196948062Y-39022828D01*
X196995681Y-39070447D01*
X197043300Y-39165685D01*
X197043300Y-39403780D01*
X196995681Y-39499019D01*
X196948062Y-39546638D01*
X196043300Y-38689495D02*
X197043300Y-38356161D01*
X196043300Y-38022828D01*
X172502154Y-26579461D02*
X172645011Y-26627080D01*
X172883106Y-26627080D01*
X172978344Y-26579461D01*
X173025963Y-26531842D01*
X173073582Y-26436604D01*
X173073582Y-26341366D01*
X173025963Y-26246128D01*
X172978344Y-26198509D01*
X172883106Y-26150890D01*
X172692630Y-26103271D01*
X172597392Y-26055652D01*
X172549773Y-26008033D01*
X172502154Y-25912795D01*
X172502154Y-25817557D01*
X172549773Y-25722319D01*
X172597392Y-25674700D01*
X172692630Y-25627080D01*
X172930725Y-25627080D01*
X173073582Y-25674700D01*
X173502154Y-26627080D02*
X173502154Y-25627080D01*
X173883106Y-25627080D01*
X173978344Y-25674700D01*
X174025963Y-25722319D01*
X174073582Y-25817557D01*
X174073582Y-25960414D01*
X174025963Y-26055652D01*
X173978344Y-26103271D01*
X173883106Y-26150890D01*
X173502154Y-26150890D01*
X174454535Y-26579461D02*
X174597392Y-26627080D01*
X174835487Y-26627080D01*
X174930725Y-26579461D01*
X174978344Y-26531842D01*
X175025963Y-26436604D01*
X175025963Y-26341366D01*
X174978344Y-26246128D01*
X174930725Y-26198509D01*
X174835487Y-26150890D01*
X174645011Y-26103271D01*
X174549773Y-26055652D01*
X174502154Y-26008033D01*
X174454535Y-25912795D01*
X174454535Y-25817557D01*
X174502154Y-25722319D01*
X174549773Y-25674700D01*
X174645011Y-25627080D01*
X174883106Y-25627080D01*
X175025963Y-25674700D01*
X175359297Y-25627080D02*
X175978344Y-25627080D01*
X175645011Y-26008033D01*
X175787868Y-26008033D01*
X175883106Y-26055652D01*
X175930725Y-26103271D01*
X175978344Y-26198509D01*
X175978344Y-26436604D01*
X175930725Y-26531842D01*
X175883106Y-26579461D01*
X175787868Y-26627080D01*
X175502154Y-26627080D01*
X175406916Y-26579461D01*
X175359297Y-26531842D01*
X176597392Y-25627080D02*
X176692630Y-25627080D01*
X176787868Y-25674700D01*
X176835487Y-25722319D01*
X176883106Y-25817557D01*
X176930725Y-26008033D01*
X176930725Y-26246128D01*
X176883106Y-26436604D01*
X176835487Y-26531842D01*
X176787868Y-26579461D01*
X176692630Y-26627080D01*
X176597392Y-26627080D01*
X176502154Y-26579461D01*
X176454535Y-26531842D01*
X176406916Y-26436604D01*
X176359297Y-26246128D01*
X176359297Y-26008033D01*
X176406916Y-25817557D01*
X176454535Y-25722319D01*
X176502154Y-25674700D01*
X176597392Y-25627080D01*
X186779160Y-74290607D02*
X185779160Y-74290607D01*
X185779160Y-74052512D01*
X185826780Y-73909655D01*
X185922018Y-73814417D01*
X186017256Y-73766798D01*
X186207732Y-73719179D01*
X186350589Y-73719179D01*
X186541065Y-73766798D01*
X186636303Y-73814417D01*
X186731541Y-73909655D01*
X186779160Y-74052512D01*
X186779160Y-74290607D01*
X186779160Y-73290607D02*
X185779160Y-73290607D01*
X186255351Y-73290607D02*
X186255351Y-72719179D01*
X186779160Y-72719179D02*
X185779160Y-72719179D01*
X185779160Y-72385845D02*
X185779160Y-71814417D01*
X186779160Y-72100131D02*
X185779160Y-72100131D01*
X185874399Y-71528702D02*
X185826780Y-71481083D01*
X185779160Y-71385845D01*
X185779160Y-71147750D01*
X185826780Y-71052512D01*
X185874399Y-71004893D01*
X185969637Y-70957274D01*
X186064875Y-70957274D01*
X186207732Y-71004893D01*
X186779160Y-71576321D01*
X186779160Y-70957274D01*
X185874399Y-70576321D02*
X185826780Y-70528702D01*
X185779160Y-70433464D01*
X185779160Y-70195369D01*
X185826780Y-70100131D01*
X185874399Y-70052512D01*
X185969637Y-70004893D01*
X186064875Y-70004893D01*
X186207732Y-70052512D01*
X186779160Y-70623940D01*
X186779160Y-70004893D01*
X165176295Y-22791800D02*
X165081057Y-22744180D01*
X164938200Y-22744180D01*
X164795342Y-22791800D01*
X164700104Y-22887038D01*
X164652485Y-22982276D01*
X164604866Y-23172752D01*
X164604866Y-23315609D01*
X164652485Y-23506085D01*
X164700104Y-23601323D01*
X164795342Y-23696561D01*
X164938200Y-23744180D01*
X165033438Y-23744180D01*
X165176295Y-23696561D01*
X165223914Y-23648942D01*
X165223914Y-23315609D01*
X165033438Y-23315609D01*
X165652485Y-23744180D02*
X165652485Y-22744180D01*
X166223914Y-23744180D01*
X166223914Y-22744180D01*
X166700104Y-23744180D02*
X166700104Y-22744180D01*
X166938200Y-22744180D01*
X167081057Y-22791800D01*
X167176295Y-22887038D01*
X167223914Y-22982276D01*
X167271533Y-23172752D01*
X167271533Y-23315609D01*
X167223914Y-23506085D01*
X167176295Y-23601323D01*
X167081057Y-23696561D01*
X166938200Y-23744180D01*
X166700104Y-23744180D01*
X156397485Y-25573028D02*
X157159390Y-25573028D01*
X156778438Y-25953980D02*
X156778438Y-25192076D01*
X158111771Y-24953980D02*
X157635580Y-24953980D01*
X157587961Y-25430171D01*
X157635580Y-25382552D01*
X157730819Y-25334933D01*
X157968914Y-25334933D01*
X158064152Y-25382552D01*
X158111771Y-25430171D01*
X158159390Y-25525409D01*
X158159390Y-25763504D01*
X158111771Y-25858742D01*
X158064152Y-25906361D01*
X157968914Y-25953980D01*
X157730819Y-25953980D01*
X157635580Y-25906361D01*
X157587961Y-25858742D01*
X158445104Y-24953980D02*
X158778438Y-25953980D01*
X159111771Y-24953980D01*
X194492619Y-87232857D02*
X194445000Y-87185238D01*
X194397380Y-87090000D01*
X194397380Y-86851904D01*
X194445000Y-86756666D01*
X194492619Y-86709047D01*
X194587857Y-86661428D01*
X194683095Y-86661428D01*
X194825952Y-86709047D01*
X195397380Y-87280476D01*
X195397380Y-86661428D01*
X195397380Y-84899523D02*
X194921190Y-85232857D01*
X195397380Y-85470952D02*
X194397380Y-85470952D01*
X194397380Y-85090000D01*
X194445000Y-84994761D01*
X194492619Y-84947142D01*
X194587857Y-84899523D01*
X194730714Y-84899523D01*
X194825952Y-84947142D01*
X194873571Y-84994761D01*
X194921190Y-85090000D01*
X194921190Y-85470952D01*
X194397380Y-84566190D02*
X195397380Y-83899523D01*
X194397380Y-83899523D02*
X195397380Y-84566190D01*
X195397380Y-83518571D02*
X194397380Y-83518571D01*
X194397380Y-83280476D01*
X194445000Y-83137619D01*
X194540238Y-83042380D01*
X194635476Y-82994761D01*
X194825952Y-82947142D01*
X194968809Y-82947142D01*
X195159285Y-82994761D01*
X195254523Y-83042380D01*
X195349761Y-83137619D01*
X195397380Y-83280476D01*
X195397380Y-83518571D01*
X196810380Y-87328095D02*
X196810380Y-86709047D01*
X197191333Y-87042380D01*
X197191333Y-86899523D01*
X197238952Y-86804285D01*
X197286571Y-86756666D01*
X197381809Y-86709047D01*
X197619904Y-86709047D01*
X197715142Y-86756666D01*
X197762761Y-86804285D01*
X197810380Y-86899523D01*
X197810380Y-87185238D01*
X197762761Y-87280476D01*
X197715142Y-87328095D01*
X196858000Y-84994761D02*
X196810380Y-85090000D01*
X196810380Y-85232857D01*
X196858000Y-85375714D01*
X196953238Y-85470952D01*
X197048476Y-85518571D01*
X197238952Y-85566190D01*
X197381809Y-85566190D01*
X197572285Y-85518571D01*
X197667523Y-85470952D01*
X197762761Y-85375714D01*
X197810380Y-85232857D01*
X197810380Y-85137619D01*
X197762761Y-84994761D01*
X197715142Y-84947142D01*
X197381809Y-84947142D01*
X197381809Y-85137619D01*
X197810380Y-84518571D02*
X196810380Y-84518571D01*
X197810380Y-83947142D01*
X196810380Y-83947142D01*
X197810380Y-83470952D02*
X196810380Y-83470952D01*
X196810380Y-83232857D01*
X196858000Y-83090000D01*
X196953238Y-82994761D01*
X197048476Y-82947142D01*
X197238952Y-82899523D01*
X197381809Y-82899523D01*
X197572285Y-82947142D01*
X197667523Y-82994761D01*
X197762761Y-83090000D01*
X197810380Y-83232857D01*
X197810380Y-83470952D01*
X201763380Y-86637666D02*
X201763380Y-87113857D01*
X202239571Y-87161476D01*
X202191952Y-87113857D01*
X202144333Y-87018619D01*
X202144333Y-86780523D01*
X202191952Y-86685285D01*
X202239571Y-86637666D01*
X202334809Y-86590047D01*
X202572904Y-86590047D01*
X202668142Y-86637666D01*
X202715761Y-86685285D01*
X202763380Y-86780523D01*
X202763380Y-87018619D01*
X202715761Y-87113857D01*
X202668142Y-87161476D01*
X202763380Y-85399571D02*
X201763380Y-85399571D01*
X202763380Y-84828142D01*
X201763380Y-84828142D01*
X202668142Y-83780523D02*
X202715761Y-83828142D01*
X202763380Y-83971000D01*
X202763380Y-84066238D01*
X202715761Y-84209095D01*
X202620523Y-84304333D01*
X202525285Y-84351952D01*
X202334809Y-84399571D01*
X202191952Y-84399571D01*
X202001476Y-84351952D01*
X201906238Y-84304333D01*
X201811000Y-84209095D01*
X201763380Y-84066238D01*
X201763380Y-83971000D01*
X201811000Y-83828142D01*
X201858619Y-83780523D01*
X192603380Y-86669380D02*
X192603380Y-87240809D01*
X192603380Y-86955095D02*
X191603380Y-86955095D01*
X191746238Y-87050333D01*
X191841476Y-87145571D01*
X191889095Y-87240809D01*
X191603380Y-85621761D02*
X191603380Y-85050333D01*
X192603380Y-85336047D02*
X191603380Y-85336047D01*
X191603380Y-84812238D02*
X192603380Y-84145571D01*
X191603380Y-84145571D02*
X192603380Y-84812238D01*
X192603380Y-83764619D02*
X191603380Y-83764619D01*
X191603380Y-83526523D01*
X191651000Y-83383666D01*
X191746238Y-83288428D01*
X191841476Y-83240809D01*
X192031952Y-83193190D01*
X192174809Y-83193190D01*
X192365285Y-83240809D01*
X192460523Y-83288428D01*
X192555761Y-83383666D01*
X192603380Y-83526523D01*
X192603380Y-83764619D01*
X206861041Y-84000956D02*
X206908660Y-83858099D01*
X206908660Y-83620003D01*
X206861041Y-83524765D01*
X206813422Y-83477146D01*
X206718184Y-83429527D01*
X206622946Y-83429527D01*
X206527708Y-83477146D01*
X206480089Y-83524765D01*
X206432470Y-83620003D01*
X206384851Y-83810480D01*
X206337232Y-83905718D01*
X206289613Y-83953337D01*
X206194375Y-84000956D01*
X206099137Y-84000956D01*
X206003899Y-83953337D01*
X205956280Y-83905718D01*
X205908660Y-83810480D01*
X205908660Y-83572384D01*
X205956280Y-83429527D01*
X206908660Y-83000956D02*
X205908660Y-83000956D01*
X205908660Y-82762860D01*
X205956280Y-82620003D01*
X206051518Y-82524765D01*
X206146756Y-82477146D01*
X206337232Y-82429527D01*
X206480089Y-82429527D01*
X206670565Y-82477146D01*
X206765803Y-82524765D01*
X206861041Y-82620003D01*
X206908660Y-82762860D01*
X206908660Y-83000956D01*
X206861041Y-82048575D02*
X206908660Y-81905718D01*
X206908660Y-81667622D01*
X206861041Y-81572384D01*
X206813422Y-81524765D01*
X206718184Y-81477146D01*
X206622946Y-81477146D01*
X206527708Y-81524765D01*
X206480089Y-81572384D01*
X206432470Y-81667622D01*
X206384851Y-81858099D01*
X206337232Y-81953337D01*
X206289613Y-82000956D01*
X206194375Y-82048575D01*
X206099137Y-82048575D01*
X206003899Y-82000956D01*
X205956280Y-81953337D01*
X205908660Y-81858099D01*
X205908660Y-81620003D01*
X205956280Y-81477146D01*
X205908660Y-80858099D02*
X205908660Y-80762860D01*
X205956280Y-80667622D01*
X206003899Y-80620003D01*
X206099137Y-80572384D01*
X206289613Y-80524765D01*
X206527708Y-80524765D01*
X206718184Y-80572384D01*
X206813422Y-80620003D01*
X206861041Y-80667622D01*
X206908660Y-80762860D01*
X206908660Y-80858099D01*
X206861041Y-80953337D01*
X206813422Y-81000956D01*
X206718184Y-81048575D01*
X206527708Y-81096194D01*
X206289613Y-81096194D01*
X206099137Y-81048575D01*
X206003899Y-81000956D01*
X205956280Y-80953337D01*
X205908660Y-80858099D01*
X206908660Y-79572384D02*
X206908660Y-80143813D01*
X206908660Y-79858099D02*
X205908660Y-79858099D01*
X206051518Y-79953337D01*
X206146756Y-80048575D01*
X206194375Y-80143813D01*
X206908660Y-78620003D02*
X206908660Y-79191432D01*
X206908660Y-78905718D02*
X205908660Y-78905718D01*
X206051518Y-79000956D01*
X206146756Y-79096194D01*
X206194375Y-79191432D01*
D10*
X193998100Y-23917760D02*
X193998100Y-28917760D01*
X193998100Y-28917760D02*
X181998100Y-28917760D01*
X181998100Y-28917760D02*
X181998100Y-23917760D01*
X193998100Y-19917760D02*
X193998100Y-15917760D01*
X193998100Y-15917760D02*
X181998100Y-15917760D01*
X181998100Y-15917760D02*
X181998100Y-19917760D01*
D15*
X185498100Y-29417760D02*
X185498100Y-29417760D01*
X185298100Y-29417760D02*
X185298100Y-29417760D01*
X185298100Y-29417760D02*
G75*
G03X185498100Y-29417760I100000J0D01*
G01*
X185498100Y-29417760D02*
G75*
G03X185298100Y-29417760I-100000J0D01*
G01*
D16*
X194222100Y-36374720D02*
X181022100Y-36374720D01*
X181022100Y-36374720D02*
X181022100Y-27354720D01*
D10*
X181022100Y-18494720D02*
X181022100Y-18374720D01*
D16*
X181022100Y-18374720D02*
X181022100Y-25154720D01*
D10*
X181022100Y-18384720D02*
X181022100Y-18374720D01*
D16*
X181022100Y-18374720D02*
X194222100Y-18374720D01*
X194222100Y-18374720D02*
X194222100Y-25154720D01*
D10*
X194222100Y-27424720D02*
X194222100Y-27354720D01*
D16*
X194222100Y-27354720D02*
X194222100Y-36374720D01*
X194692100Y-34374720D02*
X194692100Y-35904720D01*
X204741020Y-40623360D02*
X204741020Y-41393360D01*
X204741020Y-48703360D02*
X204741020Y-47933360D01*
X203371020Y-41393360D02*
X203371020Y-47933360D01*
X206111020Y-41393360D02*
X203371020Y-41393360D01*
X206111020Y-47933360D02*
X206111020Y-41393360D01*
X203371020Y-47933360D02*
X206111020Y-47933360D01*
X160911482Y-21553844D02*
G75*
G02X161594800Y-21408600I683318J-1534756D01*
G01*
X160059374Y-23771642D02*
G75*
G02X160059800Y-22404600I1535426J683042D01*
G01*
X162277842Y-24624026D02*
G75*
G02X160910800Y-24623600I-683042J1535426D01*
G01*
X163130226Y-22405558D02*
G75*
G02X163129800Y-23772600I-1535426J-683042D01*
G01*
X161565995Y-21408347D02*
G75*
G02X162278800Y-21553600I28805J-1680253D01*
G01*
X158194800Y-23088600D02*
G75*
G03X158194800Y-23088600I-1680000J0D01*
G01*
X164194800Y-18988600D02*
X153914800Y-18988600D01*
X164194800Y-20488600D02*
X153914800Y-20488600D01*
X164194800Y-25389600D02*
X153914800Y-25389600D01*
X164194800Y-28349600D02*
X153914800Y-28349600D01*
X164194800Y-18428600D02*
X153914800Y-18428600D01*
X164194800Y-28349600D02*
X164194800Y-18428600D01*
X153914800Y-28349600D02*
X153914800Y-18428600D01*
X155239800Y-24157600D02*
X155286800Y-24111600D01*
X157548800Y-21849600D02*
X157583800Y-21814600D01*
X155444800Y-24363600D02*
X155479800Y-24327600D01*
X157741800Y-22065600D02*
X157788800Y-22019600D01*
X164434800Y-18928600D02*
X164434800Y-18188600D01*
X164434800Y-18188600D02*
X163934800Y-18188600D01*
X192731080Y-38907260D02*
X194061080Y-38907260D01*
X192731080Y-40237260D02*
X192731080Y-38907260D01*
X192731080Y-41507260D02*
X195391080Y-41507260D01*
X195391080Y-41507260D02*
X195391080Y-49187260D01*
X192731080Y-41507260D02*
X192731080Y-49187260D01*
X192731080Y-49187260D02*
X195391080Y-49187260D01*
D17*
X186618880Y-47348140D02*
X186618880Y-41201340D01*
X176814480Y-41201340D02*
X176814480Y-43969940D01*
X176814480Y-43969940D02*
X176814480Y-44579540D01*
X176814480Y-44579540D02*
X176814480Y-46789340D01*
X176814480Y-43969940D02*
G75*
G02X176814480Y-44579540I0J-304800D01*
G01*
D16*
X199235000Y-57838400D02*
X199235000Y-59168400D01*
X197905000Y-57838400D02*
X199235000Y-57838400D01*
X196635000Y-57838400D02*
X196635000Y-60498400D01*
X196635000Y-60498400D02*
X188955000Y-60498400D01*
X196635000Y-57838400D02*
X188955000Y-57838400D01*
X188955000Y-57838400D02*
X188955000Y-60498400D01*
X199235000Y-51838400D02*
X199235000Y-53168400D01*
X197905000Y-51838400D02*
X199235000Y-51838400D01*
X196635000Y-51838400D02*
X196635000Y-54498400D01*
X196635000Y-54498400D02*
X188955000Y-54498400D01*
X196635000Y-51838400D02*
X188955000Y-51838400D01*
X188955000Y-51838400D02*
X188955000Y-54498400D01*
X189923280Y-39747140D02*
X189923280Y-48987140D01*
X187683280Y-39747140D02*
X187683280Y-48987140D01*
X189923280Y-39747140D02*
X189468280Y-39747140D01*
X188138280Y-39747140D02*
X187683280Y-39747140D01*
X189923280Y-48987140D02*
X189468280Y-48987140D01*
X188138280Y-48987140D02*
X187683280Y-48987140D01*
X192578000Y-78672000D02*
X192278000Y-79272000D01*
X191978000Y-78672000D02*
X192578000Y-78672000D01*
X192278000Y-79272000D02*
X191978000Y-78672000D01*
X202528000Y-82372000D02*
X202028000Y-82372000D01*
X202528000Y-87872000D02*
X202528000Y-82372000D01*
X202028000Y-87872000D02*
X202528000Y-87872000D01*
X202028000Y-82372000D02*
X202028000Y-87872000D01*
X200028000Y-82372000D02*
X199528000Y-82372000D01*
X200028000Y-87872000D02*
X200028000Y-82372000D01*
X199528000Y-87872000D02*
X200028000Y-87872000D01*
X199528000Y-82372000D02*
X199528000Y-87872000D01*
X197528000Y-82372000D02*
X197028000Y-82372000D01*
X197528000Y-87872000D02*
X197528000Y-82372000D01*
X197028000Y-87872000D02*
X197528000Y-87872000D01*
X197028000Y-82372000D02*
X197028000Y-87872000D01*
X195028000Y-82372000D02*
X194528000Y-82372000D01*
X195028000Y-87872000D02*
X195028000Y-82372000D01*
X194528000Y-87872000D02*
X195028000Y-87872000D01*
X194528000Y-82372000D02*
X194528000Y-87872000D01*
X192528000Y-82372000D02*
X192028000Y-82372000D01*
X192528000Y-87872000D02*
X192528000Y-82372000D01*
X192028000Y-87872000D02*
X192528000Y-87872000D01*
X192028000Y-82372000D02*
X192028000Y-87872000D01*
X203418000Y-76762000D02*
X203418000Y-81262000D01*
X204838000Y-76762000D02*
X203418000Y-76762000D01*
X204838000Y-88482000D02*
X204838000Y-76762000D01*
X197278000Y-88482000D02*
X204838000Y-88482000D01*
X191138000Y-76762000D02*
X191138000Y-81262000D01*
X189718000Y-76762000D02*
X191138000Y-76762000D01*
X189718000Y-88482000D02*
X189718000Y-76762000D01*
X197278000Y-88482000D02*
X189718000Y-88482000D01*
D12*
X172408600Y-78689200D02*
X172408600Y-40589200D01*
X172408600Y-40589200D02*
X169868600Y-40589200D01*
X169868600Y-40589200D02*
X169868600Y-78689200D01*
X169868600Y-78689200D02*
X172408600Y-78689200D01*
X146728600Y-40309200D02*
X149828600Y-40309200D01*
X146728600Y-41859200D02*
X146728600Y-40309200D01*
X149548600Y-43129200D02*
X147008600Y-43129200D01*
X149828600Y-40309200D02*
X149828600Y-41859200D01*
X149548600Y-78689200D02*
X149548600Y-43129200D01*
X147008600Y-78689200D02*
X149548600Y-78689200D01*
X147008600Y-43129200D02*
X147008600Y-78689200D01*
X146373600Y-35509200D02*
X173043600Y-35509200D01*
X173043600Y-35509200D02*
X173043600Y-84404200D01*
X173043600Y-84404200D02*
X146373600Y-84404200D01*
X146373600Y-84404200D02*
X146373600Y-35509200D01*
X155898600Y-84404200D02*
X155898600Y-79324200D01*
X155898600Y-79324200D02*
X163518600Y-79324200D01*
X163518600Y-79324200D02*
X163518600Y-84404200D01*
X174933200Y-88653800D02*
X174933200Y-31653800D01*
X144433200Y-88653800D02*
X174933200Y-88653800D01*
X144433200Y-31653800D02*
X144433200Y-88653800D01*
X144933200Y-31653800D02*
X144433200Y-31653800D01*
X174933200Y-31653800D02*
X144933200Y-31653800D01*
D18*
G36*
X158559000Y-66320431D02*
G01*
X158597272Y-66204377D01*
X158705387Y-65978446D01*
X158844789Y-65798320D01*
X159027360Y-65649344D01*
X159068788Y-65622807D01*
X159135931Y-65588378D01*
X159214848Y-65565480D01*
X159321844Y-65551044D01*
X159473228Y-65542000D01*
X159504656Y-65540774D01*
X159708061Y-65538794D01*
X159865607Y-65552828D01*
X159993832Y-65587095D01*
X160109271Y-65645813D01*
X160214310Y-65721775D01*
X160312025Y-65802583D01*
X160379964Y-65869722D01*
X160435652Y-65944325D01*
X160496615Y-66047526D01*
X160520864Y-66091435D01*
X160555822Y-66159116D01*
X160580295Y-66222025D01*
X160596471Y-66293894D01*
X160606536Y-66388454D01*
X160612679Y-66519434D01*
X160616967Y-66694685D01*
X160618289Y-66861601D01*
X160615616Y-67010082D01*
X160609473Y-67126383D01*
X160600385Y-67196757D01*
X160597435Y-67206238D01*
X160521647Y-67309767D01*
X160407916Y-67379213D01*
X160274106Y-67410793D01*
X160138080Y-67400721D01*
X160017704Y-67345212D01*
X160001767Y-67332447D01*
X159963748Y-67296878D01*
X159937724Y-67259004D01*
X159920645Y-67205891D01*
X159909463Y-67124602D01*
X159901126Y-67002201D01*
X159895112Y-66880009D01*
X159880992Y-66664807D01*
X159858801Y-66505201D01*
X159824342Y-66393404D01*
X159773415Y-66321629D01*
X159701823Y-66282092D01*
X159605367Y-66267006D01*
X159564079Y-66266060D01*
X159444093Y-66293059D01*
X159351004Y-66364946D01*
X159299382Y-66468059D01*
X159293560Y-66519734D01*
X159275658Y-66619273D01*
X159238010Y-66703740D01*
X159151876Y-66814368D01*
X159059064Y-66875280D01*
X158938239Y-66898545D01*
X158891059Y-66900004D01*
X158789220Y-66896371D01*
X158723236Y-66875617D01*
X158665646Y-66825444D01*
X158629121Y-66782701D01*
X158554215Y-66651985D01*
X158530963Y-66500113D01*
X158559000Y-66320431D01*
G37*
X158559000Y-66320431D02*
X158597272Y-66204377D01*
X158705387Y-65978446D01*
X158844789Y-65798320D01*
X159027360Y-65649344D01*
X159068788Y-65622807D01*
X159135931Y-65588378D01*
X159214848Y-65565480D01*
X159321844Y-65551044D01*
X159473228Y-65542000D01*
X159504656Y-65540774D01*
X159708061Y-65538794D01*
X159865607Y-65552828D01*
X159993832Y-65587095D01*
X160109271Y-65645813D01*
X160214310Y-65721775D01*
X160312025Y-65802583D01*
X160379964Y-65869722D01*
X160435652Y-65944325D01*
X160496615Y-66047526D01*
X160520864Y-66091435D01*
X160555822Y-66159116D01*
X160580295Y-66222025D01*
X160596471Y-66293894D01*
X160606536Y-66388454D01*
X160612679Y-66519434D01*
X160616967Y-66694685D01*
X160618289Y-66861601D01*
X160615616Y-67010082D01*
X160609473Y-67126383D01*
X160600385Y-67196757D01*
X160597435Y-67206238D01*
X160521647Y-67309767D01*
X160407916Y-67379213D01*
X160274106Y-67410793D01*
X160138080Y-67400721D01*
X160017704Y-67345212D01*
X160001767Y-67332447D01*
X159963748Y-67296878D01*
X159937724Y-67259004D01*
X159920645Y-67205891D01*
X159909463Y-67124602D01*
X159901126Y-67002201D01*
X159895112Y-66880009D01*
X159880992Y-66664807D01*
X159858801Y-66505201D01*
X159824342Y-66393404D01*
X159773415Y-66321629D01*
X159701823Y-66282092D01*
X159605367Y-66267006D01*
X159564079Y-66266060D01*
X159444093Y-66293059D01*
X159351004Y-66364946D01*
X159299382Y-66468059D01*
X159293560Y-66519734D01*
X159275658Y-66619273D01*
X159238010Y-66703740D01*
X159151876Y-66814368D01*
X159059064Y-66875280D01*
X158938239Y-66898545D01*
X158891059Y-66900004D01*
X158789220Y-66896371D01*
X158723236Y-66875617D01*
X158665646Y-66825444D01*
X158629121Y-66782701D01*
X158554215Y-66651985D01*
X158530963Y-66500113D01*
X158559000Y-66320431D01*
G36*
X154539045Y-71641901D02*
G01*
X154561883Y-71393299D01*
X154597900Y-71178941D01*
X154645421Y-71010146D01*
X154674628Y-70943164D01*
X154707341Y-70873239D01*
X154721357Y-70829001D01*
X154721364Y-70828644D01*
X154736385Y-70791616D01*
X154776456Y-70713625D01*
X154834371Y-70608403D01*
X154866850Y-70551461D01*
X155014294Y-70329458D01*
X155196906Y-70106415D01*
X155397629Y-69900929D01*
X155599409Y-69731600D01*
X155654111Y-69692973D01*
X155857407Y-69556106D01*
X155855987Y-69252521D01*
X155861751Y-69061614D01*
X155879177Y-68873830D01*
X155905843Y-68705999D01*
X155939329Y-68574952D01*
X155961041Y-68522203D01*
X155988689Y-68465804D01*
X156030730Y-68376240D01*
X156057455Y-68318076D01*
X156100808Y-68238721D01*
X156166870Y-68135868D01*
X156246495Y-68021735D01*
X156330535Y-67908542D01*
X156409841Y-67808507D01*
X156475267Y-67733849D01*
X156517663Y-67696787D01*
X156524079Y-67694810D01*
X156561199Y-67675170D01*
X156620724Y-67627105D01*
X156629257Y-67619310D01*
X156714127Y-67554592D01*
X156835689Y-67478807D01*
X156975060Y-67401963D01*
X157113359Y-67334066D01*
X157231703Y-67285125D01*
X157293310Y-67267362D01*
X157391693Y-67242683D01*
X157474541Y-67212000D01*
X157475824Y-67211372D01*
X157540425Y-67189277D01*
X157564654Y-67208867D01*
X157549046Y-67273126D01*
X157503762Y-67367158D01*
X157416474Y-67538980D01*
X157357293Y-67677347D01*
X157318920Y-67801516D01*
X157296700Y-67913504D01*
X157267252Y-68034685D01*
X157220959Y-68110021D01*
X157194574Y-68132090D01*
X157024733Y-68265848D01*
X156885576Y-68415089D01*
X156764870Y-68595454D01*
X156650377Y-68822587D01*
X156644871Y-68834837D01*
X156630223Y-68898670D01*
X156618713Y-69008012D01*
X156611887Y-69144893D01*
X156610685Y-69231712D01*
X156614183Y-69405085D01*
X156628440Y-69538319D01*
X156659096Y-69654572D01*
X156711793Y-69777000D01*
X156771162Y-69890459D01*
X156807102Y-69961742D01*
X156804492Y-69996794D01*
X156753860Y-70014166D01*
X156703657Y-70022655D01*
X156580781Y-70057630D01*
X156427234Y-70123187D01*
X156261447Y-70209641D01*
X156101846Y-70307305D01*
X155966860Y-70406491D01*
X155955943Y-70415678D01*
X155779046Y-70586677D01*
X155619812Y-70778253D01*
X155494106Y-70970345D01*
X155452145Y-71052832D01*
X155407109Y-71150190D01*
X155369028Y-71229691D01*
X155355678Y-71256087D01*
X155320872Y-71356524D01*
X155293325Y-71504770D01*
X155274654Y-71685383D01*
X155266476Y-71882925D01*
X155269988Y-72073956D01*
X155304703Y-72381282D01*
X155378707Y-72652401D01*
X155497533Y-72904892D01*
X155566648Y-73016435D01*
X155659198Y-73137888D01*
X155779082Y-73270189D01*
X155910729Y-73398316D01*
X156038566Y-73507249D01*
X156147023Y-73581967D01*
X156160352Y-73589139D01*
X156231955Y-73628791D01*
X156274902Y-73658076D01*
X156277310Y-73660601D01*
X156319451Y-73686858D01*
X156404722Y-73724770D01*
X156515455Y-73767665D01*
X156633981Y-73808873D01*
X156742631Y-73841723D01*
X156785310Y-73852389D01*
X156916046Y-73871964D01*
X157078139Y-73881659D01*
X157257047Y-73882262D01*
X157438224Y-73874558D01*
X157607126Y-73859333D01*
X157749211Y-73837374D01*
X157849934Y-73809465D01*
X157880685Y-73793198D01*
X157929862Y-73766936D01*
X158009391Y-73732967D01*
X158023560Y-73727496D01*
X158244874Y-73616284D01*
X158465651Y-73456096D01*
X158671763Y-73259987D01*
X158849084Y-73041011D01*
X158957320Y-72864636D01*
X159003402Y-72776505D01*
X159043200Y-72696321D01*
X159077174Y-72618876D01*
X159105786Y-72538962D01*
X159129496Y-72451372D01*
X159148764Y-72350900D01*
X159164052Y-72232336D01*
X159175819Y-72090474D01*
X159184526Y-71920107D01*
X159190635Y-71716026D01*
X159194605Y-71473025D01*
X159196897Y-71185896D01*
X159197972Y-70849431D01*
X159198290Y-70458424D01*
X159198310Y-70140176D01*
X159198310Y-68116833D01*
X159120451Y-68032822D01*
X159048991Y-67974568D01*
X158961872Y-67951146D01*
X158903735Y-67948810D01*
X158772520Y-67971352D01*
X158680320Y-68041261D01*
X158623597Y-68161968D01*
X158608531Y-68234917D01*
X158555000Y-68392861D01*
X158489590Y-68480623D01*
X158420525Y-68544339D01*
X158353206Y-68574519D01*
X158258394Y-68582738D01*
X158231644Y-68582754D01*
X158090984Y-68565901D01*
X157988860Y-68510444D01*
X157908964Y-68405770D01*
X157883546Y-68356201D01*
X157857282Y-68294836D01*
X157846409Y-68240478D01*
X157851346Y-68173916D01*
X157872512Y-68075940D01*
X157891275Y-68001495D01*
X157984862Y-67742301D01*
X158119681Y-67531007D01*
X158294094Y-67368898D01*
X158506463Y-67257261D01*
X158755148Y-67197381D01*
X158929193Y-67186810D01*
X159052884Y-67190093D01*
X159150587Y-67198834D01*
X159206239Y-67211372D01*
X159212675Y-67216118D01*
X159254332Y-67243790D01*
X159319654Y-67264943D01*
X159408570Y-67304968D01*
X159517725Y-67383318D01*
X159631520Y-67485898D01*
X159734353Y-67598615D01*
X159810625Y-67707373D01*
X159811938Y-67709708D01*
X159841267Y-67764413D01*
X159866458Y-67819183D01*
X159887828Y-67879079D01*
X159905688Y-67949164D01*
X159920353Y-68034501D01*
X159932136Y-68140151D01*
X159941351Y-68271179D01*
X159948311Y-68432646D01*
X159953331Y-68629616D01*
X159956723Y-68867149D01*
X159958802Y-69150310D01*
X159959880Y-69484161D01*
X159960273Y-69873763D01*
X159960310Y-70104737D01*
X159960310Y-72035288D01*
X160038168Y-72119299D01*
X160139783Y-72186013D01*
X160263211Y-72204878D01*
X160387421Y-72174914D01*
X160447055Y-72138369D01*
X160529615Y-72073428D01*
X160538650Y-70019057D01*
X160547685Y-67964685D01*
X160654147Y-67766984D01*
X160802822Y-67549544D01*
X160983652Y-67380524D01*
X161188543Y-67261200D01*
X161409400Y-67192848D01*
X161638128Y-67176744D01*
X161866631Y-67214165D01*
X162086816Y-67306387D01*
X162290587Y-67454687D01*
X162338710Y-67501385D01*
X162466943Y-67659981D01*
X162548160Y-67830849D01*
X162588442Y-68030218D01*
X162595560Y-68186651D01*
X162593246Y-68308749D01*
X162582548Y-68387145D01*
X162557829Y-68441579D01*
X162513451Y-68491790D01*
X162506510Y-68498495D01*
X162434581Y-68553741D01*
X162353240Y-68578796D01*
X162258450Y-68583810D01*
X162123844Y-68564824D01*
X162021263Y-68503459D01*
X161943911Y-68393111D01*
X161884991Y-68227174D01*
X161882766Y-68218685D01*
X161848089Y-68110854D01*
X161808578Y-68025751D01*
X161779784Y-67988498D01*
X161704066Y-67960147D01*
X161597344Y-67949890D01*
X161489694Y-67958450D01*
X161422062Y-67979890D01*
X161396429Y-67996134D01*
X161374452Y-68018492D01*
X161355850Y-68051643D01*
X161340342Y-68100266D01*
X161327650Y-68169040D01*
X161317492Y-68262644D01*
X161309588Y-68385757D01*
X161303658Y-68543059D01*
X161299423Y-68739227D01*
X161296601Y-68978942D01*
X161294913Y-69266881D01*
X161294079Y-69607725D01*
X161293818Y-70006152D01*
X161293810Y-70121753D01*
X161293709Y-70545142D01*
X161293114Y-70910020D01*
X161291581Y-71221378D01*
X161288668Y-71484204D01*
X161283931Y-71703488D01*
X161276928Y-71884220D01*
X161267217Y-72031390D01*
X161254354Y-72149985D01*
X161237897Y-72244997D01*
X161217403Y-72321415D01*
X161192430Y-72384228D01*
X161162535Y-72438426D01*
X161127275Y-72488998D01*
X161086208Y-72540934D01*
X161078306Y-72550639D01*
X160956864Y-72690301D01*
X160853847Y-72785365D01*
X160756414Y-72846504D01*
X160690560Y-72872922D01*
X160608667Y-72904484D01*
X160553423Y-72933984D01*
X160549272Y-72937396D01*
X160496113Y-72955585D01*
X160398463Y-72964606D01*
X160274573Y-72965077D01*
X160142692Y-72957617D01*
X160021073Y-72942845D01*
X159927965Y-72921380D01*
X159913130Y-72915826D01*
X159837575Y-72887061D01*
X159792430Y-72875209D01*
X159787744Y-72876138D01*
X159771846Y-72908072D01*
X159738255Y-72979957D01*
X159708612Y-73044685D01*
X159572097Y-73299319D01*
X159398049Y-73553809D01*
X159199308Y-73792729D01*
X158988713Y-74000655D01*
X158779105Y-74162163D01*
X158777623Y-74163125D01*
X158697103Y-74216454D01*
X158640896Y-74255787D01*
X158626810Y-74267085D01*
X158591909Y-74288133D01*
X158516071Y-74327135D01*
X158420435Y-74373395D01*
X158312539Y-74424773D01*
X158221158Y-74469180D01*
X158171462Y-74494223D01*
X158061700Y-74533550D01*
X157901825Y-74565901D01*
X157704903Y-74590673D01*
X157484001Y-74607259D01*
X157252184Y-74615056D01*
X157022520Y-74613458D01*
X156808073Y-74601860D01*
X156621912Y-74579658D01*
X156563050Y-74568683D01*
X156218133Y-74464784D01*
X155885077Y-74303835D01*
X155571424Y-74092141D01*
X155284720Y-73836007D01*
X155032507Y-73541735D01*
X154822330Y-73215632D01*
X154734420Y-73040551D01*
X154647843Y-72822158D01*
X154587295Y-72597206D01*
X154549921Y-72349870D01*
X154532867Y-72064329D01*
X154531059Y-71913429D01*
X154539045Y-71641901D01*
G37*
X154539045Y-71641901D02*
X154561883Y-71393299D01*
X154597900Y-71178941D01*
X154645421Y-71010146D01*
X154674628Y-70943164D01*
X154707341Y-70873239D01*
X154721357Y-70829001D01*
X154721364Y-70828644D01*
X154736385Y-70791616D01*
X154776456Y-70713625D01*
X154834371Y-70608403D01*
X154866850Y-70551461D01*
X155014294Y-70329458D01*
X155196906Y-70106415D01*
X155397629Y-69900929D01*
X155599409Y-69731600D01*
X155654111Y-69692973D01*
X155857407Y-69556106D01*
X155855987Y-69252521D01*
X155861751Y-69061614D01*
X155879177Y-68873830D01*
X155905843Y-68705999D01*
X155939329Y-68574952D01*
X155961041Y-68522203D01*
X155988689Y-68465804D01*
X156030730Y-68376240D01*
X156057455Y-68318076D01*
X156100808Y-68238721D01*
X156166870Y-68135868D01*
X156246495Y-68021735D01*
X156330535Y-67908542D01*
X156409841Y-67808507D01*
X156475267Y-67733849D01*
X156517663Y-67696787D01*
X156524079Y-67694810D01*
X156561199Y-67675170D01*
X156620724Y-67627105D01*
X156629257Y-67619310D01*
X156714127Y-67554592D01*
X156835689Y-67478807D01*
X156975060Y-67401963D01*
X157113359Y-67334066D01*
X157231703Y-67285125D01*
X157293310Y-67267362D01*
X157391693Y-67242683D01*
X157474541Y-67212000D01*
X157475824Y-67211372D01*
X157540425Y-67189277D01*
X157564654Y-67208867D01*
X157549046Y-67273126D01*
X157503762Y-67367158D01*
X157416474Y-67538980D01*
X157357293Y-67677347D01*
X157318920Y-67801516D01*
X157296700Y-67913504D01*
X157267252Y-68034685D01*
X157220959Y-68110021D01*
X157194574Y-68132090D01*
X157024733Y-68265848D01*
X156885576Y-68415089D01*
X156764870Y-68595454D01*
X156650377Y-68822587D01*
X156644871Y-68834837D01*
X156630223Y-68898670D01*
X156618713Y-69008012D01*
X156611887Y-69144893D01*
X156610685Y-69231712D01*
X156614183Y-69405085D01*
X156628440Y-69538319D01*
X156659096Y-69654572D01*
X156711793Y-69777000D01*
X156771162Y-69890459D01*
X156807102Y-69961742D01*
X156804492Y-69996794D01*
X156753860Y-70014166D01*
X156703657Y-70022655D01*
X156580781Y-70057630D01*
X156427234Y-70123187D01*
X156261447Y-70209641D01*
X156101846Y-70307305D01*
X155966860Y-70406491D01*
X155955943Y-70415678D01*
X155779046Y-70586677D01*
X155619812Y-70778253D01*
X155494106Y-70970345D01*
X155452145Y-71052832D01*
X155407109Y-71150190D01*
X155369028Y-71229691D01*
X155355678Y-71256087D01*
X155320872Y-71356524D01*
X155293325Y-71504770D01*
X155274654Y-71685383D01*
X155266476Y-71882925D01*
X155269988Y-72073956D01*
X155304703Y-72381282D01*
X155378707Y-72652401D01*
X155497533Y-72904892D01*
X155566648Y-73016435D01*
X155659198Y-73137888D01*
X155779082Y-73270189D01*
X155910729Y-73398316D01*
X156038566Y-73507249D01*
X156147023Y-73581967D01*
X156160352Y-73589139D01*
X156231955Y-73628791D01*
X156274902Y-73658076D01*
X156277310Y-73660601D01*
X156319451Y-73686858D01*
X156404722Y-73724770D01*
X156515455Y-73767665D01*
X156633981Y-73808873D01*
X156742631Y-73841723D01*
X156785310Y-73852389D01*
X156916046Y-73871964D01*
X157078139Y-73881659D01*
X157257047Y-73882262D01*
X157438224Y-73874558D01*
X157607126Y-73859333D01*
X157749211Y-73837374D01*
X157849934Y-73809465D01*
X157880685Y-73793198D01*
X157929862Y-73766936D01*
X158009391Y-73732967D01*
X158023560Y-73727496D01*
X158244874Y-73616284D01*
X158465651Y-73456096D01*
X158671763Y-73259987D01*
X158849084Y-73041011D01*
X158957320Y-72864636D01*
X159003402Y-72776505D01*
X159043200Y-72696321D01*
X159077174Y-72618876D01*
X159105786Y-72538962D01*
X159129496Y-72451372D01*
X159148764Y-72350900D01*
X159164052Y-72232336D01*
X159175819Y-72090474D01*
X159184526Y-71920107D01*
X159190635Y-71716026D01*
X159194605Y-71473025D01*
X159196897Y-71185896D01*
X159197972Y-70849431D01*
X159198290Y-70458424D01*
X159198310Y-70140176D01*
X159198310Y-68116833D01*
X159120451Y-68032822D01*
X159048991Y-67974568D01*
X158961872Y-67951146D01*
X158903735Y-67948810D01*
X158772520Y-67971352D01*
X158680320Y-68041261D01*
X158623597Y-68161968D01*
X158608531Y-68234917D01*
X158555000Y-68392861D01*
X158489590Y-68480623D01*
X158420525Y-68544339D01*
X158353206Y-68574519D01*
X158258394Y-68582738D01*
X158231644Y-68582754D01*
X158090984Y-68565901D01*
X157988860Y-68510444D01*
X157908964Y-68405770D01*
X157883546Y-68356201D01*
X157857282Y-68294836D01*
X157846409Y-68240478D01*
X157851346Y-68173916D01*
X157872512Y-68075940D01*
X157891275Y-68001495D01*
X157984862Y-67742301D01*
X158119681Y-67531007D01*
X158294094Y-67368898D01*
X158506463Y-67257261D01*
X158755148Y-67197381D01*
X158929193Y-67186810D01*
X159052884Y-67190093D01*
X159150587Y-67198834D01*
X159206239Y-67211372D01*
X159212675Y-67216118D01*
X159254332Y-67243790D01*
X159319654Y-67264943D01*
X159408570Y-67304968D01*
X159517725Y-67383318D01*
X159631520Y-67485898D01*
X159734353Y-67598615D01*
X159810625Y-67707373D01*
X159811938Y-67709708D01*
X159841267Y-67764413D01*
X159866458Y-67819183D01*
X159887828Y-67879079D01*
X159905688Y-67949164D01*
X159920353Y-68034501D01*
X159932136Y-68140151D01*
X159941351Y-68271179D01*
X159948311Y-68432646D01*
X159953331Y-68629616D01*
X159956723Y-68867149D01*
X159958802Y-69150310D01*
X159959880Y-69484161D01*
X159960273Y-69873763D01*
X159960310Y-70104737D01*
X159960310Y-72035288D01*
X160038168Y-72119299D01*
X160139783Y-72186013D01*
X160263211Y-72204878D01*
X160387421Y-72174914D01*
X160447055Y-72138369D01*
X160529615Y-72073428D01*
X160538650Y-70019057D01*
X160547685Y-67964685D01*
X160654147Y-67766984D01*
X160802822Y-67549544D01*
X160983652Y-67380524D01*
X161188543Y-67261200D01*
X161409400Y-67192848D01*
X161638128Y-67176744D01*
X161866631Y-67214165D01*
X162086816Y-67306387D01*
X162290587Y-67454687D01*
X162338710Y-67501385D01*
X162466943Y-67659981D01*
X162548160Y-67830849D01*
X162588442Y-68030218D01*
X162595560Y-68186651D01*
X162593246Y-68308749D01*
X162582548Y-68387145D01*
X162557829Y-68441579D01*
X162513451Y-68491790D01*
X162506510Y-68498495D01*
X162434581Y-68553741D01*
X162353240Y-68578796D01*
X162258450Y-68583810D01*
X162123844Y-68564824D01*
X162021263Y-68503459D01*
X161943911Y-68393111D01*
X161884991Y-68227174D01*
X161882766Y-68218685D01*
X161848089Y-68110854D01*
X161808578Y-68025751D01*
X161779784Y-67988498D01*
X161704066Y-67960147D01*
X161597344Y-67949890D01*
X161489694Y-67958450D01*
X161422062Y-67979890D01*
X161396429Y-67996134D01*
X161374452Y-68018492D01*
X161355850Y-68051643D01*
X161340342Y-68100266D01*
X161327650Y-68169040D01*
X161317492Y-68262644D01*
X161309588Y-68385757D01*
X161303658Y-68543059D01*
X161299423Y-68739227D01*
X161296601Y-68978942D01*
X161294913Y-69266881D01*
X161294079Y-69607725D01*
X161293818Y-70006152D01*
X161293810Y-70121753D01*
X161293709Y-70545142D01*
X161293114Y-70910020D01*
X161291581Y-71221378D01*
X161288668Y-71484204D01*
X161283931Y-71703488D01*
X161276928Y-71884220D01*
X161267217Y-72031390D01*
X161254354Y-72149985D01*
X161237897Y-72244997D01*
X161217403Y-72321415D01*
X161192430Y-72384228D01*
X161162535Y-72438426D01*
X161127275Y-72488998D01*
X161086208Y-72540934D01*
X161078306Y-72550639D01*
X160956864Y-72690301D01*
X160853847Y-72785365D01*
X160756414Y-72846504D01*
X160690560Y-72872922D01*
X160608667Y-72904484D01*
X160553423Y-72933984D01*
X160549272Y-72937396D01*
X160496113Y-72955585D01*
X160398463Y-72964606D01*
X160274573Y-72965077D01*
X160142692Y-72957617D01*
X160021073Y-72942845D01*
X159927965Y-72921380D01*
X159913130Y-72915826D01*
X159837575Y-72887061D01*
X159792430Y-72875209D01*
X159787744Y-72876138D01*
X159771846Y-72908072D01*
X159738255Y-72979957D01*
X159708612Y-73044685D01*
X159572097Y-73299319D01*
X159398049Y-73553809D01*
X159199308Y-73792729D01*
X158988713Y-74000655D01*
X158779105Y-74162163D01*
X158777623Y-74163125D01*
X158697103Y-74216454D01*
X158640896Y-74255787D01*
X158626810Y-74267085D01*
X158591909Y-74288133D01*
X158516071Y-74327135D01*
X158420435Y-74373395D01*
X158312539Y-74424773D01*
X158221158Y-74469180D01*
X158171462Y-74494223D01*
X158061700Y-74533550D01*
X157901825Y-74565901D01*
X157704903Y-74590673D01*
X157484001Y-74607259D01*
X157252184Y-74615056D01*
X157022520Y-74613458D01*
X156808073Y-74601860D01*
X156621912Y-74579658D01*
X156563050Y-74568683D01*
X156218133Y-74464784D01*
X155885077Y-74303835D01*
X155571424Y-74092141D01*
X155284720Y-73836007D01*
X155032507Y-73541735D01*
X154822330Y-73215632D01*
X154734420Y-73040551D01*
X154647843Y-72822158D01*
X154587295Y-72597206D01*
X154549921Y-72349870D01*
X154532867Y-72064329D01*
X154531059Y-71913429D01*
X154539045Y-71641901D01*
D16*
X199235000Y-71838400D02*
X199235000Y-73168400D01*
X197905000Y-71838400D02*
X199235000Y-71838400D01*
X196635000Y-71838400D02*
X196635000Y-74498400D01*
X196635000Y-74498400D02*
X188955000Y-74498400D01*
X196635000Y-71838400D02*
X188955000Y-71838400D01*
X188955000Y-71838400D02*
X188955000Y-74498400D01*
X199235000Y-65838400D02*
X199235000Y-67168400D01*
X197905000Y-65838400D02*
X199235000Y-65838400D01*
X196635000Y-65838400D02*
X196635000Y-68498400D01*
X196635000Y-68498400D02*
X188955000Y-68498400D01*
X196635000Y-65838400D02*
X188955000Y-65838400D01*
X188955000Y-65838400D02*
X188955000Y-68498400D01*
X170385000Y-25087000D02*
X170085000Y-24487000D01*
X169785000Y-25087000D02*
X170385000Y-25087000D01*
X170085000Y-24487000D02*
X169785000Y-25087000D01*
X175235000Y-22447000D02*
X175395000Y-22447000D01*
X177585000Y-21397000D02*
X177265000Y-21397000D01*
X173745000Y-22427000D02*
X173905000Y-22427000D01*
X175405000Y-21397000D02*
X175085000Y-21397000D01*
X175085000Y-21397000D02*
X174765000Y-21397000D01*
X172265000Y-22407000D02*
X172425000Y-22407000D01*
X172905000Y-21397000D02*
X172585000Y-21397000D01*
X172585000Y-21397000D02*
X172265000Y-21397000D01*
X170785000Y-22407000D02*
X170965000Y-22407000D01*
X170405000Y-21397000D02*
X170085000Y-21397000D01*
X170085000Y-21397000D02*
X169765000Y-21397000D01*
X168695000Y-21397000D02*
X177645000Y-21397000D01*
X176995000Y-18297000D02*
X176985000Y-22367000D01*
X169195000Y-22317000D02*
X168555000Y-22317000D01*
X169225000Y-18317000D02*
X169225000Y-22387000D01*
X176985000Y-24527000D02*
X176985000Y-22327000D01*
X177635000Y-24567000D02*
X176985000Y-24567000D01*
X177645000Y-18297000D02*
X177655000Y-24567000D01*
X168525000Y-18297000D02*
X177645000Y-18297000D01*
X168535000Y-24587000D02*
X168535000Y-18297000D01*
X169245000Y-24597000D02*
X168535000Y-24597000D01*
X169245000Y-22347000D02*
X169245000Y-24547000D01*
X199677020Y-40623360D02*
X199677020Y-41393360D01*
X199677020Y-48703360D02*
X199677020Y-47933360D01*
X198307020Y-41393360D02*
X198307020Y-47933360D01*
X201047020Y-41393360D02*
X198307020Y-41393360D01*
X201047020Y-47933360D02*
X201047020Y-41393360D01*
X198307020Y-47933360D02*
X201047020Y-47933360D01*
X178516280Y-53577360D02*
X178516280Y-54347360D01*
X178516280Y-61657360D02*
X178516280Y-60887360D01*
X177146280Y-54347360D02*
X177146280Y-60887360D01*
X179886280Y-54347360D02*
X177146280Y-54347360D01*
X179886280Y-60887360D02*
X179886280Y-54347360D01*
X177146280Y-60887360D02*
X179886280Y-60887360D01*
X183088280Y-53450360D02*
X183088280Y-54220360D01*
X183088280Y-61530360D02*
X183088280Y-60760360D01*
X181718280Y-54220360D02*
X181718280Y-60760360D01*
X184458280Y-54220360D02*
X181718280Y-54220360D01*
X184458280Y-60760360D02*
X184458280Y-54220360D01*
X181718280Y-60760360D02*
X184458280Y-60760360D01*
X178574700Y-76247120D02*
X178574700Y-75477120D01*
X178574700Y-68167120D02*
X178574700Y-68937120D01*
X179944700Y-75477120D02*
X179944700Y-68937120D01*
X177204700Y-75477120D02*
X179944700Y-75477120D01*
X177204700Y-68937120D02*
X177204700Y-75477120D01*
X179944700Y-68937120D02*
X177204700Y-68937120D01*
X182654900Y-66533720D02*
X183984900Y-66533720D01*
X182654900Y-67863720D02*
X182654900Y-66533720D01*
X182654900Y-69133720D02*
X185314900Y-69133720D01*
X185314900Y-69133720D02*
X185314900Y-76813720D01*
X182654900Y-69133720D02*
X182654900Y-76813720D01*
X182654900Y-76813720D02*
X185314900Y-76813720D01*
X148784000Y-21733200D02*
X150114000Y-21733200D01*
X148784000Y-23063200D02*
X148784000Y-21733200D01*
X148784000Y-24333200D02*
X151444000Y-24333200D01*
X151444000Y-24333200D02*
X151444000Y-26933200D01*
X148784000Y-24333200D02*
X148784000Y-26933200D01*
X148784000Y-26933200D02*
X151444000Y-26933200D01*
D12*
X197038696Y-22271740D02*
X197038696Y-22986026D01*
X196991077Y-23128883D01*
X196895839Y-23224121D01*
X196752981Y-23271740D01*
X196657743Y-23271740D01*
X198038696Y-23271740D02*
X197467267Y-23271740D01*
X197752981Y-23271740D02*
X197752981Y-22271740D01*
X197657743Y-22414598D01*
X197562505Y-22509836D01*
X197467267Y-22557455D01*
X198419648Y-22366979D02*
X198467267Y-22319360D01*
X198562505Y-22271740D01*
X198800600Y-22271740D01*
X198895839Y-22319360D01*
X198943458Y-22366979D01*
X198991077Y-22462217D01*
X198991077Y-22557455D01*
X198943458Y-22700312D01*
X198372029Y-23271740D01*
X198991077Y-23271740D01*
X197319710Y-24986240D02*
X196986377Y-24510050D01*
X196748281Y-24986240D02*
X196748281Y-23986240D01*
X197129234Y-23986240D01*
X197224472Y-24033860D01*
X197272091Y-24081479D01*
X197319710Y-24176717D01*
X197319710Y-24319574D01*
X197272091Y-24414812D01*
X197224472Y-24462431D01*
X197129234Y-24510050D01*
X196748281Y-24510050D01*
X198033996Y-23986240D02*
X198033996Y-24700526D01*
X197986377Y-24843383D01*
X197891139Y-24938621D01*
X197748281Y-24986240D01*
X197653043Y-24986240D01*
X199033996Y-24986240D02*
X198462567Y-24986240D01*
X198748281Y-24986240D02*
X198748281Y-23986240D01*
X198653043Y-24129098D01*
X198557805Y-24224336D01*
X198462567Y-24271955D01*
X199414948Y-24081479D02*
X199462567Y-24033860D01*
X199557805Y-23986240D01*
X199795900Y-23986240D01*
X199891139Y-24033860D01*
X199938758Y-24081479D01*
X199986377Y-24176717D01*
X199986377Y-24271955D01*
X199938758Y-24414812D01*
X199367329Y-24986240D01*
X199986377Y-24986240D01*
X195816956Y-32800040D02*
X195816956Y-33514326D01*
X195769337Y-33657183D01*
X195674099Y-33752421D01*
X195531241Y-33800040D01*
X195436003Y-33800040D01*
X196816956Y-33800040D02*
X196245527Y-33800040D01*
X196531241Y-33800040D02*
X196531241Y-32800040D01*
X196436003Y-32942898D01*
X196340765Y-33038136D01*
X196245527Y-33085755D01*
X197769337Y-33800040D02*
X197197908Y-33800040D01*
X197483622Y-33800040D02*
X197483622Y-32800040D01*
X197388384Y-32942898D01*
X197293146Y-33038136D01*
X197197908Y-33085755D01*
X207500480Y-46925526D02*
X207024290Y-47258860D01*
X207500480Y-47496955D02*
X206500480Y-47496955D01*
X206500480Y-47116002D01*
X206548100Y-47020764D01*
X206595719Y-46973145D01*
X206690957Y-46925526D01*
X206833814Y-46925526D01*
X206929052Y-46973145D01*
X206976671Y-47020764D01*
X207024290Y-47116002D01*
X207024290Y-47496955D01*
X206500480Y-46020764D02*
X206500480Y-46496955D01*
X206976671Y-46544574D01*
X206929052Y-46496955D01*
X206881433Y-46401717D01*
X206881433Y-46163621D01*
X206929052Y-46068383D01*
X206976671Y-46020764D01*
X207071909Y-45973145D01*
X207310004Y-45973145D01*
X207405242Y-46020764D01*
X207452861Y-46068383D01*
X207500480Y-46163621D01*
X207500480Y-46401717D01*
X207452861Y-46496955D01*
X207405242Y-46544574D01*
X206533500Y-44646054D02*
X206533500Y-44027006D01*
X206914453Y-44360340D01*
X206914453Y-44217482D01*
X206962072Y-44122244D01*
X207009691Y-44074625D01*
X207104929Y-44027006D01*
X207343024Y-44027006D01*
X207438262Y-44074625D01*
X207485881Y-44122244D01*
X207533500Y-44217482D01*
X207533500Y-44503197D01*
X207485881Y-44598435D01*
X207438262Y-44646054D01*
X206533500Y-43693673D02*
X206533500Y-43074625D01*
X206914453Y-43407959D01*
X206914453Y-43265101D01*
X206962072Y-43169863D01*
X207009691Y-43122244D01*
X207104929Y-43074625D01*
X207343024Y-43074625D01*
X207438262Y-43122244D01*
X207485881Y-43169863D01*
X207533500Y-43265101D01*
X207533500Y-43550816D01*
X207485881Y-43646054D01*
X207438262Y-43693673D01*
X206533500Y-42455578D02*
X206533500Y-42360340D01*
X206581120Y-42265101D01*
X206628739Y-42217482D01*
X206723977Y-42169863D01*
X206914453Y-42122244D01*
X207152548Y-42122244D01*
X207343024Y-42169863D01*
X207438262Y-42217482D01*
X207485881Y-42265101D01*
X207533500Y-42360340D01*
X207533500Y-42455578D01*
X207485881Y-42550816D01*
X207438262Y-42598435D01*
X207343024Y-42646054D01*
X207152548Y-42693673D01*
X206914453Y-42693673D01*
X206723977Y-42646054D01*
X206628739Y-42598435D01*
X206581120Y-42550816D01*
X206533500Y-42455578D01*
X152147946Y-19167860D02*
X152147946Y-19882146D01*
X152100327Y-20025003D01*
X152005089Y-20120241D01*
X151862232Y-20167860D01*
X151766994Y-20167860D01*
X152576518Y-19263099D02*
X152624137Y-19215480D01*
X152719375Y-19167860D01*
X152957470Y-19167860D01*
X153052708Y-19215480D01*
X153100327Y-19263099D01*
X153147946Y-19358337D01*
X153147946Y-19453575D01*
X153100327Y-19596432D01*
X152528899Y-20167860D01*
X153147946Y-20167860D01*
X196045840Y-50387783D02*
X196760126Y-50387783D01*
X196902983Y-50435402D01*
X196998221Y-50530640D01*
X197045840Y-50673498D01*
X197045840Y-50768736D01*
X197045840Y-49387783D02*
X197045840Y-49959212D01*
X197045840Y-49673498D02*
X196045840Y-49673498D01*
X196188698Y-49768736D01*
X196283936Y-49863974D01*
X196331555Y-49959212D01*
X196045840Y-48768736D02*
X196045840Y-48673498D01*
X196093460Y-48578260D01*
X196141079Y-48530640D01*
X196236317Y-48483021D01*
X196426793Y-48435402D01*
X196664888Y-48435402D01*
X196855364Y-48483021D01*
X196950602Y-48530640D01*
X196998221Y-48578260D01*
X197045840Y-48673498D01*
X197045840Y-48768736D01*
X196998221Y-48863974D01*
X196950602Y-48911593D01*
X196855364Y-48959212D01*
X196664888Y-49006831D01*
X196426793Y-49006831D01*
X196236317Y-48959212D01*
X196141079Y-48911593D01*
X196093460Y-48863974D01*
X196045840Y-48768736D01*
X181092860Y-46459044D02*
X181902384Y-46459044D01*
X181997622Y-46411425D01*
X182045241Y-46363806D01*
X182092860Y-46268568D01*
X182092860Y-46078092D01*
X182045241Y-45982854D01*
X181997622Y-45935235D01*
X181902384Y-45887616D01*
X181092860Y-45887616D01*
X181092860Y-45506663D02*
X181092860Y-44887616D01*
X181473813Y-45220949D01*
X181473813Y-45078092D01*
X181521432Y-44982854D01*
X181569051Y-44935235D01*
X181664289Y-44887616D01*
X181902384Y-44887616D01*
X181997622Y-44935235D01*
X182045241Y-44982854D01*
X182092860Y-45078092D01*
X182092860Y-45363806D01*
X182045241Y-45459044D01*
X181997622Y-45506663D01*
X177778613Y-38910520D02*
X177778613Y-37910520D01*
X178159565Y-37910520D01*
X178254803Y-37958140D01*
X178302422Y-38005759D01*
X178350041Y-38100997D01*
X178350041Y-38243854D01*
X178302422Y-38339092D01*
X178254803Y-38386711D01*
X178159565Y-38434330D01*
X177778613Y-38434330D01*
X178921470Y-38339092D02*
X178826232Y-38291473D01*
X178778613Y-38243854D01*
X178730994Y-38148616D01*
X178730994Y-38100997D01*
X178778613Y-38005759D01*
X178826232Y-37958140D01*
X178921470Y-37910520D01*
X179111946Y-37910520D01*
X179207184Y-37958140D01*
X179254803Y-38005759D01*
X179302422Y-38100997D01*
X179302422Y-38148616D01*
X179254803Y-38243854D01*
X179207184Y-38291473D01*
X179111946Y-38339092D01*
X178921470Y-38339092D01*
X178826232Y-38386711D01*
X178778613Y-38434330D01*
X178730994Y-38529568D01*
X178730994Y-38720044D01*
X178778613Y-38815282D01*
X178826232Y-38862901D01*
X178921470Y-38910520D01*
X179111946Y-38910520D01*
X179207184Y-38862901D01*
X179254803Y-38815282D01*
X179302422Y-38720044D01*
X179302422Y-38529568D01*
X179254803Y-38434330D01*
X179207184Y-38386711D01*
X179111946Y-38339092D01*
X179683375Y-38005759D02*
X179730994Y-37958140D01*
X179826232Y-37910520D01*
X180064327Y-37910520D01*
X180159565Y-37958140D01*
X180207184Y-38005759D01*
X180254803Y-38100997D01*
X180254803Y-38196235D01*
X180207184Y-38339092D01*
X179635756Y-38910520D01*
X180254803Y-38910520D01*
X181016708Y-38386711D02*
X181159565Y-38434330D01*
X181207184Y-38481949D01*
X181254803Y-38577187D01*
X181254803Y-38720044D01*
X181207184Y-38815282D01*
X181159565Y-38862901D01*
X181064327Y-38910520D01*
X180683375Y-38910520D01*
X180683375Y-37910520D01*
X181016708Y-37910520D01*
X181111946Y-37958140D01*
X181159565Y-38005759D01*
X181207184Y-38100997D01*
X181207184Y-38196235D01*
X181159565Y-38291473D01*
X181111946Y-38339092D01*
X181016708Y-38386711D01*
X180683375Y-38386711D01*
X181588137Y-37910520D02*
X182254803Y-37910520D01*
X181826232Y-38910520D01*
X183159565Y-38910520D02*
X182588137Y-38910520D01*
X182873851Y-38910520D02*
X182873851Y-37910520D01*
X182778613Y-38053378D01*
X182683375Y-38148616D01*
X182588137Y-38196235D01*
X184064327Y-37910520D02*
X183588137Y-37910520D01*
X183540518Y-38386711D01*
X183588137Y-38339092D01*
X183683375Y-38291473D01*
X183921470Y-38291473D01*
X184016708Y-38339092D01*
X184064327Y-38386711D01*
X184111946Y-38481949D01*
X184111946Y-38720044D01*
X184064327Y-38815282D01*
X184016708Y-38862901D01*
X183921470Y-38910520D01*
X183683375Y-38910520D01*
X183588137Y-38862901D01*
X183540518Y-38815282D01*
X184540518Y-38910520D02*
X184540518Y-37910520D01*
X184921470Y-37910520D01*
X185016708Y-37958140D01*
X185064327Y-38005759D01*
X185111946Y-38100997D01*
X185111946Y-38243854D01*
X185064327Y-38339092D01*
X185016708Y-38386711D01*
X184921470Y-38434330D01*
X184540518Y-38434330D01*
X185540518Y-38910520D02*
X185540518Y-37910520D01*
X186111946Y-38910520D01*
X186111946Y-37910520D01*
X199802500Y-59634713D02*
X200516786Y-59634713D01*
X200659643Y-59682332D01*
X200754881Y-59777570D01*
X200802500Y-59920427D01*
X200802500Y-60015665D01*
X200802500Y-59110903D02*
X200802500Y-58920427D01*
X200754881Y-58825189D01*
X200707262Y-58777570D01*
X200564405Y-58682332D01*
X200373929Y-58634713D01*
X199992977Y-58634713D01*
X199897739Y-58682332D01*
X199850120Y-58729951D01*
X199802500Y-58825189D01*
X199802500Y-59015665D01*
X199850120Y-59110903D01*
X199897739Y-59158522D01*
X199992977Y-59206141D01*
X200231072Y-59206141D01*
X200326310Y-59158522D01*
X200373929Y-59110903D01*
X200421548Y-59015665D01*
X200421548Y-58825189D01*
X200373929Y-58729951D01*
X200326310Y-58682332D01*
X200231072Y-58634713D01*
X199769480Y-53678413D02*
X200483766Y-53678413D01*
X200626623Y-53726032D01*
X200721861Y-53821270D01*
X200769480Y-53964127D01*
X200769480Y-54059365D01*
X200198052Y-53059365D02*
X200150433Y-53154603D01*
X200102814Y-53202222D01*
X200007576Y-53249841D01*
X199959957Y-53249841D01*
X199864719Y-53202222D01*
X199817100Y-53154603D01*
X199769480Y-53059365D01*
X199769480Y-52868889D01*
X199817100Y-52773651D01*
X199864719Y-52726032D01*
X199959957Y-52678413D01*
X200007576Y-52678413D01*
X200102814Y-52726032D01*
X200150433Y-52773651D01*
X200198052Y-52868889D01*
X200198052Y-53059365D01*
X200245671Y-53154603D01*
X200293290Y-53202222D01*
X200388528Y-53249841D01*
X200579004Y-53249841D01*
X200674242Y-53202222D01*
X200721861Y-53154603D01*
X200769480Y-53059365D01*
X200769480Y-52868889D01*
X200721861Y-52773651D01*
X200674242Y-52726032D01*
X200579004Y-52678413D01*
X200388528Y-52678413D01*
X200293290Y-52726032D01*
X200245671Y-52773651D01*
X200198052Y-52868889D01*
X181092860Y-43538044D02*
X181902384Y-43538044D01*
X181997622Y-43490425D01*
X182045241Y-43442806D01*
X182092860Y-43347568D01*
X182092860Y-43157092D01*
X182045241Y-43061854D01*
X181997622Y-43014235D01*
X181902384Y-42966616D01*
X181092860Y-42966616D01*
X181426194Y-42061854D02*
X182092860Y-42061854D01*
X181045241Y-42299949D02*
X181759527Y-42538044D01*
X181759527Y-41918997D01*
X186573660Y-45792825D02*
X186573660Y-46364254D01*
X186573660Y-46078540D02*
X185573660Y-46078540D01*
X185716518Y-46173778D01*
X185811756Y-46269016D01*
X185859375Y-46364254D01*
X191263542Y-47944066D02*
X191311161Y-47991685D01*
X191358780Y-48134542D01*
X191358780Y-48229780D01*
X191311161Y-48372638D01*
X191215923Y-48467876D01*
X191120685Y-48515495D01*
X190930209Y-48563114D01*
X190787352Y-48563114D01*
X190596876Y-48515495D01*
X190501638Y-48467876D01*
X190406400Y-48372638D01*
X190358780Y-48229780D01*
X190358780Y-48134542D01*
X190406400Y-47991685D01*
X190454019Y-47944066D01*
X191358780Y-46991685D02*
X191358780Y-47563114D01*
X191358780Y-47277400D02*
X190358780Y-47277400D01*
X190501638Y-47372638D01*
X190596876Y-47467876D01*
X190644495Y-47563114D01*
X191307980Y-45415959D02*
X191307980Y-45987387D01*
X191307980Y-45701673D02*
X190307980Y-45701673D01*
X190450838Y-45796911D01*
X190546076Y-45892149D01*
X190593695Y-45987387D01*
X190307980Y-44796911D02*
X190307980Y-44701673D01*
X190355600Y-44606435D01*
X190403219Y-44558816D01*
X190498457Y-44511197D01*
X190688933Y-44463578D01*
X190927028Y-44463578D01*
X191117504Y-44511197D01*
X191212742Y-44558816D01*
X191260361Y-44606435D01*
X191307980Y-44701673D01*
X191307980Y-44796911D01*
X191260361Y-44892149D01*
X191212742Y-44939768D01*
X191117504Y-44987387D01*
X190927028Y-45035006D01*
X190688933Y-45035006D01*
X190498457Y-44987387D01*
X190403219Y-44939768D01*
X190355600Y-44892149D01*
X190307980Y-44796911D01*
X190307980Y-43844530D02*
X190307980Y-43749292D01*
X190355600Y-43654054D01*
X190403219Y-43606435D01*
X190498457Y-43558816D01*
X190688933Y-43511197D01*
X190927028Y-43511197D01*
X191117504Y-43558816D01*
X191212742Y-43606435D01*
X191260361Y-43654054D01*
X191307980Y-43749292D01*
X191307980Y-43844530D01*
X191260361Y-43939768D01*
X191212742Y-43987387D01*
X191117504Y-44035006D01*
X190927028Y-44082625D01*
X190688933Y-44082625D01*
X190498457Y-44035006D01*
X190403219Y-43987387D01*
X190355600Y-43939768D01*
X190307980Y-43844530D01*
X190641314Y-43082625D02*
X191307980Y-43082625D01*
X190736552Y-43082625D02*
X190688933Y-43035006D01*
X190641314Y-42939768D01*
X190641314Y-42796911D01*
X190688933Y-42701673D01*
X190784171Y-42654054D01*
X191307980Y-42654054D01*
X190784171Y-41844530D02*
X190784171Y-42177863D01*
X191307980Y-42177863D02*
X190307980Y-42177863D01*
X190307980Y-41701673D01*
X205908660Y-86855893D02*
X206622946Y-86855893D01*
X206765803Y-86903512D01*
X206861041Y-86998750D01*
X206908660Y-87141607D01*
X206908660Y-87236845D01*
X206908660Y-85855893D02*
X206908660Y-86427321D01*
X206908660Y-86141607D02*
X205908660Y-86141607D01*
X206051518Y-86236845D01*
X206146756Y-86332083D01*
X206194375Y-86427321D01*
X158946695Y-53991580D02*
X158946695Y-54801104D01*
X158994314Y-54896342D01*
X159041933Y-54943961D01*
X159137171Y-54991580D01*
X159327647Y-54991580D01*
X159422885Y-54943961D01*
X159470504Y-54896342D01*
X159518123Y-54801104D01*
X159518123Y-53991580D01*
X159946695Y-54086819D02*
X159994314Y-54039200D01*
X160089552Y-53991580D01*
X160327647Y-53991580D01*
X160422885Y-54039200D01*
X160470504Y-54086819D01*
X160518123Y-54182057D01*
X160518123Y-54277295D01*
X160470504Y-54420152D01*
X159899076Y-54991580D01*
X160518123Y-54991580D01*
X155005400Y-38196780D02*
X155005400Y-37196780D01*
X155576828Y-38196780D01*
X155576828Y-37196780D01*
X156195876Y-38196780D02*
X156100638Y-38149161D01*
X156053019Y-38101542D01*
X156005400Y-38006304D01*
X156005400Y-37720590D01*
X156053019Y-37625352D01*
X156100638Y-37577733D01*
X156195876Y-37530114D01*
X156338733Y-37530114D01*
X156433971Y-37577733D01*
X156481590Y-37625352D01*
X156529209Y-37720590D01*
X156529209Y-38006304D01*
X156481590Y-38101542D01*
X156433971Y-38149161D01*
X156338733Y-38196780D01*
X156195876Y-38196780D01*
X157386352Y-38196780D02*
X157386352Y-37196780D01*
X157386352Y-38149161D02*
X157291114Y-38196780D01*
X157100638Y-38196780D01*
X157005400Y-38149161D01*
X156957780Y-38101542D01*
X156910161Y-38006304D01*
X156910161Y-37720590D01*
X156957780Y-37625352D01*
X157005400Y-37577733D01*
X157100638Y-37530114D01*
X157291114Y-37530114D01*
X157386352Y-37577733D01*
X158243495Y-38149161D02*
X158148257Y-38196780D01*
X157957780Y-38196780D01*
X157862542Y-38149161D01*
X157814923Y-38053923D01*
X157814923Y-37672971D01*
X157862542Y-37577733D01*
X157957780Y-37530114D01*
X158148257Y-37530114D01*
X158243495Y-37577733D01*
X158291114Y-37672971D01*
X158291114Y-37768209D01*
X157814923Y-37863447D01*
X158719685Y-38196780D02*
X158719685Y-37196780D01*
X159053019Y-37911066D01*
X159386352Y-37196780D01*
X159386352Y-38196780D01*
X160433971Y-38101542D02*
X160386352Y-38149161D01*
X160243495Y-38196780D01*
X160148257Y-38196780D01*
X160005400Y-38149161D01*
X159910161Y-38053923D01*
X159862542Y-37958685D01*
X159814923Y-37768209D01*
X159814923Y-37625352D01*
X159862542Y-37434876D01*
X159910161Y-37339638D01*
X160005400Y-37244400D01*
X160148257Y-37196780D01*
X160243495Y-37196780D01*
X160386352Y-37244400D01*
X160433971Y-37292019D01*
X160862542Y-37196780D02*
X160862542Y-38006304D01*
X160910161Y-38101542D01*
X160957780Y-38149161D01*
X161053019Y-38196780D01*
X161243495Y-38196780D01*
X161338733Y-38149161D01*
X161386352Y-38101542D01*
X161433971Y-38006304D01*
X161433971Y-37196780D01*
X162529209Y-37196780D02*
X162862542Y-38196780D01*
X163195876Y-37196780D01*
X163481590Y-37292019D02*
X163529209Y-37244400D01*
X163624447Y-37196780D01*
X163862542Y-37196780D01*
X163957780Y-37244400D01*
X164005400Y-37292019D01*
X164053019Y-37387257D01*
X164053019Y-37482495D01*
X164005400Y-37625352D01*
X163433971Y-38196780D01*
X164053019Y-38196780D01*
X158921295Y-61606180D02*
X158921295Y-62415704D01*
X158968914Y-62510942D01*
X159016533Y-62558561D01*
X159111771Y-62606180D01*
X159302247Y-62606180D01*
X159397485Y-62558561D01*
X159445104Y-62510942D01*
X159492723Y-62415704D01*
X159492723Y-61606180D01*
X160492723Y-62606180D02*
X159921295Y-62606180D01*
X160207009Y-62606180D02*
X160207009Y-61606180D01*
X160111771Y-61749038D01*
X160016533Y-61844276D01*
X159921295Y-61891895D01*
X155183200Y-34056580D02*
X155183200Y-33056580D01*
X155754628Y-34056580D01*
X155754628Y-33056580D01*
X156373676Y-34056580D02*
X156278438Y-34008961D01*
X156230819Y-33961342D01*
X156183200Y-33866104D01*
X156183200Y-33580390D01*
X156230819Y-33485152D01*
X156278438Y-33437533D01*
X156373676Y-33389914D01*
X156516533Y-33389914D01*
X156611771Y-33437533D01*
X156659390Y-33485152D01*
X156707009Y-33580390D01*
X156707009Y-33866104D01*
X156659390Y-33961342D01*
X156611771Y-34008961D01*
X156516533Y-34056580D01*
X156373676Y-34056580D01*
X157564152Y-34056580D02*
X157564152Y-33056580D01*
X157564152Y-34008961D02*
X157468914Y-34056580D01*
X157278438Y-34056580D01*
X157183200Y-34008961D01*
X157135580Y-33961342D01*
X157087961Y-33866104D01*
X157087961Y-33580390D01*
X157135580Y-33485152D01*
X157183200Y-33437533D01*
X157278438Y-33389914D01*
X157468914Y-33389914D01*
X157564152Y-33437533D01*
X158421295Y-34008961D02*
X158326057Y-34056580D01*
X158135580Y-34056580D01*
X158040342Y-34008961D01*
X157992723Y-33913723D01*
X157992723Y-33532771D01*
X158040342Y-33437533D01*
X158135580Y-33389914D01*
X158326057Y-33389914D01*
X158421295Y-33437533D01*
X158468914Y-33532771D01*
X158468914Y-33628009D01*
X157992723Y-33723247D01*
X158897485Y-34056580D02*
X158897485Y-33056580D01*
X159230819Y-33770866D01*
X159564152Y-33056580D01*
X159564152Y-34056580D01*
X160611771Y-33961342D02*
X160564152Y-34008961D01*
X160421295Y-34056580D01*
X160326057Y-34056580D01*
X160183200Y-34008961D01*
X160087961Y-33913723D01*
X160040342Y-33818485D01*
X159992723Y-33628009D01*
X159992723Y-33485152D01*
X160040342Y-33294676D01*
X160087961Y-33199438D01*
X160183200Y-33104200D01*
X160326057Y-33056580D01*
X160421295Y-33056580D01*
X160564152Y-33104200D01*
X160611771Y-33151819D01*
X161040342Y-33056580D02*
X161040342Y-33866104D01*
X161087961Y-33961342D01*
X161135580Y-34008961D01*
X161230819Y-34056580D01*
X161421295Y-34056580D01*
X161516533Y-34008961D01*
X161564152Y-33961342D01*
X161611771Y-33866104D01*
X161611771Y-33056580D01*
X162707009Y-33056580D02*
X163040342Y-34056580D01*
X163373676Y-33056580D01*
X163611771Y-33056580D02*
X164230819Y-33056580D01*
X163897485Y-33437533D01*
X164040342Y-33437533D01*
X164135580Y-33485152D01*
X164183200Y-33532771D01*
X164230819Y-33628009D01*
X164230819Y-33866104D01*
X164183200Y-33961342D01*
X164135580Y-34008961D01*
X164040342Y-34056580D01*
X163754628Y-34056580D01*
X163659390Y-34008961D01*
X163611771Y-33961342D01*
X199897380Y-73501733D02*
X200611666Y-73501733D01*
X200754523Y-73549352D01*
X200849761Y-73644590D01*
X200897380Y-73787447D01*
X200897380Y-73882685D01*
X199897380Y-73120780D02*
X199897380Y-72454114D01*
X200897380Y-72882685D01*
X199897380Y-67501733D02*
X200611666Y-67501733D01*
X200754523Y-67549352D01*
X200849761Y-67644590D01*
X200897380Y-67787447D01*
X200897380Y-67882685D01*
X199897380Y-66596971D02*
X199897380Y-66787447D01*
X199945000Y-66882685D01*
X199992619Y-66930304D01*
X200135476Y-67025542D01*
X200325952Y-67073161D01*
X200706904Y-67073161D01*
X200802142Y-67025542D01*
X200849761Y-66977923D01*
X200897380Y-66882685D01*
X200897380Y-66692209D01*
X200849761Y-66596971D01*
X200802142Y-66549352D01*
X200706904Y-66501733D01*
X200468809Y-66501733D01*
X200373571Y-66549352D01*
X200325952Y-66596971D01*
X200278333Y-66692209D01*
X200278333Y-66882685D01*
X200325952Y-66977923D01*
X200373571Y-67025542D01*
X200468809Y-67073161D01*
X169818726Y-25573740D02*
X169818726Y-26288026D01*
X169771107Y-26430883D01*
X169675869Y-26526121D01*
X169533012Y-26573740D01*
X169437774Y-26573740D01*
X170771107Y-25573740D02*
X170294917Y-25573740D01*
X170247298Y-26049931D01*
X170294917Y-26002312D01*
X170390155Y-25954693D01*
X170628250Y-25954693D01*
X170723488Y-26002312D01*
X170771107Y-26049931D01*
X170818726Y-26145169D01*
X170818726Y-26383264D01*
X170771107Y-26478502D01*
X170723488Y-26526121D01*
X170628250Y-26573740D01*
X170390155Y-26573740D01*
X170294917Y-26526121D01*
X170247298Y-26478502D01*
X202453500Y-47057606D02*
X201977310Y-47390940D01*
X202453500Y-47629035D02*
X201453500Y-47629035D01*
X201453500Y-47248082D01*
X201501120Y-47152844D01*
X201548739Y-47105225D01*
X201643977Y-47057606D01*
X201786834Y-47057606D01*
X201882072Y-47105225D01*
X201929691Y-47152844D01*
X201977310Y-47248082D01*
X201977310Y-47629035D01*
X201786834Y-46200463D02*
X202453500Y-46200463D01*
X201405881Y-46438559D02*
X202120167Y-46676654D01*
X202120167Y-46057606D01*
X201453500Y-44679074D02*
X201453500Y-44060026D01*
X201834453Y-44393360D01*
X201834453Y-44250502D01*
X201882072Y-44155264D01*
X201929691Y-44107645D01*
X202024929Y-44060026D01*
X202263024Y-44060026D01*
X202358262Y-44107645D01*
X202405881Y-44155264D01*
X202453500Y-44250502D01*
X202453500Y-44536217D01*
X202405881Y-44631455D01*
X202358262Y-44679074D01*
X201453500Y-43726693D02*
X201453500Y-43107645D01*
X201834453Y-43440979D01*
X201834453Y-43298121D01*
X201882072Y-43202883D01*
X201929691Y-43155264D01*
X202024929Y-43107645D01*
X202263024Y-43107645D01*
X202358262Y-43155264D01*
X202405881Y-43202883D01*
X202453500Y-43298121D01*
X202453500Y-43583836D01*
X202405881Y-43679074D01*
X202358262Y-43726693D01*
X201453500Y-42488598D02*
X201453500Y-42393360D01*
X201501120Y-42298121D01*
X201548739Y-42250502D01*
X201643977Y-42202883D01*
X201834453Y-42155264D01*
X202072548Y-42155264D01*
X202263024Y-42202883D01*
X202358262Y-42250502D01*
X202405881Y-42298121D01*
X202453500Y-42393360D01*
X202453500Y-42488598D01*
X202405881Y-42583836D01*
X202358262Y-42631455D01*
X202263024Y-42679074D01*
X202072548Y-42726693D01*
X201834453Y-42726693D01*
X201643977Y-42679074D01*
X201548739Y-42631455D01*
X201501120Y-42583836D01*
X201453500Y-42488598D01*
X181208940Y-59996366D02*
X180732750Y-60329700D01*
X181208940Y-60567795D02*
X180208940Y-60567795D01*
X180208940Y-60186842D01*
X180256560Y-60091604D01*
X180304179Y-60043985D01*
X180399417Y-59996366D01*
X180542274Y-59996366D01*
X180637512Y-60043985D01*
X180685131Y-60091604D01*
X180732750Y-60186842D01*
X180732750Y-60567795D01*
X180208940Y-59663033D02*
X180208940Y-59043985D01*
X180589893Y-59377319D01*
X180589893Y-59234461D01*
X180637512Y-59139223D01*
X180685131Y-59091604D01*
X180780369Y-59043985D01*
X181018464Y-59043985D01*
X181113702Y-59091604D01*
X181161321Y-59139223D01*
X181208940Y-59234461D01*
X181208940Y-59520176D01*
X181161321Y-59615414D01*
X181113702Y-59663033D01*
X180542274Y-57121656D02*
X181208940Y-57121656D01*
X180161321Y-57359751D02*
X180875607Y-57597846D01*
X180875607Y-56978799D01*
X181208940Y-56597846D02*
X180208940Y-56597846D01*
X180827988Y-56502608D02*
X181208940Y-56216894D01*
X180542274Y-56216894D02*
X180923226Y-56597846D01*
X180208940Y-55883560D02*
X180208940Y-55216894D01*
X181208940Y-55645465D01*
X185826660Y-59963346D02*
X185350470Y-60296680D01*
X185826660Y-60534775D02*
X184826660Y-60534775D01*
X184826660Y-60153822D01*
X184874280Y-60058584D01*
X184921899Y-60010965D01*
X185017137Y-59963346D01*
X185159994Y-59963346D01*
X185255232Y-60010965D01*
X185302851Y-60058584D01*
X185350470Y-60153822D01*
X185350470Y-60534775D01*
X184921899Y-59582394D02*
X184874280Y-59534775D01*
X184826660Y-59439537D01*
X184826660Y-59201441D01*
X184874280Y-59106203D01*
X184921899Y-59058584D01*
X185017137Y-59010965D01*
X185112375Y-59010965D01*
X185255232Y-59058584D01*
X185826660Y-59630013D01*
X185826660Y-59010965D01*
X185193014Y-56893056D02*
X185859680Y-56893056D01*
X184812061Y-57131151D02*
X185526347Y-57369246D01*
X185526347Y-56750199D01*
X185859680Y-56369246D02*
X184859680Y-56369246D01*
X185478728Y-56274008D02*
X185859680Y-55988294D01*
X185193014Y-55988294D02*
X185573966Y-56369246D01*
X184859680Y-55654960D02*
X184859680Y-54988294D01*
X185859680Y-55416865D01*
X181308000Y-74410866D02*
X180831810Y-74744200D01*
X181308000Y-74982295D02*
X180308000Y-74982295D01*
X180308000Y-74601342D01*
X180355620Y-74506104D01*
X180403239Y-74458485D01*
X180498477Y-74410866D01*
X180641334Y-74410866D01*
X180736572Y-74458485D01*
X180784191Y-74506104D01*
X180831810Y-74601342D01*
X180831810Y-74982295D01*
X181308000Y-73458485D02*
X181308000Y-74029914D01*
X181308000Y-73744200D02*
X180308000Y-73744200D01*
X180450858Y-73839438D01*
X180546096Y-73934676D01*
X180593715Y-74029914D01*
X181308000Y-71641578D02*
X181308000Y-72213006D01*
X181308000Y-71927292D02*
X180308000Y-71927292D01*
X180450858Y-72022530D01*
X180546096Y-72117768D01*
X180593715Y-72213006D01*
X180308000Y-71022530D02*
X180308000Y-70927292D01*
X180355620Y-70832054D01*
X180403239Y-70784435D01*
X180498477Y-70736816D01*
X180688953Y-70689197D01*
X180927048Y-70689197D01*
X181117524Y-70736816D01*
X181212762Y-70784435D01*
X181260381Y-70832054D01*
X181308000Y-70927292D01*
X181308000Y-71022530D01*
X181260381Y-71117768D01*
X181212762Y-71165387D01*
X181117524Y-71213006D01*
X180927048Y-71260625D01*
X180688953Y-71260625D01*
X180498477Y-71213006D01*
X180403239Y-71165387D01*
X180355620Y-71117768D01*
X180308000Y-71022530D01*
X181308000Y-70260625D02*
X180308000Y-70260625D01*
X180927048Y-70165387D02*
X181308000Y-69879673D01*
X180641334Y-69879673D02*
X181022286Y-70260625D01*
X185779160Y-76596833D02*
X186493446Y-76596833D01*
X186636303Y-76644452D01*
X186731541Y-76739690D01*
X186779160Y-76882547D01*
X186779160Y-76977785D01*
X186112494Y-75692071D02*
X186779160Y-75692071D01*
X185731541Y-75930166D02*
X186445827Y-76168261D01*
X186445827Y-75549214D01*
X147006986Y-23978620D02*
X147006986Y-24692906D01*
X146959367Y-24835763D01*
X146864129Y-24931001D01*
X146721272Y-24978620D01*
X146626034Y-24978620D01*
X147387939Y-23978620D02*
X148006986Y-23978620D01*
X147673653Y-24359573D01*
X147816510Y-24359573D01*
X147911748Y-24407192D01*
X147959367Y-24454811D01*
X148006986Y-24550049D01*
X148006986Y-24788144D01*
X147959367Y-24883382D01*
X147911748Y-24931001D01*
X147816510Y-24978620D01*
X147530796Y-24978620D01*
X147435558Y-24931001D01*
X147387939Y-24883382D01*
M02*
