G04 #@! TF.GenerationSoftware,KiCad,Pcbnew,(5.1.5)-3*
G04 #@! TF.CreationDate,2020-07-14T08:42:12+02:00*
G04 #@! TF.ProjectId,Airrohr_pcb,41697272-6f68-4725-9f70-63622e6b6963,rev?*
G04 #@! TF.SameCoordinates,Original*
G04 #@! TF.FileFunction,Copper,L2,Bot*
G04 #@! TF.FilePolarity,Positive*
%FSLAX46Y46*%
G04 Gerber Fmt 4.6, Leading zero omitted, Abs format (unit mm)*
G04 Created by KiCad (PCBNEW (5.1.5)-3) date 2020-07-14 08:42:12*
%MOMM*%
%LPD*%
G04 APERTURE LIST*
%ADD10C,1.400000*%
%ADD11C,1.200000*%
%ADD12R,1.520000X1.520000*%
%ADD13C,1.520000*%
%ADD14O,1.600000X1.600000*%
%ADD15C,1.600000*%
%ADD16R,1.000000X0.500000*%
%ADD17C,1.900000*%
%ADD18R,2.200000X2.600000*%
%ADD19C,2.600000*%
%ADD20O,1.700000X1.700000*%
%ADD21R,1.700000X1.700000*%
%ADD22R,1.676400X1.676400*%
%ADD23C,1.676400*%
%ADD24O,1.700000X1.950000*%
%ADD25C,0.100000*%
%ADD26C,1.700000*%
%ADD27C,1.740000*%
%ADD28O,1.100000X1.700000*%
%ADD29C,0.800000*%
%ADD30C,0.250000*%
%ADD31C,0.500000*%
G04 APERTURE END LIST*
D10*
X185448100Y-26757760D03*
X186468100Y-24217760D03*
X187488100Y-26757760D03*
X188508100Y-24217760D03*
X189528100Y-26757760D03*
X190548100Y-24217760D03*
D11*
X193998100Y-21917760D03*
X181998100Y-21917760D03*
D12*
X190792100Y-35144720D03*
D13*
X189522100Y-32604720D03*
X188252100Y-35144720D03*
X186982100Y-32604720D03*
X185712100Y-35144720D03*
X184442100Y-32604720D03*
D14*
X204741020Y-39583360D03*
D15*
X204741020Y-49743360D03*
D16*
X157834800Y-23088600D03*
D17*
X159054800Y-23088600D03*
D18*
X161594800Y-23088600D03*
D19*
X156514800Y-23088600D03*
D20*
X194061080Y-47857260D03*
X194061080Y-45317260D03*
X194061080Y-42777260D03*
D21*
X194061080Y-40237260D03*
D22*
X177906680Y-48084740D03*
D23*
X180446680Y-48084740D03*
X182986680Y-48084740D03*
X185526680Y-48084740D03*
X185526680Y-40464740D03*
X182986680Y-40464740D03*
X180446680Y-40464740D03*
X177906680Y-40464740D03*
D20*
X190285000Y-59168400D03*
X192825000Y-59168400D03*
X195365000Y-59168400D03*
D21*
X197905000Y-59168400D03*
D20*
X190285000Y-53168400D03*
X192825000Y-53168400D03*
X195365000Y-53168400D03*
D21*
X197905000Y-53168400D03*
D15*
X188803280Y-46867140D03*
X188803280Y-41867140D03*
X188803280Y-40617140D03*
X188803280Y-48117140D03*
D24*
X202278000Y-80772000D03*
X199778000Y-80772000D03*
X197278000Y-80772000D03*
X194778000Y-80772000D03*
G04 #@! TA.AperFunction,ComponentPad*
D25*
G36*
X192902504Y-79798204D02*
G01*
X192926773Y-79801804D01*
X192950571Y-79807765D01*
X192973671Y-79816030D01*
X192995849Y-79826520D01*
X193016893Y-79839133D01*
X193036598Y-79853747D01*
X193054777Y-79870223D01*
X193071253Y-79888402D01*
X193085867Y-79908107D01*
X193098480Y-79929151D01*
X193108970Y-79951329D01*
X193117235Y-79974429D01*
X193123196Y-79998227D01*
X193126796Y-80022496D01*
X193128000Y-80047000D01*
X193128000Y-81497000D01*
X193126796Y-81521504D01*
X193123196Y-81545773D01*
X193117235Y-81569571D01*
X193108970Y-81592671D01*
X193098480Y-81614849D01*
X193085867Y-81635893D01*
X193071253Y-81655598D01*
X193054777Y-81673777D01*
X193036598Y-81690253D01*
X193016893Y-81704867D01*
X192995849Y-81717480D01*
X192973671Y-81727970D01*
X192950571Y-81736235D01*
X192926773Y-81742196D01*
X192902504Y-81745796D01*
X192878000Y-81747000D01*
X191678000Y-81747000D01*
X191653496Y-81745796D01*
X191629227Y-81742196D01*
X191605429Y-81736235D01*
X191582329Y-81727970D01*
X191560151Y-81717480D01*
X191539107Y-81704867D01*
X191519402Y-81690253D01*
X191501223Y-81673777D01*
X191484747Y-81655598D01*
X191470133Y-81635893D01*
X191457520Y-81614849D01*
X191447030Y-81592671D01*
X191438765Y-81569571D01*
X191432804Y-81545773D01*
X191429204Y-81521504D01*
X191428000Y-81497000D01*
X191428000Y-80047000D01*
X191429204Y-80022496D01*
X191432804Y-79998227D01*
X191438765Y-79974429D01*
X191447030Y-79951329D01*
X191457520Y-79929151D01*
X191470133Y-79908107D01*
X191484747Y-79888402D01*
X191501223Y-79870223D01*
X191519402Y-79853747D01*
X191539107Y-79839133D01*
X191560151Y-79826520D01*
X191582329Y-79816030D01*
X191605429Y-79807765D01*
X191629227Y-79801804D01*
X191653496Y-79798204D01*
X191678000Y-79797000D01*
X192878000Y-79797000D01*
X192902504Y-79798204D01*
G37*
G04 #@! TD.AperFunction*
D26*
X171138600Y-44399200D03*
X171138600Y-49479200D03*
X171138600Y-46939200D03*
X171138600Y-67259200D03*
X171138600Y-64719200D03*
X171138600Y-59639200D03*
X171138600Y-62179200D03*
X171138600Y-77419200D03*
X171138600Y-57099200D03*
X171138600Y-52019200D03*
X171138600Y-54559200D03*
X171138600Y-69799200D03*
X171138600Y-74879200D03*
X171138600Y-72339200D03*
X171138600Y-41859200D03*
X148278600Y-77419200D03*
X148278600Y-74879200D03*
X148278600Y-72339200D03*
X148278600Y-69799200D03*
X148278600Y-67259200D03*
X148278600Y-64719200D03*
X148278600Y-62179200D03*
X148278600Y-59639200D03*
X148278600Y-57099200D03*
X148278600Y-54559200D03*
X148278600Y-52019200D03*
X148278600Y-49479200D03*
X148278600Y-46939200D03*
X148278600Y-44399200D03*
X148278600Y-41859200D03*
X173653200Y-41833800D03*
X173653200Y-44373800D03*
X173653200Y-46913800D03*
D27*
X173653200Y-49453800D03*
D26*
X173653200Y-51993800D03*
X173653200Y-54533800D03*
X173653200Y-57073800D03*
X173653200Y-59613800D03*
X173653200Y-62153800D03*
X173653200Y-64693800D03*
X173653200Y-67233800D03*
X173653200Y-69773800D03*
X173653200Y-72313800D03*
X173653200Y-74853800D03*
X173653200Y-77393800D03*
X145713200Y-77393800D03*
X145713200Y-74853800D03*
X145713200Y-72313800D03*
X145713200Y-69773800D03*
X145713200Y-67233800D03*
X145713200Y-64693800D03*
X145713200Y-62153800D03*
X145713200Y-59613800D03*
X145713200Y-57073800D03*
X145713200Y-54533800D03*
X145713200Y-51993800D03*
X145713200Y-49453800D03*
X145713200Y-46913800D03*
X145713200Y-44373800D03*
X145713200Y-41833800D03*
D20*
X190285000Y-73168400D03*
X192825000Y-73168400D03*
X195365000Y-73168400D03*
D21*
X197905000Y-73168400D03*
D20*
X190285000Y-67168400D03*
X192825000Y-67168400D03*
X195365000Y-67168400D03*
D21*
X197905000Y-67168400D03*
D28*
X176085000Y-22987000D03*
X174585000Y-22987000D03*
X173085000Y-22987000D03*
X171585000Y-22987000D03*
G04 #@! TA.AperFunction,ComponentPad*
D25*
G36*
X170489149Y-22137779D02*
G01*
X170504846Y-22140107D01*
X170520239Y-22143963D01*
X170535180Y-22149309D01*
X170549525Y-22156093D01*
X170563136Y-22164251D01*
X170575881Y-22173704D01*
X170587639Y-22184361D01*
X170598296Y-22196119D01*
X170607749Y-22208864D01*
X170615907Y-22222475D01*
X170622691Y-22236820D01*
X170628037Y-22251761D01*
X170631893Y-22267154D01*
X170634221Y-22282851D01*
X170635000Y-22298700D01*
X170635000Y-23675300D01*
X170634221Y-23691149D01*
X170631893Y-23706846D01*
X170628037Y-23722239D01*
X170622691Y-23737180D01*
X170615907Y-23751525D01*
X170607749Y-23765136D01*
X170598296Y-23777881D01*
X170587639Y-23789639D01*
X170575881Y-23800296D01*
X170563136Y-23809749D01*
X170549525Y-23817907D01*
X170535180Y-23824691D01*
X170520239Y-23830037D01*
X170504846Y-23833893D01*
X170489149Y-23836221D01*
X170473300Y-23837000D01*
X169696700Y-23837000D01*
X169680851Y-23836221D01*
X169665154Y-23833893D01*
X169649761Y-23830037D01*
X169634820Y-23824691D01*
X169620475Y-23817907D01*
X169606864Y-23809749D01*
X169594119Y-23800296D01*
X169582361Y-23789639D01*
X169571704Y-23777881D01*
X169562251Y-23765136D01*
X169554093Y-23751525D01*
X169547309Y-23737180D01*
X169541963Y-23722239D01*
X169538107Y-23706846D01*
X169535779Y-23691149D01*
X169535000Y-23675300D01*
X169535000Y-22298700D01*
X169535779Y-22282851D01*
X169538107Y-22267154D01*
X169541963Y-22251761D01*
X169547309Y-22236820D01*
X169554093Y-22222475D01*
X169562251Y-22208864D01*
X169571704Y-22196119D01*
X169582361Y-22184361D01*
X169594119Y-22173704D01*
X169606864Y-22164251D01*
X169620475Y-22156093D01*
X169634820Y-22149309D01*
X169649761Y-22143963D01*
X169665154Y-22140107D01*
X169680851Y-22137779D01*
X169696700Y-22137000D01*
X170473300Y-22137000D01*
X170489149Y-22137779D01*
G37*
G04 #@! TD.AperFunction*
D14*
X199677020Y-39583360D03*
D15*
X199677020Y-49743360D03*
D14*
X178516280Y-52537360D03*
D15*
X178516280Y-62697360D03*
D14*
X183088280Y-52410360D03*
D15*
X183088280Y-62570360D03*
D14*
X178574700Y-77287120D03*
D15*
X178574700Y-67127120D03*
D20*
X183984900Y-75483720D03*
X183984900Y-72943720D03*
X183984900Y-70403720D03*
D21*
X183984900Y-67863720D03*
D20*
X150114000Y-25603200D03*
D21*
X150114000Y-23063200D03*
D29*
X181742080Y-43487340D03*
X175427640Y-28788360D03*
X176273460Y-44833540D03*
X176273460Y-49771300D03*
X180431440Y-37510720D03*
X194980560Y-23944580D03*
X185173620Y-44866560D03*
D30*
X173627800Y-41859200D02*
X173653200Y-41833800D01*
X171138600Y-41859200D02*
X173627800Y-41859200D01*
X173627800Y-59639200D02*
X173653200Y-59613800D01*
X171138600Y-59639200D02*
X173627800Y-59639200D01*
X173627800Y-62179200D02*
X173653200Y-62153800D01*
X171138600Y-62179200D02*
X173627800Y-62179200D01*
X171138600Y-67259200D02*
X174161200Y-67259200D01*
X174135800Y-67233800D02*
X173653200Y-67233800D01*
X174161200Y-67259200D02*
X174135800Y-67233800D01*
X173627800Y-69799200D02*
X173653200Y-69773800D01*
X171138600Y-69799200D02*
X173627800Y-69799200D01*
X173627800Y-72339200D02*
X173653200Y-72313800D01*
X171138600Y-72339200D02*
X173627800Y-72339200D01*
X148253200Y-72313800D02*
X148278600Y-72339200D01*
X145713200Y-72313800D02*
X148253200Y-72313800D01*
X148253200Y-69773800D02*
X148278600Y-69799200D01*
X145713200Y-69773800D02*
X148253200Y-69773800D01*
X148253200Y-62153800D02*
X148278600Y-62179200D01*
X145713200Y-62153800D02*
X148253200Y-62153800D01*
X148253200Y-59613800D02*
X148278600Y-59639200D01*
X145713200Y-59613800D02*
X148253200Y-59613800D01*
X148253200Y-57073800D02*
X148278600Y-57099200D01*
X145713200Y-57073800D02*
X148253200Y-57073800D01*
X148253200Y-54533800D02*
X148278600Y-54559200D01*
X145713200Y-54533800D02*
X148253200Y-54533800D01*
X148253200Y-51993800D02*
X148278600Y-52019200D01*
X145713200Y-51993800D02*
X148253200Y-51993800D01*
X148253200Y-49453800D02*
X148278600Y-49479200D01*
X145713200Y-49453800D02*
X148253200Y-49453800D01*
X148253200Y-41833800D02*
X148278600Y-41859200D01*
X145713200Y-41833800D02*
X148253200Y-41833800D01*
X173627800Y-57099200D02*
X173653200Y-57073800D01*
D31*
X171138600Y-57099200D02*
X173627800Y-57099200D01*
D30*
X170986200Y-57099200D02*
X171138600Y-57099200D01*
D31*
X171138600Y-57099200D02*
X167277800Y-57099200D01*
X148253200Y-64693800D02*
X148278600Y-64719200D01*
X145713200Y-64693800D02*
X148253200Y-64693800D01*
X148253200Y-74853800D02*
X148278600Y-74879200D01*
X145713200Y-74853800D02*
X148253200Y-74853800D01*
X173627800Y-74879200D02*
X173653200Y-74853800D01*
X171138600Y-74879200D02*
X173627800Y-74879200D01*
X144392400Y-64693800D02*
X145713200Y-64693800D01*
X144011400Y-65074800D02*
X144392400Y-64693800D01*
X145713200Y-74853800D02*
X144011400Y-73152000D01*
X144011400Y-73152000D02*
X144011400Y-65074800D01*
X148278600Y-64719200D02*
X152495000Y-64719200D01*
X152495000Y-64719200D02*
X163594800Y-53619400D01*
X167277800Y-57099200D02*
X163594800Y-53619400D01*
X195365000Y-53168400D02*
X195365000Y-59168400D01*
X195365000Y-67168400D02*
X195365000Y-73168400D01*
X174585000Y-22987000D02*
X176085000Y-22987000D01*
X176085000Y-19113000D02*
X176085000Y-22987000D01*
X176386000Y-18812000D02*
X176085000Y-19113000D01*
X179614320Y-23251920D02*
X179614320Y-31004000D01*
X181215040Y-32604720D02*
X184442100Y-32604720D01*
X179614320Y-31004000D02*
X181215040Y-32604720D01*
X184442100Y-33874720D02*
X185712100Y-35144720D01*
X184442100Y-32604720D02*
X184442100Y-33874720D01*
X163071400Y-18812000D02*
X163997640Y-18826480D01*
X163997640Y-18826480D02*
X176386000Y-18812000D01*
X161594800Y-21288600D02*
X161589720Y-21283520D01*
X161594800Y-23088600D02*
X161594800Y-21288600D01*
X161589720Y-20293680D02*
X163071400Y-18812000D01*
X161589720Y-21283520D02*
X161589720Y-20293680D01*
X197278000Y-80772000D02*
X197278000Y-78118980D01*
X197278000Y-78118980D02*
X195365000Y-76205980D01*
X194376040Y-75483720D02*
X195437760Y-74422000D01*
X183984900Y-75483720D02*
X194376040Y-75483720D01*
X195437760Y-74422000D02*
X195365000Y-73168400D01*
X195365000Y-76205980D02*
X195365000Y-73168400D01*
X179349400Y-22987000D02*
X176085000Y-22987000D01*
X179614320Y-23251920D02*
X179349400Y-22987000D01*
X189603279Y-48917139D02*
X191723559Y-48917139D01*
X188803280Y-48117140D02*
X189603279Y-48917139D01*
X191723559Y-48917139D02*
X194149980Y-51343560D01*
X194149980Y-51343560D02*
X195171060Y-51343560D01*
X195365000Y-51537500D02*
X195365000Y-53168400D01*
X195171060Y-51343560D02*
X195365000Y-51537500D01*
X163594800Y-53416200D02*
X163594800Y-53619400D01*
X163594800Y-35610800D02*
X163594800Y-53416200D01*
X161594800Y-23088600D02*
X161594800Y-33610800D01*
X161594800Y-33610800D02*
X163594800Y-35610800D01*
X201864860Y-64718300D02*
X195365000Y-64718300D01*
X207413860Y-59169300D02*
X201864860Y-64718300D01*
X207413860Y-40055800D02*
X207413860Y-59169300D01*
X195365000Y-59168400D02*
X195365000Y-64718300D01*
X195365000Y-64718300D02*
X195365000Y-67168400D01*
X198836280Y-29509720D02*
X198836280Y-22354540D01*
X201415800Y-32089240D02*
X198836280Y-29509720D01*
X207413860Y-34787840D02*
X206555340Y-33929320D01*
X206555340Y-33929320D02*
X203266040Y-33929320D01*
X203266040Y-33929320D02*
X201425960Y-32089240D01*
X198836280Y-22354540D02*
X195293740Y-18812000D01*
X207413860Y-40032940D02*
X207413860Y-34787840D01*
X201425960Y-32089240D02*
X201415800Y-32089240D01*
X190548100Y-25737760D02*
X189528100Y-26757760D01*
X190548100Y-24217760D02*
X190548100Y-25737760D01*
X190555880Y-23220031D02*
X190555880Y-18801080D01*
X190548100Y-23227811D02*
X190555880Y-23220031D01*
X190548100Y-24217760D02*
X190548100Y-23227811D01*
X195293740Y-18812000D02*
X190555880Y-18801080D01*
X190555880Y-18801080D02*
X176386000Y-18812000D01*
D30*
X173627800Y-54559200D02*
X173653200Y-54533800D01*
D31*
X171138600Y-54559200D02*
X173627800Y-54559200D01*
X197978000Y-59258200D02*
X197851000Y-59385200D01*
X173627800Y-77419200D02*
X173653200Y-77393800D01*
X171138600Y-77419200D02*
X173627800Y-77419200D01*
X148253200Y-67233800D02*
X148278600Y-67259200D01*
X145713200Y-67233800D02*
X148253200Y-67233800D01*
X149128599Y-68109199D02*
X154640399Y-68109199D01*
X148278600Y-67259200D02*
X149128599Y-68109199D01*
X163950400Y-77419200D02*
X171138600Y-77419200D01*
X154640399Y-68109199D02*
X163950400Y-77419200D01*
X182961280Y-62697360D02*
X183088280Y-62570360D01*
X178516280Y-62697360D02*
X182961280Y-62697360D01*
X178574700Y-67127120D02*
X178523900Y-67076320D01*
X188549280Y-38458140D02*
X178109880Y-38458140D01*
X188803280Y-40617140D02*
X188803280Y-38712140D01*
X177906680Y-38661340D02*
X177906680Y-40464740D01*
X178109880Y-38458140D02*
X177906680Y-38661340D01*
X188803280Y-38712140D02*
X188549280Y-38458140D01*
D30*
X187718700Y-38525842D02*
X187731400Y-38538542D01*
D31*
X178516280Y-67068700D02*
X178574700Y-67127120D01*
X178516280Y-62697360D02*
X178516280Y-67068700D01*
X183088280Y-66967100D02*
X183984900Y-67863720D01*
X183088280Y-62570360D02*
X183088280Y-66967100D01*
X183248300Y-67127120D02*
X183984900Y-67863720D01*
X178574700Y-67127120D02*
X183248300Y-67127120D01*
X178516280Y-62697360D02*
X178516280Y-58453020D01*
X174855281Y-54533800D02*
X174989901Y-54668420D01*
X173653200Y-54533800D02*
X174855281Y-54533800D01*
X174989901Y-54738681D02*
X177954940Y-57703720D01*
X174989901Y-54668420D02*
X174989901Y-54738681D01*
X178516280Y-58453020D02*
X177954940Y-57703720D01*
X197905000Y-51515380D02*
X199677020Y-49743360D01*
X197905000Y-53168400D02*
X197905000Y-51515380D01*
X200808390Y-49743360D02*
X204741020Y-49743360D01*
X199677020Y-49743360D02*
X200808390Y-49743360D01*
D30*
X150139400Y-23088600D02*
X150114000Y-23063200D01*
D31*
X156514800Y-23088600D02*
X150139400Y-23088600D01*
X149014000Y-23063200D02*
X147802600Y-24274600D01*
X150114000Y-23063200D02*
X149014000Y-23063200D01*
X147802600Y-24274600D02*
X147802600Y-32378400D01*
X142893800Y-74574400D02*
X145713200Y-77393800D01*
X142843000Y-37338000D02*
X142893800Y-74574400D01*
X147802600Y-32378400D02*
X142843000Y-37338000D01*
X159054800Y-23428602D02*
X159054800Y-23088600D01*
X156974799Y-23788601D02*
X158694801Y-23788601D01*
X156514800Y-23328602D02*
X156974799Y-23788601D01*
X158694801Y-23788601D02*
X159054800Y-23428602D01*
X156514800Y-23088600D02*
X156514800Y-23328602D01*
D30*
X173627800Y-44399200D02*
X173653200Y-44373800D01*
X171138600Y-44399200D02*
X173627800Y-44399200D01*
X173627800Y-46939200D02*
X173653200Y-46913800D01*
X171138600Y-46939200D02*
X173627800Y-46939200D01*
X200449200Y-81049400D02*
X200449200Y-80924400D01*
X148431000Y-77419200D02*
X148278600Y-77419200D01*
X173627800Y-64719200D02*
X173653200Y-64693800D01*
X171138600Y-64719200D02*
X173627800Y-64719200D01*
X178574700Y-73654920D02*
X178574700Y-77287120D01*
X183984900Y-70403720D02*
X181521100Y-70403720D01*
X174855281Y-64693800D02*
X176055020Y-65893539D01*
X173653200Y-64693800D02*
X174855281Y-64693800D01*
X176055020Y-65893539D02*
X176055020Y-68755260D01*
X177703480Y-70403720D02*
X181521100Y-70403720D01*
X176055020Y-68755260D02*
X177703480Y-70403720D01*
X177703480Y-72783700D02*
X178574700Y-73654920D01*
X177703480Y-70403720D02*
X177703480Y-72783700D01*
X173627800Y-49479200D02*
X173653200Y-49453800D01*
X171138600Y-49479200D02*
X173627800Y-49479200D01*
X190231000Y-59385200D02*
X190231000Y-58183119D01*
X190285000Y-54370481D02*
X190285000Y-59168400D01*
X190285000Y-53168400D02*
X190285000Y-54370481D01*
X190285000Y-60370481D02*
X190285000Y-67168400D01*
X190285000Y-59168400D02*
X190285000Y-60370481D01*
X190285000Y-68370481D02*
X190285000Y-73168400D01*
X190285000Y-67168400D02*
X190285000Y-68370481D01*
X173653200Y-49453800D02*
X174885100Y-50685700D01*
X174885100Y-50685700D02*
X181363620Y-50685700D01*
X181742080Y-43487340D02*
X181742080Y-44053025D01*
X181363620Y-50685700D02*
X183088280Y-52410360D01*
X181744620Y-50304700D02*
X181363620Y-50685700D01*
X181744620Y-44155360D02*
X181744620Y-50304700D01*
X174883565Y-49453800D02*
X173653200Y-49453800D01*
X175427640Y-48909725D02*
X174883565Y-49453800D01*
X175427640Y-28788360D02*
X175427640Y-48909725D01*
X173627800Y-52019200D02*
X173653200Y-51993800D01*
X171138600Y-52019200D02*
X173627800Y-52019200D01*
X171653200Y-51993800D02*
X174447200Y-51993800D01*
D31*
X178516280Y-52537360D02*
X178541680Y-52511960D01*
D30*
X178516280Y-52537360D02*
X181107080Y-55128160D01*
X181107080Y-55128160D02*
X185094880Y-55128160D01*
X182422800Y-47955200D02*
X183235600Y-48768000D01*
X185094880Y-51521360D02*
X185094880Y-51495960D01*
X185094880Y-55128160D02*
X185094880Y-51521360D01*
X192825000Y-54370481D02*
X192825000Y-59168400D01*
X192825000Y-53168400D02*
X192825000Y-54370481D01*
X192825000Y-60370481D02*
X192825000Y-67168400D01*
X192825000Y-59168400D02*
X192825000Y-60370481D01*
X192825000Y-67168400D02*
X192825000Y-73168400D01*
X185094880Y-55128160D02*
X185094880Y-55128160D01*
X175398841Y-52537360D02*
X178516280Y-52537360D01*
X173653200Y-51993800D02*
X174855281Y-51993800D01*
X174855281Y-51993800D02*
X175398841Y-52537360D01*
X192825000Y-53168400D02*
X192825000Y-51575600D01*
X192463420Y-51214020D02*
X184909460Y-51214020D01*
X192825000Y-51575600D02*
X192463420Y-51214020D01*
X183512460Y-49938940D02*
X184909460Y-51214020D01*
X184909460Y-51214020D02*
X185094880Y-51521360D01*
X182986680Y-49413160D02*
X182986680Y-48084740D01*
X183512460Y-49938940D02*
X182986680Y-49413160D01*
X168775380Y-30159960D02*
X173085000Y-25850340D01*
X171138600Y-52019200D02*
X168775380Y-52019200D01*
X173085000Y-25850340D02*
X173085000Y-22987000D01*
X168775380Y-52019200D02*
X168775380Y-30159960D01*
X204741020Y-43157140D02*
X204741020Y-39583360D01*
X200890899Y-47007261D02*
X204741020Y-43157140D01*
X194061080Y-47857260D02*
X194911079Y-47007261D01*
X194911079Y-47007261D02*
X200890899Y-47007261D01*
X176268380Y-49776380D02*
X176268380Y-49839880D01*
X176273460Y-49771300D02*
X176273460Y-49771300D01*
X176273460Y-44833540D02*
X176268380Y-49839880D01*
X176273460Y-49771300D02*
X176268380Y-49776380D01*
X176273460Y-37612320D02*
X176273460Y-44833540D01*
X176383950Y-37501830D02*
X176273460Y-37612320D01*
X195312540Y-30154880D02*
X204741020Y-39583360D01*
X176392840Y-37510720D02*
X180431440Y-37510720D01*
X176383950Y-37501830D02*
X176392840Y-37510720D01*
X194980560Y-29822900D02*
X194980560Y-23944580D01*
X195312540Y-30154880D02*
X194980560Y-29822900D01*
X189795160Y-29791660D02*
X186982100Y-32604720D01*
X194949320Y-29791660D02*
X194980560Y-29822900D01*
X189795160Y-29791660D02*
X194949320Y-29791660D01*
X192858999Y-45317260D02*
X192408299Y-44866560D01*
X194061080Y-45317260D02*
X192858999Y-45317260D01*
X187845700Y-44866560D02*
X185173620Y-44866560D01*
X192408299Y-44866560D02*
X191244220Y-44866560D01*
X191244220Y-44866560D02*
X187845700Y-44866560D01*
X195263161Y-45317260D02*
X197086220Y-43494201D01*
X194061080Y-45317260D02*
X195263161Y-45317260D01*
X197086220Y-43494201D02*
X197086220Y-43446700D01*
X199677020Y-40855900D02*
X199677020Y-39583360D01*
X197086220Y-43446700D02*
X199677020Y-40855900D01*
X191244220Y-39283640D02*
X191244220Y-44866560D01*
X188252100Y-36219522D02*
X188216540Y-36255082D01*
X188252100Y-35144720D02*
X188252100Y-36219522D01*
X188252100Y-36327080D02*
X189402720Y-37477700D01*
X188252100Y-36219522D02*
X188252100Y-36327080D01*
X189339220Y-37378640D02*
X189402720Y-37477700D01*
X189402720Y-37477700D02*
X191244220Y-39283640D01*
M02*
