G04 #@! TF.GenerationSoftware,KiCad,Pcbnew,(5.1.5)-3*
G04 #@! TF.CreationDate,2020-09-19T15:15:15+02:00*
G04 #@! TF.ProjectId,Airrohr_pcb,41697272-6f68-4725-9f70-63622e6b6963,rev?*
G04 #@! TF.SameCoordinates,Original*
G04 #@! TF.FileFunction,Soldermask,Bot*
G04 #@! TF.FilePolarity,Negative*
%FSLAX46Y46*%
G04 Gerber Fmt 4.6, Leading zero omitted, Abs format (unit mm)*
G04 Created by KiCad (PCBNEW (5.1.5)-3) date 2020-09-19 15:15:15*
%MOMM*%
%LPD*%
G04 APERTURE LIST*
%ADD10C,0.100000*%
G04 APERTURE END LIST*
D10*
G36*
X185064656Y-81791298D02*
G01*
X185170979Y-81812447D01*
X185471442Y-81936903D01*
X185741851Y-82117585D01*
X185971815Y-82347549D01*
X186152497Y-82617958D01*
X186276953Y-82918421D01*
X186340400Y-83237391D01*
X186340400Y-83562609D01*
X186276953Y-83881579D01*
X186152497Y-84182042D01*
X185971815Y-84452451D01*
X185741851Y-84682415D01*
X185471442Y-84863097D01*
X185170979Y-84987553D01*
X185064656Y-85008702D01*
X184852011Y-85051000D01*
X184526789Y-85051000D01*
X184314144Y-85008702D01*
X184207821Y-84987553D01*
X183907358Y-84863097D01*
X183636949Y-84682415D01*
X183406985Y-84452451D01*
X183226303Y-84182042D01*
X183101847Y-83881579D01*
X183038400Y-83562609D01*
X183038400Y-83237391D01*
X183101847Y-82918421D01*
X183226303Y-82617958D01*
X183406985Y-82347549D01*
X183636949Y-82117585D01*
X183907358Y-81936903D01*
X184207821Y-81812447D01*
X184314144Y-81791298D01*
X184526789Y-81749000D01*
X184852011Y-81749000D01*
X185064656Y-81791298D01*
G37*
G36*
X194954626Y-79759037D02*
G01*
X195124465Y-79810557D01*
X195124467Y-79810558D01*
X195280989Y-79894221D01*
X195418186Y-80006814D01*
X195501448Y-80108271D01*
X195530778Y-80144009D01*
X195614443Y-80300534D01*
X195665963Y-80470373D01*
X195679000Y-80602742D01*
X195679000Y-80941257D01*
X195665963Y-81073626D01*
X195614443Y-81243466D01*
X195530778Y-81399991D01*
X195501448Y-81435729D01*
X195418186Y-81537186D01*
X195323250Y-81615097D01*
X195280991Y-81649778D01*
X195124466Y-81733443D01*
X194954627Y-81784963D01*
X194778000Y-81802359D01*
X194601374Y-81784963D01*
X194431535Y-81733443D01*
X194275010Y-81649778D01*
X194137815Y-81537185D01*
X194025222Y-81399991D01*
X193941557Y-81243466D01*
X193890037Y-81073627D01*
X193877000Y-80941258D01*
X193877000Y-80602743D01*
X193890037Y-80470374D01*
X193941557Y-80300535D01*
X194025222Y-80144010D01*
X194025223Y-80144009D01*
X194137814Y-80006814D01*
X194239271Y-79923552D01*
X194275009Y-79894222D01*
X194431534Y-79810557D01*
X194601373Y-79759037D01*
X194778000Y-79741641D01*
X194954626Y-79759037D01*
G37*
G36*
X202454626Y-79759037D02*
G01*
X202624465Y-79810557D01*
X202624467Y-79810558D01*
X202780989Y-79894221D01*
X202918186Y-80006814D01*
X203001448Y-80108271D01*
X203030778Y-80144009D01*
X203114443Y-80300534D01*
X203165963Y-80470373D01*
X203179000Y-80602742D01*
X203179000Y-80941257D01*
X203165963Y-81073626D01*
X203114443Y-81243466D01*
X203030778Y-81399991D01*
X203001448Y-81435729D01*
X202918186Y-81537186D01*
X202823250Y-81615097D01*
X202780991Y-81649778D01*
X202624466Y-81733443D01*
X202454627Y-81784963D01*
X202278000Y-81802359D01*
X202101374Y-81784963D01*
X201931535Y-81733443D01*
X201775010Y-81649778D01*
X201637815Y-81537185D01*
X201525222Y-81399991D01*
X201441557Y-81243466D01*
X201390037Y-81073627D01*
X201377000Y-80941258D01*
X201377000Y-80602743D01*
X201390037Y-80470374D01*
X201441557Y-80300535D01*
X201525222Y-80144010D01*
X201525223Y-80144009D01*
X201637814Y-80006814D01*
X201739271Y-79923552D01*
X201775009Y-79894222D01*
X201931534Y-79810557D01*
X202101373Y-79759037D01*
X202278000Y-79741641D01*
X202454626Y-79759037D01*
G37*
G36*
X197454626Y-79759037D02*
G01*
X197624465Y-79810557D01*
X197624467Y-79810558D01*
X197780989Y-79894221D01*
X197918186Y-80006814D01*
X198001448Y-80108271D01*
X198030778Y-80144009D01*
X198114443Y-80300534D01*
X198165963Y-80470373D01*
X198179000Y-80602742D01*
X198179000Y-80941257D01*
X198165963Y-81073626D01*
X198114443Y-81243466D01*
X198030778Y-81399991D01*
X198001448Y-81435729D01*
X197918186Y-81537186D01*
X197823250Y-81615097D01*
X197780991Y-81649778D01*
X197624466Y-81733443D01*
X197454627Y-81784963D01*
X197278000Y-81802359D01*
X197101374Y-81784963D01*
X196931535Y-81733443D01*
X196775010Y-81649778D01*
X196637815Y-81537185D01*
X196525222Y-81399991D01*
X196441557Y-81243466D01*
X196390037Y-81073627D01*
X196377000Y-80941258D01*
X196377000Y-80602743D01*
X196390037Y-80470374D01*
X196441557Y-80300535D01*
X196525222Y-80144010D01*
X196525223Y-80144009D01*
X196637814Y-80006814D01*
X196739271Y-79923552D01*
X196775009Y-79894222D01*
X196931534Y-79810557D01*
X197101373Y-79759037D01*
X197278000Y-79741641D01*
X197454626Y-79759037D01*
G37*
G36*
X199954626Y-79759037D02*
G01*
X200124465Y-79810557D01*
X200124467Y-79810558D01*
X200280989Y-79894221D01*
X200418186Y-80006814D01*
X200501448Y-80108271D01*
X200530778Y-80144009D01*
X200614443Y-80300534D01*
X200665963Y-80470373D01*
X200679000Y-80602742D01*
X200679000Y-80941257D01*
X200665963Y-81073626D01*
X200614443Y-81243466D01*
X200530778Y-81399991D01*
X200501448Y-81435729D01*
X200418186Y-81537186D01*
X200323250Y-81615097D01*
X200280991Y-81649778D01*
X200124466Y-81733443D01*
X199954627Y-81784963D01*
X199778000Y-81802359D01*
X199601374Y-81784963D01*
X199431535Y-81733443D01*
X199275010Y-81649778D01*
X199137815Y-81537185D01*
X199025222Y-81399991D01*
X198941557Y-81243466D01*
X198890037Y-81073627D01*
X198877000Y-80941258D01*
X198877000Y-80602743D01*
X198890037Y-80470374D01*
X198941557Y-80300535D01*
X199025222Y-80144010D01*
X199025223Y-80144009D01*
X199137814Y-80006814D01*
X199239271Y-79923552D01*
X199275009Y-79894222D01*
X199431534Y-79810557D01*
X199601373Y-79759037D01*
X199778000Y-79741641D01*
X199954626Y-79759037D01*
G37*
G36*
X193036600Y-79749989D02*
G01*
X193069652Y-79760015D01*
X193100103Y-79776292D01*
X193126799Y-79798201D01*
X193148708Y-79824897D01*
X193164985Y-79855348D01*
X193175011Y-79888400D01*
X193179000Y-79928903D01*
X193179000Y-81615097D01*
X193175011Y-81655600D01*
X193164985Y-81688652D01*
X193148708Y-81719103D01*
X193126799Y-81745799D01*
X193100103Y-81767708D01*
X193069652Y-81783985D01*
X193036600Y-81794011D01*
X192996097Y-81798000D01*
X191559903Y-81798000D01*
X191519400Y-81794011D01*
X191486348Y-81783985D01*
X191455897Y-81767708D01*
X191429201Y-81745799D01*
X191407292Y-81719103D01*
X191391015Y-81688652D01*
X191380989Y-81655600D01*
X191377000Y-81615097D01*
X191377000Y-79928903D01*
X191380989Y-79888400D01*
X191391015Y-79855348D01*
X191407292Y-79824897D01*
X191429201Y-79798201D01*
X191455897Y-79776292D01*
X191486348Y-79760015D01*
X191519400Y-79749989D01*
X191559903Y-79746000D01*
X192996097Y-79746000D01*
X193036600Y-79749989D01*
G37*
G36*
X148392112Y-76523127D02*
G01*
X148541412Y-76552824D01*
X148705384Y-76620744D01*
X148852954Y-76719347D01*
X148978453Y-76844846D01*
X149077056Y-76992416D01*
X149144976Y-77156388D01*
X149179600Y-77330459D01*
X149179600Y-77507941D01*
X149144976Y-77682012D01*
X149077056Y-77845984D01*
X148978453Y-77993554D01*
X148852954Y-78119053D01*
X148705384Y-78217656D01*
X148541412Y-78285576D01*
X148392112Y-78315273D01*
X148367342Y-78320200D01*
X148189858Y-78320200D01*
X148165088Y-78315273D01*
X148015788Y-78285576D01*
X147851816Y-78217656D01*
X147704246Y-78119053D01*
X147578747Y-77993554D01*
X147480144Y-77845984D01*
X147412224Y-77682012D01*
X147377600Y-77507941D01*
X147377600Y-77330459D01*
X147412224Y-77156388D01*
X147480144Y-76992416D01*
X147578747Y-76844846D01*
X147704246Y-76719347D01*
X147851816Y-76620744D01*
X148015788Y-76552824D01*
X148165088Y-76523127D01*
X148189858Y-76518200D01*
X148367342Y-76518200D01*
X148392112Y-76523127D01*
G37*
G36*
X171252112Y-76523127D02*
G01*
X171401412Y-76552824D01*
X171565384Y-76620744D01*
X171712954Y-76719347D01*
X171838453Y-76844846D01*
X171937056Y-76992416D01*
X172004976Y-77156388D01*
X172039600Y-77330459D01*
X172039600Y-77507941D01*
X172004976Y-77682012D01*
X171937056Y-77845984D01*
X171838453Y-77993554D01*
X171712954Y-78119053D01*
X171565384Y-78217656D01*
X171401412Y-78285576D01*
X171252112Y-78315273D01*
X171227342Y-78320200D01*
X171049858Y-78320200D01*
X171025088Y-78315273D01*
X170875788Y-78285576D01*
X170711816Y-78217656D01*
X170564246Y-78119053D01*
X170438747Y-77993554D01*
X170340144Y-77845984D01*
X170272224Y-77682012D01*
X170237600Y-77507941D01*
X170237600Y-77330459D01*
X170272224Y-77156388D01*
X170340144Y-76992416D01*
X170438747Y-76844846D01*
X170564246Y-76719347D01*
X170711816Y-76620744D01*
X170875788Y-76552824D01*
X171025088Y-76523127D01*
X171049858Y-76518200D01*
X171227342Y-76518200D01*
X171252112Y-76523127D01*
G37*
G36*
X173766712Y-76497727D02*
G01*
X173916012Y-76527424D01*
X174079984Y-76595344D01*
X174227554Y-76693947D01*
X174353053Y-76819446D01*
X174451656Y-76967016D01*
X174519576Y-77130988D01*
X174554200Y-77305059D01*
X174554200Y-77482541D01*
X174519576Y-77656612D01*
X174451656Y-77820584D01*
X174353053Y-77968154D01*
X174227554Y-78093653D01*
X174079984Y-78192256D01*
X173916012Y-78260176D01*
X173766712Y-78289873D01*
X173741942Y-78294800D01*
X173564458Y-78294800D01*
X173539688Y-78289873D01*
X173390388Y-78260176D01*
X173226416Y-78192256D01*
X173078846Y-78093653D01*
X172953347Y-77968154D01*
X172854744Y-77820584D01*
X172786824Y-77656612D01*
X172752200Y-77482541D01*
X172752200Y-77305059D01*
X172786824Y-77130988D01*
X172854744Y-76967016D01*
X172953347Y-76819446D01*
X173078846Y-76693947D01*
X173226416Y-76595344D01*
X173390388Y-76527424D01*
X173539688Y-76497727D01*
X173564458Y-76492800D01*
X173741942Y-76492800D01*
X173766712Y-76497727D01*
G37*
G36*
X145826712Y-76497727D02*
G01*
X145976012Y-76527424D01*
X146139984Y-76595344D01*
X146287554Y-76693947D01*
X146413053Y-76819446D01*
X146511656Y-76967016D01*
X146579576Y-77130988D01*
X146614200Y-77305059D01*
X146614200Y-77482541D01*
X146579576Y-77656612D01*
X146511656Y-77820584D01*
X146413053Y-77968154D01*
X146287554Y-78093653D01*
X146139984Y-78192256D01*
X145976012Y-78260176D01*
X145826712Y-78289873D01*
X145801942Y-78294800D01*
X145624458Y-78294800D01*
X145599688Y-78289873D01*
X145450388Y-78260176D01*
X145286416Y-78192256D01*
X145138846Y-78093653D01*
X145013347Y-77968154D01*
X144914744Y-77820584D01*
X144846824Y-77656612D01*
X144812200Y-77482541D01*
X144812200Y-77305059D01*
X144846824Y-77130988D01*
X144914744Y-76967016D01*
X145013347Y-76819446D01*
X145138846Y-76693947D01*
X145286416Y-76595344D01*
X145450388Y-76527424D01*
X145599688Y-76497727D01*
X145624458Y-76492800D01*
X145801942Y-76492800D01*
X145826712Y-76497727D01*
G37*
G36*
X178822928Y-76468823D02*
G01*
X178977800Y-76532973D01*
X179117181Y-76626105D01*
X179235715Y-76744639D01*
X179328847Y-76884020D01*
X179392997Y-77038892D01*
X179425700Y-77203304D01*
X179425700Y-77370936D01*
X179392997Y-77535348D01*
X179328847Y-77690220D01*
X179235715Y-77829601D01*
X179117181Y-77948135D01*
X178977800Y-78041267D01*
X178822928Y-78105417D01*
X178658516Y-78138120D01*
X178490884Y-78138120D01*
X178326472Y-78105417D01*
X178171600Y-78041267D01*
X178032219Y-77948135D01*
X177913685Y-77829601D01*
X177820553Y-77690220D01*
X177756403Y-77535348D01*
X177723700Y-77370936D01*
X177723700Y-77203304D01*
X177756403Y-77038892D01*
X177820553Y-76884020D01*
X177913685Y-76744639D01*
X178032219Y-76626105D01*
X178171600Y-76532973D01*
X178326472Y-76468823D01*
X178490884Y-76436120D01*
X178658516Y-76436120D01*
X178822928Y-76468823D01*
G37*
G36*
X184098412Y-74587647D02*
G01*
X184247712Y-74617344D01*
X184411684Y-74685264D01*
X184559254Y-74783867D01*
X184684753Y-74909366D01*
X184783356Y-75056936D01*
X184851276Y-75220908D01*
X184885900Y-75394979D01*
X184885900Y-75572461D01*
X184851276Y-75746532D01*
X184783356Y-75910504D01*
X184684753Y-76058074D01*
X184559254Y-76183573D01*
X184411684Y-76282176D01*
X184247712Y-76350096D01*
X184098412Y-76379793D01*
X184073642Y-76384720D01*
X183896158Y-76384720D01*
X183871388Y-76379793D01*
X183722088Y-76350096D01*
X183558116Y-76282176D01*
X183410546Y-76183573D01*
X183285047Y-76058074D01*
X183186444Y-75910504D01*
X183118524Y-75746532D01*
X183083900Y-75572461D01*
X183083900Y-75394979D01*
X183118524Y-75220908D01*
X183186444Y-75056936D01*
X183285047Y-74909366D01*
X183410546Y-74783867D01*
X183558116Y-74685264D01*
X183722088Y-74617344D01*
X183871388Y-74587647D01*
X183896158Y-74582720D01*
X184073642Y-74582720D01*
X184098412Y-74587647D01*
G37*
G36*
X148392112Y-73983127D02*
G01*
X148541412Y-74012824D01*
X148705384Y-74080744D01*
X148852954Y-74179347D01*
X148978453Y-74304846D01*
X149077056Y-74452416D01*
X149144976Y-74616388D01*
X149179600Y-74790459D01*
X149179600Y-74967941D01*
X149144976Y-75142012D01*
X149077056Y-75305984D01*
X148978453Y-75453554D01*
X148852954Y-75579053D01*
X148705384Y-75677656D01*
X148541412Y-75745576D01*
X148392112Y-75775273D01*
X148367342Y-75780200D01*
X148189858Y-75780200D01*
X148165088Y-75775273D01*
X148015788Y-75745576D01*
X147851816Y-75677656D01*
X147704246Y-75579053D01*
X147578747Y-75453554D01*
X147480144Y-75305984D01*
X147412224Y-75142012D01*
X147377600Y-74967941D01*
X147377600Y-74790459D01*
X147412224Y-74616388D01*
X147480144Y-74452416D01*
X147578747Y-74304846D01*
X147704246Y-74179347D01*
X147851816Y-74080744D01*
X148015788Y-74012824D01*
X148165088Y-73983127D01*
X148189858Y-73978200D01*
X148367342Y-73978200D01*
X148392112Y-73983127D01*
G37*
G36*
X171252112Y-73983127D02*
G01*
X171401412Y-74012824D01*
X171565384Y-74080744D01*
X171712954Y-74179347D01*
X171838453Y-74304846D01*
X171937056Y-74452416D01*
X172004976Y-74616388D01*
X172039600Y-74790459D01*
X172039600Y-74967941D01*
X172004976Y-75142012D01*
X171937056Y-75305984D01*
X171838453Y-75453554D01*
X171712954Y-75579053D01*
X171565384Y-75677656D01*
X171401412Y-75745576D01*
X171252112Y-75775273D01*
X171227342Y-75780200D01*
X171049858Y-75780200D01*
X171025088Y-75775273D01*
X170875788Y-75745576D01*
X170711816Y-75677656D01*
X170564246Y-75579053D01*
X170438747Y-75453554D01*
X170340144Y-75305984D01*
X170272224Y-75142012D01*
X170237600Y-74967941D01*
X170237600Y-74790459D01*
X170272224Y-74616388D01*
X170340144Y-74452416D01*
X170438747Y-74304846D01*
X170564246Y-74179347D01*
X170711816Y-74080744D01*
X170875788Y-74012824D01*
X171025088Y-73983127D01*
X171049858Y-73978200D01*
X171227342Y-73978200D01*
X171252112Y-73983127D01*
G37*
G36*
X173766712Y-73957727D02*
G01*
X173916012Y-73987424D01*
X174079984Y-74055344D01*
X174227554Y-74153947D01*
X174353053Y-74279446D01*
X174451656Y-74427016D01*
X174519576Y-74590988D01*
X174554200Y-74765059D01*
X174554200Y-74942541D01*
X174519576Y-75116612D01*
X174451656Y-75280584D01*
X174353053Y-75428154D01*
X174227554Y-75553653D01*
X174079984Y-75652256D01*
X173916012Y-75720176D01*
X173766712Y-75749873D01*
X173741942Y-75754800D01*
X173564458Y-75754800D01*
X173539688Y-75749873D01*
X173390388Y-75720176D01*
X173226416Y-75652256D01*
X173078846Y-75553653D01*
X172953347Y-75428154D01*
X172854744Y-75280584D01*
X172786824Y-75116612D01*
X172752200Y-74942541D01*
X172752200Y-74765059D01*
X172786824Y-74590988D01*
X172854744Y-74427016D01*
X172953347Y-74279446D01*
X173078846Y-74153947D01*
X173226416Y-74055344D01*
X173390388Y-73987424D01*
X173539688Y-73957727D01*
X173564458Y-73952800D01*
X173741942Y-73952800D01*
X173766712Y-73957727D01*
G37*
G36*
X145826712Y-73957727D02*
G01*
X145976012Y-73987424D01*
X146139984Y-74055344D01*
X146287554Y-74153947D01*
X146413053Y-74279446D01*
X146511656Y-74427016D01*
X146579576Y-74590988D01*
X146614200Y-74765059D01*
X146614200Y-74942541D01*
X146579576Y-75116612D01*
X146511656Y-75280584D01*
X146413053Y-75428154D01*
X146287554Y-75553653D01*
X146139984Y-75652256D01*
X145976012Y-75720176D01*
X145826712Y-75749873D01*
X145801942Y-75754800D01*
X145624458Y-75754800D01*
X145599688Y-75749873D01*
X145450388Y-75720176D01*
X145286416Y-75652256D01*
X145138846Y-75553653D01*
X145013347Y-75428154D01*
X144914744Y-75280584D01*
X144846824Y-75116612D01*
X144812200Y-74942541D01*
X144812200Y-74765059D01*
X144846824Y-74590988D01*
X144914744Y-74427016D01*
X145013347Y-74279446D01*
X145138846Y-74153947D01*
X145286416Y-74055344D01*
X145450388Y-73987424D01*
X145599688Y-73957727D01*
X145624458Y-73952800D01*
X145801942Y-73952800D01*
X145826712Y-73957727D01*
G37*
G36*
X198806000Y-74069400D02*
G01*
X197004000Y-74069400D01*
X197004000Y-72267400D01*
X198806000Y-72267400D01*
X198806000Y-74069400D01*
G37*
G36*
X190398512Y-72272327D02*
G01*
X190547812Y-72302024D01*
X190711784Y-72369944D01*
X190859354Y-72468547D01*
X190984853Y-72594046D01*
X191083456Y-72741616D01*
X191151376Y-72905588D01*
X191186000Y-73079659D01*
X191186000Y-73257141D01*
X191151376Y-73431212D01*
X191083456Y-73595184D01*
X190984853Y-73742754D01*
X190859354Y-73868253D01*
X190711784Y-73966856D01*
X190547812Y-74034776D01*
X190398512Y-74064473D01*
X190373742Y-74069400D01*
X190196258Y-74069400D01*
X190171488Y-74064473D01*
X190022188Y-74034776D01*
X189858216Y-73966856D01*
X189710646Y-73868253D01*
X189585147Y-73742754D01*
X189486544Y-73595184D01*
X189418624Y-73431212D01*
X189384000Y-73257141D01*
X189384000Y-73079659D01*
X189418624Y-72905588D01*
X189486544Y-72741616D01*
X189585147Y-72594046D01*
X189710646Y-72468547D01*
X189858216Y-72369944D01*
X190022188Y-72302024D01*
X190171488Y-72272327D01*
X190196258Y-72267400D01*
X190373742Y-72267400D01*
X190398512Y-72272327D01*
G37*
G36*
X195478512Y-72272327D02*
G01*
X195627812Y-72302024D01*
X195791784Y-72369944D01*
X195939354Y-72468547D01*
X196064853Y-72594046D01*
X196163456Y-72741616D01*
X196231376Y-72905588D01*
X196266000Y-73079659D01*
X196266000Y-73257141D01*
X196231376Y-73431212D01*
X196163456Y-73595184D01*
X196064853Y-73742754D01*
X195939354Y-73868253D01*
X195791784Y-73966856D01*
X195627812Y-74034776D01*
X195478512Y-74064473D01*
X195453742Y-74069400D01*
X195276258Y-74069400D01*
X195251488Y-74064473D01*
X195102188Y-74034776D01*
X194938216Y-73966856D01*
X194790646Y-73868253D01*
X194665147Y-73742754D01*
X194566544Y-73595184D01*
X194498624Y-73431212D01*
X194464000Y-73257141D01*
X194464000Y-73079659D01*
X194498624Y-72905588D01*
X194566544Y-72741616D01*
X194665147Y-72594046D01*
X194790646Y-72468547D01*
X194938216Y-72369944D01*
X195102188Y-72302024D01*
X195251488Y-72272327D01*
X195276258Y-72267400D01*
X195453742Y-72267400D01*
X195478512Y-72272327D01*
G37*
G36*
X192938512Y-72272327D02*
G01*
X193087812Y-72302024D01*
X193251784Y-72369944D01*
X193399354Y-72468547D01*
X193524853Y-72594046D01*
X193623456Y-72741616D01*
X193691376Y-72905588D01*
X193726000Y-73079659D01*
X193726000Y-73257141D01*
X193691376Y-73431212D01*
X193623456Y-73595184D01*
X193524853Y-73742754D01*
X193399354Y-73868253D01*
X193251784Y-73966856D01*
X193087812Y-74034776D01*
X192938512Y-74064473D01*
X192913742Y-74069400D01*
X192736258Y-74069400D01*
X192711488Y-74064473D01*
X192562188Y-74034776D01*
X192398216Y-73966856D01*
X192250646Y-73868253D01*
X192125147Y-73742754D01*
X192026544Y-73595184D01*
X191958624Y-73431212D01*
X191924000Y-73257141D01*
X191924000Y-73079659D01*
X191958624Y-72905588D01*
X192026544Y-72741616D01*
X192125147Y-72594046D01*
X192250646Y-72468547D01*
X192398216Y-72369944D01*
X192562188Y-72302024D01*
X192711488Y-72272327D01*
X192736258Y-72267400D01*
X192913742Y-72267400D01*
X192938512Y-72272327D01*
G37*
G36*
X184098412Y-72047647D02*
G01*
X184247712Y-72077344D01*
X184411684Y-72145264D01*
X184559254Y-72243867D01*
X184684753Y-72369366D01*
X184783356Y-72516936D01*
X184851276Y-72680908D01*
X184885900Y-72854979D01*
X184885900Y-73032461D01*
X184851276Y-73206532D01*
X184783356Y-73370504D01*
X184684753Y-73518074D01*
X184559254Y-73643573D01*
X184411684Y-73742176D01*
X184247712Y-73810096D01*
X184098412Y-73839793D01*
X184073642Y-73844720D01*
X183896158Y-73844720D01*
X183871388Y-73839793D01*
X183722088Y-73810096D01*
X183558116Y-73742176D01*
X183410546Y-73643573D01*
X183285047Y-73518074D01*
X183186444Y-73370504D01*
X183118524Y-73206532D01*
X183083900Y-73032461D01*
X183083900Y-72854979D01*
X183118524Y-72680908D01*
X183186444Y-72516936D01*
X183285047Y-72369366D01*
X183410546Y-72243867D01*
X183558116Y-72145264D01*
X183722088Y-72077344D01*
X183871388Y-72047647D01*
X183896158Y-72042720D01*
X184073642Y-72042720D01*
X184098412Y-72047647D01*
G37*
G36*
X171252112Y-71443127D02*
G01*
X171401412Y-71472824D01*
X171565384Y-71540744D01*
X171712954Y-71639347D01*
X171838453Y-71764846D01*
X171937056Y-71912416D01*
X172004976Y-72076388D01*
X172039600Y-72250459D01*
X172039600Y-72427941D01*
X172004976Y-72602012D01*
X171937056Y-72765984D01*
X171838453Y-72913554D01*
X171712954Y-73039053D01*
X171565384Y-73137656D01*
X171401412Y-73205576D01*
X171252112Y-73235273D01*
X171227342Y-73240200D01*
X171049858Y-73240200D01*
X171025088Y-73235273D01*
X170875788Y-73205576D01*
X170711816Y-73137656D01*
X170564246Y-73039053D01*
X170438747Y-72913554D01*
X170340144Y-72765984D01*
X170272224Y-72602012D01*
X170237600Y-72427941D01*
X170237600Y-72250459D01*
X170272224Y-72076388D01*
X170340144Y-71912416D01*
X170438747Y-71764846D01*
X170564246Y-71639347D01*
X170711816Y-71540744D01*
X170875788Y-71472824D01*
X171025088Y-71443127D01*
X171049858Y-71438200D01*
X171227342Y-71438200D01*
X171252112Y-71443127D01*
G37*
G36*
X148392112Y-71443127D02*
G01*
X148541412Y-71472824D01*
X148705384Y-71540744D01*
X148852954Y-71639347D01*
X148978453Y-71764846D01*
X149077056Y-71912416D01*
X149144976Y-72076388D01*
X149179600Y-72250459D01*
X149179600Y-72427941D01*
X149144976Y-72602012D01*
X149077056Y-72765984D01*
X148978453Y-72913554D01*
X148852954Y-73039053D01*
X148705384Y-73137656D01*
X148541412Y-73205576D01*
X148392112Y-73235273D01*
X148367342Y-73240200D01*
X148189858Y-73240200D01*
X148165088Y-73235273D01*
X148015788Y-73205576D01*
X147851816Y-73137656D01*
X147704246Y-73039053D01*
X147578747Y-72913554D01*
X147480144Y-72765984D01*
X147412224Y-72602012D01*
X147377600Y-72427941D01*
X147377600Y-72250459D01*
X147412224Y-72076388D01*
X147480144Y-71912416D01*
X147578747Y-71764846D01*
X147704246Y-71639347D01*
X147851816Y-71540744D01*
X148015788Y-71472824D01*
X148165088Y-71443127D01*
X148189858Y-71438200D01*
X148367342Y-71438200D01*
X148392112Y-71443127D01*
G37*
G36*
X173766712Y-71417727D02*
G01*
X173916012Y-71447424D01*
X174079984Y-71515344D01*
X174227554Y-71613947D01*
X174353053Y-71739446D01*
X174451656Y-71887016D01*
X174519576Y-72050988D01*
X174554200Y-72225059D01*
X174554200Y-72402541D01*
X174519576Y-72576612D01*
X174451656Y-72740584D01*
X174353053Y-72888154D01*
X174227554Y-73013653D01*
X174079984Y-73112256D01*
X173916012Y-73180176D01*
X173766712Y-73209873D01*
X173741942Y-73214800D01*
X173564458Y-73214800D01*
X173539688Y-73209873D01*
X173390388Y-73180176D01*
X173226416Y-73112256D01*
X173078846Y-73013653D01*
X172953347Y-72888154D01*
X172854744Y-72740584D01*
X172786824Y-72576612D01*
X172752200Y-72402541D01*
X172752200Y-72225059D01*
X172786824Y-72050988D01*
X172854744Y-71887016D01*
X172953347Y-71739446D01*
X173078846Y-71613947D01*
X173226416Y-71515344D01*
X173390388Y-71447424D01*
X173539688Y-71417727D01*
X173564458Y-71412800D01*
X173741942Y-71412800D01*
X173766712Y-71417727D01*
G37*
G36*
X145826712Y-71417727D02*
G01*
X145976012Y-71447424D01*
X146139984Y-71515344D01*
X146287554Y-71613947D01*
X146413053Y-71739446D01*
X146511656Y-71887016D01*
X146579576Y-72050988D01*
X146614200Y-72225059D01*
X146614200Y-72402541D01*
X146579576Y-72576612D01*
X146511656Y-72740584D01*
X146413053Y-72888154D01*
X146287554Y-73013653D01*
X146139984Y-73112256D01*
X145976012Y-73180176D01*
X145826712Y-73209873D01*
X145801942Y-73214800D01*
X145624458Y-73214800D01*
X145599688Y-73209873D01*
X145450388Y-73180176D01*
X145286416Y-73112256D01*
X145138846Y-73013653D01*
X145013347Y-72888154D01*
X144914744Y-72740584D01*
X144846824Y-72576612D01*
X144812200Y-72402541D01*
X144812200Y-72225059D01*
X144846824Y-72050988D01*
X144914744Y-71887016D01*
X145013347Y-71739446D01*
X145138846Y-71613947D01*
X145286416Y-71515344D01*
X145450388Y-71447424D01*
X145599688Y-71417727D01*
X145624458Y-71412800D01*
X145801942Y-71412800D01*
X145826712Y-71417727D01*
G37*
G36*
X184098412Y-69507647D02*
G01*
X184247712Y-69537344D01*
X184411684Y-69605264D01*
X184559254Y-69703867D01*
X184684753Y-69829366D01*
X184783356Y-69976936D01*
X184851276Y-70140908D01*
X184885900Y-70314979D01*
X184885900Y-70492461D01*
X184851276Y-70666532D01*
X184783356Y-70830504D01*
X184684753Y-70978074D01*
X184559254Y-71103573D01*
X184411684Y-71202176D01*
X184247712Y-71270096D01*
X184098412Y-71299793D01*
X184073642Y-71304720D01*
X183896158Y-71304720D01*
X183871388Y-71299793D01*
X183722088Y-71270096D01*
X183558116Y-71202176D01*
X183410546Y-71103573D01*
X183285047Y-70978074D01*
X183186444Y-70830504D01*
X183118524Y-70666532D01*
X183083900Y-70492461D01*
X183083900Y-70314979D01*
X183118524Y-70140908D01*
X183186444Y-69976936D01*
X183285047Y-69829366D01*
X183410546Y-69703867D01*
X183558116Y-69605264D01*
X183722088Y-69537344D01*
X183871388Y-69507647D01*
X183896158Y-69502720D01*
X184073642Y-69502720D01*
X184098412Y-69507647D01*
G37*
G36*
X148392112Y-68903127D02*
G01*
X148541412Y-68932824D01*
X148705384Y-69000744D01*
X148852954Y-69099347D01*
X148978453Y-69224846D01*
X149077056Y-69372416D01*
X149144976Y-69536388D01*
X149179600Y-69710459D01*
X149179600Y-69887941D01*
X149144976Y-70062012D01*
X149077056Y-70225984D01*
X148978453Y-70373554D01*
X148852954Y-70499053D01*
X148705384Y-70597656D01*
X148541412Y-70665576D01*
X148392112Y-70695273D01*
X148367342Y-70700200D01*
X148189858Y-70700200D01*
X148165088Y-70695273D01*
X148015788Y-70665576D01*
X147851816Y-70597656D01*
X147704246Y-70499053D01*
X147578747Y-70373554D01*
X147480144Y-70225984D01*
X147412224Y-70062012D01*
X147377600Y-69887941D01*
X147377600Y-69710459D01*
X147412224Y-69536388D01*
X147480144Y-69372416D01*
X147578747Y-69224846D01*
X147704246Y-69099347D01*
X147851816Y-69000744D01*
X148015788Y-68932824D01*
X148165088Y-68903127D01*
X148189858Y-68898200D01*
X148367342Y-68898200D01*
X148392112Y-68903127D01*
G37*
G36*
X171252112Y-68903127D02*
G01*
X171401412Y-68932824D01*
X171565384Y-69000744D01*
X171712954Y-69099347D01*
X171838453Y-69224846D01*
X171937056Y-69372416D01*
X172004976Y-69536388D01*
X172039600Y-69710459D01*
X172039600Y-69887941D01*
X172004976Y-70062012D01*
X171937056Y-70225984D01*
X171838453Y-70373554D01*
X171712954Y-70499053D01*
X171565384Y-70597656D01*
X171401412Y-70665576D01*
X171252112Y-70695273D01*
X171227342Y-70700200D01*
X171049858Y-70700200D01*
X171025088Y-70695273D01*
X170875788Y-70665576D01*
X170711816Y-70597656D01*
X170564246Y-70499053D01*
X170438747Y-70373554D01*
X170340144Y-70225984D01*
X170272224Y-70062012D01*
X170237600Y-69887941D01*
X170237600Y-69710459D01*
X170272224Y-69536388D01*
X170340144Y-69372416D01*
X170438747Y-69224846D01*
X170564246Y-69099347D01*
X170711816Y-69000744D01*
X170875788Y-68932824D01*
X171025088Y-68903127D01*
X171049858Y-68898200D01*
X171227342Y-68898200D01*
X171252112Y-68903127D01*
G37*
G36*
X145826712Y-68877727D02*
G01*
X145976012Y-68907424D01*
X146139984Y-68975344D01*
X146287554Y-69073947D01*
X146413053Y-69199446D01*
X146511656Y-69347016D01*
X146579576Y-69510988D01*
X146614200Y-69685059D01*
X146614200Y-69862541D01*
X146579576Y-70036612D01*
X146511656Y-70200584D01*
X146413053Y-70348154D01*
X146287554Y-70473653D01*
X146139984Y-70572256D01*
X145976012Y-70640176D01*
X145826712Y-70669873D01*
X145801942Y-70674800D01*
X145624458Y-70674800D01*
X145599688Y-70669873D01*
X145450388Y-70640176D01*
X145286416Y-70572256D01*
X145138846Y-70473653D01*
X145013347Y-70348154D01*
X144914744Y-70200584D01*
X144846824Y-70036612D01*
X144812200Y-69862541D01*
X144812200Y-69685059D01*
X144846824Y-69510988D01*
X144914744Y-69347016D01*
X145013347Y-69199446D01*
X145138846Y-69073947D01*
X145286416Y-68975344D01*
X145450388Y-68907424D01*
X145599688Y-68877727D01*
X145624458Y-68872800D01*
X145801942Y-68872800D01*
X145826712Y-68877727D01*
G37*
G36*
X173766712Y-68877727D02*
G01*
X173916012Y-68907424D01*
X174079984Y-68975344D01*
X174227554Y-69073947D01*
X174353053Y-69199446D01*
X174451656Y-69347016D01*
X174519576Y-69510988D01*
X174554200Y-69685059D01*
X174554200Y-69862541D01*
X174519576Y-70036612D01*
X174451656Y-70200584D01*
X174353053Y-70348154D01*
X174227554Y-70473653D01*
X174079984Y-70572256D01*
X173916012Y-70640176D01*
X173766712Y-70669873D01*
X173741942Y-70674800D01*
X173564458Y-70674800D01*
X173539688Y-70669873D01*
X173390388Y-70640176D01*
X173226416Y-70572256D01*
X173078846Y-70473653D01*
X172953347Y-70348154D01*
X172854744Y-70200584D01*
X172786824Y-70036612D01*
X172752200Y-69862541D01*
X172752200Y-69685059D01*
X172786824Y-69510988D01*
X172854744Y-69347016D01*
X172953347Y-69199446D01*
X173078846Y-69073947D01*
X173226416Y-68975344D01*
X173390388Y-68907424D01*
X173539688Y-68877727D01*
X173564458Y-68872800D01*
X173741942Y-68872800D01*
X173766712Y-68877727D01*
G37*
G36*
X184885900Y-68764720D02*
G01*
X183083900Y-68764720D01*
X183083900Y-66962720D01*
X184885900Y-66962720D01*
X184885900Y-68764720D01*
G37*
G36*
X171252112Y-66363127D02*
G01*
X171401412Y-66392824D01*
X171565384Y-66460744D01*
X171712954Y-66559347D01*
X171838453Y-66684846D01*
X171937056Y-66832416D01*
X172004976Y-66996388D01*
X172039600Y-67170459D01*
X172039600Y-67347941D01*
X172004976Y-67522012D01*
X171937056Y-67685984D01*
X171838453Y-67833554D01*
X171712954Y-67959053D01*
X171565384Y-68057656D01*
X171401412Y-68125576D01*
X171252112Y-68155273D01*
X171227342Y-68160200D01*
X171049858Y-68160200D01*
X171025088Y-68155273D01*
X170875788Y-68125576D01*
X170711816Y-68057656D01*
X170564246Y-67959053D01*
X170438747Y-67833554D01*
X170340144Y-67685984D01*
X170272224Y-67522012D01*
X170237600Y-67347941D01*
X170237600Y-67170459D01*
X170272224Y-66996388D01*
X170340144Y-66832416D01*
X170438747Y-66684846D01*
X170564246Y-66559347D01*
X170711816Y-66460744D01*
X170875788Y-66392824D01*
X171025088Y-66363127D01*
X171049858Y-66358200D01*
X171227342Y-66358200D01*
X171252112Y-66363127D01*
G37*
G36*
X148392112Y-66363127D02*
G01*
X148541412Y-66392824D01*
X148705384Y-66460744D01*
X148852954Y-66559347D01*
X148978453Y-66684846D01*
X149077056Y-66832416D01*
X149144976Y-66996388D01*
X149179600Y-67170459D01*
X149179600Y-67347941D01*
X149144976Y-67522012D01*
X149077056Y-67685984D01*
X148978453Y-67833554D01*
X148852954Y-67959053D01*
X148705384Y-68057656D01*
X148541412Y-68125576D01*
X148392112Y-68155273D01*
X148367342Y-68160200D01*
X148189858Y-68160200D01*
X148165088Y-68155273D01*
X148015788Y-68125576D01*
X147851816Y-68057656D01*
X147704246Y-67959053D01*
X147578747Y-67833554D01*
X147480144Y-67685984D01*
X147412224Y-67522012D01*
X147377600Y-67347941D01*
X147377600Y-67170459D01*
X147412224Y-66996388D01*
X147480144Y-66832416D01*
X147578747Y-66684846D01*
X147704246Y-66559347D01*
X147851816Y-66460744D01*
X148015788Y-66392824D01*
X148165088Y-66363127D01*
X148189858Y-66358200D01*
X148367342Y-66358200D01*
X148392112Y-66363127D01*
G37*
G36*
X173766712Y-66337727D02*
G01*
X173916012Y-66367424D01*
X174079984Y-66435344D01*
X174227554Y-66533947D01*
X174353053Y-66659446D01*
X174451656Y-66807016D01*
X174519576Y-66970988D01*
X174554200Y-67145059D01*
X174554200Y-67322541D01*
X174519576Y-67496612D01*
X174451656Y-67660584D01*
X174353053Y-67808154D01*
X174227554Y-67933653D01*
X174079984Y-68032256D01*
X173916012Y-68100176D01*
X173766712Y-68129873D01*
X173741942Y-68134800D01*
X173564458Y-68134800D01*
X173539688Y-68129873D01*
X173390388Y-68100176D01*
X173226416Y-68032256D01*
X173078846Y-67933653D01*
X172953347Y-67808154D01*
X172854744Y-67660584D01*
X172786824Y-67496612D01*
X172752200Y-67322541D01*
X172752200Y-67145059D01*
X172786824Y-66970988D01*
X172854744Y-66807016D01*
X172953347Y-66659446D01*
X173078846Y-66533947D01*
X173226416Y-66435344D01*
X173390388Y-66367424D01*
X173539688Y-66337727D01*
X173564458Y-66332800D01*
X173741942Y-66332800D01*
X173766712Y-66337727D01*
G37*
G36*
X145826712Y-66337727D02*
G01*
X145976012Y-66367424D01*
X146139984Y-66435344D01*
X146287554Y-66533947D01*
X146413053Y-66659446D01*
X146511656Y-66807016D01*
X146579576Y-66970988D01*
X146614200Y-67145059D01*
X146614200Y-67322541D01*
X146579576Y-67496612D01*
X146511656Y-67660584D01*
X146413053Y-67808154D01*
X146287554Y-67933653D01*
X146139984Y-68032256D01*
X145976012Y-68100176D01*
X145826712Y-68129873D01*
X145801942Y-68134800D01*
X145624458Y-68134800D01*
X145599688Y-68129873D01*
X145450388Y-68100176D01*
X145286416Y-68032256D01*
X145138846Y-67933653D01*
X145013347Y-67808154D01*
X144914744Y-67660584D01*
X144846824Y-67496612D01*
X144812200Y-67322541D01*
X144812200Y-67145059D01*
X144846824Y-66970988D01*
X144914744Y-66807016D01*
X145013347Y-66659446D01*
X145138846Y-66533947D01*
X145286416Y-66435344D01*
X145450388Y-66367424D01*
X145599688Y-66337727D01*
X145624458Y-66332800D01*
X145801942Y-66332800D01*
X145826712Y-66337727D01*
G37*
G36*
X198806000Y-68069400D02*
G01*
X197004000Y-68069400D01*
X197004000Y-66267400D01*
X198806000Y-66267400D01*
X198806000Y-68069400D01*
G37*
G36*
X192938512Y-66272327D02*
G01*
X193087812Y-66302024D01*
X193251784Y-66369944D01*
X193399354Y-66468547D01*
X193524853Y-66594046D01*
X193623456Y-66741616D01*
X193691376Y-66905588D01*
X193726000Y-67079659D01*
X193726000Y-67257141D01*
X193691376Y-67431212D01*
X193623456Y-67595184D01*
X193524853Y-67742754D01*
X193399354Y-67868253D01*
X193251784Y-67966856D01*
X193087812Y-68034776D01*
X192938512Y-68064473D01*
X192913742Y-68069400D01*
X192736258Y-68069400D01*
X192711488Y-68064473D01*
X192562188Y-68034776D01*
X192398216Y-67966856D01*
X192250646Y-67868253D01*
X192125147Y-67742754D01*
X192026544Y-67595184D01*
X191958624Y-67431212D01*
X191924000Y-67257141D01*
X191924000Y-67079659D01*
X191958624Y-66905588D01*
X192026544Y-66741616D01*
X192125147Y-66594046D01*
X192250646Y-66468547D01*
X192398216Y-66369944D01*
X192562188Y-66302024D01*
X192711488Y-66272327D01*
X192736258Y-66267400D01*
X192913742Y-66267400D01*
X192938512Y-66272327D01*
G37*
G36*
X190398512Y-66272327D02*
G01*
X190547812Y-66302024D01*
X190711784Y-66369944D01*
X190859354Y-66468547D01*
X190984853Y-66594046D01*
X191083456Y-66741616D01*
X191151376Y-66905588D01*
X191186000Y-67079659D01*
X191186000Y-67257141D01*
X191151376Y-67431212D01*
X191083456Y-67595184D01*
X190984853Y-67742754D01*
X190859354Y-67868253D01*
X190711784Y-67966856D01*
X190547812Y-68034776D01*
X190398512Y-68064473D01*
X190373742Y-68069400D01*
X190196258Y-68069400D01*
X190171488Y-68064473D01*
X190022188Y-68034776D01*
X189858216Y-67966856D01*
X189710646Y-67868253D01*
X189585147Y-67742754D01*
X189486544Y-67595184D01*
X189418624Y-67431212D01*
X189384000Y-67257141D01*
X189384000Y-67079659D01*
X189418624Y-66905588D01*
X189486544Y-66741616D01*
X189585147Y-66594046D01*
X189710646Y-66468547D01*
X189858216Y-66369944D01*
X190022188Y-66302024D01*
X190171488Y-66272327D01*
X190196258Y-66267400D01*
X190373742Y-66267400D01*
X190398512Y-66272327D01*
G37*
G36*
X195478512Y-66272327D02*
G01*
X195627812Y-66302024D01*
X195791784Y-66369944D01*
X195939354Y-66468547D01*
X196064853Y-66594046D01*
X196163456Y-66741616D01*
X196231376Y-66905588D01*
X196266000Y-67079659D01*
X196266000Y-67257141D01*
X196231376Y-67431212D01*
X196163456Y-67595184D01*
X196064853Y-67742754D01*
X195939354Y-67868253D01*
X195791784Y-67966856D01*
X195627812Y-68034776D01*
X195478512Y-68064473D01*
X195453742Y-68069400D01*
X195276258Y-68069400D01*
X195251488Y-68064473D01*
X195102188Y-68034776D01*
X194938216Y-67966856D01*
X194790646Y-67868253D01*
X194665147Y-67742754D01*
X194566544Y-67595184D01*
X194498624Y-67431212D01*
X194464000Y-67257141D01*
X194464000Y-67079659D01*
X194498624Y-66905588D01*
X194566544Y-66741616D01*
X194665147Y-66594046D01*
X194790646Y-66468547D01*
X194938216Y-66369944D01*
X195102188Y-66302024D01*
X195251488Y-66272327D01*
X195276258Y-66267400D01*
X195453742Y-66267400D01*
X195478512Y-66272327D01*
G37*
G36*
X178822928Y-66308823D02*
G01*
X178977800Y-66372973D01*
X179117181Y-66466105D01*
X179235715Y-66584639D01*
X179328847Y-66724020D01*
X179392997Y-66878892D01*
X179425700Y-67043304D01*
X179425700Y-67210936D01*
X179392997Y-67375348D01*
X179328847Y-67530220D01*
X179235715Y-67669601D01*
X179117181Y-67788135D01*
X178977800Y-67881267D01*
X178822928Y-67945417D01*
X178658516Y-67978120D01*
X178490884Y-67978120D01*
X178326472Y-67945417D01*
X178171600Y-67881267D01*
X178032219Y-67788135D01*
X177913685Y-67669601D01*
X177820553Y-67530220D01*
X177756403Y-67375348D01*
X177723700Y-67210936D01*
X177723700Y-67043304D01*
X177756403Y-66878892D01*
X177820553Y-66724020D01*
X177913685Y-66584639D01*
X178032219Y-66466105D01*
X178171600Y-66372973D01*
X178326472Y-66308823D01*
X178490884Y-66276120D01*
X178658516Y-66276120D01*
X178822928Y-66308823D01*
G37*
G36*
X171252112Y-63823127D02*
G01*
X171401412Y-63852824D01*
X171565384Y-63920744D01*
X171712954Y-64019347D01*
X171838453Y-64144846D01*
X171937056Y-64292416D01*
X172004976Y-64456388D01*
X172039600Y-64630459D01*
X172039600Y-64807941D01*
X172004976Y-64982012D01*
X171937056Y-65145984D01*
X171838453Y-65293554D01*
X171712954Y-65419053D01*
X171565384Y-65517656D01*
X171401412Y-65585576D01*
X171252112Y-65615273D01*
X171227342Y-65620200D01*
X171049858Y-65620200D01*
X171025088Y-65615273D01*
X170875788Y-65585576D01*
X170711816Y-65517656D01*
X170564246Y-65419053D01*
X170438747Y-65293554D01*
X170340144Y-65145984D01*
X170272224Y-64982012D01*
X170237600Y-64807941D01*
X170237600Y-64630459D01*
X170272224Y-64456388D01*
X170340144Y-64292416D01*
X170438747Y-64144846D01*
X170564246Y-64019347D01*
X170711816Y-63920744D01*
X170875788Y-63852824D01*
X171025088Y-63823127D01*
X171049858Y-63818200D01*
X171227342Y-63818200D01*
X171252112Y-63823127D01*
G37*
G36*
X148392112Y-63823127D02*
G01*
X148541412Y-63852824D01*
X148705384Y-63920744D01*
X148852954Y-64019347D01*
X148978453Y-64144846D01*
X149077056Y-64292416D01*
X149144976Y-64456388D01*
X149179600Y-64630459D01*
X149179600Y-64807941D01*
X149144976Y-64982012D01*
X149077056Y-65145984D01*
X148978453Y-65293554D01*
X148852954Y-65419053D01*
X148705384Y-65517656D01*
X148541412Y-65585576D01*
X148392112Y-65615273D01*
X148367342Y-65620200D01*
X148189858Y-65620200D01*
X148165088Y-65615273D01*
X148015788Y-65585576D01*
X147851816Y-65517656D01*
X147704246Y-65419053D01*
X147578747Y-65293554D01*
X147480144Y-65145984D01*
X147412224Y-64982012D01*
X147377600Y-64807941D01*
X147377600Y-64630459D01*
X147412224Y-64456388D01*
X147480144Y-64292416D01*
X147578747Y-64144846D01*
X147704246Y-64019347D01*
X147851816Y-63920744D01*
X148015788Y-63852824D01*
X148165088Y-63823127D01*
X148189858Y-63818200D01*
X148367342Y-63818200D01*
X148392112Y-63823127D01*
G37*
G36*
X145826712Y-63797727D02*
G01*
X145976012Y-63827424D01*
X146139984Y-63895344D01*
X146287554Y-63993947D01*
X146413053Y-64119446D01*
X146511656Y-64267016D01*
X146579576Y-64430988D01*
X146614200Y-64605059D01*
X146614200Y-64782541D01*
X146579576Y-64956612D01*
X146511656Y-65120584D01*
X146413053Y-65268154D01*
X146287554Y-65393653D01*
X146139984Y-65492256D01*
X145976012Y-65560176D01*
X145826712Y-65589873D01*
X145801942Y-65594800D01*
X145624458Y-65594800D01*
X145599688Y-65589873D01*
X145450388Y-65560176D01*
X145286416Y-65492256D01*
X145138846Y-65393653D01*
X145013347Y-65268154D01*
X144914744Y-65120584D01*
X144846824Y-64956612D01*
X144812200Y-64782541D01*
X144812200Y-64605059D01*
X144846824Y-64430988D01*
X144914744Y-64267016D01*
X145013347Y-64119446D01*
X145138846Y-63993947D01*
X145286416Y-63895344D01*
X145450388Y-63827424D01*
X145599688Y-63797727D01*
X145624458Y-63792800D01*
X145801942Y-63792800D01*
X145826712Y-63797727D01*
G37*
G36*
X173766712Y-63797727D02*
G01*
X173916012Y-63827424D01*
X174079984Y-63895344D01*
X174227554Y-63993947D01*
X174353053Y-64119446D01*
X174451656Y-64267016D01*
X174519576Y-64430988D01*
X174554200Y-64605059D01*
X174554200Y-64782541D01*
X174519576Y-64956612D01*
X174451656Y-65120584D01*
X174353053Y-65268154D01*
X174227554Y-65393653D01*
X174079984Y-65492256D01*
X173916012Y-65560176D01*
X173766712Y-65589873D01*
X173741942Y-65594800D01*
X173564458Y-65594800D01*
X173539688Y-65589873D01*
X173390388Y-65560176D01*
X173226416Y-65492256D01*
X173078846Y-65393653D01*
X172953347Y-65268154D01*
X172854744Y-65120584D01*
X172786824Y-64956612D01*
X172752200Y-64782541D01*
X172752200Y-64605059D01*
X172786824Y-64430988D01*
X172854744Y-64267016D01*
X172953347Y-64119446D01*
X173078846Y-63993947D01*
X173226416Y-63895344D01*
X173390388Y-63827424D01*
X173539688Y-63797727D01*
X173564458Y-63792800D01*
X173741942Y-63792800D01*
X173766712Y-63797727D01*
G37*
G36*
X178764508Y-61879063D02*
G01*
X178919380Y-61943213D01*
X179058761Y-62036345D01*
X179177295Y-62154879D01*
X179270427Y-62294260D01*
X179334577Y-62449132D01*
X179367280Y-62613544D01*
X179367280Y-62781176D01*
X179334577Y-62945588D01*
X179270427Y-63100460D01*
X179177295Y-63239841D01*
X179058761Y-63358375D01*
X178919380Y-63451507D01*
X178764508Y-63515657D01*
X178600096Y-63548360D01*
X178432464Y-63548360D01*
X178268052Y-63515657D01*
X178113180Y-63451507D01*
X177973799Y-63358375D01*
X177855265Y-63239841D01*
X177762133Y-63100460D01*
X177697983Y-62945588D01*
X177665280Y-62781176D01*
X177665280Y-62613544D01*
X177697983Y-62449132D01*
X177762133Y-62294260D01*
X177855265Y-62154879D01*
X177973799Y-62036345D01*
X178113180Y-61943213D01*
X178268052Y-61879063D01*
X178432464Y-61846360D01*
X178600096Y-61846360D01*
X178764508Y-61879063D01*
G37*
G36*
X183336508Y-61752063D02*
G01*
X183491380Y-61816213D01*
X183630761Y-61909345D01*
X183749295Y-62027879D01*
X183842427Y-62167260D01*
X183906577Y-62322132D01*
X183939280Y-62486544D01*
X183939280Y-62654176D01*
X183906577Y-62818588D01*
X183842427Y-62973460D01*
X183749295Y-63112841D01*
X183630761Y-63231375D01*
X183491380Y-63324507D01*
X183336508Y-63388657D01*
X183172096Y-63421360D01*
X183004464Y-63421360D01*
X182840052Y-63388657D01*
X182685180Y-63324507D01*
X182545799Y-63231375D01*
X182427265Y-63112841D01*
X182334133Y-62973460D01*
X182269983Y-62818588D01*
X182237280Y-62654176D01*
X182237280Y-62486544D01*
X182269983Y-62322132D01*
X182334133Y-62167260D01*
X182427265Y-62027879D01*
X182545799Y-61909345D01*
X182685180Y-61816213D01*
X182840052Y-61752063D01*
X183004464Y-61719360D01*
X183172096Y-61719360D01*
X183336508Y-61752063D01*
G37*
G36*
X171252112Y-61283127D02*
G01*
X171401412Y-61312824D01*
X171565384Y-61380744D01*
X171712954Y-61479347D01*
X171838453Y-61604846D01*
X171937056Y-61752416D01*
X172004976Y-61916388D01*
X172039600Y-62090459D01*
X172039600Y-62267941D01*
X172004976Y-62442012D01*
X171937056Y-62605984D01*
X171838453Y-62753554D01*
X171712954Y-62879053D01*
X171565384Y-62977656D01*
X171401412Y-63045576D01*
X171252112Y-63075273D01*
X171227342Y-63080200D01*
X171049858Y-63080200D01*
X171025088Y-63075273D01*
X170875788Y-63045576D01*
X170711816Y-62977656D01*
X170564246Y-62879053D01*
X170438747Y-62753554D01*
X170340144Y-62605984D01*
X170272224Y-62442012D01*
X170237600Y-62267941D01*
X170237600Y-62090459D01*
X170272224Y-61916388D01*
X170340144Y-61752416D01*
X170438747Y-61604846D01*
X170564246Y-61479347D01*
X170711816Y-61380744D01*
X170875788Y-61312824D01*
X171025088Y-61283127D01*
X171049858Y-61278200D01*
X171227342Y-61278200D01*
X171252112Y-61283127D01*
G37*
G36*
X148392112Y-61283127D02*
G01*
X148541412Y-61312824D01*
X148705384Y-61380744D01*
X148852954Y-61479347D01*
X148978453Y-61604846D01*
X149077056Y-61752416D01*
X149144976Y-61916388D01*
X149179600Y-62090459D01*
X149179600Y-62267941D01*
X149144976Y-62442012D01*
X149077056Y-62605984D01*
X148978453Y-62753554D01*
X148852954Y-62879053D01*
X148705384Y-62977656D01*
X148541412Y-63045576D01*
X148392112Y-63075273D01*
X148367342Y-63080200D01*
X148189858Y-63080200D01*
X148165088Y-63075273D01*
X148015788Y-63045576D01*
X147851816Y-62977656D01*
X147704246Y-62879053D01*
X147578747Y-62753554D01*
X147480144Y-62605984D01*
X147412224Y-62442012D01*
X147377600Y-62267941D01*
X147377600Y-62090459D01*
X147412224Y-61916388D01*
X147480144Y-61752416D01*
X147578747Y-61604846D01*
X147704246Y-61479347D01*
X147851816Y-61380744D01*
X148015788Y-61312824D01*
X148165088Y-61283127D01*
X148189858Y-61278200D01*
X148367342Y-61278200D01*
X148392112Y-61283127D01*
G37*
G36*
X145826712Y-61257727D02*
G01*
X145976012Y-61287424D01*
X146139984Y-61355344D01*
X146287554Y-61453947D01*
X146413053Y-61579446D01*
X146511656Y-61727016D01*
X146579576Y-61890988D01*
X146614200Y-62065059D01*
X146614200Y-62242541D01*
X146579576Y-62416612D01*
X146511656Y-62580584D01*
X146413053Y-62728154D01*
X146287554Y-62853653D01*
X146139984Y-62952256D01*
X145976012Y-63020176D01*
X145826712Y-63049873D01*
X145801942Y-63054800D01*
X145624458Y-63054800D01*
X145599688Y-63049873D01*
X145450388Y-63020176D01*
X145286416Y-62952256D01*
X145138846Y-62853653D01*
X145013347Y-62728154D01*
X144914744Y-62580584D01*
X144846824Y-62416612D01*
X144812200Y-62242541D01*
X144812200Y-62065059D01*
X144846824Y-61890988D01*
X144914744Y-61727016D01*
X145013347Y-61579446D01*
X145138846Y-61453947D01*
X145286416Y-61355344D01*
X145450388Y-61287424D01*
X145599688Y-61257727D01*
X145624458Y-61252800D01*
X145801942Y-61252800D01*
X145826712Y-61257727D01*
G37*
G36*
X173766712Y-61257727D02*
G01*
X173916012Y-61287424D01*
X174079984Y-61355344D01*
X174227554Y-61453947D01*
X174353053Y-61579446D01*
X174451656Y-61727016D01*
X174519576Y-61890988D01*
X174554200Y-62065059D01*
X174554200Y-62242541D01*
X174519576Y-62416612D01*
X174451656Y-62580584D01*
X174353053Y-62728154D01*
X174227554Y-62853653D01*
X174079984Y-62952256D01*
X173916012Y-63020176D01*
X173766712Y-63049873D01*
X173741942Y-63054800D01*
X173564458Y-63054800D01*
X173539688Y-63049873D01*
X173390388Y-63020176D01*
X173226416Y-62952256D01*
X173078846Y-62853653D01*
X172953347Y-62728154D01*
X172854744Y-62580584D01*
X172786824Y-62416612D01*
X172752200Y-62242541D01*
X172752200Y-62065059D01*
X172786824Y-61890988D01*
X172854744Y-61727016D01*
X172953347Y-61579446D01*
X173078846Y-61453947D01*
X173226416Y-61355344D01*
X173390388Y-61287424D01*
X173539688Y-61257727D01*
X173564458Y-61252800D01*
X173741942Y-61252800D01*
X173766712Y-61257727D01*
G37*
G36*
X148384515Y-58741616D02*
G01*
X148541412Y-58772824D01*
X148705384Y-58840744D01*
X148852954Y-58939347D01*
X148978453Y-59064846D01*
X149077056Y-59212416D01*
X149144976Y-59376388D01*
X149179600Y-59550459D01*
X149179600Y-59727941D01*
X149144976Y-59902012D01*
X149077056Y-60065984D01*
X148978453Y-60213554D01*
X148852954Y-60339053D01*
X148705384Y-60437656D01*
X148541412Y-60505576D01*
X148392112Y-60535273D01*
X148367342Y-60540200D01*
X148189858Y-60540200D01*
X148165088Y-60535273D01*
X148015788Y-60505576D01*
X147851816Y-60437656D01*
X147704246Y-60339053D01*
X147578747Y-60213554D01*
X147480144Y-60065984D01*
X147412224Y-59902012D01*
X147377600Y-59727941D01*
X147377600Y-59550459D01*
X147412224Y-59376388D01*
X147480144Y-59212416D01*
X147578747Y-59064846D01*
X147704246Y-58939347D01*
X147851816Y-58840744D01*
X148015788Y-58772824D01*
X148172685Y-58741616D01*
X148189858Y-58738200D01*
X148367342Y-58738200D01*
X148384515Y-58741616D01*
G37*
G36*
X171244515Y-58741616D02*
G01*
X171401412Y-58772824D01*
X171565384Y-58840744D01*
X171712954Y-58939347D01*
X171838453Y-59064846D01*
X171937056Y-59212416D01*
X172004976Y-59376388D01*
X172039600Y-59550459D01*
X172039600Y-59727941D01*
X172004976Y-59902012D01*
X171937056Y-60065984D01*
X171838453Y-60213554D01*
X171712954Y-60339053D01*
X171565384Y-60437656D01*
X171401412Y-60505576D01*
X171252112Y-60535273D01*
X171227342Y-60540200D01*
X171049858Y-60540200D01*
X171025088Y-60535273D01*
X170875788Y-60505576D01*
X170711816Y-60437656D01*
X170564246Y-60339053D01*
X170438747Y-60213554D01*
X170340144Y-60065984D01*
X170272224Y-59902012D01*
X170237600Y-59727941D01*
X170237600Y-59550459D01*
X170272224Y-59376388D01*
X170340144Y-59212416D01*
X170438747Y-59064846D01*
X170564246Y-58939347D01*
X170711816Y-58840744D01*
X170875788Y-58772824D01*
X171032685Y-58741616D01*
X171049858Y-58738200D01*
X171227342Y-58738200D01*
X171244515Y-58741616D01*
G37*
G36*
X145826712Y-58717727D02*
G01*
X145976012Y-58747424D01*
X146139984Y-58815344D01*
X146287554Y-58913947D01*
X146413053Y-59039446D01*
X146511656Y-59187016D01*
X146579576Y-59350988D01*
X146614200Y-59525059D01*
X146614200Y-59702541D01*
X146579576Y-59876612D01*
X146511656Y-60040584D01*
X146413053Y-60188154D01*
X146287554Y-60313653D01*
X146139984Y-60412256D01*
X145976012Y-60480176D01*
X145826712Y-60509873D01*
X145801942Y-60514800D01*
X145624458Y-60514800D01*
X145599688Y-60509873D01*
X145450388Y-60480176D01*
X145286416Y-60412256D01*
X145138846Y-60313653D01*
X145013347Y-60188154D01*
X144914744Y-60040584D01*
X144846824Y-59876612D01*
X144812200Y-59702541D01*
X144812200Y-59525059D01*
X144846824Y-59350988D01*
X144914744Y-59187016D01*
X145013347Y-59039446D01*
X145138846Y-58913947D01*
X145286416Y-58815344D01*
X145450388Y-58747424D01*
X145599688Y-58717727D01*
X145624458Y-58712800D01*
X145801942Y-58712800D01*
X145826712Y-58717727D01*
G37*
G36*
X173766712Y-58717727D02*
G01*
X173916012Y-58747424D01*
X174079984Y-58815344D01*
X174227554Y-58913947D01*
X174353053Y-59039446D01*
X174451656Y-59187016D01*
X174519576Y-59350988D01*
X174554200Y-59525059D01*
X174554200Y-59702541D01*
X174519576Y-59876612D01*
X174451656Y-60040584D01*
X174353053Y-60188154D01*
X174227554Y-60313653D01*
X174079984Y-60412256D01*
X173916012Y-60480176D01*
X173766712Y-60509873D01*
X173741942Y-60514800D01*
X173564458Y-60514800D01*
X173539688Y-60509873D01*
X173390388Y-60480176D01*
X173226416Y-60412256D01*
X173078846Y-60313653D01*
X172953347Y-60188154D01*
X172854744Y-60040584D01*
X172786824Y-59876612D01*
X172752200Y-59702541D01*
X172752200Y-59525059D01*
X172786824Y-59350988D01*
X172854744Y-59187016D01*
X172953347Y-59039446D01*
X173078846Y-58913947D01*
X173226416Y-58815344D01*
X173390388Y-58747424D01*
X173539688Y-58717727D01*
X173564458Y-58712800D01*
X173741942Y-58712800D01*
X173766712Y-58717727D01*
G37*
G36*
X190398512Y-58272327D02*
G01*
X190547812Y-58302024D01*
X190711784Y-58369944D01*
X190859354Y-58468547D01*
X190984853Y-58594046D01*
X191083456Y-58741616D01*
X191151376Y-58905588D01*
X191186000Y-59079659D01*
X191186000Y-59257141D01*
X191151376Y-59431212D01*
X191083456Y-59595184D01*
X190984853Y-59742754D01*
X190859354Y-59868253D01*
X190711784Y-59966856D01*
X190547812Y-60034776D01*
X190398512Y-60064473D01*
X190373742Y-60069400D01*
X190196258Y-60069400D01*
X190171488Y-60064473D01*
X190022188Y-60034776D01*
X189858216Y-59966856D01*
X189710646Y-59868253D01*
X189585147Y-59742754D01*
X189486544Y-59595184D01*
X189418624Y-59431212D01*
X189384000Y-59257141D01*
X189384000Y-59079659D01*
X189418624Y-58905588D01*
X189486544Y-58741616D01*
X189585147Y-58594046D01*
X189710646Y-58468547D01*
X189858216Y-58369944D01*
X190022188Y-58302024D01*
X190171488Y-58272327D01*
X190196258Y-58267400D01*
X190373742Y-58267400D01*
X190398512Y-58272327D01*
G37*
G36*
X195478512Y-58272327D02*
G01*
X195627812Y-58302024D01*
X195791784Y-58369944D01*
X195939354Y-58468547D01*
X196064853Y-58594046D01*
X196163456Y-58741616D01*
X196231376Y-58905588D01*
X196266000Y-59079659D01*
X196266000Y-59257141D01*
X196231376Y-59431212D01*
X196163456Y-59595184D01*
X196064853Y-59742754D01*
X195939354Y-59868253D01*
X195791784Y-59966856D01*
X195627812Y-60034776D01*
X195478512Y-60064473D01*
X195453742Y-60069400D01*
X195276258Y-60069400D01*
X195251488Y-60064473D01*
X195102188Y-60034776D01*
X194938216Y-59966856D01*
X194790646Y-59868253D01*
X194665147Y-59742754D01*
X194566544Y-59595184D01*
X194498624Y-59431212D01*
X194464000Y-59257141D01*
X194464000Y-59079659D01*
X194498624Y-58905588D01*
X194566544Y-58741616D01*
X194665147Y-58594046D01*
X194790646Y-58468547D01*
X194938216Y-58369944D01*
X195102188Y-58302024D01*
X195251488Y-58272327D01*
X195276258Y-58267400D01*
X195453742Y-58267400D01*
X195478512Y-58272327D01*
G37*
G36*
X198806000Y-60069400D02*
G01*
X197004000Y-60069400D01*
X197004000Y-58267400D01*
X198806000Y-58267400D01*
X198806000Y-60069400D01*
G37*
G36*
X192938512Y-58272327D02*
G01*
X193087812Y-58302024D01*
X193251784Y-58369944D01*
X193399354Y-58468547D01*
X193524853Y-58594046D01*
X193623456Y-58741616D01*
X193691376Y-58905588D01*
X193726000Y-59079659D01*
X193726000Y-59257141D01*
X193691376Y-59431212D01*
X193623456Y-59595184D01*
X193524853Y-59742754D01*
X193399354Y-59868253D01*
X193251784Y-59966856D01*
X193087812Y-60034776D01*
X192938512Y-60064473D01*
X192913742Y-60069400D01*
X192736258Y-60069400D01*
X192711488Y-60064473D01*
X192562188Y-60034776D01*
X192398216Y-59966856D01*
X192250646Y-59868253D01*
X192125147Y-59742754D01*
X192026544Y-59595184D01*
X191958624Y-59431212D01*
X191924000Y-59257141D01*
X191924000Y-59079659D01*
X191958624Y-58905588D01*
X192026544Y-58741616D01*
X192125147Y-58594046D01*
X192250646Y-58468547D01*
X192398216Y-58369944D01*
X192562188Y-58302024D01*
X192711488Y-58272327D01*
X192736258Y-58267400D01*
X192913742Y-58267400D01*
X192938512Y-58272327D01*
G37*
G36*
X148392112Y-56203127D02*
G01*
X148541412Y-56232824D01*
X148705384Y-56300744D01*
X148852954Y-56399347D01*
X148978453Y-56524846D01*
X149077056Y-56672416D01*
X149144976Y-56836388D01*
X149179600Y-57010459D01*
X149179600Y-57187941D01*
X149144976Y-57362012D01*
X149077056Y-57525984D01*
X148978453Y-57673554D01*
X148852954Y-57799053D01*
X148705384Y-57897656D01*
X148541412Y-57965576D01*
X148392112Y-57995273D01*
X148367342Y-58000200D01*
X148189858Y-58000200D01*
X148165088Y-57995273D01*
X148015788Y-57965576D01*
X147851816Y-57897656D01*
X147704246Y-57799053D01*
X147578747Y-57673554D01*
X147480144Y-57525984D01*
X147412224Y-57362012D01*
X147377600Y-57187941D01*
X147377600Y-57010459D01*
X147412224Y-56836388D01*
X147480144Y-56672416D01*
X147578747Y-56524846D01*
X147704246Y-56399347D01*
X147851816Y-56300744D01*
X148015788Y-56232824D01*
X148165088Y-56203127D01*
X148189858Y-56198200D01*
X148367342Y-56198200D01*
X148392112Y-56203127D01*
G37*
G36*
X171252112Y-56203127D02*
G01*
X171401412Y-56232824D01*
X171565384Y-56300744D01*
X171712954Y-56399347D01*
X171838453Y-56524846D01*
X171937056Y-56672416D01*
X172004976Y-56836388D01*
X172039600Y-57010459D01*
X172039600Y-57187941D01*
X172004976Y-57362012D01*
X171937056Y-57525984D01*
X171838453Y-57673554D01*
X171712954Y-57799053D01*
X171565384Y-57897656D01*
X171401412Y-57965576D01*
X171252112Y-57995273D01*
X171227342Y-58000200D01*
X171049858Y-58000200D01*
X171025088Y-57995273D01*
X170875788Y-57965576D01*
X170711816Y-57897656D01*
X170564246Y-57799053D01*
X170438747Y-57673554D01*
X170340144Y-57525984D01*
X170272224Y-57362012D01*
X170237600Y-57187941D01*
X170237600Y-57010459D01*
X170272224Y-56836388D01*
X170340144Y-56672416D01*
X170438747Y-56524846D01*
X170564246Y-56399347D01*
X170711816Y-56300744D01*
X170875788Y-56232824D01*
X171025088Y-56203127D01*
X171049858Y-56198200D01*
X171227342Y-56198200D01*
X171252112Y-56203127D01*
G37*
G36*
X145826712Y-56177727D02*
G01*
X145976012Y-56207424D01*
X146139984Y-56275344D01*
X146287554Y-56373947D01*
X146413053Y-56499446D01*
X146511656Y-56647016D01*
X146579576Y-56810988D01*
X146614200Y-56985059D01*
X146614200Y-57162541D01*
X146579576Y-57336612D01*
X146511656Y-57500584D01*
X146413053Y-57648154D01*
X146287554Y-57773653D01*
X146139984Y-57872256D01*
X145976012Y-57940176D01*
X145826712Y-57969873D01*
X145801942Y-57974800D01*
X145624458Y-57974800D01*
X145599688Y-57969873D01*
X145450388Y-57940176D01*
X145286416Y-57872256D01*
X145138846Y-57773653D01*
X145013347Y-57648154D01*
X144914744Y-57500584D01*
X144846824Y-57336612D01*
X144812200Y-57162541D01*
X144812200Y-56985059D01*
X144846824Y-56810988D01*
X144914744Y-56647016D01*
X145013347Y-56499446D01*
X145138846Y-56373947D01*
X145286416Y-56275344D01*
X145450388Y-56207424D01*
X145599688Y-56177727D01*
X145624458Y-56172800D01*
X145801942Y-56172800D01*
X145826712Y-56177727D01*
G37*
G36*
X173766712Y-56177727D02*
G01*
X173916012Y-56207424D01*
X174079984Y-56275344D01*
X174227554Y-56373947D01*
X174353053Y-56499446D01*
X174451656Y-56647016D01*
X174519576Y-56810988D01*
X174554200Y-56985059D01*
X174554200Y-57162541D01*
X174519576Y-57336612D01*
X174451656Y-57500584D01*
X174353053Y-57648154D01*
X174227554Y-57773653D01*
X174079984Y-57872256D01*
X173916012Y-57940176D01*
X173766712Y-57969873D01*
X173741942Y-57974800D01*
X173564458Y-57974800D01*
X173539688Y-57969873D01*
X173390388Y-57940176D01*
X173226416Y-57872256D01*
X173078846Y-57773653D01*
X172953347Y-57648154D01*
X172854744Y-57500584D01*
X172786824Y-57336612D01*
X172752200Y-57162541D01*
X172752200Y-56985059D01*
X172786824Y-56810988D01*
X172854744Y-56647016D01*
X172953347Y-56499446D01*
X173078846Y-56373947D01*
X173226416Y-56275344D01*
X173390388Y-56207424D01*
X173539688Y-56177727D01*
X173564458Y-56172800D01*
X173741942Y-56172800D01*
X173766712Y-56177727D01*
G37*
G36*
X148392112Y-53663127D02*
G01*
X148541412Y-53692824D01*
X148705384Y-53760744D01*
X148852954Y-53859347D01*
X148978453Y-53984846D01*
X149077056Y-54132416D01*
X149144976Y-54296388D01*
X149179600Y-54470459D01*
X149179600Y-54647941D01*
X149144976Y-54822012D01*
X149077056Y-54985984D01*
X148978453Y-55133554D01*
X148852954Y-55259053D01*
X148705384Y-55357656D01*
X148541412Y-55425576D01*
X148392112Y-55455273D01*
X148367342Y-55460200D01*
X148189858Y-55460200D01*
X148165088Y-55455273D01*
X148015788Y-55425576D01*
X147851816Y-55357656D01*
X147704246Y-55259053D01*
X147578747Y-55133554D01*
X147480144Y-54985984D01*
X147412224Y-54822012D01*
X147377600Y-54647941D01*
X147377600Y-54470459D01*
X147412224Y-54296388D01*
X147480144Y-54132416D01*
X147578747Y-53984846D01*
X147704246Y-53859347D01*
X147851816Y-53760744D01*
X148015788Y-53692824D01*
X148165088Y-53663127D01*
X148189858Y-53658200D01*
X148367342Y-53658200D01*
X148392112Y-53663127D01*
G37*
G36*
X171252112Y-53663127D02*
G01*
X171401412Y-53692824D01*
X171565384Y-53760744D01*
X171712954Y-53859347D01*
X171838453Y-53984846D01*
X171937056Y-54132416D01*
X172004976Y-54296388D01*
X172039600Y-54470459D01*
X172039600Y-54647941D01*
X172004976Y-54822012D01*
X171937056Y-54985984D01*
X171838453Y-55133554D01*
X171712954Y-55259053D01*
X171565384Y-55357656D01*
X171401412Y-55425576D01*
X171252112Y-55455273D01*
X171227342Y-55460200D01*
X171049858Y-55460200D01*
X171025088Y-55455273D01*
X170875788Y-55425576D01*
X170711816Y-55357656D01*
X170564246Y-55259053D01*
X170438747Y-55133554D01*
X170340144Y-54985984D01*
X170272224Y-54822012D01*
X170237600Y-54647941D01*
X170237600Y-54470459D01*
X170272224Y-54296388D01*
X170340144Y-54132416D01*
X170438747Y-53984846D01*
X170564246Y-53859347D01*
X170711816Y-53760744D01*
X170875788Y-53692824D01*
X171025088Y-53663127D01*
X171049858Y-53658200D01*
X171227342Y-53658200D01*
X171252112Y-53663127D01*
G37*
G36*
X145826712Y-53637727D02*
G01*
X145976012Y-53667424D01*
X146139984Y-53735344D01*
X146287554Y-53833947D01*
X146413053Y-53959446D01*
X146511656Y-54107016D01*
X146579576Y-54270988D01*
X146614200Y-54445059D01*
X146614200Y-54622541D01*
X146579576Y-54796612D01*
X146511656Y-54960584D01*
X146413053Y-55108154D01*
X146287554Y-55233653D01*
X146139984Y-55332256D01*
X145976012Y-55400176D01*
X145826712Y-55429873D01*
X145801942Y-55434800D01*
X145624458Y-55434800D01*
X145599688Y-55429873D01*
X145450388Y-55400176D01*
X145286416Y-55332256D01*
X145138846Y-55233653D01*
X145013347Y-55108154D01*
X144914744Y-54960584D01*
X144846824Y-54796612D01*
X144812200Y-54622541D01*
X144812200Y-54445059D01*
X144846824Y-54270988D01*
X144914744Y-54107016D01*
X145013347Y-53959446D01*
X145138846Y-53833947D01*
X145286416Y-53735344D01*
X145450388Y-53667424D01*
X145599688Y-53637727D01*
X145624458Y-53632800D01*
X145801942Y-53632800D01*
X145826712Y-53637727D01*
G37*
G36*
X173766712Y-53637727D02*
G01*
X173916012Y-53667424D01*
X174079984Y-53735344D01*
X174227554Y-53833947D01*
X174353053Y-53959446D01*
X174451656Y-54107016D01*
X174519576Y-54270988D01*
X174554200Y-54445059D01*
X174554200Y-54622541D01*
X174519576Y-54796612D01*
X174451656Y-54960584D01*
X174353053Y-55108154D01*
X174227554Y-55233653D01*
X174079984Y-55332256D01*
X173916012Y-55400176D01*
X173766712Y-55429873D01*
X173741942Y-55434800D01*
X173564458Y-55434800D01*
X173539688Y-55429873D01*
X173390388Y-55400176D01*
X173226416Y-55332256D01*
X173078846Y-55233653D01*
X172953347Y-55108154D01*
X172854744Y-54960584D01*
X172786824Y-54796612D01*
X172752200Y-54622541D01*
X172752200Y-54445059D01*
X172786824Y-54270988D01*
X172854744Y-54107016D01*
X172953347Y-53959446D01*
X173078846Y-53833947D01*
X173226416Y-53735344D01*
X173390388Y-53667424D01*
X173539688Y-53637727D01*
X173564458Y-53632800D01*
X173741942Y-53632800D01*
X173766712Y-53637727D01*
G37*
G36*
X190398512Y-52272327D02*
G01*
X190547812Y-52302024D01*
X190711784Y-52369944D01*
X190859354Y-52468547D01*
X190984853Y-52594046D01*
X191083456Y-52741616D01*
X191151376Y-52905588D01*
X191186000Y-53079659D01*
X191186000Y-53257141D01*
X191151376Y-53431212D01*
X191083456Y-53595184D01*
X190984853Y-53742754D01*
X190859354Y-53868253D01*
X190711784Y-53966856D01*
X190547812Y-54034776D01*
X190398512Y-54064473D01*
X190373742Y-54069400D01*
X190196258Y-54069400D01*
X190171488Y-54064473D01*
X190022188Y-54034776D01*
X189858216Y-53966856D01*
X189710646Y-53868253D01*
X189585147Y-53742754D01*
X189486544Y-53595184D01*
X189418624Y-53431212D01*
X189384000Y-53257141D01*
X189384000Y-53079659D01*
X189418624Y-52905588D01*
X189486544Y-52741616D01*
X189585147Y-52594046D01*
X189710646Y-52468547D01*
X189858216Y-52369944D01*
X190022188Y-52302024D01*
X190171488Y-52272327D01*
X190196258Y-52267400D01*
X190373742Y-52267400D01*
X190398512Y-52272327D01*
G37*
G36*
X198806000Y-54069400D02*
G01*
X197004000Y-54069400D01*
X197004000Y-52267400D01*
X198806000Y-52267400D01*
X198806000Y-54069400D01*
G37*
G36*
X195478512Y-52272327D02*
G01*
X195627812Y-52302024D01*
X195791784Y-52369944D01*
X195939354Y-52468547D01*
X196064853Y-52594046D01*
X196163456Y-52741616D01*
X196231376Y-52905588D01*
X196266000Y-53079659D01*
X196266000Y-53257141D01*
X196231376Y-53431212D01*
X196163456Y-53595184D01*
X196064853Y-53742754D01*
X195939354Y-53868253D01*
X195791784Y-53966856D01*
X195627812Y-54034776D01*
X195478512Y-54064473D01*
X195453742Y-54069400D01*
X195276258Y-54069400D01*
X195251488Y-54064473D01*
X195102188Y-54034776D01*
X194938216Y-53966856D01*
X194790646Y-53868253D01*
X194665147Y-53742754D01*
X194566544Y-53595184D01*
X194498624Y-53431212D01*
X194464000Y-53257141D01*
X194464000Y-53079659D01*
X194498624Y-52905588D01*
X194566544Y-52741616D01*
X194665147Y-52594046D01*
X194790646Y-52468547D01*
X194938216Y-52369944D01*
X195102188Y-52302024D01*
X195251488Y-52272327D01*
X195276258Y-52267400D01*
X195453742Y-52267400D01*
X195478512Y-52272327D01*
G37*
G36*
X192938512Y-52272327D02*
G01*
X193087812Y-52302024D01*
X193251784Y-52369944D01*
X193399354Y-52468547D01*
X193524853Y-52594046D01*
X193623456Y-52741616D01*
X193691376Y-52905588D01*
X193726000Y-53079659D01*
X193726000Y-53257141D01*
X193691376Y-53431212D01*
X193623456Y-53595184D01*
X193524853Y-53742754D01*
X193399354Y-53868253D01*
X193251784Y-53966856D01*
X193087812Y-54034776D01*
X192938512Y-54064473D01*
X192913742Y-54069400D01*
X192736258Y-54069400D01*
X192711488Y-54064473D01*
X192562188Y-54034776D01*
X192398216Y-53966856D01*
X192250646Y-53868253D01*
X192125147Y-53742754D01*
X192026544Y-53595184D01*
X191958624Y-53431212D01*
X191924000Y-53257141D01*
X191924000Y-53079659D01*
X191958624Y-52905588D01*
X192026544Y-52741616D01*
X192125147Y-52594046D01*
X192250646Y-52468547D01*
X192398216Y-52369944D01*
X192562188Y-52302024D01*
X192711488Y-52272327D01*
X192736258Y-52267400D01*
X192913742Y-52267400D01*
X192938512Y-52272327D01*
G37*
G36*
X178764508Y-51719063D02*
G01*
X178919380Y-51783213D01*
X179058761Y-51876345D01*
X179177295Y-51994879D01*
X179270427Y-52134260D01*
X179334577Y-52289132D01*
X179367280Y-52453544D01*
X179367280Y-52621176D01*
X179334577Y-52785588D01*
X179270427Y-52940460D01*
X179177295Y-53079841D01*
X179058761Y-53198375D01*
X178919380Y-53291507D01*
X178764508Y-53355657D01*
X178600096Y-53388360D01*
X178432464Y-53388360D01*
X178268052Y-53355657D01*
X178113180Y-53291507D01*
X177973799Y-53198375D01*
X177855265Y-53079841D01*
X177762133Y-52940460D01*
X177697983Y-52785588D01*
X177665280Y-52621176D01*
X177665280Y-52453544D01*
X177697983Y-52289132D01*
X177762133Y-52134260D01*
X177855265Y-51994879D01*
X177973799Y-51876345D01*
X178113180Y-51783213D01*
X178268052Y-51719063D01*
X178432464Y-51686360D01*
X178600096Y-51686360D01*
X178764508Y-51719063D01*
G37*
G36*
X183336508Y-51592063D02*
G01*
X183491380Y-51656213D01*
X183630761Y-51749345D01*
X183749295Y-51867879D01*
X183842427Y-52007260D01*
X183906577Y-52162132D01*
X183939280Y-52326544D01*
X183939280Y-52494176D01*
X183906577Y-52658588D01*
X183842427Y-52813460D01*
X183749295Y-52952841D01*
X183630761Y-53071375D01*
X183491380Y-53164507D01*
X183336508Y-53228657D01*
X183172096Y-53261360D01*
X183004464Y-53261360D01*
X182840052Y-53228657D01*
X182685180Y-53164507D01*
X182545799Y-53071375D01*
X182427265Y-52952841D01*
X182334133Y-52813460D01*
X182269983Y-52658588D01*
X182237280Y-52494176D01*
X182237280Y-52326544D01*
X182269983Y-52162132D01*
X182334133Y-52007260D01*
X182427265Y-51867879D01*
X182545799Y-51749345D01*
X182685180Y-51656213D01*
X182840052Y-51592063D01*
X183004464Y-51559360D01*
X183172096Y-51559360D01*
X183336508Y-51592063D01*
G37*
G36*
X171252112Y-51123127D02*
G01*
X171401412Y-51152824D01*
X171565384Y-51220744D01*
X171712954Y-51319347D01*
X171838453Y-51444846D01*
X171937056Y-51592416D01*
X172004976Y-51756388D01*
X172039600Y-51930459D01*
X172039600Y-52107941D01*
X172004976Y-52282012D01*
X171937056Y-52445984D01*
X171838453Y-52593554D01*
X171712954Y-52719053D01*
X171565384Y-52817656D01*
X171401412Y-52885576D01*
X171252112Y-52915273D01*
X171227342Y-52920200D01*
X171049858Y-52920200D01*
X171025088Y-52915273D01*
X170875788Y-52885576D01*
X170711816Y-52817656D01*
X170564246Y-52719053D01*
X170438747Y-52593554D01*
X170340144Y-52445984D01*
X170272224Y-52282012D01*
X170237600Y-52107941D01*
X170237600Y-51930459D01*
X170272224Y-51756388D01*
X170340144Y-51592416D01*
X170438747Y-51444846D01*
X170564246Y-51319347D01*
X170711816Y-51220744D01*
X170875788Y-51152824D01*
X171025088Y-51123127D01*
X171049858Y-51118200D01*
X171227342Y-51118200D01*
X171252112Y-51123127D01*
G37*
G36*
X148392112Y-51123127D02*
G01*
X148541412Y-51152824D01*
X148705384Y-51220744D01*
X148852954Y-51319347D01*
X148978453Y-51444846D01*
X149077056Y-51592416D01*
X149144976Y-51756388D01*
X149179600Y-51930459D01*
X149179600Y-52107941D01*
X149144976Y-52282012D01*
X149077056Y-52445984D01*
X148978453Y-52593554D01*
X148852954Y-52719053D01*
X148705384Y-52817656D01*
X148541412Y-52885576D01*
X148392112Y-52915273D01*
X148367342Y-52920200D01*
X148189858Y-52920200D01*
X148165088Y-52915273D01*
X148015788Y-52885576D01*
X147851816Y-52817656D01*
X147704246Y-52719053D01*
X147578747Y-52593554D01*
X147480144Y-52445984D01*
X147412224Y-52282012D01*
X147377600Y-52107941D01*
X147377600Y-51930459D01*
X147412224Y-51756388D01*
X147480144Y-51592416D01*
X147578747Y-51444846D01*
X147704246Y-51319347D01*
X147851816Y-51220744D01*
X148015788Y-51152824D01*
X148165088Y-51123127D01*
X148189858Y-51118200D01*
X148367342Y-51118200D01*
X148392112Y-51123127D01*
G37*
G36*
X145826712Y-51097727D02*
G01*
X145976012Y-51127424D01*
X146139984Y-51195344D01*
X146287554Y-51293947D01*
X146413053Y-51419446D01*
X146511656Y-51567016D01*
X146579576Y-51730988D01*
X146614200Y-51905059D01*
X146614200Y-52082541D01*
X146579576Y-52256612D01*
X146511656Y-52420584D01*
X146413053Y-52568154D01*
X146287554Y-52693653D01*
X146139984Y-52792256D01*
X145976012Y-52860176D01*
X145826712Y-52889873D01*
X145801942Y-52894800D01*
X145624458Y-52894800D01*
X145599688Y-52889873D01*
X145450388Y-52860176D01*
X145286416Y-52792256D01*
X145138846Y-52693653D01*
X145013347Y-52568154D01*
X144914744Y-52420584D01*
X144846824Y-52256612D01*
X144812200Y-52082541D01*
X144812200Y-51905059D01*
X144846824Y-51730988D01*
X144914744Y-51567016D01*
X145013347Y-51419446D01*
X145138846Y-51293947D01*
X145286416Y-51195344D01*
X145450388Y-51127424D01*
X145599688Y-51097727D01*
X145624458Y-51092800D01*
X145801942Y-51092800D01*
X145826712Y-51097727D01*
G37*
G36*
X173766712Y-51097727D02*
G01*
X173916012Y-51127424D01*
X174079984Y-51195344D01*
X174227554Y-51293947D01*
X174353053Y-51419446D01*
X174451656Y-51567016D01*
X174519576Y-51730988D01*
X174554200Y-51905059D01*
X174554200Y-52082541D01*
X174519576Y-52256612D01*
X174451656Y-52420584D01*
X174353053Y-52568154D01*
X174227554Y-52693653D01*
X174079984Y-52792256D01*
X173916012Y-52860176D01*
X173766712Y-52889873D01*
X173741942Y-52894800D01*
X173564458Y-52894800D01*
X173539688Y-52889873D01*
X173390388Y-52860176D01*
X173226416Y-52792256D01*
X173078846Y-52693653D01*
X172953347Y-52568154D01*
X172854744Y-52420584D01*
X172786824Y-52256612D01*
X172752200Y-52082541D01*
X172752200Y-51905059D01*
X172786824Y-51730988D01*
X172854744Y-51567016D01*
X172953347Y-51419446D01*
X173078846Y-51293947D01*
X173226416Y-51195344D01*
X173390388Y-51127424D01*
X173539688Y-51097727D01*
X173564458Y-51092800D01*
X173741942Y-51092800D01*
X173766712Y-51097727D01*
G37*
G36*
X204989248Y-48925063D02*
G01*
X205144120Y-48989213D01*
X205283501Y-49082345D01*
X205402035Y-49200879D01*
X205495167Y-49340260D01*
X205559317Y-49495132D01*
X205592020Y-49659544D01*
X205592020Y-49827176D01*
X205559317Y-49991588D01*
X205495167Y-50146460D01*
X205402035Y-50285841D01*
X205283501Y-50404375D01*
X205144120Y-50497507D01*
X204989248Y-50561657D01*
X204824836Y-50594360D01*
X204657204Y-50594360D01*
X204492792Y-50561657D01*
X204337920Y-50497507D01*
X204198539Y-50404375D01*
X204080005Y-50285841D01*
X203986873Y-50146460D01*
X203922723Y-49991588D01*
X203890020Y-49827176D01*
X203890020Y-49659544D01*
X203922723Y-49495132D01*
X203986873Y-49340260D01*
X204080005Y-49200879D01*
X204198539Y-49082345D01*
X204337920Y-48989213D01*
X204492792Y-48925063D01*
X204657204Y-48892360D01*
X204824836Y-48892360D01*
X204989248Y-48925063D01*
G37*
G36*
X199925248Y-48925063D02*
G01*
X200080120Y-48989213D01*
X200219501Y-49082345D01*
X200338035Y-49200879D01*
X200431167Y-49340260D01*
X200495317Y-49495132D01*
X200528020Y-49659544D01*
X200528020Y-49827176D01*
X200495317Y-49991588D01*
X200431167Y-50146460D01*
X200338035Y-50285841D01*
X200219501Y-50404375D01*
X200080120Y-50497507D01*
X199925248Y-50561657D01*
X199760836Y-50594360D01*
X199593204Y-50594360D01*
X199428792Y-50561657D01*
X199273920Y-50497507D01*
X199134539Y-50404375D01*
X199016005Y-50285841D01*
X198922873Y-50146460D01*
X198858723Y-49991588D01*
X198826020Y-49827176D01*
X198826020Y-49659544D01*
X198858723Y-49495132D01*
X198922873Y-49340260D01*
X199016005Y-49200879D01*
X199134539Y-49082345D01*
X199273920Y-48989213D01*
X199428792Y-48925063D01*
X199593204Y-48892360D01*
X199760836Y-48892360D01*
X199925248Y-48925063D01*
G37*
G36*
X148392112Y-48583127D02*
G01*
X148541412Y-48612824D01*
X148705384Y-48680744D01*
X148852954Y-48779347D01*
X148978453Y-48904846D01*
X149077056Y-49052416D01*
X149144976Y-49216388D01*
X149179600Y-49390459D01*
X149179600Y-49567941D01*
X149144976Y-49742012D01*
X149077056Y-49905984D01*
X148978453Y-50053554D01*
X148852954Y-50179053D01*
X148705384Y-50277656D01*
X148541412Y-50345576D01*
X148394489Y-50374800D01*
X148367342Y-50380200D01*
X148189858Y-50380200D01*
X148162711Y-50374800D01*
X148015788Y-50345576D01*
X147851816Y-50277656D01*
X147704246Y-50179053D01*
X147578747Y-50053554D01*
X147480144Y-49905984D01*
X147412224Y-49742012D01*
X147377600Y-49567941D01*
X147377600Y-49390459D01*
X147412224Y-49216388D01*
X147480144Y-49052416D01*
X147578747Y-48904846D01*
X147704246Y-48779347D01*
X147851816Y-48680744D01*
X148015788Y-48612824D01*
X148165088Y-48583127D01*
X148189858Y-48578200D01*
X148367342Y-48578200D01*
X148392112Y-48583127D01*
G37*
G36*
X171252112Y-48583127D02*
G01*
X171401412Y-48612824D01*
X171565384Y-48680744D01*
X171712954Y-48779347D01*
X171838453Y-48904846D01*
X171937056Y-49052416D01*
X172004976Y-49216388D01*
X172039600Y-49390459D01*
X172039600Y-49567941D01*
X172004976Y-49742012D01*
X171937056Y-49905984D01*
X171838453Y-50053554D01*
X171712954Y-50179053D01*
X171565384Y-50277656D01*
X171401412Y-50345576D01*
X171254489Y-50374800D01*
X171227342Y-50380200D01*
X171049858Y-50380200D01*
X171022711Y-50374800D01*
X170875788Y-50345576D01*
X170711816Y-50277656D01*
X170564246Y-50179053D01*
X170438747Y-50053554D01*
X170340144Y-49905984D01*
X170272224Y-49742012D01*
X170237600Y-49567941D01*
X170237600Y-49390459D01*
X170272224Y-49216388D01*
X170340144Y-49052416D01*
X170438747Y-48904846D01*
X170564246Y-48779347D01*
X170711816Y-48680744D01*
X170875788Y-48612824D01*
X171025088Y-48583127D01*
X171049858Y-48578200D01*
X171227342Y-48578200D01*
X171252112Y-48583127D01*
G37*
G36*
X173921845Y-48568193D02*
G01*
X174089455Y-48637620D01*
X174089457Y-48637621D01*
X174240303Y-48738413D01*
X174368587Y-48866697D01*
X174469379Y-49017543D01*
X174469380Y-49017545D01*
X174538807Y-49185155D01*
X174574200Y-49363088D01*
X174574200Y-49544512D01*
X174538807Y-49722445D01*
X174473304Y-49880582D01*
X174469379Y-49890057D01*
X174368587Y-50040903D01*
X174240303Y-50169187D01*
X174089457Y-50269979D01*
X174089456Y-50269980D01*
X174089455Y-50269980D01*
X173921845Y-50339407D01*
X173743912Y-50374800D01*
X173562488Y-50374800D01*
X173384555Y-50339407D01*
X173216945Y-50269980D01*
X173216944Y-50269980D01*
X173216943Y-50269979D01*
X173066097Y-50169187D01*
X172937813Y-50040903D01*
X172837021Y-49890057D01*
X172833096Y-49880582D01*
X172767593Y-49722445D01*
X172732200Y-49544512D01*
X172732200Y-49363088D01*
X172767593Y-49185155D01*
X172837020Y-49017545D01*
X172837021Y-49017543D01*
X172937813Y-48866697D01*
X173066097Y-48738413D01*
X173216943Y-48637621D01*
X173216945Y-48637620D01*
X173384555Y-48568193D01*
X173562488Y-48532800D01*
X173743912Y-48532800D01*
X173921845Y-48568193D01*
G37*
G36*
X145826712Y-48557727D02*
G01*
X145976012Y-48587424D01*
X146139984Y-48655344D01*
X146287554Y-48753947D01*
X146413053Y-48879446D01*
X146511656Y-49027016D01*
X146579576Y-49190988D01*
X146614200Y-49365059D01*
X146614200Y-49542541D01*
X146579576Y-49716612D01*
X146511656Y-49880584D01*
X146413053Y-50028154D01*
X146287554Y-50153653D01*
X146139984Y-50252256D01*
X145976012Y-50320176D01*
X145826712Y-50349873D01*
X145801942Y-50354800D01*
X145624458Y-50354800D01*
X145599688Y-50349873D01*
X145450388Y-50320176D01*
X145286416Y-50252256D01*
X145138846Y-50153653D01*
X145013347Y-50028154D01*
X144914744Y-49880584D01*
X144846824Y-49716612D01*
X144812200Y-49542541D01*
X144812200Y-49365059D01*
X144846824Y-49190988D01*
X144914744Y-49027016D01*
X145013347Y-48879446D01*
X145138846Y-48753947D01*
X145286416Y-48655344D01*
X145450388Y-48587424D01*
X145599688Y-48557727D01*
X145624458Y-48552800D01*
X145801942Y-48552800D01*
X145826712Y-48557727D01*
G37*
G36*
X178795880Y-48973940D02*
G01*
X177017480Y-48973940D01*
X177017480Y-47195540D01*
X178795880Y-47195540D01*
X178795880Y-48973940D01*
G37*
G36*
X185786049Y-47229711D02*
G01*
X185947875Y-47296742D01*
X186093509Y-47394051D01*
X186217369Y-47517911D01*
X186314678Y-47663545D01*
X186381709Y-47825371D01*
X186415880Y-47997160D01*
X186415880Y-48172320D01*
X186381709Y-48344109D01*
X186314678Y-48505935D01*
X186217369Y-48651569D01*
X186093509Y-48775429D01*
X185947875Y-48872738D01*
X185786049Y-48939769D01*
X185614260Y-48973940D01*
X185439100Y-48973940D01*
X185267311Y-48939769D01*
X185105485Y-48872738D01*
X184959851Y-48775429D01*
X184835991Y-48651569D01*
X184738682Y-48505935D01*
X184671651Y-48344109D01*
X184637480Y-48172320D01*
X184637480Y-47997160D01*
X184671651Y-47825371D01*
X184738682Y-47663545D01*
X184835991Y-47517911D01*
X184959851Y-47394051D01*
X185105485Y-47296742D01*
X185267311Y-47229711D01*
X185439100Y-47195540D01*
X185614260Y-47195540D01*
X185786049Y-47229711D01*
G37*
G36*
X183246049Y-47229711D02*
G01*
X183407875Y-47296742D01*
X183553509Y-47394051D01*
X183677369Y-47517911D01*
X183774678Y-47663545D01*
X183841709Y-47825371D01*
X183875880Y-47997160D01*
X183875880Y-48172320D01*
X183841709Y-48344109D01*
X183774678Y-48505935D01*
X183677369Y-48651569D01*
X183553509Y-48775429D01*
X183407875Y-48872738D01*
X183246049Y-48939769D01*
X183074260Y-48973940D01*
X182899100Y-48973940D01*
X182727311Y-48939769D01*
X182565485Y-48872738D01*
X182419851Y-48775429D01*
X182295991Y-48651569D01*
X182198682Y-48505935D01*
X182131651Y-48344109D01*
X182097480Y-48172320D01*
X182097480Y-47997160D01*
X182131651Y-47825371D01*
X182198682Y-47663545D01*
X182295991Y-47517911D01*
X182419851Y-47394051D01*
X182565485Y-47296742D01*
X182727311Y-47229711D01*
X182899100Y-47195540D01*
X183074260Y-47195540D01*
X183246049Y-47229711D01*
G37*
G36*
X180706049Y-47229711D02*
G01*
X180867875Y-47296742D01*
X181013509Y-47394051D01*
X181137369Y-47517911D01*
X181234678Y-47663545D01*
X181301709Y-47825371D01*
X181335880Y-47997160D01*
X181335880Y-48172320D01*
X181301709Y-48344109D01*
X181234678Y-48505935D01*
X181137369Y-48651569D01*
X181013509Y-48775429D01*
X180867875Y-48872738D01*
X180706049Y-48939769D01*
X180534260Y-48973940D01*
X180359100Y-48973940D01*
X180187311Y-48939769D01*
X180025485Y-48872738D01*
X179879851Y-48775429D01*
X179755991Y-48651569D01*
X179658682Y-48505935D01*
X179591651Y-48344109D01*
X179557480Y-48172320D01*
X179557480Y-47997160D01*
X179591651Y-47825371D01*
X179658682Y-47663545D01*
X179755991Y-47517911D01*
X179879851Y-47394051D01*
X180025485Y-47296742D01*
X180187311Y-47229711D01*
X180359100Y-47195540D01*
X180534260Y-47195540D01*
X180706049Y-47229711D01*
G37*
G36*
X189051508Y-46048843D02*
G01*
X189206380Y-46112993D01*
X189345761Y-46206125D01*
X189464295Y-46324659D01*
X189557427Y-46464040D01*
X189621577Y-46618912D01*
X189654280Y-46783324D01*
X189654280Y-46950956D01*
X189621577Y-47115368D01*
X189557427Y-47270240D01*
X189464295Y-47409621D01*
X189464291Y-47409625D01*
X189459684Y-47416520D01*
X189454618Y-47422694D01*
X189443067Y-47444305D01*
X189435954Y-47467754D01*
X189433552Y-47492140D01*
X189435954Y-47516526D01*
X189443067Y-47539975D01*
X189454618Y-47561586D01*
X189459684Y-47567760D01*
X189464291Y-47574655D01*
X189464295Y-47574659D01*
X189557427Y-47714040D01*
X189621577Y-47868912D01*
X189654280Y-48033324D01*
X189654280Y-48200956D01*
X189621577Y-48365368D01*
X189557427Y-48520240D01*
X189464295Y-48659621D01*
X189345761Y-48778155D01*
X189206380Y-48871287D01*
X189051508Y-48935437D01*
X188887096Y-48968140D01*
X188719464Y-48968140D01*
X188555052Y-48935437D01*
X188400180Y-48871287D01*
X188260799Y-48778155D01*
X188142265Y-48659621D01*
X188049133Y-48520240D01*
X187984983Y-48365368D01*
X187952280Y-48200956D01*
X187952280Y-48033324D01*
X187984983Y-47868912D01*
X188049133Y-47714040D01*
X188142265Y-47574659D01*
X188142269Y-47574655D01*
X188146876Y-47567760D01*
X188151942Y-47561586D01*
X188163493Y-47539975D01*
X188170606Y-47516526D01*
X188173008Y-47492140D01*
X188170606Y-47467754D01*
X188163493Y-47444305D01*
X188151942Y-47422694D01*
X188146876Y-47416520D01*
X188142269Y-47409625D01*
X188142265Y-47409621D01*
X188049133Y-47270240D01*
X187984983Y-47115368D01*
X187952280Y-46950956D01*
X187952280Y-46783324D01*
X187984983Y-46618912D01*
X188049133Y-46464040D01*
X188142265Y-46324659D01*
X188260799Y-46206125D01*
X188400180Y-46112993D01*
X188555052Y-46048843D01*
X188719464Y-46016140D01*
X188887096Y-46016140D01*
X189051508Y-46048843D01*
G37*
G36*
X194174592Y-46961187D02*
G01*
X194323892Y-46990884D01*
X194487864Y-47058804D01*
X194635434Y-47157407D01*
X194760933Y-47282906D01*
X194859536Y-47430476D01*
X194927456Y-47594448D01*
X194962080Y-47768519D01*
X194962080Y-47946001D01*
X194927456Y-48120072D01*
X194859536Y-48284044D01*
X194760933Y-48431614D01*
X194635434Y-48557113D01*
X194487864Y-48655716D01*
X194323892Y-48723636D01*
X194174592Y-48753333D01*
X194149822Y-48758260D01*
X193972338Y-48758260D01*
X193947568Y-48753333D01*
X193798268Y-48723636D01*
X193634296Y-48655716D01*
X193486726Y-48557113D01*
X193361227Y-48431614D01*
X193262624Y-48284044D01*
X193194704Y-48120072D01*
X193160080Y-47946001D01*
X193160080Y-47768519D01*
X193194704Y-47594448D01*
X193262624Y-47430476D01*
X193361227Y-47282906D01*
X193486726Y-47157407D01*
X193634296Y-47058804D01*
X193798268Y-46990884D01*
X193947568Y-46961187D01*
X193972338Y-46956260D01*
X194149822Y-46956260D01*
X194174592Y-46961187D01*
G37*
G36*
X171252112Y-46043127D02*
G01*
X171401412Y-46072824D01*
X171565384Y-46140744D01*
X171712954Y-46239347D01*
X171838453Y-46364846D01*
X171937056Y-46512416D01*
X172004976Y-46676388D01*
X172039600Y-46850459D01*
X172039600Y-47027941D01*
X172004976Y-47202012D01*
X171937056Y-47365984D01*
X171838453Y-47513554D01*
X171712954Y-47639053D01*
X171565384Y-47737656D01*
X171401412Y-47805576D01*
X171252112Y-47835273D01*
X171227342Y-47840200D01*
X171049858Y-47840200D01*
X171025088Y-47835273D01*
X170875788Y-47805576D01*
X170711816Y-47737656D01*
X170564246Y-47639053D01*
X170438747Y-47513554D01*
X170340144Y-47365984D01*
X170272224Y-47202012D01*
X170237600Y-47027941D01*
X170237600Y-46850459D01*
X170272224Y-46676388D01*
X170340144Y-46512416D01*
X170438747Y-46364846D01*
X170564246Y-46239347D01*
X170711816Y-46140744D01*
X170875788Y-46072824D01*
X171025088Y-46043127D01*
X171049858Y-46038200D01*
X171227342Y-46038200D01*
X171252112Y-46043127D01*
G37*
G36*
X148392112Y-46043127D02*
G01*
X148541412Y-46072824D01*
X148705384Y-46140744D01*
X148852954Y-46239347D01*
X148978453Y-46364846D01*
X149077056Y-46512416D01*
X149144976Y-46676388D01*
X149179600Y-46850459D01*
X149179600Y-47027941D01*
X149144976Y-47202012D01*
X149077056Y-47365984D01*
X148978453Y-47513554D01*
X148852954Y-47639053D01*
X148705384Y-47737656D01*
X148541412Y-47805576D01*
X148392112Y-47835273D01*
X148367342Y-47840200D01*
X148189858Y-47840200D01*
X148165088Y-47835273D01*
X148015788Y-47805576D01*
X147851816Y-47737656D01*
X147704246Y-47639053D01*
X147578747Y-47513554D01*
X147480144Y-47365984D01*
X147412224Y-47202012D01*
X147377600Y-47027941D01*
X147377600Y-46850459D01*
X147412224Y-46676388D01*
X147480144Y-46512416D01*
X147578747Y-46364846D01*
X147704246Y-46239347D01*
X147851816Y-46140744D01*
X148015788Y-46072824D01*
X148165088Y-46043127D01*
X148189858Y-46038200D01*
X148367342Y-46038200D01*
X148392112Y-46043127D01*
G37*
G36*
X173766712Y-46017727D02*
G01*
X173916012Y-46047424D01*
X174079984Y-46115344D01*
X174227554Y-46213947D01*
X174353053Y-46339446D01*
X174451656Y-46487016D01*
X174519576Y-46650988D01*
X174554200Y-46825059D01*
X174554200Y-47002541D01*
X174519576Y-47176612D01*
X174451656Y-47340584D01*
X174353053Y-47488154D01*
X174227554Y-47613653D01*
X174079984Y-47712256D01*
X173916012Y-47780176D01*
X173766712Y-47809873D01*
X173741942Y-47814800D01*
X173564458Y-47814800D01*
X173539688Y-47809873D01*
X173390388Y-47780176D01*
X173226416Y-47712256D01*
X173078846Y-47613653D01*
X172953347Y-47488154D01*
X172854744Y-47340584D01*
X172786824Y-47176612D01*
X172752200Y-47002541D01*
X172752200Y-46825059D01*
X172786824Y-46650988D01*
X172854744Y-46487016D01*
X172953347Y-46339446D01*
X173078846Y-46213947D01*
X173226416Y-46115344D01*
X173390388Y-46047424D01*
X173539688Y-46017727D01*
X173564458Y-46012800D01*
X173741942Y-46012800D01*
X173766712Y-46017727D01*
G37*
G36*
X145826712Y-46017727D02*
G01*
X145976012Y-46047424D01*
X146139984Y-46115344D01*
X146287554Y-46213947D01*
X146413053Y-46339446D01*
X146511656Y-46487016D01*
X146579576Y-46650988D01*
X146614200Y-46825059D01*
X146614200Y-47002541D01*
X146579576Y-47176612D01*
X146511656Y-47340584D01*
X146413053Y-47488154D01*
X146287554Y-47613653D01*
X146139984Y-47712256D01*
X145976012Y-47780176D01*
X145826712Y-47809873D01*
X145801942Y-47814800D01*
X145624458Y-47814800D01*
X145599688Y-47809873D01*
X145450388Y-47780176D01*
X145286416Y-47712256D01*
X145138846Y-47613653D01*
X145013347Y-47488154D01*
X144914744Y-47340584D01*
X144846824Y-47176612D01*
X144812200Y-47002541D01*
X144812200Y-46825059D01*
X144846824Y-46650988D01*
X144914744Y-46487016D01*
X145013347Y-46339446D01*
X145138846Y-46213947D01*
X145286416Y-46115344D01*
X145450388Y-46047424D01*
X145599688Y-46017727D01*
X145624458Y-46012800D01*
X145801942Y-46012800D01*
X145826712Y-46017727D01*
G37*
G36*
X194174592Y-44421187D02*
G01*
X194323892Y-44450884D01*
X194487864Y-44518804D01*
X194635434Y-44617407D01*
X194760933Y-44742906D01*
X194859536Y-44890476D01*
X194927456Y-45054448D01*
X194962080Y-45228519D01*
X194962080Y-45406001D01*
X194927456Y-45580072D01*
X194859536Y-45744044D01*
X194760933Y-45891614D01*
X194635434Y-46017113D01*
X194487864Y-46115716D01*
X194323892Y-46183636D01*
X194174592Y-46213333D01*
X194149822Y-46218260D01*
X193972338Y-46218260D01*
X193947568Y-46213333D01*
X193798268Y-46183636D01*
X193634296Y-46115716D01*
X193486726Y-46017113D01*
X193361227Y-45891614D01*
X193262624Y-45744044D01*
X193194704Y-45580072D01*
X193160080Y-45406001D01*
X193160080Y-45228519D01*
X193194704Y-45054448D01*
X193262624Y-44890476D01*
X193361227Y-44742906D01*
X193486726Y-44617407D01*
X193634296Y-44518804D01*
X193798268Y-44450884D01*
X193947568Y-44421187D01*
X193972338Y-44416260D01*
X194149822Y-44416260D01*
X194174592Y-44421187D01*
G37*
G36*
X148392112Y-43503127D02*
G01*
X148541412Y-43532824D01*
X148705384Y-43600744D01*
X148852954Y-43699347D01*
X148978453Y-43824846D01*
X149077056Y-43972416D01*
X149144976Y-44136388D01*
X149179600Y-44310459D01*
X149179600Y-44487941D01*
X149144976Y-44662012D01*
X149077056Y-44825984D01*
X148978453Y-44973554D01*
X148852954Y-45099053D01*
X148705384Y-45197656D01*
X148541412Y-45265576D01*
X148392112Y-45295273D01*
X148367342Y-45300200D01*
X148189858Y-45300200D01*
X148165088Y-45295273D01*
X148015788Y-45265576D01*
X147851816Y-45197656D01*
X147704246Y-45099053D01*
X147578747Y-44973554D01*
X147480144Y-44825984D01*
X147412224Y-44662012D01*
X147377600Y-44487941D01*
X147377600Y-44310459D01*
X147412224Y-44136388D01*
X147480144Y-43972416D01*
X147578747Y-43824846D01*
X147704246Y-43699347D01*
X147851816Y-43600744D01*
X148015788Y-43532824D01*
X148165088Y-43503127D01*
X148189858Y-43498200D01*
X148367342Y-43498200D01*
X148392112Y-43503127D01*
G37*
G36*
X171252112Y-43503127D02*
G01*
X171401412Y-43532824D01*
X171565384Y-43600744D01*
X171712954Y-43699347D01*
X171838453Y-43824846D01*
X171937056Y-43972416D01*
X172004976Y-44136388D01*
X172039600Y-44310459D01*
X172039600Y-44487941D01*
X172004976Y-44662012D01*
X171937056Y-44825984D01*
X171838453Y-44973554D01*
X171712954Y-45099053D01*
X171565384Y-45197656D01*
X171401412Y-45265576D01*
X171252112Y-45295273D01*
X171227342Y-45300200D01*
X171049858Y-45300200D01*
X171025088Y-45295273D01*
X170875788Y-45265576D01*
X170711816Y-45197656D01*
X170564246Y-45099053D01*
X170438747Y-44973554D01*
X170340144Y-44825984D01*
X170272224Y-44662012D01*
X170237600Y-44487941D01*
X170237600Y-44310459D01*
X170272224Y-44136388D01*
X170340144Y-43972416D01*
X170438747Y-43824846D01*
X170564246Y-43699347D01*
X170711816Y-43600744D01*
X170875788Y-43532824D01*
X171025088Y-43503127D01*
X171049858Y-43498200D01*
X171227342Y-43498200D01*
X171252112Y-43503127D01*
G37*
G36*
X145826712Y-43477727D02*
G01*
X145976012Y-43507424D01*
X146139984Y-43575344D01*
X146287554Y-43673947D01*
X146413053Y-43799446D01*
X146511656Y-43947016D01*
X146579576Y-44110988D01*
X146614200Y-44285059D01*
X146614200Y-44462541D01*
X146579576Y-44636612D01*
X146511656Y-44800584D01*
X146413053Y-44948154D01*
X146287554Y-45073653D01*
X146139984Y-45172256D01*
X145976012Y-45240176D01*
X145826712Y-45269873D01*
X145801942Y-45274800D01*
X145624458Y-45274800D01*
X145599688Y-45269873D01*
X145450388Y-45240176D01*
X145286416Y-45172256D01*
X145138846Y-45073653D01*
X145013347Y-44948154D01*
X144914744Y-44800584D01*
X144846824Y-44636612D01*
X144812200Y-44462541D01*
X144812200Y-44285059D01*
X144846824Y-44110988D01*
X144914744Y-43947016D01*
X145013347Y-43799446D01*
X145138846Y-43673947D01*
X145286416Y-43575344D01*
X145450388Y-43507424D01*
X145599688Y-43477727D01*
X145624458Y-43472800D01*
X145801942Y-43472800D01*
X145826712Y-43477727D01*
G37*
G36*
X173766712Y-43477727D02*
G01*
X173916012Y-43507424D01*
X174079984Y-43575344D01*
X174227554Y-43673947D01*
X174353053Y-43799446D01*
X174451656Y-43947016D01*
X174519576Y-44110988D01*
X174554200Y-44285059D01*
X174554200Y-44462541D01*
X174519576Y-44636612D01*
X174451656Y-44800584D01*
X174353053Y-44948154D01*
X174227554Y-45073653D01*
X174079984Y-45172256D01*
X173916012Y-45240176D01*
X173766712Y-45269873D01*
X173741942Y-45274800D01*
X173564458Y-45274800D01*
X173539688Y-45269873D01*
X173390388Y-45240176D01*
X173226416Y-45172256D01*
X173078846Y-45073653D01*
X172953347Y-44948154D01*
X172854744Y-44800584D01*
X172786824Y-44636612D01*
X172752200Y-44462541D01*
X172752200Y-44285059D01*
X172786824Y-44110988D01*
X172854744Y-43947016D01*
X172953347Y-43799446D01*
X173078846Y-43673947D01*
X173226416Y-43575344D01*
X173390388Y-43507424D01*
X173539688Y-43477727D01*
X173564458Y-43472800D01*
X173741942Y-43472800D01*
X173766712Y-43477727D01*
G37*
G36*
X194174592Y-41881187D02*
G01*
X194323892Y-41910884D01*
X194487864Y-41978804D01*
X194635434Y-42077407D01*
X194760933Y-42202906D01*
X194859536Y-42350476D01*
X194927456Y-42514448D01*
X194962080Y-42688519D01*
X194962080Y-42866001D01*
X194927456Y-43040072D01*
X194859536Y-43204044D01*
X194760933Y-43351614D01*
X194635434Y-43477113D01*
X194487864Y-43575716D01*
X194323892Y-43643636D01*
X194174592Y-43673333D01*
X194149822Y-43678260D01*
X193972338Y-43678260D01*
X193947568Y-43673333D01*
X193798268Y-43643636D01*
X193634296Y-43575716D01*
X193486726Y-43477113D01*
X193361227Y-43351614D01*
X193262624Y-43204044D01*
X193194704Y-43040072D01*
X193160080Y-42866001D01*
X193160080Y-42688519D01*
X193194704Y-42514448D01*
X193262624Y-42350476D01*
X193361227Y-42202906D01*
X193486726Y-42077407D01*
X193634296Y-41978804D01*
X193798268Y-41910884D01*
X193947568Y-41881187D01*
X193972338Y-41876260D01*
X194149822Y-41876260D01*
X194174592Y-41881187D01*
G37*
G36*
X148392112Y-40963127D02*
G01*
X148541412Y-40992824D01*
X148705384Y-41060744D01*
X148852954Y-41159347D01*
X148978453Y-41284846D01*
X149077056Y-41432416D01*
X149144976Y-41596388D01*
X149174548Y-41745058D01*
X149179600Y-41770458D01*
X149179600Y-41947942D01*
X149179000Y-41950956D01*
X149144976Y-42122012D01*
X149077056Y-42285984D01*
X148978453Y-42433554D01*
X148852954Y-42559053D01*
X148705384Y-42657656D01*
X148541412Y-42725576D01*
X148392112Y-42755273D01*
X148367342Y-42760200D01*
X148189858Y-42760200D01*
X148165088Y-42755273D01*
X148015788Y-42725576D01*
X147851816Y-42657656D01*
X147704246Y-42559053D01*
X147578747Y-42433554D01*
X147480144Y-42285984D01*
X147412224Y-42122012D01*
X147378200Y-41950956D01*
X147377600Y-41947942D01*
X147377600Y-41770458D01*
X147382652Y-41745058D01*
X147412224Y-41596388D01*
X147480144Y-41432416D01*
X147578747Y-41284846D01*
X147704246Y-41159347D01*
X147851816Y-41060744D01*
X148015788Y-40992824D01*
X148165088Y-40963127D01*
X148189858Y-40958200D01*
X148367342Y-40958200D01*
X148392112Y-40963127D01*
G37*
G36*
X171252112Y-40963127D02*
G01*
X171401412Y-40992824D01*
X171565384Y-41060744D01*
X171712954Y-41159347D01*
X171838453Y-41284846D01*
X171937056Y-41432416D01*
X172004976Y-41596388D01*
X172034548Y-41745058D01*
X172039600Y-41770458D01*
X172039600Y-41947942D01*
X172039000Y-41950956D01*
X172004976Y-42122012D01*
X171937056Y-42285984D01*
X171838453Y-42433554D01*
X171712954Y-42559053D01*
X171565384Y-42657656D01*
X171401412Y-42725576D01*
X171252112Y-42755273D01*
X171227342Y-42760200D01*
X171049858Y-42760200D01*
X171025088Y-42755273D01*
X170875788Y-42725576D01*
X170711816Y-42657656D01*
X170564246Y-42559053D01*
X170438747Y-42433554D01*
X170340144Y-42285984D01*
X170272224Y-42122012D01*
X170238200Y-41950956D01*
X170237600Y-41947942D01*
X170237600Y-41770458D01*
X170242652Y-41745058D01*
X170272224Y-41596388D01*
X170340144Y-41432416D01*
X170438747Y-41284846D01*
X170564246Y-41159347D01*
X170711816Y-41060744D01*
X170875788Y-40992824D01*
X171025088Y-40963127D01*
X171049858Y-40958200D01*
X171227342Y-40958200D01*
X171252112Y-40963127D01*
G37*
G36*
X145826712Y-40937727D02*
G01*
X145976012Y-40967424D01*
X146139984Y-41035344D01*
X146287554Y-41133947D01*
X146413053Y-41259446D01*
X146511656Y-41407016D01*
X146579576Y-41570988D01*
X146614200Y-41745059D01*
X146614200Y-41922541D01*
X146579576Y-42096612D01*
X146511656Y-42260584D01*
X146413053Y-42408154D01*
X146287554Y-42533653D01*
X146139984Y-42632256D01*
X145976012Y-42700176D01*
X145826712Y-42729873D01*
X145801942Y-42734800D01*
X145624458Y-42734800D01*
X145599688Y-42729873D01*
X145450388Y-42700176D01*
X145286416Y-42632256D01*
X145138846Y-42533653D01*
X145013347Y-42408154D01*
X144914744Y-42260584D01*
X144846824Y-42096612D01*
X144812200Y-41922541D01*
X144812200Y-41745059D01*
X144846824Y-41570988D01*
X144914744Y-41407016D01*
X145013347Y-41259446D01*
X145138846Y-41133947D01*
X145286416Y-41035344D01*
X145450388Y-40967424D01*
X145599688Y-40937727D01*
X145624458Y-40932800D01*
X145801942Y-40932800D01*
X145826712Y-40937727D01*
G37*
G36*
X173766712Y-40937727D02*
G01*
X173916012Y-40967424D01*
X174079984Y-41035344D01*
X174227554Y-41133947D01*
X174353053Y-41259446D01*
X174451656Y-41407016D01*
X174519576Y-41570988D01*
X174554200Y-41745059D01*
X174554200Y-41922541D01*
X174519576Y-42096612D01*
X174451656Y-42260584D01*
X174353053Y-42408154D01*
X174227554Y-42533653D01*
X174079984Y-42632256D01*
X173916012Y-42700176D01*
X173766712Y-42729873D01*
X173741942Y-42734800D01*
X173564458Y-42734800D01*
X173539688Y-42729873D01*
X173390388Y-42700176D01*
X173226416Y-42632256D01*
X173078846Y-42533653D01*
X172953347Y-42408154D01*
X172854744Y-42260584D01*
X172786824Y-42096612D01*
X172752200Y-41922541D01*
X172752200Y-41745059D01*
X172786824Y-41570988D01*
X172854744Y-41407016D01*
X172953347Y-41259446D01*
X173078846Y-41133947D01*
X173226416Y-41035344D01*
X173390388Y-40967424D01*
X173539688Y-40937727D01*
X173564458Y-40932800D01*
X173741942Y-40932800D01*
X173766712Y-40937727D01*
G37*
G36*
X189051508Y-39798843D02*
G01*
X189206380Y-39862993D01*
X189345761Y-39956125D01*
X189464295Y-40074659D01*
X189557427Y-40214040D01*
X189621577Y-40368912D01*
X189654280Y-40533324D01*
X189654280Y-40700956D01*
X189621577Y-40865368D01*
X189557427Y-41020240D01*
X189464295Y-41159621D01*
X189464291Y-41159625D01*
X189459684Y-41166520D01*
X189454618Y-41172694D01*
X189443067Y-41194305D01*
X189435954Y-41217754D01*
X189433552Y-41242140D01*
X189435954Y-41266526D01*
X189443067Y-41289975D01*
X189454618Y-41311586D01*
X189459684Y-41317760D01*
X189464291Y-41324655D01*
X189464295Y-41324659D01*
X189557427Y-41464040D01*
X189621577Y-41618912D01*
X189654280Y-41783324D01*
X189654280Y-41950956D01*
X189621577Y-42115368D01*
X189557427Y-42270240D01*
X189464295Y-42409621D01*
X189345761Y-42528155D01*
X189206380Y-42621287D01*
X189051508Y-42685437D01*
X188887096Y-42718140D01*
X188719464Y-42718140D01*
X188555052Y-42685437D01*
X188400180Y-42621287D01*
X188260799Y-42528155D01*
X188142265Y-42409621D01*
X188049133Y-42270240D01*
X187984983Y-42115368D01*
X187952280Y-41950956D01*
X187952280Y-41783324D01*
X187984983Y-41618912D01*
X188049133Y-41464040D01*
X188142265Y-41324659D01*
X188142269Y-41324655D01*
X188146876Y-41317760D01*
X188151942Y-41311586D01*
X188163493Y-41289975D01*
X188170606Y-41266526D01*
X188173008Y-41242140D01*
X188170606Y-41217754D01*
X188163493Y-41194305D01*
X188151942Y-41172694D01*
X188146876Y-41166520D01*
X188142269Y-41159625D01*
X188142265Y-41159621D01*
X188049133Y-41020240D01*
X187984983Y-40865368D01*
X187952280Y-40700956D01*
X187952280Y-40533324D01*
X187984983Y-40368912D01*
X188049133Y-40214040D01*
X188142265Y-40074659D01*
X188260799Y-39956125D01*
X188400180Y-39862993D01*
X188555052Y-39798843D01*
X188719464Y-39766140D01*
X188887096Y-39766140D01*
X189051508Y-39798843D01*
G37*
G36*
X180706049Y-39609711D02*
G01*
X180867875Y-39676742D01*
X181013509Y-39774051D01*
X181137369Y-39897911D01*
X181234678Y-40043545D01*
X181301709Y-40205371D01*
X181335880Y-40377160D01*
X181335880Y-40552320D01*
X181301709Y-40724109D01*
X181234678Y-40885935D01*
X181137369Y-41031569D01*
X181013509Y-41155429D01*
X180867875Y-41252738D01*
X180706049Y-41319769D01*
X180534260Y-41353940D01*
X180359100Y-41353940D01*
X180187311Y-41319769D01*
X180025485Y-41252738D01*
X179879851Y-41155429D01*
X179755991Y-41031569D01*
X179658682Y-40885935D01*
X179591651Y-40724109D01*
X179557480Y-40552320D01*
X179557480Y-40377160D01*
X179591651Y-40205371D01*
X179658682Y-40043545D01*
X179755991Y-39897911D01*
X179879851Y-39774051D01*
X180025485Y-39676742D01*
X180187311Y-39609711D01*
X180359100Y-39575540D01*
X180534260Y-39575540D01*
X180706049Y-39609711D01*
G37*
G36*
X178166049Y-39609711D02*
G01*
X178327875Y-39676742D01*
X178473509Y-39774051D01*
X178597369Y-39897911D01*
X178694678Y-40043545D01*
X178761709Y-40205371D01*
X178795880Y-40377160D01*
X178795880Y-40552320D01*
X178761709Y-40724109D01*
X178694678Y-40885935D01*
X178597369Y-41031569D01*
X178473509Y-41155429D01*
X178327875Y-41252738D01*
X178166049Y-41319769D01*
X177994260Y-41353940D01*
X177819100Y-41353940D01*
X177647311Y-41319769D01*
X177485485Y-41252738D01*
X177339851Y-41155429D01*
X177215991Y-41031569D01*
X177118682Y-40885935D01*
X177051651Y-40724109D01*
X177017480Y-40552320D01*
X177017480Y-40377160D01*
X177051651Y-40205371D01*
X177118682Y-40043545D01*
X177215991Y-39897911D01*
X177339851Y-39774051D01*
X177485485Y-39676742D01*
X177647311Y-39609711D01*
X177819100Y-39575540D01*
X177994260Y-39575540D01*
X178166049Y-39609711D01*
G37*
G36*
X185786049Y-39609711D02*
G01*
X185947875Y-39676742D01*
X186093509Y-39774051D01*
X186217369Y-39897911D01*
X186314678Y-40043545D01*
X186381709Y-40205371D01*
X186415880Y-40377160D01*
X186415880Y-40552320D01*
X186381709Y-40724109D01*
X186314678Y-40885935D01*
X186217369Y-41031569D01*
X186093509Y-41155429D01*
X185947875Y-41252738D01*
X185786049Y-41319769D01*
X185614260Y-41353940D01*
X185439100Y-41353940D01*
X185267311Y-41319769D01*
X185105485Y-41252738D01*
X184959851Y-41155429D01*
X184835991Y-41031569D01*
X184738682Y-40885935D01*
X184671651Y-40724109D01*
X184637480Y-40552320D01*
X184637480Y-40377160D01*
X184671651Y-40205371D01*
X184738682Y-40043545D01*
X184835991Y-39897911D01*
X184959851Y-39774051D01*
X185105485Y-39676742D01*
X185267311Y-39609711D01*
X185439100Y-39575540D01*
X185614260Y-39575540D01*
X185786049Y-39609711D01*
G37*
G36*
X183246049Y-39609711D02*
G01*
X183407875Y-39676742D01*
X183553509Y-39774051D01*
X183677369Y-39897911D01*
X183774678Y-40043545D01*
X183841709Y-40205371D01*
X183875880Y-40377160D01*
X183875880Y-40552320D01*
X183841709Y-40724109D01*
X183774678Y-40885935D01*
X183677369Y-41031569D01*
X183553509Y-41155429D01*
X183407875Y-41252738D01*
X183246049Y-41319769D01*
X183074260Y-41353940D01*
X182899100Y-41353940D01*
X182727311Y-41319769D01*
X182565485Y-41252738D01*
X182419851Y-41155429D01*
X182295991Y-41031569D01*
X182198682Y-40885935D01*
X182131651Y-40724109D01*
X182097480Y-40552320D01*
X182097480Y-40377160D01*
X182131651Y-40205371D01*
X182198682Y-40043545D01*
X182295991Y-39897911D01*
X182419851Y-39774051D01*
X182565485Y-39676742D01*
X182727311Y-39609711D01*
X182899100Y-39575540D01*
X183074260Y-39575540D01*
X183246049Y-39609711D01*
G37*
G36*
X194962080Y-41138260D02*
G01*
X193160080Y-41138260D01*
X193160080Y-39336260D01*
X194962080Y-39336260D01*
X194962080Y-41138260D01*
G37*
G36*
X204989248Y-38765063D02*
G01*
X205144120Y-38829213D01*
X205283501Y-38922345D01*
X205402035Y-39040879D01*
X205495167Y-39180260D01*
X205559317Y-39335132D01*
X205592020Y-39499544D01*
X205592020Y-39667176D01*
X205559317Y-39831588D01*
X205495167Y-39986460D01*
X205402035Y-40125841D01*
X205283501Y-40244375D01*
X205144120Y-40337507D01*
X204989248Y-40401657D01*
X204824836Y-40434360D01*
X204657204Y-40434360D01*
X204492792Y-40401657D01*
X204337920Y-40337507D01*
X204198539Y-40244375D01*
X204080005Y-40125841D01*
X203986873Y-39986460D01*
X203922723Y-39831588D01*
X203890020Y-39667176D01*
X203890020Y-39499544D01*
X203922723Y-39335132D01*
X203986873Y-39180260D01*
X204080005Y-39040879D01*
X204198539Y-38922345D01*
X204337920Y-38829213D01*
X204492792Y-38765063D01*
X204657204Y-38732360D01*
X204824836Y-38732360D01*
X204989248Y-38765063D01*
G37*
G36*
X199925248Y-38765063D02*
G01*
X200080120Y-38829213D01*
X200219501Y-38922345D01*
X200338035Y-39040879D01*
X200431167Y-39180260D01*
X200495317Y-39335132D01*
X200528020Y-39499544D01*
X200528020Y-39667176D01*
X200495317Y-39831588D01*
X200431167Y-39986460D01*
X200338035Y-40125841D01*
X200219501Y-40244375D01*
X200080120Y-40337507D01*
X199925248Y-40401657D01*
X199760836Y-40434360D01*
X199593204Y-40434360D01*
X199428792Y-40401657D01*
X199273920Y-40337507D01*
X199134539Y-40244375D01*
X199016005Y-40125841D01*
X198922873Y-39986460D01*
X198858723Y-39831588D01*
X198826020Y-39667176D01*
X198826020Y-39499544D01*
X198858723Y-39335132D01*
X198922873Y-39180260D01*
X199016005Y-39040879D01*
X199134539Y-38922345D01*
X199273920Y-38829213D01*
X199428792Y-38765063D01*
X199593204Y-38732360D01*
X199760836Y-38732360D01*
X199925248Y-38765063D01*
G37*
G36*
X191603100Y-35955720D02*
G01*
X189981100Y-35955720D01*
X189981100Y-34333720D01*
X191603100Y-34333720D01*
X191603100Y-35955720D01*
G37*
G36*
X188488660Y-34364886D02*
G01*
X188636253Y-34426021D01*
X188769082Y-34514775D01*
X188882045Y-34627738D01*
X188970799Y-34760567D01*
X189031934Y-34908160D01*
X189063100Y-35064843D01*
X189063100Y-35224597D01*
X189031934Y-35381280D01*
X188970799Y-35528873D01*
X188882045Y-35661702D01*
X188769082Y-35774665D01*
X188636253Y-35863419D01*
X188636252Y-35863420D01*
X188636251Y-35863420D01*
X188488660Y-35924554D01*
X188331978Y-35955720D01*
X188172222Y-35955720D01*
X188015540Y-35924554D01*
X187867949Y-35863420D01*
X187867948Y-35863420D01*
X187867947Y-35863419D01*
X187735118Y-35774665D01*
X187622155Y-35661702D01*
X187533401Y-35528873D01*
X187472266Y-35381280D01*
X187441100Y-35224597D01*
X187441100Y-35064843D01*
X187472266Y-34908160D01*
X187533401Y-34760567D01*
X187622155Y-34627738D01*
X187735118Y-34514775D01*
X187867947Y-34426021D01*
X188015540Y-34364886D01*
X188172222Y-34333720D01*
X188331978Y-34333720D01*
X188488660Y-34364886D01*
G37*
G36*
X185948660Y-34364886D02*
G01*
X186096253Y-34426021D01*
X186229082Y-34514775D01*
X186342045Y-34627738D01*
X186430799Y-34760567D01*
X186491934Y-34908160D01*
X186523100Y-35064843D01*
X186523100Y-35224597D01*
X186491934Y-35381280D01*
X186430799Y-35528873D01*
X186342045Y-35661702D01*
X186229082Y-35774665D01*
X186096253Y-35863419D01*
X186096252Y-35863420D01*
X186096251Y-35863420D01*
X185948660Y-35924554D01*
X185791978Y-35955720D01*
X185632222Y-35955720D01*
X185475540Y-35924554D01*
X185327949Y-35863420D01*
X185327948Y-35863420D01*
X185327947Y-35863419D01*
X185195118Y-35774665D01*
X185082155Y-35661702D01*
X184993401Y-35528873D01*
X184932266Y-35381280D01*
X184901100Y-35224597D01*
X184901100Y-35064843D01*
X184932266Y-34908160D01*
X184993401Y-34760567D01*
X185082155Y-34627738D01*
X185195118Y-34514775D01*
X185327947Y-34426021D01*
X185475540Y-34364886D01*
X185632222Y-34333720D01*
X185791978Y-34333720D01*
X185948660Y-34364886D01*
G37*
G36*
X187218660Y-31824886D02*
G01*
X187366253Y-31886021D01*
X187499082Y-31974775D01*
X187612045Y-32087738D01*
X187700799Y-32220567D01*
X187761934Y-32368160D01*
X187793100Y-32524843D01*
X187793100Y-32684597D01*
X187761934Y-32841280D01*
X187700799Y-32988873D01*
X187612045Y-33121702D01*
X187499082Y-33234665D01*
X187366253Y-33323419D01*
X187366252Y-33323420D01*
X187366251Y-33323420D01*
X187218660Y-33384554D01*
X187061978Y-33415720D01*
X186902222Y-33415720D01*
X186745540Y-33384554D01*
X186597949Y-33323420D01*
X186597948Y-33323420D01*
X186597947Y-33323419D01*
X186465118Y-33234665D01*
X186352155Y-33121702D01*
X186263401Y-32988873D01*
X186202266Y-32841280D01*
X186171100Y-32684597D01*
X186171100Y-32524843D01*
X186202266Y-32368160D01*
X186263401Y-32220567D01*
X186352155Y-32087738D01*
X186465118Y-31974775D01*
X186597947Y-31886021D01*
X186745540Y-31824886D01*
X186902222Y-31793720D01*
X187061978Y-31793720D01*
X187218660Y-31824886D01*
G37*
G36*
X184678660Y-31824886D02*
G01*
X184826253Y-31886021D01*
X184959082Y-31974775D01*
X185072045Y-32087738D01*
X185160799Y-32220567D01*
X185221934Y-32368160D01*
X185253100Y-32524843D01*
X185253100Y-32684597D01*
X185221934Y-32841280D01*
X185160799Y-32988873D01*
X185072045Y-33121702D01*
X184959082Y-33234665D01*
X184826253Y-33323419D01*
X184826252Y-33323420D01*
X184826251Y-33323420D01*
X184678660Y-33384554D01*
X184521978Y-33415720D01*
X184362222Y-33415720D01*
X184205540Y-33384554D01*
X184057949Y-33323420D01*
X184057948Y-33323420D01*
X184057947Y-33323419D01*
X183925118Y-33234665D01*
X183812155Y-33121702D01*
X183723401Y-32988873D01*
X183662266Y-32841280D01*
X183631100Y-32684597D01*
X183631100Y-32524843D01*
X183662266Y-32368160D01*
X183723401Y-32220567D01*
X183812155Y-32087738D01*
X183925118Y-31974775D01*
X184057947Y-31886021D01*
X184205540Y-31824886D01*
X184362222Y-31793720D01*
X184521978Y-31793720D01*
X184678660Y-31824886D01*
G37*
G36*
X189758660Y-31824886D02*
G01*
X189906253Y-31886021D01*
X190039082Y-31974775D01*
X190152045Y-32087738D01*
X190240799Y-32220567D01*
X190301934Y-32368160D01*
X190333100Y-32524843D01*
X190333100Y-32684597D01*
X190301934Y-32841280D01*
X190240799Y-32988873D01*
X190152045Y-33121702D01*
X190039082Y-33234665D01*
X189906253Y-33323419D01*
X189906252Y-33323420D01*
X189906251Y-33323420D01*
X189758660Y-33384554D01*
X189601978Y-33415720D01*
X189442222Y-33415720D01*
X189285540Y-33384554D01*
X189137949Y-33323420D01*
X189137948Y-33323420D01*
X189137947Y-33323419D01*
X189005118Y-33234665D01*
X188892155Y-33121702D01*
X188803401Y-32988873D01*
X188742266Y-32841280D01*
X188711100Y-32684597D01*
X188711100Y-32524843D01*
X188742266Y-32368160D01*
X188803401Y-32220567D01*
X188892155Y-32087738D01*
X189005118Y-31974775D01*
X189137947Y-31886021D01*
X189285540Y-31824886D01*
X189442222Y-31793720D01*
X189601978Y-31793720D01*
X189758660Y-31824886D01*
G37*
G36*
X144064656Y-26791298D02*
G01*
X144170979Y-26812447D01*
X144471442Y-26936903D01*
X144741851Y-27117585D01*
X144971815Y-27347549D01*
X145152497Y-27617958D01*
X145276953Y-27918421D01*
X145340400Y-28237391D01*
X145340400Y-28562609D01*
X145276953Y-28881579D01*
X145152497Y-29182042D01*
X144971815Y-29452451D01*
X144741851Y-29682415D01*
X144471442Y-29863097D01*
X144170979Y-29987553D01*
X144064656Y-30008702D01*
X143852011Y-30051000D01*
X143526789Y-30051000D01*
X143314144Y-30008702D01*
X143207821Y-29987553D01*
X142907358Y-29863097D01*
X142636949Y-29682415D01*
X142406985Y-29452451D01*
X142226303Y-29182042D01*
X142101847Y-28881579D01*
X142038400Y-28562609D01*
X142038400Y-28237391D01*
X142101847Y-27918421D01*
X142226303Y-27617958D01*
X142406985Y-27347549D01*
X142636949Y-27117585D01*
X142907358Y-26936903D01*
X143207821Y-26812447D01*
X143314144Y-26791298D01*
X143526789Y-26749000D01*
X143852011Y-26749000D01*
X144064656Y-26791298D01*
G37*
G36*
X204064656Y-26791298D02*
G01*
X204170979Y-26812447D01*
X204471442Y-26936903D01*
X204741851Y-27117585D01*
X204971815Y-27347549D01*
X205152497Y-27617958D01*
X205276953Y-27918421D01*
X205340400Y-28237391D01*
X205340400Y-28562609D01*
X205276953Y-28881579D01*
X205152497Y-29182042D01*
X204971815Y-29452451D01*
X204741851Y-29682415D01*
X204471442Y-29863097D01*
X204170979Y-29987553D01*
X204064656Y-30008702D01*
X203852011Y-30051000D01*
X203526789Y-30051000D01*
X203314144Y-30008702D01*
X203207821Y-29987553D01*
X202907358Y-29863097D01*
X202636949Y-29682415D01*
X202406985Y-29452451D01*
X202226303Y-29182042D01*
X202101847Y-28881579D01*
X202038400Y-28562609D01*
X202038400Y-28237391D01*
X202101847Y-27918421D01*
X202226303Y-27617958D01*
X202406985Y-27347549D01*
X202636949Y-27117585D01*
X202907358Y-26936903D01*
X203207821Y-26812447D01*
X203314144Y-26791298D01*
X203526789Y-26749000D01*
X203852011Y-26749000D01*
X204064656Y-26791298D01*
G37*
G36*
X193190971Y-24643128D02*
G01*
X193495983Y-24769468D01*
X193770487Y-24952886D01*
X194003934Y-25186333D01*
X194187352Y-25460837D01*
X194313692Y-25765849D01*
X194313692Y-25765850D01*
X194378100Y-26089647D01*
X194378100Y-26419793D01*
X194368197Y-26469576D01*
X194313692Y-26743591D01*
X194187352Y-27048603D01*
X194003934Y-27323107D01*
X193770487Y-27556554D01*
X193495983Y-27739972D01*
X193190971Y-27866312D01*
X192867173Y-27930720D01*
X192537027Y-27930720D01*
X192375129Y-27898516D01*
X192213229Y-27866312D01*
X191908217Y-27739972D01*
X191633713Y-27556554D01*
X191400266Y-27323107D01*
X191216848Y-27048603D01*
X191090508Y-26743591D01*
X191036003Y-26469576D01*
X191026100Y-26419793D01*
X191026100Y-26089647D01*
X191090508Y-25765850D01*
X191090508Y-25765849D01*
X191216848Y-25460837D01*
X191400266Y-25186333D01*
X191633713Y-24952886D01*
X191908217Y-24769468D01*
X192213229Y-24643128D01*
X192537027Y-24578720D01*
X192867173Y-24578720D01*
X193190971Y-24643128D01*
G37*
G36*
X183030971Y-24643128D02*
G01*
X183335983Y-24769468D01*
X183610487Y-24952886D01*
X183843934Y-25186333D01*
X184027352Y-25460837D01*
X184153692Y-25765849D01*
X184153692Y-25765850D01*
X184218100Y-26089647D01*
X184218100Y-26419793D01*
X184208197Y-26469576D01*
X184153692Y-26743591D01*
X184027352Y-27048603D01*
X183843934Y-27323107D01*
X183610487Y-27556554D01*
X183335983Y-27739972D01*
X183030971Y-27866312D01*
X182707173Y-27930720D01*
X182377027Y-27930720D01*
X182215129Y-27898516D01*
X182053229Y-27866312D01*
X181748217Y-27739972D01*
X181473713Y-27556554D01*
X181240266Y-27323107D01*
X181056848Y-27048603D01*
X180930508Y-26743591D01*
X180876003Y-26469576D01*
X180866100Y-26419793D01*
X180866100Y-26089647D01*
X180930508Y-25765850D01*
X180930508Y-25765849D01*
X181056848Y-25460837D01*
X181240266Y-25186333D01*
X181473713Y-24952886D01*
X181748217Y-24769468D01*
X182053229Y-24643128D01*
X182377027Y-24578720D01*
X182707173Y-24578720D01*
X183030971Y-24643128D01*
G37*
G36*
X189747159Y-26035620D02*
G01*
X189877592Y-26089647D01*
X189883832Y-26092232D01*
X190006835Y-26174420D01*
X190111440Y-26279025D01*
X190193628Y-26402028D01*
X190250240Y-26538701D01*
X190279100Y-26683793D01*
X190279100Y-26831727D01*
X190250240Y-26976819D01*
X190193628Y-27113492D01*
X190111440Y-27236495D01*
X190006835Y-27341100D01*
X189883832Y-27423288D01*
X189883831Y-27423289D01*
X189883830Y-27423289D01*
X189747159Y-27479900D01*
X189602068Y-27508760D01*
X189454132Y-27508760D01*
X189309041Y-27479900D01*
X189172370Y-27423289D01*
X189172369Y-27423289D01*
X189172368Y-27423288D01*
X189049365Y-27341100D01*
X188944760Y-27236495D01*
X188862572Y-27113492D01*
X188805960Y-26976819D01*
X188777100Y-26831727D01*
X188777100Y-26683793D01*
X188805960Y-26538701D01*
X188862572Y-26402028D01*
X188944760Y-26279025D01*
X189049365Y-26174420D01*
X189172368Y-26092232D01*
X189178609Y-26089647D01*
X189309041Y-26035620D01*
X189454132Y-26006760D01*
X189602068Y-26006760D01*
X189747159Y-26035620D01*
G37*
G36*
X187707159Y-26035620D02*
G01*
X187837592Y-26089647D01*
X187843832Y-26092232D01*
X187966835Y-26174420D01*
X188071440Y-26279025D01*
X188153628Y-26402028D01*
X188210240Y-26538701D01*
X188239100Y-26683793D01*
X188239100Y-26831727D01*
X188210240Y-26976819D01*
X188153628Y-27113492D01*
X188071440Y-27236495D01*
X187966835Y-27341100D01*
X187843832Y-27423288D01*
X187843831Y-27423289D01*
X187843830Y-27423289D01*
X187707159Y-27479900D01*
X187562068Y-27508760D01*
X187414132Y-27508760D01*
X187269041Y-27479900D01*
X187132370Y-27423289D01*
X187132369Y-27423289D01*
X187132368Y-27423288D01*
X187009365Y-27341100D01*
X186904760Y-27236495D01*
X186822572Y-27113492D01*
X186765960Y-26976819D01*
X186737100Y-26831727D01*
X186737100Y-26683793D01*
X186765960Y-26538701D01*
X186822572Y-26402028D01*
X186904760Y-26279025D01*
X187009365Y-26174420D01*
X187132368Y-26092232D01*
X187138609Y-26089647D01*
X187269041Y-26035620D01*
X187414132Y-26006760D01*
X187562068Y-26006760D01*
X187707159Y-26035620D01*
G37*
G36*
X185667159Y-26035620D02*
G01*
X185797592Y-26089647D01*
X185803832Y-26092232D01*
X185926835Y-26174420D01*
X186031440Y-26279025D01*
X186113628Y-26402028D01*
X186170240Y-26538701D01*
X186199100Y-26683793D01*
X186199100Y-26831727D01*
X186170240Y-26976819D01*
X186113628Y-27113492D01*
X186031440Y-27236495D01*
X185926835Y-27341100D01*
X185803832Y-27423288D01*
X185803831Y-27423289D01*
X185803830Y-27423289D01*
X185667159Y-27479900D01*
X185522068Y-27508760D01*
X185374132Y-27508760D01*
X185229041Y-27479900D01*
X185092370Y-27423289D01*
X185092369Y-27423289D01*
X185092368Y-27423288D01*
X184969365Y-27341100D01*
X184864760Y-27236495D01*
X184782572Y-27113492D01*
X184725960Y-26976819D01*
X184697100Y-26831727D01*
X184697100Y-26683793D01*
X184725960Y-26538701D01*
X184782572Y-26402028D01*
X184864760Y-26279025D01*
X184969365Y-26174420D01*
X185092368Y-26092232D01*
X185098609Y-26089647D01*
X185229041Y-26035620D01*
X185374132Y-26006760D01*
X185522068Y-26006760D01*
X185667159Y-26035620D01*
G37*
G36*
X150227512Y-24707127D02*
G01*
X150376812Y-24736824D01*
X150540784Y-24804744D01*
X150688354Y-24903347D01*
X150813853Y-25028846D01*
X150912456Y-25176416D01*
X150980376Y-25340388D01*
X151015000Y-25514459D01*
X151015000Y-25691941D01*
X150980376Y-25866012D01*
X150912456Y-26029984D01*
X150813853Y-26177554D01*
X150688354Y-26303053D01*
X150540784Y-26401656D01*
X150376812Y-26469576D01*
X150227512Y-26499273D01*
X150202742Y-26504200D01*
X150025258Y-26504200D01*
X150000488Y-26499273D01*
X149851188Y-26469576D01*
X149687216Y-26401656D01*
X149539646Y-26303053D01*
X149414147Y-26177554D01*
X149315544Y-26029984D01*
X149247624Y-25866012D01*
X149213000Y-25691941D01*
X149213000Y-25514459D01*
X149247624Y-25340388D01*
X149315544Y-25176416D01*
X149414147Y-25028846D01*
X149539646Y-24903347D01*
X149687216Y-24804744D01*
X149851188Y-24736824D01*
X150000488Y-24707127D01*
X150025258Y-24702200D01*
X150202742Y-24702200D01*
X150227512Y-24707127D01*
G37*
G36*
X186687159Y-23495620D02*
G01*
X186741443Y-23518105D01*
X186823832Y-23552232D01*
X186946835Y-23634420D01*
X187051440Y-23739025D01*
X187124493Y-23848357D01*
X187133629Y-23862030D01*
X187175949Y-23964200D01*
X187190240Y-23998701D01*
X187219100Y-24143793D01*
X187219100Y-24291727D01*
X187190240Y-24436819D01*
X187133628Y-24573492D01*
X187051440Y-24696495D01*
X186946835Y-24801100D01*
X186823832Y-24883288D01*
X186823831Y-24883289D01*
X186823830Y-24883289D01*
X186687159Y-24939900D01*
X186542068Y-24968760D01*
X186394132Y-24968760D01*
X186249041Y-24939900D01*
X186112370Y-24883289D01*
X186112369Y-24883289D01*
X186112368Y-24883288D01*
X185989365Y-24801100D01*
X185884760Y-24696495D01*
X185802572Y-24573492D01*
X185745960Y-24436819D01*
X185717100Y-24291727D01*
X185717100Y-24143793D01*
X185745960Y-23998701D01*
X185760251Y-23964200D01*
X185802571Y-23862030D01*
X185811707Y-23848357D01*
X185884760Y-23739025D01*
X185989365Y-23634420D01*
X186112368Y-23552232D01*
X186194758Y-23518105D01*
X186249041Y-23495620D01*
X186394132Y-23466760D01*
X186542068Y-23466760D01*
X186687159Y-23495620D01*
G37*
G36*
X188727159Y-23495620D02*
G01*
X188781443Y-23518105D01*
X188863832Y-23552232D01*
X188986835Y-23634420D01*
X189091440Y-23739025D01*
X189164493Y-23848357D01*
X189173629Y-23862030D01*
X189215949Y-23964200D01*
X189230240Y-23998701D01*
X189259100Y-24143793D01*
X189259100Y-24291727D01*
X189230240Y-24436819D01*
X189173628Y-24573492D01*
X189091440Y-24696495D01*
X188986835Y-24801100D01*
X188863832Y-24883288D01*
X188863831Y-24883289D01*
X188863830Y-24883289D01*
X188727159Y-24939900D01*
X188582068Y-24968760D01*
X188434132Y-24968760D01*
X188289041Y-24939900D01*
X188152370Y-24883289D01*
X188152369Y-24883289D01*
X188152368Y-24883288D01*
X188029365Y-24801100D01*
X187924760Y-24696495D01*
X187842572Y-24573492D01*
X187785960Y-24436819D01*
X187757100Y-24291727D01*
X187757100Y-24143793D01*
X187785960Y-23998701D01*
X187800251Y-23964200D01*
X187842571Y-23862030D01*
X187851707Y-23848357D01*
X187924760Y-23739025D01*
X188029365Y-23634420D01*
X188152368Y-23552232D01*
X188234758Y-23518105D01*
X188289041Y-23495620D01*
X188434132Y-23466760D01*
X188582068Y-23466760D01*
X188727159Y-23495620D01*
G37*
G36*
X190767159Y-23495620D02*
G01*
X190821443Y-23518105D01*
X190903832Y-23552232D01*
X191026835Y-23634420D01*
X191131440Y-23739025D01*
X191204493Y-23848357D01*
X191213629Y-23862030D01*
X191255949Y-23964200D01*
X191270240Y-23998701D01*
X191299100Y-24143793D01*
X191299100Y-24291727D01*
X191270240Y-24436819D01*
X191213628Y-24573492D01*
X191131440Y-24696495D01*
X191026835Y-24801100D01*
X190903832Y-24883288D01*
X190903831Y-24883289D01*
X190903830Y-24883289D01*
X190767159Y-24939900D01*
X190622068Y-24968760D01*
X190474132Y-24968760D01*
X190329041Y-24939900D01*
X190192370Y-24883289D01*
X190192369Y-24883289D01*
X190192368Y-24883288D01*
X190069365Y-24801100D01*
X189964760Y-24696495D01*
X189882572Y-24573492D01*
X189825960Y-24436819D01*
X189797100Y-24291727D01*
X189797100Y-24143793D01*
X189825960Y-23998701D01*
X189840251Y-23964200D01*
X189882571Y-23862030D01*
X189891707Y-23848357D01*
X189964760Y-23739025D01*
X190069365Y-23634420D01*
X190192368Y-23552232D01*
X190274758Y-23518105D01*
X190329041Y-23495620D01*
X190474132Y-23466760D01*
X190622068Y-23466760D01*
X190767159Y-23495620D01*
G37*
G36*
X162745800Y-24439600D02*
G01*
X160443800Y-24439600D01*
X160443800Y-21737600D01*
X162745800Y-21737600D01*
X162745800Y-24439600D01*
G37*
G36*
X156908872Y-21789518D02*
G01*
X157063680Y-21853641D01*
X157154739Y-21891359D01*
X157266128Y-21965787D01*
X157376011Y-22039209D01*
X157564191Y-22227389D01*
X157587781Y-22262694D01*
X157695179Y-22423425D01*
X157712042Y-22448663D01*
X157816825Y-22701632D01*
X157819496Y-22710439D01*
X157831048Y-22732050D01*
X157846594Y-22750991D01*
X157865536Y-22766536D01*
X157887147Y-22778086D01*
X157910596Y-22785199D01*
X157934979Y-22787600D01*
X158012483Y-22787600D01*
X158036869Y-22785198D01*
X158060318Y-22778085D01*
X158081929Y-22766534D01*
X158100871Y-22750989D01*
X158116416Y-22732047D01*
X158127967Y-22710436D01*
X158131614Y-22701632D01*
X158167725Y-22614451D01*
X158167725Y-22614450D01*
X158247760Y-22494670D01*
X158277273Y-22450500D01*
X158416700Y-22311073D01*
X158580649Y-22201526D01*
X158596221Y-22195076D01*
X158634005Y-22179425D01*
X158762819Y-22126068D01*
X158859515Y-22106834D01*
X158956209Y-22087600D01*
X159153391Y-22087600D01*
X159346781Y-22126068D01*
X159475595Y-22179425D01*
X159513380Y-22195076D01*
X159528951Y-22201526D01*
X159692900Y-22311073D01*
X159832327Y-22450500D01*
X159941874Y-22614449D01*
X160017332Y-22796619D01*
X160055800Y-22990010D01*
X160055800Y-23187190D01*
X160017332Y-23380581D01*
X159941874Y-23562751D01*
X159832327Y-23726700D01*
X159692900Y-23866127D01*
X159528951Y-23975674D01*
X159346781Y-24051132D01*
X159153391Y-24089600D01*
X158956209Y-24089600D01*
X158859515Y-24070366D01*
X158762819Y-24051132D01*
X158580649Y-23975674D01*
X158416700Y-23866127D01*
X158277273Y-23726700D01*
X158167726Y-23562751D01*
X158167725Y-23562750D01*
X158134556Y-23482672D01*
X158127965Y-23466760D01*
X158116416Y-23445154D01*
X158100871Y-23426212D01*
X158081929Y-23410666D01*
X158060318Y-23399115D01*
X158036869Y-23392002D01*
X158012483Y-23389600D01*
X157934979Y-23389600D01*
X157910593Y-23392002D01*
X157887144Y-23399115D01*
X157865533Y-23410666D01*
X157846591Y-23426211D01*
X157831046Y-23445153D01*
X157819495Y-23466764D01*
X157816824Y-23475568D01*
X157813882Y-23482669D01*
X157813882Y-23482672D01*
X157712041Y-23728539D01*
X157671555Y-23789130D01*
X157564191Y-23949811D01*
X157376011Y-24137991D01*
X157266128Y-24211413D01*
X157154739Y-24285841D01*
X157154738Y-24285842D01*
X157154737Y-24285842D01*
X156908872Y-24387682D01*
X156647863Y-24439600D01*
X156381737Y-24439600D01*
X156120728Y-24387682D01*
X155874863Y-24285842D01*
X155874862Y-24285842D01*
X155874861Y-24285841D01*
X155763472Y-24211413D01*
X155653589Y-24137991D01*
X155465409Y-23949811D01*
X155358045Y-23789130D01*
X155317559Y-23728539D01*
X155230394Y-23518102D01*
X155215718Y-23482672D01*
X155163800Y-23221663D01*
X155163800Y-22955537D01*
X155215718Y-22694528D01*
X155317558Y-22448663D01*
X155334422Y-22423425D01*
X155441819Y-22262694D01*
X155465409Y-22227389D01*
X155653589Y-22039209D01*
X155763472Y-21965787D01*
X155874861Y-21891359D01*
X155965921Y-21853641D01*
X156120728Y-21789518D01*
X156381737Y-21737600D01*
X156647863Y-21737600D01*
X156908872Y-21789518D01*
G37*
G36*
X151015000Y-23964200D02*
G01*
X149213000Y-23964200D01*
X149213000Y-22162200D01*
X151015000Y-22162200D01*
X151015000Y-23964200D01*
G37*
G36*
X174702817Y-22094696D02*
G01*
X174816104Y-22129062D01*
X174920511Y-22184869D01*
X174920513Y-22184870D01*
X174920512Y-22184870D01*
X175012027Y-22259973D01*
X175053963Y-22311073D01*
X175087131Y-22351488D01*
X175142938Y-22455895D01*
X175177304Y-22569182D01*
X175186000Y-22657481D01*
X175186000Y-23316519D01*
X175177304Y-23404818D01*
X175142938Y-23518105D01*
X175087131Y-23622512D01*
X175012027Y-23714027D01*
X174920512Y-23789131D01*
X174816105Y-23844938D01*
X174702818Y-23879304D01*
X174585000Y-23890907D01*
X174467183Y-23879304D01*
X174353896Y-23844938D01*
X174249489Y-23789131D01*
X174157974Y-23714027D01*
X174082871Y-23622514D01*
X174027061Y-23518102D01*
X173992696Y-23404818D01*
X173984000Y-23316519D01*
X173984000Y-22657482D01*
X173992696Y-22569183D01*
X174027062Y-22455896D01*
X174082869Y-22351489D01*
X174116037Y-22311073D01*
X174157973Y-22259973D01*
X174249487Y-22184870D01*
X174249486Y-22184870D01*
X174249488Y-22184869D01*
X174353895Y-22129062D01*
X174467182Y-22094696D01*
X174585000Y-22083093D01*
X174702817Y-22094696D01*
G37*
G36*
X176202817Y-22094696D02*
G01*
X176316104Y-22129062D01*
X176420511Y-22184869D01*
X176420513Y-22184870D01*
X176420512Y-22184870D01*
X176512027Y-22259973D01*
X176553963Y-22311073D01*
X176587131Y-22351488D01*
X176642938Y-22455895D01*
X176677304Y-22569182D01*
X176686000Y-22657481D01*
X176686000Y-23316519D01*
X176677304Y-23404818D01*
X176642938Y-23518105D01*
X176587131Y-23622512D01*
X176512027Y-23714027D01*
X176420512Y-23789131D01*
X176316105Y-23844938D01*
X176202818Y-23879304D01*
X176085000Y-23890907D01*
X175967183Y-23879304D01*
X175853896Y-23844938D01*
X175749489Y-23789131D01*
X175657974Y-23714027D01*
X175582871Y-23622514D01*
X175527061Y-23518102D01*
X175492696Y-23404818D01*
X175484000Y-23316519D01*
X175484000Y-22657482D01*
X175492696Y-22569183D01*
X175527062Y-22455896D01*
X175582869Y-22351489D01*
X175616037Y-22311073D01*
X175657973Y-22259973D01*
X175749487Y-22184870D01*
X175749486Y-22184870D01*
X175749488Y-22184869D01*
X175853895Y-22129062D01*
X175967182Y-22094696D01*
X176085000Y-22083093D01*
X176202817Y-22094696D01*
G37*
G36*
X173202817Y-22094696D02*
G01*
X173316104Y-22129062D01*
X173420511Y-22184869D01*
X173420513Y-22184870D01*
X173420512Y-22184870D01*
X173512027Y-22259973D01*
X173553963Y-22311073D01*
X173587131Y-22351488D01*
X173642938Y-22455895D01*
X173677304Y-22569182D01*
X173686000Y-22657481D01*
X173686000Y-23316519D01*
X173677304Y-23404818D01*
X173642938Y-23518105D01*
X173587131Y-23622512D01*
X173512027Y-23714027D01*
X173420512Y-23789131D01*
X173316105Y-23844938D01*
X173202818Y-23879304D01*
X173085000Y-23890907D01*
X172967183Y-23879304D01*
X172853896Y-23844938D01*
X172749489Y-23789131D01*
X172657974Y-23714027D01*
X172582871Y-23622514D01*
X172527061Y-23518102D01*
X172492696Y-23404818D01*
X172484000Y-23316519D01*
X172484000Y-22657482D01*
X172492696Y-22569183D01*
X172527062Y-22455896D01*
X172582869Y-22351489D01*
X172616037Y-22311073D01*
X172657973Y-22259973D01*
X172749487Y-22184870D01*
X172749486Y-22184870D01*
X172749488Y-22184869D01*
X172853895Y-22129062D01*
X172967182Y-22094696D01*
X173085000Y-22083093D01*
X173202817Y-22094696D01*
G37*
G36*
X171702817Y-22094696D02*
G01*
X171816104Y-22129062D01*
X171920511Y-22184869D01*
X171920513Y-22184870D01*
X171920512Y-22184870D01*
X172012027Y-22259973D01*
X172053963Y-22311073D01*
X172087131Y-22351488D01*
X172142938Y-22455895D01*
X172177304Y-22569182D01*
X172186000Y-22657481D01*
X172186000Y-23316519D01*
X172177304Y-23404818D01*
X172142938Y-23518105D01*
X172087131Y-23622512D01*
X172012027Y-23714027D01*
X171920512Y-23789131D01*
X171816105Y-23844938D01*
X171702818Y-23879304D01*
X171585000Y-23890907D01*
X171467183Y-23879304D01*
X171353896Y-23844938D01*
X171249489Y-23789131D01*
X171157974Y-23714027D01*
X171082871Y-23622514D01*
X171027061Y-23518102D01*
X170992696Y-23404818D01*
X170984000Y-23316519D01*
X170984000Y-22657482D01*
X170992696Y-22569183D01*
X171027062Y-22455896D01*
X171082869Y-22351489D01*
X171116037Y-22311073D01*
X171157973Y-22259973D01*
X171249487Y-22184870D01*
X171249486Y-22184870D01*
X171249488Y-22184869D01*
X171353895Y-22129062D01*
X171467182Y-22094696D01*
X171585000Y-22083093D01*
X171702817Y-22094696D01*
G37*
G36*
X170614691Y-22088292D02*
G01*
X170631170Y-22093291D01*
X170646357Y-22101409D01*
X170659668Y-22112332D01*
X170670591Y-22125643D01*
X170678709Y-22140830D01*
X170683708Y-22157309D01*
X170686000Y-22180582D01*
X170686000Y-23793418D01*
X170683708Y-23816691D01*
X170678709Y-23833170D01*
X170670591Y-23848357D01*
X170659668Y-23861668D01*
X170646357Y-23872591D01*
X170631170Y-23880709D01*
X170614691Y-23885708D01*
X170591418Y-23888000D01*
X169578582Y-23888000D01*
X169555309Y-23885708D01*
X169538830Y-23880709D01*
X169523643Y-23872591D01*
X169510332Y-23861668D01*
X169499409Y-23848357D01*
X169491291Y-23833170D01*
X169486292Y-23816691D01*
X169484000Y-23793418D01*
X169484000Y-22180582D01*
X169486292Y-22157309D01*
X169491291Y-22140830D01*
X169499409Y-22125643D01*
X169510332Y-22112332D01*
X169523643Y-22101409D01*
X169538830Y-22093291D01*
X169555309Y-22088292D01*
X169578582Y-22086000D01*
X170591418Y-22086000D01*
X170614691Y-22088292D01*
G37*
G36*
X194187990Y-21291777D02*
G01*
X194306464Y-21340851D01*
X194413088Y-21412095D01*
X194503765Y-21502772D01*
X194575010Y-21609398D01*
X194624083Y-21727870D01*
X194649100Y-21853641D01*
X194649100Y-21981879D01*
X194624083Y-22107650D01*
X194601488Y-22162200D01*
X194575009Y-22226124D01*
X194503765Y-22332748D01*
X194413088Y-22423425D01*
X194306464Y-22494669D01*
X194306463Y-22494670D01*
X194306462Y-22494670D01*
X194187990Y-22543743D01*
X194062219Y-22568760D01*
X193933981Y-22568760D01*
X193808210Y-22543743D01*
X193689738Y-22494670D01*
X193689737Y-22494670D01*
X193689736Y-22494669D01*
X193583112Y-22423425D01*
X193492435Y-22332748D01*
X193421191Y-22226124D01*
X193394713Y-22162200D01*
X193372117Y-22107650D01*
X193347100Y-21981879D01*
X193347100Y-21853641D01*
X193372117Y-21727870D01*
X193421190Y-21609398D01*
X193492435Y-21502772D01*
X193583112Y-21412095D01*
X193689736Y-21340851D01*
X193808210Y-21291777D01*
X193933981Y-21266760D01*
X194062219Y-21266760D01*
X194187990Y-21291777D01*
G37*
G36*
X182187990Y-21291777D02*
G01*
X182306464Y-21340851D01*
X182413088Y-21412095D01*
X182503765Y-21502772D01*
X182575010Y-21609398D01*
X182624083Y-21727870D01*
X182649100Y-21853641D01*
X182649100Y-21981879D01*
X182624083Y-22107650D01*
X182601488Y-22162200D01*
X182575009Y-22226124D01*
X182503765Y-22332748D01*
X182413088Y-22423425D01*
X182306464Y-22494669D01*
X182306463Y-22494670D01*
X182306462Y-22494670D01*
X182187990Y-22543743D01*
X182062219Y-22568760D01*
X181933981Y-22568760D01*
X181808210Y-22543743D01*
X181689738Y-22494670D01*
X181689737Y-22494670D01*
X181689736Y-22494669D01*
X181583112Y-22423425D01*
X181492435Y-22332748D01*
X181421191Y-22226124D01*
X181394713Y-22162200D01*
X181372117Y-22107650D01*
X181347100Y-21981879D01*
X181347100Y-21853641D01*
X181372117Y-21727870D01*
X181421190Y-21609398D01*
X181492435Y-21502772D01*
X181583112Y-21412095D01*
X181689736Y-21340851D01*
X181808210Y-21291777D01*
X181933981Y-21266760D01*
X182062219Y-21266760D01*
X182187990Y-21291777D01*
G37*
M02*
