M48
; DRILL file KiCad 10.0.1 date 2026-04-26T18:35:06
; FORMAT={-:-/ absolute / metric / decimal}
; #@! TF.CreationDate,2026-04-26T18:35:06+02:00
; #@! TF.GenerationSoftware,Kicad,Pcbnew,10.0.1
; #@! TF.FileFunction,Plated,1,2,PTH
FMAT,2
METRIC
; #@! TA.AperFunction,Plated,PTH,ViaDrill
T1C0.300
; #@! TA.AperFunction,Plated,PTH,ViaDrill
T2C0.305
; #@! TA.AperFunction,Plated,PTH,ComponentDrill
T3C0.914
; #@! TA.AperFunction,Plated,PTH,ComponentDrill
T4C0.965
; #@! TA.AperFunction,Plated,PTH,ComponentDrill
T5C1.100
%
G90
G05
T1
X111.14Y-111.04
X122.94Y-100.78
X162.0Y-111.83
T2
X109.304Y-107.793
X111.082Y-109.388
X118.448Y-98.72
X123.02Y-103.038
X162.136Y-105.302
X163.406Y-106.572
X169.756Y-109.642
T3
X173.566Y-104.181
X173.566Y-106.721
X173.566Y-109.261
X176.106Y-102.911
X176.106Y-105.451
X176.106Y-107.991
T5
X166.2Y-100.752
X166.2Y-103.292
X166.2Y-105.832
X166.2Y-108.372
X170.264Y-100.752
X170.264Y-103.292
X170.264Y-105.832
X170.264Y-108.372
T4
G00X116.924Y-98.469
M15
G01X116.924Y-98.463
M16
G05
G00X116.924Y-104.819
M15
G01X116.924Y-104.813
M16
G05
G00X116.924Y-107.359
M15
G01X116.924Y-107.353
M16
G05
G00X116.924Y-111.169
M15
G01X116.924Y-111.163
M16
G05
G00X116.924Y-113.709
M15
G01X116.924Y-113.703
M16
G05
G00X119.464Y-98.469
M15
G01X119.464Y-98.463
M16
G05
G00X119.464Y-101.009
M15
G01X119.464Y-101.003
M16
G05
G00X119.464Y-113.709
M15
G01X119.464Y-113.703
M16
G05
G00X122.004Y-98.469
M15
G01X122.004Y-98.463
M16
G05
G00X122.004Y-113.709
M15
G01X122.004Y-113.703
M16
G05
G00X124.544Y-98.469
M15
G01X124.544Y-98.463
M16
G05
G00X124.544Y-113.709
M15
G01X124.544Y-113.703
M16
G05
G00X127.084Y-98.469
M15
G01X127.084Y-98.463
M16
G05
G00X127.084Y-113.709
M15
G01X127.084Y-113.703
M16
G05
G00X129.624Y-98.469
M15
G01X129.624Y-98.463
M16
G05
G00X129.624Y-113.709
M15
G01X129.624Y-113.703
M16
G05
G00X132.164Y-98.469
M15
G01X132.164Y-98.463
M16
G05
G00X132.164Y-113.709
M15
G01X132.164Y-113.703
M16
G05
G00X134.704Y-98.469
M15
G01X134.704Y-98.463
M16
G05
G00X134.704Y-113.709
M15
G01X134.704Y-113.703
M16
G05
G00X137.244Y-98.469
M15
G01X137.244Y-98.463
M16
G05
G00X137.244Y-113.709
M15
G01X137.244Y-113.703
M16
G05
G00X139.784Y-98.469
M15
G01X139.784Y-98.463
M16
G05
G00X139.784Y-113.709
M15
G01X139.784Y-113.703
M16
G05
G00X142.324Y-98.469
M15
G01X142.324Y-98.463
M16
G05
G00X142.324Y-113.709
M15
G01X142.324Y-113.703
M16
G05
G00X144.864Y-98.469
M15
G01X144.864Y-98.463
M16
G05
G00X144.864Y-113.709
M15
G01X144.864Y-113.703
M16
G05
G00X147.404Y-98.469
M15
G01X147.404Y-98.463
M16
G05
G00X147.404Y-113.709
M15
G01X147.404Y-113.703
M16
G05
G00X149.944Y-98.469
M15
G01X149.944Y-98.463
M16
G05
G00X149.944Y-101.009
M15
G01X149.944Y-101.003
M16
G05
G00X149.944Y-103.549
M15
G01X149.944Y-103.543
M16
G05
G00X149.944Y-106.089
M15
G01X149.944Y-106.083
M16
G05
G00X149.944Y-108.629
M15
G01X149.944Y-108.623
M16
G05
G00X149.944Y-111.169
M15
G01X149.944Y-111.163
M16
G05
G00X149.944Y-113.709
M15
G01X149.944Y-113.703
M16
G05
M30
