%TF.GenerationSoftware,KiCad,Pcbnew,10.0.1*%
%TF.CreationDate,2026-04-26T18:34:52+02:00*%
%TF.ProjectId,ProPrj_DNMS_TEENSY_2025-10-10,50726f50-726a-45f4-944e-4d535f544545,rev?*%
%TF.SameCoordinates,Original*%
%TF.FileFunction,Soldermask,Top*%
%TF.FilePolarity,Negative*%
%FSLAX46Y46*%
G04 Gerber Fmt 4.6, Leading zero omitted, Abs format (unit mm)*
G04 Created by KiCad (PCBNEW 10.0.1) date 2026-04-26 18:34:52*
%MOMM*%
%LPD*%
G01*
G04 APERTURE LIST*
%ADD10R,0.500000X0.800000*%
%ADD11R,0.864000X0.806500*%
%ADD12R,0.800000X0.900000*%
%ADD13R,1.550000X0.600000*%
%ADD14R,2.000000X1.500000*%
%ADD15O,0.588000X2.045000*%
%ADD16R,1.524000X1.524000*%
%ADD17C,1.524000*%
%ADD18R,0.900000X0.800000*%
%ADD19R,1.700000X1.700000*%
%ADD20C,1.700000*%
%ADD21C,1.473000*%
G04 APERTURE END LIST*
D10*
%TO.C,F1*%
X169814000Y-112182000D03*
X170714000Y-112182000D03*
%TD*%
D11*
%TO.C,R2*%
X158086000Y-110126500D03*
X158086000Y-111633500D03*
%TD*%
D12*
%TO.C,HB1*%
X112414000Y-98720000D03*
X113814000Y-98720000D03*
%TD*%
D13*
%TO.C,MIC1*%
X108193500Y-107142000D03*
X108193500Y-108142000D03*
X108193500Y-109142000D03*
X108193500Y-110142000D03*
X108193500Y-111142000D03*
X108193500Y-112142000D03*
D14*
X104318500Y-113442000D03*
X104318500Y-105842000D03*
%TD*%
D15*
%TO.C,HFT1*%
X163660000Y-102551500D03*
X162390000Y-102551500D03*
X161120000Y-102551500D03*
X159850000Y-102551500D03*
X159850000Y-108096500D03*
X161120000Y-108096500D03*
X162390000Y-108096500D03*
X163660000Y-108096500D03*
%TD*%
D16*
%TO.C,RJ1*%
X173566000Y-109261000D03*
D17*
X176106000Y-107991000D03*
X173566000Y-106721000D03*
X176106000Y-105451000D03*
X173566000Y-104181000D03*
X176106000Y-102911000D03*
%TD*%
D18*
%TO.C,RB1*%
X163801000Y-111580000D03*
X163801000Y-110180000D03*
%TD*%
D12*
%TO.C,ET1*%
X113687000Y-113579000D03*
X112287000Y-113579000D03*
%TD*%
D19*
%TO.C,J2*%
X166200000Y-108372000D03*
D20*
X166200000Y-105832000D03*
X166200000Y-103292000D03*
X166200000Y-100752000D03*
%TD*%
D21*
%TO.C,U1*%
X116924000Y-113706000D03*
X119464000Y-113706000D03*
X122004000Y-113706000D03*
X124544000Y-113706000D03*
X127084000Y-113706000D03*
X129624000Y-113706000D03*
X132164000Y-113706000D03*
X134704000Y-113706000D03*
X137244000Y-113706000D03*
X139784000Y-113706000D03*
X142324000Y-113706000D03*
X144864000Y-113706000D03*
X147404000Y-113706000D03*
X149944000Y-113706000D03*
X149944000Y-111166000D03*
X149944000Y-108626000D03*
X149944000Y-106086000D03*
X149944000Y-103546000D03*
X149944000Y-101006000D03*
X149944000Y-98466000D03*
X147404000Y-98466000D03*
X144864000Y-98466000D03*
X142324000Y-98466000D03*
X139784000Y-98466000D03*
X137244000Y-98466000D03*
X134704000Y-98466000D03*
X132164000Y-98466000D03*
X129624000Y-98466000D03*
X127084000Y-98466000D03*
X124544000Y-98466000D03*
X122004000Y-98466000D03*
X119464000Y-98466000D03*
X116924000Y-98466000D03*
X119464000Y-101006000D03*
X116924000Y-104816000D03*
X116924000Y-107356000D03*
X116924000Y-111166000D03*
%TD*%
D19*
%TO.C,J3*%
X170264000Y-108372000D03*
D20*
X170264000Y-105832000D03*
X170264000Y-103292000D03*
X170264000Y-100752000D03*
%TD*%
D11*
%TO.C,R1*%
X160880000Y-110126500D03*
X160880000Y-111633500D03*
%TD*%
M02*
