%TF.GenerationSoftware,KiCad,Pcbnew,10.0.1*%
%TF.CreationDate,2026-04-26T18:34:52+02:00*%
%TF.ProjectId,ProPrj_DNMS_TEENSY_2025-10-10,50726f50-726a-45f4-944e-4d535f544545,rev?*%
%TF.SameCoordinates,Original*%
%TF.FileFunction,Profile,NP*%
%FSLAX46Y46*%
G04 Gerber Fmt 4.6, Leading zero omitted, Abs format (unit mm)*
G04 Created by KiCad (PCBNEW 10.0.1) date 2026-04-26 18:34:52*
%MOMM*%
%LPD*%
G01*
G04 APERTURE LIST*
%TA.AperFunction,Profile*%
%ADD10C,0.254000*%
%TD*%
%TA.AperFunction,Profile*%
%ADD11C,0.000000*%
%TD*%
G04 APERTURE END LIST*
D10*
X103081000Y-96815000D02*
X193081000Y-96815000D01*
X103081000Y-115306000D02*
X103081000Y-96815000D01*
X193081000Y-96815000D02*
X193081000Y-115306000D01*
X193081000Y-115306000D02*
X103081000Y-115306000D01*
D11*
%TA.AperFunction,Profile*%
%TO.C,RJ1*%
G36*
X182835349Y-99425899D02*
G01*
X183077861Y-99504696D01*
X183305060Y-99620460D01*
X183511353Y-99770340D01*
X183691660Y-99950647D01*
X183841540Y-100156940D01*
X183957304Y-100384139D01*
X184036101Y-100626651D01*
X184075991Y-100878504D01*
X184075991Y-101133496D01*
X184036101Y-101385349D01*
X183957304Y-101627861D01*
X183841540Y-101855060D01*
X183691660Y-102061353D01*
X183511353Y-102241660D01*
X183305060Y-102391540D01*
X183077861Y-102507304D01*
X182835349Y-102586101D01*
X182583496Y-102625991D01*
X182328504Y-102625991D01*
X182076651Y-102586101D01*
X181834139Y-102507304D01*
X181606940Y-102391540D01*
X181400647Y-102241660D01*
X181220340Y-102061353D01*
X181070460Y-101855060D01*
X180954696Y-101627861D01*
X180875899Y-101385349D01*
X180836009Y-101133496D01*
X180836009Y-100878504D01*
X180875899Y-100626651D01*
X180954696Y-100384139D01*
X181070460Y-100156940D01*
X181220340Y-99950647D01*
X181400647Y-99770340D01*
X181606940Y-99620460D01*
X181834139Y-99504696D01*
X182076651Y-99425899D01*
X182328504Y-99386009D01*
X182583496Y-99386009D01*
X182835349Y-99425899D01*
G37*
%TD.AperFunction*%
%TA.AperFunction,Profile*%
G36*
X182835349Y-109585899D02*
G01*
X183077861Y-109664696D01*
X183305060Y-109780460D01*
X183511353Y-109930340D01*
X183691660Y-110110647D01*
X183841540Y-110316940D01*
X183957304Y-110544139D01*
X184036101Y-110786651D01*
X184075991Y-111038504D01*
X184075991Y-111293496D01*
X184036101Y-111545349D01*
X183957304Y-111787861D01*
X183841540Y-112015060D01*
X183691660Y-112221353D01*
X183511353Y-112401660D01*
X183305060Y-112551540D01*
X183077861Y-112667304D01*
X182835349Y-112746101D01*
X182583496Y-112785991D01*
X182328504Y-112785991D01*
X182076651Y-112746101D01*
X181834139Y-112667304D01*
X181606940Y-112551540D01*
X181400647Y-112401660D01*
X181220340Y-112221353D01*
X181070460Y-112015060D01*
X180954696Y-111787861D01*
X180875899Y-111545349D01*
X180836009Y-111293496D01*
X180836009Y-111038504D01*
X180875899Y-110786651D01*
X180954696Y-110544139D01*
X181070460Y-110316940D01*
X181220340Y-110110647D01*
X181400647Y-109930340D01*
X181606940Y-109780460D01*
X181834139Y-109664696D01*
X182076651Y-109585899D01*
X182328504Y-109546009D01*
X182583496Y-109546009D01*
X182835349Y-109585899D01*
G37*
%TD.AperFunction*%
%TD*%
M02*
