%TF.GenerationSoftware,KiCad,Pcbnew,10.0.1*%
%TF.CreationDate,2026-04-26T18:34:52+02:00*%
%TF.ProjectId,ProPrj_DNMS_TEENSY_2025-10-10,50726f50-726a-45f4-944e-4d535f544545,rev?*%
%TF.SameCoordinates,Original*%
%TF.FileFunction,Paste,Top*%
%TF.FilePolarity,Positive*%
%FSLAX46Y46*%
G04 Gerber Fmt 4.6, Leading zero omitted, Abs format (unit mm)*
G04 Created by KiCad (PCBNEW 10.0.1) date 2026-04-26 18:34:52*
%MOMM*%
%LPD*%
G01*
G04 APERTURE LIST*
%ADD10C,0.000000*%
%ADD11R,0.500000X0.800000*%
%ADD12R,0.864000X0.806500*%
%ADD13R,0.800000X0.900000*%
%ADD14R,1.550000X0.600000*%
%ADD15R,2.000000X1.500000*%
%ADD16O,0.588000X2.045000*%
%ADD17R,0.900000X0.800000*%
G04 APERTURE END LIST*
D10*
%TO.C,R2*%
G36*
X158536000Y-109685000D02*
G01*
X158536000Y-110485000D01*
X158486000Y-110535000D01*
X158244000Y-110535000D01*
X158244000Y-110165000D01*
X157914000Y-110165000D01*
X157914000Y-110535000D01*
X157686000Y-110535000D01*
X157636000Y-110485000D01*
X157636000Y-109685000D01*
X157686000Y-109635000D01*
X158486000Y-109635000D01*
X158536000Y-109685000D01*
G37*
G36*
X157928000Y-111595000D02*
G01*
X158258000Y-111595000D01*
X158258000Y-111225000D01*
X158486000Y-111225000D01*
X158536000Y-111275000D01*
X158536000Y-112075000D01*
X158486000Y-112125000D01*
X157686000Y-112125000D01*
X157636000Y-112075000D01*
X157636000Y-111275000D01*
X157686000Y-111225000D01*
X157928000Y-111225000D01*
X157928000Y-111595000D01*
G37*
%TO.C,R1*%
G36*
X161330000Y-109685000D02*
G01*
X161330000Y-110485000D01*
X161280000Y-110535000D01*
X161038000Y-110535000D01*
X161038000Y-110165000D01*
X160708000Y-110165000D01*
X160708000Y-110535000D01*
X160480000Y-110535000D01*
X160430000Y-110485000D01*
X160430000Y-109685000D01*
X160480000Y-109635000D01*
X161280000Y-109635000D01*
X161330000Y-109685000D01*
G37*
G36*
X160722000Y-111595000D02*
G01*
X161052000Y-111595000D01*
X161052000Y-111225000D01*
X161280000Y-111225000D01*
X161330000Y-111275000D01*
X161330000Y-112075000D01*
X161280000Y-112125000D01*
X160480000Y-112125000D01*
X160430000Y-112075000D01*
X160430000Y-111275000D01*
X160480000Y-111225000D01*
X160722000Y-111225000D01*
X160722000Y-111595000D01*
G37*
%TD*%
D11*
%TO.C,F1*%
X169814000Y-112182000D03*
X170714000Y-112182000D03*
%TD*%
D12*
%TO.C,R2*%
X158086000Y-110126500D03*
X158086000Y-111633500D03*
%TD*%
D13*
%TO.C,HB1*%
X112414000Y-98720000D03*
X113814000Y-98720000D03*
%TD*%
D14*
%TO.C,MIC1*%
X108193500Y-107142000D03*
X108193500Y-108142000D03*
X108193500Y-109142000D03*
X108193500Y-110142000D03*
X108193500Y-111142000D03*
X108193500Y-112142000D03*
D15*
X104318500Y-113442000D03*
X104318500Y-105842000D03*
%TD*%
D16*
%TO.C,HFT1*%
X163660000Y-102551500D03*
X162390000Y-102551500D03*
X161120000Y-102551500D03*
X159850000Y-102551500D03*
X159850000Y-108096500D03*
X161120000Y-108096500D03*
X162390000Y-108096500D03*
X163660000Y-108096500D03*
%TD*%
D17*
%TO.C,RB1*%
X163801000Y-111580000D03*
X163801000Y-110180000D03*
%TD*%
D13*
%TO.C,ET1*%
X113687000Y-113579000D03*
X112287000Y-113579000D03*
%TD*%
D12*
%TO.C,R1*%
X160880000Y-110126500D03*
X160880000Y-111633500D03*
%TD*%
M02*
