%TF.GenerationSoftware,KiCad,Pcbnew,6.0.10-86aedd382b~118~ubuntu22.04.1*%
%TF.CreationDate,2023-01-17T16:43:02+01:00*%
%TF.ProjectId,IM72D128-PCB,494d3732-4431-4323-982d-5043422e6b69,rev?*%
%TF.SameCoordinates,Original*%
%TF.FileFunction,Drillmap*%
%TF.FilePolarity,Positive*%
%FSLAX45Y45*%
G04 Gerber Fmt 4.5, Leading zero omitted, Abs format (unit mm)*
G04 Created by KiCad (PCBNEW 6.0.10-86aedd382b~118~ubuntu22.04.1) date 2023-01-17 16:43:02*
%MOMM*%
%LPD*%
G01*
G04 APERTURE LIST*
%ADD10C,0.050000*%
%ADD11C,0.200000*%
%ADD12C,0.040000*%
G04 APERTURE END LIST*
D10*
X10565000Y-10000000D02*
G75*
G03*
X10565000Y-10000000I-565000J0D01*
G01*
D11*
D12*
X9731822Y-10229408D02*
X9771822Y-10269408D01*
X9771822Y-10229408D02*
X9731822Y-10269408D01*
X10200000Y-9630000D02*
X10240000Y-9670000D01*
X10240000Y-9630000D02*
X10200000Y-9670000D01*
X10200000Y-10310000D02*
X10240000Y-10350000D01*
X10240000Y-10310000D02*
X10200000Y-10350000D01*
D11*
X9690119Y-10877976D02*
X9690119Y-10677976D01*
X9737738Y-10677976D01*
X9766310Y-10687500D01*
X9785357Y-10706548D01*
X9794881Y-10725595D01*
X9804405Y-10763690D01*
X9804405Y-10792262D01*
X9794881Y-10830357D01*
X9785357Y-10849405D01*
X9766310Y-10868452D01*
X9737738Y-10877976D01*
X9690119Y-10877976D01*
X9890119Y-10877976D02*
X9890119Y-10744643D01*
X9890119Y-10782738D02*
X9899643Y-10763690D01*
X9909167Y-10754167D01*
X9928214Y-10744643D01*
X9947262Y-10744643D01*
X10013929Y-10877976D02*
X10013929Y-10744643D01*
X10013929Y-10677976D02*
X10004405Y-10687500D01*
X10013929Y-10697024D01*
X10023452Y-10687500D01*
X10013929Y-10677976D01*
X10013929Y-10697024D01*
X10137738Y-10877976D02*
X10118690Y-10868452D01*
X10109167Y-10849405D01*
X10109167Y-10677976D01*
X10242500Y-10877976D02*
X10223452Y-10868452D01*
X10213929Y-10849405D01*
X10213929Y-10677976D01*
X10471071Y-10877976D02*
X10471071Y-10677976D01*
X10537738Y-10820833D01*
X10604405Y-10677976D01*
X10604405Y-10877976D01*
X10785357Y-10877976D02*
X10785357Y-10773214D01*
X10775833Y-10754167D01*
X10756786Y-10744643D01*
X10718690Y-10744643D01*
X10699643Y-10754167D01*
X10785357Y-10868452D02*
X10766310Y-10877976D01*
X10718690Y-10877976D01*
X10699643Y-10868452D01*
X10690119Y-10849405D01*
X10690119Y-10830357D01*
X10699643Y-10811310D01*
X10718690Y-10801786D01*
X10766310Y-10801786D01*
X10785357Y-10792262D01*
X10880595Y-10744643D02*
X10880595Y-10944643D01*
X10880595Y-10754167D02*
X10899643Y-10744643D01*
X10937738Y-10744643D01*
X10956786Y-10754167D01*
X10966310Y-10763690D01*
X10975833Y-10782738D01*
X10975833Y-10839881D01*
X10966310Y-10858929D01*
X10956786Y-10868452D01*
X10937738Y-10877976D01*
X10899643Y-10877976D01*
X10880595Y-10868452D01*
X11061548Y-10858929D02*
X11071071Y-10868452D01*
X11061548Y-10877976D01*
X11052024Y-10868452D01*
X11061548Y-10858929D01*
X11061548Y-10877976D01*
X11061548Y-10754167D02*
X11071071Y-10763690D01*
X11061548Y-10773214D01*
X11052024Y-10763690D01*
X11061548Y-10754167D01*
X11061548Y-10773214D01*
D12*
X9392500Y-11187500D02*
X9432500Y-11227500D01*
X9432500Y-11187500D02*
X9392500Y-11227500D01*
D11*
X9728214Y-11097976D02*
X9747262Y-11097976D01*
X9766310Y-11107500D01*
X9775833Y-11117024D01*
X9785357Y-11136071D01*
X9794881Y-11174167D01*
X9794881Y-11221786D01*
X9785357Y-11259881D01*
X9775833Y-11278928D01*
X9766310Y-11288452D01*
X9747262Y-11297976D01*
X9728214Y-11297976D01*
X9709167Y-11288452D01*
X9699643Y-11278928D01*
X9690119Y-11259881D01*
X9680595Y-11221786D01*
X9680595Y-11174167D01*
X9690119Y-11136071D01*
X9699643Y-11117024D01*
X9709167Y-11107500D01*
X9728214Y-11097976D01*
X9880595Y-11278928D02*
X9890119Y-11288452D01*
X9880595Y-11297976D01*
X9871071Y-11288452D01*
X9880595Y-11278928D01*
X9880595Y-11297976D01*
X10061548Y-11164643D02*
X10061548Y-11297976D01*
X10013929Y-11088452D02*
X9966310Y-11231309D01*
X10090119Y-11231309D01*
X10204405Y-11097976D02*
X10223452Y-11097976D01*
X10242500Y-11107500D01*
X10252024Y-11117024D01*
X10261548Y-11136071D01*
X10271071Y-11174167D01*
X10271071Y-11221786D01*
X10261548Y-11259881D01*
X10252024Y-11278928D01*
X10242500Y-11288452D01*
X10223452Y-11297976D01*
X10204405Y-11297976D01*
X10185357Y-11288452D01*
X10175833Y-11278928D01*
X10166310Y-11259881D01*
X10156786Y-11221786D01*
X10156786Y-11174167D01*
X10166310Y-11136071D01*
X10175833Y-11117024D01*
X10185357Y-11107500D01*
X10204405Y-11097976D01*
X10394881Y-11097976D02*
X10413929Y-11097976D01*
X10432976Y-11107500D01*
X10442500Y-11117024D01*
X10452024Y-11136071D01*
X10461548Y-11174167D01*
X10461548Y-11221786D01*
X10452024Y-11259881D01*
X10442500Y-11278928D01*
X10432976Y-11288452D01*
X10413929Y-11297976D01*
X10394881Y-11297976D01*
X10375833Y-11288452D01*
X10366310Y-11278928D01*
X10356786Y-11259881D01*
X10347262Y-11221786D01*
X10347262Y-11174167D01*
X10356786Y-11136071D01*
X10366310Y-11117024D01*
X10375833Y-11107500D01*
X10394881Y-11097976D01*
X10547262Y-11297976D02*
X10547262Y-11164643D01*
X10547262Y-11183690D02*
X10556786Y-11174167D01*
X10575833Y-11164643D01*
X10604405Y-11164643D01*
X10623452Y-11174167D01*
X10632976Y-11193214D01*
X10632976Y-11297976D01*
X10632976Y-11193214D02*
X10642500Y-11174167D01*
X10661548Y-11164643D01*
X10690119Y-11164643D01*
X10709167Y-11174167D01*
X10718690Y-11193214D01*
X10718690Y-11297976D01*
X10813929Y-11297976D02*
X10813929Y-11164643D01*
X10813929Y-11183690D02*
X10823452Y-11174167D01*
X10842500Y-11164643D01*
X10871071Y-11164643D01*
X10890119Y-11174167D01*
X10899643Y-11193214D01*
X10899643Y-11297976D01*
X10899643Y-11193214D02*
X10909167Y-11174167D01*
X10928214Y-11164643D01*
X10956786Y-11164643D01*
X10975833Y-11174167D01*
X10985357Y-11193214D01*
X10985357Y-11297976D01*
X11375833Y-11088452D02*
X11204405Y-11345595D01*
X11632976Y-11097976D02*
X11652024Y-11097976D01*
X11671071Y-11107500D01*
X11680595Y-11117024D01*
X11690119Y-11136071D01*
X11699643Y-11174167D01*
X11699643Y-11221786D01*
X11690119Y-11259881D01*
X11680595Y-11278928D01*
X11671071Y-11288452D01*
X11652024Y-11297976D01*
X11632976Y-11297976D01*
X11613928Y-11288452D01*
X11604405Y-11278928D01*
X11594881Y-11259881D01*
X11585357Y-11221786D01*
X11585357Y-11174167D01*
X11594881Y-11136071D01*
X11604405Y-11117024D01*
X11613928Y-11107500D01*
X11632976Y-11097976D01*
X11785357Y-11278928D02*
X11794881Y-11288452D01*
X11785357Y-11297976D01*
X11775833Y-11288452D01*
X11785357Y-11278928D01*
X11785357Y-11297976D01*
X11918690Y-11097976D02*
X11937738Y-11097976D01*
X11956786Y-11107500D01*
X11966309Y-11117024D01*
X11975833Y-11136071D01*
X11985357Y-11174167D01*
X11985357Y-11221786D01*
X11975833Y-11259881D01*
X11966309Y-11278928D01*
X11956786Y-11288452D01*
X11937738Y-11297976D01*
X11918690Y-11297976D01*
X11899643Y-11288452D01*
X11890119Y-11278928D01*
X11880595Y-11259881D01*
X11871071Y-11221786D01*
X11871071Y-11174167D01*
X11880595Y-11136071D01*
X11890119Y-11117024D01*
X11899643Y-11107500D01*
X11918690Y-11097976D01*
X12175833Y-11297976D02*
X12061548Y-11297976D01*
X12118690Y-11297976D02*
X12118690Y-11097976D01*
X12099643Y-11126548D01*
X12080595Y-11145595D01*
X12061548Y-11155119D01*
X12356786Y-11097976D02*
X12261548Y-11097976D01*
X12252024Y-11193214D01*
X12261548Y-11183690D01*
X12280595Y-11174167D01*
X12328214Y-11174167D01*
X12347262Y-11183690D01*
X12356786Y-11193214D01*
X12366309Y-11212262D01*
X12366309Y-11259881D01*
X12356786Y-11278928D01*
X12347262Y-11288452D01*
X12328214Y-11297976D01*
X12280595Y-11297976D01*
X12261548Y-11288452D01*
X12252024Y-11278928D01*
X12432976Y-11097976D02*
X12566309Y-11097976D01*
X12480595Y-11297976D01*
X12632976Y-11097976D02*
X12632976Y-11136071D01*
X12709167Y-11097976D02*
X12709167Y-11136071D01*
X13004405Y-11374167D02*
X12994881Y-11364643D01*
X12975833Y-11336071D01*
X12966309Y-11317024D01*
X12956786Y-11288452D01*
X12947262Y-11240833D01*
X12947262Y-11202738D01*
X12956786Y-11155119D01*
X12966309Y-11126548D01*
X12975833Y-11107500D01*
X12994881Y-11078929D01*
X13004405Y-11069405D01*
X13061548Y-11097976D02*
X13185357Y-11097976D01*
X13118690Y-11174167D01*
X13147262Y-11174167D01*
X13166309Y-11183690D01*
X13175833Y-11193214D01*
X13185357Y-11212262D01*
X13185357Y-11259881D01*
X13175833Y-11278928D01*
X13166309Y-11288452D01*
X13147262Y-11297976D01*
X13090119Y-11297976D01*
X13071071Y-11288452D01*
X13061548Y-11278928D01*
X13423452Y-11297976D02*
X13423452Y-11097976D01*
X13509167Y-11297976D02*
X13509167Y-11193214D01*
X13499643Y-11174167D01*
X13480595Y-11164643D01*
X13452024Y-11164643D01*
X13432976Y-11174167D01*
X13423452Y-11183690D01*
X13632976Y-11297976D02*
X13613928Y-11288452D01*
X13604405Y-11278928D01*
X13594881Y-11259881D01*
X13594881Y-11202738D01*
X13604405Y-11183690D01*
X13613928Y-11174167D01*
X13632976Y-11164643D01*
X13661548Y-11164643D01*
X13680595Y-11174167D01*
X13690119Y-11183690D01*
X13699643Y-11202738D01*
X13699643Y-11259881D01*
X13690119Y-11278928D01*
X13680595Y-11288452D01*
X13661548Y-11297976D01*
X13632976Y-11297976D01*
X13813928Y-11297976D02*
X13794881Y-11288452D01*
X13785357Y-11269405D01*
X13785357Y-11097976D01*
X13966309Y-11288452D02*
X13947262Y-11297976D01*
X13909167Y-11297976D01*
X13890119Y-11288452D01*
X13880595Y-11269405D01*
X13880595Y-11193214D01*
X13890119Y-11174167D01*
X13909167Y-11164643D01*
X13947262Y-11164643D01*
X13966309Y-11174167D01*
X13975833Y-11193214D01*
X13975833Y-11212262D01*
X13880595Y-11231309D01*
X14052024Y-11288452D02*
X14071071Y-11297976D01*
X14109167Y-11297976D01*
X14128214Y-11288452D01*
X14137738Y-11269405D01*
X14137738Y-11259881D01*
X14128214Y-11240833D01*
X14109167Y-11231309D01*
X14080595Y-11231309D01*
X14061548Y-11221786D01*
X14052024Y-11202738D01*
X14052024Y-11193214D01*
X14061548Y-11174167D01*
X14080595Y-11164643D01*
X14109167Y-11164643D01*
X14128214Y-11174167D01*
X14204405Y-11374167D02*
X14213928Y-11364643D01*
X14232976Y-11336071D01*
X14242500Y-11317024D01*
X14252024Y-11288452D01*
X14261548Y-11240833D01*
X14261548Y-11202738D01*
X14252024Y-11155119D01*
X14242500Y-11126548D01*
X14232976Y-11107500D01*
X14213928Y-11078929D01*
X14204405Y-11069405D01*
M02*
