%TF.GenerationSoftware,KiCad,Pcbnew,7.0.10*%
%TF.CreationDate,2024-02-20T19:25:16+01:00*%
%TF.ProjectId,IM72D128-PCB,494d3732-4431-4323-982d-5043422e6b69,rev?*%
%TF.SameCoordinates,Original*%
%TF.FileFunction,Drillmap*%
%TF.FilePolarity,Positive*%
%FSLAX45Y45*%
G04 Gerber Fmt 4.5, Leading zero omitted, Abs format (unit mm)*
G04 Created by KiCad (PCBNEW 7.0.10) date 2024-02-20 19:25:16*
%MOMM*%
%LPD*%
G01*
G04 APERTURE LIST*
%ADD10C,0.050000*%
%ADD11C,0.200000*%
%ADD12C,0.100000*%
G04 APERTURE END LIST*
D10*
X10565000Y-10000000D02*
G75*
G03*
X9435000Y-10000000I-565000J0D01*
G01*
X9435000Y-10000000D02*
G75*
G03*
X10565000Y-10000000I565000J0D01*
G01*
D11*
D12*
X9960000Y-9892000D02*
X10040000Y-9972000D01*
X10040000Y-9892000D02*
X9960000Y-9972000D01*
D11*
X9693277Y-10878984D02*
X9693277Y-10678984D01*
X9693277Y-10678984D02*
X9740896Y-10678984D01*
X9740896Y-10678984D02*
X9769467Y-10688508D01*
X9769467Y-10688508D02*
X9788515Y-10707555D01*
X9788515Y-10707555D02*
X9798039Y-10726603D01*
X9798039Y-10726603D02*
X9807563Y-10764698D01*
X9807563Y-10764698D02*
X9807563Y-10793270D01*
X9807563Y-10793270D02*
X9798039Y-10831365D01*
X9798039Y-10831365D02*
X9788515Y-10850412D01*
X9788515Y-10850412D02*
X9769467Y-10869460D01*
X9769467Y-10869460D02*
X9740896Y-10878984D01*
X9740896Y-10878984D02*
X9693277Y-10878984D01*
X9893277Y-10878984D02*
X9893277Y-10745650D01*
X9893277Y-10783746D02*
X9902801Y-10764698D01*
X9902801Y-10764698D02*
X9912324Y-10755174D01*
X9912324Y-10755174D02*
X9931372Y-10745650D01*
X9931372Y-10745650D02*
X9950420Y-10745650D01*
X10017086Y-10878984D02*
X10017086Y-10745650D01*
X10017086Y-10678984D02*
X10007563Y-10688508D01*
X10007563Y-10688508D02*
X10017086Y-10698031D01*
X10017086Y-10698031D02*
X10026610Y-10688508D01*
X10026610Y-10688508D02*
X10017086Y-10678984D01*
X10017086Y-10678984D02*
X10017086Y-10698031D01*
X10140896Y-10878984D02*
X10121848Y-10869460D01*
X10121848Y-10869460D02*
X10112324Y-10850412D01*
X10112324Y-10850412D02*
X10112324Y-10678984D01*
X10245658Y-10878984D02*
X10226610Y-10869460D01*
X10226610Y-10869460D02*
X10217086Y-10850412D01*
X10217086Y-10850412D02*
X10217086Y-10678984D01*
X10474229Y-10878984D02*
X10474229Y-10678984D01*
X10474229Y-10678984D02*
X10540896Y-10821841D01*
X10540896Y-10821841D02*
X10607563Y-10678984D01*
X10607563Y-10678984D02*
X10607563Y-10878984D01*
X10788515Y-10878984D02*
X10788515Y-10774222D01*
X10788515Y-10774222D02*
X10778991Y-10755174D01*
X10778991Y-10755174D02*
X10759944Y-10745650D01*
X10759944Y-10745650D02*
X10721848Y-10745650D01*
X10721848Y-10745650D02*
X10702801Y-10755174D01*
X10788515Y-10869460D02*
X10769467Y-10878984D01*
X10769467Y-10878984D02*
X10721848Y-10878984D01*
X10721848Y-10878984D02*
X10702801Y-10869460D01*
X10702801Y-10869460D02*
X10693277Y-10850412D01*
X10693277Y-10850412D02*
X10693277Y-10831365D01*
X10693277Y-10831365D02*
X10702801Y-10812317D01*
X10702801Y-10812317D02*
X10721848Y-10802793D01*
X10721848Y-10802793D02*
X10769467Y-10802793D01*
X10769467Y-10802793D02*
X10788515Y-10793270D01*
X10883753Y-10745650D02*
X10883753Y-10945650D01*
X10883753Y-10755174D02*
X10902801Y-10745650D01*
X10902801Y-10745650D02*
X10940896Y-10745650D01*
X10940896Y-10745650D02*
X10959944Y-10755174D01*
X10959944Y-10755174D02*
X10969467Y-10764698D01*
X10969467Y-10764698D02*
X10978991Y-10783746D01*
X10978991Y-10783746D02*
X10978991Y-10840889D01*
X10978991Y-10840889D02*
X10969467Y-10859936D01*
X10969467Y-10859936D02*
X10959944Y-10869460D01*
X10959944Y-10869460D02*
X10940896Y-10878984D01*
X10940896Y-10878984D02*
X10902801Y-10878984D01*
X10902801Y-10878984D02*
X10883753Y-10869460D01*
X11064705Y-10859936D02*
X11074229Y-10869460D01*
X11074229Y-10869460D02*
X11064705Y-10878984D01*
X11064705Y-10878984D02*
X11055182Y-10869460D01*
X11055182Y-10869460D02*
X11064705Y-10859936D01*
X11064705Y-10859936D02*
X11064705Y-10878984D01*
X11064705Y-10755174D02*
X11074229Y-10764698D01*
X11074229Y-10764698D02*
X11064705Y-10774222D01*
X11064705Y-10774222D02*
X11055182Y-10764698D01*
X11055182Y-10764698D02*
X11064705Y-10755174D01*
X11064705Y-10755174D02*
X11064705Y-10774222D01*
D12*
X9352500Y-11167500D02*
X9432500Y-11247500D01*
X9432500Y-11167500D02*
X9352500Y-11247500D01*
D11*
X9731372Y-11098984D02*
X9750420Y-11098984D01*
X9750420Y-11098984D02*
X9769467Y-11108508D01*
X9769467Y-11108508D02*
X9778991Y-11118031D01*
X9778991Y-11118031D02*
X9788515Y-11137079D01*
X9788515Y-11137079D02*
X9798039Y-11175174D01*
X9798039Y-11175174D02*
X9798039Y-11222793D01*
X9798039Y-11222793D02*
X9788515Y-11260888D01*
X9788515Y-11260888D02*
X9778991Y-11279936D01*
X9778991Y-11279936D02*
X9769467Y-11289460D01*
X9769467Y-11289460D02*
X9750420Y-11298984D01*
X9750420Y-11298984D02*
X9731372Y-11298984D01*
X9731372Y-11298984D02*
X9712324Y-11289460D01*
X9712324Y-11289460D02*
X9702801Y-11279936D01*
X9702801Y-11279936D02*
X9693277Y-11260888D01*
X9693277Y-11260888D02*
X9683753Y-11222793D01*
X9683753Y-11222793D02*
X9683753Y-11175174D01*
X9683753Y-11175174D02*
X9693277Y-11137079D01*
X9693277Y-11137079D02*
X9702801Y-11118031D01*
X9702801Y-11118031D02*
X9712324Y-11108508D01*
X9712324Y-11108508D02*
X9731372Y-11098984D01*
X9883753Y-11279936D02*
X9893277Y-11289460D01*
X9893277Y-11289460D02*
X9883753Y-11298984D01*
X9883753Y-11298984D02*
X9874229Y-11289460D01*
X9874229Y-11289460D02*
X9883753Y-11279936D01*
X9883753Y-11279936D02*
X9883753Y-11298984D01*
X10007563Y-11184698D02*
X9988515Y-11175174D01*
X9988515Y-11175174D02*
X9978991Y-11165650D01*
X9978991Y-11165650D02*
X9969467Y-11146603D01*
X9969467Y-11146603D02*
X9969467Y-11137079D01*
X9969467Y-11137079D02*
X9978991Y-11118031D01*
X9978991Y-11118031D02*
X9988515Y-11108508D01*
X9988515Y-11108508D02*
X10007563Y-11098984D01*
X10007563Y-11098984D02*
X10045658Y-11098984D01*
X10045658Y-11098984D02*
X10064705Y-11108508D01*
X10064705Y-11108508D02*
X10074229Y-11118031D01*
X10074229Y-11118031D02*
X10083753Y-11137079D01*
X10083753Y-11137079D02*
X10083753Y-11146603D01*
X10083753Y-11146603D02*
X10074229Y-11165650D01*
X10074229Y-11165650D02*
X10064705Y-11175174D01*
X10064705Y-11175174D02*
X10045658Y-11184698D01*
X10045658Y-11184698D02*
X10007563Y-11184698D01*
X10007563Y-11184698D02*
X9988515Y-11194222D01*
X9988515Y-11194222D02*
X9978991Y-11203746D01*
X9978991Y-11203746D02*
X9969467Y-11222793D01*
X9969467Y-11222793D02*
X9969467Y-11260888D01*
X9969467Y-11260888D02*
X9978991Y-11279936D01*
X9978991Y-11279936D02*
X9988515Y-11289460D01*
X9988515Y-11289460D02*
X10007563Y-11298984D01*
X10007563Y-11298984D02*
X10045658Y-11298984D01*
X10045658Y-11298984D02*
X10064705Y-11289460D01*
X10064705Y-11289460D02*
X10074229Y-11279936D01*
X10074229Y-11279936D02*
X10083753Y-11260888D01*
X10083753Y-11260888D02*
X10083753Y-11222793D01*
X10083753Y-11222793D02*
X10074229Y-11203746D01*
X10074229Y-11203746D02*
X10064705Y-11194222D01*
X10064705Y-11194222D02*
X10045658Y-11184698D01*
X10207563Y-11098984D02*
X10226610Y-11098984D01*
X10226610Y-11098984D02*
X10245658Y-11108508D01*
X10245658Y-11108508D02*
X10255182Y-11118031D01*
X10255182Y-11118031D02*
X10264705Y-11137079D01*
X10264705Y-11137079D02*
X10274229Y-11175174D01*
X10274229Y-11175174D02*
X10274229Y-11222793D01*
X10274229Y-11222793D02*
X10264705Y-11260888D01*
X10264705Y-11260888D02*
X10255182Y-11279936D01*
X10255182Y-11279936D02*
X10245658Y-11289460D01*
X10245658Y-11289460D02*
X10226610Y-11298984D01*
X10226610Y-11298984D02*
X10207563Y-11298984D01*
X10207563Y-11298984D02*
X10188515Y-11289460D01*
X10188515Y-11289460D02*
X10178991Y-11279936D01*
X10178991Y-11279936D02*
X10169467Y-11260888D01*
X10169467Y-11260888D02*
X10159944Y-11222793D01*
X10159944Y-11222793D02*
X10159944Y-11175174D01*
X10159944Y-11175174D02*
X10169467Y-11137079D01*
X10169467Y-11137079D02*
X10178991Y-11118031D01*
X10178991Y-11118031D02*
X10188515Y-11108508D01*
X10188515Y-11108508D02*
X10207563Y-11098984D01*
X10398039Y-11098984D02*
X10417086Y-11098984D01*
X10417086Y-11098984D02*
X10436134Y-11108508D01*
X10436134Y-11108508D02*
X10445658Y-11118031D01*
X10445658Y-11118031D02*
X10455182Y-11137079D01*
X10455182Y-11137079D02*
X10464705Y-11175174D01*
X10464705Y-11175174D02*
X10464705Y-11222793D01*
X10464705Y-11222793D02*
X10455182Y-11260888D01*
X10455182Y-11260888D02*
X10445658Y-11279936D01*
X10445658Y-11279936D02*
X10436134Y-11289460D01*
X10436134Y-11289460D02*
X10417086Y-11298984D01*
X10417086Y-11298984D02*
X10398039Y-11298984D01*
X10398039Y-11298984D02*
X10378991Y-11289460D01*
X10378991Y-11289460D02*
X10369467Y-11279936D01*
X10369467Y-11279936D02*
X10359944Y-11260888D01*
X10359944Y-11260888D02*
X10350420Y-11222793D01*
X10350420Y-11222793D02*
X10350420Y-11175174D01*
X10350420Y-11175174D02*
X10359944Y-11137079D01*
X10359944Y-11137079D02*
X10369467Y-11118031D01*
X10369467Y-11118031D02*
X10378991Y-11108508D01*
X10378991Y-11108508D02*
X10398039Y-11098984D01*
X10550420Y-11298984D02*
X10550420Y-11165650D01*
X10550420Y-11184698D02*
X10559944Y-11175174D01*
X10559944Y-11175174D02*
X10578991Y-11165650D01*
X10578991Y-11165650D02*
X10607563Y-11165650D01*
X10607563Y-11165650D02*
X10626610Y-11175174D01*
X10626610Y-11175174D02*
X10636134Y-11194222D01*
X10636134Y-11194222D02*
X10636134Y-11298984D01*
X10636134Y-11194222D02*
X10645658Y-11175174D01*
X10645658Y-11175174D02*
X10664705Y-11165650D01*
X10664705Y-11165650D02*
X10693277Y-11165650D01*
X10693277Y-11165650D02*
X10712325Y-11175174D01*
X10712325Y-11175174D02*
X10721848Y-11194222D01*
X10721848Y-11194222D02*
X10721848Y-11298984D01*
X10817086Y-11298984D02*
X10817086Y-11165650D01*
X10817086Y-11184698D02*
X10826610Y-11175174D01*
X10826610Y-11175174D02*
X10845658Y-11165650D01*
X10845658Y-11165650D02*
X10874229Y-11165650D01*
X10874229Y-11165650D02*
X10893277Y-11175174D01*
X10893277Y-11175174D02*
X10902801Y-11194222D01*
X10902801Y-11194222D02*
X10902801Y-11298984D01*
X10902801Y-11194222D02*
X10912325Y-11175174D01*
X10912325Y-11175174D02*
X10931372Y-11165650D01*
X10931372Y-11165650D02*
X10959944Y-11165650D01*
X10959944Y-11165650D02*
X10978991Y-11175174D01*
X10978991Y-11175174D02*
X10988515Y-11194222D01*
X10988515Y-11194222D02*
X10988515Y-11298984D01*
X11378991Y-11089460D02*
X11207563Y-11346603D01*
X11636134Y-11098984D02*
X11655182Y-11098984D01*
X11655182Y-11098984D02*
X11674229Y-11108508D01*
X11674229Y-11108508D02*
X11683753Y-11118031D01*
X11683753Y-11118031D02*
X11693277Y-11137079D01*
X11693277Y-11137079D02*
X11702801Y-11175174D01*
X11702801Y-11175174D02*
X11702801Y-11222793D01*
X11702801Y-11222793D02*
X11693277Y-11260888D01*
X11693277Y-11260888D02*
X11683753Y-11279936D01*
X11683753Y-11279936D02*
X11674229Y-11289460D01*
X11674229Y-11289460D02*
X11655182Y-11298984D01*
X11655182Y-11298984D02*
X11636134Y-11298984D01*
X11636134Y-11298984D02*
X11617086Y-11289460D01*
X11617086Y-11289460D02*
X11607563Y-11279936D01*
X11607563Y-11279936D02*
X11598039Y-11260888D01*
X11598039Y-11260888D02*
X11588515Y-11222793D01*
X11588515Y-11222793D02*
X11588515Y-11175174D01*
X11588515Y-11175174D02*
X11598039Y-11137079D01*
X11598039Y-11137079D02*
X11607563Y-11118031D01*
X11607563Y-11118031D02*
X11617086Y-11108508D01*
X11617086Y-11108508D02*
X11636134Y-11098984D01*
X11788515Y-11279936D02*
X11798039Y-11289460D01*
X11798039Y-11289460D02*
X11788515Y-11298984D01*
X11788515Y-11298984D02*
X11778991Y-11289460D01*
X11778991Y-11289460D02*
X11788515Y-11279936D01*
X11788515Y-11279936D02*
X11788515Y-11298984D01*
X11921848Y-11098984D02*
X11940896Y-11098984D01*
X11940896Y-11098984D02*
X11959944Y-11108508D01*
X11959944Y-11108508D02*
X11969467Y-11118031D01*
X11969467Y-11118031D02*
X11978991Y-11137079D01*
X11978991Y-11137079D02*
X11988515Y-11175174D01*
X11988515Y-11175174D02*
X11988515Y-11222793D01*
X11988515Y-11222793D02*
X11978991Y-11260888D01*
X11978991Y-11260888D02*
X11969467Y-11279936D01*
X11969467Y-11279936D02*
X11959944Y-11289460D01*
X11959944Y-11289460D02*
X11940896Y-11298984D01*
X11940896Y-11298984D02*
X11921848Y-11298984D01*
X11921848Y-11298984D02*
X11902801Y-11289460D01*
X11902801Y-11289460D02*
X11893277Y-11279936D01*
X11893277Y-11279936D02*
X11883753Y-11260888D01*
X11883753Y-11260888D02*
X11874229Y-11222793D01*
X11874229Y-11222793D02*
X11874229Y-11175174D01*
X11874229Y-11175174D02*
X11883753Y-11137079D01*
X11883753Y-11137079D02*
X11893277Y-11118031D01*
X11893277Y-11118031D02*
X11902801Y-11108508D01*
X11902801Y-11108508D02*
X11921848Y-11098984D01*
X12055182Y-11098984D02*
X12178991Y-11098984D01*
X12178991Y-11098984D02*
X12112325Y-11175174D01*
X12112325Y-11175174D02*
X12140896Y-11175174D01*
X12140896Y-11175174D02*
X12159944Y-11184698D01*
X12159944Y-11184698D02*
X12169467Y-11194222D01*
X12169467Y-11194222D02*
X12178991Y-11213269D01*
X12178991Y-11213269D02*
X12178991Y-11260888D01*
X12178991Y-11260888D02*
X12169467Y-11279936D01*
X12169467Y-11279936D02*
X12159944Y-11289460D01*
X12159944Y-11289460D02*
X12140896Y-11298984D01*
X12140896Y-11298984D02*
X12083753Y-11298984D01*
X12083753Y-11298984D02*
X12064706Y-11289460D01*
X12064706Y-11289460D02*
X12055182Y-11279936D01*
X12369467Y-11298984D02*
X12255182Y-11298984D01*
X12312325Y-11298984D02*
X12312325Y-11098984D01*
X12312325Y-11098984D02*
X12293277Y-11127555D01*
X12293277Y-11127555D02*
X12274229Y-11146603D01*
X12274229Y-11146603D02*
X12255182Y-11156127D01*
X12550420Y-11098984D02*
X12455182Y-11098984D01*
X12455182Y-11098984D02*
X12445658Y-11194222D01*
X12445658Y-11194222D02*
X12455182Y-11184698D01*
X12455182Y-11184698D02*
X12474229Y-11175174D01*
X12474229Y-11175174D02*
X12521848Y-11175174D01*
X12521848Y-11175174D02*
X12540896Y-11184698D01*
X12540896Y-11184698D02*
X12550420Y-11194222D01*
X12550420Y-11194222D02*
X12559944Y-11213269D01*
X12559944Y-11213269D02*
X12559944Y-11260888D01*
X12559944Y-11260888D02*
X12550420Y-11279936D01*
X12550420Y-11279936D02*
X12540896Y-11289460D01*
X12540896Y-11289460D02*
X12521848Y-11298984D01*
X12521848Y-11298984D02*
X12474229Y-11298984D01*
X12474229Y-11298984D02*
X12455182Y-11289460D01*
X12455182Y-11289460D02*
X12445658Y-11279936D01*
X12636134Y-11098984D02*
X12636134Y-11137079D01*
X12712325Y-11098984D02*
X12712325Y-11137079D01*
X13007563Y-11375174D02*
X12998039Y-11365650D01*
X12998039Y-11365650D02*
X12978991Y-11337079D01*
X12978991Y-11337079D02*
X12969468Y-11318031D01*
X12969468Y-11318031D02*
X12959944Y-11289460D01*
X12959944Y-11289460D02*
X12950420Y-11241841D01*
X12950420Y-11241841D02*
X12950420Y-11203746D01*
X12950420Y-11203746D02*
X12959944Y-11156127D01*
X12959944Y-11156127D02*
X12969468Y-11127555D01*
X12969468Y-11127555D02*
X12978991Y-11108508D01*
X12978991Y-11108508D02*
X12998039Y-11079936D01*
X12998039Y-11079936D02*
X13007563Y-11070412D01*
X13188515Y-11298984D02*
X13074229Y-11298984D01*
X13131372Y-11298984D02*
X13131372Y-11098984D01*
X13131372Y-11098984D02*
X13112325Y-11127555D01*
X13112325Y-11127555D02*
X13093277Y-11146603D01*
X13093277Y-11146603D02*
X13074229Y-11156127D01*
X13426610Y-11298984D02*
X13426610Y-11098984D01*
X13512325Y-11298984D02*
X13512325Y-11194222D01*
X13512325Y-11194222D02*
X13502801Y-11175174D01*
X13502801Y-11175174D02*
X13483753Y-11165650D01*
X13483753Y-11165650D02*
X13455182Y-11165650D01*
X13455182Y-11165650D02*
X13436134Y-11175174D01*
X13436134Y-11175174D02*
X13426610Y-11184698D01*
X13636134Y-11298984D02*
X13617087Y-11289460D01*
X13617087Y-11289460D02*
X13607563Y-11279936D01*
X13607563Y-11279936D02*
X13598039Y-11260888D01*
X13598039Y-11260888D02*
X13598039Y-11203746D01*
X13598039Y-11203746D02*
X13607563Y-11184698D01*
X13607563Y-11184698D02*
X13617087Y-11175174D01*
X13617087Y-11175174D02*
X13636134Y-11165650D01*
X13636134Y-11165650D02*
X13664706Y-11165650D01*
X13664706Y-11165650D02*
X13683753Y-11175174D01*
X13683753Y-11175174D02*
X13693277Y-11184698D01*
X13693277Y-11184698D02*
X13702801Y-11203746D01*
X13702801Y-11203746D02*
X13702801Y-11260888D01*
X13702801Y-11260888D02*
X13693277Y-11279936D01*
X13693277Y-11279936D02*
X13683753Y-11289460D01*
X13683753Y-11289460D02*
X13664706Y-11298984D01*
X13664706Y-11298984D02*
X13636134Y-11298984D01*
X13817087Y-11298984D02*
X13798039Y-11289460D01*
X13798039Y-11289460D02*
X13788515Y-11270412D01*
X13788515Y-11270412D02*
X13788515Y-11098984D01*
X13969468Y-11289460D02*
X13950420Y-11298984D01*
X13950420Y-11298984D02*
X13912325Y-11298984D01*
X13912325Y-11298984D02*
X13893277Y-11289460D01*
X13893277Y-11289460D02*
X13883753Y-11270412D01*
X13883753Y-11270412D02*
X13883753Y-11194222D01*
X13883753Y-11194222D02*
X13893277Y-11175174D01*
X13893277Y-11175174D02*
X13912325Y-11165650D01*
X13912325Y-11165650D02*
X13950420Y-11165650D01*
X13950420Y-11165650D02*
X13969468Y-11175174D01*
X13969468Y-11175174D02*
X13978991Y-11194222D01*
X13978991Y-11194222D02*
X13978991Y-11213269D01*
X13978991Y-11213269D02*
X13883753Y-11232317D01*
X14045658Y-11375174D02*
X14055182Y-11365650D01*
X14055182Y-11365650D02*
X14074230Y-11337079D01*
X14074230Y-11337079D02*
X14083753Y-11318031D01*
X14083753Y-11318031D02*
X14093277Y-11289460D01*
X14093277Y-11289460D02*
X14102801Y-11241841D01*
X14102801Y-11241841D02*
X14102801Y-11203746D01*
X14102801Y-11203746D02*
X14093277Y-11156127D01*
X14093277Y-11156127D02*
X14083753Y-11127555D01*
X14083753Y-11127555D02*
X14074230Y-11108508D01*
X14074230Y-11108508D02*
X14055182Y-11079936D01*
X14055182Y-11079936D02*
X14045658Y-11070412D01*
X14407563Y-11375174D02*
X14398039Y-11365650D01*
X14398039Y-11365650D02*
X14378991Y-11337079D01*
X14378991Y-11337079D02*
X14369468Y-11318031D01*
X14369468Y-11318031D02*
X14359944Y-11289460D01*
X14359944Y-11289460D02*
X14350420Y-11241841D01*
X14350420Y-11241841D02*
X14350420Y-11203746D01*
X14350420Y-11203746D02*
X14359944Y-11156127D01*
X14359944Y-11156127D02*
X14369468Y-11127555D01*
X14369468Y-11127555D02*
X14378991Y-11108508D01*
X14378991Y-11108508D02*
X14398039Y-11079936D01*
X14398039Y-11079936D02*
X14407563Y-11070412D01*
X14483753Y-11165650D02*
X14483753Y-11298984D01*
X14483753Y-11184698D02*
X14493277Y-11175174D01*
X14493277Y-11175174D02*
X14512325Y-11165650D01*
X14512325Y-11165650D02*
X14540896Y-11165650D01*
X14540896Y-11165650D02*
X14559944Y-11175174D01*
X14559944Y-11175174D02*
X14569468Y-11194222D01*
X14569468Y-11194222D02*
X14569468Y-11298984D01*
X14693277Y-11298984D02*
X14674230Y-11289460D01*
X14674230Y-11289460D02*
X14664706Y-11279936D01*
X14664706Y-11279936D02*
X14655182Y-11260888D01*
X14655182Y-11260888D02*
X14655182Y-11203746D01*
X14655182Y-11203746D02*
X14664706Y-11184698D01*
X14664706Y-11184698D02*
X14674230Y-11175174D01*
X14674230Y-11175174D02*
X14693277Y-11165650D01*
X14693277Y-11165650D02*
X14721849Y-11165650D01*
X14721849Y-11165650D02*
X14740896Y-11175174D01*
X14740896Y-11175174D02*
X14750420Y-11184698D01*
X14750420Y-11184698D02*
X14759944Y-11203746D01*
X14759944Y-11203746D02*
X14759944Y-11260888D01*
X14759944Y-11260888D02*
X14750420Y-11279936D01*
X14750420Y-11279936D02*
X14740896Y-11289460D01*
X14740896Y-11289460D02*
X14721849Y-11298984D01*
X14721849Y-11298984D02*
X14693277Y-11298984D01*
X14817087Y-11165650D02*
X14893277Y-11165650D01*
X14845658Y-11098984D02*
X14845658Y-11270412D01*
X14845658Y-11270412D02*
X14855182Y-11289460D01*
X14855182Y-11289460D02*
X14874230Y-11298984D01*
X14874230Y-11298984D02*
X14893277Y-11298984D01*
X15112325Y-11165650D02*
X15112325Y-11365650D01*
X15112325Y-11175174D02*
X15131372Y-11165650D01*
X15131372Y-11165650D02*
X15169468Y-11165650D01*
X15169468Y-11165650D02*
X15188515Y-11175174D01*
X15188515Y-11175174D02*
X15198039Y-11184698D01*
X15198039Y-11184698D02*
X15207563Y-11203746D01*
X15207563Y-11203746D02*
X15207563Y-11260888D01*
X15207563Y-11260888D02*
X15198039Y-11279936D01*
X15198039Y-11279936D02*
X15188515Y-11289460D01*
X15188515Y-11289460D02*
X15169468Y-11298984D01*
X15169468Y-11298984D02*
X15131372Y-11298984D01*
X15131372Y-11298984D02*
X15112325Y-11289460D01*
X15321849Y-11298984D02*
X15302801Y-11289460D01*
X15302801Y-11289460D02*
X15293277Y-11270412D01*
X15293277Y-11270412D02*
X15293277Y-11098984D01*
X15483753Y-11298984D02*
X15483753Y-11194222D01*
X15483753Y-11194222D02*
X15474230Y-11175174D01*
X15474230Y-11175174D02*
X15455182Y-11165650D01*
X15455182Y-11165650D02*
X15417087Y-11165650D01*
X15417087Y-11165650D02*
X15398039Y-11175174D01*
X15483753Y-11289460D02*
X15464706Y-11298984D01*
X15464706Y-11298984D02*
X15417087Y-11298984D01*
X15417087Y-11298984D02*
X15398039Y-11289460D01*
X15398039Y-11289460D02*
X15388515Y-11270412D01*
X15388515Y-11270412D02*
X15388515Y-11251365D01*
X15388515Y-11251365D02*
X15398039Y-11232317D01*
X15398039Y-11232317D02*
X15417087Y-11222793D01*
X15417087Y-11222793D02*
X15464706Y-11222793D01*
X15464706Y-11222793D02*
X15483753Y-11213269D01*
X15550420Y-11165650D02*
X15626611Y-11165650D01*
X15578992Y-11098984D02*
X15578992Y-11270412D01*
X15578992Y-11270412D02*
X15588515Y-11289460D01*
X15588515Y-11289460D02*
X15607563Y-11298984D01*
X15607563Y-11298984D02*
X15626611Y-11298984D01*
X15769468Y-11289460D02*
X15750420Y-11298984D01*
X15750420Y-11298984D02*
X15712325Y-11298984D01*
X15712325Y-11298984D02*
X15693277Y-11289460D01*
X15693277Y-11289460D02*
X15683753Y-11270412D01*
X15683753Y-11270412D02*
X15683753Y-11194222D01*
X15683753Y-11194222D02*
X15693277Y-11175174D01*
X15693277Y-11175174D02*
X15712325Y-11165650D01*
X15712325Y-11165650D02*
X15750420Y-11165650D01*
X15750420Y-11165650D02*
X15769468Y-11175174D01*
X15769468Y-11175174D02*
X15778992Y-11194222D01*
X15778992Y-11194222D02*
X15778992Y-11213269D01*
X15778992Y-11213269D02*
X15683753Y-11232317D01*
X15950420Y-11298984D02*
X15950420Y-11098984D01*
X15950420Y-11289460D02*
X15931373Y-11298984D01*
X15931373Y-11298984D02*
X15893277Y-11298984D01*
X15893277Y-11298984D02*
X15874230Y-11289460D01*
X15874230Y-11289460D02*
X15864706Y-11279936D01*
X15864706Y-11279936D02*
X15855182Y-11260888D01*
X15855182Y-11260888D02*
X15855182Y-11203746D01*
X15855182Y-11203746D02*
X15864706Y-11184698D01*
X15864706Y-11184698D02*
X15874230Y-11175174D01*
X15874230Y-11175174D02*
X15893277Y-11165650D01*
X15893277Y-11165650D02*
X15931373Y-11165650D01*
X15931373Y-11165650D02*
X15950420Y-11175174D01*
X16026611Y-11375174D02*
X16036134Y-11365650D01*
X16036134Y-11365650D02*
X16055182Y-11337079D01*
X16055182Y-11337079D02*
X16064706Y-11318031D01*
X16064706Y-11318031D02*
X16074230Y-11289460D01*
X16074230Y-11289460D02*
X16083753Y-11241841D01*
X16083753Y-11241841D02*
X16083753Y-11203746D01*
X16083753Y-11203746D02*
X16074230Y-11156127D01*
X16074230Y-11156127D02*
X16064706Y-11127555D01*
X16064706Y-11127555D02*
X16055182Y-11108508D01*
X16055182Y-11108508D02*
X16036134Y-11079936D01*
X16036134Y-11079936D02*
X16026611Y-11070412D01*
M02*
