G04 #@! TF.GenerationSoftware,KiCad,Pcbnew,6.0.10-86aedd382b~118~ubuntu22.04.1*
G04 #@! TF.CreationDate,2023-01-17T16:43:14+01:00*
G04 #@! TF.ProjectId,IM72D128-PCB,494d3732-4431-4323-982d-5043422e6b69,rev?*
G04 #@! TF.SameCoordinates,Original*
G04 #@! TF.FileFunction,Legend,Top*
G04 #@! TF.FilePolarity,Positive*
%FSLAX46Y46*%
G04 Gerber Fmt 4.6, Leading zero omitted, Abs format (unit mm)*
G04 Created by KiCad (PCBNEW 6.0.10-86aedd382b~118~ubuntu22.04.1) date 2023-01-17 16:43:14*
%MOMM*%
%LPD*%
G01*
G04 APERTURE LIST*
%ADD10C,0.120000*%
%ADD11C,0.015000*%
%ADD12C,0.150000*%
%ADD13C,0.100000*%
%ADD14C,0.127000*%
%ADD15C,0.200000*%
G04 APERTURE END LIST*
D10*
X101500000Y-99200000D02*
X105500000Y-99200000D01*
X101500000Y-100800000D02*
X105500000Y-100800000D01*
X94500000Y-100800000D02*
X98500000Y-100800000D01*
X94500000Y-99200000D02*
X98500000Y-99200000D01*
D11*
X97015476Y-103647380D02*
X97015476Y-102647380D01*
X97348809Y-103361666D01*
X97682142Y-102647380D01*
X97682142Y-103647380D01*
X98158333Y-103647380D02*
X98158333Y-102647380D01*
X98729761Y-103647380D02*
X98301190Y-103075952D01*
X98729761Y-102647380D02*
X98158333Y-103218809D01*
X99682142Y-103647380D02*
X99110714Y-103647380D01*
X99396428Y-103647380D02*
X99396428Y-102647380D01*
X99301190Y-102790238D01*
X99205952Y-102885476D01*
X99110714Y-102933095D01*
D12*
X101336666Y-96115714D02*
X101298571Y-96153809D01*
X101184285Y-96191904D01*
X101108095Y-96191904D01*
X100993809Y-96153809D01*
X100917619Y-96077619D01*
X100879523Y-96001428D01*
X100841428Y-95849047D01*
X100841428Y-95734761D01*
X100879523Y-95582380D01*
X100917619Y-95506190D01*
X100993809Y-95430000D01*
X101108095Y-95391904D01*
X101184285Y-95391904D01*
X101298571Y-95430000D01*
X101336666Y-95468095D01*
X102098571Y-96191904D02*
X101641428Y-96191904D01*
X101870000Y-96191904D02*
X101870000Y-95391904D01*
X101793809Y-95506190D01*
X101717619Y-95582380D01*
X101641428Y-95620476D01*
X101083126Y-104237744D02*
X100816460Y-103856792D01*
X100625983Y-104237744D02*
X100625983Y-103437744D01*
X100930745Y-103437744D01*
X101006936Y-103475840D01*
X101045031Y-103513935D01*
X101083126Y-103590125D01*
X101083126Y-103704411D01*
X101045031Y-103780601D01*
X101006936Y-103818697D01*
X100930745Y-103856792D01*
X100625983Y-103856792D01*
X101845031Y-104237744D02*
X101387888Y-104237744D01*
X101616460Y-104237744D02*
X101616460Y-103437744D01*
X101540269Y-103552030D01*
X101464079Y-103628220D01*
X101387888Y-103666316D01*
D13*
X96233333Y-96996190D02*
X96400000Y-97496190D01*
X96566666Y-96996190D01*
X96733333Y-97496190D02*
X96733333Y-96996190D01*
X96852380Y-96996190D01*
X96923809Y-97020000D01*
X96971428Y-97067619D01*
X96995238Y-97115238D01*
X97019047Y-97210476D01*
X97019047Y-97281904D01*
X96995238Y-97377142D01*
X96971428Y-97424761D01*
X96923809Y-97472380D01*
X96852380Y-97496190D01*
X96733333Y-97496190D01*
X97233333Y-97496190D02*
X97233333Y-96996190D01*
X97352380Y-96996190D01*
X97423809Y-97020000D01*
X97471428Y-97067619D01*
X97495238Y-97115238D01*
X97519047Y-97210476D01*
X97519047Y-97281904D01*
X97495238Y-97377142D01*
X97471428Y-97424761D01*
X97423809Y-97472380D01*
X97352380Y-97496190D01*
X97233333Y-97496190D01*
X103781420Y-102819971D02*
X103757611Y-102843780D01*
X103686182Y-102867590D01*
X103638563Y-102867590D01*
X103567135Y-102843780D01*
X103519516Y-102796161D01*
X103495706Y-102748542D01*
X103471897Y-102653304D01*
X103471897Y-102581876D01*
X103495706Y-102486638D01*
X103519516Y-102439019D01*
X103567135Y-102391400D01*
X103638563Y-102367590D01*
X103686182Y-102367590D01*
X103757611Y-102391400D01*
X103781420Y-102415209D01*
X104233801Y-102867590D02*
X103995706Y-102867590D01*
X103995706Y-102367590D01*
X104400468Y-102867590D02*
X104400468Y-102367590D01*
X104686182Y-102867590D02*
X104471897Y-102581876D01*
X104686182Y-102367590D02*
X104400468Y-102653304D01*
X95338200Y-102918390D02*
X95338200Y-102418390D01*
X95457247Y-102418390D01*
X95528676Y-102442200D01*
X95576295Y-102489819D01*
X95600104Y-102537438D01*
X95623914Y-102632676D01*
X95623914Y-102704104D01*
X95600104Y-102799342D01*
X95576295Y-102846961D01*
X95528676Y-102894580D01*
X95457247Y-102918390D01*
X95338200Y-102918390D01*
X95814390Y-102775533D02*
X96052485Y-102775533D01*
X95766771Y-102918390D02*
X95933438Y-102418390D01*
X96100104Y-102918390D01*
X96195342Y-102418390D02*
X96481057Y-102418390D01*
X96338200Y-102918390D02*
X96338200Y-102418390D01*
X96623914Y-102775533D02*
X96862009Y-102775533D01*
X96576295Y-102918390D02*
X96742961Y-102418390D01*
X96909628Y-102918390D01*
X102759047Y-97020000D02*
X102711428Y-96996190D01*
X102640000Y-96996190D01*
X102568571Y-97020000D01*
X102520952Y-97067619D01*
X102497142Y-97115238D01*
X102473333Y-97210476D01*
X102473333Y-97281904D01*
X102497142Y-97377142D01*
X102520952Y-97424761D01*
X102568571Y-97472380D01*
X102640000Y-97496190D01*
X102687619Y-97496190D01*
X102759047Y-97472380D01*
X102782857Y-97448571D01*
X102782857Y-97281904D01*
X102687619Y-97281904D01*
X102997142Y-97496190D02*
X102997142Y-96996190D01*
X103282857Y-97496190D01*
X103282857Y-96996190D01*
X103520952Y-97496190D02*
X103520952Y-96996190D01*
X103640000Y-96996190D01*
X103711428Y-97020000D01*
X103759047Y-97067619D01*
X103782857Y-97115238D01*
X103806666Y-97210476D01*
X103806666Y-97281904D01*
X103782857Y-97377142D01*
X103759047Y-97424761D01*
X103711428Y-97472380D01*
X103640000Y-97496190D01*
X103520952Y-97496190D01*
X101935351Y-102810760D02*
X102006780Y-102834570D01*
X102125827Y-102834570D01*
X102173446Y-102810760D01*
X102197256Y-102786951D01*
X102221065Y-102739332D01*
X102221065Y-102691713D01*
X102197256Y-102644094D01*
X102173446Y-102620284D01*
X102125827Y-102596475D01*
X102030589Y-102572665D01*
X101982970Y-102548856D01*
X101959160Y-102525046D01*
X101935351Y-102477427D01*
X101935351Y-102429808D01*
X101959160Y-102382189D01*
X101982970Y-102358380D01*
X102030589Y-102334570D01*
X102149637Y-102334570D01*
X102221065Y-102358380D01*
X102435351Y-102572665D02*
X102602018Y-102572665D01*
X102673446Y-102834570D02*
X102435351Y-102834570D01*
X102435351Y-102334570D01*
X102673446Y-102334570D01*
X103125827Y-102834570D02*
X102887732Y-102834570D01*
X102887732Y-102334570D01*
D14*
X101540000Y-102040000D02*
X98460000Y-102040000D01*
X101540000Y-98000000D02*
X101540000Y-102040000D01*
X98460000Y-102040000D02*
X98460000Y-98000000D01*
X98460000Y-98000000D02*
X101540000Y-98000000D01*
D15*
X98200000Y-101820000D02*
G75*
G03*
X98200000Y-101820000I-100000J0D01*
G01*
D10*
X99034381Y-96580420D02*
X99359939Y-96580420D01*
X99034381Y-95560420D02*
X99359939Y-95560420D01*
X98732121Y-104284240D02*
X99057679Y-104284240D01*
X98732121Y-103264240D02*
X99057679Y-103264240D01*
X96200000Y-97900000D02*
X97600000Y-97900000D01*
X96200000Y-99300000D02*
X96200000Y-97900000D01*
X97600000Y-97900000D02*
X97600000Y-99300000D01*
X97600000Y-99300000D02*
X96200000Y-99300000D01*
X103700000Y-100700000D02*
X105100000Y-100700000D01*
X105100000Y-100700000D02*
X105100000Y-102100000D01*
X103700000Y-102100000D02*
X103700000Y-100700000D01*
X105100000Y-102100000D02*
X103700000Y-102100000D01*
X96700000Y-102100000D02*
X95300000Y-102100000D01*
X96700000Y-100700000D02*
X96700000Y-102100000D01*
X95300000Y-100700000D02*
X96700000Y-100700000D01*
X95300000Y-102100000D02*
X95300000Y-100700000D01*
X103800000Y-99300000D02*
X102400000Y-99300000D01*
X103800000Y-97900000D02*
X103800000Y-99300000D01*
X102400000Y-99300000D02*
X102400000Y-97900000D01*
X102400000Y-97900000D02*
X103800000Y-97900000D01*
X101800000Y-100700000D02*
X103200000Y-100700000D01*
X101800000Y-102100000D02*
X101800000Y-100700000D01*
X103200000Y-100700000D02*
X103200000Y-102100000D01*
X103200000Y-102100000D02*
X101800000Y-102100000D01*
M02*
