G04 #@! TF.GenerationSoftware,KiCad,Pcbnew,6.0.10-86aedd382b~118~ubuntu22.04.1*
G04 #@! TF.CreationDate,2023-01-17T16:43:14+01:00*
G04 #@! TF.ProjectId,IM72D128-PCB,494d3732-4431-4323-982d-5043422e6b69,rev?*
G04 #@! TF.SameCoordinates,Original*
G04 #@! TF.FileFunction,Copper,L2,Bot*
G04 #@! TF.FilePolarity,Positive*
%FSLAX46Y46*%
G04 Gerber Fmt 4.6, Leading zero omitted, Abs format (unit mm)*
G04 Created by KiCad (PCBNEW 6.0.10-86aedd382b~118~ubuntu22.04.1) date 2023-01-17 16:43:14*
%MOMM*%
%LPD*%
G01*
G04 APERTURE LIST*
G04 #@! TA.AperFunction,ViaPad*
%ADD10C,0.800000*%
G04 #@! TD*
G04 APERTURE END LIST*
D10*
X97518220Y-102494080D03*
X102200000Y-96500000D03*
X102200000Y-103300000D03*
G04 #@! TA.AperFunction,Conductor*
G36*
X100161445Y-94657402D02*
G01*
X100330617Y-94660945D01*
X100341136Y-94661607D01*
X100511123Y-94679473D01*
X100776225Y-94707337D01*
X100786664Y-94708879D01*
X101216367Y-94790849D01*
X101226641Y-94793258D01*
X101329122Y-94821871D01*
X101648006Y-94910905D01*
X101658032Y-94914162D01*
X102068073Y-95066655D01*
X102077801Y-95070745D01*
X102473622Y-95257005D01*
X102482974Y-95261894D01*
X102646042Y-95356041D01*
X102861836Y-95480630D01*
X102870730Y-95486274D01*
X103229973Y-95735953D01*
X103238359Y-95742318D01*
X103575460Y-96021194D01*
X103583273Y-96028228D01*
X103895861Y-96334336D01*
X103903068Y-96342012D01*
X104188924Y-96673180D01*
X104195463Y-96681430D01*
X104325229Y-96860037D01*
X104452605Y-97035355D01*
X104458445Y-97044145D01*
X104685068Y-97418344D01*
X104690152Y-97427591D01*
X104884663Y-97819432D01*
X104888955Y-97829072D01*
X105049999Y-98235823D01*
X105053469Y-98245789D01*
X105179907Y-98664570D01*
X105182532Y-98674791D01*
X105273490Y-99102716D01*
X105275249Y-99113121D01*
X105330077Y-99547126D01*
X105330960Y-99557642D01*
X105349279Y-99994724D01*
X105349279Y-100005276D01*
X105330960Y-100442358D01*
X105330077Y-100452874D01*
X105275249Y-100886879D01*
X105273490Y-100897284D01*
X105182532Y-101325209D01*
X105179907Y-101335430D01*
X105053469Y-101754211D01*
X105049999Y-101764177D01*
X104888955Y-102170928D01*
X104884663Y-102180568D01*
X104690152Y-102572409D01*
X104685068Y-102581656D01*
X104458445Y-102955855D01*
X104452610Y-102964638D01*
X104195463Y-103318570D01*
X104188924Y-103326820D01*
X104040028Y-103499318D01*
X103903070Y-103657986D01*
X103895861Y-103665664D01*
X103583273Y-103971772D01*
X103575460Y-103978806D01*
X103238359Y-104257682D01*
X103229973Y-104264047D01*
X102870730Y-104513726D01*
X102861836Y-104519370D01*
X102661131Y-104635247D01*
X102482974Y-104738106D01*
X102473622Y-104742995D01*
X102077801Y-104929255D01*
X102068075Y-104933344D01*
X101658032Y-105085838D01*
X101648006Y-105089095D01*
X101553829Y-105115390D01*
X101226641Y-105206742D01*
X101216367Y-105209151D01*
X100786664Y-105291121D01*
X100776225Y-105292663D01*
X100523921Y-105319182D01*
X100341136Y-105338393D01*
X100330617Y-105339055D01*
X100161445Y-105342598D01*
X99893249Y-105348216D01*
X99882699Y-105347995D01*
X99647535Y-105333200D01*
X99446087Y-105320526D01*
X99435613Y-105319425D01*
X99002832Y-105255518D01*
X98992467Y-105253541D01*
X98798984Y-105208160D01*
X98566544Y-105153641D01*
X98556398Y-105150808D01*
X98341536Y-105080996D01*
X98140341Y-105015623D01*
X98130450Y-105011945D01*
X97727162Y-104842418D01*
X97717614Y-104837925D01*
X97329925Y-104635247D01*
X97320786Y-104629970D01*
X96951429Y-104395569D01*
X96942764Y-104389547D01*
X96594310Y-104125056D01*
X96586179Y-104118329D01*
X96261075Y-103825604D01*
X96253535Y-103818221D01*
X95954065Y-103499318D01*
X95947176Y-103491337D01*
X95675431Y-103148479D01*
X95669251Y-103139973D01*
X95427155Y-102775589D01*
X95421688Y-102766563D01*
X95210934Y-102383204D01*
X95206242Y-102373752D01*
X95038825Y-101997725D01*
X95028303Y-101974094D01*
X95024421Y-101964286D01*
X94880556Y-101551163D01*
X94877506Y-101541061D01*
X94768715Y-101117350D01*
X94766521Y-101107028D01*
X94693562Y-100675669D01*
X94692239Y-100665199D01*
X94686918Y-100601824D01*
X94655634Y-100229277D01*
X94655192Y-100218735D01*
X94655192Y-99781265D01*
X94655634Y-99770722D01*
X94659665Y-99722721D01*
X94686672Y-99401105D01*
X99299031Y-99401105D01*
X99338612Y-99565968D01*
X99416375Y-99716631D01*
X99421367Y-99722353D01*
X99421368Y-99722355D01*
X99463561Y-99770722D01*
X99527831Y-99844396D01*
X99534045Y-99848763D01*
X99660330Y-99937518D01*
X99660332Y-99937519D01*
X99666547Y-99941887D01*
X99824513Y-100003476D01*
X99832046Y-100004468D01*
X99832047Y-100004468D01*
X99949739Y-100019962D01*
X99953826Y-100020500D01*
X100042516Y-100020500D01*
X100168320Y-100005276D01*
X100326923Y-99945345D01*
X100466651Y-99849312D01*
X100527279Y-99781265D01*
X100574388Y-99728392D01*
X100574390Y-99728388D01*
X100579440Y-99722721D01*
X100586238Y-99709883D01*
X100655224Y-99579589D01*
X100658776Y-99572881D01*
X100700081Y-99408441D01*
X100700969Y-99238895D01*
X100661388Y-99074032D01*
X100583625Y-98923369D01*
X100578313Y-98917279D01*
X100477163Y-98801329D01*
X100472169Y-98795604D01*
X100413649Y-98754475D01*
X100339670Y-98702482D01*
X100339668Y-98702481D01*
X100333453Y-98698113D01*
X100175487Y-98636524D01*
X100167954Y-98635532D01*
X100167953Y-98635532D01*
X100050261Y-98620038D01*
X100050260Y-98620038D01*
X100046174Y-98619500D01*
X99957484Y-98619500D01*
X99831680Y-98634724D01*
X99673077Y-98694655D01*
X99533349Y-98790688D01*
X99528297Y-98796358D01*
X99528296Y-98796359D01*
X99425612Y-98911608D01*
X99425610Y-98911612D01*
X99420560Y-98917279D01*
X99417008Y-98923988D01*
X99417007Y-98923989D01*
X99384746Y-98984920D01*
X99341224Y-99067119D01*
X99299919Y-99231559D01*
X99299031Y-99401105D01*
X94686672Y-99401105D01*
X94692240Y-99334792D01*
X94693562Y-99324331D01*
X94766521Y-98892972D01*
X94768715Y-98882650D01*
X94877506Y-98458939D01*
X94880556Y-98448837D01*
X95024421Y-98035714D01*
X95028305Y-98025902D01*
X95206242Y-97626248D01*
X95210934Y-97616796D01*
X95421688Y-97233437D01*
X95427155Y-97224411D01*
X95452805Y-97185804D01*
X95669251Y-96860027D01*
X95675431Y-96851521D01*
X95947176Y-96508663D01*
X95954065Y-96500682D01*
X96253535Y-96181779D01*
X96261075Y-96174396D01*
X96586179Y-95881671D01*
X96594310Y-95874944D01*
X96942764Y-95610453D01*
X96951429Y-95604431D01*
X97320786Y-95370030D01*
X97329925Y-95364753D01*
X97717614Y-95162075D01*
X97727162Y-95157582D01*
X98130450Y-94988055D01*
X98140341Y-94984377D01*
X98362099Y-94912323D01*
X98556398Y-94849192D01*
X98566544Y-94846359D01*
X98895573Y-94769185D01*
X98992467Y-94746459D01*
X99002832Y-94744482D01*
X99004156Y-94744286D01*
X99435613Y-94680575D01*
X99446087Y-94679474D01*
X99647535Y-94666800D01*
X99882699Y-94652005D01*
X99893249Y-94651784D01*
X100161445Y-94657402D01*
G37*
G04 #@! TD.AperFunction*
M02*
