G04 #@! TF.GenerationSoftware,KiCad,Pcbnew,7.0.10*
G04 #@! TF.CreationDate,2024-02-20T19:25:24+01:00*
G04 #@! TF.ProjectId,IM72D128-PCB,494d3732-4431-4323-982d-5043422e6b69,rev?*
G04 #@! TF.SameCoordinates,Original*
G04 #@! TF.FileFunction,Copper,L1,Top*
G04 #@! TF.FilePolarity,Positive*
%FSLAX46Y46*%
G04 Gerber Fmt 4.6, Leading zero omitted, Abs format (unit mm)*
G04 Created by KiCad (PCBNEW 7.0.10) date 2024-02-20 19:25:24*
%MOMM*%
%LPD*%
G01*
G04 APERTURE LIST*
G04 Aperture macros list*
%AMRoundRect*
0 Rectangle with rounded corners*
0 $1 Rounding radius*
0 $2 $3 $4 $5 $6 $7 $8 $9 X,Y pos of 4 corners*
0 Add a 4 corners polygon primitive as box body*
4,1,4,$2,$3,$4,$5,$6,$7,$8,$9,$2,$3,0*
0 Add four circle primitives for the rounded corners*
1,1,$1+$1,$2,$3*
1,1,$1+$1,$4,$5*
1,1,$1+$1,$6,$7*
1,1,$1+$1,$8,$9*
0 Add four rect primitives between the rounded corners*
20,1,$1+$1,$2,$3,$4,$5,0*
20,1,$1+$1,$4,$5,$6,$7,0*
20,1,$1+$1,$6,$7,$8,$9,0*
20,1,$1+$1,$8,$9,$2,$3,0*%
G04 Aperture macros list end*
G04 #@! TA.AperFunction,EtchedComponent*
%ADD10C,0.000100*%
G04 #@! TD*
G04 #@! TA.AperFunction,SMDPad,CuDef*
%ADD11RoundRect,0.225000X-0.225000X-0.250000X0.225000X-0.250000X0.225000X0.250000X-0.225000X0.250000X0*%
G04 #@! TD*
G04 #@! TA.AperFunction,SMDPad,CuDef*
%ADD12RoundRect,0.200000X-0.200000X-0.275000X0.200000X-0.275000X0.200000X0.275000X-0.200000X0.275000X0*%
G04 #@! TD*
G04 #@! TA.AperFunction,SMDPad,CuDef*
%ADD13R,1.000000X1.000000*%
G04 #@! TD*
G04 #@! TA.AperFunction,SMDPad,CuDef*
%ADD14R,0.750000X0.450000*%
G04 #@! TD*
G04 #@! TA.AperFunction,SMDPad,CuDef*
%ADD15R,0.100000X0.100000*%
G04 #@! TD*
G04 #@! TA.AperFunction,ViaPad*
%ADD16C,0.800000*%
G04 #@! TD*
G04 #@! TA.AperFunction,Conductor*
%ADD17C,0.500000*%
G04 #@! TD*
G04 #@! TA.AperFunction,Conductor*
%ADD18C,0.250000*%
G04 #@! TD*
G04 APERTURE END LIST*
D10*
X100053906Y-98291412D02*
X100107664Y-98295642D01*
X100161127Y-98302681D01*
X100214149Y-98312508D01*
X100266584Y-98325096D01*
X100318288Y-98340412D01*
X100369119Y-98358412D01*
X100418939Y-98379048D01*
X100467610Y-98402263D01*
X100515000Y-98427994D01*
X100560978Y-98456169D01*
X100605419Y-98486712D01*
X100648200Y-98519540D01*
X100689205Y-98554561D01*
X100728320Y-98591680D01*
X100765439Y-98630795D01*
X100800460Y-98671800D01*
X100833288Y-98714581D01*
X100863831Y-98759022D01*
X100892006Y-98805000D01*
X100917737Y-98852390D01*
X100940952Y-98901061D01*
X100961588Y-98950881D01*
X100979588Y-99001712D01*
X100994904Y-99053416D01*
X101007492Y-99105851D01*
X101017319Y-99158873D01*
X101024358Y-99212336D01*
X101028588Y-99266094D01*
X101030000Y-99320000D01*
X101030000Y-99340000D01*
X101028616Y-99392859D01*
X101024467Y-99445574D01*
X101017565Y-99497999D01*
X101007929Y-99549991D01*
X100995585Y-99601407D01*
X100980567Y-99652107D01*
X100962916Y-99701952D01*
X100942681Y-99750804D01*
X100919917Y-99798530D01*
X100894686Y-99845000D01*
X100867057Y-99890085D01*
X100837107Y-99933663D01*
X100804917Y-99975614D01*
X100770576Y-100015822D01*
X100734178Y-100054178D01*
X100695822Y-100090576D01*
X100655614Y-100124917D01*
X100613663Y-100157107D01*
X100570085Y-100187057D01*
X100525000Y-100214686D01*
X100478530Y-100239917D01*
X100430804Y-100262681D01*
X100381952Y-100282916D01*
X100332107Y-100300567D01*
X100281407Y-100315585D01*
X100229991Y-100327929D01*
X100177999Y-100337565D01*
X100125574Y-100344467D01*
X100072859Y-100348616D01*
X100020000Y-100350000D01*
X100001000Y-100350000D01*
X100001000Y-99900000D01*
X100030271Y-99900254D01*
X100059552Y-99898976D01*
X100088727Y-99896167D01*
X100117715Y-99891834D01*
X100146437Y-99885991D01*
X100174813Y-99878652D01*
X100202766Y-99869839D01*
X100230220Y-99859574D01*
X100257098Y-99847887D01*
X100283329Y-99834809D01*
X100308839Y-99820376D01*
X100333558Y-99804628D01*
X100357420Y-99787608D01*
X100380358Y-99769362D01*
X100402310Y-99749941D01*
X100423215Y-99729397D01*
X100443016Y-99707788D01*
X100461660Y-99685172D01*
X100479094Y-99661611D01*
X100495271Y-99637170D01*
X100510147Y-99611916D01*
X100523681Y-99585918D01*
X100535835Y-99559247D01*
X100546577Y-99531976D01*
X100555877Y-99504181D01*
X100563710Y-99475937D01*
X100570054Y-99447322D01*
X100574891Y-99418415D01*
X100578209Y-99389293D01*
X100580000Y-99360000D01*
X100580000Y-99320000D01*
X100579205Y-99289645D01*
X100576823Y-99259373D01*
X100572859Y-99229268D01*
X100567326Y-99199411D01*
X100560237Y-99169885D01*
X100551613Y-99140770D01*
X100541477Y-99112147D01*
X100529856Y-99084093D01*
X100516784Y-99056686D01*
X100502295Y-99030000D01*
X100486429Y-99004109D01*
X100469230Y-98979085D01*
X100450745Y-98954994D01*
X100431024Y-98931904D01*
X100410122Y-98909878D01*
X100388096Y-98888976D01*
X100365006Y-98869255D01*
X100340915Y-98850770D01*
X100315891Y-98833571D01*
X100290000Y-98817705D01*
X100263314Y-98803216D01*
X100235907Y-98790144D01*
X100207853Y-98778523D01*
X100179230Y-98768387D01*
X100150115Y-98759763D01*
X100120589Y-98752674D01*
X100090732Y-98747141D01*
X100060627Y-98743177D01*
X100030355Y-98740795D01*
X100000000Y-98740000D01*
X99969645Y-98740795D01*
X99939373Y-98743177D01*
X99909268Y-98747141D01*
X99879411Y-98752674D01*
X99849885Y-98759763D01*
X99820770Y-98768387D01*
X99792147Y-98778523D01*
X99764093Y-98790144D01*
X99736686Y-98803216D01*
X99710000Y-98817705D01*
X99684109Y-98833571D01*
X99659085Y-98850770D01*
X99634994Y-98869255D01*
X99611904Y-98888976D01*
X99589878Y-98909878D01*
X99568976Y-98931904D01*
X99549255Y-98954994D01*
X99530770Y-98979085D01*
X99513571Y-99004109D01*
X99497705Y-99030000D01*
X99483216Y-99056686D01*
X99470144Y-99084093D01*
X99458523Y-99112147D01*
X99448387Y-99140770D01*
X99439763Y-99169885D01*
X99432674Y-99199411D01*
X99427141Y-99229268D01*
X99423177Y-99259373D01*
X99420795Y-99289645D01*
X99420000Y-99320000D01*
X99420000Y-99340000D01*
X99421308Y-99370232D01*
X99424166Y-99399914D01*
X99428574Y-99429406D01*
X99434519Y-99458627D01*
X99441985Y-99487497D01*
X99450952Y-99515937D01*
X99461395Y-99543868D01*
X99473286Y-99571215D01*
X99486591Y-99597901D01*
X99501275Y-99623855D01*
X99517297Y-99649005D01*
X99534614Y-99673281D01*
X99553177Y-99696618D01*
X99572936Y-99718952D01*
X99593837Y-99740221D01*
X99615822Y-99760367D01*
X99638832Y-99779335D01*
X99662803Y-99797072D01*
X99687669Y-99813531D01*
X99713363Y-99828665D01*
X99739813Y-99842434D01*
X99766948Y-99854800D01*
X99794692Y-99865729D01*
X99822971Y-99875191D01*
X99851706Y-99883160D01*
X99880819Y-99889614D01*
X99910230Y-99894536D01*
X99939858Y-99897912D01*
X99969622Y-99899732D01*
X99999000Y-99900000D01*
X99999000Y-100350000D01*
X99953918Y-100349423D01*
X99900641Y-100346165D01*
X99847607Y-100340122D01*
X99794962Y-100331312D01*
X99742850Y-100319759D01*
X99691414Y-100305495D01*
X99640795Y-100288558D01*
X99591132Y-100268995D01*
X99542561Y-100246860D01*
X99495215Y-100222214D01*
X99449224Y-100195123D01*
X99404713Y-100165662D01*
X99361806Y-100133912D01*
X99320619Y-100099960D01*
X99281265Y-100063899D01*
X99243853Y-100025828D01*
X99208484Y-99985850D01*
X99175256Y-99944077D01*
X99144260Y-99900622D01*
X99115580Y-99855604D01*
X99089296Y-99809147D01*
X99065479Y-99761378D01*
X99044195Y-99712428D01*
X99025502Y-99662431D01*
X99009451Y-99611524D01*
X98996087Y-99559848D01*
X98985445Y-99507542D01*
X98977555Y-99454751D01*
X98972439Y-99401620D01*
X98970000Y-99340000D01*
X98970000Y-99320000D01*
X98971412Y-99266094D01*
X98975642Y-99212336D01*
X98982681Y-99158873D01*
X98992508Y-99105851D01*
X99005096Y-99053416D01*
X99020412Y-99001712D01*
X99038412Y-98950881D01*
X99059048Y-98901061D01*
X99082263Y-98852390D01*
X99107994Y-98805000D01*
X99136169Y-98759022D01*
X99166712Y-98714581D01*
X99199540Y-98671800D01*
X99234561Y-98630795D01*
X99271680Y-98591680D01*
X99310795Y-98554561D01*
X99351800Y-98519540D01*
X99394581Y-98486712D01*
X99439022Y-98456169D01*
X99485000Y-98427994D01*
X99532390Y-98402263D01*
X99581061Y-98379048D01*
X99630881Y-98358412D01*
X99681712Y-98340412D01*
X99733416Y-98325096D01*
X99785851Y-98312508D01*
X99838873Y-98302681D01*
X99892336Y-98295642D01*
X99946094Y-98291412D01*
X100000000Y-98290000D01*
X100053906Y-98291412D01*
G04 #@! TA.AperFunction,EtchedComponent*
G36*
X100053906Y-98291412D02*
G01*
X100107664Y-98295642D01*
X100161127Y-98302681D01*
X100214149Y-98312508D01*
X100266584Y-98325096D01*
X100318288Y-98340412D01*
X100369119Y-98358412D01*
X100418939Y-98379048D01*
X100467610Y-98402263D01*
X100515000Y-98427994D01*
X100560978Y-98456169D01*
X100605419Y-98486712D01*
X100648200Y-98519540D01*
X100689205Y-98554561D01*
X100728320Y-98591680D01*
X100765439Y-98630795D01*
X100800460Y-98671800D01*
X100833288Y-98714581D01*
X100863831Y-98759022D01*
X100892006Y-98805000D01*
X100917737Y-98852390D01*
X100940952Y-98901061D01*
X100961588Y-98950881D01*
X100979588Y-99001712D01*
X100994904Y-99053416D01*
X101007492Y-99105851D01*
X101017319Y-99158873D01*
X101024358Y-99212336D01*
X101028588Y-99266094D01*
X101030000Y-99320000D01*
X101030000Y-99340000D01*
X101028616Y-99392859D01*
X101024467Y-99445574D01*
X101017565Y-99497999D01*
X101007929Y-99549991D01*
X100995585Y-99601407D01*
X100980567Y-99652107D01*
X100962916Y-99701952D01*
X100942681Y-99750804D01*
X100919917Y-99798530D01*
X100894686Y-99845000D01*
X100867057Y-99890085D01*
X100837107Y-99933663D01*
X100804917Y-99975614D01*
X100770576Y-100015822D01*
X100734178Y-100054178D01*
X100695822Y-100090576D01*
X100655614Y-100124917D01*
X100613663Y-100157107D01*
X100570085Y-100187057D01*
X100525000Y-100214686D01*
X100478530Y-100239917D01*
X100430804Y-100262681D01*
X100381952Y-100282916D01*
X100332107Y-100300567D01*
X100281407Y-100315585D01*
X100229991Y-100327929D01*
X100177999Y-100337565D01*
X100125574Y-100344467D01*
X100072859Y-100348616D01*
X100020000Y-100350000D01*
X100001000Y-100350000D01*
X100001000Y-99900000D01*
X100030271Y-99900254D01*
X100059552Y-99898976D01*
X100088727Y-99896167D01*
X100117715Y-99891834D01*
X100146437Y-99885991D01*
X100174813Y-99878652D01*
X100202766Y-99869839D01*
X100230220Y-99859574D01*
X100257098Y-99847887D01*
X100283329Y-99834809D01*
X100308839Y-99820376D01*
X100333558Y-99804628D01*
X100357420Y-99787608D01*
X100380358Y-99769362D01*
X100402310Y-99749941D01*
X100423215Y-99729397D01*
X100443016Y-99707788D01*
X100461660Y-99685172D01*
X100479094Y-99661611D01*
X100495271Y-99637170D01*
X100510147Y-99611916D01*
X100523681Y-99585918D01*
X100535835Y-99559247D01*
X100546577Y-99531976D01*
X100555877Y-99504181D01*
X100563710Y-99475937D01*
X100570054Y-99447322D01*
X100574891Y-99418415D01*
X100578209Y-99389293D01*
X100580000Y-99360000D01*
X100580000Y-99320000D01*
X100579205Y-99289645D01*
X100576823Y-99259373D01*
X100572859Y-99229268D01*
X100567326Y-99199411D01*
X100560237Y-99169885D01*
X100551613Y-99140770D01*
X100541477Y-99112147D01*
X100529856Y-99084093D01*
X100516784Y-99056686D01*
X100502295Y-99030000D01*
X100486429Y-99004109D01*
X100469230Y-98979085D01*
X100450745Y-98954994D01*
X100431024Y-98931904D01*
X100410122Y-98909878D01*
X100388096Y-98888976D01*
X100365006Y-98869255D01*
X100340915Y-98850770D01*
X100315891Y-98833571D01*
X100290000Y-98817705D01*
X100263314Y-98803216D01*
X100235907Y-98790144D01*
X100207853Y-98778523D01*
X100179230Y-98768387D01*
X100150115Y-98759763D01*
X100120589Y-98752674D01*
X100090732Y-98747141D01*
X100060627Y-98743177D01*
X100030355Y-98740795D01*
X100000000Y-98740000D01*
X99969645Y-98740795D01*
X99939373Y-98743177D01*
X99909268Y-98747141D01*
X99879411Y-98752674D01*
X99849885Y-98759763D01*
X99820770Y-98768387D01*
X99792147Y-98778523D01*
X99764093Y-98790144D01*
X99736686Y-98803216D01*
X99710000Y-98817705D01*
X99684109Y-98833571D01*
X99659085Y-98850770D01*
X99634994Y-98869255D01*
X99611904Y-98888976D01*
X99589878Y-98909878D01*
X99568976Y-98931904D01*
X99549255Y-98954994D01*
X99530770Y-98979085D01*
X99513571Y-99004109D01*
X99497705Y-99030000D01*
X99483216Y-99056686D01*
X99470144Y-99084093D01*
X99458523Y-99112147D01*
X99448387Y-99140770D01*
X99439763Y-99169885D01*
X99432674Y-99199411D01*
X99427141Y-99229268D01*
X99423177Y-99259373D01*
X99420795Y-99289645D01*
X99420000Y-99320000D01*
X99420000Y-99340000D01*
X99421308Y-99370232D01*
X99424166Y-99399914D01*
X99428574Y-99429406D01*
X99434519Y-99458627D01*
X99441985Y-99487497D01*
X99450952Y-99515937D01*
X99461395Y-99543868D01*
X99473286Y-99571215D01*
X99486591Y-99597901D01*
X99501275Y-99623855D01*
X99517297Y-99649005D01*
X99534614Y-99673281D01*
X99553177Y-99696618D01*
X99572936Y-99718952D01*
X99593837Y-99740221D01*
X99615822Y-99760367D01*
X99638832Y-99779335D01*
X99662803Y-99797072D01*
X99687669Y-99813531D01*
X99713363Y-99828665D01*
X99739813Y-99842434D01*
X99766948Y-99854800D01*
X99794692Y-99865729D01*
X99822971Y-99875191D01*
X99851706Y-99883160D01*
X99880819Y-99889614D01*
X99910230Y-99894536D01*
X99939858Y-99897912D01*
X99969622Y-99899732D01*
X99999000Y-99900000D01*
X99999000Y-100350000D01*
X99953918Y-100349423D01*
X99900641Y-100346165D01*
X99847607Y-100340122D01*
X99794962Y-100331312D01*
X99742850Y-100319759D01*
X99691414Y-100305495D01*
X99640795Y-100288558D01*
X99591132Y-100268995D01*
X99542561Y-100246860D01*
X99495215Y-100222214D01*
X99449224Y-100195123D01*
X99404713Y-100165662D01*
X99361806Y-100133912D01*
X99320619Y-100099960D01*
X99281265Y-100063899D01*
X99243853Y-100025828D01*
X99208484Y-99985850D01*
X99175256Y-99944077D01*
X99144260Y-99900622D01*
X99115580Y-99855604D01*
X99089296Y-99809147D01*
X99065479Y-99761378D01*
X99044195Y-99712428D01*
X99025502Y-99662431D01*
X99009451Y-99611524D01*
X98996087Y-99559848D01*
X98985445Y-99507542D01*
X98977555Y-99454751D01*
X98972439Y-99401620D01*
X98970000Y-99340000D01*
X98970000Y-99320000D01*
X98971412Y-99266094D01*
X98975642Y-99212336D01*
X98982681Y-99158873D01*
X98992508Y-99105851D01*
X99005096Y-99053416D01*
X99020412Y-99001712D01*
X99038412Y-98950881D01*
X99059048Y-98901061D01*
X99082263Y-98852390D01*
X99107994Y-98805000D01*
X99136169Y-98759022D01*
X99166712Y-98714581D01*
X99199540Y-98671800D01*
X99234561Y-98630795D01*
X99271680Y-98591680D01*
X99310795Y-98554561D01*
X99351800Y-98519540D01*
X99394581Y-98486712D01*
X99439022Y-98456169D01*
X99485000Y-98427994D01*
X99532390Y-98402263D01*
X99581061Y-98379048D01*
X99630881Y-98358412D01*
X99681712Y-98340412D01*
X99733416Y-98325096D01*
X99785851Y-98312508D01*
X99838873Y-98302681D01*
X99892336Y-98295642D01*
X99946094Y-98291412D01*
X100000000Y-98290000D01*
X100053906Y-98291412D01*
G37*
G04 #@! TD.AperFunction*
D11*
X98422160Y-96070420D03*
X99972160Y-96070420D03*
D12*
X98069900Y-103774240D03*
X99719900Y-103774240D03*
D13*
X96900000Y-98600000D03*
X104400000Y-101400000D03*
X96000000Y-101400000D03*
X103100000Y-98600000D03*
X102500000Y-101400000D03*
D14*
X99150000Y-101500000D03*
X99150000Y-100800000D03*
X100850000Y-101500000D03*
X100850000Y-100800000D03*
D15*
X100000000Y-100120000D03*
D16*
X97518220Y-102494080D03*
X102200000Y-96500000D03*
X102200000Y-103300000D03*
D17*
X100015500Y-99215500D02*
X100000000Y-99231000D01*
X100000000Y-99231000D02*
X100000000Y-99236999D01*
X100000000Y-99236999D02*
X100015500Y-99236999D01*
X96900000Y-98600000D02*
X96900000Y-99600000D01*
X99169030Y-100812600D02*
X98331020Y-100774500D01*
X96900000Y-97142580D02*
X96900000Y-98600000D01*
X97972160Y-96070420D02*
X96900000Y-97142580D01*
X98074500Y-100774500D02*
X98331020Y-100774500D01*
X96900000Y-99600000D02*
X98074500Y-100774500D01*
X98409660Y-96070420D02*
X97972160Y-96070420D01*
X103100000Y-98588960D02*
X103100000Y-98600000D01*
X100538002Y-98600000D02*
X99984660Y-98046658D01*
X103100000Y-98600000D02*
X100538002Y-98600000D01*
X99984660Y-98046658D02*
X99984660Y-96070420D01*
D18*
X99682400Y-102931060D02*
X99682400Y-103774240D01*
X99150000Y-102398660D02*
X99682400Y-102931060D01*
X99150000Y-101500000D02*
X99150000Y-102398660D01*
X104078679Y-102574999D02*
X104400000Y-102253678D01*
X104400000Y-102253678D02*
X104400000Y-101400000D01*
X101449999Y-102574999D02*
X104078679Y-102574999D01*
X100850000Y-101975000D02*
X101449999Y-102574999D01*
X100850000Y-101500000D02*
X100850000Y-101975000D01*
X96000000Y-102789420D02*
X96984820Y-103774240D01*
X96000000Y-101400000D02*
X96000000Y-102789420D01*
X96984820Y-103774240D02*
X98107400Y-103774240D01*
X100850000Y-100800000D02*
X101900000Y-100800000D01*
X101900000Y-100800000D02*
X102500000Y-101400000D01*
G04 #@! TA.AperFunction,Conductor*
G36*
X100459276Y-94394496D02*
G01*
X100469625Y-94395353D01*
X100920593Y-94451566D01*
X100930857Y-94453279D01*
X101375641Y-94546540D01*
X101385709Y-94549089D01*
X101821290Y-94678768D01*
X101831123Y-94682144D01*
X102128255Y-94798085D01*
X102254477Y-94847337D01*
X102264014Y-94851520D01*
X102672283Y-95051111D01*
X102681441Y-95056067D01*
X103071829Y-95288687D01*
X103080548Y-95294383D01*
X103450395Y-95558449D01*
X103458613Y-95564845D01*
X103805403Y-95858561D01*
X103813064Y-95865615D01*
X104134384Y-96186935D01*
X104141438Y-96194596D01*
X104435154Y-96541386D01*
X104441550Y-96549604D01*
X104705616Y-96919451D01*
X104711312Y-96928170D01*
X104943932Y-97318558D01*
X104948888Y-97327716D01*
X105148479Y-97735985D01*
X105152662Y-97745522D01*
X105317852Y-98168867D01*
X105321234Y-98178717D01*
X105450906Y-98614276D01*
X105453462Y-98624371D01*
X105546719Y-99069138D01*
X105548433Y-99079410D01*
X105604644Y-99530360D01*
X105605504Y-99540738D01*
X105624284Y-99994793D01*
X105624284Y-100005207D01*
X105605504Y-100459261D01*
X105604644Y-100469639D01*
X105548433Y-100920589D01*
X105546719Y-100930861D01*
X105453462Y-101375628D01*
X105450906Y-101385724D01*
X105447261Y-101397967D01*
X105408652Y-101457548D01*
X105343961Y-101486798D01*
X105273726Y-101476430D01*
X105220245Y-101429735D01*
X105200499Y-101362014D01*
X105200499Y-100855140D01*
X105200499Y-100855136D01*
X105197585Y-100830009D01*
X105162990Y-100751658D01*
X105152206Y-100727234D01*
X105072767Y-100647795D01*
X105072765Y-100647794D01*
X104969989Y-100602414D01*
X104969990Y-100602414D01*
X104944868Y-100599500D01*
X103855140Y-100599500D01*
X103855133Y-100599501D01*
X103830009Y-100602414D01*
X103830005Y-100602416D01*
X103727234Y-100647793D01*
X103647795Y-100727232D01*
X103647794Y-100727234D01*
X103602414Y-100830009D01*
X103599500Y-100855129D01*
X103599500Y-101944859D01*
X103599501Y-101944866D01*
X103602414Y-101969990D01*
X103602416Y-101969994D01*
X103603568Y-101972603D01*
X103603978Y-101975738D01*
X103604904Y-101979140D01*
X103604440Y-101979266D01*
X103612787Y-102042999D01*
X103582483Y-102107203D01*
X103522279Y-102144832D01*
X103488305Y-102149499D01*
X103411695Y-102149499D01*
X103343574Y-102129497D01*
X103297081Y-102075841D01*
X103286977Y-102005567D01*
X103296430Y-101972608D01*
X103296983Y-101971353D01*
X103297585Y-101969991D01*
X103300500Y-101944865D01*
X103300499Y-100855136D01*
X103297585Y-100830009D01*
X103262990Y-100751658D01*
X103252206Y-100727234D01*
X103172767Y-100647795D01*
X103172765Y-100647794D01*
X103069989Y-100602414D01*
X103069990Y-100602414D01*
X103044870Y-100599500D01*
X103044865Y-100599500D01*
X102353438Y-100599500D01*
X102285317Y-100579498D01*
X102264343Y-100562595D01*
X102177194Y-100475446D01*
X102153220Y-100451472D01*
X102153219Y-100451471D01*
X102153218Y-100451470D01*
X102131843Y-100440579D01*
X102114985Y-100430249D01*
X102111243Y-100427531D01*
X102095581Y-100416151D01*
X102095579Y-100416150D01*
X102095580Y-100416150D01*
X102072764Y-100408737D01*
X102054498Y-100401171D01*
X102046834Y-100397266D01*
X102033125Y-100390280D01*
X102009431Y-100386528D01*
X101990205Y-100381912D01*
X101967393Y-100374500D01*
X101933488Y-100374500D01*
X101501662Y-100374500D01*
X101433541Y-100354498D01*
X101412567Y-100337595D01*
X101397767Y-100322795D01*
X101397765Y-100322794D01*
X101294989Y-100277414D01*
X101294990Y-100277414D01*
X101269870Y-100274500D01*
X101269865Y-100274500D01*
X101208969Y-100274500D01*
X101140848Y-100254498D01*
X101094355Y-100200842D01*
X101084251Y-100130568D01*
X101101532Y-100082672D01*
X101115571Y-100059762D01*
X101125204Y-100046156D01*
X101132001Y-100037788D01*
X101132007Y-100037784D01*
X101151745Y-100001429D01*
X101160660Y-99987327D01*
X101166998Y-99978632D01*
X101167002Y-99978629D01*
X101184799Y-99941315D01*
X101192964Y-99926761D01*
X101198852Y-99917726D01*
X101198851Y-99917726D01*
X101198853Y-99917725D01*
X101214682Y-99879507D01*
X101222069Y-99864561D01*
X101227468Y-99855242D01*
X101227473Y-99855238D01*
X101241278Y-99816252D01*
X101247879Y-99800922D01*
X101252779Y-99791340D01*
X101252783Y-99791337D01*
X101264529Y-99751682D01*
X101270315Y-99736037D01*
X101274711Y-99726205D01*
X101274715Y-99726200D01*
X101284367Y-99685991D01*
X101289331Y-99670052D01*
X101293205Y-99660006D01*
X101293208Y-99660003D01*
X101300744Y-99619338D01*
X101304863Y-99603175D01*
X101308206Y-99592937D01*
X101308210Y-99592932D01*
X101313607Y-99551935D01*
X101316875Y-99535572D01*
X101319679Y-99525171D01*
X101319682Y-99525166D01*
X101322926Y-99483937D01*
X101325334Y-99467425D01*
X101327589Y-99456898D01*
X101327593Y-99456889D01*
X101328697Y-99414697D01*
X101330550Y-99397223D01*
X101330550Y-99386858D01*
X101331944Y-99369315D01*
X101331917Y-99368294D01*
X101331918Y-99368293D01*
X101331128Y-99338164D01*
X101331001Y-99333297D01*
X101331001Y-99326691D01*
X101331321Y-99314497D01*
X101331989Y-99304436D01*
X101332619Y-99298529D01*
X101330610Y-99272998D01*
X101329292Y-99256262D01*
X101329088Y-99239592D01*
X101329668Y-99228810D01*
X101329670Y-99228806D01*
X101324134Y-99186767D01*
X101323057Y-99170117D01*
X101323073Y-99159350D01*
X101323075Y-99159345D01*
X101315346Y-99117647D01*
X101313400Y-99101084D01*
X101312853Y-99090327D01*
X101312854Y-99090323D01*
X101302956Y-99049095D01*
X101300144Y-99032654D01*
X101299033Y-99021926D01*
X101299034Y-99021922D01*
X101286987Y-98981256D01*
X101283321Y-98964990D01*
X101281652Y-98954351D01*
X101281653Y-98954348D01*
X101267501Y-98914383D01*
X101262985Y-98898319D01*
X101260762Y-98887776D01*
X101250283Y-98862479D01*
X101246770Y-98854000D01*
X102092000Y-98854000D01*
X102092000Y-99148597D01*
X102098505Y-99209093D01*
X102149555Y-99345964D01*
X102149555Y-99345965D01*
X102237095Y-99462904D01*
X102354034Y-99550444D01*
X102490906Y-99601494D01*
X102551402Y-99607999D01*
X102551415Y-99608000D01*
X102846000Y-99608000D01*
X102846000Y-98854000D01*
X103354000Y-98854000D01*
X103354000Y-99608000D01*
X103648585Y-99608000D01*
X103648597Y-99607999D01*
X103709093Y-99601494D01*
X103845964Y-99550444D01*
X103845965Y-99550444D01*
X103962904Y-99462904D01*
X104050444Y-99345965D01*
X104050444Y-99345964D01*
X104101494Y-99209093D01*
X104107999Y-99148597D01*
X104108000Y-99148585D01*
X104108000Y-98854000D01*
X103354000Y-98854000D01*
X102846000Y-98854000D01*
X102092000Y-98854000D01*
X101246770Y-98854000D01*
X101244531Y-98848594D01*
X101239185Y-98832802D01*
X101236411Y-98822384D01*
X101236411Y-98822380D01*
X101218157Y-98784112D01*
X101211989Y-98768615D01*
X101208673Y-98758358D01*
X101208673Y-98758353D01*
X101201857Y-98745800D01*
X101188438Y-98721084D01*
X101181465Y-98705927D01*
X101177623Y-98695872D01*
X101177623Y-98695868D01*
X101155470Y-98659717D01*
X101147714Y-98644948D01*
X101143347Y-98635098D01*
X101143346Y-98635093D01*
X101119325Y-98600142D01*
X101110811Y-98585804D01*
X101105929Y-98576185D01*
X101080116Y-98542545D01*
X101070860Y-98528670D01*
X101065490Y-98519337D01*
X101065489Y-98519333D01*
X101037947Y-98487086D01*
X101027980Y-98473715D01*
X101022118Y-98464656D01*
X100992941Y-98433910D01*
X100982288Y-98421082D01*
X100975960Y-98412344D01*
X100975959Y-98412343D01*
X100945194Y-98383147D01*
X100933884Y-98370893D01*
X100927120Y-98362512D01*
X100927117Y-98362507D01*
X100907790Y-98346000D01*
X102092000Y-98346000D01*
X102846000Y-98346000D01*
X102846000Y-97592000D01*
X103354000Y-97592000D01*
X103354000Y-98346000D01*
X104108000Y-98346000D01*
X104108000Y-98051414D01*
X104107999Y-98051402D01*
X104101494Y-97990906D01*
X104050444Y-97854035D01*
X104050444Y-97854034D01*
X103962904Y-97737095D01*
X103845965Y-97649555D01*
X103709093Y-97598505D01*
X103648597Y-97592000D01*
X103354000Y-97592000D01*
X102846000Y-97592000D01*
X102551402Y-97592000D01*
X102490906Y-97598505D01*
X102354035Y-97649555D01*
X102354034Y-97649555D01*
X102237095Y-97737095D01*
X102149555Y-97854034D01*
X102149555Y-97854035D01*
X102098505Y-97990906D01*
X102092000Y-98051402D01*
X102092000Y-98346000D01*
X100907790Y-98346000D01*
X100902810Y-98341747D01*
X100894864Y-98334960D01*
X100882923Y-98323309D01*
X100875741Y-98315307D01*
X100875739Y-98315303D01*
X100842105Y-98289494D01*
X100829587Y-98278499D01*
X100821952Y-98270841D01*
X100787009Y-98246825D01*
X100773923Y-98236493D01*
X100765918Y-98229263D01*
X100765917Y-98229262D01*
X100729762Y-98207107D01*
X100716157Y-98197475D01*
X100707787Y-98190675D01*
X100670521Y-98170441D01*
X100656425Y-98161532D01*
X100647714Y-98155182D01*
X100647711Y-98155179D01*
X100627052Y-98145325D01*
X100609433Y-98136920D01*
X100594894Y-98128762D01*
X100585861Y-98122876D01*
X100546685Y-98106648D01*
X100531743Y-98099266D01*
X100522405Y-98093855D01*
X100522404Y-98093855D01*
X100522402Y-98093854D01*
X100522400Y-98093853D01*
X100482445Y-98079704D01*
X100467141Y-98073116D01*
X100457521Y-98068197D01*
X100416862Y-98056152D01*
X100401219Y-98050367D01*
X100391373Y-98045964D01*
X100350146Y-98036067D01*
X100334217Y-98031107D01*
X100324161Y-98027228D01*
X100282470Y-98019501D01*
X100266315Y-98015385D01*
X100256060Y-98012035D01*
X100214018Y-98006499D01*
X100197673Y-98003235D01*
X100187250Y-98000425D01*
X100144982Y-97997099D01*
X100128487Y-97994695D01*
X100117942Y-97992437D01*
X100117939Y-97992436D01*
X100114080Y-97992334D01*
X100075556Y-97991325D01*
X100058965Y-97989788D01*
X100048295Y-97988082D01*
X100048293Y-97988082D01*
X100043710Y-97988201D01*
X100005902Y-97989191D01*
X99989243Y-97988523D01*
X99978530Y-97987380D01*
X99936264Y-97990705D01*
X99919614Y-97990911D01*
X99908807Y-97990329D01*
X99866771Y-97995863D01*
X99850136Y-97996941D01*
X99839343Y-97996924D01*
X99797645Y-98004651D01*
X99781096Y-98006597D01*
X99770323Y-98007145D01*
X99729099Y-98017042D01*
X99712670Y-98019852D01*
X99701921Y-98020965D01*
X99661256Y-98033010D01*
X99645002Y-98036675D01*
X99634350Y-98038346D01*
X99594381Y-98052498D01*
X99578341Y-98057008D01*
X99567775Y-98059237D01*
X99528607Y-98075461D01*
X99512825Y-98080806D01*
X99502381Y-98083588D01*
X99464117Y-98101839D01*
X99448631Y-98108004D01*
X99438351Y-98111327D01*
X99401084Y-98131561D01*
X99385938Y-98138529D01*
X99375869Y-98142376D01*
X99339717Y-98164529D01*
X99324967Y-98172275D01*
X99315093Y-98176653D01*
X99280141Y-98200674D01*
X99265815Y-98209182D01*
X99256189Y-98214068D01*
X99222548Y-98239881D01*
X99208692Y-98249125D01*
X99199332Y-98254510D01*
X99167092Y-98282045D01*
X99153737Y-98292003D01*
X99144664Y-98297876D01*
X99113910Y-98327059D01*
X99101093Y-98337703D01*
X99092342Y-98344041D01*
X99063155Y-98374797D01*
X99050906Y-98386102D01*
X99042506Y-98392882D01*
X99014961Y-98425132D01*
X99003326Y-98437058D01*
X98995302Y-98444260D01*
X98969492Y-98477895D01*
X98958499Y-98490411D01*
X98950844Y-98498043D01*
X98926822Y-98532994D01*
X98916496Y-98546072D01*
X98909262Y-98554081D01*
X98887107Y-98590234D01*
X98877484Y-98603829D01*
X98870676Y-98612210D01*
X98850443Y-98649475D01*
X98841537Y-98663567D01*
X98835177Y-98672292D01*
X98816923Y-98710560D01*
X98808772Y-98725089D01*
X98802875Y-98734140D01*
X98786649Y-98773310D01*
X98779274Y-98788238D01*
X98773857Y-98797589D01*
X98759703Y-98837558D01*
X98753117Y-98852855D01*
X98748198Y-98862475D01*
X98736154Y-98903131D01*
X98730375Y-98918760D01*
X98725964Y-98928625D01*
X98716067Y-98969851D01*
X98711113Y-98985764D01*
X98707228Y-98995838D01*
X98699500Y-99037530D01*
X98695386Y-99053678D01*
X98692035Y-99063938D01*
X98686499Y-99105980D01*
X98683236Y-99122322D01*
X98680425Y-99132749D01*
X98677099Y-99175015D01*
X98674696Y-99191501D01*
X98672436Y-99202057D01*
X98671303Y-99245298D01*
X98669450Y-99262810D01*
X98669450Y-99272998D01*
X98668124Y-99291232D01*
X98667462Y-99295753D01*
X98668814Y-99329903D01*
X98668870Y-99338164D01*
X98668823Y-99339956D01*
X98669090Y-99343983D01*
X98668870Y-99363471D01*
X98667888Y-99374505D01*
X98671898Y-99416154D01*
X98672395Y-99432808D01*
X98672002Y-99443611D01*
X98678188Y-99485007D01*
X98679556Y-99501621D01*
X98679727Y-99512410D01*
X98688071Y-99553424D01*
X98690306Y-99569941D01*
X98691042Y-99580702D01*
X98701519Y-99621216D01*
X98704615Y-99637588D01*
X98705917Y-99648320D01*
X98718499Y-99688229D01*
X98722448Y-99704417D01*
X98724308Y-99715060D01*
X98738965Y-99754262D01*
X98743757Y-99770226D01*
X98746169Y-99780748D01*
X98762856Y-99819125D01*
X98768478Y-99834820D01*
X98771439Y-99845206D01*
X98790115Y-99882667D01*
X98796550Y-99898045D01*
X98800044Y-99908242D01*
X98800044Y-99908243D01*
X98800045Y-99908245D01*
X98815612Y-99935760D01*
X98820650Y-99944665D01*
X98827879Y-99959682D01*
X98831912Y-99969708D01*
X98854401Y-100005008D01*
X98862410Y-100019632D01*
X98866953Y-100029414D01*
X98877585Y-100044320D01*
X98900858Y-100111394D01*
X98884173Y-100180402D01*
X98832828Y-100229435D01*
X98769282Y-100243356D01*
X98433311Y-100228081D01*
X98415111Y-100225157D01*
X98406687Y-100224000D01*
X98406685Y-100224000D01*
X98354715Y-100224000D01*
X98286594Y-100203998D01*
X98265620Y-100187095D01*
X97590843Y-99512318D01*
X97556817Y-99450006D01*
X97561882Y-99379191D01*
X97590841Y-99334129D01*
X97652206Y-99272765D01*
X97697585Y-99169991D01*
X97700500Y-99144865D01*
X97700499Y-98055136D01*
X97697585Y-98030009D01*
X97679267Y-97988523D01*
X97652206Y-97927234D01*
X97572765Y-97847793D01*
X97525606Y-97826971D01*
X97471369Y-97781158D01*
X97450510Y-97713294D01*
X97450500Y-97711707D01*
X97450500Y-97422794D01*
X97470502Y-97354673D01*
X97487399Y-97333704D01*
X97952130Y-96868973D01*
X98014439Y-96834951D01*
X98063434Y-96835767D01*
X98063549Y-96834816D01*
X98086517Y-96837574D01*
X98156016Y-96845920D01*
X98156019Y-96845920D01*
X98688301Y-96845920D01*
X98688304Y-96845920D01*
X98772750Y-96835779D01*
X98907135Y-96782784D01*
X98976454Y-96730216D01*
X99042818Y-96704992D01*
X99112285Y-96719652D01*
X99159829Y-96764465D01*
X99168267Y-96778145D01*
X99168274Y-96778154D01*
X99289425Y-96899305D01*
X99289431Y-96899310D01*
X99435275Y-96989267D01*
X99597918Y-97043162D01*
X99597930Y-97043164D01*
X99698307Y-97053419D01*
X99698307Y-97053420D01*
X99718160Y-97053420D01*
X99718160Y-96324420D01*
X100226160Y-96324420D01*
X100226160Y-97053420D01*
X100246013Y-97053420D01*
X100246012Y-97053419D01*
X100346389Y-97043164D01*
X100346401Y-97043162D01*
X100509044Y-96989267D01*
X100654888Y-96899310D01*
X100654894Y-96899305D01*
X100776045Y-96778154D01*
X100776050Y-96778148D01*
X100866007Y-96632304D01*
X100919902Y-96469661D01*
X100919904Y-96469649D01*
X100930159Y-96369272D01*
X100930160Y-96369272D01*
X100930160Y-96324420D01*
X100226160Y-96324420D01*
X99718160Y-96324420D01*
X99718160Y-95087420D01*
X100226160Y-95087420D01*
X100226160Y-95816420D01*
X100930160Y-95816420D01*
X100930160Y-95771567D01*
X100919904Y-95671190D01*
X100919902Y-95671178D01*
X100866007Y-95508535D01*
X100776050Y-95362691D01*
X100776045Y-95362685D01*
X100654894Y-95241534D01*
X100654888Y-95241529D01*
X100509044Y-95151572D01*
X100346401Y-95097677D01*
X100346389Y-95097675D01*
X100246012Y-95087420D01*
X100226160Y-95087420D01*
X99718160Y-95087420D01*
X99698307Y-95087420D01*
X99597930Y-95097675D01*
X99597918Y-95097677D01*
X99435275Y-95151572D01*
X99289431Y-95241529D01*
X99289425Y-95241534D01*
X99168274Y-95362685D01*
X99168267Y-95362693D01*
X99159828Y-95376376D01*
X99107040Y-95423853D01*
X99036965Y-95435254D01*
X98976455Y-95410623D01*
X98907138Y-95358058D01*
X98907134Y-95358055D01*
X98772750Y-95305060D01*
X98772751Y-95305060D01*
X98688306Y-95294920D01*
X98688304Y-95294920D01*
X98156016Y-95294920D01*
X98156013Y-95294920D01*
X98071569Y-95305060D01*
X97937185Y-95358055D01*
X97937181Y-95358058D01*
X97822083Y-95445340D01*
X97740158Y-95553373D01*
X97689969Y-95592802D01*
X97683446Y-95595635D01*
X97683440Y-95595639D01*
X97669646Y-95606861D01*
X97651893Y-95618944D01*
X97636398Y-95627656D01*
X97607421Y-95656633D01*
X97597848Y-95665272D01*
X97566053Y-95691140D01*
X97566051Y-95691142D01*
X97555799Y-95705666D01*
X97541958Y-95722096D01*
X96518914Y-96745139D01*
X96515823Y-96748127D01*
X96468959Y-96791896D01*
X96468953Y-96791903D01*
X96447661Y-96826915D01*
X96440407Y-96837574D01*
X96415639Y-96870236D01*
X96409115Y-96886779D01*
X96399564Y-96906008D01*
X96390328Y-96921197D01*
X96379268Y-96960668D01*
X96375158Y-96972890D01*
X96360124Y-97011016D01*
X96360123Y-97011021D01*
X96358304Y-97028702D01*
X96354296Y-97049792D01*
X96349500Y-97066913D01*
X96349500Y-97107899D01*
X96348839Y-97120786D01*
X96344647Y-97161549D01*
X96347668Y-97179067D01*
X96349500Y-97200475D01*
X96349500Y-97711707D01*
X96329498Y-97779828D01*
X96275842Y-97826321D01*
X96274394Y-97826971D01*
X96227234Y-97847793D01*
X96147795Y-97927232D01*
X96147794Y-97927234D01*
X96102414Y-98030009D01*
X96099500Y-98055129D01*
X96099500Y-99144859D01*
X96099501Y-99144866D01*
X96102414Y-99169990D01*
X96102416Y-99169994D01*
X96147793Y-99272765D01*
X96227232Y-99352204D01*
X96227231Y-99352204D01*
X96227234Y-99352205D01*
X96227235Y-99352206D01*
X96274396Y-99373029D01*
X96328630Y-99418840D01*
X96349490Y-99486703D01*
X96349500Y-99488292D01*
X96349500Y-99588438D01*
X96349427Y-99592739D01*
X96347238Y-99656827D01*
X96356941Y-99696646D01*
X96359349Y-99709319D01*
X96364928Y-99749913D01*
X96364931Y-99749924D01*
X96372009Y-99766218D01*
X96378858Y-99786583D01*
X96383064Y-99803844D01*
X96383069Y-99803856D01*
X96403153Y-99839576D01*
X96408891Y-99851129D01*
X96425216Y-99888714D01*
X96425222Y-99888722D01*
X96436432Y-99902502D01*
X96448519Y-99920260D01*
X96457234Y-99935759D01*
X96486217Y-99964742D01*
X96494854Y-99974313D01*
X96520718Y-100006104D01*
X96520723Y-100006110D01*
X96535242Y-100016358D01*
X96551676Y-100030201D01*
X97677059Y-101155584D01*
X97680049Y-101158677D01*
X97723316Y-101205005D01*
X97723820Y-101205544D01*
X97758832Y-101226835D01*
X97769496Y-101234093D01*
X97802158Y-101258861D01*
X97818703Y-101265385D01*
X97837929Y-101274935D01*
X97853118Y-101284172D01*
X97892587Y-101295231D01*
X97904800Y-101299337D01*
X97942936Y-101314376D01*
X97960617Y-101316193D01*
X97981717Y-101320204D01*
X97998835Y-101325000D01*
X98039819Y-101325000D01*
X98052706Y-101325661D01*
X98093470Y-101329852D01*
X98093470Y-101329851D01*
X98093472Y-101329852D01*
X98103856Y-101328061D01*
X98110989Y-101326832D01*
X98132396Y-101325000D01*
X98315659Y-101325000D01*
X98321381Y-101325130D01*
X98354222Y-101326623D01*
X98421364Y-101349698D01*
X98465372Y-101405410D01*
X98474500Y-101452493D01*
X98474500Y-101769859D01*
X98474501Y-101769866D01*
X98477414Y-101794990D01*
X98477416Y-101794994D01*
X98522793Y-101897765D01*
X98602232Y-101977204D01*
X98602231Y-101977204D01*
X98602234Y-101977205D01*
X98602235Y-101977206D01*
X98649396Y-101998029D01*
X98703630Y-102043840D01*
X98724490Y-102111703D01*
X98724500Y-102113292D01*
X98724500Y-102466053D01*
X98731912Y-102488865D01*
X98736528Y-102508091D01*
X98740280Y-102531785D01*
X98751170Y-102553156D01*
X98758737Y-102571424D01*
X98766150Y-102594240D01*
X98780249Y-102613645D01*
X98790579Y-102630503D01*
X98801470Y-102651878D01*
X98801471Y-102651879D01*
X98801472Y-102651880D01*
X98825446Y-102675854D01*
X99140349Y-102990757D01*
X99174375Y-103053069D01*
X99169310Y-103123884D01*
X99152122Y-103155361D01*
X99076103Y-103256910D01*
X99076101Y-103256913D01*
X99025809Y-103391754D01*
X99020177Y-103444136D01*
X98993006Y-103509727D01*
X98934687Y-103550217D01*
X98863736Y-103552749D01*
X98802678Y-103516520D01*
X98770900Y-103453033D01*
X98769621Y-103444130D01*
X98763991Y-103391759D01*
X98763991Y-103391758D01*
X98713698Y-103256913D01*
X98713696Y-103256910D01*
X98713696Y-103256909D01*
X98670571Y-103199301D01*
X98627446Y-103141693D01*
X98550491Y-103084085D01*
X98512231Y-103055444D01*
X98512229Y-103055443D01*
X98512226Y-103055441D01*
X98377383Y-103005149D01*
X98377386Y-103005149D01*
X98317773Y-102998740D01*
X97822035Y-102998740D01*
X97822014Y-102998742D01*
X97762419Y-103005148D01*
X97762418Y-103005148D01*
X97627573Y-103055441D01*
X97627570Y-103055443D01*
X97512353Y-103141693D01*
X97426104Y-103256908D01*
X97424811Y-103260375D01*
X97422424Y-103266773D01*
X97379880Y-103323608D01*
X97313360Y-103348419D01*
X97304370Y-103348740D01*
X97213258Y-103348740D01*
X97145137Y-103328738D01*
X97124163Y-103311835D01*
X96462405Y-102650077D01*
X96428379Y-102587765D01*
X96425500Y-102560982D01*
X96425500Y-102326325D01*
X96445502Y-102258204D01*
X96499158Y-102211711D01*
X96541290Y-102201266D01*
X96541250Y-102200918D01*
X96543967Y-102200602D01*
X96544245Y-102200534D01*
X96544840Y-102200499D01*
X96544864Y-102200499D01*
X96569991Y-102197585D01*
X96672765Y-102152206D01*
X96752206Y-102072765D01*
X96797585Y-101969991D01*
X96800500Y-101944865D01*
X96800499Y-100855136D01*
X96797585Y-100830009D01*
X96762990Y-100751658D01*
X96752206Y-100727234D01*
X96672767Y-100647795D01*
X96672765Y-100647794D01*
X96569989Y-100602414D01*
X96569990Y-100602414D01*
X96544868Y-100599500D01*
X95455140Y-100599500D01*
X95455133Y-100599501D01*
X95430009Y-100602414D01*
X95430005Y-100602416D01*
X95327234Y-100647793D01*
X95247795Y-100727232D01*
X95247794Y-100727234D01*
X95202414Y-100830009D01*
X95199500Y-100855129D01*
X95199500Y-101944859D01*
X95199501Y-101944866D01*
X95202414Y-101969990D01*
X95202416Y-101969994D01*
X95247793Y-102072765D01*
X95327232Y-102152204D01*
X95327234Y-102152205D01*
X95327235Y-102152206D01*
X95430009Y-102197585D01*
X95430008Y-102197585D01*
X95455124Y-102200499D01*
X95455128Y-102200499D01*
X95455135Y-102200500D01*
X95455141Y-102200499D01*
X95455747Y-102200535D01*
X95455897Y-102200588D01*
X95458752Y-102200920D01*
X95458675Y-102201581D01*
X95522605Y-102224422D01*
X95565934Y-102280662D01*
X95574500Y-102326326D01*
X95574500Y-102856813D01*
X95581912Y-102879625D01*
X95586528Y-102898851D01*
X95590280Y-102922545D01*
X95601170Y-102943916D01*
X95608737Y-102962184D01*
X95616150Y-102985000D01*
X95630249Y-103004405D01*
X95640579Y-103021263D01*
X95651470Y-103042638D01*
X95651471Y-103042639D01*
X95651472Y-103042640D01*
X95675446Y-103066614D01*
X96636292Y-104027460D01*
X96731600Y-104122768D01*
X96752969Y-104133656D01*
X96769826Y-104143986D01*
X96789237Y-104158089D01*
X96789238Y-104158089D01*
X96789239Y-104158090D01*
X96812052Y-104165501D01*
X96830314Y-104173065D01*
X96851694Y-104183959D01*
X96875392Y-104187712D01*
X96894606Y-104192324D01*
X96917427Y-104199740D01*
X96951332Y-104199740D01*
X97304370Y-104199740D01*
X97372491Y-104219742D01*
X97418984Y-104273398D01*
X97422419Y-104281691D01*
X97426102Y-104291566D01*
X97426104Y-104291571D01*
X97512353Y-104406786D01*
X97569961Y-104449911D01*
X97627569Y-104493036D01*
X97627571Y-104493036D01*
X97627573Y-104493038D01*
X97687930Y-104515549D01*
X97762414Y-104543330D01*
X97762417Y-104543331D01*
X97822027Y-104549740D01*
X98317772Y-104549739D01*
X98377383Y-104543331D01*
X98512231Y-104493036D01*
X98627446Y-104406786D01*
X98713696Y-104291571D01*
X98763991Y-104156723D01*
X98769622Y-104104344D01*
X98796792Y-104038753D01*
X98855110Y-103998263D01*
X98926061Y-103995729D01*
X98987119Y-104031957D01*
X99018898Y-104095444D01*
X99020178Y-104104347D01*
X99025808Y-104156721D01*
X99076101Y-104291566D01*
X99076103Y-104291569D01*
X99162353Y-104406786D01*
X99219961Y-104449911D01*
X99277569Y-104493036D01*
X99277571Y-104493036D01*
X99277573Y-104493038D01*
X99337930Y-104515549D01*
X99412414Y-104543330D01*
X99412417Y-104543331D01*
X99472027Y-104549740D01*
X99967772Y-104549739D01*
X100027383Y-104543331D01*
X100162231Y-104493036D01*
X100277446Y-104406786D01*
X100363696Y-104291571D01*
X100413991Y-104156723D01*
X100420400Y-104097113D01*
X100420399Y-103451368D01*
X100413991Y-103391757D01*
X100367375Y-103266772D01*
X100363698Y-103256913D01*
X100363696Y-103256910D01*
X100363696Y-103256909D01*
X100277446Y-103141694D01*
X100162231Y-103055444D01*
X100162230Y-103055443D01*
X100158390Y-103052569D01*
X100115844Y-102995733D01*
X100107900Y-102951701D01*
X100107900Y-102863668D01*
X100107899Y-102863665D01*
X100105672Y-102856813D01*
X100100486Y-102840852D01*
X100095871Y-102821632D01*
X100092119Y-102797934D01*
X100081227Y-102776558D01*
X100073660Y-102758291D01*
X100066249Y-102735479D01*
X100052146Y-102716068D01*
X100041821Y-102699218D01*
X100030928Y-102677840D01*
X99935620Y-102582532D01*
X99612405Y-102259317D01*
X99578379Y-102197005D01*
X99575500Y-102170222D01*
X99575500Y-102113292D01*
X99595502Y-102045171D01*
X99649158Y-101998678D01*
X99650449Y-101998097D01*
X99697765Y-101977206D01*
X99777206Y-101897765D01*
X99822585Y-101794991D01*
X99825500Y-101769865D01*
X99825499Y-101230136D01*
X99822585Y-101205009D01*
X99820768Y-101200893D01*
X99820120Y-101195951D01*
X99820096Y-101195860D01*
X99820108Y-101195856D01*
X99811550Y-101130497D01*
X99820767Y-101099106D01*
X99822585Y-101094991D01*
X99825500Y-101069865D01*
X99825499Y-100803998D01*
X99845501Y-100735880D01*
X99899156Y-100689387D01*
X99951499Y-100678000D01*
X100048500Y-100678000D01*
X100116621Y-100698002D01*
X100163114Y-100751658D01*
X100174500Y-100804000D01*
X100174500Y-101069859D01*
X100174501Y-101069866D01*
X100177414Y-101094988D01*
X100177418Y-101095000D01*
X100179234Y-101099114D01*
X100179880Y-101104051D01*
X100179904Y-101104139D01*
X100179892Y-101104142D01*
X100188447Y-101169510D01*
X100179236Y-101200882D01*
X100177416Y-101205003D01*
X100177414Y-101205010D01*
X100174500Y-101230130D01*
X100174500Y-101769859D01*
X100174501Y-101769866D01*
X100177414Y-101794990D01*
X100177416Y-101794994D01*
X100222793Y-101897765D01*
X100302232Y-101977204D01*
X100302234Y-101977205D01*
X100302235Y-101977206D01*
X100350865Y-101998678D01*
X100365552Y-102005163D01*
X100419789Y-102050976D01*
X100439107Y-102100715D01*
X100440280Y-102108125D01*
X100451170Y-102129496D01*
X100458737Y-102147764D01*
X100466150Y-102170580D01*
X100480249Y-102189985D01*
X100490579Y-102206843D01*
X100501470Y-102228218D01*
X100501471Y-102228219D01*
X100501472Y-102228220D01*
X100525446Y-102252194D01*
X101101471Y-102828219D01*
X101196779Y-102923527D01*
X101218150Y-102934416D01*
X101235005Y-102944745D01*
X101254416Y-102958848D01*
X101254417Y-102958848D01*
X101254418Y-102958849D01*
X101277231Y-102966260D01*
X101295493Y-102973824D01*
X101316873Y-102984718D01*
X101340571Y-102988471D01*
X101359785Y-102993083D01*
X101382606Y-103000499D01*
X101382607Y-103000499D01*
X104146073Y-103000499D01*
X104168881Y-102993087D01*
X104188107Y-102988470D01*
X104211805Y-102984718D01*
X104233179Y-102973826D01*
X104251452Y-102966258D01*
X104274258Y-102958849D01*
X104274258Y-102958848D01*
X104274260Y-102958848D01*
X104293660Y-102944751D01*
X104310527Y-102934416D01*
X104318454Y-102930376D01*
X104331899Y-102923527D01*
X104427207Y-102828219D01*
X104724554Y-102530872D01*
X104748528Y-102506898D01*
X104759425Y-102485510D01*
X104769756Y-102468654D01*
X104770652Y-102467422D01*
X104826880Y-102424081D01*
X104897617Y-102418018D01*
X104960403Y-102451162D01*
X104995303Y-102512988D01*
X104991237Y-102583868D01*
X104985769Y-102596844D01*
X104948888Y-102672284D01*
X104943932Y-102681441D01*
X104711312Y-103071829D01*
X104705616Y-103080548D01*
X104441550Y-103450395D01*
X104435154Y-103458613D01*
X104141438Y-103805403D01*
X104134384Y-103813064D01*
X103813064Y-104134384D01*
X103805403Y-104141438D01*
X103458613Y-104435154D01*
X103450395Y-104441550D01*
X103080548Y-104705616D01*
X103071829Y-104711312D01*
X102681441Y-104943932D01*
X102672283Y-104948888D01*
X102264014Y-105148479D01*
X102254477Y-105152662D01*
X101831132Y-105317852D01*
X101821282Y-105321234D01*
X101385723Y-105450906D01*
X101375628Y-105453462D01*
X100930861Y-105546719D01*
X100920589Y-105548433D01*
X100469639Y-105604644D01*
X100459261Y-105605504D01*
X100005207Y-105624284D01*
X99994793Y-105624284D01*
X99540738Y-105605504D01*
X99530360Y-105604644D01*
X99079410Y-105548433D01*
X99069138Y-105546719D01*
X98624371Y-105453462D01*
X98614276Y-105450906D01*
X98178717Y-105321234D01*
X98168867Y-105317852D01*
X97745522Y-105152662D01*
X97735985Y-105148479D01*
X97327716Y-104948888D01*
X97318558Y-104943932D01*
X96928170Y-104711312D01*
X96919451Y-104705616D01*
X96549604Y-104441550D01*
X96541386Y-104435154D01*
X96194596Y-104141438D01*
X96186935Y-104134384D01*
X95865615Y-103813064D01*
X95858561Y-103805403D01*
X95564845Y-103458613D01*
X95558449Y-103450395D01*
X95294383Y-103080548D01*
X95288687Y-103071829D01*
X95056067Y-102681441D01*
X95051111Y-102672283D01*
X94851520Y-102264014D01*
X94847337Y-102254477D01*
X94846445Y-102252192D01*
X94682144Y-101831123D01*
X94678765Y-101821282D01*
X94663458Y-101769866D01*
X94549089Y-101385709D01*
X94546540Y-101375641D01*
X94453279Y-100930857D01*
X94451566Y-100920589D01*
X94443408Y-100855140D01*
X94395353Y-100469625D01*
X94394496Y-100459276D01*
X94375715Y-100005198D01*
X94375715Y-99994793D01*
X94376024Y-99987327D01*
X94394496Y-99540721D01*
X94395353Y-99530376D01*
X94451567Y-99079402D01*
X94453280Y-99069138D01*
X94546541Y-98624352D01*
X94549087Y-98614295D01*
X94678770Y-98178701D01*
X94682141Y-98168883D01*
X94847340Y-97745513D01*
X94851520Y-97735985D01*
X94860201Y-97718229D01*
X95051112Y-97327713D01*
X95056067Y-97318558D01*
X95132854Y-97189693D01*
X95288692Y-96928161D01*
X95294376Y-96919460D01*
X95558455Y-96549595D01*
X95564837Y-96541395D01*
X95858573Y-96194582D01*
X95865603Y-96186947D01*
X96186947Y-95865603D01*
X96194582Y-95858573D01*
X96541395Y-95564837D01*
X96549595Y-95558455D01*
X96919460Y-95294376D01*
X96928161Y-95288692D01*
X97318560Y-95056065D01*
X97327716Y-95051111D01*
X97735993Y-94851516D01*
X97745513Y-94847340D01*
X98168883Y-94682141D01*
X98178701Y-94678770D01*
X98614295Y-94549087D01*
X98624352Y-94546541D01*
X99069146Y-94453278D01*
X99079402Y-94451567D01*
X99530376Y-94395353D01*
X99540721Y-94394496D01*
X99994802Y-94375715D01*
X100005198Y-94375715D01*
X100459276Y-94394496D01*
G37*
G04 #@! TD.AperFunction*
M02*
