G04 #@! TF.GenerationSoftware,KiCad,Pcbnew,(5.1.5)-3*
G04 #@! TF.CreationDate,2020-05-18T19:12:55+02:00*
G04 #@! TF.ProjectId,DNMS,444e4d53-2e6b-4696-9361-645f70636258,0.9.0*
G04 #@! TF.SameCoordinates,Original*
G04 #@! TF.FileFunction,Legend,Top*
G04 #@! TF.FilePolarity,Positive*
%FSLAX46Y46*%
G04 Gerber Fmt 4.6, Leading zero omitted, Abs format (unit mm)*
G04 Created by KiCad (PCBNEW (5.1.5)-3) date 2020-05-18 19:12:55*
%MOMM*%
%LPD*%
G04 APERTURE LIST*
%ADD10C,0.200000*%
%ADD11C,0.150000*%
%ADD12C,0.100000*%
%ADD13C,0.300000*%
%ADD14C,0.750000*%
%ADD15C,0.127000*%
%ADD16C,0.152400*%
%ADD17C,0.120000*%
%ADD18C,0.010000*%
%ADD19C,0.015000*%
%ADD20C,0.254000*%
G04 APERTURE END LIST*
D10*
X138198361Y-89876380D02*
X138531695Y-90876380D01*
X138865028Y-89876380D01*
X139198361Y-90876380D02*
X139198361Y-89876380D01*
X139674552Y-90876380D02*
X139674552Y-89876380D01*
X140245980Y-90876380D01*
X140245980Y-89876380D01*
X137972895Y-78189200D02*
X137877657Y-78141580D01*
X137734800Y-78141580D01*
X137591942Y-78189200D01*
X137496704Y-78284438D01*
X137449085Y-78379676D01*
X137401466Y-78570152D01*
X137401466Y-78713009D01*
X137449085Y-78903485D01*
X137496704Y-78998723D01*
X137591942Y-79093961D01*
X137734800Y-79141580D01*
X137830038Y-79141580D01*
X137972895Y-79093961D01*
X138020514Y-79046342D01*
X138020514Y-78713009D01*
X137830038Y-78713009D01*
X138449085Y-79141580D02*
X138449085Y-78141580D01*
X139020514Y-79141580D01*
X139020514Y-78141580D01*
X139496704Y-79141580D02*
X139496704Y-78141580D01*
X139734800Y-78141580D01*
X139877657Y-78189200D01*
X139972895Y-78284438D01*
X140020514Y-78379676D01*
X140068133Y-78570152D01*
X140068133Y-78713009D01*
X140020514Y-78903485D01*
X139972895Y-78998723D01*
X139877657Y-79093961D01*
X139734800Y-79141580D01*
X139496704Y-79141580D01*
D11*
X181946514Y-76322180D02*
X181375085Y-76322180D01*
X181660800Y-76322180D02*
X181660800Y-75322180D01*
X181565561Y-75465038D01*
X181470323Y-75560276D01*
X181375085Y-75607895D01*
X171200819Y-79051114D02*
X171200819Y-78479685D01*
X171200819Y-78765400D02*
X172200819Y-78765400D01*
X172057961Y-78670161D01*
X171962723Y-78574923D01*
X171915104Y-78479685D01*
D12*
X179565476Y-87788742D02*
X180175000Y-87788742D01*
X179870238Y-88093504D02*
X179870238Y-87483980D01*
X180479761Y-87293504D02*
X180975000Y-87293504D01*
X180708333Y-87598266D01*
X180822619Y-87598266D01*
X180898809Y-87636361D01*
X180936904Y-87674457D01*
X180975000Y-87750647D01*
X180975000Y-87941123D01*
X180936904Y-88017314D01*
X180898809Y-88055409D01*
X180822619Y-88093504D01*
X180594047Y-88093504D01*
X180517857Y-88055409D01*
X180479761Y-88017314D01*
X181203571Y-87293504D02*
X181470238Y-88093504D01*
X181736904Y-87293504D01*
X181927380Y-87293504D02*
X182422619Y-87293504D01*
X182155952Y-87598266D01*
X182270238Y-87598266D01*
X182346428Y-87636361D01*
X182384523Y-87674457D01*
X182422619Y-87750647D01*
X182422619Y-87941123D01*
X182384523Y-88017314D01*
X182346428Y-88055409D01*
X182270238Y-88093504D01*
X182041666Y-88093504D01*
X181965476Y-88055409D01*
X181927380Y-88017314D01*
X62953971Y-80371904D02*
X62573019Y-80371904D01*
X62573019Y-79571904D01*
X63792066Y-79533809D02*
X63106352Y-80562380D01*
X64515876Y-80371904D02*
X64249209Y-79990952D01*
X64058733Y-80371904D02*
X64058733Y-79571904D01*
X64363495Y-79571904D01*
X64439685Y-79610000D01*
X64477780Y-79648095D01*
X64515876Y-79724285D01*
X64515876Y-79838571D01*
X64477780Y-79914761D01*
X64439685Y-79952857D01*
X64363495Y-79990952D01*
X64058733Y-79990952D01*
X63233390Y-82315104D02*
X63423866Y-83115104D01*
X63576247Y-82543676D01*
X63728628Y-83115104D01*
X63919104Y-82315104D01*
X64185771Y-83077009D02*
X64300057Y-83115104D01*
X64490533Y-83115104D01*
X64566723Y-83077009D01*
X64604819Y-83038914D01*
X64642914Y-82962723D01*
X64642914Y-82886533D01*
X64604819Y-82810342D01*
X64566723Y-82772247D01*
X64490533Y-82734152D01*
X64338152Y-82696057D01*
X64261961Y-82657961D01*
X64223866Y-82619866D01*
X64185771Y-82543676D01*
X64185771Y-82467485D01*
X64223866Y-82391295D01*
X64261961Y-82353200D01*
X64338152Y-82315104D01*
X64528628Y-82315104D01*
X64642914Y-82353200D01*
X63455628Y-85617009D02*
X63569914Y-85655104D01*
X63760390Y-85655104D01*
X63836580Y-85617009D01*
X63874676Y-85578914D01*
X63912771Y-85502723D01*
X63912771Y-85426533D01*
X63874676Y-85350342D01*
X63836580Y-85312247D01*
X63760390Y-85274152D01*
X63608009Y-85236057D01*
X63531819Y-85197961D01*
X63493723Y-85159866D01*
X63455628Y-85083676D01*
X63455628Y-85007485D01*
X63493723Y-84931295D01*
X63531819Y-84893200D01*
X63608009Y-84855104D01*
X63798485Y-84855104D01*
X63912771Y-84893200D01*
X64255628Y-85655104D02*
X64255628Y-84855104D01*
X64446104Y-84855104D01*
X64560390Y-84893200D01*
X64636580Y-84969390D01*
X64674676Y-85045580D01*
X64712771Y-85197961D01*
X64712771Y-85312247D01*
X64674676Y-85464628D01*
X64636580Y-85540819D01*
X64560390Y-85617009D01*
X64446104Y-85655104D01*
X64255628Y-85655104D01*
D13*
X141458085Y-82084171D02*
X142315228Y-82084171D01*
X141886657Y-83584171D02*
X141886657Y-82084171D01*
X142672371Y-82084171D02*
X143600942Y-82084171D01*
X143100942Y-82655600D01*
X143315228Y-82655600D01*
X143458085Y-82727028D01*
X143529514Y-82798457D01*
X143600942Y-82941314D01*
X143600942Y-83298457D01*
X143529514Y-83441314D01*
X143458085Y-83512742D01*
X143315228Y-83584171D01*
X142886657Y-83584171D01*
X142743800Y-83512742D01*
X142672371Y-83441314D01*
X144243800Y-83441314D02*
X144315228Y-83512742D01*
X144243800Y-83584171D01*
X144172371Y-83512742D01*
X144243800Y-83441314D01*
X144243800Y-83584171D01*
X145600942Y-82084171D02*
X145315228Y-82084171D01*
X145172371Y-82155600D01*
X145100942Y-82227028D01*
X144958085Y-82441314D01*
X144886657Y-82727028D01*
X144886657Y-83298457D01*
X144958085Y-83441314D01*
X145029514Y-83512742D01*
X145172371Y-83584171D01*
X145458085Y-83584171D01*
X145600942Y-83512742D01*
X145672371Y-83441314D01*
X145743800Y-83298457D01*
X145743800Y-82941314D01*
X145672371Y-82798457D01*
X145600942Y-82727028D01*
X145458085Y-82655600D01*
X145172371Y-82655600D01*
X145029514Y-82727028D01*
X144958085Y-82798457D01*
X144886657Y-82941314D01*
X147315228Y-82084171D02*
X147815228Y-83584171D01*
X148315228Y-82084171D01*
X149600942Y-83584171D02*
X148743800Y-83584171D01*
X149172371Y-83584171D02*
X149172371Y-82084171D01*
X149029514Y-82298457D01*
X148886657Y-82441314D01*
X148743800Y-82512742D01*
X150243800Y-83441314D02*
X150315228Y-83512742D01*
X150243800Y-83584171D01*
X150172371Y-83512742D01*
X150243800Y-83441314D01*
X150243800Y-83584171D01*
X150815228Y-82084171D02*
X151743800Y-82084171D01*
X151243800Y-82655600D01*
X151458085Y-82655600D01*
X151600942Y-82727028D01*
X151672371Y-82798457D01*
X151743800Y-82941314D01*
X151743800Y-83298457D01*
X151672371Y-83441314D01*
X151600942Y-83512742D01*
X151458085Y-83584171D01*
X151029514Y-83584171D01*
X150886657Y-83512742D01*
X150815228Y-83441314D01*
D12*
X71450323Y-84728104D02*
X71945561Y-84728104D01*
X71678895Y-85032866D01*
X71793180Y-85032866D01*
X71869371Y-85070961D01*
X71907466Y-85109057D01*
X71945561Y-85185247D01*
X71945561Y-85375723D01*
X71907466Y-85451914D01*
X71869371Y-85490009D01*
X71793180Y-85528104D01*
X71564609Y-85528104D01*
X71488419Y-85490009D01*
X71450323Y-85451914D01*
X72174133Y-84728104D02*
X72440800Y-85528104D01*
X72707466Y-84728104D01*
X72897942Y-84728104D02*
X73393180Y-84728104D01*
X73126514Y-85032866D01*
X73240800Y-85032866D01*
X73316990Y-85070961D01*
X73355085Y-85109057D01*
X73393180Y-85185247D01*
X73393180Y-85375723D01*
X73355085Y-85451914D01*
X73316990Y-85490009D01*
X73240800Y-85528104D01*
X73012228Y-85528104D01*
X72936038Y-85490009D01*
X72897942Y-85451914D01*
X71336028Y-83000809D02*
X71450314Y-83038904D01*
X71640790Y-83038904D01*
X71716980Y-83000809D01*
X71755076Y-82962714D01*
X71793171Y-82886523D01*
X71793171Y-82810333D01*
X71755076Y-82734142D01*
X71716980Y-82696047D01*
X71640790Y-82657952D01*
X71488409Y-82619857D01*
X71412219Y-82581761D01*
X71374123Y-82543666D01*
X71336028Y-82467476D01*
X71336028Y-82391285D01*
X71374123Y-82315095D01*
X71412219Y-82277000D01*
X71488409Y-82238904D01*
X71678885Y-82238904D01*
X71793171Y-82277000D01*
X72593171Y-82962714D02*
X72555076Y-83000809D01*
X72440790Y-83038904D01*
X72364600Y-83038904D01*
X72250314Y-83000809D01*
X72174123Y-82924619D01*
X72136028Y-82848428D01*
X72097933Y-82696047D01*
X72097933Y-82581761D01*
X72136028Y-82429380D01*
X72174123Y-82353190D01*
X72250314Y-82277000D01*
X72364600Y-82238904D01*
X72440790Y-82238904D01*
X72555076Y-82277000D01*
X72593171Y-82315095D01*
X72936028Y-83038904D02*
X72936028Y-82238904D01*
X73393171Y-83038904D02*
X73050314Y-82581761D01*
X73393171Y-82238904D02*
X72936028Y-82696047D01*
X71856676Y-79711600D02*
X71780485Y-79673504D01*
X71666200Y-79673504D01*
X71551914Y-79711600D01*
X71475723Y-79787790D01*
X71437628Y-79863980D01*
X71399533Y-80016361D01*
X71399533Y-80130647D01*
X71437628Y-80283028D01*
X71475723Y-80359219D01*
X71551914Y-80435409D01*
X71666200Y-80473504D01*
X71742390Y-80473504D01*
X71856676Y-80435409D01*
X71894771Y-80397314D01*
X71894771Y-80130647D01*
X71742390Y-80130647D01*
X72237628Y-80473504D02*
X72237628Y-79673504D01*
X72694771Y-80473504D01*
X72694771Y-79673504D01*
X73075723Y-80473504D02*
X73075723Y-79673504D01*
X73266200Y-79673504D01*
X73380485Y-79711600D01*
X73456676Y-79787790D01*
X73494771Y-79863980D01*
X73532866Y-80016361D01*
X73532866Y-80130647D01*
X73494771Y-80283028D01*
X73456676Y-80359219D01*
X73380485Y-80435409D01*
X73266200Y-80473504D01*
X73075723Y-80473504D01*
X187394971Y-91662209D02*
X187509257Y-91700304D01*
X187699733Y-91700304D01*
X187775923Y-91662209D01*
X187814019Y-91624114D01*
X187852114Y-91547923D01*
X187852114Y-91471733D01*
X187814019Y-91395542D01*
X187775923Y-91357447D01*
X187699733Y-91319352D01*
X187547352Y-91281257D01*
X187471161Y-91243161D01*
X187433066Y-91205066D01*
X187394971Y-91128876D01*
X187394971Y-91052685D01*
X187433066Y-90976495D01*
X187471161Y-90938400D01*
X187547352Y-90900304D01*
X187737828Y-90900304D01*
X187852114Y-90938400D01*
X188194971Y-91700304D02*
X188194971Y-90900304D01*
X188385447Y-90900304D01*
X188499733Y-90938400D01*
X188575923Y-91014590D01*
X188614019Y-91090780D01*
X188652114Y-91243161D01*
X188652114Y-91357447D01*
X188614019Y-91509828D01*
X188575923Y-91586019D01*
X188499733Y-91662209D01*
X188385447Y-91700304D01*
X188194971Y-91700304D01*
X188956876Y-91471733D02*
X189337828Y-91471733D01*
X188880685Y-91700304D02*
X189147352Y-90900304D01*
X189414019Y-91700304D01*
X187693419Y-89071409D02*
X187807704Y-89109504D01*
X187998180Y-89109504D01*
X188074371Y-89071409D01*
X188112466Y-89033314D01*
X188150561Y-88957123D01*
X188150561Y-88880933D01*
X188112466Y-88804742D01*
X188074371Y-88766647D01*
X187998180Y-88728552D01*
X187845800Y-88690457D01*
X187769609Y-88652361D01*
X187731514Y-88614266D01*
X187693419Y-88538076D01*
X187693419Y-88461885D01*
X187731514Y-88385695D01*
X187769609Y-88347600D01*
X187845800Y-88309504D01*
X188036276Y-88309504D01*
X188150561Y-88347600D01*
X188950561Y-89033314D02*
X188912466Y-89071409D01*
X188798180Y-89109504D01*
X188721990Y-89109504D01*
X188607704Y-89071409D01*
X188531514Y-88995219D01*
X188493419Y-88919028D01*
X188455323Y-88766647D01*
X188455323Y-88652361D01*
X188493419Y-88499980D01*
X188531514Y-88423790D01*
X188607704Y-88347600D01*
X188721990Y-88309504D01*
X188798180Y-88309504D01*
X188912466Y-88347600D01*
X188950561Y-88385695D01*
X189674371Y-89109504D02*
X189293419Y-89109504D01*
X189293419Y-88309504D01*
X187960076Y-85858400D02*
X187883885Y-85820304D01*
X187769600Y-85820304D01*
X187655314Y-85858400D01*
X187579123Y-85934590D01*
X187541028Y-86010780D01*
X187502933Y-86163161D01*
X187502933Y-86277447D01*
X187541028Y-86429828D01*
X187579123Y-86506019D01*
X187655314Y-86582209D01*
X187769600Y-86620304D01*
X187845790Y-86620304D01*
X187960076Y-86582209D01*
X187998171Y-86544114D01*
X187998171Y-86277447D01*
X187845790Y-86277447D01*
X188341028Y-86620304D02*
X188341028Y-85820304D01*
X188798171Y-86620304D01*
X188798171Y-85820304D01*
X189179123Y-86620304D02*
X189179123Y-85820304D01*
X189369600Y-85820304D01*
X189483885Y-85858400D01*
X189560076Y-85934590D01*
X189598171Y-86010780D01*
X189636266Y-86163161D01*
X189636266Y-86277447D01*
X189598171Y-86429828D01*
X189560076Y-86506019D01*
X189483885Y-86582209D01*
X189369600Y-86620304D01*
X189179123Y-86620304D01*
X187464828Y-83775542D02*
X188074352Y-83775542D01*
X187769590Y-84080304D02*
X187769590Y-83470780D01*
X188836257Y-83280304D02*
X188455304Y-83280304D01*
X188417209Y-83661257D01*
X188455304Y-83623161D01*
X188531495Y-83585066D01*
X188721971Y-83585066D01*
X188798161Y-83623161D01*
X188836257Y-83661257D01*
X188874352Y-83737447D01*
X188874352Y-83927923D01*
X188836257Y-84004114D01*
X188798161Y-84042209D01*
X188721971Y-84080304D01*
X188531495Y-84080304D01*
X188455304Y-84042209D01*
X188417209Y-84004114D01*
X189102923Y-83280304D02*
X189369590Y-84080304D01*
X189636257Y-83280304D01*
D14*
X141815466Y-80066923D02*
X141815466Y-76066923D01*
X142767847Y-76066923D01*
X143339276Y-76257400D01*
X143720228Y-76638352D01*
X143910704Y-77019304D01*
X144101180Y-77781209D01*
X144101180Y-78352638D01*
X143910704Y-79114542D01*
X143720228Y-79495495D01*
X143339276Y-79876447D01*
X142767847Y-80066923D01*
X141815466Y-80066923D01*
X145815466Y-80066923D02*
X145815466Y-76066923D01*
X148101180Y-80066923D01*
X148101180Y-76066923D01*
X150005942Y-80066923D02*
X150005942Y-76066923D01*
X151339276Y-78924066D01*
X152672609Y-76066923D01*
X152672609Y-80066923D01*
X154386895Y-79876447D02*
X154958323Y-80066923D01*
X155910704Y-80066923D01*
X156291657Y-79876447D01*
X156482133Y-79685971D01*
X156672609Y-79305019D01*
X156672609Y-78924066D01*
X156482133Y-78543114D01*
X156291657Y-78352638D01*
X155910704Y-78162161D01*
X155148800Y-77971685D01*
X154767847Y-77781209D01*
X154577371Y-77590733D01*
X154386895Y-77209780D01*
X154386895Y-76828828D01*
X154577371Y-76447876D01*
X154767847Y-76257400D01*
X155148800Y-76066923D01*
X156101180Y-76066923D01*
X156672609Y-76257400D01*
D15*
X140585800Y-75429600D02*
X78285800Y-75429600D01*
X78285800Y-75429600D02*
X78285800Y-93429600D01*
X78285800Y-93429600D02*
X140585800Y-93429600D01*
X140585800Y-93429600D02*
X140585800Y-75429600D01*
D16*
X140535800Y-80929600D02*
X137835800Y-80929600D01*
X137835800Y-80929600D02*
X137835800Y-87929600D01*
X137835800Y-87929600D02*
X140535800Y-87929600D01*
D17*
X183099400Y-86147600D02*
X184429400Y-86147600D01*
X183099400Y-87477600D02*
X183099400Y-86147600D01*
X183099400Y-88747600D02*
X185759400Y-88747600D01*
X185759400Y-88747600D02*
X185759400Y-88807600D01*
X183099400Y-88747600D02*
X183099400Y-88807600D01*
X183099400Y-88807600D02*
X185759400Y-88807600D01*
X172942200Y-90650200D02*
X182182200Y-90650200D01*
X172942200Y-92890200D02*
X182182200Y-92890200D01*
X172942200Y-90650200D02*
X172942200Y-91105200D01*
X172942200Y-92435200D02*
X172942200Y-92890200D01*
X182182200Y-90650200D02*
X182182200Y-91105200D01*
X182182200Y-92435200D02*
X182182200Y-92890200D01*
X183207800Y-84080400D02*
X183207800Y-74840400D01*
X185447800Y-84080400D02*
X185447800Y-74840400D01*
X183207800Y-84080400D02*
X183662800Y-84080400D01*
X184992800Y-84080400D02*
X185447800Y-84080400D01*
X183207800Y-74840400D02*
X183662800Y-74840400D01*
X184992800Y-74840400D02*
X185447800Y-74840400D01*
X70669200Y-93347400D02*
X61429200Y-93347400D01*
X70669200Y-91107400D02*
X61429200Y-91107400D01*
X70669200Y-93347400D02*
X70669200Y-92892400D01*
X70669200Y-91562400D02*
X70669200Y-91107400D01*
X61429200Y-93347400D02*
X61429200Y-92892400D01*
X61429200Y-91562400D02*
X61429200Y-91107400D01*
X65472000Y-78680000D02*
X66802000Y-78680000D01*
X65472000Y-80010000D02*
X65472000Y-78680000D01*
X68072000Y-78680000D02*
X70672000Y-78680000D01*
X68072000Y-81280000D02*
X68072000Y-78680000D01*
X65472000Y-81280000D02*
X68072000Y-81280000D01*
X70672000Y-78680000D02*
X70672000Y-86420000D01*
X65472000Y-81280000D02*
X65472000Y-86420000D01*
X65472000Y-86420000D02*
X70672000Y-86420000D01*
D12*
X203346200Y-90582000D02*
X198346200Y-90582000D01*
X198346200Y-90582000D02*
X198346200Y-78582000D01*
X198346200Y-78582000D02*
X203346200Y-78582000D01*
X207346200Y-90582000D02*
X211346200Y-90582000D01*
X211346200Y-90582000D02*
X211346200Y-78582000D01*
X211346200Y-78582000D02*
X207346200Y-78582000D01*
D10*
X197846200Y-82082000D02*
X197846200Y-82082000D01*
X197846200Y-81882000D02*
X197846200Y-81882000D01*
X197846200Y-81882000D02*
G75*
G03X197846200Y-82082000I0J-100000D01*
G01*
X197846200Y-82082000D02*
G75*
G03X197846200Y-81882000I0J100000D01*
G01*
D18*
G36*
X150645429Y-88633740D02*
G01*
X150761483Y-88672012D01*
X150987414Y-88780127D01*
X151167540Y-88919529D01*
X151316516Y-89102100D01*
X151343053Y-89143528D01*
X151377482Y-89210671D01*
X151400380Y-89289588D01*
X151414816Y-89396584D01*
X151423860Y-89547968D01*
X151425086Y-89579396D01*
X151427066Y-89782801D01*
X151413032Y-89940347D01*
X151378765Y-90068572D01*
X151320047Y-90184011D01*
X151244085Y-90289050D01*
X151163277Y-90386765D01*
X151096138Y-90454704D01*
X151021535Y-90510392D01*
X150918334Y-90571355D01*
X150874425Y-90595604D01*
X150806744Y-90630562D01*
X150743835Y-90655035D01*
X150671966Y-90671211D01*
X150577406Y-90681276D01*
X150446426Y-90687419D01*
X150271175Y-90691707D01*
X150104259Y-90693029D01*
X149955778Y-90690356D01*
X149839477Y-90684213D01*
X149769103Y-90675125D01*
X149759622Y-90672175D01*
X149656093Y-90596387D01*
X149586647Y-90482656D01*
X149555067Y-90348846D01*
X149565139Y-90212820D01*
X149620648Y-90092444D01*
X149633413Y-90076507D01*
X149668982Y-90038488D01*
X149706856Y-90012464D01*
X149759969Y-89995385D01*
X149841258Y-89984203D01*
X149963659Y-89975866D01*
X150085851Y-89969852D01*
X150301053Y-89955732D01*
X150460659Y-89933541D01*
X150572456Y-89899082D01*
X150644231Y-89848155D01*
X150683768Y-89776563D01*
X150698854Y-89680107D01*
X150699800Y-89638819D01*
X150672801Y-89518833D01*
X150600914Y-89425744D01*
X150497801Y-89374122D01*
X150446126Y-89368300D01*
X150346587Y-89350398D01*
X150262120Y-89312750D01*
X150151492Y-89226616D01*
X150090580Y-89133804D01*
X150067315Y-89012979D01*
X150065856Y-88965799D01*
X150069489Y-88863960D01*
X150090243Y-88797976D01*
X150140416Y-88740386D01*
X150183159Y-88703861D01*
X150313875Y-88628955D01*
X150465747Y-88605703D01*
X150645429Y-88633740D01*
G37*
X150645429Y-88633740D02*
X150761483Y-88672012D01*
X150987414Y-88780127D01*
X151167540Y-88919529D01*
X151316516Y-89102100D01*
X151343053Y-89143528D01*
X151377482Y-89210671D01*
X151400380Y-89289588D01*
X151414816Y-89396584D01*
X151423860Y-89547968D01*
X151425086Y-89579396D01*
X151427066Y-89782801D01*
X151413032Y-89940347D01*
X151378765Y-90068572D01*
X151320047Y-90184011D01*
X151244085Y-90289050D01*
X151163277Y-90386765D01*
X151096138Y-90454704D01*
X151021535Y-90510392D01*
X150918334Y-90571355D01*
X150874425Y-90595604D01*
X150806744Y-90630562D01*
X150743835Y-90655035D01*
X150671966Y-90671211D01*
X150577406Y-90681276D01*
X150446426Y-90687419D01*
X150271175Y-90691707D01*
X150104259Y-90693029D01*
X149955778Y-90690356D01*
X149839477Y-90684213D01*
X149769103Y-90675125D01*
X149759622Y-90672175D01*
X149656093Y-90596387D01*
X149586647Y-90482656D01*
X149555067Y-90348846D01*
X149565139Y-90212820D01*
X149620648Y-90092444D01*
X149633413Y-90076507D01*
X149668982Y-90038488D01*
X149706856Y-90012464D01*
X149759969Y-89995385D01*
X149841258Y-89984203D01*
X149963659Y-89975866D01*
X150085851Y-89969852D01*
X150301053Y-89955732D01*
X150460659Y-89933541D01*
X150572456Y-89899082D01*
X150644231Y-89848155D01*
X150683768Y-89776563D01*
X150698854Y-89680107D01*
X150699800Y-89638819D01*
X150672801Y-89518833D01*
X150600914Y-89425744D01*
X150497801Y-89374122D01*
X150446126Y-89368300D01*
X150346587Y-89350398D01*
X150262120Y-89312750D01*
X150151492Y-89226616D01*
X150090580Y-89133804D01*
X150067315Y-89012979D01*
X150065856Y-88965799D01*
X150069489Y-88863960D01*
X150090243Y-88797976D01*
X150140416Y-88740386D01*
X150183159Y-88703861D01*
X150313875Y-88628955D01*
X150465747Y-88605703D01*
X150645429Y-88633740D01*
G36*
X145323959Y-84613785D02*
G01*
X145572561Y-84636623D01*
X145786919Y-84672640D01*
X145955714Y-84720161D01*
X146022696Y-84749368D01*
X146092621Y-84782081D01*
X146136859Y-84796097D01*
X146137216Y-84796104D01*
X146174244Y-84811125D01*
X146252235Y-84851196D01*
X146357457Y-84909111D01*
X146414399Y-84941590D01*
X146636402Y-85089034D01*
X146859445Y-85271646D01*
X147064931Y-85472369D01*
X147234260Y-85674149D01*
X147272887Y-85728851D01*
X147409754Y-85932147D01*
X147713339Y-85930727D01*
X147904246Y-85936491D01*
X148092030Y-85953917D01*
X148259861Y-85980583D01*
X148390908Y-86014069D01*
X148443657Y-86035781D01*
X148500056Y-86063429D01*
X148589620Y-86105470D01*
X148647784Y-86132195D01*
X148727139Y-86175548D01*
X148829992Y-86241610D01*
X148944125Y-86321235D01*
X149057318Y-86405275D01*
X149157353Y-86484581D01*
X149232011Y-86550007D01*
X149269073Y-86592403D01*
X149271050Y-86598819D01*
X149290690Y-86635939D01*
X149338755Y-86695464D01*
X149346550Y-86703997D01*
X149411268Y-86788867D01*
X149487053Y-86910429D01*
X149563897Y-87049800D01*
X149631794Y-87188099D01*
X149680735Y-87306443D01*
X149698498Y-87368050D01*
X149723177Y-87466433D01*
X149753860Y-87549281D01*
X149754488Y-87550564D01*
X149776583Y-87615165D01*
X149756993Y-87639394D01*
X149692734Y-87623786D01*
X149598702Y-87578502D01*
X149426880Y-87491214D01*
X149288513Y-87432033D01*
X149164344Y-87393660D01*
X149052356Y-87371440D01*
X148931175Y-87341992D01*
X148855839Y-87295699D01*
X148833770Y-87269314D01*
X148700012Y-87099473D01*
X148550771Y-86960316D01*
X148370406Y-86839610D01*
X148143273Y-86725117D01*
X148131023Y-86719611D01*
X148067190Y-86704963D01*
X147957848Y-86693453D01*
X147820967Y-86686627D01*
X147734148Y-86685425D01*
X147560775Y-86688923D01*
X147427541Y-86703180D01*
X147311288Y-86733836D01*
X147188860Y-86786533D01*
X147075401Y-86845902D01*
X147004118Y-86881842D01*
X146969066Y-86879232D01*
X146951694Y-86828600D01*
X146943205Y-86778397D01*
X146908230Y-86655521D01*
X146842673Y-86501974D01*
X146756219Y-86336187D01*
X146658555Y-86176586D01*
X146559369Y-86041600D01*
X146550182Y-86030683D01*
X146379183Y-85853786D01*
X146187607Y-85694552D01*
X145995515Y-85568846D01*
X145913028Y-85526885D01*
X145815670Y-85481849D01*
X145736169Y-85443768D01*
X145709773Y-85430418D01*
X145609336Y-85395612D01*
X145461090Y-85368065D01*
X145280477Y-85349394D01*
X145082935Y-85341216D01*
X144891904Y-85344728D01*
X144584578Y-85379443D01*
X144313459Y-85453447D01*
X144060968Y-85572273D01*
X143949425Y-85641388D01*
X143827972Y-85733938D01*
X143695671Y-85853822D01*
X143567544Y-85985469D01*
X143458611Y-86113306D01*
X143383893Y-86221763D01*
X143376721Y-86235092D01*
X143337069Y-86306695D01*
X143307784Y-86349642D01*
X143305259Y-86352050D01*
X143279002Y-86394191D01*
X143241090Y-86479462D01*
X143198195Y-86590195D01*
X143156987Y-86708721D01*
X143124137Y-86817371D01*
X143113471Y-86860050D01*
X143093896Y-86990786D01*
X143084201Y-87152879D01*
X143083598Y-87331787D01*
X143091302Y-87512964D01*
X143106527Y-87681866D01*
X143128486Y-87823951D01*
X143156395Y-87924674D01*
X143172662Y-87955425D01*
X143198924Y-88004602D01*
X143232893Y-88084131D01*
X143238364Y-88098300D01*
X143349576Y-88319614D01*
X143509764Y-88540391D01*
X143705873Y-88746503D01*
X143924849Y-88923824D01*
X144101224Y-89032060D01*
X144189355Y-89078142D01*
X144269539Y-89117940D01*
X144346984Y-89151914D01*
X144426898Y-89180526D01*
X144514488Y-89204236D01*
X144614960Y-89223504D01*
X144733524Y-89238792D01*
X144875386Y-89250559D01*
X145045753Y-89259266D01*
X145249834Y-89265375D01*
X145492835Y-89269345D01*
X145779964Y-89271637D01*
X146116429Y-89272712D01*
X146507436Y-89273030D01*
X146825684Y-89273050D01*
X148849027Y-89273050D01*
X148933038Y-89195191D01*
X148991292Y-89123731D01*
X149014714Y-89036612D01*
X149017050Y-88978475D01*
X148994508Y-88847260D01*
X148924599Y-88755060D01*
X148803892Y-88698337D01*
X148730943Y-88683271D01*
X148572999Y-88629740D01*
X148485237Y-88564330D01*
X148421521Y-88495265D01*
X148391341Y-88427946D01*
X148383122Y-88333134D01*
X148383106Y-88306384D01*
X148399959Y-88165724D01*
X148455416Y-88063600D01*
X148560090Y-87983704D01*
X148609659Y-87958286D01*
X148671024Y-87932022D01*
X148725382Y-87921149D01*
X148791944Y-87926086D01*
X148889920Y-87947252D01*
X148964365Y-87966015D01*
X149223559Y-88059602D01*
X149434853Y-88194421D01*
X149596962Y-88368834D01*
X149708599Y-88581203D01*
X149768479Y-88829888D01*
X149779050Y-89003933D01*
X149775767Y-89127624D01*
X149767026Y-89225327D01*
X149754488Y-89280979D01*
X149749742Y-89287415D01*
X149722070Y-89329072D01*
X149700917Y-89394394D01*
X149660892Y-89483310D01*
X149582542Y-89592465D01*
X149479962Y-89706260D01*
X149367245Y-89809093D01*
X149258487Y-89885365D01*
X149256152Y-89886678D01*
X149201447Y-89916007D01*
X149146677Y-89941198D01*
X149086781Y-89962568D01*
X149016696Y-89980428D01*
X148931359Y-89995093D01*
X148825709Y-90006876D01*
X148694681Y-90016091D01*
X148533214Y-90023051D01*
X148336244Y-90028071D01*
X148098711Y-90031463D01*
X147815550Y-90033542D01*
X147481699Y-90034620D01*
X147092097Y-90035013D01*
X146861123Y-90035050D01*
X144930572Y-90035050D01*
X144846561Y-90112908D01*
X144779847Y-90214523D01*
X144760982Y-90337951D01*
X144790946Y-90462161D01*
X144827491Y-90521795D01*
X144892432Y-90604355D01*
X146946803Y-90613390D01*
X149001175Y-90622425D01*
X149198876Y-90728887D01*
X149416316Y-90877562D01*
X149585336Y-91058392D01*
X149704660Y-91263283D01*
X149773012Y-91484140D01*
X149789116Y-91712868D01*
X149751695Y-91941371D01*
X149659473Y-92161556D01*
X149511173Y-92365327D01*
X149464475Y-92413450D01*
X149305879Y-92541683D01*
X149135011Y-92622900D01*
X148935642Y-92663182D01*
X148779209Y-92670300D01*
X148657111Y-92667986D01*
X148578715Y-92657288D01*
X148524281Y-92632569D01*
X148474070Y-92588191D01*
X148467365Y-92581250D01*
X148412119Y-92509321D01*
X148387064Y-92427980D01*
X148382050Y-92333190D01*
X148401036Y-92198584D01*
X148462401Y-92096003D01*
X148572749Y-92018651D01*
X148738686Y-91959731D01*
X148747175Y-91957506D01*
X148855006Y-91922829D01*
X148940109Y-91883318D01*
X148977362Y-91854524D01*
X149005713Y-91778806D01*
X149015970Y-91672084D01*
X149007410Y-91564434D01*
X148985970Y-91496802D01*
X148969726Y-91471169D01*
X148947368Y-91449192D01*
X148914217Y-91430590D01*
X148865594Y-91415082D01*
X148796820Y-91402390D01*
X148703216Y-91392232D01*
X148580103Y-91384328D01*
X148422801Y-91378398D01*
X148226633Y-91374163D01*
X147986918Y-91371341D01*
X147698979Y-91369653D01*
X147358135Y-91368819D01*
X146959708Y-91368558D01*
X146844107Y-91368550D01*
X146420718Y-91368449D01*
X146055840Y-91367854D01*
X145744482Y-91366321D01*
X145481656Y-91363408D01*
X145262372Y-91358671D01*
X145081640Y-91351668D01*
X144934470Y-91341957D01*
X144815875Y-91329094D01*
X144720863Y-91312637D01*
X144644445Y-91292143D01*
X144581632Y-91267170D01*
X144527434Y-91237275D01*
X144476862Y-91202015D01*
X144424926Y-91160948D01*
X144415221Y-91153046D01*
X144275559Y-91031604D01*
X144180495Y-90928587D01*
X144119356Y-90831154D01*
X144092938Y-90765300D01*
X144061376Y-90683407D01*
X144031876Y-90628163D01*
X144028464Y-90624012D01*
X144010275Y-90570853D01*
X144001254Y-90473203D01*
X144000783Y-90349313D01*
X144008243Y-90217432D01*
X144023015Y-90095813D01*
X144044480Y-90002705D01*
X144050034Y-89987870D01*
X144078799Y-89912315D01*
X144090651Y-89867170D01*
X144089722Y-89862484D01*
X144057788Y-89846586D01*
X143985903Y-89812995D01*
X143921175Y-89783352D01*
X143666541Y-89646837D01*
X143412051Y-89472789D01*
X143173131Y-89274048D01*
X142965205Y-89063453D01*
X142803697Y-88853845D01*
X142802735Y-88852363D01*
X142749406Y-88771843D01*
X142710073Y-88715636D01*
X142698775Y-88701550D01*
X142677727Y-88666649D01*
X142638725Y-88590811D01*
X142592465Y-88495175D01*
X142541087Y-88387279D01*
X142496680Y-88295898D01*
X142471637Y-88246202D01*
X142432310Y-88136440D01*
X142399959Y-87976565D01*
X142375187Y-87779643D01*
X142358601Y-87558741D01*
X142350804Y-87326924D01*
X142352402Y-87097260D01*
X142364000Y-86882813D01*
X142386202Y-86696652D01*
X142397177Y-86637790D01*
X142501076Y-86292873D01*
X142662025Y-85959817D01*
X142873719Y-85646164D01*
X143129853Y-85359460D01*
X143424125Y-85107247D01*
X143750228Y-84897070D01*
X143925309Y-84809160D01*
X144143702Y-84722583D01*
X144368654Y-84662035D01*
X144615990Y-84624661D01*
X144901531Y-84607607D01*
X145052431Y-84605799D01*
X145323959Y-84613785D01*
G37*
X145323959Y-84613785D02*
X145572561Y-84636623D01*
X145786919Y-84672640D01*
X145955714Y-84720161D01*
X146022696Y-84749368D01*
X146092621Y-84782081D01*
X146136859Y-84796097D01*
X146137216Y-84796104D01*
X146174244Y-84811125D01*
X146252235Y-84851196D01*
X146357457Y-84909111D01*
X146414399Y-84941590D01*
X146636402Y-85089034D01*
X146859445Y-85271646D01*
X147064931Y-85472369D01*
X147234260Y-85674149D01*
X147272887Y-85728851D01*
X147409754Y-85932147D01*
X147713339Y-85930727D01*
X147904246Y-85936491D01*
X148092030Y-85953917D01*
X148259861Y-85980583D01*
X148390908Y-86014069D01*
X148443657Y-86035781D01*
X148500056Y-86063429D01*
X148589620Y-86105470D01*
X148647784Y-86132195D01*
X148727139Y-86175548D01*
X148829992Y-86241610D01*
X148944125Y-86321235D01*
X149057318Y-86405275D01*
X149157353Y-86484581D01*
X149232011Y-86550007D01*
X149269073Y-86592403D01*
X149271050Y-86598819D01*
X149290690Y-86635939D01*
X149338755Y-86695464D01*
X149346550Y-86703997D01*
X149411268Y-86788867D01*
X149487053Y-86910429D01*
X149563897Y-87049800D01*
X149631794Y-87188099D01*
X149680735Y-87306443D01*
X149698498Y-87368050D01*
X149723177Y-87466433D01*
X149753860Y-87549281D01*
X149754488Y-87550564D01*
X149776583Y-87615165D01*
X149756993Y-87639394D01*
X149692734Y-87623786D01*
X149598702Y-87578502D01*
X149426880Y-87491214D01*
X149288513Y-87432033D01*
X149164344Y-87393660D01*
X149052356Y-87371440D01*
X148931175Y-87341992D01*
X148855839Y-87295699D01*
X148833770Y-87269314D01*
X148700012Y-87099473D01*
X148550771Y-86960316D01*
X148370406Y-86839610D01*
X148143273Y-86725117D01*
X148131023Y-86719611D01*
X148067190Y-86704963D01*
X147957848Y-86693453D01*
X147820967Y-86686627D01*
X147734148Y-86685425D01*
X147560775Y-86688923D01*
X147427541Y-86703180D01*
X147311288Y-86733836D01*
X147188860Y-86786533D01*
X147075401Y-86845902D01*
X147004118Y-86881842D01*
X146969066Y-86879232D01*
X146951694Y-86828600D01*
X146943205Y-86778397D01*
X146908230Y-86655521D01*
X146842673Y-86501974D01*
X146756219Y-86336187D01*
X146658555Y-86176586D01*
X146559369Y-86041600D01*
X146550182Y-86030683D01*
X146379183Y-85853786D01*
X146187607Y-85694552D01*
X145995515Y-85568846D01*
X145913028Y-85526885D01*
X145815670Y-85481849D01*
X145736169Y-85443768D01*
X145709773Y-85430418D01*
X145609336Y-85395612D01*
X145461090Y-85368065D01*
X145280477Y-85349394D01*
X145082935Y-85341216D01*
X144891904Y-85344728D01*
X144584578Y-85379443D01*
X144313459Y-85453447D01*
X144060968Y-85572273D01*
X143949425Y-85641388D01*
X143827972Y-85733938D01*
X143695671Y-85853822D01*
X143567544Y-85985469D01*
X143458611Y-86113306D01*
X143383893Y-86221763D01*
X143376721Y-86235092D01*
X143337069Y-86306695D01*
X143307784Y-86349642D01*
X143305259Y-86352050D01*
X143279002Y-86394191D01*
X143241090Y-86479462D01*
X143198195Y-86590195D01*
X143156987Y-86708721D01*
X143124137Y-86817371D01*
X143113471Y-86860050D01*
X143093896Y-86990786D01*
X143084201Y-87152879D01*
X143083598Y-87331787D01*
X143091302Y-87512964D01*
X143106527Y-87681866D01*
X143128486Y-87823951D01*
X143156395Y-87924674D01*
X143172662Y-87955425D01*
X143198924Y-88004602D01*
X143232893Y-88084131D01*
X143238364Y-88098300D01*
X143349576Y-88319614D01*
X143509764Y-88540391D01*
X143705873Y-88746503D01*
X143924849Y-88923824D01*
X144101224Y-89032060D01*
X144189355Y-89078142D01*
X144269539Y-89117940D01*
X144346984Y-89151914D01*
X144426898Y-89180526D01*
X144514488Y-89204236D01*
X144614960Y-89223504D01*
X144733524Y-89238792D01*
X144875386Y-89250559D01*
X145045753Y-89259266D01*
X145249834Y-89265375D01*
X145492835Y-89269345D01*
X145779964Y-89271637D01*
X146116429Y-89272712D01*
X146507436Y-89273030D01*
X146825684Y-89273050D01*
X148849027Y-89273050D01*
X148933038Y-89195191D01*
X148991292Y-89123731D01*
X149014714Y-89036612D01*
X149017050Y-88978475D01*
X148994508Y-88847260D01*
X148924599Y-88755060D01*
X148803892Y-88698337D01*
X148730943Y-88683271D01*
X148572999Y-88629740D01*
X148485237Y-88564330D01*
X148421521Y-88495265D01*
X148391341Y-88427946D01*
X148383122Y-88333134D01*
X148383106Y-88306384D01*
X148399959Y-88165724D01*
X148455416Y-88063600D01*
X148560090Y-87983704D01*
X148609659Y-87958286D01*
X148671024Y-87932022D01*
X148725382Y-87921149D01*
X148791944Y-87926086D01*
X148889920Y-87947252D01*
X148964365Y-87966015D01*
X149223559Y-88059602D01*
X149434853Y-88194421D01*
X149596962Y-88368834D01*
X149708599Y-88581203D01*
X149768479Y-88829888D01*
X149779050Y-89003933D01*
X149775767Y-89127624D01*
X149767026Y-89225327D01*
X149754488Y-89280979D01*
X149749742Y-89287415D01*
X149722070Y-89329072D01*
X149700917Y-89394394D01*
X149660892Y-89483310D01*
X149582542Y-89592465D01*
X149479962Y-89706260D01*
X149367245Y-89809093D01*
X149258487Y-89885365D01*
X149256152Y-89886678D01*
X149201447Y-89916007D01*
X149146677Y-89941198D01*
X149086781Y-89962568D01*
X149016696Y-89980428D01*
X148931359Y-89995093D01*
X148825709Y-90006876D01*
X148694681Y-90016091D01*
X148533214Y-90023051D01*
X148336244Y-90028071D01*
X148098711Y-90031463D01*
X147815550Y-90033542D01*
X147481699Y-90034620D01*
X147092097Y-90035013D01*
X146861123Y-90035050D01*
X144930572Y-90035050D01*
X144846561Y-90112908D01*
X144779847Y-90214523D01*
X144760982Y-90337951D01*
X144790946Y-90462161D01*
X144827491Y-90521795D01*
X144892432Y-90604355D01*
X146946803Y-90613390D01*
X149001175Y-90622425D01*
X149198876Y-90728887D01*
X149416316Y-90877562D01*
X149585336Y-91058392D01*
X149704660Y-91263283D01*
X149773012Y-91484140D01*
X149789116Y-91712868D01*
X149751695Y-91941371D01*
X149659473Y-92161556D01*
X149511173Y-92365327D01*
X149464475Y-92413450D01*
X149305879Y-92541683D01*
X149135011Y-92622900D01*
X148935642Y-92663182D01*
X148779209Y-92670300D01*
X148657111Y-92667986D01*
X148578715Y-92657288D01*
X148524281Y-92632569D01*
X148474070Y-92588191D01*
X148467365Y-92581250D01*
X148412119Y-92509321D01*
X148387064Y-92427980D01*
X148382050Y-92333190D01*
X148401036Y-92198584D01*
X148462401Y-92096003D01*
X148572749Y-92018651D01*
X148738686Y-91959731D01*
X148747175Y-91957506D01*
X148855006Y-91922829D01*
X148940109Y-91883318D01*
X148977362Y-91854524D01*
X149005713Y-91778806D01*
X149015970Y-91672084D01*
X149007410Y-91564434D01*
X148985970Y-91496802D01*
X148969726Y-91471169D01*
X148947368Y-91449192D01*
X148914217Y-91430590D01*
X148865594Y-91415082D01*
X148796820Y-91402390D01*
X148703216Y-91392232D01*
X148580103Y-91384328D01*
X148422801Y-91378398D01*
X148226633Y-91374163D01*
X147986918Y-91371341D01*
X147698979Y-91369653D01*
X147358135Y-91368819D01*
X146959708Y-91368558D01*
X146844107Y-91368550D01*
X146420718Y-91368449D01*
X146055840Y-91367854D01*
X145744482Y-91366321D01*
X145481656Y-91363408D01*
X145262372Y-91358671D01*
X145081640Y-91351668D01*
X144934470Y-91341957D01*
X144815875Y-91329094D01*
X144720863Y-91312637D01*
X144644445Y-91292143D01*
X144581632Y-91267170D01*
X144527434Y-91237275D01*
X144476862Y-91202015D01*
X144424926Y-91160948D01*
X144415221Y-91153046D01*
X144275559Y-91031604D01*
X144180495Y-90928587D01*
X144119356Y-90831154D01*
X144092938Y-90765300D01*
X144061376Y-90683407D01*
X144031876Y-90628163D01*
X144028464Y-90624012D01*
X144010275Y-90570853D01*
X144001254Y-90473203D01*
X144000783Y-90349313D01*
X144008243Y-90217432D01*
X144023015Y-90095813D01*
X144044480Y-90002705D01*
X144050034Y-89987870D01*
X144078799Y-89912315D01*
X144090651Y-89867170D01*
X144089722Y-89862484D01*
X144057788Y-89846586D01*
X143985903Y-89812995D01*
X143921175Y-89783352D01*
X143666541Y-89646837D01*
X143412051Y-89472789D01*
X143173131Y-89274048D01*
X142965205Y-89063453D01*
X142803697Y-88853845D01*
X142802735Y-88852363D01*
X142749406Y-88771843D01*
X142710073Y-88715636D01*
X142698775Y-88701550D01*
X142677727Y-88666649D01*
X142638725Y-88590811D01*
X142592465Y-88495175D01*
X142541087Y-88387279D01*
X142496680Y-88295898D01*
X142471637Y-88246202D01*
X142432310Y-88136440D01*
X142399959Y-87976565D01*
X142375187Y-87779643D01*
X142358601Y-87558741D01*
X142350804Y-87326924D01*
X142352402Y-87097260D01*
X142364000Y-86882813D01*
X142386202Y-86696652D01*
X142397177Y-86637790D01*
X142501076Y-86292873D01*
X142662025Y-85959817D01*
X142873719Y-85646164D01*
X143129853Y-85359460D01*
X143424125Y-85107247D01*
X143750228Y-84897070D01*
X143925309Y-84809160D01*
X144143702Y-84722583D01*
X144368654Y-84662035D01*
X144615990Y-84624661D01*
X144901531Y-84607607D01*
X145052431Y-84605799D01*
X145323959Y-84613785D01*
D17*
X190084400Y-82413800D02*
X191414400Y-82413800D01*
X190084400Y-83743800D02*
X190084400Y-82413800D01*
X190084400Y-85013800D02*
X192744400Y-85013800D01*
X192744400Y-85013800D02*
X192744400Y-92693800D01*
X190084400Y-85013800D02*
X190084400Y-92693800D01*
X190084400Y-92693800D02*
X192744400Y-92693800D01*
X169458400Y-90414800D02*
X169458400Y-91744800D01*
X168128400Y-90414800D02*
X169458400Y-90414800D01*
X166858400Y-90414800D02*
X166858400Y-93074800D01*
X166858400Y-93074800D02*
X164258400Y-93074800D01*
X166858400Y-90414800D02*
X164258400Y-90414800D01*
X164258400Y-90414800D02*
X164258400Y-93074800D01*
D16*
X171273800Y-77544600D02*
X171273800Y-83691400D01*
X181078200Y-83691400D02*
X181078200Y-80922800D01*
X181078200Y-80922800D02*
X181078200Y-80313200D01*
X181078200Y-80313200D02*
X181078200Y-78103400D01*
X181078200Y-80922800D02*
G75*
G02X181078200Y-80313200I0J304800D01*
G01*
D17*
X165254000Y-77848000D02*
X165254000Y-78618000D01*
X165254000Y-85928000D02*
X165254000Y-85158000D01*
X163884000Y-78618000D02*
X163884000Y-85158000D01*
X166624000Y-78618000D02*
X163884000Y-78618000D01*
X166624000Y-85158000D02*
X166624000Y-78618000D01*
X163884000Y-85158000D02*
X166624000Y-85158000D01*
X168810000Y-77848000D02*
X168810000Y-78618000D01*
X168810000Y-85928000D02*
X168810000Y-85158000D01*
X167440000Y-78618000D02*
X167440000Y-85158000D01*
X170180000Y-78618000D02*
X167440000Y-78618000D01*
X170180000Y-85158000D02*
X170180000Y-78618000D01*
X167440000Y-85158000D02*
X170180000Y-85158000D01*
D13*
X100743952Y-83283561D02*
X100743952Y-84902609D01*
X100839190Y-85093085D01*
X100934428Y-85188323D01*
X101124904Y-85283561D01*
X101505857Y-85283561D01*
X101696333Y-85188323D01*
X101791571Y-85093085D01*
X101886809Y-84902609D01*
X101886809Y-83283561D01*
X103886809Y-85283561D02*
X102743952Y-85283561D01*
X103315380Y-85283561D02*
X103315380Y-83283561D01*
X103124904Y-83569276D01*
X102934428Y-83759752D01*
X102743952Y-83854990D01*
X105982047Y-83283561D02*
X107124904Y-83283561D01*
X106553476Y-85283561D02*
X106553476Y-83283561D01*
X108553476Y-85188323D02*
X108363000Y-85283561D01*
X107982047Y-85283561D01*
X107791571Y-85188323D01*
X107696333Y-84997847D01*
X107696333Y-84235942D01*
X107791571Y-84045466D01*
X107982047Y-83950228D01*
X108363000Y-83950228D01*
X108553476Y-84045466D01*
X108648714Y-84235942D01*
X108648714Y-84426419D01*
X107696333Y-84616895D01*
X110267761Y-85188323D02*
X110077285Y-85283561D01*
X109696333Y-85283561D01*
X109505857Y-85188323D01*
X109410619Y-84997847D01*
X109410619Y-84235942D01*
X109505857Y-84045466D01*
X109696333Y-83950228D01*
X110077285Y-83950228D01*
X110267761Y-84045466D01*
X110363000Y-84235942D01*
X110363000Y-84426419D01*
X109410619Y-84616895D01*
X111220142Y-83950228D02*
X111220142Y-85283561D01*
X111220142Y-84140704D02*
X111315380Y-84045466D01*
X111505857Y-83950228D01*
X111791571Y-83950228D01*
X111982047Y-84045466D01*
X112077285Y-84235942D01*
X112077285Y-85283561D01*
X112934428Y-85188323D02*
X113124904Y-85283561D01*
X113505857Y-85283561D01*
X113696333Y-85188323D01*
X113791571Y-84997847D01*
X113791571Y-84902609D01*
X113696333Y-84712133D01*
X113505857Y-84616895D01*
X113220142Y-84616895D01*
X113029666Y-84521657D01*
X112934428Y-84331180D01*
X112934428Y-84235942D01*
X113029666Y-84045466D01*
X113220142Y-83950228D01*
X113505857Y-83950228D01*
X113696333Y-84045466D01*
X114458238Y-83950228D02*
X114934428Y-85283561D01*
X115410619Y-83950228D02*
X114934428Y-85283561D01*
X114743952Y-85759752D01*
X114648714Y-85854990D01*
X114458238Y-85950228D01*
X115982047Y-83283561D02*
X117220142Y-83283561D01*
X116553476Y-84045466D01*
X116839190Y-84045466D01*
X117029666Y-84140704D01*
X117124904Y-84235942D01*
X117220142Y-84426419D01*
X117220142Y-84902609D01*
X117124904Y-85093085D01*
X117029666Y-85188323D01*
X116839190Y-85283561D01*
X116267761Y-85283561D01*
X116077285Y-85188323D01*
X115982047Y-85093085D01*
X118077285Y-85093085D02*
X118172523Y-85188323D01*
X118077285Y-85283561D01*
X117982047Y-85188323D01*
X118077285Y-85093085D01*
X118077285Y-85283561D01*
X119886809Y-83283561D02*
X119505857Y-83283561D01*
X119315380Y-83378800D01*
X119220142Y-83474038D01*
X119029666Y-83759752D01*
X118934428Y-84140704D01*
X118934428Y-84902609D01*
X119029666Y-85093085D01*
X119124904Y-85188323D01*
X119315380Y-85283561D01*
X119696333Y-85283561D01*
X119886809Y-85188323D01*
X119982047Y-85093085D01*
X120077285Y-84902609D01*
X120077285Y-84426419D01*
X119982047Y-84235942D01*
X119886809Y-84140704D01*
X119696333Y-84045466D01*
X119315380Y-84045466D01*
X119124904Y-84140704D01*
X119029666Y-84235942D01*
X118934428Y-84426419D01*
D11*
X184096066Y-84599980D02*
X184096066Y-85314266D01*
X184048447Y-85457123D01*
X183953209Y-85552361D01*
X183810352Y-85599980D01*
X183715114Y-85599980D01*
X185048447Y-84599980D02*
X184572257Y-84599980D01*
X184524638Y-85076171D01*
X184572257Y-85028552D01*
X184667495Y-84980933D01*
X184905590Y-84980933D01*
X185000828Y-85028552D01*
X185048447Y-85076171D01*
X185096066Y-85171409D01*
X185096066Y-85409504D01*
X185048447Y-85504742D01*
X185000828Y-85552361D01*
X184905590Y-85599980D01*
X184667495Y-85599980D01*
X184572257Y-85552361D01*
X184524638Y-85504742D01*
D19*
X176871779Y-78027304D02*
X177681749Y-78027304D01*
X177777039Y-77979659D01*
X177824684Y-77932014D01*
X177872330Y-77836723D01*
X177872330Y-77646142D01*
X177824684Y-77550851D01*
X177777039Y-77503206D01*
X177681749Y-77455561D01*
X176871779Y-77455561D01*
X176871779Y-77074398D02*
X176871779Y-76455010D01*
X177252941Y-76788527D01*
X177252941Y-76645591D01*
X177300586Y-76550300D01*
X177348232Y-76502655D01*
X177443522Y-76455010D01*
X177681749Y-76455010D01*
X177777039Y-76502655D01*
X177824684Y-76550300D01*
X177872330Y-76645591D01*
X177872330Y-76931463D01*
X177824684Y-77026753D01*
X177777039Y-77074398D01*
D11*
X175437895Y-80935580D02*
X175437895Y-81745104D01*
X175485514Y-81840342D01*
X175533133Y-81887961D01*
X175628371Y-81935580D01*
X175818847Y-81935580D01*
X175914085Y-81887961D01*
X175961704Y-81840342D01*
X176009323Y-81745104D01*
X176009323Y-80935580D01*
X176390276Y-80935580D02*
X177009323Y-80935580D01*
X176675990Y-81316533D01*
X176818847Y-81316533D01*
X176914085Y-81364152D01*
X176961704Y-81411771D01*
X177009323Y-81507009D01*
X177009323Y-81745104D01*
X176961704Y-81840342D01*
X176914085Y-81887961D01*
X176818847Y-81935580D01*
X176533133Y-81935580D01*
X176437895Y-81887961D01*
X176390276Y-81840342D01*
X177404733Y-92152742D02*
X177357114Y-92200361D01*
X177214257Y-92247980D01*
X177119019Y-92247980D01*
X176976161Y-92200361D01*
X176880923Y-92105123D01*
X176833304Y-92009885D01*
X176785685Y-91819409D01*
X176785685Y-91676552D01*
X176833304Y-91486076D01*
X176880923Y-91390838D01*
X176976161Y-91295600D01*
X177119019Y-91247980D01*
X177214257Y-91247980D01*
X177357114Y-91295600D01*
X177404733Y-91343219D01*
X177738066Y-91247980D02*
X178357114Y-91247980D01*
X178023780Y-91628933D01*
X178166638Y-91628933D01*
X178261876Y-91676552D01*
X178309495Y-91724171D01*
X178357114Y-91819409D01*
X178357114Y-92057504D01*
X178309495Y-92152742D01*
X178261876Y-92200361D01*
X178166638Y-92247980D01*
X177880923Y-92247980D01*
X177785685Y-92200361D01*
X177738066Y-92152742D01*
X173737780Y-90038180D02*
X173166352Y-90038180D01*
X173452066Y-90038180D02*
X173452066Y-89038180D01*
X173356828Y-89181038D01*
X173261590Y-89276276D01*
X173166352Y-89323895D01*
X174356828Y-89038180D02*
X174452066Y-89038180D01*
X174547304Y-89085800D01*
X174594923Y-89133419D01*
X174642542Y-89228657D01*
X174690161Y-89419133D01*
X174690161Y-89657228D01*
X174642542Y-89847704D01*
X174594923Y-89942942D01*
X174547304Y-89990561D01*
X174452066Y-90038180D01*
X174356828Y-90038180D01*
X174261590Y-89990561D01*
X174213971Y-89942942D01*
X174166352Y-89847704D01*
X174118733Y-89657228D01*
X174118733Y-89419133D01*
X174166352Y-89228657D01*
X174213971Y-89133419D01*
X174261590Y-89085800D01*
X174356828Y-89038180D01*
X175309209Y-89038180D02*
X175404447Y-89038180D01*
X175499685Y-89085800D01*
X175547304Y-89133419D01*
X175594923Y-89228657D01*
X175642542Y-89419133D01*
X175642542Y-89657228D01*
X175594923Y-89847704D01*
X175547304Y-89942942D01*
X175499685Y-89990561D01*
X175404447Y-90038180D01*
X175309209Y-90038180D01*
X175213971Y-89990561D01*
X175166352Y-89942942D01*
X175118733Y-89847704D01*
X175071114Y-89657228D01*
X175071114Y-89419133D01*
X175118733Y-89228657D01*
X175166352Y-89133419D01*
X175213971Y-89085800D01*
X175309209Y-89038180D01*
X176071114Y-89371514D02*
X176071114Y-90038180D01*
X176071114Y-89466752D02*
X176118733Y-89419133D01*
X176213971Y-89371514D01*
X176356828Y-89371514D01*
X176452066Y-89419133D01*
X176499685Y-89514371D01*
X176499685Y-90038180D01*
X177309209Y-89514371D02*
X176975876Y-89514371D01*
X176975876Y-90038180D02*
X176975876Y-89038180D01*
X177452066Y-89038180D01*
X184684942Y-79617866D02*
X184732561Y-79665485D01*
X184780180Y-79808342D01*
X184780180Y-79903580D01*
X184732561Y-80046438D01*
X184637323Y-80141676D01*
X184542085Y-80189295D01*
X184351609Y-80236914D01*
X184208752Y-80236914D01*
X184018276Y-80189295D01*
X183923038Y-80141676D01*
X183827800Y-80046438D01*
X183780180Y-79903580D01*
X183780180Y-79808342D01*
X183827800Y-79665485D01*
X183875419Y-79617866D01*
X183875419Y-79236914D02*
X183827800Y-79189295D01*
X183780180Y-79094057D01*
X183780180Y-78855961D01*
X183827800Y-78760723D01*
X183875419Y-78713104D01*
X183970657Y-78665485D01*
X184065895Y-78665485D01*
X184208752Y-78713104D01*
X184780180Y-79284533D01*
X184780180Y-78665485D01*
X187280180Y-81008019D02*
X187280180Y-81579447D01*
X187280180Y-81293733D02*
X186280180Y-81293733D01*
X186423038Y-81388971D01*
X186518276Y-81484209D01*
X186565895Y-81579447D01*
X186280180Y-80388971D02*
X186280180Y-80293733D01*
X186327800Y-80198495D01*
X186375419Y-80150876D01*
X186470657Y-80103257D01*
X186661133Y-80055638D01*
X186899228Y-80055638D01*
X187089704Y-80103257D01*
X187184942Y-80150876D01*
X187232561Y-80198495D01*
X187280180Y-80293733D01*
X187280180Y-80388971D01*
X187232561Y-80484209D01*
X187184942Y-80531828D01*
X187089704Y-80579447D01*
X186899228Y-80627066D01*
X186661133Y-80627066D01*
X186470657Y-80579447D01*
X186375419Y-80531828D01*
X186327800Y-80484209D01*
X186280180Y-80388971D01*
X186280180Y-79436590D02*
X186280180Y-79341352D01*
X186327800Y-79246114D01*
X186375419Y-79198495D01*
X186470657Y-79150876D01*
X186661133Y-79103257D01*
X186899228Y-79103257D01*
X187089704Y-79150876D01*
X187184942Y-79198495D01*
X187232561Y-79246114D01*
X187280180Y-79341352D01*
X187280180Y-79436590D01*
X187232561Y-79531828D01*
X187184942Y-79579447D01*
X187089704Y-79627066D01*
X186899228Y-79674685D01*
X186661133Y-79674685D01*
X186470657Y-79627066D01*
X186375419Y-79579447D01*
X186327800Y-79531828D01*
X186280180Y-79436590D01*
X186613514Y-78674685D02*
X187280180Y-78674685D01*
X186708752Y-78674685D02*
X186661133Y-78627066D01*
X186613514Y-78531828D01*
X186613514Y-78388971D01*
X186661133Y-78293733D01*
X186756371Y-78246114D01*
X187280180Y-78246114D01*
X186756371Y-77436590D02*
X186756371Y-77769923D01*
X187280180Y-77769923D02*
X186280180Y-77769923D01*
X186280180Y-77293733D01*
X65898733Y-92584542D02*
X65851114Y-92632161D01*
X65708257Y-92679780D01*
X65613019Y-92679780D01*
X65470161Y-92632161D01*
X65374923Y-92536923D01*
X65327304Y-92441685D01*
X65279685Y-92251209D01*
X65279685Y-92108352D01*
X65327304Y-91917876D01*
X65374923Y-91822638D01*
X65470161Y-91727400D01*
X65613019Y-91679780D01*
X65708257Y-91679780D01*
X65851114Y-91727400D01*
X65898733Y-91775019D01*
X66851114Y-92679780D02*
X66279685Y-92679780D01*
X66565400Y-92679780D02*
X66565400Y-91679780D01*
X66470161Y-91822638D01*
X66374923Y-91917876D01*
X66279685Y-91965495D01*
X64771780Y-90368380D02*
X64200352Y-90368380D01*
X64486066Y-90368380D02*
X64486066Y-89368380D01*
X64390828Y-89511238D01*
X64295590Y-89606476D01*
X64200352Y-89654095D01*
X65390828Y-89368380D02*
X65486066Y-89368380D01*
X65581304Y-89416000D01*
X65628923Y-89463619D01*
X65676542Y-89558857D01*
X65724161Y-89749333D01*
X65724161Y-89987428D01*
X65676542Y-90177904D01*
X65628923Y-90273142D01*
X65581304Y-90320761D01*
X65486066Y-90368380D01*
X65390828Y-90368380D01*
X65295590Y-90320761D01*
X65247971Y-90273142D01*
X65200352Y-90177904D01*
X65152733Y-89987428D01*
X65152733Y-89749333D01*
X65200352Y-89558857D01*
X65247971Y-89463619D01*
X65295590Y-89416000D01*
X65390828Y-89368380D01*
X66343209Y-89368380D02*
X66438447Y-89368380D01*
X66533685Y-89416000D01*
X66581304Y-89463619D01*
X66628923Y-89558857D01*
X66676542Y-89749333D01*
X66676542Y-89987428D01*
X66628923Y-90177904D01*
X66581304Y-90273142D01*
X66533685Y-90320761D01*
X66438447Y-90368380D01*
X66343209Y-90368380D01*
X66247971Y-90320761D01*
X66200352Y-90273142D01*
X66152733Y-90177904D01*
X66105114Y-89987428D01*
X66105114Y-89749333D01*
X66152733Y-89558857D01*
X66200352Y-89463619D01*
X66247971Y-89416000D01*
X66343209Y-89368380D01*
X67105114Y-89701714D02*
X67105114Y-90368380D01*
X67105114Y-89796952D02*
X67152733Y-89749333D01*
X67247971Y-89701714D01*
X67390828Y-89701714D01*
X67486066Y-89749333D01*
X67533685Y-89844571D01*
X67533685Y-90368380D01*
X68343209Y-89844571D02*
X68009876Y-89844571D01*
X68009876Y-90368380D02*
X68009876Y-89368380D01*
X68486066Y-89368380D01*
X67738666Y-77132380D02*
X67738666Y-77846666D01*
X67691047Y-77989523D01*
X67595809Y-78084761D01*
X67452952Y-78132380D01*
X67357714Y-78132380D01*
X68167238Y-77227619D02*
X68214857Y-77180000D01*
X68310095Y-77132380D01*
X68548190Y-77132380D01*
X68643428Y-77180000D01*
X68691047Y-77227619D01*
X68738666Y-77322857D01*
X68738666Y-77418095D01*
X68691047Y-77560952D01*
X68119619Y-78132380D01*
X68738666Y-78132380D01*
D20*
X199881066Y-76799923D02*
X199881066Y-77707066D01*
X199820590Y-77888495D01*
X199699638Y-78009447D01*
X199518209Y-78069923D01*
X199397257Y-78069923D01*
X200364876Y-76799923D02*
X201151066Y-76799923D01*
X200727733Y-77283733D01*
X200909161Y-77283733D01*
X201030114Y-77344209D01*
X201090590Y-77404685D01*
X201151066Y-77525638D01*
X201151066Y-77828019D01*
X201090590Y-77948971D01*
X201030114Y-78009447D01*
X200909161Y-78069923D01*
X200546304Y-78069923D01*
X200425352Y-78009447D01*
X200364876Y-77948971D01*
X199943961Y-89779323D02*
X199520628Y-89174561D01*
X199218247Y-89779323D02*
X199218247Y-88509323D01*
X199702057Y-88509323D01*
X199823009Y-88569800D01*
X199883485Y-88630276D01*
X199943961Y-88751228D01*
X199943961Y-88932657D01*
X199883485Y-89053609D01*
X199823009Y-89114085D01*
X199702057Y-89174561D01*
X199218247Y-89174561D01*
X200851104Y-88509323D02*
X200851104Y-89416466D01*
X200790628Y-89597895D01*
X200669676Y-89718847D01*
X200488247Y-89779323D01*
X200367295Y-89779323D01*
X202121104Y-89779323D02*
X201395390Y-89779323D01*
X201758247Y-89779323D02*
X201758247Y-88509323D01*
X201637295Y-88690752D01*
X201516342Y-88811704D01*
X201395390Y-88872180D01*
X202604914Y-88630276D02*
X202665390Y-88569800D01*
X202786342Y-88509323D01*
X203088723Y-88509323D01*
X203209676Y-88569800D01*
X203270152Y-88630276D01*
X203330628Y-88751228D01*
X203330628Y-88872180D01*
X203270152Y-89053609D01*
X202544438Y-89779323D01*
X203330628Y-89779323D01*
D11*
X190039666Y-80630780D02*
X190039666Y-81345066D01*
X189992047Y-81487923D01*
X189896809Y-81583161D01*
X189753952Y-81630780D01*
X189658714Y-81630780D01*
X190944428Y-80964114D02*
X190944428Y-81630780D01*
X190706333Y-80583161D02*
X190468238Y-81297447D01*
X191087285Y-81297447D01*
X170487466Y-91171780D02*
X170487466Y-91886066D01*
X170439847Y-92028923D01*
X170344609Y-92124161D01*
X170201752Y-92171780D01*
X170106514Y-92171780D01*
X171487466Y-92171780D02*
X170916038Y-92171780D01*
X171201752Y-92171780D02*
X171201752Y-91171780D01*
X171106514Y-91314638D01*
X171011276Y-91409876D01*
X170916038Y-91457495D01*
X175412495Y-79055980D02*
X175412495Y-79865504D01*
X175460114Y-79960742D01*
X175507733Y-80008361D01*
X175602971Y-80055980D01*
X175793447Y-80055980D01*
X175888685Y-80008361D01*
X175936304Y-79960742D01*
X175983923Y-79865504D01*
X175983923Y-79055980D01*
X176412495Y-79151219D02*
X176460114Y-79103600D01*
X176555352Y-79055980D01*
X176793447Y-79055980D01*
X176888685Y-79103600D01*
X176936304Y-79151219D01*
X176983923Y-79246457D01*
X176983923Y-79341695D01*
X176936304Y-79484552D01*
X176364876Y-80055980D01*
X176983923Y-80055980D01*
X182595780Y-83711657D02*
X181595780Y-83711657D01*
X181595780Y-83330704D01*
X181643400Y-83235466D01*
X181691019Y-83187847D01*
X181786257Y-83140228D01*
X181929114Y-83140228D01*
X182024352Y-83187847D01*
X182071971Y-83235466D01*
X182119590Y-83330704D01*
X182119590Y-83711657D01*
X182024352Y-82568800D02*
X181976733Y-82664038D01*
X181929114Y-82711657D01*
X181833876Y-82759276D01*
X181786257Y-82759276D01*
X181691019Y-82711657D01*
X181643400Y-82664038D01*
X181595780Y-82568800D01*
X181595780Y-82378323D01*
X181643400Y-82283085D01*
X181691019Y-82235466D01*
X181786257Y-82187847D01*
X181833876Y-82187847D01*
X181929114Y-82235466D01*
X181976733Y-82283085D01*
X182024352Y-82378323D01*
X182024352Y-82568800D01*
X182071971Y-82664038D01*
X182119590Y-82711657D01*
X182214828Y-82759276D01*
X182405304Y-82759276D01*
X182500542Y-82711657D01*
X182548161Y-82664038D01*
X182595780Y-82568800D01*
X182595780Y-82378323D01*
X182548161Y-82283085D01*
X182500542Y-82235466D01*
X182405304Y-82187847D01*
X182214828Y-82187847D01*
X182119590Y-82235466D01*
X182071971Y-82283085D01*
X182024352Y-82378323D01*
X181691019Y-81806895D02*
X181643400Y-81759276D01*
X181595780Y-81664038D01*
X181595780Y-81425942D01*
X181643400Y-81330704D01*
X181691019Y-81283085D01*
X181786257Y-81235466D01*
X181881495Y-81235466D01*
X182024352Y-81283085D01*
X182595780Y-81854514D01*
X182595780Y-81235466D01*
X182071971Y-80473561D02*
X182119590Y-80330704D01*
X182167209Y-80283085D01*
X182262447Y-80235466D01*
X182405304Y-80235466D01*
X182500542Y-80283085D01*
X182548161Y-80330704D01*
X182595780Y-80425942D01*
X182595780Y-80806895D01*
X181595780Y-80806895D01*
X181595780Y-80473561D01*
X181643400Y-80378323D01*
X181691019Y-80330704D01*
X181786257Y-80283085D01*
X181881495Y-80283085D01*
X181976733Y-80330704D01*
X182024352Y-80378323D01*
X182071971Y-80473561D01*
X182071971Y-80806895D01*
X181595780Y-79902133D02*
X181595780Y-79235466D01*
X182595780Y-79664038D01*
X182595780Y-78330704D02*
X182595780Y-78902133D01*
X182595780Y-78616419D02*
X181595780Y-78616419D01*
X181738638Y-78711657D01*
X181833876Y-78806895D01*
X181881495Y-78902133D01*
X181595780Y-77425942D02*
X181595780Y-77902133D01*
X182071971Y-77949752D01*
X182024352Y-77902133D01*
X181976733Y-77806895D01*
X181976733Y-77568800D01*
X182024352Y-77473561D01*
X182071971Y-77425942D01*
X182167209Y-77378323D01*
X182405304Y-77378323D01*
X182500542Y-77425942D01*
X182548161Y-77473561D01*
X182595780Y-77568800D01*
X182595780Y-77806895D01*
X182548161Y-77902133D01*
X182500542Y-77949752D01*
X165680980Y-83832666D02*
X165204790Y-84166000D01*
X165680980Y-84404095D02*
X164680980Y-84404095D01*
X164680980Y-84023142D01*
X164728600Y-83927904D01*
X164776219Y-83880285D01*
X164871457Y-83832666D01*
X165014314Y-83832666D01*
X165109552Y-83880285D01*
X165157171Y-83927904D01*
X165204790Y-84023142D01*
X165204790Y-84404095D01*
X164776219Y-83451714D02*
X164728600Y-83404095D01*
X164680980Y-83308857D01*
X164680980Y-83070761D01*
X164728600Y-82975523D01*
X164776219Y-82927904D01*
X164871457Y-82880285D01*
X164966695Y-82880285D01*
X165109552Y-82927904D01*
X165680980Y-83499333D01*
X165680980Y-82880285D01*
X165039714Y-81562476D02*
X165706380Y-81562476D01*
X164658761Y-81800571D02*
X165373047Y-82038666D01*
X165373047Y-81419619D01*
X165706380Y-81038666D02*
X164706380Y-81038666D01*
X165325428Y-80943428D02*
X165706380Y-80657714D01*
X165039714Y-80657714D02*
X165420666Y-81038666D01*
X164706380Y-80324380D02*
X164706380Y-79657714D01*
X165706380Y-80086285D01*
X169236980Y-83858066D02*
X168760790Y-84191400D01*
X169236980Y-84429495D02*
X168236980Y-84429495D01*
X168236980Y-84048542D01*
X168284600Y-83953304D01*
X168332219Y-83905685D01*
X168427457Y-83858066D01*
X168570314Y-83858066D01*
X168665552Y-83905685D01*
X168713171Y-83953304D01*
X168760790Y-84048542D01*
X168760790Y-84429495D01*
X169236980Y-82905685D02*
X169236980Y-83477114D01*
X169236980Y-83191400D02*
X168236980Y-83191400D01*
X168379838Y-83286638D01*
X168475076Y-83381876D01*
X168522695Y-83477114D01*
X168595714Y-81562476D02*
X169262380Y-81562476D01*
X168214761Y-81800571D02*
X168929047Y-82038666D01*
X168929047Y-81419619D01*
X169262380Y-81038666D02*
X168262380Y-81038666D01*
X168881428Y-80943428D02*
X169262380Y-80657714D01*
X168595714Y-80657714D02*
X168976666Y-81038666D01*
X168262380Y-80324380D02*
X168262380Y-79657714D01*
X169262380Y-80086285D01*
M02*
