G04 #@! TF.GenerationSoftware,KiCad,Pcbnew,(5.1.5)-3*
G04 #@! TF.CreationDate,2020-05-18T19:12:55+02:00*
G04 #@! TF.ProjectId,DNMS,444e4d53-2e6b-4696-9361-645f70636258,0.9.0*
G04 #@! TF.SameCoordinates,Original*
G04 #@! TF.FileFunction,Copper,L1,Top*
G04 #@! TF.FilePolarity,Positive*
%FSLAX46Y46*%
G04 Gerber Fmt 4.6, Leading zero omitted, Abs format (unit mm)*
G04 Created by KiCad (PCBNEW (5.1.5)-3) date 2020-05-18 19:12:55*
%MOMM*%
%LPD*%
G04 APERTURE LIST*
%ADD10C,1.530000*%
%ADD11C,1.524000*%
%ADD12R,1.700000X1.700000*%
%ADD13R,2.200000X0.600000*%
%ADD14C,1.600000*%
%ADD15O,1.700000X1.700000*%
%ADD16C,1.400000*%
%ADD17C,1.200000*%
%ADD18R,1.676400X1.676400*%
%ADD19C,1.676400*%
%ADD20O,1.600000X1.600000*%
%ADD21C,0.800000*%
%ADD22C,0.250000*%
%ADD23C,0.500000*%
G04 APERTURE END LIST*
D10*
X138645800Y-76809600D03*
X136105800Y-76809600D03*
X133565800Y-76809600D03*
X131025800Y-76809600D03*
X128485800Y-76809600D03*
X125945800Y-76809600D03*
X123405800Y-76809600D03*
X120865800Y-76809600D03*
X118325800Y-76809600D03*
X115785800Y-76809600D03*
X113245800Y-76809600D03*
X110705800Y-76809600D03*
X108165800Y-76809600D03*
X105625800Y-76809600D03*
X103085800Y-76809600D03*
X100545800Y-76809600D03*
X105625800Y-92049600D03*
X108165800Y-92049600D03*
X110705800Y-92049600D03*
X113245800Y-92049600D03*
X115785800Y-92049600D03*
X118325800Y-92049600D03*
X120865800Y-92049600D03*
X123405800Y-92049600D03*
X125945800Y-92049600D03*
X128485800Y-92049600D03*
X131025800Y-92049600D03*
X133565800Y-92049600D03*
X136105800Y-92049600D03*
X138645800Y-92049600D03*
X98005800Y-76809600D03*
X95465800Y-76809600D03*
X92925800Y-76809600D03*
X90385800Y-76809600D03*
X87845800Y-76809600D03*
X85305800Y-76809600D03*
X82765800Y-76809600D03*
X80225800Y-76809600D03*
X103085800Y-92049600D03*
X100545800Y-92049600D03*
X98005800Y-92049600D03*
X80225800Y-92049600D03*
X82765800Y-92049600D03*
X85305800Y-92049600D03*
X87845800Y-92049600D03*
X90385800Y-92049600D03*
X92925800Y-92049600D03*
X95465800Y-92049600D03*
D11*
X136105800Y-89509600D03*
D12*
X184429400Y-87477600D03*
D13*
X178749000Y-82473800D03*
X178749000Y-81203800D03*
X178749000Y-78663800D03*
X173549000Y-82473800D03*
X173549000Y-81203800D03*
X173549000Y-78663800D03*
X178749000Y-79933800D03*
X173549000Y-79933800D03*
D14*
X180062200Y-91770200D03*
X175062200Y-91770200D03*
X173812200Y-91770200D03*
X181312200Y-91770200D03*
X184327800Y-76960400D03*
X184327800Y-81960400D03*
X184327800Y-83210400D03*
X184327800Y-75710400D03*
X63549200Y-92227400D03*
X68549200Y-92227400D03*
X69799200Y-92227400D03*
X62299200Y-92227400D03*
D15*
X69342000Y-85090000D03*
X66802000Y-85090000D03*
X69342000Y-82550000D03*
X66802000Y-82550000D03*
X69342000Y-80010000D03*
D12*
X66802000Y-80010000D03*
D16*
X200506200Y-82032000D03*
X203046200Y-83052000D03*
X200506200Y-84072000D03*
X203046200Y-85092000D03*
X200506200Y-86112000D03*
X203046200Y-87132000D03*
D17*
X205346200Y-90582000D03*
X205346200Y-78582000D03*
D15*
X191414400Y-91363800D03*
X191414400Y-88823800D03*
X191414400Y-86283800D03*
D12*
X191414400Y-83743800D03*
D15*
X165588400Y-91744800D03*
D12*
X168128400Y-91744800D03*
D18*
X179986000Y-76808000D03*
D19*
X177446000Y-76808000D03*
X174906000Y-76808000D03*
X172366000Y-76808000D03*
X172366000Y-84428000D03*
X174906000Y-84428000D03*
X177446000Y-84428000D03*
X179986000Y-84428000D03*
D20*
X165254000Y-76808000D03*
D14*
X165254000Y-86968000D03*
D20*
X168810000Y-76808000D03*
D14*
X168810000Y-86968000D03*
D21*
X103073200Y-80619600D03*
X180568600Y-80264000D03*
X192189400Y-80289400D03*
D22*
X171180607Y-76808000D02*
X170230800Y-77757807D01*
X172366000Y-76808000D02*
X171180607Y-76808000D01*
X170230800Y-77757807D02*
X170230800Y-82473800D01*
X170230800Y-82473800D02*
X173549000Y-82473800D01*
D23*
X103085800Y-92113200D02*
X103085800Y-92049600D01*
X65046790Y-93724990D02*
X65760600Y-93724990D01*
X63549200Y-92227400D02*
X65046790Y-93724990D01*
X103085800Y-92176600D02*
X101549200Y-93713200D01*
X85675010Y-93724990D02*
X65046790Y-93724990D01*
X101485800Y-93726000D02*
X85750400Y-93726000D01*
X177446000Y-86968000D02*
X179986000Y-84428000D01*
X168810000Y-86968000D02*
X177446000Y-86968000D01*
X183110200Y-84428000D02*
X184327800Y-83210400D01*
X179986000Y-84428000D02*
X183110200Y-84428000D01*
X181031200Y-78663800D02*
X178749000Y-78663800D01*
X184327800Y-81960400D02*
X181031200Y-78663800D01*
X184327800Y-87376000D02*
X184429400Y-87477600D01*
X184327800Y-83210400D02*
X184327800Y-87376000D01*
X103073200Y-80619600D02*
X127660400Y-80619600D01*
X133565800Y-86525000D02*
X133565800Y-92049600D01*
X127660400Y-80619600D02*
X133565800Y-86525000D01*
X199516251Y-82032000D02*
X199480851Y-82067400D01*
X200506200Y-82032000D02*
X199516251Y-82032000D01*
X199480851Y-82067400D02*
X194716400Y-82067400D01*
X193040000Y-83743800D02*
X191414400Y-83743800D01*
X194716400Y-82067400D02*
X193040000Y-83743800D01*
X194716400Y-93446600D02*
X194716400Y-82067400D01*
X175182790Y-93724990D02*
X194438010Y-93724990D01*
X175133000Y-93675200D02*
X175182790Y-93724990D01*
X175062200Y-91770200D02*
X175062200Y-92901570D01*
X175107600Y-93675200D02*
X175133000Y-93675200D01*
X175062200Y-92901570D02*
X175082200Y-92921570D01*
X175082200Y-92921570D02*
X175082200Y-93649800D01*
X194438010Y-93724990D02*
X194716400Y-93446600D01*
X175082200Y-93649800D02*
X175107600Y-93675200D01*
X202026200Y-82032000D02*
X203046200Y-83052000D01*
X200506200Y-82032000D02*
X202026200Y-82032000D01*
X139209317Y-93694990D02*
X163183010Y-93694990D01*
X138645800Y-93131473D02*
X139209317Y-93694990D01*
X138645800Y-92049600D02*
X138645800Y-93131473D01*
X168153800Y-91770200D02*
X168128400Y-91744800D01*
X173812200Y-91770200D02*
X168153800Y-91770200D01*
X168128400Y-91744800D02*
X168128400Y-93094800D01*
X167498210Y-93724990D02*
X162737800Y-93724990D01*
X168128400Y-93094800D02*
X167498210Y-93724990D01*
D22*
X180099000Y-79933800D02*
X180670200Y-80505000D01*
X178749000Y-79933800D02*
X180099000Y-79933800D01*
X178609201Y-83264799D02*
X178284199Y-83589801D01*
X179943003Y-83264799D02*
X178609201Y-83264799D01*
X180670200Y-82537602D02*
X179943003Y-83264799D01*
X178284199Y-83589801D02*
X177446000Y-84428000D01*
X180670200Y-80505000D02*
X180670200Y-80505000D01*
X180670200Y-80505000D02*
X180670200Y-80505000D01*
X180670200Y-80505000D02*
X180670200Y-82537602D01*
X205959410Y-85092000D02*
X203046200Y-85092000D01*
X205959410Y-82947210D02*
X203352400Y-80340200D01*
X192328800Y-80289400D02*
X203352400Y-80340200D01*
X205959410Y-85092000D02*
X205959410Y-82947210D01*
X174899000Y-79933800D02*
X173549000Y-79933800D01*
X176607801Y-78224999D02*
X174899000Y-79933800D01*
X176607801Y-77646199D02*
X176607801Y-78224999D01*
X177446000Y-76808000D02*
X176607801Y-77646199D01*
X165254000Y-84377200D02*
X165254000Y-76808000D01*
X165814400Y-84937600D02*
X165254000Y-84377200D01*
X174906000Y-85613393D02*
X174667393Y-85852000D01*
X174906000Y-84428000D02*
X174906000Y-85613393D01*
X170129200Y-84937600D02*
X165814400Y-84937600D01*
X174667393Y-85852000D02*
X171043600Y-85852000D01*
X171043600Y-85852000D02*
X170129200Y-84937600D01*
X174906000Y-83242607D02*
X176944807Y-81203800D01*
X177399000Y-81203800D02*
X178749000Y-81203800D01*
X176944807Y-81203800D02*
X177399000Y-81203800D01*
X174906000Y-84428000D02*
X174906000Y-83242607D01*
X169609999Y-76008001D02*
X169609999Y-75982601D01*
X168810000Y-76808000D02*
X169609999Y-76008001D01*
X174906000Y-75622607D02*
X174906000Y-76808000D01*
X174543593Y-75260200D02*
X174906000Y-75622607D01*
X169559199Y-76033401D02*
X170332400Y-75260200D01*
X170332400Y-75260200D02*
X174543593Y-75260200D01*
X189072009Y-88818209D02*
X189077600Y-88823800D01*
X189072009Y-81630009D02*
X189072009Y-88818209D01*
X187604400Y-80162400D02*
X189072009Y-81630009D01*
X189077600Y-88823800D02*
X191414400Y-88823800D01*
X175395407Y-75133200D02*
X182143400Y-75133200D01*
X174906000Y-75622607D02*
X175395407Y-75133200D01*
X182143400Y-75133200D02*
X182143400Y-78054200D01*
X182143400Y-78054200D02*
X184251600Y-80162400D01*
X184251600Y-80162400D02*
X187604400Y-80162400D01*
X173742799Y-77971201D02*
X171609199Y-77971201D01*
X174906000Y-76808000D02*
X173742799Y-77971201D01*
X171609199Y-77971201D02*
X171018200Y-78562200D01*
X171018200Y-78562200D02*
X171018200Y-81178400D01*
X171043600Y-81203800D02*
X173549000Y-81203800D01*
X171018200Y-81178400D02*
X171043600Y-81203800D01*
X66802000Y-85090000D02*
X66802000Y-86893400D01*
X66802000Y-86893400D02*
X66852800Y-86842600D01*
X100418800Y-86842600D02*
X105625800Y-92049600D01*
X66852800Y-86842600D02*
X100418800Y-86842600D01*
X66802000Y-82550000D02*
X66878200Y-82550000D01*
X122770800Y-83794600D02*
X131025800Y-92049600D01*
X66802000Y-82550000D02*
X68046600Y-83794600D01*
X68046600Y-83794600D02*
X122770800Y-83794600D01*
X69342000Y-82550000D02*
X84582000Y-82550000D01*
X84582000Y-82550000D02*
X88239600Y-78892400D01*
X111163000Y-78892400D02*
X113245800Y-76809600D01*
X88239600Y-78892400D02*
X111163000Y-78892400D01*
D23*
X140436600Y-89509600D02*
X136105800Y-89509600D01*
X143521799Y-92594799D02*
X140436600Y-89509600D01*
X164738401Y-92594799D02*
X143521799Y-92594799D01*
X165588400Y-91744800D02*
X164738401Y-92594799D01*
M02*
