G04 #@! TF.GenerationSoftware,KiCad,Pcbnew,(5.1.4)-1*
G04 #@! TF.CreationDate,2019-09-02T19:22:19+02:00*
G04 #@! TF.ProjectId,DNMS,444e4d53-2e6b-4696-9361-645f70636258,0.9.0*
G04 #@! TF.SameCoordinates,Original*
G04 #@! TF.FileFunction,Soldermask,Top*
G04 #@! TF.FilePolarity,Negative*
%FSLAX46Y46*%
G04 Gerber Fmt 4.6, Leading zero omitted, Abs format (unit mm)*
G04 Created by KiCad (PCBNEW (5.1.4)-1) date 2019-09-02 19:22:19*
%MOMM*%
%LPD*%
G04 APERTURE LIST*
%ADD10C,0.100000*%
G04 APERTURE END LIST*
D10*
G36*
X64312529Y-87024127D02*
G01*
X64416657Y-87044839D01*
X64522267Y-87088585D01*
X64671621Y-87150449D01*
X64671622Y-87150450D01*
X64901086Y-87303772D01*
X65096228Y-87498914D01*
X65186000Y-87633268D01*
X65249551Y-87728379D01*
X65285303Y-87814692D01*
X65355161Y-87983343D01*
X65359569Y-88005503D01*
X65409000Y-88254012D01*
X65409000Y-88529988D01*
X65355161Y-88800656D01*
X65249551Y-89055621D01*
X65198675Y-89131763D01*
X65096228Y-89285086D01*
X64901086Y-89480228D01*
X64754838Y-89577947D01*
X64671621Y-89633551D01*
X64582652Y-89670403D01*
X64416657Y-89739161D01*
X64326433Y-89757107D01*
X64145988Y-89793000D01*
X63870012Y-89793000D01*
X63689567Y-89757107D01*
X63599343Y-89739161D01*
X63433348Y-89670403D01*
X63344379Y-89633551D01*
X63261162Y-89577947D01*
X63114914Y-89480228D01*
X62919772Y-89285086D01*
X62817325Y-89131763D01*
X62766449Y-89055621D01*
X62660839Y-88800656D01*
X62607000Y-88529988D01*
X62607000Y-88254012D01*
X62656431Y-88005503D01*
X62660839Y-87983343D01*
X62730697Y-87814692D01*
X62766449Y-87728379D01*
X62830000Y-87633268D01*
X62919772Y-87498914D01*
X63114914Y-87303772D01*
X63344378Y-87150450D01*
X63344379Y-87150449D01*
X63493733Y-87088585D01*
X63599343Y-87044839D01*
X63703471Y-87024127D01*
X63870012Y-86991000D01*
X64145988Y-86991000D01*
X64312529Y-87024127D01*
X64312529Y-87024127D01*
G37*
G36*
X114693000Y-89734960D02*
G01*
X112891000Y-89734960D01*
X112891000Y-87932960D01*
X114693000Y-87932960D01*
X114693000Y-89734960D01*
X114693000Y-89734960D01*
G37*
G36*
X111362443Y-87939479D02*
G01*
X111428627Y-87945997D01*
X111598466Y-87997517D01*
X111754991Y-88081182D01*
X111790729Y-88110512D01*
X111892186Y-88193774D01*
X111964031Y-88281319D01*
X112004778Y-88330969D01*
X112088443Y-88487494D01*
X112139963Y-88657333D01*
X112157359Y-88833960D01*
X112139963Y-89010587D01*
X112088443Y-89180426D01*
X112004778Y-89336951D01*
X111980708Y-89366280D01*
X111892186Y-89474146D01*
X111790729Y-89557408D01*
X111754991Y-89586738D01*
X111598466Y-89670403D01*
X111428627Y-89721923D01*
X111362443Y-89728441D01*
X111296260Y-89734960D01*
X111207740Y-89734960D01*
X111141557Y-89728441D01*
X111075373Y-89721923D01*
X110905534Y-89670403D01*
X110749009Y-89586738D01*
X110713271Y-89557408D01*
X110611814Y-89474146D01*
X110523292Y-89366280D01*
X110499222Y-89336951D01*
X110415557Y-89180426D01*
X110364037Y-89010587D01*
X110346641Y-88833960D01*
X110364037Y-88657333D01*
X110415557Y-88487494D01*
X110499222Y-88330969D01*
X110539969Y-88281319D01*
X110611814Y-88193774D01*
X110713271Y-88110512D01*
X110749009Y-88081182D01*
X110905534Y-87997517D01*
X111075373Y-87945997D01*
X111141557Y-87939479D01*
X111207740Y-87932960D01*
X111296260Y-87932960D01*
X111362443Y-87939479D01*
X111362443Y-87939479D01*
G37*
G36*
X126646248Y-88005503D02*
G01*
X126801120Y-88069653D01*
X126940501Y-88162785D01*
X127059035Y-88281319D01*
X127152167Y-88420700D01*
X127216317Y-88575572D01*
X127249020Y-88739984D01*
X127249020Y-88907616D01*
X127216317Y-89072028D01*
X127152167Y-89226900D01*
X127059035Y-89366281D01*
X126940501Y-89484815D01*
X126801120Y-89577947D01*
X126646248Y-89642097D01*
X126481836Y-89674800D01*
X126314204Y-89674800D01*
X126149792Y-89642097D01*
X125994920Y-89577947D01*
X125855539Y-89484815D01*
X125737005Y-89366281D01*
X125643873Y-89226900D01*
X125579723Y-89072028D01*
X125547020Y-88907616D01*
X125547020Y-88739984D01*
X125579723Y-88575572D01*
X125643873Y-88420700D01*
X125737005Y-88281319D01*
X125855539Y-88162785D01*
X125994920Y-88069653D01*
X126149792Y-88005503D01*
X126314204Y-87972800D01*
X126481836Y-87972800D01*
X126646248Y-88005503D01*
X126646248Y-88005503D01*
G37*
G36*
X131646248Y-88005503D02*
G01*
X131801120Y-88069653D01*
X131940501Y-88162785D01*
X132059035Y-88281319D01*
X132152167Y-88420700D01*
X132216317Y-88575572D01*
X132249020Y-88739984D01*
X132249020Y-88907616D01*
X132216317Y-89072028D01*
X132152167Y-89226900D01*
X132059035Y-89366281D01*
X131940501Y-89484815D01*
X131801120Y-89577947D01*
X131646248Y-89642097D01*
X131481836Y-89674800D01*
X131314204Y-89674800D01*
X131149792Y-89642097D01*
X130994920Y-89577947D01*
X130855539Y-89484815D01*
X130737005Y-89366281D01*
X130643873Y-89226900D01*
X130579723Y-89072028D01*
X130547020Y-88907616D01*
X130547020Y-88739984D01*
X130579723Y-88575572D01*
X130643873Y-88420700D01*
X130737005Y-88281319D01*
X130855539Y-88162785D01*
X130994920Y-88069653D01*
X131149792Y-88005503D01*
X131314204Y-87972800D01*
X131481836Y-87972800D01*
X131646248Y-88005503D01*
X131646248Y-88005503D01*
G37*
G36*
X157032365Y-86838373D02*
G01*
X157199975Y-86907800D01*
X157199977Y-86907801D01*
X157350823Y-87008593D01*
X157479107Y-87136877D01*
X157488176Y-87150450D01*
X157579900Y-87287725D01*
X157649327Y-87455335D01*
X157684720Y-87633268D01*
X157684720Y-87814692D01*
X157649327Y-87992625D01*
X157612645Y-88081182D01*
X157579899Y-88160237D01*
X157479107Y-88311083D01*
X157350823Y-88439367D01*
X157199977Y-88540159D01*
X157199976Y-88540160D01*
X157199975Y-88540160D01*
X157032365Y-88609587D01*
X156854432Y-88644980D01*
X156673008Y-88644980D01*
X156495075Y-88609587D01*
X156327465Y-88540160D01*
X156327464Y-88540160D01*
X156327463Y-88540159D01*
X156176617Y-88439367D01*
X156048333Y-88311083D01*
X155947541Y-88160237D01*
X155914795Y-88081182D01*
X155878113Y-87992625D01*
X155842720Y-87814692D01*
X155842720Y-87633268D01*
X155878113Y-87455335D01*
X155947540Y-87287725D01*
X156039264Y-87150450D01*
X156048333Y-87136877D01*
X156176617Y-87008593D01*
X156327463Y-86907801D01*
X156327465Y-86907800D01*
X156495075Y-86838373D01*
X156673008Y-86802980D01*
X156854432Y-86802980D01*
X157032365Y-86838373D01*
X157032365Y-86838373D01*
G37*
G36*
X172117232Y-86827907D02*
G01*
X172266532Y-86857604D01*
X172430504Y-86925524D01*
X172578074Y-87024127D01*
X172703573Y-87149626D01*
X172802176Y-87297196D01*
X172870096Y-87461168D01*
X172904720Y-87635239D01*
X172904720Y-87812721D01*
X172870096Y-87986792D01*
X172802176Y-88150764D01*
X172703573Y-88298334D01*
X172578074Y-88423833D01*
X172430504Y-88522436D01*
X172266532Y-88590356D01*
X172117232Y-88620053D01*
X172092462Y-88624980D01*
X171914978Y-88624980D01*
X171890208Y-88620053D01*
X171740908Y-88590356D01*
X171576936Y-88522436D01*
X171429366Y-88423833D01*
X171303867Y-88298334D01*
X171205264Y-88150764D01*
X171137344Y-87986792D01*
X171102720Y-87812721D01*
X171102720Y-87635239D01*
X171137344Y-87461168D01*
X171205264Y-87297196D01*
X171303867Y-87149626D01*
X171429366Y-87024127D01*
X171576936Y-86925524D01*
X171740908Y-86857604D01*
X171890208Y-86827907D01*
X171914978Y-86822980D01*
X172092462Y-86822980D01*
X172117232Y-86827907D01*
X172117232Y-86827907D01*
G37*
G36*
X184817232Y-86827907D02*
G01*
X184966532Y-86857604D01*
X185130504Y-86925524D01*
X185278074Y-87024127D01*
X185403573Y-87149626D01*
X185502176Y-87297196D01*
X185570096Y-87461168D01*
X185604720Y-87635239D01*
X185604720Y-87812721D01*
X185570096Y-87986792D01*
X185502176Y-88150764D01*
X185403573Y-88298334D01*
X185278074Y-88423833D01*
X185130504Y-88522436D01*
X184966532Y-88590356D01*
X184817232Y-88620053D01*
X184792462Y-88624980D01*
X184614978Y-88624980D01*
X184590208Y-88620053D01*
X184440908Y-88590356D01*
X184276936Y-88522436D01*
X184129366Y-88423833D01*
X184003867Y-88298334D01*
X183905264Y-88150764D01*
X183837344Y-87986792D01*
X183802720Y-87812721D01*
X183802720Y-87635239D01*
X183837344Y-87461168D01*
X183905264Y-87297196D01*
X184003867Y-87149626D01*
X184129366Y-87024127D01*
X184276936Y-86925524D01*
X184440908Y-86857604D01*
X184590208Y-86827907D01*
X184614978Y-86822980D01*
X184792462Y-86822980D01*
X184817232Y-86827907D01*
X184817232Y-86827907D01*
G37*
G36*
X182277232Y-86827907D02*
G01*
X182426532Y-86857604D01*
X182590504Y-86925524D01*
X182738074Y-87024127D01*
X182863573Y-87149626D01*
X182962176Y-87297196D01*
X183030096Y-87461168D01*
X183064720Y-87635239D01*
X183064720Y-87812721D01*
X183030096Y-87986792D01*
X182962176Y-88150764D01*
X182863573Y-88298334D01*
X182738074Y-88423833D01*
X182590504Y-88522436D01*
X182426532Y-88590356D01*
X182277232Y-88620053D01*
X182252462Y-88624980D01*
X182074978Y-88624980D01*
X182050208Y-88620053D01*
X181900908Y-88590356D01*
X181736936Y-88522436D01*
X181589366Y-88423833D01*
X181463867Y-88298334D01*
X181365264Y-88150764D01*
X181297344Y-87986792D01*
X181262720Y-87812721D01*
X181262720Y-87635239D01*
X181297344Y-87461168D01*
X181365264Y-87297196D01*
X181463867Y-87149626D01*
X181589366Y-87024127D01*
X181736936Y-86925524D01*
X181900908Y-86857604D01*
X182050208Y-86827907D01*
X182074978Y-86822980D01*
X182252462Y-86822980D01*
X182277232Y-86827907D01*
X182277232Y-86827907D01*
G37*
G36*
X174657232Y-86827907D02*
G01*
X174806532Y-86857604D01*
X174970504Y-86925524D01*
X175118074Y-87024127D01*
X175243573Y-87149626D01*
X175342176Y-87297196D01*
X175410096Y-87461168D01*
X175444720Y-87635239D01*
X175444720Y-87812721D01*
X175410096Y-87986792D01*
X175342176Y-88150764D01*
X175243573Y-88298334D01*
X175118074Y-88423833D01*
X174970504Y-88522436D01*
X174806532Y-88590356D01*
X174657232Y-88620053D01*
X174632462Y-88624980D01*
X174454978Y-88624980D01*
X174430208Y-88620053D01*
X174280908Y-88590356D01*
X174116936Y-88522436D01*
X173969366Y-88423833D01*
X173843867Y-88298334D01*
X173745264Y-88150764D01*
X173677344Y-87986792D01*
X173642720Y-87812721D01*
X173642720Y-87635239D01*
X173677344Y-87461168D01*
X173745264Y-87297196D01*
X173843867Y-87149626D01*
X173969366Y-87024127D01*
X174116936Y-86925524D01*
X174280908Y-86857604D01*
X174430208Y-86827907D01*
X174454978Y-86822980D01*
X174632462Y-86822980D01*
X174657232Y-86827907D01*
X174657232Y-86827907D01*
G37*
G36*
X169577232Y-86827907D02*
G01*
X169726532Y-86857604D01*
X169890504Y-86925524D01*
X170038074Y-87024127D01*
X170163573Y-87149626D01*
X170262176Y-87297196D01*
X170330096Y-87461168D01*
X170364720Y-87635239D01*
X170364720Y-87812721D01*
X170330096Y-87986792D01*
X170262176Y-88150764D01*
X170163573Y-88298334D01*
X170038074Y-88423833D01*
X169890504Y-88522436D01*
X169726532Y-88590356D01*
X169577232Y-88620053D01*
X169552462Y-88624980D01*
X169374978Y-88624980D01*
X169350208Y-88620053D01*
X169200908Y-88590356D01*
X169036936Y-88522436D01*
X168889366Y-88423833D01*
X168763867Y-88298334D01*
X168665264Y-88150764D01*
X168597344Y-87986792D01*
X168562720Y-87812721D01*
X168562720Y-87635239D01*
X168597344Y-87461168D01*
X168665264Y-87297196D01*
X168763867Y-87149626D01*
X168889366Y-87024127D01*
X169036936Y-86925524D01*
X169200908Y-86857604D01*
X169350208Y-86827907D01*
X169374978Y-86822980D01*
X169552462Y-86822980D01*
X169577232Y-86827907D01*
X169577232Y-86827907D01*
G37*
G36*
X164497232Y-86827907D02*
G01*
X164646532Y-86857604D01*
X164810504Y-86925524D01*
X164958074Y-87024127D01*
X165083573Y-87149626D01*
X165182176Y-87297196D01*
X165250096Y-87461168D01*
X165284720Y-87635239D01*
X165284720Y-87812721D01*
X165250096Y-87986792D01*
X165182176Y-88150764D01*
X165083573Y-88298334D01*
X164958074Y-88423833D01*
X164810504Y-88522436D01*
X164646532Y-88590356D01*
X164497232Y-88620053D01*
X164472462Y-88624980D01*
X164294978Y-88624980D01*
X164270208Y-88620053D01*
X164120908Y-88590356D01*
X163956936Y-88522436D01*
X163809366Y-88423833D01*
X163683867Y-88298334D01*
X163585264Y-88150764D01*
X163517344Y-87986792D01*
X163482720Y-87812721D01*
X163482720Y-87635239D01*
X163517344Y-87461168D01*
X163585264Y-87297196D01*
X163683867Y-87149626D01*
X163809366Y-87024127D01*
X163956936Y-86925524D01*
X164120908Y-86857604D01*
X164270208Y-86827907D01*
X164294978Y-86822980D01*
X164472462Y-86822980D01*
X164497232Y-86827907D01*
X164497232Y-86827907D01*
G37*
G36*
X161957232Y-86827907D02*
G01*
X162106532Y-86857604D01*
X162270504Y-86925524D01*
X162418074Y-87024127D01*
X162543573Y-87149626D01*
X162642176Y-87297196D01*
X162710096Y-87461168D01*
X162744720Y-87635239D01*
X162744720Y-87812721D01*
X162710096Y-87986792D01*
X162642176Y-88150764D01*
X162543573Y-88298334D01*
X162418074Y-88423833D01*
X162270504Y-88522436D01*
X162106532Y-88590356D01*
X161957232Y-88620053D01*
X161932462Y-88624980D01*
X161754978Y-88624980D01*
X161730208Y-88620053D01*
X161580908Y-88590356D01*
X161416936Y-88522436D01*
X161269366Y-88423833D01*
X161143867Y-88298334D01*
X161045264Y-88150764D01*
X160977344Y-87986792D01*
X160942720Y-87812721D01*
X160942720Y-87635239D01*
X160977344Y-87461168D01*
X161045264Y-87297196D01*
X161143867Y-87149626D01*
X161269366Y-87024127D01*
X161416936Y-86925524D01*
X161580908Y-86857604D01*
X161730208Y-86827907D01*
X161754978Y-86822980D01*
X161932462Y-86822980D01*
X161957232Y-86827907D01*
X161957232Y-86827907D01*
G37*
G36*
X159417232Y-86827907D02*
G01*
X159566532Y-86857604D01*
X159730504Y-86925524D01*
X159878074Y-87024127D01*
X160003573Y-87149626D01*
X160102176Y-87297196D01*
X160170096Y-87461168D01*
X160204720Y-87635239D01*
X160204720Y-87812721D01*
X160170096Y-87986792D01*
X160102176Y-88150764D01*
X160003573Y-88298334D01*
X159878074Y-88423833D01*
X159730504Y-88522436D01*
X159566532Y-88590356D01*
X159417232Y-88620053D01*
X159392462Y-88624980D01*
X159214978Y-88624980D01*
X159190208Y-88620053D01*
X159040908Y-88590356D01*
X158876936Y-88522436D01*
X158729366Y-88423833D01*
X158603867Y-88298334D01*
X158505264Y-88150764D01*
X158437344Y-87986792D01*
X158402720Y-87812721D01*
X158402720Y-87635239D01*
X158437344Y-87461168D01*
X158505264Y-87297196D01*
X158603867Y-87149626D01*
X158729366Y-87024127D01*
X158876936Y-86925524D01*
X159040908Y-86857604D01*
X159190208Y-86827907D01*
X159214978Y-86822980D01*
X159392462Y-86822980D01*
X159417232Y-86827907D01*
X159417232Y-86827907D01*
G37*
G36*
X154337232Y-86827907D02*
G01*
X154486532Y-86857604D01*
X154650504Y-86925524D01*
X154798074Y-87024127D01*
X154923573Y-87149626D01*
X155022176Y-87297196D01*
X155090096Y-87461168D01*
X155124720Y-87635239D01*
X155124720Y-87812721D01*
X155090096Y-87986792D01*
X155022176Y-88150764D01*
X154923573Y-88298334D01*
X154798074Y-88423833D01*
X154650504Y-88522436D01*
X154486532Y-88590356D01*
X154337232Y-88620053D01*
X154312462Y-88624980D01*
X154134978Y-88624980D01*
X154110208Y-88620053D01*
X153960908Y-88590356D01*
X153796936Y-88522436D01*
X153649366Y-88423833D01*
X153523867Y-88298334D01*
X153425264Y-88150764D01*
X153357344Y-87986792D01*
X153322720Y-87812721D01*
X153322720Y-87635239D01*
X153357344Y-87461168D01*
X153425264Y-87297196D01*
X153523867Y-87149626D01*
X153649366Y-87024127D01*
X153796936Y-86925524D01*
X153960908Y-86857604D01*
X154110208Y-86827907D01*
X154134978Y-86822980D01*
X154312462Y-86822980D01*
X154337232Y-86827907D01*
X154337232Y-86827907D01*
G37*
G36*
X151797232Y-86827907D02*
G01*
X151946532Y-86857604D01*
X152110504Y-86925524D01*
X152258074Y-87024127D01*
X152383573Y-87149626D01*
X152482176Y-87297196D01*
X152550096Y-87461168D01*
X152584720Y-87635239D01*
X152584720Y-87812721D01*
X152550096Y-87986792D01*
X152482176Y-88150764D01*
X152383573Y-88298334D01*
X152258074Y-88423833D01*
X152110504Y-88522436D01*
X151946532Y-88590356D01*
X151797232Y-88620053D01*
X151772462Y-88624980D01*
X151594978Y-88624980D01*
X151570208Y-88620053D01*
X151420908Y-88590356D01*
X151256936Y-88522436D01*
X151109366Y-88423833D01*
X150983867Y-88298334D01*
X150885264Y-88150764D01*
X150817344Y-87986792D01*
X150782720Y-87812721D01*
X150782720Y-87635239D01*
X150817344Y-87461168D01*
X150885264Y-87297196D01*
X150983867Y-87149626D01*
X151109366Y-87024127D01*
X151256936Y-86925524D01*
X151420908Y-86857604D01*
X151570208Y-86827907D01*
X151594978Y-86822980D01*
X151772462Y-86822980D01*
X151797232Y-86827907D01*
X151797232Y-86827907D01*
G37*
G36*
X149257232Y-86827907D02*
G01*
X149406532Y-86857604D01*
X149570504Y-86925524D01*
X149718074Y-87024127D01*
X149843573Y-87149626D01*
X149942176Y-87297196D01*
X150010096Y-87461168D01*
X150044720Y-87635239D01*
X150044720Y-87812721D01*
X150010096Y-87986792D01*
X149942176Y-88150764D01*
X149843573Y-88298334D01*
X149718074Y-88423833D01*
X149570504Y-88522436D01*
X149406532Y-88590356D01*
X149257232Y-88620053D01*
X149232462Y-88624980D01*
X149054978Y-88624980D01*
X149030208Y-88620053D01*
X148880908Y-88590356D01*
X148716936Y-88522436D01*
X148569366Y-88423833D01*
X148443867Y-88298334D01*
X148345264Y-88150764D01*
X148277344Y-87986792D01*
X148242720Y-87812721D01*
X148242720Y-87635239D01*
X148277344Y-87461168D01*
X148345264Y-87297196D01*
X148443867Y-87149626D01*
X148569366Y-87024127D01*
X148716936Y-86925524D01*
X148880908Y-86857604D01*
X149030208Y-86827907D01*
X149054978Y-86822980D01*
X149232462Y-86822980D01*
X149257232Y-86827907D01*
X149257232Y-86827907D01*
G37*
G36*
X179737232Y-86827907D02*
G01*
X179886532Y-86857604D01*
X180050504Y-86925524D01*
X180198074Y-87024127D01*
X180323573Y-87149626D01*
X180422176Y-87297196D01*
X180490096Y-87461168D01*
X180524720Y-87635239D01*
X180524720Y-87812721D01*
X180490096Y-87986792D01*
X180422176Y-88150764D01*
X180323573Y-88298334D01*
X180198074Y-88423833D01*
X180050504Y-88522436D01*
X179886532Y-88590356D01*
X179737232Y-88620053D01*
X179712462Y-88624980D01*
X179534978Y-88624980D01*
X179510208Y-88620053D01*
X179360908Y-88590356D01*
X179196936Y-88522436D01*
X179049366Y-88423833D01*
X178923867Y-88298334D01*
X178825264Y-88150764D01*
X178757344Y-87986792D01*
X178722720Y-87812721D01*
X178722720Y-87635239D01*
X178757344Y-87461168D01*
X178825264Y-87297196D01*
X178923867Y-87149626D01*
X179049366Y-87024127D01*
X179196936Y-86925524D01*
X179360908Y-86857604D01*
X179510208Y-86827907D01*
X179534978Y-86822980D01*
X179712462Y-86822980D01*
X179737232Y-86827907D01*
X179737232Y-86827907D01*
G37*
G36*
X177197232Y-86827907D02*
G01*
X177346532Y-86857604D01*
X177510504Y-86925524D01*
X177658074Y-87024127D01*
X177783573Y-87149626D01*
X177882176Y-87297196D01*
X177950096Y-87461168D01*
X177984720Y-87635239D01*
X177984720Y-87812721D01*
X177950096Y-87986792D01*
X177882176Y-88150764D01*
X177783573Y-88298334D01*
X177658074Y-88423833D01*
X177510504Y-88522436D01*
X177346532Y-88590356D01*
X177197232Y-88620053D01*
X177172462Y-88624980D01*
X176994978Y-88624980D01*
X176970208Y-88620053D01*
X176820908Y-88590356D01*
X176656936Y-88522436D01*
X176509366Y-88423833D01*
X176383867Y-88298334D01*
X176285264Y-88150764D01*
X176217344Y-87986792D01*
X176182720Y-87812721D01*
X176182720Y-87635239D01*
X176217344Y-87461168D01*
X176285264Y-87297196D01*
X176383867Y-87149626D01*
X176509366Y-87024127D01*
X176656936Y-86925524D01*
X176820908Y-86857604D01*
X176970208Y-86827907D01*
X176994978Y-86822980D01*
X177172462Y-86822980D01*
X177197232Y-86827907D01*
X177197232Y-86827907D01*
G37*
G36*
X167037232Y-86827907D02*
G01*
X167186532Y-86857604D01*
X167350504Y-86925524D01*
X167498074Y-87024127D01*
X167623573Y-87149626D01*
X167722176Y-87297196D01*
X167790096Y-87461168D01*
X167824720Y-87635239D01*
X167824720Y-87812721D01*
X167790096Y-87986792D01*
X167722176Y-88150764D01*
X167623573Y-88298334D01*
X167498074Y-88423833D01*
X167350504Y-88522436D01*
X167186532Y-88590356D01*
X167037232Y-88620053D01*
X167012462Y-88624980D01*
X166834978Y-88624980D01*
X166810208Y-88620053D01*
X166660908Y-88590356D01*
X166496936Y-88522436D01*
X166349366Y-88423833D01*
X166223867Y-88298334D01*
X166125264Y-88150764D01*
X166057344Y-87986792D01*
X166022720Y-87812721D01*
X166022720Y-87635239D01*
X166057344Y-87461168D01*
X166125264Y-87297196D01*
X166223867Y-87149626D01*
X166349366Y-87024127D01*
X166496936Y-86925524D01*
X166660908Y-86857604D01*
X166810208Y-86827907D01*
X166834978Y-86822980D01*
X167012462Y-86822980D01*
X167037232Y-86827907D01*
X167037232Y-86827907D01*
G37*
G36*
X119190433Y-83978893D02*
G01*
X119280657Y-83996839D01*
X119386267Y-84040585D01*
X119535621Y-84102449D01*
X119535622Y-84102450D01*
X119765086Y-84255772D01*
X119960228Y-84450914D01*
X119968843Y-84463808D01*
X120113551Y-84680379D01*
X120155038Y-84780538D01*
X120219161Y-84935343D01*
X120236789Y-85023964D01*
X120273000Y-85206012D01*
X120273000Y-85481988D01*
X120267253Y-85510880D01*
X120219161Y-85752657D01*
X120175415Y-85858267D01*
X120113551Y-86007621D01*
X120113550Y-86007622D01*
X119960228Y-86237086D01*
X119765086Y-86432228D01*
X119611763Y-86534675D01*
X119535621Y-86585551D01*
X119386267Y-86647415D01*
X119280657Y-86691161D01*
X119190433Y-86709107D01*
X119009988Y-86745000D01*
X118734012Y-86745000D01*
X118553567Y-86709107D01*
X118463343Y-86691161D01*
X118357733Y-86647415D01*
X118208379Y-86585551D01*
X118132237Y-86534675D01*
X117978914Y-86432228D01*
X117783772Y-86237086D01*
X117630450Y-86007622D01*
X117630449Y-86007621D01*
X117568585Y-85858267D01*
X117524839Y-85752657D01*
X117476747Y-85510880D01*
X117471000Y-85481988D01*
X117471000Y-85206012D01*
X117507211Y-85023964D01*
X117524839Y-84935343D01*
X117588962Y-84780538D01*
X117630449Y-84680379D01*
X117775157Y-84463808D01*
X117783772Y-84450914D01*
X117978914Y-84255772D01*
X118208378Y-84102450D01*
X118208379Y-84102449D01*
X118357733Y-84040585D01*
X118463343Y-83996839D01*
X118553567Y-83978893D01*
X118734012Y-83943000D01*
X119009988Y-83943000D01*
X119190433Y-83978893D01*
X119190433Y-83978893D01*
G37*
G36*
X156841672Y-84267587D02*
G01*
X156990972Y-84297284D01*
X157154944Y-84365204D01*
X157302514Y-84463807D01*
X157428013Y-84589306D01*
X157526616Y-84736876D01*
X157594536Y-84900848D01*
X157629160Y-85074919D01*
X157629160Y-85252401D01*
X157594536Y-85426472D01*
X157526616Y-85590444D01*
X157428013Y-85738014D01*
X157302514Y-85863513D01*
X157154944Y-85962116D01*
X156990972Y-86030036D01*
X156841672Y-86059733D01*
X156816902Y-86064660D01*
X156639418Y-86064660D01*
X156614648Y-86059733D01*
X156465348Y-86030036D01*
X156301376Y-85962116D01*
X156153806Y-85863513D01*
X156028307Y-85738014D01*
X155929704Y-85590444D01*
X155861784Y-85426472D01*
X155827160Y-85252401D01*
X155827160Y-85074919D01*
X155861784Y-84900848D01*
X155929704Y-84736876D01*
X156028307Y-84589306D01*
X156153806Y-84463807D01*
X156301376Y-84365204D01*
X156465348Y-84297284D01*
X156614648Y-84267587D01*
X156639418Y-84262660D01*
X156816902Y-84262660D01*
X156841672Y-84267587D01*
X156841672Y-84267587D01*
G37*
G36*
X154301672Y-84267587D02*
G01*
X154450972Y-84297284D01*
X154614944Y-84365204D01*
X154762514Y-84463807D01*
X154888013Y-84589306D01*
X154986616Y-84736876D01*
X155054536Y-84900848D01*
X155089160Y-85074919D01*
X155089160Y-85252401D01*
X155054536Y-85426472D01*
X154986616Y-85590444D01*
X154888013Y-85738014D01*
X154762514Y-85863513D01*
X154614944Y-85962116D01*
X154450972Y-86030036D01*
X154301672Y-86059733D01*
X154276902Y-86064660D01*
X154099418Y-86064660D01*
X154074648Y-86059733D01*
X153925348Y-86030036D01*
X153761376Y-85962116D01*
X153613806Y-85863513D01*
X153488307Y-85738014D01*
X153389704Y-85590444D01*
X153321784Y-85426472D01*
X153287160Y-85252401D01*
X153287160Y-85074919D01*
X153321784Y-84900848D01*
X153389704Y-84736876D01*
X153488307Y-84589306D01*
X153613806Y-84463807D01*
X153761376Y-84365204D01*
X153925348Y-84297284D01*
X154074648Y-84267587D01*
X154099418Y-84262660D01*
X154276902Y-84262660D01*
X154301672Y-84267587D01*
X154301672Y-84267587D01*
G37*
G36*
X151761672Y-84267587D02*
G01*
X151910972Y-84297284D01*
X152074944Y-84365204D01*
X152222514Y-84463807D01*
X152348013Y-84589306D01*
X152446616Y-84736876D01*
X152514536Y-84900848D01*
X152549160Y-85074919D01*
X152549160Y-85252401D01*
X152514536Y-85426472D01*
X152446616Y-85590444D01*
X152348013Y-85738014D01*
X152222514Y-85863513D01*
X152074944Y-85962116D01*
X151910972Y-86030036D01*
X151761672Y-86059733D01*
X151736902Y-86064660D01*
X151559418Y-86064660D01*
X151534648Y-86059733D01*
X151385348Y-86030036D01*
X151221376Y-85962116D01*
X151073806Y-85863513D01*
X150948307Y-85738014D01*
X150849704Y-85590444D01*
X150781784Y-85426472D01*
X150747160Y-85252401D01*
X150747160Y-85074919D01*
X150781784Y-84900848D01*
X150849704Y-84736876D01*
X150948307Y-84589306D01*
X151073806Y-84463807D01*
X151221376Y-84365204D01*
X151385348Y-84297284D01*
X151534648Y-84267587D01*
X151559418Y-84262660D01*
X151736902Y-84262660D01*
X151761672Y-84267587D01*
X151761672Y-84267587D01*
G37*
G36*
X159381672Y-84267587D02*
G01*
X159530972Y-84297284D01*
X159694944Y-84365204D01*
X159842514Y-84463807D01*
X159968013Y-84589306D01*
X160066616Y-84736876D01*
X160134536Y-84900848D01*
X160169160Y-85074919D01*
X160169160Y-85252401D01*
X160134536Y-85426472D01*
X160066616Y-85590444D01*
X159968013Y-85738014D01*
X159842514Y-85863513D01*
X159694944Y-85962116D01*
X159530972Y-86030036D01*
X159381672Y-86059733D01*
X159356902Y-86064660D01*
X159179418Y-86064660D01*
X159154648Y-86059733D01*
X159005348Y-86030036D01*
X158841376Y-85962116D01*
X158693806Y-85863513D01*
X158568307Y-85738014D01*
X158469704Y-85590444D01*
X158401784Y-85426472D01*
X158367160Y-85252401D01*
X158367160Y-85074919D01*
X158401784Y-84900848D01*
X158469704Y-84736876D01*
X158568307Y-84589306D01*
X158693806Y-84463807D01*
X158841376Y-84365204D01*
X159005348Y-84297284D01*
X159154648Y-84267587D01*
X159179418Y-84262660D01*
X159356902Y-84262660D01*
X159381672Y-84267587D01*
X159381672Y-84267587D01*
G37*
G36*
X184781672Y-84267587D02*
G01*
X184930972Y-84297284D01*
X185094944Y-84365204D01*
X185242514Y-84463807D01*
X185368013Y-84589306D01*
X185466616Y-84736876D01*
X185534536Y-84900848D01*
X185569160Y-85074919D01*
X185569160Y-85252401D01*
X185534536Y-85426472D01*
X185466616Y-85590444D01*
X185368013Y-85738014D01*
X185242514Y-85863513D01*
X185094944Y-85962116D01*
X184930972Y-86030036D01*
X184781672Y-86059733D01*
X184756902Y-86064660D01*
X184579418Y-86064660D01*
X184554648Y-86059733D01*
X184405348Y-86030036D01*
X184241376Y-85962116D01*
X184093806Y-85863513D01*
X183968307Y-85738014D01*
X183869704Y-85590444D01*
X183801784Y-85426472D01*
X183767160Y-85252401D01*
X183767160Y-85074919D01*
X183801784Y-84900848D01*
X183869704Y-84736876D01*
X183968307Y-84589306D01*
X184093806Y-84463807D01*
X184241376Y-84365204D01*
X184405348Y-84297284D01*
X184554648Y-84267587D01*
X184579418Y-84262660D01*
X184756902Y-84262660D01*
X184781672Y-84267587D01*
X184781672Y-84267587D01*
G37*
G36*
X182241672Y-84267587D02*
G01*
X182390972Y-84297284D01*
X182554944Y-84365204D01*
X182702514Y-84463807D01*
X182828013Y-84589306D01*
X182926616Y-84736876D01*
X182994536Y-84900848D01*
X183029160Y-85074919D01*
X183029160Y-85252401D01*
X182994536Y-85426472D01*
X182926616Y-85590444D01*
X182828013Y-85738014D01*
X182702514Y-85863513D01*
X182554944Y-85962116D01*
X182390972Y-86030036D01*
X182241672Y-86059733D01*
X182216902Y-86064660D01*
X182039418Y-86064660D01*
X182014648Y-86059733D01*
X181865348Y-86030036D01*
X181701376Y-85962116D01*
X181553806Y-85863513D01*
X181428307Y-85738014D01*
X181329704Y-85590444D01*
X181261784Y-85426472D01*
X181227160Y-85252401D01*
X181227160Y-85074919D01*
X181261784Y-84900848D01*
X181329704Y-84736876D01*
X181428307Y-84589306D01*
X181553806Y-84463807D01*
X181701376Y-84365204D01*
X181865348Y-84297284D01*
X182014648Y-84267587D01*
X182039418Y-84262660D01*
X182216902Y-84262660D01*
X182241672Y-84267587D01*
X182241672Y-84267587D01*
G37*
G36*
X179701672Y-84267587D02*
G01*
X179850972Y-84297284D01*
X180014944Y-84365204D01*
X180162514Y-84463807D01*
X180288013Y-84589306D01*
X180386616Y-84736876D01*
X180454536Y-84900848D01*
X180489160Y-85074919D01*
X180489160Y-85252401D01*
X180454536Y-85426472D01*
X180386616Y-85590444D01*
X180288013Y-85738014D01*
X180162514Y-85863513D01*
X180014944Y-85962116D01*
X179850972Y-86030036D01*
X179701672Y-86059733D01*
X179676902Y-86064660D01*
X179499418Y-86064660D01*
X179474648Y-86059733D01*
X179325348Y-86030036D01*
X179161376Y-85962116D01*
X179013806Y-85863513D01*
X178888307Y-85738014D01*
X178789704Y-85590444D01*
X178721784Y-85426472D01*
X178687160Y-85252401D01*
X178687160Y-85074919D01*
X178721784Y-84900848D01*
X178789704Y-84736876D01*
X178888307Y-84589306D01*
X179013806Y-84463807D01*
X179161376Y-84365204D01*
X179325348Y-84297284D01*
X179474648Y-84267587D01*
X179499418Y-84262660D01*
X179676902Y-84262660D01*
X179701672Y-84267587D01*
X179701672Y-84267587D01*
G37*
G36*
X174621672Y-84267587D02*
G01*
X174770972Y-84297284D01*
X174934944Y-84365204D01*
X175082514Y-84463807D01*
X175208013Y-84589306D01*
X175306616Y-84736876D01*
X175374536Y-84900848D01*
X175409160Y-85074919D01*
X175409160Y-85252401D01*
X175374536Y-85426472D01*
X175306616Y-85590444D01*
X175208013Y-85738014D01*
X175082514Y-85863513D01*
X174934944Y-85962116D01*
X174770972Y-86030036D01*
X174621672Y-86059733D01*
X174596902Y-86064660D01*
X174419418Y-86064660D01*
X174394648Y-86059733D01*
X174245348Y-86030036D01*
X174081376Y-85962116D01*
X173933806Y-85863513D01*
X173808307Y-85738014D01*
X173709704Y-85590444D01*
X173641784Y-85426472D01*
X173607160Y-85252401D01*
X173607160Y-85074919D01*
X173641784Y-84900848D01*
X173709704Y-84736876D01*
X173808307Y-84589306D01*
X173933806Y-84463807D01*
X174081376Y-84365204D01*
X174245348Y-84297284D01*
X174394648Y-84267587D01*
X174419418Y-84262660D01*
X174596902Y-84262660D01*
X174621672Y-84267587D01*
X174621672Y-84267587D01*
G37*
G36*
X177161672Y-84267587D02*
G01*
X177310972Y-84297284D01*
X177474944Y-84365204D01*
X177622514Y-84463807D01*
X177748013Y-84589306D01*
X177846616Y-84736876D01*
X177914536Y-84900848D01*
X177949160Y-85074919D01*
X177949160Y-85252401D01*
X177914536Y-85426472D01*
X177846616Y-85590444D01*
X177748013Y-85738014D01*
X177622514Y-85863513D01*
X177474944Y-85962116D01*
X177310972Y-86030036D01*
X177161672Y-86059733D01*
X177136902Y-86064660D01*
X176959418Y-86064660D01*
X176934648Y-86059733D01*
X176785348Y-86030036D01*
X176621376Y-85962116D01*
X176473806Y-85863513D01*
X176348307Y-85738014D01*
X176249704Y-85590444D01*
X176181784Y-85426472D01*
X176147160Y-85252401D01*
X176147160Y-85074919D01*
X176181784Y-84900848D01*
X176249704Y-84736876D01*
X176348307Y-84589306D01*
X176473806Y-84463807D01*
X176621376Y-84365204D01*
X176785348Y-84297284D01*
X176934648Y-84267587D01*
X176959418Y-84262660D01*
X177136902Y-84262660D01*
X177161672Y-84267587D01*
X177161672Y-84267587D01*
G37*
G36*
X149221672Y-84267587D02*
G01*
X149370972Y-84297284D01*
X149534944Y-84365204D01*
X149682514Y-84463807D01*
X149808013Y-84589306D01*
X149906616Y-84736876D01*
X149974536Y-84900848D01*
X150009160Y-85074919D01*
X150009160Y-85252401D01*
X149974536Y-85426472D01*
X149906616Y-85590444D01*
X149808013Y-85738014D01*
X149682514Y-85863513D01*
X149534944Y-85962116D01*
X149370972Y-86030036D01*
X149221672Y-86059733D01*
X149196902Y-86064660D01*
X149019418Y-86064660D01*
X148994648Y-86059733D01*
X148845348Y-86030036D01*
X148681376Y-85962116D01*
X148533806Y-85863513D01*
X148408307Y-85738014D01*
X148309704Y-85590444D01*
X148241784Y-85426472D01*
X148207160Y-85252401D01*
X148207160Y-85074919D01*
X148241784Y-84900848D01*
X148309704Y-84736876D01*
X148408307Y-84589306D01*
X148533806Y-84463807D01*
X148681376Y-84365204D01*
X148845348Y-84297284D01*
X148994648Y-84267587D01*
X149019418Y-84262660D01*
X149196902Y-84262660D01*
X149221672Y-84267587D01*
X149221672Y-84267587D01*
G37*
G36*
X161921672Y-84267587D02*
G01*
X162070972Y-84297284D01*
X162234944Y-84365204D01*
X162382514Y-84463807D01*
X162508013Y-84589306D01*
X162606616Y-84736876D01*
X162674536Y-84900848D01*
X162709160Y-85074919D01*
X162709160Y-85252401D01*
X162674536Y-85426472D01*
X162606616Y-85590444D01*
X162508013Y-85738014D01*
X162382514Y-85863513D01*
X162234944Y-85962116D01*
X162070972Y-86030036D01*
X161921672Y-86059733D01*
X161896902Y-86064660D01*
X161719418Y-86064660D01*
X161694648Y-86059733D01*
X161545348Y-86030036D01*
X161381376Y-85962116D01*
X161233806Y-85863513D01*
X161108307Y-85738014D01*
X161009704Y-85590444D01*
X160941784Y-85426472D01*
X160907160Y-85252401D01*
X160907160Y-85074919D01*
X160941784Y-84900848D01*
X161009704Y-84736876D01*
X161108307Y-84589306D01*
X161233806Y-84463807D01*
X161381376Y-84365204D01*
X161545348Y-84297284D01*
X161694648Y-84267587D01*
X161719418Y-84262660D01*
X161896902Y-84262660D01*
X161921672Y-84267587D01*
X161921672Y-84267587D01*
G37*
G36*
X164461672Y-84267587D02*
G01*
X164610972Y-84297284D01*
X164774944Y-84365204D01*
X164922514Y-84463807D01*
X165048013Y-84589306D01*
X165146616Y-84736876D01*
X165214536Y-84900848D01*
X165249160Y-85074919D01*
X165249160Y-85252401D01*
X165214536Y-85426472D01*
X165146616Y-85590444D01*
X165048013Y-85738014D01*
X164922514Y-85863513D01*
X164774944Y-85962116D01*
X164610972Y-86030036D01*
X164461672Y-86059733D01*
X164436902Y-86064660D01*
X164259418Y-86064660D01*
X164234648Y-86059733D01*
X164085348Y-86030036D01*
X163921376Y-85962116D01*
X163773806Y-85863513D01*
X163648307Y-85738014D01*
X163549704Y-85590444D01*
X163481784Y-85426472D01*
X163447160Y-85252401D01*
X163447160Y-85074919D01*
X163481784Y-84900848D01*
X163549704Y-84736876D01*
X163648307Y-84589306D01*
X163773806Y-84463807D01*
X163921376Y-84365204D01*
X164085348Y-84297284D01*
X164234648Y-84267587D01*
X164259418Y-84262660D01*
X164436902Y-84262660D01*
X164461672Y-84267587D01*
X164461672Y-84267587D01*
G37*
G36*
X167001672Y-84267587D02*
G01*
X167150972Y-84297284D01*
X167314944Y-84365204D01*
X167462514Y-84463807D01*
X167588013Y-84589306D01*
X167686616Y-84736876D01*
X167754536Y-84900848D01*
X167789160Y-85074919D01*
X167789160Y-85252401D01*
X167754536Y-85426472D01*
X167686616Y-85590444D01*
X167588013Y-85738014D01*
X167462514Y-85863513D01*
X167314944Y-85962116D01*
X167150972Y-86030036D01*
X167001672Y-86059733D01*
X166976902Y-86064660D01*
X166799418Y-86064660D01*
X166774648Y-86059733D01*
X166625348Y-86030036D01*
X166461376Y-85962116D01*
X166313806Y-85863513D01*
X166188307Y-85738014D01*
X166089704Y-85590444D01*
X166021784Y-85426472D01*
X165987160Y-85252401D01*
X165987160Y-85074919D01*
X166021784Y-84900848D01*
X166089704Y-84736876D01*
X166188307Y-84589306D01*
X166313806Y-84463807D01*
X166461376Y-84365204D01*
X166625348Y-84297284D01*
X166774648Y-84267587D01*
X166799418Y-84262660D01*
X166976902Y-84262660D01*
X167001672Y-84267587D01*
X167001672Y-84267587D01*
G37*
G36*
X169541672Y-84267587D02*
G01*
X169690972Y-84297284D01*
X169854944Y-84365204D01*
X170002514Y-84463807D01*
X170128013Y-84589306D01*
X170226616Y-84736876D01*
X170294536Y-84900848D01*
X170329160Y-85074919D01*
X170329160Y-85252401D01*
X170294536Y-85426472D01*
X170226616Y-85590444D01*
X170128013Y-85738014D01*
X170002514Y-85863513D01*
X169854944Y-85962116D01*
X169690972Y-86030036D01*
X169541672Y-86059733D01*
X169516902Y-86064660D01*
X169339418Y-86064660D01*
X169314648Y-86059733D01*
X169165348Y-86030036D01*
X169001376Y-85962116D01*
X168853806Y-85863513D01*
X168728307Y-85738014D01*
X168629704Y-85590444D01*
X168561784Y-85426472D01*
X168527160Y-85252401D01*
X168527160Y-85074919D01*
X168561784Y-84900848D01*
X168629704Y-84736876D01*
X168728307Y-84589306D01*
X168853806Y-84463807D01*
X169001376Y-84365204D01*
X169165348Y-84297284D01*
X169314648Y-84267587D01*
X169339418Y-84262660D01*
X169516902Y-84262660D01*
X169541672Y-84267587D01*
X169541672Y-84267587D01*
G37*
G36*
X172081672Y-84267587D02*
G01*
X172230972Y-84297284D01*
X172394944Y-84365204D01*
X172542514Y-84463807D01*
X172668013Y-84589306D01*
X172766616Y-84736876D01*
X172834536Y-84900848D01*
X172869160Y-85074919D01*
X172869160Y-85252401D01*
X172834536Y-85426472D01*
X172766616Y-85590444D01*
X172668013Y-85738014D01*
X172542514Y-85863513D01*
X172394944Y-85962116D01*
X172230972Y-86030036D01*
X172081672Y-86059733D01*
X172056902Y-86064660D01*
X171879418Y-86064660D01*
X171854648Y-86059733D01*
X171705348Y-86030036D01*
X171541376Y-85962116D01*
X171393806Y-85863513D01*
X171268307Y-85738014D01*
X171169704Y-85590444D01*
X171101784Y-85426472D01*
X171067160Y-85252401D01*
X171067160Y-85074919D01*
X171101784Y-84900848D01*
X171169704Y-84736876D01*
X171268307Y-84589306D01*
X171393806Y-84463807D01*
X171541376Y-84365204D01*
X171705348Y-84297284D01*
X171854648Y-84267587D01*
X171879418Y-84262660D01*
X172056902Y-84262660D01*
X172081672Y-84267587D01*
X172081672Y-84267587D01*
G37*
G36*
X124007188Y-84289483D02*
G01*
X124162060Y-84353633D01*
X124301441Y-84446765D01*
X124419975Y-84565299D01*
X124513107Y-84704680D01*
X124577257Y-84859552D01*
X124609960Y-85023964D01*
X124609960Y-85191596D01*
X124577257Y-85356008D01*
X124513107Y-85510880D01*
X124419975Y-85650261D01*
X124301441Y-85768795D01*
X124162060Y-85861927D01*
X124007188Y-85926077D01*
X123842776Y-85958780D01*
X123675144Y-85958780D01*
X123510732Y-85926077D01*
X123355860Y-85861927D01*
X123216479Y-85768795D01*
X123097945Y-85650261D01*
X123004813Y-85510880D01*
X122940663Y-85356008D01*
X122907960Y-85191596D01*
X122907960Y-85023964D01*
X122940663Y-84859552D01*
X123004813Y-84704680D01*
X123097945Y-84565299D01*
X123216479Y-84446765D01*
X123355860Y-84353633D01*
X123510732Y-84289483D01*
X123675144Y-84256780D01*
X123842776Y-84256780D01*
X124007188Y-84289483D01*
X124007188Y-84289483D01*
G37*
G36*
X134085783Y-84269093D02*
G01*
X134246202Y-84317756D01*
X134313321Y-84353632D01*
X134394038Y-84396776D01*
X134523619Y-84503121D01*
X134629964Y-84632702D01*
X134629965Y-84632704D01*
X134708984Y-84780538D01*
X134757647Y-84940957D01*
X134774077Y-85107780D01*
X134757647Y-85274603D01*
X134708984Y-85435022D01*
X134668437Y-85510880D01*
X134629964Y-85582858D01*
X134523619Y-85712439D01*
X134394038Y-85818784D01*
X134394036Y-85818785D01*
X134246202Y-85897804D01*
X134085783Y-85946467D01*
X133960764Y-85958780D01*
X133877156Y-85958780D01*
X133752137Y-85946467D01*
X133591718Y-85897804D01*
X133443884Y-85818785D01*
X133443882Y-85818784D01*
X133314301Y-85712439D01*
X133207956Y-85582858D01*
X133169483Y-85510880D01*
X133128936Y-85435022D01*
X133080273Y-85274603D01*
X133063843Y-85107780D01*
X133080273Y-84940957D01*
X133128936Y-84780538D01*
X133207955Y-84632704D01*
X133207956Y-84632702D01*
X133314301Y-84503121D01*
X133443882Y-84396776D01*
X133524599Y-84353632D01*
X133591718Y-84317756D01*
X133752137Y-84269093D01*
X133877156Y-84256780D01*
X133960764Y-84256780D01*
X134085783Y-84269093D01*
X134085783Y-84269093D01*
G37*
G36*
X111515468Y-80593203D02*
G01*
X111670340Y-80657353D01*
X111809721Y-80750485D01*
X111928255Y-80869019D01*
X112021387Y-81008400D01*
X112085537Y-81163272D01*
X112118240Y-81327684D01*
X112118240Y-81495316D01*
X112085537Y-81659728D01*
X112021387Y-81814600D01*
X111928255Y-81953981D01*
X111809721Y-82072515D01*
X111670340Y-82165647D01*
X111515468Y-82229797D01*
X111351056Y-82262500D01*
X111183424Y-82262500D01*
X111019012Y-82229797D01*
X110864140Y-82165647D01*
X110724759Y-82072515D01*
X110606225Y-81953981D01*
X110513093Y-81814600D01*
X110448943Y-81659728D01*
X110416240Y-81495316D01*
X110416240Y-81327684D01*
X110448943Y-81163272D01*
X110513093Y-81008400D01*
X110606225Y-80869019D01*
X110724759Y-80750485D01*
X110864140Y-80657353D01*
X111019012Y-80593203D01*
X111183424Y-80560500D01*
X111351056Y-80560500D01*
X111515468Y-80593203D01*
X111515468Y-80593203D01*
G37*
G36*
X108975468Y-80593203D02*
G01*
X109130340Y-80657353D01*
X109269721Y-80750485D01*
X109388255Y-80869019D01*
X109481387Y-81008400D01*
X109545537Y-81163272D01*
X109578240Y-81327684D01*
X109578240Y-81495316D01*
X109545537Y-81659728D01*
X109481387Y-81814600D01*
X109388255Y-81953981D01*
X109269721Y-82072515D01*
X109130340Y-82165647D01*
X108975468Y-82229797D01*
X108811056Y-82262500D01*
X108643424Y-82262500D01*
X108479012Y-82229797D01*
X108324140Y-82165647D01*
X108184759Y-82072515D01*
X108066225Y-81953981D01*
X107973093Y-81814600D01*
X107908943Y-81659728D01*
X107876240Y-81495316D01*
X107876240Y-81327684D01*
X107908943Y-81163272D01*
X107973093Y-81008400D01*
X108066225Y-80869019D01*
X108184759Y-80750485D01*
X108324140Y-80657353D01*
X108479012Y-80593203D01*
X108643424Y-80560500D01*
X108811056Y-80560500D01*
X108975468Y-80593203D01*
X108975468Y-80593203D01*
G37*
G36*
X106435468Y-80593203D02*
G01*
X106590340Y-80657353D01*
X106729721Y-80750485D01*
X106848255Y-80869019D01*
X106941387Y-81008400D01*
X107005537Y-81163272D01*
X107038240Y-81327684D01*
X107038240Y-81495316D01*
X107005537Y-81659728D01*
X106941387Y-81814600D01*
X106848255Y-81953981D01*
X106729721Y-82072515D01*
X106590340Y-82165647D01*
X106435468Y-82229797D01*
X106271056Y-82262500D01*
X106103424Y-82262500D01*
X105939012Y-82229797D01*
X105784140Y-82165647D01*
X105644759Y-82072515D01*
X105526225Y-81953981D01*
X105433093Y-81814600D01*
X105368943Y-81659728D01*
X105336240Y-81495316D01*
X105336240Y-81327684D01*
X105368943Y-81163272D01*
X105433093Y-81008400D01*
X105526225Y-80869019D01*
X105644759Y-80750485D01*
X105784140Y-80657353D01*
X105939012Y-80593203D01*
X106103424Y-80560500D01*
X106271056Y-80560500D01*
X106435468Y-80593203D01*
X106435468Y-80593203D01*
G37*
G36*
X103895468Y-80593203D02*
G01*
X104050340Y-80657353D01*
X104189721Y-80750485D01*
X104308255Y-80869019D01*
X104401387Y-81008400D01*
X104465537Y-81163272D01*
X104498240Y-81327684D01*
X104498240Y-81495316D01*
X104465537Y-81659728D01*
X104401387Y-81814600D01*
X104308255Y-81953981D01*
X104189721Y-82072515D01*
X104050340Y-82165647D01*
X103895468Y-82229797D01*
X103731056Y-82262500D01*
X103563424Y-82262500D01*
X103399012Y-82229797D01*
X103244140Y-82165647D01*
X103104759Y-82072515D01*
X102986225Y-81953981D01*
X102893093Y-81814600D01*
X102828943Y-81659728D01*
X102796240Y-81495316D01*
X102796240Y-81327684D01*
X102828943Y-81163272D01*
X102893093Y-81008400D01*
X102986225Y-80869019D01*
X103104759Y-80750485D01*
X103244140Y-80657353D01*
X103399012Y-80593203D01*
X103563424Y-80560500D01*
X103731056Y-80560500D01*
X103895468Y-80593203D01*
X103895468Y-80593203D01*
G37*
G36*
X101355468Y-80593203D02*
G01*
X101510340Y-80657353D01*
X101649721Y-80750485D01*
X101768255Y-80869019D01*
X101861387Y-81008400D01*
X101925537Y-81163272D01*
X101958240Y-81327684D01*
X101958240Y-81495316D01*
X101925537Y-81659728D01*
X101861387Y-81814600D01*
X101768255Y-81953981D01*
X101649721Y-82072515D01*
X101510340Y-82165647D01*
X101355468Y-82229797D01*
X101191056Y-82262500D01*
X101023424Y-82262500D01*
X100859012Y-82229797D01*
X100704140Y-82165647D01*
X100564759Y-82072515D01*
X100446225Y-81953981D01*
X100353093Y-81814600D01*
X100288943Y-81659728D01*
X100256240Y-81495316D01*
X100256240Y-81327684D01*
X100288943Y-81163272D01*
X100353093Y-81008400D01*
X100446225Y-80869019D01*
X100564759Y-80750485D01*
X100704140Y-80657353D01*
X100859012Y-80593203D01*
X101023424Y-80560500D01*
X101191056Y-80560500D01*
X101355468Y-80593203D01*
X101355468Y-80593203D01*
G37*
G36*
X98815468Y-80593203D02*
G01*
X98970340Y-80657353D01*
X99109721Y-80750485D01*
X99228255Y-80869019D01*
X99321387Y-81008400D01*
X99385537Y-81163272D01*
X99418240Y-81327684D01*
X99418240Y-81495316D01*
X99385537Y-81659728D01*
X99321387Y-81814600D01*
X99228255Y-81953981D01*
X99109721Y-82072515D01*
X98970340Y-82165647D01*
X98815468Y-82229797D01*
X98651056Y-82262500D01*
X98483424Y-82262500D01*
X98319012Y-82229797D01*
X98164140Y-82165647D01*
X98024759Y-82072515D01*
X97906225Y-81953981D01*
X97813093Y-81814600D01*
X97748943Y-81659728D01*
X97716240Y-81495316D01*
X97716240Y-81327684D01*
X97748943Y-81163272D01*
X97813093Y-81008400D01*
X97906225Y-80869019D01*
X98024759Y-80750485D01*
X98164140Y-80657353D01*
X98319012Y-80593203D01*
X98483424Y-80560500D01*
X98651056Y-80560500D01*
X98815468Y-80593203D01*
X98815468Y-80593203D01*
G37*
G36*
X96275468Y-80593203D02*
G01*
X96430340Y-80657353D01*
X96569721Y-80750485D01*
X96688255Y-80869019D01*
X96781387Y-81008400D01*
X96845537Y-81163272D01*
X96878240Y-81327684D01*
X96878240Y-81495316D01*
X96845537Y-81659728D01*
X96781387Y-81814600D01*
X96688255Y-81953981D01*
X96569721Y-82072515D01*
X96430340Y-82165647D01*
X96275468Y-82229797D01*
X96111056Y-82262500D01*
X95943424Y-82262500D01*
X95779012Y-82229797D01*
X95624140Y-82165647D01*
X95484759Y-82072515D01*
X95366225Y-81953981D01*
X95273093Y-81814600D01*
X95208943Y-81659728D01*
X95176240Y-81495316D01*
X95176240Y-81327684D01*
X95208943Y-81163272D01*
X95273093Y-81008400D01*
X95366225Y-80869019D01*
X95484759Y-80750485D01*
X95624140Y-80657353D01*
X95779012Y-80593203D01*
X95943424Y-80560500D01*
X96111056Y-80560500D01*
X96275468Y-80593203D01*
X96275468Y-80593203D01*
G37*
G36*
X91195468Y-80593203D02*
G01*
X91350340Y-80657353D01*
X91489721Y-80750485D01*
X91608255Y-80869019D01*
X91701387Y-81008400D01*
X91765537Y-81163272D01*
X91798240Y-81327684D01*
X91798240Y-81495316D01*
X91765537Y-81659728D01*
X91701387Y-81814600D01*
X91608255Y-81953981D01*
X91489721Y-82072515D01*
X91350340Y-82165647D01*
X91195468Y-82229797D01*
X91031056Y-82262500D01*
X90863424Y-82262500D01*
X90699012Y-82229797D01*
X90544140Y-82165647D01*
X90404759Y-82072515D01*
X90286225Y-81953981D01*
X90193093Y-81814600D01*
X90128943Y-81659728D01*
X90096240Y-81495316D01*
X90096240Y-81327684D01*
X90128943Y-81163272D01*
X90193093Y-81008400D01*
X90286225Y-80869019D01*
X90404759Y-80750485D01*
X90544140Y-80657353D01*
X90699012Y-80593203D01*
X90863424Y-80560500D01*
X91031056Y-80560500D01*
X91195468Y-80593203D01*
X91195468Y-80593203D01*
G37*
G36*
X88655468Y-80593203D02*
G01*
X88810340Y-80657353D01*
X88949721Y-80750485D01*
X89068255Y-80869019D01*
X89161387Y-81008400D01*
X89225537Y-81163272D01*
X89258240Y-81327684D01*
X89258240Y-81495316D01*
X89225537Y-81659728D01*
X89161387Y-81814600D01*
X89068255Y-81953981D01*
X88949721Y-82072515D01*
X88810340Y-82165647D01*
X88655468Y-82229797D01*
X88491056Y-82262500D01*
X88323424Y-82262500D01*
X88159012Y-82229797D01*
X88004140Y-82165647D01*
X87864759Y-82072515D01*
X87746225Y-81953981D01*
X87653093Y-81814600D01*
X87588943Y-81659728D01*
X87556240Y-81495316D01*
X87556240Y-81327684D01*
X87588943Y-81163272D01*
X87653093Y-81008400D01*
X87746225Y-80869019D01*
X87864759Y-80750485D01*
X88004140Y-80657353D01*
X88159012Y-80593203D01*
X88323424Y-80560500D01*
X88491056Y-80560500D01*
X88655468Y-80593203D01*
X88655468Y-80593203D01*
G37*
G36*
X86115468Y-80593203D02*
G01*
X86270340Y-80657353D01*
X86409721Y-80750485D01*
X86528255Y-80869019D01*
X86621387Y-81008400D01*
X86685537Y-81163272D01*
X86718240Y-81327684D01*
X86718240Y-81495316D01*
X86685537Y-81659728D01*
X86621387Y-81814600D01*
X86528255Y-81953981D01*
X86409721Y-82072515D01*
X86270340Y-82165647D01*
X86115468Y-82229797D01*
X85951056Y-82262500D01*
X85783424Y-82262500D01*
X85619012Y-82229797D01*
X85464140Y-82165647D01*
X85324759Y-82072515D01*
X85206225Y-81953981D01*
X85113093Y-81814600D01*
X85048943Y-81659728D01*
X85016240Y-81495316D01*
X85016240Y-81327684D01*
X85048943Y-81163272D01*
X85113093Y-81008400D01*
X85206225Y-80869019D01*
X85324759Y-80750485D01*
X85464140Y-80657353D01*
X85619012Y-80593203D01*
X85783424Y-80560500D01*
X85951056Y-80560500D01*
X86115468Y-80593203D01*
X86115468Y-80593203D01*
G37*
G36*
X83575468Y-80593203D02*
G01*
X83730340Y-80657353D01*
X83869721Y-80750485D01*
X83988255Y-80869019D01*
X84081387Y-81008400D01*
X84145537Y-81163272D01*
X84178240Y-81327684D01*
X84178240Y-81495316D01*
X84145537Y-81659728D01*
X84081387Y-81814600D01*
X83988255Y-81953981D01*
X83869721Y-82072515D01*
X83730340Y-82165647D01*
X83575468Y-82229797D01*
X83411056Y-82262500D01*
X83243424Y-82262500D01*
X83079012Y-82229797D01*
X82924140Y-82165647D01*
X82784759Y-82072515D01*
X82666225Y-81953981D01*
X82573093Y-81814600D01*
X82508943Y-81659728D01*
X82476240Y-81495316D01*
X82476240Y-81327684D01*
X82508943Y-81163272D01*
X82573093Y-81008400D01*
X82666225Y-80869019D01*
X82784759Y-80750485D01*
X82924140Y-80657353D01*
X83079012Y-80593203D01*
X83243424Y-80560500D01*
X83411056Y-80560500D01*
X83575468Y-80593203D01*
X83575468Y-80593203D01*
G37*
G36*
X81035468Y-80593203D02*
G01*
X81190340Y-80657353D01*
X81329721Y-80750485D01*
X81448255Y-80869019D01*
X81541387Y-81008400D01*
X81605537Y-81163272D01*
X81638240Y-81327684D01*
X81638240Y-81495316D01*
X81605537Y-81659728D01*
X81541387Y-81814600D01*
X81448255Y-81953981D01*
X81329721Y-82072515D01*
X81190340Y-82165647D01*
X81035468Y-82229797D01*
X80871056Y-82262500D01*
X80703424Y-82262500D01*
X80539012Y-82229797D01*
X80384140Y-82165647D01*
X80244759Y-82072515D01*
X80126225Y-81953981D01*
X80033093Y-81814600D01*
X79968943Y-81659728D01*
X79936240Y-81495316D01*
X79936240Y-81327684D01*
X79968943Y-81163272D01*
X80033093Y-81008400D01*
X80126225Y-80869019D01*
X80244759Y-80750485D01*
X80384140Y-80657353D01*
X80539012Y-80593203D01*
X80703424Y-80560500D01*
X80871056Y-80560500D01*
X81035468Y-80593203D01*
X81035468Y-80593203D01*
G37*
G36*
X78495468Y-80593203D02*
G01*
X78650340Y-80657353D01*
X78789721Y-80750485D01*
X78908255Y-80869019D01*
X79001387Y-81008400D01*
X79065537Y-81163272D01*
X79098240Y-81327684D01*
X79098240Y-81495316D01*
X79065537Y-81659728D01*
X79001387Y-81814600D01*
X78908255Y-81953981D01*
X78789721Y-82072515D01*
X78650340Y-82165647D01*
X78495468Y-82229797D01*
X78331056Y-82262500D01*
X78163424Y-82262500D01*
X77999012Y-82229797D01*
X77844140Y-82165647D01*
X77704759Y-82072515D01*
X77586225Y-81953981D01*
X77493093Y-81814600D01*
X77428943Y-81659728D01*
X77396240Y-81495316D01*
X77396240Y-81327684D01*
X77428943Y-81163272D01*
X77493093Y-81008400D01*
X77586225Y-80869019D01*
X77704759Y-80750485D01*
X77844140Y-80657353D01*
X77999012Y-80593203D01*
X78163424Y-80560500D01*
X78331056Y-80560500D01*
X78495468Y-80593203D01*
X78495468Y-80593203D01*
G37*
G36*
X93735468Y-80593203D02*
G01*
X93890340Y-80657353D01*
X94029721Y-80750485D01*
X94148255Y-80869019D01*
X94241387Y-81008400D01*
X94305537Y-81163272D01*
X94338240Y-81327684D01*
X94338240Y-81495316D01*
X94305537Y-81659728D01*
X94241387Y-81814600D01*
X94148255Y-81953981D01*
X94029721Y-82072515D01*
X93890340Y-82165647D01*
X93735468Y-82229797D01*
X93571056Y-82262500D01*
X93403424Y-82262500D01*
X93239012Y-82229797D01*
X93084140Y-82165647D01*
X92944759Y-82072515D01*
X92826225Y-81953981D01*
X92733093Y-81814600D01*
X92668943Y-81659728D01*
X92636240Y-81495316D01*
X92636240Y-81327684D01*
X92668943Y-81163272D01*
X92733093Y-81008400D01*
X92826225Y-80869019D01*
X92944759Y-80750485D01*
X93084140Y-80657353D01*
X93239012Y-80593203D01*
X93403424Y-80560500D01*
X93571056Y-80560500D01*
X93735468Y-80593203D01*
X93735468Y-80593203D01*
G37*
G36*
X70316043Y-78975819D02*
G01*
X70382227Y-78982337D01*
X70552066Y-79033857D01*
X70708591Y-79117522D01*
X70744329Y-79146852D01*
X70845786Y-79230114D01*
X70929048Y-79331571D01*
X70958378Y-79367309D01*
X71042043Y-79523834D01*
X71093563Y-79693673D01*
X71110959Y-79870300D01*
X71093563Y-80046927D01*
X71042043Y-80216766D01*
X70958378Y-80373291D01*
X70929048Y-80409029D01*
X70845786Y-80510486D01*
X70744994Y-80593203D01*
X70708591Y-80623078D01*
X70552066Y-80706743D01*
X70382227Y-80758263D01*
X70316042Y-80764782D01*
X70249860Y-80771300D01*
X70161340Y-80771300D01*
X70095158Y-80764782D01*
X70028973Y-80758263D01*
X69859134Y-80706743D01*
X69702609Y-80623078D01*
X69666206Y-80593203D01*
X69565414Y-80510486D01*
X69482152Y-80409029D01*
X69452822Y-80373291D01*
X69369157Y-80216766D01*
X69317637Y-80046927D01*
X69300241Y-79870300D01*
X69317637Y-79693673D01*
X69369157Y-79523834D01*
X69452822Y-79367309D01*
X69482152Y-79331571D01*
X69565414Y-79230114D01*
X69666871Y-79146852D01*
X69702609Y-79117522D01*
X69859134Y-79033857D01*
X70028973Y-78982337D01*
X70095157Y-78975819D01*
X70161340Y-78969300D01*
X70249860Y-78969300D01*
X70316043Y-78975819D01*
X70316043Y-78975819D01*
G37*
G36*
X67776043Y-78975819D02*
G01*
X67842227Y-78982337D01*
X68012066Y-79033857D01*
X68168591Y-79117522D01*
X68204329Y-79146852D01*
X68305786Y-79230114D01*
X68389048Y-79331571D01*
X68418378Y-79367309D01*
X68502043Y-79523834D01*
X68553563Y-79693673D01*
X68570959Y-79870300D01*
X68553563Y-80046927D01*
X68502043Y-80216766D01*
X68418378Y-80373291D01*
X68389048Y-80409029D01*
X68305786Y-80510486D01*
X68204994Y-80593203D01*
X68168591Y-80623078D01*
X68012066Y-80706743D01*
X67842227Y-80758263D01*
X67776042Y-80764782D01*
X67709860Y-80771300D01*
X67621340Y-80771300D01*
X67555158Y-80764782D01*
X67488973Y-80758263D01*
X67319134Y-80706743D01*
X67162609Y-80623078D01*
X67126206Y-80593203D01*
X67025414Y-80510486D01*
X66942152Y-80409029D01*
X66912822Y-80373291D01*
X66829157Y-80216766D01*
X66777637Y-80046927D01*
X66760241Y-79870300D01*
X66777637Y-79693673D01*
X66829157Y-79523834D01*
X66912822Y-79367309D01*
X66942152Y-79331571D01*
X67025414Y-79230114D01*
X67126871Y-79146852D01*
X67162609Y-79117522D01*
X67319134Y-79033857D01*
X67488973Y-78982337D01*
X67555157Y-78975819D01*
X67621340Y-78969300D01*
X67709860Y-78969300D01*
X67776043Y-78975819D01*
X67776043Y-78975819D01*
G37*
G36*
X108975468Y-78053203D02*
G01*
X109130340Y-78117353D01*
X109269721Y-78210485D01*
X109388255Y-78329019D01*
X109481387Y-78468400D01*
X109545537Y-78623272D01*
X109578240Y-78787684D01*
X109578240Y-78955316D01*
X109545537Y-79119728D01*
X109481387Y-79274600D01*
X109388255Y-79413981D01*
X109269721Y-79532515D01*
X109130340Y-79625647D01*
X108975468Y-79689797D01*
X108811056Y-79722500D01*
X108643424Y-79722500D01*
X108479012Y-79689797D01*
X108324140Y-79625647D01*
X108184759Y-79532515D01*
X108066225Y-79413981D01*
X107973093Y-79274600D01*
X107908943Y-79119728D01*
X107876240Y-78955316D01*
X107876240Y-78787684D01*
X107908943Y-78623272D01*
X107973093Y-78468400D01*
X108066225Y-78329019D01*
X108184759Y-78210485D01*
X108324140Y-78117353D01*
X108479012Y-78053203D01*
X108643424Y-78020500D01*
X108811056Y-78020500D01*
X108975468Y-78053203D01*
X108975468Y-78053203D01*
G37*
G36*
X78495468Y-78053203D02*
G01*
X78650340Y-78117353D01*
X78789721Y-78210485D01*
X78908255Y-78329019D01*
X79001387Y-78468400D01*
X79065537Y-78623272D01*
X79098240Y-78787684D01*
X79098240Y-78955316D01*
X79065537Y-79119728D01*
X79001387Y-79274600D01*
X78908255Y-79413981D01*
X78789721Y-79532515D01*
X78650340Y-79625647D01*
X78495468Y-79689797D01*
X78331056Y-79722500D01*
X78163424Y-79722500D01*
X77999012Y-79689797D01*
X77844140Y-79625647D01*
X77704759Y-79532515D01*
X77586225Y-79413981D01*
X77493093Y-79274600D01*
X77428943Y-79119728D01*
X77396240Y-78955316D01*
X77396240Y-78787684D01*
X77428943Y-78623272D01*
X77493093Y-78468400D01*
X77586225Y-78329019D01*
X77704759Y-78210485D01*
X77844140Y-78117353D01*
X77999012Y-78053203D01*
X78163424Y-78020500D01*
X78331056Y-78020500D01*
X78495468Y-78053203D01*
X78495468Y-78053203D01*
G37*
G36*
X70316042Y-76435818D02*
G01*
X70382227Y-76442337D01*
X70552066Y-76493857D01*
X70708591Y-76577522D01*
X70744329Y-76606852D01*
X70845786Y-76690114D01*
X70929048Y-76791571D01*
X70958378Y-76827309D01*
X71042043Y-76983834D01*
X71093563Y-77153673D01*
X71110959Y-77330300D01*
X71093563Y-77506927D01*
X71042043Y-77676766D01*
X70958378Y-77833291D01*
X70929048Y-77869029D01*
X70845786Y-77970486D01*
X70744994Y-78053203D01*
X70708591Y-78083078D01*
X70552066Y-78166743D01*
X70382227Y-78218263D01*
X70316043Y-78224781D01*
X70249860Y-78231300D01*
X70161340Y-78231300D01*
X70095157Y-78224781D01*
X70028973Y-78218263D01*
X69859134Y-78166743D01*
X69702609Y-78083078D01*
X69666206Y-78053203D01*
X69565414Y-77970486D01*
X69482152Y-77869029D01*
X69452822Y-77833291D01*
X69369157Y-77676766D01*
X69317637Y-77506927D01*
X69300241Y-77330300D01*
X69317637Y-77153673D01*
X69369157Y-76983834D01*
X69452822Y-76827309D01*
X69482152Y-76791571D01*
X69565414Y-76690114D01*
X69666871Y-76606852D01*
X69702609Y-76577522D01*
X69859134Y-76493857D01*
X70028973Y-76442337D01*
X70095158Y-76435818D01*
X70161340Y-76429300D01*
X70249860Y-76429300D01*
X70316042Y-76435818D01*
X70316042Y-76435818D01*
G37*
G36*
X67776042Y-76435818D02*
G01*
X67842227Y-76442337D01*
X68012066Y-76493857D01*
X68168591Y-76577522D01*
X68204329Y-76606852D01*
X68305786Y-76690114D01*
X68389048Y-76791571D01*
X68418378Y-76827309D01*
X68502043Y-76983834D01*
X68553563Y-77153673D01*
X68570959Y-77330300D01*
X68553563Y-77506927D01*
X68502043Y-77676766D01*
X68418378Y-77833291D01*
X68389048Y-77869029D01*
X68305786Y-77970486D01*
X68204994Y-78053203D01*
X68168591Y-78083078D01*
X68012066Y-78166743D01*
X67842227Y-78218263D01*
X67776043Y-78224781D01*
X67709860Y-78231300D01*
X67621340Y-78231300D01*
X67555157Y-78224781D01*
X67488973Y-78218263D01*
X67319134Y-78166743D01*
X67162609Y-78083078D01*
X67126206Y-78053203D01*
X67025414Y-77970486D01*
X66942152Y-77869029D01*
X66912822Y-77833291D01*
X66829157Y-77676766D01*
X66777637Y-77506927D01*
X66760241Y-77330300D01*
X66777637Y-77153673D01*
X66829157Y-76983834D01*
X66912822Y-76827309D01*
X66942152Y-76791571D01*
X67025414Y-76690114D01*
X67126871Y-76606852D01*
X67162609Y-76577522D01*
X67319134Y-76493857D01*
X67488973Y-76442337D01*
X67555158Y-76435818D01*
X67621340Y-76429300D01*
X67709860Y-76429300D01*
X67776042Y-76435818D01*
X67776042Y-76435818D01*
G37*
G36*
X78495468Y-75513203D02*
G01*
X78650340Y-75577353D01*
X78789721Y-75670485D01*
X78908255Y-75789019D01*
X79001387Y-75928400D01*
X79065537Y-76083272D01*
X79098240Y-76247684D01*
X79098240Y-76415316D01*
X79065537Y-76579728D01*
X79001387Y-76734600D01*
X78908255Y-76873981D01*
X78789721Y-76992515D01*
X78650340Y-77085647D01*
X78495468Y-77149797D01*
X78331056Y-77182500D01*
X78163424Y-77182500D01*
X77999012Y-77149797D01*
X77844140Y-77085647D01*
X77704759Y-76992515D01*
X77586225Y-76873981D01*
X77493093Y-76734600D01*
X77428943Y-76579728D01*
X77396240Y-76415316D01*
X77396240Y-76247684D01*
X77428943Y-76083272D01*
X77493093Y-75928400D01*
X77586225Y-75789019D01*
X77704759Y-75670485D01*
X77844140Y-75577353D01*
X77999012Y-75513203D01*
X78163424Y-75480500D01*
X78331056Y-75480500D01*
X78495468Y-75513203D01*
X78495468Y-75513203D01*
G37*
G36*
X70316043Y-73895819D02*
G01*
X70382227Y-73902337D01*
X70552066Y-73953857D01*
X70708591Y-74037522D01*
X70744329Y-74066852D01*
X70845786Y-74150114D01*
X70929048Y-74251571D01*
X70958378Y-74287309D01*
X71042043Y-74443834D01*
X71093563Y-74613673D01*
X71110959Y-74790300D01*
X71093563Y-74966927D01*
X71042043Y-75136766D01*
X70958378Y-75293291D01*
X70929048Y-75329029D01*
X70845786Y-75430486D01*
X70744994Y-75513203D01*
X70708591Y-75543078D01*
X70552066Y-75626743D01*
X70382227Y-75678263D01*
X70316043Y-75684781D01*
X70249860Y-75691300D01*
X70161340Y-75691300D01*
X70095157Y-75684781D01*
X70028973Y-75678263D01*
X69859134Y-75626743D01*
X69702609Y-75543078D01*
X69666206Y-75513203D01*
X69565414Y-75430486D01*
X69482152Y-75329029D01*
X69452822Y-75293291D01*
X69369157Y-75136766D01*
X69317637Y-74966927D01*
X69300241Y-74790300D01*
X69317637Y-74613673D01*
X69369157Y-74443834D01*
X69452822Y-74287309D01*
X69482152Y-74251571D01*
X69565414Y-74150114D01*
X69666871Y-74066852D01*
X69702609Y-74037522D01*
X69859134Y-73953857D01*
X70028973Y-73902337D01*
X70095157Y-73895819D01*
X70161340Y-73889300D01*
X70249860Y-73889300D01*
X70316043Y-73895819D01*
X70316043Y-73895819D01*
G37*
G36*
X68566600Y-75691300D02*
G01*
X66764600Y-75691300D01*
X66764600Y-73889300D01*
X68566600Y-73889300D01*
X68566600Y-75691300D01*
X68566600Y-75691300D01*
G37*
G36*
X78495468Y-72973203D02*
G01*
X78650340Y-73037353D01*
X78789721Y-73130485D01*
X78908255Y-73249019D01*
X79001387Y-73388400D01*
X79065537Y-73543272D01*
X79098240Y-73707684D01*
X79098240Y-73875316D01*
X79065537Y-74039728D01*
X79001387Y-74194600D01*
X78908255Y-74333981D01*
X78789721Y-74452515D01*
X78650340Y-74545647D01*
X78495468Y-74609797D01*
X78331056Y-74642500D01*
X78163424Y-74642500D01*
X77999012Y-74609797D01*
X77844140Y-74545647D01*
X77704759Y-74452515D01*
X77586225Y-74333981D01*
X77493093Y-74194600D01*
X77428943Y-74039728D01*
X77396240Y-73875316D01*
X77396240Y-73707684D01*
X77428943Y-73543272D01*
X77493093Y-73388400D01*
X77586225Y-73249019D01*
X77704759Y-73130485D01*
X77844140Y-73037353D01*
X77999012Y-72973203D01*
X78163424Y-72940500D01*
X78331056Y-72940500D01*
X78495468Y-72973203D01*
X78495468Y-72973203D01*
G37*
G36*
X78495468Y-70433203D02*
G01*
X78650340Y-70497353D01*
X78789721Y-70590485D01*
X78908255Y-70709019D01*
X79001387Y-70848400D01*
X79065537Y-71003272D01*
X79098240Y-71167684D01*
X79098240Y-71335316D01*
X79065537Y-71499728D01*
X79001387Y-71654600D01*
X78908255Y-71793981D01*
X78789721Y-71912515D01*
X78650340Y-72005647D01*
X78495468Y-72069797D01*
X78331056Y-72102500D01*
X78163424Y-72102500D01*
X77999012Y-72069797D01*
X77844140Y-72005647D01*
X77704759Y-71912515D01*
X77586225Y-71793981D01*
X77493093Y-71654600D01*
X77428943Y-71499728D01*
X77396240Y-71335316D01*
X77396240Y-71167684D01*
X77428943Y-71003272D01*
X77493093Y-70848400D01*
X77586225Y-70709019D01*
X77704759Y-70590485D01*
X77844140Y-70497353D01*
X77999012Y-70433203D01*
X78163424Y-70400500D01*
X78331056Y-70400500D01*
X78495468Y-70433203D01*
X78495468Y-70433203D01*
G37*
G36*
X78495468Y-67893203D02*
G01*
X78650340Y-67957353D01*
X78789721Y-68050485D01*
X78908255Y-68169019D01*
X79001387Y-68308400D01*
X79065537Y-68463272D01*
X79098240Y-68627684D01*
X79098240Y-68795316D01*
X79065537Y-68959728D01*
X79001387Y-69114600D01*
X78908255Y-69253981D01*
X78789721Y-69372515D01*
X78650340Y-69465647D01*
X78495468Y-69529797D01*
X78331056Y-69562500D01*
X78163424Y-69562500D01*
X77999012Y-69529797D01*
X77844140Y-69465647D01*
X77704759Y-69372515D01*
X77586225Y-69253981D01*
X77493093Y-69114600D01*
X77428943Y-68959728D01*
X77396240Y-68795316D01*
X77396240Y-68627684D01*
X77428943Y-68463272D01*
X77493093Y-68308400D01*
X77586225Y-68169019D01*
X77704759Y-68050485D01*
X77844140Y-67957353D01*
X77999012Y-67893203D01*
X78163424Y-67860500D01*
X78331056Y-67860500D01*
X78495468Y-67893203D01*
X78495468Y-67893203D01*
G37*
G36*
X71779708Y-67533103D02*
G01*
X71934580Y-67597253D01*
X72073961Y-67690385D01*
X72192495Y-67808919D01*
X72285627Y-67948300D01*
X72349777Y-68103172D01*
X72382480Y-68267584D01*
X72382480Y-68435216D01*
X72349777Y-68599628D01*
X72285627Y-68754500D01*
X72192495Y-68893881D01*
X72073961Y-69012415D01*
X71934580Y-69105547D01*
X71779708Y-69169697D01*
X71615296Y-69202400D01*
X71447664Y-69202400D01*
X71283252Y-69169697D01*
X71128380Y-69105547D01*
X70988999Y-69012415D01*
X70870465Y-68893881D01*
X70777333Y-68754500D01*
X70713183Y-68599628D01*
X70680480Y-68435216D01*
X70680480Y-68267584D01*
X70713183Y-68103172D01*
X70777333Y-67948300D01*
X70870465Y-67808919D01*
X70988999Y-67690385D01*
X71128380Y-67597253D01*
X71283252Y-67533103D01*
X71447664Y-67500400D01*
X71615296Y-67500400D01*
X71779708Y-67533103D01*
X71779708Y-67533103D01*
G37*
G36*
X66779708Y-67533103D02*
G01*
X66934580Y-67597253D01*
X67073961Y-67690385D01*
X67192495Y-67808919D01*
X67285627Y-67948300D01*
X67349777Y-68103172D01*
X67382480Y-68267584D01*
X67382480Y-68435216D01*
X67349777Y-68599628D01*
X67285627Y-68754500D01*
X67192495Y-68893881D01*
X67073961Y-69012415D01*
X66934580Y-69105547D01*
X66779708Y-69169697D01*
X66615296Y-69202400D01*
X66447664Y-69202400D01*
X66283252Y-69169697D01*
X66128380Y-69105547D01*
X65988999Y-69012415D01*
X65870465Y-68893881D01*
X65777333Y-68754500D01*
X65713183Y-68599628D01*
X65680480Y-68435216D01*
X65680480Y-68267584D01*
X65713183Y-68103172D01*
X65777333Y-67948300D01*
X65870465Y-67808919D01*
X65988999Y-67690385D01*
X66128380Y-67597253D01*
X66283252Y-67533103D01*
X66447664Y-67500400D01*
X66615296Y-67500400D01*
X66779708Y-67533103D01*
X66779708Y-67533103D01*
G37*
G36*
X135117023Y-66138573D02*
G01*
X135277442Y-66187236D01*
X135344561Y-66223112D01*
X135425278Y-66266256D01*
X135554859Y-66372601D01*
X135661204Y-66502182D01*
X135661205Y-66502184D01*
X135740224Y-66650018D01*
X135788887Y-66810437D01*
X135805317Y-66977260D01*
X135788887Y-67144083D01*
X135740224Y-67304502D01*
X135699677Y-67380360D01*
X135661204Y-67452338D01*
X135554859Y-67581919D01*
X135425278Y-67688264D01*
X135425276Y-67688265D01*
X135277442Y-67767284D01*
X135117023Y-67815947D01*
X134992004Y-67828260D01*
X134908396Y-67828260D01*
X134783377Y-67815947D01*
X134622958Y-67767284D01*
X134475124Y-67688265D01*
X134475122Y-67688264D01*
X134345541Y-67581919D01*
X134239196Y-67452338D01*
X134200723Y-67380360D01*
X134160176Y-67304502D01*
X134111513Y-67144083D01*
X134095083Y-66977260D01*
X134111513Y-66810437D01*
X134160176Y-66650018D01*
X134239195Y-66502184D01*
X134239196Y-66502182D01*
X134345541Y-66372601D01*
X134475122Y-66266256D01*
X134555839Y-66223112D01*
X134622958Y-66187236D01*
X134783377Y-66138573D01*
X134908396Y-66126260D01*
X134992004Y-66126260D01*
X135117023Y-66138573D01*
X135117023Y-66138573D01*
G37*
G36*
X125038428Y-66158963D02*
G01*
X125193300Y-66223113D01*
X125332681Y-66316245D01*
X125451215Y-66434779D01*
X125544347Y-66574160D01*
X125608497Y-66729032D01*
X125641200Y-66893444D01*
X125641200Y-67061076D01*
X125608497Y-67225488D01*
X125544347Y-67380360D01*
X125451215Y-67519741D01*
X125332681Y-67638275D01*
X125193300Y-67731407D01*
X125038428Y-67795557D01*
X124874016Y-67828260D01*
X124706384Y-67828260D01*
X124541972Y-67795557D01*
X124387100Y-67731407D01*
X124247719Y-67638275D01*
X124129185Y-67519741D01*
X124036053Y-67380360D01*
X123971903Y-67225488D01*
X123939200Y-67061076D01*
X123939200Y-66893444D01*
X123971903Y-66729032D01*
X124036053Y-66574160D01*
X124129185Y-66434779D01*
X124247719Y-66316245D01*
X124387100Y-66223113D01*
X124541972Y-66158963D01*
X124706384Y-66126260D01*
X124874016Y-66126260D01*
X125038428Y-66158963D01*
X125038428Y-66158963D01*
G37*
G36*
X96275468Y-65353203D02*
G01*
X96430340Y-65417353D01*
X96569721Y-65510485D01*
X96688255Y-65629019D01*
X96781387Y-65768400D01*
X96845537Y-65923272D01*
X96878240Y-66087684D01*
X96878240Y-66255316D01*
X96845537Y-66419728D01*
X96781387Y-66574600D01*
X96688255Y-66713981D01*
X96569721Y-66832515D01*
X96430340Y-66925647D01*
X96275468Y-66989797D01*
X96111056Y-67022500D01*
X95943424Y-67022500D01*
X95779012Y-66989797D01*
X95624140Y-66925647D01*
X95484759Y-66832515D01*
X95366225Y-66713981D01*
X95273093Y-66574600D01*
X95208943Y-66419728D01*
X95176240Y-66255316D01*
X95176240Y-66087684D01*
X95208943Y-65923272D01*
X95273093Y-65768400D01*
X95366225Y-65629019D01*
X95484759Y-65510485D01*
X95624140Y-65417353D01*
X95779012Y-65353203D01*
X95943424Y-65320500D01*
X96111056Y-65320500D01*
X96275468Y-65353203D01*
X96275468Y-65353203D01*
G37*
G36*
X106435468Y-65353203D02*
G01*
X106590340Y-65417353D01*
X106729721Y-65510485D01*
X106848255Y-65629019D01*
X106941387Y-65768400D01*
X107005537Y-65923272D01*
X107038240Y-66087684D01*
X107038240Y-66255316D01*
X107005537Y-66419728D01*
X106941387Y-66574600D01*
X106848255Y-66713981D01*
X106729721Y-66832515D01*
X106590340Y-66925647D01*
X106435468Y-66989797D01*
X106271056Y-67022500D01*
X106103424Y-67022500D01*
X105939012Y-66989797D01*
X105784140Y-66925647D01*
X105644759Y-66832515D01*
X105526225Y-66713981D01*
X105433093Y-66574600D01*
X105368943Y-66419728D01*
X105336240Y-66255316D01*
X105336240Y-66087684D01*
X105368943Y-65923272D01*
X105433093Y-65768400D01*
X105526225Y-65629019D01*
X105644759Y-65510485D01*
X105784140Y-65417353D01*
X105939012Y-65353203D01*
X106103424Y-65320500D01*
X106271056Y-65320500D01*
X106435468Y-65353203D01*
X106435468Y-65353203D01*
G37*
G36*
X103895468Y-65353203D02*
G01*
X104050340Y-65417353D01*
X104189721Y-65510485D01*
X104308255Y-65629019D01*
X104401387Y-65768400D01*
X104465537Y-65923272D01*
X104498240Y-66087684D01*
X104498240Y-66255316D01*
X104465537Y-66419728D01*
X104401387Y-66574600D01*
X104308255Y-66713981D01*
X104189721Y-66832515D01*
X104050340Y-66925647D01*
X103895468Y-66989797D01*
X103731056Y-67022500D01*
X103563424Y-67022500D01*
X103399012Y-66989797D01*
X103244140Y-66925647D01*
X103104759Y-66832515D01*
X102986225Y-66713981D01*
X102893093Y-66574600D01*
X102828943Y-66419728D01*
X102796240Y-66255316D01*
X102796240Y-66087684D01*
X102828943Y-65923272D01*
X102893093Y-65768400D01*
X102986225Y-65629019D01*
X103104759Y-65510485D01*
X103244140Y-65417353D01*
X103399012Y-65353203D01*
X103563424Y-65320500D01*
X103731056Y-65320500D01*
X103895468Y-65353203D01*
X103895468Y-65353203D01*
G37*
G36*
X101355468Y-65353203D02*
G01*
X101510340Y-65417353D01*
X101649721Y-65510485D01*
X101768255Y-65629019D01*
X101861387Y-65768400D01*
X101925537Y-65923272D01*
X101958240Y-66087684D01*
X101958240Y-66255316D01*
X101925537Y-66419728D01*
X101861387Y-66574600D01*
X101768255Y-66713981D01*
X101649721Y-66832515D01*
X101510340Y-66925647D01*
X101355468Y-66989797D01*
X101191056Y-67022500D01*
X101023424Y-67022500D01*
X100859012Y-66989797D01*
X100704140Y-66925647D01*
X100564759Y-66832515D01*
X100446225Y-66713981D01*
X100353093Y-66574600D01*
X100288943Y-66419728D01*
X100256240Y-66255316D01*
X100256240Y-66087684D01*
X100288943Y-65923272D01*
X100353093Y-65768400D01*
X100446225Y-65629019D01*
X100564759Y-65510485D01*
X100704140Y-65417353D01*
X100859012Y-65353203D01*
X101023424Y-65320500D01*
X101191056Y-65320500D01*
X101355468Y-65353203D01*
X101355468Y-65353203D01*
G37*
G36*
X98815468Y-65353203D02*
G01*
X98970340Y-65417353D01*
X99109721Y-65510485D01*
X99228255Y-65629019D01*
X99321387Y-65768400D01*
X99385537Y-65923272D01*
X99418240Y-66087684D01*
X99418240Y-66255316D01*
X99385537Y-66419728D01*
X99321387Y-66574600D01*
X99228255Y-66713981D01*
X99109721Y-66832515D01*
X98970340Y-66925647D01*
X98815468Y-66989797D01*
X98651056Y-67022500D01*
X98483424Y-67022500D01*
X98319012Y-66989797D01*
X98164140Y-66925647D01*
X98024759Y-66832515D01*
X97906225Y-66713981D01*
X97813093Y-66574600D01*
X97748943Y-66419728D01*
X97716240Y-66255316D01*
X97716240Y-66087684D01*
X97748943Y-65923272D01*
X97813093Y-65768400D01*
X97906225Y-65629019D01*
X98024759Y-65510485D01*
X98164140Y-65417353D01*
X98319012Y-65353203D01*
X98483424Y-65320500D01*
X98651056Y-65320500D01*
X98815468Y-65353203D01*
X98815468Y-65353203D01*
G37*
G36*
X93735468Y-65353203D02*
G01*
X93890340Y-65417353D01*
X94029721Y-65510485D01*
X94148255Y-65629019D01*
X94241387Y-65768400D01*
X94305537Y-65923272D01*
X94338240Y-66087684D01*
X94338240Y-66255316D01*
X94305537Y-66419728D01*
X94241387Y-66574600D01*
X94148255Y-66713981D01*
X94029721Y-66832515D01*
X93890340Y-66925647D01*
X93735468Y-66989797D01*
X93571056Y-67022500D01*
X93403424Y-67022500D01*
X93239012Y-66989797D01*
X93084140Y-66925647D01*
X92944759Y-66832515D01*
X92826225Y-66713981D01*
X92733093Y-66574600D01*
X92668943Y-66419728D01*
X92636240Y-66255316D01*
X92636240Y-66087684D01*
X92668943Y-65923272D01*
X92733093Y-65768400D01*
X92826225Y-65629019D01*
X92944759Y-65510485D01*
X93084140Y-65417353D01*
X93239012Y-65353203D01*
X93403424Y-65320500D01*
X93571056Y-65320500D01*
X93735468Y-65353203D01*
X93735468Y-65353203D01*
G37*
G36*
X91195468Y-65353203D02*
G01*
X91350340Y-65417353D01*
X91489721Y-65510485D01*
X91608255Y-65629019D01*
X91701387Y-65768400D01*
X91765537Y-65923272D01*
X91798240Y-66087684D01*
X91798240Y-66255316D01*
X91765537Y-66419728D01*
X91701387Y-66574600D01*
X91608255Y-66713981D01*
X91489721Y-66832515D01*
X91350340Y-66925647D01*
X91195468Y-66989797D01*
X91031056Y-67022500D01*
X90863424Y-67022500D01*
X90699012Y-66989797D01*
X90544140Y-66925647D01*
X90404759Y-66832515D01*
X90286225Y-66713981D01*
X90193093Y-66574600D01*
X90128943Y-66419728D01*
X90096240Y-66255316D01*
X90096240Y-66087684D01*
X90128943Y-65923272D01*
X90193093Y-65768400D01*
X90286225Y-65629019D01*
X90404759Y-65510485D01*
X90544140Y-65417353D01*
X90699012Y-65353203D01*
X90863424Y-65320500D01*
X91031056Y-65320500D01*
X91195468Y-65353203D01*
X91195468Y-65353203D01*
G37*
G36*
X108975468Y-65353203D02*
G01*
X109130340Y-65417353D01*
X109269721Y-65510485D01*
X109388255Y-65629019D01*
X109481387Y-65768400D01*
X109545537Y-65923272D01*
X109578240Y-66087684D01*
X109578240Y-66255316D01*
X109545537Y-66419728D01*
X109481387Y-66574600D01*
X109388255Y-66713981D01*
X109269721Y-66832515D01*
X109130340Y-66925647D01*
X108975468Y-66989797D01*
X108811056Y-67022500D01*
X108643424Y-67022500D01*
X108479012Y-66989797D01*
X108324140Y-66925647D01*
X108184759Y-66832515D01*
X108066225Y-66713981D01*
X107973093Y-66574600D01*
X107908943Y-66419728D01*
X107876240Y-66255316D01*
X107876240Y-66087684D01*
X107908943Y-65923272D01*
X107973093Y-65768400D01*
X108066225Y-65629019D01*
X108184759Y-65510485D01*
X108324140Y-65417353D01*
X108479012Y-65353203D01*
X108643424Y-65320500D01*
X108811056Y-65320500D01*
X108975468Y-65353203D01*
X108975468Y-65353203D01*
G37*
G36*
X86115468Y-65353203D02*
G01*
X86270340Y-65417353D01*
X86409721Y-65510485D01*
X86528255Y-65629019D01*
X86621387Y-65768400D01*
X86685537Y-65923272D01*
X86718240Y-66087684D01*
X86718240Y-66255316D01*
X86685537Y-66419728D01*
X86621387Y-66574600D01*
X86528255Y-66713981D01*
X86409721Y-66832515D01*
X86270340Y-66925647D01*
X86115468Y-66989797D01*
X85951056Y-67022500D01*
X85783424Y-67022500D01*
X85619012Y-66989797D01*
X85464140Y-66925647D01*
X85324759Y-66832515D01*
X85206225Y-66713981D01*
X85113093Y-66574600D01*
X85048943Y-66419728D01*
X85016240Y-66255316D01*
X85016240Y-66087684D01*
X85048943Y-65923272D01*
X85113093Y-65768400D01*
X85206225Y-65629019D01*
X85324759Y-65510485D01*
X85464140Y-65417353D01*
X85619012Y-65353203D01*
X85783424Y-65320500D01*
X85951056Y-65320500D01*
X86115468Y-65353203D01*
X86115468Y-65353203D01*
G37*
G36*
X83575468Y-65353203D02*
G01*
X83730340Y-65417353D01*
X83869721Y-65510485D01*
X83988255Y-65629019D01*
X84081387Y-65768400D01*
X84145537Y-65923272D01*
X84178240Y-66087684D01*
X84178240Y-66255316D01*
X84145537Y-66419728D01*
X84081387Y-66574600D01*
X83988255Y-66713981D01*
X83869721Y-66832515D01*
X83730340Y-66925647D01*
X83575468Y-66989797D01*
X83411056Y-67022500D01*
X83243424Y-67022500D01*
X83079012Y-66989797D01*
X82924140Y-66925647D01*
X82784759Y-66832515D01*
X82666225Y-66713981D01*
X82573093Y-66574600D01*
X82508943Y-66419728D01*
X82476240Y-66255316D01*
X82476240Y-66087684D01*
X82508943Y-65923272D01*
X82573093Y-65768400D01*
X82666225Y-65629019D01*
X82784759Y-65510485D01*
X82924140Y-65417353D01*
X83079012Y-65353203D01*
X83243424Y-65320500D01*
X83411056Y-65320500D01*
X83575468Y-65353203D01*
X83575468Y-65353203D01*
G37*
G36*
X81035468Y-65353203D02*
G01*
X81190340Y-65417353D01*
X81329721Y-65510485D01*
X81448255Y-65629019D01*
X81541387Y-65768400D01*
X81605537Y-65923272D01*
X81638240Y-66087684D01*
X81638240Y-66255316D01*
X81605537Y-66419728D01*
X81541387Y-66574600D01*
X81448255Y-66713981D01*
X81329721Y-66832515D01*
X81190340Y-66925647D01*
X81035468Y-66989797D01*
X80871056Y-67022500D01*
X80703424Y-67022500D01*
X80539012Y-66989797D01*
X80384140Y-66925647D01*
X80244759Y-66832515D01*
X80126225Y-66713981D01*
X80033093Y-66574600D01*
X79968943Y-66419728D01*
X79936240Y-66255316D01*
X79936240Y-66087684D01*
X79968943Y-65923272D01*
X80033093Y-65768400D01*
X80126225Y-65629019D01*
X80244759Y-65510485D01*
X80384140Y-65417353D01*
X80539012Y-65353203D01*
X80703424Y-65320500D01*
X80871056Y-65320500D01*
X81035468Y-65353203D01*
X81035468Y-65353203D01*
G37*
G36*
X112118240Y-67022500D02*
G01*
X110416240Y-67022500D01*
X110416240Y-65320500D01*
X112118240Y-65320500D01*
X112118240Y-67022500D01*
X112118240Y-67022500D01*
G37*
G36*
X78495468Y-65353203D02*
G01*
X78650340Y-65417353D01*
X78789721Y-65510485D01*
X78908255Y-65629019D01*
X79001387Y-65768400D01*
X79065537Y-65923272D01*
X79098240Y-66087684D01*
X79098240Y-66255316D01*
X79065537Y-66419728D01*
X79001387Y-66574600D01*
X78908255Y-66713981D01*
X78789721Y-66832515D01*
X78650340Y-66925647D01*
X78495468Y-66989797D01*
X78331056Y-67022500D01*
X78163424Y-67022500D01*
X77999012Y-66989797D01*
X77844140Y-66925647D01*
X77704759Y-66832515D01*
X77586225Y-66713981D01*
X77493093Y-66574600D01*
X77428943Y-66419728D01*
X77396240Y-66255316D01*
X77396240Y-66087684D01*
X77428943Y-65923272D01*
X77493093Y-65768400D01*
X77586225Y-65629019D01*
X77704759Y-65510485D01*
X77844140Y-65417353D01*
X77999012Y-65353203D01*
X78163424Y-65320500D01*
X78331056Y-65320500D01*
X78495468Y-65353203D01*
X78495468Y-65353203D01*
G37*
G36*
X88655468Y-65353203D02*
G01*
X88810340Y-65417353D01*
X88949721Y-65510485D01*
X89068255Y-65629019D01*
X89161387Y-65768400D01*
X89225537Y-65923272D01*
X89258240Y-66087684D01*
X89258240Y-66255316D01*
X89225537Y-66419728D01*
X89161387Y-66574600D01*
X89068255Y-66713981D01*
X88949721Y-66832515D01*
X88810340Y-66925647D01*
X88655468Y-66989797D01*
X88491056Y-67022500D01*
X88323424Y-67022500D01*
X88159012Y-66989797D01*
X88004140Y-66925647D01*
X87864759Y-66832515D01*
X87746225Y-66713981D01*
X87653093Y-66574600D01*
X87588943Y-66419728D01*
X87556240Y-66255316D01*
X87556240Y-66087684D01*
X87588943Y-65923272D01*
X87653093Y-65768400D01*
X87746225Y-65629019D01*
X87864759Y-65510485D01*
X88004140Y-65417353D01*
X88159012Y-65353203D01*
X88323424Y-65320500D01*
X88491056Y-65320500D01*
X88655468Y-65353203D01*
X88655468Y-65353203D01*
G37*
G36*
X130053668Y-61658083D02*
G01*
X130208540Y-61722233D01*
X130347921Y-61815365D01*
X130466455Y-61933899D01*
X130559587Y-62073280D01*
X130623737Y-62228152D01*
X130656440Y-62392564D01*
X130656440Y-62560196D01*
X130623737Y-62724608D01*
X130559587Y-62879480D01*
X130466455Y-63018861D01*
X130347921Y-63137395D01*
X130208540Y-63230527D01*
X130053668Y-63294677D01*
X129889256Y-63327380D01*
X129721624Y-63327380D01*
X129557212Y-63294677D01*
X129402340Y-63230527D01*
X129262959Y-63137395D01*
X129144425Y-63018861D01*
X129051293Y-62879480D01*
X128987143Y-62724608D01*
X128954440Y-62560196D01*
X128954440Y-62392564D01*
X128987143Y-62228152D01*
X129051293Y-62073280D01*
X129144425Y-61933899D01*
X129262959Y-61815365D01*
X129402340Y-61722233D01*
X129557212Y-61658083D01*
X129721624Y-61625380D01*
X129889256Y-61625380D01*
X130053668Y-61658083D01*
X130053668Y-61658083D01*
G37*
G36*
X125053668Y-61658083D02*
G01*
X125208540Y-61722233D01*
X125347921Y-61815365D01*
X125466455Y-61933899D01*
X125559587Y-62073280D01*
X125623737Y-62228152D01*
X125656440Y-62392564D01*
X125656440Y-62560196D01*
X125623737Y-62724608D01*
X125559587Y-62879480D01*
X125466455Y-63018861D01*
X125347921Y-63137395D01*
X125208540Y-63230527D01*
X125053668Y-63294677D01*
X124889256Y-63327380D01*
X124721624Y-63327380D01*
X124557212Y-63294677D01*
X124402340Y-63230527D01*
X124262959Y-63137395D01*
X124144425Y-63018861D01*
X124051293Y-62879480D01*
X123987143Y-62724608D01*
X123954440Y-62560196D01*
X123954440Y-62392564D01*
X123987143Y-62228152D01*
X124051293Y-62073280D01*
X124144425Y-61933899D01*
X124262959Y-61815365D01*
X124402340Y-61722233D01*
X124557212Y-61658083D01*
X124721624Y-61625380D01*
X124889256Y-61625380D01*
X125053668Y-61658083D01*
X125053668Y-61658083D01*
G37*
G36*
X149221672Y-61407587D02*
G01*
X149370972Y-61437284D01*
X149534944Y-61505204D01*
X149682514Y-61603807D01*
X149808013Y-61729306D01*
X149906616Y-61876876D01*
X149974536Y-62040848D01*
X150004233Y-62190148D01*
X150009160Y-62214918D01*
X150009160Y-62392402D01*
X150004233Y-62417172D01*
X149974536Y-62566472D01*
X149906616Y-62730444D01*
X149808013Y-62878014D01*
X149682514Y-63003513D01*
X149534944Y-63102116D01*
X149370972Y-63170036D01*
X149221672Y-63199733D01*
X149196902Y-63204660D01*
X149019418Y-63204660D01*
X148994648Y-63199733D01*
X148845348Y-63170036D01*
X148681376Y-63102116D01*
X148533806Y-63003513D01*
X148408307Y-62878014D01*
X148309704Y-62730444D01*
X148241784Y-62566472D01*
X148212087Y-62417172D01*
X148207160Y-62392402D01*
X148207160Y-62214918D01*
X148212087Y-62190148D01*
X148241784Y-62040848D01*
X148309704Y-61876876D01*
X148408307Y-61729306D01*
X148533806Y-61603807D01*
X148681376Y-61505204D01*
X148845348Y-61437284D01*
X148994648Y-61407587D01*
X149019418Y-61402660D01*
X149196902Y-61402660D01*
X149221672Y-61407587D01*
X149221672Y-61407587D01*
G37*
G36*
X184781672Y-61407587D02*
G01*
X184930972Y-61437284D01*
X185094944Y-61505204D01*
X185242514Y-61603807D01*
X185368013Y-61729306D01*
X185466616Y-61876876D01*
X185534536Y-62040848D01*
X185564233Y-62190148D01*
X185569160Y-62214918D01*
X185569160Y-62392402D01*
X185564233Y-62417172D01*
X185534536Y-62566472D01*
X185466616Y-62730444D01*
X185368013Y-62878014D01*
X185242514Y-63003513D01*
X185094944Y-63102116D01*
X184930972Y-63170036D01*
X184781672Y-63199733D01*
X184756902Y-63204660D01*
X184579418Y-63204660D01*
X184554648Y-63199733D01*
X184405348Y-63170036D01*
X184241376Y-63102116D01*
X184093806Y-63003513D01*
X183968307Y-62878014D01*
X183869704Y-62730444D01*
X183801784Y-62566472D01*
X183772087Y-62417172D01*
X183767160Y-62392402D01*
X183767160Y-62214918D01*
X183772087Y-62190148D01*
X183801784Y-62040848D01*
X183869704Y-61876876D01*
X183968307Y-61729306D01*
X184093806Y-61603807D01*
X184241376Y-61505204D01*
X184405348Y-61437284D01*
X184554648Y-61407587D01*
X184579418Y-61402660D01*
X184756902Y-61402660D01*
X184781672Y-61407587D01*
X184781672Y-61407587D01*
G37*
G36*
X182241672Y-61407587D02*
G01*
X182390972Y-61437284D01*
X182554944Y-61505204D01*
X182702514Y-61603807D01*
X182828013Y-61729306D01*
X182926616Y-61876876D01*
X182994536Y-62040848D01*
X183024233Y-62190148D01*
X183029160Y-62214918D01*
X183029160Y-62392402D01*
X183024233Y-62417172D01*
X182994536Y-62566472D01*
X182926616Y-62730444D01*
X182828013Y-62878014D01*
X182702514Y-63003513D01*
X182554944Y-63102116D01*
X182390972Y-63170036D01*
X182241672Y-63199733D01*
X182216902Y-63204660D01*
X182039418Y-63204660D01*
X182014648Y-63199733D01*
X181865348Y-63170036D01*
X181701376Y-63102116D01*
X181553806Y-63003513D01*
X181428307Y-62878014D01*
X181329704Y-62730444D01*
X181261784Y-62566472D01*
X181232087Y-62417172D01*
X181227160Y-62392402D01*
X181227160Y-62214918D01*
X181232087Y-62190148D01*
X181261784Y-62040848D01*
X181329704Y-61876876D01*
X181428307Y-61729306D01*
X181553806Y-61603807D01*
X181701376Y-61505204D01*
X181865348Y-61437284D01*
X182014648Y-61407587D01*
X182039418Y-61402660D01*
X182216902Y-61402660D01*
X182241672Y-61407587D01*
X182241672Y-61407587D01*
G37*
G36*
X179701672Y-61407587D02*
G01*
X179850972Y-61437284D01*
X180014944Y-61505204D01*
X180162514Y-61603807D01*
X180288013Y-61729306D01*
X180386616Y-61876876D01*
X180454536Y-62040848D01*
X180484233Y-62190148D01*
X180489160Y-62214918D01*
X180489160Y-62392402D01*
X180484233Y-62417172D01*
X180454536Y-62566472D01*
X180386616Y-62730444D01*
X180288013Y-62878014D01*
X180162514Y-63003513D01*
X180014944Y-63102116D01*
X179850972Y-63170036D01*
X179701672Y-63199733D01*
X179676902Y-63204660D01*
X179499418Y-63204660D01*
X179474648Y-63199733D01*
X179325348Y-63170036D01*
X179161376Y-63102116D01*
X179013806Y-63003513D01*
X178888307Y-62878014D01*
X178789704Y-62730444D01*
X178721784Y-62566472D01*
X178692087Y-62417172D01*
X178687160Y-62392402D01*
X178687160Y-62214918D01*
X178692087Y-62190148D01*
X178721784Y-62040848D01*
X178789704Y-61876876D01*
X178888307Y-61729306D01*
X179013806Y-61603807D01*
X179161376Y-61505204D01*
X179325348Y-61437284D01*
X179474648Y-61407587D01*
X179499418Y-61402660D01*
X179676902Y-61402660D01*
X179701672Y-61407587D01*
X179701672Y-61407587D01*
G37*
G36*
X177161672Y-61407587D02*
G01*
X177310972Y-61437284D01*
X177474944Y-61505204D01*
X177622514Y-61603807D01*
X177748013Y-61729306D01*
X177846616Y-61876876D01*
X177914536Y-62040848D01*
X177944233Y-62190148D01*
X177949160Y-62214918D01*
X177949160Y-62392402D01*
X177944233Y-62417172D01*
X177914536Y-62566472D01*
X177846616Y-62730444D01*
X177748013Y-62878014D01*
X177622514Y-63003513D01*
X177474944Y-63102116D01*
X177310972Y-63170036D01*
X177161672Y-63199733D01*
X177136902Y-63204660D01*
X176959418Y-63204660D01*
X176934648Y-63199733D01*
X176785348Y-63170036D01*
X176621376Y-63102116D01*
X176473806Y-63003513D01*
X176348307Y-62878014D01*
X176249704Y-62730444D01*
X176181784Y-62566472D01*
X176152087Y-62417172D01*
X176147160Y-62392402D01*
X176147160Y-62214918D01*
X176152087Y-62190148D01*
X176181784Y-62040848D01*
X176249704Y-61876876D01*
X176348307Y-61729306D01*
X176473806Y-61603807D01*
X176621376Y-61505204D01*
X176785348Y-61437284D01*
X176934648Y-61407587D01*
X176959418Y-61402660D01*
X177136902Y-61402660D01*
X177161672Y-61407587D01*
X177161672Y-61407587D01*
G37*
G36*
X172081672Y-61407587D02*
G01*
X172230972Y-61437284D01*
X172394944Y-61505204D01*
X172542514Y-61603807D01*
X172668013Y-61729306D01*
X172766616Y-61876876D01*
X172834536Y-62040848D01*
X172864233Y-62190148D01*
X172869160Y-62214918D01*
X172869160Y-62392402D01*
X172864233Y-62417172D01*
X172834536Y-62566472D01*
X172766616Y-62730444D01*
X172668013Y-62878014D01*
X172542514Y-63003513D01*
X172394944Y-63102116D01*
X172230972Y-63170036D01*
X172081672Y-63199733D01*
X172056902Y-63204660D01*
X171879418Y-63204660D01*
X171854648Y-63199733D01*
X171705348Y-63170036D01*
X171541376Y-63102116D01*
X171393806Y-63003513D01*
X171268307Y-62878014D01*
X171169704Y-62730444D01*
X171101784Y-62566472D01*
X171072087Y-62417172D01*
X171067160Y-62392402D01*
X171067160Y-62214918D01*
X171072087Y-62190148D01*
X171101784Y-62040848D01*
X171169704Y-61876876D01*
X171268307Y-61729306D01*
X171393806Y-61603807D01*
X171541376Y-61505204D01*
X171705348Y-61437284D01*
X171854648Y-61407587D01*
X171879418Y-61402660D01*
X172056902Y-61402660D01*
X172081672Y-61407587D01*
X172081672Y-61407587D01*
G37*
G36*
X151761672Y-61407587D02*
G01*
X151910972Y-61437284D01*
X152074944Y-61505204D01*
X152222514Y-61603807D01*
X152348013Y-61729306D01*
X152446616Y-61876876D01*
X152514536Y-62040848D01*
X152544233Y-62190148D01*
X152549160Y-62214918D01*
X152549160Y-62392402D01*
X152544233Y-62417172D01*
X152514536Y-62566472D01*
X152446616Y-62730444D01*
X152348013Y-62878014D01*
X152222514Y-63003513D01*
X152074944Y-63102116D01*
X151910972Y-63170036D01*
X151761672Y-63199733D01*
X151736902Y-63204660D01*
X151559418Y-63204660D01*
X151534648Y-63199733D01*
X151385348Y-63170036D01*
X151221376Y-63102116D01*
X151073806Y-63003513D01*
X150948307Y-62878014D01*
X150849704Y-62730444D01*
X150781784Y-62566472D01*
X150752087Y-62417172D01*
X150747160Y-62392402D01*
X150747160Y-62214918D01*
X150752087Y-62190148D01*
X150781784Y-62040848D01*
X150849704Y-61876876D01*
X150948307Y-61729306D01*
X151073806Y-61603807D01*
X151221376Y-61505204D01*
X151385348Y-61437284D01*
X151534648Y-61407587D01*
X151559418Y-61402660D01*
X151736902Y-61402660D01*
X151761672Y-61407587D01*
X151761672Y-61407587D01*
G37*
G36*
X156841672Y-61407587D02*
G01*
X156990972Y-61437284D01*
X157154944Y-61505204D01*
X157302514Y-61603807D01*
X157428013Y-61729306D01*
X157526616Y-61876876D01*
X157594536Y-62040848D01*
X157624233Y-62190148D01*
X157629160Y-62214918D01*
X157629160Y-62392402D01*
X157624233Y-62417172D01*
X157594536Y-62566472D01*
X157526616Y-62730444D01*
X157428013Y-62878014D01*
X157302514Y-63003513D01*
X157154944Y-63102116D01*
X156990972Y-63170036D01*
X156841672Y-63199733D01*
X156816902Y-63204660D01*
X156639418Y-63204660D01*
X156614648Y-63199733D01*
X156465348Y-63170036D01*
X156301376Y-63102116D01*
X156153806Y-63003513D01*
X156028307Y-62878014D01*
X155929704Y-62730444D01*
X155861784Y-62566472D01*
X155832087Y-62417172D01*
X155827160Y-62392402D01*
X155827160Y-62214918D01*
X155832087Y-62190148D01*
X155861784Y-62040848D01*
X155929704Y-61876876D01*
X156028307Y-61729306D01*
X156153806Y-61603807D01*
X156301376Y-61505204D01*
X156465348Y-61437284D01*
X156614648Y-61407587D01*
X156639418Y-61402660D01*
X156816902Y-61402660D01*
X156841672Y-61407587D01*
X156841672Y-61407587D01*
G37*
G36*
X161921672Y-61407587D02*
G01*
X162070972Y-61437284D01*
X162234944Y-61505204D01*
X162382514Y-61603807D01*
X162508013Y-61729306D01*
X162606616Y-61876876D01*
X162674536Y-62040848D01*
X162704233Y-62190148D01*
X162709160Y-62214918D01*
X162709160Y-62392402D01*
X162704233Y-62417172D01*
X162674536Y-62566472D01*
X162606616Y-62730444D01*
X162508013Y-62878014D01*
X162382514Y-63003513D01*
X162234944Y-63102116D01*
X162070972Y-63170036D01*
X161921672Y-63199733D01*
X161896902Y-63204660D01*
X161719418Y-63204660D01*
X161694648Y-63199733D01*
X161545348Y-63170036D01*
X161381376Y-63102116D01*
X161233806Y-63003513D01*
X161108307Y-62878014D01*
X161009704Y-62730444D01*
X160941784Y-62566472D01*
X160912087Y-62417172D01*
X160907160Y-62392402D01*
X160907160Y-62214918D01*
X160912087Y-62190148D01*
X160941784Y-62040848D01*
X161009704Y-61876876D01*
X161108307Y-61729306D01*
X161233806Y-61603807D01*
X161381376Y-61505204D01*
X161545348Y-61437284D01*
X161694648Y-61407587D01*
X161719418Y-61402660D01*
X161896902Y-61402660D01*
X161921672Y-61407587D01*
X161921672Y-61407587D01*
G37*
G36*
X164461672Y-61407587D02*
G01*
X164610972Y-61437284D01*
X164774944Y-61505204D01*
X164922514Y-61603807D01*
X165048013Y-61729306D01*
X165146616Y-61876876D01*
X165214536Y-62040848D01*
X165244233Y-62190148D01*
X165249160Y-62214918D01*
X165249160Y-62392402D01*
X165244233Y-62417172D01*
X165214536Y-62566472D01*
X165146616Y-62730444D01*
X165048013Y-62878014D01*
X164922514Y-63003513D01*
X164774944Y-63102116D01*
X164610972Y-63170036D01*
X164461672Y-63199733D01*
X164436902Y-63204660D01*
X164259418Y-63204660D01*
X164234648Y-63199733D01*
X164085348Y-63170036D01*
X163921376Y-63102116D01*
X163773806Y-63003513D01*
X163648307Y-62878014D01*
X163549704Y-62730444D01*
X163481784Y-62566472D01*
X163452087Y-62417172D01*
X163447160Y-62392402D01*
X163447160Y-62214918D01*
X163452087Y-62190148D01*
X163481784Y-62040848D01*
X163549704Y-61876876D01*
X163648307Y-61729306D01*
X163773806Y-61603807D01*
X163921376Y-61505204D01*
X164085348Y-61437284D01*
X164234648Y-61407587D01*
X164259418Y-61402660D01*
X164436902Y-61402660D01*
X164461672Y-61407587D01*
X164461672Y-61407587D01*
G37*
G36*
X167001672Y-61407587D02*
G01*
X167150972Y-61437284D01*
X167314944Y-61505204D01*
X167462514Y-61603807D01*
X167588013Y-61729306D01*
X167686616Y-61876876D01*
X167754536Y-62040848D01*
X167784233Y-62190148D01*
X167789160Y-62214918D01*
X167789160Y-62392402D01*
X167784233Y-62417172D01*
X167754536Y-62566472D01*
X167686616Y-62730444D01*
X167588013Y-62878014D01*
X167462514Y-63003513D01*
X167314944Y-63102116D01*
X167150972Y-63170036D01*
X167001672Y-63199733D01*
X166976902Y-63204660D01*
X166799418Y-63204660D01*
X166774648Y-63199733D01*
X166625348Y-63170036D01*
X166461376Y-63102116D01*
X166313806Y-63003513D01*
X166188307Y-62878014D01*
X166089704Y-62730444D01*
X166021784Y-62566472D01*
X165992087Y-62417172D01*
X165987160Y-62392402D01*
X165987160Y-62214918D01*
X165992087Y-62190148D01*
X166021784Y-62040848D01*
X166089704Y-61876876D01*
X166188307Y-61729306D01*
X166313806Y-61603807D01*
X166461376Y-61505204D01*
X166625348Y-61437284D01*
X166774648Y-61407587D01*
X166799418Y-61402660D01*
X166976902Y-61402660D01*
X167001672Y-61407587D01*
X167001672Y-61407587D01*
G37*
G36*
X169541672Y-61407587D02*
G01*
X169690972Y-61437284D01*
X169854944Y-61505204D01*
X170002514Y-61603807D01*
X170128013Y-61729306D01*
X170226616Y-61876876D01*
X170294536Y-62040848D01*
X170324233Y-62190148D01*
X170329160Y-62214918D01*
X170329160Y-62392402D01*
X170324233Y-62417172D01*
X170294536Y-62566472D01*
X170226616Y-62730444D01*
X170128013Y-62878014D01*
X170002514Y-63003513D01*
X169854944Y-63102116D01*
X169690972Y-63170036D01*
X169541672Y-63199733D01*
X169516902Y-63204660D01*
X169339418Y-63204660D01*
X169314648Y-63199733D01*
X169165348Y-63170036D01*
X169001376Y-63102116D01*
X168853806Y-63003513D01*
X168728307Y-62878014D01*
X168629704Y-62730444D01*
X168561784Y-62566472D01*
X168532087Y-62417172D01*
X168527160Y-62392402D01*
X168527160Y-62214918D01*
X168532087Y-62190148D01*
X168561784Y-62040848D01*
X168629704Y-61876876D01*
X168728307Y-61729306D01*
X168853806Y-61603807D01*
X169001376Y-61505204D01*
X169165348Y-61437284D01*
X169314648Y-61407587D01*
X169339418Y-61402660D01*
X169516902Y-61402660D01*
X169541672Y-61407587D01*
X169541672Y-61407587D01*
G37*
G36*
X159381672Y-61407587D02*
G01*
X159530972Y-61437284D01*
X159694944Y-61505204D01*
X159842514Y-61603807D01*
X159968013Y-61729306D01*
X160066616Y-61876876D01*
X160134536Y-62040848D01*
X160164233Y-62190148D01*
X160169160Y-62214918D01*
X160169160Y-62392402D01*
X160164233Y-62417172D01*
X160134536Y-62566472D01*
X160066616Y-62730444D01*
X159968013Y-62878014D01*
X159842514Y-63003513D01*
X159694944Y-63102116D01*
X159530972Y-63170036D01*
X159381672Y-63199733D01*
X159356902Y-63204660D01*
X159179418Y-63204660D01*
X159154648Y-63199733D01*
X159005348Y-63170036D01*
X158841376Y-63102116D01*
X158693806Y-63003513D01*
X158568307Y-62878014D01*
X158469704Y-62730444D01*
X158401784Y-62566472D01*
X158372087Y-62417172D01*
X158367160Y-62392402D01*
X158367160Y-62214918D01*
X158372087Y-62190148D01*
X158401784Y-62040848D01*
X158469704Y-61876876D01*
X158568307Y-61729306D01*
X158693806Y-61603807D01*
X158841376Y-61505204D01*
X159005348Y-61437284D01*
X159154648Y-61407587D01*
X159179418Y-61402660D01*
X159356902Y-61402660D01*
X159381672Y-61407587D01*
X159381672Y-61407587D01*
G37*
G36*
X154301672Y-61407587D02*
G01*
X154450972Y-61437284D01*
X154614944Y-61505204D01*
X154762514Y-61603807D01*
X154888013Y-61729306D01*
X154986616Y-61876876D01*
X155054536Y-62040848D01*
X155084233Y-62190148D01*
X155089160Y-62214918D01*
X155089160Y-62392402D01*
X155084233Y-62417172D01*
X155054536Y-62566472D01*
X154986616Y-62730444D01*
X154888013Y-62878014D01*
X154762514Y-63003513D01*
X154614944Y-63102116D01*
X154450972Y-63170036D01*
X154301672Y-63199733D01*
X154276902Y-63204660D01*
X154099418Y-63204660D01*
X154074648Y-63199733D01*
X153925348Y-63170036D01*
X153761376Y-63102116D01*
X153613806Y-63003513D01*
X153488307Y-62878014D01*
X153389704Y-62730444D01*
X153321784Y-62566472D01*
X153292087Y-62417172D01*
X153287160Y-62392402D01*
X153287160Y-62214918D01*
X153292087Y-62190148D01*
X153321784Y-62040848D01*
X153389704Y-61876876D01*
X153488307Y-61729306D01*
X153613806Y-61603807D01*
X153761376Y-61505204D01*
X153925348Y-61437284D01*
X154074648Y-61407587D01*
X154099418Y-61402660D01*
X154276902Y-61402660D01*
X154301672Y-61407587D01*
X154301672Y-61407587D01*
G37*
G36*
X174621672Y-61407587D02*
G01*
X174770972Y-61437284D01*
X174934944Y-61505204D01*
X175082514Y-61603807D01*
X175208013Y-61729306D01*
X175306616Y-61876876D01*
X175374536Y-62040848D01*
X175404233Y-62190148D01*
X175409160Y-62214918D01*
X175409160Y-62392402D01*
X175404233Y-62417172D01*
X175374536Y-62566472D01*
X175306616Y-62730444D01*
X175208013Y-62878014D01*
X175082514Y-63003513D01*
X174934944Y-63102116D01*
X174770972Y-63170036D01*
X174621672Y-63199733D01*
X174596902Y-63204660D01*
X174419418Y-63204660D01*
X174394648Y-63199733D01*
X174245348Y-63170036D01*
X174081376Y-63102116D01*
X173933806Y-63003513D01*
X173808307Y-62878014D01*
X173709704Y-62730444D01*
X173641784Y-62566472D01*
X173612087Y-62417172D01*
X173607160Y-62392402D01*
X173607160Y-62214918D01*
X173612087Y-62190148D01*
X173641784Y-62040848D01*
X173709704Y-61876876D01*
X173808307Y-61729306D01*
X173933806Y-61603807D01*
X174081376Y-61505204D01*
X174245348Y-61437284D01*
X174394648Y-61407587D01*
X174419418Y-61402660D01*
X174596902Y-61402660D01*
X174621672Y-61407587D01*
X174621672Y-61407587D01*
G37*
G36*
X115894698Y-60098176D02*
G01*
X116007985Y-60132542D01*
X116112392Y-60188349D01*
X116203907Y-60263453D01*
X116279011Y-60354968D01*
X116334818Y-60459375D01*
X116369184Y-60572662D01*
X116377880Y-60660961D01*
X116377880Y-61319999D01*
X116369184Y-61408298D01*
X116334818Y-61521585D01*
X116279011Y-61625992D01*
X116279010Y-61625993D01*
X116203907Y-61717507D01*
X116128803Y-61779142D01*
X116112391Y-61792611D01*
X116007984Y-61848418D01*
X115894697Y-61882784D01*
X115776880Y-61894387D01*
X115659062Y-61882784D01*
X115545775Y-61848418D01*
X115441368Y-61792611D01*
X115388541Y-61749257D01*
X115349853Y-61717507D01*
X115274750Y-61625992D01*
X115274749Y-61625991D01*
X115218942Y-61521584D01*
X115184576Y-61408297D01*
X115175880Y-61319998D01*
X115175880Y-60660961D01*
X115184576Y-60572662D01*
X115218941Y-60459378D01*
X115274751Y-60354966D01*
X115349854Y-60263453D01*
X115441369Y-60188349D01*
X115545776Y-60132542D01*
X115659063Y-60098176D01*
X115776880Y-60086573D01*
X115894698Y-60098176D01*
X115894698Y-60098176D01*
G37*
G36*
X114394698Y-60098176D02*
G01*
X114507985Y-60132542D01*
X114612392Y-60188349D01*
X114703907Y-60263453D01*
X114779011Y-60354968D01*
X114834818Y-60459375D01*
X114869184Y-60572662D01*
X114877880Y-60660961D01*
X114877880Y-61319999D01*
X114869184Y-61408298D01*
X114834818Y-61521585D01*
X114779011Y-61625992D01*
X114779010Y-61625993D01*
X114703907Y-61717507D01*
X114628803Y-61779142D01*
X114612391Y-61792611D01*
X114507984Y-61848418D01*
X114394697Y-61882784D01*
X114276880Y-61894387D01*
X114159062Y-61882784D01*
X114045775Y-61848418D01*
X113941368Y-61792611D01*
X113888541Y-61749257D01*
X113849853Y-61717507D01*
X113774750Y-61625992D01*
X113774749Y-61625991D01*
X113718942Y-61521584D01*
X113684576Y-61408297D01*
X113675880Y-61319998D01*
X113675880Y-60660961D01*
X113684576Y-60572662D01*
X113718941Y-60459378D01*
X113774751Y-60354966D01*
X113849854Y-60263453D01*
X113941369Y-60188349D01*
X114045776Y-60132542D01*
X114159063Y-60098176D01*
X114276880Y-60086573D01*
X114394698Y-60098176D01*
X114394698Y-60098176D01*
G37*
G36*
X111394698Y-60098176D02*
G01*
X111507985Y-60132542D01*
X111612392Y-60188349D01*
X111703907Y-60263453D01*
X111779011Y-60354968D01*
X111834818Y-60459375D01*
X111869184Y-60572662D01*
X111877880Y-60660961D01*
X111877880Y-61319999D01*
X111869184Y-61408298D01*
X111834818Y-61521585D01*
X111779011Y-61625992D01*
X111779010Y-61625993D01*
X111703907Y-61717507D01*
X111628803Y-61779142D01*
X111612391Y-61792611D01*
X111507984Y-61848418D01*
X111394697Y-61882784D01*
X111276880Y-61894387D01*
X111159062Y-61882784D01*
X111045775Y-61848418D01*
X110941368Y-61792611D01*
X110888541Y-61749257D01*
X110849853Y-61717507D01*
X110774750Y-61625992D01*
X110774749Y-61625991D01*
X110718942Y-61521584D01*
X110684576Y-61408297D01*
X110675880Y-61319998D01*
X110675880Y-60660961D01*
X110684576Y-60572662D01*
X110718941Y-60459378D01*
X110774751Y-60354966D01*
X110849854Y-60263453D01*
X110941369Y-60188349D01*
X111045776Y-60132542D01*
X111159063Y-60098176D01*
X111276880Y-60086573D01*
X111394698Y-60098176D01*
X111394698Y-60098176D01*
G37*
G36*
X112894698Y-60098176D02*
G01*
X113007985Y-60132542D01*
X113112392Y-60188349D01*
X113203907Y-60263453D01*
X113279011Y-60354968D01*
X113334818Y-60459375D01*
X113369184Y-60572662D01*
X113377880Y-60660961D01*
X113377880Y-61319999D01*
X113369184Y-61408298D01*
X113334818Y-61521585D01*
X113279011Y-61625992D01*
X113279010Y-61625993D01*
X113203907Y-61717507D01*
X113128803Y-61779142D01*
X113112391Y-61792611D01*
X113007984Y-61848418D01*
X112894697Y-61882784D01*
X112776880Y-61894387D01*
X112659062Y-61882784D01*
X112545775Y-61848418D01*
X112441368Y-61792611D01*
X112388541Y-61749257D01*
X112349853Y-61717507D01*
X112274750Y-61625992D01*
X112274749Y-61625991D01*
X112218942Y-61521584D01*
X112184576Y-61408297D01*
X112175880Y-61319998D01*
X112175880Y-60660961D01*
X112184576Y-60572662D01*
X112218941Y-60459378D01*
X112274751Y-60354966D01*
X112349854Y-60263453D01*
X112441369Y-60188349D01*
X112545776Y-60132542D01*
X112659063Y-60098176D01*
X112776880Y-60086573D01*
X112894698Y-60098176D01*
X112894698Y-60098176D01*
G37*
G36*
X117806571Y-60091772D02*
G01*
X117823050Y-60096771D01*
X117838237Y-60104889D01*
X117851548Y-60115812D01*
X117862471Y-60129123D01*
X117870589Y-60144310D01*
X117875588Y-60160789D01*
X117877880Y-60184062D01*
X117877880Y-61796898D01*
X117875588Y-61820171D01*
X117870589Y-61836650D01*
X117862471Y-61851837D01*
X117851548Y-61865148D01*
X117838237Y-61876071D01*
X117823050Y-61884189D01*
X117806571Y-61889188D01*
X117783298Y-61891480D01*
X116770462Y-61891480D01*
X116747189Y-61889188D01*
X116730710Y-61884189D01*
X116715523Y-61876071D01*
X116702212Y-61865148D01*
X116691289Y-61851837D01*
X116683171Y-61836650D01*
X116678172Y-61820171D01*
X116675880Y-61796898D01*
X116675880Y-60184062D01*
X116678172Y-60160789D01*
X116683171Y-60144310D01*
X116691289Y-60129123D01*
X116702212Y-60115812D01*
X116715523Y-60104889D01*
X116730710Y-60096771D01*
X116747189Y-60091772D01*
X116770462Y-60089480D01*
X117783298Y-60089480D01*
X117806571Y-60091772D01*
X117806571Y-60091772D01*
G37*
G36*
X137199053Y-58434113D02*
G01*
X137289277Y-58452059D01*
X137394887Y-58495805D01*
X137544241Y-58557669D01*
X137620383Y-58608545D01*
X137773706Y-58710992D01*
X137968848Y-58906134D01*
X138021894Y-58985524D01*
X138122171Y-59135599D01*
X138152834Y-59209626D01*
X138213961Y-59357198D01*
X138227781Y-59390564D01*
X138267774Y-59591621D01*
X138281620Y-59661234D01*
X138281620Y-59937206D01*
X138235405Y-60169550D01*
X138227781Y-60207876D01*
X138122171Y-60462841D01*
X138071295Y-60538983D01*
X137968848Y-60692306D01*
X137773706Y-60887448D01*
X137620383Y-60989895D01*
X137544241Y-61040771D01*
X137394887Y-61102635D01*
X137289277Y-61146381D01*
X137199053Y-61164327D01*
X137018608Y-61200220D01*
X136742632Y-61200220D01*
X136562187Y-61164327D01*
X136471963Y-61146381D01*
X136366353Y-61102635D01*
X136216999Y-61040771D01*
X136140857Y-60989895D01*
X135987534Y-60887448D01*
X135792392Y-60692306D01*
X135689945Y-60538983D01*
X135639069Y-60462841D01*
X135533459Y-60207876D01*
X135525836Y-60169550D01*
X135479620Y-59937206D01*
X135479620Y-59661234D01*
X135493467Y-59591621D01*
X135533459Y-59390564D01*
X135547280Y-59357198D01*
X135608406Y-59209626D01*
X135639069Y-59135599D01*
X135739346Y-58985524D01*
X135792392Y-58906134D01*
X135987534Y-58710992D01*
X136140857Y-58608545D01*
X136216999Y-58557669D01*
X136366353Y-58495805D01*
X136471963Y-58452059D01*
X136562187Y-58434113D01*
X136742632Y-58398220D01*
X137018608Y-58398220D01*
X137199053Y-58434113D01*
X137199053Y-58434113D01*
G37*
G36*
X159417232Y-58887907D02*
G01*
X159566532Y-58917604D01*
X159730504Y-58985524D01*
X159878074Y-59084127D01*
X160003573Y-59209626D01*
X160102176Y-59357196D01*
X160170096Y-59521168D01*
X160204720Y-59695239D01*
X160204720Y-59872721D01*
X160170096Y-60046792D01*
X160102176Y-60210764D01*
X160003573Y-60358334D01*
X159878074Y-60483833D01*
X159730504Y-60582436D01*
X159566532Y-60650356D01*
X159417232Y-60680053D01*
X159392462Y-60684980D01*
X159214978Y-60684980D01*
X159190208Y-60680053D01*
X159040908Y-60650356D01*
X158876936Y-60582436D01*
X158729366Y-60483833D01*
X158603867Y-60358334D01*
X158505264Y-60210764D01*
X158437344Y-60046792D01*
X158402720Y-59872721D01*
X158402720Y-59695239D01*
X158437344Y-59521168D01*
X158505264Y-59357196D01*
X158603867Y-59209626D01*
X158729366Y-59084127D01*
X158876936Y-58985524D01*
X159040908Y-58917604D01*
X159190208Y-58887907D01*
X159214978Y-58882980D01*
X159392462Y-58882980D01*
X159417232Y-58887907D01*
X159417232Y-58887907D01*
G37*
G36*
X169577232Y-58887907D02*
G01*
X169726532Y-58917604D01*
X169890504Y-58985524D01*
X170038074Y-59084127D01*
X170163573Y-59209626D01*
X170262176Y-59357196D01*
X170330096Y-59521168D01*
X170364720Y-59695239D01*
X170364720Y-59872721D01*
X170330096Y-60046792D01*
X170262176Y-60210764D01*
X170163573Y-60358334D01*
X170038074Y-60483833D01*
X169890504Y-60582436D01*
X169726532Y-60650356D01*
X169577232Y-60680053D01*
X169552462Y-60684980D01*
X169374978Y-60684980D01*
X169350208Y-60680053D01*
X169200908Y-60650356D01*
X169036936Y-60582436D01*
X168889366Y-60483833D01*
X168763867Y-60358334D01*
X168665264Y-60210764D01*
X168597344Y-60046792D01*
X168562720Y-59872721D01*
X168562720Y-59695239D01*
X168597344Y-59521168D01*
X168665264Y-59357196D01*
X168763867Y-59209626D01*
X168889366Y-59084127D01*
X169036936Y-58985524D01*
X169200908Y-58917604D01*
X169350208Y-58887907D01*
X169374978Y-58882980D01*
X169552462Y-58882980D01*
X169577232Y-58887907D01*
X169577232Y-58887907D01*
G37*
G36*
X172117232Y-58887907D02*
G01*
X172266532Y-58917604D01*
X172430504Y-58985524D01*
X172578074Y-59084127D01*
X172703573Y-59209626D01*
X172802176Y-59357196D01*
X172870096Y-59521168D01*
X172904720Y-59695239D01*
X172904720Y-59872721D01*
X172870096Y-60046792D01*
X172802176Y-60210764D01*
X172703573Y-60358334D01*
X172578074Y-60483833D01*
X172430504Y-60582436D01*
X172266532Y-60650356D01*
X172117232Y-60680053D01*
X172092462Y-60684980D01*
X171914978Y-60684980D01*
X171890208Y-60680053D01*
X171740908Y-60650356D01*
X171576936Y-60582436D01*
X171429366Y-60483833D01*
X171303867Y-60358334D01*
X171205264Y-60210764D01*
X171137344Y-60046792D01*
X171102720Y-59872721D01*
X171102720Y-59695239D01*
X171137344Y-59521168D01*
X171205264Y-59357196D01*
X171303867Y-59209626D01*
X171429366Y-59084127D01*
X171576936Y-58985524D01*
X171740908Y-58917604D01*
X171890208Y-58887907D01*
X171914978Y-58882980D01*
X172092462Y-58882980D01*
X172117232Y-58887907D01*
X172117232Y-58887907D01*
G37*
G36*
X184817232Y-58887907D02*
G01*
X184966532Y-58917604D01*
X185130504Y-58985524D01*
X185278074Y-59084127D01*
X185403573Y-59209626D01*
X185502176Y-59357196D01*
X185570096Y-59521168D01*
X185604720Y-59695239D01*
X185604720Y-59872721D01*
X185570096Y-60046792D01*
X185502176Y-60210764D01*
X185403573Y-60358334D01*
X185278074Y-60483833D01*
X185130504Y-60582436D01*
X184966532Y-60650356D01*
X184817232Y-60680053D01*
X184792462Y-60684980D01*
X184614978Y-60684980D01*
X184590208Y-60680053D01*
X184440908Y-60650356D01*
X184276936Y-60582436D01*
X184129366Y-60483833D01*
X184003867Y-60358334D01*
X183905264Y-60210764D01*
X183837344Y-60046792D01*
X183802720Y-59872721D01*
X183802720Y-59695239D01*
X183837344Y-59521168D01*
X183905264Y-59357196D01*
X184003867Y-59209626D01*
X184129366Y-59084127D01*
X184276936Y-58985524D01*
X184440908Y-58917604D01*
X184590208Y-58887907D01*
X184614978Y-58882980D01*
X184792462Y-58882980D01*
X184817232Y-58887907D01*
X184817232Y-58887907D01*
G37*
G36*
X182277232Y-58887907D02*
G01*
X182426532Y-58917604D01*
X182590504Y-58985524D01*
X182738074Y-59084127D01*
X182863573Y-59209626D01*
X182962176Y-59357196D01*
X183030096Y-59521168D01*
X183064720Y-59695239D01*
X183064720Y-59872721D01*
X183030096Y-60046792D01*
X182962176Y-60210764D01*
X182863573Y-60358334D01*
X182738074Y-60483833D01*
X182590504Y-60582436D01*
X182426532Y-60650356D01*
X182277232Y-60680053D01*
X182252462Y-60684980D01*
X182074978Y-60684980D01*
X182050208Y-60680053D01*
X181900908Y-60650356D01*
X181736936Y-60582436D01*
X181589366Y-60483833D01*
X181463867Y-60358334D01*
X181365264Y-60210764D01*
X181297344Y-60046792D01*
X181262720Y-59872721D01*
X181262720Y-59695239D01*
X181297344Y-59521168D01*
X181365264Y-59357196D01*
X181463867Y-59209626D01*
X181589366Y-59084127D01*
X181736936Y-58985524D01*
X181900908Y-58917604D01*
X182050208Y-58887907D01*
X182074978Y-58882980D01*
X182252462Y-58882980D01*
X182277232Y-58887907D01*
X182277232Y-58887907D01*
G37*
G36*
X179737232Y-58887907D02*
G01*
X179886532Y-58917604D01*
X180050504Y-58985524D01*
X180198074Y-59084127D01*
X180323573Y-59209626D01*
X180422176Y-59357196D01*
X180490096Y-59521168D01*
X180524720Y-59695239D01*
X180524720Y-59872721D01*
X180490096Y-60046792D01*
X180422176Y-60210764D01*
X180323573Y-60358334D01*
X180198074Y-60483833D01*
X180050504Y-60582436D01*
X179886532Y-60650356D01*
X179737232Y-60680053D01*
X179712462Y-60684980D01*
X179534978Y-60684980D01*
X179510208Y-60680053D01*
X179360908Y-60650356D01*
X179196936Y-60582436D01*
X179049366Y-60483833D01*
X178923867Y-60358334D01*
X178825264Y-60210764D01*
X178757344Y-60046792D01*
X178722720Y-59872721D01*
X178722720Y-59695239D01*
X178757344Y-59521168D01*
X178825264Y-59357196D01*
X178923867Y-59209626D01*
X179049366Y-59084127D01*
X179196936Y-58985524D01*
X179360908Y-58917604D01*
X179510208Y-58887907D01*
X179534978Y-58882980D01*
X179712462Y-58882980D01*
X179737232Y-58887907D01*
X179737232Y-58887907D01*
G37*
G36*
X177197232Y-58887907D02*
G01*
X177346532Y-58917604D01*
X177510504Y-58985524D01*
X177658074Y-59084127D01*
X177783573Y-59209626D01*
X177882176Y-59357196D01*
X177950096Y-59521168D01*
X177984720Y-59695239D01*
X177984720Y-59872721D01*
X177950096Y-60046792D01*
X177882176Y-60210764D01*
X177783573Y-60358334D01*
X177658074Y-60483833D01*
X177510504Y-60582436D01*
X177346532Y-60650356D01*
X177197232Y-60680053D01*
X177172462Y-60684980D01*
X176994978Y-60684980D01*
X176970208Y-60680053D01*
X176820908Y-60650356D01*
X176656936Y-60582436D01*
X176509366Y-60483833D01*
X176383867Y-60358334D01*
X176285264Y-60210764D01*
X176217344Y-60046792D01*
X176182720Y-59872721D01*
X176182720Y-59695239D01*
X176217344Y-59521168D01*
X176285264Y-59357196D01*
X176383867Y-59209626D01*
X176509366Y-59084127D01*
X176656936Y-58985524D01*
X176820908Y-58917604D01*
X176970208Y-58887907D01*
X176994978Y-58882980D01*
X177172462Y-58882980D01*
X177197232Y-58887907D01*
X177197232Y-58887907D01*
G37*
G36*
X174657232Y-58887907D02*
G01*
X174806532Y-58917604D01*
X174970504Y-58985524D01*
X175118074Y-59084127D01*
X175243573Y-59209626D01*
X175342176Y-59357196D01*
X175410096Y-59521168D01*
X175444720Y-59695239D01*
X175444720Y-59872721D01*
X175410096Y-60046792D01*
X175342176Y-60210764D01*
X175243573Y-60358334D01*
X175118074Y-60483833D01*
X174970504Y-60582436D01*
X174806532Y-60650356D01*
X174657232Y-60680053D01*
X174632462Y-60684980D01*
X174454978Y-60684980D01*
X174430208Y-60680053D01*
X174280908Y-60650356D01*
X174116936Y-60582436D01*
X173969366Y-60483833D01*
X173843867Y-60358334D01*
X173745264Y-60210764D01*
X173677344Y-60046792D01*
X173642720Y-59872721D01*
X173642720Y-59695239D01*
X173677344Y-59521168D01*
X173745264Y-59357196D01*
X173843867Y-59209626D01*
X173969366Y-59084127D01*
X174116936Y-58985524D01*
X174280908Y-58917604D01*
X174430208Y-58887907D01*
X174454978Y-58882980D01*
X174632462Y-58882980D01*
X174657232Y-58887907D01*
X174657232Y-58887907D01*
G37*
G36*
X167037232Y-58887907D02*
G01*
X167186532Y-58917604D01*
X167350504Y-58985524D01*
X167498074Y-59084127D01*
X167623573Y-59209626D01*
X167722176Y-59357196D01*
X167790096Y-59521168D01*
X167824720Y-59695239D01*
X167824720Y-59872721D01*
X167790096Y-60046792D01*
X167722176Y-60210764D01*
X167623573Y-60358334D01*
X167498074Y-60483833D01*
X167350504Y-60582436D01*
X167186532Y-60650356D01*
X167037232Y-60680053D01*
X167012462Y-60684980D01*
X166834978Y-60684980D01*
X166810208Y-60680053D01*
X166660908Y-60650356D01*
X166496936Y-60582436D01*
X166349366Y-60483833D01*
X166223867Y-60358334D01*
X166125264Y-60210764D01*
X166057344Y-60046792D01*
X166022720Y-59872721D01*
X166022720Y-59695239D01*
X166057344Y-59521168D01*
X166125264Y-59357196D01*
X166223867Y-59209626D01*
X166349366Y-59084127D01*
X166496936Y-58985524D01*
X166660908Y-58917604D01*
X166810208Y-58887907D01*
X166834978Y-58882980D01*
X167012462Y-58882980D01*
X167037232Y-58887907D01*
X167037232Y-58887907D01*
G37*
G36*
X149257232Y-58887907D02*
G01*
X149406532Y-58917604D01*
X149570504Y-58985524D01*
X149718074Y-59084127D01*
X149843573Y-59209626D01*
X149942176Y-59357196D01*
X150010096Y-59521168D01*
X150044720Y-59695239D01*
X150044720Y-59872721D01*
X150010096Y-60046792D01*
X149942176Y-60210764D01*
X149843573Y-60358334D01*
X149718074Y-60483833D01*
X149570504Y-60582436D01*
X149406532Y-60650356D01*
X149257232Y-60680053D01*
X149232462Y-60684980D01*
X149054978Y-60684980D01*
X149030208Y-60680053D01*
X148880908Y-60650356D01*
X148716936Y-60582436D01*
X148569366Y-60483833D01*
X148443867Y-60358334D01*
X148345264Y-60210764D01*
X148277344Y-60046792D01*
X148242720Y-59872721D01*
X148242720Y-59695239D01*
X148277344Y-59521168D01*
X148345264Y-59357196D01*
X148443867Y-59209626D01*
X148569366Y-59084127D01*
X148716936Y-58985524D01*
X148880908Y-58917604D01*
X149030208Y-58887907D01*
X149054978Y-58882980D01*
X149232462Y-58882980D01*
X149257232Y-58887907D01*
X149257232Y-58887907D01*
G37*
G36*
X164497232Y-58887907D02*
G01*
X164646532Y-58917604D01*
X164810504Y-58985524D01*
X164958074Y-59084127D01*
X165083573Y-59209626D01*
X165182176Y-59357196D01*
X165250096Y-59521168D01*
X165284720Y-59695239D01*
X165284720Y-59872721D01*
X165250096Y-60046792D01*
X165182176Y-60210764D01*
X165083573Y-60358334D01*
X164958074Y-60483833D01*
X164810504Y-60582436D01*
X164646532Y-60650356D01*
X164497232Y-60680053D01*
X164472462Y-60684980D01*
X164294978Y-60684980D01*
X164270208Y-60680053D01*
X164120908Y-60650356D01*
X163956936Y-60582436D01*
X163809366Y-60483833D01*
X163683867Y-60358334D01*
X163585264Y-60210764D01*
X163517344Y-60046792D01*
X163482720Y-59872721D01*
X163482720Y-59695239D01*
X163517344Y-59521168D01*
X163585264Y-59357196D01*
X163683867Y-59209626D01*
X163809366Y-59084127D01*
X163956936Y-58985524D01*
X164120908Y-58917604D01*
X164270208Y-58887907D01*
X164294978Y-58882980D01*
X164472462Y-58882980D01*
X164497232Y-58887907D01*
X164497232Y-58887907D01*
G37*
G36*
X161957232Y-58887907D02*
G01*
X162106532Y-58917604D01*
X162270504Y-58985524D01*
X162418074Y-59084127D01*
X162543573Y-59209626D01*
X162642176Y-59357196D01*
X162710096Y-59521168D01*
X162744720Y-59695239D01*
X162744720Y-59872721D01*
X162710096Y-60046792D01*
X162642176Y-60210764D01*
X162543573Y-60358334D01*
X162418074Y-60483833D01*
X162270504Y-60582436D01*
X162106532Y-60650356D01*
X161957232Y-60680053D01*
X161932462Y-60684980D01*
X161754978Y-60684980D01*
X161730208Y-60680053D01*
X161580908Y-60650356D01*
X161416936Y-60582436D01*
X161269366Y-60483833D01*
X161143867Y-60358334D01*
X161045264Y-60210764D01*
X160977344Y-60046792D01*
X160942720Y-59872721D01*
X160942720Y-59695239D01*
X160977344Y-59521168D01*
X161045264Y-59357196D01*
X161143867Y-59209626D01*
X161269366Y-59084127D01*
X161416936Y-58985524D01*
X161580908Y-58917604D01*
X161730208Y-58887907D01*
X161754978Y-58882980D01*
X161932462Y-58882980D01*
X161957232Y-58887907D01*
X161957232Y-58887907D01*
G37*
G36*
X156877232Y-58887907D02*
G01*
X157026532Y-58917604D01*
X157190504Y-58985524D01*
X157338074Y-59084127D01*
X157463573Y-59209626D01*
X157562176Y-59357196D01*
X157630096Y-59521168D01*
X157664720Y-59695239D01*
X157664720Y-59872721D01*
X157630096Y-60046792D01*
X157562176Y-60210764D01*
X157463573Y-60358334D01*
X157338074Y-60483833D01*
X157190504Y-60582436D01*
X157026532Y-60650356D01*
X156877232Y-60680053D01*
X156852462Y-60684980D01*
X156674978Y-60684980D01*
X156650208Y-60680053D01*
X156500908Y-60650356D01*
X156336936Y-60582436D01*
X156189366Y-60483833D01*
X156063867Y-60358334D01*
X155965264Y-60210764D01*
X155897344Y-60046792D01*
X155862720Y-59872721D01*
X155862720Y-59695239D01*
X155897344Y-59521168D01*
X155965264Y-59357196D01*
X156063867Y-59209626D01*
X156189366Y-59084127D01*
X156336936Y-58985524D01*
X156500908Y-58917604D01*
X156650208Y-58887907D01*
X156674978Y-58882980D01*
X156852462Y-58882980D01*
X156877232Y-58887907D01*
X156877232Y-58887907D01*
G37*
G36*
X154337232Y-58887907D02*
G01*
X154486532Y-58917604D01*
X154650504Y-58985524D01*
X154798074Y-59084127D01*
X154923573Y-59209626D01*
X155022176Y-59357196D01*
X155090096Y-59521168D01*
X155124720Y-59695239D01*
X155124720Y-59872721D01*
X155090096Y-60046792D01*
X155022176Y-60210764D01*
X154923573Y-60358334D01*
X154798074Y-60483833D01*
X154650504Y-60582436D01*
X154486532Y-60650356D01*
X154337232Y-60680053D01*
X154312462Y-60684980D01*
X154134978Y-60684980D01*
X154110208Y-60680053D01*
X153960908Y-60650356D01*
X153796936Y-60582436D01*
X153649366Y-60483833D01*
X153523867Y-60358334D01*
X153425264Y-60210764D01*
X153357344Y-60046792D01*
X153322720Y-59872721D01*
X153322720Y-59695239D01*
X153357344Y-59521168D01*
X153425264Y-59357196D01*
X153523867Y-59209626D01*
X153649366Y-59084127D01*
X153796936Y-58985524D01*
X153960908Y-58917604D01*
X154110208Y-58887907D01*
X154134978Y-58882980D01*
X154312462Y-58882980D01*
X154337232Y-58887907D01*
X154337232Y-58887907D01*
G37*
G36*
X151797232Y-58887907D02*
G01*
X151946532Y-58917604D01*
X152110504Y-58985524D01*
X152258074Y-59084127D01*
X152383573Y-59209626D01*
X152482176Y-59357196D01*
X152550096Y-59521168D01*
X152584720Y-59695239D01*
X152584720Y-59872721D01*
X152550096Y-60046792D01*
X152482176Y-60210764D01*
X152383573Y-60358334D01*
X152258074Y-60483833D01*
X152110504Y-60582436D01*
X151946532Y-60650356D01*
X151797232Y-60680053D01*
X151772462Y-60684980D01*
X151594978Y-60684980D01*
X151570208Y-60680053D01*
X151420908Y-60650356D01*
X151256936Y-60582436D01*
X151109366Y-60483833D01*
X150983867Y-60358334D01*
X150885264Y-60210764D01*
X150817344Y-60046792D01*
X150782720Y-59872721D01*
X150782720Y-59695239D01*
X150817344Y-59521168D01*
X150885264Y-59357196D01*
X150983867Y-59209626D01*
X151109366Y-59084127D01*
X151256936Y-58985524D01*
X151420908Y-58917604D01*
X151570208Y-58887907D01*
X151594978Y-58882980D01*
X151772462Y-58882980D01*
X151797232Y-58887907D01*
X151797232Y-58887907D01*
G37*
G36*
X64326433Y-57562893D02*
G01*
X64416657Y-57580839D01*
X64522267Y-57624585D01*
X64671621Y-57686449D01*
X64671622Y-57686450D01*
X64901086Y-57839772D01*
X65096228Y-58034914D01*
X65184502Y-58167026D01*
X65249551Y-58264379D01*
X65274060Y-58323549D01*
X65355161Y-58519343D01*
X65365901Y-58573338D01*
X65409000Y-58790012D01*
X65409000Y-59065988D01*
X65373107Y-59246433D01*
X65355161Y-59336657D01*
X65332832Y-59390563D01*
X65249551Y-59591621D01*
X65249550Y-59591622D01*
X65096228Y-59821086D01*
X64901086Y-60016228D01*
X64752047Y-60115812D01*
X64671621Y-60169551D01*
X64572124Y-60210764D01*
X64416657Y-60275161D01*
X64326433Y-60293107D01*
X64145988Y-60329000D01*
X63870012Y-60329000D01*
X63689567Y-60293107D01*
X63599343Y-60275161D01*
X63443876Y-60210764D01*
X63344379Y-60169551D01*
X63263953Y-60115812D01*
X63114914Y-60016228D01*
X62919772Y-59821086D01*
X62766450Y-59591622D01*
X62766449Y-59591621D01*
X62683168Y-59390563D01*
X62660839Y-59336657D01*
X62642893Y-59246433D01*
X62607000Y-59065988D01*
X62607000Y-58790012D01*
X62650099Y-58573338D01*
X62660839Y-58519343D01*
X62741940Y-58323549D01*
X62766449Y-58264379D01*
X62831498Y-58167026D01*
X62919772Y-58034914D01*
X63114914Y-57839772D01*
X63344378Y-57686450D01*
X63344379Y-57686449D01*
X63493733Y-57624585D01*
X63599343Y-57580839D01*
X63689567Y-57562893D01*
X63870012Y-57527000D01*
X64145988Y-57527000D01*
X64326433Y-57562893D01*
X64326433Y-57562893D01*
G37*
G36*
X125691200Y-58721560D02*
G01*
X123889200Y-58721560D01*
X123889200Y-56919560D01*
X125691200Y-56919560D01*
X125691200Y-58721560D01*
X125691200Y-58721560D01*
G37*
G36*
X132520643Y-56926079D02*
G01*
X132586827Y-56932597D01*
X132756666Y-56984117D01*
X132913191Y-57067782D01*
X132948929Y-57097112D01*
X133050386Y-57180374D01*
X133133648Y-57281831D01*
X133162978Y-57317569D01*
X133246643Y-57474094D01*
X133298163Y-57643933D01*
X133315559Y-57820560D01*
X133298163Y-57997187D01*
X133246643Y-58167026D01*
X133162978Y-58323551D01*
X133133648Y-58359289D01*
X133050386Y-58460746D01*
X132948929Y-58544008D01*
X132913191Y-58573338D01*
X132756666Y-58657003D01*
X132586827Y-58708523D01*
X132520643Y-58715041D01*
X132454460Y-58721560D01*
X132365940Y-58721560D01*
X132299757Y-58715041D01*
X132233573Y-58708523D01*
X132063734Y-58657003D01*
X131907209Y-58573338D01*
X131871471Y-58544008D01*
X131770014Y-58460746D01*
X131686752Y-58359289D01*
X131657422Y-58323551D01*
X131573757Y-58167026D01*
X131522237Y-57997187D01*
X131504841Y-57820560D01*
X131522237Y-57643933D01*
X131573757Y-57474094D01*
X131657422Y-57317569D01*
X131686752Y-57281831D01*
X131770014Y-57180374D01*
X131871471Y-57097112D01*
X131907209Y-57067782D01*
X132063734Y-56984117D01*
X132233573Y-56932597D01*
X132299757Y-56926079D01*
X132365940Y-56919560D01*
X132454460Y-56919560D01*
X132520643Y-56926079D01*
X132520643Y-56926079D01*
G37*
G36*
X129980643Y-56926079D02*
G01*
X130046827Y-56932597D01*
X130216666Y-56984117D01*
X130373191Y-57067782D01*
X130408929Y-57097112D01*
X130510386Y-57180374D01*
X130593648Y-57281831D01*
X130622978Y-57317569D01*
X130706643Y-57474094D01*
X130758163Y-57643933D01*
X130775559Y-57820560D01*
X130758163Y-57997187D01*
X130706643Y-58167026D01*
X130622978Y-58323551D01*
X130593648Y-58359289D01*
X130510386Y-58460746D01*
X130408929Y-58544008D01*
X130373191Y-58573338D01*
X130216666Y-58657003D01*
X130046827Y-58708523D01*
X129980643Y-58715041D01*
X129914460Y-58721560D01*
X129825940Y-58721560D01*
X129759757Y-58715041D01*
X129693573Y-58708523D01*
X129523734Y-58657003D01*
X129367209Y-58573338D01*
X129331471Y-58544008D01*
X129230014Y-58460746D01*
X129146752Y-58359289D01*
X129117422Y-58323551D01*
X129033757Y-58167026D01*
X128982237Y-57997187D01*
X128964841Y-57820560D01*
X128982237Y-57643933D01*
X129033757Y-57474094D01*
X129117422Y-57317569D01*
X129146752Y-57281831D01*
X129230014Y-57180374D01*
X129331471Y-57097112D01*
X129367209Y-57067782D01*
X129523734Y-56984117D01*
X129693573Y-56932597D01*
X129759757Y-56926079D01*
X129825940Y-56919560D01*
X129914460Y-56919560D01*
X129980643Y-56926079D01*
X129980643Y-56926079D01*
G37*
G36*
X127440643Y-56926079D02*
G01*
X127506827Y-56932597D01*
X127676666Y-56984117D01*
X127833191Y-57067782D01*
X127868929Y-57097112D01*
X127970386Y-57180374D01*
X128053648Y-57281831D01*
X128082978Y-57317569D01*
X128166643Y-57474094D01*
X128218163Y-57643933D01*
X128235559Y-57820560D01*
X128218163Y-57997187D01*
X128166643Y-58167026D01*
X128082978Y-58323551D01*
X128053648Y-58359289D01*
X127970386Y-58460746D01*
X127868929Y-58544008D01*
X127833191Y-58573338D01*
X127676666Y-58657003D01*
X127506827Y-58708523D01*
X127440643Y-58715041D01*
X127374460Y-58721560D01*
X127285940Y-58721560D01*
X127219757Y-58715041D01*
X127153573Y-58708523D01*
X126983734Y-58657003D01*
X126827209Y-58573338D01*
X126791471Y-58544008D01*
X126690014Y-58460746D01*
X126606752Y-58359289D01*
X126577422Y-58323551D01*
X126493757Y-58167026D01*
X126442237Y-57997187D01*
X126424841Y-57820560D01*
X126442237Y-57643933D01*
X126493757Y-57474094D01*
X126577422Y-57317569D01*
X126606752Y-57281831D01*
X126690014Y-57180374D01*
X126791471Y-57097112D01*
X126827209Y-57067782D01*
X126983734Y-56984117D01*
X127153573Y-56932597D01*
X127219757Y-56926079D01*
X127285940Y-56919560D01*
X127374460Y-56919560D01*
X127440643Y-56926079D01*
X127440643Y-56926079D01*
G37*
M02*
