M48
; DRILL file {KiCad (5.1.4)-1} date 17.11.2019 22:20:58
; FORMAT={-:-/ absolute / inch / decimal}
; #@! TF.CreationDate,2019-11-17T22:20:58+01:00
; #@! TF.GenerationSoftware,Kicad,Pcbnew,(5.1.4)-1
; #@! TF.FileFunction,Plated,1,2,PTH
FMAT,2
INCH
T1C0.0276
T2C0.0315
T3C0.0354
T4C0.0374
T5C0.0394
T6C0.0440
T7C0.0512
T8C0.0945
%
G90
G05
T1
X6.775Y-0.905
X6.8341Y-0.905
X6.8931Y-0.905
X6.9522Y-0.905
X7.0112Y-0.905
T2
X7.235Y-1.955
X7.235Y-2.355
X7.4247Y-2.385
X7.72Y-2.385
X7.72Y-2.505
X7.72Y-2.905
X7.055Y-1.96
X7.055Y-2.36
X7.56Y-2.505
X7.56Y-2.905
X7.057Y-2.489
X7.057Y-2.889
T3
X7.7379Y-1.4276
X7.7379Y-1.5079
X7.7379Y-1.5882
X7.8379Y-1.4678
X7.8379Y-1.5481
X7.8379Y-1.6284
T4
X7.57Y-3.18
X7.6684Y-3.18
X7.7669Y-3.18
X7.8653Y-3.18
X7.9637Y-3.18
T5
X7.118Y-1.484
X7.218Y-1.484
X7.318Y-1.484
X7.418Y-1.484
X5.91Y-0.908
X5.91Y-1.008
X7.294Y-2.518
X7.294Y-2.618
X7.294Y-2.718
X7.294Y-2.818
X7.118Y-1.272
X7.218Y-1.272
X7.318Y-1.272
X7.418Y-1.272
X8.092Y-2.533
X8.092Y-2.633
X8.092Y-2.733
X8.092Y-2.833
X5.658Y-1.647
X5.658Y-1.747
X5.658Y-1.847
X5.658Y-1.947
X5.658Y-2.047
X5.658Y-2.147
X5.658Y-2.247
X5.658Y-2.347
X5.658Y-2.447
X5.658Y-2.547
X5.658Y-2.647
X5.658Y-2.747
X5.658Y-2.847
X5.658Y-2.947
X5.658Y-3.047
X6.758Y-1.647
X6.758Y-1.747
X6.758Y-1.847
X6.758Y-1.947
X6.758Y-2.047
X6.758Y-2.147
X6.758Y-2.247
X6.758Y-2.347
X6.758Y-2.447
X6.758Y-2.547
X6.758Y-2.647
X6.758Y-2.747
X6.758Y-2.847
X6.758Y-2.947
X6.758Y-3.047
X7.913Y-2.534
X7.913Y-2.634
X7.913Y-2.734
X7.913Y-2.834
X7.38Y-1.055
X7.48Y-1.055
X7.58Y-1.055
X7.68Y-1.055
X7.38Y-0.83
X7.48Y-0.83
X7.58Y-0.83
X7.68Y-0.83
X5.759Y-1.648
X5.759Y-1.748
X5.759Y-1.848
X5.759Y-1.948
X5.759Y-2.048
X5.759Y-2.148
X5.759Y-2.248
X5.759Y-2.348
X5.759Y-2.448
X5.759Y-2.548
X5.759Y-2.648
X5.759Y-2.748
X5.759Y-2.848
X5.759Y-2.948
X5.759Y-3.048
X6.659Y-1.648
X6.659Y-1.748
X6.659Y-1.848
X6.659Y-1.948
X6.659Y-2.048
X6.659Y-2.148
X6.659Y-2.248
X6.659Y-2.348
X6.659Y-2.448
X6.659Y-2.548
X6.659Y-2.648
X6.659Y-2.748
X6.659Y-2.848
X6.659Y-2.948
X6.659Y-3.048
T6
X7.43Y-1.955
X7.43Y-2.055
X7.43Y-2.155
X7.43Y-2.255
X7.73Y-1.955
X7.73Y-2.055
X7.73Y-2.155
X7.73Y-2.255
T7
X6.162Y-0.909
X6.362Y-0.909
T8
X7.9285Y-1.2918
X7.9285Y-1.7642
T0
M30
