M48
; DRILL file {KiCad (5.1.5)-3} date 19.09.2020 15:15:18
; FORMAT={-:-/ absolute / inch / decimal}
; #@! TF.CreationDate,2020-09-19T15:15:18+02:00
; #@! TF.GenerationSoftware,Kicad,Pcbnew,(5.1.5)-3
; #@! TF.FileFunction,Plated,1,2,PTH
FMAT,2
INCH
T1C0.0157
T2C0.0276
T3C0.0299
T4C0.0315
T5C0.0354
T6C0.0374
T7C0.0394
T8C0.0440
T9C0.0512
T10C0.0945
%
G90
G05
T1
X6.9066Y-1.1334
X6.9399Y-1.7651
X6.9399Y-1.9595
X7.1036Y-1.4768
X7.1552Y-1.7121
X7.2903Y-1.7664
X7.6764Y-0.9427
T2
X6.6963Y-0.905
X6.7553Y-0.905
X6.8144Y-0.905
X6.8734Y-0.905
X6.9325Y-0.905
T3
X7.2615Y-1.2837
X7.3115Y-1.3837
X7.3615Y-1.2837
X7.4115Y-1.3837
X7.4615Y-1.2837
X7.5115Y-1.3837
T4
X8.0607Y-1.5584
X8.0607Y-1.9584
X7.8613Y-1.5584
X7.8613Y-1.9584
X7.2082Y-2.0634
X7.2082Y-2.4634
X7.4332Y-1.5991
X7.4332Y-1.6483
X7.4332Y-1.8452
X7.4332Y-1.8944
X7.0282Y-2.0684
X7.0282Y-2.4684
X7.0305Y-2.6428
X7.0305Y-3.0428
T5
X7.3011Y-1.0535
X7.3413Y-0.9535
X7.3814Y-1.0535
X7.4216Y-0.9535
X7.4617Y-1.0535
X7.5019Y-0.9535
T6
X7.57Y-3.18
X7.6684Y-3.18
X7.7669Y-3.18
X7.8653Y-3.18
X7.9637Y-3.18
T7
X7.6402Y-1.5841
X7.6402Y-1.6841
X7.6402Y-1.7841
X7.6402Y-1.8841
X5.7367Y-1.647
X5.7367Y-1.747
X5.7367Y-1.847
X5.7367Y-1.947
X5.7367Y-2.047
X5.7367Y-2.147
X5.7367Y-2.247
X5.7367Y-2.347
X5.7367Y-2.447
X5.7367Y-2.547
X5.7367Y-2.647
X5.7367Y-2.747
X5.7367Y-2.847
X5.7367Y-2.947
X5.7367Y-3.047
X6.8367Y-1.647
X6.8367Y-1.747
X6.8367Y-1.847
X6.8367Y-1.947
X6.8367Y-2.047
X6.8367Y-2.147
X6.8367Y-2.247
X6.8367Y-2.347
X6.8367Y-2.447
X6.8367Y-2.547
X6.8367Y-2.647
X6.8367Y-2.747
X6.8367Y-2.847
X6.8367Y-2.947
X6.8367Y-3.047
X7.4915Y-2.3295
X7.5915Y-2.3295
X7.6915Y-2.3295
X7.7915Y-2.3295
X7.4915Y-2.8806
X7.5915Y-2.8806
X7.6915Y-2.8806
X7.7915Y-2.8806
X5.91Y-0.908
X5.91Y-1.008
X7.4915Y-2.0932
X7.5915Y-2.0932
X7.6915Y-2.0932
X7.7915Y-2.0932
X7.2435Y-2.6718
X7.2435Y-2.7718
X7.2435Y-2.8718
X7.2435Y-2.9718
X7.4915Y-2.6444
X7.5915Y-2.6444
X7.6915Y-2.6444
X7.7915Y-2.6444
X5.8377Y-1.648
X5.8377Y-1.748
X5.8377Y-1.848
X5.8377Y-1.948
X5.8377Y-2.048
X5.8377Y-2.148
X5.8377Y-2.248
X5.8377Y-2.348
X5.8377Y-2.448
X5.8377Y-2.548
X5.8377Y-2.648
X5.8377Y-2.748
X5.8377Y-2.848
X5.8377Y-2.948
X5.8377Y-3.048
X6.7377Y-1.648
X6.7377Y-1.748
X6.7377Y-1.848
X6.7377Y-1.948
X6.7377Y-2.048
X6.7377Y-2.148
X6.7377Y-2.248
X6.7377Y-2.348
X6.7377Y-2.448
X6.7377Y-2.548
X6.7377Y-2.648
X6.7377Y-2.748
X6.7377Y-2.848
X6.7377Y-2.948
X6.7377Y-3.048
T8
X7.0042Y-1.5931
X7.0042Y-1.8931
X7.1042Y-1.5931
X7.1042Y-1.8931
X7.2042Y-1.5931
X7.2042Y-1.8931
X7.3042Y-1.5931
X7.3042Y-1.8931
T9
X6.162Y-0.909
X6.262Y-0.909
X6.362Y-0.909
T10
X7.1653Y-0.8629
X7.6377Y-0.8629
T0
M30
