G04 #@! TF.GenerationSoftware,KiCad,Pcbnew,(5.1.4)-1*
G04 #@! TF.CreationDate,2019-10-24T11:44:37+02:00*
G04 #@! TF.ProjectId,DNMS,444e4d53-2e6b-4696-9361-645f70636258,0.9.0*
G04 #@! TF.SameCoordinates,Original*
G04 #@! TF.FileFunction,Copper,L2,Bot*
G04 #@! TF.FilePolarity,Positive*
%FSLAX46Y46*%
G04 Gerber Fmt 4.6, Leading zero omitted, Abs format (unit mm)*
G04 Created by KiCad (PCBNEW (5.1.4)-1) date 2019-10-24 11:44:37*
%MOMM*%
%LPD*%
G04 APERTURE LIST*
%ADD10C,1.530000*%
%ADD11C,1.524000*%
%ADD12O,1.600000X1.600000*%
%ADD13C,1.600000*%
%ADD14O,1.700000X1.700000*%
%ADD15R,1.700000X1.700000*%
%ADD16R,1.676400X1.676400*%
%ADD17C,1.676400*%
%ADD18C,0.500000*%
%ADD19C,0.250000*%
G04 APERTURE END LIST*
D10*
X134092620Y-76708000D03*
X131552620Y-76708000D03*
X129012620Y-76708000D03*
X126472620Y-76708000D03*
X123932620Y-76708000D03*
X121392620Y-76708000D03*
X118852620Y-76708000D03*
X116312620Y-76708000D03*
X113772620Y-76708000D03*
X111232620Y-76708000D03*
X108692620Y-76708000D03*
X106152620Y-76708000D03*
X103612620Y-76708000D03*
X101072620Y-76708000D03*
X98532620Y-76708000D03*
X95992620Y-76708000D03*
X101072620Y-91948000D03*
X103612620Y-91948000D03*
X106152620Y-91948000D03*
X108692620Y-91948000D03*
X111232620Y-91948000D03*
X113772620Y-91948000D03*
X116312620Y-91948000D03*
X118852620Y-91948000D03*
X121392620Y-91948000D03*
X123932620Y-91948000D03*
X126472620Y-91948000D03*
X129012620Y-91948000D03*
X131552620Y-91948000D03*
X134092620Y-91948000D03*
X93452620Y-76708000D03*
X90912620Y-76708000D03*
X88372620Y-76708000D03*
X85832620Y-76708000D03*
X83292620Y-76708000D03*
X80752620Y-76708000D03*
X78212620Y-76708000D03*
X75672620Y-76708000D03*
X98532620Y-91948000D03*
X95992620Y-91948000D03*
X93452620Y-91948000D03*
X75672620Y-91948000D03*
X78212620Y-91948000D03*
X80752620Y-91948000D03*
X83292620Y-91948000D03*
X85832620Y-91948000D03*
X88372620Y-91948000D03*
X90912620Y-91948000D03*
D11*
X131552620Y-89408000D03*
D12*
X180517800Y-77437600D03*
D13*
X180517800Y-84937600D03*
D14*
X69850000Y-86360000D03*
X69850000Y-83820000D03*
D15*
X69850000Y-81280000D03*
D14*
X64770000Y-86360000D03*
X64770000Y-83820000D03*
D15*
X64770000Y-81280000D03*
D14*
X188976000Y-92202000D03*
X188976000Y-89662000D03*
X188976000Y-87122000D03*
D15*
X188976000Y-84582000D03*
D14*
X184658000Y-85090000D03*
X184658000Y-82550000D03*
X184658000Y-80010000D03*
D15*
X184658000Y-77470000D03*
D14*
X157480000Y-91948000D03*
D15*
X160020000Y-91948000D03*
D16*
X176276000Y-76708000D03*
D17*
X173736000Y-76708000D03*
X171196000Y-76708000D03*
X168656000Y-76708000D03*
X168656000Y-84328000D03*
X171196000Y-84328000D03*
X173736000Y-84328000D03*
X176276000Y-84328000D03*
D12*
X161544000Y-76708000D03*
D13*
X161544000Y-86868000D03*
D12*
X165100000Y-76708000D03*
D13*
X165100000Y-86868000D03*
D18*
X134092620Y-76708000D02*
X135616620Y-75184000D01*
X167132000Y-75184000D02*
X168656000Y-76708000D01*
X135616620Y-75184000D02*
X167132000Y-75184000D01*
X168656000Y-76708000D02*
X170302990Y-75061010D01*
D19*
X183482000Y-80010000D02*
X184912000Y-80010000D01*
D18*
X187452000Y-87122000D02*
X188976000Y-87122000D01*
X186944000Y-86614000D02*
X187452000Y-87122000D01*
X184658000Y-80010000D02*
X186944000Y-82296000D01*
X186944000Y-82296000D02*
X186944000Y-86614000D01*
D19*
X87864620Y-81280000D02*
X87963210Y-81378590D01*
D18*
X69850000Y-81280000D02*
X87864620Y-81280000D01*
X87963210Y-81378590D02*
X98532620Y-91948000D01*
D19*
X180590200Y-80010000D02*
X180517800Y-79937600D01*
D18*
X184658000Y-80010000D02*
X180590200Y-80010000D01*
X180517800Y-76462020D02*
X179116790Y-75061010D01*
X180517800Y-79937600D02*
X180517800Y-76462020D01*
X179116790Y-75061010D02*
X170302990Y-75061010D01*
X98532620Y-76708000D02*
X96885630Y-75061010D01*
D19*
X160412630Y-86868000D02*
X161544000Y-86868000D01*
D18*
X161544000Y-86868000D02*
X165100000Y-86868000D01*
X69850000Y-86360000D02*
X67462400Y-86360000D01*
D19*
X67462400Y-86360000D02*
X67487800Y-86334600D01*
D18*
X69972990Y-75061010D02*
X96885630Y-75061010D01*
X67487800Y-77546200D02*
X69972990Y-75061010D01*
X67487800Y-86334600D02*
X67487800Y-77546200D01*
X130536620Y-93472000D02*
X129012620Y-91948000D01*
X136906000Y-93472000D02*
X130536620Y-93472000D01*
X160793630Y-86868000D02*
X143510000Y-86868000D01*
X143510000Y-86868000D02*
X136906000Y-93472000D01*
X179717801Y-85737599D02*
X180517800Y-84937600D01*
X179717599Y-85737599D02*
X179717801Y-85737599D01*
X177546000Y-85725000D02*
X179578000Y-85725000D01*
X176149000Y-84328000D02*
X177419000Y-85598000D01*
D19*
X179578000Y-82550000D02*
X184912000Y-82550000D01*
X173736000Y-76708000D02*
X179578000Y-82550000D01*
X161544000Y-76708000D02*
X142748000Y-76708000D01*
X187773919Y-92202000D02*
X188976000Y-92202000D01*
X177884607Y-92202000D02*
X187773919Y-92202000D01*
X171196000Y-85513393D02*
X177884607Y-92202000D01*
X171196000Y-84328000D02*
X171196000Y-85513393D01*
X114537619Y-91183001D02*
X114556999Y-91183001D01*
X113772620Y-91948000D02*
X114537619Y-91183001D01*
X118935500Y-86804500D02*
X132651500Y-86804500D01*
X114556999Y-91183001D02*
X118935500Y-86804500D01*
X142748000Y-76708000D02*
X132651500Y-86804500D01*
X165100000Y-76708000D02*
X167640000Y-79248000D01*
X168656000Y-79248000D02*
X171196000Y-76708000D01*
X167640000Y-79248000D02*
X168656000Y-79248000D01*
X188976000Y-89662000D02*
X185928000Y-89662000D01*
X171196000Y-76708000D02*
X177977800Y-83489800D01*
X177977800Y-83489800D02*
X182270400Y-83489800D01*
X182270400Y-86004400D02*
X185928000Y-89662000D01*
X182270400Y-83489800D02*
X182270400Y-86004400D01*
X120180611Y-88080009D02*
X116312620Y-91948000D01*
X137979991Y-88080009D02*
X120180611Y-88080009D01*
X161226500Y-80581500D02*
X145478500Y-80581500D01*
X165100000Y-76708000D02*
X161226500Y-80581500D01*
X145478500Y-80581500D02*
X137979991Y-88080009D01*
M02*
