G04 #@! TF.GenerationSoftware,KiCad,Pcbnew,(5.1.4)-1*
G04 #@! TF.CreationDate,2019-10-24T11:44:37+02:00*
G04 #@! TF.ProjectId,DNMS,444e4d53-2e6b-4696-9361-645f70636258,0.9.0*
G04 #@! TF.SameCoordinates,Original*
G04 #@! TF.FileFunction,Legend,Top*
G04 #@! TF.FilePolarity,Positive*
%FSLAX46Y46*%
G04 Gerber Fmt 4.6, Leading zero omitted, Abs format (unit mm)*
G04 Created by KiCad (PCBNEW (5.1.4)-1) date 2019-10-24 11:44:37*
%MOMM*%
%LPD*%
G04 APERTURE LIST*
%ADD10C,0.300000*%
%ADD11C,0.100000*%
%ADD12C,0.750000*%
%ADD13C,0.127000*%
%ADD14C,0.152400*%
%ADD15C,0.120000*%
%ADD16C,0.010000*%
%ADD17C,0.150000*%
G04 APERTURE END LIST*
D10*
X153416285Y-84776571D02*
X153916285Y-86276571D01*
X154416285Y-84776571D01*
X155702000Y-86276571D02*
X154844857Y-86276571D01*
X155273428Y-86276571D02*
X155273428Y-84776571D01*
X155130571Y-84990857D01*
X154987714Y-85133714D01*
X154844857Y-85205142D01*
X156344857Y-86133714D02*
X156416285Y-86205142D01*
X156344857Y-86276571D01*
X156273428Y-86205142D01*
X156344857Y-86133714D01*
X156344857Y-86276571D01*
X157844857Y-86276571D02*
X156987714Y-86276571D01*
X157416285Y-86276571D02*
X157416285Y-84776571D01*
X157273428Y-84990857D01*
X157130571Y-85133714D01*
X156987714Y-85205142D01*
D11*
X61322028Y-86887009D02*
X61436314Y-86925104D01*
X61626790Y-86925104D01*
X61702980Y-86887009D01*
X61741076Y-86848914D01*
X61779171Y-86772723D01*
X61779171Y-86696533D01*
X61741076Y-86620342D01*
X61702980Y-86582247D01*
X61626790Y-86544152D01*
X61474409Y-86506057D01*
X61398219Y-86467961D01*
X61360123Y-86429866D01*
X61322028Y-86353676D01*
X61322028Y-86277485D01*
X61360123Y-86201295D01*
X61398219Y-86163200D01*
X61474409Y-86125104D01*
X61664885Y-86125104D01*
X61779171Y-86163200D01*
X62122028Y-86925104D02*
X62122028Y-86125104D01*
X62312504Y-86125104D01*
X62426790Y-86163200D01*
X62502980Y-86239390D01*
X62541076Y-86315580D01*
X62579171Y-86467961D01*
X62579171Y-86582247D01*
X62541076Y-86734628D01*
X62502980Y-86810819D01*
X62426790Y-86887009D01*
X62312504Y-86925104D01*
X62122028Y-86925104D01*
X61328390Y-83534304D02*
X61518866Y-84334304D01*
X61671247Y-83762876D01*
X61823628Y-84334304D01*
X62014104Y-83534304D01*
X62280771Y-84296209D02*
X62395057Y-84334304D01*
X62585533Y-84334304D01*
X62661723Y-84296209D01*
X62699819Y-84258114D01*
X62737914Y-84181923D01*
X62737914Y-84105733D01*
X62699819Y-84029542D01*
X62661723Y-83991447D01*
X62585533Y-83953352D01*
X62433152Y-83915257D01*
X62356961Y-83877161D01*
X62318866Y-83839066D01*
X62280771Y-83762876D01*
X62280771Y-83686685D01*
X62318866Y-83610495D01*
X62356961Y-83572400D01*
X62433152Y-83534304D01*
X62623628Y-83534304D01*
X62737914Y-83572400D01*
X61696676Y-80905400D02*
X61620485Y-80867304D01*
X61506200Y-80867304D01*
X61391914Y-80905400D01*
X61315723Y-80981590D01*
X61277628Y-81057780D01*
X61239533Y-81210161D01*
X61239533Y-81324447D01*
X61277628Y-81476828D01*
X61315723Y-81553019D01*
X61391914Y-81629209D01*
X61506200Y-81667304D01*
X61582390Y-81667304D01*
X61696676Y-81629209D01*
X61734771Y-81591114D01*
X61734771Y-81324447D01*
X61582390Y-81324447D01*
X62077628Y-81667304D02*
X62077628Y-80867304D01*
X62534771Y-81667304D01*
X62534771Y-80867304D01*
X62915723Y-81667304D02*
X62915723Y-80867304D01*
X63106200Y-80867304D01*
X63220485Y-80905400D01*
X63296676Y-80981590D01*
X63334771Y-81057780D01*
X63372866Y-81210161D01*
X63372866Y-81324447D01*
X63334771Y-81476828D01*
X63296676Y-81553019D01*
X63220485Y-81629209D01*
X63106200Y-81667304D01*
X62915723Y-81667304D01*
X71805923Y-86074304D02*
X72301161Y-86074304D01*
X72034495Y-86379066D01*
X72148780Y-86379066D01*
X72224971Y-86417161D01*
X72263066Y-86455257D01*
X72301161Y-86531447D01*
X72301161Y-86721923D01*
X72263066Y-86798114D01*
X72224971Y-86836209D01*
X72148780Y-86874304D01*
X71920209Y-86874304D01*
X71844019Y-86836209D01*
X71805923Y-86798114D01*
X72529733Y-86074304D02*
X72796400Y-86874304D01*
X73063066Y-86074304D01*
X73253542Y-86074304D02*
X73748780Y-86074304D01*
X73482114Y-86379066D01*
X73596400Y-86379066D01*
X73672590Y-86417161D01*
X73710685Y-86455257D01*
X73748780Y-86531447D01*
X73748780Y-86721923D01*
X73710685Y-86798114D01*
X73672590Y-86836209D01*
X73596400Y-86874304D01*
X73367828Y-86874304D01*
X73291638Y-86836209D01*
X73253542Y-86798114D01*
X71920228Y-84143809D02*
X72034514Y-84181904D01*
X72224990Y-84181904D01*
X72301180Y-84143809D01*
X72339276Y-84105714D01*
X72377371Y-84029523D01*
X72377371Y-83953333D01*
X72339276Y-83877142D01*
X72301180Y-83839047D01*
X72224990Y-83800952D01*
X72072609Y-83762857D01*
X71996419Y-83724761D01*
X71958323Y-83686666D01*
X71920228Y-83610476D01*
X71920228Y-83534285D01*
X71958323Y-83458095D01*
X71996419Y-83420000D01*
X72072609Y-83381904D01*
X72263085Y-83381904D01*
X72377371Y-83420000D01*
X73177371Y-84105714D02*
X73139276Y-84143809D01*
X73024990Y-84181904D01*
X72948800Y-84181904D01*
X72834514Y-84143809D01*
X72758323Y-84067619D01*
X72720228Y-83991428D01*
X72682133Y-83839047D01*
X72682133Y-83724761D01*
X72720228Y-83572380D01*
X72758323Y-83496190D01*
X72834514Y-83420000D01*
X72948800Y-83381904D01*
X73024990Y-83381904D01*
X73139276Y-83420000D01*
X73177371Y-83458095D01*
X73520228Y-84181904D02*
X73520228Y-83381904D01*
X73977371Y-84181904D02*
X73634514Y-83724761D01*
X73977371Y-83381904D02*
X73520228Y-83839047D01*
X72390076Y-80905400D02*
X72313885Y-80867304D01*
X72199600Y-80867304D01*
X72085314Y-80905400D01*
X72009123Y-80981590D01*
X71971028Y-81057780D01*
X71932933Y-81210161D01*
X71932933Y-81324447D01*
X71971028Y-81476828D01*
X72009123Y-81553019D01*
X72085314Y-81629209D01*
X72199600Y-81667304D01*
X72275790Y-81667304D01*
X72390076Y-81629209D01*
X72428171Y-81591114D01*
X72428171Y-81324447D01*
X72275790Y-81324447D01*
X72771028Y-81667304D02*
X72771028Y-80867304D01*
X73228171Y-81667304D01*
X73228171Y-80867304D01*
X73609123Y-81667304D02*
X73609123Y-80867304D01*
X73799600Y-80867304D01*
X73913885Y-80905400D01*
X73990076Y-80981590D01*
X74028171Y-81057780D01*
X74066266Y-81210161D01*
X74066266Y-81324447D01*
X74028171Y-81476828D01*
X73990076Y-81553019D01*
X73913885Y-81629209D01*
X73799600Y-81667304D01*
X73609123Y-81667304D01*
X190970028Y-84715342D02*
X191579552Y-84715342D01*
X191274790Y-85020104D02*
X191274790Y-84410580D01*
X192341457Y-84220104D02*
X191960504Y-84220104D01*
X191922409Y-84601057D01*
X191960504Y-84562961D01*
X192036695Y-84524866D01*
X192227171Y-84524866D01*
X192303361Y-84562961D01*
X192341457Y-84601057D01*
X192379552Y-84677247D01*
X192379552Y-84867723D01*
X192341457Y-84943914D01*
X192303361Y-84982009D01*
X192227171Y-85020104D01*
X192036695Y-85020104D01*
X191960504Y-84982009D01*
X191922409Y-84943914D01*
X192608123Y-84220104D02*
X192874790Y-85020104D01*
X193141457Y-84220104D01*
X191490676Y-86696600D02*
X191414485Y-86658504D01*
X191300200Y-86658504D01*
X191185914Y-86696600D01*
X191109723Y-86772790D01*
X191071628Y-86848980D01*
X191033533Y-87001361D01*
X191033533Y-87115647D01*
X191071628Y-87268028D01*
X191109723Y-87344219D01*
X191185914Y-87420409D01*
X191300200Y-87458504D01*
X191376390Y-87458504D01*
X191490676Y-87420409D01*
X191528771Y-87382314D01*
X191528771Y-87115647D01*
X191376390Y-87115647D01*
X191871628Y-87458504D02*
X191871628Y-86658504D01*
X192328771Y-87458504D01*
X192328771Y-86658504D01*
X192709723Y-87458504D02*
X192709723Y-86658504D01*
X192900200Y-86658504D01*
X193014485Y-86696600D01*
X193090676Y-86772790D01*
X193128771Y-86848980D01*
X193166866Y-87001361D01*
X193166866Y-87115647D01*
X193128771Y-87268028D01*
X193090676Y-87344219D01*
X193014485Y-87420409D01*
X192900200Y-87458504D01*
X192709723Y-87458504D01*
X187312542Y-82416609D02*
X187426828Y-82454704D01*
X187617304Y-82454704D01*
X187693495Y-82416609D01*
X187731590Y-82378514D01*
X187769685Y-82302323D01*
X187769685Y-82226133D01*
X187731590Y-82149942D01*
X187693495Y-82111847D01*
X187617304Y-82073752D01*
X187464923Y-82035657D01*
X187388733Y-81997561D01*
X187350638Y-81959466D01*
X187312542Y-81883276D01*
X187312542Y-81807085D01*
X187350638Y-81730895D01*
X187388733Y-81692800D01*
X187464923Y-81654704D01*
X187655400Y-81654704D01*
X187769685Y-81692800D01*
X188569685Y-82378514D02*
X188531590Y-82416609D01*
X188417304Y-82454704D01*
X188341114Y-82454704D01*
X188226828Y-82416609D01*
X188150638Y-82340419D01*
X188112542Y-82264228D01*
X188074447Y-82111847D01*
X188074447Y-81997561D01*
X188112542Y-81845180D01*
X188150638Y-81768990D01*
X188226828Y-81692800D01*
X188341114Y-81654704D01*
X188417304Y-81654704D01*
X188531590Y-81692800D01*
X188569685Y-81730895D01*
X189293495Y-82454704D02*
X188912542Y-82454704D01*
X188912542Y-81654704D01*
X189369685Y-82530895D02*
X189979209Y-82530895D01*
X190169685Y-82035657D02*
X190436352Y-82035657D01*
X190550638Y-82454704D02*
X190169685Y-82454704D01*
X190169685Y-81654704D01*
X190550638Y-81654704D01*
X190817304Y-82454704D02*
X191236352Y-81921371D01*
X190817304Y-81921371D02*
X191236352Y-82454704D01*
X184829571Y-92525809D02*
X184943857Y-92563904D01*
X185134333Y-92563904D01*
X185210523Y-92525809D01*
X185248619Y-92487714D01*
X185286714Y-92411523D01*
X185286714Y-92335333D01*
X185248619Y-92259142D01*
X185210523Y-92221047D01*
X185134333Y-92182952D01*
X184981952Y-92144857D01*
X184905761Y-92106761D01*
X184867666Y-92068666D01*
X184829571Y-91992476D01*
X184829571Y-91916285D01*
X184867666Y-91840095D01*
X184905761Y-91802000D01*
X184981952Y-91763904D01*
X185172428Y-91763904D01*
X185286714Y-91802000D01*
X185629571Y-92563904D02*
X185629571Y-91763904D01*
X185820047Y-91763904D01*
X185934333Y-91802000D01*
X186010523Y-91878190D01*
X186048619Y-91954380D01*
X186086714Y-92106761D01*
X186086714Y-92221047D01*
X186048619Y-92373428D01*
X186010523Y-92449619D01*
X185934333Y-92525809D01*
X185820047Y-92563904D01*
X185629571Y-92563904D01*
X186391476Y-92335333D02*
X186772428Y-92335333D01*
X186315285Y-92563904D02*
X186581952Y-91763904D01*
X186848619Y-92563904D01*
X184950219Y-89985809D02*
X185064504Y-90023904D01*
X185254980Y-90023904D01*
X185331171Y-89985809D01*
X185369266Y-89947714D01*
X185407361Y-89871523D01*
X185407361Y-89795333D01*
X185369266Y-89719142D01*
X185331171Y-89681047D01*
X185254980Y-89642952D01*
X185102600Y-89604857D01*
X185026409Y-89566761D01*
X184988314Y-89528666D01*
X184950219Y-89452476D01*
X184950219Y-89376285D01*
X184988314Y-89300095D01*
X185026409Y-89262000D01*
X185102600Y-89223904D01*
X185293076Y-89223904D01*
X185407361Y-89262000D01*
X186207361Y-89947714D02*
X186169266Y-89985809D01*
X186054980Y-90023904D01*
X185978790Y-90023904D01*
X185864504Y-89985809D01*
X185788314Y-89909619D01*
X185750219Y-89833428D01*
X185712123Y-89681047D01*
X185712123Y-89566761D01*
X185750219Y-89414380D01*
X185788314Y-89338190D01*
X185864504Y-89262000D01*
X185978790Y-89223904D01*
X186054980Y-89223904D01*
X186169266Y-89262000D01*
X186207361Y-89300095D01*
X186931171Y-90023904D02*
X186550219Y-90023904D01*
X186550219Y-89223904D01*
X187325076Y-79737000D02*
X187248885Y-79698904D01*
X187134600Y-79698904D01*
X187020314Y-79737000D01*
X186944123Y-79813190D01*
X186906028Y-79889380D01*
X186867933Y-80041761D01*
X186867933Y-80156047D01*
X186906028Y-80308428D01*
X186944123Y-80384619D01*
X187020314Y-80460809D01*
X187134600Y-80498904D01*
X187210790Y-80498904D01*
X187325076Y-80460809D01*
X187363171Y-80422714D01*
X187363171Y-80156047D01*
X187210790Y-80156047D01*
X187706028Y-80498904D02*
X187706028Y-79698904D01*
X188163171Y-80498904D01*
X188163171Y-79698904D01*
X188544123Y-80498904D02*
X188544123Y-79698904D01*
X188734600Y-79698904D01*
X188848885Y-79737000D01*
X188925076Y-79813190D01*
X188963171Y-79889380D01*
X189001266Y-80041761D01*
X189001266Y-80156047D01*
X188963171Y-80308428D01*
X188925076Y-80384619D01*
X188848885Y-80460809D01*
X188734600Y-80498904D01*
X188544123Y-80498904D01*
X186956828Y-77501742D02*
X187566352Y-77501742D01*
X187261590Y-77806504D02*
X187261590Y-77196980D01*
X188328257Y-77006504D02*
X187947304Y-77006504D01*
X187909209Y-77387457D01*
X187947304Y-77349361D01*
X188023495Y-77311266D01*
X188213971Y-77311266D01*
X188290161Y-77349361D01*
X188328257Y-77387457D01*
X188366352Y-77463647D01*
X188366352Y-77654123D01*
X188328257Y-77730314D01*
X188290161Y-77768409D01*
X188213971Y-77806504D01*
X188023495Y-77806504D01*
X187947304Y-77768409D01*
X187909209Y-77730314D01*
X188594923Y-77006504D02*
X188861590Y-77806504D01*
X189128257Y-77006504D01*
D12*
X139169333Y-82652904D02*
X139169333Y-77652904D01*
X140359809Y-77652904D01*
X141074095Y-77891000D01*
X141550285Y-78367190D01*
X141788380Y-78843380D01*
X142026476Y-79795761D01*
X142026476Y-80510047D01*
X141788380Y-81462428D01*
X141550285Y-81938619D01*
X141074095Y-82414809D01*
X140359809Y-82652904D01*
X139169333Y-82652904D01*
X144169333Y-82652904D02*
X144169333Y-77652904D01*
X147026476Y-82652904D01*
X147026476Y-77652904D01*
X149407428Y-82652904D02*
X149407428Y-77652904D01*
X151074095Y-81224333D01*
X152740761Y-77652904D01*
X152740761Y-82652904D01*
X154883619Y-82414809D02*
X155597904Y-82652904D01*
X156788380Y-82652904D01*
X157264571Y-82414809D01*
X157502666Y-82176714D01*
X157740761Y-81700523D01*
X157740761Y-81224333D01*
X157502666Y-80748142D01*
X157264571Y-80510047D01*
X156788380Y-80271952D01*
X155836000Y-80033857D01*
X155359809Y-79795761D01*
X155121714Y-79557666D01*
X154883619Y-79081476D01*
X154883619Y-78605285D01*
X155121714Y-78129095D01*
X155359809Y-77891000D01*
X155836000Y-77652904D01*
X157026476Y-77652904D01*
X157740761Y-77891000D01*
D13*
X136032620Y-75328000D02*
X73732620Y-75328000D01*
X73732620Y-75328000D02*
X73732620Y-93328000D01*
X73732620Y-93328000D02*
X136032620Y-93328000D01*
X136032620Y-93328000D02*
X136032620Y-75328000D01*
D14*
X133282620Y-87728000D02*
X133282620Y-87828000D01*
D15*
X180517800Y-78477600D02*
X180517800Y-79167600D01*
X180517800Y-83897600D02*
X180517800Y-83207600D01*
X179097800Y-79167600D02*
X179097800Y-83207600D01*
X181937800Y-79167600D02*
X179097800Y-79167600D01*
X181937800Y-83207600D02*
X181937800Y-79167600D01*
X179097800Y-83207600D02*
X181937800Y-83207600D01*
D16*
G36*
X146935429Y-88533740D02*
G01*
X147051483Y-88572012D01*
X147277414Y-88680127D01*
X147457540Y-88819529D01*
X147606516Y-89002100D01*
X147633053Y-89043528D01*
X147667482Y-89110671D01*
X147690380Y-89189588D01*
X147704816Y-89296584D01*
X147713860Y-89447968D01*
X147715086Y-89479396D01*
X147717066Y-89682801D01*
X147703032Y-89840347D01*
X147668765Y-89968572D01*
X147610047Y-90084011D01*
X147534085Y-90189050D01*
X147453277Y-90286765D01*
X147386138Y-90354704D01*
X147311535Y-90410392D01*
X147208334Y-90471355D01*
X147164425Y-90495604D01*
X147096744Y-90530562D01*
X147033835Y-90555035D01*
X146961966Y-90571211D01*
X146867406Y-90581276D01*
X146736426Y-90587419D01*
X146561175Y-90591707D01*
X146394259Y-90593029D01*
X146245778Y-90590356D01*
X146129477Y-90584213D01*
X146059103Y-90575125D01*
X146049622Y-90572175D01*
X145946093Y-90496387D01*
X145876647Y-90382656D01*
X145845067Y-90248846D01*
X145855139Y-90112820D01*
X145910648Y-89992444D01*
X145923413Y-89976507D01*
X145958982Y-89938488D01*
X145996856Y-89912464D01*
X146049969Y-89895385D01*
X146131258Y-89884203D01*
X146253659Y-89875866D01*
X146375851Y-89869852D01*
X146591053Y-89855732D01*
X146750659Y-89833541D01*
X146862456Y-89799082D01*
X146934231Y-89748155D01*
X146973768Y-89676563D01*
X146988854Y-89580107D01*
X146989800Y-89538819D01*
X146962801Y-89418833D01*
X146890914Y-89325744D01*
X146787801Y-89274122D01*
X146736126Y-89268300D01*
X146636587Y-89250398D01*
X146552120Y-89212750D01*
X146441492Y-89126616D01*
X146380580Y-89033804D01*
X146357315Y-88912979D01*
X146355856Y-88865799D01*
X146359489Y-88763960D01*
X146380243Y-88697976D01*
X146430416Y-88640386D01*
X146473159Y-88603861D01*
X146603875Y-88528955D01*
X146755747Y-88505703D01*
X146935429Y-88533740D01*
X146935429Y-88533740D01*
G37*
X146935429Y-88533740D02*
X147051483Y-88572012D01*
X147277414Y-88680127D01*
X147457540Y-88819529D01*
X147606516Y-89002100D01*
X147633053Y-89043528D01*
X147667482Y-89110671D01*
X147690380Y-89189588D01*
X147704816Y-89296584D01*
X147713860Y-89447968D01*
X147715086Y-89479396D01*
X147717066Y-89682801D01*
X147703032Y-89840347D01*
X147668765Y-89968572D01*
X147610047Y-90084011D01*
X147534085Y-90189050D01*
X147453277Y-90286765D01*
X147386138Y-90354704D01*
X147311535Y-90410392D01*
X147208334Y-90471355D01*
X147164425Y-90495604D01*
X147096744Y-90530562D01*
X147033835Y-90555035D01*
X146961966Y-90571211D01*
X146867406Y-90581276D01*
X146736426Y-90587419D01*
X146561175Y-90591707D01*
X146394259Y-90593029D01*
X146245778Y-90590356D01*
X146129477Y-90584213D01*
X146059103Y-90575125D01*
X146049622Y-90572175D01*
X145946093Y-90496387D01*
X145876647Y-90382656D01*
X145845067Y-90248846D01*
X145855139Y-90112820D01*
X145910648Y-89992444D01*
X145923413Y-89976507D01*
X145958982Y-89938488D01*
X145996856Y-89912464D01*
X146049969Y-89895385D01*
X146131258Y-89884203D01*
X146253659Y-89875866D01*
X146375851Y-89869852D01*
X146591053Y-89855732D01*
X146750659Y-89833541D01*
X146862456Y-89799082D01*
X146934231Y-89748155D01*
X146973768Y-89676563D01*
X146988854Y-89580107D01*
X146989800Y-89538819D01*
X146962801Y-89418833D01*
X146890914Y-89325744D01*
X146787801Y-89274122D01*
X146736126Y-89268300D01*
X146636587Y-89250398D01*
X146552120Y-89212750D01*
X146441492Y-89126616D01*
X146380580Y-89033804D01*
X146357315Y-88912979D01*
X146355856Y-88865799D01*
X146359489Y-88763960D01*
X146380243Y-88697976D01*
X146430416Y-88640386D01*
X146473159Y-88603861D01*
X146603875Y-88528955D01*
X146755747Y-88505703D01*
X146935429Y-88533740D01*
G36*
X141613959Y-84513785D02*
G01*
X141862561Y-84536623D01*
X142076919Y-84572640D01*
X142245714Y-84620161D01*
X142312696Y-84649368D01*
X142382621Y-84682081D01*
X142426859Y-84696097D01*
X142427216Y-84696104D01*
X142464244Y-84711125D01*
X142542235Y-84751196D01*
X142647457Y-84809111D01*
X142704399Y-84841590D01*
X142926402Y-84989034D01*
X143149445Y-85171646D01*
X143354931Y-85372369D01*
X143524260Y-85574149D01*
X143562887Y-85628851D01*
X143699754Y-85832147D01*
X144003339Y-85830727D01*
X144194246Y-85836491D01*
X144382030Y-85853917D01*
X144549861Y-85880583D01*
X144680908Y-85914069D01*
X144733657Y-85935781D01*
X144790056Y-85963429D01*
X144879620Y-86005470D01*
X144937784Y-86032195D01*
X145017139Y-86075548D01*
X145119992Y-86141610D01*
X145234125Y-86221235D01*
X145347318Y-86305275D01*
X145447353Y-86384581D01*
X145522011Y-86450007D01*
X145559073Y-86492403D01*
X145561050Y-86498819D01*
X145580690Y-86535939D01*
X145628755Y-86595464D01*
X145636550Y-86603997D01*
X145701268Y-86688867D01*
X145777053Y-86810429D01*
X145853897Y-86949800D01*
X145921794Y-87088099D01*
X145970735Y-87206443D01*
X145988498Y-87268050D01*
X146013177Y-87366433D01*
X146043860Y-87449281D01*
X146044488Y-87450564D01*
X146066583Y-87515165D01*
X146046993Y-87539394D01*
X145982734Y-87523786D01*
X145888702Y-87478502D01*
X145716880Y-87391214D01*
X145578513Y-87332033D01*
X145454344Y-87293660D01*
X145342356Y-87271440D01*
X145221175Y-87241992D01*
X145145839Y-87195699D01*
X145123770Y-87169314D01*
X144990012Y-86999473D01*
X144840771Y-86860316D01*
X144660406Y-86739610D01*
X144433273Y-86625117D01*
X144421023Y-86619611D01*
X144357190Y-86604963D01*
X144247848Y-86593453D01*
X144110967Y-86586627D01*
X144024148Y-86585425D01*
X143850775Y-86588923D01*
X143717541Y-86603180D01*
X143601288Y-86633836D01*
X143478860Y-86686533D01*
X143365401Y-86745902D01*
X143294118Y-86781842D01*
X143259066Y-86779232D01*
X143241694Y-86728600D01*
X143233205Y-86678397D01*
X143198230Y-86555521D01*
X143132673Y-86401974D01*
X143046219Y-86236187D01*
X142948555Y-86076586D01*
X142849369Y-85941600D01*
X142840182Y-85930683D01*
X142669183Y-85753786D01*
X142477607Y-85594552D01*
X142285515Y-85468846D01*
X142203028Y-85426885D01*
X142105670Y-85381849D01*
X142026169Y-85343768D01*
X141999773Y-85330418D01*
X141899336Y-85295612D01*
X141751090Y-85268065D01*
X141570477Y-85249394D01*
X141372935Y-85241216D01*
X141181904Y-85244728D01*
X140874578Y-85279443D01*
X140603459Y-85353447D01*
X140350968Y-85472273D01*
X140239425Y-85541388D01*
X140117972Y-85633938D01*
X139985671Y-85753822D01*
X139857544Y-85885469D01*
X139748611Y-86013306D01*
X139673893Y-86121763D01*
X139666721Y-86135092D01*
X139627069Y-86206695D01*
X139597784Y-86249642D01*
X139595259Y-86252050D01*
X139569002Y-86294191D01*
X139531090Y-86379462D01*
X139488195Y-86490195D01*
X139446987Y-86608721D01*
X139414137Y-86717371D01*
X139403471Y-86760050D01*
X139383896Y-86890786D01*
X139374201Y-87052879D01*
X139373598Y-87231787D01*
X139381302Y-87412964D01*
X139396527Y-87581866D01*
X139418486Y-87723951D01*
X139446395Y-87824674D01*
X139462662Y-87855425D01*
X139488924Y-87904602D01*
X139522893Y-87984131D01*
X139528364Y-87998300D01*
X139639576Y-88219614D01*
X139799764Y-88440391D01*
X139995873Y-88646503D01*
X140214849Y-88823824D01*
X140391224Y-88932060D01*
X140479355Y-88978142D01*
X140559539Y-89017940D01*
X140636984Y-89051914D01*
X140716898Y-89080526D01*
X140804488Y-89104236D01*
X140904960Y-89123504D01*
X141023524Y-89138792D01*
X141165386Y-89150559D01*
X141335753Y-89159266D01*
X141539834Y-89165375D01*
X141782835Y-89169345D01*
X142069964Y-89171637D01*
X142406429Y-89172712D01*
X142797436Y-89173030D01*
X143115684Y-89173050D01*
X145139027Y-89173050D01*
X145223038Y-89095191D01*
X145281292Y-89023731D01*
X145304714Y-88936612D01*
X145307050Y-88878475D01*
X145284508Y-88747260D01*
X145214599Y-88655060D01*
X145093892Y-88598337D01*
X145020943Y-88583271D01*
X144862999Y-88529740D01*
X144775237Y-88464330D01*
X144711521Y-88395265D01*
X144681341Y-88327946D01*
X144673122Y-88233134D01*
X144673106Y-88206384D01*
X144689959Y-88065724D01*
X144745416Y-87963600D01*
X144850090Y-87883704D01*
X144899659Y-87858286D01*
X144961024Y-87832022D01*
X145015382Y-87821149D01*
X145081944Y-87826086D01*
X145179920Y-87847252D01*
X145254365Y-87866015D01*
X145513559Y-87959602D01*
X145724853Y-88094421D01*
X145886962Y-88268834D01*
X145998599Y-88481203D01*
X146058479Y-88729888D01*
X146069050Y-88903933D01*
X146065767Y-89027624D01*
X146057026Y-89125327D01*
X146044488Y-89180979D01*
X146039742Y-89187415D01*
X146012070Y-89229072D01*
X145990917Y-89294394D01*
X145950892Y-89383310D01*
X145872542Y-89492465D01*
X145769962Y-89606260D01*
X145657245Y-89709093D01*
X145548487Y-89785365D01*
X145546152Y-89786678D01*
X145491447Y-89816007D01*
X145436677Y-89841198D01*
X145376781Y-89862568D01*
X145306696Y-89880428D01*
X145221359Y-89895093D01*
X145115709Y-89906876D01*
X144984681Y-89916091D01*
X144823214Y-89923051D01*
X144626244Y-89928071D01*
X144388711Y-89931463D01*
X144105550Y-89933542D01*
X143771699Y-89934620D01*
X143382097Y-89935013D01*
X143151123Y-89935050D01*
X141220572Y-89935050D01*
X141136561Y-90012908D01*
X141069847Y-90114523D01*
X141050982Y-90237951D01*
X141080946Y-90362161D01*
X141117491Y-90421795D01*
X141182432Y-90504355D01*
X143236803Y-90513390D01*
X145291175Y-90522425D01*
X145488876Y-90628887D01*
X145706316Y-90777562D01*
X145875336Y-90958392D01*
X145994660Y-91163283D01*
X146063012Y-91384140D01*
X146079116Y-91612868D01*
X146041695Y-91841371D01*
X145949473Y-92061556D01*
X145801173Y-92265327D01*
X145754475Y-92313450D01*
X145595879Y-92441683D01*
X145425011Y-92522900D01*
X145225642Y-92563182D01*
X145069209Y-92570300D01*
X144947111Y-92567986D01*
X144868715Y-92557288D01*
X144814281Y-92532569D01*
X144764070Y-92488191D01*
X144757365Y-92481250D01*
X144702119Y-92409321D01*
X144677064Y-92327980D01*
X144672050Y-92233190D01*
X144691036Y-92098584D01*
X144752401Y-91996003D01*
X144862749Y-91918651D01*
X145028686Y-91859731D01*
X145037175Y-91857506D01*
X145145006Y-91822829D01*
X145230109Y-91783318D01*
X145267362Y-91754524D01*
X145295713Y-91678806D01*
X145305970Y-91572084D01*
X145297410Y-91464434D01*
X145275970Y-91396802D01*
X145259726Y-91371169D01*
X145237368Y-91349192D01*
X145204217Y-91330590D01*
X145155594Y-91315082D01*
X145086820Y-91302390D01*
X144993216Y-91292232D01*
X144870103Y-91284328D01*
X144712801Y-91278398D01*
X144516633Y-91274163D01*
X144276918Y-91271341D01*
X143988979Y-91269653D01*
X143648135Y-91268819D01*
X143249708Y-91268558D01*
X143134107Y-91268550D01*
X142710718Y-91268449D01*
X142345840Y-91267854D01*
X142034482Y-91266321D01*
X141771656Y-91263408D01*
X141552372Y-91258671D01*
X141371640Y-91251668D01*
X141224470Y-91241957D01*
X141105875Y-91229094D01*
X141010863Y-91212637D01*
X140934445Y-91192143D01*
X140871632Y-91167170D01*
X140817434Y-91137275D01*
X140766862Y-91102015D01*
X140714926Y-91060948D01*
X140705221Y-91053046D01*
X140565559Y-90931604D01*
X140470495Y-90828587D01*
X140409356Y-90731154D01*
X140382938Y-90665300D01*
X140351376Y-90583407D01*
X140321876Y-90528163D01*
X140318464Y-90524012D01*
X140300275Y-90470853D01*
X140291254Y-90373203D01*
X140290783Y-90249313D01*
X140298243Y-90117432D01*
X140313015Y-89995813D01*
X140334480Y-89902705D01*
X140340034Y-89887870D01*
X140368799Y-89812315D01*
X140380651Y-89767170D01*
X140379722Y-89762484D01*
X140347788Y-89746586D01*
X140275903Y-89712995D01*
X140211175Y-89683352D01*
X139956541Y-89546837D01*
X139702051Y-89372789D01*
X139463131Y-89174048D01*
X139255205Y-88963453D01*
X139093697Y-88753845D01*
X139092735Y-88752363D01*
X139039406Y-88671843D01*
X139000073Y-88615636D01*
X138988775Y-88601550D01*
X138967727Y-88566649D01*
X138928725Y-88490811D01*
X138882465Y-88395175D01*
X138831087Y-88287279D01*
X138786680Y-88195898D01*
X138761637Y-88146202D01*
X138722310Y-88036440D01*
X138689959Y-87876565D01*
X138665187Y-87679643D01*
X138648601Y-87458741D01*
X138640804Y-87226924D01*
X138642402Y-86997260D01*
X138654000Y-86782813D01*
X138676202Y-86596652D01*
X138687177Y-86537790D01*
X138791076Y-86192873D01*
X138952025Y-85859817D01*
X139163719Y-85546164D01*
X139419853Y-85259460D01*
X139714125Y-85007247D01*
X140040228Y-84797070D01*
X140215309Y-84709160D01*
X140433702Y-84622583D01*
X140658654Y-84562035D01*
X140905990Y-84524661D01*
X141191531Y-84507607D01*
X141342431Y-84505799D01*
X141613959Y-84513785D01*
X141613959Y-84513785D01*
G37*
X141613959Y-84513785D02*
X141862561Y-84536623D01*
X142076919Y-84572640D01*
X142245714Y-84620161D01*
X142312696Y-84649368D01*
X142382621Y-84682081D01*
X142426859Y-84696097D01*
X142427216Y-84696104D01*
X142464244Y-84711125D01*
X142542235Y-84751196D01*
X142647457Y-84809111D01*
X142704399Y-84841590D01*
X142926402Y-84989034D01*
X143149445Y-85171646D01*
X143354931Y-85372369D01*
X143524260Y-85574149D01*
X143562887Y-85628851D01*
X143699754Y-85832147D01*
X144003339Y-85830727D01*
X144194246Y-85836491D01*
X144382030Y-85853917D01*
X144549861Y-85880583D01*
X144680908Y-85914069D01*
X144733657Y-85935781D01*
X144790056Y-85963429D01*
X144879620Y-86005470D01*
X144937784Y-86032195D01*
X145017139Y-86075548D01*
X145119992Y-86141610D01*
X145234125Y-86221235D01*
X145347318Y-86305275D01*
X145447353Y-86384581D01*
X145522011Y-86450007D01*
X145559073Y-86492403D01*
X145561050Y-86498819D01*
X145580690Y-86535939D01*
X145628755Y-86595464D01*
X145636550Y-86603997D01*
X145701268Y-86688867D01*
X145777053Y-86810429D01*
X145853897Y-86949800D01*
X145921794Y-87088099D01*
X145970735Y-87206443D01*
X145988498Y-87268050D01*
X146013177Y-87366433D01*
X146043860Y-87449281D01*
X146044488Y-87450564D01*
X146066583Y-87515165D01*
X146046993Y-87539394D01*
X145982734Y-87523786D01*
X145888702Y-87478502D01*
X145716880Y-87391214D01*
X145578513Y-87332033D01*
X145454344Y-87293660D01*
X145342356Y-87271440D01*
X145221175Y-87241992D01*
X145145839Y-87195699D01*
X145123770Y-87169314D01*
X144990012Y-86999473D01*
X144840771Y-86860316D01*
X144660406Y-86739610D01*
X144433273Y-86625117D01*
X144421023Y-86619611D01*
X144357190Y-86604963D01*
X144247848Y-86593453D01*
X144110967Y-86586627D01*
X144024148Y-86585425D01*
X143850775Y-86588923D01*
X143717541Y-86603180D01*
X143601288Y-86633836D01*
X143478860Y-86686533D01*
X143365401Y-86745902D01*
X143294118Y-86781842D01*
X143259066Y-86779232D01*
X143241694Y-86728600D01*
X143233205Y-86678397D01*
X143198230Y-86555521D01*
X143132673Y-86401974D01*
X143046219Y-86236187D01*
X142948555Y-86076586D01*
X142849369Y-85941600D01*
X142840182Y-85930683D01*
X142669183Y-85753786D01*
X142477607Y-85594552D01*
X142285515Y-85468846D01*
X142203028Y-85426885D01*
X142105670Y-85381849D01*
X142026169Y-85343768D01*
X141999773Y-85330418D01*
X141899336Y-85295612D01*
X141751090Y-85268065D01*
X141570477Y-85249394D01*
X141372935Y-85241216D01*
X141181904Y-85244728D01*
X140874578Y-85279443D01*
X140603459Y-85353447D01*
X140350968Y-85472273D01*
X140239425Y-85541388D01*
X140117972Y-85633938D01*
X139985671Y-85753822D01*
X139857544Y-85885469D01*
X139748611Y-86013306D01*
X139673893Y-86121763D01*
X139666721Y-86135092D01*
X139627069Y-86206695D01*
X139597784Y-86249642D01*
X139595259Y-86252050D01*
X139569002Y-86294191D01*
X139531090Y-86379462D01*
X139488195Y-86490195D01*
X139446987Y-86608721D01*
X139414137Y-86717371D01*
X139403471Y-86760050D01*
X139383896Y-86890786D01*
X139374201Y-87052879D01*
X139373598Y-87231787D01*
X139381302Y-87412964D01*
X139396527Y-87581866D01*
X139418486Y-87723951D01*
X139446395Y-87824674D01*
X139462662Y-87855425D01*
X139488924Y-87904602D01*
X139522893Y-87984131D01*
X139528364Y-87998300D01*
X139639576Y-88219614D01*
X139799764Y-88440391D01*
X139995873Y-88646503D01*
X140214849Y-88823824D01*
X140391224Y-88932060D01*
X140479355Y-88978142D01*
X140559539Y-89017940D01*
X140636984Y-89051914D01*
X140716898Y-89080526D01*
X140804488Y-89104236D01*
X140904960Y-89123504D01*
X141023524Y-89138792D01*
X141165386Y-89150559D01*
X141335753Y-89159266D01*
X141539834Y-89165375D01*
X141782835Y-89169345D01*
X142069964Y-89171637D01*
X142406429Y-89172712D01*
X142797436Y-89173030D01*
X143115684Y-89173050D01*
X145139027Y-89173050D01*
X145223038Y-89095191D01*
X145281292Y-89023731D01*
X145304714Y-88936612D01*
X145307050Y-88878475D01*
X145284508Y-88747260D01*
X145214599Y-88655060D01*
X145093892Y-88598337D01*
X145020943Y-88583271D01*
X144862999Y-88529740D01*
X144775237Y-88464330D01*
X144711521Y-88395265D01*
X144681341Y-88327946D01*
X144673122Y-88233134D01*
X144673106Y-88206384D01*
X144689959Y-88065724D01*
X144745416Y-87963600D01*
X144850090Y-87883704D01*
X144899659Y-87858286D01*
X144961024Y-87832022D01*
X145015382Y-87821149D01*
X145081944Y-87826086D01*
X145179920Y-87847252D01*
X145254365Y-87866015D01*
X145513559Y-87959602D01*
X145724853Y-88094421D01*
X145886962Y-88268834D01*
X145998599Y-88481203D01*
X146058479Y-88729888D01*
X146069050Y-88903933D01*
X146065767Y-89027624D01*
X146057026Y-89125327D01*
X146044488Y-89180979D01*
X146039742Y-89187415D01*
X146012070Y-89229072D01*
X145990917Y-89294394D01*
X145950892Y-89383310D01*
X145872542Y-89492465D01*
X145769962Y-89606260D01*
X145657245Y-89709093D01*
X145548487Y-89785365D01*
X145546152Y-89786678D01*
X145491447Y-89816007D01*
X145436677Y-89841198D01*
X145376781Y-89862568D01*
X145306696Y-89880428D01*
X145221359Y-89895093D01*
X145115709Y-89906876D01*
X144984681Y-89916091D01*
X144823214Y-89923051D01*
X144626244Y-89928071D01*
X144388711Y-89931463D01*
X144105550Y-89933542D01*
X143771699Y-89934620D01*
X143382097Y-89935013D01*
X143151123Y-89935050D01*
X141220572Y-89935050D01*
X141136561Y-90012908D01*
X141069847Y-90114523D01*
X141050982Y-90237951D01*
X141080946Y-90362161D01*
X141117491Y-90421795D01*
X141182432Y-90504355D01*
X143236803Y-90513390D01*
X145291175Y-90522425D01*
X145488876Y-90628887D01*
X145706316Y-90777562D01*
X145875336Y-90958392D01*
X145994660Y-91163283D01*
X146063012Y-91384140D01*
X146079116Y-91612868D01*
X146041695Y-91841371D01*
X145949473Y-92061556D01*
X145801173Y-92265327D01*
X145754475Y-92313450D01*
X145595879Y-92441683D01*
X145425011Y-92522900D01*
X145225642Y-92563182D01*
X145069209Y-92570300D01*
X144947111Y-92567986D01*
X144868715Y-92557288D01*
X144814281Y-92532569D01*
X144764070Y-92488191D01*
X144757365Y-92481250D01*
X144702119Y-92409321D01*
X144677064Y-92327980D01*
X144672050Y-92233190D01*
X144691036Y-92098584D01*
X144752401Y-91996003D01*
X144862749Y-91918651D01*
X145028686Y-91859731D01*
X145037175Y-91857506D01*
X145145006Y-91822829D01*
X145230109Y-91783318D01*
X145267362Y-91754524D01*
X145295713Y-91678806D01*
X145305970Y-91572084D01*
X145297410Y-91464434D01*
X145275970Y-91396802D01*
X145259726Y-91371169D01*
X145237368Y-91349192D01*
X145204217Y-91330590D01*
X145155594Y-91315082D01*
X145086820Y-91302390D01*
X144993216Y-91292232D01*
X144870103Y-91284328D01*
X144712801Y-91278398D01*
X144516633Y-91274163D01*
X144276918Y-91271341D01*
X143988979Y-91269653D01*
X143648135Y-91268819D01*
X143249708Y-91268558D01*
X143134107Y-91268550D01*
X142710718Y-91268449D01*
X142345840Y-91267854D01*
X142034482Y-91266321D01*
X141771656Y-91263408D01*
X141552372Y-91258671D01*
X141371640Y-91251668D01*
X141224470Y-91241957D01*
X141105875Y-91229094D01*
X141010863Y-91212637D01*
X140934445Y-91192143D01*
X140871632Y-91167170D01*
X140817434Y-91137275D01*
X140766862Y-91102015D01*
X140714926Y-91060948D01*
X140705221Y-91053046D01*
X140565559Y-90931604D01*
X140470495Y-90828587D01*
X140409356Y-90731154D01*
X140382938Y-90665300D01*
X140351376Y-90583407D01*
X140321876Y-90528163D01*
X140318464Y-90524012D01*
X140300275Y-90470853D01*
X140291254Y-90373203D01*
X140290783Y-90249313D01*
X140298243Y-90117432D01*
X140313015Y-89995813D01*
X140334480Y-89902705D01*
X140340034Y-89887870D01*
X140368799Y-89812315D01*
X140380651Y-89767170D01*
X140379722Y-89762484D01*
X140347788Y-89746586D01*
X140275903Y-89712995D01*
X140211175Y-89683352D01*
X139956541Y-89546837D01*
X139702051Y-89372789D01*
X139463131Y-89174048D01*
X139255205Y-88963453D01*
X139093697Y-88753845D01*
X139092735Y-88752363D01*
X139039406Y-88671843D01*
X139000073Y-88615636D01*
X138988775Y-88601550D01*
X138967727Y-88566649D01*
X138928725Y-88490811D01*
X138882465Y-88395175D01*
X138831087Y-88287279D01*
X138786680Y-88195898D01*
X138761637Y-88146202D01*
X138722310Y-88036440D01*
X138689959Y-87876565D01*
X138665187Y-87679643D01*
X138648601Y-87458741D01*
X138640804Y-87226924D01*
X138642402Y-86997260D01*
X138654000Y-86782813D01*
X138676202Y-86596652D01*
X138687177Y-86537790D01*
X138791076Y-86192873D01*
X138952025Y-85859817D01*
X139163719Y-85546164D01*
X139419853Y-85259460D01*
X139714125Y-85007247D01*
X140040228Y-84797070D01*
X140215309Y-84709160D01*
X140433702Y-84622583D01*
X140658654Y-84562035D01*
X140905990Y-84524661D01*
X141191531Y-84507607D01*
X141342431Y-84505799D01*
X141613959Y-84513785D01*
D15*
X68520000Y-79950000D02*
X69850000Y-79950000D01*
X68520000Y-81280000D02*
X68520000Y-79950000D01*
X68520000Y-82550000D02*
X71180000Y-82550000D01*
X71180000Y-82550000D02*
X71180000Y-87690000D01*
X68520000Y-82550000D02*
X68520000Y-87690000D01*
X68520000Y-87690000D02*
X71180000Y-87690000D01*
X63440000Y-79950000D02*
X64770000Y-79950000D01*
X63440000Y-81280000D02*
X63440000Y-79950000D01*
X63440000Y-82550000D02*
X66100000Y-82550000D01*
X66100000Y-82550000D02*
X66100000Y-87690000D01*
X63440000Y-82550000D02*
X63440000Y-87690000D01*
X63440000Y-87690000D02*
X66100000Y-87690000D01*
X187646000Y-83252000D02*
X188976000Y-83252000D01*
X187646000Y-84582000D02*
X187646000Y-83252000D01*
X187646000Y-85852000D02*
X190306000Y-85852000D01*
X190306000Y-85852000D02*
X190306000Y-93532000D01*
X187646000Y-85852000D02*
X187646000Y-93532000D01*
X187646000Y-93532000D02*
X190306000Y-93532000D01*
X183328000Y-76140000D02*
X184658000Y-76140000D01*
X183328000Y-77470000D02*
X183328000Y-76140000D01*
X183328000Y-78740000D02*
X185988000Y-78740000D01*
X185988000Y-78740000D02*
X185988000Y-86420000D01*
X183328000Y-78740000D02*
X183328000Y-86420000D01*
X183328000Y-86420000D02*
X185988000Y-86420000D01*
X161350000Y-90618000D02*
X161350000Y-91948000D01*
X160020000Y-90618000D02*
X161350000Y-90618000D01*
X158750000Y-90618000D02*
X158750000Y-93278000D01*
X158750000Y-93278000D02*
X156150000Y-93278000D01*
X158750000Y-90618000D02*
X156150000Y-90618000D01*
X156150000Y-90618000D02*
X156150000Y-93278000D01*
D14*
X167563800Y-77444600D02*
X167563800Y-83591400D01*
X177368200Y-83591400D02*
X177368200Y-80822800D01*
X177368200Y-80822800D02*
X177368200Y-80213200D01*
X177368200Y-80213200D02*
X177368200Y-78003400D01*
X177368200Y-80822800D02*
G75*
G02X177368200Y-80213200I0J304800D01*
G01*
D15*
X161544000Y-77748000D02*
X161544000Y-78518000D01*
X161544000Y-85828000D02*
X161544000Y-85058000D01*
X160174000Y-78518000D02*
X160174000Y-85058000D01*
X162914000Y-78518000D02*
X160174000Y-78518000D01*
X162914000Y-85058000D02*
X162914000Y-78518000D01*
X160174000Y-85058000D02*
X162914000Y-85058000D01*
X165100000Y-77748000D02*
X165100000Y-78518000D01*
X165100000Y-85828000D02*
X165100000Y-85058000D01*
X163730000Y-78518000D02*
X163730000Y-85058000D01*
X166470000Y-78518000D02*
X163730000Y-78518000D01*
X166470000Y-85058000D02*
X166470000Y-78518000D01*
X163730000Y-85058000D02*
X166470000Y-85058000D01*
D17*
X130556095Y-79335380D02*
X130556095Y-80144904D01*
X130603714Y-80240142D01*
X130651333Y-80287761D01*
X130746571Y-80335380D01*
X130937047Y-80335380D01*
X131032285Y-80287761D01*
X131079904Y-80240142D01*
X131127523Y-80144904D01*
X131127523Y-79335380D01*
X131556095Y-79430619D02*
X131603714Y-79383000D01*
X131698952Y-79335380D01*
X131937047Y-79335380D01*
X132032285Y-79383000D01*
X132079904Y-79430619D01*
X132127523Y-79525857D01*
X132127523Y-79621095D01*
X132079904Y-79763952D01*
X131508476Y-80335380D01*
X132127523Y-80335380D01*
X74914571Y-79208380D02*
X75486000Y-79208380D01*
X75200285Y-80208380D02*
X75200285Y-79208380D01*
X76200285Y-80160761D02*
X76105047Y-80208380D01*
X75914571Y-80208380D01*
X75819333Y-80160761D01*
X75771714Y-80065523D01*
X75771714Y-79684571D01*
X75819333Y-79589333D01*
X75914571Y-79541714D01*
X76105047Y-79541714D01*
X76200285Y-79589333D01*
X76247904Y-79684571D01*
X76247904Y-79779809D01*
X75771714Y-79875047D01*
X77057428Y-80160761D02*
X76962190Y-80208380D01*
X76771714Y-80208380D01*
X76676476Y-80160761D01*
X76628857Y-80065523D01*
X76628857Y-79684571D01*
X76676476Y-79589333D01*
X76771714Y-79541714D01*
X76962190Y-79541714D01*
X77057428Y-79589333D01*
X77105047Y-79684571D01*
X77105047Y-79779809D01*
X76628857Y-79875047D01*
X77533619Y-79541714D02*
X77533619Y-80208380D01*
X77533619Y-79636952D02*
X77581238Y-79589333D01*
X77676476Y-79541714D01*
X77819333Y-79541714D01*
X77914571Y-79589333D01*
X77962190Y-79684571D01*
X77962190Y-80208380D01*
X78390761Y-80160761D02*
X78486000Y-80208380D01*
X78676476Y-80208380D01*
X78771714Y-80160761D01*
X78819333Y-80065523D01*
X78819333Y-80017904D01*
X78771714Y-79922666D01*
X78676476Y-79875047D01*
X78533619Y-79875047D01*
X78438380Y-79827428D01*
X78390761Y-79732190D01*
X78390761Y-79684571D01*
X78438380Y-79589333D01*
X78533619Y-79541714D01*
X78676476Y-79541714D01*
X78771714Y-79589333D01*
X79152666Y-79541714D02*
X79390761Y-80208380D01*
X79628857Y-79541714D02*
X79390761Y-80208380D01*
X79295523Y-80446476D01*
X79247904Y-80494095D01*
X79152666Y-80541714D01*
X79914571Y-79208380D02*
X80533619Y-79208380D01*
X80200285Y-79589333D01*
X80343142Y-79589333D01*
X80438380Y-79636952D01*
X80486000Y-79684571D01*
X80533619Y-79779809D01*
X80533619Y-80017904D01*
X80486000Y-80113142D01*
X80438380Y-80160761D01*
X80343142Y-80208380D01*
X80057428Y-80208380D01*
X79962190Y-80160761D01*
X79914571Y-80113142D01*
X80962190Y-80113142D02*
X81009809Y-80160761D01*
X80962190Y-80208380D01*
X80914571Y-80160761D01*
X80962190Y-80113142D01*
X80962190Y-80208380D01*
X81866952Y-79208380D02*
X81676476Y-79208380D01*
X81581238Y-79256000D01*
X81533619Y-79303619D01*
X81438380Y-79446476D01*
X81390761Y-79636952D01*
X81390761Y-80017904D01*
X81438380Y-80113142D01*
X81486000Y-80160761D01*
X81581238Y-80208380D01*
X81771714Y-80208380D01*
X81866952Y-80160761D01*
X81914571Y-80113142D01*
X81962190Y-80017904D01*
X81962190Y-79779809D01*
X81914571Y-79684571D01*
X81866952Y-79636952D01*
X81771714Y-79589333D01*
X81581238Y-79589333D01*
X81486000Y-79636952D01*
X81438380Y-79684571D01*
X81390761Y-79779809D01*
X178665142Y-81192666D02*
X178712761Y-81240285D01*
X178760380Y-81383142D01*
X178760380Y-81478380D01*
X178712761Y-81621238D01*
X178617523Y-81716476D01*
X178522285Y-81764095D01*
X178331809Y-81811714D01*
X178188952Y-81811714D01*
X177998476Y-81764095D01*
X177903238Y-81716476D01*
X177808000Y-81621238D01*
X177760380Y-81478380D01*
X177760380Y-81383142D01*
X177808000Y-81240285D01*
X177855619Y-81192666D01*
X178760380Y-80240285D02*
X178760380Y-80811714D01*
X178760380Y-80526000D02*
X177760380Y-80526000D01*
X177903238Y-80621238D01*
X177998476Y-80716476D01*
X178046095Y-80811714D01*
X69770666Y-77938380D02*
X69770666Y-78652666D01*
X69723047Y-78795523D01*
X69627809Y-78890761D01*
X69484952Y-78938380D01*
X69389714Y-78938380D01*
X70723047Y-77938380D02*
X70246857Y-77938380D01*
X70199238Y-78414571D01*
X70246857Y-78366952D01*
X70342095Y-78319333D01*
X70580190Y-78319333D01*
X70675428Y-78366952D01*
X70723047Y-78414571D01*
X70770666Y-78509809D01*
X70770666Y-78747904D01*
X70723047Y-78843142D01*
X70675428Y-78890761D01*
X70580190Y-78938380D01*
X70342095Y-78938380D01*
X70246857Y-78890761D01*
X70199238Y-78843142D01*
X64436666Y-77938380D02*
X64436666Y-78652666D01*
X64389047Y-78795523D01*
X64293809Y-78890761D01*
X64150952Y-78938380D01*
X64055714Y-78938380D01*
X65341428Y-78271714D02*
X65341428Y-78938380D01*
X65103333Y-77890761D02*
X64865238Y-78605047D01*
X65484285Y-78605047D01*
X191335066Y-92467180D02*
X191335066Y-93181466D01*
X191287447Y-93324323D01*
X191192209Y-93419561D01*
X191049352Y-93467180D01*
X190954114Y-93467180D01*
X191716019Y-92467180D02*
X192335066Y-92467180D01*
X192001733Y-92848133D01*
X192144590Y-92848133D01*
X192239828Y-92895752D01*
X192287447Y-92943371D01*
X192335066Y-93038609D01*
X192335066Y-93276704D01*
X192287447Y-93371942D01*
X192239828Y-93419561D01*
X192144590Y-93467180D01*
X191858876Y-93467180D01*
X191763638Y-93419561D01*
X191716019Y-93371942D01*
X187067866Y-74814180D02*
X187067866Y-75528466D01*
X187020247Y-75671323D01*
X186925009Y-75766561D01*
X186782152Y-75814180D01*
X186686914Y-75814180D01*
X187496438Y-74909419D02*
X187544057Y-74861800D01*
X187639295Y-74814180D01*
X187877390Y-74814180D01*
X187972628Y-74861800D01*
X188020247Y-74909419D01*
X188067866Y-75004657D01*
X188067866Y-75099895D01*
X188020247Y-75242752D01*
X187448819Y-75814180D01*
X188067866Y-75814180D01*
X154352666Y-91400380D02*
X154352666Y-92114666D01*
X154305047Y-92257523D01*
X154209809Y-92352761D01*
X154066952Y-92400380D01*
X153971714Y-92400380D01*
X155352666Y-92400380D02*
X154781238Y-92400380D01*
X155066952Y-92400380D02*
X155066952Y-91400380D01*
X154971714Y-91543238D01*
X154876476Y-91638476D01*
X154781238Y-91686095D01*
X171704095Y-81240380D02*
X171704095Y-82049904D01*
X171751714Y-82145142D01*
X171799333Y-82192761D01*
X171894571Y-82240380D01*
X172085047Y-82240380D01*
X172180285Y-82192761D01*
X172227904Y-82145142D01*
X172275523Y-82049904D01*
X172275523Y-81240380D01*
X173275523Y-82240380D02*
X172704095Y-82240380D01*
X172989809Y-82240380D02*
X172989809Y-81240380D01*
X172894571Y-81383238D01*
X172799333Y-81478476D01*
X172704095Y-81526095D01*
X169323142Y-79954380D02*
X169323142Y-78954380D01*
X169704095Y-78954380D01*
X169799333Y-79002000D01*
X169846952Y-79049619D01*
X169894571Y-79144857D01*
X169894571Y-79287714D01*
X169846952Y-79382952D01*
X169799333Y-79430571D01*
X169704095Y-79478190D01*
X169323142Y-79478190D01*
X170466000Y-79382952D02*
X170370761Y-79335333D01*
X170323142Y-79287714D01*
X170275523Y-79192476D01*
X170275523Y-79144857D01*
X170323142Y-79049619D01*
X170370761Y-79002000D01*
X170466000Y-78954380D01*
X170656476Y-78954380D01*
X170751714Y-79002000D01*
X170799333Y-79049619D01*
X170846952Y-79144857D01*
X170846952Y-79192476D01*
X170799333Y-79287714D01*
X170751714Y-79335333D01*
X170656476Y-79382952D01*
X170466000Y-79382952D01*
X170370761Y-79430571D01*
X170323142Y-79478190D01*
X170275523Y-79573428D01*
X170275523Y-79763904D01*
X170323142Y-79859142D01*
X170370761Y-79906761D01*
X170466000Y-79954380D01*
X170656476Y-79954380D01*
X170751714Y-79906761D01*
X170799333Y-79859142D01*
X170846952Y-79763904D01*
X170846952Y-79573428D01*
X170799333Y-79478190D01*
X170751714Y-79430571D01*
X170656476Y-79382952D01*
X171227904Y-79049619D02*
X171275523Y-79002000D01*
X171370761Y-78954380D01*
X171608857Y-78954380D01*
X171704095Y-79002000D01*
X171751714Y-79049619D01*
X171799333Y-79144857D01*
X171799333Y-79240095D01*
X171751714Y-79382952D01*
X171180285Y-79954380D01*
X171799333Y-79954380D01*
X172561238Y-79430571D02*
X172704095Y-79478190D01*
X172751714Y-79525809D01*
X172799333Y-79621047D01*
X172799333Y-79763904D01*
X172751714Y-79859142D01*
X172704095Y-79906761D01*
X172608857Y-79954380D01*
X172227904Y-79954380D01*
X172227904Y-78954380D01*
X172561238Y-78954380D01*
X172656476Y-79002000D01*
X172704095Y-79049619D01*
X172751714Y-79144857D01*
X172751714Y-79240095D01*
X172704095Y-79335333D01*
X172656476Y-79382952D01*
X172561238Y-79430571D01*
X172227904Y-79430571D01*
X173132666Y-78954380D02*
X173799333Y-78954380D01*
X173370761Y-79954380D01*
X174704095Y-79954380D02*
X174132666Y-79954380D01*
X174418380Y-79954380D02*
X174418380Y-78954380D01*
X174323142Y-79097238D01*
X174227904Y-79192476D01*
X174132666Y-79240095D01*
X175608857Y-78954380D02*
X175132666Y-78954380D01*
X175085047Y-79430571D01*
X175132666Y-79382952D01*
X175227904Y-79335333D01*
X175466000Y-79335333D01*
X175561238Y-79382952D01*
X175608857Y-79430571D01*
X175656476Y-79525809D01*
X175656476Y-79763904D01*
X175608857Y-79859142D01*
X175561238Y-79906761D01*
X175466000Y-79954380D01*
X175227904Y-79954380D01*
X175132666Y-79906761D01*
X175085047Y-79859142D01*
X161970980Y-83732666D02*
X161494790Y-84066000D01*
X161970980Y-84304095D02*
X160970980Y-84304095D01*
X160970980Y-83923142D01*
X161018600Y-83827904D01*
X161066219Y-83780285D01*
X161161457Y-83732666D01*
X161304314Y-83732666D01*
X161399552Y-83780285D01*
X161447171Y-83827904D01*
X161494790Y-83923142D01*
X161494790Y-84304095D01*
X161066219Y-83351714D02*
X161018600Y-83304095D01*
X160970980Y-83208857D01*
X160970980Y-82970761D01*
X161018600Y-82875523D01*
X161066219Y-82827904D01*
X161161457Y-82780285D01*
X161256695Y-82780285D01*
X161399552Y-82827904D01*
X161970980Y-83399333D01*
X161970980Y-82780285D01*
X161329714Y-81462476D02*
X161996380Y-81462476D01*
X160948761Y-81700571D02*
X161663047Y-81938666D01*
X161663047Y-81319619D01*
X161996380Y-80938666D02*
X160996380Y-80938666D01*
X161615428Y-80843428D02*
X161996380Y-80557714D01*
X161329714Y-80557714D02*
X161710666Y-80938666D01*
X160996380Y-80224380D02*
X160996380Y-79557714D01*
X161996380Y-79986285D01*
X165526980Y-83758066D02*
X165050790Y-84091400D01*
X165526980Y-84329495D02*
X164526980Y-84329495D01*
X164526980Y-83948542D01*
X164574600Y-83853304D01*
X164622219Y-83805685D01*
X164717457Y-83758066D01*
X164860314Y-83758066D01*
X164955552Y-83805685D01*
X165003171Y-83853304D01*
X165050790Y-83948542D01*
X165050790Y-84329495D01*
X165526980Y-82805685D02*
X165526980Y-83377114D01*
X165526980Y-83091400D02*
X164526980Y-83091400D01*
X164669838Y-83186638D01*
X164765076Y-83281876D01*
X164812695Y-83377114D01*
X164885714Y-81462476D02*
X165552380Y-81462476D01*
X164504761Y-81700571D02*
X165219047Y-81938666D01*
X165219047Y-81319619D01*
X165552380Y-80938666D02*
X164552380Y-80938666D01*
X165171428Y-80843428D02*
X165552380Y-80557714D01*
X164885714Y-80557714D02*
X165266666Y-80938666D01*
X164552380Y-80224380D02*
X164552380Y-79557714D01*
X165552380Y-79986285D01*
M02*
