M48
; DRILL file {KiCad (5.1.4)-1} date 02.09.2019 19:22:34
; FORMAT={-:-/ absolute / inch / decimal}
; #@! TF.CreationDate,2019-09-02T19:22:34+02:00
; #@! TF.GenerationSoftware,Kicad,Pcbnew,(5.1.4)-1
; #@! TF.FileFunction,Plated,1,2,PTH
FMAT,2
INCH
T1C0.0276
T2C0.0315
T3C0.0394
T4C0.0433
%
G90
G05
T1
X4.381Y-2.4012
X4.44Y-2.4012
X4.4991Y-2.4012
X4.5581Y-2.4012
X4.6172Y-2.4012
T2
X4.9136Y-2.4597
X5.1105Y-2.4597
X2.6193Y-2.691
X2.8162Y-2.691
X4.9763Y-3.497
X5.1732Y-3.497
X4.8724Y-3.3507
X5.2724Y-3.3507
X4.913Y-2.6369
X5.313Y-2.6369
T3
X2.664Y-2.9445
X2.664Y-3.0445
X2.664Y-3.1445
X2.764Y-2.9445
X2.764Y-3.0445
X2.764Y-3.1445
X5.8718Y-2.3537
X5.8718Y-3.4537
X5.9718Y-2.3537
X5.9718Y-3.4537
X6.0718Y-2.3537
X6.0718Y-3.4537
X6.1718Y-2.3537
X6.1718Y-3.4537
X6.2718Y-2.3537
X6.2718Y-3.4537
X6.3718Y-2.3537
X6.3718Y-3.4537
X6.4718Y-2.3537
X6.4718Y-3.4537
X6.5718Y-2.3537
X6.5718Y-3.4537
X6.6718Y-2.3537
X6.6718Y-3.4537
X6.7718Y-2.3537
X6.7718Y-3.4537
X6.8718Y-2.3537
X6.8718Y-3.4537
X6.9718Y-2.3537
X6.9718Y-3.4537
X7.0718Y-2.3537
X7.0718Y-3.4537
X7.1718Y-2.3537
X7.1718Y-3.4537
X7.2718Y-2.3537
X7.2718Y-3.4537
X5.8704Y-2.4529
X5.8704Y-3.3529
X5.9704Y-2.4529
X5.9704Y-3.3529
X6.0704Y-2.4529
X6.0704Y-3.3529
X6.1704Y-2.4529
X6.1704Y-3.3529
X6.2704Y-2.4529
X6.2704Y-3.3529
X6.3704Y-2.4529
X6.3704Y-3.3529
X6.4704Y-2.4529
X6.4704Y-3.3529
X6.5704Y-2.4529
X6.5704Y-3.3529
X6.6704Y-2.4529
X6.6704Y-3.3529
X6.7704Y-2.4529
X6.7704Y-3.3529
X6.8704Y-2.4529
X6.8704Y-3.3529
X6.9704Y-2.4529
X6.9704Y-3.3529
X7.0704Y-2.4529
X7.0704Y-3.3529
X7.1704Y-2.4529
X7.1704Y-3.3529
X7.2704Y-2.4529
X7.2704Y-3.3529
X4.913Y-2.2764
X5.013Y-2.2764
X5.113Y-2.2764
X5.213Y-2.2764
X4.38Y-3.4974
X4.48Y-3.4974
T4
X3.0806Y-2.6052
X3.0806Y-2.7052
X3.0806Y-2.8052
X3.0806Y-2.9052
X3.0806Y-3.0052
X3.0806Y-3.1052
X3.0806Y-3.2052
X3.1806Y-2.6052
X3.1806Y-3.2052
X3.2806Y-2.6052
X3.2806Y-3.2052
X3.3806Y-2.6052
X3.3806Y-3.2052
X3.4806Y-2.6052
X3.4806Y-3.2052
X3.5806Y-2.6052
X3.5806Y-3.2052
X3.6806Y-2.6052
X3.6806Y-3.2052
X3.7806Y-2.6052
X3.7806Y-3.2052
X3.8806Y-2.6052
X3.8806Y-3.2052
X3.9806Y-2.6052
X3.9806Y-3.2052
X4.0806Y-2.6052
X4.0806Y-3.2052
X4.1806Y-2.6052
X4.1806Y-3.2052
X4.2806Y-2.6052
X4.2806Y-3.1052
X4.2806Y-3.2052
X4.3806Y-2.6052
X4.3806Y-3.2052
T0
M30
