G04 #@! TF.GenerationSoftware,KiCad,Pcbnew,(5.1.5)-3*
G04 #@! TF.CreationDate,2020-07-11T10:40:48+02:00*
G04 #@! TF.ProjectId,DNMS,444e4d53-2e6b-4696-9361-645f70636258,0.9.0*
G04 #@! TF.SameCoordinates,Original*
G04 #@! TF.FileFunction,Legend,Bot*
G04 #@! TF.FilePolarity,Positive*
%FSLAX46Y46*%
G04 Gerber Fmt 4.6, Leading zero omitted, Abs format (unit mm)*
G04 Created by KiCad (PCBNEW (5.1.5)-3) date 2020-07-11 10:40:48*
%MOMM*%
%LPD*%
G04 APERTURE LIST*
%ADD10C,0.200000*%
%ADD11C,0.150000*%
%ADD12C,0.120000*%
G04 APERTURE END LIST*
D10*
X118561525Y-60577361D02*
X118418668Y-60624980D01*
X118180573Y-60624980D01*
X118085335Y-60577361D01*
X118037716Y-60529742D01*
X117990097Y-60434504D01*
X117990097Y-60339266D01*
X118037716Y-60244028D01*
X118085335Y-60196409D01*
X118180573Y-60148790D01*
X118371049Y-60101171D01*
X118466287Y-60053552D01*
X118513906Y-60005933D01*
X118561525Y-59910695D01*
X118561525Y-59815457D01*
X118513906Y-59720219D01*
X118466287Y-59672600D01*
X118371049Y-59624980D01*
X118132954Y-59624980D01*
X117990097Y-59672600D01*
X117561525Y-60624980D02*
X117561525Y-59624980D01*
X117180573Y-59624980D01*
X117085335Y-59672600D01*
X117037716Y-59720219D01*
X116990097Y-59815457D01*
X116990097Y-59958314D01*
X117037716Y-60053552D01*
X117085335Y-60101171D01*
X117180573Y-60148790D01*
X117561525Y-60148790D01*
X116609144Y-60577361D02*
X116466287Y-60624980D01*
X116228192Y-60624980D01*
X116132954Y-60577361D01*
X116085335Y-60529742D01*
X116037716Y-60434504D01*
X116037716Y-60339266D01*
X116085335Y-60244028D01*
X116132954Y-60196409D01*
X116228192Y-60148790D01*
X116418668Y-60101171D01*
X116513906Y-60053552D01*
X116561525Y-60005933D01*
X116609144Y-59910695D01*
X116609144Y-59815457D01*
X116561525Y-59720219D01*
X116513906Y-59672600D01*
X116418668Y-59624980D01*
X116180573Y-59624980D01*
X116037716Y-59672600D01*
X115704382Y-59624980D02*
X115085335Y-59624980D01*
X115418668Y-60005933D01*
X115275811Y-60005933D01*
X115180573Y-60053552D01*
X115132954Y-60101171D01*
X115085335Y-60196409D01*
X115085335Y-60434504D01*
X115132954Y-60529742D01*
X115180573Y-60577361D01*
X115275811Y-60624980D01*
X115561525Y-60624980D01*
X115656763Y-60577361D01*
X115704382Y-60529742D01*
X114466287Y-59624980D02*
X114371049Y-59624980D01*
X114275811Y-59672600D01*
X114228192Y-59720219D01*
X114180573Y-59815457D01*
X114132954Y-60005933D01*
X114132954Y-60244028D01*
X114180573Y-60434504D01*
X114228192Y-60529742D01*
X114275811Y-60577361D01*
X114371049Y-60624980D01*
X114466287Y-60624980D01*
X114561525Y-60577361D01*
X114609144Y-60529742D01*
X114656763Y-60434504D01*
X114704382Y-60244028D01*
X114704382Y-60005933D01*
X114656763Y-59815457D01*
X114609144Y-59720219D01*
X114561525Y-59672600D01*
X114466287Y-59624980D01*
D11*
X191033720Y-69743980D02*
X195973720Y-69753980D01*
X190993720Y-77753980D02*
X195943720Y-77753980D01*
X190993720Y-69753980D02*
X190993720Y-77753980D01*
X195963720Y-89003980D02*
X138963720Y-89003980D01*
X195963720Y-58503980D02*
X195963720Y-89003980D01*
X138963720Y-58503980D02*
X195963720Y-58503980D01*
X138963720Y-59003980D02*
X138963720Y-58503980D01*
X138963720Y-89003980D02*
X138963720Y-59003980D01*
X185938160Y-86433660D02*
X147838160Y-86433660D01*
X147838160Y-86433660D02*
X147838160Y-83893660D01*
X147838160Y-83893660D02*
X185938160Y-83893660D01*
X185938160Y-83893660D02*
X185938160Y-86433660D01*
X147558160Y-60753660D02*
X147558160Y-63853660D01*
X149108160Y-60753660D02*
X147558160Y-60753660D01*
X150378160Y-63573660D02*
X150378160Y-61033660D01*
X147558160Y-63853660D02*
X149108160Y-63853660D01*
X185938160Y-63573660D02*
X150378160Y-63573660D01*
X185938160Y-61033660D02*
X185938160Y-63573660D01*
X150378160Y-61033660D02*
X185938160Y-61033660D01*
X142758160Y-60398660D02*
X142758160Y-87068660D01*
X142758160Y-87068660D02*
X191653160Y-87068660D01*
X191653160Y-87068660D02*
X191653160Y-60398660D01*
X191653160Y-60398660D02*
X142758160Y-60398660D01*
X191653160Y-69923660D02*
X186573160Y-69923660D01*
X186573160Y-69923660D02*
X186573160Y-77543660D01*
X186573160Y-77543660D02*
X191653160Y-77543660D01*
D12*
X125528020Y-88943800D02*
X134768020Y-88943800D01*
X125528020Y-86703800D02*
X134768020Y-86703800D01*
X125528020Y-88943800D02*
X125528020Y-88488800D01*
X125528020Y-87158800D02*
X125528020Y-86703800D01*
X134768020Y-88943800D02*
X134768020Y-88488800D01*
X134768020Y-87158800D02*
X134768020Y-86703800D01*
X124935440Y-71096380D02*
X134175440Y-71096380D01*
X124935440Y-68856380D02*
X134175440Y-68856380D01*
X124935440Y-71096380D02*
X124935440Y-70641380D01*
X124935440Y-69311380D02*
X124935440Y-68856380D01*
X134175440Y-71096380D02*
X134175440Y-70641380D01*
X134175440Y-69311380D02*
X134175440Y-68856380D01*
X120976880Y-68090480D02*
X121276880Y-67490480D01*
X121576880Y-68090480D02*
X120976880Y-68090480D01*
X121276880Y-67490480D02*
X121576880Y-68090480D01*
X116126880Y-65450480D02*
X115966880Y-65450480D01*
X113776880Y-64400480D02*
X114096880Y-64400480D01*
X117616880Y-65430480D02*
X117456880Y-65430480D01*
X115956880Y-64400480D02*
X116276880Y-64400480D01*
X116276880Y-64400480D02*
X116596880Y-64400480D01*
X119096880Y-65410480D02*
X118936880Y-65410480D01*
X118456880Y-64400480D02*
X118776880Y-64400480D01*
X118776880Y-64400480D02*
X119096880Y-64400480D01*
X120576880Y-65410480D02*
X120396880Y-65410480D01*
X120956880Y-64400480D02*
X121276880Y-64400480D01*
X121276880Y-64400480D02*
X121596880Y-64400480D01*
X122666880Y-64400480D02*
X113716880Y-64400480D01*
X114366880Y-61300480D02*
X114376880Y-65370480D01*
X122166880Y-65320480D02*
X122806880Y-65320480D01*
X122136880Y-61320480D02*
X122136880Y-65390480D01*
X114376880Y-67530480D02*
X114376880Y-65330480D01*
X113726880Y-67570480D02*
X114376880Y-67570480D01*
X113716880Y-61300480D02*
X113706880Y-67570480D01*
X122836880Y-61300480D02*
X113716880Y-61300480D01*
X122826880Y-67590480D02*
X122826880Y-61300480D01*
X122116880Y-67600480D02*
X122826880Y-67600480D01*
X122116880Y-65350480D02*
X122116880Y-67550480D01*
X132910200Y-84107780D02*
X132140200Y-84107780D01*
X124830200Y-84107780D02*
X125600200Y-84107780D01*
X132140200Y-85477780D02*
X125600200Y-85477780D01*
X132140200Y-82737780D02*
X132140200Y-85477780D01*
X125600200Y-82737780D02*
X132140200Y-82737780D01*
X125600200Y-85477780D02*
X125600200Y-82737780D01*
X134910200Y-72977260D02*
X134140200Y-72977260D01*
X126830200Y-72977260D02*
X127600200Y-72977260D01*
X134140200Y-74347260D02*
X127600200Y-74347260D01*
X134140200Y-71607260D02*
X134140200Y-74347260D01*
X127600200Y-71607260D02*
X134140200Y-71607260D01*
X127600200Y-74347260D02*
X127600200Y-71607260D01*
X124460200Y-64990560D02*
X124460200Y-66320560D01*
X125790200Y-64990560D02*
X124460200Y-64990560D01*
X127060200Y-64990560D02*
X127060200Y-67650560D01*
X127060200Y-67650560D02*
X134740200Y-67650560D01*
X127060200Y-64990560D02*
X134740200Y-64990560D01*
X134740200Y-64990560D02*
X134740200Y-67650560D01*
D11*
X168916100Y-72992075D02*
X169725624Y-72992075D01*
X169820862Y-73039694D01*
X169868481Y-73087313D01*
X169916100Y-73182551D01*
X169916100Y-73373027D01*
X169868481Y-73468265D01*
X169820862Y-73515884D01*
X169725624Y-73563503D01*
X168916100Y-73563503D01*
X169011339Y-73992075D02*
X168963720Y-74039694D01*
X168916100Y-74134932D01*
X168916100Y-74373027D01*
X168963720Y-74468265D01*
X169011339Y-74515884D01*
X169106577Y-74563503D01*
X169201815Y-74563503D01*
X169344672Y-74515884D01*
X169916100Y-73944456D01*
X169916100Y-74563503D01*
X141892291Y-66923980D02*
X140392291Y-66923980D01*
X141892291Y-67781122D01*
X140392291Y-67781122D01*
X141892291Y-68709694D02*
X141820862Y-68566837D01*
X141749434Y-68495408D01*
X141606577Y-68423980D01*
X141178005Y-68423980D01*
X141035148Y-68495408D01*
X140963720Y-68566837D01*
X140892291Y-68709694D01*
X140892291Y-68923980D01*
X140963720Y-69066837D01*
X141035148Y-69138265D01*
X141178005Y-69209694D01*
X141606577Y-69209694D01*
X141749434Y-69138265D01*
X141820862Y-69066837D01*
X141892291Y-68923980D01*
X141892291Y-68709694D01*
X141892291Y-70495408D02*
X140392291Y-70495408D01*
X141820862Y-70495408D02*
X141892291Y-70352551D01*
X141892291Y-70066837D01*
X141820862Y-69923980D01*
X141749434Y-69852551D01*
X141606577Y-69781122D01*
X141178005Y-69781122D01*
X141035148Y-69852551D01*
X140963720Y-69923980D01*
X140892291Y-70066837D01*
X140892291Y-70352551D01*
X140963720Y-70495408D01*
X141820862Y-71781122D02*
X141892291Y-71638265D01*
X141892291Y-71352551D01*
X141820862Y-71209694D01*
X141678005Y-71138265D01*
X141106577Y-71138265D01*
X140963720Y-71209694D01*
X140892291Y-71352551D01*
X140892291Y-71638265D01*
X140963720Y-71781122D01*
X141106577Y-71852551D01*
X141249434Y-71852551D01*
X141392291Y-71138265D01*
X141892291Y-72495408D02*
X140392291Y-72495408D01*
X141463720Y-72995408D01*
X140392291Y-73495408D01*
X141892291Y-73495408D01*
X141749434Y-75066837D02*
X141820862Y-74995408D01*
X141892291Y-74781122D01*
X141892291Y-74638265D01*
X141820862Y-74423980D01*
X141678005Y-74281122D01*
X141535148Y-74209694D01*
X141249434Y-74138265D01*
X141035148Y-74138265D01*
X140749434Y-74209694D01*
X140606577Y-74281122D01*
X140463720Y-74423980D01*
X140392291Y-74638265D01*
X140392291Y-74781122D01*
X140463720Y-74995408D01*
X140535148Y-75066837D01*
X140392291Y-75709694D02*
X141606577Y-75709694D01*
X141749434Y-75781122D01*
X141820862Y-75852551D01*
X141892291Y-75995408D01*
X141892291Y-76281122D01*
X141820862Y-76423980D01*
X141749434Y-76495408D01*
X141606577Y-76566837D01*
X140392291Y-76566837D01*
X140392291Y-78209694D02*
X141892291Y-78709694D01*
X140392291Y-79209694D01*
X140392291Y-79566837D02*
X140392291Y-80495408D01*
X140963720Y-79995408D01*
X140963720Y-80209694D01*
X141035148Y-80352551D01*
X141106577Y-80423980D01*
X141249434Y-80495408D01*
X141606577Y-80495408D01*
X141749434Y-80423980D01*
X141820862Y-80352551D01*
X141892291Y-80209694D01*
X141892291Y-79781122D01*
X141820862Y-79638265D01*
X141749434Y-79566837D01*
X161240540Y-72971755D02*
X162050064Y-72971755D01*
X162145302Y-73019374D01*
X162192921Y-73066993D01*
X162240540Y-73162231D01*
X162240540Y-73352707D01*
X162192921Y-73447945D01*
X162145302Y-73495564D01*
X162050064Y-73543183D01*
X161240540Y-73543183D01*
X162240540Y-74543183D02*
X162240540Y-73971755D01*
X162240540Y-74257469D02*
X161240540Y-74257469D01*
X161383398Y-74162231D01*
X161478636Y-74066993D01*
X161526255Y-73971755D01*
X145826731Y-66983660D02*
X144326731Y-66983660D01*
X145826731Y-67840802D01*
X144326731Y-67840802D01*
X145826731Y-68769374D02*
X145755302Y-68626517D01*
X145683874Y-68555088D01*
X145541017Y-68483660D01*
X145112445Y-68483660D01*
X144969588Y-68555088D01*
X144898160Y-68626517D01*
X144826731Y-68769374D01*
X144826731Y-68983660D01*
X144898160Y-69126517D01*
X144969588Y-69197945D01*
X145112445Y-69269374D01*
X145541017Y-69269374D01*
X145683874Y-69197945D01*
X145755302Y-69126517D01*
X145826731Y-68983660D01*
X145826731Y-68769374D01*
X145826731Y-70555088D02*
X144326731Y-70555088D01*
X145755302Y-70555088D02*
X145826731Y-70412231D01*
X145826731Y-70126517D01*
X145755302Y-69983660D01*
X145683874Y-69912231D01*
X145541017Y-69840802D01*
X145112445Y-69840802D01*
X144969588Y-69912231D01*
X144898160Y-69983660D01*
X144826731Y-70126517D01*
X144826731Y-70412231D01*
X144898160Y-70555088D01*
X145755302Y-71840802D02*
X145826731Y-71697945D01*
X145826731Y-71412231D01*
X145755302Y-71269374D01*
X145612445Y-71197945D01*
X145041017Y-71197945D01*
X144898160Y-71269374D01*
X144826731Y-71412231D01*
X144826731Y-71697945D01*
X144898160Y-71840802D01*
X145041017Y-71912231D01*
X145183874Y-71912231D01*
X145326731Y-71197945D01*
X145826731Y-72555088D02*
X144326731Y-72555088D01*
X145398160Y-73055088D01*
X144326731Y-73555088D01*
X145826731Y-73555088D01*
X145683874Y-75126517D02*
X145755302Y-75055088D01*
X145826731Y-74840802D01*
X145826731Y-74697945D01*
X145755302Y-74483660D01*
X145612445Y-74340802D01*
X145469588Y-74269374D01*
X145183874Y-74197945D01*
X144969588Y-74197945D01*
X144683874Y-74269374D01*
X144541017Y-74340802D01*
X144398160Y-74483660D01*
X144326731Y-74697945D01*
X144326731Y-74840802D01*
X144398160Y-75055088D01*
X144469588Y-75126517D01*
X144326731Y-75769374D02*
X145541017Y-75769374D01*
X145683874Y-75840802D01*
X145755302Y-75912231D01*
X145826731Y-76055088D01*
X145826731Y-76340802D01*
X145755302Y-76483660D01*
X145683874Y-76555088D01*
X145541017Y-76626517D01*
X144326731Y-76626517D01*
X144326731Y-78269374D02*
X145826731Y-78769374D01*
X144326731Y-79269374D01*
X144469588Y-79697945D02*
X144398160Y-79769374D01*
X144326731Y-79912231D01*
X144326731Y-80269374D01*
X144398160Y-80412231D01*
X144469588Y-80483660D01*
X144612445Y-80555088D01*
X144755302Y-80555088D01*
X144969588Y-80483660D01*
X145826731Y-79626517D01*
X145826731Y-80555088D01*
X136638326Y-88256382D02*
X136685945Y-88304001D01*
X136828802Y-88351620D01*
X136924040Y-88351620D01*
X137066898Y-88304001D01*
X137162136Y-88208763D01*
X137209755Y-88113525D01*
X137257374Y-87923049D01*
X137257374Y-87780192D01*
X137209755Y-87589716D01*
X137162136Y-87494478D01*
X137066898Y-87399240D01*
X136924040Y-87351620D01*
X136828802Y-87351620D01*
X136685945Y-87399240D01*
X136638326Y-87446859D01*
X136304993Y-87351620D02*
X135685945Y-87351620D01*
X136019279Y-87732573D01*
X135876421Y-87732573D01*
X135781183Y-87780192D01*
X135733564Y-87827811D01*
X135685945Y-87923049D01*
X135685945Y-88161144D01*
X135733564Y-88256382D01*
X135781183Y-88304001D01*
X135876421Y-88351620D01*
X136162136Y-88351620D01*
X136257374Y-88304001D01*
X136304993Y-88256382D01*
X124267719Y-88474300D02*
X124839147Y-88474300D01*
X124553433Y-88474300D02*
X124553433Y-87474300D01*
X124648671Y-87617158D01*
X124743909Y-87712396D01*
X124839147Y-87760015D01*
X123648671Y-87474300D02*
X123553433Y-87474300D01*
X123458195Y-87521920D01*
X123410576Y-87569539D01*
X123362957Y-87664777D01*
X123315338Y-87855253D01*
X123315338Y-88093348D01*
X123362957Y-88283824D01*
X123410576Y-88379062D01*
X123458195Y-88426681D01*
X123553433Y-88474300D01*
X123648671Y-88474300D01*
X123743909Y-88426681D01*
X123791528Y-88379062D01*
X123839147Y-88283824D01*
X123886766Y-88093348D01*
X123886766Y-87855253D01*
X123839147Y-87664777D01*
X123791528Y-87569539D01*
X123743909Y-87521920D01*
X123648671Y-87474300D01*
X122696290Y-87474300D02*
X122601052Y-87474300D01*
X122505814Y-87521920D01*
X122458195Y-87569539D01*
X122410576Y-87664777D01*
X122362957Y-87855253D01*
X122362957Y-88093348D01*
X122410576Y-88283824D01*
X122458195Y-88379062D01*
X122505814Y-88426681D01*
X122601052Y-88474300D01*
X122696290Y-88474300D01*
X122791528Y-88426681D01*
X122839147Y-88379062D01*
X122886766Y-88283824D01*
X122934385Y-88093348D01*
X122934385Y-87855253D01*
X122886766Y-87664777D01*
X122839147Y-87569539D01*
X122791528Y-87521920D01*
X122696290Y-87474300D01*
X121934385Y-87807634D02*
X121934385Y-88474300D01*
X121934385Y-87902872D02*
X121886766Y-87855253D01*
X121791528Y-87807634D01*
X121648671Y-87807634D01*
X121553433Y-87855253D01*
X121505814Y-87950491D01*
X121505814Y-88474300D01*
X120696290Y-87950491D02*
X121029623Y-87950491D01*
X121029623Y-88474300D02*
X121029623Y-87474300D01*
X120553433Y-87474300D01*
X135977926Y-70496702D02*
X136025545Y-70544321D01*
X136168402Y-70591940D01*
X136263640Y-70591940D01*
X136406498Y-70544321D01*
X136501736Y-70449083D01*
X136549355Y-70353845D01*
X136596974Y-70163369D01*
X136596974Y-70020512D01*
X136549355Y-69830036D01*
X136501736Y-69734798D01*
X136406498Y-69639560D01*
X136263640Y-69591940D01*
X136168402Y-69591940D01*
X136025545Y-69639560D01*
X135977926Y-69687179D01*
X135596974Y-69687179D02*
X135549355Y-69639560D01*
X135454117Y-69591940D01*
X135216021Y-69591940D01*
X135120783Y-69639560D01*
X135073164Y-69687179D01*
X135025545Y-69782417D01*
X135025545Y-69877655D01*
X135073164Y-70020512D01*
X135644593Y-70591940D01*
X135025545Y-70591940D01*
X123767339Y-70525900D02*
X124338767Y-70525900D01*
X124053053Y-70525900D02*
X124053053Y-69525900D01*
X124148291Y-69668758D01*
X124243529Y-69763996D01*
X124338767Y-69811615D01*
X123148291Y-69525900D02*
X123053053Y-69525900D01*
X122957815Y-69573520D01*
X122910196Y-69621139D01*
X122862577Y-69716377D01*
X122814958Y-69906853D01*
X122814958Y-70144948D01*
X122862577Y-70335424D01*
X122910196Y-70430662D01*
X122957815Y-70478281D01*
X123053053Y-70525900D01*
X123148291Y-70525900D01*
X123243529Y-70478281D01*
X123291148Y-70430662D01*
X123338767Y-70335424D01*
X123386386Y-70144948D01*
X123386386Y-69906853D01*
X123338767Y-69716377D01*
X123291148Y-69621139D01*
X123243529Y-69573520D01*
X123148291Y-69525900D01*
X122195910Y-69525900D02*
X122100672Y-69525900D01*
X122005434Y-69573520D01*
X121957815Y-69621139D01*
X121910196Y-69716377D01*
X121862577Y-69906853D01*
X121862577Y-70144948D01*
X121910196Y-70335424D01*
X121957815Y-70430662D01*
X122005434Y-70478281D01*
X122100672Y-70525900D01*
X122195910Y-70525900D01*
X122291148Y-70478281D01*
X122338767Y-70430662D01*
X122386386Y-70335424D01*
X122434005Y-70144948D01*
X122434005Y-69906853D01*
X122386386Y-69716377D01*
X122338767Y-69621139D01*
X122291148Y-69573520D01*
X122195910Y-69525900D01*
X121434005Y-69859234D02*
X121434005Y-70525900D01*
X121434005Y-69954472D02*
X121386386Y-69906853D01*
X121291148Y-69859234D01*
X121148291Y-69859234D01*
X121053053Y-69906853D01*
X121005434Y-70002091D01*
X121005434Y-70525900D01*
X120195910Y-70002091D02*
X120529243Y-70002091D01*
X120529243Y-70525900D02*
X120529243Y-69525900D01*
X120053053Y-69525900D01*
X121859633Y-59691020D02*
X121859633Y-60405306D01*
X121907252Y-60548163D01*
X122002490Y-60643401D01*
X122145347Y-60691020D01*
X122240585Y-60691020D01*
X120954871Y-60024354D02*
X120954871Y-60691020D01*
X121192966Y-59643401D02*
X121431061Y-60357687D01*
X120812014Y-60357687D01*
X136473226Y-84739740D02*
X136806560Y-84263550D01*
X137044655Y-84739740D02*
X137044655Y-83739740D01*
X136663702Y-83739740D01*
X136568464Y-83787360D01*
X136520845Y-83834979D01*
X136473226Y-83930217D01*
X136473226Y-84073074D01*
X136520845Y-84168312D01*
X136568464Y-84215931D01*
X136663702Y-84263550D01*
X137044655Y-84263550D01*
X136092274Y-83834979D02*
X136044655Y-83787360D01*
X135949417Y-83739740D01*
X135711321Y-83739740D01*
X135616083Y-83787360D01*
X135568464Y-83834979D01*
X135520845Y-83930217D01*
X135520845Y-84025455D01*
X135568464Y-84168312D01*
X136139893Y-84739740D01*
X135520845Y-84739740D01*
X129211936Y-81548314D02*
X129211936Y-82214980D01*
X129450031Y-81167361D02*
X129688126Y-81881647D01*
X129069079Y-81881647D01*
X128688126Y-82214980D02*
X128688126Y-81214980D01*
X128592888Y-81834028D02*
X128307174Y-82214980D01*
X128307174Y-81548314D02*
X128688126Y-81929266D01*
X127973840Y-81214980D02*
X127307174Y-81214980D01*
X127735745Y-82214980D01*
X138088666Y-73495160D02*
X138422000Y-73018970D01*
X138660095Y-73495160D02*
X138660095Y-72495160D01*
X138279142Y-72495160D01*
X138183904Y-72542780D01*
X138136285Y-72590399D01*
X138088666Y-72685637D01*
X138088666Y-72828494D01*
X138136285Y-72923732D01*
X138183904Y-72971351D01*
X138279142Y-73018970D01*
X138660095Y-73018970D01*
X137136285Y-73495160D02*
X137707714Y-73495160D01*
X137422000Y-73495160D02*
X137422000Y-72495160D01*
X137517238Y-72638018D01*
X137612476Y-72733256D01*
X137707714Y-72780875D01*
X123867776Y-72861514D02*
X123867776Y-73528180D01*
X124105871Y-72480561D02*
X124343966Y-73194847D01*
X123724919Y-73194847D01*
X123343966Y-73528180D02*
X123343966Y-72528180D01*
X123248728Y-73147228D02*
X122963014Y-73528180D01*
X122963014Y-72861514D02*
X123343966Y-73242466D01*
X122629680Y-72528180D02*
X121963014Y-72528180D01*
X122391585Y-73528180D01*
X136733113Y-65780560D02*
X136733113Y-66494846D01*
X136780732Y-66637703D01*
X136875970Y-66732941D01*
X137018827Y-66780560D01*
X137114065Y-66780560D01*
X136352160Y-65780560D02*
X135733113Y-65780560D01*
X136066446Y-66161513D01*
X135923589Y-66161513D01*
X135828351Y-66209132D01*
X135780732Y-66256751D01*
X135733113Y-66351989D01*
X135733113Y-66590084D01*
X135780732Y-66685322D01*
X135828351Y-66732941D01*
X135923589Y-66780560D01*
X136209303Y-66780560D01*
X136304541Y-66732941D01*
X136352160Y-66685322D01*
M02*
