G04 #@! TF.GenerationSoftware,KiCad,Pcbnew,(5.1.5)-3*
G04 #@! TF.CreationDate,2020-07-11T10:40:48+02:00*
G04 #@! TF.ProjectId,DNMS,444e4d53-2e6b-4696-9361-645f70636258,0.9.0*
G04 #@! TF.SameCoordinates,Original*
G04 #@! TF.FileFunction,Soldermask,Top*
G04 #@! TF.FilePolarity,Negative*
%FSLAX46Y46*%
G04 Gerber Fmt 4.6, Leading zero omitted, Abs format (unit mm)*
G04 Created by KiCad (PCBNEW (5.1.5)-3) date 2020-07-11 10:40:48*
%MOMM*%
%LPD*%
G04 APERTURE LIST*
%ADD10C,0.100000*%
G04 APERTURE END LIST*
D10*
G36*
X64326433Y-86026893D02*
G01*
X64416657Y-86044839D01*
X64522267Y-86088585D01*
X64671621Y-86150449D01*
X64671622Y-86150450D01*
X64901086Y-86303772D01*
X65096228Y-86498914D01*
X65185431Y-86632416D01*
X65249551Y-86728379D01*
X65288736Y-86822980D01*
X65355161Y-86983343D01*
X65372329Y-87069652D01*
X65409000Y-87254012D01*
X65409000Y-87529988D01*
X65355161Y-87800656D01*
X65249551Y-88055621D01*
X65198675Y-88131763D01*
X65096228Y-88285086D01*
X64901086Y-88480228D01*
X64754838Y-88577947D01*
X64671621Y-88633551D01*
X64572037Y-88674800D01*
X64416657Y-88739161D01*
X64326433Y-88757107D01*
X64145988Y-88793000D01*
X63870012Y-88793000D01*
X63689567Y-88757107D01*
X63599343Y-88739161D01*
X63443963Y-88674800D01*
X63344379Y-88633551D01*
X63261162Y-88577947D01*
X63114914Y-88480228D01*
X62919772Y-88285086D01*
X62817325Y-88131763D01*
X62766449Y-88055621D01*
X62660839Y-87800656D01*
X62607000Y-87529988D01*
X62607000Y-87254012D01*
X62643671Y-87069652D01*
X62660839Y-86983343D01*
X62727264Y-86822980D01*
X62766449Y-86728379D01*
X62830569Y-86632416D01*
X62919772Y-86498914D01*
X63114914Y-86303772D01*
X63344378Y-86150450D01*
X63344379Y-86150449D01*
X63493733Y-86088585D01*
X63599343Y-86044839D01*
X63689567Y-86026893D01*
X63870012Y-85991000D01*
X64145988Y-85991000D01*
X64326433Y-86026893D01*
G37*
G36*
X132896248Y-87005503D02*
G01*
X133051120Y-87069653D01*
X133190501Y-87162785D01*
X133190505Y-87162789D01*
X133197400Y-87167396D01*
X133203574Y-87172462D01*
X133225185Y-87184013D01*
X133248634Y-87191126D01*
X133273020Y-87193528D01*
X133297406Y-87191126D01*
X133320855Y-87184013D01*
X133342466Y-87172462D01*
X133348640Y-87167396D01*
X133355535Y-87162789D01*
X133355539Y-87162785D01*
X133494920Y-87069653D01*
X133649792Y-87005503D01*
X133814204Y-86972800D01*
X133981836Y-86972800D01*
X134146248Y-87005503D01*
X134301120Y-87069653D01*
X134440501Y-87162785D01*
X134559035Y-87281319D01*
X134652167Y-87420700D01*
X134716317Y-87575572D01*
X134749020Y-87739984D01*
X134749020Y-87907616D01*
X134716317Y-88072028D01*
X134652167Y-88226900D01*
X134559035Y-88366281D01*
X134440501Y-88484815D01*
X134301120Y-88577947D01*
X134146248Y-88642097D01*
X133981836Y-88674800D01*
X133814204Y-88674800D01*
X133649792Y-88642097D01*
X133494920Y-88577947D01*
X133355539Y-88484815D01*
X133355535Y-88484811D01*
X133348640Y-88480204D01*
X133342466Y-88475138D01*
X133320855Y-88463587D01*
X133297406Y-88456474D01*
X133273020Y-88454072D01*
X133248634Y-88456474D01*
X133225185Y-88463587D01*
X133203574Y-88475138D01*
X133197400Y-88480204D01*
X133190505Y-88484811D01*
X133190501Y-88484815D01*
X133051120Y-88577947D01*
X132896248Y-88642097D01*
X132731836Y-88674800D01*
X132564204Y-88674800D01*
X132399792Y-88642097D01*
X132244920Y-88577947D01*
X132105539Y-88484815D01*
X131987005Y-88366281D01*
X131893873Y-88226900D01*
X131829723Y-88072028D01*
X131797020Y-87907616D01*
X131797020Y-87739984D01*
X131829723Y-87575572D01*
X131893873Y-87420700D01*
X131987005Y-87281319D01*
X132105539Y-87162785D01*
X132244920Y-87069653D01*
X132399792Y-87005503D01*
X132564204Y-86972800D01*
X132731836Y-86972800D01*
X132896248Y-87005503D01*
G37*
G36*
X126646248Y-87005503D02*
G01*
X126801120Y-87069653D01*
X126940501Y-87162785D01*
X126940505Y-87162789D01*
X126947400Y-87167396D01*
X126953574Y-87172462D01*
X126975185Y-87184013D01*
X126998634Y-87191126D01*
X127023020Y-87193528D01*
X127047406Y-87191126D01*
X127070855Y-87184013D01*
X127092466Y-87172462D01*
X127098640Y-87167396D01*
X127105535Y-87162789D01*
X127105539Y-87162785D01*
X127244920Y-87069653D01*
X127399792Y-87005503D01*
X127564204Y-86972800D01*
X127731836Y-86972800D01*
X127896248Y-87005503D01*
X128051120Y-87069653D01*
X128190501Y-87162785D01*
X128309035Y-87281319D01*
X128402167Y-87420700D01*
X128466317Y-87575572D01*
X128499020Y-87739984D01*
X128499020Y-87907616D01*
X128466317Y-88072028D01*
X128402167Y-88226900D01*
X128309035Y-88366281D01*
X128190501Y-88484815D01*
X128051120Y-88577947D01*
X127896248Y-88642097D01*
X127731836Y-88674800D01*
X127564204Y-88674800D01*
X127399792Y-88642097D01*
X127244920Y-88577947D01*
X127105539Y-88484815D01*
X127105535Y-88484811D01*
X127098640Y-88480204D01*
X127092466Y-88475138D01*
X127070855Y-88463587D01*
X127047406Y-88456474D01*
X127023020Y-88454072D01*
X126998634Y-88456474D01*
X126975185Y-88463587D01*
X126953574Y-88475138D01*
X126947400Y-88480204D01*
X126940505Y-88484811D01*
X126940501Y-88484815D01*
X126801120Y-88577947D01*
X126646248Y-88642097D01*
X126481836Y-88674800D01*
X126314204Y-88674800D01*
X126149792Y-88642097D01*
X125994920Y-88577947D01*
X125855539Y-88484815D01*
X125737005Y-88366281D01*
X125643873Y-88226900D01*
X125579723Y-88072028D01*
X125547020Y-87907616D01*
X125547020Y-87739984D01*
X125579723Y-87575572D01*
X125643873Y-87420700D01*
X125737005Y-87281319D01*
X125855539Y-87162785D01*
X125994920Y-87069653D01*
X126149792Y-87005503D01*
X126314204Y-86972800D01*
X126481836Y-86972800D01*
X126646248Y-87005503D01*
G37*
G36*
X157032365Y-86838373D02*
G01*
X157199975Y-86907800D01*
X157199977Y-86907801D01*
X157350823Y-87008593D01*
X157479107Y-87136877D01*
X157579899Y-87287723D01*
X157579900Y-87287725D01*
X157649327Y-87455335D01*
X157684720Y-87633268D01*
X157684720Y-87814692D01*
X157649327Y-87992625D01*
X157616436Y-88072029D01*
X157579899Y-88160237D01*
X157479107Y-88311083D01*
X157350823Y-88439367D01*
X157199977Y-88540159D01*
X157199976Y-88540160D01*
X157199975Y-88540160D01*
X157032365Y-88609587D01*
X156854432Y-88644980D01*
X156673008Y-88644980D01*
X156495075Y-88609587D01*
X156327465Y-88540160D01*
X156327464Y-88540160D01*
X156327463Y-88540159D01*
X156176617Y-88439367D01*
X156048333Y-88311083D01*
X155947541Y-88160237D01*
X155911004Y-88072029D01*
X155878113Y-87992625D01*
X155842720Y-87814692D01*
X155842720Y-87633268D01*
X155878113Y-87455335D01*
X155947540Y-87287725D01*
X155947541Y-87287723D01*
X156048333Y-87136877D01*
X156176617Y-87008593D01*
X156327463Y-86907801D01*
X156327465Y-86907800D01*
X156495075Y-86838373D01*
X156673008Y-86802980D01*
X156854432Y-86802980D01*
X157032365Y-86838373D01*
G37*
G36*
X149257232Y-86827907D02*
G01*
X149406532Y-86857604D01*
X149570504Y-86925524D01*
X149718074Y-87024127D01*
X149843573Y-87149626D01*
X149942176Y-87297196D01*
X150010096Y-87461168D01*
X150044720Y-87635239D01*
X150044720Y-87812721D01*
X150010096Y-87986792D01*
X149942176Y-88150764D01*
X149843573Y-88298334D01*
X149718074Y-88423833D01*
X149570504Y-88522436D01*
X149406532Y-88590356D01*
X149257232Y-88620053D01*
X149232462Y-88624980D01*
X149054978Y-88624980D01*
X149030208Y-88620053D01*
X148880908Y-88590356D01*
X148716936Y-88522436D01*
X148569366Y-88423833D01*
X148443867Y-88298334D01*
X148345264Y-88150764D01*
X148277344Y-87986792D01*
X148242720Y-87812721D01*
X148242720Y-87635239D01*
X148277344Y-87461168D01*
X148345264Y-87297196D01*
X148443867Y-87149626D01*
X148569366Y-87024127D01*
X148716936Y-86925524D01*
X148880908Y-86857604D01*
X149030208Y-86827907D01*
X149054978Y-86822980D01*
X149232462Y-86822980D01*
X149257232Y-86827907D01*
G37*
G36*
X184817232Y-86827907D02*
G01*
X184966532Y-86857604D01*
X185130504Y-86925524D01*
X185278074Y-87024127D01*
X185403573Y-87149626D01*
X185502176Y-87297196D01*
X185570096Y-87461168D01*
X185604720Y-87635239D01*
X185604720Y-87812721D01*
X185570096Y-87986792D01*
X185502176Y-88150764D01*
X185403573Y-88298334D01*
X185278074Y-88423833D01*
X185130504Y-88522436D01*
X184966532Y-88590356D01*
X184817232Y-88620053D01*
X184792462Y-88624980D01*
X184614978Y-88624980D01*
X184590208Y-88620053D01*
X184440908Y-88590356D01*
X184276936Y-88522436D01*
X184129366Y-88423833D01*
X184003867Y-88298334D01*
X183905264Y-88150764D01*
X183837344Y-87986792D01*
X183802720Y-87812721D01*
X183802720Y-87635239D01*
X183837344Y-87461168D01*
X183905264Y-87297196D01*
X184003867Y-87149626D01*
X184129366Y-87024127D01*
X184276936Y-86925524D01*
X184440908Y-86857604D01*
X184590208Y-86827907D01*
X184614978Y-86822980D01*
X184792462Y-86822980D01*
X184817232Y-86827907D01*
G37*
G36*
X151797232Y-86827907D02*
G01*
X151946532Y-86857604D01*
X152110504Y-86925524D01*
X152258074Y-87024127D01*
X152383573Y-87149626D01*
X152482176Y-87297196D01*
X152550096Y-87461168D01*
X152584720Y-87635239D01*
X152584720Y-87812721D01*
X152550096Y-87986792D01*
X152482176Y-88150764D01*
X152383573Y-88298334D01*
X152258074Y-88423833D01*
X152110504Y-88522436D01*
X151946532Y-88590356D01*
X151797232Y-88620053D01*
X151772462Y-88624980D01*
X151594978Y-88624980D01*
X151570208Y-88620053D01*
X151420908Y-88590356D01*
X151256936Y-88522436D01*
X151109366Y-88423833D01*
X150983867Y-88298334D01*
X150885264Y-88150764D01*
X150817344Y-87986792D01*
X150782720Y-87812721D01*
X150782720Y-87635239D01*
X150817344Y-87461168D01*
X150885264Y-87297196D01*
X150983867Y-87149626D01*
X151109366Y-87024127D01*
X151256936Y-86925524D01*
X151420908Y-86857604D01*
X151570208Y-86827907D01*
X151594978Y-86822980D01*
X151772462Y-86822980D01*
X151797232Y-86827907D01*
G37*
G36*
X182277232Y-86827907D02*
G01*
X182426532Y-86857604D01*
X182590504Y-86925524D01*
X182738074Y-87024127D01*
X182863573Y-87149626D01*
X182962176Y-87297196D01*
X183030096Y-87461168D01*
X183064720Y-87635239D01*
X183064720Y-87812721D01*
X183030096Y-87986792D01*
X182962176Y-88150764D01*
X182863573Y-88298334D01*
X182738074Y-88423833D01*
X182590504Y-88522436D01*
X182426532Y-88590356D01*
X182277232Y-88620053D01*
X182252462Y-88624980D01*
X182074978Y-88624980D01*
X182050208Y-88620053D01*
X181900908Y-88590356D01*
X181736936Y-88522436D01*
X181589366Y-88423833D01*
X181463867Y-88298334D01*
X181365264Y-88150764D01*
X181297344Y-87986792D01*
X181262720Y-87812721D01*
X181262720Y-87635239D01*
X181297344Y-87461168D01*
X181365264Y-87297196D01*
X181463867Y-87149626D01*
X181589366Y-87024127D01*
X181736936Y-86925524D01*
X181900908Y-86857604D01*
X182050208Y-86827907D01*
X182074978Y-86822980D01*
X182252462Y-86822980D01*
X182277232Y-86827907D01*
G37*
G36*
X179737232Y-86827907D02*
G01*
X179886532Y-86857604D01*
X180050504Y-86925524D01*
X180198074Y-87024127D01*
X180323573Y-87149626D01*
X180422176Y-87297196D01*
X180490096Y-87461168D01*
X180524720Y-87635239D01*
X180524720Y-87812721D01*
X180490096Y-87986792D01*
X180422176Y-88150764D01*
X180323573Y-88298334D01*
X180198074Y-88423833D01*
X180050504Y-88522436D01*
X179886532Y-88590356D01*
X179737232Y-88620053D01*
X179712462Y-88624980D01*
X179534978Y-88624980D01*
X179510208Y-88620053D01*
X179360908Y-88590356D01*
X179196936Y-88522436D01*
X179049366Y-88423833D01*
X178923867Y-88298334D01*
X178825264Y-88150764D01*
X178757344Y-87986792D01*
X178722720Y-87812721D01*
X178722720Y-87635239D01*
X178757344Y-87461168D01*
X178825264Y-87297196D01*
X178923867Y-87149626D01*
X179049366Y-87024127D01*
X179196936Y-86925524D01*
X179360908Y-86857604D01*
X179510208Y-86827907D01*
X179534978Y-86822980D01*
X179712462Y-86822980D01*
X179737232Y-86827907D01*
G37*
G36*
X177197232Y-86827907D02*
G01*
X177346532Y-86857604D01*
X177510504Y-86925524D01*
X177658074Y-87024127D01*
X177783573Y-87149626D01*
X177882176Y-87297196D01*
X177950096Y-87461168D01*
X177984720Y-87635239D01*
X177984720Y-87812721D01*
X177950096Y-87986792D01*
X177882176Y-88150764D01*
X177783573Y-88298334D01*
X177658074Y-88423833D01*
X177510504Y-88522436D01*
X177346532Y-88590356D01*
X177197232Y-88620053D01*
X177172462Y-88624980D01*
X176994978Y-88624980D01*
X176970208Y-88620053D01*
X176820908Y-88590356D01*
X176656936Y-88522436D01*
X176509366Y-88423833D01*
X176383867Y-88298334D01*
X176285264Y-88150764D01*
X176217344Y-87986792D01*
X176182720Y-87812721D01*
X176182720Y-87635239D01*
X176217344Y-87461168D01*
X176285264Y-87297196D01*
X176383867Y-87149626D01*
X176509366Y-87024127D01*
X176656936Y-86925524D01*
X176820908Y-86857604D01*
X176970208Y-86827907D01*
X176994978Y-86822980D01*
X177172462Y-86822980D01*
X177197232Y-86827907D01*
G37*
G36*
X174657232Y-86827907D02*
G01*
X174806532Y-86857604D01*
X174970504Y-86925524D01*
X175118074Y-87024127D01*
X175243573Y-87149626D01*
X175342176Y-87297196D01*
X175410096Y-87461168D01*
X175444720Y-87635239D01*
X175444720Y-87812721D01*
X175410096Y-87986792D01*
X175342176Y-88150764D01*
X175243573Y-88298334D01*
X175118074Y-88423833D01*
X174970504Y-88522436D01*
X174806532Y-88590356D01*
X174657232Y-88620053D01*
X174632462Y-88624980D01*
X174454978Y-88624980D01*
X174430208Y-88620053D01*
X174280908Y-88590356D01*
X174116936Y-88522436D01*
X173969366Y-88423833D01*
X173843867Y-88298334D01*
X173745264Y-88150764D01*
X173677344Y-87986792D01*
X173642720Y-87812721D01*
X173642720Y-87635239D01*
X173677344Y-87461168D01*
X173745264Y-87297196D01*
X173843867Y-87149626D01*
X173969366Y-87024127D01*
X174116936Y-86925524D01*
X174280908Y-86857604D01*
X174430208Y-86827907D01*
X174454978Y-86822980D01*
X174632462Y-86822980D01*
X174657232Y-86827907D01*
G37*
G36*
X172117232Y-86827907D02*
G01*
X172266532Y-86857604D01*
X172430504Y-86925524D01*
X172578074Y-87024127D01*
X172703573Y-87149626D01*
X172802176Y-87297196D01*
X172870096Y-87461168D01*
X172904720Y-87635239D01*
X172904720Y-87812721D01*
X172870096Y-87986792D01*
X172802176Y-88150764D01*
X172703573Y-88298334D01*
X172578074Y-88423833D01*
X172430504Y-88522436D01*
X172266532Y-88590356D01*
X172117232Y-88620053D01*
X172092462Y-88624980D01*
X171914978Y-88624980D01*
X171890208Y-88620053D01*
X171740908Y-88590356D01*
X171576936Y-88522436D01*
X171429366Y-88423833D01*
X171303867Y-88298334D01*
X171205264Y-88150764D01*
X171137344Y-87986792D01*
X171102720Y-87812721D01*
X171102720Y-87635239D01*
X171137344Y-87461168D01*
X171205264Y-87297196D01*
X171303867Y-87149626D01*
X171429366Y-87024127D01*
X171576936Y-86925524D01*
X171740908Y-86857604D01*
X171890208Y-86827907D01*
X171914978Y-86822980D01*
X172092462Y-86822980D01*
X172117232Y-86827907D01*
G37*
G36*
X169577232Y-86827907D02*
G01*
X169726532Y-86857604D01*
X169890504Y-86925524D01*
X170038074Y-87024127D01*
X170163573Y-87149626D01*
X170262176Y-87297196D01*
X170330096Y-87461168D01*
X170364720Y-87635239D01*
X170364720Y-87812721D01*
X170330096Y-87986792D01*
X170262176Y-88150764D01*
X170163573Y-88298334D01*
X170038074Y-88423833D01*
X169890504Y-88522436D01*
X169726532Y-88590356D01*
X169577232Y-88620053D01*
X169552462Y-88624980D01*
X169374978Y-88624980D01*
X169350208Y-88620053D01*
X169200908Y-88590356D01*
X169036936Y-88522436D01*
X168889366Y-88423833D01*
X168763867Y-88298334D01*
X168665264Y-88150764D01*
X168597344Y-87986792D01*
X168562720Y-87812721D01*
X168562720Y-87635239D01*
X168597344Y-87461168D01*
X168665264Y-87297196D01*
X168763867Y-87149626D01*
X168889366Y-87024127D01*
X169036936Y-86925524D01*
X169200908Y-86857604D01*
X169350208Y-86827907D01*
X169374978Y-86822980D01*
X169552462Y-86822980D01*
X169577232Y-86827907D01*
G37*
G36*
X167037232Y-86827907D02*
G01*
X167186532Y-86857604D01*
X167350504Y-86925524D01*
X167498074Y-87024127D01*
X167623573Y-87149626D01*
X167722176Y-87297196D01*
X167790096Y-87461168D01*
X167824720Y-87635239D01*
X167824720Y-87812721D01*
X167790096Y-87986792D01*
X167722176Y-88150764D01*
X167623573Y-88298334D01*
X167498074Y-88423833D01*
X167350504Y-88522436D01*
X167186532Y-88590356D01*
X167037232Y-88620053D01*
X167012462Y-88624980D01*
X166834978Y-88624980D01*
X166810208Y-88620053D01*
X166660908Y-88590356D01*
X166496936Y-88522436D01*
X166349366Y-88423833D01*
X166223867Y-88298334D01*
X166125264Y-88150764D01*
X166057344Y-87986792D01*
X166022720Y-87812721D01*
X166022720Y-87635239D01*
X166057344Y-87461168D01*
X166125264Y-87297196D01*
X166223867Y-87149626D01*
X166349366Y-87024127D01*
X166496936Y-86925524D01*
X166660908Y-86857604D01*
X166810208Y-86827907D01*
X166834978Y-86822980D01*
X167012462Y-86822980D01*
X167037232Y-86827907D01*
G37*
G36*
X164497232Y-86827907D02*
G01*
X164646532Y-86857604D01*
X164810504Y-86925524D01*
X164958074Y-87024127D01*
X165083573Y-87149626D01*
X165182176Y-87297196D01*
X165250096Y-87461168D01*
X165284720Y-87635239D01*
X165284720Y-87812721D01*
X165250096Y-87986792D01*
X165182176Y-88150764D01*
X165083573Y-88298334D01*
X164958074Y-88423833D01*
X164810504Y-88522436D01*
X164646532Y-88590356D01*
X164497232Y-88620053D01*
X164472462Y-88624980D01*
X164294978Y-88624980D01*
X164270208Y-88620053D01*
X164120908Y-88590356D01*
X163956936Y-88522436D01*
X163809366Y-88423833D01*
X163683867Y-88298334D01*
X163585264Y-88150764D01*
X163517344Y-87986792D01*
X163482720Y-87812721D01*
X163482720Y-87635239D01*
X163517344Y-87461168D01*
X163585264Y-87297196D01*
X163683867Y-87149626D01*
X163809366Y-87024127D01*
X163956936Y-86925524D01*
X164120908Y-86857604D01*
X164270208Y-86827907D01*
X164294978Y-86822980D01*
X164472462Y-86822980D01*
X164497232Y-86827907D01*
G37*
G36*
X161957232Y-86827907D02*
G01*
X162106532Y-86857604D01*
X162270504Y-86925524D01*
X162418074Y-87024127D01*
X162543573Y-87149626D01*
X162642176Y-87297196D01*
X162710096Y-87461168D01*
X162744720Y-87635239D01*
X162744720Y-87812721D01*
X162710096Y-87986792D01*
X162642176Y-88150764D01*
X162543573Y-88298334D01*
X162418074Y-88423833D01*
X162270504Y-88522436D01*
X162106532Y-88590356D01*
X161957232Y-88620053D01*
X161932462Y-88624980D01*
X161754978Y-88624980D01*
X161730208Y-88620053D01*
X161580908Y-88590356D01*
X161416936Y-88522436D01*
X161269366Y-88423833D01*
X161143867Y-88298334D01*
X161045264Y-88150764D01*
X160977344Y-87986792D01*
X160942720Y-87812721D01*
X160942720Y-87635239D01*
X160977344Y-87461168D01*
X161045264Y-87297196D01*
X161143867Y-87149626D01*
X161269366Y-87024127D01*
X161416936Y-86925524D01*
X161580908Y-86857604D01*
X161730208Y-86827907D01*
X161754978Y-86822980D01*
X161932462Y-86822980D01*
X161957232Y-86827907D01*
G37*
G36*
X159417232Y-86827907D02*
G01*
X159566532Y-86857604D01*
X159730504Y-86925524D01*
X159878074Y-87024127D01*
X160003573Y-87149626D01*
X160102176Y-87297196D01*
X160170096Y-87461168D01*
X160204720Y-87635239D01*
X160204720Y-87812721D01*
X160170096Y-87986792D01*
X160102176Y-88150764D01*
X160003573Y-88298334D01*
X159878074Y-88423833D01*
X159730504Y-88522436D01*
X159566532Y-88590356D01*
X159417232Y-88620053D01*
X159392462Y-88624980D01*
X159214978Y-88624980D01*
X159190208Y-88620053D01*
X159040908Y-88590356D01*
X158876936Y-88522436D01*
X158729366Y-88423833D01*
X158603867Y-88298334D01*
X158505264Y-88150764D01*
X158437344Y-87986792D01*
X158402720Y-87812721D01*
X158402720Y-87635239D01*
X158437344Y-87461168D01*
X158505264Y-87297196D01*
X158603867Y-87149626D01*
X158729366Y-87024127D01*
X158876936Y-86925524D01*
X159040908Y-86857604D01*
X159190208Y-86827907D01*
X159214978Y-86822980D01*
X159392462Y-86822980D01*
X159417232Y-86827907D01*
G37*
G36*
X154337232Y-86827907D02*
G01*
X154486532Y-86857604D01*
X154650504Y-86925524D01*
X154798074Y-87024127D01*
X154923573Y-87149626D01*
X155022176Y-87297196D01*
X155090096Y-87461168D01*
X155124720Y-87635239D01*
X155124720Y-87812721D01*
X155090096Y-87986792D01*
X155022176Y-88150764D01*
X154923573Y-88298334D01*
X154798074Y-88423833D01*
X154650504Y-88522436D01*
X154486532Y-88590356D01*
X154337232Y-88620053D01*
X154312462Y-88624980D01*
X154134978Y-88624980D01*
X154110208Y-88620053D01*
X153960908Y-88590356D01*
X153796936Y-88522436D01*
X153649366Y-88423833D01*
X153523867Y-88298334D01*
X153425264Y-88150764D01*
X153357344Y-87986792D01*
X153322720Y-87812721D01*
X153322720Y-87635239D01*
X153357344Y-87461168D01*
X153425264Y-87297196D01*
X153523867Y-87149626D01*
X153649366Y-87024127D01*
X153796936Y-86925524D01*
X153960908Y-86857604D01*
X154110208Y-86827907D01*
X154134978Y-86822980D01*
X154312462Y-86822980D01*
X154337232Y-86827907D01*
G37*
G36*
X119318433Y-84634893D02*
G01*
X119408657Y-84652839D01*
X119514267Y-84696585D01*
X119663621Y-84758449D01*
X119739763Y-84809325D01*
X119893086Y-84911772D01*
X120088228Y-85106914D01*
X120106398Y-85134108D01*
X120241551Y-85336379D01*
X120270876Y-85407176D01*
X120346789Y-85590444D01*
X120347161Y-85591344D01*
X120377769Y-85745219D01*
X120401000Y-85862014D01*
X120401000Y-86137986D01*
X120347161Y-86408657D01*
X120303415Y-86514267D01*
X120241551Y-86663621D01*
X120241550Y-86663622D01*
X120088228Y-86893086D01*
X119893086Y-87088228D01*
X119801195Y-87149627D01*
X119663621Y-87241551D01*
X119567610Y-87281320D01*
X119408657Y-87347161D01*
X119318433Y-87365107D01*
X119137988Y-87401000D01*
X118862012Y-87401000D01*
X118681567Y-87365107D01*
X118591343Y-87347161D01*
X118432390Y-87281320D01*
X118336379Y-87241551D01*
X118198805Y-87149627D01*
X118106914Y-87088228D01*
X117911772Y-86893086D01*
X117758450Y-86663622D01*
X117758449Y-86663621D01*
X117696585Y-86514267D01*
X117652839Y-86408657D01*
X117599000Y-86137986D01*
X117599000Y-85862014D01*
X117622232Y-85745219D01*
X117652839Y-85591344D01*
X117653212Y-85590444D01*
X117729124Y-85407176D01*
X117758449Y-85336379D01*
X117893602Y-85134108D01*
X117911772Y-85106914D01*
X118106914Y-84911772D01*
X118260237Y-84809325D01*
X118336379Y-84758449D01*
X118485733Y-84696585D01*
X118591343Y-84652839D01*
X118681567Y-84634893D01*
X118862012Y-84599000D01*
X119137988Y-84599000D01*
X119318433Y-84634893D01*
G37*
G36*
X111365512Y-84937887D02*
G01*
X111514812Y-84967584D01*
X111678784Y-85035504D01*
X111826354Y-85134107D01*
X111951853Y-85259606D01*
X112050456Y-85407176D01*
X112118376Y-85571148D01*
X112153000Y-85745219D01*
X112153000Y-85922701D01*
X112118376Y-86096772D01*
X112050456Y-86260744D01*
X111951853Y-86408314D01*
X111826354Y-86533813D01*
X111678784Y-86632416D01*
X111514812Y-86700336D01*
X111365512Y-86730033D01*
X111340742Y-86734960D01*
X111163258Y-86734960D01*
X111138488Y-86730033D01*
X110989188Y-86700336D01*
X110825216Y-86632416D01*
X110677646Y-86533813D01*
X110552147Y-86408314D01*
X110453544Y-86260744D01*
X110385624Y-86096772D01*
X110351000Y-85922701D01*
X110351000Y-85745219D01*
X110385624Y-85571148D01*
X110453544Y-85407176D01*
X110552147Y-85259606D01*
X110677646Y-85134107D01*
X110825216Y-85035504D01*
X110989188Y-84967584D01*
X111138488Y-84937887D01*
X111163258Y-84932960D01*
X111340742Y-84932960D01*
X111365512Y-84937887D01*
G37*
G36*
X114693000Y-86734960D02*
G01*
X112891000Y-86734960D01*
X112891000Y-84932960D01*
X114693000Y-84932960D01*
X114693000Y-86734960D01*
G37*
G36*
X149221672Y-84267587D02*
G01*
X149370972Y-84297284D01*
X149534944Y-84365204D01*
X149682514Y-84463807D01*
X149808013Y-84589306D01*
X149906616Y-84736876D01*
X149974536Y-84900848D01*
X150009160Y-85074919D01*
X150009160Y-85252401D01*
X149974536Y-85426472D01*
X149906616Y-85590444D01*
X149808013Y-85738014D01*
X149682514Y-85863513D01*
X149534944Y-85962116D01*
X149370972Y-86030036D01*
X149221672Y-86059733D01*
X149196902Y-86064660D01*
X149019418Y-86064660D01*
X148994648Y-86059733D01*
X148845348Y-86030036D01*
X148681376Y-85962116D01*
X148533806Y-85863513D01*
X148408307Y-85738014D01*
X148309704Y-85590444D01*
X148241784Y-85426472D01*
X148207160Y-85252401D01*
X148207160Y-85074919D01*
X148241784Y-84900848D01*
X148309704Y-84736876D01*
X148408307Y-84589306D01*
X148533806Y-84463807D01*
X148681376Y-84365204D01*
X148845348Y-84297284D01*
X148994648Y-84267587D01*
X149019418Y-84262660D01*
X149196902Y-84262660D01*
X149221672Y-84267587D01*
G37*
G36*
X151761672Y-84267587D02*
G01*
X151910972Y-84297284D01*
X152074944Y-84365204D01*
X152222514Y-84463807D01*
X152348013Y-84589306D01*
X152446616Y-84736876D01*
X152514536Y-84900848D01*
X152549160Y-85074919D01*
X152549160Y-85252401D01*
X152514536Y-85426472D01*
X152446616Y-85590444D01*
X152348013Y-85738014D01*
X152222514Y-85863513D01*
X152074944Y-85962116D01*
X151910972Y-86030036D01*
X151761672Y-86059733D01*
X151736902Y-86064660D01*
X151559418Y-86064660D01*
X151534648Y-86059733D01*
X151385348Y-86030036D01*
X151221376Y-85962116D01*
X151073806Y-85863513D01*
X150948307Y-85738014D01*
X150849704Y-85590444D01*
X150781784Y-85426472D01*
X150747160Y-85252401D01*
X150747160Y-85074919D01*
X150781784Y-84900848D01*
X150849704Y-84736876D01*
X150948307Y-84589306D01*
X151073806Y-84463807D01*
X151221376Y-84365204D01*
X151385348Y-84297284D01*
X151534648Y-84267587D01*
X151559418Y-84262660D01*
X151736902Y-84262660D01*
X151761672Y-84267587D01*
G37*
G36*
X156841672Y-84267587D02*
G01*
X156990972Y-84297284D01*
X157154944Y-84365204D01*
X157302514Y-84463807D01*
X157428013Y-84589306D01*
X157526616Y-84736876D01*
X157594536Y-84900848D01*
X157629160Y-85074919D01*
X157629160Y-85252401D01*
X157594536Y-85426472D01*
X157526616Y-85590444D01*
X157428013Y-85738014D01*
X157302514Y-85863513D01*
X157154944Y-85962116D01*
X156990972Y-86030036D01*
X156841672Y-86059733D01*
X156816902Y-86064660D01*
X156639418Y-86064660D01*
X156614648Y-86059733D01*
X156465348Y-86030036D01*
X156301376Y-85962116D01*
X156153806Y-85863513D01*
X156028307Y-85738014D01*
X155929704Y-85590444D01*
X155861784Y-85426472D01*
X155827160Y-85252401D01*
X155827160Y-85074919D01*
X155861784Y-84900848D01*
X155929704Y-84736876D01*
X156028307Y-84589306D01*
X156153806Y-84463807D01*
X156301376Y-84365204D01*
X156465348Y-84297284D01*
X156614648Y-84267587D01*
X156639418Y-84262660D01*
X156816902Y-84262660D01*
X156841672Y-84267587D01*
G37*
G36*
X154301672Y-84267587D02*
G01*
X154450972Y-84297284D01*
X154614944Y-84365204D01*
X154762514Y-84463807D01*
X154888013Y-84589306D01*
X154986616Y-84736876D01*
X155054536Y-84900848D01*
X155089160Y-85074919D01*
X155089160Y-85252401D01*
X155054536Y-85426472D01*
X154986616Y-85590444D01*
X154888013Y-85738014D01*
X154762514Y-85863513D01*
X154614944Y-85962116D01*
X154450972Y-86030036D01*
X154301672Y-86059733D01*
X154276902Y-86064660D01*
X154099418Y-86064660D01*
X154074648Y-86059733D01*
X153925348Y-86030036D01*
X153761376Y-85962116D01*
X153613806Y-85863513D01*
X153488307Y-85738014D01*
X153389704Y-85590444D01*
X153321784Y-85426472D01*
X153287160Y-85252401D01*
X153287160Y-85074919D01*
X153321784Y-84900848D01*
X153389704Y-84736876D01*
X153488307Y-84589306D01*
X153613806Y-84463807D01*
X153761376Y-84365204D01*
X153925348Y-84297284D01*
X154074648Y-84267587D01*
X154099418Y-84262660D01*
X154276902Y-84262660D01*
X154301672Y-84267587D01*
G37*
G36*
X174621672Y-84267587D02*
G01*
X174770972Y-84297284D01*
X174934944Y-84365204D01*
X175082514Y-84463807D01*
X175208013Y-84589306D01*
X175306616Y-84736876D01*
X175374536Y-84900848D01*
X175409160Y-85074919D01*
X175409160Y-85252401D01*
X175374536Y-85426472D01*
X175306616Y-85590444D01*
X175208013Y-85738014D01*
X175082514Y-85863513D01*
X174934944Y-85962116D01*
X174770972Y-86030036D01*
X174621672Y-86059733D01*
X174596902Y-86064660D01*
X174419418Y-86064660D01*
X174394648Y-86059733D01*
X174245348Y-86030036D01*
X174081376Y-85962116D01*
X173933806Y-85863513D01*
X173808307Y-85738014D01*
X173709704Y-85590444D01*
X173641784Y-85426472D01*
X173607160Y-85252401D01*
X173607160Y-85074919D01*
X173641784Y-84900848D01*
X173709704Y-84736876D01*
X173808307Y-84589306D01*
X173933806Y-84463807D01*
X174081376Y-84365204D01*
X174245348Y-84297284D01*
X174394648Y-84267587D01*
X174419418Y-84262660D01*
X174596902Y-84262660D01*
X174621672Y-84267587D01*
G37*
G36*
X172081672Y-84267587D02*
G01*
X172230972Y-84297284D01*
X172394944Y-84365204D01*
X172542514Y-84463807D01*
X172668013Y-84589306D01*
X172766616Y-84736876D01*
X172834536Y-84900848D01*
X172869160Y-85074919D01*
X172869160Y-85252401D01*
X172834536Y-85426472D01*
X172766616Y-85590444D01*
X172668013Y-85738014D01*
X172542514Y-85863513D01*
X172394944Y-85962116D01*
X172230972Y-86030036D01*
X172081672Y-86059733D01*
X172056902Y-86064660D01*
X171879418Y-86064660D01*
X171854648Y-86059733D01*
X171705348Y-86030036D01*
X171541376Y-85962116D01*
X171393806Y-85863513D01*
X171268307Y-85738014D01*
X171169704Y-85590444D01*
X171101784Y-85426472D01*
X171067160Y-85252401D01*
X171067160Y-85074919D01*
X171101784Y-84900848D01*
X171169704Y-84736876D01*
X171268307Y-84589306D01*
X171393806Y-84463807D01*
X171541376Y-84365204D01*
X171705348Y-84297284D01*
X171854648Y-84267587D01*
X171879418Y-84262660D01*
X172056902Y-84262660D01*
X172081672Y-84267587D01*
G37*
G36*
X167001672Y-84267587D02*
G01*
X167150972Y-84297284D01*
X167314944Y-84365204D01*
X167462514Y-84463807D01*
X167588013Y-84589306D01*
X167686616Y-84736876D01*
X167754536Y-84900848D01*
X167789160Y-85074919D01*
X167789160Y-85252401D01*
X167754536Y-85426472D01*
X167686616Y-85590444D01*
X167588013Y-85738014D01*
X167462514Y-85863513D01*
X167314944Y-85962116D01*
X167150972Y-86030036D01*
X167001672Y-86059733D01*
X166976902Y-86064660D01*
X166799418Y-86064660D01*
X166774648Y-86059733D01*
X166625348Y-86030036D01*
X166461376Y-85962116D01*
X166313806Y-85863513D01*
X166188307Y-85738014D01*
X166089704Y-85590444D01*
X166021784Y-85426472D01*
X165987160Y-85252401D01*
X165987160Y-85074919D01*
X166021784Y-84900848D01*
X166089704Y-84736876D01*
X166188307Y-84589306D01*
X166313806Y-84463807D01*
X166461376Y-84365204D01*
X166625348Y-84297284D01*
X166774648Y-84267587D01*
X166799418Y-84262660D01*
X166976902Y-84262660D01*
X167001672Y-84267587D01*
G37*
G36*
X184781672Y-84267587D02*
G01*
X184930972Y-84297284D01*
X185094944Y-84365204D01*
X185242514Y-84463807D01*
X185368013Y-84589306D01*
X185466616Y-84736876D01*
X185534536Y-84900848D01*
X185569160Y-85074919D01*
X185569160Y-85252401D01*
X185534536Y-85426472D01*
X185466616Y-85590444D01*
X185368013Y-85738014D01*
X185242514Y-85863513D01*
X185094944Y-85962116D01*
X184930972Y-86030036D01*
X184781672Y-86059733D01*
X184756902Y-86064660D01*
X184579418Y-86064660D01*
X184554648Y-86059733D01*
X184405348Y-86030036D01*
X184241376Y-85962116D01*
X184093806Y-85863513D01*
X183968307Y-85738014D01*
X183869704Y-85590444D01*
X183801784Y-85426472D01*
X183767160Y-85252401D01*
X183767160Y-85074919D01*
X183801784Y-84900848D01*
X183869704Y-84736876D01*
X183968307Y-84589306D01*
X184093806Y-84463807D01*
X184241376Y-84365204D01*
X184405348Y-84297284D01*
X184554648Y-84267587D01*
X184579418Y-84262660D01*
X184756902Y-84262660D01*
X184781672Y-84267587D01*
G37*
G36*
X164461672Y-84267587D02*
G01*
X164610972Y-84297284D01*
X164774944Y-84365204D01*
X164922514Y-84463807D01*
X165048013Y-84589306D01*
X165146616Y-84736876D01*
X165214536Y-84900848D01*
X165249160Y-85074919D01*
X165249160Y-85252401D01*
X165214536Y-85426472D01*
X165146616Y-85590444D01*
X165048013Y-85738014D01*
X164922514Y-85863513D01*
X164774944Y-85962116D01*
X164610972Y-86030036D01*
X164461672Y-86059733D01*
X164436902Y-86064660D01*
X164259418Y-86064660D01*
X164234648Y-86059733D01*
X164085348Y-86030036D01*
X163921376Y-85962116D01*
X163773806Y-85863513D01*
X163648307Y-85738014D01*
X163549704Y-85590444D01*
X163481784Y-85426472D01*
X163447160Y-85252401D01*
X163447160Y-85074919D01*
X163481784Y-84900848D01*
X163549704Y-84736876D01*
X163648307Y-84589306D01*
X163773806Y-84463807D01*
X163921376Y-84365204D01*
X164085348Y-84297284D01*
X164234648Y-84267587D01*
X164259418Y-84262660D01*
X164436902Y-84262660D01*
X164461672Y-84267587D01*
G37*
G36*
X159381672Y-84267587D02*
G01*
X159530972Y-84297284D01*
X159694944Y-84365204D01*
X159842514Y-84463807D01*
X159968013Y-84589306D01*
X160066616Y-84736876D01*
X160134536Y-84900848D01*
X160169160Y-85074919D01*
X160169160Y-85252401D01*
X160134536Y-85426472D01*
X160066616Y-85590444D01*
X159968013Y-85738014D01*
X159842514Y-85863513D01*
X159694944Y-85962116D01*
X159530972Y-86030036D01*
X159381672Y-86059733D01*
X159356902Y-86064660D01*
X159179418Y-86064660D01*
X159154648Y-86059733D01*
X159005348Y-86030036D01*
X158841376Y-85962116D01*
X158693806Y-85863513D01*
X158568307Y-85738014D01*
X158469704Y-85590444D01*
X158401784Y-85426472D01*
X158367160Y-85252401D01*
X158367160Y-85074919D01*
X158401784Y-84900848D01*
X158469704Y-84736876D01*
X158568307Y-84589306D01*
X158693806Y-84463807D01*
X158841376Y-84365204D01*
X159005348Y-84297284D01*
X159154648Y-84267587D01*
X159179418Y-84262660D01*
X159356902Y-84262660D01*
X159381672Y-84267587D01*
G37*
G36*
X161921672Y-84267587D02*
G01*
X162070972Y-84297284D01*
X162234944Y-84365204D01*
X162382514Y-84463807D01*
X162508013Y-84589306D01*
X162606616Y-84736876D01*
X162674536Y-84900848D01*
X162709160Y-85074919D01*
X162709160Y-85252401D01*
X162674536Y-85426472D01*
X162606616Y-85590444D01*
X162508013Y-85738014D01*
X162382514Y-85863513D01*
X162234944Y-85962116D01*
X162070972Y-86030036D01*
X161921672Y-86059733D01*
X161896902Y-86064660D01*
X161719418Y-86064660D01*
X161694648Y-86059733D01*
X161545348Y-86030036D01*
X161381376Y-85962116D01*
X161233806Y-85863513D01*
X161108307Y-85738014D01*
X161009704Y-85590444D01*
X160941784Y-85426472D01*
X160907160Y-85252401D01*
X160907160Y-85074919D01*
X160941784Y-84900848D01*
X161009704Y-84736876D01*
X161108307Y-84589306D01*
X161233806Y-84463807D01*
X161381376Y-84365204D01*
X161545348Y-84297284D01*
X161694648Y-84267587D01*
X161719418Y-84262660D01*
X161896902Y-84262660D01*
X161921672Y-84267587D01*
G37*
G36*
X177161672Y-84267587D02*
G01*
X177310972Y-84297284D01*
X177474944Y-84365204D01*
X177622514Y-84463807D01*
X177748013Y-84589306D01*
X177846616Y-84736876D01*
X177914536Y-84900848D01*
X177949160Y-85074919D01*
X177949160Y-85252401D01*
X177914536Y-85426472D01*
X177846616Y-85590444D01*
X177748013Y-85738014D01*
X177622514Y-85863513D01*
X177474944Y-85962116D01*
X177310972Y-86030036D01*
X177161672Y-86059733D01*
X177136902Y-86064660D01*
X176959418Y-86064660D01*
X176934648Y-86059733D01*
X176785348Y-86030036D01*
X176621376Y-85962116D01*
X176473806Y-85863513D01*
X176348307Y-85738014D01*
X176249704Y-85590444D01*
X176181784Y-85426472D01*
X176147160Y-85252401D01*
X176147160Y-85074919D01*
X176181784Y-84900848D01*
X176249704Y-84736876D01*
X176348307Y-84589306D01*
X176473806Y-84463807D01*
X176621376Y-84365204D01*
X176785348Y-84297284D01*
X176934648Y-84267587D01*
X176959418Y-84262660D01*
X177136902Y-84262660D01*
X177161672Y-84267587D01*
G37*
G36*
X182241672Y-84267587D02*
G01*
X182390972Y-84297284D01*
X182554944Y-84365204D01*
X182702514Y-84463807D01*
X182828013Y-84589306D01*
X182926616Y-84736876D01*
X182994536Y-84900848D01*
X183029160Y-85074919D01*
X183029160Y-85252401D01*
X182994536Y-85426472D01*
X182926616Y-85590444D01*
X182828013Y-85738014D01*
X182702514Y-85863513D01*
X182554944Y-85962116D01*
X182390972Y-86030036D01*
X182241672Y-86059733D01*
X182216902Y-86064660D01*
X182039418Y-86064660D01*
X182014648Y-86059733D01*
X181865348Y-86030036D01*
X181701376Y-85962116D01*
X181553806Y-85863513D01*
X181428307Y-85738014D01*
X181329704Y-85590444D01*
X181261784Y-85426472D01*
X181227160Y-85252401D01*
X181227160Y-85074919D01*
X181261784Y-84900848D01*
X181329704Y-84736876D01*
X181428307Y-84589306D01*
X181553806Y-84463807D01*
X181701376Y-84365204D01*
X181865348Y-84297284D01*
X182014648Y-84267587D01*
X182039418Y-84262660D01*
X182216902Y-84262660D01*
X182241672Y-84267587D01*
G37*
G36*
X179701672Y-84267587D02*
G01*
X179850972Y-84297284D01*
X180014944Y-84365204D01*
X180162514Y-84463807D01*
X180288013Y-84589306D01*
X180386616Y-84736876D01*
X180454536Y-84900848D01*
X180489160Y-85074919D01*
X180489160Y-85252401D01*
X180454536Y-85426472D01*
X180386616Y-85590444D01*
X180288013Y-85738014D01*
X180162514Y-85863513D01*
X180014944Y-85962116D01*
X179850972Y-86030036D01*
X179701672Y-86059733D01*
X179676902Y-86064660D01*
X179499418Y-86064660D01*
X179474648Y-86059733D01*
X179325348Y-86030036D01*
X179161376Y-85962116D01*
X179013806Y-85863513D01*
X178888307Y-85738014D01*
X178789704Y-85590444D01*
X178721784Y-85426472D01*
X178687160Y-85252401D01*
X178687160Y-85074919D01*
X178721784Y-84900848D01*
X178789704Y-84736876D01*
X178888307Y-84589306D01*
X179013806Y-84463807D01*
X179161376Y-84365204D01*
X179325348Y-84297284D01*
X179474648Y-84267587D01*
X179499418Y-84262660D01*
X179676902Y-84262660D01*
X179701672Y-84267587D01*
G37*
G36*
X169541672Y-84267587D02*
G01*
X169690972Y-84297284D01*
X169854944Y-84365204D01*
X170002514Y-84463807D01*
X170128013Y-84589306D01*
X170226616Y-84736876D01*
X170294536Y-84900848D01*
X170329160Y-85074919D01*
X170329160Y-85252401D01*
X170294536Y-85426472D01*
X170226616Y-85590444D01*
X170128013Y-85738014D01*
X170002514Y-85863513D01*
X169854944Y-85962116D01*
X169690972Y-86030036D01*
X169541672Y-86059733D01*
X169516902Y-86064660D01*
X169339418Y-86064660D01*
X169314648Y-86059733D01*
X169165348Y-86030036D01*
X169001376Y-85962116D01*
X168853806Y-85863513D01*
X168728307Y-85738014D01*
X168629704Y-85590444D01*
X168561784Y-85426472D01*
X168527160Y-85252401D01*
X168527160Y-85074919D01*
X168561784Y-84900848D01*
X168629704Y-84736876D01*
X168728307Y-84589306D01*
X168853806Y-84463807D01*
X169001376Y-84365204D01*
X169165348Y-84297284D01*
X169314648Y-84267587D01*
X169339418Y-84262660D01*
X169516902Y-84262660D01*
X169541672Y-84267587D01*
G37*
G36*
X124038428Y-83289483D02*
G01*
X124193300Y-83353633D01*
X124332681Y-83446765D01*
X124451215Y-83565299D01*
X124544347Y-83704680D01*
X124608497Y-83859552D01*
X124641200Y-84023964D01*
X124641200Y-84191596D01*
X124608497Y-84356008D01*
X124544347Y-84510880D01*
X124451215Y-84650261D01*
X124332681Y-84768795D01*
X124193300Y-84861927D01*
X124038428Y-84926077D01*
X123874016Y-84958780D01*
X123706384Y-84958780D01*
X123541972Y-84926077D01*
X123387100Y-84861927D01*
X123247719Y-84768795D01*
X123129185Y-84650261D01*
X123036053Y-84510880D01*
X122971903Y-84356008D01*
X122939200Y-84191596D01*
X122939200Y-84023964D01*
X122971903Y-83859552D01*
X123036053Y-83704680D01*
X123129185Y-83565299D01*
X123247719Y-83446765D01*
X123387100Y-83353633D01*
X123541972Y-83289483D01*
X123706384Y-83256780D01*
X123874016Y-83256780D01*
X124038428Y-83289483D01*
G37*
G36*
X134198428Y-83289483D02*
G01*
X134353300Y-83353633D01*
X134492681Y-83446765D01*
X134611215Y-83565299D01*
X134704347Y-83704680D01*
X134768497Y-83859552D01*
X134801200Y-84023964D01*
X134801200Y-84191596D01*
X134768497Y-84356008D01*
X134704347Y-84510880D01*
X134611215Y-84650261D01*
X134492681Y-84768795D01*
X134353300Y-84861927D01*
X134198428Y-84926077D01*
X134034016Y-84958780D01*
X133866384Y-84958780D01*
X133701972Y-84926077D01*
X133547100Y-84861927D01*
X133407719Y-84768795D01*
X133289185Y-84650261D01*
X133196053Y-84510880D01*
X133131903Y-84356008D01*
X133099200Y-84191596D01*
X133099200Y-84023964D01*
X133131903Y-83859552D01*
X133196053Y-83704680D01*
X133289185Y-83565299D01*
X133407719Y-83446765D01*
X133547100Y-83353633D01*
X133701972Y-83289483D01*
X133866384Y-83256780D01*
X134034016Y-83256780D01*
X134198428Y-83289483D01*
G37*
G36*
X101355468Y-80593203D02*
G01*
X101510340Y-80657353D01*
X101649721Y-80750485D01*
X101768255Y-80869019D01*
X101861387Y-81008400D01*
X101925537Y-81163272D01*
X101958240Y-81327684D01*
X101958240Y-81495316D01*
X101925537Y-81659728D01*
X101861387Y-81814600D01*
X101768255Y-81953981D01*
X101649721Y-82072515D01*
X101510340Y-82165647D01*
X101355468Y-82229797D01*
X101191056Y-82262500D01*
X101023424Y-82262500D01*
X100859012Y-82229797D01*
X100704140Y-82165647D01*
X100564759Y-82072515D01*
X100446225Y-81953981D01*
X100353093Y-81814600D01*
X100288943Y-81659728D01*
X100256240Y-81495316D01*
X100256240Y-81327684D01*
X100288943Y-81163272D01*
X100353093Y-81008400D01*
X100446225Y-80869019D01*
X100564759Y-80750485D01*
X100704140Y-80657353D01*
X100859012Y-80593203D01*
X101023424Y-80560500D01*
X101191056Y-80560500D01*
X101355468Y-80593203D01*
G37*
G36*
X98815468Y-80593203D02*
G01*
X98970340Y-80657353D01*
X99109721Y-80750485D01*
X99228255Y-80869019D01*
X99321387Y-81008400D01*
X99385537Y-81163272D01*
X99418240Y-81327684D01*
X99418240Y-81495316D01*
X99385537Y-81659728D01*
X99321387Y-81814600D01*
X99228255Y-81953981D01*
X99109721Y-82072515D01*
X98970340Y-82165647D01*
X98815468Y-82229797D01*
X98651056Y-82262500D01*
X98483424Y-82262500D01*
X98319012Y-82229797D01*
X98164140Y-82165647D01*
X98024759Y-82072515D01*
X97906225Y-81953981D01*
X97813093Y-81814600D01*
X97748943Y-81659728D01*
X97716240Y-81495316D01*
X97716240Y-81327684D01*
X97748943Y-81163272D01*
X97813093Y-81008400D01*
X97906225Y-80869019D01*
X98024759Y-80750485D01*
X98164140Y-80657353D01*
X98319012Y-80593203D01*
X98483424Y-80560500D01*
X98651056Y-80560500D01*
X98815468Y-80593203D01*
G37*
G36*
X96275468Y-80593203D02*
G01*
X96430340Y-80657353D01*
X96569721Y-80750485D01*
X96688255Y-80869019D01*
X96781387Y-81008400D01*
X96845537Y-81163272D01*
X96878240Y-81327684D01*
X96878240Y-81495316D01*
X96845537Y-81659728D01*
X96781387Y-81814600D01*
X96688255Y-81953981D01*
X96569721Y-82072515D01*
X96430340Y-82165647D01*
X96275468Y-82229797D01*
X96111056Y-82262500D01*
X95943424Y-82262500D01*
X95779012Y-82229797D01*
X95624140Y-82165647D01*
X95484759Y-82072515D01*
X95366225Y-81953981D01*
X95273093Y-81814600D01*
X95208943Y-81659728D01*
X95176240Y-81495316D01*
X95176240Y-81327684D01*
X95208943Y-81163272D01*
X95273093Y-81008400D01*
X95366225Y-80869019D01*
X95484759Y-80750485D01*
X95624140Y-80657353D01*
X95779012Y-80593203D01*
X95943424Y-80560500D01*
X96111056Y-80560500D01*
X96275468Y-80593203D01*
G37*
G36*
X93735468Y-80593203D02*
G01*
X93890340Y-80657353D01*
X94029721Y-80750485D01*
X94148255Y-80869019D01*
X94241387Y-81008400D01*
X94305537Y-81163272D01*
X94338240Y-81327684D01*
X94338240Y-81495316D01*
X94305537Y-81659728D01*
X94241387Y-81814600D01*
X94148255Y-81953981D01*
X94029721Y-82072515D01*
X93890340Y-82165647D01*
X93735468Y-82229797D01*
X93571056Y-82262500D01*
X93403424Y-82262500D01*
X93239012Y-82229797D01*
X93084140Y-82165647D01*
X92944759Y-82072515D01*
X92826225Y-81953981D01*
X92733093Y-81814600D01*
X92668943Y-81659728D01*
X92636240Y-81495316D01*
X92636240Y-81327684D01*
X92668943Y-81163272D01*
X92733093Y-81008400D01*
X92826225Y-80869019D01*
X92944759Y-80750485D01*
X93084140Y-80657353D01*
X93239012Y-80593203D01*
X93403424Y-80560500D01*
X93571056Y-80560500D01*
X93735468Y-80593203D01*
G37*
G36*
X91195468Y-80593203D02*
G01*
X91350340Y-80657353D01*
X91489721Y-80750485D01*
X91608255Y-80869019D01*
X91701387Y-81008400D01*
X91765537Y-81163272D01*
X91798240Y-81327684D01*
X91798240Y-81495316D01*
X91765537Y-81659728D01*
X91701387Y-81814600D01*
X91608255Y-81953981D01*
X91489721Y-82072515D01*
X91350340Y-82165647D01*
X91195468Y-82229797D01*
X91031056Y-82262500D01*
X90863424Y-82262500D01*
X90699012Y-82229797D01*
X90544140Y-82165647D01*
X90404759Y-82072515D01*
X90286225Y-81953981D01*
X90193093Y-81814600D01*
X90128943Y-81659728D01*
X90096240Y-81495316D01*
X90096240Y-81327684D01*
X90128943Y-81163272D01*
X90193093Y-81008400D01*
X90286225Y-80869019D01*
X90404759Y-80750485D01*
X90544140Y-80657353D01*
X90699012Y-80593203D01*
X90863424Y-80560500D01*
X91031056Y-80560500D01*
X91195468Y-80593203D01*
G37*
G36*
X88655468Y-80593203D02*
G01*
X88810340Y-80657353D01*
X88949721Y-80750485D01*
X89068255Y-80869019D01*
X89161387Y-81008400D01*
X89225537Y-81163272D01*
X89258240Y-81327684D01*
X89258240Y-81495316D01*
X89225537Y-81659728D01*
X89161387Y-81814600D01*
X89068255Y-81953981D01*
X88949721Y-82072515D01*
X88810340Y-82165647D01*
X88655468Y-82229797D01*
X88491056Y-82262500D01*
X88323424Y-82262500D01*
X88159012Y-82229797D01*
X88004140Y-82165647D01*
X87864759Y-82072515D01*
X87746225Y-81953981D01*
X87653093Y-81814600D01*
X87588943Y-81659728D01*
X87556240Y-81495316D01*
X87556240Y-81327684D01*
X87588943Y-81163272D01*
X87653093Y-81008400D01*
X87746225Y-80869019D01*
X87864759Y-80750485D01*
X88004140Y-80657353D01*
X88159012Y-80593203D01*
X88323424Y-80560500D01*
X88491056Y-80560500D01*
X88655468Y-80593203D01*
G37*
G36*
X86115468Y-80593203D02*
G01*
X86270340Y-80657353D01*
X86409721Y-80750485D01*
X86528255Y-80869019D01*
X86621387Y-81008400D01*
X86685537Y-81163272D01*
X86718240Y-81327684D01*
X86718240Y-81495316D01*
X86685537Y-81659728D01*
X86621387Y-81814600D01*
X86528255Y-81953981D01*
X86409721Y-82072515D01*
X86270340Y-82165647D01*
X86115468Y-82229797D01*
X85951056Y-82262500D01*
X85783424Y-82262500D01*
X85619012Y-82229797D01*
X85464140Y-82165647D01*
X85324759Y-82072515D01*
X85206225Y-81953981D01*
X85113093Y-81814600D01*
X85048943Y-81659728D01*
X85016240Y-81495316D01*
X85016240Y-81327684D01*
X85048943Y-81163272D01*
X85113093Y-81008400D01*
X85206225Y-80869019D01*
X85324759Y-80750485D01*
X85464140Y-80657353D01*
X85619012Y-80593203D01*
X85783424Y-80560500D01*
X85951056Y-80560500D01*
X86115468Y-80593203D01*
G37*
G36*
X108975468Y-80593203D02*
G01*
X109130340Y-80657353D01*
X109269721Y-80750485D01*
X109388255Y-80869019D01*
X109481387Y-81008400D01*
X109545537Y-81163272D01*
X109578240Y-81327684D01*
X109578240Y-81495316D01*
X109545537Y-81659728D01*
X109481387Y-81814600D01*
X109388255Y-81953981D01*
X109269721Y-82072515D01*
X109130340Y-82165647D01*
X108975468Y-82229797D01*
X108811056Y-82262500D01*
X108643424Y-82262500D01*
X108479012Y-82229797D01*
X108324140Y-82165647D01*
X108184759Y-82072515D01*
X108066225Y-81953981D01*
X107973093Y-81814600D01*
X107908943Y-81659728D01*
X107876240Y-81495316D01*
X107876240Y-81327684D01*
X107908943Y-81163272D01*
X107973093Y-81008400D01*
X108066225Y-80869019D01*
X108184759Y-80750485D01*
X108324140Y-80657353D01*
X108479012Y-80593203D01*
X108643424Y-80560500D01*
X108811056Y-80560500D01*
X108975468Y-80593203D01*
G37*
G36*
X111515468Y-80593203D02*
G01*
X111670340Y-80657353D01*
X111809721Y-80750485D01*
X111928255Y-80869019D01*
X112021387Y-81008400D01*
X112085537Y-81163272D01*
X112118240Y-81327684D01*
X112118240Y-81495316D01*
X112085537Y-81659728D01*
X112021387Y-81814600D01*
X111928255Y-81953981D01*
X111809721Y-82072515D01*
X111670340Y-82165647D01*
X111515468Y-82229797D01*
X111351056Y-82262500D01*
X111183424Y-82262500D01*
X111019012Y-82229797D01*
X110864140Y-82165647D01*
X110724759Y-82072515D01*
X110606225Y-81953981D01*
X110513093Y-81814600D01*
X110448943Y-81659728D01*
X110416240Y-81495316D01*
X110416240Y-81327684D01*
X110448943Y-81163272D01*
X110513093Y-81008400D01*
X110606225Y-80869019D01*
X110724759Y-80750485D01*
X110864140Y-80657353D01*
X111019012Y-80593203D01*
X111183424Y-80560500D01*
X111351056Y-80560500D01*
X111515468Y-80593203D01*
G37*
G36*
X78495468Y-80593203D02*
G01*
X78650340Y-80657353D01*
X78789721Y-80750485D01*
X78908255Y-80869019D01*
X79001387Y-81008400D01*
X79065537Y-81163272D01*
X79098240Y-81327684D01*
X79098240Y-81495316D01*
X79065537Y-81659728D01*
X79001387Y-81814600D01*
X78908255Y-81953981D01*
X78789721Y-82072515D01*
X78650340Y-82165647D01*
X78495468Y-82229797D01*
X78331056Y-82262500D01*
X78163424Y-82262500D01*
X77999012Y-82229797D01*
X77844140Y-82165647D01*
X77704759Y-82072515D01*
X77586225Y-81953981D01*
X77493093Y-81814600D01*
X77428943Y-81659728D01*
X77396240Y-81495316D01*
X77396240Y-81327684D01*
X77428943Y-81163272D01*
X77493093Y-81008400D01*
X77586225Y-80869019D01*
X77704759Y-80750485D01*
X77844140Y-80657353D01*
X77999012Y-80593203D01*
X78163424Y-80560500D01*
X78331056Y-80560500D01*
X78495468Y-80593203D01*
G37*
G36*
X81035468Y-80593203D02*
G01*
X81190340Y-80657353D01*
X81329721Y-80750485D01*
X81448255Y-80869019D01*
X81541387Y-81008400D01*
X81605537Y-81163272D01*
X81638240Y-81327684D01*
X81638240Y-81495316D01*
X81605537Y-81659728D01*
X81541387Y-81814600D01*
X81448255Y-81953981D01*
X81329721Y-82072515D01*
X81190340Y-82165647D01*
X81035468Y-82229797D01*
X80871056Y-82262500D01*
X80703424Y-82262500D01*
X80539012Y-82229797D01*
X80384140Y-82165647D01*
X80244759Y-82072515D01*
X80126225Y-81953981D01*
X80033093Y-81814600D01*
X79968943Y-81659728D01*
X79936240Y-81495316D01*
X79936240Y-81327684D01*
X79968943Y-81163272D01*
X80033093Y-81008400D01*
X80126225Y-80869019D01*
X80244759Y-80750485D01*
X80384140Y-80657353D01*
X80539012Y-80593203D01*
X80703424Y-80560500D01*
X80871056Y-80560500D01*
X81035468Y-80593203D01*
G37*
G36*
X103895468Y-80593203D02*
G01*
X104050340Y-80657353D01*
X104189721Y-80750485D01*
X104308255Y-80869019D01*
X104401387Y-81008400D01*
X104465537Y-81163272D01*
X104498240Y-81327684D01*
X104498240Y-81495316D01*
X104465537Y-81659728D01*
X104401387Y-81814600D01*
X104308255Y-81953981D01*
X104189721Y-82072515D01*
X104050340Y-82165647D01*
X103895468Y-82229797D01*
X103731056Y-82262500D01*
X103563424Y-82262500D01*
X103399012Y-82229797D01*
X103244140Y-82165647D01*
X103104759Y-82072515D01*
X102986225Y-81953981D01*
X102893093Y-81814600D01*
X102828943Y-81659728D01*
X102796240Y-81495316D01*
X102796240Y-81327684D01*
X102828943Y-81163272D01*
X102893093Y-81008400D01*
X102986225Y-80869019D01*
X103104759Y-80750485D01*
X103244140Y-80657353D01*
X103399012Y-80593203D01*
X103563424Y-80560500D01*
X103731056Y-80560500D01*
X103895468Y-80593203D01*
G37*
G36*
X83575468Y-80593203D02*
G01*
X83730340Y-80657353D01*
X83869721Y-80750485D01*
X83988255Y-80869019D01*
X84081387Y-81008400D01*
X84145537Y-81163272D01*
X84178240Y-81327684D01*
X84178240Y-81495316D01*
X84145537Y-81659728D01*
X84081387Y-81814600D01*
X83988255Y-81953981D01*
X83869721Y-82072515D01*
X83730340Y-82165647D01*
X83575468Y-82229797D01*
X83411056Y-82262500D01*
X83243424Y-82262500D01*
X83079012Y-82229797D01*
X82924140Y-82165647D01*
X82784759Y-82072515D01*
X82666225Y-81953981D01*
X82573093Y-81814600D01*
X82508943Y-81659728D01*
X82476240Y-81495316D01*
X82476240Y-81327684D01*
X82508943Y-81163272D01*
X82573093Y-81008400D01*
X82666225Y-80869019D01*
X82784759Y-80750485D01*
X82924140Y-80657353D01*
X83079012Y-80593203D01*
X83243424Y-80560500D01*
X83411056Y-80560500D01*
X83575468Y-80593203D01*
G37*
G36*
X106435468Y-80593203D02*
G01*
X106590340Y-80657353D01*
X106729721Y-80750485D01*
X106848255Y-80869019D01*
X106941387Y-81008400D01*
X107005537Y-81163272D01*
X107038240Y-81327684D01*
X107038240Y-81495316D01*
X107005537Y-81659728D01*
X106941387Y-81814600D01*
X106848255Y-81953981D01*
X106729721Y-82072515D01*
X106590340Y-82165647D01*
X106435468Y-82229797D01*
X106271056Y-82262500D01*
X106103424Y-82262500D01*
X105939012Y-82229797D01*
X105784140Y-82165647D01*
X105644759Y-82072515D01*
X105526225Y-81953981D01*
X105433093Y-81814600D01*
X105368943Y-81659728D01*
X105336240Y-81495316D01*
X105336240Y-81327684D01*
X105368943Y-81163272D01*
X105433093Y-81008400D01*
X105526225Y-80869019D01*
X105644759Y-80750485D01*
X105784140Y-80657353D01*
X105939012Y-80593203D01*
X106103424Y-80560500D01*
X106271056Y-80560500D01*
X106435468Y-80593203D01*
G37*
G36*
X67779112Y-78974227D02*
G01*
X67928412Y-79003924D01*
X68092384Y-79071844D01*
X68239954Y-79170447D01*
X68365453Y-79295946D01*
X68464056Y-79443516D01*
X68531976Y-79607488D01*
X68566600Y-79781559D01*
X68566600Y-79959041D01*
X68531976Y-80133112D01*
X68464056Y-80297084D01*
X68365453Y-80444654D01*
X68239954Y-80570153D01*
X68092384Y-80668756D01*
X67928412Y-80736676D01*
X67779112Y-80766373D01*
X67754342Y-80771300D01*
X67576858Y-80771300D01*
X67552088Y-80766373D01*
X67402788Y-80736676D01*
X67238816Y-80668756D01*
X67091246Y-80570153D01*
X66965747Y-80444654D01*
X66867144Y-80297084D01*
X66799224Y-80133112D01*
X66764600Y-79959041D01*
X66764600Y-79781559D01*
X66799224Y-79607488D01*
X66867144Y-79443516D01*
X66965747Y-79295946D01*
X67091246Y-79170447D01*
X67238816Y-79071844D01*
X67402788Y-79003924D01*
X67552088Y-78974227D01*
X67576858Y-78969300D01*
X67754342Y-78969300D01*
X67779112Y-78974227D01*
G37*
G36*
X70319112Y-78974227D02*
G01*
X70468412Y-79003924D01*
X70632384Y-79071844D01*
X70779954Y-79170447D01*
X70905453Y-79295946D01*
X71004056Y-79443516D01*
X71071976Y-79607488D01*
X71106600Y-79781559D01*
X71106600Y-79959041D01*
X71071976Y-80133112D01*
X71004056Y-80297084D01*
X70905453Y-80444654D01*
X70779954Y-80570153D01*
X70632384Y-80668756D01*
X70468412Y-80736676D01*
X70319112Y-80766373D01*
X70294342Y-80771300D01*
X70116858Y-80771300D01*
X70092088Y-80766373D01*
X69942788Y-80736676D01*
X69778816Y-80668756D01*
X69631246Y-80570153D01*
X69505747Y-80444654D01*
X69407144Y-80297084D01*
X69339224Y-80133112D01*
X69304600Y-79959041D01*
X69304600Y-79781559D01*
X69339224Y-79607488D01*
X69407144Y-79443516D01*
X69505747Y-79295946D01*
X69631246Y-79170447D01*
X69778816Y-79071844D01*
X69942788Y-79003924D01*
X70092088Y-78974227D01*
X70116858Y-78969300D01*
X70294342Y-78969300D01*
X70319112Y-78974227D01*
G37*
G36*
X108975468Y-78053203D02*
G01*
X109130340Y-78117353D01*
X109269721Y-78210485D01*
X109388255Y-78329019D01*
X109481387Y-78468400D01*
X109545537Y-78623272D01*
X109578240Y-78787684D01*
X109578240Y-78955316D01*
X109545537Y-79119728D01*
X109481387Y-79274600D01*
X109388255Y-79413981D01*
X109269721Y-79532515D01*
X109130340Y-79625647D01*
X108975468Y-79689797D01*
X108811056Y-79722500D01*
X108643424Y-79722500D01*
X108479012Y-79689797D01*
X108324140Y-79625647D01*
X108184759Y-79532515D01*
X108066225Y-79413981D01*
X107973093Y-79274600D01*
X107908943Y-79119728D01*
X107876240Y-78955316D01*
X107876240Y-78787684D01*
X107908943Y-78623272D01*
X107973093Y-78468400D01*
X108066225Y-78329019D01*
X108184759Y-78210485D01*
X108324140Y-78117353D01*
X108479012Y-78053203D01*
X108643424Y-78020500D01*
X108811056Y-78020500D01*
X108975468Y-78053203D01*
G37*
G36*
X78495468Y-78053203D02*
G01*
X78650340Y-78117353D01*
X78789721Y-78210485D01*
X78908255Y-78329019D01*
X79001387Y-78468400D01*
X79065537Y-78623272D01*
X79098240Y-78787684D01*
X79098240Y-78955316D01*
X79065537Y-79119728D01*
X79001387Y-79274600D01*
X78908255Y-79413981D01*
X78789721Y-79532515D01*
X78650340Y-79625647D01*
X78495468Y-79689797D01*
X78331056Y-79722500D01*
X78163424Y-79722500D01*
X77999012Y-79689797D01*
X77844140Y-79625647D01*
X77704759Y-79532515D01*
X77586225Y-79413981D01*
X77493093Y-79274600D01*
X77428943Y-79119728D01*
X77396240Y-78955316D01*
X77396240Y-78787684D01*
X77428943Y-78623272D01*
X77493093Y-78468400D01*
X77586225Y-78329019D01*
X77704759Y-78210485D01*
X77844140Y-78117353D01*
X77999012Y-78053203D01*
X78163424Y-78020500D01*
X78331056Y-78020500D01*
X78495468Y-78053203D01*
G37*
G36*
X67779112Y-76434227D02*
G01*
X67928412Y-76463924D01*
X68092384Y-76531844D01*
X68239954Y-76630447D01*
X68365453Y-76755946D01*
X68464056Y-76903516D01*
X68531976Y-77067488D01*
X68566600Y-77241559D01*
X68566600Y-77419041D01*
X68531976Y-77593112D01*
X68464056Y-77757084D01*
X68365453Y-77904654D01*
X68239954Y-78030153D01*
X68092384Y-78128756D01*
X67928412Y-78196676D01*
X67779112Y-78226373D01*
X67754342Y-78231300D01*
X67576858Y-78231300D01*
X67552088Y-78226373D01*
X67402788Y-78196676D01*
X67238816Y-78128756D01*
X67091246Y-78030153D01*
X66965747Y-77904654D01*
X66867144Y-77757084D01*
X66799224Y-77593112D01*
X66764600Y-77419041D01*
X66764600Y-77241559D01*
X66799224Y-77067488D01*
X66867144Y-76903516D01*
X66965747Y-76755946D01*
X67091246Y-76630447D01*
X67238816Y-76531844D01*
X67402788Y-76463924D01*
X67552088Y-76434227D01*
X67576858Y-76429300D01*
X67754342Y-76429300D01*
X67779112Y-76434227D01*
G37*
G36*
X70319112Y-76434227D02*
G01*
X70468412Y-76463924D01*
X70632384Y-76531844D01*
X70779954Y-76630447D01*
X70905453Y-76755946D01*
X71004056Y-76903516D01*
X71071976Y-77067488D01*
X71106600Y-77241559D01*
X71106600Y-77419041D01*
X71071976Y-77593112D01*
X71004056Y-77757084D01*
X70905453Y-77904654D01*
X70779954Y-78030153D01*
X70632384Y-78128756D01*
X70468412Y-78196676D01*
X70319112Y-78226373D01*
X70294342Y-78231300D01*
X70116858Y-78231300D01*
X70092088Y-78226373D01*
X69942788Y-78196676D01*
X69778816Y-78128756D01*
X69631246Y-78030153D01*
X69505747Y-77904654D01*
X69407144Y-77757084D01*
X69339224Y-77593112D01*
X69304600Y-77419041D01*
X69304600Y-77241559D01*
X69339224Y-77067488D01*
X69407144Y-76903516D01*
X69505747Y-76755946D01*
X69631246Y-76630447D01*
X69778816Y-76531844D01*
X69942788Y-76463924D01*
X70092088Y-76434227D01*
X70116858Y-76429300D01*
X70294342Y-76429300D01*
X70319112Y-76434227D01*
G37*
G36*
X78495468Y-75513203D02*
G01*
X78650340Y-75577353D01*
X78789721Y-75670485D01*
X78908255Y-75789019D01*
X79001387Y-75928400D01*
X79065537Y-76083272D01*
X79098240Y-76247684D01*
X79098240Y-76415316D01*
X79065537Y-76579728D01*
X79001387Y-76734600D01*
X78908255Y-76873981D01*
X78789721Y-76992515D01*
X78650340Y-77085647D01*
X78495468Y-77149797D01*
X78331056Y-77182500D01*
X78163424Y-77182500D01*
X77999012Y-77149797D01*
X77844140Y-77085647D01*
X77704759Y-76992515D01*
X77586225Y-76873981D01*
X77493093Y-76734600D01*
X77428943Y-76579728D01*
X77396240Y-76415316D01*
X77396240Y-76247684D01*
X77428943Y-76083272D01*
X77493093Y-75928400D01*
X77586225Y-75789019D01*
X77704759Y-75670485D01*
X77844140Y-75577353D01*
X77999012Y-75513203D01*
X78163424Y-75480500D01*
X78331056Y-75480500D01*
X78495468Y-75513203D01*
G37*
G36*
X70319112Y-73894227D02*
G01*
X70468412Y-73923924D01*
X70632384Y-73991844D01*
X70779954Y-74090447D01*
X70905453Y-74215946D01*
X71004056Y-74363516D01*
X71071976Y-74527488D01*
X71106600Y-74701559D01*
X71106600Y-74879041D01*
X71071976Y-75053112D01*
X71004056Y-75217084D01*
X70905453Y-75364654D01*
X70779954Y-75490153D01*
X70632384Y-75588756D01*
X70468412Y-75656676D01*
X70319112Y-75686373D01*
X70294342Y-75691300D01*
X70116858Y-75691300D01*
X70092088Y-75686373D01*
X69942788Y-75656676D01*
X69778816Y-75588756D01*
X69631246Y-75490153D01*
X69505747Y-75364654D01*
X69407144Y-75217084D01*
X69339224Y-75053112D01*
X69304600Y-74879041D01*
X69304600Y-74701559D01*
X69339224Y-74527488D01*
X69407144Y-74363516D01*
X69505747Y-74215946D01*
X69631246Y-74090447D01*
X69778816Y-73991844D01*
X69942788Y-73923924D01*
X70092088Y-73894227D01*
X70116858Y-73889300D01*
X70294342Y-73889300D01*
X70319112Y-73894227D01*
G37*
G36*
X68566600Y-75691300D02*
G01*
X66764600Y-75691300D01*
X66764600Y-73889300D01*
X68566600Y-73889300D01*
X68566600Y-75691300D01*
G37*
G36*
X78495468Y-72973203D02*
G01*
X78650340Y-73037353D01*
X78789721Y-73130485D01*
X78908255Y-73249019D01*
X79001387Y-73388400D01*
X79065537Y-73543272D01*
X79098240Y-73707684D01*
X79098240Y-73875316D01*
X79065537Y-74039728D01*
X79001387Y-74194600D01*
X78908255Y-74333981D01*
X78789721Y-74452515D01*
X78650340Y-74545647D01*
X78495468Y-74609797D01*
X78331056Y-74642500D01*
X78163424Y-74642500D01*
X77999012Y-74609797D01*
X77844140Y-74545647D01*
X77704759Y-74452515D01*
X77586225Y-74333981D01*
X77493093Y-74194600D01*
X77428943Y-74039728D01*
X77396240Y-73875316D01*
X77396240Y-73707684D01*
X77428943Y-73543272D01*
X77493093Y-73388400D01*
X77586225Y-73249019D01*
X77704759Y-73130485D01*
X77844140Y-73037353D01*
X77999012Y-72973203D01*
X78163424Y-72940500D01*
X78331056Y-72940500D01*
X78495468Y-72973203D01*
G37*
G36*
X136198428Y-72158963D02*
G01*
X136353300Y-72223113D01*
X136492681Y-72316245D01*
X136611215Y-72434779D01*
X136704347Y-72574160D01*
X136768497Y-72729032D01*
X136801200Y-72893444D01*
X136801200Y-73061076D01*
X136768497Y-73225488D01*
X136704347Y-73380360D01*
X136611215Y-73519741D01*
X136492681Y-73638275D01*
X136353300Y-73731407D01*
X136198428Y-73795557D01*
X136034016Y-73828260D01*
X135866384Y-73828260D01*
X135701972Y-73795557D01*
X135547100Y-73731407D01*
X135407719Y-73638275D01*
X135289185Y-73519741D01*
X135196053Y-73380360D01*
X135131903Y-73225488D01*
X135099200Y-73061076D01*
X135099200Y-72893444D01*
X135131903Y-72729032D01*
X135196053Y-72574160D01*
X135289185Y-72434779D01*
X135407719Y-72316245D01*
X135547100Y-72223113D01*
X135701972Y-72158963D01*
X135866384Y-72126260D01*
X136034016Y-72126260D01*
X136198428Y-72158963D01*
G37*
G36*
X126038428Y-72158963D02*
G01*
X126193300Y-72223113D01*
X126332681Y-72316245D01*
X126451215Y-72434779D01*
X126544347Y-72574160D01*
X126608497Y-72729032D01*
X126641200Y-72893444D01*
X126641200Y-73061076D01*
X126608497Y-73225488D01*
X126544347Y-73380360D01*
X126451215Y-73519741D01*
X126332681Y-73638275D01*
X126193300Y-73731407D01*
X126038428Y-73795557D01*
X125874016Y-73828260D01*
X125706384Y-73828260D01*
X125541972Y-73795557D01*
X125387100Y-73731407D01*
X125247719Y-73638275D01*
X125129185Y-73519741D01*
X125036053Y-73380360D01*
X124971903Y-73225488D01*
X124939200Y-73061076D01*
X124939200Y-72893444D01*
X124971903Y-72729032D01*
X125036053Y-72574160D01*
X125129185Y-72434779D01*
X125247719Y-72316245D01*
X125387100Y-72223113D01*
X125541972Y-72158963D01*
X125706384Y-72126260D01*
X125874016Y-72126260D01*
X126038428Y-72158963D01*
G37*
G36*
X78495468Y-70433203D02*
G01*
X78650340Y-70497353D01*
X78789721Y-70590485D01*
X78908255Y-70709019D01*
X79001387Y-70848400D01*
X79065537Y-71003272D01*
X79098240Y-71167684D01*
X79098240Y-71335316D01*
X79065537Y-71499728D01*
X79001387Y-71654600D01*
X78908255Y-71793981D01*
X78789721Y-71912515D01*
X78650340Y-72005647D01*
X78495468Y-72069797D01*
X78331056Y-72102500D01*
X78163424Y-72102500D01*
X77999012Y-72069797D01*
X77844140Y-72005647D01*
X77704759Y-71912515D01*
X77586225Y-71793981D01*
X77493093Y-71654600D01*
X77428943Y-71499728D01*
X77396240Y-71335316D01*
X77396240Y-71167684D01*
X77428943Y-71003272D01*
X77493093Y-70848400D01*
X77586225Y-70709019D01*
X77704759Y-70590485D01*
X77844140Y-70497353D01*
X77999012Y-70433203D01*
X78163424Y-70400500D01*
X78331056Y-70400500D01*
X78495468Y-70433203D01*
G37*
G36*
X126053668Y-69158083D02*
G01*
X126208540Y-69222233D01*
X126347921Y-69315365D01*
X126347925Y-69315369D01*
X126354820Y-69319976D01*
X126360994Y-69325042D01*
X126382605Y-69336593D01*
X126406054Y-69343706D01*
X126430440Y-69346108D01*
X126454826Y-69343706D01*
X126478275Y-69336593D01*
X126499886Y-69325042D01*
X126506060Y-69319976D01*
X126512955Y-69315369D01*
X126512959Y-69315365D01*
X126652340Y-69222233D01*
X126807212Y-69158083D01*
X126971624Y-69125380D01*
X127139256Y-69125380D01*
X127303668Y-69158083D01*
X127458540Y-69222233D01*
X127597921Y-69315365D01*
X127716455Y-69433899D01*
X127809587Y-69573280D01*
X127873737Y-69728152D01*
X127906440Y-69892564D01*
X127906440Y-70060196D01*
X127873737Y-70224608D01*
X127809587Y-70379480D01*
X127716455Y-70518861D01*
X127597921Y-70637395D01*
X127458540Y-70730527D01*
X127303668Y-70794677D01*
X127139256Y-70827380D01*
X126971624Y-70827380D01*
X126807212Y-70794677D01*
X126652340Y-70730527D01*
X126512959Y-70637395D01*
X126512955Y-70637391D01*
X126506060Y-70632784D01*
X126499886Y-70627718D01*
X126478275Y-70616167D01*
X126454826Y-70609054D01*
X126430440Y-70606652D01*
X126406054Y-70609054D01*
X126382605Y-70616167D01*
X126360994Y-70627718D01*
X126354820Y-70632784D01*
X126347925Y-70637391D01*
X126347921Y-70637395D01*
X126208540Y-70730527D01*
X126053668Y-70794677D01*
X125889256Y-70827380D01*
X125721624Y-70827380D01*
X125557212Y-70794677D01*
X125402340Y-70730527D01*
X125262959Y-70637395D01*
X125144425Y-70518861D01*
X125051293Y-70379480D01*
X124987143Y-70224608D01*
X124954440Y-70060196D01*
X124954440Y-69892564D01*
X124987143Y-69728152D01*
X125051293Y-69573280D01*
X125144425Y-69433899D01*
X125262959Y-69315365D01*
X125402340Y-69222233D01*
X125557212Y-69158083D01*
X125721624Y-69125380D01*
X125889256Y-69125380D01*
X126053668Y-69158083D01*
G37*
G36*
X132303668Y-69158083D02*
G01*
X132458540Y-69222233D01*
X132597921Y-69315365D01*
X132597925Y-69315369D01*
X132604820Y-69319976D01*
X132610994Y-69325042D01*
X132632605Y-69336593D01*
X132656054Y-69343706D01*
X132680440Y-69346108D01*
X132704826Y-69343706D01*
X132728275Y-69336593D01*
X132749886Y-69325042D01*
X132756060Y-69319976D01*
X132762955Y-69315369D01*
X132762959Y-69315365D01*
X132902340Y-69222233D01*
X133057212Y-69158083D01*
X133221624Y-69125380D01*
X133389256Y-69125380D01*
X133553668Y-69158083D01*
X133708540Y-69222233D01*
X133847921Y-69315365D01*
X133966455Y-69433899D01*
X134059587Y-69573280D01*
X134123737Y-69728152D01*
X134156440Y-69892564D01*
X134156440Y-70060196D01*
X134123737Y-70224608D01*
X134059587Y-70379480D01*
X133966455Y-70518861D01*
X133847921Y-70637395D01*
X133708540Y-70730527D01*
X133553668Y-70794677D01*
X133389256Y-70827380D01*
X133221624Y-70827380D01*
X133057212Y-70794677D01*
X132902340Y-70730527D01*
X132762959Y-70637395D01*
X132762955Y-70637391D01*
X132756060Y-70632784D01*
X132749886Y-70627718D01*
X132728275Y-70616167D01*
X132704826Y-70609054D01*
X132680440Y-70606652D01*
X132656054Y-70609054D01*
X132632605Y-70616167D01*
X132610994Y-70627718D01*
X132604820Y-70632784D01*
X132597925Y-70637391D01*
X132597921Y-70637395D01*
X132458540Y-70730527D01*
X132303668Y-70794677D01*
X132139256Y-70827380D01*
X131971624Y-70827380D01*
X131807212Y-70794677D01*
X131652340Y-70730527D01*
X131512959Y-70637395D01*
X131394425Y-70518861D01*
X131301293Y-70379480D01*
X131237143Y-70224608D01*
X131204440Y-70060196D01*
X131204440Y-69892564D01*
X131237143Y-69728152D01*
X131301293Y-69573280D01*
X131394425Y-69433899D01*
X131512959Y-69315365D01*
X131652340Y-69222233D01*
X131807212Y-69158083D01*
X131971624Y-69125380D01*
X132139256Y-69125380D01*
X132303668Y-69158083D01*
G37*
G36*
X78495468Y-67893203D02*
G01*
X78650340Y-67957353D01*
X78789721Y-68050485D01*
X78908255Y-68169019D01*
X79001387Y-68308400D01*
X79065537Y-68463272D01*
X79098240Y-68627684D01*
X79098240Y-68795316D01*
X79065537Y-68959728D01*
X79001387Y-69114600D01*
X78908255Y-69253981D01*
X78789721Y-69372515D01*
X78650340Y-69465647D01*
X78495468Y-69529797D01*
X78331056Y-69562500D01*
X78163424Y-69562500D01*
X77999012Y-69529797D01*
X77844140Y-69465647D01*
X77704759Y-69372515D01*
X77586225Y-69253981D01*
X77493093Y-69114600D01*
X77428943Y-68959728D01*
X77396240Y-68795316D01*
X77396240Y-68627684D01*
X77428943Y-68463272D01*
X77493093Y-68308400D01*
X77586225Y-68169019D01*
X77704759Y-68050485D01*
X77844140Y-67957353D01*
X77999012Y-67893203D01*
X78163424Y-67860500D01*
X78331056Y-67860500D01*
X78495468Y-67893203D01*
G37*
G36*
X64279708Y-67533103D02*
G01*
X64434580Y-67597253D01*
X64573961Y-67690385D01*
X64573965Y-67690389D01*
X64580860Y-67694996D01*
X64587034Y-67700062D01*
X64608645Y-67711613D01*
X64632094Y-67718726D01*
X64656480Y-67721128D01*
X64680866Y-67718726D01*
X64704315Y-67711613D01*
X64725926Y-67700062D01*
X64732100Y-67694996D01*
X64738995Y-67690389D01*
X64738999Y-67690385D01*
X64878380Y-67597253D01*
X65033252Y-67533103D01*
X65197664Y-67500400D01*
X65365296Y-67500400D01*
X65529708Y-67533103D01*
X65684580Y-67597253D01*
X65823961Y-67690385D01*
X65942495Y-67808919D01*
X66035627Y-67948300D01*
X66099777Y-68103172D01*
X66132480Y-68267584D01*
X66132480Y-68435216D01*
X66099777Y-68599628D01*
X66035627Y-68754500D01*
X65942495Y-68893881D01*
X65823961Y-69012415D01*
X65684580Y-69105547D01*
X65529708Y-69169697D01*
X65365296Y-69202400D01*
X65197664Y-69202400D01*
X65033252Y-69169697D01*
X64878380Y-69105547D01*
X64738999Y-69012415D01*
X64738995Y-69012411D01*
X64732100Y-69007804D01*
X64725926Y-69002738D01*
X64704315Y-68991187D01*
X64680866Y-68984074D01*
X64656480Y-68981672D01*
X64632094Y-68984074D01*
X64608645Y-68991187D01*
X64587034Y-69002738D01*
X64580860Y-69007804D01*
X64573965Y-69012411D01*
X64573961Y-69012415D01*
X64434580Y-69105547D01*
X64279708Y-69169697D01*
X64115296Y-69202400D01*
X63947664Y-69202400D01*
X63783252Y-69169697D01*
X63628380Y-69105547D01*
X63488999Y-69012415D01*
X63370465Y-68893881D01*
X63277333Y-68754500D01*
X63213183Y-68599628D01*
X63180480Y-68435216D01*
X63180480Y-68267584D01*
X63213183Y-68103172D01*
X63277333Y-67948300D01*
X63370465Y-67808919D01*
X63488999Y-67690385D01*
X63628380Y-67597253D01*
X63783252Y-67533103D01*
X63947664Y-67500400D01*
X64115296Y-67500400D01*
X64279708Y-67533103D01*
G37*
G36*
X70529708Y-67533103D02*
G01*
X70684580Y-67597253D01*
X70823961Y-67690385D01*
X70823965Y-67690389D01*
X70830860Y-67694996D01*
X70837034Y-67700062D01*
X70858645Y-67711613D01*
X70882094Y-67718726D01*
X70906480Y-67721128D01*
X70930866Y-67718726D01*
X70954315Y-67711613D01*
X70975926Y-67700062D01*
X70982100Y-67694996D01*
X70988995Y-67690389D01*
X70988999Y-67690385D01*
X71128380Y-67597253D01*
X71283252Y-67533103D01*
X71447664Y-67500400D01*
X71615296Y-67500400D01*
X71779708Y-67533103D01*
X71934580Y-67597253D01*
X72073961Y-67690385D01*
X72192495Y-67808919D01*
X72285627Y-67948300D01*
X72349777Y-68103172D01*
X72382480Y-68267584D01*
X72382480Y-68435216D01*
X72349777Y-68599628D01*
X72285627Y-68754500D01*
X72192495Y-68893881D01*
X72073961Y-69012415D01*
X71934580Y-69105547D01*
X71779708Y-69169697D01*
X71615296Y-69202400D01*
X71447664Y-69202400D01*
X71283252Y-69169697D01*
X71128380Y-69105547D01*
X70988999Y-69012415D01*
X70988995Y-69012411D01*
X70982100Y-69007804D01*
X70975926Y-69002738D01*
X70954315Y-68991187D01*
X70930866Y-68984074D01*
X70906480Y-68981672D01*
X70882094Y-68984074D01*
X70858645Y-68991187D01*
X70837034Y-69002738D01*
X70830860Y-69007804D01*
X70823965Y-69012411D01*
X70823961Y-69012415D01*
X70684580Y-69105547D01*
X70529708Y-69169697D01*
X70365296Y-69202400D01*
X70197664Y-69202400D01*
X70033252Y-69169697D01*
X69878380Y-69105547D01*
X69738999Y-69012415D01*
X69620465Y-68893881D01*
X69527333Y-68754500D01*
X69463183Y-68599628D01*
X69430480Y-68435216D01*
X69430480Y-68267584D01*
X69463183Y-68103172D01*
X69527333Y-67948300D01*
X69620465Y-67808919D01*
X69738999Y-67690385D01*
X69878380Y-67597253D01*
X70033252Y-67533103D01*
X70197664Y-67500400D01*
X70365296Y-67500400D01*
X70529708Y-67533103D01*
G37*
G36*
X128443712Y-65424487D02*
G01*
X128593012Y-65454184D01*
X128756984Y-65522104D01*
X128904554Y-65620707D01*
X129030053Y-65746206D01*
X129128656Y-65893776D01*
X129196576Y-66057748D01*
X129231200Y-66231819D01*
X129231200Y-66409301D01*
X129196576Y-66583372D01*
X129128656Y-66747344D01*
X129030053Y-66894914D01*
X128904554Y-67020413D01*
X128756984Y-67119016D01*
X128593012Y-67186936D01*
X128443712Y-67216633D01*
X128418942Y-67221560D01*
X128241458Y-67221560D01*
X128216688Y-67216633D01*
X128067388Y-67186936D01*
X127903416Y-67119016D01*
X127755846Y-67020413D01*
X127630347Y-66894914D01*
X127531744Y-66747344D01*
X127463824Y-66583372D01*
X127429200Y-66409301D01*
X127429200Y-66231819D01*
X127463824Y-66057748D01*
X127531744Y-65893776D01*
X127630347Y-65746206D01*
X127755846Y-65620707D01*
X127903416Y-65522104D01*
X128067388Y-65454184D01*
X128216688Y-65424487D01*
X128241458Y-65419560D01*
X128418942Y-65419560D01*
X128443712Y-65424487D01*
G37*
G36*
X130983712Y-65424487D02*
G01*
X131133012Y-65454184D01*
X131296984Y-65522104D01*
X131444554Y-65620707D01*
X131570053Y-65746206D01*
X131668656Y-65893776D01*
X131736576Y-66057748D01*
X131771200Y-66231819D01*
X131771200Y-66409301D01*
X131736576Y-66583372D01*
X131668656Y-66747344D01*
X131570053Y-66894914D01*
X131444554Y-67020413D01*
X131296984Y-67119016D01*
X131133012Y-67186936D01*
X130983712Y-67216633D01*
X130958942Y-67221560D01*
X130781458Y-67221560D01*
X130756688Y-67216633D01*
X130607388Y-67186936D01*
X130443416Y-67119016D01*
X130295846Y-67020413D01*
X130170347Y-66894914D01*
X130071744Y-66747344D01*
X130003824Y-66583372D01*
X129969200Y-66409301D01*
X129969200Y-66231819D01*
X130003824Y-66057748D01*
X130071744Y-65893776D01*
X130170347Y-65746206D01*
X130295846Y-65620707D01*
X130443416Y-65522104D01*
X130607388Y-65454184D01*
X130756688Y-65424487D01*
X130781458Y-65419560D01*
X130958942Y-65419560D01*
X130983712Y-65424487D01*
G37*
G36*
X133523712Y-65424487D02*
G01*
X133673012Y-65454184D01*
X133836984Y-65522104D01*
X133984554Y-65620707D01*
X134110053Y-65746206D01*
X134208656Y-65893776D01*
X134276576Y-66057748D01*
X134311200Y-66231819D01*
X134311200Y-66409301D01*
X134276576Y-66583372D01*
X134208656Y-66747344D01*
X134110053Y-66894914D01*
X133984554Y-67020413D01*
X133836984Y-67119016D01*
X133673012Y-67186936D01*
X133523712Y-67216633D01*
X133498942Y-67221560D01*
X133321458Y-67221560D01*
X133296688Y-67216633D01*
X133147388Y-67186936D01*
X132983416Y-67119016D01*
X132835846Y-67020413D01*
X132710347Y-66894914D01*
X132611744Y-66747344D01*
X132543824Y-66583372D01*
X132509200Y-66409301D01*
X132509200Y-66231819D01*
X132543824Y-66057748D01*
X132611744Y-65893776D01*
X132710347Y-65746206D01*
X132835846Y-65620707D01*
X132983416Y-65522104D01*
X133147388Y-65454184D01*
X133296688Y-65424487D01*
X133321458Y-65419560D01*
X133498942Y-65419560D01*
X133523712Y-65424487D01*
G37*
G36*
X126691200Y-67221560D02*
G01*
X124889200Y-67221560D01*
X124889200Y-65419560D01*
X126691200Y-65419560D01*
X126691200Y-67221560D01*
G37*
G36*
X103895468Y-65353203D02*
G01*
X104050340Y-65417353D01*
X104189721Y-65510485D01*
X104308255Y-65629019D01*
X104401387Y-65768400D01*
X104465537Y-65923272D01*
X104498240Y-66087684D01*
X104498240Y-66255316D01*
X104465537Y-66419728D01*
X104401387Y-66574600D01*
X104308255Y-66713981D01*
X104189721Y-66832515D01*
X104050340Y-66925647D01*
X103895468Y-66989797D01*
X103731056Y-67022500D01*
X103563424Y-67022500D01*
X103399012Y-66989797D01*
X103244140Y-66925647D01*
X103104759Y-66832515D01*
X102986225Y-66713981D01*
X102893093Y-66574600D01*
X102828943Y-66419728D01*
X102796240Y-66255316D01*
X102796240Y-66087684D01*
X102828943Y-65923272D01*
X102893093Y-65768400D01*
X102986225Y-65629019D01*
X103104759Y-65510485D01*
X103244140Y-65417353D01*
X103399012Y-65353203D01*
X103563424Y-65320500D01*
X103731056Y-65320500D01*
X103895468Y-65353203D01*
G37*
G36*
X83575468Y-65353203D02*
G01*
X83730340Y-65417353D01*
X83869721Y-65510485D01*
X83988255Y-65629019D01*
X84081387Y-65768400D01*
X84145537Y-65923272D01*
X84178240Y-66087684D01*
X84178240Y-66255316D01*
X84145537Y-66419728D01*
X84081387Y-66574600D01*
X83988255Y-66713981D01*
X83869721Y-66832515D01*
X83730340Y-66925647D01*
X83575468Y-66989797D01*
X83411056Y-67022500D01*
X83243424Y-67022500D01*
X83079012Y-66989797D01*
X82924140Y-66925647D01*
X82784759Y-66832515D01*
X82666225Y-66713981D01*
X82573093Y-66574600D01*
X82508943Y-66419728D01*
X82476240Y-66255316D01*
X82476240Y-66087684D01*
X82508943Y-65923272D01*
X82573093Y-65768400D01*
X82666225Y-65629019D01*
X82784759Y-65510485D01*
X82924140Y-65417353D01*
X83079012Y-65353203D01*
X83243424Y-65320500D01*
X83411056Y-65320500D01*
X83575468Y-65353203D01*
G37*
G36*
X86115468Y-65353203D02*
G01*
X86270340Y-65417353D01*
X86409721Y-65510485D01*
X86528255Y-65629019D01*
X86621387Y-65768400D01*
X86685537Y-65923272D01*
X86718240Y-66087684D01*
X86718240Y-66255316D01*
X86685537Y-66419728D01*
X86621387Y-66574600D01*
X86528255Y-66713981D01*
X86409721Y-66832515D01*
X86270340Y-66925647D01*
X86115468Y-66989797D01*
X85951056Y-67022500D01*
X85783424Y-67022500D01*
X85619012Y-66989797D01*
X85464140Y-66925647D01*
X85324759Y-66832515D01*
X85206225Y-66713981D01*
X85113093Y-66574600D01*
X85048943Y-66419728D01*
X85016240Y-66255316D01*
X85016240Y-66087684D01*
X85048943Y-65923272D01*
X85113093Y-65768400D01*
X85206225Y-65629019D01*
X85324759Y-65510485D01*
X85464140Y-65417353D01*
X85619012Y-65353203D01*
X85783424Y-65320500D01*
X85951056Y-65320500D01*
X86115468Y-65353203D01*
G37*
G36*
X88655468Y-65353203D02*
G01*
X88810340Y-65417353D01*
X88949721Y-65510485D01*
X89068255Y-65629019D01*
X89161387Y-65768400D01*
X89225537Y-65923272D01*
X89258240Y-66087684D01*
X89258240Y-66255316D01*
X89225537Y-66419728D01*
X89161387Y-66574600D01*
X89068255Y-66713981D01*
X88949721Y-66832515D01*
X88810340Y-66925647D01*
X88655468Y-66989797D01*
X88491056Y-67022500D01*
X88323424Y-67022500D01*
X88159012Y-66989797D01*
X88004140Y-66925647D01*
X87864759Y-66832515D01*
X87746225Y-66713981D01*
X87653093Y-66574600D01*
X87588943Y-66419728D01*
X87556240Y-66255316D01*
X87556240Y-66087684D01*
X87588943Y-65923272D01*
X87653093Y-65768400D01*
X87746225Y-65629019D01*
X87864759Y-65510485D01*
X88004140Y-65417353D01*
X88159012Y-65353203D01*
X88323424Y-65320500D01*
X88491056Y-65320500D01*
X88655468Y-65353203D01*
G37*
G36*
X91195468Y-65353203D02*
G01*
X91350340Y-65417353D01*
X91489721Y-65510485D01*
X91608255Y-65629019D01*
X91701387Y-65768400D01*
X91765537Y-65923272D01*
X91798240Y-66087684D01*
X91798240Y-66255316D01*
X91765537Y-66419728D01*
X91701387Y-66574600D01*
X91608255Y-66713981D01*
X91489721Y-66832515D01*
X91350340Y-66925647D01*
X91195468Y-66989797D01*
X91031056Y-67022500D01*
X90863424Y-67022500D01*
X90699012Y-66989797D01*
X90544140Y-66925647D01*
X90404759Y-66832515D01*
X90286225Y-66713981D01*
X90193093Y-66574600D01*
X90128943Y-66419728D01*
X90096240Y-66255316D01*
X90096240Y-66087684D01*
X90128943Y-65923272D01*
X90193093Y-65768400D01*
X90286225Y-65629019D01*
X90404759Y-65510485D01*
X90544140Y-65417353D01*
X90699012Y-65353203D01*
X90863424Y-65320500D01*
X91031056Y-65320500D01*
X91195468Y-65353203D01*
G37*
G36*
X78495468Y-65353203D02*
G01*
X78650340Y-65417353D01*
X78789721Y-65510485D01*
X78908255Y-65629019D01*
X79001387Y-65768400D01*
X79065537Y-65923272D01*
X79098240Y-66087684D01*
X79098240Y-66255316D01*
X79065537Y-66419728D01*
X79001387Y-66574600D01*
X78908255Y-66713981D01*
X78789721Y-66832515D01*
X78650340Y-66925647D01*
X78495468Y-66989797D01*
X78331056Y-67022500D01*
X78163424Y-67022500D01*
X77999012Y-66989797D01*
X77844140Y-66925647D01*
X77704759Y-66832515D01*
X77586225Y-66713981D01*
X77493093Y-66574600D01*
X77428943Y-66419728D01*
X77396240Y-66255316D01*
X77396240Y-66087684D01*
X77428943Y-65923272D01*
X77493093Y-65768400D01*
X77586225Y-65629019D01*
X77704759Y-65510485D01*
X77844140Y-65417353D01*
X77999012Y-65353203D01*
X78163424Y-65320500D01*
X78331056Y-65320500D01*
X78495468Y-65353203D01*
G37*
G36*
X81035468Y-65353203D02*
G01*
X81190340Y-65417353D01*
X81329721Y-65510485D01*
X81448255Y-65629019D01*
X81541387Y-65768400D01*
X81605537Y-65923272D01*
X81638240Y-66087684D01*
X81638240Y-66255316D01*
X81605537Y-66419728D01*
X81541387Y-66574600D01*
X81448255Y-66713981D01*
X81329721Y-66832515D01*
X81190340Y-66925647D01*
X81035468Y-66989797D01*
X80871056Y-67022500D01*
X80703424Y-67022500D01*
X80539012Y-66989797D01*
X80384140Y-66925647D01*
X80244759Y-66832515D01*
X80126225Y-66713981D01*
X80033093Y-66574600D01*
X79968943Y-66419728D01*
X79936240Y-66255316D01*
X79936240Y-66087684D01*
X79968943Y-65923272D01*
X80033093Y-65768400D01*
X80126225Y-65629019D01*
X80244759Y-65510485D01*
X80384140Y-65417353D01*
X80539012Y-65353203D01*
X80703424Y-65320500D01*
X80871056Y-65320500D01*
X81035468Y-65353203D01*
G37*
G36*
X93735468Y-65353203D02*
G01*
X93890340Y-65417353D01*
X94029721Y-65510485D01*
X94148255Y-65629019D01*
X94241387Y-65768400D01*
X94305537Y-65923272D01*
X94338240Y-66087684D01*
X94338240Y-66255316D01*
X94305537Y-66419728D01*
X94241387Y-66574600D01*
X94148255Y-66713981D01*
X94029721Y-66832515D01*
X93890340Y-66925647D01*
X93735468Y-66989797D01*
X93571056Y-67022500D01*
X93403424Y-67022500D01*
X93239012Y-66989797D01*
X93084140Y-66925647D01*
X92944759Y-66832515D01*
X92826225Y-66713981D01*
X92733093Y-66574600D01*
X92668943Y-66419728D01*
X92636240Y-66255316D01*
X92636240Y-66087684D01*
X92668943Y-65923272D01*
X92733093Y-65768400D01*
X92826225Y-65629019D01*
X92944759Y-65510485D01*
X93084140Y-65417353D01*
X93239012Y-65353203D01*
X93403424Y-65320500D01*
X93571056Y-65320500D01*
X93735468Y-65353203D01*
G37*
G36*
X96275468Y-65353203D02*
G01*
X96430340Y-65417353D01*
X96569721Y-65510485D01*
X96688255Y-65629019D01*
X96781387Y-65768400D01*
X96845537Y-65923272D01*
X96878240Y-66087684D01*
X96878240Y-66255316D01*
X96845537Y-66419728D01*
X96781387Y-66574600D01*
X96688255Y-66713981D01*
X96569721Y-66832515D01*
X96430340Y-66925647D01*
X96275468Y-66989797D01*
X96111056Y-67022500D01*
X95943424Y-67022500D01*
X95779012Y-66989797D01*
X95624140Y-66925647D01*
X95484759Y-66832515D01*
X95366225Y-66713981D01*
X95273093Y-66574600D01*
X95208943Y-66419728D01*
X95176240Y-66255316D01*
X95176240Y-66087684D01*
X95208943Y-65923272D01*
X95273093Y-65768400D01*
X95366225Y-65629019D01*
X95484759Y-65510485D01*
X95624140Y-65417353D01*
X95779012Y-65353203D01*
X95943424Y-65320500D01*
X96111056Y-65320500D01*
X96275468Y-65353203D01*
G37*
G36*
X98815468Y-65353203D02*
G01*
X98970340Y-65417353D01*
X99109721Y-65510485D01*
X99228255Y-65629019D01*
X99321387Y-65768400D01*
X99385537Y-65923272D01*
X99418240Y-66087684D01*
X99418240Y-66255316D01*
X99385537Y-66419728D01*
X99321387Y-66574600D01*
X99228255Y-66713981D01*
X99109721Y-66832515D01*
X98970340Y-66925647D01*
X98815468Y-66989797D01*
X98651056Y-67022500D01*
X98483424Y-67022500D01*
X98319012Y-66989797D01*
X98164140Y-66925647D01*
X98024759Y-66832515D01*
X97906225Y-66713981D01*
X97813093Y-66574600D01*
X97748943Y-66419728D01*
X97716240Y-66255316D01*
X97716240Y-66087684D01*
X97748943Y-65923272D01*
X97813093Y-65768400D01*
X97906225Y-65629019D01*
X98024759Y-65510485D01*
X98164140Y-65417353D01*
X98319012Y-65353203D01*
X98483424Y-65320500D01*
X98651056Y-65320500D01*
X98815468Y-65353203D01*
G37*
G36*
X101355468Y-65353203D02*
G01*
X101510340Y-65417353D01*
X101649721Y-65510485D01*
X101768255Y-65629019D01*
X101861387Y-65768400D01*
X101925537Y-65923272D01*
X101958240Y-66087684D01*
X101958240Y-66255316D01*
X101925537Y-66419728D01*
X101861387Y-66574600D01*
X101768255Y-66713981D01*
X101649721Y-66832515D01*
X101510340Y-66925647D01*
X101355468Y-66989797D01*
X101191056Y-67022500D01*
X101023424Y-67022500D01*
X100859012Y-66989797D01*
X100704140Y-66925647D01*
X100564759Y-66832515D01*
X100446225Y-66713981D01*
X100353093Y-66574600D01*
X100288943Y-66419728D01*
X100256240Y-66255316D01*
X100256240Y-66087684D01*
X100288943Y-65923272D01*
X100353093Y-65768400D01*
X100446225Y-65629019D01*
X100564759Y-65510485D01*
X100704140Y-65417353D01*
X100859012Y-65353203D01*
X101023424Y-65320500D01*
X101191056Y-65320500D01*
X101355468Y-65353203D01*
G37*
G36*
X106435468Y-65353203D02*
G01*
X106590340Y-65417353D01*
X106729721Y-65510485D01*
X106848255Y-65629019D01*
X106941387Y-65768400D01*
X107005537Y-65923272D01*
X107038240Y-66087684D01*
X107038240Y-66255316D01*
X107005537Y-66419728D01*
X106941387Y-66574600D01*
X106848255Y-66713981D01*
X106729721Y-66832515D01*
X106590340Y-66925647D01*
X106435468Y-66989797D01*
X106271056Y-67022500D01*
X106103424Y-67022500D01*
X105939012Y-66989797D01*
X105784140Y-66925647D01*
X105644759Y-66832515D01*
X105526225Y-66713981D01*
X105433093Y-66574600D01*
X105368943Y-66419728D01*
X105336240Y-66255316D01*
X105336240Y-66087684D01*
X105368943Y-65923272D01*
X105433093Y-65768400D01*
X105526225Y-65629019D01*
X105644759Y-65510485D01*
X105784140Y-65417353D01*
X105939012Y-65353203D01*
X106103424Y-65320500D01*
X106271056Y-65320500D01*
X106435468Y-65353203D01*
G37*
G36*
X108975468Y-65353203D02*
G01*
X109130340Y-65417353D01*
X109269721Y-65510485D01*
X109388255Y-65629019D01*
X109481387Y-65768400D01*
X109545537Y-65923272D01*
X109578240Y-66087684D01*
X109578240Y-66255316D01*
X109545537Y-66419728D01*
X109481387Y-66574600D01*
X109388255Y-66713981D01*
X109269721Y-66832515D01*
X109130340Y-66925647D01*
X108975468Y-66989797D01*
X108811056Y-67022500D01*
X108643424Y-67022500D01*
X108479012Y-66989797D01*
X108324140Y-66925647D01*
X108184759Y-66832515D01*
X108066225Y-66713981D01*
X107973093Y-66574600D01*
X107908943Y-66419728D01*
X107876240Y-66255316D01*
X107876240Y-66087684D01*
X107908943Y-65923272D01*
X107973093Y-65768400D01*
X108066225Y-65629019D01*
X108184759Y-65510485D01*
X108324140Y-65417353D01*
X108479012Y-65353203D01*
X108643424Y-65320500D01*
X108811056Y-65320500D01*
X108975468Y-65353203D01*
G37*
G36*
X112118240Y-67022500D02*
G01*
X110416240Y-67022500D01*
X110416240Y-65320500D01*
X112118240Y-65320500D01*
X112118240Y-67022500D01*
G37*
G36*
X119894698Y-65098176D02*
G01*
X120007985Y-65132542D01*
X120112392Y-65188349D01*
X120203907Y-65263453D01*
X120279011Y-65354968D01*
X120334818Y-65459375D01*
X120369184Y-65572662D01*
X120377880Y-65660961D01*
X120377880Y-66319999D01*
X120369184Y-66408298D01*
X120334818Y-66521585D01*
X120279011Y-66625992D01*
X120279010Y-66625993D01*
X120203907Y-66717507D01*
X120128803Y-66779142D01*
X120112391Y-66792611D01*
X120007984Y-66848418D01*
X119894697Y-66882784D01*
X119776880Y-66894387D01*
X119659062Y-66882784D01*
X119545775Y-66848418D01*
X119441368Y-66792611D01*
X119386210Y-66747344D01*
X119349853Y-66717507D01*
X119274750Y-66625992D01*
X119251969Y-66583372D01*
X119218942Y-66521584D01*
X119184576Y-66408297D01*
X119175880Y-66319998D01*
X119175880Y-65660961D01*
X119184576Y-65572662D01*
X119218941Y-65459378D01*
X119274751Y-65354966D01*
X119349854Y-65263453D01*
X119441369Y-65188349D01*
X119545776Y-65132542D01*
X119659063Y-65098176D01*
X119776880Y-65086573D01*
X119894698Y-65098176D01*
G37*
G36*
X116894698Y-65098176D02*
G01*
X117007985Y-65132542D01*
X117112392Y-65188349D01*
X117203907Y-65263453D01*
X117279011Y-65354968D01*
X117334818Y-65459375D01*
X117369184Y-65572662D01*
X117377880Y-65660961D01*
X117377880Y-66319999D01*
X117369184Y-66408298D01*
X117334818Y-66521585D01*
X117279011Y-66625992D01*
X117279010Y-66625993D01*
X117203907Y-66717507D01*
X117128803Y-66779142D01*
X117112391Y-66792611D01*
X117007984Y-66848418D01*
X116894697Y-66882784D01*
X116776880Y-66894387D01*
X116659062Y-66882784D01*
X116545775Y-66848418D01*
X116441368Y-66792611D01*
X116386210Y-66747344D01*
X116349853Y-66717507D01*
X116274750Y-66625992D01*
X116251969Y-66583372D01*
X116218942Y-66521584D01*
X116184576Y-66408297D01*
X116175880Y-66319998D01*
X116175880Y-65660961D01*
X116184576Y-65572662D01*
X116218941Y-65459378D01*
X116274751Y-65354966D01*
X116349854Y-65263453D01*
X116441369Y-65188349D01*
X116545776Y-65132542D01*
X116659063Y-65098176D01*
X116776880Y-65086573D01*
X116894698Y-65098176D01*
G37*
G36*
X118394698Y-65098176D02*
G01*
X118507985Y-65132542D01*
X118612392Y-65188349D01*
X118703907Y-65263453D01*
X118779011Y-65354968D01*
X118834818Y-65459375D01*
X118869184Y-65572662D01*
X118877880Y-65660961D01*
X118877880Y-66319999D01*
X118869184Y-66408298D01*
X118834818Y-66521585D01*
X118779011Y-66625992D01*
X118779010Y-66625993D01*
X118703907Y-66717507D01*
X118628803Y-66779142D01*
X118612391Y-66792611D01*
X118507984Y-66848418D01*
X118394697Y-66882784D01*
X118276880Y-66894387D01*
X118159062Y-66882784D01*
X118045775Y-66848418D01*
X117941368Y-66792611D01*
X117886210Y-66747344D01*
X117849853Y-66717507D01*
X117774750Y-66625992D01*
X117751969Y-66583372D01*
X117718942Y-66521584D01*
X117684576Y-66408297D01*
X117675880Y-66319998D01*
X117675880Y-65660961D01*
X117684576Y-65572662D01*
X117718941Y-65459378D01*
X117774751Y-65354966D01*
X117849854Y-65263453D01*
X117941369Y-65188349D01*
X118045776Y-65132542D01*
X118159063Y-65098176D01*
X118276880Y-65086573D01*
X118394698Y-65098176D01*
G37*
G36*
X115394698Y-65098176D02*
G01*
X115507985Y-65132542D01*
X115612392Y-65188349D01*
X115703907Y-65263453D01*
X115779011Y-65354968D01*
X115834818Y-65459375D01*
X115869184Y-65572662D01*
X115877880Y-65660961D01*
X115877880Y-66319999D01*
X115869184Y-66408298D01*
X115834818Y-66521585D01*
X115779011Y-66625992D01*
X115779010Y-66625993D01*
X115703907Y-66717507D01*
X115628803Y-66779142D01*
X115612391Y-66792611D01*
X115507984Y-66848418D01*
X115394697Y-66882784D01*
X115276880Y-66894387D01*
X115159062Y-66882784D01*
X115045775Y-66848418D01*
X114941368Y-66792611D01*
X114886210Y-66747344D01*
X114849853Y-66717507D01*
X114774750Y-66625992D01*
X114751969Y-66583372D01*
X114718942Y-66521584D01*
X114684576Y-66408297D01*
X114675880Y-66319998D01*
X114675880Y-65660961D01*
X114684576Y-65572662D01*
X114718941Y-65459378D01*
X114774751Y-65354966D01*
X114849854Y-65263453D01*
X114941369Y-65188349D01*
X115045776Y-65132542D01*
X115159063Y-65098176D01*
X115276880Y-65086573D01*
X115394698Y-65098176D01*
G37*
G36*
X121806571Y-65091772D02*
G01*
X121823050Y-65096771D01*
X121838237Y-65104889D01*
X121851548Y-65115812D01*
X121862471Y-65129123D01*
X121870589Y-65144310D01*
X121875588Y-65160789D01*
X121877880Y-65184062D01*
X121877880Y-66796898D01*
X121875588Y-66820171D01*
X121870589Y-66836650D01*
X121862471Y-66851837D01*
X121851548Y-66865148D01*
X121838237Y-66876071D01*
X121823050Y-66884189D01*
X121806571Y-66889188D01*
X121783298Y-66891480D01*
X120770462Y-66891480D01*
X120747189Y-66889188D01*
X120730710Y-66884189D01*
X120715523Y-66876071D01*
X120702212Y-66865148D01*
X120691289Y-66851837D01*
X120683171Y-66836650D01*
X120678172Y-66820171D01*
X120675880Y-66796898D01*
X120675880Y-65184062D01*
X120678172Y-65160789D01*
X120683171Y-65144310D01*
X120691289Y-65129123D01*
X120702212Y-65115812D01*
X120715523Y-65104889D01*
X120730710Y-65096771D01*
X120747189Y-65091772D01*
X120770462Y-65089480D01*
X121783298Y-65089480D01*
X121806571Y-65091772D01*
G37*
G36*
X182241672Y-61407587D02*
G01*
X182390972Y-61437284D01*
X182554944Y-61505204D01*
X182702514Y-61603807D01*
X182828013Y-61729306D01*
X182926616Y-61876876D01*
X182994536Y-62040848D01*
X183029160Y-62214919D01*
X183029160Y-62392401D01*
X182994536Y-62566472D01*
X182926616Y-62730444D01*
X182828013Y-62878014D01*
X182702514Y-63003513D01*
X182554944Y-63102116D01*
X182390972Y-63170036D01*
X182241672Y-63199733D01*
X182216902Y-63204660D01*
X182039418Y-63204660D01*
X182014648Y-63199733D01*
X181865348Y-63170036D01*
X181701376Y-63102116D01*
X181553806Y-63003513D01*
X181428307Y-62878014D01*
X181329704Y-62730444D01*
X181261784Y-62566472D01*
X181227160Y-62392401D01*
X181227160Y-62214919D01*
X181261784Y-62040848D01*
X181329704Y-61876876D01*
X181428307Y-61729306D01*
X181553806Y-61603807D01*
X181701376Y-61505204D01*
X181865348Y-61437284D01*
X182014648Y-61407587D01*
X182039418Y-61402660D01*
X182216902Y-61402660D01*
X182241672Y-61407587D01*
G37*
G36*
X179701672Y-61407587D02*
G01*
X179850972Y-61437284D01*
X180014944Y-61505204D01*
X180162514Y-61603807D01*
X180288013Y-61729306D01*
X180386616Y-61876876D01*
X180454536Y-62040848D01*
X180489160Y-62214919D01*
X180489160Y-62392401D01*
X180454536Y-62566472D01*
X180386616Y-62730444D01*
X180288013Y-62878014D01*
X180162514Y-63003513D01*
X180014944Y-63102116D01*
X179850972Y-63170036D01*
X179701672Y-63199733D01*
X179676902Y-63204660D01*
X179499418Y-63204660D01*
X179474648Y-63199733D01*
X179325348Y-63170036D01*
X179161376Y-63102116D01*
X179013806Y-63003513D01*
X178888307Y-62878014D01*
X178789704Y-62730444D01*
X178721784Y-62566472D01*
X178687160Y-62392401D01*
X178687160Y-62214919D01*
X178721784Y-62040848D01*
X178789704Y-61876876D01*
X178888307Y-61729306D01*
X179013806Y-61603807D01*
X179161376Y-61505204D01*
X179325348Y-61437284D01*
X179474648Y-61407587D01*
X179499418Y-61402660D01*
X179676902Y-61402660D01*
X179701672Y-61407587D01*
G37*
G36*
X177161672Y-61407587D02*
G01*
X177310972Y-61437284D01*
X177474944Y-61505204D01*
X177622514Y-61603807D01*
X177748013Y-61729306D01*
X177846616Y-61876876D01*
X177914536Y-62040848D01*
X177949160Y-62214919D01*
X177949160Y-62392401D01*
X177914536Y-62566472D01*
X177846616Y-62730444D01*
X177748013Y-62878014D01*
X177622514Y-63003513D01*
X177474944Y-63102116D01*
X177310972Y-63170036D01*
X177161672Y-63199733D01*
X177136902Y-63204660D01*
X176959418Y-63204660D01*
X176934648Y-63199733D01*
X176785348Y-63170036D01*
X176621376Y-63102116D01*
X176473806Y-63003513D01*
X176348307Y-62878014D01*
X176249704Y-62730444D01*
X176181784Y-62566472D01*
X176147160Y-62392401D01*
X176147160Y-62214919D01*
X176181784Y-62040848D01*
X176249704Y-61876876D01*
X176348307Y-61729306D01*
X176473806Y-61603807D01*
X176621376Y-61505204D01*
X176785348Y-61437284D01*
X176934648Y-61407587D01*
X176959418Y-61402660D01*
X177136902Y-61402660D01*
X177161672Y-61407587D01*
G37*
G36*
X174621672Y-61407587D02*
G01*
X174770972Y-61437284D01*
X174934944Y-61505204D01*
X175082514Y-61603807D01*
X175208013Y-61729306D01*
X175306616Y-61876876D01*
X175374536Y-62040848D01*
X175409160Y-62214919D01*
X175409160Y-62392401D01*
X175374536Y-62566472D01*
X175306616Y-62730444D01*
X175208013Y-62878014D01*
X175082514Y-63003513D01*
X174934944Y-63102116D01*
X174770972Y-63170036D01*
X174621672Y-63199733D01*
X174596902Y-63204660D01*
X174419418Y-63204660D01*
X174394648Y-63199733D01*
X174245348Y-63170036D01*
X174081376Y-63102116D01*
X173933806Y-63003513D01*
X173808307Y-62878014D01*
X173709704Y-62730444D01*
X173641784Y-62566472D01*
X173607160Y-62392401D01*
X173607160Y-62214919D01*
X173641784Y-62040848D01*
X173709704Y-61876876D01*
X173808307Y-61729306D01*
X173933806Y-61603807D01*
X174081376Y-61505204D01*
X174245348Y-61437284D01*
X174394648Y-61407587D01*
X174419418Y-61402660D01*
X174596902Y-61402660D01*
X174621672Y-61407587D01*
G37*
G36*
X172081672Y-61407587D02*
G01*
X172230972Y-61437284D01*
X172394944Y-61505204D01*
X172542514Y-61603807D01*
X172668013Y-61729306D01*
X172766616Y-61876876D01*
X172834536Y-62040848D01*
X172869160Y-62214919D01*
X172869160Y-62392401D01*
X172834536Y-62566472D01*
X172766616Y-62730444D01*
X172668013Y-62878014D01*
X172542514Y-63003513D01*
X172394944Y-63102116D01*
X172230972Y-63170036D01*
X172081672Y-63199733D01*
X172056902Y-63204660D01*
X171879418Y-63204660D01*
X171854648Y-63199733D01*
X171705348Y-63170036D01*
X171541376Y-63102116D01*
X171393806Y-63003513D01*
X171268307Y-62878014D01*
X171169704Y-62730444D01*
X171101784Y-62566472D01*
X171067160Y-62392401D01*
X171067160Y-62214919D01*
X171101784Y-62040848D01*
X171169704Y-61876876D01*
X171268307Y-61729306D01*
X171393806Y-61603807D01*
X171541376Y-61505204D01*
X171705348Y-61437284D01*
X171854648Y-61407587D01*
X171879418Y-61402660D01*
X172056902Y-61402660D01*
X172081672Y-61407587D01*
G37*
G36*
X169541672Y-61407587D02*
G01*
X169690972Y-61437284D01*
X169854944Y-61505204D01*
X170002514Y-61603807D01*
X170128013Y-61729306D01*
X170226616Y-61876876D01*
X170294536Y-62040848D01*
X170329160Y-62214919D01*
X170329160Y-62392401D01*
X170294536Y-62566472D01*
X170226616Y-62730444D01*
X170128013Y-62878014D01*
X170002514Y-63003513D01*
X169854944Y-63102116D01*
X169690972Y-63170036D01*
X169541672Y-63199733D01*
X169516902Y-63204660D01*
X169339418Y-63204660D01*
X169314648Y-63199733D01*
X169165348Y-63170036D01*
X169001376Y-63102116D01*
X168853806Y-63003513D01*
X168728307Y-62878014D01*
X168629704Y-62730444D01*
X168561784Y-62566472D01*
X168527160Y-62392401D01*
X168527160Y-62214919D01*
X168561784Y-62040848D01*
X168629704Y-61876876D01*
X168728307Y-61729306D01*
X168853806Y-61603807D01*
X169001376Y-61505204D01*
X169165348Y-61437284D01*
X169314648Y-61407587D01*
X169339418Y-61402660D01*
X169516902Y-61402660D01*
X169541672Y-61407587D01*
G37*
G36*
X167001672Y-61407587D02*
G01*
X167150972Y-61437284D01*
X167314944Y-61505204D01*
X167462514Y-61603807D01*
X167588013Y-61729306D01*
X167686616Y-61876876D01*
X167754536Y-62040848D01*
X167789160Y-62214919D01*
X167789160Y-62392401D01*
X167754536Y-62566472D01*
X167686616Y-62730444D01*
X167588013Y-62878014D01*
X167462514Y-63003513D01*
X167314944Y-63102116D01*
X167150972Y-63170036D01*
X167001672Y-63199733D01*
X166976902Y-63204660D01*
X166799418Y-63204660D01*
X166774648Y-63199733D01*
X166625348Y-63170036D01*
X166461376Y-63102116D01*
X166313806Y-63003513D01*
X166188307Y-62878014D01*
X166089704Y-62730444D01*
X166021784Y-62566472D01*
X165987160Y-62392401D01*
X165987160Y-62214919D01*
X166021784Y-62040848D01*
X166089704Y-61876876D01*
X166188307Y-61729306D01*
X166313806Y-61603807D01*
X166461376Y-61505204D01*
X166625348Y-61437284D01*
X166774648Y-61407587D01*
X166799418Y-61402660D01*
X166976902Y-61402660D01*
X167001672Y-61407587D01*
G37*
G36*
X161921672Y-61407587D02*
G01*
X162070972Y-61437284D01*
X162234944Y-61505204D01*
X162382514Y-61603807D01*
X162508013Y-61729306D01*
X162606616Y-61876876D01*
X162674536Y-62040848D01*
X162709160Y-62214919D01*
X162709160Y-62392401D01*
X162674536Y-62566472D01*
X162606616Y-62730444D01*
X162508013Y-62878014D01*
X162382514Y-63003513D01*
X162234944Y-63102116D01*
X162070972Y-63170036D01*
X161921672Y-63199733D01*
X161896902Y-63204660D01*
X161719418Y-63204660D01*
X161694648Y-63199733D01*
X161545348Y-63170036D01*
X161381376Y-63102116D01*
X161233806Y-63003513D01*
X161108307Y-62878014D01*
X161009704Y-62730444D01*
X160941784Y-62566472D01*
X160907160Y-62392401D01*
X160907160Y-62214919D01*
X160941784Y-62040848D01*
X161009704Y-61876876D01*
X161108307Y-61729306D01*
X161233806Y-61603807D01*
X161381376Y-61505204D01*
X161545348Y-61437284D01*
X161694648Y-61407587D01*
X161719418Y-61402660D01*
X161896902Y-61402660D01*
X161921672Y-61407587D01*
G37*
G36*
X159381672Y-61407587D02*
G01*
X159530972Y-61437284D01*
X159694944Y-61505204D01*
X159842514Y-61603807D01*
X159968013Y-61729306D01*
X160066616Y-61876876D01*
X160134536Y-62040848D01*
X160169160Y-62214919D01*
X160169160Y-62392401D01*
X160134536Y-62566472D01*
X160066616Y-62730444D01*
X159968013Y-62878014D01*
X159842514Y-63003513D01*
X159694944Y-63102116D01*
X159530972Y-63170036D01*
X159381672Y-63199733D01*
X159356902Y-63204660D01*
X159179418Y-63204660D01*
X159154648Y-63199733D01*
X159005348Y-63170036D01*
X158841376Y-63102116D01*
X158693806Y-63003513D01*
X158568307Y-62878014D01*
X158469704Y-62730444D01*
X158401784Y-62566472D01*
X158367160Y-62392401D01*
X158367160Y-62214919D01*
X158401784Y-62040848D01*
X158469704Y-61876876D01*
X158568307Y-61729306D01*
X158693806Y-61603807D01*
X158841376Y-61505204D01*
X159005348Y-61437284D01*
X159154648Y-61407587D01*
X159179418Y-61402660D01*
X159356902Y-61402660D01*
X159381672Y-61407587D01*
G37*
G36*
X156841672Y-61407587D02*
G01*
X156990972Y-61437284D01*
X157154944Y-61505204D01*
X157302514Y-61603807D01*
X157428013Y-61729306D01*
X157526616Y-61876876D01*
X157594536Y-62040848D01*
X157629160Y-62214919D01*
X157629160Y-62392401D01*
X157594536Y-62566472D01*
X157526616Y-62730444D01*
X157428013Y-62878014D01*
X157302514Y-63003513D01*
X157154944Y-63102116D01*
X156990972Y-63170036D01*
X156841672Y-63199733D01*
X156816902Y-63204660D01*
X156639418Y-63204660D01*
X156614648Y-63199733D01*
X156465348Y-63170036D01*
X156301376Y-63102116D01*
X156153806Y-63003513D01*
X156028307Y-62878014D01*
X155929704Y-62730444D01*
X155861784Y-62566472D01*
X155827160Y-62392401D01*
X155827160Y-62214919D01*
X155861784Y-62040848D01*
X155929704Y-61876876D01*
X156028307Y-61729306D01*
X156153806Y-61603807D01*
X156301376Y-61505204D01*
X156465348Y-61437284D01*
X156614648Y-61407587D01*
X156639418Y-61402660D01*
X156816902Y-61402660D01*
X156841672Y-61407587D01*
G37*
G36*
X154301672Y-61407587D02*
G01*
X154450972Y-61437284D01*
X154614944Y-61505204D01*
X154762514Y-61603807D01*
X154888013Y-61729306D01*
X154986616Y-61876876D01*
X155054536Y-62040848D01*
X155089160Y-62214919D01*
X155089160Y-62392401D01*
X155054536Y-62566472D01*
X154986616Y-62730444D01*
X154888013Y-62878014D01*
X154762514Y-63003513D01*
X154614944Y-63102116D01*
X154450972Y-63170036D01*
X154301672Y-63199733D01*
X154276902Y-63204660D01*
X154099418Y-63204660D01*
X154074648Y-63199733D01*
X153925348Y-63170036D01*
X153761376Y-63102116D01*
X153613806Y-63003513D01*
X153488307Y-62878014D01*
X153389704Y-62730444D01*
X153321784Y-62566472D01*
X153287160Y-62392401D01*
X153287160Y-62214919D01*
X153321784Y-62040848D01*
X153389704Y-61876876D01*
X153488307Y-61729306D01*
X153613806Y-61603807D01*
X153761376Y-61505204D01*
X153925348Y-61437284D01*
X154074648Y-61407587D01*
X154099418Y-61402660D01*
X154276902Y-61402660D01*
X154301672Y-61407587D01*
G37*
G36*
X149221672Y-61407587D02*
G01*
X149370972Y-61437284D01*
X149534944Y-61505204D01*
X149682514Y-61603807D01*
X149808013Y-61729306D01*
X149906616Y-61876876D01*
X149974536Y-62040848D01*
X150009160Y-62214919D01*
X150009160Y-62392401D01*
X149974536Y-62566472D01*
X149906616Y-62730444D01*
X149808013Y-62878014D01*
X149682514Y-63003513D01*
X149534944Y-63102116D01*
X149370972Y-63170036D01*
X149221672Y-63199733D01*
X149196902Y-63204660D01*
X149019418Y-63204660D01*
X148994648Y-63199733D01*
X148845348Y-63170036D01*
X148681376Y-63102116D01*
X148533806Y-63003513D01*
X148408307Y-62878014D01*
X148309704Y-62730444D01*
X148241784Y-62566472D01*
X148207160Y-62392401D01*
X148207160Y-62214919D01*
X148241784Y-62040848D01*
X148309704Y-61876876D01*
X148408307Y-61729306D01*
X148533806Y-61603807D01*
X148681376Y-61505204D01*
X148845348Y-61437284D01*
X148994648Y-61407587D01*
X149019418Y-61402660D01*
X149196902Y-61402660D01*
X149221672Y-61407587D01*
G37*
G36*
X151761672Y-61407587D02*
G01*
X151910972Y-61437284D01*
X152074944Y-61505204D01*
X152222514Y-61603807D01*
X152348013Y-61729306D01*
X152446616Y-61876876D01*
X152514536Y-62040848D01*
X152549160Y-62214919D01*
X152549160Y-62392401D01*
X152514536Y-62566472D01*
X152446616Y-62730444D01*
X152348013Y-62878014D01*
X152222514Y-63003513D01*
X152074944Y-63102116D01*
X151910972Y-63170036D01*
X151761672Y-63199733D01*
X151736902Y-63204660D01*
X151559418Y-63204660D01*
X151534648Y-63199733D01*
X151385348Y-63170036D01*
X151221376Y-63102116D01*
X151073806Y-63003513D01*
X150948307Y-62878014D01*
X150849704Y-62730444D01*
X150781784Y-62566472D01*
X150747160Y-62392401D01*
X150747160Y-62214919D01*
X150781784Y-62040848D01*
X150849704Y-61876876D01*
X150948307Y-61729306D01*
X151073806Y-61603807D01*
X151221376Y-61505204D01*
X151385348Y-61437284D01*
X151534648Y-61407587D01*
X151559418Y-61402660D01*
X151736902Y-61402660D01*
X151761672Y-61407587D01*
G37*
G36*
X164461672Y-61407587D02*
G01*
X164610972Y-61437284D01*
X164774944Y-61505204D01*
X164922514Y-61603807D01*
X165048013Y-61729306D01*
X165146616Y-61876876D01*
X165214536Y-62040848D01*
X165249160Y-62214919D01*
X165249160Y-62392401D01*
X165214536Y-62566472D01*
X165146616Y-62730444D01*
X165048013Y-62878014D01*
X164922514Y-63003513D01*
X164774944Y-63102116D01*
X164610972Y-63170036D01*
X164461672Y-63199733D01*
X164436902Y-63204660D01*
X164259418Y-63204660D01*
X164234648Y-63199733D01*
X164085348Y-63170036D01*
X163921376Y-63102116D01*
X163773806Y-63003513D01*
X163648307Y-62878014D01*
X163549704Y-62730444D01*
X163481784Y-62566472D01*
X163447160Y-62392401D01*
X163447160Y-62214919D01*
X163481784Y-62040848D01*
X163549704Y-61876876D01*
X163648307Y-61729306D01*
X163773806Y-61603807D01*
X163921376Y-61505204D01*
X164085348Y-61437284D01*
X164234648Y-61407587D01*
X164259418Y-61402660D01*
X164436902Y-61402660D01*
X164461672Y-61407587D01*
G37*
G36*
X184781672Y-61407587D02*
G01*
X184930972Y-61437284D01*
X185094944Y-61505204D01*
X185242514Y-61603807D01*
X185368013Y-61729306D01*
X185466616Y-61876876D01*
X185534536Y-62040848D01*
X185569160Y-62214919D01*
X185569160Y-62392401D01*
X185534536Y-62566472D01*
X185466616Y-62730444D01*
X185368013Y-62878014D01*
X185242514Y-63003513D01*
X185094944Y-63102116D01*
X184930972Y-63170036D01*
X184781672Y-63199733D01*
X184756902Y-63204660D01*
X184579418Y-63204660D01*
X184554648Y-63199733D01*
X184405348Y-63170036D01*
X184241376Y-63102116D01*
X184093806Y-63003513D01*
X183968307Y-62878014D01*
X183869704Y-62730444D01*
X183801784Y-62566472D01*
X183767160Y-62392401D01*
X183767160Y-62214919D01*
X183801784Y-62040848D01*
X183869704Y-61876876D01*
X183968307Y-61729306D01*
X184093806Y-61603807D01*
X184241376Y-61505204D01*
X184405348Y-61437284D01*
X184554648Y-61407587D01*
X184579418Y-61402660D01*
X184756902Y-61402660D01*
X184781672Y-61407587D01*
G37*
G36*
X64326433Y-58562893D02*
G01*
X64416657Y-58580839D01*
X64522267Y-58624585D01*
X64671621Y-58686449D01*
X64671622Y-58686450D01*
X64901086Y-58839772D01*
X65096228Y-59034914D01*
X65198675Y-59188237D01*
X65249551Y-59264379D01*
X65355161Y-59519344D01*
X65409000Y-59790012D01*
X65409000Y-60065988D01*
X65355161Y-60336656D01*
X65249551Y-60591621D01*
X65198675Y-60667763D01*
X65096228Y-60821086D01*
X64901086Y-61016228D01*
X64747763Y-61118675D01*
X64671621Y-61169551D01*
X64522267Y-61231415D01*
X64416657Y-61275161D01*
X64326433Y-61293107D01*
X64145988Y-61329000D01*
X63870012Y-61329000D01*
X63689567Y-61293107D01*
X63599343Y-61275161D01*
X63493733Y-61231415D01*
X63344379Y-61169551D01*
X63268237Y-61118675D01*
X63114914Y-61016228D01*
X62919772Y-60821086D01*
X62817325Y-60667763D01*
X62766449Y-60591621D01*
X62660839Y-60336656D01*
X62607000Y-60065988D01*
X62607000Y-59790012D01*
X62660839Y-59519344D01*
X62766449Y-59264379D01*
X62817325Y-59188237D01*
X62919772Y-59034914D01*
X63114914Y-58839772D01*
X63344378Y-58686450D01*
X63344379Y-58686449D01*
X63493733Y-58624585D01*
X63599343Y-58580839D01*
X63689567Y-58562893D01*
X63870012Y-58527000D01*
X64145988Y-58527000D01*
X64326433Y-58562893D01*
G37*
G36*
X137326433Y-58562893D02*
G01*
X137416657Y-58580839D01*
X137522267Y-58624585D01*
X137671621Y-58686449D01*
X137671622Y-58686450D01*
X137901086Y-58839772D01*
X138096228Y-59034914D01*
X138198675Y-59188237D01*
X138249551Y-59264379D01*
X138355161Y-59519344D01*
X138409000Y-59790012D01*
X138409000Y-60065988D01*
X138355161Y-60336656D01*
X138249551Y-60591621D01*
X138198675Y-60667763D01*
X138096228Y-60821086D01*
X137901086Y-61016228D01*
X137747763Y-61118675D01*
X137671621Y-61169551D01*
X137522267Y-61231415D01*
X137416657Y-61275161D01*
X137326433Y-61293107D01*
X137145988Y-61329000D01*
X136870012Y-61329000D01*
X136689567Y-61293107D01*
X136599343Y-61275161D01*
X136493733Y-61231415D01*
X136344379Y-61169551D01*
X136268237Y-61118675D01*
X136114914Y-61016228D01*
X135919772Y-60821086D01*
X135817325Y-60667763D01*
X135766449Y-60591621D01*
X135660839Y-60336656D01*
X135607000Y-60065988D01*
X135607000Y-59790012D01*
X135660839Y-59519344D01*
X135766449Y-59264379D01*
X135817325Y-59188237D01*
X135919772Y-59034914D01*
X136114914Y-58839772D01*
X136344378Y-58686450D01*
X136344379Y-58686449D01*
X136493733Y-58624585D01*
X136599343Y-58580839D01*
X136689567Y-58562893D01*
X136870012Y-58527000D01*
X137145988Y-58527000D01*
X137326433Y-58562893D01*
G37*
G36*
X159417232Y-58887907D02*
G01*
X159566532Y-58917604D01*
X159730504Y-58985524D01*
X159878074Y-59084127D01*
X160003573Y-59209626D01*
X160102176Y-59357196D01*
X160170096Y-59521168D01*
X160204720Y-59695239D01*
X160204720Y-59872721D01*
X160170096Y-60046792D01*
X160102176Y-60210764D01*
X160003573Y-60358334D01*
X159878074Y-60483833D01*
X159730504Y-60582436D01*
X159566532Y-60650356D01*
X159417232Y-60680053D01*
X159392462Y-60684980D01*
X159214978Y-60684980D01*
X159190208Y-60680053D01*
X159040908Y-60650356D01*
X158876936Y-60582436D01*
X158729366Y-60483833D01*
X158603867Y-60358334D01*
X158505264Y-60210764D01*
X158437344Y-60046792D01*
X158402720Y-59872721D01*
X158402720Y-59695239D01*
X158437344Y-59521168D01*
X158505264Y-59357196D01*
X158603867Y-59209626D01*
X158729366Y-59084127D01*
X158876936Y-58985524D01*
X159040908Y-58917604D01*
X159190208Y-58887907D01*
X159214978Y-58882980D01*
X159392462Y-58882980D01*
X159417232Y-58887907D01*
G37*
G36*
X174657232Y-58887907D02*
G01*
X174806532Y-58917604D01*
X174970504Y-58985524D01*
X175118074Y-59084127D01*
X175243573Y-59209626D01*
X175342176Y-59357196D01*
X175410096Y-59521168D01*
X175444720Y-59695239D01*
X175444720Y-59872721D01*
X175410096Y-60046792D01*
X175342176Y-60210764D01*
X175243573Y-60358334D01*
X175118074Y-60483833D01*
X174970504Y-60582436D01*
X174806532Y-60650356D01*
X174657232Y-60680053D01*
X174632462Y-60684980D01*
X174454978Y-60684980D01*
X174430208Y-60680053D01*
X174280908Y-60650356D01*
X174116936Y-60582436D01*
X173969366Y-60483833D01*
X173843867Y-60358334D01*
X173745264Y-60210764D01*
X173677344Y-60046792D01*
X173642720Y-59872721D01*
X173642720Y-59695239D01*
X173677344Y-59521168D01*
X173745264Y-59357196D01*
X173843867Y-59209626D01*
X173969366Y-59084127D01*
X174116936Y-58985524D01*
X174280908Y-58917604D01*
X174430208Y-58887907D01*
X174454978Y-58882980D01*
X174632462Y-58882980D01*
X174657232Y-58887907D01*
G37*
G36*
X172117232Y-58887907D02*
G01*
X172266532Y-58917604D01*
X172430504Y-58985524D01*
X172578074Y-59084127D01*
X172703573Y-59209626D01*
X172802176Y-59357196D01*
X172870096Y-59521168D01*
X172904720Y-59695239D01*
X172904720Y-59872721D01*
X172870096Y-60046792D01*
X172802176Y-60210764D01*
X172703573Y-60358334D01*
X172578074Y-60483833D01*
X172430504Y-60582436D01*
X172266532Y-60650356D01*
X172117232Y-60680053D01*
X172092462Y-60684980D01*
X171914978Y-60684980D01*
X171890208Y-60680053D01*
X171740908Y-60650356D01*
X171576936Y-60582436D01*
X171429366Y-60483833D01*
X171303867Y-60358334D01*
X171205264Y-60210764D01*
X171137344Y-60046792D01*
X171102720Y-59872721D01*
X171102720Y-59695239D01*
X171137344Y-59521168D01*
X171205264Y-59357196D01*
X171303867Y-59209626D01*
X171429366Y-59084127D01*
X171576936Y-58985524D01*
X171740908Y-58917604D01*
X171890208Y-58887907D01*
X171914978Y-58882980D01*
X172092462Y-58882980D01*
X172117232Y-58887907D01*
G37*
G36*
X169577232Y-58887907D02*
G01*
X169726532Y-58917604D01*
X169890504Y-58985524D01*
X170038074Y-59084127D01*
X170163573Y-59209626D01*
X170262176Y-59357196D01*
X170330096Y-59521168D01*
X170364720Y-59695239D01*
X170364720Y-59872721D01*
X170330096Y-60046792D01*
X170262176Y-60210764D01*
X170163573Y-60358334D01*
X170038074Y-60483833D01*
X169890504Y-60582436D01*
X169726532Y-60650356D01*
X169577232Y-60680053D01*
X169552462Y-60684980D01*
X169374978Y-60684980D01*
X169350208Y-60680053D01*
X169200908Y-60650356D01*
X169036936Y-60582436D01*
X168889366Y-60483833D01*
X168763867Y-60358334D01*
X168665264Y-60210764D01*
X168597344Y-60046792D01*
X168562720Y-59872721D01*
X168562720Y-59695239D01*
X168597344Y-59521168D01*
X168665264Y-59357196D01*
X168763867Y-59209626D01*
X168889366Y-59084127D01*
X169036936Y-58985524D01*
X169200908Y-58917604D01*
X169350208Y-58887907D01*
X169374978Y-58882980D01*
X169552462Y-58882980D01*
X169577232Y-58887907D01*
G37*
G36*
X167037232Y-58887907D02*
G01*
X167186532Y-58917604D01*
X167350504Y-58985524D01*
X167498074Y-59084127D01*
X167623573Y-59209626D01*
X167722176Y-59357196D01*
X167790096Y-59521168D01*
X167824720Y-59695239D01*
X167824720Y-59872721D01*
X167790096Y-60046792D01*
X167722176Y-60210764D01*
X167623573Y-60358334D01*
X167498074Y-60483833D01*
X167350504Y-60582436D01*
X167186532Y-60650356D01*
X167037232Y-60680053D01*
X167012462Y-60684980D01*
X166834978Y-60684980D01*
X166810208Y-60680053D01*
X166660908Y-60650356D01*
X166496936Y-60582436D01*
X166349366Y-60483833D01*
X166223867Y-60358334D01*
X166125264Y-60210764D01*
X166057344Y-60046792D01*
X166022720Y-59872721D01*
X166022720Y-59695239D01*
X166057344Y-59521168D01*
X166125264Y-59357196D01*
X166223867Y-59209626D01*
X166349366Y-59084127D01*
X166496936Y-58985524D01*
X166660908Y-58917604D01*
X166810208Y-58887907D01*
X166834978Y-58882980D01*
X167012462Y-58882980D01*
X167037232Y-58887907D01*
G37*
G36*
X156877232Y-58887907D02*
G01*
X157026532Y-58917604D01*
X157190504Y-58985524D01*
X157338074Y-59084127D01*
X157463573Y-59209626D01*
X157562176Y-59357196D01*
X157630096Y-59521168D01*
X157664720Y-59695239D01*
X157664720Y-59872721D01*
X157630096Y-60046792D01*
X157562176Y-60210764D01*
X157463573Y-60358334D01*
X157338074Y-60483833D01*
X157190504Y-60582436D01*
X157026532Y-60650356D01*
X156877232Y-60680053D01*
X156852462Y-60684980D01*
X156674978Y-60684980D01*
X156650208Y-60680053D01*
X156500908Y-60650356D01*
X156336936Y-60582436D01*
X156189366Y-60483833D01*
X156063867Y-60358334D01*
X155965264Y-60210764D01*
X155897344Y-60046792D01*
X155862720Y-59872721D01*
X155862720Y-59695239D01*
X155897344Y-59521168D01*
X155965264Y-59357196D01*
X156063867Y-59209626D01*
X156189366Y-59084127D01*
X156336936Y-58985524D01*
X156500908Y-58917604D01*
X156650208Y-58887907D01*
X156674978Y-58882980D01*
X156852462Y-58882980D01*
X156877232Y-58887907D01*
G37*
G36*
X164497232Y-58887907D02*
G01*
X164646532Y-58917604D01*
X164810504Y-58985524D01*
X164958074Y-59084127D01*
X165083573Y-59209626D01*
X165182176Y-59357196D01*
X165250096Y-59521168D01*
X165284720Y-59695239D01*
X165284720Y-59872721D01*
X165250096Y-60046792D01*
X165182176Y-60210764D01*
X165083573Y-60358334D01*
X164958074Y-60483833D01*
X164810504Y-60582436D01*
X164646532Y-60650356D01*
X164497232Y-60680053D01*
X164472462Y-60684980D01*
X164294978Y-60684980D01*
X164270208Y-60680053D01*
X164120908Y-60650356D01*
X163956936Y-60582436D01*
X163809366Y-60483833D01*
X163683867Y-60358334D01*
X163585264Y-60210764D01*
X163517344Y-60046792D01*
X163482720Y-59872721D01*
X163482720Y-59695239D01*
X163517344Y-59521168D01*
X163585264Y-59357196D01*
X163683867Y-59209626D01*
X163809366Y-59084127D01*
X163956936Y-58985524D01*
X164120908Y-58917604D01*
X164270208Y-58887907D01*
X164294978Y-58882980D01*
X164472462Y-58882980D01*
X164497232Y-58887907D01*
G37*
G36*
X161957232Y-58887907D02*
G01*
X162106532Y-58917604D01*
X162270504Y-58985524D01*
X162418074Y-59084127D01*
X162543573Y-59209626D01*
X162642176Y-59357196D01*
X162710096Y-59521168D01*
X162744720Y-59695239D01*
X162744720Y-59872721D01*
X162710096Y-60046792D01*
X162642176Y-60210764D01*
X162543573Y-60358334D01*
X162418074Y-60483833D01*
X162270504Y-60582436D01*
X162106532Y-60650356D01*
X161957232Y-60680053D01*
X161932462Y-60684980D01*
X161754978Y-60684980D01*
X161730208Y-60680053D01*
X161580908Y-60650356D01*
X161416936Y-60582436D01*
X161269366Y-60483833D01*
X161143867Y-60358334D01*
X161045264Y-60210764D01*
X160977344Y-60046792D01*
X160942720Y-59872721D01*
X160942720Y-59695239D01*
X160977344Y-59521168D01*
X161045264Y-59357196D01*
X161143867Y-59209626D01*
X161269366Y-59084127D01*
X161416936Y-58985524D01*
X161580908Y-58917604D01*
X161730208Y-58887907D01*
X161754978Y-58882980D01*
X161932462Y-58882980D01*
X161957232Y-58887907D01*
G37*
G36*
X179737232Y-58887907D02*
G01*
X179886532Y-58917604D01*
X180050504Y-58985524D01*
X180198074Y-59084127D01*
X180323573Y-59209626D01*
X180422176Y-59357196D01*
X180490096Y-59521168D01*
X180524720Y-59695239D01*
X180524720Y-59872721D01*
X180490096Y-60046792D01*
X180422176Y-60210764D01*
X180323573Y-60358334D01*
X180198074Y-60483833D01*
X180050504Y-60582436D01*
X179886532Y-60650356D01*
X179737232Y-60680053D01*
X179712462Y-60684980D01*
X179534978Y-60684980D01*
X179510208Y-60680053D01*
X179360908Y-60650356D01*
X179196936Y-60582436D01*
X179049366Y-60483833D01*
X178923867Y-60358334D01*
X178825264Y-60210764D01*
X178757344Y-60046792D01*
X178722720Y-59872721D01*
X178722720Y-59695239D01*
X178757344Y-59521168D01*
X178825264Y-59357196D01*
X178923867Y-59209626D01*
X179049366Y-59084127D01*
X179196936Y-58985524D01*
X179360908Y-58917604D01*
X179510208Y-58887907D01*
X179534978Y-58882980D01*
X179712462Y-58882980D01*
X179737232Y-58887907D01*
G37*
G36*
X182277232Y-58887907D02*
G01*
X182426532Y-58917604D01*
X182590504Y-58985524D01*
X182738074Y-59084127D01*
X182863573Y-59209626D01*
X182962176Y-59357196D01*
X183030096Y-59521168D01*
X183064720Y-59695239D01*
X183064720Y-59872721D01*
X183030096Y-60046792D01*
X182962176Y-60210764D01*
X182863573Y-60358334D01*
X182738074Y-60483833D01*
X182590504Y-60582436D01*
X182426532Y-60650356D01*
X182277232Y-60680053D01*
X182252462Y-60684980D01*
X182074978Y-60684980D01*
X182050208Y-60680053D01*
X181900908Y-60650356D01*
X181736936Y-60582436D01*
X181589366Y-60483833D01*
X181463867Y-60358334D01*
X181365264Y-60210764D01*
X181297344Y-60046792D01*
X181262720Y-59872721D01*
X181262720Y-59695239D01*
X181297344Y-59521168D01*
X181365264Y-59357196D01*
X181463867Y-59209626D01*
X181589366Y-59084127D01*
X181736936Y-58985524D01*
X181900908Y-58917604D01*
X182050208Y-58887907D01*
X182074978Y-58882980D01*
X182252462Y-58882980D01*
X182277232Y-58887907D01*
G37*
G36*
X184817232Y-58887907D02*
G01*
X184966532Y-58917604D01*
X185130504Y-58985524D01*
X185278074Y-59084127D01*
X185403573Y-59209626D01*
X185502176Y-59357196D01*
X185570096Y-59521168D01*
X185604720Y-59695239D01*
X185604720Y-59872721D01*
X185570096Y-60046792D01*
X185502176Y-60210764D01*
X185403573Y-60358334D01*
X185278074Y-60483833D01*
X185130504Y-60582436D01*
X184966532Y-60650356D01*
X184817232Y-60680053D01*
X184792462Y-60684980D01*
X184614978Y-60684980D01*
X184590208Y-60680053D01*
X184440908Y-60650356D01*
X184276936Y-60582436D01*
X184129366Y-60483833D01*
X184003867Y-60358334D01*
X183905264Y-60210764D01*
X183837344Y-60046792D01*
X183802720Y-59872721D01*
X183802720Y-59695239D01*
X183837344Y-59521168D01*
X183905264Y-59357196D01*
X184003867Y-59209626D01*
X184129366Y-59084127D01*
X184276936Y-58985524D01*
X184440908Y-58917604D01*
X184590208Y-58887907D01*
X184614978Y-58882980D01*
X184792462Y-58882980D01*
X184817232Y-58887907D01*
G37*
G36*
X177197232Y-58887907D02*
G01*
X177346532Y-58917604D01*
X177510504Y-58985524D01*
X177658074Y-59084127D01*
X177783573Y-59209626D01*
X177882176Y-59357196D01*
X177950096Y-59521168D01*
X177984720Y-59695239D01*
X177984720Y-59872721D01*
X177950096Y-60046792D01*
X177882176Y-60210764D01*
X177783573Y-60358334D01*
X177658074Y-60483833D01*
X177510504Y-60582436D01*
X177346532Y-60650356D01*
X177197232Y-60680053D01*
X177172462Y-60684980D01*
X176994978Y-60684980D01*
X176970208Y-60680053D01*
X176820908Y-60650356D01*
X176656936Y-60582436D01*
X176509366Y-60483833D01*
X176383867Y-60358334D01*
X176285264Y-60210764D01*
X176217344Y-60046792D01*
X176182720Y-59872721D01*
X176182720Y-59695239D01*
X176217344Y-59521168D01*
X176285264Y-59357196D01*
X176383867Y-59209626D01*
X176509366Y-59084127D01*
X176656936Y-58985524D01*
X176820908Y-58917604D01*
X176970208Y-58887907D01*
X176994978Y-58882980D01*
X177172462Y-58882980D01*
X177197232Y-58887907D01*
G37*
G36*
X149257232Y-58887907D02*
G01*
X149406532Y-58917604D01*
X149570504Y-58985524D01*
X149718074Y-59084127D01*
X149843573Y-59209626D01*
X149942176Y-59357196D01*
X150010096Y-59521168D01*
X150044720Y-59695239D01*
X150044720Y-59872721D01*
X150010096Y-60046792D01*
X149942176Y-60210764D01*
X149843573Y-60358334D01*
X149718074Y-60483833D01*
X149570504Y-60582436D01*
X149406532Y-60650356D01*
X149257232Y-60680053D01*
X149232462Y-60684980D01*
X149054978Y-60684980D01*
X149030208Y-60680053D01*
X148880908Y-60650356D01*
X148716936Y-60582436D01*
X148569366Y-60483833D01*
X148443867Y-60358334D01*
X148345264Y-60210764D01*
X148277344Y-60046792D01*
X148242720Y-59872721D01*
X148242720Y-59695239D01*
X148277344Y-59521168D01*
X148345264Y-59357196D01*
X148443867Y-59209626D01*
X148569366Y-59084127D01*
X148716936Y-58985524D01*
X148880908Y-58917604D01*
X149030208Y-58887907D01*
X149054978Y-58882980D01*
X149232462Y-58882980D01*
X149257232Y-58887907D01*
G37*
G36*
X154337232Y-58887907D02*
G01*
X154486532Y-58917604D01*
X154650504Y-58985524D01*
X154798074Y-59084127D01*
X154923573Y-59209626D01*
X155022176Y-59357196D01*
X155090096Y-59521168D01*
X155124720Y-59695239D01*
X155124720Y-59872721D01*
X155090096Y-60046792D01*
X155022176Y-60210764D01*
X154923573Y-60358334D01*
X154798074Y-60483833D01*
X154650504Y-60582436D01*
X154486532Y-60650356D01*
X154337232Y-60680053D01*
X154312462Y-60684980D01*
X154134978Y-60684980D01*
X154110208Y-60680053D01*
X153960908Y-60650356D01*
X153796936Y-60582436D01*
X153649366Y-60483833D01*
X153523867Y-60358334D01*
X153425264Y-60210764D01*
X153357344Y-60046792D01*
X153322720Y-59872721D01*
X153322720Y-59695239D01*
X153357344Y-59521168D01*
X153425264Y-59357196D01*
X153523867Y-59209626D01*
X153649366Y-59084127D01*
X153796936Y-58985524D01*
X153960908Y-58917604D01*
X154110208Y-58887907D01*
X154134978Y-58882980D01*
X154312462Y-58882980D01*
X154337232Y-58887907D01*
G37*
G36*
X151797232Y-58887907D02*
G01*
X151946532Y-58917604D01*
X152110504Y-58985524D01*
X152258074Y-59084127D01*
X152383573Y-59209626D01*
X152482176Y-59357196D01*
X152550096Y-59521168D01*
X152584720Y-59695239D01*
X152584720Y-59872721D01*
X152550096Y-60046792D01*
X152482176Y-60210764D01*
X152383573Y-60358334D01*
X152258074Y-60483833D01*
X152110504Y-60582436D01*
X151946532Y-60650356D01*
X151797232Y-60680053D01*
X151772462Y-60684980D01*
X151594978Y-60684980D01*
X151570208Y-60680053D01*
X151420908Y-60650356D01*
X151256936Y-60582436D01*
X151109366Y-60483833D01*
X150983867Y-60358334D01*
X150885264Y-60210764D01*
X150817344Y-60046792D01*
X150782720Y-59872721D01*
X150782720Y-59695239D01*
X150817344Y-59521168D01*
X150885264Y-59357196D01*
X150983867Y-59209626D01*
X151109366Y-59084127D01*
X151256936Y-58985524D01*
X151420908Y-58917604D01*
X151570208Y-58887907D01*
X151594978Y-58882980D01*
X151772462Y-58882980D01*
X151797232Y-58887907D01*
G37*
M02*
