G04 #@! TF.GenerationSoftware,KiCad,Pcbnew,(5.1.4)-1*
G04 #@! TF.CreationDate,2019-09-06T16:55:32+02:00*
G04 #@! TF.ProjectId,DNMS,444e4d53-2e6b-4696-9361-645f70636258,0.9.0*
G04 #@! TF.SameCoordinates,Original*
G04 #@! TF.FileFunction,Legend,Top*
G04 #@! TF.FilePolarity,Positive*
%FSLAX46Y46*%
G04 Gerber Fmt 4.6, Leading zero omitted, Abs format (unit mm)*
G04 Created by KiCad (PCBNEW (5.1.4)-1) date 2019-09-06 16:55:32*
%MOMM*%
%LPD*%
G04 APERTURE LIST*
%ADD10C,0.100000*%
%ADD11C,0.300000*%
%ADD12C,0.750000*%
%ADD13C,0.120000*%
%ADD14C,0.150000*%
%ADD15C,0.010000*%
%ADD16C,0.152400*%
G04 APERTURE END LIST*
D10*
X62826971Y-80321104D02*
X62446019Y-80321104D01*
X62446019Y-79521104D01*
X63665066Y-79483009D02*
X62979352Y-80511580D01*
X64388876Y-80321104D02*
X64122209Y-79940152D01*
X63931733Y-80321104D02*
X63931733Y-79521104D01*
X64236495Y-79521104D01*
X64312685Y-79559200D01*
X64350780Y-79597295D01*
X64388876Y-79673485D01*
X64388876Y-79787771D01*
X64350780Y-79863961D01*
X64312685Y-79902057D01*
X64236495Y-79940152D01*
X63931733Y-79940152D01*
X62953990Y-82264304D02*
X63144466Y-83064304D01*
X63296847Y-82492876D01*
X63449228Y-83064304D01*
X63639704Y-82264304D01*
X63906371Y-83026209D02*
X64020657Y-83064304D01*
X64211133Y-83064304D01*
X64287323Y-83026209D01*
X64325419Y-82988114D01*
X64363514Y-82911923D01*
X64363514Y-82835733D01*
X64325419Y-82759542D01*
X64287323Y-82721447D01*
X64211133Y-82683352D01*
X64058752Y-82645257D01*
X63982561Y-82607161D01*
X63944466Y-82569066D01*
X63906371Y-82492876D01*
X63906371Y-82416685D01*
X63944466Y-82340495D01*
X63982561Y-82302400D01*
X64058752Y-82264304D01*
X64249228Y-82264304D01*
X64363514Y-82302400D01*
X62947628Y-85667809D02*
X63061914Y-85705904D01*
X63252390Y-85705904D01*
X63328580Y-85667809D01*
X63366676Y-85629714D01*
X63404771Y-85553523D01*
X63404771Y-85477333D01*
X63366676Y-85401142D01*
X63328580Y-85363047D01*
X63252390Y-85324952D01*
X63100009Y-85286857D01*
X63023819Y-85248761D01*
X62985723Y-85210666D01*
X62947628Y-85134476D01*
X62947628Y-85058285D01*
X62985723Y-84982095D01*
X63023819Y-84944000D01*
X63100009Y-84905904D01*
X63290485Y-84905904D01*
X63404771Y-84944000D01*
X63747628Y-85705904D02*
X63747628Y-84905904D01*
X63938104Y-84905904D01*
X64052390Y-84944000D01*
X64128580Y-85020190D01*
X64166676Y-85096380D01*
X64204771Y-85248761D01*
X64204771Y-85363047D01*
X64166676Y-85515428D01*
X64128580Y-85591619D01*
X64052390Y-85667809D01*
X63938104Y-85705904D01*
X63747628Y-85705904D01*
D11*
X128191142Y-84522571D02*
X128691142Y-86022571D01*
X129191142Y-84522571D01*
X130476857Y-86022571D02*
X129619714Y-86022571D01*
X130048285Y-86022571D02*
X130048285Y-84522571D01*
X129905428Y-84736857D01*
X129762571Y-84879714D01*
X129619714Y-84951142D01*
X131119714Y-85879714D02*
X131191142Y-85951142D01*
X131119714Y-86022571D01*
X131048285Y-85951142D01*
X131119714Y-85879714D01*
X131119714Y-86022571D01*
X131762571Y-84665428D02*
X131834000Y-84594000D01*
X131976857Y-84522571D01*
X132334000Y-84522571D01*
X132476857Y-84594000D01*
X132548285Y-84665428D01*
X132619714Y-84808285D01*
X132619714Y-84951142D01*
X132548285Y-85165428D01*
X131691142Y-86022571D01*
X132619714Y-86022571D01*
X134191142Y-84522571D02*
X135048285Y-84522571D01*
X134619714Y-86022571D02*
X134619714Y-84522571D01*
X136191142Y-85022571D02*
X136191142Y-86022571D01*
X135834000Y-84451142D02*
X135476857Y-85522571D01*
X136405428Y-85522571D01*
D10*
X71551923Y-84778904D02*
X72047161Y-84778904D01*
X71780495Y-85083666D01*
X71894780Y-85083666D01*
X71970971Y-85121761D01*
X72009066Y-85159857D01*
X72047161Y-85236047D01*
X72047161Y-85426523D01*
X72009066Y-85502714D01*
X71970971Y-85540809D01*
X71894780Y-85578904D01*
X71666209Y-85578904D01*
X71590019Y-85540809D01*
X71551923Y-85502714D01*
X72275733Y-84778904D02*
X72542400Y-85578904D01*
X72809066Y-84778904D01*
X72999542Y-84778904D02*
X73494780Y-84778904D01*
X73228114Y-85083666D01*
X73342400Y-85083666D01*
X73418590Y-85121761D01*
X73456685Y-85159857D01*
X73494780Y-85236047D01*
X73494780Y-85426523D01*
X73456685Y-85502714D01*
X73418590Y-85540809D01*
X73342400Y-85578904D01*
X73113828Y-85578904D01*
X73037638Y-85540809D01*
X72999542Y-85502714D01*
X71615428Y-83000809D02*
X71729714Y-83038904D01*
X71920190Y-83038904D01*
X71996380Y-83000809D01*
X72034476Y-82962714D01*
X72072571Y-82886523D01*
X72072571Y-82810333D01*
X72034476Y-82734142D01*
X71996380Y-82696047D01*
X71920190Y-82657952D01*
X71767809Y-82619857D01*
X71691619Y-82581761D01*
X71653523Y-82543666D01*
X71615428Y-82467476D01*
X71615428Y-82391285D01*
X71653523Y-82315095D01*
X71691619Y-82277000D01*
X71767809Y-82238904D01*
X71958285Y-82238904D01*
X72072571Y-82277000D01*
X72872571Y-82962714D02*
X72834476Y-83000809D01*
X72720190Y-83038904D01*
X72644000Y-83038904D01*
X72529714Y-83000809D01*
X72453523Y-82924619D01*
X72415428Y-82848428D01*
X72377333Y-82696047D01*
X72377333Y-82581761D01*
X72415428Y-82429380D01*
X72453523Y-82353190D01*
X72529714Y-82277000D01*
X72644000Y-82238904D01*
X72720190Y-82238904D01*
X72834476Y-82277000D01*
X72872571Y-82315095D01*
X73215428Y-83038904D02*
X73215428Y-82238904D01*
X73672571Y-83038904D02*
X73329714Y-82581761D01*
X73672571Y-82238904D02*
X73215428Y-82696047D01*
X72110676Y-79737000D02*
X72034485Y-79698904D01*
X71920200Y-79698904D01*
X71805914Y-79737000D01*
X71729723Y-79813190D01*
X71691628Y-79889380D01*
X71653533Y-80041761D01*
X71653533Y-80156047D01*
X71691628Y-80308428D01*
X71729723Y-80384619D01*
X71805914Y-80460809D01*
X71920200Y-80498904D01*
X71996390Y-80498904D01*
X72110676Y-80460809D01*
X72148771Y-80422714D01*
X72148771Y-80156047D01*
X71996390Y-80156047D01*
X72491628Y-80498904D02*
X72491628Y-79698904D01*
X72948771Y-80498904D01*
X72948771Y-79698904D01*
X73329723Y-80498904D02*
X73329723Y-79698904D01*
X73520200Y-79698904D01*
X73634485Y-79737000D01*
X73710676Y-79813190D01*
X73748771Y-79889380D01*
X73786866Y-80041761D01*
X73786866Y-80156047D01*
X73748771Y-80308428D01*
X73710676Y-80384619D01*
X73634485Y-80460809D01*
X73520200Y-80498904D01*
X73329723Y-80498904D01*
X169280028Y-84815342D02*
X169889552Y-84815342D01*
X169584790Y-85120104D02*
X169584790Y-84510580D01*
X170651457Y-84320104D02*
X170270504Y-84320104D01*
X170232409Y-84701057D01*
X170270504Y-84662961D01*
X170346695Y-84624866D01*
X170537171Y-84624866D01*
X170613361Y-84662961D01*
X170651457Y-84701057D01*
X170689552Y-84777247D01*
X170689552Y-84967723D01*
X170651457Y-85043914D01*
X170613361Y-85082009D01*
X170537171Y-85120104D01*
X170346695Y-85120104D01*
X170270504Y-85082009D01*
X170232409Y-85043914D01*
X170918123Y-84320104D02*
X171184790Y-85120104D01*
X171451457Y-84320104D01*
X169800676Y-86796600D02*
X169724485Y-86758504D01*
X169610200Y-86758504D01*
X169495914Y-86796600D01*
X169419723Y-86872790D01*
X169381628Y-86948980D01*
X169343533Y-87101361D01*
X169343533Y-87215647D01*
X169381628Y-87368028D01*
X169419723Y-87444219D01*
X169495914Y-87520409D01*
X169610200Y-87558504D01*
X169686390Y-87558504D01*
X169800676Y-87520409D01*
X169838771Y-87482314D01*
X169838771Y-87215647D01*
X169686390Y-87215647D01*
X170181628Y-87558504D02*
X170181628Y-86758504D01*
X170638771Y-87558504D01*
X170638771Y-86758504D01*
X171019723Y-87558504D02*
X171019723Y-86758504D01*
X171210200Y-86758504D01*
X171324485Y-86796600D01*
X171400676Y-86872790D01*
X171438771Y-86948980D01*
X171476866Y-87101361D01*
X171476866Y-87215647D01*
X171438771Y-87368028D01*
X171400676Y-87444219D01*
X171324485Y-87520409D01*
X171210200Y-87558504D01*
X171019723Y-87558504D01*
X165622542Y-82516609D02*
X165736828Y-82554704D01*
X165927304Y-82554704D01*
X166003495Y-82516609D01*
X166041590Y-82478514D01*
X166079685Y-82402323D01*
X166079685Y-82326133D01*
X166041590Y-82249942D01*
X166003495Y-82211847D01*
X165927304Y-82173752D01*
X165774923Y-82135657D01*
X165698733Y-82097561D01*
X165660638Y-82059466D01*
X165622542Y-81983276D01*
X165622542Y-81907085D01*
X165660638Y-81830895D01*
X165698733Y-81792800D01*
X165774923Y-81754704D01*
X165965400Y-81754704D01*
X166079685Y-81792800D01*
X166879685Y-82478514D02*
X166841590Y-82516609D01*
X166727304Y-82554704D01*
X166651114Y-82554704D01*
X166536828Y-82516609D01*
X166460638Y-82440419D01*
X166422542Y-82364228D01*
X166384447Y-82211847D01*
X166384447Y-82097561D01*
X166422542Y-81945180D01*
X166460638Y-81868990D01*
X166536828Y-81792800D01*
X166651114Y-81754704D01*
X166727304Y-81754704D01*
X166841590Y-81792800D01*
X166879685Y-81830895D01*
X167603495Y-82554704D02*
X167222542Y-82554704D01*
X167222542Y-81754704D01*
X167679685Y-82630895D02*
X168289209Y-82630895D01*
X168479685Y-82135657D02*
X168746352Y-82135657D01*
X168860638Y-82554704D02*
X168479685Y-82554704D01*
X168479685Y-81754704D01*
X168860638Y-81754704D01*
X169127304Y-82554704D02*
X169546352Y-82021371D01*
X169127304Y-82021371D02*
X169546352Y-82554704D01*
X163139571Y-92625809D02*
X163253857Y-92663904D01*
X163444333Y-92663904D01*
X163520523Y-92625809D01*
X163558619Y-92587714D01*
X163596714Y-92511523D01*
X163596714Y-92435333D01*
X163558619Y-92359142D01*
X163520523Y-92321047D01*
X163444333Y-92282952D01*
X163291952Y-92244857D01*
X163215761Y-92206761D01*
X163177666Y-92168666D01*
X163139571Y-92092476D01*
X163139571Y-92016285D01*
X163177666Y-91940095D01*
X163215761Y-91902000D01*
X163291952Y-91863904D01*
X163482428Y-91863904D01*
X163596714Y-91902000D01*
X163939571Y-92663904D02*
X163939571Y-91863904D01*
X164130047Y-91863904D01*
X164244333Y-91902000D01*
X164320523Y-91978190D01*
X164358619Y-92054380D01*
X164396714Y-92206761D01*
X164396714Y-92321047D01*
X164358619Y-92473428D01*
X164320523Y-92549619D01*
X164244333Y-92625809D01*
X164130047Y-92663904D01*
X163939571Y-92663904D01*
X164701476Y-92435333D02*
X165082428Y-92435333D01*
X164625285Y-92663904D02*
X164891952Y-91863904D01*
X165158619Y-92663904D01*
X163260219Y-90085809D02*
X163374504Y-90123904D01*
X163564980Y-90123904D01*
X163641171Y-90085809D01*
X163679266Y-90047714D01*
X163717361Y-89971523D01*
X163717361Y-89895333D01*
X163679266Y-89819142D01*
X163641171Y-89781047D01*
X163564980Y-89742952D01*
X163412600Y-89704857D01*
X163336409Y-89666761D01*
X163298314Y-89628666D01*
X163260219Y-89552476D01*
X163260219Y-89476285D01*
X163298314Y-89400095D01*
X163336409Y-89362000D01*
X163412600Y-89323904D01*
X163603076Y-89323904D01*
X163717361Y-89362000D01*
X164517361Y-90047714D02*
X164479266Y-90085809D01*
X164364980Y-90123904D01*
X164288790Y-90123904D01*
X164174504Y-90085809D01*
X164098314Y-90009619D01*
X164060219Y-89933428D01*
X164022123Y-89781047D01*
X164022123Y-89666761D01*
X164060219Y-89514380D01*
X164098314Y-89438190D01*
X164174504Y-89362000D01*
X164288790Y-89323904D01*
X164364980Y-89323904D01*
X164479266Y-89362000D01*
X164517361Y-89400095D01*
X165241171Y-90123904D02*
X164860219Y-90123904D01*
X164860219Y-89323904D01*
X165635076Y-79837000D02*
X165558885Y-79798904D01*
X165444600Y-79798904D01*
X165330314Y-79837000D01*
X165254123Y-79913190D01*
X165216028Y-79989380D01*
X165177933Y-80141761D01*
X165177933Y-80256047D01*
X165216028Y-80408428D01*
X165254123Y-80484619D01*
X165330314Y-80560809D01*
X165444600Y-80598904D01*
X165520790Y-80598904D01*
X165635076Y-80560809D01*
X165673171Y-80522714D01*
X165673171Y-80256047D01*
X165520790Y-80256047D01*
X166016028Y-80598904D02*
X166016028Y-79798904D01*
X166473171Y-80598904D01*
X166473171Y-79798904D01*
X166854123Y-80598904D02*
X166854123Y-79798904D01*
X167044600Y-79798904D01*
X167158885Y-79837000D01*
X167235076Y-79913190D01*
X167273171Y-79989380D01*
X167311266Y-80141761D01*
X167311266Y-80256047D01*
X167273171Y-80408428D01*
X167235076Y-80484619D01*
X167158885Y-80560809D01*
X167044600Y-80598904D01*
X166854123Y-80598904D01*
X165266828Y-77601742D02*
X165876352Y-77601742D01*
X165571590Y-77906504D02*
X165571590Y-77296980D01*
X166638257Y-77106504D02*
X166257304Y-77106504D01*
X166219209Y-77487457D01*
X166257304Y-77449361D01*
X166333495Y-77411266D01*
X166523971Y-77411266D01*
X166600161Y-77449361D01*
X166638257Y-77487457D01*
X166676352Y-77563647D01*
X166676352Y-77754123D01*
X166638257Y-77830314D01*
X166600161Y-77868409D01*
X166523971Y-77906504D01*
X166333495Y-77906504D01*
X166257304Y-77868409D01*
X166219209Y-77830314D01*
X166904923Y-77106504D02*
X167171590Y-77906504D01*
X167438257Y-77106504D01*
D12*
X117479333Y-82752904D02*
X117479333Y-77752904D01*
X118669809Y-77752904D01*
X119384095Y-77991000D01*
X119860285Y-78467190D01*
X120098380Y-78943380D01*
X120336476Y-79895761D01*
X120336476Y-80610047D01*
X120098380Y-81562428D01*
X119860285Y-82038619D01*
X119384095Y-82514809D01*
X118669809Y-82752904D01*
X117479333Y-82752904D01*
X122479333Y-82752904D02*
X122479333Y-77752904D01*
X125336476Y-82752904D01*
X125336476Y-77752904D01*
X127717428Y-82752904D02*
X127717428Y-77752904D01*
X129384095Y-81324333D01*
X131050761Y-77752904D01*
X131050761Y-82752904D01*
X133193619Y-82514809D02*
X133907904Y-82752904D01*
X135098380Y-82752904D01*
X135574571Y-82514809D01*
X135812666Y-82276714D01*
X136050761Y-81800523D01*
X136050761Y-81324333D01*
X135812666Y-80848142D01*
X135574571Y-80610047D01*
X135098380Y-80371952D01*
X134146000Y-80133857D01*
X133669809Y-79895761D01*
X133431714Y-79657666D01*
X133193619Y-79181476D01*
X133193619Y-78705285D01*
X133431714Y-78229095D01*
X133669809Y-77991000D01*
X134146000Y-77752904D01*
X135336476Y-77752904D01*
X136050761Y-77991000D01*
D13*
X154532200Y-90650200D02*
X154532200Y-92890200D01*
X147292200Y-90650200D02*
X147292200Y-92890200D01*
X147292200Y-92890200D02*
X154532200Y-92890200D01*
X147292200Y-90650200D02*
X154532200Y-90650200D01*
D10*
G36*
X99669600Y-84302600D02*
G01*
X99415600Y-84556600D01*
X99161600Y-84175600D01*
X99415600Y-83921600D01*
X99669600Y-84302600D01*
G37*
X99669600Y-84302600D02*
X99415600Y-84556600D01*
X99161600Y-84175600D01*
X99415600Y-83921600D01*
X99669600Y-84302600D01*
G36*
X99288600Y-84683600D02*
G01*
X99034600Y-84937600D01*
X98780600Y-84556600D01*
X99034600Y-84302600D01*
X99288600Y-84683600D01*
G37*
X99288600Y-84683600D02*
X99034600Y-84937600D01*
X98780600Y-84556600D01*
X99034600Y-84302600D01*
X99288600Y-84683600D01*
G36*
X97383600Y-83921600D02*
G01*
X97129600Y-84175600D01*
X96875600Y-83794600D01*
X97129600Y-83540600D01*
X97383600Y-83921600D01*
G37*
X97383600Y-83921600D02*
X97129600Y-84175600D01*
X96875600Y-83794600D01*
X97129600Y-83540600D01*
X97383600Y-83921600D01*
G36*
X97764600Y-84429600D02*
G01*
X97510600Y-84683600D01*
X97256600Y-84302600D01*
X97510600Y-84048600D01*
X97764600Y-84429600D01*
G37*
X97764600Y-84429600D02*
X97510600Y-84683600D01*
X97256600Y-84302600D01*
X97510600Y-84048600D01*
X97764600Y-84429600D01*
G36*
X98145600Y-84937600D02*
G01*
X97891600Y-85191600D01*
X97637600Y-84810600D01*
X97891600Y-84556600D01*
X98145600Y-84937600D01*
G37*
X98145600Y-84937600D02*
X97891600Y-85191600D01*
X97637600Y-84810600D01*
X97891600Y-84556600D01*
X98145600Y-84937600D01*
G36*
X98145600Y-84048600D02*
G01*
X97891600Y-84302600D01*
X97637600Y-83921600D01*
X97891600Y-83667600D01*
X98145600Y-84048600D01*
G37*
X98145600Y-84048600D02*
X97891600Y-84302600D01*
X97637600Y-83921600D01*
X97891600Y-83667600D01*
X98145600Y-84048600D01*
G36*
X98526600Y-84556600D02*
G01*
X98272600Y-84810600D01*
X98018600Y-84429600D01*
X98272600Y-84175600D01*
X98526600Y-84556600D01*
G37*
X98526600Y-84556600D02*
X98272600Y-84810600D01*
X98018600Y-84429600D01*
X98272600Y-84175600D01*
X98526600Y-84556600D01*
G36*
X98907600Y-85064600D02*
G01*
X98653600Y-85318600D01*
X98399600Y-84937600D01*
X98653600Y-84683600D01*
X98907600Y-85064600D01*
G37*
X98907600Y-85064600D02*
X98653600Y-85318600D01*
X98399600Y-84937600D01*
X98653600Y-84683600D01*
X98907600Y-85064600D01*
D14*
X90017600Y-86334600D02*
X90017600Y-89509600D01*
X87477600Y-86334600D02*
X90017600Y-86334600D01*
X87477600Y-89509600D02*
X87477600Y-86334600D01*
X90017600Y-89509600D02*
X87477600Y-89509600D01*
X113512600Y-75539600D02*
X113512600Y-93319600D01*
X77952600Y-75539600D02*
X113512600Y-75539600D01*
X77952600Y-93319600D02*
X77952600Y-75539600D01*
X113512600Y-93319600D02*
X77952600Y-93319600D01*
X91414600Y-79349600D02*
X101193600Y-79349600D01*
X91414600Y-89509600D02*
X101193600Y-89509600D01*
X101193600Y-89509600D02*
X101193600Y-79349600D01*
X91414600Y-79349600D02*
X91414600Y-89509600D01*
X85064600Y-86207600D02*
X81000600Y-86207600D01*
X85064600Y-82651600D02*
X85064600Y-86207600D01*
X81000600Y-82651600D02*
X85064600Y-82651600D01*
X81000600Y-86207600D02*
X81000600Y-82651600D01*
X108940600Y-80619600D02*
X113512600Y-80619600D01*
X108940600Y-88239600D02*
X113512600Y-88239600D01*
X108940600Y-80619600D02*
X108940600Y-88239600D01*
X114782600Y-88239600D02*
X113512600Y-88239600D01*
X114782600Y-80619600D02*
X114782600Y-88239600D01*
X113512600Y-80619600D02*
X114782600Y-80619600D01*
D13*
X65472000Y-78680000D02*
X66802000Y-78680000D01*
X65472000Y-80010000D02*
X65472000Y-78680000D01*
X68072000Y-78680000D02*
X70672000Y-78680000D01*
X68072000Y-81280000D02*
X68072000Y-78680000D01*
X65472000Y-81280000D02*
X68072000Y-81280000D01*
X70672000Y-78680000D02*
X70672000Y-86420000D01*
X65472000Y-81280000D02*
X65472000Y-86420000D01*
X65472000Y-86420000D02*
X70672000Y-86420000D01*
X157707800Y-78917600D02*
X159947800Y-78917600D01*
X157707800Y-86157600D02*
X159947800Y-86157600D01*
X159947800Y-86157600D02*
X159947800Y-78917600D01*
X157707800Y-86157600D02*
X157707800Y-78917600D01*
X69035800Y-90980400D02*
X69035800Y-93220400D01*
X61795800Y-90980400D02*
X61795800Y-93220400D01*
X61795800Y-93220400D02*
X69035800Y-93220400D01*
X61795800Y-90980400D02*
X69035800Y-90980400D01*
D15*
G36*
X125245429Y-88633740D02*
G01*
X125361483Y-88672012D01*
X125587414Y-88780127D01*
X125767540Y-88919529D01*
X125916516Y-89102100D01*
X125943053Y-89143528D01*
X125977482Y-89210671D01*
X126000380Y-89289588D01*
X126014816Y-89396584D01*
X126023860Y-89547968D01*
X126025086Y-89579396D01*
X126027066Y-89782801D01*
X126013032Y-89940347D01*
X125978765Y-90068572D01*
X125920047Y-90184011D01*
X125844085Y-90289050D01*
X125763277Y-90386765D01*
X125696138Y-90454704D01*
X125621535Y-90510392D01*
X125518334Y-90571355D01*
X125474425Y-90595604D01*
X125406744Y-90630562D01*
X125343835Y-90655035D01*
X125271966Y-90671211D01*
X125177406Y-90681276D01*
X125046426Y-90687419D01*
X124871175Y-90691707D01*
X124704259Y-90693029D01*
X124555778Y-90690356D01*
X124439477Y-90684213D01*
X124369103Y-90675125D01*
X124359622Y-90672175D01*
X124256093Y-90596387D01*
X124186647Y-90482656D01*
X124155067Y-90348846D01*
X124165139Y-90212820D01*
X124220648Y-90092444D01*
X124233413Y-90076507D01*
X124268982Y-90038488D01*
X124306856Y-90012464D01*
X124359969Y-89995385D01*
X124441258Y-89984203D01*
X124563659Y-89975866D01*
X124685851Y-89969852D01*
X124901053Y-89955732D01*
X125060659Y-89933541D01*
X125172456Y-89899082D01*
X125244231Y-89848155D01*
X125283768Y-89776563D01*
X125298854Y-89680107D01*
X125299800Y-89638819D01*
X125272801Y-89518833D01*
X125200914Y-89425744D01*
X125097801Y-89374122D01*
X125046126Y-89368300D01*
X124946587Y-89350398D01*
X124862120Y-89312750D01*
X124751492Y-89226616D01*
X124690580Y-89133804D01*
X124667315Y-89012979D01*
X124665856Y-88965799D01*
X124669489Y-88863960D01*
X124690243Y-88797976D01*
X124740416Y-88740386D01*
X124783159Y-88703861D01*
X124913875Y-88628955D01*
X125065747Y-88605703D01*
X125245429Y-88633740D01*
X125245429Y-88633740D01*
G37*
X125245429Y-88633740D02*
X125361483Y-88672012D01*
X125587414Y-88780127D01*
X125767540Y-88919529D01*
X125916516Y-89102100D01*
X125943053Y-89143528D01*
X125977482Y-89210671D01*
X126000380Y-89289588D01*
X126014816Y-89396584D01*
X126023860Y-89547968D01*
X126025086Y-89579396D01*
X126027066Y-89782801D01*
X126013032Y-89940347D01*
X125978765Y-90068572D01*
X125920047Y-90184011D01*
X125844085Y-90289050D01*
X125763277Y-90386765D01*
X125696138Y-90454704D01*
X125621535Y-90510392D01*
X125518334Y-90571355D01*
X125474425Y-90595604D01*
X125406744Y-90630562D01*
X125343835Y-90655035D01*
X125271966Y-90671211D01*
X125177406Y-90681276D01*
X125046426Y-90687419D01*
X124871175Y-90691707D01*
X124704259Y-90693029D01*
X124555778Y-90690356D01*
X124439477Y-90684213D01*
X124369103Y-90675125D01*
X124359622Y-90672175D01*
X124256093Y-90596387D01*
X124186647Y-90482656D01*
X124155067Y-90348846D01*
X124165139Y-90212820D01*
X124220648Y-90092444D01*
X124233413Y-90076507D01*
X124268982Y-90038488D01*
X124306856Y-90012464D01*
X124359969Y-89995385D01*
X124441258Y-89984203D01*
X124563659Y-89975866D01*
X124685851Y-89969852D01*
X124901053Y-89955732D01*
X125060659Y-89933541D01*
X125172456Y-89899082D01*
X125244231Y-89848155D01*
X125283768Y-89776563D01*
X125298854Y-89680107D01*
X125299800Y-89638819D01*
X125272801Y-89518833D01*
X125200914Y-89425744D01*
X125097801Y-89374122D01*
X125046126Y-89368300D01*
X124946587Y-89350398D01*
X124862120Y-89312750D01*
X124751492Y-89226616D01*
X124690580Y-89133804D01*
X124667315Y-89012979D01*
X124665856Y-88965799D01*
X124669489Y-88863960D01*
X124690243Y-88797976D01*
X124740416Y-88740386D01*
X124783159Y-88703861D01*
X124913875Y-88628955D01*
X125065747Y-88605703D01*
X125245429Y-88633740D01*
G36*
X119923959Y-84613785D02*
G01*
X120172561Y-84636623D01*
X120386919Y-84672640D01*
X120555714Y-84720161D01*
X120622696Y-84749368D01*
X120692621Y-84782081D01*
X120736859Y-84796097D01*
X120737216Y-84796104D01*
X120774244Y-84811125D01*
X120852235Y-84851196D01*
X120957457Y-84909111D01*
X121014399Y-84941590D01*
X121236402Y-85089034D01*
X121459445Y-85271646D01*
X121664931Y-85472369D01*
X121834260Y-85674149D01*
X121872887Y-85728851D01*
X122009754Y-85932147D01*
X122313339Y-85930727D01*
X122504246Y-85936491D01*
X122692030Y-85953917D01*
X122859861Y-85980583D01*
X122990908Y-86014069D01*
X123043657Y-86035781D01*
X123100056Y-86063429D01*
X123189620Y-86105470D01*
X123247784Y-86132195D01*
X123327139Y-86175548D01*
X123429992Y-86241610D01*
X123544125Y-86321235D01*
X123657318Y-86405275D01*
X123757353Y-86484581D01*
X123832011Y-86550007D01*
X123869073Y-86592403D01*
X123871050Y-86598819D01*
X123890690Y-86635939D01*
X123938755Y-86695464D01*
X123946550Y-86703997D01*
X124011268Y-86788867D01*
X124087053Y-86910429D01*
X124163897Y-87049800D01*
X124231794Y-87188099D01*
X124280735Y-87306443D01*
X124298498Y-87368050D01*
X124323177Y-87466433D01*
X124353860Y-87549281D01*
X124354488Y-87550564D01*
X124376583Y-87615165D01*
X124356993Y-87639394D01*
X124292734Y-87623786D01*
X124198702Y-87578502D01*
X124026880Y-87491214D01*
X123888513Y-87432033D01*
X123764344Y-87393660D01*
X123652356Y-87371440D01*
X123531175Y-87341992D01*
X123455839Y-87295699D01*
X123433770Y-87269314D01*
X123300012Y-87099473D01*
X123150771Y-86960316D01*
X122970406Y-86839610D01*
X122743273Y-86725117D01*
X122731023Y-86719611D01*
X122667190Y-86704963D01*
X122557848Y-86693453D01*
X122420967Y-86686627D01*
X122334148Y-86685425D01*
X122160775Y-86688923D01*
X122027541Y-86703180D01*
X121911288Y-86733836D01*
X121788860Y-86786533D01*
X121675401Y-86845902D01*
X121604118Y-86881842D01*
X121569066Y-86879232D01*
X121551694Y-86828600D01*
X121543205Y-86778397D01*
X121508230Y-86655521D01*
X121442673Y-86501974D01*
X121356219Y-86336187D01*
X121258555Y-86176586D01*
X121159369Y-86041600D01*
X121150182Y-86030683D01*
X120979183Y-85853786D01*
X120787607Y-85694552D01*
X120595515Y-85568846D01*
X120513028Y-85526885D01*
X120415670Y-85481849D01*
X120336169Y-85443768D01*
X120309773Y-85430418D01*
X120209336Y-85395612D01*
X120061090Y-85368065D01*
X119880477Y-85349394D01*
X119682935Y-85341216D01*
X119491904Y-85344728D01*
X119184578Y-85379443D01*
X118913459Y-85453447D01*
X118660968Y-85572273D01*
X118549425Y-85641388D01*
X118427972Y-85733938D01*
X118295671Y-85853822D01*
X118167544Y-85985469D01*
X118058611Y-86113306D01*
X117983893Y-86221763D01*
X117976721Y-86235092D01*
X117937069Y-86306695D01*
X117907784Y-86349642D01*
X117905259Y-86352050D01*
X117879002Y-86394191D01*
X117841090Y-86479462D01*
X117798195Y-86590195D01*
X117756987Y-86708721D01*
X117724137Y-86817371D01*
X117713471Y-86860050D01*
X117693896Y-86990786D01*
X117684201Y-87152879D01*
X117683598Y-87331787D01*
X117691302Y-87512964D01*
X117706527Y-87681866D01*
X117728486Y-87823951D01*
X117756395Y-87924674D01*
X117772662Y-87955425D01*
X117798924Y-88004602D01*
X117832893Y-88084131D01*
X117838364Y-88098300D01*
X117949576Y-88319614D01*
X118109764Y-88540391D01*
X118305873Y-88746503D01*
X118524849Y-88923824D01*
X118701224Y-89032060D01*
X118789355Y-89078142D01*
X118869539Y-89117940D01*
X118946984Y-89151914D01*
X119026898Y-89180526D01*
X119114488Y-89204236D01*
X119214960Y-89223504D01*
X119333524Y-89238792D01*
X119475386Y-89250559D01*
X119645753Y-89259266D01*
X119849834Y-89265375D01*
X120092835Y-89269345D01*
X120379964Y-89271637D01*
X120716429Y-89272712D01*
X121107436Y-89273030D01*
X121425684Y-89273050D01*
X123449027Y-89273050D01*
X123533038Y-89195191D01*
X123591292Y-89123731D01*
X123614714Y-89036612D01*
X123617050Y-88978475D01*
X123594508Y-88847260D01*
X123524599Y-88755060D01*
X123403892Y-88698337D01*
X123330943Y-88683271D01*
X123172999Y-88629740D01*
X123085237Y-88564330D01*
X123021521Y-88495265D01*
X122991341Y-88427946D01*
X122983122Y-88333134D01*
X122983106Y-88306384D01*
X122999959Y-88165724D01*
X123055416Y-88063600D01*
X123160090Y-87983704D01*
X123209659Y-87958286D01*
X123271024Y-87932022D01*
X123325382Y-87921149D01*
X123391944Y-87926086D01*
X123489920Y-87947252D01*
X123564365Y-87966015D01*
X123823559Y-88059602D01*
X124034853Y-88194421D01*
X124196962Y-88368834D01*
X124308599Y-88581203D01*
X124368479Y-88829888D01*
X124379050Y-89003933D01*
X124375767Y-89127624D01*
X124367026Y-89225327D01*
X124354488Y-89280979D01*
X124349742Y-89287415D01*
X124322070Y-89329072D01*
X124300917Y-89394394D01*
X124260892Y-89483310D01*
X124182542Y-89592465D01*
X124079962Y-89706260D01*
X123967245Y-89809093D01*
X123858487Y-89885365D01*
X123856152Y-89886678D01*
X123801447Y-89916007D01*
X123746677Y-89941198D01*
X123686781Y-89962568D01*
X123616696Y-89980428D01*
X123531359Y-89995093D01*
X123425709Y-90006876D01*
X123294681Y-90016091D01*
X123133214Y-90023051D01*
X122936244Y-90028071D01*
X122698711Y-90031463D01*
X122415550Y-90033542D01*
X122081699Y-90034620D01*
X121692097Y-90035013D01*
X121461123Y-90035050D01*
X119530572Y-90035050D01*
X119446561Y-90112908D01*
X119379847Y-90214523D01*
X119360982Y-90337951D01*
X119390946Y-90462161D01*
X119427491Y-90521795D01*
X119492432Y-90604355D01*
X121546803Y-90613390D01*
X123601175Y-90622425D01*
X123798876Y-90728887D01*
X124016316Y-90877562D01*
X124185336Y-91058392D01*
X124304660Y-91263283D01*
X124373012Y-91484140D01*
X124389116Y-91712868D01*
X124351695Y-91941371D01*
X124259473Y-92161556D01*
X124111173Y-92365327D01*
X124064475Y-92413450D01*
X123905879Y-92541683D01*
X123735011Y-92622900D01*
X123535642Y-92663182D01*
X123379209Y-92670300D01*
X123257111Y-92667986D01*
X123178715Y-92657288D01*
X123124281Y-92632569D01*
X123074070Y-92588191D01*
X123067365Y-92581250D01*
X123012119Y-92509321D01*
X122987064Y-92427980D01*
X122982050Y-92333190D01*
X123001036Y-92198584D01*
X123062401Y-92096003D01*
X123172749Y-92018651D01*
X123338686Y-91959731D01*
X123347175Y-91957506D01*
X123455006Y-91922829D01*
X123540109Y-91883318D01*
X123577362Y-91854524D01*
X123605713Y-91778806D01*
X123615970Y-91672084D01*
X123607410Y-91564434D01*
X123585970Y-91496802D01*
X123569726Y-91471169D01*
X123547368Y-91449192D01*
X123514217Y-91430590D01*
X123465594Y-91415082D01*
X123396820Y-91402390D01*
X123303216Y-91392232D01*
X123180103Y-91384328D01*
X123022801Y-91378398D01*
X122826633Y-91374163D01*
X122586918Y-91371341D01*
X122298979Y-91369653D01*
X121958135Y-91368819D01*
X121559708Y-91368558D01*
X121444107Y-91368550D01*
X121020718Y-91368449D01*
X120655840Y-91367854D01*
X120344482Y-91366321D01*
X120081656Y-91363408D01*
X119862372Y-91358671D01*
X119681640Y-91351668D01*
X119534470Y-91341957D01*
X119415875Y-91329094D01*
X119320863Y-91312637D01*
X119244445Y-91292143D01*
X119181632Y-91267170D01*
X119127434Y-91237275D01*
X119076862Y-91202015D01*
X119024926Y-91160948D01*
X119015221Y-91153046D01*
X118875559Y-91031604D01*
X118780495Y-90928587D01*
X118719356Y-90831154D01*
X118692938Y-90765300D01*
X118661376Y-90683407D01*
X118631876Y-90628163D01*
X118628464Y-90624012D01*
X118610275Y-90570853D01*
X118601254Y-90473203D01*
X118600783Y-90349313D01*
X118608243Y-90217432D01*
X118623015Y-90095813D01*
X118644480Y-90002705D01*
X118650034Y-89987870D01*
X118678799Y-89912315D01*
X118690651Y-89867170D01*
X118689722Y-89862484D01*
X118657788Y-89846586D01*
X118585903Y-89812995D01*
X118521175Y-89783352D01*
X118266541Y-89646837D01*
X118012051Y-89472789D01*
X117773131Y-89274048D01*
X117565205Y-89063453D01*
X117403697Y-88853845D01*
X117402735Y-88852363D01*
X117349406Y-88771843D01*
X117310073Y-88715636D01*
X117298775Y-88701550D01*
X117277727Y-88666649D01*
X117238725Y-88590811D01*
X117192465Y-88495175D01*
X117141087Y-88387279D01*
X117096680Y-88295898D01*
X117071637Y-88246202D01*
X117032310Y-88136440D01*
X116999959Y-87976565D01*
X116975187Y-87779643D01*
X116958601Y-87558741D01*
X116950804Y-87326924D01*
X116952402Y-87097260D01*
X116964000Y-86882813D01*
X116986202Y-86696652D01*
X116997177Y-86637790D01*
X117101076Y-86292873D01*
X117262025Y-85959817D01*
X117473719Y-85646164D01*
X117729853Y-85359460D01*
X118024125Y-85107247D01*
X118350228Y-84897070D01*
X118525309Y-84809160D01*
X118743702Y-84722583D01*
X118968654Y-84662035D01*
X119215990Y-84624661D01*
X119501531Y-84607607D01*
X119652431Y-84605799D01*
X119923959Y-84613785D01*
X119923959Y-84613785D01*
G37*
X119923959Y-84613785D02*
X120172561Y-84636623D01*
X120386919Y-84672640D01*
X120555714Y-84720161D01*
X120622696Y-84749368D01*
X120692621Y-84782081D01*
X120736859Y-84796097D01*
X120737216Y-84796104D01*
X120774244Y-84811125D01*
X120852235Y-84851196D01*
X120957457Y-84909111D01*
X121014399Y-84941590D01*
X121236402Y-85089034D01*
X121459445Y-85271646D01*
X121664931Y-85472369D01*
X121834260Y-85674149D01*
X121872887Y-85728851D01*
X122009754Y-85932147D01*
X122313339Y-85930727D01*
X122504246Y-85936491D01*
X122692030Y-85953917D01*
X122859861Y-85980583D01*
X122990908Y-86014069D01*
X123043657Y-86035781D01*
X123100056Y-86063429D01*
X123189620Y-86105470D01*
X123247784Y-86132195D01*
X123327139Y-86175548D01*
X123429992Y-86241610D01*
X123544125Y-86321235D01*
X123657318Y-86405275D01*
X123757353Y-86484581D01*
X123832011Y-86550007D01*
X123869073Y-86592403D01*
X123871050Y-86598819D01*
X123890690Y-86635939D01*
X123938755Y-86695464D01*
X123946550Y-86703997D01*
X124011268Y-86788867D01*
X124087053Y-86910429D01*
X124163897Y-87049800D01*
X124231794Y-87188099D01*
X124280735Y-87306443D01*
X124298498Y-87368050D01*
X124323177Y-87466433D01*
X124353860Y-87549281D01*
X124354488Y-87550564D01*
X124376583Y-87615165D01*
X124356993Y-87639394D01*
X124292734Y-87623786D01*
X124198702Y-87578502D01*
X124026880Y-87491214D01*
X123888513Y-87432033D01*
X123764344Y-87393660D01*
X123652356Y-87371440D01*
X123531175Y-87341992D01*
X123455839Y-87295699D01*
X123433770Y-87269314D01*
X123300012Y-87099473D01*
X123150771Y-86960316D01*
X122970406Y-86839610D01*
X122743273Y-86725117D01*
X122731023Y-86719611D01*
X122667190Y-86704963D01*
X122557848Y-86693453D01*
X122420967Y-86686627D01*
X122334148Y-86685425D01*
X122160775Y-86688923D01*
X122027541Y-86703180D01*
X121911288Y-86733836D01*
X121788860Y-86786533D01*
X121675401Y-86845902D01*
X121604118Y-86881842D01*
X121569066Y-86879232D01*
X121551694Y-86828600D01*
X121543205Y-86778397D01*
X121508230Y-86655521D01*
X121442673Y-86501974D01*
X121356219Y-86336187D01*
X121258555Y-86176586D01*
X121159369Y-86041600D01*
X121150182Y-86030683D01*
X120979183Y-85853786D01*
X120787607Y-85694552D01*
X120595515Y-85568846D01*
X120513028Y-85526885D01*
X120415670Y-85481849D01*
X120336169Y-85443768D01*
X120309773Y-85430418D01*
X120209336Y-85395612D01*
X120061090Y-85368065D01*
X119880477Y-85349394D01*
X119682935Y-85341216D01*
X119491904Y-85344728D01*
X119184578Y-85379443D01*
X118913459Y-85453447D01*
X118660968Y-85572273D01*
X118549425Y-85641388D01*
X118427972Y-85733938D01*
X118295671Y-85853822D01*
X118167544Y-85985469D01*
X118058611Y-86113306D01*
X117983893Y-86221763D01*
X117976721Y-86235092D01*
X117937069Y-86306695D01*
X117907784Y-86349642D01*
X117905259Y-86352050D01*
X117879002Y-86394191D01*
X117841090Y-86479462D01*
X117798195Y-86590195D01*
X117756987Y-86708721D01*
X117724137Y-86817371D01*
X117713471Y-86860050D01*
X117693896Y-86990786D01*
X117684201Y-87152879D01*
X117683598Y-87331787D01*
X117691302Y-87512964D01*
X117706527Y-87681866D01*
X117728486Y-87823951D01*
X117756395Y-87924674D01*
X117772662Y-87955425D01*
X117798924Y-88004602D01*
X117832893Y-88084131D01*
X117838364Y-88098300D01*
X117949576Y-88319614D01*
X118109764Y-88540391D01*
X118305873Y-88746503D01*
X118524849Y-88923824D01*
X118701224Y-89032060D01*
X118789355Y-89078142D01*
X118869539Y-89117940D01*
X118946984Y-89151914D01*
X119026898Y-89180526D01*
X119114488Y-89204236D01*
X119214960Y-89223504D01*
X119333524Y-89238792D01*
X119475386Y-89250559D01*
X119645753Y-89259266D01*
X119849834Y-89265375D01*
X120092835Y-89269345D01*
X120379964Y-89271637D01*
X120716429Y-89272712D01*
X121107436Y-89273030D01*
X121425684Y-89273050D01*
X123449027Y-89273050D01*
X123533038Y-89195191D01*
X123591292Y-89123731D01*
X123614714Y-89036612D01*
X123617050Y-88978475D01*
X123594508Y-88847260D01*
X123524599Y-88755060D01*
X123403892Y-88698337D01*
X123330943Y-88683271D01*
X123172999Y-88629740D01*
X123085237Y-88564330D01*
X123021521Y-88495265D01*
X122991341Y-88427946D01*
X122983122Y-88333134D01*
X122983106Y-88306384D01*
X122999959Y-88165724D01*
X123055416Y-88063600D01*
X123160090Y-87983704D01*
X123209659Y-87958286D01*
X123271024Y-87932022D01*
X123325382Y-87921149D01*
X123391944Y-87926086D01*
X123489920Y-87947252D01*
X123564365Y-87966015D01*
X123823559Y-88059602D01*
X124034853Y-88194421D01*
X124196962Y-88368834D01*
X124308599Y-88581203D01*
X124368479Y-88829888D01*
X124379050Y-89003933D01*
X124375767Y-89127624D01*
X124367026Y-89225327D01*
X124354488Y-89280979D01*
X124349742Y-89287415D01*
X124322070Y-89329072D01*
X124300917Y-89394394D01*
X124260892Y-89483310D01*
X124182542Y-89592465D01*
X124079962Y-89706260D01*
X123967245Y-89809093D01*
X123858487Y-89885365D01*
X123856152Y-89886678D01*
X123801447Y-89916007D01*
X123746677Y-89941198D01*
X123686781Y-89962568D01*
X123616696Y-89980428D01*
X123531359Y-89995093D01*
X123425709Y-90006876D01*
X123294681Y-90016091D01*
X123133214Y-90023051D01*
X122936244Y-90028071D01*
X122698711Y-90031463D01*
X122415550Y-90033542D01*
X122081699Y-90034620D01*
X121692097Y-90035013D01*
X121461123Y-90035050D01*
X119530572Y-90035050D01*
X119446561Y-90112908D01*
X119379847Y-90214523D01*
X119360982Y-90337951D01*
X119390946Y-90462161D01*
X119427491Y-90521795D01*
X119492432Y-90604355D01*
X121546803Y-90613390D01*
X123601175Y-90622425D01*
X123798876Y-90728887D01*
X124016316Y-90877562D01*
X124185336Y-91058392D01*
X124304660Y-91263283D01*
X124373012Y-91484140D01*
X124389116Y-91712868D01*
X124351695Y-91941371D01*
X124259473Y-92161556D01*
X124111173Y-92365327D01*
X124064475Y-92413450D01*
X123905879Y-92541683D01*
X123735011Y-92622900D01*
X123535642Y-92663182D01*
X123379209Y-92670300D01*
X123257111Y-92667986D01*
X123178715Y-92657288D01*
X123124281Y-92632569D01*
X123074070Y-92588191D01*
X123067365Y-92581250D01*
X123012119Y-92509321D01*
X122987064Y-92427980D01*
X122982050Y-92333190D01*
X123001036Y-92198584D01*
X123062401Y-92096003D01*
X123172749Y-92018651D01*
X123338686Y-91959731D01*
X123347175Y-91957506D01*
X123455006Y-91922829D01*
X123540109Y-91883318D01*
X123577362Y-91854524D01*
X123605713Y-91778806D01*
X123615970Y-91672084D01*
X123607410Y-91564434D01*
X123585970Y-91496802D01*
X123569726Y-91471169D01*
X123547368Y-91449192D01*
X123514217Y-91430590D01*
X123465594Y-91415082D01*
X123396820Y-91402390D01*
X123303216Y-91392232D01*
X123180103Y-91384328D01*
X123022801Y-91378398D01*
X122826633Y-91374163D01*
X122586918Y-91371341D01*
X122298979Y-91369653D01*
X121958135Y-91368819D01*
X121559708Y-91368558D01*
X121444107Y-91368550D01*
X121020718Y-91368449D01*
X120655840Y-91367854D01*
X120344482Y-91366321D01*
X120081656Y-91363408D01*
X119862372Y-91358671D01*
X119681640Y-91351668D01*
X119534470Y-91341957D01*
X119415875Y-91329094D01*
X119320863Y-91312637D01*
X119244445Y-91292143D01*
X119181632Y-91267170D01*
X119127434Y-91237275D01*
X119076862Y-91202015D01*
X119024926Y-91160948D01*
X119015221Y-91153046D01*
X118875559Y-91031604D01*
X118780495Y-90928587D01*
X118719356Y-90831154D01*
X118692938Y-90765300D01*
X118661376Y-90683407D01*
X118631876Y-90628163D01*
X118628464Y-90624012D01*
X118610275Y-90570853D01*
X118601254Y-90473203D01*
X118600783Y-90349313D01*
X118608243Y-90217432D01*
X118623015Y-90095813D01*
X118644480Y-90002705D01*
X118650034Y-89987870D01*
X118678799Y-89912315D01*
X118690651Y-89867170D01*
X118689722Y-89862484D01*
X118657788Y-89846586D01*
X118585903Y-89812995D01*
X118521175Y-89783352D01*
X118266541Y-89646837D01*
X118012051Y-89472789D01*
X117773131Y-89274048D01*
X117565205Y-89063453D01*
X117403697Y-88853845D01*
X117402735Y-88852363D01*
X117349406Y-88771843D01*
X117310073Y-88715636D01*
X117298775Y-88701550D01*
X117277727Y-88666649D01*
X117238725Y-88590811D01*
X117192465Y-88495175D01*
X117141087Y-88387279D01*
X117096680Y-88295898D01*
X117071637Y-88246202D01*
X117032310Y-88136440D01*
X116999959Y-87976565D01*
X116975187Y-87779643D01*
X116958601Y-87558741D01*
X116950804Y-87326924D01*
X116952402Y-87097260D01*
X116964000Y-86882813D01*
X116986202Y-86696652D01*
X116997177Y-86637790D01*
X117101076Y-86292873D01*
X117262025Y-85959817D01*
X117473719Y-85646164D01*
X117729853Y-85359460D01*
X118024125Y-85107247D01*
X118350228Y-84897070D01*
X118525309Y-84809160D01*
X118743702Y-84722583D01*
X118968654Y-84662035D01*
X119215990Y-84624661D01*
X119501531Y-84607607D01*
X119652431Y-84605799D01*
X119923959Y-84613785D01*
D13*
X165956000Y-83352000D02*
X167286000Y-83352000D01*
X165956000Y-84682000D02*
X165956000Y-83352000D01*
X165956000Y-85952000D02*
X168616000Y-85952000D01*
X168616000Y-85952000D02*
X168616000Y-93632000D01*
X165956000Y-85952000D02*
X165956000Y-93632000D01*
X165956000Y-93632000D02*
X168616000Y-93632000D01*
X161638000Y-76240000D02*
X162968000Y-76240000D01*
X161638000Y-77570000D02*
X161638000Y-76240000D01*
X161638000Y-78840000D02*
X164298000Y-78840000D01*
X164298000Y-78840000D02*
X164298000Y-86520000D01*
X161638000Y-78840000D02*
X161638000Y-86520000D01*
X161638000Y-86520000D02*
X164298000Y-86520000D01*
X134814000Y-93278000D02*
X134814000Y-91948000D01*
X136144000Y-93278000D02*
X134814000Y-93278000D01*
X137414000Y-93278000D02*
X137414000Y-90618000D01*
X137414000Y-90618000D02*
X140014000Y-90618000D01*
X137414000Y-93278000D02*
X140014000Y-93278000D01*
X140014000Y-93278000D02*
X140014000Y-90618000D01*
D16*
X145873800Y-77544600D02*
X145873800Y-83691400D01*
X155678200Y-83691400D02*
X155678200Y-80922800D01*
X155678200Y-80922800D02*
X155678200Y-80313200D01*
X155678200Y-80313200D02*
X155678200Y-78103400D01*
X155678200Y-80922800D02*
G75*
G02X155678200Y-80313200I0J304800D01*
G01*
D13*
X139854000Y-77848000D02*
X139854000Y-78618000D01*
X139854000Y-85928000D02*
X139854000Y-85158000D01*
X138484000Y-78618000D02*
X138484000Y-85158000D01*
X141224000Y-78618000D02*
X138484000Y-78618000D01*
X141224000Y-85158000D02*
X141224000Y-78618000D01*
X138484000Y-85158000D02*
X141224000Y-85158000D01*
X143410000Y-77848000D02*
X143410000Y-78618000D01*
X143410000Y-85928000D02*
X143410000Y-85158000D01*
X142040000Y-78618000D02*
X142040000Y-85158000D01*
X144780000Y-78618000D02*
X142040000Y-78618000D01*
X144780000Y-85158000D02*
X144780000Y-78618000D01*
X142040000Y-85158000D02*
X144780000Y-85158000D01*
D14*
X150745533Y-89877342D02*
X150697914Y-89924961D01*
X150555057Y-89972580D01*
X150459819Y-89972580D01*
X150316961Y-89924961D01*
X150221723Y-89829723D01*
X150174104Y-89734485D01*
X150126485Y-89544009D01*
X150126485Y-89401152D01*
X150174104Y-89210676D01*
X150221723Y-89115438D01*
X150316961Y-89020200D01*
X150459819Y-88972580D01*
X150555057Y-88972580D01*
X150697914Y-89020200D01*
X150745533Y-89067819D01*
X151078866Y-88972580D02*
X151697914Y-88972580D01*
X151364580Y-89353533D01*
X151507438Y-89353533D01*
X151602676Y-89401152D01*
X151650295Y-89448771D01*
X151697914Y-89544009D01*
X151697914Y-89782104D01*
X151650295Y-89877342D01*
X151602676Y-89924961D01*
X151507438Y-89972580D01*
X151221723Y-89972580D01*
X151126485Y-89924961D01*
X151078866Y-89877342D01*
X86955380Y-85140704D02*
X87764904Y-85140704D01*
X87860142Y-85093085D01*
X87907761Y-85045466D01*
X87955380Y-84950228D01*
X87955380Y-84759752D01*
X87907761Y-84664514D01*
X87860142Y-84616895D01*
X87764904Y-84569276D01*
X86955380Y-84569276D01*
X87955380Y-83569276D02*
X87955380Y-84140704D01*
X87955380Y-83854990D02*
X86955380Y-83854990D01*
X87098238Y-83950228D01*
X87193476Y-84045466D01*
X87241095Y-84140704D01*
X104608380Y-88026428D02*
X104608380Y-87455000D01*
X105608380Y-87740714D02*
X104608380Y-87740714D01*
X105560761Y-86740714D02*
X105608380Y-86835952D01*
X105608380Y-87026428D01*
X105560761Y-87121666D01*
X105465523Y-87169285D01*
X105084571Y-87169285D01*
X104989333Y-87121666D01*
X104941714Y-87026428D01*
X104941714Y-86835952D01*
X104989333Y-86740714D01*
X105084571Y-86693095D01*
X105179809Y-86693095D01*
X105275047Y-87169285D01*
X105560761Y-85883571D02*
X105608380Y-85978809D01*
X105608380Y-86169285D01*
X105560761Y-86264523D01*
X105465523Y-86312142D01*
X105084571Y-86312142D01*
X104989333Y-86264523D01*
X104941714Y-86169285D01*
X104941714Y-85978809D01*
X104989333Y-85883571D01*
X105084571Y-85835952D01*
X105179809Y-85835952D01*
X105275047Y-86312142D01*
X104941714Y-85407380D02*
X105608380Y-85407380D01*
X105036952Y-85407380D02*
X104989333Y-85359761D01*
X104941714Y-85264523D01*
X104941714Y-85121666D01*
X104989333Y-85026428D01*
X105084571Y-84978809D01*
X105608380Y-84978809D01*
X105560761Y-84550238D02*
X105608380Y-84455000D01*
X105608380Y-84264523D01*
X105560761Y-84169285D01*
X105465523Y-84121666D01*
X105417904Y-84121666D01*
X105322666Y-84169285D01*
X105275047Y-84264523D01*
X105275047Y-84407380D01*
X105227428Y-84502619D01*
X105132190Y-84550238D01*
X105084571Y-84550238D01*
X104989333Y-84502619D01*
X104941714Y-84407380D01*
X104941714Y-84264523D01*
X104989333Y-84169285D01*
X104941714Y-83788333D02*
X105608380Y-83550238D01*
X104941714Y-83312142D02*
X105608380Y-83550238D01*
X105846476Y-83645476D01*
X105894095Y-83693095D01*
X105941714Y-83788333D01*
X104941714Y-82502619D02*
X105608380Y-82502619D01*
X104560761Y-82740714D02*
X105275047Y-82978809D01*
X105275047Y-82359761D01*
X105513142Y-81978809D02*
X105560761Y-81931190D01*
X105608380Y-81978809D01*
X105560761Y-82026428D01*
X105513142Y-81978809D01*
X105608380Y-81978809D01*
X104608380Y-81312142D02*
X104608380Y-81216904D01*
X104656000Y-81121666D01*
X104703619Y-81074047D01*
X104798857Y-81026428D01*
X104989333Y-80978809D01*
X105227428Y-80978809D01*
X105417904Y-81026428D01*
X105513142Y-81074047D01*
X105560761Y-81121666D01*
X105608380Y-81216904D01*
X105608380Y-81312142D01*
X105560761Y-81407380D01*
X105513142Y-81455000D01*
X105417904Y-81502619D01*
X105227428Y-81550238D01*
X104989333Y-81550238D01*
X104798857Y-81502619D01*
X104703619Y-81455000D01*
X104656000Y-81407380D01*
X104608380Y-81312142D01*
X94271266Y-85829600D02*
X93571266Y-85829600D01*
X93571266Y-85662933D01*
X93604600Y-85562933D01*
X93671266Y-85496266D01*
X93737933Y-85462933D01*
X93871266Y-85429600D01*
X93971266Y-85429600D01*
X94104600Y-85462933D01*
X94171266Y-85496266D01*
X94237933Y-85562933D01*
X94271266Y-85662933D01*
X94271266Y-85829600D01*
X93571266Y-85229600D02*
X94271266Y-84996266D01*
X93571266Y-84762933D01*
X94271266Y-84196266D02*
X94271266Y-84529600D01*
X93571266Y-84529600D01*
X93571266Y-83662933D02*
X93571266Y-83796266D01*
X93604600Y-83862933D01*
X93637933Y-83896266D01*
X93737933Y-83962933D01*
X93871266Y-83996266D01*
X94137933Y-83996266D01*
X94204600Y-83962933D01*
X94237933Y-83929600D01*
X94271266Y-83862933D01*
X94271266Y-83729600D01*
X94237933Y-83662933D01*
X94204600Y-83629600D01*
X94137933Y-83596266D01*
X93971266Y-83596266D01*
X93904600Y-83629600D01*
X93871266Y-83662933D01*
X93837933Y-83729600D01*
X93837933Y-83862933D01*
X93871266Y-83929600D01*
X93904600Y-83962933D01*
X93971266Y-83996266D01*
X94071266Y-83329600D02*
X94071266Y-82996266D01*
X94271266Y-83396266D02*
X93571266Y-83162933D01*
X94271266Y-82929600D01*
X95795266Y-87512933D02*
X95095266Y-87512933D01*
X95595266Y-87279600D01*
X95095266Y-87046266D01*
X95795266Y-87046266D01*
X95795266Y-86712933D02*
X95095266Y-86712933D01*
X95795266Y-86379600D02*
X95095266Y-86379600D01*
X95595266Y-86146266D01*
X95095266Y-85912933D01*
X95795266Y-85912933D01*
X95095266Y-85646266D02*
X95795266Y-85179600D01*
X95095266Y-85179600D02*
X95795266Y-85646266D01*
X95795266Y-84512933D02*
X95461933Y-84746266D01*
X95795266Y-84912933D02*
X95095266Y-84912933D01*
X95095266Y-84646266D01*
X95128600Y-84579600D01*
X95161933Y-84546266D01*
X95228600Y-84512933D01*
X95328600Y-84512933D01*
X95395266Y-84546266D01*
X95428600Y-84579600D01*
X95461933Y-84646266D01*
X95461933Y-84912933D01*
X95095266Y-84312933D02*
X95095266Y-83912933D01*
X95795266Y-84112933D02*
X95095266Y-84112933D01*
X95795266Y-83312933D02*
X95795266Y-83712933D01*
X95795266Y-83512933D02*
X95095266Y-83512933D01*
X95195266Y-83579600D01*
X95261933Y-83646266D01*
X95295266Y-83712933D01*
X95095266Y-82879600D02*
X95095266Y-82812933D01*
X95128600Y-82746266D01*
X95161933Y-82712933D01*
X95228600Y-82679600D01*
X95361933Y-82646266D01*
X95528600Y-82646266D01*
X95661933Y-82679600D01*
X95728600Y-82712933D01*
X95761933Y-82746266D01*
X95795266Y-82812933D01*
X95795266Y-82879600D01*
X95761933Y-82946266D01*
X95728600Y-82979600D01*
X95661933Y-83012933D01*
X95528600Y-83046266D01*
X95361933Y-83046266D01*
X95228600Y-83012933D01*
X95161933Y-82979600D01*
X95128600Y-82946266D01*
X95095266Y-82879600D01*
X95095266Y-82046266D02*
X95095266Y-82179600D01*
X95128600Y-82246266D01*
X95161933Y-82279600D01*
X95261933Y-82346266D01*
X95395266Y-82379600D01*
X95661933Y-82379600D01*
X95728600Y-82346266D01*
X95761933Y-82312933D01*
X95795266Y-82246266D01*
X95795266Y-82112933D01*
X95761933Y-82046266D01*
X95728600Y-82012933D01*
X95661933Y-81979600D01*
X95495266Y-81979600D01*
X95428600Y-82012933D01*
X95395266Y-82046266D01*
X95361933Y-82112933D01*
X95361933Y-82246266D01*
X95395266Y-82312933D01*
X95428600Y-82346266D01*
X95495266Y-82379600D01*
X95161933Y-81712933D02*
X95128600Y-81679600D01*
X95095266Y-81612933D01*
X95095266Y-81446266D01*
X95128600Y-81379600D01*
X95161933Y-81346266D01*
X95228600Y-81312933D01*
X95295266Y-81312933D01*
X95395266Y-81346266D01*
X95795266Y-81746266D01*
X95795266Y-81312933D01*
X67738666Y-77132380D02*
X67738666Y-77846666D01*
X67691047Y-77989523D01*
X67595809Y-78084761D01*
X67452952Y-78132380D01*
X67357714Y-78132380D01*
X68167238Y-77227619D02*
X68214857Y-77180000D01*
X68310095Y-77132380D01*
X68548190Y-77132380D01*
X68643428Y-77180000D01*
X68691047Y-77227619D01*
X68738666Y-77322857D01*
X68738666Y-77418095D01*
X68691047Y-77560952D01*
X68119619Y-78132380D01*
X68738666Y-78132380D01*
X158583333Y-77776342D02*
X158535714Y-77823961D01*
X158392857Y-77871580D01*
X158297619Y-77871580D01*
X158154761Y-77823961D01*
X158059523Y-77728723D01*
X158011904Y-77633485D01*
X157964285Y-77443009D01*
X157964285Y-77300152D01*
X158011904Y-77109676D01*
X158059523Y-77014438D01*
X158154761Y-76919200D01*
X158297619Y-76871580D01*
X158392857Y-76871580D01*
X158535714Y-76919200D01*
X158583333Y-76966819D01*
X158964285Y-76966819D02*
X159011904Y-76919200D01*
X159107142Y-76871580D01*
X159345238Y-76871580D01*
X159440476Y-76919200D01*
X159488095Y-76966819D01*
X159535714Y-77062057D01*
X159535714Y-77157295D01*
X159488095Y-77300152D01*
X158916666Y-77871580D01*
X159535714Y-77871580D01*
X65249133Y-90207542D02*
X65201514Y-90255161D01*
X65058657Y-90302780D01*
X64963419Y-90302780D01*
X64820561Y-90255161D01*
X64725323Y-90159923D01*
X64677704Y-90064685D01*
X64630085Y-89874209D01*
X64630085Y-89731352D01*
X64677704Y-89540876D01*
X64725323Y-89445638D01*
X64820561Y-89350400D01*
X64963419Y-89302780D01*
X65058657Y-89302780D01*
X65201514Y-89350400D01*
X65249133Y-89398019D01*
X66201514Y-90302780D02*
X65630085Y-90302780D01*
X65915800Y-90302780D02*
X65915800Y-89302780D01*
X65820561Y-89445638D01*
X65725323Y-89540876D01*
X65630085Y-89588495D01*
X169645066Y-92567180D02*
X169645066Y-93281466D01*
X169597447Y-93424323D01*
X169502209Y-93519561D01*
X169359352Y-93567180D01*
X169264114Y-93567180D01*
X170549828Y-92900514D02*
X170549828Y-93567180D01*
X170311733Y-92519561D02*
X170073638Y-93233847D01*
X170692685Y-93233847D01*
X165377866Y-74914180D02*
X165377866Y-75628466D01*
X165330247Y-75771323D01*
X165235009Y-75866561D01*
X165092152Y-75914180D01*
X164996914Y-75914180D01*
X165758819Y-74914180D02*
X166377866Y-74914180D01*
X166044533Y-75295133D01*
X166187390Y-75295133D01*
X166282628Y-75342752D01*
X166330247Y-75390371D01*
X166377866Y-75485609D01*
X166377866Y-75723704D01*
X166330247Y-75818942D01*
X166282628Y-75866561D01*
X166187390Y-75914180D01*
X165901676Y-75914180D01*
X165806438Y-75866561D01*
X165758819Y-75818942D01*
X133016666Y-91400380D02*
X133016666Y-92114666D01*
X132969047Y-92257523D01*
X132873809Y-92352761D01*
X132730952Y-92400380D01*
X132635714Y-92400380D01*
X134016666Y-92400380D02*
X133445238Y-92400380D01*
X133730952Y-92400380D02*
X133730952Y-91400380D01*
X133635714Y-91543238D01*
X133540476Y-91638476D01*
X133445238Y-91686095D01*
X150014095Y-81340380D02*
X150014095Y-82149904D01*
X150061714Y-82245142D01*
X150109333Y-82292761D01*
X150204571Y-82340380D01*
X150395047Y-82340380D01*
X150490285Y-82292761D01*
X150537904Y-82245142D01*
X150585523Y-82149904D01*
X150585523Y-81340380D01*
X151014095Y-81435619D02*
X151061714Y-81388000D01*
X151156952Y-81340380D01*
X151395047Y-81340380D01*
X151490285Y-81388000D01*
X151537904Y-81435619D01*
X151585523Y-81530857D01*
X151585523Y-81626095D01*
X151537904Y-81768952D01*
X150966476Y-82340380D01*
X151585523Y-82340380D01*
X144942666Y-80054380D02*
X144942666Y-79054380D01*
X145323619Y-79054380D01*
X145418857Y-79102000D01*
X145466476Y-79149619D01*
X145514095Y-79244857D01*
X145514095Y-79387714D01*
X145466476Y-79482952D01*
X145418857Y-79530571D01*
X145323619Y-79578190D01*
X144942666Y-79578190D01*
X146085523Y-79482952D02*
X145990285Y-79435333D01*
X145942666Y-79387714D01*
X145895047Y-79292476D01*
X145895047Y-79244857D01*
X145942666Y-79149619D01*
X145990285Y-79102000D01*
X146085523Y-79054380D01*
X146276000Y-79054380D01*
X146371238Y-79102000D01*
X146418857Y-79149619D01*
X146466476Y-79244857D01*
X146466476Y-79292476D01*
X146418857Y-79387714D01*
X146371238Y-79435333D01*
X146276000Y-79482952D01*
X146085523Y-79482952D01*
X145990285Y-79530571D01*
X145942666Y-79578190D01*
X145895047Y-79673428D01*
X145895047Y-79863904D01*
X145942666Y-79959142D01*
X145990285Y-80006761D01*
X146085523Y-80054380D01*
X146276000Y-80054380D01*
X146371238Y-80006761D01*
X146418857Y-79959142D01*
X146466476Y-79863904D01*
X146466476Y-79673428D01*
X146418857Y-79578190D01*
X146371238Y-79530571D01*
X146276000Y-79482952D01*
X146847428Y-79149619D02*
X146895047Y-79102000D01*
X146990285Y-79054380D01*
X147228380Y-79054380D01*
X147323619Y-79102000D01*
X147371238Y-79149619D01*
X147418857Y-79244857D01*
X147418857Y-79340095D01*
X147371238Y-79482952D01*
X146799809Y-80054380D01*
X147418857Y-80054380D01*
X148180761Y-79530571D02*
X148323619Y-79578190D01*
X148371238Y-79625809D01*
X148418857Y-79721047D01*
X148418857Y-79863904D01*
X148371238Y-79959142D01*
X148323619Y-80006761D01*
X148228380Y-80054380D01*
X147847428Y-80054380D01*
X147847428Y-79054380D01*
X148180761Y-79054380D01*
X148276000Y-79102000D01*
X148323619Y-79149619D01*
X148371238Y-79244857D01*
X148371238Y-79340095D01*
X148323619Y-79435333D01*
X148276000Y-79482952D01*
X148180761Y-79530571D01*
X147847428Y-79530571D01*
X148752190Y-79054380D02*
X149418857Y-79054380D01*
X148990285Y-80054380D01*
X150323619Y-80054380D02*
X149752190Y-80054380D01*
X150037904Y-80054380D02*
X150037904Y-79054380D01*
X149942666Y-79197238D01*
X149847428Y-79292476D01*
X149752190Y-79340095D01*
X151228380Y-79054380D02*
X150752190Y-79054380D01*
X150704571Y-79530571D01*
X150752190Y-79482952D01*
X150847428Y-79435333D01*
X151085523Y-79435333D01*
X151180761Y-79482952D01*
X151228380Y-79530571D01*
X151276000Y-79625809D01*
X151276000Y-79863904D01*
X151228380Y-79959142D01*
X151180761Y-80006761D01*
X151085523Y-80054380D01*
X150847428Y-80054380D01*
X150752190Y-80006761D01*
X150704571Y-79959142D01*
X151704571Y-80054380D02*
X151704571Y-79054380D01*
X152085523Y-79054380D01*
X152180761Y-79102000D01*
X152228380Y-79149619D01*
X152276000Y-79244857D01*
X152276000Y-79387714D01*
X152228380Y-79482952D01*
X152180761Y-79530571D01*
X152085523Y-79578190D01*
X151704571Y-79578190D01*
X152704571Y-80054380D02*
X152704571Y-79054380D01*
X153276000Y-80054380D01*
X153276000Y-79054380D01*
X153799809Y-80006761D02*
X153799809Y-80054380D01*
X153752190Y-80149619D01*
X153704571Y-80197238D01*
X154752190Y-80054380D02*
X154180761Y-80054380D01*
X154466476Y-80054380D02*
X154466476Y-79054380D01*
X154371238Y-79197238D01*
X154276000Y-79292476D01*
X154180761Y-79340095D01*
X155704571Y-80054380D02*
X155133142Y-80054380D01*
X155418857Y-80054380D02*
X155418857Y-79054380D01*
X155323619Y-79197238D01*
X155228380Y-79292476D01*
X155133142Y-79340095D01*
X156085523Y-79149619D02*
X156133142Y-79102000D01*
X156228380Y-79054380D01*
X156466476Y-79054380D01*
X156561714Y-79102000D01*
X156609333Y-79149619D01*
X156656952Y-79244857D01*
X156656952Y-79340095D01*
X156609333Y-79482952D01*
X156037904Y-80054380D01*
X156656952Y-80054380D01*
X140280980Y-83832666D02*
X139804790Y-84166000D01*
X140280980Y-84404095D02*
X139280980Y-84404095D01*
X139280980Y-84023142D01*
X139328600Y-83927904D01*
X139376219Y-83880285D01*
X139471457Y-83832666D01*
X139614314Y-83832666D01*
X139709552Y-83880285D01*
X139757171Y-83927904D01*
X139804790Y-84023142D01*
X139804790Y-84404095D01*
X139376219Y-83451714D02*
X139328600Y-83404095D01*
X139280980Y-83308857D01*
X139280980Y-83070761D01*
X139328600Y-82975523D01*
X139376219Y-82927904D01*
X139471457Y-82880285D01*
X139566695Y-82880285D01*
X139709552Y-82927904D01*
X140280980Y-83499333D01*
X140280980Y-82880285D01*
X139639714Y-81562476D02*
X140306380Y-81562476D01*
X139258761Y-81800571D02*
X139973047Y-82038666D01*
X139973047Y-81419619D01*
X140306380Y-81038666D02*
X139306380Y-81038666D01*
X139925428Y-80943428D02*
X140306380Y-80657714D01*
X139639714Y-80657714D02*
X140020666Y-81038666D01*
X139306380Y-80324380D02*
X139306380Y-79657714D01*
X140306380Y-80086285D01*
X143836980Y-83858066D02*
X143360790Y-84191400D01*
X143836980Y-84429495D02*
X142836980Y-84429495D01*
X142836980Y-84048542D01*
X142884600Y-83953304D01*
X142932219Y-83905685D01*
X143027457Y-83858066D01*
X143170314Y-83858066D01*
X143265552Y-83905685D01*
X143313171Y-83953304D01*
X143360790Y-84048542D01*
X143360790Y-84429495D01*
X143836980Y-82905685D02*
X143836980Y-83477114D01*
X143836980Y-83191400D02*
X142836980Y-83191400D01*
X142979838Y-83286638D01*
X143075076Y-83381876D01*
X143122695Y-83477114D01*
X143195714Y-81562476D02*
X143862380Y-81562476D01*
X142814761Y-81800571D02*
X143529047Y-82038666D01*
X143529047Y-81419619D01*
X143862380Y-81038666D02*
X142862380Y-81038666D01*
X143481428Y-80943428D02*
X143862380Y-80657714D01*
X143195714Y-80657714D02*
X143576666Y-81038666D01*
X142862380Y-80324380D02*
X142862380Y-79657714D01*
X143862380Y-80086285D01*
M02*
