G04 #@! TF.GenerationSoftware,KiCad,Pcbnew,(5.1.4)-1*
G04 #@! TF.CreationDate,2019-09-06T16:55:32+02:00*
G04 #@! TF.ProjectId,DNMS,444e4d53-2e6b-4696-9361-645f70636258,0.9.0*
G04 #@! TF.SameCoordinates,Original*
G04 #@! TF.FileFunction,Soldermask,Bot*
G04 #@! TF.FilePolarity,Negative*
%FSLAX46Y46*%
G04 Gerber Fmt 4.6, Leading zero omitted, Abs format (unit mm)*
G04 Created by KiCad (PCBNEW (5.1.4)-1) date 2019-09-06 16:55:32*
%MOMM*%
%LPD*%
G04 APERTURE LIST*
%ADD10C,0.100000*%
G04 APERTURE END LIST*
D10*
G36*
X167396443Y-91407519D02*
G01*
X167462627Y-91414037D01*
X167632466Y-91465557D01*
X167788991Y-91549222D01*
X167799588Y-91557919D01*
X167926186Y-91661814D01*
X168009448Y-91763271D01*
X168038778Y-91799009D01*
X168122443Y-91955534D01*
X168173963Y-92125373D01*
X168191359Y-92302000D01*
X168173963Y-92478627D01*
X168122443Y-92648466D01*
X168038778Y-92804991D01*
X168013360Y-92835963D01*
X167926186Y-92942186D01*
X167824729Y-93025448D01*
X167788991Y-93054778D01*
X167632466Y-93138443D01*
X167462627Y-93189963D01*
X167396443Y-93196481D01*
X167330260Y-93203000D01*
X167241740Y-93203000D01*
X167175558Y-93196482D01*
X167109373Y-93189963D01*
X166939534Y-93138443D01*
X166783009Y-93054778D01*
X166747271Y-93025448D01*
X166645814Y-92942186D01*
X166558640Y-92835963D01*
X166533222Y-92804991D01*
X166449557Y-92648466D01*
X166398037Y-92478627D01*
X166380641Y-92302000D01*
X166398037Y-92125373D01*
X166449557Y-91955534D01*
X166533222Y-91799009D01*
X166562552Y-91763271D01*
X166645814Y-91661814D01*
X166772412Y-91557919D01*
X166783009Y-91549222D01*
X166939534Y-91465557D01*
X167109373Y-91414037D01*
X167175557Y-91407519D01*
X167241740Y-91401000D01*
X167330260Y-91401000D01*
X167396443Y-91407519D01*
X167396443Y-91407519D01*
G37*
G36*
X68164028Y-91282103D02*
G01*
X68318900Y-91346253D01*
X68458281Y-91439385D01*
X68576815Y-91557919D01*
X68669947Y-91697300D01*
X68734097Y-91852172D01*
X68766800Y-92016584D01*
X68766800Y-92184216D01*
X68734097Y-92348628D01*
X68669947Y-92503500D01*
X68576815Y-92642881D01*
X68458281Y-92761415D01*
X68318900Y-92854547D01*
X68164028Y-92918697D01*
X67999616Y-92951400D01*
X67831984Y-92951400D01*
X67667572Y-92918697D01*
X67512700Y-92854547D01*
X67373319Y-92761415D01*
X67254785Y-92642881D01*
X67161653Y-92503500D01*
X67097503Y-92348628D01*
X67064800Y-92184216D01*
X67064800Y-92016584D01*
X67097503Y-91852172D01*
X67161653Y-91697300D01*
X67254785Y-91557919D01*
X67373319Y-91439385D01*
X67512700Y-91346253D01*
X67667572Y-91282103D01*
X67831984Y-91249400D01*
X67999616Y-91249400D01*
X68164028Y-91282103D01*
X68164028Y-91282103D01*
G37*
G36*
X63164028Y-91282103D02*
G01*
X63318900Y-91346253D01*
X63458281Y-91439385D01*
X63576815Y-91557919D01*
X63669947Y-91697300D01*
X63734097Y-91852172D01*
X63766800Y-92016584D01*
X63766800Y-92184216D01*
X63734097Y-92348628D01*
X63669947Y-92503500D01*
X63576815Y-92642881D01*
X63458281Y-92761415D01*
X63318900Y-92854547D01*
X63164028Y-92918697D01*
X62999616Y-92951400D01*
X62831984Y-92951400D01*
X62667572Y-92918697D01*
X62512700Y-92854547D01*
X62373319Y-92761415D01*
X62254785Y-92642881D01*
X62161653Y-92503500D01*
X62097503Y-92348628D01*
X62064800Y-92184216D01*
X62064800Y-92016584D01*
X62097503Y-91852172D01*
X62161653Y-91697300D01*
X62254785Y-91557919D01*
X62373319Y-91439385D01*
X62512700Y-91346253D01*
X62667572Y-91282103D01*
X62831984Y-91249400D01*
X62999616Y-91249400D01*
X63164028Y-91282103D01*
X63164028Y-91282103D01*
G37*
G36*
X89630828Y-91231303D02*
G01*
X89785700Y-91295453D01*
X89925081Y-91388585D01*
X90043615Y-91507119D01*
X90136747Y-91646500D01*
X90200897Y-91801372D01*
X90233600Y-91965784D01*
X90233600Y-92133416D01*
X90200897Y-92297828D01*
X90136747Y-92452700D01*
X90043615Y-92592081D01*
X89925081Y-92710615D01*
X89785700Y-92803747D01*
X89630828Y-92867897D01*
X89466416Y-92900600D01*
X89298784Y-92900600D01*
X89134372Y-92867897D01*
X88979500Y-92803747D01*
X88840119Y-92710615D01*
X88721585Y-92592081D01*
X88628453Y-92452700D01*
X88564303Y-92297828D01*
X88531600Y-92133416D01*
X88531600Y-91965784D01*
X88564303Y-91801372D01*
X88628453Y-91646500D01*
X88721585Y-91507119D01*
X88840119Y-91388585D01*
X88979500Y-91295453D01*
X89134372Y-91231303D01*
X89298784Y-91198600D01*
X89466416Y-91198600D01*
X89630828Y-91231303D01*
X89630828Y-91231303D01*
G37*
G36*
X102330828Y-91231303D02*
G01*
X102485700Y-91295453D01*
X102625081Y-91388585D01*
X102743615Y-91507119D01*
X102836747Y-91646500D01*
X102900897Y-91801372D01*
X102933600Y-91965784D01*
X102933600Y-92133416D01*
X102900897Y-92297828D01*
X102836747Y-92452700D01*
X102743615Y-92592081D01*
X102625081Y-92710615D01*
X102485700Y-92803747D01*
X102330828Y-92867897D01*
X102166416Y-92900600D01*
X101998784Y-92900600D01*
X101834372Y-92867897D01*
X101679500Y-92803747D01*
X101540119Y-92710615D01*
X101421585Y-92592081D01*
X101328453Y-92452700D01*
X101264303Y-92297828D01*
X101231600Y-92133416D01*
X101231600Y-91965784D01*
X101264303Y-91801372D01*
X101328453Y-91646500D01*
X101421585Y-91507119D01*
X101540119Y-91388585D01*
X101679500Y-91295453D01*
X101834372Y-91231303D01*
X101998784Y-91198600D01*
X102166416Y-91198600D01*
X102330828Y-91231303D01*
X102330828Y-91231303D01*
G37*
G36*
X99790828Y-91231303D02*
G01*
X99945700Y-91295453D01*
X100085081Y-91388585D01*
X100203615Y-91507119D01*
X100296747Y-91646500D01*
X100360897Y-91801372D01*
X100393600Y-91965784D01*
X100393600Y-92133416D01*
X100360897Y-92297828D01*
X100296747Y-92452700D01*
X100203615Y-92592081D01*
X100085081Y-92710615D01*
X99945700Y-92803747D01*
X99790828Y-92867897D01*
X99626416Y-92900600D01*
X99458784Y-92900600D01*
X99294372Y-92867897D01*
X99139500Y-92803747D01*
X99000119Y-92710615D01*
X98881585Y-92592081D01*
X98788453Y-92452700D01*
X98724303Y-92297828D01*
X98691600Y-92133416D01*
X98691600Y-91965784D01*
X98724303Y-91801372D01*
X98788453Y-91646500D01*
X98881585Y-91507119D01*
X99000119Y-91388585D01*
X99139500Y-91295453D01*
X99294372Y-91231303D01*
X99458784Y-91198600D01*
X99626416Y-91198600D01*
X99790828Y-91231303D01*
X99790828Y-91231303D01*
G37*
G36*
X97250828Y-91231303D02*
G01*
X97405700Y-91295453D01*
X97545081Y-91388585D01*
X97663615Y-91507119D01*
X97756747Y-91646500D01*
X97820897Y-91801372D01*
X97853600Y-91965784D01*
X97853600Y-92133416D01*
X97820897Y-92297828D01*
X97756747Y-92452700D01*
X97663615Y-92592081D01*
X97545081Y-92710615D01*
X97405700Y-92803747D01*
X97250828Y-92867897D01*
X97086416Y-92900600D01*
X96918784Y-92900600D01*
X96754372Y-92867897D01*
X96599500Y-92803747D01*
X96460119Y-92710615D01*
X96341585Y-92592081D01*
X96248453Y-92452700D01*
X96184303Y-92297828D01*
X96151600Y-92133416D01*
X96151600Y-91965784D01*
X96184303Y-91801372D01*
X96248453Y-91646500D01*
X96341585Y-91507119D01*
X96460119Y-91388585D01*
X96599500Y-91295453D01*
X96754372Y-91231303D01*
X96918784Y-91198600D01*
X97086416Y-91198600D01*
X97250828Y-91231303D01*
X97250828Y-91231303D01*
G37*
G36*
X94710828Y-91231303D02*
G01*
X94865700Y-91295453D01*
X95005081Y-91388585D01*
X95123615Y-91507119D01*
X95216747Y-91646500D01*
X95280897Y-91801372D01*
X95313600Y-91965784D01*
X95313600Y-92133416D01*
X95280897Y-92297828D01*
X95216747Y-92452700D01*
X95123615Y-92592081D01*
X95005081Y-92710615D01*
X94865700Y-92803747D01*
X94710828Y-92867897D01*
X94546416Y-92900600D01*
X94378784Y-92900600D01*
X94214372Y-92867897D01*
X94059500Y-92803747D01*
X93920119Y-92710615D01*
X93801585Y-92592081D01*
X93708453Y-92452700D01*
X93644303Y-92297828D01*
X93611600Y-92133416D01*
X93611600Y-91965784D01*
X93644303Y-91801372D01*
X93708453Y-91646500D01*
X93801585Y-91507119D01*
X93920119Y-91388585D01*
X94059500Y-91295453D01*
X94214372Y-91231303D01*
X94378784Y-91198600D01*
X94546416Y-91198600D01*
X94710828Y-91231303D01*
X94710828Y-91231303D01*
G37*
G36*
X104870828Y-91231303D02*
G01*
X105025700Y-91295453D01*
X105165081Y-91388585D01*
X105283615Y-91507119D01*
X105376747Y-91646500D01*
X105440897Y-91801372D01*
X105473600Y-91965784D01*
X105473600Y-92133416D01*
X105440897Y-92297828D01*
X105376747Y-92452700D01*
X105283615Y-92592081D01*
X105165081Y-92710615D01*
X105025700Y-92803747D01*
X104870828Y-92867897D01*
X104706416Y-92900600D01*
X104538784Y-92900600D01*
X104374372Y-92867897D01*
X104219500Y-92803747D01*
X104080119Y-92710615D01*
X103961585Y-92592081D01*
X103868453Y-92452700D01*
X103804303Y-92297828D01*
X103771600Y-92133416D01*
X103771600Y-91965784D01*
X103804303Y-91801372D01*
X103868453Y-91646500D01*
X103961585Y-91507119D01*
X104080119Y-91388585D01*
X104219500Y-91295453D01*
X104374372Y-91231303D01*
X104538784Y-91198600D01*
X104706416Y-91198600D01*
X104870828Y-91231303D01*
X104870828Y-91231303D01*
G37*
G36*
X87090828Y-91231303D02*
G01*
X87245700Y-91295453D01*
X87385081Y-91388585D01*
X87503615Y-91507119D01*
X87596747Y-91646500D01*
X87660897Y-91801372D01*
X87693600Y-91965784D01*
X87693600Y-92133416D01*
X87660897Y-92297828D01*
X87596747Y-92452700D01*
X87503615Y-92592081D01*
X87385081Y-92710615D01*
X87245700Y-92803747D01*
X87090828Y-92867897D01*
X86926416Y-92900600D01*
X86758784Y-92900600D01*
X86594372Y-92867897D01*
X86439500Y-92803747D01*
X86300119Y-92710615D01*
X86181585Y-92592081D01*
X86088453Y-92452700D01*
X86024303Y-92297828D01*
X85991600Y-92133416D01*
X85991600Y-91965784D01*
X86024303Y-91801372D01*
X86088453Y-91646500D01*
X86181585Y-91507119D01*
X86300119Y-91388585D01*
X86439500Y-91295453D01*
X86594372Y-91231303D01*
X86758784Y-91198600D01*
X86926416Y-91198600D01*
X87090828Y-91231303D01*
X87090828Y-91231303D01*
G37*
G36*
X84550828Y-91231303D02*
G01*
X84705700Y-91295453D01*
X84845081Y-91388585D01*
X84963615Y-91507119D01*
X85056747Y-91646500D01*
X85120897Y-91801372D01*
X85153600Y-91965784D01*
X85153600Y-92133416D01*
X85120897Y-92297828D01*
X85056747Y-92452700D01*
X84963615Y-92592081D01*
X84845081Y-92710615D01*
X84705700Y-92803747D01*
X84550828Y-92867897D01*
X84386416Y-92900600D01*
X84218784Y-92900600D01*
X84054372Y-92867897D01*
X83899500Y-92803747D01*
X83760119Y-92710615D01*
X83641585Y-92592081D01*
X83548453Y-92452700D01*
X83484303Y-92297828D01*
X83451600Y-92133416D01*
X83451600Y-91965784D01*
X83484303Y-91801372D01*
X83548453Y-91646500D01*
X83641585Y-91507119D01*
X83760119Y-91388585D01*
X83899500Y-91295453D01*
X84054372Y-91231303D01*
X84218784Y-91198600D01*
X84386416Y-91198600D01*
X84550828Y-91231303D01*
X84550828Y-91231303D01*
G37*
G36*
X82010828Y-91231303D02*
G01*
X82165700Y-91295453D01*
X82305081Y-91388585D01*
X82423615Y-91507119D01*
X82516747Y-91646500D01*
X82580897Y-91801372D01*
X82613600Y-91965784D01*
X82613600Y-92133416D01*
X82580897Y-92297828D01*
X82516747Y-92452700D01*
X82423615Y-92592081D01*
X82305081Y-92710615D01*
X82165700Y-92803747D01*
X82010828Y-92867897D01*
X81846416Y-92900600D01*
X81678784Y-92900600D01*
X81514372Y-92867897D01*
X81359500Y-92803747D01*
X81220119Y-92710615D01*
X81101585Y-92592081D01*
X81008453Y-92452700D01*
X80944303Y-92297828D01*
X80911600Y-92133416D01*
X80911600Y-91965784D01*
X80944303Y-91801372D01*
X81008453Y-91646500D01*
X81101585Y-91507119D01*
X81220119Y-91388585D01*
X81359500Y-91295453D01*
X81514372Y-91231303D01*
X81678784Y-91198600D01*
X81846416Y-91198600D01*
X82010828Y-91231303D01*
X82010828Y-91231303D01*
G37*
G36*
X79470828Y-91231303D02*
G01*
X79625700Y-91295453D01*
X79765081Y-91388585D01*
X79883615Y-91507119D01*
X79976747Y-91646500D01*
X80040897Y-91801372D01*
X80073600Y-91965784D01*
X80073600Y-92133416D01*
X80040897Y-92297828D01*
X79976747Y-92452700D01*
X79883615Y-92592081D01*
X79765081Y-92710615D01*
X79625700Y-92803747D01*
X79470828Y-92867897D01*
X79306416Y-92900600D01*
X79138784Y-92900600D01*
X78974372Y-92867897D01*
X78819500Y-92803747D01*
X78680119Y-92710615D01*
X78561585Y-92592081D01*
X78468453Y-92452700D01*
X78404303Y-92297828D01*
X78371600Y-92133416D01*
X78371600Y-91965784D01*
X78404303Y-91801372D01*
X78468453Y-91646500D01*
X78561585Y-91507119D01*
X78680119Y-91388585D01*
X78819500Y-91295453D01*
X78974372Y-91231303D01*
X79138784Y-91198600D01*
X79306416Y-91198600D01*
X79470828Y-91231303D01*
X79470828Y-91231303D01*
G37*
G36*
X112490828Y-91231303D02*
G01*
X112645700Y-91295453D01*
X112785081Y-91388585D01*
X112903615Y-91507119D01*
X112996747Y-91646500D01*
X113060897Y-91801372D01*
X113093600Y-91965784D01*
X113093600Y-92133416D01*
X113060897Y-92297828D01*
X112996747Y-92452700D01*
X112903615Y-92592081D01*
X112785081Y-92710615D01*
X112645700Y-92803747D01*
X112490828Y-92867897D01*
X112326416Y-92900600D01*
X112158784Y-92900600D01*
X111994372Y-92867897D01*
X111839500Y-92803747D01*
X111700119Y-92710615D01*
X111581585Y-92592081D01*
X111488453Y-92452700D01*
X111424303Y-92297828D01*
X111391600Y-92133416D01*
X111391600Y-91965784D01*
X111424303Y-91801372D01*
X111488453Y-91646500D01*
X111581585Y-91507119D01*
X111700119Y-91388585D01*
X111839500Y-91295453D01*
X111994372Y-91231303D01*
X112158784Y-91198600D01*
X112326416Y-91198600D01*
X112490828Y-91231303D01*
X112490828Y-91231303D01*
G37*
G36*
X107410828Y-91231303D02*
G01*
X107565700Y-91295453D01*
X107705081Y-91388585D01*
X107823615Y-91507119D01*
X107916747Y-91646500D01*
X107980897Y-91801372D01*
X108013600Y-91965784D01*
X108013600Y-92133416D01*
X107980897Y-92297828D01*
X107916747Y-92452700D01*
X107823615Y-92592081D01*
X107705081Y-92710615D01*
X107565700Y-92803747D01*
X107410828Y-92867897D01*
X107246416Y-92900600D01*
X107078784Y-92900600D01*
X106914372Y-92867897D01*
X106759500Y-92803747D01*
X106620119Y-92710615D01*
X106501585Y-92592081D01*
X106408453Y-92452700D01*
X106344303Y-92297828D01*
X106311600Y-92133416D01*
X106311600Y-91965784D01*
X106344303Y-91801372D01*
X106408453Y-91646500D01*
X106501585Y-91507119D01*
X106620119Y-91388585D01*
X106759500Y-91295453D01*
X106914372Y-91231303D01*
X107078784Y-91198600D01*
X107246416Y-91198600D01*
X107410828Y-91231303D01*
X107410828Y-91231303D01*
G37*
G36*
X109950828Y-91231303D02*
G01*
X110105700Y-91295453D01*
X110245081Y-91388585D01*
X110363615Y-91507119D01*
X110456747Y-91646500D01*
X110520897Y-91801372D01*
X110553600Y-91965784D01*
X110553600Y-92133416D01*
X110520897Y-92297828D01*
X110456747Y-92452700D01*
X110363615Y-92592081D01*
X110245081Y-92710615D01*
X110105700Y-92803747D01*
X109950828Y-92867897D01*
X109786416Y-92900600D01*
X109618784Y-92900600D01*
X109454372Y-92867897D01*
X109299500Y-92803747D01*
X109160119Y-92710615D01*
X109041585Y-92592081D01*
X108948453Y-92452700D01*
X108884303Y-92297828D01*
X108851600Y-92133416D01*
X108851600Y-91965784D01*
X108884303Y-91801372D01*
X108948453Y-91646500D01*
X109041585Y-91507119D01*
X109160119Y-91388585D01*
X109299500Y-91295453D01*
X109454372Y-91231303D01*
X109618784Y-91198600D01*
X109786416Y-91198600D01*
X109950828Y-91231303D01*
X109950828Y-91231303D01*
G37*
G36*
X92170828Y-91231303D02*
G01*
X92325700Y-91295453D01*
X92465081Y-91388585D01*
X92583615Y-91507119D01*
X92676747Y-91646500D01*
X92740897Y-91801372D01*
X92773600Y-91965784D01*
X92773600Y-92133416D01*
X92740897Y-92297828D01*
X92676747Y-92452700D01*
X92583615Y-92592081D01*
X92465081Y-92710615D01*
X92325700Y-92803747D01*
X92170828Y-92867897D01*
X92006416Y-92900600D01*
X91838784Y-92900600D01*
X91674372Y-92867897D01*
X91519500Y-92803747D01*
X91380119Y-92710615D01*
X91261585Y-92592081D01*
X91168453Y-92452700D01*
X91104303Y-92297828D01*
X91071600Y-92133416D01*
X91071600Y-91965784D01*
X91104303Y-91801372D01*
X91168453Y-91646500D01*
X91261585Y-91507119D01*
X91380119Y-91388585D01*
X91519500Y-91295453D01*
X91674372Y-91231303D01*
X91838784Y-91198600D01*
X92006416Y-91198600D01*
X92170828Y-91231303D01*
X92170828Y-91231303D01*
G37*
G36*
X137045000Y-92849000D02*
G01*
X135243000Y-92849000D01*
X135243000Y-91047000D01*
X137045000Y-91047000D01*
X137045000Y-92849000D01*
X137045000Y-92849000D01*
G37*
G36*
X138794442Y-91053518D02*
G01*
X138860627Y-91060037D01*
X139030466Y-91111557D01*
X139186991Y-91195222D01*
X139222729Y-91224552D01*
X139324186Y-91307814D01*
X139407448Y-91409271D01*
X139436778Y-91445009D01*
X139520443Y-91601534D01*
X139571963Y-91771373D01*
X139589359Y-91948000D01*
X139571963Y-92124627D01*
X139520443Y-92294466D01*
X139436778Y-92450991D01*
X139407448Y-92486729D01*
X139324186Y-92588186D01*
X139222729Y-92671448D01*
X139186991Y-92700778D01*
X139030466Y-92784443D01*
X138860627Y-92835963D01*
X138794442Y-92842482D01*
X138728260Y-92849000D01*
X138639740Y-92849000D01*
X138573558Y-92842482D01*
X138507373Y-92835963D01*
X138337534Y-92784443D01*
X138181009Y-92700778D01*
X138145271Y-92671448D01*
X138043814Y-92588186D01*
X137960552Y-92486729D01*
X137931222Y-92450991D01*
X137847557Y-92294466D01*
X137796037Y-92124627D01*
X137778641Y-91948000D01*
X137796037Y-91771373D01*
X137847557Y-91601534D01*
X137931222Y-91445009D01*
X137960552Y-91409271D01*
X138043814Y-91307814D01*
X138145271Y-91224552D01*
X138181009Y-91195222D01*
X138337534Y-91111557D01*
X138507373Y-91060037D01*
X138573558Y-91053518D01*
X138639740Y-91047000D01*
X138728260Y-91047000D01*
X138794442Y-91053518D01*
X138794442Y-91053518D01*
G37*
G36*
X153660428Y-90951903D02*
G01*
X153815300Y-91016053D01*
X153954681Y-91109185D01*
X154073215Y-91227719D01*
X154166347Y-91367100D01*
X154230497Y-91521972D01*
X154263200Y-91686384D01*
X154263200Y-91854016D01*
X154230497Y-92018428D01*
X154166347Y-92173300D01*
X154073215Y-92312681D01*
X153954681Y-92431215D01*
X153815300Y-92524347D01*
X153660428Y-92588497D01*
X153496016Y-92621200D01*
X153328384Y-92621200D01*
X153163972Y-92588497D01*
X153009100Y-92524347D01*
X152869719Y-92431215D01*
X152751185Y-92312681D01*
X152658053Y-92173300D01*
X152593903Y-92018428D01*
X152561200Y-91854016D01*
X152561200Y-91686384D01*
X152593903Y-91521972D01*
X152658053Y-91367100D01*
X152751185Y-91227719D01*
X152869719Y-91109185D01*
X153009100Y-91016053D01*
X153163972Y-90951903D01*
X153328384Y-90919200D01*
X153496016Y-90919200D01*
X153660428Y-90951903D01*
X153660428Y-90951903D01*
G37*
G36*
X148660428Y-90951903D02*
G01*
X148815300Y-91016053D01*
X148954681Y-91109185D01*
X149073215Y-91227719D01*
X149166347Y-91367100D01*
X149230497Y-91521972D01*
X149263200Y-91686384D01*
X149263200Y-91854016D01*
X149230497Y-92018428D01*
X149166347Y-92173300D01*
X149073215Y-92312681D01*
X148954681Y-92431215D01*
X148815300Y-92524347D01*
X148660428Y-92588497D01*
X148496016Y-92621200D01*
X148328384Y-92621200D01*
X148163972Y-92588497D01*
X148009100Y-92524347D01*
X147869719Y-92431215D01*
X147751185Y-92312681D01*
X147658053Y-92173300D01*
X147593903Y-92018428D01*
X147561200Y-91854016D01*
X147561200Y-91686384D01*
X147593903Y-91521972D01*
X147658053Y-91367100D01*
X147751185Y-91227719D01*
X147869719Y-91109185D01*
X148009100Y-91016053D01*
X148163972Y-90951903D01*
X148328384Y-90919200D01*
X148496016Y-90919200D01*
X148660428Y-90951903D01*
X148660428Y-90951903D01*
G37*
G36*
X184183833Y-89187293D02*
G01*
X184274057Y-89205239D01*
X184379667Y-89248985D01*
X184529021Y-89310849D01*
X184529022Y-89310850D01*
X184758486Y-89464172D01*
X184953628Y-89659314D01*
X185019453Y-89757829D01*
X185106951Y-89888779D01*
X185159376Y-90015344D01*
X185212561Y-90143743D01*
X185266400Y-90414414D01*
X185266400Y-90690386D01*
X185212561Y-90961057D01*
X185176962Y-91047000D01*
X185106951Y-91216021D01*
X185084648Y-91249400D01*
X184953628Y-91445486D01*
X184758486Y-91640628D01*
X184673665Y-91697303D01*
X184529021Y-91793951D01*
X184388463Y-91852172D01*
X184274057Y-91899561D01*
X184183833Y-91917507D01*
X184003388Y-91953400D01*
X183727412Y-91953400D01*
X183546967Y-91917507D01*
X183456743Y-91899561D01*
X183342337Y-91852172D01*
X183201779Y-91793951D01*
X183057135Y-91697303D01*
X182972314Y-91640628D01*
X182777172Y-91445486D01*
X182646152Y-91249400D01*
X182623849Y-91216021D01*
X182553838Y-91047000D01*
X182518239Y-90961057D01*
X182464400Y-90690386D01*
X182464400Y-90414414D01*
X182518239Y-90143743D01*
X182571424Y-90015344D01*
X182623849Y-89888779D01*
X182711347Y-89757829D01*
X182777172Y-89659314D01*
X182972314Y-89464172D01*
X183201778Y-89310850D01*
X183201779Y-89310849D01*
X183351133Y-89248985D01*
X183456743Y-89205239D01*
X183546967Y-89187293D01*
X183727412Y-89151400D01*
X184003388Y-89151400D01*
X184183833Y-89187293D01*
X184183833Y-89187293D01*
G37*
G36*
X74994433Y-89058893D02*
G01*
X75084657Y-89076839D01*
X75190267Y-89120585D01*
X75339621Y-89182449D01*
X75415763Y-89233325D01*
X75569086Y-89335772D01*
X75764228Y-89530914D01*
X75805990Y-89593416D01*
X75917551Y-89760379D01*
X75918222Y-89762000D01*
X76023161Y-90015343D01*
X76041107Y-90105567D01*
X76077000Y-90286012D01*
X76077000Y-90561988D01*
X76023161Y-90832656D01*
X75917551Y-91087621D01*
X75917550Y-91087622D01*
X75764228Y-91317086D01*
X75569086Y-91512228D01*
X75435432Y-91601532D01*
X75339621Y-91665551D01*
X75190267Y-91727415D01*
X75084657Y-91771161D01*
X74994433Y-91789107D01*
X74813988Y-91825000D01*
X74538012Y-91825000D01*
X74357567Y-91789107D01*
X74267343Y-91771161D01*
X74161733Y-91727415D01*
X74012379Y-91665551D01*
X73916568Y-91601532D01*
X73782914Y-91512228D01*
X73587772Y-91317086D01*
X73434450Y-91087622D01*
X73434449Y-91087621D01*
X73328839Y-90832656D01*
X73275000Y-90561988D01*
X73275000Y-90286012D01*
X73310893Y-90105567D01*
X73328839Y-90015343D01*
X73433778Y-89762000D01*
X73434449Y-89760379D01*
X73546010Y-89593416D01*
X73587772Y-89530914D01*
X73782914Y-89335772D01*
X73936237Y-89233325D01*
X74012379Y-89182449D01*
X74161733Y-89120585D01*
X74267343Y-89076839D01*
X74357567Y-89058893D01*
X74538012Y-89023000D01*
X74813988Y-89023000D01*
X74994433Y-89058893D01*
X74994433Y-89058893D01*
G37*
G36*
X167396443Y-88867519D02*
G01*
X167462627Y-88874037D01*
X167632466Y-88925557D01*
X167788991Y-89009222D01*
X167805779Y-89023000D01*
X167926186Y-89121814D01*
X167994650Y-89205239D01*
X168038778Y-89259009D01*
X168122443Y-89415534D01*
X168173963Y-89585373D01*
X168191359Y-89762000D01*
X168173963Y-89938627D01*
X168122443Y-90108466D01*
X168038778Y-90264991D01*
X168009448Y-90300729D01*
X167926186Y-90402186D01*
X167824729Y-90485448D01*
X167788991Y-90514778D01*
X167632466Y-90598443D01*
X167462627Y-90649963D01*
X167396443Y-90656481D01*
X167330260Y-90663000D01*
X167241740Y-90663000D01*
X167175557Y-90656481D01*
X167109373Y-90649963D01*
X166939534Y-90598443D01*
X166783009Y-90514778D01*
X166747271Y-90485448D01*
X166645814Y-90402186D01*
X166562552Y-90300729D01*
X166533222Y-90264991D01*
X166449557Y-90108466D01*
X166398037Y-89938627D01*
X166380641Y-89762000D01*
X166398037Y-89585373D01*
X166449557Y-89415534D01*
X166533222Y-89259009D01*
X166577350Y-89205239D01*
X166645814Y-89121814D01*
X166766221Y-89023000D01*
X166783009Y-89009222D01*
X166939534Y-88925557D01*
X167109373Y-88874037D01*
X167175557Y-88867519D01*
X167241740Y-88861000D01*
X167330260Y-88861000D01*
X167396443Y-88867519D01*
X167396443Y-88867519D01*
G37*
G36*
X109950828Y-88691303D02*
G01*
X110105700Y-88755453D01*
X110245081Y-88848585D01*
X110363615Y-88967119D01*
X110456747Y-89106500D01*
X110520897Y-89261372D01*
X110553600Y-89425784D01*
X110553600Y-89593416D01*
X110520897Y-89757828D01*
X110456747Y-89912700D01*
X110363615Y-90052081D01*
X110245081Y-90170615D01*
X110105700Y-90263747D01*
X109950828Y-90327897D01*
X109786416Y-90360600D01*
X109618784Y-90360600D01*
X109454372Y-90327897D01*
X109299500Y-90263747D01*
X109160119Y-90170615D01*
X109041585Y-90052081D01*
X108948453Y-89912700D01*
X108884303Y-89757828D01*
X108851600Y-89593416D01*
X108851600Y-89425784D01*
X108884303Y-89261372D01*
X108948453Y-89106500D01*
X109041585Y-88967119D01*
X109160119Y-88848585D01*
X109299500Y-88755453D01*
X109454372Y-88691303D01*
X109618784Y-88658600D01*
X109786416Y-88658600D01*
X109950828Y-88691303D01*
X109950828Y-88691303D01*
G37*
G36*
X79470828Y-88691303D02*
G01*
X79625700Y-88755453D01*
X79765081Y-88848585D01*
X79883615Y-88967119D01*
X79976747Y-89106500D01*
X80040897Y-89261372D01*
X80073600Y-89425784D01*
X80073600Y-89593416D01*
X80040897Y-89757828D01*
X79976747Y-89912700D01*
X79883615Y-90052081D01*
X79765081Y-90170615D01*
X79625700Y-90263747D01*
X79470828Y-90327897D01*
X79306416Y-90360600D01*
X79138784Y-90360600D01*
X78974372Y-90327897D01*
X78819500Y-90263747D01*
X78680119Y-90170615D01*
X78561585Y-90052081D01*
X78468453Y-89912700D01*
X78404303Y-89757828D01*
X78371600Y-89593416D01*
X78371600Y-89425784D01*
X78404303Y-89261372D01*
X78468453Y-89106500D01*
X78561585Y-88967119D01*
X78680119Y-88848585D01*
X78819500Y-88755453D01*
X78974372Y-88691303D01*
X79138784Y-88658600D01*
X79306416Y-88658600D01*
X79470828Y-88691303D01*
X79470828Y-88691303D01*
G37*
G36*
X167396442Y-86327518D02*
G01*
X167462627Y-86334037D01*
X167632466Y-86385557D01*
X167788991Y-86469222D01*
X167824729Y-86498552D01*
X167926186Y-86581814D01*
X168009448Y-86683271D01*
X168038778Y-86719009D01*
X168122443Y-86875534D01*
X168173963Y-87045373D01*
X168191359Y-87222000D01*
X168173963Y-87398627D01*
X168122443Y-87568466D01*
X168038778Y-87724991D01*
X168009448Y-87760729D01*
X167926186Y-87862186D01*
X167824729Y-87945448D01*
X167788991Y-87974778D01*
X167632466Y-88058443D01*
X167462627Y-88109963D01*
X167396443Y-88116481D01*
X167330260Y-88123000D01*
X167241740Y-88123000D01*
X167175557Y-88116481D01*
X167109373Y-88109963D01*
X166939534Y-88058443D01*
X166783009Y-87974778D01*
X166747271Y-87945448D01*
X166645814Y-87862186D01*
X166562552Y-87760729D01*
X166533222Y-87724991D01*
X166449557Y-87568466D01*
X166398037Y-87398627D01*
X166380641Y-87222000D01*
X166398037Y-87045373D01*
X166449557Y-86875534D01*
X166533222Y-86719009D01*
X166562552Y-86683271D01*
X166645814Y-86581814D01*
X166747271Y-86498552D01*
X166783009Y-86469222D01*
X166939534Y-86385557D01*
X167109373Y-86334037D01*
X167175558Y-86327518D01*
X167241740Y-86321000D01*
X167330260Y-86321000D01*
X167396442Y-86327518D01*
X167396442Y-86327518D01*
G37*
G36*
X79470828Y-86151303D02*
G01*
X79625700Y-86215453D01*
X79765081Y-86308585D01*
X79883615Y-86427119D01*
X79976747Y-86566500D01*
X80040897Y-86721372D01*
X80073600Y-86885784D01*
X80073600Y-87053416D01*
X80040897Y-87217828D01*
X79976747Y-87372700D01*
X79883615Y-87512081D01*
X79765081Y-87630615D01*
X79625700Y-87723747D01*
X79470828Y-87787897D01*
X79306416Y-87820600D01*
X79138784Y-87820600D01*
X78974372Y-87787897D01*
X78819500Y-87723747D01*
X78680119Y-87630615D01*
X78561585Y-87512081D01*
X78468453Y-87372700D01*
X78404303Y-87217828D01*
X78371600Y-87053416D01*
X78371600Y-86885784D01*
X78404303Y-86721372D01*
X78468453Y-86566500D01*
X78561585Y-86427119D01*
X78680119Y-86308585D01*
X78819500Y-86215453D01*
X78974372Y-86151303D01*
X79138784Y-86118600D01*
X79306416Y-86118600D01*
X79470828Y-86151303D01*
X79470828Y-86151303D01*
G37*
G36*
X143658228Y-86149703D02*
G01*
X143813100Y-86213853D01*
X143952481Y-86306985D01*
X144071015Y-86425519D01*
X144164147Y-86564900D01*
X144228297Y-86719772D01*
X144261000Y-86884184D01*
X144261000Y-87051816D01*
X144228297Y-87216228D01*
X144164147Y-87371100D01*
X144071015Y-87510481D01*
X143952481Y-87629015D01*
X143813100Y-87722147D01*
X143658228Y-87786297D01*
X143493816Y-87819000D01*
X143326184Y-87819000D01*
X143161772Y-87786297D01*
X143006900Y-87722147D01*
X142867519Y-87629015D01*
X142748985Y-87510481D01*
X142655853Y-87371100D01*
X142591703Y-87216228D01*
X142559000Y-87051816D01*
X142559000Y-86884184D01*
X142591703Y-86719772D01*
X142655853Y-86564900D01*
X142748985Y-86425519D01*
X142867519Y-86306985D01*
X143006900Y-86213853D01*
X143161772Y-86149703D01*
X143326184Y-86117000D01*
X143493816Y-86117000D01*
X143658228Y-86149703D01*
X143658228Y-86149703D01*
G37*
G36*
X140102228Y-86149703D02*
G01*
X140257100Y-86213853D01*
X140396481Y-86306985D01*
X140515015Y-86425519D01*
X140608147Y-86564900D01*
X140672297Y-86719772D01*
X140705000Y-86884184D01*
X140705000Y-87051816D01*
X140672297Y-87216228D01*
X140608147Y-87371100D01*
X140515015Y-87510481D01*
X140396481Y-87629015D01*
X140257100Y-87722147D01*
X140102228Y-87786297D01*
X139937816Y-87819000D01*
X139770184Y-87819000D01*
X139605772Y-87786297D01*
X139450900Y-87722147D01*
X139311519Y-87629015D01*
X139192985Y-87510481D01*
X139099853Y-87371100D01*
X139035703Y-87216228D01*
X139003000Y-87051816D01*
X139003000Y-86884184D01*
X139035703Y-86719772D01*
X139099853Y-86564900D01*
X139192985Y-86425519D01*
X139311519Y-86306985D01*
X139450900Y-86213853D01*
X139605772Y-86149703D01*
X139770184Y-86117000D01*
X139937816Y-86117000D01*
X140102228Y-86149703D01*
X140102228Y-86149703D01*
G37*
G36*
X163078443Y-84295519D02*
G01*
X163144627Y-84302037D01*
X163314466Y-84353557D01*
X163470991Y-84437222D01*
X163506729Y-84466552D01*
X163608186Y-84549814D01*
X163677685Y-84634500D01*
X163720778Y-84687009D01*
X163720779Y-84687011D01*
X163798651Y-84832697D01*
X163804443Y-84843534D01*
X163855963Y-85013373D01*
X163873359Y-85190000D01*
X163855963Y-85366627D01*
X163804443Y-85536466D01*
X163720778Y-85692991D01*
X163716162Y-85698615D01*
X163608186Y-85830186D01*
X163537007Y-85888600D01*
X163470991Y-85942778D01*
X163314466Y-86026443D01*
X163144627Y-86077963D01*
X163078442Y-86084482D01*
X163012260Y-86091000D01*
X162923740Y-86091000D01*
X162857558Y-86084482D01*
X162791373Y-86077963D01*
X162621534Y-86026443D01*
X162465009Y-85942778D01*
X162398993Y-85888600D01*
X162327814Y-85830186D01*
X162219838Y-85698615D01*
X162215222Y-85692991D01*
X162131557Y-85536466D01*
X162080037Y-85366627D01*
X162062641Y-85190000D01*
X162080037Y-85013373D01*
X162131557Y-84843534D01*
X162137350Y-84832697D01*
X162215221Y-84687011D01*
X162215222Y-84687009D01*
X162258315Y-84634500D01*
X162327814Y-84549814D01*
X162429271Y-84466552D01*
X162465009Y-84437222D01*
X162621534Y-84353557D01*
X162791373Y-84302037D01*
X162857557Y-84295519D01*
X162923740Y-84289000D01*
X163012260Y-84289000D01*
X163078443Y-84295519D01*
X163078443Y-84295519D01*
G37*
G36*
X66912442Y-84195518D02*
G01*
X66978627Y-84202037D01*
X67148466Y-84253557D01*
X67304991Y-84337222D01*
X67324895Y-84353557D01*
X67442186Y-84449814D01*
X67524253Y-84549814D01*
X67554778Y-84587009D01*
X67554779Y-84587011D01*
X67608423Y-84687370D01*
X67638443Y-84743534D01*
X67689963Y-84913373D01*
X67707359Y-85090000D01*
X67689963Y-85266627D01*
X67659629Y-85366625D01*
X67638442Y-85436468D01*
X67636180Y-85440700D01*
X67554778Y-85592991D01*
X67525448Y-85628729D01*
X67442186Y-85730186D01*
X67367171Y-85791748D01*
X67304991Y-85842778D01*
X67148466Y-85926443D01*
X66978627Y-85977963D01*
X66912442Y-85984482D01*
X66846260Y-85991000D01*
X66757740Y-85991000D01*
X66691558Y-85984482D01*
X66625373Y-85977963D01*
X66455534Y-85926443D01*
X66299009Y-85842778D01*
X66236829Y-85791748D01*
X66161814Y-85730186D01*
X66078552Y-85628729D01*
X66049222Y-85592991D01*
X65967820Y-85440700D01*
X65965558Y-85436468D01*
X65944371Y-85366625D01*
X65914037Y-85266627D01*
X65896641Y-85090000D01*
X65914037Y-84913373D01*
X65965557Y-84743534D01*
X65995578Y-84687370D01*
X66049221Y-84587011D01*
X66049222Y-84587009D01*
X66079747Y-84549814D01*
X66161814Y-84449814D01*
X66279105Y-84353557D01*
X66299009Y-84337222D01*
X66455534Y-84253557D01*
X66625373Y-84202037D01*
X66691558Y-84195518D01*
X66757740Y-84189000D01*
X66846260Y-84189000D01*
X66912442Y-84195518D01*
X66912442Y-84195518D01*
G37*
G36*
X69452442Y-84195518D02*
G01*
X69518627Y-84202037D01*
X69688466Y-84253557D01*
X69844991Y-84337222D01*
X69864895Y-84353557D01*
X69982186Y-84449814D01*
X70064253Y-84549814D01*
X70094778Y-84587009D01*
X70094779Y-84587011D01*
X70148423Y-84687370D01*
X70178443Y-84743534D01*
X70229963Y-84913373D01*
X70247359Y-85090000D01*
X70229963Y-85266627D01*
X70199629Y-85366625D01*
X70178442Y-85436468D01*
X70176180Y-85440700D01*
X70094778Y-85592991D01*
X70065448Y-85628729D01*
X69982186Y-85730186D01*
X69907171Y-85791748D01*
X69844991Y-85842778D01*
X69688466Y-85926443D01*
X69518627Y-85977963D01*
X69452442Y-85984482D01*
X69386260Y-85991000D01*
X69297740Y-85991000D01*
X69231558Y-85984482D01*
X69165373Y-85977963D01*
X68995534Y-85926443D01*
X68839009Y-85842778D01*
X68776829Y-85791748D01*
X68701814Y-85730186D01*
X68618552Y-85628729D01*
X68589222Y-85592991D01*
X68507820Y-85440700D01*
X68505558Y-85436468D01*
X68484371Y-85366625D01*
X68454037Y-85266627D01*
X68436641Y-85090000D01*
X68454037Y-84913373D01*
X68505557Y-84743534D01*
X68535578Y-84687370D01*
X68589221Y-84587011D01*
X68589222Y-84587009D01*
X68619747Y-84549814D01*
X68701814Y-84449814D01*
X68819105Y-84353557D01*
X68839009Y-84337222D01*
X68995534Y-84253557D01*
X69165373Y-84202037D01*
X69231558Y-84195518D01*
X69297740Y-84189000D01*
X69386260Y-84189000D01*
X69452442Y-84195518D01*
X69452442Y-84195518D01*
G37*
G36*
X159076028Y-84219303D02*
G01*
X159230900Y-84283453D01*
X159370281Y-84376585D01*
X159488815Y-84495119D01*
X159581947Y-84634500D01*
X159646097Y-84789372D01*
X159678800Y-84953784D01*
X159678800Y-85121416D01*
X159646097Y-85285828D01*
X159581947Y-85440700D01*
X159488815Y-85580081D01*
X159370281Y-85698615D01*
X159230900Y-85791747D01*
X159076028Y-85855897D01*
X158911616Y-85888600D01*
X158743984Y-85888600D01*
X158579572Y-85855897D01*
X158424700Y-85791747D01*
X158285319Y-85698615D01*
X158166785Y-85580081D01*
X158073653Y-85440700D01*
X158009503Y-85285828D01*
X157976800Y-85121416D01*
X157976800Y-84953784D01*
X158009503Y-84789372D01*
X158073653Y-84634500D01*
X158166785Y-84495119D01*
X158285319Y-84376585D01*
X158424700Y-84283453D01*
X158579572Y-84219303D01*
X158743984Y-84186600D01*
X158911616Y-84186600D01*
X159076028Y-84219303D01*
X159076028Y-84219303D01*
G37*
G36*
X168187000Y-85583000D02*
G01*
X166385000Y-85583000D01*
X166385000Y-83781000D01*
X168187000Y-83781000D01*
X168187000Y-85583000D01*
X168187000Y-85583000D01*
G37*
G36*
X152305369Y-83572971D02*
G01*
X152467195Y-83640002D01*
X152612829Y-83737311D01*
X152736689Y-83861171D01*
X152833998Y-84006805D01*
X152901029Y-84168631D01*
X152935200Y-84340420D01*
X152935200Y-84515580D01*
X152901029Y-84687369D01*
X152833998Y-84849195D01*
X152736689Y-84994829D01*
X152612829Y-85118689D01*
X152467195Y-85215998D01*
X152305369Y-85283029D01*
X152133580Y-85317200D01*
X151958420Y-85317200D01*
X151786631Y-85283029D01*
X151624805Y-85215998D01*
X151479171Y-85118689D01*
X151355311Y-84994829D01*
X151258002Y-84849195D01*
X151190971Y-84687369D01*
X151156800Y-84515580D01*
X151156800Y-84340420D01*
X151190971Y-84168631D01*
X151258002Y-84006805D01*
X151355311Y-83861171D01*
X151479171Y-83737311D01*
X151624805Y-83640002D01*
X151786631Y-83572971D01*
X151958420Y-83538800D01*
X152133580Y-83538800D01*
X152305369Y-83572971D01*
X152305369Y-83572971D01*
G37*
G36*
X149765369Y-83572971D02*
G01*
X149927195Y-83640002D01*
X150072829Y-83737311D01*
X150196689Y-83861171D01*
X150293998Y-84006805D01*
X150361029Y-84168631D01*
X150395200Y-84340420D01*
X150395200Y-84515580D01*
X150361029Y-84687369D01*
X150293998Y-84849195D01*
X150196689Y-84994829D01*
X150072829Y-85118689D01*
X149927195Y-85215998D01*
X149765369Y-85283029D01*
X149593580Y-85317200D01*
X149418420Y-85317200D01*
X149246631Y-85283029D01*
X149084805Y-85215998D01*
X148939171Y-85118689D01*
X148815311Y-84994829D01*
X148718002Y-84849195D01*
X148650971Y-84687369D01*
X148616800Y-84515580D01*
X148616800Y-84340420D01*
X148650971Y-84168631D01*
X148718002Y-84006805D01*
X148815311Y-83861171D01*
X148939171Y-83737311D01*
X149084805Y-83640002D01*
X149246631Y-83572971D01*
X149418420Y-83538800D01*
X149593580Y-83538800D01*
X149765369Y-83572971D01*
X149765369Y-83572971D01*
G37*
G36*
X154845369Y-83572971D02*
G01*
X155007195Y-83640002D01*
X155152829Y-83737311D01*
X155276689Y-83861171D01*
X155373998Y-84006805D01*
X155441029Y-84168631D01*
X155475200Y-84340420D01*
X155475200Y-84515580D01*
X155441029Y-84687369D01*
X155373998Y-84849195D01*
X155276689Y-84994829D01*
X155152829Y-85118689D01*
X155007195Y-85215998D01*
X154845369Y-85283029D01*
X154673580Y-85317200D01*
X154498420Y-85317200D01*
X154326631Y-85283029D01*
X154164805Y-85215998D01*
X154019171Y-85118689D01*
X153895311Y-84994829D01*
X153798002Y-84849195D01*
X153730971Y-84687369D01*
X153696800Y-84515580D01*
X153696800Y-84340420D01*
X153730971Y-84168631D01*
X153798002Y-84006805D01*
X153895311Y-83861171D01*
X154019171Y-83737311D01*
X154164805Y-83640002D01*
X154326631Y-83572971D01*
X154498420Y-83538800D01*
X154673580Y-83538800D01*
X154845369Y-83572971D01*
X154845369Y-83572971D01*
G37*
G36*
X147225369Y-83572971D02*
G01*
X147387195Y-83640002D01*
X147532829Y-83737311D01*
X147656689Y-83861171D01*
X147753998Y-84006805D01*
X147821029Y-84168631D01*
X147855200Y-84340420D01*
X147855200Y-84515580D01*
X147821029Y-84687369D01*
X147753998Y-84849195D01*
X147656689Y-84994829D01*
X147532829Y-85118689D01*
X147387195Y-85215998D01*
X147225369Y-85283029D01*
X147053580Y-85317200D01*
X146878420Y-85317200D01*
X146706631Y-85283029D01*
X146544805Y-85215998D01*
X146399171Y-85118689D01*
X146275311Y-84994829D01*
X146178002Y-84849195D01*
X146110971Y-84687369D01*
X146076800Y-84515580D01*
X146076800Y-84340420D01*
X146110971Y-84168631D01*
X146178002Y-84006805D01*
X146275311Y-83861171D01*
X146399171Y-83737311D01*
X146544805Y-83640002D01*
X146706631Y-83572971D01*
X146878420Y-83538800D01*
X147053580Y-83538800D01*
X147225369Y-83572971D01*
X147225369Y-83572971D01*
G37*
G36*
X79470828Y-83611303D02*
G01*
X79625700Y-83675453D01*
X79765081Y-83768585D01*
X79883615Y-83887119D01*
X79976747Y-84026500D01*
X80040897Y-84181372D01*
X80073600Y-84345784D01*
X80073600Y-84513416D01*
X80040897Y-84677828D01*
X79976747Y-84832700D01*
X79883615Y-84972081D01*
X79765081Y-85090615D01*
X79625700Y-85183747D01*
X79470828Y-85247897D01*
X79306416Y-85280600D01*
X79138784Y-85280600D01*
X78974372Y-85247897D01*
X78819500Y-85183747D01*
X78680119Y-85090615D01*
X78561585Y-84972081D01*
X78468453Y-84832700D01*
X78404303Y-84677828D01*
X78371600Y-84513416D01*
X78371600Y-84345784D01*
X78404303Y-84181372D01*
X78468453Y-84026500D01*
X78561585Y-83887119D01*
X78680119Y-83768585D01*
X78819500Y-83675453D01*
X78974372Y-83611303D01*
X79138784Y-83578600D01*
X79306416Y-83578600D01*
X79470828Y-83611303D01*
X79470828Y-83611303D01*
G37*
G36*
X163078442Y-81755518D02*
G01*
X163144627Y-81762037D01*
X163314466Y-81813557D01*
X163470991Y-81897222D01*
X163506729Y-81926552D01*
X163608186Y-82009814D01*
X163691448Y-82111271D01*
X163720778Y-82147009D01*
X163720779Y-82147011D01*
X163798651Y-82292697D01*
X163804443Y-82303534D01*
X163855963Y-82473373D01*
X163873359Y-82650000D01*
X163855963Y-82826627D01*
X163804443Y-82996466D01*
X163720778Y-83152991D01*
X163691448Y-83188729D01*
X163608186Y-83290186D01*
X163506729Y-83373448D01*
X163470991Y-83402778D01*
X163314466Y-83486443D01*
X163144627Y-83537963D01*
X163078443Y-83544481D01*
X163012260Y-83551000D01*
X162923740Y-83551000D01*
X162857557Y-83544481D01*
X162791373Y-83537963D01*
X162621534Y-83486443D01*
X162465009Y-83402778D01*
X162429271Y-83373448D01*
X162327814Y-83290186D01*
X162244552Y-83188729D01*
X162215222Y-83152991D01*
X162131557Y-82996466D01*
X162080037Y-82826627D01*
X162062641Y-82650000D01*
X162080037Y-82473373D01*
X162131557Y-82303534D01*
X162137350Y-82292697D01*
X162215221Y-82147011D01*
X162215222Y-82147009D01*
X162244552Y-82111271D01*
X162327814Y-82009814D01*
X162429271Y-81926552D01*
X162465009Y-81897222D01*
X162621534Y-81813557D01*
X162791373Y-81762037D01*
X162857558Y-81755518D01*
X162923740Y-81749000D01*
X163012260Y-81749000D01*
X163078442Y-81755518D01*
X163078442Y-81755518D01*
G37*
G36*
X66912443Y-81655519D02*
G01*
X66978627Y-81662037D01*
X67148466Y-81713557D01*
X67304991Y-81797222D01*
X67324895Y-81813557D01*
X67442186Y-81909814D01*
X67524253Y-82009814D01*
X67554778Y-82047009D01*
X67638443Y-82203534D01*
X67689963Y-82373373D01*
X67707359Y-82550000D01*
X67689963Y-82726627D01*
X67638443Y-82896466D01*
X67554778Y-83052991D01*
X67525448Y-83088729D01*
X67442186Y-83190186D01*
X67340729Y-83273448D01*
X67304991Y-83302778D01*
X67148466Y-83386443D01*
X66978627Y-83437963D01*
X66912443Y-83444481D01*
X66846260Y-83451000D01*
X66757740Y-83451000D01*
X66691557Y-83444481D01*
X66625373Y-83437963D01*
X66455534Y-83386443D01*
X66299009Y-83302778D01*
X66263271Y-83273448D01*
X66161814Y-83190186D01*
X66078552Y-83088729D01*
X66049222Y-83052991D01*
X65965557Y-82896466D01*
X65914037Y-82726627D01*
X65896641Y-82550000D01*
X65914037Y-82373373D01*
X65965557Y-82203534D01*
X66049222Y-82047009D01*
X66079747Y-82009814D01*
X66161814Y-81909814D01*
X66279105Y-81813557D01*
X66299009Y-81797222D01*
X66455534Y-81713557D01*
X66625373Y-81662037D01*
X66691557Y-81655519D01*
X66757740Y-81649000D01*
X66846260Y-81649000D01*
X66912443Y-81655519D01*
X66912443Y-81655519D01*
G37*
G36*
X69452443Y-81655519D02*
G01*
X69518627Y-81662037D01*
X69688466Y-81713557D01*
X69844991Y-81797222D01*
X69864895Y-81813557D01*
X69982186Y-81909814D01*
X70064253Y-82009814D01*
X70094778Y-82047009D01*
X70178443Y-82203534D01*
X70229963Y-82373373D01*
X70247359Y-82550000D01*
X70229963Y-82726627D01*
X70178443Y-82896466D01*
X70094778Y-83052991D01*
X70065448Y-83088729D01*
X69982186Y-83190186D01*
X69880729Y-83273448D01*
X69844991Y-83302778D01*
X69688466Y-83386443D01*
X69518627Y-83437963D01*
X69452443Y-83444481D01*
X69386260Y-83451000D01*
X69297740Y-83451000D01*
X69231557Y-83444481D01*
X69165373Y-83437963D01*
X68995534Y-83386443D01*
X68839009Y-83302778D01*
X68803271Y-83273448D01*
X68701814Y-83190186D01*
X68618552Y-83088729D01*
X68589222Y-83052991D01*
X68505557Y-82896466D01*
X68454037Y-82726627D01*
X68436641Y-82550000D01*
X68454037Y-82373373D01*
X68505557Y-82203534D01*
X68589222Y-82047009D01*
X68619747Y-82009814D01*
X68701814Y-81909814D01*
X68819105Y-81813557D01*
X68839009Y-81797222D01*
X68995534Y-81713557D01*
X69165373Y-81662037D01*
X69231557Y-81655519D01*
X69297740Y-81649000D01*
X69386260Y-81649000D01*
X69452443Y-81655519D01*
X69452443Y-81655519D01*
G37*
G36*
X79470828Y-81071303D02*
G01*
X79625700Y-81135453D01*
X79765081Y-81228585D01*
X79883615Y-81347119D01*
X79976747Y-81486500D01*
X80040897Y-81641372D01*
X80073600Y-81805784D01*
X80073600Y-81973416D01*
X80040897Y-82137828D01*
X79976747Y-82292700D01*
X79883615Y-82432081D01*
X79765081Y-82550615D01*
X79625700Y-82643747D01*
X79470828Y-82707897D01*
X79306416Y-82740600D01*
X79138784Y-82740600D01*
X78974372Y-82707897D01*
X78819500Y-82643747D01*
X78680119Y-82550615D01*
X78561585Y-82432081D01*
X78468453Y-82292700D01*
X78404303Y-82137828D01*
X78371600Y-81973416D01*
X78371600Y-81805784D01*
X78404303Y-81641372D01*
X78468453Y-81486500D01*
X78561585Y-81347119D01*
X78680119Y-81228585D01*
X78819500Y-81135453D01*
X78974372Y-81071303D01*
X79138784Y-81038600D01*
X79306416Y-81038600D01*
X79470828Y-81071303D01*
X79470828Y-81071303D01*
G37*
G36*
X163078443Y-79215519D02*
G01*
X163144627Y-79222037D01*
X163314466Y-79273557D01*
X163470991Y-79357222D01*
X163506729Y-79386552D01*
X163608186Y-79469814D01*
X163691448Y-79571271D01*
X163720778Y-79607009D01*
X163720779Y-79607011D01*
X163798651Y-79752697D01*
X163804443Y-79763534D01*
X163855963Y-79933373D01*
X163873359Y-80110000D01*
X163855963Y-80286627D01*
X163804443Y-80456466D01*
X163720778Y-80612991D01*
X163691448Y-80648729D01*
X163608186Y-80750186D01*
X163506729Y-80833448D01*
X163470991Y-80862778D01*
X163314466Y-80946443D01*
X163144627Y-80997963D01*
X163078443Y-81004481D01*
X163012260Y-81011000D01*
X162923740Y-81011000D01*
X162857557Y-81004481D01*
X162791373Y-80997963D01*
X162621534Y-80946443D01*
X162465009Y-80862778D01*
X162429271Y-80833448D01*
X162327814Y-80750186D01*
X162244552Y-80648729D01*
X162215222Y-80612991D01*
X162131557Y-80456466D01*
X162080037Y-80286627D01*
X162062641Y-80110000D01*
X162080037Y-79933373D01*
X162131557Y-79763534D01*
X162137350Y-79752697D01*
X162215221Y-79607011D01*
X162215222Y-79607009D01*
X162244552Y-79571271D01*
X162327814Y-79469814D01*
X162429271Y-79386552D01*
X162465009Y-79357222D01*
X162621534Y-79273557D01*
X162791373Y-79222037D01*
X162857557Y-79215519D01*
X162923740Y-79209000D01*
X163012260Y-79209000D01*
X163078443Y-79215519D01*
X163078443Y-79215519D01*
G37*
G36*
X67703000Y-80911000D02*
G01*
X65901000Y-80911000D01*
X65901000Y-79109000D01*
X67703000Y-79109000D01*
X67703000Y-80911000D01*
X67703000Y-80911000D01*
G37*
G36*
X69452443Y-79115519D02*
G01*
X69518627Y-79122037D01*
X69688466Y-79173557D01*
X69844991Y-79257222D01*
X69864895Y-79273557D01*
X69982186Y-79369814D01*
X70064253Y-79469814D01*
X70094778Y-79507009D01*
X70094779Y-79507011D01*
X70162926Y-79634503D01*
X70178443Y-79663534D01*
X70229963Y-79833373D01*
X70247359Y-80010000D01*
X70229963Y-80186627D01*
X70178443Y-80356466D01*
X70094778Y-80512991D01*
X70065448Y-80548729D01*
X69982186Y-80650186D01*
X69880729Y-80733448D01*
X69844991Y-80762778D01*
X69688466Y-80846443D01*
X69518627Y-80897963D01*
X69452442Y-80904482D01*
X69386260Y-80911000D01*
X69297740Y-80911000D01*
X69231558Y-80904482D01*
X69165373Y-80897963D01*
X68995534Y-80846443D01*
X68839009Y-80762778D01*
X68803271Y-80733448D01*
X68701814Y-80650186D01*
X68618552Y-80548729D01*
X68589222Y-80512991D01*
X68505557Y-80356466D01*
X68454037Y-80186627D01*
X68436641Y-80010000D01*
X68454037Y-79833373D01*
X68505557Y-79663534D01*
X68521075Y-79634503D01*
X68589221Y-79507011D01*
X68589222Y-79507009D01*
X68619747Y-79469814D01*
X68701814Y-79369814D01*
X68819105Y-79273557D01*
X68839009Y-79257222D01*
X68995534Y-79173557D01*
X69165373Y-79122037D01*
X69231557Y-79115519D01*
X69297740Y-79109000D01*
X69386260Y-79109000D01*
X69452443Y-79115519D01*
X69452443Y-79115519D01*
G37*
G36*
X159076028Y-79219303D02*
G01*
X159230900Y-79283453D01*
X159370281Y-79376585D01*
X159488815Y-79495119D01*
X159581947Y-79634500D01*
X159646097Y-79789372D01*
X159678800Y-79953784D01*
X159678800Y-80121416D01*
X159646097Y-80285828D01*
X159581947Y-80440700D01*
X159488815Y-80580081D01*
X159370281Y-80698615D01*
X159230900Y-80791747D01*
X159076028Y-80855897D01*
X158911616Y-80888600D01*
X158743984Y-80888600D01*
X158579572Y-80855897D01*
X158424700Y-80791747D01*
X158285319Y-80698615D01*
X158166785Y-80580081D01*
X158073653Y-80440700D01*
X158009503Y-80285828D01*
X157976800Y-80121416D01*
X157976800Y-79953784D01*
X158009503Y-79789372D01*
X158073653Y-79634500D01*
X158166785Y-79495119D01*
X158285319Y-79376585D01*
X158424700Y-79283453D01*
X158579572Y-79219303D01*
X158743984Y-79186600D01*
X158911616Y-79186600D01*
X159076028Y-79219303D01*
X159076028Y-79219303D01*
G37*
G36*
X79470828Y-78531303D02*
G01*
X79625700Y-78595453D01*
X79765081Y-78688585D01*
X79883615Y-78807119D01*
X79976747Y-78946500D01*
X80040897Y-79101372D01*
X80073600Y-79265784D01*
X80073600Y-79433416D01*
X80040897Y-79597828D01*
X79976747Y-79752700D01*
X79883615Y-79892081D01*
X79765081Y-80010615D01*
X79625700Y-80103747D01*
X79470828Y-80167897D01*
X79306416Y-80200600D01*
X79138784Y-80200600D01*
X78974372Y-80167897D01*
X78819500Y-80103747D01*
X78680119Y-80010615D01*
X78561585Y-79892081D01*
X78468453Y-79752700D01*
X78404303Y-79597828D01*
X78371600Y-79433416D01*
X78371600Y-79265784D01*
X78404303Y-79101372D01*
X78468453Y-78946500D01*
X78561585Y-78807119D01*
X78680119Y-78688585D01*
X78819500Y-78595453D01*
X78974372Y-78531303D01*
X79138784Y-78498600D01*
X79306416Y-78498600D01*
X79470828Y-78531303D01*
X79470828Y-78531303D01*
G37*
G36*
X184134295Y-76376839D02*
G01*
X184274057Y-76404639D01*
X184379667Y-76448385D01*
X184529021Y-76510249D01*
X184529022Y-76510250D01*
X184758486Y-76663572D01*
X184953628Y-76858714D01*
X185031209Y-76974823D01*
X185106951Y-77088179D01*
X185126445Y-77135242D01*
X185212561Y-77343143D01*
X185214339Y-77352081D01*
X185266400Y-77613812D01*
X185266400Y-77889788D01*
X185212561Y-78160456D01*
X185106951Y-78415421D01*
X185106950Y-78415422D01*
X184953628Y-78644886D01*
X184758486Y-78840028D01*
X184605163Y-78942475D01*
X184529021Y-78993351D01*
X184379667Y-79055215D01*
X184274057Y-79098961D01*
X184183833Y-79116907D01*
X184003388Y-79152800D01*
X183727412Y-79152800D01*
X183546967Y-79116907D01*
X183456743Y-79098961D01*
X183351133Y-79055215D01*
X183201779Y-78993351D01*
X183125637Y-78942475D01*
X182972314Y-78840028D01*
X182777172Y-78644886D01*
X182623850Y-78415422D01*
X182623849Y-78415421D01*
X182518239Y-78160456D01*
X182464400Y-77889788D01*
X182464400Y-77613812D01*
X182516461Y-77352081D01*
X182518239Y-77343143D01*
X182604355Y-77135242D01*
X182623849Y-77088179D01*
X182699591Y-76974823D01*
X182777172Y-76858714D01*
X182972314Y-76663572D01*
X183201778Y-76510250D01*
X183201779Y-76510249D01*
X183351133Y-76448385D01*
X183456743Y-76404639D01*
X183596505Y-76376839D01*
X183727412Y-76350800D01*
X184003388Y-76350800D01*
X184134295Y-76376839D01*
X184134295Y-76376839D01*
G37*
G36*
X74961433Y-76358893D02*
G01*
X75051657Y-76376839D01*
X75157267Y-76420585D01*
X75306621Y-76482449D01*
X75348228Y-76510250D01*
X75536086Y-76635772D01*
X75731228Y-76830914D01*
X75774436Y-76895580D01*
X75884551Y-77060379D01*
X75896066Y-77088179D01*
X75990161Y-77315343D01*
X76001993Y-77374829D01*
X76044000Y-77586012D01*
X76044000Y-77861988D01*
X76038470Y-77889788D01*
X75990161Y-78132657D01*
X75946415Y-78238267D01*
X75884551Y-78387621D01*
X75865975Y-78415422D01*
X75731228Y-78617086D01*
X75536086Y-78812228D01*
X75382763Y-78914675D01*
X75306621Y-78965551D01*
X75157267Y-79027415D01*
X75051657Y-79071161D01*
X74961433Y-79089107D01*
X74780988Y-79125000D01*
X74505012Y-79125000D01*
X74324567Y-79089107D01*
X74234343Y-79071161D01*
X74128733Y-79027415D01*
X73979379Y-78965551D01*
X73903237Y-78914675D01*
X73749914Y-78812228D01*
X73554772Y-78617086D01*
X73420025Y-78415422D01*
X73401449Y-78387621D01*
X73339585Y-78238267D01*
X73295839Y-78132657D01*
X73247530Y-77889788D01*
X73242000Y-77861988D01*
X73242000Y-77586012D01*
X73284007Y-77374829D01*
X73295839Y-77315343D01*
X73389934Y-77088179D01*
X73401449Y-77060379D01*
X73511564Y-76895580D01*
X73554772Y-76830914D01*
X73749914Y-76635772D01*
X73937772Y-76510250D01*
X73979379Y-76482449D01*
X74128733Y-76420585D01*
X74234343Y-76376839D01*
X74324567Y-76358893D01*
X74505012Y-76323000D01*
X74780988Y-76323000D01*
X74961433Y-76358893D01*
X74961433Y-76358893D01*
G37*
G36*
X163869000Y-78471000D02*
G01*
X162067000Y-78471000D01*
X162067000Y-76669000D01*
X163869000Y-76669000D01*
X163869000Y-78471000D01*
X163869000Y-78471000D01*
G37*
G36*
X155475200Y-77697200D02*
G01*
X153696800Y-77697200D01*
X153696800Y-75918800D01*
X155475200Y-75918800D01*
X155475200Y-77697200D01*
X155475200Y-77697200D01*
G37*
G36*
X147225369Y-75952971D02*
G01*
X147387195Y-76020002D01*
X147532829Y-76117311D01*
X147656689Y-76241171D01*
X147753998Y-76386805D01*
X147821029Y-76548631D01*
X147855200Y-76720420D01*
X147855200Y-76895580D01*
X147821029Y-77067369D01*
X147753998Y-77229195D01*
X147656689Y-77374829D01*
X147532829Y-77498689D01*
X147387195Y-77595998D01*
X147225369Y-77663029D01*
X147053580Y-77697200D01*
X146878420Y-77697200D01*
X146706631Y-77663029D01*
X146544805Y-77595998D01*
X146399171Y-77498689D01*
X146275311Y-77374829D01*
X146178002Y-77229195D01*
X146110971Y-77067369D01*
X146076800Y-76895580D01*
X146076800Y-76720420D01*
X146110971Y-76548631D01*
X146178002Y-76386805D01*
X146275311Y-76241171D01*
X146399171Y-76117311D01*
X146544805Y-76020002D01*
X146706631Y-75952971D01*
X146878420Y-75918800D01*
X147053580Y-75918800D01*
X147225369Y-75952971D01*
X147225369Y-75952971D01*
G37*
G36*
X152305369Y-75952971D02*
G01*
X152467195Y-76020002D01*
X152612829Y-76117311D01*
X152736689Y-76241171D01*
X152833998Y-76386805D01*
X152901029Y-76548631D01*
X152935200Y-76720420D01*
X152935200Y-76895580D01*
X152901029Y-77067369D01*
X152833998Y-77229195D01*
X152736689Y-77374829D01*
X152612829Y-77498689D01*
X152467195Y-77595998D01*
X152305369Y-77663029D01*
X152133580Y-77697200D01*
X151958420Y-77697200D01*
X151786631Y-77663029D01*
X151624805Y-77595998D01*
X151479171Y-77498689D01*
X151355311Y-77374829D01*
X151258002Y-77229195D01*
X151190971Y-77067369D01*
X151156800Y-76895580D01*
X151156800Y-76720420D01*
X151190971Y-76548631D01*
X151258002Y-76386805D01*
X151355311Y-76241171D01*
X151479171Y-76117311D01*
X151624805Y-76020002D01*
X151786631Y-75952971D01*
X151958420Y-75918800D01*
X152133580Y-75918800D01*
X152305369Y-75952971D01*
X152305369Y-75952971D01*
G37*
G36*
X149765369Y-75952971D02*
G01*
X149927195Y-76020002D01*
X150072829Y-76117311D01*
X150196689Y-76241171D01*
X150293998Y-76386805D01*
X150361029Y-76548631D01*
X150395200Y-76720420D01*
X150395200Y-76895580D01*
X150361029Y-77067369D01*
X150293998Y-77229195D01*
X150196689Y-77374829D01*
X150072829Y-77498689D01*
X149927195Y-77595998D01*
X149765369Y-77663029D01*
X149593580Y-77697200D01*
X149418420Y-77697200D01*
X149246631Y-77663029D01*
X149084805Y-77595998D01*
X148939171Y-77498689D01*
X148815311Y-77374829D01*
X148718002Y-77229195D01*
X148650971Y-77067369D01*
X148616800Y-76895580D01*
X148616800Y-76720420D01*
X148650971Y-76548631D01*
X148718002Y-76386805D01*
X148815311Y-76241171D01*
X148939171Y-76117311D01*
X149084805Y-76020002D01*
X149246631Y-75952971D01*
X149418420Y-75918800D01*
X149593580Y-75918800D01*
X149765369Y-75952971D01*
X149765369Y-75952971D01*
G37*
G36*
X97250828Y-75991303D02*
G01*
X97405700Y-76055453D01*
X97545081Y-76148585D01*
X97663615Y-76267119D01*
X97756747Y-76406500D01*
X97820897Y-76561372D01*
X97853600Y-76725784D01*
X97853600Y-76893416D01*
X97820897Y-77057828D01*
X97756747Y-77212700D01*
X97663615Y-77352081D01*
X97545081Y-77470615D01*
X97405700Y-77563747D01*
X97250828Y-77627897D01*
X97086416Y-77660600D01*
X96918784Y-77660600D01*
X96754372Y-77627897D01*
X96599500Y-77563747D01*
X96460119Y-77470615D01*
X96341585Y-77352081D01*
X96248453Y-77212700D01*
X96184303Y-77057828D01*
X96151600Y-76893416D01*
X96151600Y-76725784D01*
X96184303Y-76561372D01*
X96248453Y-76406500D01*
X96341585Y-76267119D01*
X96460119Y-76148585D01*
X96599500Y-76055453D01*
X96754372Y-75991303D01*
X96918784Y-75958600D01*
X97086416Y-75958600D01*
X97250828Y-75991303D01*
X97250828Y-75991303D01*
G37*
G36*
X79470828Y-75991303D02*
G01*
X79625700Y-76055453D01*
X79765081Y-76148585D01*
X79883615Y-76267119D01*
X79976747Y-76406500D01*
X80040897Y-76561372D01*
X80073600Y-76725784D01*
X80073600Y-76893416D01*
X80040897Y-77057828D01*
X79976747Y-77212700D01*
X79883615Y-77352081D01*
X79765081Y-77470615D01*
X79625700Y-77563747D01*
X79470828Y-77627897D01*
X79306416Y-77660600D01*
X79138784Y-77660600D01*
X78974372Y-77627897D01*
X78819500Y-77563747D01*
X78680119Y-77470615D01*
X78561585Y-77352081D01*
X78468453Y-77212700D01*
X78404303Y-77057828D01*
X78371600Y-76893416D01*
X78371600Y-76725784D01*
X78404303Y-76561372D01*
X78468453Y-76406500D01*
X78561585Y-76267119D01*
X78680119Y-76148585D01*
X78819500Y-76055453D01*
X78974372Y-75991303D01*
X79138784Y-75958600D01*
X79306416Y-75958600D01*
X79470828Y-75991303D01*
X79470828Y-75991303D01*
G37*
G36*
X82010828Y-75991303D02*
G01*
X82165700Y-76055453D01*
X82305081Y-76148585D01*
X82423615Y-76267119D01*
X82516747Y-76406500D01*
X82580897Y-76561372D01*
X82613600Y-76725784D01*
X82613600Y-76893416D01*
X82580897Y-77057828D01*
X82516747Y-77212700D01*
X82423615Y-77352081D01*
X82305081Y-77470615D01*
X82165700Y-77563747D01*
X82010828Y-77627897D01*
X81846416Y-77660600D01*
X81678784Y-77660600D01*
X81514372Y-77627897D01*
X81359500Y-77563747D01*
X81220119Y-77470615D01*
X81101585Y-77352081D01*
X81008453Y-77212700D01*
X80944303Y-77057828D01*
X80911600Y-76893416D01*
X80911600Y-76725784D01*
X80944303Y-76561372D01*
X81008453Y-76406500D01*
X81101585Y-76267119D01*
X81220119Y-76148585D01*
X81359500Y-76055453D01*
X81514372Y-75991303D01*
X81678784Y-75958600D01*
X81846416Y-75958600D01*
X82010828Y-75991303D01*
X82010828Y-75991303D01*
G37*
G36*
X84550828Y-75991303D02*
G01*
X84705700Y-76055453D01*
X84845081Y-76148585D01*
X84963615Y-76267119D01*
X85056747Y-76406500D01*
X85120897Y-76561372D01*
X85153600Y-76725784D01*
X85153600Y-76893416D01*
X85120897Y-77057828D01*
X85056747Y-77212700D01*
X84963615Y-77352081D01*
X84845081Y-77470615D01*
X84705700Y-77563747D01*
X84550828Y-77627897D01*
X84386416Y-77660600D01*
X84218784Y-77660600D01*
X84054372Y-77627897D01*
X83899500Y-77563747D01*
X83760119Y-77470615D01*
X83641585Y-77352081D01*
X83548453Y-77212700D01*
X83484303Y-77057828D01*
X83451600Y-76893416D01*
X83451600Y-76725784D01*
X83484303Y-76561372D01*
X83548453Y-76406500D01*
X83641585Y-76267119D01*
X83760119Y-76148585D01*
X83899500Y-76055453D01*
X84054372Y-75991303D01*
X84218784Y-75958600D01*
X84386416Y-75958600D01*
X84550828Y-75991303D01*
X84550828Y-75991303D01*
G37*
G36*
X87090828Y-75991303D02*
G01*
X87245700Y-76055453D01*
X87385081Y-76148585D01*
X87503615Y-76267119D01*
X87596747Y-76406500D01*
X87660897Y-76561372D01*
X87693600Y-76725784D01*
X87693600Y-76893416D01*
X87660897Y-77057828D01*
X87596747Y-77212700D01*
X87503615Y-77352081D01*
X87385081Y-77470615D01*
X87245700Y-77563747D01*
X87090828Y-77627897D01*
X86926416Y-77660600D01*
X86758784Y-77660600D01*
X86594372Y-77627897D01*
X86439500Y-77563747D01*
X86300119Y-77470615D01*
X86181585Y-77352081D01*
X86088453Y-77212700D01*
X86024303Y-77057828D01*
X85991600Y-76893416D01*
X85991600Y-76725784D01*
X86024303Y-76561372D01*
X86088453Y-76406500D01*
X86181585Y-76267119D01*
X86300119Y-76148585D01*
X86439500Y-76055453D01*
X86594372Y-75991303D01*
X86758784Y-75958600D01*
X86926416Y-75958600D01*
X87090828Y-75991303D01*
X87090828Y-75991303D01*
G37*
G36*
X89630828Y-75991303D02*
G01*
X89785700Y-76055453D01*
X89925081Y-76148585D01*
X90043615Y-76267119D01*
X90136747Y-76406500D01*
X90200897Y-76561372D01*
X90233600Y-76725784D01*
X90233600Y-76893416D01*
X90200897Y-77057828D01*
X90136747Y-77212700D01*
X90043615Y-77352081D01*
X89925081Y-77470615D01*
X89785700Y-77563747D01*
X89630828Y-77627897D01*
X89466416Y-77660600D01*
X89298784Y-77660600D01*
X89134372Y-77627897D01*
X88979500Y-77563747D01*
X88840119Y-77470615D01*
X88721585Y-77352081D01*
X88628453Y-77212700D01*
X88564303Y-77057828D01*
X88531600Y-76893416D01*
X88531600Y-76725784D01*
X88564303Y-76561372D01*
X88628453Y-76406500D01*
X88721585Y-76267119D01*
X88840119Y-76148585D01*
X88979500Y-76055453D01*
X89134372Y-75991303D01*
X89298784Y-75958600D01*
X89466416Y-75958600D01*
X89630828Y-75991303D01*
X89630828Y-75991303D01*
G37*
G36*
X92170828Y-75991303D02*
G01*
X92325700Y-76055453D01*
X92465081Y-76148585D01*
X92583615Y-76267119D01*
X92676747Y-76406500D01*
X92740897Y-76561372D01*
X92773600Y-76725784D01*
X92773600Y-76893416D01*
X92740897Y-77057828D01*
X92676747Y-77212700D01*
X92583615Y-77352081D01*
X92465081Y-77470615D01*
X92325700Y-77563747D01*
X92170828Y-77627897D01*
X92006416Y-77660600D01*
X91838784Y-77660600D01*
X91674372Y-77627897D01*
X91519500Y-77563747D01*
X91380119Y-77470615D01*
X91261585Y-77352081D01*
X91168453Y-77212700D01*
X91104303Y-77057828D01*
X91071600Y-76893416D01*
X91071600Y-76725784D01*
X91104303Y-76561372D01*
X91168453Y-76406500D01*
X91261585Y-76267119D01*
X91380119Y-76148585D01*
X91519500Y-76055453D01*
X91674372Y-75991303D01*
X91838784Y-75958600D01*
X92006416Y-75958600D01*
X92170828Y-75991303D01*
X92170828Y-75991303D01*
G37*
G36*
X99790828Y-75991303D02*
G01*
X99945700Y-76055453D01*
X100085081Y-76148585D01*
X100203615Y-76267119D01*
X100296747Y-76406500D01*
X100360897Y-76561372D01*
X100393600Y-76725784D01*
X100393600Y-76893416D01*
X100360897Y-77057828D01*
X100296747Y-77212700D01*
X100203615Y-77352081D01*
X100085081Y-77470615D01*
X99945700Y-77563747D01*
X99790828Y-77627897D01*
X99626416Y-77660600D01*
X99458784Y-77660600D01*
X99294372Y-77627897D01*
X99139500Y-77563747D01*
X99000119Y-77470615D01*
X98881585Y-77352081D01*
X98788453Y-77212700D01*
X98724303Y-77057828D01*
X98691600Y-76893416D01*
X98691600Y-76725784D01*
X98724303Y-76561372D01*
X98788453Y-76406500D01*
X98881585Y-76267119D01*
X99000119Y-76148585D01*
X99139500Y-76055453D01*
X99294372Y-75991303D01*
X99458784Y-75958600D01*
X99626416Y-75958600D01*
X99790828Y-75991303D01*
X99790828Y-75991303D01*
G37*
G36*
X113093600Y-77660600D02*
G01*
X111391600Y-77660600D01*
X111391600Y-75958600D01*
X113093600Y-75958600D01*
X113093600Y-77660600D01*
X113093600Y-77660600D01*
G37*
G36*
X109950828Y-75991303D02*
G01*
X110105700Y-76055453D01*
X110245081Y-76148585D01*
X110363615Y-76267119D01*
X110456747Y-76406500D01*
X110520897Y-76561372D01*
X110553600Y-76725784D01*
X110553600Y-76893416D01*
X110520897Y-77057828D01*
X110456747Y-77212700D01*
X110363615Y-77352081D01*
X110245081Y-77470615D01*
X110105700Y-77563747D01*
X109950828Y-77627897D01*
X109786416Y-77660600D01*
X109618784Y-77660600D01*
X109454372Y-77627897D01*
X109299500Y-77563747D01*
X109160119Y-77470615D01*
X109041585Y-77352081D01*
X108948453Y-77212700D01*
X108884303Y-77057828D01*
X108851600Y-76893416D01*
X108851600Y-76725784D01*
X108884303Y-76561372D01*
X108948453Y-76406500D01*
X109041585Y-76267119D01*
X109160119Y-76148585D01*
X109299500Y-76055453D01*
X109454372Y-75991303D01*
X109618784Y-75958600D01*
X109786416Y-75958600D01*
X109950828Y-75991303D01*
X109950828Y-75991303D01*
G37*
G36*
X107410828Y-75991303D02*
G01*
X107565700Y-76055453D01*
X107705081Y-76148585D01*
X107823615Y-76267119D01*
X107916747Y-76406500D01*
X107980897Y-76561372D01*
X108013600Y-76725784D01*
X108013600Y-76893416D01*
X107980897Y-77057828D01*
X107916747Y-77212700D01*
X107823615Y-77352081D01*
X107705081Y-77470615D01*
X107565700Y-77563747D01*
X107410828Y-77627897D01*
X107246416Y-77660600D01*
X107078784Y-77660600D01*
X106914372Y-77627897D01*
X106759500Y-77563747D01*
X106620119Y-77470615D01*
X106501585Y-77352081D01*
X106408453Y-77212700D01*
X106344303Y-77057828D01*
X106311600Y-76893416D01*
X106311600Y-76725784D01*
X106344303Y-76561372D01*
X106408453Y-76406500D01*
X106501585Y-76267119D01*
X106620119Y-76148585D01*
X106759500Y-76055453D01*
X106914372Y-75991303D01*
X107078784Y-75958600D01*
X107246416Y-75958600D01*
X107410828Y-75991303D01*
X107410828Y-75991303D01*
G37*
G36*
X104870828Y-75991303D02*
G01*
X105025700Y-76055453D01*
X105165081Y-76148585D01*
X105283615Y-76267119D01*
X105376747Y-76406500D01*
X105440897Y-76561372D01*
X105473600Y-76725784D01*
X105473600Y-76893416D01*
X105440897Y-77057828D01*
X105376747Y-77212700D01*
X105283615Y-77352081D01*
X105165081Y-77470615D01*
X105025700Y-77563747D01*
X104870828Y-77627897D01*
X104706416Y-77660600D01*
X104538784Y-77660600D01*
X104374372Y-77627897D01*
X104219500Y-77563747D01*
X104080119Y-77470615D01*
X103961585Y-77352081D01*
X103868453Y-77212700D01*
X103804303Y-77057828D01*
X103771600Y-76893416D01*
X103771600Y-76725784D01*
X103804303Y-76561372D01*
X103868453Y-76406500D01*
X103961585Y-76267119D01*
X104080119Y-76148585D01*
X104219500Y-76055453D01*
X104374372Y-75991303D01*
X104538784Y-75958600D01*
X104706416Y-75958600D01*
X104870828Y-75991303D01*
X104870828Y-75991303D01*
G37*
G36*
X94710828Y-75991303D02*
G01*
X94865700Y-76055453D01*
X95005081Y-76148585D01*
X95123615Y-76267119D01*
X95216747Y-76406500D01*
X95280897Y-76561372D01*
X95313600Y-76725784D01*
X95313600Y-76893416D01*
X95280897Y-77057828D01*
X95216747Y-77212700D01*
X95123615Y-77352081D01*
X95005081Y-77470615D01*
X94865700Y-77563747D01*
X94710828Y-77627897D01*
X94546416Y-77660600D01*
X94378784Y-77660600D01*
X94214372Y-77627897D01*
X94059500Y-77563747D01*
X93920119Y-77470615D01*
X93801585Y-77352081D01*
X93708453Y-77212700D01*
X93644303Y-77057828D01*
X93611600Y-76893416D01*
X93611600Y-76725784D01*
X93644303Y-76561372D01*
X93708453Y-76406500D01*
X93801585Y-76267119D01*
X93920119Y-76148585D01*
X94059500Y-76055453D01*
X94214372Y-75991303D01*
X94378784Y-75958600D01*
X94546416Y-75958600D01*
X94710828Y-75991303D01*
X94710828Y-75991303D01*
G37*
G36*
X102330828Y-75991303D02*
G01*
X102485700Y-76055453D01*
X102625081Y-76148585D01*
X102743615Y-76267119D01*
X102836747Y-76406500D01*
X102900897Y-76561372D01*
X102933600Y-76725784D01*
X102933600Y-76893416D01*
X102900897Y-77057828D01*
X102836747Y-77212700D01*
X102743615Y-77352081D01*
X102625081Y-77470615D01*
X102485700Y-77563747D01*
X102330828Y-77627897D01*
X102166416Y-77660600D01*
X101998784Y-77660600D01*
X101834372Y-77627897D01*
X101679500Y-77563747D01*
X101540119Y-77470615D01*
X101421585Y-77352081D01*
X101328453Y-77212700D01*
X101264303Y-77057828D01*
X101231600Y-76893416D01*
X101231600Y-76725784D01*
X101264303Y-76561372D01*
X101328453Y-76406500D01*
X101421585Y-76267119D01*
X101540119Y-76148585D01*
X101679500Y-76055453D01*
X101834372Y-75991303D01*
X101998784Y-75958600D01*
X102166416Y-75958600D01*
X102330828Y-75991303D01*
X102330828Y-75991303D01*
G37*
G36*
X140020823Y-75969313D02*
G01*
X140181242Y-76017976D01*
X140251356Y-76055453D01*
X140329078Y-76096996D01*
X140458659Y-76203341D01*
X140565004Y-76332922D01*
X140565005Y-76332924D01*
X140644024Y-76480758D01*
X140692687Y-76641177D01*
X140709117Y-76808000D01*
X140692687Y-76974823D01*
X140644024Y-77135242D01*
X140593805Y-77229195D01*
X140565004Y-77283078D01*
X140458659Y-77412659D01*
X140329078Y-77519004D01*
X140329076Y-77519005D01*
X140181242Y-77598024D01*
X140020823Y-77646687D01*
X139895804Y-77659000D01*
X139812196Y-77659000D01*
X139687177Y-77646687D01*
X139526758Y-77598024D01*
X139378924Y-77519005D01*
X139378922Y-77519004D01*
X139249341Y-77412659D01*
X139142996Y-77283078D01*
X139114195Y-77229195D01*
X139063976Y-77135242D01*
X139015313Y-76974823D01*
X138998883Y-76808000D01*
X139015313Y-76641177D01*
X139063976Y-76480758D01*
X139142995Y-76332924D01*
X139142996Y-76332922D01*
X139249341Y-76203341D01*
X139378922Y-76096996D01*
X139456644Y-76055453D01*
X139526758Y-76017976D01*
X139687177Y-75969313D01*
X139812196Y-75957000D01*
X139895804Y-75957000D01*
X140020823Y-75969313D01*
X140020823Y-75969313D01*
G37*
G36*
X143576823Y-75969313D02*
G01*
X143737242Y-76017976D01*
X143807356Y-76055453D01*
X143885078Y-76096996D01*
X144014659Y-76203341D01*
X144121004Y-76332922D01*
X144121005Y-76332924D01*
X144200024Y-76480758D01*
X144248687Y-76641177D01*
X144265117Y-76808000D01*
X144248687Y-76974823D01*
X144200024Y-77135242D01*
X144149805Y-77229195D01*
X144121004Y-77283078D01*
X144014659Y-77412659D01*
X143885078Y-77519004D01*
X143885076Y-77519005D01*
X143737242Y-77598024D01*
X143576823Y-77646687D01*
X143451804Y-77659000D01*
X143368196Y-77659000D01*
X143243177Y-77646687D01*
X143082758Y-77598024D01*
X142934924Y-77519005D01*
X142934922Y-77519004D01*
X142805341Y-77412659D01*
X142698996Y-77283078D01*
X142670195Y-77229195D01*
X142619976Y-77135242D01*
X142571313Y-76974823D01*
X142554883Y-76808000D01*
X142571313Y-76641177D01*
X142619976Y-76480758D01*
X142698995Y-76332924D01*
X142698996Y-76332922D01*
X142805341Y-76203341D01*
X142934922Y-76096996D01*
X143012644Y-76055453D01*
X143082758Y-76017976D01*
X143243177Y-75969313D01*
X143368196Y-75957000D01*
X143451804Y-75957000D01*
X143576823Y-75969313D01*
X143576823Y-75969313D01*
G37*
M02*
