M48
; DRILL file {KiCad (5.1.4)-1} date 06.09.2019 16:55:54
; FORMAT={-:-/ absolute / inch / decimal}
; #@! TF.CreationDate,2019-09-06T16:55:54+02:00
; #@! TF.GenerationSoftware,Kicad,Pcbnew,(5.1.4)-1
; #@! TF.FileFunction,Plated,1,2,PTH
FMAT,2
INCH
T1C0.0315
T2C0.0394
T3C0.0433
T4C0.0440
%
G90
G05
T1
X5.5061Y-3.0239
X5.5061Y-3.4239
X5.843Y-3.613
X6.0399Y-3.613
X6.2531Y-3.1511
X6.2531Y-3.3479
X2.477Y-3.626
X2.6739Y-3.626
X5.6461Y-3.0239
X5.6461Y-3.4239
T2
X2.63Y-3.15
X2.63Y-3.25
X2.63Y-3.35
X2.73Y-3.15
X2.73Y-3.25
X2.73Y-3.35
X6.5861Y-3.3339
X6.5861Y-3.4339
X6.5861Y-3.5339
X6.5861Y-3.6339
X5.36Y-3.62
X5.46Y-3.62
X6.4161Y-3.0539
X6.4161Y-3.1539
X6.4161Y-3.2539
X6.4161Y-3.3539
T3
X3.119Y-3.024
X3.119Y-3.124
X3.119Y-3.224
X3.119Y-3.324
X3.119Y-3.424
X3.119Y-3.524
X3.119Y-3.624
X3.219Y-3.024
X3.219Y-3.624
X3.319Y-3.024
X3.319Y-3.624
X3.419Y-3.024
X3.419Y-3.624
X3.519Y-3.024
X3.519Y-3.624
X3.619Y-3.024
X3.619Y-3.624
X3.719Y-3.024
X3.719Y-3.624
X3.819Y-3.024
X3.819Y-3.624
X3.919Y-3.024
X3.919Y-3.624
X4.019Y-3.024
X4.019Y-3.624
X4.119Y-3.024
X4.119Y-3.624
X4.219Y-3.024
X4.219Y-3.624
X4.319Y-3.024
X4.319Y-3.524
X4.319Y-3.624
X4.419Y-3.024
X4.419Y-3.624
T4
X5.7861Y-3.0239
X5.7861Y-3.3239
X5.8861Y-3.0239
X5.8861Y-3.3239
X5.9861Y-3.0239
X5.9861Y-3.3239
X6.0861Y-3.0239
X6.0861Y-3.3239
T0
M30
