G04 #@! TF.GenerationSoftware,KiCad,Pcbnew,5.1.5+dfsg1-2build2*
G04 #@! TF.CreationDate,2021-04-27T21:08:24+02:00*
G04 #@! TF.ProjectId,ICS-43434-PCB,4943532d-3433-4343-9334-2d5043422e6b,rev?*
G04 #@! TF.SameCoordinates,Original*
G04 #@! TF.FileFunction,Paste,Top*
G04 #@! TF.FilePolarity,Positive*
%FSLAX46Y46*%
G04 Gerber Fmt 4.6, Leading zero omitted, Abs format (unit mm)*
G04 Created by KiCad (PCBNEW 5.1.5+dfsg1-2build2) date 2021-04-27 21:08:24*
%MOMM*%
%LPD*%
G04 APERTURE LIST*
%ADD10C,0.001000*%
%ADD11R,0.600000X0.522000*%
%ADD12R,0.100000X0.100000*%
%ADD13C,0.100000*%
%ADD14R,1.200000X1.800000*%
%ADD15R,0.600000X1.550000*%
G04 APERTURE END LIST*
D10*
G36*
X98850000Y-103572000D02*
G01*
X98850000Y-103150000D01*
X99350000Y-103150000D01*
X99350000Y-103572000D01*
X98850000Y-103572000D01*
G37*
X98850000Y-103572000D02*
X98850000Y-103150000D01*
X99350000Y-103150000D01*
X99350000Y-103572000D01*
X98850000Y-103572000D01*
G36*
X98850000Y-102750000D02*
G01*
X98850000Y-102328000D01*
X99350000Y-102328000D01*
X99350000Y-102750000D01*
X98850000Y-102750000D01*
G37*
X98850000Y-102750000D02*
X98850000Y-102328000D01*
X99350000Y-102328000D01*
X99350000Y-102750000D01*
X98850000Y-102750000D01*
G36*
X100650000Y-103572000D02*
G01*
X100650000Y-103150000D01*
X101150000Y-103150000D01*
X101150000Y-103572000D01*
X100650000Y-103572000D01*
G37*
X100650000Y-103572000D02*
X100650000Y-103150000D01*
X101150000Y-103150000D01*
X101150000Y-103572000D01*
X100650000Y-103572000D01*
G36*
X100650000Y-102750000D02*
G01*
X100650000Y-102328000D01*
X101150000Y-102328000D01*
X101150000Y-102750000D01*
X100650000Y-102750000D01*
G37*
X100650000Y-102750000D02*
X100650000Y-102328000D01*
X101150000Y-102328000D01*
X101150000Y-102750000D01*
X100650000Y-102750000D01*
G36*
X99950000Y-101797000D02*
G01*
X99940543Y-101796178D01*
X99917069Y-101793018D01*
X99893766Y-101788770D01*
X99870687Y-101783441D01*
X99847881Y-101777045D01*
X99825396Y-101769595D01*
X99803283Y-101761106D01*
X99781589Y-101751598D01*
X99760360Y-101741091D01*
X99739643Y-101729608D01*
X99719483Y-101717173D01*
X99699924Y-101703814D01*
X99681007Y-101689559D01*
X99662774Y-101674440D01*
X99645264Y-101658488D01*
X99628515Y-101641740D01*
X99612563Y-101624230D01*
X99597443Y-101605997D01*
X99583189Y-101587080D01*
X99569829Y-101567520D01*
X99557394Y-101547360D01*
X99545911Y-101526644D01*
X99535403Y-101505415D01*
X99525895Y-101483721D01*
X99517407Y-101461608D01*
X99509956Y-101439124D01*
X99503560Y-101416317D01*
X99498231Y-101393238D01*
X99493982Y-101369935D01*
X99490822Y-101346461D01*
X99490000Y-101337000D01*
X99190000Y-101337000D01*
X99190993Y-101355957D01*
X99194964Y-101395048D01*
X99200839Y-101433898D01*
X99208605Y-101472415D01*
X99218244Y-101510507D01*
X99229731Y-101548082D01*
X99243041Y-101585051D01*
X99258141Y-101621326D01*
X99274994Y-101656820D01*
X99293562Y-101691449D01*
X99313798Y-101725129D01*
X99335656Y-101757780D01*
X99359083Y-101789324D01*
X99384023Y-101819687D01*
X99410416Y-101848795D01*
X99438200Y-101876579D01*
X99467307Y-101902972D01*
X99497669Y-101927912D01*
X99529214Y-101951339D01*
X99561865Y-101973197D01*
X99595545Y-101993435D01*
X99630173Y-102012002D01*
X99665667Y-102028856D01*
X99701941Y-102043956D01*
X99738911Y-102057266D01*
X99776486Y-102068754D01*
X99814577Y-102078393D01*
X99853094Y-102086160D01*
X99891945Y-102092035D01*
X99931035Y-102096006D01*
X99950000Y-102097000D01*
X99950000Y-101797000D01*
G37*
X99950000Y-101797000D02*
X99940543Y-101796178D01*
X99917069Y-101793018D01*
X99893766Y-101788770D01*
X99870687Y-101783441D01*
X99847881Y-101777045D01*
X99825396Y-101769595D01*
X99803283Y-101761106D01*
X99781589Y-101751598D01*
X99760360Y-101741091D01*
X99739643Y-101729608D01*
X99719483Y-101717173D01*
X99699924Y-101703814D01*
X99681007Y-101689559D01*
X99662774Y-101674440D01*
X99645264Y-101658488D01*
X99628515Y-101641740D01*
X99612563Y-101624230D01*
X99597443Y-101605997D01*
X99583189Y-101587080D01*
X99569829Y-101567520D01*
X99557394Y-101547360D01*
X99545911Y-101526644D01*
X99535403Y-101505415D01*
X99525895Y-101483721D01*
X99517407Y-101461608D01*
X99509956Y-101439124D01*
X99503560Y-101416317D01*
X99498231Y-101393238D01*
X99493982Y-101369935D01*
X99490822Y-101346461D01*
X99490000Y-101337000D01*
X99190000Y-101337000D01*
X99190993Y-101355957D01*
X99194964Y-101395048D01*
X99200839Y-101433898D01*
X99208605Y-101472415D01*
X99218244Y-101510507D01*
X99229731Y-101548082D01*
X99243041Y-101585051D01*
X99258141Y-101621326D01*
X99274994Y-101656820D01*
X99293562Y-101691449D01*
X99313798Y-101725129D01*
X99335656Y-101757780D01*
X99359083Y-101789324D01*
X99384023Y-101819687D01*
X99410416Y-101848795D01*
X99438200Y-101876579D01*
X99467307Y-101902972D01*
X99497669Y-101927912D01*
X99529214Y-101951339D01*
X99561865Y-101973197D01*
X99595545Y-101993435D01*
X99630173Y-102012002D01*
X99665667Y-102028856D01*
X99701941Y-102043956D01*
X99738911Y-102057266D01*
X99776486Y-102068754D01*
X99814577Y-102078393D01*
X99853094Y-102086160D01*
X99891945Y-102092035D01*
X99931035Y-102096006D01*
X99950000Y-102097000D01*
X99950000Y-101797000D01*
G36*
X100510000Y-101337000D02*
G01*
X100509178Y-101346456D01*
X100506018Y-101369931D01*
X100501770Y-101393234D01*
X100496441Y-101416313D01*
X100490045Y-101439119D01*
X100482595Y-101461604D01*
X100474106Y-101483717D01*
X100464598Y-101505411D01*
X100454091Y-101526640D01*
X100442608Y-101547357D01*
X100430173Y-101567517D01*
X100416814Y-101587076D01*
X100402559Y-101605993D01*
X100387440Y-101624226D01*
X100371488Y-101641736D01*
X100354740Y-101658485D01*
X100337230Y-101674437D01*
X100318997Y-101689557D01*
X100300080Y-101703811D01*
X100280520Y-101717171D01*
X100260360Y-101729606D01*
X100239644Y-101741089D01*
X100218415Y-101751597D01*
X100196721Y-101761105D01*
X100174608Y-101769593D01*
X100152124Y-101777044D01*
X100129317Y-101783440D01*
X100106238Y-101788769D01*
X100082936Y-101793018D01*
X100059461Y-101796178D01*
X100050000Y-101797000D01*
X100050000Y-102097000D01*
X100068957Y-102096007D01*
X100108048Y-102092036D01*
X100146898Y-102086161D01*
X100185415Y-102078395D01*
X100223507Y-102068756D01*
X100261082Y-102057269D01*
X100298051Y-102043959D01*
X100334326Y-102028859D01*
X100369820Y-102012006D01*
X100404449Y-101993438D01*
X100438129Y-101973202D01*
X100470780Y-101951344D01*
X100502324Y-101927917D01*
X100532687Y-101902977D01*
X100561795Y-101876584D01*
X100589579Y-101848800D01*
X100615972Y-101819693D01*
X100640912Y-101789331D01*
X100664339Y-101757786D01*
X100686197Y-101725135D01*
X100706435Y-101691455D01*
X100725002Y-101656827D01*
X100741856Y-101621333D01*
X100756956Y-101585059D01*
X100770266Y-101548089D01*
X100781754Y-101510514D01*
X100791393Y-101472423D01*
X100799160Y-101433906D01*
X100805035Y-101395055D01*
X100809006Y-101355965D01*
X100810000Y-101337000D01*
X100510000Y-101337000D01*
G37*
X100510000Y-101337000D02*
X100509178Y-101346456D01*
X100506018Y-101369931D01*
X100501770Y-101393234D01*
X100496441Y-101416313D01*
X100490045Y-101439119D01*
X100482595Y-101461604D01*
X100474106Y-101483717D01*
X100464598Y-101505411D01*
X100454091Y-101526640D01*
X100442608Y-101547357D01*
X100430173Y-101567517D01*
X100416814Y-101587076D01*
X100402559Y-101605993D01*
X100387440Y-101624226D01*
X100371488Y-101641736D01*
X100354740Y-101658485D01*
X100337230Y-101674437D01*
X100318997Y-101689557D01*
X100300080Y-101703811D01*
X100280520Y-101717171D01*
X100260360Y-101729606D01*
X100239644Y-101741089D01*
X100218415Y-101751597D01*
X100196721Y-101761105D01*
X100174608Y-101769593D01*
X100152124Y-101777044D01*
X100129317Y-101783440D01*
X100106238Y-101788769D01*
X100082936Y-101793018D01*
X100059461Y-101796178D01*
X100050000Y-101797000D01*
X100050000Y-102097000D01*
X100068957Y-102096007D01*
X100108048Y-102092036D01*
X100146898Y-102086161D01*
X100185415Y-102078395D01*
X100223507Y-102068756D01*
X100261082Y-102057269D01*
X100298051Y-102043959D01*
X100334326Y-102028859D01*
X100369820Y-102012006D01*
X100404449Y-101993438D01*
X100438129Y-101973202D01*
X100470780Y-101951344D01*
X100502324Y-101927917D01*
X100532687Y-101902977D01*
X100561795Y-101876584D01*
X100589579Y-101848800D01*
X100615972Y-101819693D01*
X100640912Y-101789331D01*
X100664339Y-101757786D01*
X100686197Y-101725135D01*
X100706435Y-101691455D01*
X100725002Y-101656827D01*
X100741856Y-101621333D01*
X100756956Y-101585059D01*
X100770266Y-101548089D01*
X100781754Y-101510514D01*
X100791393Y-101472423D01*
X100799160Y-101433906D01*
X100805035Y-101395055D01*
X100809006Y-101355965D01*
X100810000Y-101337000D01*
X100510000Y-101337000D01*
G36*
X100050000Y-100777000D02*
G01*
X100059457Y-100777820D01*
X100082931Y-100780980D01*
X100106234Y-100785230D01*
X100129313Y-100790560D01*
X100152119Y-100796950D01*
X100174604Y-100804410D01*
X100196717Y-100812890D01*
X100218411Y-100822400D01*
X100239640Y-100832910D01*
X100260357Y-100844390D01*
X100280517Y-100856830D01*
X100300076Y-100870190D01*
X100318993Y-100884440D01*
X100337226Y-100899560D01*
X100354736Y-100915510D01*
X100371485Y-100932260D01*
X100387437Y-100949770D01*
X100402557Y-100968000D01*
X100416811Y-100986920D01*
X100430171Y-101006480D01*
X100442606Y-101026640D01*
X100454089Y-101047356D01*
X100464597Y-101068585D01*
X100474105Y-101090279D01*
X100482593Y-101112392D01*
X100490044Y-101134876D01*
X100496440Y-101157683D01*
X100501769Y-101180762D01*
X100506018Y-101204065D01*
X100509178Y-101227539D01*
X100510000Y-101237000D01*
X100810000Y-101237000D01*
X100809007Y-101218043D01*
X100805036Y-101178952D01*
X100799161Y-101140102D01*
X100791395Y-101101585D01*
X100781756Y-101063493D01*
X100770269Y-101025918D01*
X100756959Y-100988950D01*
X100741859Y-100952670D01*
X100725006Y-100917180D01*
X100706438Y-100882550D01*
X100686202Y-100848870D01*
X100664344Y-100816220D01*
X100640917Y-100784680D01*
X100615977Y-100754310D01*
X100589584Y-100725210D01*
X100561800Y-100697420D01*
X100532693Y-100671030D01*
X100502331Y-100646090D01*
X100470786Y-100622660D01*
X100438135Y-100600800D01*
X100404455Y-100580570D01*
X100369827Y-100562000D01*
X100334333Y-100545140D01*
X100298059Y-100530040D01*
X100261089Y-100516730D01*
X100223514Y-100505250D01*
X100185423Y-100495610D01*
X100146906Y-100487840D01*
X100108055Y-100481960D01*
X100068965Y-100477990D01*
X100050000Y-100477000D01*
X100050000Y-100777000D01*
G37*
X100050000Y-100777000D02*
X100059457Y-100777820D01*
X100082931Y-100780980D01*
X100106234Y-100785230D01*
X100129313Y-100790560D01*
X100152119Y-100796950D01*
X100174604Y-100804410D01*
X100196717Y-100812890D01*
X100218411Y-100822400D01*
X100239640Y-100832910D01*
X100260357Y-100844390D01*
X100280517Y-100856830D01*
X100300076Y-100870190D01*
X100318993Y-100884440D01*
X100337226Y-100899560D01*
X100354736Y-100915510D01*
X100371485Y-100932260D01*
X100387437Y-100949770D01*
X100402557Y-100968000D01*
X100416811Y-100986920D01*
X100430171Y-101006480D01*
X100442606Y-101026640D01*
X100454089Y-101047356D01*
X100464597Y-101068585D01*
X100474105Y-101090279D01*
X100482593Y-101112392D01*
X100490044Y-101134876D01*
X100496440Y-101157683D01*
X100501769Y-101180762D01*
X100506018Y-101204065D01*
X100509178Y-101227539D01*
X100510000Y-101237000D01*
X100810000Y-101237000D01*
X100809007Y-101218043D01*
X100805036Y-101178952D01*
X100799161Y-101140102D01*
X100791395Y-101101585D01*
X100781756Y-101063493D01*
X100770269Y-101025918D01*
X100756959Y-100988950D01*
X100741859Y-100952670D01*
X100725006Y-100917180D01*
X100706438Y-100882550D01*
X100686202Y-100848870D01*
X100664344Y-100816220D01*
X100640917Y-100784680D01*
X100615977Y-100754310D01*
X100589584Y-100725210D01*
X100561800Y-100697420D01*
X100532693Y-100671030D01*
X100502331Y-100646090D01*
X100470786Y-100622660D01*
X100438135Y-100600800D01*
X100404455Y-100580570D01*
X100369827Y-100562000D01*
X100334333Y-100545140D01*
X100298059Y-100530040D01*
X100261089Y-100516730D01*
X100223514Y-100505250D01*
X100185423Y-100495610D01*
X100146906Y-100487840D01*
X100108055Y-100481960D01*
X100068965Y-100477990D01*
X100050000Y-100477000D01*
X100050000Y-100777000D01*
G36*
X99490000Y-101237000D02*
G01*
X99490822Y-101227544D01*
X99493982Y-101204069D01*
X99498230Y-101180766D01*
X99503559Y-101157687D01*
X99509955Y-101134881D01*
X99517405Y-101112396D01*
X99525894Y-101090283D01*
X99535402Y-101068589D01*
X99545909Y-101047360D01*
X99557392Y-101026643D01*
X99569827Y-101006483D01*
X99583186Y-100986920D01*
X99597441Y-100968010D01*
X99612560Y-100949770D01*
X99628512Y-100932260D01*
X99645260Y-100915510D01*
X99662770Y-100899560D01*
X99681003Y-100884440D01*
X99699920Y-100870190D01*
X99719480Y-100856830D01*
X99739640Y-100844390D01*
X99760356Y-100832910D01*
X99781585Y-100822400D01*
X99803279Y-100812900D01*
X99825392Y-100804410D01*
X99847876Y-100796960D01*
X99870683Y-100790560D01*
X99893762Y-100785230D01*
X99917064Y-100780980D01*
X99940539Y-100777820D01*
X99950000Y-100777000D01*
X99950000Y-100477000D01*
X99931043Y-100477990D01*
X99891952Y-100481960D01*
X99853102Y-100487840D01*
X99814585Y-100495610D01*
X99776493Y-100505240D01*
X99738918Y-100516730D01*
X99701949Y-100530040D01*
X99665674Y-100545140D01*
X99630180Y-100561990D01*
X99595551Y-100580560D01*
X99561871Y-100600800D01*
X99529220Y-100622660D01*
X99497676Y-100646080D01*
X99467313Y-100671020D01*
X99438205Y-100697420D01*
X99410421Y-100725200D01*
X99384028Y-100754310D01*
X99359088Y-100784670D01*
X99335661Y-100816210D01*
X99313803Y-100848860D01*
X99293565Y-100882540D01*
X99274998Y-100917170D01*
X99258144Y-100952670D01*
X99243044Y-100988940D01*
X99229734Y-101025911D01*
X99218246Y-101063486D01*
X99208607Y-101101577D01*
X99200840Y-101140094D01*
X99194965Y-101178945D01*
X99190994Y-101218035D01*
X99190000Y-101237000D01*
X99490000Y-101237000D01*
G37*
X99490000Y-101237000D02*
X99490822Y-101227544D01*
X99493982Y-101204069D01*
X99498230Y-101180766D01*
X99503559Y-101157687D01*
X99509955Y-101134881D01*
X99517405Y-101112396D01*
X99525894Y-101090283D01*
X99535402Y-101068589D01*
X99545909Y-101047360D01*
X99557392Y-101026643D01*
X99569827Y-101006483D01*
X99583186Y-100986920D01*
X99597441Y-100968010D01*
X99612560Y-100949770D01*
X99628512Y-100932260D01*
X99645260Y-100915510D01*
X99662770Y-100899560D01*
X99681003Y-100884440D01*
X99699920Y-100870190D01*
X99719480Y-100856830D01*
X99739640Y-100844390D01*
X99760356Y-100832910D01*
X99781585Y-100822400D01*
X99803279Y-100812900D01*
X99825392Y-100804410D01*
X99847876Y-100796960D01*
X99870683Y-100790560D01*
X99893762Y-100785230D01*
X99917064Y-100780980D01*
X99940539Y-100777820D01*
X99950000Y-100777000D01*
X99950000Y-100477000D01*
X99931043Y-100477990D01*
X99891952Y-100481960D01*
X99853102Y-100487840D01*
X99814585Y-100495610D01*
X99776493Y-100505240D01*
X99738918Y-100516730D01*
X99701949Y-100530040D01*
X99665674Y-100545140D01*
X99630180Y-100561990D01*
X99595551Y-100580560D01*
X99561871Y-100600800D01*
X99529220Y-100622660D01*
X99497676Y-100646080D01*
X99467313Y-100671020D01*
X99438205Y-100697420D01*
X99410421Y-100725200D01*
X99384028Y-100754310D01*
X99359088Y-100784670D01*
X99335661Y-100816210D01*
X99313803Y-100848860D01*
X99293565Y-100882540D01*
X99274998Y-100917170D01*
X99258144Y-100952670D01*
X99243044Y-100988940D01*
X99229734Y-101025911D01*
X99218246Y-101063486D01*
X99208607Y-101101577D01*
X99200840Y-101140094D01*
X99194965Y-101178945D01*
X99190994Y-101218035D01*
X99190000Y-101237000D01*
X99490000Y-101237000D01*
G36*
X99750000Y-103572000D02*
G01*
X99750000Y-103150000D01*
X100250000Y-103150000D01*
X100250000Y-103572000D01*
X99750000Y-103572000D01*
G37*
X99750000Y-103572000D02*
X99750000Y-103150000D01*
X100250000Y-103150000D01*
X100250000Y-103572000D01*
X99750000Y-103572000D01*
D11*
X100900000Y-103361000D03*
X100900000Y-102539000D03*
D12*
X100015500Y-100617000D03*
D11*
X99100000Y-102539000D03*
X99100000Y-103361000D03*
X100000000Y-103361000D03*
D13*
G36*
X103777691Y-101076053D02*
G01*
X103798926Y-101079203D01*
X103819750Y-101084419D01*
X103839962Y-101091651D01*
X103859368Y-101100830D01*
X103877781Y-101111866D01*
X103895024Y-101124654D01*
X103910930Y-101139070D01*
X103925346Y-101154976D01*
X103938134Y-101172219D01*
X103949170Y-101190632D01*
X103958349Y-101210038D01*
X103965581Y-101230250D01*
X103970797Y-101251074D01*
X103973947Y-101272309D01*
X103975000Y-101293750D01*
X103975000Y-101731250D01*
X103973947Y-101752691D01*
X103970797Y-101773926D01*
X103965581Y-101794750D01*
X103958349Y-101814962D01*
X103949170Y-101834368D01*
X103938134Y-101852781D01*
X103925346Y-101870024D01*
X103910930Y-101885930D01*
X103895024Y-101900346D01*
X103877781Y-101913134D01*
X103859368Y-101924170D01*
X103839962Y-101933349D01*
X103819750Y-101940581D01*
X103798926Y-101945797D01*
X103777691Y-101948947D01*
X103756250Y-101950000D01*
X103243750Y-101950000D01*
X103222309Y-101948947D01*
X103201074Y-101945797D01*
X103180250Y-101940581D01*
X103160038Y-101933349D01*
X103140632Y-101924170D01*
X103122219Y-101913134D01*
X103104976Y-101900346D01*
X103089070Y-101885930D01*
X103074654Y-101870024D01*
X103061866Y-101852781D01*
X103050830Y-101834368D01*
X103041651Y-101814962D01*
X103034419Y-101794750D01*
X103029203Y-101773926D01*
X103026053Y-101752691D01*
X103025000Y-101731250D01*
X103025000Y-101293750D01*
X103026053Y-101272309D01*
X103029203Y-101251074D01*
X103034419Y-101230250D01*
X103041651Y-101210038D01*
X103050830Y-101190632D01*
X103061866Y-101172219D01*
X103074654Y-101154976D01*
X103089070Y-101139070D01*
X103104976Y-101124654D01*
X103122219Y-101111866D01*
X103140632Y-101100830D01*
X103160038Y-101091651D01*
X103180250Y-101084419D01*
X103201074Y-101079203D01*
X103222309Y-101076053D01*
X103243750Y-101075000D01*
X103756250Y-101075000D01*
X103777691Y-101076053D01*
G37*
G36*
X103777691Y-102651053D02*
G01*
X103798926Y-102654203D01*
X103819750Y-102659419D01*
X103839962Y-102666651D01*
X103859368Y-102675830D01*
X103877781Y-102686866D01*
X103895024Y-102699654D01*
X103910930Y-102714070D01*
X103925346Y-102729976D01*
X103938134Y-102747219D01*
X103949170Y-102765632D01*
X103958349Y-102785038D01*
X103965581Y-102805250D01*
X103970797Y-102826074D01*
X103973947Y-102847309D01*
X103975000Y-102868750D01*
X103975000Y-103306250D01*
X103973947Y-103327691D01*
X103970797Y-103348926D01*
X103965581Y-103369750D01*
X103958349Y-103389962D01*
X103949170Y-103409368D01*
X103938134Y-103427781D01*
X103925346Y-103445024D01*
X103910930Y-103460930D01*
X103895024Y-103475346D01*
X103877781Y-103488134D01*
X103859368Y-103499170D01*
X103839962Y-103508349D01*
X103819750Y-103515581D01*
X103798926Y-103520797D01*
X103777691Y-103523947D01*
X103756250Y-103525000D01*
X103243750Y-103525000D01*
X103222309Y-103523947D01*
X103201074Y-103520797D01*
X103180250Y-103515581D01*
X103160038Y-103508349D01*
X103140632Y-103499170D01*
X103122219Y-103488134D01*
X103104976Y-103475346D01*
X103089070Y-103460930D01*
X103074654Y-103445024D01*
X103061866Y-103427781D01*
X103050830Y-103409368D01*
X103041651Y-103389962D01*
X103034419Y-103369750D01*
X103029203Y-103348926D01*
X103026053Y-103327691D01*
X103025000Y-103306250D01*
X103025000Y-102868750D01*
X103026053Y-102847309D01*
X103029203Y-102826074D01*
X103034419Y-102805250D01*
X103041651Y-102785038D01*
X103050830Y-102765632D01*
X103061866Y-102747219D01*
X103074654Y-102729976D01*
X103089070Y-102714070D01*
X103104976Y-102699654D01*
X103122219Y-102686866D01*
X103140632Y-102675830D01*
X103160038Y-102666651D01*
X103180250Y-102659419D01*
X103201074Y-102654203D01*
X103222309Y-102651053D01*
X103243750Y-102650000D01*
X103756250Y-102650000D01*
X103777691Y-102651053D01*
G37*
G36*
X96777691Y-101076053D02*
G01*
X96798926Y-101079203D01*
X96819750Y-101084419D01*
X96839962Y-101091651D01*
X96859368Y-101100830D01*
X96877781Y-101111866D01*
X96895024Y-101124654D01*
X96910930Y-101139070D01*
X96925346Y-101154976D01*
X96938134Y-101172219D01*
X96949170Y-101190632D01*
X96958349Y-101210038D01*
X96965581Y-101230250D01*
X96970797Y-101251074D01*
X96973947Y-101272309D01*
X96975000Y-101293750D01*
X96975000Y-101731250D01*
X96973947Y-101752691D01*
X96970797Y-101773926D01*
X96965581Y-101794750D01*
X96958349Y-101814962D01*
X96949170Y-101834368D01*
X96938134Y-101852781D01*
X96925346Y-101870024D01*
X96910930Y-101885930D01*
X96895024Y-101900346D01*
X96877781Y-101913134D01*
X96859368Y-101924170D01*
X96839962Y-101933349D01*
X96819750Y-101940581D01*
X96798926Y-101945797D01*
X96777691Y-101948947D01*
X96756250Y-101950000D01*
X96243750Y-101950000D01*
X96222309Y-101948947D01*
X96201074Y-101945797D01*
X96180250Y-101940581D01*
X96160038Y-101933349D01*
X96140632Y-101924170D01*
X96122219Y-101913134D01*
X96104976Y-101900346D01*
X96089070Y-101885930D01*
X96074654Y-101870024D01*
X96061866Y-101852781D01*
X96050830Y-101834368D01*
X96041651Y-101814962D01*
X96034419Y-101794750D01*
X96029203Y-101773926D01*
X96026053Y-101752691D01*
X96025000Y-101731250D01*
X96025000Y-101293750D01*
X96026053Y-101272309D01*
X96029203Y-101251074D01*
X96034419Y-101230250D01*
X96041651Y-101210038D01*
X96050830Y-101190632D01*
X96061866Y-101172219D01*
X96074654Y-101154976D01*
X96089070Y-101139070D01*
X96104976Y-101124654D01*
X96122219Y-101111866D01*
X96140632Y-101100830D01*
X96160038Y-101091651D01*
X96180250Y-101084419D01*
X96201074Y-101079203D01*
X96222309Y-101076053D01*
X96243750Y-101075000D01*
X96756250Y-101075000D01*
X96777691Y-101076053D01*
G37*
G36*
X96777691Y-102651053D02*
G01*
X96798926Y-102654203D01*
X96819750Y-102659419D01*
X96839962Y-102666651D01*
X96859368Y-102675830D01*
X96877781Y-102686866D01*
X96895024Y-102699654D01*
X96910930Y-102714070D01*
X96925346Y-102729976D01*
X96938134Y-102747219D01*
X96949170Y-102765632D01*
X96958349Y-102785038D01*
X96965581Y-102805250D01*
X96970797Y-102826074D01*
X96973947Y-102847309D01*
X96975000Y-102868750D01*
X96975000Y-103306250D01*
X96973947Y-103327691D01*
X96970797Y-103348926D01*
X96965581Y-103369750D01*
X96958349Y-103389962D01*
X96949170Y-103409368D01*
X96938134Y-103427781D01*
X96925346Y-103445024D01*
X96910930Y-103460930D01*
X96895024Y-103475346D01*
X96877781Y-103488134D01*
X96859368Y-103499170D01*
X96839962Y-103508349D01*
X96819750Y-103515581D01*
X96798926Y-103520797D01*
X96777691Y-103523947D01*
X96756250Y-103525000D01*
X96243750Y-103525000D01*
X96222309Y-103523947D01*
X96201074Y-103520797D01*
X96180250Y-103515581D01*
X96160038Y-103508349D01*
X96140632Y-103499170D01*
X96122219Y-103488134D01*
X96104976Y-103475346D01*
X96089070Y-103460930D01*
X96074654Y-103445024D01*
X96061866Y-103427781D01*
X96050830Y-103409368D01*
X96041651Y-103389962D01*
X96034419Y-103369750D01*
X96029203Y-103348926D01*
X96026053Y-103327691D01*
X96025000Y-103306250D01*
X96025000Y-102868750D01*
X96026053Y-102847309D01*
X96029203Y-102826074D01*
X96034419Y-102805250D01*
X96041651Y-102785038D01*
X96050830Y-102765632D01*
X96061866Y-102747219D01*
X96074654Y-102729976D01*
X96089070Y-102714070D01*
X96104976Y-102699654D01*
X96122219Y-102686866D01*
X96140632Y-102675830D01*
X96160038Y-102666651D01*
X96180250Y-102659419D01*
X96201074Y-102654203D01*
X96222309Y-102651053D01*
X96243750Y-102650000D01*
X96756250Y-102650000D01*
X96777691Y-102651053D01*
G37*
D14*
X96200000Y-98893600D03*
X103800000Y-98893600D03*
D15*
X102500000Y-96368600D03*
X101500000Y-96368600D03*
X100500000Y-96368600D03*
X99500000Y-96368600D03*
X98500000Y-96368600D03*
X97500000Y-96368600D03*
M02*
