G04 #@! TF.GenerationSoftware,KiCad,Pcbnew,5.1.5+dfsg1-2build2*
G04 #@! TF.CreationDate,2021-08-05T17:40:45+02:00*
G04 #@! TF.ProjectId,Airrohr_pcb,41697272-6f68-4725-9f70-63622e6b6963,rev?*
G04 #@! TF.SameCoordinates,Original*
G04 #@! TF.FileFunction,Soldermask,Top*
G04 #@! TF.FilePolarity,Negative*
%FSLAX46Y46*%
G04 Gerber Fmt 4.6, Leading zero omitted, Abs format (unit mm)*
G04 Created by KiCad (PCBNEW 5.1.5+dfsg1-2build2) date 2021-08-05 17:40:45*
%MOMM*%
%LPD*%
G04 APERTURE LIST*
%ADD10C,0.100000*%
G04 APERTURE END LIST*
D10*
G36*
X185064656Y-81791298D02*
G01*
X185170979Y-81812447D01*
X185471442Y-81936903D01*
X185741851Y-82117585D01*
X185971815Y-82347549D01*
X185971816Y-82347551D01*
X186152498Y-82617960D01*
X186276953Y-82918422D01*
X186340400Y-83237389D01*
X186340400Y-83562611D01*
X186318237Y-83674029D01*
X186276953Y-83881579D01*
X186152497Y-84182042D01*
X185971815Y-84452451D01*
X185741851Y-84682415D01*
X185471442Y-84863097D01*
X185170979Y-84987553D01*
X185064656Y-85008702D01*
X184852011Y-85051000D01*
X184526789Y-85051000D01*
X184314144Y-85008702D01*
X184207821Y-84987553D01*
X183907358Y-84863097D01*
X183636949Y-84682415D01*
X183406985Y-84452451D01*
X183226303Y-84182042D01*
X183101847Y-83881579D01*
X183060563Y-83674029D01*
X183038400Y-83562611D01*
X183038400Y-83237389D01*
X183101847Y-82918422D01*
X183226302Y-82617960D01*
X183406984Y-82347551D01*
X183406985Y-82347549D01*
X183636949Y-82117585D01*
X183907358Y-81936903D01*
X184207821Y-81812447D01*
X184314144Y-81791298D01*
X184526789Y-81749000D01*
X184852011Y-81749000D01*
X185064656Y-81791298D01*
G37*
G36*
X169513732Y-83040767D02*
G01*
X169663032Y-83070464D01*
X169827004Y-83138384D01*
X169974574Y-83236987D01*
X170100073Y-83362486D01*
X170198676Y-83510056D01*
X170266596Y-83674028D01*
X170301220Y-83848099D01*
X170301220Y-84025581D01*
X170266596Y-84199652D01*
X170198676Y-84363624D01*
X170100073Y-84511194D01*
X169974574Y-84636693D01*
X169827004Y-84735296D01*
X169663032Y-84803216D01*
X169513732Y-84832913D01*
X169488962Y-84837840D01*
X169311478Y-84837840D01*
X169286708Y-84832913D01*
X169137408Y-84803216D01*
X168973436Y-84735296D01*
X168825866Y-84636693D01*
X168700367Y-84511194D01*
X168601764Y-84363624D01*
X168533844Y-84199652D01*
X168499220Y-84025581D01*
X168499220Y-83848099D01*
X168533844Y-83674028D01*
X168601764Y-83510056D01*
X168700367Y-83362486D01*
X168825866Y-83236987D01*
X168973436Y-83138384D01*
X169137408Y-83070464D01*
X169286708Y-83040767D01*
X169311478Y-83035840D01*
X169488962Y-83035840D01*
X169513732Y-83040767D01*
G37*
G36*
X146653732Y-83040767D02*
G01*
X146803032Y-83070464D01*
X146967004Y-83138384D01*
X147114574Y-83236987D01*
X147240073Y-83362486D01*
X147338676Y-83510056D01*
X147406596Y-83674028D01*
X147441220Y-83848099D01*
X147441220Y-84025581D01*
X147406596Y-84199652D01*
X147338676Y-84363624D01*
X147240073Y-84511194D01*
X147114574Y-84636693D01*
X146967004Y-84735296D01*
X146803032Y-84803216D01*
X146653732Y-84832913D01*
X146628962Y-84837840D01*
X146451478Y-84837840D01*
X146426708Y-84832913D01*
X146277408Y-84803216D01*
X146113436Y-84735296D01*
X145965866Y-84636693D01*
X145840367Y-84511194D01*
X145741764Y-84363624D01*
X145673844Y-84199652D01*
X145639220Y-84025581D01*
X145639220Y-83848099D01*
X145673844Y-83674028D01*
X145741764Y-83510056D01*
X145840367Y-83362486D01*
X145965866Y-83236987D01*
X146113436Y-83138384D01*
X146277408Y-83070464D01*
X146426708Y-83040767D01*
X146451478Y-83035840D01*
X146628962Y-83035840D01*
X146653732Y-83040767D01*
G37*
G36*
X146653732Y-80500767D02*
G01*
X146803032Y-80530464D01*
X146967004Y-80598384D01*
X147114574Y-80696987D01*
X147240073Y-80822486D01*
X147338676Y-80970056D01*
X147406596Y-81134028D01*
X147441220Y-81308099D01*
X147441220Y-81485581D01*
X147406596Y-81659652D01*
X147338676Y-81823624D01*
X147240073Y-81971194D01*
X147114574Y-82096693D01*
X146967004Y-82195296D01*
X146803032Y-82263216D01*
X146653732Y-82292913D01*
X146628962Y-82297840D01*
X146451478Y-82297840D01*
X146426708Y-82292913D01*
X146277408Y-82263216D01*
X146113436Y-82195296D01*
X145965866Y-82096693D01*
X145840367Y-81971194D01*
X145741764Y-81823624D01*
X145673844Y-81659652D01*
X145639220Y-81485581D01*
X145639220Y-81308099D01*
X145673844Y-81134028D01*
X145741764Y-80970056D01*
X145840367Y-80822486D01*
X145965866Y-80696987D01*
X146113436Y-80598384D01*
X146277408Y-80530464D01*
X146426708Y-80500767D01*
X146451478Y-80495840D01*
X146628962Y-80495840D01*
X146653732Y-80500767D01*
G37*
G36*
X169513732Y-80500767D02*
G01*
X169663032Y-80530464D01*
X169827004Y-80598384D01*
X169974574Y-80696987D01*
X170100073Y-80822486D01*
X170198676Y-80970056D01*
X170266596Y-81134028D01*
X170301220Y-81308099D01*
X170301220Y-81485581D01*
X170266596Y-81659652D01*
X170198676Y-81823624D01*
X170100073Y-81971194D01*
X169974574Y-82096693D01*
X169827004Y-82195296D01*
X169663032Y-82263216D01*
X169513732Y-82292913D01*
X169488962Y-82297840D01*
X169311478Y-82297840D01*
X169286708Y-82292913D01*
X169137408Y-82263216D01*
X168973436Y-82195296D01*
X168825866Y-82096693D01*
X168700367Y-81971194D01*
X168601764Y-81823624D01*
X168533844Y-81659652D01*
X168499220Y-81485581D01*
X168499220Y-81308099D01*
X168533844Y-81134028D01*
X168601764Y-80970056D01*
X168700367Y-80822486D01*
X168825866Y-80696987D01*
X168973436Y-80598384D01*
X169137408Y-80530464D01*
X169286708Y-80500767D01*
X169311478Y-80495840D01*
X169488962Y-80495840D01*
X169513732Y-80500767D01*
G37*
G36*
X197454626Y-79759037D02*
G01*
X197624465Y-79810557D01*
X197624467Y-79810558D01*
X197780989Y-79894221D01*
X197918186Y-80006814D01*
X198001448Y-80108271D01*
X198030778Y-80144009D01*
X198114443Y-80300534D01*
X198165963Y-80470373D01*
X198165963Y-80470375D01*
X198179000Y-80602740D01*
X198179000Y-80941259D01*
X198172482Y-81007441D01*
X198165963Y-81073626D01*
X198114443Y-81243466D01*
X198030778Y-81399991D01*
X198001448Y-81435729D01*
X197918186Y-81537186D01*
X197823250Y-81615097D01*
X197780991Y-81649778D01*
X197624466Y-81733443D01*
X197454627Y-81784963D01*
X197278000Y-81802359D01*
X197101374Y-81784963D01*
X196931535Y-81733443D01*
X196775010Y-81649778D01*
X196637815Y-81537185D01*
X196525222Y-81399991D01*
X196441557Y-81243466D01*
X196390037Y-81073627D01*
X196383519Y-81007443D01*
X196377000Y-80941260D01*
X196377000Y-80602741D01*
X196390037Y-80470376D01*
X196390037Y-80470374D01*
X196441557Y-80300535D01*
X196525222Y-80144010D01*
X196525223Y-80144009D01*
X196637814Y-80006814D01*
X196739271Y-79923552D01*
X196775009Y-79894222D01*
X196931534Y-79810557D01*
X197101373Y-79759037D01*
X197278000Y-79741641D01*
X197454626Y-79759037D01*
G37*
G36*
X194954626Y-79759037D02*
G01*
X195124465Y-79810557D01*
X195124467Y-79810558D01*
X195280989Y-79894221D01*
X195418186Y-80006814D01*
X195501448Y-80108271D01*
X195530778Y-80144009D01*
X195614443Y-80300534D01*
X195665963Y-80470373D01*
X195665963Y-80470375D01*
X195679000Y-80602740D01*
X195679000Y-80941259D01*
X195672482Y-81007441D01*
X195665963Y-81073626D01*
X195614443Y-81243466D01*
X195530778Y-81399991D01*
X195501448Y-81435729D01*
X195418186Y-81537186D01*
X195323250Y-81615097D01*
X195280991Y-81649778D01*
X195124466Y-81733443D01*
X194954627Y-81784963D01*
X194778000Y-81802359D01*
X194601374Y-81784963D01*
X194431535Y-81733443D01*
X194275010Y-81649778D01*
X194137815Y-81537185D01*
X194025222Y-81399991D01*
X193941557Y-81243466D01*
X193890037Y-81073627D01*
X193883519Y-81007443D01*
X193877000Y-80941260D01*
X193877000Y-80602741D01*
X193890037Y-80470376D01*
X193890037Y-80470374D01*
X193941557Y-80300535D01*
X194025222Y-80144010D01*
X194025223Y-80144009D01*
X194137814Y-80006814D01*
X194239271Y-79923552D01*
X194275009Y-79894222D01*
X194431534Y-79810557D01*
X194601373Y-79759037D01*
X194778000Y-79741641D01*
X194954626Y-79759037D01*
G37*
G36*
X199954626Y-79759037D02*
G01*
X200124465Y-79810557D01*
X200124467Y-79810558D01*
X200280989Y-79894221D01*
X200418186Y-80006814D01*
X200501448Y-80108271D01*
X200530778Y-80144009D01*
X200614443Y-80300534D01*
X200665963Y-80470373D01*
X200665963Y-80470375D01*
X200679000Y-80602740D01*
X200679000Y-80941259D01*
X200672482Y-81007441D01*
X200665963Y-81073626D01*
X200614443Y-81243466D01*
X200530778Y-81399991D01*
X200501448Y-81435729D01*
X200418186Y-81537186D01*
X200323250Y-81615097D01*
X200280991Y-81649778D01*
X200124466Y-81733443D01*
X199954627Y-81784963D01*
X199778000Y-81802359D01*
X199601374Y-81784963D01*
X199431535Y-81733443D01*
X199275010Y-81649778D01*
X199137815Y-81537185D01*
X199025222Y-81399991D01*
X198941557Y-81243466D01*
X198890037Y-81073627D01*
X198883519Y-81007443D01*
X198877000Y-80941260D01*
X198877000Y-80602741D01*
X198890037Y-80470376D01*
X198890037Y-80470374D01*
X198941557Y-80300535D01*
X199025222Y-80144010D01*
X199025223Y-80144009D01*
X199137814Y-80006814D01*
X199239271Y-79923552D01*
X199275009Y-79894222D01*
X199431534Y-79810557D01*
X199601373Y-79759037D01*
X199778000Y-79741641D01*
X199954626Y-79759037D01*
G37*
G36*
X202454626Y-79759037D02*
G01*
X202624465Y-79810557D01*
X202624467Y-79810558D01*
X202780989Y-79894221D01*
X202918186Y-80006814D01*
X203001448Y-80108271D01*
X203030778Y-80144009D01*
X203114443Y-80300534D01*
X203165963Y-80470373D01*
X203165963Y-80470375D01*
X203179000Y-80602740D01*
X203179000Y-80941259D01*
X203172482Y-81007441D01*
X203165963Y-81073626D01*
X203114443Y-81243466D01*
X203030778Y-81399991D01*
X203001448Y-81435729D01*
X202918186Y-81537186D01*
X202823250Y-81615097D01*
X202780991Y-81649778D01*
X202624466Y-81733443D01*
X202454627Y-81784963D01*
X202278000Y-81802359D01*
X202101374Y-81784963D01*
X201931535Y-81733443D01*
X201775010Y-81649778D01*
X201637815Y-81537185D01*
X201525222Y-81399991D01*
X201441557Y-81243466D01*
X201390037Y-81073627D01*
X201383519Y-81007443D01*
X201377000Y-80941260D01*
X201377000Y-80602741D01*
X201390037Y-80470376D01*
X201390037Y-80470374D01*
X201441557Y-80300535D01*
X201525222Y-80144010D01*
X201525223Y-80144009D01*
X201637814Y-80006814D01*
X201739271Y-79923552D01*
X201775009Y-79894222D01*
X201931534Y-79810557D01*
X202101373Y-79759037D01*
X202278000Y-79741641D01*
X202454626Y-79759037D01*
G37*
G36*
X193036600Y-79749989D02*
G01*
X193069652Y-79760015D01*
X193100103Y-79776292D01*
X193126799Y-79798201D01*
X193148708Y-79824897D01*
X193164985Y-79855348D01*
X193175011Y-79888400D01*
X193179000Y-79928903D01*
X193179000Y-81615097D01*
X193175011Y-81655600D01*
X193164985Y-81688652D01*
X193148708Y-81719103D01*
X193126799Y-81745799D01*
X193100103Y-81767708D01*
X193069652Y-81783985D01*
X193036600Y-81794011D01*
X192996097Y-81798000D01*
X191559903Y-81798000D01*
X191519400Y-81794011D01*
X191486348Y-81783985D01*
X191455897Y-81767708D01*
X191429201Y-81745799D01*
X191407292Y-81719103D01*
X191391015Y-81688652D01*
X191380989Y-81655600D01*
X191377000Y-81615097D01*
X191377000Y-79928903D01*
X191380989Y-79888400D01*
X191391015Y-79855348D01*
X191407292Y-79824897D01*
X191429201Y-79798201D01*
X191455897Y-79776292D01*
X191486348Y-79760015D01*
X191519400Y-79749989D01*
X191559903Y-79746000D01*
X192996097Y-79746000D01*
X193036600Y-79749989D01*
G37*
G36*
X146653732Y-77960767D02*
G01*
X146803032Y-77990464D01*
X146967004Y-78058384D01*
X147114574Y-78156987D01*
X147240073Y-78282486D01*
X147338676Y-78430056D01*
X147406596Y-78594028D01*
X147441220Y-78768099D01*
X147441220Y-78945581D01*
X147406596Y-79119652D01*
X147338676Y-79283624D01*
X147240073Y-79431194D01*
X147114574Y-79556693D01*
X146967004Y-79655296D01*
X146803032Y-79723216D01*
X146662886Y-79751092D01*
X146628962Y-79757840D01*
X146451478Y-79757840D01*
X146417554Y-79751092D01*
X146277408Y-79723216D01*
X146113436Y-79655296D01*
X145965866Y-79556693D01*
X145840367Y-79431194D01*
X145741764Y-79283624D01*
X145673844Y-79119652D01*
X145639220Y-78945581D01*
X145639220Y-78768099D01*
X145673844Y-78594028D01*
X145741764Y-78430056D01*
X145840367Y-78282486D01*
X145965866Y-78156987D01*
X146113436Y-78058384D01*
X146277408Y-77990464D01*
X146426708Y-77960767D01*
X146451478Y-77955840D01*
X146628962Y-77955840D01*
X146653732Y-77960767D01*
G37*
G36*
X169513732Y-77960767D02*
G01*
X169663032Y-77990464D01*
X169827004Y-78058384D01*
X169974574Y-78156987D01*
X170100073Y-78282486D01*
X170198676Y-78430056D01*
X170266596Y-78594028D01*
X170301220Y-78768099D01*
X170301220Y-78945581D01*
X170266596Y-79119652D01*
X170198676Y-79283624D01*
X170100073Y-79431194D01*
X169974574Y-79556693D01*
X169827004Y-79655296D01*
X169663032Y-79723216D01*
X169522886Y-79751092D01*
X169488962Y-79757840D01*
X169311478Y-79757840D01*
X169277554Y-79751092D01*
X169137408Y-79723216D01*
X168973436Y-79655296D01*
X168825866Y-79556693D01*
X168700367Y-79431194D01*
X168601764Y-79283624D01*
X168533844Y-79119652D01*
X168499220Y-78945581D01*
X168499220Y-78768099D01*
X168533844Y-78594028D01*
X168601764Y-78430056D01*
X168700367Y-78282486D01*
X168825866Y-78156987D01*
X168973436Y-78058384D01*
X169137408Y-77990464D01*
X169286708Y-77960767D01*
X169311478Y-77955840D01*
X169488962Y-77955840D01*
X169513732Y-77960767D01*
G37*
G36*
X178822928Y-76468823D02*
G01*
X178977800Y-76532973D01*
X179117181Y-76626105D01*
X179235715Y-76744639D01*
X179328847Y-76884020D01*
X179392997Y-77038892D01*
X179425700Y-77203304D01*
X179425700Y-77370936D01*
X179392997Y-77535348D01*
X179328847Y-77690220D01*
X179235715Y-77829601D01*
X179117181Y-77948135D01*
X178977800Y-78041267D01*
X178822928Y-78105417D01*
X178658516Y-78138120D01*
X178490884Y-78138120D01*
X178326472Y-78105417D01*
X178171600Y-78041267D01*
X178032219Y-77948135D01*
X177913685Y-77829601D01*
X177820553Y-77690220D01*
X177756403Y-77535348D01*
X177723700Y-77370936D01*
X177723700Y-77203304D01*
X177756403Y-77038892D01*
X177820553Y-76884020D01*
X177913685Y-76744639D01*
X178032219Y-76626105D01*
X178171600Y-76532973D01*
X178326472Y-76468823D01*
X178490884Y-76436120D01*
X178658516Y-76436120D01*
X178822928Y-76468823D01*
G37*
G36*
X146653732Y-75420767D02*
G01*
X146803032Y-75450464D01*
X146967004Y-75518384D01*
X147114574Y-75616987D01*
X147240073Y-75742486D01*
X147338676Y-75890056D01*
X147406596Y-76054028D01*
X147441220Y-76228099D01*
X147441220Y-76405581D01*
X147406596Y-76579652D01*
X147338676Y-76743624D01*
X147240073Y-76891194D01*
X147114574Y-77016693D01*
X146967004Y-77115296D01*
X146803032Y-77183216D01*
X146653732Y-77212913D01*
X146628962Y-77217840D01*
X146451478Y-77217840D01*
X146426708Y-77212913D01*
X146277408Y-77183216D01*
X146113436Y-77115296D01*
X145965866Y-77016693D01*
X145840367Y-76891194D01*
X145741764Y-76743624D01*
X145673844Y-76579652D01*
X145639220Y-76405581D01*
X145639220Y-76228099D01*
X145673844Y-76054028D01*
X145741764Y-75890056D01*
X145840367Y-75742486D01*
X145965866Y-75616987D01*
X146113436Y-75518384D01*
X146277408Y-75450464D01*
X146426708Y-75420767D01*
X146451478Y-75415840D01*
X146628962Y-75415840D01*
X146653732Y-75420767D01*
G37*
G36*
X169513732Y-75420767D02*
G01*
X169663032Y-75450464D01*
X169827004Y-75518384D01*
X169974574Y-75616987D01*
X170100073Y-75742486D01*
X170198676Y-75890056D01*
X170266596Y-76054028D01*
X170301220Y-76228099D01*
X170301220Y-76405581D01*
X170266596Y-76579652D01*
X170198676Y-76743624D01*
X170100073Y-76891194D01*
X169974574Y-77016693D01*
X169827004Y-77115296D01*
X169663032Y-77183216D01*
X169513732Y-77212913D01*
X169488962Y-77217840D01*
X169311478Y-77217840D01*
X169286708Y-77212913D01*
X169137408Y-77183216D01*
X168973436Y-77115296D01*
X168825866Y-77016693D01*
X168700367Y-76891194D01*
X168601764Y-76743624D01*
X168533844Y-76579652D01*
X168499220Y-76405581D01*
X168499220Y-76228099D01*
X168533844Y-76054028D01*
X168601764Y-75890056D01*
X168700367Y-75742486D01*
X168825866Y-75616987D01*
X168973436Y-75518384D01*
X169137408Y-75450464D01*
X169286708Y-75420767D01*
X169311478Y-75415840D01*
X169488962Y-75415840D01*
X169513732Y-75420767D01*
G37*
G36*
X184098412Y-74587647D02*
G01*
X184247712Y-74617344D01*
X184411684Y-74685264D01*
X184559254Y-74783867D01*
X184684753Y-74909366D01*
X184783356Y-75056936D01*
X184851276Y-75220908D01*
X184885900Y-75394979D01*
X184885900Y-75572461D01*
X184851276Y-75746532D01*
X184783356Y-75910504D01*
X184684753Y-76058074D01*
X184559254Y-76183573D01*
X184411684Y-76282176D01*
X184247712Y-76350096D01*
X184098412Y-76379793D01*
X184073642Y-76384720D01*
X183896158Y-76384720D01*
X183871388Y-76379793D01*
X183722088Y-76350096D01*
X183558116Y-76282176D01*
X183410546Y-76183573D01*
X183285047Y-76058074D01*
X183186444Y-75910504D01*
X183118524Y-75746532D01*
X183083900Y-75572461D01*
X183083900Y-75394979D01*
X183118524Y-75220908D01*
X183186444Y-75056936D01*
X183285047Y-74909366D01*
X183410546Y-74783867D01*
X183558116Y-74685264D01*
X183722088Y-74617344D01*
X183871388Y-74587647D01*
X183896158Y-74582720D01*
X184073642Y-74582720D01*
X184098412Y-74587647D01*
G37*
G36*
X169513732Y-72880767D02*
G01*
X169663032Y-72910464D01*
X169827004Y-72978384D01*
X169974574Y-73076987D01*
X170100073Y-73202486D01*
X170198676Y-73350056D01*
X170266596Y-73514028D01*
X170301220Y-73688099D01*
X170301220Y-73865581D01*
X170266596Y-74039652D01*
X170198676Y-74203624D01*
X170100073Y-74351194D01*
X169974574Y-74476693D01*
X169827004Y-74575296D01*
X169663032Y-74643216D01*
X169513732Y-74672913D01*
X169488962Y-74677840D01*
X169311478Y-74677840D01*
X169286708Y-74672913D01*
X169137408Y-74643216D01*
X168973436Y-74575296D01*
X168825866Y-74476693D01*
X168700367Y-74351194D01*
X168601764Y-74203624D01*
X168533844Y-74039652D01*
X168499220Y-73865581D01*
X168499220Y-73688099D01*
X168533844Y-73514028D01*
X168601764Y-73350056D01*
X168700367Y-73202486D01*
X168825866Y-73076987D01*
X168973436Y-72978384D01*
X169137408Y-72910464D01*
X169286708Y-72880767D01*
X169311478Y-72875840D01*
X169488962Y-72875840D01*
X169513732Y-72880767D01*
G37*
G36*
X146653732Y-72880767D02*
G01*
X146803032Y-72910464D01*
X146967004Y-72978384D01*
X147114574Y-73076987D01*
X147240073Y-73202486D01*
X147338676Y-73350056D01*
X147406596Y-73514028D01*
X147441220Y-73688099D01*
X147441220Y-73865581D01*
X147406596Y-74039652D01*
X147338676Y-74203624D01*
X147240073Y-74351194D01*
X147114574Y-74476693D01*
X146967004Y-74575296D01*
X146803032Y-74643216D01*
X146653732Y-74672913D01*
X146628962Y-74677840D01*
X146451478Y-74677840D01*
X146426708Y-74672913D01*
X146277408Y-74643216D01*
X146113436Y-74575296D01*
X145965866Y-74476693D01*
X145840367Y-74351194D01*
X145741764Y-74203624D01*
X145673844Y-74039652D01*
X145639220Y-73865581D01*
X145639220Y-73688099D01*
X145673844Y-73514028D01*
X145741764Y-73350056D01*
X145840367Y-73202486D01*
X145965866Y-73076987D01*
X146113436Y-72978384D01*
X146277408Y-72910464D01*
X146426708Y-72880767D01*
X146451478Y-72875840D01*
X146628962Y-72875840D01*
X146653732Y-72880767D01*
G37*
G36*
X192938512Y-72272327D02*
G01*
X193087812Y-72302024D01*
X193251784Y-72369944D01*
X193399354Y-72468547D01*
X193524853Y-72594046D01*
X193623456Y-72741616D01*
X193691376Y-72905588D01*
X193726000Y-73079659D01*
X193726000Y-73257141D01*
X193691376Y-73431212D01*
X193623456Y-73595184D01*
X193524853Y-73742754D01*
X193399354Y-73868253D01*
X193251784Y-73966856D01*
X193087812Y-74034776D01*
X192938512Y-74064473D01*
X192913742Y-74069400D01*
X192736258Y-74069400D01*
X192711488Y-74064473D01*
X192562188Y-74034776D01*
X192398216Y-73966856D01*
X192250646Y-73868253D01*
X192125147Y-73742754D01*
X192026544Y-73595184D01*
X191958624Y-73431212D01*
X191924000Y-73257141D01*
X191924000Y-73079659D01*
X191958624Y-72905588D01*
X192026544Y-72741616D01*
X192125147Y-72594046D01*
X192250646Y-72468547D01*
X192398216Y-72369944D01*
X192562188Y-72302024D01*
X192711488Y-72272327D01*
X192736258Y-72267400D01*
X192913742Y-72267400D01*
X192938512Y-72272327D01*
G37*
G36*
X195478512Y-72272327D02*
G01*
X195627812Y-72302024D01*
X195791784Y-72369944D01*
X195939354Y-72468547D01*
X196064853Y-72594046D01*
X196163456Y-72741616D01*
X196231376Y-72905588D01*
X196266000Y-73079659D01*
X196266000Y-73257141D01*
X196231376Y-73431212D01*
X196163456Y-73595184D01*
X196064853Y-73742754D01*
X195939354Y-73868253D01*
X195791784Y-73966856D01*
X195627812Y-74034776D01*
X195478512Y-74064473D01*
X195453742Y-74069400D01*
X195276258Y-74069400D01*
X195251488Y-74064473D01*
X195102188Y-74034776D01*
X194938216Y-73966856D01*
X194790646Y-73868253D01*
X194665147Y-73742754D01*
X194566544Y-73595184D01*
X194498624Y-73431212D01*
X194464000Y-73257141D01*
X194464000Y-73079659D01*
X194498624Y-72905588D01*
X194566544Y-72741616D01*
X194665147Y-72594046D01*
X194790646Y-72468547D01*
X194938216Y-72369944D01*
X195102188Y-72302024D01*
X195251488Y-72272327D01*
X195276258Y-72267400D01*
X195453742Y-72267400D01*
X195478512Y-72272327D01*
G37*
G36*
X198806000Y-74069400D02*
G01*
X197004000Y-74069400D01*
X197004000Y-72267400D01*
X198806000Y-72267400D01*
X198806000Y-74069400D01*
G37*
G36*
X190398512Y-72272327D02*
G01*
X190547812Y-72302024D01*
X190711784Y-72369944D01*
X190859354Y-72468547D01*
X190984853Y-72594046D01*
X191083456Y-72741616D01*
X191151376Y-72905588D01*
X191186000Y-73079659D01*
X191186000Y-73257141D01*
X191151376Y-73431212D01*
X191083456Y-73595184D01*
X190984853Y-73742754D01*
X190859354Y-73868253D01*
X190711784Y-73966856D01*
X190547812Y-74034776D01*
X190398512Y-74064473D01*
X190373742Y-74069400D01*
X190196258Y-74069400D01*
X190171488Y-74064473D01*
X190022188Y-74034776D01*
X189858216Y-73966856D01*
X189710646Y-73868253D01*
X189585147Y-73742754D01*
X189486544Y-73595184D01*
X189418624Y-73431212D01*
X189384000Y-73257141D01*
X189384000Y-73079659D01*
X189418624Y-72905588D01*
X189486544Y-72741616D01*
X189585147Y-72594046D01*
X189710646Y-72468547D01*
X189858216Y-72369944D01*
X190022188Y-72302024D01*
X190171488Y-72272327D01*
X190196258Y-72267400D01*
X190373742Y-72267400D01*
X190398512Y-72272327D01*
G37*
G36*
X184098412Y-72047647D02*
G01*
X184247712Y-72077344D01*
X184411684Y-72145264D01*
X184559254Y-72243867D01*
X184684753Y-72369366D01*
X184783356Y-72516936D01*
X184851276Y-72680908D01*
X184885900Y-72854979D01*
X184885900Y-73032461D01*
X184851276Y-73206532D01*
X184783356Y-73370504D01*
X184684753Y-73518074D01*
X184559254Y-73643573D01*
X184411684Y-73742176D01*
X184247712Y-73810096D01*
X184098412Y-73839793D01*
X184073642Y-73844720D01*
X183896158Y-73844720D01*
X183871388Y-73839793D01*
X183722088Y-73810096D01*
X183558116Y-73742176D01*
X183410546Y-73643573D01*
X183285047Y-73518074D01*
X183186444Y-73370504D01*
X183118524Y-73206532D01*
X183083900Y-73032461D01*
X183083900Y-72854979D01*
X183118524Y-72680908D01*
X183186444Y-72516936D01*
X183285047Y-72369366D01*
X183410546Y-72243867D01*
X183558116Y-72145264D01*
X183722088Y-72077344D01*
X183871388Y-72047647D01*
X183896158Y-72042720D01*
X184073642Y-72042720D01*
X184098412Y-72047647D01*
G37*
G36*
X169513732Y-70340767D02*
G01*
X169663032Y-70370464D01*
X169827004Y-70438384D01*
X169974574Y-70536987D01*
X170100073Y-70662486D01*
X170198676Y-70810056D01*
X170266596Y-70974028D01*
X170301220Y-71148099D01*
X170301220Y-71325581D01*
X170266596Y-71499652D01*
X170198676Y-71663624D01*
X170100073Y-71811194D01*
X169974574Y-71936693D01*
X169827004Y-72035296D01*
X169663032Y-72103216D01*
X169513732Y-72132913D01*
X169488962Y-72137840D01*
X169311478Y-72137840D01*
X169286708Y-72132913D01*
X169137408Y-72103216D01*
X168973436Y-72035296D01*
X168825866Y-71936693D01*
X168700367Y-71811194D01*
X168601764Y-71663624D01*
X168533844Y-71499652D01*
X168499220Y-71325581D01*
X168499220Y-71148099D01*
X168533844Y-70974028D01*
X168601764Y-70810056D01*
X168700367Y-70662486D01*
X168825866Y-70536987D01*
X168973436Y-70438384D01*
X169137408Y-70370464D01*
X169286708Y-70340767D01*
X169311478Y-70335840D01*
X169488962Y-70335840D01*
X169513732Y-70340767D01*
G37*
G36*
X146653732Y-70340767D02*
G01*
X146803032Y-70370464D01*
X146967004Y-70438384D01*
X147114574Y-70536987D01*
X147240073Y-70662486D01*
X147338676Y-70810056D01*
X147406596Y-70974028D01*
X147441220Y-71148099D01*
X147441220Y-71325581D01*
X147406596Y-71499652D01*
X147338676Y-71663624D01*
X147240073Y-71811194D01*
X147114574Y-71936693D01*
X146967004Y-72035296D01*
X146803032Y-72103216D01*
X146653732Y-72132913D01*
X146628962Y-72137840D01*
X146451478Y-72137840D01*
X146426708Y-72132913D01*
X146277408Y-72103216D01*
X146113436Y-72035296D01*
X145965866Y-71936693D01*
X145840367Y-71811194D01*
X145741764Y-71663624D01*
X145673844Y-71499652D01*
X145639220Y-71325581D01*
X145639220Y-71148099D01*
X145673844Y-70974028D01*
X145741764Y-70810056D01*
X145840367Y-70662486D01*
X145965866Y-70536987D01*
X146113436Y-70438384D01*
X146277408Y-70370464D01*
X146426708Y-70340767D01*
X146451478Y-70335840D01*
X146628962Y-70335840D01*
X146653732Y-70340767D01*
G37*
G36*
X184098412Y-69507647D02*
G01*
X184247712Y-69537344D01*
X184411684Y-69605264D01*
X184559254Y-69703867D01*
X184684753Y-69829366D01*
X184783356Y-69976936D01*
X184851276Y-70140908D01*
X184885900Y-70314979D01*
X184885900Y-70492461D01*
X184851276Y-70666532D01*
X184783356Y-70830504D01*
X184684753Y-70978074D01*
X184559254Y-71103573D01*
X184411684Y-71202176D01*
X184247712Y-71270096D01*
X184098412Y-71299793D01*
X184073642Y-71304720D01*
X183896158Y-71304720D01*
X183871388Y-71299793D01*
X183722088Y-71270096D01*
X183558116Y-71202176D01*
X183410546Y-71103573D01*
X183285047Y-70978074D01*
X183186444Y-70830504D01*
X183118524Y-70666532D01*
X183083900Y-70492461D01*
X183083900Y-70314979D01*
X183118524Y-70140908D01*
X183186444Y-69976936D01*
X183285047Y-69829366D01*
X183410546Y-69703867D01*
X183558116Y-69605264D01*
X183722088Y-69537344D01*
X183871388Y-69507647D01*
X183896158Y-69502720D01*
X184073642Y-69502720D01*
X184098412Y-69507647D01*
G37*
G36*
X146653732Y-67800767D02*
G01*
X146803032Y-67830464D01*
X146967004Y-67898384D01*
X147114574Y-67996987D01*
X147240073Y-68122486D01*
X147338676Y-68270056D01*
X147406596Y-68434028D01*
X147441220Y-68608099D01*
X147441220Y-68785581D01*
X147406596Y-68959652D01*
X147338676Y-69123624D01*
X147240073Y-69271194D01*
X147114574Y-69396693D01*
X146967004Y-69495296D01*
X146803032Y-69563216D01*
X146653732Y-69592913D01*
X146628962Y-69597840D01*
X146451478Y-69597840D01*
X146426708Y-69592913D01*
X146277408Y-69563216D01*
X146113436Y-69495296D01*
X145965866Y-69396693D01*
X145840367Y-69271194D01*
X145741764Y-69123624D01*
X145673844Y-68959652D01*
X145639220Y-68785581D01*
X145639220Y-68608099D01*
X145673844Y-68434028D01*
X145741764Y-68270056D01*
X145840367Y-68122486D01*
X145965866Y-67996987D01*
X146113436Y-67898384D01*
X146277408Y-67830464D01*
X146426708Y-67800767D01*
X146451478Y-67795840D01*
X146628962Y-67795840D01*
X146653732Y-67800767D01*
G37*
G36*
X169513732Y-67800767D02*
G01*
X169663032Y-67830464D01*
X169827004Y-67898384D01*
X169974574Y-67996987D01*
X170100073Y-68122486D01*
X170198676Y-68270056D01*
X170266596Y-68434028D01*
X170301220Y-68608099D01*
X170301220Y-68785581D01*
X170266596Y-68959652D01*
X170198676Y-69123624D01*
X170100073Y-69271194D01*
X169974574Y-69396693D01*
X169827004Y-69495296D01*
X169663032Y-69563216D01*
X169513732Y-69592913D01*
X169488962Y-69597840D01*
X169311478Y-69597840D01*
X169286708Y-69592913D01*
X169137408Y-69563216D01*
X168973436Y-69495296D01*
X168825866Y-69396693D01*
X168700367Y-69271194D01*
X168601764Y-69123624D01*
X168533844Y-68959652D01*
X168499220Y-68785581D01*
X168499220Y-68608099D01*
X168533844Y-68434028D01*
X168601764Y-68270056D01*
X168700367Y-68122486D01*
X168825866Y-67996987D01*
X168973436Y-67898384D01*
X169137408Y-67830464D01*
X169286708Y-67800767D01*
X169311478Y-67795840D01*
X169488962Y-67795840D01*
X169513732Y-67800767D01*
G37*
G36*
X184885900Y-68764720D02*
G01*
X183083900Y-68764720D01*
X183083900Y-66962720D01*
X184885900Y-66962720D01*
X184885900Y-68764720D01*
G37*
G36*
X195478512Y-66272327D02*
G01*
X195627812Y-66302024D01*
X195791784Y-66369944D01*
X195939354Y-66468547D01*
X196064853Y-66594046D01*
X196163456Y-66741616D01*
X196231376Y-66905588D01*
X196266000Y-67079659D01*
X196266000Y-67257141D01*
X196231376Y-67431212D01*
X196163456Y-67595184D01*
X196064853Y-67742754D01*
X195939354Y-67868253D01*
X195791784Y-67966856D01*
X195627812Y-68034776D01*
X195478512Y-68064473D01*
X195453742Y-68069400D01*
X195276258Y-68069400D01*
X195251488Y-68064473D01*
X195102188Y-68034776D01*
X194938216Y-67966856D01*
X194790646Y-67868253D01*
X194665147Y-67742754D01*
X194566544Y-67595184D01*
X194498624Y-67431212D01*
X194464000Y-67257141D01*
X194464000Y-67079659D01*
X194498624Y-66905588D01*
X194566544Y-66741616D01*
X194665147Y-66594046D01*
X194790646Y-66468547D01*
X194938216Y-66369944D01*
X195102188Y-66302024D01*
X195251488Y-66272327D01*
X195276258Y-66267400D01*
X195453742Y-66267400D01*
X195478512Y-66272327D01*
G37*
G36*
X198806000Y-68069400D02*
G01*
X197004000Y-68069400D01*
X197004000Y-66267400D01*
X198806000Y-66267400D01*
X198806000Y-68069400D01*
G37*
G36*
X190398512Y-66272327D02*
G01*
X190547812Y-66302024D01*
X190711784Y-66369944D01*
X190859354Y-66468547D01*
X190984853Y-66594046D01*
X191083456Y-66741616D01*
X191151376Y-66905588D01*
X191186000Y-67079659D01*
X191186000Y-67257141D01*
X191151376Y-67431212D01*
X191083456Y-67595184D01*
X190984853Y-67742754D01*
X190859354Y-67868253D01*
X190711784Y-67966856D01*
X190547812Y-68034776D01*
X190398512Y-68064473D01*
X190373742Y-68069400D01*
X190196258Y-68069400D01*
X190171488Y-68064473D01*
X190022188Y-68034776D01*
X189858216Y-67966856D01*
X189710646Y-67868253D01*
X189585147Y-67742754D01*
X189486544Y-67595184D01*
X189418624Y-67431212D01*
X189384000Y-67257141D01*
X189384000Y-67079659D01*
X189418624Y-66905588D01*
X189486544Y-66741616D01*
X189585147Y-66594046D01*
X189710646Y-66468547D01*
X189858216Y-66369944D01*
X190022188Y-66302024D01*
X190171488Y-66272327D01*
X190196258Y-66267400D01*
X190373742Y-66267400D01*
X190398512Y-66272327D01*
G37*
G36*
X192938512Y-66272327D02*
G01*
X193087812Y-66302024D01*
X193251784Y-66369944D01*
X193399354Y-66468547D01*
X193524853Y-66594046D01*
X193623456Y-66741616D01*
X193691376Y-66905588D01*
X193726000Y-67079659D01*
X193726000Y-67257141D01*
X193691376Y-67431212D01*
X193623456Y-67595184D01*
X193524853Y-67742754D01*
X193399354Y-67868253D01*
X193251784Y-67966856D01*
X193087812Y-68034776D01*
X192938512Y-68064473D01*
X192913742Y-68069400D01*
X192736258Y-68069400D01*
X192711488Y-68064473D01*
X192562188Y-68034776D01*
X192398216Y-67966856D01*
X192250646Y-67868253D01*
X192125147Y-67742754D01*
X192026544Y-67595184D01*
X191958624Y-67431212D01*
X191924000Y-67257141D01*
X191924000Y-67079659D01*
X191958624Y-66905588D01*
X192026544Y-66741616D01*
X192125147Y-66594046D01*
X192250646Y-66468547D01*
X192398216Y-66369944D01*
X192562188Y-66302024D01*
X192711488Y-66272327D01*
X192736258Y-66267400D01*
X192913742Y-66267400D01*
X192938512Y-66272327D01*
G37*
G36*
X178822928Y-66308823D02*
G01*
X178977800Y-66372973D01*
X179117181Y-66466105D01*
X179235715Y-66584639D01*
X179328847Y-66724020D01*
X179392997Y-66878892D01*
X179425700Y-67043304D01*
X179425700Y-67210936D01*
X179392997Y-67375348D01*
X179328847Y-67530220D01*
X179235715Y-67669601D01*
X179117181Y-67788135D01*
X178977800Y-67881267D01*
X178822928Y-67945417D01*
X178658516Y-67978120D01*
X178490884Y-67978120D01*
X178326472Y-67945417D01*
X178171600Y-67881267D01*
X178032219Y-67788135D01*
X177913685Y-67669601D01*
X177820553Y-67530220D01*
X177756403Y-67375348D01*
X177723700Y-67210936D01*
X177723700Y-67043304D01*
X177756403Y-66878892D01*
X177820553Y-66724020D01*
X177913685Y-66584639D01*
X178032219Y-66466105D01*
X178171600Y-66372973D01*
X178326472Y-66308823D01*
X178490884Y-66276120D01*
X178658516Y-66276120D01*
X178822928Y-66308823D01*
G37*
G36*
X169513732Y-65260767D02*
G01*
X169663032Y-65290464D01*
X169827004Y-65358384D01*
X169974574Y-65456987D01*
X170100073Y-65582486D01*
X170198676Y-65730056D01*
X170266596Y-65894028D01*
X170301220Y-66068099D01*
X170301220Y-66245581D01*
X170266596Y-66419652D01*
X170198676Y-66583624D01*
X170100073Y-66731194D01*
X169974574Y-66856693D01*
X169827004Y-66955296D01*
X169663032Y-67023216D01*
X169513732Y-67052913D01*
X169488962Y-67057840D01*
X169311478Y-67057840D01*
X169286708Y-67052913D01*
X169137408Y-67023216D01*
X168973436Y-66955296D01*
X168825866Y-66856693D01*
X168700367Y-66731194D01*
X168601764Y-66583624D01*
X168533844Y-66419652D01*
X168499220Y-66245581D01*
X168499220Y-66068099D01*
X168533844Y-65894028D01*
X168601764Y-65730056D01*
X168700367Y-65582486D01*
X168825866Y-65456987D01*
X168973436Y-65358384D01*
X169137408Y-65290464D01*
X169286708Y-65260767D01*
X169311478Y-65255840D01*
X169488962Y-65255840D01*
X169513732Y-65260767D01*
G37*
G36*
X146653732Y-65260767D02*
G01*
X146803032Y-65290464D01*
X146967004Y-65358384D01*
X147114574Y-65456987D01*
X147240073Y-65582486D01*
X147338676Y-65730056D01*
X147406596Y-65894028D01*
X147441220Y-66068099D01*
X147441220Y-66245581D01*
X147406596Y-66419652D01*
X147338676Y-66583624D01*
X147240073Y-66731194D01*
X147114574Y-66856693D01*
X146967004Y-66955296D01*
X146803032Y-67023216D01*
X146653732Y-67052913D01*
X146628962Y-67057840D01*
X146451478Y-67057840D01*
X146426708Y-67052913D01*
X146277408Y-67023216D01*
X146113436Y-66955296D01*
X145965866Y-66856693D01*
X145840367Y-66731194D01*
X145741764Y-66583624D01*
X145673844Y-66419652D01*
X145639220Y-66245581D01*
X145639220Y-66068099D01*
X145673844Y-65894028D01*
X145741764Y-65730056D01*
X145840367Y-65582486D01*
X145965866Y-65456987D01*
X146113436Y-65358384D01*
X146277408Y-65290464D01*
X146426708Y-65260767D01*
X146451478Y-65255840D01*
X146628962Y-65255840D01*
X146653732Y-65260767D01*
G37*
G36*
X169513732Y-62720767D02*
G01*
X169663032Y-62750464D01*
X169827004Y-62818384D01*
X169974574Y-62916987D01*
X170100073Y-63042486D01*
X170198676Y-63190056D01*
X170266596Y-63354028D01*
X170301220Y-63528099D01*
X170301220Y-63705581D01*
X170266596Y-63879652D01*
X170198676Y-64043624D01*
X170100073Y-64191194D01*
X169974574Y-64316693D01*
X169827004Y-64415296D01*
X169663032Y-64483216D01*
X169513732Y-64512913D01*
X169488962Y-64517840D01*
X169311478Y-64517840D01*
X169286708Y-64512913D01*
X169137408Y-64483216D01*
X168973436Y-64415296D01*
X168825866Y-64316693D01*
X168700367Y-64191194D01*
X168601764Y-64043624D01*
X168533844Y-63879652D01*
X168499220Y-63705581D01*
X168499220Y-63528099D01*
X168533844Y-63354028D01*
X168601764Y-63190056D01*
X168700367Y-63042486D01*
X168825866Y-62916987D01*
X168973436Y-62818384D01*
X169137408Y-62750464D01*
X169286708Y-62720767D01*
X169311478Y-62715840D01*
X169488962Y-62715840D01*
X169513732Y-62720767D01*
G37*
G36*
X146653732Y-62720767D02*
G01*
X146803032Y-62750464D01*
X146967004Y-62818384D01*
X147114574Y-62916987D01*
X147240073Y-63042486D01*
X147338676Y-63190056D01*
X147406596Y-63354028D01*
X147441220Y-63528099D01*
X147441220Y-63705581D01*
X147406596Y-63879652D01*
X147338676Y-64043624D01*
X147240073Y-64191194D01*
X147114574Y-64316693D01*
X146967004Y-64415296D01*
X146803032Y-64483216D01*
X146653732Y-64512913D01*
X146628962Y-64517840D01*
X146451478Y-64517840D01*
X146426708Y-64512913D01*
X146277408Y-64483216D01*
X146113436Y-64415296D01*
X145965866Y-64316693D01*
X145840367Y-64191194D01*
X145741764Y-64043624D01*
X145673844Y-63879652D01*
X145639220Y-63705581D01*
X145639220Y-63528099D01*
X145673844Y-63354028D01*
X145741764Y-63190056D01*
X145840367Y-63042486D01*
X145965866Y-62916987D01*
X146113436Y-62818384D01*
X146277408Y-62750464D01*
X146426708Y-62720767D01*
X146451478Y-62715840D01*
X146628962Y-62715840D01*
X146653732Y-62720767D01*
G37*
G36*
X178764508Y-61879063D02*
G01*
X178919380Y-61943213D01*
X179058761Y-62036345D01*
X179177295Y-62154879D01*
X179270427Y-62294260D01*
X179334577Y-62449132D01*
X179367280Y-62613544D01*
X179367280Y-62781176D01*
X179334577Y-62945588D01*
X179270427Y-63100460D01*
X179177295Y-63239841D01*
X179058761Y-63358375D01*
X178919380Y-63451507D01*
X178764508Y-63515657D01*
X178600096Y-63548360D01*
X178432464Y-63548360D01*
X178268052Y-63515657D01*
X178113180Y-63451507D01*
X177973799Y-63358375D01*
X177855265Y-63239841D01*
X177762133Y-63100460D01*
X177697983Y-62945588D01*
X177665280Y-62781176D01*
X177665280Y-62613544D01*
X177697983Y-62449132D01*
X177762133Y-62294260D01*
X177855265Y-62154879D01*
X177973799Y-62036345D01*
X178113180Y-61943213D01*
X178268052Y-61879063D01*
X178432464Y-61846360D01*
X178600096Y-61846360D01*
X178764508Y-61879063D01*
G37*
G36*
X183336508Y-61752063D02*
G01*
X183491380Y-61816213D01*
X183630761Y-61909345D01*
X183749295Y-62027879D01*
X183842427Y-62167260D01*
X183906577Y-62322132D01*
X183939280Y-62486544D01*
X183939280Y-62654176D01*
X183906577Y-62818588D01*
X183842427Y-62973460D01*
X183749295Y-63112841D01*
X183630761Y-63231375D01*
X183491380Y-63324507D01*
X183336508Y-63388657D01*
X183172096Y-63421360D01*
X183004464Y-63421360D01*
X182840052Y-63388657D01*
X182685180Y-63324507D01*
X182545799Y-63231375D01*
X182427265Y-63112841D01*
X182334133Y-62973460D01*
X182269983Y-62818588D01*
X182237280Y-62654176D01*
X182237280Y-62486544D01*
X182269983Y-62322132D01*
X182334133Y-62167260D01*
X182427265Y-62027879D01*
X182545799Y-61909345D01*
X182685180Y-61816213D01*
X182840052Y-61752063D01*
X183004464Y-61719360D01*
X183172096Y-61719360D01*
X183336508Y-61752063D01*
G37*
G36*
X146653732Y-60180767D02*
G01*
X146803032Y-60210464D01*
X146967004Y-60278384D01*
X147114574Y-60376987D01*
X147240073Y-60502486D01*
X147338676Y-60650056D01*
X147406596Y-60814028D01*
X147441220Y-60988099D01*
X147441220Y-61165581D01*
X147406596Y-61339652D01*
X147338676Y-61503624D01*
X147240073Y-61651194D01*
X147114574Y-61776693D01*
X146967004Y-61875296D01*
X146803032Y-61943216D01*
X146653732Y-61972913D01*
X146628962Y-61977840D01*
X146451478Y-61977840D01*
X146426708Y-61972913D01*
X146277408Y-61943216D01*
X146113436Y-61875296D01*
X145965866Y-61776693D01*
X145840367Y-61651194D01*
X145741764Y-61503624D01*
X145673844Y-61339652D01*
X145639220Y-61165581D01*
X145639220Y-60988099D01*
X145673844Y-60814028D01*
X145741764Y-60650056D01*
X145840367Y-60502486D01*
X145965866Y-60376987D01*
X146113436Y-60278384D01*
X146277408Y-60210464D01*
X146426708Y-60180767D01*
X146451478Y-60175840D01*
X146628962Y-60175840D01*
X146653732Y-60180767D01*
G37*
G36*
X169513732Y-60180767D02*
G01*
X169663032Y-60210464D01*
X169827004Y-60278384D01*
X169974574Y-60376987D01*
X170100073Y-60502486D01*
X170198676Y-60650056D01*
X170266596Y-60814028D01*
X170301220Y-60988099D01*
X170301220Y-61165581D01*
X170266596Y-61339652D01*
X170198676Y-61503624D01*
X170100073Y-61651194D01*
X169974574Y-61776693D01*
X169827004Y-61875296D01*
X169663032Y-61943216D01*
X169513732Y-61972913D01*
X169488962Y-61977840D01*
X169311478Y-61977840D01*
X169286708Y-61972913D01*
X169137408Y-61943216D01*
X168973436Y-61875296D01*
X168825866Y-61776693D01*
X168700367Y-61651194D01*
X168601764Y-61503624D01*
X168533844Y-61339652D01*
X168499220Y-61165581D01*
X168499220Y-60988099D01*
X168533844Y-60814028D01*
X168601764Y-60650056D01*
X168700367Y-60502486D01*
X168825866Y-60376987D01*
X168973436Y-60278384D01*
X169137408Y-60210464D01*
X169286708Y-60180767D01*
X169311478Y-60175840D01*
X169488962Y-60175840D01*
X169513732Y-60180767D01*
G37*
G36*
X192938512Y-58272327D02*
G01*
X193087812Y-58302024D01*
X193251784Y-58369944D01*
X193399354Y-58468547D01*
X193524853Y-58594046D01*
X193623456Y-58741616D01*
X193691376Y-58905588D01*
X193726000Y-59079659D01*
X193726000Y-59257141D01*
X193691376Y-59431212D01*
X193623456Y-59595184D01*
X193524853Y-59742754D01*
X193399354Y-59868253D01*
X193251784Y-59966856D01*
X193087812Y-60034776D01*
X192938512Y-60064473D01*
X192913742Y-60069400D01*
X192736258Y-60069400D01*
X192711488Y-60064473D01*
X192562188Y-60034776D01*
X192398216Y-59966856D01*
X192250646Y-59868253D01*
X192125147Y-59742754D01*
X192026544Y-59595184D01*
X191958624Y-59431212D01*
X191924000Y-59257141D01*
X191924000Y-59079659D01*
X191958624Y-58905588D01*
X192026544Y-58741616D01*
X192125147Y-58594046D01*
X192250646Y-58468547D01*
X192398216Y-58369944D01*
X192562188Y-58302024D01*
X192711488Y-58272327D01*
X192736258Y-58267400D01*
X192913742Y-58267400D01*
X192938512Y-58272327D01*
G37*
G36*
X198806000Y-60069400D02*
G01*
X197004000Y-60069400D01*
X197004000Y-58267400D01*
X198806000Y-58267400D01*
X198806000Y-60069400D01*
G37*
G36*
X195478512Y-58272327D02*
G01*
X195627812Y-58302024D01*
X195791784Y-58369944D01*
X195939354Y-58468547D01*
X196064853Y-58594046D01*
X196163456Y-58741616D01*
X196231376Y-58905588D01*
X196266000Y-59079659D01*
X196266000Y-59257141D01*
X196231376Y-59431212D01*
X196163456Y-59595184D01*
X196064853Y-59742754D01*
X195939354Y-59868253D01*
X195791784Y-59966856D01*
X195627812Y-60034776D01*
X195478512Y-60064473D01*
X195453742Y-60069400D01*
X195276258Y-60069400D01*
X195251488Y-60064473D01*
X195102188Y-60034776D01*
X194938216Y-59966856D01*
X194790646Y-59868253D01*
X194665147Y-59742754D01*
X194566544Y-59595184D01*
X194498624Y-59431212D01*
X194464000Y-59257141D01*
X194464000Y-59079659D01*
X194498624Y-58905588D01*
X194566544Y-58741616D01*
X194665147Y-58594046D01*
X194790646Y-58468547D01*
X194938216Y-58369944D01*
X195102188Y-58302024D01*
X195251488Y-58272327D01*
X195276258Y-58267400D01*
X195453742Y-58267400D01*
X195478512Y-58272327D01*
G37*
G36*
X190398512Y-58272327D02*
G01*
X190547812Y-58302024D01*
X190711784Y-58369944D01*
X190859354Y-58468547D01*
X190984853Y-58594046D01*
X191083456Y-58741616D01*
X191151376Y-58905588D01*
X191186000Y-59079659D01*
X191186000Y-59257141D01*
X191151376Y-59431212D01*
X191083456Y-59595184D01*
X190984853Y-59742754D01*
X190859354Y-59868253D01*
X190711784Y-59966856D01*
X190547812Y-60034776D01*
X190398512Y-60064473D01*
X190373742Y-60069400D01*
X190196258Y-60069400D01*
X190171488Y-60064473D01*
X190022188Y-60034776D01*
X189858216Y-59966856D01*
X189710646Y-59868253D01*
X189585147Y-59742754D01*
X189486544Y-59595184D01*
X189418624Y-59431212D01*
X189384000Y-59257141D01*
X189384000Y-59079659D01*
X189418624Y-58905588D01*
X189486544Y-58741616D01*
X189585147Y-58594046D01*
X189710646Y-58468547D01*
X189858216Y-58369944D01*
X190022188Y-58302024D01*
X190171488Y-58272327D01*
X190196258Y-58267400D01*
X190373742Y-58267400D01*
X190398512Y-58272327D01*
G37*
G36*
X169513732Y-57640767D02*
G01*
X169663032Y-57670464D01*
X169827004Y-57738384D01*
X169974574Y-57836987D01*
X170100073Y-57962486D01*
X170198676Y-58110056D01*
X170266596Y-58274028D01*
X170301220Y-58448099D01*
X170301220Y-58625581D01*
X170266596Y-58799652D01*
X170198676Y-58963624D01*
X170100073Y-59111194D01*
X169974574Y-59236693D01*
X169827004Y-59335296D01*
X169663032Y-59403216D01*
X169522288Y-59431211D01*
X169488962Y-59437840D01*
X169311478Y-59437840D01*
X169278152Y-59431211D01*
X169137408Y-59403216D01*
X168973436Y-59335296D01*
X168825866Y-59236693D01*
X168700367Y-59111194D01*
X168601764Y-58963624D01*
X168533844Y-58799652D01*
X168499220Y-58625581D01*
X168499220Y-58448099D01*
X168533844Y-58274028D01*
X168601764Y-58110056D01*
X168700367Y-57962486D01*
X168825866Y-57836987D01*
X168973436Y-57738384D01*
X169137408Y-57670464D01*
X169286708Y-57640767D01*
X169311478Y-57635840D01*
X169488962Y-57635840D01*
X169513732Y-57640767D01*
G37*
G36*
X146653732Y-57640767D02*
G01*
X146803032Y-57670464D01*
X146967004Y-57738384D01*
X147114574Y-57836987D01*
X147240073Y-57962486D01*
X147338676Y-58110056D01*
X147406596Y-58274028D01*
X147441220Y-58448099D01*
X147441220Y-58625581D01*
X147406596Y-58799652D01*
X147338676Y-58963624D01*
X147240073Y-59111194D01*
X147114574Y-59236693D01*
X146967004Y-59335296D01*
X146803032Y-59403216D01*
X146662288Y-59431211D01*
X146628962Y-59437840D01*
X146451478Y-59437840D01*
X146418152Y-59431211D01*
X146277408Y-59403216D01*
X146113436Y-59335296D01*
X145965866Y-59236693D01*
X145840367Y-59111194D01*
X145741764Y-58963624D01*
X145673844Y-58799652D01*
X145639220Y-58625581D01*
X145639220Y-58448099D01*
X145673844Y-58274028D01*
X145741764Y-58110056D01*
X145840367Y-57962486D01*
X145965866Y-57836987D01*
X146113436Y-57738384D01*
X146277408Y-57670464D01*
X146426708Y-57640767D01*
X146451478Y-57635840D01*
X146628962Y-57635840D01*
X146653732Y-57640767D01*
G37*
G36*
X169513732Y-55100767D02*
G01*
X169663032Y-55130464D01*
X169827004Y-55198384D01*
X169974574Y-55296987D01*
X170100073Y-55422486D01*
X170198676Y-55570056D01*
X170266596Y-55734028D01*
X170301220Y-55908099D01*
X170301220Y-56085581D01*
X170266596Y-56259652D01*
X170198676Y-56423624D01*
X170100073Y-56571194D01*
X169974574Y-56696693D01*
X169827004Y-56795296D01*
X169663032Y-56863216D01*
X169513732Y-56892913D01*
X169488962Y-56897840D01*
X169311478Y-56897840D01*
X169286708Y-56892913D01*
X169137408Y-56863216D01*
X168973436Y-56795296D01*
X168825866Y-56696693D01*
X168700367Y-56571194D01*
X168601764Y-56423624D01*
X168533844Y-56259652D01*
X168499220Y-56085581D01*
X168499220Y-55908099D01*
X168533844Y-55734028D01*
X168601764Y-55570056D01*
X168700367Y-55422486D01*
X168825866Y-55296987D01*
X168973436Y-55198384D01*
X169137408Y-55130464D01*
X169286708Y-55100767D01*
X169311478Y-55095840D01*
X169488962Y-55095840D01*
X169513732Y-55100767D01*
G37*
G36*
X146653732Y-55100767D02*
G01*
X146803032Y-55130464D01*
X146967004Y-55198384D01*
X147114574Y-55296987D01*
X147240073Y-55422486D01*
X147338676Y-55570056D01*
X147406596Y-55734028D01*
X147441220Y-55908099D01*
X147441220Y-56085581D01*
X147406596Y-56259652D01*
X147338676Y-56423624D01*
X147240073Y-56571194D01*
X147114574Y-56696693D01*
X146967004Y-56795296D01*
X146803032Y-56863216D01*
X146653732Y-56892913D01*
X146628962Y-56897840D01*
X146451478Y-56897840D01*
X146426708Y-56892913D01*
X146277408Y-56863216D01*
X146113436Y-56795296D01*
X145965866Y-56696693D01*
X145840367Y-56571194D01*
X145741764Y-56423624D01*
X145673844Y-56259652D01*
X145639220Y-56085581D01*
X145639220Y-55908099D01*
X145673844Y-55734028D01*
X145741764Y-55570056D01*
X145840367Y-55422486D01*
X145965866Y-55296987D01*
X146113436Y-55198384D01*
X146277408Y-55130464D01*
X146426708Y-55100767D01*
X146451478Y-55095840D01*
X146628962Y-55095840D01*
X146653732Y-55100767D01*
G37*
G36*
X146653732Y-52560767D02*
G01*
X146803032Y-52590464D01*
X146967004Y-52658384D01*
X147114574Y-52756987D01*
X147240073Y-52882486D01*
X147338676Y-53030056D01*
X147406596Y-53194028D01*
X147441220Y-53368099D01*
X147441220Y-53545581D01*
X147406596Y-53719652D01*
X147338676Y-53883624D01*
X147240073Y-54031194D01*
X147114574Y-54156693D01*
X146967004Y-54255296D01*
X146803032Y-54323216D01*
X146653732Y-54352913D01*
X146628962Y-54357840D01*
X146451478Y-54357840D01*
X146426708Y-54352913D01*
X146277408Y-54323216D01*
X146113436Y-54255296D01*
X145965866Y-54156693D01*
X145840367Y-54031194D01*
X145741764Y-53883624D01*
X145673844Y-53719652D01*
X145639220Y-53545581D01*
X145639220Y-53368099D01*
X145673844Y-53194028D01*
X145741764Y-53030056D01*
X145840367Y-52882486D01*
X145965866Y-52756987D01*
X146113436Y-52658384D01*
X146277408Y-52590464D01*
X146426708Y-52560767D01*
X146451478Y-52555840D01*
X146628962Y-52555840D01*
X146653732Y-52560767D01*
G37*
G36*
X169513732Y-52560767D02*
G01*
X169663032Y-52590464D01*
X169827004Y-52658384D01*
X169974574Y-52756987D01*
X170100073Y-52882486D01*
X170198676Y-53030056D01*
X170266596Y-53194028D01*
X170301220Y-53368099D01*
X170301220Y-53545581D01*
X170266596Y-53719652D01*
X170198676Y-53883624D01*
X170100073Y-54031194D01*
X169974574Y-54156693D01*
X169827004Y-54255296D01*
X169663032Y-54323216D01*
X169513732Y-54352913D01*
X169488962Y-54357840D01*
X169311478Y-54357840D01*
X169286708Y-54352913D01*
X169137408Y-54323216D01*
X168973436Y-54255296D01*
X168825866Y-54156693D01*
X168700367Y-54031194D01*
X168601764Y-53883624D01*
X168533844Y-53719652D01*
X168499220Y-53545581D01*
X168499220Y-53368099D01*
X168533844Y-53194028D01*
X168601764Y-53030056D01*
X168700367Y-52882486D01*
X168825866Y-52756987D01*
X168973436Y-52658384D01*
X169137408Y-52590464D01*
X169286708Y-52560767D01*
X169311478Y-52555840D01*
X169488962Y-52555840D01*
X169513732Y-52560767D01*
G37*
G36*
X198806000Y-54069400D02*
G01*
X197004000Y-54069400D01*
X197004000Y-52267400D01*
X198806000Y-52267400D01*
X198806000Y-54069400D01*
G37*
G36*
X190398512Y-52272327D02*
G01*
X190547812Y-52302024D01*
X190711784Y-52369944D01*
X190859354Y-52468547D01*
X190984853Y-52594046D01*
X191083456Y-52741616D01*
X191151376Y-52905588D01*
X191186000Y-53079659D01*
X191186000Y-53257141D01*
X191151376Y-53431212D01*
X191083456Y-53595184D01*
X190984853Y-53742754D01*
X190859354Y-53868253D01*
X190711784Y-53966856D01*
X190547812Y-54034776D01*
X190398512Y-54064473D01*
X190373742Y-54069400D01*
X190196258Y-54069400D01*
X190171488Y-54064473D01*
X190022188Y-54034776D01*
X189858216Y-53966856D01*
X189710646Y-53868253D01*
X189585147Y-53742754D01*
X189486544Y-53595184D01*
X189418624Y-53431212D01*
X189384000Y-53257141D01*
X189384000Y-53079659D01*
X189418624Y-52905588D01*
X189486544Y-52741616D01*
X189585147Y-52594046D01*
X189710646Y-52468547D01*
X189858216Y-52369944D01*
X190022188Y-52302024D01*
X190171488Y-52272327D01*
X190196258Y-52267400D01*
X190373742Y-52267400D01*
X190398512Y-52272327D01*
G37*
G36*
X192938512Y-52272327D02*
G01*
X193087812Y-52302024D01*
X193251784Y-52369944D01*
X193399354Y-52468547D01*
X193524853Y-52594046D01*
X193623456Y-52741616D01*
X193691376Y-52905588D01*
X193726000Y-53079659D01*
X193726000Y-53257141D01*
X193691376Y-53431212D01*
X193623456Y-53595184D01*
X193524853Y-53742754D01*
X193399354Y-53868253D01*
X193251784Y-53966856D01*
X193087812Y-54034776D01*
X192938512Y-54064473D01*
X192913742Y-54069400D01*
X192736258Y-54069400D01*
X192711488Y-54064473D01*
X192562188Y-54034776D01*
X192398216Y-53966856D01*
X192250646Y-53868253D01*
X192125147Y-53742754D01*
X192026544Y-53595184D01*
X191958624Y-53431212D01*
X191924000Y-53257141D01*
X191924000Y-53079659D01*
X191958624Y-52905588D01*
X192026544Y-52741616D01*
X192125147Y-52594046D01*
X192250646Y-52468547D01*
X192398216Y-52369944D01*
X192562188Y-52302024D01*
X192711488Y-52272327D01*
X192736258Y-52267400D01*
X192913742Y-52267400D01*
X192938512Y-52272327D01*
G37*
G36*
X195478512Y-52272327D02*
G01*
X195627812Y-52302024D01*
X195791784Y-52369944D01*
X195939354Y-52468547D01*
X196064853Y-52594046D01*
X196163456Y-52741616D01*
X196231376Y-52905588D01*
X196266000Y-53079659D01*
X196266000Y-53257141D01*
X196231376Y-53431212D01*
X196163456Y-53595184D01*
X196064853Y-53742754D01*
X195939354Y-53868253D01*
X195791784Y-53966856D01*
X195627812Y-54034776D01*
X195478512Y-54064473D01*
X195453742Y-54069400D01*
X195276258Y-54069400D01*
X195251488Y-54064473D01*
X195102188Y-54034776D01*
X194938216Y-53966856D01*
X194790646Y-53868253D01*
X194665147Y-53742754D01*
X194566544Y-53595184D01*
X194498624Y-53431212D01*
X194464000Y-53257141D01*
X194464000Y-53079659D01*
X194498624Y-52905588D01*
X194566544Y-52741616D01*
X194665147Y-52594046D01*
X194790646Y-52468547D01*
X194938216Y-52369944D01*
X195102188Y-52302024D01*
X195251488Y-52272327D01*
X195276258Y-52267400D01*
X195453742Y-52267400D01*
X195478512Y-52272327D01*
G37*
G36*
X178764508Y-51719063D02*
G01*
X178919380Y-51783213D01*
X179058761Y-51876345D01*
X179177295Y-51994879D01*
X179270427Y-52134260D01*
X179334577Y-52289132D01*
X179367280Y-52453544D01*
X179367280Y-52621176D01*
X179334577Y-52785588D01*
X179270427Y-52940460D01*
X179177295Y-53079841D01*
X179058761Y-53198375D01*
X178919380Y-53291507D01*
X178764508Y-53355657D01*
X178600096Y-53388360D01*
X178432464Y-53388360D01*
X178268052Y-53355657D01*
X178113180Y-53291507D01*
X177973799Y-53198375D01*
X177855265Y-53079841D01*
X177762133Y-52940460D01*
X177697983Y-52785588D01*
X177665280Y-52621176D01*
X177665280Y-52453544D01*
X177697983Y-52289132D01*
X177762133Y-52134260D01*
X177855265Y-51994879D01*
X177973799Y-51876345D01*
X178113180Y-51783213D01*
X178268052Y-51719063D01*
X178432464Y-51686360D01*
X178600096Y-51686360D01*
X178764508Y-51719063D01*
G37*
G36*
X183336508Y-51592063D02*
G01*
X183491380Y-51656213D01*
X183630761Y-51749345D01*
X183749295Y-51867879D01*
X183842427Y-52007260D01*
X183906577Y-52162132D01*
X183939280Y-52326544D01*
X183939280Y-52494176D01*
X183906577Y-52658588D01*
X183842427Y-52813460D01*
X183749295Y-52952841D01*
X183630761Y-53071375D01*
X183491380Y-53164507D01*
X183336508Y-53228657D01*
X183172096Y-53261360D01*
X183004464Y-53261360D01*
X182840052Y-53228657D01*
X182685180Y-53164507D01*
X182545799Y-53071375D01*
X182427265Y-52952841D01*
X182334133Y-52813460D01*
X182269983Y-52658588D01*
X182237280Y-52494176D01*
X182237280Y-52326544D01*
X182269983Y-52162132D01*
X182334133Y-52007260D01*
X182427265Y-51867879D01*
X182545799Y-51749345D01*
X182685180Y-51656213D01*
X182840052Y-51592063D01*
X183004464Y-51559360D01*
X183172096Y-51559360D01*
X183336508Y-51592063D01*
G37*
G36*
X146653732Y-50020767D02*
G01*
X146803032Y-50050464D01*
X146967004Y-50118384D01*
X147114574Y-50216987D01*
X147240073Y-50342486D01*
X147338676Y-50490056D01*
X147406596Y-50654028D01*
X147441220Y-50828099D01*
X147441220Y-51005581D01*
X147406596Y-51179652D01*
X147338676Y-51343624D01*
X147240073Y-51491194D01*
X147114574Y-51616693D01*
X146967004Y-51715296D01*
X146803032Y-51783216D01*
X146653732Y-51812913D01*
X146628962Y-51817840D01*
X146451478Y-51817840D01*
X146426708Y-51812913D01*
X146277408Y-51783216D01*
X146113436Y-51715296D01*
X145965866Y-51616693D01*
X145840367Y-51491194D01*
X145741764Y-51343624D01*
X145673844Y-51179652D01*
X145639220Y-51005581D01*
X145639220Y-50828099D01*
X145673844Y-50654028D01*
X145741764Y-50490056D01*
X145840367Y-50342486D01*
X145965866Y-50216987D01*
X146113436Y-50118384D01*
X146277408Y-50050464D01*
X146426708Y-50020767D01*
X146451478Y-50015840D01*
X146628962Y-50015840D01*
X146653732Y-50020767D01*
G37*
G36*
X169513732Y-50020767D02*
G01*
X169663032Y-50050464D01*
X169827004Y-50118384D01*
X169974574Y-50216987D01*
X170100073Y-50342486D01*
X170198676Y-50490056D01*
X170266596Y-50654028D01*
X170301220Y-50828099D01*
X170301220Y-51005581D01*
X170266596Y-51179652D01*
X170198676Y-51343624D01*
X170100073Y-51491194D01*
X169974574Y-51616693D01*
X169827004Y-51715296D01*
X169663032Y-51783216D01*
X169513732Y-51812913D01*
X169488962Y-51817840D01*
X169311478Y-51817840D01*
X169286708Y-51812913D01*
X169137408Y-51783216D01*
X168973436Y-51715296D01*
X168825866Y-51616693D01*
X168700367Y-51491194D01*
X168601764Y-51343624D01*
X168533844Y-51179652D01*
X168499220Y-51005581D01*
X168499220Y-50828099D01*
X168533844Y-50654028D01*
X168601764Y-50490056D01*
X168700367Y-50342486D01*
X168825866Y-50216987D01*
X168973436Y-50118384D01*
X169137408Y-50050464D01*
X169286708Y-50020767D01*
X169311478Y-50015840D01*
X169488962Y-50015840D01*
X169513732Y-50020767D01*
G37*
G36*
X199925248Y-48925063D02*
G01*
X200080120Y-48989213D01*
X200219501Y-49082345D01*
X200338035Y-49200879D01*
X200431167Y-49340260D01*
X200495317Y-49495132D01*
X200528020Y-49659544D01*
X200528020Y-49827176D01*
X200495317Y-49991588D01*
X200431167Y-50146460D01*
X200338035Y-50285841D01*
X200219501Y-50404375D01*
X200080120Y-50497507D01*
X199925248Y-50561657D01*
X199760836Y-50594360D01*
X199593204Y-50594360D01*
X199428792Y-50561657D01*
X199273920Y-50497507D01*
X199134539Y-50404375D01*
X199016005Y-50285841D01*
X198922873Y-50146460D01*
X198858723Y-49991588D01*
X198826020Y-49827176D01*
X198826020Y-49659544D01*
X198858723Y-49495132D01*
X198922873Y-49340260D01*
X199016005Y-49200879D01*
X199134539Y-49082345D01*
X199273920Y-48989213D01*
X199428792Y-48925063D01*
X199593204Y-48892360D01*
X199760836Y-48892360D01*
X199925248Y-48925063D01*
G37*
G36*
X204989248Y-48925063D02*
G01*
X205144120Y-48989213D01*
X205283501Y-49082345D01*
X205402035Y-49200879D01*
X205495167Y-49340260D01*
X205559317Y-49495132D01*
X205592020Y-49659544D01*
X205592020Y-49827176D01*
X205559317Y-49991588D01*
X205495167Y-50146460D01*
X205402035Y-50285841D01*
X205283501Y-50404375D01*
X205144120Y-50497507D01*
X204989248Y-50561657D01*
X204824836Y-50594360D01*
X204657204Y-50594360D01*
X204492792Y-50561657D01*
X204337920Y-50497507D01*
X204198539Y-50404375D01*
X204080005Y-50285841D01*
X203986873Y-50146460D01*
X203922723Y-49991588D01*
X203890020Y-49827176D01*
X203890020Y-49659544D01*
X203922723Y-49495132D01*
X203986873Y-49340260D01*
X204080005Y-49200879D01*
X204198539Y-49082345D01*
X204337920Y-48989213D01*
X204492792Y-48925063D01*
X204657204Y-48892360D01*
X204824836Y-48892360D01*
X204989248Y-48925063D01*
G37*
G36*
X146653732Y-47480767D02*
G01*
X146803032Y-47510464D01*
X146967004Y-47578384D01*
X147114574Y-47676987D01*
X147240073Y-47802486D01*
X147338676Y-47950056D01*
X147406596Y-48114028D01*
X147436293Y-48263328D01*
X147440414Y-48284044D01*
X147441220Y-48288099D01*
X147441220Y-48465581D01*
X147406596Y-48639652D01*
X147338676Y-48803624D01*
X147240073Y-48951194D01*
X147114574Y-49076693D01*
X146967004Y-49175296D01*
X146803032Y-49243216D01*
X146653732Y-49272913D01*
X146628962Y-49277840D01*
X146451478Y-49277840D01*
X146426708Y-49272913D01*
X146277408Y-49243216D01*
X146113436Y-49175296D01*
X145965866Y-49076693D01*
X145840367Y-48951194D01*
X145741764Y-48803624D01*
X145673844Y-48639652D01*
X145639220Y-48465581D01*
X145639220Y-48288099D01*
X145640027Y-48284044D01*
X145644147Y-48263328D01*
X145673844Y-48114028D01*
X145741764Y-47950056D01*
X145840367Y-47802486D01*
X145965866Y-47676987D01*
X146113436Y-47578384D01*
X146277408Y-47510464D01*
X146426708Y-47480767D01*
X146451478Y-47475840D01*
X146628962Y-47475840D01*
X146653732Y-47480767D01*
G37*
G36*
X169513732Y-47480767D02*
G01*
X169663032Y-47510464D01*
X169827004Y-47578384D01*
X169974574Y-47676987D01*
X170100073Y-47802486D01*
X170198676Y-47950056D01*
X170266596Y-48114028D01*
X170296293Y-48263328D01*
X170300414Y-48284044D01*
X170301220Y-48288099D01*
X170301220Y-48465581D01*
X170266596Y-48639652D01*
X170198676Y-48803624D01*
X170100073Y-48951194D01*
X169974574Y-49076693D01*
X169827004Y-49175296D01*
X169663032Y-49243216D01*
X169513732Y-49272913D01*
X169488962Y-49277840D01*
X169311478Y-49277840D01*
X169286708Y-49272913D01*
X169137408Y-49243216D01*
X168973436Y-49175296D01*
X168825866Y-49076693D01*
X168700367Y-48951194D01*
X168601764Y-48803624D01*
X168533844Y-48639652D01*
X168499220Y-48465581D01*
X168499220Y-48288099D01*
X168500027Y-48284044D01*
X168504147Y-48263328D01*
X168533844Y-48114028D01*
X168601764Y-47950056D01*
X168700367Y-47802486D01*
X168825866Y-47676987D01*
X168973436Y-47578384D01*
X169137408Y-47510464D01*
X169286708Y-47480767D01*
X169311478Y-47475840D01*
X169488962Y-47475840D01*
X169513732Y-47480767D01*
G37*
G36*
X185786049Y-47229711D02*
G01*
X185947875Y-47296742D01*
X186093509Y-47394051D01*
X186217369Y-47517911D01*
X186314678Y-47663545D01*
X186381709Y-47825371D01*
X186415880Y-47997160D01*
X186415880Y-48172320D01*
X186381709Y-48344109D01*
X186314678Y-48505935D01*
X186217369Y-48651569D01*
X186093509Y-48775429D01*
X185947875Y-48872738D01*
X185786049Y-48939769D01*
X185614260Y-48973940D01*
X185439100Y-48973940D01*
X185267311Y-48939769D01*
X185105485Y-48872738D01*
X184959851Y-48775429D01*
X184835991Y-48651569D01*
X184738682Y-48505935D01*
X184671651Y-48344109D01*
X184637480Y-48172320D01*
X184637480Y-47997160D01*
X184671651Y-47825371D01*
X184738682Y-47663545D01*
X184835991Y-47517911D01*
X184959851Y-47394051D01*
X185105485Y-47296742D01*
X185267311Y-47229711D01*
X185439100Y-47195540D01*
X185614260Y-47195540D01*
X185786049Y-47229711D01*
G37*
G36*
X183246049Y-47229711D02*
G01*
X183407875Y-47296742D01*
X183553509Y-47394051D01*
X183677369Y-47517911D01*
X183774678Y-47663545D01*
X183841709Y-47825371D01*
X183875880Y-47997160D01*
X183875880Y-48172320D01*
X183841709Y-48344109D01*
X183774678Y-48505935D01*
X183677369Y-48651569D01*
X183553509Y-48775429D01*
X183407875Y-48872738D01*
X183246049Y-48939769D01*
X183074260Y-48973940D01*
X182899100Y-48973940D01*
X182727311Y-48939769D01*
X182565485Y-48872738D01*
X182419851Y-48775429D01*
X182295991Y-48651569D01*
X182198682Y-48505935D01*
X182131651Y-48344109D01*
X182097480Y-48172320D01*
X182097480Y-47997160D01*
X182131651Y-47825371D01*
X182198682Y-47663545D01*
X182295991Y-47517911D01*
X182419851Y-47394051D01*
X182565485Y-47296742D01*
X182727311Y-47229711D01*
X182899100Y-47195540D01*
X183074260Y-47195540D01*
X183246049Y-47229711D01*
G37*
G36*
X180706049Y-47229711D02*
G01*
X180867875Y-47296742D01*
X181013509Y-47394051D01*
X181137369Y-47517911D01*
X181234678Y-47663545D01*
X181301709Y-47825371D01*
X181335880Y-47997160D01*
X181335880Y-48172320D01*
X181301709Y-48344109D01*
X181234678Y-48505935D01*
X181137369Y-48651569D01*
X181013509Y-48775429D01*
X180867875Y-48872738D01*
X180706049Y-48939769D01*
X180534260Y-48973940D01*
X180359100Y-48973940D01*
X180187311Y-48939769D01*
X180025485Y-48872738D01*
X179879851Y-48775429D01*
X179755991Y-48651569D01*
X179658682Y-48505935D01*
X179591651Y-48344109D01*
X179557480Y-48172320D01*
X179557480Y-47997160D01*
X179591651Y-47825371D01*
X179658682Y-47663545D01*
X179755991Y-47517911D01*
X179879851Y-47394051D01*
X180025485Y-47296742D01*
X180187311Y-47229711D01*
X180359100Y-47195540D01*
X180534260Y-47195540D01*
X180706049Y-47229711D01*
G37*
G36*
X178795880Y-48973940D02*
G01*
X177017480Y-48973940D01*
X177017480Y-47195540D01*
X178795880Y-47195540D01*
X178795880Y-48973940D01*
G37*
G36*
X189051508Y-46048843D02*
G01*
X189206380Y-46112993D01*
X189345761Y-46206125D01*
X189464295Y-46324659D01*
X189557427Y-46464040D01*
X189621577Y-46618912D01*
X189654280Y-46783324D01*
X189654280Y-46950956D01*
X189621577Y-47115368D01*
X189557427Y-47270240D01*
X189464295Y-47409621D01*
X189464291Y-47409625D01*
X189459684Y-47416520D01*
X189454618Y-47422694D01*
X189443067Y-47444305D01*
X189435954Y-47467754D01*
X189433552Y-47492140D01*
X189435954Y-47516526D01*
X189443067Y-47539975D01*
X189454618Y-47561586D01*
X189459684Y-47567760D01*
X189464291Y-47574655D01*
X189464295Y-47574659D01*
X189557427Y-47714040D01*
X189621577Y-47868912D01*
X189654280Y-48033324D01*
X189654280Y-48200956D01*
X189621577Y-48365368D01*
X189557427Y-48520240D01*
X189464295Y-48659621D01*
X189345761Y-48778155D01*
X189206380Y-48871287D01*
X189051508Y-48935437D01*
X188887096Y-48968140D01*
X188719464Y-48968140D01*
X188555052Y-48935437D01*
X188400180Y-48871287D01*
X188260799Y-48778155D01*
X188142265Y-48659621D01*
X188049133Y-48520240D01*
X187984983Y-48365368D01*
X187952280Y-48200956D01*
X187952280Y-48033324D01*
X187984983Y-47868912D01*
X188049133Y-47714040D01*
X188142265Y-47574659D01*
X188142269Y-47574655D01*
X188146876Y-47567760D01*
X188151942Y-47561586D01*
X188163493Y-47539975D01*
X188170606Y-47516526D01*
X188173008Y-47492140D01*
X188170606Y-47467754D01*
X188163493Y-47444305D01*
X188151942Y-47422694D01*
X188146876Y-47416520D01*
X188142269Y-47409625D01*
X188142265Y-47409621D01*
X188049133Y-47270240D01*
X187984983Y-47115368D01*
X187952280Y-46950956D01*
X187952280Y-46783324D01*
X187984983Y-46618912D01*
X188049133Y-46464040D01*
X188142265Y-46324659D01*
X188260799Y-46206125D01*
X188400180Y-46112993D01*
X188555052Y-46048843D01*
X188719464Y-46016140D01*
X188887096Y-46016140D01*
X189051508Y-46048843D01*
G37*
G36*
X194174592Y-46961187D02*
G01*
X194323892Y-46990884D01*
X194487864Y-47058804D01*
X194635434Y-47157407D01*
X194760933Y-47282906D01*
X194859536Y-47430476D01*
X194927456Y-47594448D01*
X194951244Y-47714043D01*
X194962080Y-47768518D01*
X194962080Y-47946002D01*
X194961273Y-47950058D01*
X194927456Y-48120072D01*
X194859536Y-48284044D01*
X194760933Y-48431614D01*
X194635434Y-48557113D01*
X194487864Y-48655716D01*
X194323892Y-48723636D01*
X194174592Y-48753333D01*
X194149822Y-48758260D01*
X193972338Y-48758260D01*
X193947568Y-48753333D01*
X193798268Y-48723636D01*
X193634296Y-48655716D01*
X193486726Y-48557113D01*
X193361227Y-48431614D01*
X193262624Y-48284044D01*
X193194704Y-48120072D01*
X193160887Y-47950058D01*
X193160080Y-47946002D01*
X193160080Y-47768518D01*
X193170916Y-47714043D01*
X193194704Y-47594448D01*
X193262624Y-47430476D01*
X193361227Y-47282906D01*
X193486726Y-47157407D01*
X193634296Y-47058804D01*
X193798268Y-46990884D01*
X193947568Y-46961187D01*
X193972338Y-46956260D01*
X194149822Y-46956260D01*
X194174592Y-46961187D01*
G37*
G36*
X146653732Y-44940767D02*
G01*
X146803032Y-44970464D01*
X146967004Y-45038384D01*
X147114574Y-45136987D01*
X147240073Y-45262486D01*
X147338676Y-45410056D01*
X147406596Y-45574028D01*
X147436293Y-45723328D01*
X147440414Y-45744044D01*
X147441220Y-45748099D01*
X147441220Y-45925581D01*
X147406596Y-46099652D01*
X147338676Y-46263624D01*
X147240073Y-46411194D01*
X147114574Y-46536693D01*
X146967004Y-46635296D01*
X146803032Y-46703216D01*
X146653732Y-46732913D01*
X146628962Y-46737840D01*
X146451478Y-46737840D01*
X146426708Y-46732913D01*
X146277408Y-46703216D01*
X146113436Y-46635296D01*
X145965866Y-46536693D01*
X145840367Y-46411194D01*
X145741764Y-46263624D01*
X145673844Y-46099652D01*
X145639220Y-45925581D01*
X145639220Y-45748099D01*
X145640027Y-45744044D01*
X145644147Y-45723328D01*
X145673844Y-45574028D01*
X145741764Y-45410056D01*
X145840367Y-45262486D01*
X145965866Y-45136987D01*
X146113436Y-45038384D01*
X146277408Y-44970464D01*
X146426708Y-44940767D01*
X146451478Y-44935840D01*
X146628962Y-44935840D01*
X146653732Y-44940767D01*
G37*
G36*
X169513732Y-44940767D02*
G01*
X169663032Y-44970464D01*
X169827004Y-45038384D01*
X169974574Y-45136987D01*
X170100073Y-45262486D01*
X170198676Y-45410056D01*
X170266596Y-45574028D01*
X170296293Y-45723328D01*
X170300414Y-45744044D01*
X170301220Y-45748099D01*
X170301220Y-45925581D01*
X170266596Y-46099652D01*
X170198676Y-46263624D01*
X170100073Y-46411194D01*
X169974574Y-46536693D01*
X169827004Y-46635296D01*
X169663032Y-46703216D01*
X169513732Y-46732913D01*
X169488962Y-46737840D01*
X169311478Y-46737840D01*
X169286708Y-46732913D01*
X169137408Y-46703216D01*
X168973436Y-46635296D01*
X168825866Y-46536693D01*
X168700367Y-46411194D01*
X168601764Y-46263624D01*
X168533844Y-46099652D01*
X168499220Y-45925581D01*
X168499220Y-45748099D01*
X168500027Y-45744044D01*
X168504147Y-45723328D01*
X168533844Y-45574028D01*
X168601764Y-45410056D01*
X168700367Y-45262486D01*
X168825866Y-45136987D01*
X168973436Y-45038384D01*
X169137408Y-44970464D01*
X169286708Y-44940767D01*
X169311478Y-44935840D01*
X169488962Y-44935840D01*
X169513732Y-44940767D01*
G37*
G36*
X180242280Y-46454540D02*
G01*
X177940280Y-46454540D01*
X177940280Y-45752540D01*
X180242280Y-45752540D01*
X180242280Y-46454540D01*
G37*
G36*
X185442280Y-46454540D02*
G01*
X183140280Y-46454540D01*
X183140280Y-45752540D01*
X185442280Y-45752540D01*
X185442280Y-46454540D01*
G37*
G36*
X194174592Y-44421187D02*
G01*
X194323892Y-44450884D01*
X194487864Y-44518804D01*
X194635434Y-44617407D01*
X194760933Y-44742906D01*
X194859536Y-44890476D01*
X194927456Y-45054448D01*
X194953332Y-45184540D01*
X194962080Y-45228518D01*
X194962080Y-45406002D01*
X194961273Y-45410058D01*
X194927456Y-45580072D01*
X194859536Y-45744044D01*
X194760933Y-45891614D01*
X194635434Y-46017113D01*
X194487864Y-46115716D01*
X194323892Y-46183636D01*
X194174592Y-46213333D01*
X194149822Y-46218260D01*
X193972338Y-46218260D01*
X193947568Y-46213333D01*
X193798268Y-46183636D01*
X193634296Y-46115716D01*
X193486726Y-46017113D01*
X193361227Y-45891614D01*
X193262624Y-45744044D01*
X193194704Y-45580072D01*
X193160887Y-45410058D01*
X193160080Y-45406002D01*
X193160080Y-45228518D01*
X193168828Y-45184540D01*
X193194704Y-45054448D01*
X193262624Y-44890476D01*
X193361227Y-44742906D01*
X193486726Y-44617407D01*
X193634296Y-44518804D01*
X193798268Y-44450884D01*
X193947568Y-44421187D01*
X193972338Y-44416260D01*
X194149822Y-44416260D01*
X194174592Y-44421187D01*
G37*
G36*
X185442280Y-45184540D02*
G01*
X183140280Y-45184540D01*
X183140280Y-44482540D01*
X185442280Y-44482540D01*
X185442280Y-45184540D01*
G37*
G36*
X180242280Y-45184540D02*
G01*
X177940280Y-45184540D01*
X177940280Y-44482540D01*
X180242280Y-44482540D01*
X180242280Y-45184540D01*
G37*
G36*
X146653732Y-42400767D02*
G01*
X146803032Y-42430464D01*
X146967004Y-42498384D01*
X147114574Y-42596987D01*
X147240073Y-42722486D01*
X147338676Y-42870056D01*
X147406596Y-43034028D01*
X147436293Y-43183328D01*
X147440414Y-43204044D01*
X147441220Y-43208099D01*
X147441220Y-43385581D01*
X147406596Y-43559652D01*
X147338676Y-43723624D01*
X147240073Y-43871194D01*
X147114574Y-43996693D01*
X146967004Y-44095296D01*
X146803032Y-44163216D01*
X146653732Y-44192913D01*
X146628962Y-44197840D01*
X146451478Y-44197840D01*
X146426708Y-44192913D01*
X146277408Y-44163216D01*
X146113436Y-44095296D01*
X145965866Y-43996693D01*
X145840367Y-43871194D01*
X145741764Y-43723624D01*
X145673844Y-43559652D01*
X145639220Y-43385581D01*
X145639220Y-43208099D01*
X145640027Y-43204044D01*
X145644147Y-43183328D01*
X145673844Y-43034028D01*
X145741764Y-42870056D01*
X145840367Y-42722486D01*
X145965866Y-42596987D01*
X146113436Y-42498384D01*
X146277408Y-42430464D01*
X146426708Y-42400767D01*
X146451478Y-42395840D01*
X146628962Y-42395840D01*
X146653732Y-42400767D01*
G37*
G36*
X169513732Y-42400767D02*
G01*
X169663032Y-42430464D01*
X169827004Y-42498384D01*
X169974574Y-42596987D01*
X170100073Y-42722486D01*
X170198676Y-42870056D01*
X170266596Y-43034028D01*
X170296293Y-43183328D01*
X170300414Y-43204044D01*
X170301220Y-43208099D01*
X170301220Y-43385581D01*
X170266596Y-43559652D01*
X170198676Y-43723624D01*
X170100073Y-43871194D01*
X169974574Y-43996693D01*
X169827004Y-44095296D01*
X169663032Y-44163216D01*
X169513732Y-44192913D01*
X169488962Y-44197840D01*
X169311478Y-44197840D01*
X169286708Y-44192913D01*
X169137408Y-44163216D01*
X168973436Y-44095296D01*
X168825866Y-43996693D01*
X168700367Y-43871194D01*
X168601764Y-43723624D01*
X168533844Y-43559652D01*
X168499220Y-43385581D01*
X168499220Y-43208099D01*
X168500027Y-43204044D01*
X168504147Y-43183328D01*
X168533844Y-43034028D01*
X168601764Y-42870056D01*
X168700367Y-42722486D01*
X168825866Y-42596987D01*
X168973436Y-42498384D01*
X169137408Y-42430464D01*
X169286708Y-42400767D01*
X169311478Y-42395840D01*
X169488962Y-42395840D01*
X169513732Y-42400767D01*
G37*
G36*
X180242280Y-43914540D02*
G01*
X177940280Y-43914540D01*
X177940280Y-43212540D01*
X180242280Y-43212540D01*
X180242280Y-43914540D01*
G37*
G36*
X185442280Y-43914540D02*
G01*
X183140280Y-43914540D01*
X183140280Y-43212540D01*
X185442280Y-43212540D01*
X185442280Y-43914540D01*
G37*
G36*
X194174592Y-41881187D02*
G01*
X194323892Y-41910884D01*
X194487864Y-41978804D01*
X194635434Y-42077407D01*
X194760933Y-42202906D01*
X194859536Y-42350476D01*
X194927456Y-42514448D01*
X194948707Y-42621287D01*
X194962080Y-42688518D01*
X194962080Y-42866002D01*
X194961273Y-42870058D01*
X194927456Y-43040072D01*
X194859536Y-43204044D01*
X194760933Y-43351614D01*
X194635434Y-43477113D01*
X194487864Y-43575716D01*
X194323892Y-43643636D01*
X194174592Y-43673333D01*
X194149822Y-43678260D01*
X193972338Y-43678260D01*
X193947568Y-43673333D01*
X193798268Y-43643636D01*
X193634296Y-43575716D01*
X193486726Y-43477113D01*
X193361227Y-43351614D01*
X193262624Y-43204044D01*
X193194704Y-43040072D01*
X193160887Y-42870058D01*
X193160080Y-42866002D01*
X193160080Y-42688518D01*
X193173453Y-42621287D01*
X193194704Y-42514448D01*
X193262624Y-42350476D01*
X193361227Y-42202906D01*
X193486726Y-42077407D01*
X193634296Y-41978804D01*
X193798268Y-41910884D01*
X193947568Y-41881187D01*
X193972338Y-41876260D01*
X194149822Y-41876260D01*
X194174592Y-41881187D01*
G37*
G36*
X189051508Y-39798843D02*
G01*
X189206380Y-39862993D01*
X189345761Y-39956125D01*
X189464295Y-40074659D01*
X189557427Y-40214040D01*
X189621577Y-40368912D01*
X189654280Y-40533324D01*
X189654280Y-40700956D01*
X189621577Y-40865368D01*
X189557427Y-41020240D01*
X189464295Y-41159621D01*
X189464291Y-41159625D01*
X189459684Y-41166520D01*
X189454618Y-41172694D01*
X189443067Y-41194305D01*
X189435954Y-41217754D01*
X189433552Y-41242140D01*
X189435954Y-41266526D01*
X189443067Y-41289975D01*
X189454618Y-41311586D01*
X189459684Y-41317760D01*
X189464291Y-41324655D01*
X189464295Y-41324659D01*
X189557427Y-41464040D01*
X189621577Y-41618912D01*
X189654280Y-41783324D01*
X189654280Y-41950956D01*
X189621577Y-42115368D01*
X189557427Y-42270240D01*
X189464295Y-42409621D01*
X189345761Y-42528155D01*
X189206380Y-42621287D01*
X189051508Y-42685437D01*
X188887096Y-42718140D01*
X188719464Y-42718140D01*
X188555052Y-42685437D01*
X188400180Y-42621287D01*
X188260799Y-42528155D01*
X188142265Y-42409621D01*
X188049133Y-42270240D01*
X187984983Y-42115368D01*
X187952280Y-41950956D01*
X187952280Y-41783324D01*
X187984983Y-41618912D01*
X188049133Y-41464040D01*
X188142265Y-41324659D01*
X188142269Y-41324655D01*
X188146876Y-41317760D01*
X188151942Y-41311586D01*
X188163493Y-41289975D01*
X188170606Y-41266526D01*
X188173008Y-41242140D01*
X188170606Y-41217754D01*
X188163493Y-41194305D01*
X188151942Y-41172694D01*
X188146876Y-41166520D01*
X188142269Y-41159625D01*
X188142265Y-41159621D01*
X188049133Y-41020240D01*
X187984983Y-40865368D01*
X187952280Y-40700956D01*
X187952280Y-40533324D01*
X187984983Y-40368912D01*
X188049133Y-40214040D01*
X188142265Y-40074659D01*
X188260799Y-39956125D01*
X188400180Y-39862993D01*
X188555052Y-39798843D01*
X188719464Y-39766140D01*
X188887096Y-39766140D01*
X189051508Y-39798843D01*
G37*
G36*
X180242280Y-42644540D02*
G01*
X177940280Y-42644540D01*
X177940280Y-41942540D01*
X180242280Y-41942540D01*
X180242280Y-42644540D01*
G37*
G36*
X185442280Y-42644540D02*
G01*
X183140280Y-42644540D01*
X183140280Y-41942540D01*
X185442280Y-41942540D01*
X185442280Y-42644540D01*
G37*
G36*
X146653732Y-39860767D02*
G01*
X146803032Y-39890464D01*
X146967004Y-39958384D01*
X147114574Y-40056987D01*
X147240073Y-40182486D01*
X147338676Y-40330056D01*
X147406596Y-40494028D01*
X147441220Y-40668099D01*
X147441220Y-40845581D01*
X147406596Y-41019652D01*
X147338676Y-41183624D01*
X147240073Y-41331194D01*
X147114574Y-41456693D01*
X146967004Y-41555296D01*
X146803032Y-41623216D01*
X146653732Y-41652913D01*
X146628962Y-41657840D01*
X146451478Y-41657840D01*
X146426708Y-41652913D01*
X146277408Y-41623216D01*
X146113436Y-41555296D01*
X145965866Y-41456693D01*
X145840367Y-41331194D01*
X145741764Y-41183624D01*
X145673844Y-41019652D01*
X145639220Y-40845581D01*
X145639220Y-40668099D01*
X145673844Y-40494028D01*
X145741764Y-40330056D01*
X145840367Y-40182486D01*
X145965866Y-40056987D01*
X146113436Y-39958384D01*
X146277408Y-39890464D01*
X146426708Y-39860767D01*
X146451478Y-39855840D01*
X146628962Y-39855840D01*
X146653732Y-39860767D01*
G37*
G36*
X169513732Y-39860767D02*
G01*
X169663032Y-39890464D01*
X169827004Y-39958384D01*
X169974574Y-40056987D01*
X170100073Y-40182486D01*
X170198676Y-40330056D01*
X170266596Y-40494028D01*
X170301220Y-40668099D01*
X170301220Y-40845581D01*
X170266596Y-41019652D01*
X170198676Y-41183624D01*
X170100073Y-41331194D01*
X169974574Y-41456693D01*
X169827004Y-41555296D01*
X169663032Y-41623216D01*
X169513732Y-41652913D01*
X169488962Y-41657840D01*
X169311478Y-41657840D01*
X169286708Y-41652913D01*
X169137408Y-41623216D01*
X168973436Y-41555296D01*
X168825866Y-41456693D01*
X168700367Y-41331194D01*
X168601764Y-41183624D01*
X168533844Y-41019652D01*
X168499220Y-40845581D01*
X168499220Y-40668099D01*
X168533844Y-40494028D01*
X168601764Y-40330056D01*
X168700367Y-40182486D01*
X168825866Y-40056987D01*
X168973436Y-39958384D01*
X169137408Y-39890464D01*
X169286708Y-39860767D01*
X169311478Y-39855840D01*
X169488962Y-39855840D01*
X169513732Y-39860767D01*
G37*
G36*
X180706049Y-39609711D02*
G01*
X180867875Y-39676742D01*
X181013509Y-39774051D01*
X181137369Y-39897911D01*
X181234678Y-40043545D01*
X181301709Y-40205371D01*
X181335880Y-40377160D01*
X181335880Y-40552320D01*
X181301709Y-40724109D01*
X181234678Y-40885935D01*
X181137369Y-41031569D01*
X181013509Y-41155429D01*
X180867875Y-41252738D01*
X180706049Y-41319769D01*
X180534260Y-41353940D01*
X180359100Y-41353940D01*
X180187311Y-41319769D01*
X180025485Y-41252738D01*
X179879851Y-41155429D01*
X179755991Y-41031569D01*
X179658682Y-40885935D01*
X179591651Y-40724109D01*
X179557480Y-40552320D01*
X179557480Y-40377160D01*
X179591651Y-40205371D01*
X179658682Y-40043545D01*
X179755991Y-39897911D01*
X179879851Y-39774051D01*
X180025485Y-39676742D01*
X180187311Y-39609711D01*
X180359100Y-39575540D01*
X180534260Y-39575540D01*
X180706049Y-39609711D01*
G37*
G36*
X178166049Y-39609711D02*
G01*
X178327875Y-39676742D01*
X178473509Y-39774051D01*
X178597369Y-39897911D01*
X178694678Y-40043545D01*
X178761709Y-40205371D01*
X178795880Y-40377160D01*
X178795880Y-40552320D01*
X178761709Y-40724109D01*
X178694678Y-40885935D01*
X178597369Y-41031569D01*
X178473509Y-41155429D01*
X178327875Y-41252738D01*
X178166049Y-41319769D01*
X177994260Y-41353940D01*
X177819100Y-41353940D01*
X177647311Y-41319769D01*
X177485485Y-41252738D01*
X177339851Y-41155429D01*
X177215991Y-41031569D01*
X177118682Y-40885935D01*
X177051651Y-40724109D01*
X177017480Y-40552320D01*
X177017480Y-40377160D01*
X177051651Y-40205371D01*
X177118682Y-40043545D01*
X177215991Y-39897911D01*
X177339851Y-39774051D01*
X177485485Y-39676742D01*
X177647311Y-39609711D01*
X177819100Y-39575540D01*
X177994260Y-39575540D01*
X178166049Y-39609711D01*
G37*
G36*
X183246049Y-39609711D02*
G01*
X183407875Y-39676742D01*
X183553509Y-39774051D01*
X183677369Y-39897911D01*
X183774678Y-40043545D01*
X183841709Y-40205371D01*
X183875880Y-40377160D01*
X183875880Y-40552320D01*
X183841709Y-40724109D01*
X183774678Y-40885935D01*
X183677369Y-41031569D01*
X183553509Y-41155429D01*
X183407875Y-41252738D01*
X183246049Y-41319769D01*
X183074260Y-41353940D01*
X182899100Y-41353940D01*
X182727311Y-41319769D01*
X182565485Y-41252738D01*
X182419851Y-41155429D01*
X182295991Y-41031569D01*
X182198682Y-40885935D01*
X182131651Y-40724109D01*
X182097480Y-40552320D01*
X182097480Y-40377160D01*
X182131651Y-40205371D01*
X182198682Y-40043545D01*
X182295991Y-39897911D01*
X182419851Y-39774051D01*
X182565485Y-39676742D01*
X182727311Y-39609711D01*
X182899100Y-39575540D01*
X183074260Y-39575540D01*
X183246049Y-39609711D01*
G37*
G36*
X185786049Y-39609711D02*
G01*
X185947875Y-39676742D01*
X186093509Y-39774051D01*
X186217369Y-39897911D01*
X186314678Y-40043545D01*
X186381709Y-40205371D01*
X186415880Y-40377160D01*
X186415880Y-40552320D01*
X186381709Y-40724109D01*
X186314678Y-40885935D01*
X186217369Y-41031569D01*
X186093509Y-41155429D01*
X185947875Y-41252738D01*
X185786049Y-41319769D01*
X185614260Y-41353940D01*
X185439100Y-41353940D01*
X185267311Y-41319769D01*
X185105485Y-41252738D01*
X184959851Y-41155429D01*
X184835991Y-41031569D01*
X184738682Y-40885935D01*
X184671651Y-40724109D01*
X184637480Y-40552320D01*
X184637480Y-40377160D01*
X184671651Y-40205371D01*
X184738682Y-40043545D01*
X184835991Y-39897911D01*
X184959851Y-39774051D01*
X185105485Y-39676742D01*
X185267311Y-39609711D01*
X185439100Y-39575540D01*
X185614260Y-39575540D01*
X185786049Y-39609711D01*
G37*
G36*
X194962080Y-41138260D02*
G01*
X193160080Y-41138260D01*
X193160080Y-39336260D01*
X194962080Y-39336260D01*
X194962080Y-41138260D01*
G37*
G36*
X204989248Y-38765063D02*
G01*
X205144120Y-38829213D01*
X205283501Y-38922345D01*
X205402035Y-39040879D01*
X205495167Y-39180260D01*
X205559317Y-39335132D01*
X205592020Y-39499544D01*
X205592020Y-39667176D01*
X205559317Y-39831588D01*
X205495167Y-39986460D01*
X205402035Y-40125841D01*
X205283501Y-40244375D01*
X205144120Y-40337507D01*
X204989248Y-40401657D01*
X204824836Y-40434360D01*
X204657204Y-40434360D01*
X204492792Y-40401657D01*
X204337920Y-40337507D01*
X204198539Y-40244375D01*
X204080005Y-40125841D01*
X203986873Y-39986460D01*
X203922723Y-39831588D01*
X203890020Y-39667176D01*
X203890020Y-39499544D01*
X203922723Y-39335132D01*
X203986873Y-39180260D01*
X204080005Y-39040879D01*
X204198539Y-38922345D01*
X204337920Y-38829213D01*
X204492792Y-38765063D01*
X204657204Y-38732360D01*
X204824836Y-38732360D01*
X204989248Y-38765063D01*
G37*
G36*
X199925248Y-38765063D02*
G01*
X200080120Y-38829213D01*
X200219501Y-38922345D01*
X200338035Y-39040879D01*
X200431167Y-39180260D01*
X200495317Y-39335132D01*
X200528020Y-39499544D01*
X200528020Y-39667176D01*
X200495317Y-39831588D01*
X200431167Y-39986460D01*
X200338035Y-40125841D01*
X200219501Y-40244375D01*
X200080120Y-40337507D01*
X199925248Y-40401657D01*
X199760836Y-40434360D01*
X199593204Y-40434360D01*
X199428792Y-40401657D01*
X199273920Y-40337507D01*
X199134539Y-40244375D01*
X199016005Y-40125841D01*
X198922873Y-39986460D01*
X198858723Y-39831588D01*
X198826020Y-39667176D01*
X198826020Y-39499544D01*
X198858723Y-39335132D01*
X198922873Y-39180260D01*
X199016005Y-39040879D01*
X199134539Y-38922345D01*
X199273920Y-38829213D01*
X199428792Y-38765063D01*
X199593204Y-38732360D01*
X199760836Y-38732360D01*
X199925248Y-38765063D01*
G37*
G36*
X191603100Y-35955720D02*
G01*
X189981100Y-35955720D01*
X189981100Y-34333720D01*
X191603100Y-34333720D01*
X191603100Y-35955720D01*
G37*
G36*
X188488660Y-34364886D02*
G01*
X188636253Y-34426021D01*
X188769082Y-34514775D01*
X188882045Y-34627738D01*
X188970799Y-34760567D01*
X189031934Y-34908160D01*
X189063100Y-35064843D01*
X189063100Y-35224597D01*
X189031934Y-35381280D01*
X188970799Y-35528873D01*
X188882045Y-35661702D01*
X188769082Y-35774665D01*
X188636253Y-35863419D01*
X188636252Y-35863420D01*
X188636251Y-35863420D01*
X188488660Y-35924554D01*
X188331978Y-35955720D01*
X188172222Y-35955720D01*
X188015540Y-35924554D01*
X187867949Y-35863420D01*
X187867948Y-35863420D01*
X187867947Y-35863419D01*
X187735118Y-35774665D01*
X187622155Y-35661702D01*
X187533401Y-35528873D01*
X187472266Y-35381280D01*
X187441100Y-35224597D01*
X187441100Y-35064843D01*
X187472266Y-34908160D01*
X187533401Y-34760567D01*
X187622155Y-34627738D01*
X187735118Y-34514775D01*
X187867947Y-34426021D01*
X188015540Y-34364886D01*
X188172222Y-34333720D01*
X188331978Y-34333720D01*
X188488660Y-34364886D01*
G37*
G36*
X185948660Y-34364886D02*
G01*
X186096253Y-34426021D01*
X186229082Y-34514775D01*
X186342045Y-34627738D01*
X186430799Y-34760567D01*
X186491934Y-34908160D01*
X186523100Y-35064843D01*
X186523100Y-35224597D01*
X186491934Y-35381280D01*
X186430799Y-35528873D01*
X186342045Y-35661702D01*
X186229082Y-35774665D01*
X186096253Y-35863419D01*
X186096252Y-35863420D01*
X186096251Y-35863420D01*
X185948660Y-35924554D01*
X185791978Y-35955720D01*
X185632222Y-35955720D01*
X185475540Y-35924554D01*
X185327949Y-35863420D01*
X185327948Y-35863420D01*
X185327947Y-35863419D01*
X185195118Y-35774665D01*
X185082155Y-35661702D01*
X184993401Y-35528873D01*
X184932266Y-35381280D01*
X184901100Y-35224597D01*
X184901100Y-35064843D01*
X184932266Y-34908160D01*
X184993401Y-34760567D01*
X185082155Y-34627738D01*
X185195118Y-34514775D01*
X185327947Y-34426021D01*
X185475540Y-34364886D01*
X185632222Y-34333720D01*
X185791978Y-34333720D01*
X185948660Y-34364886D01*
G37*
G36*
X184678660Y-31824886D02*
G01*
X184826253Y-31886021D01*
X184959082Y-31974775D01*
X185072045Y-32087738D01*
X185160799Y-32220567D01*
X185221934Y-32368160D01*
X185253100Y-32524843D01*
X185253100Y-32684597D01*
X185221934Y-32841280D01*
X185160799Y-32988873D01*
X185072045Y-33121702D01*
X184959082Y-33234665D01*
X184826253Y-33323419D01*
X184826252Y-33323420D01*
X184826251Y-33323420D01*
X184678660Y-33384554D01*
X184521978Y-33415720D01*
X184362222Y-33415720D01*
X184205540Y-33384554D01*
X184057949Y-33323420D01*
X184057948Y-33323420D01*
X184057947Y-33323419D01*
X183925118Y-33234665D01*
X183812155Y-33121702D01*
X183723401Y-32988873D01*
X183662266Y-32841280D01*
X183631100Y-32684597D01*
X183631100Y-32524843D01*
X183662266Y-32368160D01*
X183723401Y-32220567D01*
X183812155Y-32087738D01*
X183925118Y-31974775D01*
X184057947Y-31886021D01*
X184205540Y-31824886D01*
X184362222Y-31793720D01*
X184521978Y-31793720D01*
X184678660Y-31824886D01*
G37*
G36*
X187218660Y-31824886D02*
G01*
X187366253Y-31886021D01*
X187499082Y-31974775D01*
X187612045Y-32087738D01*
X187700799Y-32220567D01*
X187761934Y-32368160D01*
X187793100Y-32524843D01*
X187793100Y-32684597D01*
X187761934Y-32841280D01*
X187700799Y-32988873D01*
X187612045Y-33121702D01*
X187499082Y-33234665D01*
X187366253Y-33323419D01*
X187366252Y-33323420D01*
X187366251Y-33323420D01*
X187218660Y-33384554D01*
X187061978Y-33415720D01*
X186902222Y-33415720D01*
X186745540Y-33384554D01*
X186597949Y-33323420D01*
X186597948Y-33323420D01*
X186597947Y-33323419D01*
X186465118Y-33234665D01*
X186352155Y-33121702D01*
X186263401Y-32988873D01*
X186202266Y-32841280D01*
X186171100Y-32684597D01*
X186171100Y-32524843D01*
X186202266Y-32368160D01*
X186263401Y-32220567D01*
X186352155Y-32087738D01*
X186465118Y-31974775D01*
X186597947Y-31886021D01*
X186745540Y-31824886D01*
X186902222Y-31793720D01*
X187061978Y-31793720D01*
X187218660Y-31824886D01*
G37*
G36*
X189758660Y-31824886D02*
G01*
X189906253Y-31886021D01*
X190039082Y-31974775D01*
X190152045Y-32087738D01*
X190240799Y-32220567D01*
X190301934Y-32368160D01*
X190333100Y-32524843D01*
X190333100Y-32684597D01*
X190301934Y-32841280D01*
X190240799Y-32988873D01*
X190152045Y-33121702D01*
X190039082Y-33234665D01*
X189906253Y-33323419D01*
X189906252Y-33323420D01*
X189906251Y-33323420D01*
X189758660Y-33384554D01*
X189601978Y-33415720D01*
X189442222Y-33415720D01*
X189285540Y-33384554D01*
X189137949Y-33323420D01*
X189137948Y-33323420D01*
X189137947Y-33323419D01*
X189005118Y-33234665D01*
X188892155Y-33121702D01*
X188803401Y-32988873D01*
X188742266Y-32841280D01*
X188711100Y-32684597D01*
X188711100Y-32524843D01*
X188742266Y-32368160D01*
X188803401Y-32220567D01*
X188892155Y-32087738D01*
X189005118Y-31974775D01*
X189137947Y-31886021D01*
X189285540Y-31824886D01*
X189442222Y-31793720D01*
X189601978Y-31793720D01*
X189758660Y-31824886D01*
G37*
G36*
X204064656Y-26791298D02*
G01*
X204170979Y-26812447D01*
X204471442Y-26936903D01*
X204741851Y-27117585D01*
X204971815Y-27347549D01*
X205152497Y-27617958D01*
X205276953Y-27918421D01*
X205340400Y-28237391D01*
X205340400Y-28562609D01*
X205276953Y-28881579D01*
X205152497Y-29182042D01*
X204971815Y-29452451D01*
X204741851Y-29682415D01*
X204471442Y-29863097D01*
X204170979Y-29987553D01*
X204064656Y-30008702D01*
X203852011Y-30051000D01*
X203526789Y-30051000D01*
X203314144Y-30008702D01*
X203207821Y-29987553D01*
X202907358Y-29863097D01*
X202636949Y-29682415D01*
X202406985Y-29452451D01*
X202226303Y-29182042D01*
X202101847Y-28881579D01*
X202038400Y-28562609D01*
X202038400Y-28237391D01*
X202101847Y-27918421D01*
X202226303Y-27617958D01*
X202406985Y-27347549D01*
X202636949Y-27117585D01*
X202907358Y-26936903D01*
X203207821Y-26812447D01*
X203314144Y-26791298D01*
X203526789Y-26749000D01*
X203852011Y-26749000D01*
X204064656Y-26791298D01*
G37*
G36*
X144064656Y-26791298D02*
G01*
X144170979Y-26812447D01*
X144471442Y-26936903D01*
X144741851Y-27117585D01*
X144971815Y-27347549D01*
X145152497Y-27617958D01*
X145276953Y-27918421D01*
X145340400Y-28237391D01*
X145340400Y-28562609D01*
X145276953Y-28881579D01*
X145152497Y-29182042D01*
X144971815Y-29452451D01*
X144741851Y-29682415D01*
X144471442Y-29863097D01*
X144170979Y-29987553D01*
X144064656Y-30008702D01*
X143852011Y-30051000D01*
X143526789Y-30051000D01*
X143314144Y-30008702D01*
X143207821Y-29987553D01*
X142907358Y-29863097D01*
X142636949Y-29682415D01*
X142406985Y-29452451D01*
X142226303Y-29182042D01*
X142101847Y-28881579D01*
X142038400Y-28562609D01*
X142038400Y-28237391D01*
X142101847Y-27918421D01*
X142226303Y-27617958D01*
X142406985Y-27347549D01*
X142636949Y-27117585D01*
X142907358Y-26936903D01*
X143207821Y-26812447D01*
X143314144Y-26791298D01*
X143526789Y-26749000D01*
X143852011Y-26749000D01*
X144064656Y-26791298D01*
G37*
G36*
X193190971Y-24643128D02*
G01*
X193495983Y-24769468D01*
X193770487Y-24952886D01*
X194003934Y-25186333D01*
X194187352Y-25460837D01*
X194187352Y-25460838D01*
X194313692Y-25765850D01*
X194361613Y-26006760D01*
X194378100Y-26089648D01*
X194378100Y-26419792D01*
X194313692Y-26743591D01*
X194187352Y-27048603D01*
X194003934Y-27323107D01*
X193770487Y-27556554D01*
X193495983Y-27739972D01*
X193190971Y-27866312D01*
X192867173Y-27930720D01*
X192537027Y-27930720D01*
X192375129Y-27898516D01*
X192213229Y-27866312D01*
X191908217Y-27739972D01*
X191633713Y-27556554D01*
X191400266Y-27323107D01*
X191216848Y-27048603D01*
X191090508Y-26743591D01*
X191026100Y-26419792D01*
X191026100Y-26089648D01*
X191042588Y-26006760D01*
X191090508Y-25765850D01*
X191216848Y-25460838D01*
X191216848Y-25460837D01*
X191400266Y-25186333D01*
X191633713Y-24952886D01*
X191908217Y-24769468D01*
X192213229Y-24643128D01*
X192537027Y-24578720D01*
X192867173Y-24578720D01*
X193190971Y-24643128D01*
G37*
G36*
X183030971Y-24643128D02*
G01*
X183335983Y-24769468D01*
X183610487Y-24952886D01*
X183843934Y-25186333D01*
X184027352Y-25460837D01*
X184027352Y-25460838D01*
X184153692Y-25765850D01*
X184201613Y-26006760D01*
X184218100Y-26089648D01*
X184218100Y-26419792D01*
X184153692Y-26743591D01*
X184027352Y-27048603D01*
X183843934Y-27323107D01*
X183610487Y-27556554D01*
X183335983Y-27739972D01*
X183030971Y-27866312D01*
X182707173Y-27930720D01*
X182377027Y-27930720D01*
X182215129Y-27898516D01*
X182053229Y-27866312D01*
X181748217Y-27739972D01*
X181473713Y-27556554D01*
X181240266Y-27323107D01*
X181056848Y-27048603D01*
X180930508Y-26743591D01*
X180866100Y-26419792D01*
X180866100Y-26089648D01*
X180882588Y-26006760D01*
X180930508Y-25765850D01*
X181056848Y-25460838D01*
X181056848Y-25460837D01*
X181240266Y-25186333D01*
X181473713Y-24952886D01*
X181748217Y-24769468D01*
X182053229Y-24643128D01*
X182377027Y-24578720D01*
X182707173Y-24578720D01*
X183030971Y-24643128D01*
G37*
G36*
X185667159Y-26035620D02*
G01*
X185797592Y-26089647D01*
X185803832Y-26092232D01*
X185926835Y-26174420D01*
X186031440Y-26279025D01*
X186113628Y-26402028D01*
X186170240Y-26538701D01*
X186199100Y-26683793D01*
X186199100Y-26831727D01*
X186170240Y-26976819D01*
X186113628Y-27113492D01*
X186031440Y-27236495D01*
X185926835Y-27341100D01*
X185803832Y-27423288D01*
X185803831Y-27423289D01*
X185803830Y-27423289D01*
X185667159Y-27479900D01*
X185522068Y-27508760D01*
X185374132Y-27508760D01*
X185229041Y-27479900D01*
X185092370Y-27423289D01*
X185092369Y-27423289D01*
X185092368Y-27423288D01*
X184969365Y-27341100D01*
X184864760Y-27236495D01*
X184782572Y-27113492D01*
X184725960Y-26976819D01*
X184697100Y-26831727D01*
X184697100Y-26683793D01*
X184725960Y-26538701D01*
X184782572Y-26402028D01*
X184864760Y-26279025D01*
X184969365Y-26174420D01*
X185092368Y-26092232D01*
X185098609Y-26089647D01*
X185229041Y-26035620D01*
X185374132Y-26006760D01*
X185522068Y-26006760D01*
X185667159Y-26035620D01*
G37*
G36*
X187707159Y-26035620D02*
G01*
X187837592Y-26089647D01*
X187843832Y-26092232D01*
X187966835Y-26174420D01*
X188071440Y-26279025D01*
X188153628Y-26402028D01*
X188210240Y-26538701D01*
X188239100Y-26683793D01*
X188239100Y-26831727D01*
X188210240Y-26976819D01*
X188153628Y-27113492D01*
X188071440Y-27236495D01*
X187966835Y-27341100D01*
X187843832Y-27423288D01*
X187843831Y-27423289D01*
X187843830Y-27423289D01*
X187707159Y-27479900D01*
X187562068Y-27508760D01*
X187414132Y-27508760D01*
X187269041Y-27479900D01*
X187132370Y-27423289D01*
X187132369Y-27423289D01*
X187132368Y-27423288D01*
X187009365Y-27341100D01*
X186904760Y-27236495D01*
X186822572Y-27113492D01*
X186765960Y-26976819D01*
X186737100Y-26831727D01*
X186737100Y-26683793D01*
X186765960Y-26538701D01*
X186822572Y-26402028D01*
X186904760Y-26279025D01*
X187009365Y-26174420D01*
X187132368Y-26092232D01*
X187138609Y-26089647D01*
X187269041Y-26035620D01*
X187414132Y-26006760D01*
X187562068Y-26006760D01*
X187707159Y-26035620D01*
G37*
G36*
X189747159Y-26035620D02*
G01*
X189877592Y-26089647D01*
X189883832Y-26092232D01*
X190006835Y-26174420D01*
X190111440Y-26279025D01*
X190193628Y-26402028D01*
X190250240Y-26538701D01*
X190279100Y-26683793D01*
X190279100Y-26831727D01*
X190250240Y-26976819D01*
X190193628Y-27113492D01*
X190111440Y-27236495D01*
X190006835Y-27341100D01*
X189883832Y-27423288D01*
X189883831Y-27423289D01*
X189883830Y-27423289D01*
X189747159Y-27479900D01*
X189602068Y-27508760D01*
X189454132Y-27508760D01*
X189309041Y-27479900D01*
X189172370Y-27423289D01*
X189172369Y-27423289D01*
X189172368Y-27423288D01*
X189049365Y-27341100D01*
X188944760Y-27236495D01*
X188862572Y-27113492D01*
X188805960Y-26976819D01*
X188777100Y-26831727D01*
X188777100Y-26683793D01*
X188805960Y-26538701D01*
X188862572Y-26402028D01*
X188944760Y-26279025D01*
X189049365Y-26174420D01*
X189172368Y-26092232D01*
X189178609Y-26089647D01*
X189309041Y-26035620D01*
X189454132Y-26006760D01*
X189602068Y-26006760D01*
X189747159Y-26035620D01*
G37*
G36*
X186687159Y-23495620D02*
G01*
X186741443Y-23518105D01*
X186823832Y-23552232D01*
X186946835Y-23634420D01*
X187051440Y-23739025D01*
X187124493Y-23848357D01*
X187133629Y-23862030D01*
X187180702Y-23975674D01*
X187190240Y-23998701D01*
X187219100Y-24143793D01*
X187219100Y-24291727D01*
X187190240Y-24436819D01*
X187133628Y-24573492D01*
X187051440Y-24696495D01*
X186946835Y-24801100D01*
X186823832Y-24883288D01*
X186823831Y-24883289D01*
X186823830Y-24883289D01*
X186687159Y-24939900D01*
X186542068Y-24968760D01*
X186394132Y-24968760D01*
X186249041Y-24939900D01*
X186112370Y-24883289D01*
X186112369Y-24883289D01*
X186112368Y-24883288D01*
X185989365Y-24801100D01*
X185884760Y-24696495D01*
X185802572Y-24573492D01*
X185745960Y-24436819D01*
X185717100Y-24291727D01*
X185717100Y-24143793D01*
X185745960Y-23998701D01*
X185755498Y-23975674D01*
X185802571Y-23862030D01*
X185811707Y-23848357D01*
X185884760Y-23739025D01*
X185989365Y-23634420D01*
X186112368Y-23552232D01*
X186194758Y-23518105D01*
X186249041Y-23495620D01*
X186394132Y-23466760D01*
X186542068Y-23466760D01*
X186687159Y-23495620D01*
G37*
G36*
X188727159Y-23495620D02*
G01*
X188781443Y-23518105D01*
X188863832Y-23552232D01*
X188986835Y-23634420D01*
X189091440Y-23739025D01*
X189164493Y-23848357D01*
X189173629Y-23862030D01*
X189220702Y-23975674D01*
X189230240Y-23998701D01*
X189259100Y-24143793D01*
X189259100Y-24291727D01*
X189230240Y-24436819D01*
X189173628Y-24573492D01*
X189091440Y-24696495D01*
X188986835Y-24801100D01*
X188863832Y-24883288D01*
X188863831Y-24883289D01*
X188863830Y-24883289D01*
X188727159Y-24939900D01*
X188582068Y-24968760D01*
X188434132Y-24968760D01*
X188289041Y-24939900D01*
X188152370Y-24883289D01*
X188152369Y-24883289D01*
X188152368Y-24883288D01*
X188029365Y-24801100D01*
X187924760Y-24696495D01*
X187842572Y-24573492D01*
X187785960Y-24436819D01*
X187757100Y-24291727D01*
X187757100Y-24143793D01*
X187785960Y-23998701D01*
X187795498Y-23975674D01*
X187842571Y-23862030D01*
X187851707Y-23848357D01*
X187924760Y-23739025D01*
X188029365Y-23634420D01*
X188152368Y-23552232D01*
X188234758Y-23518105D01*
X188289041Y-23495620D01*
X188434132Y-23466760D01*
X188582068Y-23466760D01*
X188727159Y-23495620D01*
G37*
G36*
X190767159Y-23495620D02*
G01*
X190821443Y-23518105D01*
X190903832Y-23552232D01*
X191026835Y-23634420D01*
X191131440Y-23739025D01*
X191204493Y-23848357D01*
X191213629Y-23862030D01*
X191260702Y-23975674D01*
X191270240Y-23998701D01*
X191299100Y-24143793D01*
X191299100Y-24291727D01*
X191270240Y-24436819D01*
X191213628Y-24573492D01*
X191131440Y-24696495D01*
X191026835Y-24801100D01*
X190903832Y-24883288D01*
X190903831Y-24883289D01*
X190903830Y-24883289D01*
X190767159Y-24939900D01*
X190622068Y-24968760D01*
X190474132Y-24968760D01*
X190329041Y-24939900D01*
X190192370Y-24883289D01*
X190192369Y-24883289D01*
X190192368Y-24883288D01*
X190069365Y-24801100D01*
X189964760Y-24696495D01*
X189882572Y-24573492D01*
X189825960Y-24436819D01*
X189797100Y-24291727D01*
X189797100Y-24143793D01*
X189825960Y-23998701D01*
X189835498Y-23975674D01*
X189882571Y-23862030D01*
X189891707Y-23848357D01*
X189964760Y-23739025D01*
X190069365Y-23634420D01*
X190192368Y-23552232D01*
X190274758Y-23518105D01*
X190329041Y-23495620D01*
X190474132Y-23466760D01*
X190622068Y-23466760D01*
X190767159Y-23495620D01*
G37*
G36*
X162745800Y-24439600D02*
G01*
X160443800Y-24439600D01*
X160443800Y-21737600D01*
X162745800Y-21737600D01*
X162745800Y-24439600D01*
G37*
G36*
X156908872Y-21789518D02*
G01*
X157063680Y-21853641D01*
X157154739Y-21891359D01*
X157266128Y-21965787D01*
X157376011Y-22039209D01*
X157564191Y-22227389D01*
X157587781Y-22262694D01*
X157695179Y-22423425D01*
X157712042Y-22448663D01*
X157816825Y-22701632D01*
X157819496Y-22710439D01*
X157831048Y-22732050D01*
X157846594Y-22750991D01*
X157865536Y-22766536D01*
X157887147Y-22778086D01*
X157910596Y-22785199D01*
X157934979Y-22787600D01*
X158012483Y-22787600D01*
X158036869Y-22785198D01*
X158060318Y-22778085D01*
X158081929Y-22766534D01*
X158100871Y-22750989D01*
X158116416Y-22732047D01*
X158127967Y-22710436D01*
X158131614Y-22701632D01*
X158167725Y-22614451D01*
X158167725Y-22614450D01*
X158247760Y-22494670D01*
X158277273Y-22450500D01*
X158416700Y-22311073D01*
X158580649Y-22201526D01*
X158596221Y-22195076D01*
X158634005Y-22179425D01*
X158762819Y-22126068D01*
X158859515Y-22106834D01*
X158956209Y-22087600D01*
X159153391Y-22087600D01*
X159346781Y-22126068D01*
X159475595Y-22179425D01*
X159513380Y-22195076D01*
X159528951Y-22201526D01*
X159692900Y-22311073D01*
X159832327Y-22450500D01*
X159941874Y-22614449D01*
X160017332Y-22796619D01*
X160055800Y-22990010D01*
X160055800Y-23187190D01*
X160017332Y-23380581D01*
X159941874Y-23562751D01*
X159832327Y-23726700D01*
X159692900Y-23866127D01*
X159528951Y-23975674D01*
X159346781Y-24051132D01*
X159153391Y-24089600D01*
X158956209Y-24089600D01*
X158859515Y-24070366D01*
X158762819Y-24051132D01*
X158580649Y-23975674D01*
X158416700Y-23866127D01*
X158277273Y-23726700D01*
X158167726Y-23562751D01*
X158167725Y-23562750D01*
X158134556Y-23482672D01*
X158127965Y-23466760D01*
X158116416Y-23445154D01*
X158100871Y-23426212D01*
X158081929Y-23410666D01*
X158060318Y-23399115D01*
X158036869Y-23392002D01*
X158012483Y-23389600D01*
X157934979Y-23389600D01*
X157910593Y-23392002D01*
X157887144Y-23399115D01*
X157865533Y-23410666D01*
X157846591Y-23426211D01*
X157831046Y-23445153D01*
X157819495Y-23466764D01*
X157816824Y-23475568D01*
X157813882Y-23482669D01*
X157813882Y-23482672D01*
X157712041Y-23728539D01*
X157671555Y-23789130D01*
X157564191Y-23949811D01*
X157376011Y-24137991D01*
X157266128Y-24211413D01*
X157154739Y-24285841D01*
X157154738Y-24285842D01*
X157154737Y-24285842D01*
X156908872Y-24387682D01*
X156647863Y-24439600D01*
X156381737Y-24439600D01*
X156120728Y-24387682D01*
X155874863Y-24285842D01*
X155874862Y-24285842D01*
X155874861Y-24285841D01*
X155763472Y-24211413D01*
X155653589Y-24137991D01*
X155465409Y-23949811D01*
X155358045Y-23789130D01*
X155317559Y-23728539D01*
X155230394Y-23518102D01*
X155215718Y-23482672D01*
X155163800Y-23221663D01*
X155163800Y-22955537D01*
X155215718Y-22694528D01*
X155317558Y-22448663D01*
X155334422Y-22423425D01*
X155441819Y-22262694D01*
X155465409Y-22227389D01*
X155653589Y-22039209D01*
X155763472Y-21965787D01*
X155874861Y-21891359D01*
X155965921Y-21853641D01*
X156120728Y-21789518D01*
X156381737Y-21737600D01*
X156647863Y-21737600D01*
X156908872Y-21789518D01*
G37*
G36*
X176202817Y-22094696D02*
G01*
X176316104Y-22129062D01*
X176420511Y-22184869D01*
X176420513Y-22184870D01*
X176420512Y-22184870D01*
X176512027Y-22259973D01*
X176553963Y-22311073D01*
X176587131Y-22351488D01*
X176642938Y-22455895D01*
X176677304Y-22569182D01*
X176686000Y-22657481D01*
X176686000Y-23316519D01*
X176677304Y-23404818D01*
X176642938Y-23518105D01*
X176587131Y-23622512D01*
X176512027Y-23714027D01*
X176420512Y-23789131D01*
X176316105Y-23844938D01*
X176202818Y-23879304D01*
X176085000Y-23890907D01*
X175967183Y-23879304D01*
X175853896Y-23844938D01*
X175749489Y-23789131D01*
X175657974Y-23714027D01*
X175582871Y-23622514D01*
X175527061Y-23518102D01*
X175492696Y-23404818D01*
X175484000Y-23316519D01*
X175484000Y-22657482D01*
X175492696Y-22569183D01*
X175527062Y-22455896D01*
X175582869Y-22351489D01*
X175616037Y-22311073D01*
X175657973Y-22259973D01*
X175749487Y-22184870D01*
X175749486Y-22184870D01*
X175749488Y-22184869D01*
X175853895Y-22129062D01*
X175967182Y-22094696D01*
X176085000Y-22083093D01*
X176202817Y-22094696D01*
G37*
G36*
X174702817Y-22094696D02*
G01*
X174816104Y-22129062D01*
X174920511Y-22184869D01*
X174920513Y-22184870D01*
X174920512Y-22184870D01*
X175012027Y-22259973D01*
X175053963Y-22311073D01*
X175087131Y-22351488D01*
X175142938Y-22455895D01*
X175177304Y-22569182D01*
X175186000Y-22657481D01*
X175186000Y-23316519D01*
X175177304Y-23404818D01*
X175142938Y-23518105D01*
X175087131Y-23622512D01*
X175012027Y-23714027D01*
X174920512Y-23789131D01*
X174816105Y-23844938D01*
X174702818Y-23879304D01*
X174585000Y-23890907D01*
X174467183Y-23879304D01*
X174353896Y-23844938D01*
X174249489Y-23789131D01*
X174157974Y-23714027D01*
X174082871Y-23622514D01*
X174027061Y-23518102D01*
X173992696Y-23404818D01*
X173984000Y-23316519D01*
X173984000Y-22657482D01*
X173992696Y-22569183D01*
X174027062Y-22455896D01*
X174082869Y-22351489D01*
X174116037Y-22311073D01*
X174157973Y-22259973D01*
X174249487Y-22184870D01*
X174249486Y-22184870D01*
X174249488Y-22184869D01*
X174353895Y-22129062D01*
X174467182Y-22094696D01*
X174585000Y-22083093D01*
X174702817Y-22094696D01*
G37*
G36*
X173202817Y-22094696D02*
G01*
X173316104Y-22129062D01*
X173420511Y-22184869D01*
X173420513Y-22184870D01*
X173420512Y-22184870D01*
X173512027Y-22259973D01*
X173553963Y-22311073D01*
X173587131Y-22351488D01*
X173642938Y-22455895D01*
X173677304Y-22569182D01*
X173686000Y-22657481D01*
X173686000Y-23316519D01*
X173677304Y-23404818D01*
X173642938Y-23518105D01*
X173587131Y-23622512D01*
X173512027Y-23714027D01*
X173420512Y-23789131D01*
X173316105Y-23844938D01*
X173202818Y-23879304D01*
X173085000Y-23890907D01*
X172967183Y-23879304D01*
X172853896Y-23844938D01*
X172749489Y-23789131D01*
X172657974Y-23714027D01*
X172582871Y-23622514D01*
X172527061Y-23518102D01*
X172492696Y-23404818D01*
X172484000Y-23316519D01*
X172484000Y-22657482D01*
X172492696Y-22569183D01*
X172527062Y-22455896D01*
X172582869Y-22351489D01*
X172616037Y-22311073D01*
X172657973Y-22259973D01*
X172749487Y-22184870D01*
X172749486Y-22184870D01*
X172749488Y-22184869D01*
X172853895Y-22129062D01*
X172967182Y-22094696D01*
X173085000Y-22083093D01*
X173202817Y-22094696D01*
G37*
G36*
X171702817Y-22094696D02*
G01*
X171816104Y-22129062D01*
X171920511Y-22184869D01*
X171920513Y-22184870D01*
X171920512Y-22184870D01*
X172012027Y-22259973D01*
X172053963Y-22311073D01*
X172087131Y-22351488D01*
X172142938Y-22455895D01*
X172177304Y-22569182D01*
X172186000Y-22657481D01*
X172186000Y-23316519D01*
X172177304Y-23404818D01*
X172142938Y-23518105D01*
X172087131Y-23622512D01*
X172012027Y-23714027D01*
X171920512Y-23789131D01*
X171816105Y-23844938D01*
X171702818Y-23879304D01*
X171585000Y-23890907D01*
X171467183Y-23879304D01*
X171353896Y-23844938D01*
X171249489Y-23789131D01*
X171157974Y-23714027D01*
X171082871Y-23622514D01*
X171027061Y-23518102D01*
X170992696Y-23404818D01*
X170984000Y-23316519D01*
X170984000Y-22657482D01*
X170992696Y-22569183D01*
X171027062Y-22455896D01*
X171082869Y-22351489D01*
X171116037Y-22311073D01*
X171157973Y-22259973D01*
X171249487Y-22184870D01*
X171249486Y-22184870D01*
X171249488Y-22184869D01*
X171353895Y-22129062D01*
X171467182Y-22094696D01*
X171585000Y-22083093D01*
X171702817Y-22094696D01*
G37*
G36*
X170614691Y-22088292D02*
G01*
X170631170Y-22093291D01*
X170646357Y-22101409D01*
X170659668Y-22112332D01*
X170670591Y-22125643D01*
X170678709Y-22140830D01*
X170683708Y-22157309D01*
X170686000Y-22180582D01*
X170686000Y-23793418D01*
X170683708Y-23816691D01*
X170678709Y-23833170D01*
X170670591Y-23848357D01*
X170659668Y-23861668D01*
X170646357Y-23872591D01*
X170631170Y-23880709D01*
X170614691Y-23885708D01*
X170591418Y-23888000D01*
X169578582Y-23888000D01*
X169555309Y-23885708D01*
X169538830Y-23880709D01*
X169523643Y-23872591D01*
X169510332Y-23861668D01*
X169499409Y-23848357D01*
X169491291Y-23833170D01*
X169486292Y-23816691D01*
X169484000Y-23793418D01*
X169484000Y-22180582D01*
X169486292Y-22157309D01*
X169491291Y-22140830D01*
X169499409Y-22125643D01*
X169510332Y-22112332D01*
X169523643Y-22101409D01*
X169538830Y-22093291D01*
X169555309Y-22088292D01*
X169578582Y-22086000D01*
X170591418Y-22086000D01*
X170614691Y-22088292D01*
G37*
G36*
X194187990Y-21291777D02*
G01*
X194306464Y-21340851D01*
X194413088Y-21412095D01*
X194503765Y-21502772D01*
X194575010Y-21609398D01*
X194624083Y-21727870D01*
X194649100Y-21853641D01*
X194649100Y-21981879D01*
X194637696Y-22039210D01*
X194624083Y-22107650D01*
X194575009Y-22226124D01*
X194503765Y-22332748D01*
X194413088Y-22423425D01*
X194306464Y-22494669D01*
X194306463Y-22494670D01*
X194306462Y-22494670D01*
X194187990Y-22543743D01*
X194062219Y-22568760D01*
X193933981Y-22568760D01*
X193808210Y-22543743D01*
X193689738Y-22494670D01*
X193689737Y-22494670D01*
X193689736Y-22494669D01*
X193583112Y-22423425D01*
X193492435Y-22332748D01*
X193421191Y-22226124D01*
X193372117Y-22107650D01*
X193358504Y-22039210D01*
X193347100Y-21981879D01*
X193347100Y-21853641D01*
X193372117Y-21727870D01*
X193421190Y-21609398D01*
X193492435Y-21502772D01*
X193583112Y-21412095D01*
X193689736Y-21340851D01*
X193808210Y-21291777D01*
X193933981Y-21266760D01*
X194062219Y-21266760D01*
X194187990Y-21291777D01*
G37*
G36*
X182187990Y-21291777D02*
G01*
X182306464Y-21340851D01*
X182413088Y-21412095D01*
X182503765Y-21502772D01*
X182575010Y-21609398D01*
X182624083Y-21727870D01*
X182649100Y-21853641D01*
X182649100Y-21981879D01*
X182637696Y-22039210D01*
X182624083Y-22107650D01*
X182575009Y-22226124D01*
X182503765Y-22332748D01*
X182413088Y-22423425D01*
X182306464Y-22494669D01*
X182306463Y-22494670D01*
X182306462Y-22494670D01*
X182187990Y-22543743D01*
X182062219Y-22568760D01*
X181933981Y-22568760D01*
X181808210Y-22543743D01*
X181689738Y-22494670D01*
X181689737Y-22494670D01*
X181689736Y-22494669D01*
X181583112Y-22423425D01*
X181492435Y-22332748D01*
X181421191Y-22226124D01*
X181372117Y-22107650D01*
X181358504Y-22039210D01*
X181347100Y-21981879D01*
X181347100Y-21853641D01*
X181372117Y-21727870D01*
X181421190Y-21609398D01*
X181492435Y-21502772D01*
X181583112Y-21412095D01*
X181689736Y-21340851D01*
X181808210Y-21291777D01*
X181933981Y-21266760D01*
X182062219Y-21266760D01*
X182187990Y-21291777D01*
G37*
M02*
