G04 #@! TF.GenerationSoftware,KiCad,Pcbnew,5.1.5+dfsg1-2build2*
G04 #@! TF.CreationDate,2021-08-05T17:40:44+02:00*
G04 #@! TF.ProjectId,Airrohr_pcb,41697272-6f68-4725-9f70-63622e6b6963,rev?*
G04 #@! TF.SameCoordinates,Original*
G04 #@! TF.FileFunction,Legend,Top*
G04 #@! TF.FilePolarity,Positive*
%FSLAX46Y46*%
G04 Gerber Fmt 4.6, Leading zero omitted, Abs format (unit mm)*
G04 Created by KiCad (PCBNEW 5.1.5+dfsg1-2build2) date 2021-08-05 17:40:44*
%MOMM*%
%LPD*%
G04 APERTURE LIST*
%ADD10C,0.100000*%
%ADD11C,0.150000*%
%ADD12C,0.080000*%
%ADD13C,0.250000*%
%ADD14C,0.010000*%
%ADD15C,0.200000*%
%ADD16C,0.120000*%
%ADD17C,0.152400*%
G04 APERTURE END LIST*
D10*
X185411260Y-70867224D02*
X185411260Y-70067224D01*
X185601736Y-70067224D01*
X185716021Y-70105320D01*
X185792212Y-70181510D01*
X185830307Y-70257700D01*
X185868402Y-70410081D01*
X185868402Y-70524367D01*
X185830307Y-70676748D01*
X185792212Y-70752939D01*
X185716021Y-70829129D01*
X185601736Y-70867224D01*
X185411260Y-70867224D01*
X186173164Y-70638653D02*
X186554117Y-70638653D01*
X186096974Y-70867224D02*
X186363640Y-70067224D01*
X186630307Y-70867224D01*
X186782688Y-70067224D02*
X187239831Y-70067224D01*
X187011260Y-70867224D02*
X187011260Y-70067224D01*
X187468402Y-70638653D02*
X187849355Y-70638653D01*
X187392212Y-70867224D02*
X187658879Y-70067224D01*
X187925545Y-70867224D01*
X186001736Y-75243740D02*
X185925545Y-75205644D01*
X185811260Y-75205644D01*
X185696974Y-75243740D01*
X185620783Y-75319930D01*
X185582688Y-75396120D01*
X185544593Y-75548501D01*
X185544593Y-75662787D01*
X185582688Y-75815168D01*
X185620783Y-75891359D01*
X185696974Y-75967549D01*
X185811260Y-76005644D01*
X185887450Y-76005644D01*
X186001736Y-75967549D01*
X186039831Y-75929454D01*
X186039831Y-75662787D01*
X185887450Y-75662787D01*
X186382688Y-76005644D02*
X186382688Y-75205644D01*
X186839831Y-76005644D01*
X186839831Y-75205644D01*
X187220783Y-76005644D02*
X187220783Y-75205644D01*
X187411260Y-75205644D01*
X187525545Y-75243740D01*
X187601736Y-75319930D01*
X187639831Y-75396120D01*
X187677926Y-75548501D01*
X187677926Y-75662787D01*
X187639831Y-75815168D01*
X187601736Y-75891359D01*
X187525545Y-75967549D01*
X187411260Y-76005644D01*
X187220783Y-76005644D01*
X185011260Y-67915782D02*
X185620783Y-67915782D01*
X185316021Y-68220544D02*
X185316021Y-67611020D01*
X185925545Y-67420544D02*
X186420783Y-67420544D01*
X186154117Y-67725306D01*
X186268402Y-67725306D01*
X186344593Y-67763401D01*
X186382688Y-67801497D01*
X186420783Y-67877687D01*
X186420783Y-68068163D01*
X186382688Y-68144354D01*
X186344593Y-68182449D01*
X186268402Y-68220544D01*
X186039831Y-68220544D01*
X185963640Y-68182449D01*
X185925545Y-68144354D01*
X186763640Y-68144354D02*
X186801736Y-68182449D01*
X186763640Y-68220544D01*
X186725545Y-68182449D01*
X186763640Y-68144354D01*
X186763640Y-68220544D01*
X187068402Y-67420544D02*
X187563640Y-67420544D01*
X187296974Y-67725306D01*
X187411260Y-67725306D01*
X187487450Y-67763401D01*
X187525545Y-67801497D01*
X187563640Y-67877687D01*
X187563640Y-68068163D01*
X187525545Y-68144354D01*
X187487450Y-68182449D01*
X187411260Y-68220544D01*
X187182688Y-68220544D01*
X187106498Y-68182449D01*
X187068402Y-68144354D01*
X187792212Y-67420544D02*
X188058879Y-68220544D01*
X188325545Y-67420544D01*
D11*
X198179654Y-75694800D02*
X197608225Y-75694800D01*
X197893940Y-75694800D02*
X197893940Y-74694800D01*
X197798701Y-74837658D01*
X197703463Y-74932896D01*
X197608225Y-74980515D01*
D10*
X197918062Y-71282431D02*
X197918062Y-70672907D01*
X198222824Y-70977669D02*
X197613300Y-70977669D01*
X197422824Y-69911002D02*
X197422824Y-70291955D01*
X197803777Y-70330050D01*
X197765681Y-70291955D01*
X197727586Y-70215764D01*
X197727586Y-70025288D01*
X197765681Y-69949098D01*
X197803777Y-69911002D01*
X197879967Y-69872907D01*
X198070443Y-69872907D01*
X198146634Y-69911002D01*
X198184729Y-69949098D01*
X198222824Y-70025288D01*
X198222824Y-70215764D01*
X198184729Y-70291955D01*
X198146634Y-70330050D01*
X197422824Y-69644336D02*
X198222824Y-69377669D01*
X197422824Y-69111002D01*
X194986960Y-70764323D02*
X194948864Y-70840514D01*
X194948864Y-70954800D01*
X194986960Y-71069085D01*
X195063150Y-71145276D01*
X195139340Y-71183371D01*
X195291721Y-71221466D01*
X195406007Y-71221466D01*
X195558388Y-71183371D01*
X195634579Y-71145276D01*
X195710769Y-71069085D01*
X195748864Y-70954800D01*
X195748864Y-70878609D01*
X195710769Y-70764323D01*
X195672674Y-70726228D01*
X195406007Y-70726228D01*
X195406007Y-70878609D01*
X195748864Y-70383371D02*
X194948864Y-70383371D01*
X195748864Y-69926228D01*
X194948864Y-69926228D01*
X195748864Y-69545276D02*
X194948864Y-69545276D01*
X194948864Y-69354800D01*
X194986960Y-69240514D01*
X195063150Y-69164323D01*
X195139340Y-69126228D01*
X195291721Y-69088133D01*
X195406007Y-69088133D01*
X195558388Y-69126228D01*
X195634579Y-69164323D01*
X195710769Y-69240514D01*
X195748864Y-69354800D01*
X195748864Y-69545276D01*
X193104729Y-71206240D02*
X193142824Y-71091955D01*
X193142824Y-70901479D01*
X193104729Y-70825288D01*
X193066634Y-70787193D01*
X192990443Y-70749098D01*
X192914253Y-70749098D01*
X192838062Y-70787193D01*
X192799967Y-70825288D01*
X192761872Y-70901479D01*
X192723777Y-71053860D01*
X192685681Y-71130050D01*
X192647586Y-71168145D01*
X192571396Y-71206240D01*
X192495205Y-71206240D01*
X192419015Y-71168145D01*
X192380920Y-71130050D01*
X192342824Y-71053860D01*
X192342824Y-70863383D01*
X192380920Y-70749098D01*
X193066634Y-69949098D02*
X193104729Y-69987193D01*
X193142824Y-70101479D01*
X193142824Y-70177669D01*
X193104729Y-70291955D01*
X193028539Y-70368145D01*
X192952348Y-70406240D01*
X192799967Y-70444336D01*
X192685681Y-70444336D01*
X192533300Y-70406240D01*
X192457110Y-70368145D01*
X192380920Y-70291955D01*
X192342824Y-70177669D01*
X192342824Y-70101479D01*
X192380920Y-69987193D01*
X192419015Y-69949098D01*
X193142824Y-69225288D02*
X193142824Y-69606240D01*
X192342824Y-69606240D01*
X190564729Y-71192268D02*
X190602824Y-71077982D01*
X190602824Y-70887506D01*
X190564729Y-70811316D01*
X190526634Y-70773220D01*
X190450443Y-70735125D01*
X190374253Y-70735125D01*
X190298062Y-70773220D01*
X190259967Y-70811316D01*
X190221872Y-70887506D01*
X190183777Y-71039887D01*
X190145681Y-71116078D01*
X190107586Y-71154173D01*
X190031396Y-71192268D01*
X189955205Y-71192268D01*
X189879015Y-71154173D01*
X189840920Y-71116078D01*
X189802824Y-71039887D01*
X189802824Y-70849411D01*
X189840920Y-70735125D01*
X190602824Y-70392268D02*
X189802824Y-70392268D01*
X189802824Y-70201792D01*
X189840920Y-70087506D01*
X189917110Y-70011316D01*
X189993300Y-69973220D01*
X190145681Y-69935125D01*
X190259967Y-69935125D01*
X190412348Y-69973220D01*
X190488539Y-70011316D01*
X190564729Y-70087506D01*
X190602824Y-70201792D01*
X190602824Y-70392268D01*
X190374253Y-69630363D02*
X190374253Y-69249411D01*
X190602824Y-69706554D02*
X189802824Y-69439887D01*
X190602824Y-69173220D01*
X190564729Y-57219728D02*
X190602824Y-57105442D01*
X190602824Y-56914966D01*
X190564729Y-56838776D01*
X190526634Y-56800680D01*
X190450443Y-56762585D01*
X190374253Y-56762585D01*
X190298062Y-56800680D01*
X190259967Y-56838776D01*
X190221872Y-56914966D01*
X190183777Y-57067347D01*
X190145681Y-57143538D01*
X190107586Y-57181633D01*
X190031396Y-57219728D01*
X189955205Y-57219728D01*
X189879015Y-57181633D01*
X189840920Y-57143538D01*
X189802824Y-57067347D01*
X189802824Y-56876871D01*
X189840920Y-56762585D01*
X190602824Y-56419728D02*
X189802824Y-56419728D01*
X189802824Y-56229252D01*
X189840920Y-56114966D01*
X189917110Y-56038776D01*
X189993300Y-56000680D01*
X190145681Y-55962585D01*
X190259967Y-55962585D01*
X190412348Y-56000680D01*
X190488539Y-56038776D01*
X190564729Y-56114966D01*
X190602824Y-56229252D01*
X190602824Y-56419728D01*
X190374253Y-55657823D02*
X190374253Y-55276871D01*
X190602824Y-55734014D02*
X189802824Y-55467347D01*
X190602824Y-55200680D01*
X193137749Y-57129560D02*
X193175844Y-57015275D01*
X193175844Y-56824799D01*
X193137749Y-56748608D01*
X193099654Y-56710513D01*
X193023463Y-56672418D01*
X192947273Y-56672418D01*
X192871082Y-56710513D01*
X192832987Y-56748608D01*
X192794892Y-56824799D01*
X192756797Y-56977180D01*
X192718701Y-57053370D01*
X192680606Y-57091465D01*
X192604416Y-57129560D01*
X192528225Y-57129560D01*
X192452035Y-57091465D01*
X192413940Y-57053370D01*
X192375844Y-56977180D01*
X192375844Y-56786703D01*
X192413940Y-56672418D01*
X193099654Y-55872418D02*
X193137749Y-55910513D01*
X193175844Y-56024799D01*
X193175844Y-56100989D01*
X193137749Y-56215275D01*
X193061559Y-56291465D01*
X192985368Y-56329560D01*
X192832987Y-56367656D01*
X192718701Y-56367656D01*
X192566320Y-56329560D01*
X192490130Y-56291465D01*
X192413940Y-56215275D01*
X192375844Y-56100989D01*
X192375844Y-56024799D01*
X192413940Y-55910513D01*
X192452035Y-55872418D01*
X193175844Y-55148608D02*
X193175844Y-55529560D01*
X192375844Y-55529560D01*
X194953940Y-56786703D02*
X194915844Y-56862894D01*
X194915844Y-56977180D01*
X194953940Y-57091465D01*
X195030130Y-57167656D01*
X195106320Y-57205751D01*
X195258701Y-57243846D01*
X195372987Y-57243846D01*
X195525368Y-57205751D01*
X195601559Y-57167656D01*
X195677749Y-57091465D01*
X195715844Y-56977180D01*
X195715844Y-56900989D01*
X195677749Y-56786703D01*
X195639654Y-56748608D01*
X195372987Y-56748608D01*
X195372987Y-56900989D01*
X195715844Y-56405751D02*
X194915844Y-56405751D01*
X195715844Y-55948608D01*
X194915844Y-55948608D01*
X195715844Y-55567656D02*
X194915844Y-55567656D01*
X194915844Y-55377180D01*
X194953940Y-55262894D01*
X195030130Y-55186703D01*
X195106320Y-55148608D01*
X195258701Y-55110513D01*
X195372987Y-55110513D01*
X195525368Y-55148608D01*
X195601559Y-55186703D01*
X195677749Y-55262894D01*
X195715844Y-55377180D01*
X195715844Y-55567656D01*
X197951082Y-57876240D02*
X197951082Y-57266716D01*
X198255844Y-57571478D02*
X197646320Y-57571478D01*
X197455844Y-56961954D02*
X197455844Y-56466716D01*
X197760606Y-56733382D01*
X197760606Y-56619097D01*
X197798701Y-56542906D01*
X197836797Y-56504811D01*
X197912987Y-56466716D01*
X198103463Y-56466716D01*
X198179654Y-56504811D01*
X198217749Y-56542906D01*
X198255844Y-56619097D01*
X198255844Y-56847668D01*
X198217749Y-56923859D01*
X198179654Y-56961954D01*
X198179654Y-56123859D02*
X198217749Y-56085763D01*
X198255844Y-56123859D01*
X198217749Y-56161954D01*
X198179654Y-56123859D01*
X198255844Y-56123859D01*
X197455844Y-55819097D02*
X197455844Y-55323859D01*
X197760606Y-55590525D01*
X197760606Y-55476240D01*
X197798701Y-55400049D01*
X197836797Y-55361954D01*
X197912987Y-55323859D01*
X198103463Y-55323859D01*
X198179654Y-55361954D01*
X198217749Y-55400049D01*
X198255844Y-55476240D01*
X198255844Y-55704811D01*
X198217749Y-55781001D01*
X198179654Y-55819097D01*
X197455844Y-55095287D02*
X198255844Y-54828620D01*
X197455844Y-54561954D01*
X195667751Y-47634089D02*
X195782037Y-47672184D01*
X195972513Y-47672184D01*
X196048703Y-47634089D01*
X196086799Y-47595994D01*
X196124894Y-47519803D01*
X196124894Y-47443613D01*
X196086799Y-47367422D01*
X196048703Y-47329327D01*
X195972513Y-47291232D01*
X195820132Y-47253137D01*
X195743941Y-47215041D01*
X195705846Y-47176946D01*
X195667751Y-47100756D01*
X195667751Y-47024565D01*
X195705846Y-46948375D01*
X195743941Y-46910280D01*
X195820132Y-46872184D01*
X196010608Y-46872184D01*
X196124894Y-46910280D01*
X196467751Y-47672184D02*
X196467751Y-46872184D01*
X196658227Y-46872184D01*
X196772513Y-46910280D01*
X196848703Y-46986470D01*
X196886799Y-47062660D01*
X196924894Y-47215041D01*
X196924894Y-47329327D01*
X196886799Y-47481708D01*
X196848703Y-47557899D01*
X196772513Y-47634089D01*
X196658227Y-47672184D01*
X196467751Y-47672184D01*
X197229656Y-47443613D02*
X197610608Y-47443613D01*
X197153465Y-47672184D02*
X197420132Y-46872184D01*
X197686799Y-47672184D01*
X195591560Y-48667422D02*
X196201084Y-48667422D01*
X196582037Y-48553137D02*
X196848703Y-48553137D01*
X196962989Y-48972184D02*
X196582037Y-48972184D01*
X196582037Y-48172184D01*
X196962989Y-48172184D01*
X197229656Y-48172184D02*
X197762989Y-48972184D01*
X197762989Y-48172184D02*
X197229656Y-48972184D01*
X195620759Y-44964549D02*
X195735044Y-45002644D01*
X195925520Y-45002644D01*
X196001711Y-44964549D01*
X196039806Y-44926454D01*
X196077901Y-44850263D01*
X196077901Y-44774073D01*
X196039806Y-44697882D01*
X196001711Y-44659787D01*
X195925520Y-44621692D01*
X195773140Y-44583597D01*
X195696949Y-44545501D01*
X195658854Y-44507406D01*
X195620759Y-44431216D01*
X195620759Y-44355025D01*
X195658854Y-44278835D01*
X195696949Y-44240740D01*
X195773140Y-44202644D01*
X195963616Y-44202644D01*
X196077901Y-44240740D01*
X196877901Y-44926454D02*
X196839806Y-44964549D01*
X196725520Y-45002644D01*
X196649330Y-45002644D01*
X196535044Y-44964549D01*
X196458854Y-44888359D01*
X196420759Y-44812168D01*
X196382663Y-44659787D01*
X196382663Y-44545501D01*
X196420759Y-44393120D01*
X196458854Y-44316930D01*
X196535044Y-44240740D01*
X196649330Y-44202644D01*
X196725520Y-44202644D01*
X196839806Y-44240740D01*
X196877901Y-44278835D01*
X197601711Y-45002644D02*
X197220759Y-45002644D01*
X197220759Y-44202644D01*
X195525520Y-45997882D02*
X196135044Y-45997882D01*
X196515997Y-45883597D02*
X196782663Y-45883597D01*
X196896949Y-46302644D02*
X196515997Y-46302644D01*
X196515997Y-45502644D01*
X196896949Y-45502644D01*
X197163616Y-45502644D02*
X197696949Y-46302644D01*
X197696949Y-45502644D02*
X197163616Y-46302644D01*
X196227776Y-42480280D02*
X196151585Y-42442184D01*
X196037300Y-42442184D01*
X195923014Y-42480280D01*
X195846823Y-42556470D01*
X195808728Y-42632660D01*
X195770633Y-42785041D01*
X195770633Y-42899327D01*
X195808728Y-43051708D01*
X195846823Y-43127899D01*
X195923014Y-43204089D01*
X196037300Y-43242184D01*
X196113490Y-43242184D01*
X196227776Y-43204089D01*
X196265871Y-43165994D01*
X196265871Y-42899327D01*
X196113490Y-42899327D01*
X196608728Y-43242184D02*
X196608728Y-42442184D01*
X197065871Y-43242184D01*
X197065871Y-42442184D01*
X197446823Y-43242184D02*
X197446823Y-42442184D01*
X197637300Y-42442184D01*
X197751585Y-42480280D01*
X197827776Y-42556470D01*
X197865871Y-42632660D01*
X197903966Y-42785041D01*
X197903966Y-42899327D01*
X197865871Y-43051708D01*
X197827776Y-43127899D01*
X197751585Y-43204089D01*
X197637300Y-43242184D01*
X197446823Y-43242184D01*
X195478528Y-40333922D02*
X196088052Y-40333922D01*
X195783290Y-40638684D02*
X195783290Y-40029160D01*
X196849957Y-39838684D02*
X196469004Y-39838684D01*
X196430909Y-40219637D01*
X196469004Y-40181541D01*
X196545195Y-40143446D01*
X196735671Y-40143446D01*
X196811861Y-40181541D01*
X196849957Y-40219637D01*
X196888052Y-40295827D01*
X196888052Y-40486303D01*
X196849957Y-40562494D01*
X196811861Y-40600589D01*
X196735671Y-40638684D01*
X196545195Y-40638684D01*
X196469004Y-40600589D01*
X196430909Y-40562494D01*
X197116623Y-39838684D02*
X197383290Y-40638684D01*
X197649957Y-39838684D01*
X185997720Y-28320017D02*
X186083434Y-28348588D01*
X186226291Y-28348588D01*
X186283434Y-28320017D01*
X186312005Y-28291445D01*
X186340577Y-28234302D01*
X186340577Y-28177160D01*
X186312005Y-28120017D01*
X186283434Y-28091445D01*
X186226291Y-28062874D01*
X186112005Y-28034302D01*
X186054862Y-28005731D01*
X186026291Y-27977160D01*
X185997720Y-27920017D01*
X185997720Y-27862874D01*
X186026291Y-27805731D01*
X186054862Y-27777160D01*
X186112005Y-27748588D01*
X186254862Y-27748588D01*
X186340577Y-27777160D01*
X186940577Y-28291445D02*
X186912005Y-28320017D01*
X186826291Y-28348588D01*
X186769148Y-28348588D01*
X186683434Y-28320017D01*
X186626291Y-28262874D01*
X186597720Y-28205731D01*
X186569148Y-28091445D01*
X186569148Y-28005731D01*
X186597720Y-27891445D01*
X186626291Y-27834302D01*
X186683434Y-27777160D01*
X186769148Y-27748588D01*
X186826291Y-27748588D01*
X186912005Y-27777160D01*
X186940577Y-27805731D01*
X187483434Y-28348588D02*
X187197720Y-28348588D01*
X187197720Y-27748588D01*
X187540577Y-28405731D02*
X187997720Y-28405731D01*
X188140577Y-28034302D02*
X188340577Y-28034302D01*
X188426291Y-28348588D02*
X188140577Y-28348588D01*
X188140577Y-27748588D01*
X188426291Y-27748588D01*
X188626291Y-27748588D02*
X189026291Y-28348588D01*
X189026291Y-27748588D02*
X188626291Y-28348588D01*
X186410154Y-23102857D02*
X186495868Y-23131428D01*
X186638725Y-23131428D01*
X186695868Y-23102857D01*
X186724440Y-23074285D01*
X186753011Y-23017142D01*
X186753011Y-22960000D01*
X186724440Y-22902857D01*
X186695868Y-22874285D01*
X186638725Y-22845714D01*
X186524440Y-22817142D01*
X186467297Y-22788571D01*
X186438725Y-22760000D01*
X186410154Y-22702857D01*
X186410154Y-22645714D01*
X186438725Y-22588571D01*
X186467297Y-22560000D01*
X186524440Y-22531428D01*
X186667297Y-22531428D01*
X186753011Y-22560000D01*
X187010154Y-23131428D02*
X187010154Y-22531428D01*
X187153011Y-22531428D01*
X187238725Y-22560000D01*
X187295868Y-22617142D01*
X187324440Y-22674285D01*
X187353011Y-22788571D01*
X187353011Y-22874285D01*
X187324440Y-22988571D01*
X187295868Y-23045714D01*
X187238725Y-23102857D01*
X187153011Y-23131428D01*
X187010154Y-23131428D01*
X187581582Y-22960000D02*
X187867297Y-22960000D01*
X187524440Y-23131428D02*
X187724440Y-22531428D01*
X187924440Y-23131428D01*
X187981582Y-23188571D02*
X188438725Y-23188571D01*
X188581582Y-22817142D02*
X188781582Y-22817142D01*
X188867297Y-23131428D02*
X188581582Y-23131428D01*
X188581582Y-22531428D01*
X188867297Y-22531428D01*
X189067297Y-22531428D02*
X189467297Y-23131428D01*
X189467297Y-22531428D02*
X189067297Y-23131428D01*
X183561451Y-28140337D02*
X184018594Y-28140337D01*
X183790022Y-28368908D02*
X183790022Y-27911765D01*
X184590022Y-27768908D02*
X184304308Y-27768908D01*
X184275737Y-28054622D01*
X184304308Y-28026051D01*
X184361451Y-27997480D01*
X184504308Y-27997480D01*
X184561451Y-28026051D01*
X184590022Y-28054622D01*
X184618594Y-28111765D01*
X184618594Y-28254622D01*
X184590022Y-28311765D01*
X184561451Y-28340337D01*
X184504308Y-28368908D01*
X184361451Y-28368908D01*
X184304308Y-28340337D01*
X184275737Y-28311765D01*
X184790022Y-27768908D02*
X184990022Y-28368908D01*
X185190022Y-27768908D01*
X183744331Y-24038237D02*
X184201474Y-24038237D01*
X183972902Y-24266808D02*
X183972902Y-23809665D01*
X184772902Y-23666808D02*
X184487188Y-23666808D01*
X184458617Y-23952522D01*
X184487188Y-23923951D01*
X184544331Y-23895380D01*
X184687188Y-23895380D01*
X184744331Y-23923951D01*
X184772902Y-23952522D01*
X184801474Y-24009665D01*
X184801474Y-24152522D01*
X184772902Y-24209665D01*
X184744331Y-24238237D01*
X184687188Y-24266808D01*
X184544331Y-24266808D01*
X184487188Y-24238237D01*
X184458617Y-24209665D01*
X184972902Y-23666808D02*
X185172902Y-24266808D01*
X185372902Y-23666808D01*
X190207957Y-22580320D02*
X190150814Y-22551748D01*
X190065100Y-22551748D01*
X189979385Y-22580320D01*
X189922242Y-22637462D01*
X189893671Y-22694605D01*
X189865100Y-22808891D01*
X189865100Y-22894605D01*
X189893671Y-23008891D01*
X189922242Y-23066034D01*
X189979385Y-23123177D01*
X190065100Y-23151748D01*
X190122242Y-23151748D01*
X190207957Y-23123177D01*
X190236528Y-23094605D01*
X190236528Y-22894605D01*
X190122242Y-22894605D01*
X190493671Y-23151748D02*
X190493671Y-22551748D01*
X190836528Y-23151748D01*
X190836528Y-22551748D01*
X191122242Y-23151748D02*
X191122242Y-22551748D01*
X191265100Y-22551748D01*
X191350814Y-22580320D01*
X191407957Y-22637462D01*
X191436528Y-22694605D01*
X191465100Y-22808891D01*
X191465100Y-22894605D01*
X191436528Y-23008891D01*
X191407957Y-23066034D01*
X191350814Y-23123177D01*
X191265100Y-23151748D01*
X191122242Y-23151748D01*
X190146997Y-27817800D02*
X190089854Y-27789228D01*
X190004140Y-27789228D01*
X189918425Y-27817800D01*
X189861282Y-27874942D01*
X189832711Y-27932085D01*
X189804140Y-28046371D01*
X189804140Y-28132085D01*
X189832711Y-28246371D01*
X189861282Y-28303514D01*
X189918425Y-28360657D01*
X190004140Y-28389228D01*
X190061282Y-28389228D01*
X190146997Y-28360657D01*
X190175568Y-28332085D01*
X190175568Y-28132085D01*
X190061282Y-28132085D01*
X190432711Y-28389228D02*
X190432711Y-27789228D01*
X190775568Y-28389228D01*
X190775568Y-27789228D01*
X191061282Y-28389228D02*
X191061282Y-27789228D01*
X191204140Y-27789228D01*
X191289854Y-27817800D01*
X191346997Y-27874942D01*
X191375568Y-27932085D01*
X191404140Y-28046371D01*
X191404140Y-28132085D01*
X191375568Y-28246371D01*
X191346997Y-28303514D01*
X191289854Y-28360657D01*
X191204140Y-28389228D01*
X191061282Y-28389228D01*
D12*
X187117480Y-34073444D02*
X187174622Y-34092492D01*
X187269860Y-34092492D01*
X187307956Y-34073444D01*
X187327003Y-34054397D01*
X187346051Y-34016301D01*
X187346051Y-33978206D01*
X187327003Y-33940111D01*
X187307956Y-33921063D01*
X187269860Y-33902016D01*
X187193670Y-33882968D01*
X187155575Y-33863920D01*
X187136527Y-33844873D01*
X187117480Y-33806778D01*
X187117480Y-33768682D01*
X187136527Y-33730587D01*
X187155575Y-33711540D01*
X187193670Y-33692492D01*
X187288908Y-33692492D01*
X187346051Y-33711540D01*
X187746051Y-34054397D02*
X187727003Y-34073444D01*
X187669860Y-34092492D01*
X187631765Y-34092492D01*
X187574622Y-34073444D01*
X187536527Y-34035349D01*
X187517480Y-33997254D01*
X187498432Y-33921063D01*
X187498432Y-33863920D01*
X187517480Y-33787730D01*
X187536527Y-33749635D01*
X187574622Y-33711540D01*
X187631765Y-33692492D01*
X187669860Y-33692492D01*
X187727003Y-33711540D01*
X187746051Y-33730587D01*
X188107956Y-34092492D02*
X187917480Y-34092492D01*
X187917480Y-33692492D01*
X188146051Y-34130587D02*
X188450813Y-34130587D01*
X188546051Y-33882968D02*
X188679384Y-33882968D01*
X188736527Y-34092492D02*
X188546051Y-34092492D01*
X188546051Y-33692492D01*
X188736527Y-33692492D01*
X188869860Y-33692492D02*
X189136527Y-34092492D01*
X189136527Y-33692492D02*
X188869860Y-34092492D01*
D10*
X185549094Y-31383257D02*
X185634808Y-31411828D01*
X185777665Y-31411828D01*
X185834808Y-31383257D01*
X185863380Y-31354685D01*
X185891951Y-31297542D01*
X185891951Y-31240400D01*
X185863380Y-31183257D01*
X185834808Y-31154685D01*
X185777665Y-31126114D01*
X185663380Y-31097542D01*
X185606237Y-31068971D01*
X185577665Y-31040400D01*
X185549094Y-30983257D01*
X185549094Y-30926114D01*
X185577665Y-30868971D01*
X185606237Y-30840400D01*
X185663380Y-30811828D01*
X185806237Y-30811828D01*
X185891951Y-30840400D01*
X186149094Y-31411828D02*
X186149094Y-30811828D01*
X186291951Y-30811828D01*
X186377665Y-30840400D01*
X186434808Y-30897542D01*
X186463380Y-30954685D01*
X186491951Y-31068971D01*
X186491951Y-31154685D01*
X186463380Y-31268971D01*
X186434808Y-31326114D01*
X186377665Y-31383257D01*
X186291951Y-31411828D01*
X186149094Y-31411828D01*
X186720522Y-31240400D02*
X187006237Y-31240400D01*
X186663380Y-31411828D02*
X186863380Y-30811828D01*
X187063380Y-31411828D01*
X187120522Y-31468971D02*
X187577665Y-31468971D01*
X187720522Y-31097542D02*
X187920522Y-31097542D01*
X188006237Y-31411828D02*
X187720522Y-31411828D01*
X187720522Y-30811828D01*
X188006237Y-30811828D01*
X188206237Y-30811828D02*
X188606237Y-31411828D01*
X188606237Y-30811828D02*
X188206237Y-31411828D01*
D11*
X191284385Y-33817868D02*
X192046290Y-33817868D01*
X191665338Y-34198820D02*
X191665338Y-33436916D01*
X192998671Y-33198820D02*
X192522480Y-33198820D01*
X192474861Y-33675011D01*
X192522480Y-33627392D01*
X192617719Y-33579773D01*
X192855814Y-33579773D01*
X192951052Y-33627392D01*
X192998671Y-33675011D01*
X193046290Y-33770249D01*
X193046290Y-34008344D01*
X192998671Y-34103582D01*
X192951052Y-34151201D01*
X192855814Y-34198820D01*
X192617719Y-34198820D01*
X192522480Y-34151201D01*
X192474861Y-34103582D01*
X193332004Y-33198820D02*
X193665338Y-34198820D01*
X193998671Y-33198820D01*
X190527465Y-31770628D02*
X191289370Y-31770628D01*
X190908418Y-32151580D02*
X190908418Y-31389676D01*
X192241751Y-31151580D02*
X191765560Y-31151580D01*
X191717941Y-31627771D01*
X191765560Y-31580152D01*
X191860799Y-31532533D01*
X192098894Y-31532533D01*
X192194132Y-31580152D01*
X192241751Y-31627771D01*
X192289370Y-31723009D01*
X192289370Y-31961104D01*
X192241751Y-32056342D01*
X192194132Y-32103961D01*
X192098894Y-32151580D01*
X191860799Y-32151580D01*
X191765560Y-32103961D01*
X191717941Y-32056342D01*
X192575084Y-31151580D02*
X192908418Y-32151580D01*
X193241751Y-31151580D01*
X182374635Y-34803460D02*
X182279397Y-34755840D01*
X182136540Y-34755840D01*
X181993682Y-34803460D01*
X181898444Y-34898698D01*
X181850825Y-34993936D01*
X181803206Y-35184412D01*
X181803206Y-35327269D01*
X181850825Y-35517745D01*
X181898444Y-35612983D01*
X181993682Y-35708221D01*
X182136540Y-35755840D01*
X182231778Y-35755840D01*
X182374635Y-35708221D01*
X182422254Y-35660602D01*
X182422254Y-35327269D01*
X182231778Y-35327269D01*
X182850825Y-35755840D02*
X182850825Y-34755840D01*
X183422254Y-35755840D01*
X183422254Y-34755840D01*
X183898444Y-35755840D02*
X183898444Y-34755840D01*
X184136540Y-34755840D01*
X184279397Y-34803460D01*
X184374635Y-34898698D01*
X184422254Y-34993936D01*
X184469873Y-35184412D01*
X184469873Y-35327269D01*
X184422254Y-35517745D01*
X184374635Y-35612983D01*
X184279397Y-35708221D01*
X184136540Y-35755840D01*
X183898444Y-35755840D01*
X181155435Y-32329500D02*
X181060197Y-32281880D01*
X180917340Y-32281880D01*
X180774482Y-32329500D01*
X180679244Y-32424738D01*
X180631625Y-32519976D01*
X180584006Y-32710452D01*
X180584006Y-32853309D01*
X180631625Y-33043785D01*
X180679244Y-33139023D01*
X180774482Y-33234261D01*
X180917340Y-33281880D01*
X181012578Y-33281880D01*
X181155435Y-33234261D01*
X181203054Y-33186642D01*
X181203054Y-32853309D01*
X181012578Y-32853309D01*
X181631625Y-33281880D02*
X181631625Y-32281880D01*
X182203054Y-33281880D01*
X182203054Y-32281880D01*
X182679244Y-33281880D02*
X182679244Y-32281880D01*
X182917340Y-32281880D01*
X183060197Y-32329500D01*
X183155435Y-32424738D01*
X183203054Y-32519976D01*
X183250673Y-32710452D01*
X183250673Y-32853309D01*
X183203054Y-33043785D01*
X183155435Y-33139023D01*
X183060197Y-33234261D01*
X182917340Y-33281880D01*
X182679244Y-33281880D01*
X196064950Y-35679640D02*
X195731617Y-35203450D01*
X195493521Y-35679640D02*
X195493521Y-34679640D01*
X195874474Y-34679640D01*
X195969712Y-34727260D01*
X196017331Y-34774879D01*
X196064950Y-34870117D01*
X196064950Y-35012974D01*
X196017331Y-35108212D01*
X195969712Y-35155831D01*
X195874474Y-35203450D01*
X195493521Y-35203450D01*
X196779236Y-34679640D02*
X196779236Y-35393926D01*
X196731617Y-35536783D01*
X196636379Y-35632021D01*
X196493521Y-35679640D01*
X196398283Y-35679640D01*
X197779236Y-35679640D02*
X197207807Y-35679640D01*
X197493521Y-35679640D02*
X197493521Y-34679640D01*
X197398283Y-34822498D01*
X197303045Y-34917736D01*
X197207807Y-34965355D01*
X198160188Y-34774879D02*
X198207807Y-34727260D01*
X198303045Y-34679640D01*
X198541140Y-34679640D01*
X198636379Y-34727260D01*
X198683998Y-34774879D01*
X198731617Y-34870117D01*
X198731617Y-34965355D01*
X198683998Y-35108212D01*
X198112569Y-35679640D01*
X198731617Y-35679640D01*
X182378314Y-68344040D02*
X181806885Y-68344040D01*
X182092600Y-68344040D02*
X182092600Y-67344040D01*
X181997361Y-67486898D01*
X181902123Y-67582136D01*
X181806885Y-67629755D01*
X201841360Y-73593555D02*
X200841360Y-73593555D01*
X200603265Y-73164983D02*
X200555646Y-73069745D01*
X200555646Y-72926888D01*
X200603265Y-72831650D01*
X200698503Y-72784031D01*
X200793741Y-72784031D01*
X200888980Y-72831650D01*
X201222313Y-73164983D01*
X201222313Y-72784031D01*
X201746122Y-71784031D02*
X201793741Y-71831650D01*
X201841360Y-71974507D01*
X201841360Y-72069745D01*
X201793741Y-72212602D01*
X201698503Y-72307840D01*
X201603265Y-72355460D01*
X201412789Y-72403079D01*
X201269932Y-72403079D01*
X201079456Y-72355460D01*
X200984218Y-72307840D01*
X200888980Y-72212602D01*
X200841360Y-72069745D01*
X200841360Y-71974507D01*
X200888980Y-71831650D01*
X200936599Y-71784031D01*
X201174694Y-70164983D02*
X201841360Y-70164983D01*
X201174694Y-70593555D02*
X201698503Y-70593555D01*
X201793741Y-70545936D01*
X201841360Y-70450698D01*
X201841360Y-70307840D01*
X201793741Y-70212602D01*
X201746122Y-70164983D01*
X201746122Y-69688793D02*
X201793741Y-69641174D01*
X201841360Y-69688793D01*
X201793741Y-69736412D01*
X201746122Y-69688793D01*
X201841360Y-69688793D01*
X200841360Y-67974507D02*
X200841360Y-68450698D01*
X201317551Y-68498317D01*
X201269932Y-68450698D01*
X201222313Y-68355460D01*
X201222313Y-68117364D01*
X201269932Y-68022126D01*
X201317551Y-67974507D01*
X201412789Y-67926888D01*
X201650884Y-67926888D01*
X201746122Y-67974507D01*
X201793741Y-68022126D01*
X201841360Y-68117364D01*
X201841360Y-68355460D01*
X201793741Y-68450698D01*
X201746122Y-68498317D01*
X200841360Y-67641174D02*
X201841360Y-67307840D01*
X200841360Y-66974507D01*
X198128854Y-65230000D02*
X197557425Y-65230000D01*
X197843140Y-65230000D02*
X197843140Y-64230000D01*
X197747901Y-64372858D01*
X197652663Y-64468096D01*
X197557425Y-64515715D01*
X198245694Y-56273960D02*
X197674265Y-56273960D01*
X197959980Y-56273960D02*
X197959980Y-55273960D01*
X197864741Y-55416818D01*
X197769503Y-55512056D01*
X197674265Y-55559675D01*
X176576954Y-48613320D02*
X176005525Y-48613320D01*
X176291240Y-48613320D02*
X176291240Y-47613320D01*
X176196001Y-47756178D01*
X176100763Y-47851416D01*
X176005525Y-47899035D01*
X201940420Y-59993065D02*
X200940420Y-59993065D01*
X200702325Y-59564494D02*
X200654706Y-59469256D01*
X200654706Y-59326399D01*
X200702325Y-59231160D01*
X200797563Y-59183541D01*
X200892801Y-59183541D01*
X200988040Y-59231160D01*
X201321373Y-59564494D01*
X201321373Y-59183541D01*
X201845182Y-58183541D02*
X201892801Y-58231160D01*
X201940420Y-58374018D01*
X201940420Y-58469256D01*
X201892801Y-58612113D01*
X201797563Y-58707351D01*
X201702325Y-58754970D01*
X201511849Y-58802589D01*
X201368992Y-58802589D01*
X201178516Y-58754970D01*
X201083278Y-58707351D01*
X200988040Y-58612113D01*
X200940420Y-58469256D01*
X200940420Y-58374018D01*
X200988040Y-58231160D01*
X201035659Y-58183541D01*
X201273754Y-56564494D02*
X201940420Y-56564494D01*
X201273754Y-56993065D02*
X201797563Y-56993065D01*
X201892801Y-56945446D01*
X201940420Y-56850208D01*
X201940420Y-56707351D01*
X201892801Y-56612113D01*
X201845182Y-56564494D01*
X201845182Y-56088303D02*
X201892801Y-56040684D01*
X201940420Y-56088303D01*
X201892801Y-56135922D01*
X201845182Y-56088303D01*
X201940420Y-56088303D01*
X200940420Y-54945446D02*
X200940420Y-54326399D01*
X201321373Y-54659732D01*
X201321373Y-54516875D01*
X201368992Y-54421637D01*
X201416611Y-54374018D01*
X201511849Y-54326399D01*
X201749944Y-54326399D01*
X201845182Y-54374018D01*
X201892801Y-54421637D01*
X201940420Y-54516875D01*
X201940420Y-54802589D01*
X201892801Y-54897827D01*
X201845182Y-54945446D01*
X200940420Y-54040684D02*
X201940420Y-53707351D01*
X200940420Y-53374018D01*
X200940420Y-53135922D02*
X200940420Y-52516875D01*
X201321373Y-52850208D01*
X201321373Y-52707351D01*
X201368992Y-52612113D01*
X201416611Y-52564494D01*
X201511849Y-52516875D01*
X201749944Y-52516875D01*
X201845182Y-52564494D01*
X201892801Y-52612113D01*
X201940420Y-52707351D01*
X201940420Y-52993065D01*
X201892801Y-53088303D01*
X201845182Y-53135922D01*
X199556714Y-86804285D02*
X200223380Y-86804285D01*
X199175761Y-87042380D02*
X199890047Y-87280476D01*
X199890047Y-86661428D01*
X199842428Y-85518571D02*
X199842428Y-84756666D01*
X200223380Y-85137619D02*
X199461476Y-85137619D01*
X199223380Y-83804285D02*
X199223380Y-84280476D01*
X199699571Y-84328095D01*
X199651952Y-84280476D01*
X199604333Y-84185238D01*
X199604333Y-83947142D01*
X199651952Y-83851904D01*
X199699571Y-83804285D01*
X199794809Y-83756666D01*
X200032904Y-83756666D01*
X200128142Y-83804285D01*
X200175761Y-83851904D01*
X200223380Y-83947142D01*
X200223380Y-84185238D01*
X200175761Y-84280476D01*
X200128142Y-84328095D01*
X199223380Y-83470952D02*
X200223380Y-83137619D01*
X199223380Y-82804285D01*
D13*
X205686465Y-58125017D02*
X207486465Y-57525017D01*
X205686465Y-56925017D01*
X207486465Y-55382160D02*
X207486465Y-56410731D01*
X207486465Y-55896445D02*
X205686465Y-55896445D01*
X205943608Y-56067874D01*
X206115037Y-56239302D01*
X206200751Y-56410731D01*
X207315037Y-54610731D02*
X207400751Y-54525017D01*
X207486465Y-54610731D01*
X207400751Y-54696445D01*
X207315037Y-54610731D01*
X207486465Y-54610731D01*
X207486465Y-52810731D02*
X207486465Y-53839302D01*
X207486465Y-53325017D02*
X205686465Y-53325017D01*
X205943608Y-53496445D01*
X206115037Y-53667874D01*
X206200751Y-53839302D01*
D11*
X184905614Y-68112900D02*
X184334185Y-68112900D01*
X184619900Y-68112900D02*
X184619900Y-67112900D01*
X184524661Y-67255758D01*
X184429423Y-67350996D01*
X184334185Y-67398615D01*
X198314514Y-62250580D02*
X197743085Y-62250580D01*
X198028800Y-62250580D02*
X198028800Y-61250580D01*
X197933561Y-61393438D01*
X197838323Y-61488676D01*
X197743085Y-61536295D01*
D13*
X204241680Y-74416517D02*
X204241680Y-73559374D01*
X204755965Y-74587945D02*
X202955965Y-73987945D01*
X204755965Y-73387945D01*
X204755965Y-72787945D02*
X202955965Y-72787945D01*
X204755965Y-70902231D02*
X203898822Y-71502231D01*
X204755965Y-71930802D02*
X202955965Y-71930802D01*
X202955965Y-71245088D01*
X203041680Y-71073660D01*
X203127394Y-70987945D01*
X203298822Y-70902231D01*
X203555965Y-70902231D01*
X203727394Y-70987945D01*
X203813108Y-71073660D01*
X203898822Y-71245088D01*
X203898822Y-71930802D01*
X204755965Y-69102231D02*
X203898822Y-69702231D01*
X204755965Y-70130802D02*
X202955965Y-70130802D01*
X202955965Y-69445088D01*
X203041680Y-69273660D01*
X203127394Y-69187945D01*
X203298822Y-69102231D01*
X203555965Y-69102231D01*
X203727394Y-69187945D01*
X203813108Y-69273660D01*
X203898822Y-69445088D01*
X203898822Y-70130802D01*
X202955965Y-67987945D02*
X202955965Y-67645088D01*
X203041680Y-67473660D01*
X203213108Y-67302231D01*
X203555965Y-67216517D01*
X204155965Y-67216517D01*
X204498822Y-67302231D01*
X204670251Y-67473660D01*
X204755965Y-67645088D01*
X204755965Y-67987945D01*
X204670251Y-68159374D01*
X204498822Y-68330802D01*
X204155965Y-68416517D01*
X203555965Y-68416517D01*
X203213108Y-68330802D01*
X203041680Y-68159374D01*
X202955965Y-67987945D01*
X204755965Y-66445088D02*
X202955965Y-66445088D01*
X203813108Y-66445088D02*
X203813108Y-65416517D01*
X204755965Y-65416517D02*
X202955965Y-65416517D01*
X204755965Y-63530802D02*
X203898822Y-64130802D01*
X204755965Y-64559374D02*
X202955965Y-64559374D01*
X202955965Y-63873660D01*
X203041680Y-63702231D01*
X203127394Y-63616517D01*
X203298822Y-63530802D01*
X203555965Y-63530802D01*
X203727394Y-63616517D01*
X203813108Y-63702231D01*
X203898822Y-63873660D01*
X203898822Y-64559374D01*
X204070251Y-62759374D02*
X204070251Y-61387945D01*
X203813108Y-60530802D02*
X203813108Y-59930802D01*
X204755965Y-59673660D02*
X204755965Y-60530802D01*
X202955965Y-60530802D01*
X202955965Y-59673660D01*
X204670251Y-58987945D02*
X204755965Y-58730802D01*
X204755965Y-58302231D01*
X204670251Y-58130802D01*
X204584537Y-58045088D01*
X204413108Y-57959374D01*
X204241680Y-57959374D01*
X204070251Y-58045088D01*
X203984537Y-58130802D01*
X203898822Y-58302231D01*
X203813108Y-58645088D01*
X203727394Y-58816517D01*
X203641680Y-58902231D01*
X203470251Y-58987945D01*
X203298822Y-58987945D01*
X203127394Y-58902231D01*
X203041680Y-58816517D01*
X202955965Y-58645088D01*
X202955965Y-58216517D01*
X203041680Y-57959374D01*
X204755965Y-57187945D02*
X202955965Y-57187945D01*
X202955965Y-56502231D01*
X203041680Y-56330802D01*
X203127394Y-56245088D01*
X203298822Y-56159374D01*
X203555965Y-56159374D01*
X203727394Y-56245088D01*
X203813108Y-56330802D01*
X203898822Y-56502231D01*
X203898822Y-57187945D01*
X202955965Y-55559374D02*
X202955965Y-54445088D01*
X203641680Y-55045088D01*
X203641680Y-54787945D01*
X203727394Y-54616517D01*
X203813108Y-54530802D01*
X203984537Y-54445088D01*
X204413108Y-54445088D01*
X204584537Y-54530802D01*
X204670251Y-54616517D01*
X204755965Y-54787945D01*
X204755965Y-55302231D01*
X204670251Y-55473660D01*
X204584537Y-55559374D01*
X203127394Y-53759374D02*
X203041680Y-53673660D01*
X202955965Y-53502231D01*
X202955965Y-53073660D01*
X203041680Y-52902231D01*
X203127394Y-52816517D01*
X203298822Y-52730802D01*
X203470251Y-52730802D01*
X203727394Y-52816517D01*
X204755965Y-53845088D01*
X204755965Y-52730802D01*
D11*
X190682074Y-38318700D02*
X190682074Y-37318700D01*
X191110645Y-37080605D02*
X191205883Y-37032986D01*
X191348740Y-37032986D01*
X191443979Y-37080605D01*
X191491598Y-37175843D01*
X191491598Y-37271081D01*
X191443979Y-37366320D01*
X191110645Y-37699653D01*
X191491598Y-37699653D01*
X192491598Y-38223462D02*
X192443979Y-38271081D01*
X192301121Y-38318700D01*
X192205883Y-38318700D01*
X192063026Y-38271081D01*
X191967788Y-38175843D01*
X191920169Y-38080605D01*
X191872550Y-37890129D01*
X191872550Y-37747272D01*
X191920169Y-37556796D01*
X191967788Y-37461558D01*
X192063026Y-37366320D01*
X192205883Y-37318700D01*
X192301121Y-37318700D01*
X192443979Y-37366320D01*
X192491598Y-37413939D01*
X192920169Y-37937748D02*
X193682074Y-37937748D01*
X194158264Y-37794891D02*
X194491598Y-37794891D01*
X194634455Y-38318700D02*
X194158264Y-38318700D01*
X194158264Y-37318700D01*
X194634455Y-37318700D01*
X194967788Y-37318700D02*
X195634455Y-38318700D01*
X195634455Y-37318700D02*
X194967788Y-38318700D01*
X197253502Y-37318700D02*
X196777312Y-37318700D01*
X196729693Y-37794891D01*
X196777312Y-37747272D01*
X196872550Y-37699653D01*
X197110645Y-37699653D01*
X197205883Y-37747272D01*
X197253502Y-37794891D01*
X197301121Y-37890129D01*
X197301121Y-38128224D01*
X197253502Y-38223462D01*
X197205883Y-38271081D01*
X197110645Y-38318700D01*
X196872550Y-38318700D01*
X196777312Y-38271081D01*
X196729693Y-38223462D01*
X197586836Y-37318700D02*
X197920169Y-38318700D01*
X198253502Y-37318700D01*
X172502154Y-26579461D02*
X172645011Y-26627080D01*
X172883106Y-26627080D01*
X172978344Y-26579461D01*
X173025963Y-26531842D01*
X173073582Y-26436604D01*
X173073582Y-26341366D01*
X173025963Y-26246128D01*
X172978344Y-26198509D01*
X172883106Y-26150890D01*
X172692630Y-26103271D01*
X172597392Y-26055652D01*
X172549773Y-26008033D01*
X172502154Y-25912795D01*
X172502154Y-25817557D01*
X172549773Y-25722319D01*
X172597392Y-25674700D01*
X172692630Y-25627080D01*
X172930725Y-25627080D01*
X173073582Y-25674700D01*
X173502154Y-26627080D02*
X173502154Y-25627080D01*
X173883106Y-25627080D01*
X173978344Y-25674700D01*
X174025963Y-25722319D01*
X174073582Y-25817557D01*
X174073582Y-25960414D01*
X174025963Y-26055652D01*
X173978344Y-26103271D01*
X173883106Y-26150890D01*
X173502154Y-26150890D01*
X174454535Y-26579461D02*
X174597392Y-26627080D01*
X174835487Y-26627080D01*
X174930725Y-26579461D01*
X174978344Y-26531842D01*
X175025963Y-26436604D01*
X175025963Y-26341366D01*
X174978344Y-26246128D01*
X174930725Y-26198509D01*
X174835487Y-26150890D01*
X174645011Y-26103271D01*
X174549773Y-26055652D01*
X174502154Y-26008033D01*
X174454535Y-25912795D01*
X174454535Y-25817557D01*
X174502154Y-25722319D01*
X174549773Y-25674700D01*
X174645011Y-25627080D01*
X174883106Y-25627080D01*
X175025963Y-25674700D01*
X175359297Y-25627080D02*
X175978344Y-25627080D01*
X175645011Y-26008033D01*
X175787868Y-26008033D01*
X175883106Y-26055652D01*
X175930725Y-26103271D01*
X175978344Y-26198509D01*
X175978344Y-26436604D01*
X175930725Y-26531842D01*
X175883106Y-26579461D01*
X175787868Y-26627080D01*
X175502154Y-26627080D01*
X175406916Y-26579461D01*
X175359297Y-26531842D01*
X176597392Y-25627080D02*
X176692630Y-25627080D01*
X176787868Y-25674700D01*
X176835487Y-25722319D01*
X176883106Y-25817557D01*
X176930725Y-26008033D01*
X176930725Y-26246128D01*
X176883106Y-26436604D01*
X176835487Y-26531842D01*
X176787868Y-26579461D01*
X176692630Y-26627080D01*
X176597392Y-26627080D01*
X176502154Y-26579461D01*
X176454535Y-26531842D01*
X176406916Y-26436604D01*
X176359297Y-26246128D01*
X176359297Y-26008033D01*
X176406916Y-25817557D01*
X176454535Y-25722319D01*
X176502154Y-25674700D01*
X176597392Y-25627080D01*
X181985232Y-65969140D02*
X181985232Y-64969140D01*
X182223327Y-64969140D01*
X182366184Y-65016760D01*
X182461422Y-65111998D01*
X182509041Y-65207236D01*
X182556660Y-65397712D01*
X182556660Y-65540569D01*
X182509041Y-65731045D01*
X182461422Y-65826283D01*
X182366184Y-65921521D01*
X182223327Y-65969140D01*
X181985232Y-65969140D01*
X182985232Y-65969140D02*
X182985232Y-64969140D01*
X182985232Y-65445331D02*
X183556660Y-65445331D01*
X183556660Y-65969140D02*
X183556660Y-64969140D01*
X183889994Y-64969140D02*
X184461422Y-64969140D01*
X184175708Y-65969140D02*
X184175708Y-64969140D01*
X184747137Y-65064379D02*
X184794756Y-65016760D01*
X184889994Y-64969140D01*
X185128089Y-64969140D01*
X185223327Y-65016760D01*
X185270946Y-65064379D01*
X185318565Y-65159617D01*
X185318565Y-65254855D01*
X185270946Y-65397712D01*
X184699518Y-65969140D01*
X185318565Y-65969140D01*
X185699518Y-65064379D02*
X185747137Y-65016760D01*
X185842375Y-64969140D01*
X186080470Y-64969140D01*
X186175708Y-65016760D01*
X186223327Y-65064379D01*
X186270946Y-65159617D01*
X186270946Y-65254855D01*
X186223327Y-65397712D01*
X185651899Y-65969140D01*
X186270946Y-65969140D01*
X165176295Y-22791800D02*
X165081057Y-22744180D01*
X164938200Y-22744180D01*
X164795342Y-22791800D01*
X164700104Y-22887038D01*
X164652485Y-22982276D01*
X164604866Y-23172752D01*
X164604866Y-23315609D01*
X164652485Y-23506085D01*
X164700104Y-23601323D01*
X164795342Y-23696561D01*
X164938200Y-23744180D01*
X165033438Y-23744180D01*
X165176295Y-23696561D01*
X165223914Y-23648942D01*
X165223914Y-23315609D01*
X165033438Y-23315609D01*
X165652485Y-23744180D02*
X165652485Y-22744180D01*
X166223914Y-23744180D01*
X166223914Y-22744180D01*
X166700104Y-23744180D02*
X166700104Y-22744180D01*
X166938200Y-22744180D01*
X167081057Y-22791800D01*
X167176295Y-22887038D01*
X167223914Y-22982276D01*
X167271533Y-23172752D01*
X167271533Y-23315609D01*
X167223914Y-23506085D01*
X167176295Y-23601323D01*
X167081057Y-23696561D01*
X166938200Y-23744180D01*
X166700104Y-23744180D01*
X156397485Y-25573028D02*
X157159390Y-25573028D01*
X156778438Y-25953980D02*
X156778438Y-25192076D01*
X158111771Y-24953980D02*
X157635580Y-24953980D01*
X157587961Y-25430171D01*
X157635580Y-25382552D01*
X157730819Y-25334933D01*
X157968914Y-25334933D01*
X158064152Y-25382552D01*
X158111771Y-25430171D01*
X158159390Y-25525409D01*
X158159390Y-25763504D01*
X158111771Y-25858742D01*
X158064152Y-25906361D01*
X157968914Y-25953980D01*
X157730819Y-25953980D01*
X157635580Y-25906361D01*
X157587961Y-25858742D01*
X158445104Y-24953980D02*
X158778438Y-25953980D01*
X159111771Y-24953980D01*
X194492619Y-87232857D02*
X194445000Y-87185238D01*
X194397380Y-87090000D01*
X194397380Y-86851904D01*
X194445000Y-86756666D01*
X194492619Y-86709047D01*
X194587857Y-86661428D01*
X194683095Y-86661428D01*
X194825952Y-86709047D01*
X195397380Y-87280476D01*
X195397380Y-86661428D01*
X195397380Y-84899523D02*
X194921190Y-85232857D01*
X195397380Y-85470952D02*
X194397380Y-85470952D01*
X194397380Y-85090000D01*
X194445000Y-84994761D01*
X194492619Y-84947142D01*
X194587857Y-84899523D01*
X194730714Y-84899523D01*
X194825952Y-84947142D01*
X194873571Y-84994761D01*
X194921190Y-85090000D01*
X194921190Y-85470952D01*
X194397380Y-84566190D02*
X195397380Y-83899523D01*
X194397380Y-83899523D02*
X195397380Y-84566190D01*
X195397380Y-83518571D02*
X194397380Y-83518571D01*
X194397380Y-83280476D01*
X194445000Y-83137619D01*
X194540238Y-83042380D01*
X194635476Y-82994761D01*
X194825952Y-82947142D01*
X194968809Y-82947142D01*
X195159285Y-82994761D01*
X195254523Y-83042380D01*
X195349761Y-83137619D01*
X195397380Y-83280476D01*
X195397380Y-83518571D01*
X196810380Y-87328095D02*
X196810380Y-86709047D01*
X197191333Y-87042380D01*
X197191333Y-86899523D01*
X197238952Y-86804285D01*
X197286571Y-86756666D01*
X197381809Y-86709047D01*
X197619904Y-86709047D01*
X197715142Y-86756666D01*
X197762761Y-86804285D01*
X197810380Y-86899523D01*
X197810380Y-87185238D01*
X197762761Y-87280476D01*
X197715142Y-87328095D01*
X196858000Y-84994761D02*
X196810380Y-85090000D01*
X196810380Y-85232857D01*
X196858000Y-85375714D01*
X196953238Y-85470952D01*
X197048476Y-85518571D01*
X197238952Y-85566190D01*
X197381809Y-85566190D01*
X197572285Y-85518571D01*
X197667523Y-85470952D01*
X197762761Y-85375714D01*
X197810380Y-85232857D01*
X197810380Y-85137619D01*
X197762761Y-84994761D01*
X197715142Y-84947142D01*
X197381809Y-84947142D01*
X197381809Y-85137619D01*
X197810380Y-84518571D02*
X196810380Y-84518571D01*
X197810380Y-83947142D01*
X196810380Y-83947142D01*
X197810380Y-83470952D02*
X196810380Y-83470952D01*
X196810380Y-83232857D01*
X196858000Y-83090000D01*
X196953238Y-82994761D01*
X197048476Y-82947142D01*
X197238952Y-82899523D01*
X197381809Y-82899523D01*
X197572285Y-82947142D01*
X197667523Y-82994761D01*
X197762761Y-83090000D01*
X197810380Y-83232857D01*
X197810380Y-83470952D01*
X201763380Y-86637666D02*
X201763380Y-87113857D01*
X202239571Y-87161476D01*
X202191952Y-87113857D01*
X202144333Y-87018619D01*
X202144333Y-86780523D01*
X202191952Y-86685285D01*
X202239571Y-86637666D01*
X202334809Y-86590047D01*
X202572904Y-86590047D01*
X202668142Y-86637666D01*
X202715761Y-86685285D01*
X202763380Y-86780523D01*
X202763380Y-87018619D01*
X202715761Y-87113857D01*
X202668142Y-87161476D01*
X202763380Y-85399571D02*
X201763380Y-85399571D01*
X202763380Y-84828142D01*
X201763380Y-84828142D01*
X202668142Y-83780523D02*
X202715761Y-83828142D01*
X202763380Y-83971000D01*
X202763380Y-84066238D01*
X202715761Y-84209095D01*
X202620523Y-84304333D01*
X202525285Y-84351952D01*
X202334809Y-84399571D01*
X202191952Y-84399571D01*
X202001476Y-84351952D01*
X201906238Y-84304333D01*
X201811000Y-84209095D01*
X201763380Y-84066238D01*
X201763380Y-83971000D01*
X201811000Y-83828142D01*
X201858619Y-83780523D01*
X192603380Y-86669380D02*
X192603380Y-87240809D01*
X192603380Y-86955095D02*
X191603380Y-86955095D01*
X191746238Y-87050333D01*
X191841476Y-87145571D01*
X191889095Y-87240809D01*
X191603380Y-85621761D02*
X191603380Y-85050333D01*
X192603380Y-85336047D02*
X191603380Y-85336047D01*
X191603380Y-84812238D02*
X192603380Y-84145571D01*
X191603380Y-84145571D02*
X192603380Y-84812238D01*
X192603380Y-83764619D02*
X191603380Y-83764619D01*
X191603380Y-83526523D01*
X191651000Y-83383666D01*
X191746238Y-83288428D01*
X191841476Y-83240809D01*
X192031952Y-83193190D01*
X192174809Y-83193190D01*
X192365285Y-83240809D01*
X192460523Y-83288428D01*
X192555761Y-83383666D01*
X192603380Y-83526523D01*
X192603380Y-83764619D01*
X206861041Y-84000956D02*
X206908660Y-83858099D01*
X206908660Y-83620003D01*
X206861041Y-83524765D01*
X206813422Y-83477146D01*
X206718184Y-83429527D01*
X206622946Y-83429527D01*
X206527708Y-83477146D01*
X206480089Y-83524765D01*
X206432470Y-83620003D01*
X206384851Y-83810480D01*
X206337232Y-83905718D01*
X206289613Y-83953337D01*
X206194375Y-84000956D01*
X206099137Y-84000956D01*
X206003899Y-83953337D01*
X205956280Y-83905718D01*
X205908660Y-83810480D01*
X205908660Y-83572384D01*
X205956280Y-83429527D01*
X206908660Y-83000956D02*
X205908660Y-83000956D01*
X205908660Y-82762860D01*
X205956280Y-82620003D01*
X206051518Y-82524765D01*
X206146756Y-82477146D01*
X206337232Y-82429527D01*
X206480089Y-82429527D01*
X206670565Y-82477146D01*
X206765803Y-82524765D01*
X206861041Y-82620003D01*
X206908660Y-82762860D01*
X206908660Y-83000956D01*
X206861041Y-82048575D02*
X206908660Y-81905718D01*
X206908660Y-81667622D01*
X206861041Y-81572384D01*
X206813422Y-81524765D01*
X206718184Y-81477146D01*
X206622946Y-81477146D01*
X206527708Y-81524765D01*
X206480089Y-81572384D01*
X206432470Y-81667622D01*
X206384851Y-81858099D01*
X206337232Y-81953337D01*
X206289613Y-82000956D01*
X206194375Y-82048575D01*
X206099137Y-82048575D01*
X206003899Y-82000956D01*
X205956280Y-81953337D01*
X205908660Y-81858099D01*
X205908660Y-81620003D01*
X205956280Y-81477146D01*
X205908660Y-80858099D02*
X205908660Y-80762860D01*
X205956280Y-80667622D01*
X206003899Y-80620003D01*
X206099137Y-80572384D01*
X206289613Y-80524765D01*
X206527708Y-80524765D01*
X206718184Y-80572384D01*
X206813422Y-80620003D01*
X206861041Y-80667622D01*
X206908660Y-80762860D01*
X206908660Y-80858099D01*
X206861041Y-80953337D01*
X206813422Y-81000956D01*
X206718184Y-81048575D01*
X206527708Y-81096194D01*
X206289613Y-81096194D01*
X206099137Y-81048575D01*
X206003899Y-81000956D01*
X205956280Y-80953337D01*
X205908660Y-80858099D01*
X206908660Y-79572384D02*
X206908660Y-80143813D01*
X206908660Y-79858099D02*
X205908660Y-79858099D01*
X206051518Y-79953337D01*
X206146756Y-80048575D01*
X206194375Y-80143813D01*
X206908660Y-78620003D02*
X206908660Y-79191432D01*
X206908660Y-78905718D02*
X205908660Y-78905718D01*
X206051518Y-79000956D01*
X206146756Y-79096194D01*
X206194375Y-79191432D01*
X163290220Y-35936840D02*
X152600220Y-35936840D01*
X144635220Y-38936840D02*
X148540220Y-38936840D01*
X148540220Y-38936840D02*
X152600220Y-35936840D01*
X163290220Y-35936840D02*
X167400220Y-38936840D01*
X161700220Y-85936840D02*
X154160220Y-85936840D01*
X169280220Y-87936840D02*
X163860220Y-87936840D01*
X169280220Y-87936840D02*
X171305220Y-85936840D01*
X144635220Y-85936840D02*
X146690220Y-87936840D01*
X161750220Y-85936840D02*
X163860220Y-87936840D01*
X154120220Y-85896840D02*
X154170220Y-85996840D01*
X152060220Y-87936840D02*
X154120220Y-85936840D01*
X145270220Y-39486840D02*
X145270220Y-85206840D01*
X145270220Y-85206840D02*
X147810220Y-85206840D01*
X147810220Y-85206840D02*
X147810220Y-39486840D01*
X147810220Y-39486840D02*
X145270220Y-39486840D01*
X170950220Y-85486840D02*
X167850220Y-85486840D01*
X170950220Y-83936840D02*
X170950220Y-85486840D01*
X168130220Y-82666840D02*
X170670220Y-82666840D01*
X167850220Y-85486840D02*
X167850220Y-83936840D01*
X168130220Y-39486840D02*
X168130220Y-82666840D01*
X170670220Y-39486840D02*
X168130220Y-39486840D01*
X170670220Y-82666840D02*
X170670220Y-39486840D01*
X152060220Y-87936840D02*
X146690220Y-87936840D01*
X144635220Y-85936840D02*
X144635220Y-38936840D01*
X167400220Y-38936840D02*
X171305220Y-38936840D01*
X171305220Y-38936840D02*
X171305220Y-85936840D01*
X161700220Y-81176840D02*
X161700220Y-85936840D01*
X161700220Y-81176840D02*
X154160220Y-81176840D01*
X154160220Y-85936840D02*
X154160220Y-81176840D01*
D14*
G36*
X175570245Y-84905781D02*
G01*
X175593083Y-84657179D01*
X175629100Y-84442821D01*
X175676621Y-84274026D01*
X175705828Y-84207044D01*
X175738541Y-84137119D01*
X175752557Y-84092881D01*
X175752564Y-84092524D01*
X175767585Y-84055496D01*
X175807656Y-83977505D01*
X175865571Y-83872283D01*
X175898050Y-83815341D01*
X176045494Y-83593338D01*
X176228106Y-83370295D01*
X176428829Y-83164809D01*
X176630609Y-82995480D01*
X176685311Y-82956853D01*
X176888607Y-82819986D01*
X176887187Y-82516401D01*
X176892951Y-82325494D01*
X176910377Y-82137710D01*
X176937043Y-81969879D01*
X176970529Y-81838832D01*
X176992241Y-81786083D01*
X177019889Y-81729684D01*
X177061930Y-81640120D01*
X177088655Y-81581956D01*
X177132008Y-81502601D01*
X177198070Y-81399748D01*
X177277695Y-81285615D01*
X177361735Y-81172422D01*
X177441041Y-81072387D01*
X177506467Y-80997729D01*
X177548863Y-80960667D01*
X177555279Y-80958690D01*
X177592399Y-80939050D01*
X177651924Y-80890985D01*
X177660457Y-80883190D01*
X177745327Y-80818472D01*
X177866889Y-80742687D01*
X178006260Y-80665843D01*
X178144559Y-80597946D01*
X178262903Y-80549005D01*
X178324510Y-80531242D01*
X178422893Y-80506563D01*
X178505741Y-80475880D01*
X178507024Y-80475252D01*
X178571625Y-80453157D01*
X178595854Y-80472747D01*
X178580246Y-80537006D01*
X178534962Y-80631038D01*
X178447674Y-80802860D01*
X178388493Y-80941227D01*
X178350120Y-81065396D01*
X178327900Y-81177384D01*
X178298452Y-81298565D01*
X178252159Y-81373901D01*
X178225774Y-81395970D01*
X178055933Y-81529728D01*
X177916776Y-81678969D01*
X177796070Y-81859334D01*
X177681577Y-82086467D01*
X177676071Y-82098717D01*
X177661423Y-82162550D01*
X177649913Y-82271892D01*
X177643087Y-82408773D01*
X177641885Y-82495592D01*
X177645383Y-82668965D01*
X177659640Y-82802199D01*
X177690296Y-82918452D01*
X177742993Y-83040880D01*
X177802362Y-83154339D01*
X177838302Y-83225622D01*
X177835692Y-83260674D01*
X177785060Y-83278046D01*
X177734857Y-83286535D01*
X177611981Y-83321510D01*
X177458434Y-83387067D01*
X177292647Y-83473521D01*
X177133046Y-83571185D01*
X176998060Y-83670371D01*
X176987143Y-83679558D01*
X176810246Y-83850557D01*
X176651012Y-84042133D01*
X176525306Y-84234225D01*
X176483345Y-84316712D01*
X176438309Y-84414070D01*
X176400228Y-84493571D01*
X176386878Y-84519967D01*
X176352072Y-84620404D01*
X176324525Y-84768650D01*
X176305854Y-84949263D01*
X176297676Y-85146805D01*
X176301188Y-85337836D01*
X176335903Y-85645162D01*
X176409907Y-85916281D01*
X176528733Y-86168772D01*
X176597848Y-86280315D01*
X176690398Y-86401768D01*
X176810282Y-86534069D01*
X176941929Y-86662196D01*
X177069766Y-86771129D01*
X177178223Y-86845847D01*
X177191552Y-86853019D01*
X177263155Y-86892671D01*
X177306102Y-86921956D01*
X177308510Y-86924481D01*
X177350651Y-86950738D01*
X177435922Y-86988650D01*
X177546655Y-87031545D01*
X177665181Y-87072753D01*
X177773831Y-87105603D01*
X177816510Y-87116269D01*
X177947246Y-87135844D01*
X178109339Y-87145539D01*
X178288247Y-87146142D01*
X178469424Y-87138438D01*
X178638326Y-87123213D01*
X178780411Y-87101254D01*
X178881134Y-87073345D01*
X178911885Y-87057078D01*
X178961062Y-87030816D01*
X179040591Y-86996847D01*
X179054760Y-86991376D01*
X179276074Y-86880164D01*
X179496851Y-86719976D01*
X179702963Y-86523867D01*
X179880284Y-86304891D01*
X179988520Y-86128516D01*
X180034602Y-86040385D01*
X180074400Y-85960201D01*
X180108374Y-85882756D01*
X180136986Y-85802842D01*
X180160696Y-85715252D01*
X180179964Y-85614780D01*
X180195252Y-85496216D01*
X180207019Y-85354354D01*
X180215726Y-85183987D01*
X180221835Y-84979906D01*
X180225805Y-84736905D01*
X180228097Y-84449776D01*
X180229172Y-84113311D01*
X180229490Y-83722304D01*
X180229510Y-83404056D01*
X180229510Y-81380713D01*
X180151651Y-81296702D01*
X180080191Y-81238448D01*
X179993072Y-81215026D01*
X179934935Y-81212690D01*
X179803720Y-81235232D01*
X179711520Y-81305141D01*
X179654797Y-81425848D01*
X179639731Y-81498797D01*
X179586200Y-81656741D01*
X179520790Y-81744503D01*
X179451725Y-81808219D01*
X179384406Y-81838399D01*
X179289594Y-81846618D01*
X179262844Y-81846634D01*
X179122184Y-81829781D01*
X179020060Y-81774324D01*
X178940164Y-81669650D01*
X178914746Y-81620081D01*
X178888482Y-81558716D01*
X178877609Y-81504358D01*
X178882546Y-81437796D01*
X178903712Y-81339820D01*
X178922475Y-81265375D01*
X179016062Y-81006181D01*
X179150881Y-80794887D01*
X179325294Y-80632778D01*
X179537663Y-80521141D01*
X179786348Y-80461261D01*
X179960393Y-80450690D01*
X180084084Y-80453973D01*
X180181787Y-80462714D01*
X180237439Y-80475252D01*
X180243875Y-80479998D01*
X180285532Y-80507670D01*
X180350854Y-80528823D01*
X180439770Y-80568848D01*
X180548925Y-80647198D01*
X180662720Y-80749778D01*
X180765553Y-80862495D01*
X180841825Y-80971253D01*
X180843138Y-80973588D01*
X180872467Y-81028293D01*
X180897658Y-81083063D01*
X180919028Y-81142959D01*
X180936888Y-81213044D01*
X180951553Y-81298381D01*
X180963336Y-81404031D01*
X180972551Y-81535059D01*
X180979511Y-81696526D01*
X180984531Y-81893496D01*
X180987923Y-82131029D01*
X180990002Y-82414190D01*
X180991080Y-82748041D01*
X180991473Y-83137643D01*
X180991510Y-83368617D01*
X180991510Y-85299168D01*
X181069368Y-85383179D01*
X181170983Y-85449893D01*
X181294411Y-85468758D01*
X181418621Y-85438794D01*
X181478255Y-85402249D01*
X181560815Y-85337308D01*
X181569850Y-83282937D01*
X181578885Y-81228565D01*
X181685347Y-81030864D01*
X181834022Y-80813424D01*
X182014852Y-80644404D01*
X182219743Y-80525080D01*
X182440600Y-80456728D01*
X182669328Y-80440624D01*
X182897831Y-80478045D01*
X183118016Y-80570267D01*
X183321787Y-80718567D01*
X183369910Y-80765265D01*
X183498143Y-80923861D01*
X183579360Y-81094729D01*
X183619642Y-81294098D01*
X183626760Y-81450531D01*
X183624446Y-81572629D01*
X183613748Y-81651025D01*
X183589029Y-81705459D01*
X183544651Y-81755670D01*
X183537710Y-81762375D01*
X183465781Y-81817621D01*
X183384440Y-81842676D01*
X183289650Y-81847690D01*
X183155044Y-81828704D01*
X183052463Y-81767339D01*
X182975111Y-81656991D01*
X182916191Y-81491054D01*
X182913966Y-81482565D01*
X182879289Y-81374734D01*
X182839778Y-81289631D01*
X182810984Y-81252378D01*
X182735266Y-81224027D01*
X182628544Y-81213770D01*
X182520894Y-81222330D01*
X182453262Y-81243770D01*
X182427629Y-81260014D01*
X182405652Y-81282372D01*
X182387050Y-81315523D01*
X182371542Y-81364146D01*
X182358850Y-81432920D01*
X182348692Y-81526524D01*
X182340788Y-81649637D01*
X182334858Y-81806939D01*
X182330623Y-82003107D01*
X182327801Y-82242822D01*
X182326113Y-82530761D01*
X182325279Y-82871605D01*
X182325018Y-83270032D01*
X182325010Y-83385633D01*
X182324909Y-83809022D01*
X182324314Y-84173900D01*
X182322781Y-84485258D01*
X182319868Y-84748084D01*
X182315131Y-84967368D01*
X182308128Y-85148100D01*
X182298417Y-85295270D01*
X182285554Y-85413865D01*
X182269097Y-85508877D01*
X182248603Y-85585295D01*
X182223630Y-85648108D01*
X182193735Y-85702306D01*
X182158475Y-85752878D01*
X182117408Y-85804814D01*
X182109506Y-85814519D01*
X181988064Y-85954181D01*
X181885047Y-86049245D01*
X181787614Y-86110384D01*
X181721760Y-86136802D01*
X181639867Y-86168364D01*
X181584623Y-86197864D01*
X181580472Y-86201276D01*
X181527313Y-86219465D01*
X181429663Y-86228486D01*
X181305773Y-86228957D01*
X181173892Y-86221497D01*
X181052273Y-86206725D01*
X180959165Y-86185260D01*
X180944330Y-86179706D01*
X180868775Y-86150941D01*
X180823630Y-86139089D01*
X180818944Y-86140018D01*
X180803046Y-86171952D01*
X180769455Y-86243837D01*
X180739812Y-86308565D01*
X180603297Y-86563199D01*
X180429249Y-86817689D01*
X180230508Y-87056609D01*
X180019913Y-87264535D01*
X179810305Y-87426043D01*
X179808823Y-87427005D01*
X179728303Y-87480334D01*
X179672096Y-87519667D01*
X179658010Y-87530965D01*
X179623109Y-87552013D01*
X179547271Y-87591015D01*
X179451635Y-87637275D01*
X179343739Y-87688653D01*
X179252358Y-87733060D01*
X179202662Y-87758103D01*
X179092900Y-87797430D01*
X178933025Y-87829781D01*
X178736103Y-87854553D01*
X178515201Y-87871139D01*
X178283384Y-87878936D01*
X178053720Y-87877338D01*
X177839273Y-87865740D01*
X177653112Y-87843538D01*
X177594250Y-87832563D01*
X177249333Y-87728664D01*
X176916277Y-87567715D01*
X176602624Y-87356021D01*
X176315920Y-87099887D01*
X176063707Y-86805615D01*
X175853530Y-86479512D01*
X175765620Y-86304431D01*
X175679043Y-86086038D01*
X175618495Y-85861086D01*
X175581121Y-85613750D01*
X175564067Y-85328209D01*
X175562259Y-85177309D01*
X175570245Y-84905781D01*
G37*
X175570245Y-84905781D02*
X175593083Y-84657179D01*
X175629100Y-84442821D01*
X175676621Y-84274026D01*
X175705828Y-84207044D01*
X175738541Y-84137119D01*
X175752557Y-84092881D01*
X175752564Y-84092524D01*
X175767585Y-84055496D01*
X175807656Y-83977505D01*
X175865571Y-83872283D01*
X175898050Y-83815341D01*
X176045494Y-83593338D01*
X176228106Y-83370295D01*
X176428829Y-83164809D01*
X176630609Y-82995480D01*
X176685311Y-82956853D01*
X176888607Y-82819986D01*
X176887187Y-82516401D01*
X176892951Y-82325494D01*
X176910377Y-82137710D01*
X176937043Y-81969879D01*
X176970529Y-81838832D01*
X176992241Y-81786083D01*
X177019889Y-81729684D01*
X177061930Y-81640120D01*
X177088655Y-81581956D01*
X177132008Y-81502601D01*
X177198070Y-81399748D01*
X177277695Y-81285615D01*
X177361735Y-81172422D01*
X177441041Y-81072387D01*
X177506467Y-80997729D01*
X177548863Y-80960667D01*
X177555279Y-80958690D01*
X177592399Y-80939050D01*
X177651924Y-80890985D01*
X177660457Y-80883190D01*
X177745327Y-80818472D01*
X177866889Y-80742687D01*
X178006260Y-80665843D01*
X178144559Y-80597946D01*
X178262903Y-80549005D01*
X178324510Y-80531242D01*
X178422893Y-80506563D01*
X178505741Y-80475880D01*
X178507024Y-80475252D01*
X178571625Y-80453157D01*
X178595854Y-80472747D01*
X178580246Y-80537006D01*
X178534962Y-80631038D01*
X178447674Y-80802860D01*
X178388493Y-80941227D01*
X178350120Y-81065396D01*
X178327900Y-81177384D01*
X178298452Y-81298565D01*
X178252159Y-81373901D01*
X178225774Y-81395970D01*
X178055933Y-81529728D01*
X177916776Y-81678969D01*
X177796070Y-81859334D01*
X177681577Y-82086467D01*
X177676071Y-82098717D01*
X177661423Y-82162550D01*
X177649913Y-82271892D01*
X177643087Y-82408773D01*
X177641885Y-82495592D01*
X177645383Y-82668965D01*
X177659640Y-82802199D01*
X177690296Y-82918452D01*
X177742993Y-83040880D01*
X177802362Y-83154339D01*
X177838302Y-83225622D01*
X177835692Y-83260674D01*
X177785060Y-83278046D01*
X177734857Y-83286535D01*
X177611981Y-83321510D01*
X177458434Y-83387067D01*
X177292647Y-83473521D01*
X177133046Y-83571185D01*
X176998060Y-83670371D01*
X176987143Y-83679558D01*
X176810246Y-83850557D01*
X176651012Y-84042133D01*
X176525306Y-84234225D01*
X176483345Y-84316712D01*
X176438309Y-84414070D01*
X176400228Y-84493571D01*
X176386878Y-84519967D01*
X176352072Y-84620404D01*
X176324525Y-84768650D01*
X176305854Y-84949263D01*
X176297676Y-85146805D01*
X176301188Y-85337836D01*
X176335903Y-85645162D01*
X176409907Y-85916281D01*
X176528733Y-86168772D01*
X176597848Y-86280315D01*
X176690398Y-86401768D01*
X176810282Y-86534069D01*
X176941929Y-86662196D01*
X177069766Y-86771129D01*
X177178223Y-86845847D01*
X177191552Y-86853019D01*
X177263155Y-86892671D01*
X177306102Y-86921956D01*
X177308510Y-86924481D01*
X177350651Y-86950738D01*
X177435922Y-86988650D01*
X177546655Y-87031545D01*
X177665181Y-87072753D01*
X177773831Y-87105603D01*
X177816510Y-87116269D01*
X177947246Y-87135844D01*
X178109339Y-87145539D01*
X178288247Y-87146142D01*
X178469424Y-87138438D01*
X178638326Y-87123213D01*
X178780411Y-87101254D01*
X178881134Y-87073345D01*
X178911885Y-87057078D01*
X178961062Y-87030816D01*
X179040591Y-86996847D01*
X179054760Y-86991376D01*
X179276074Y-86880164D01*
X179496851Y-86719976D01*
X179702963Y-86523867D01*
X179880284Y-86304891D01*
X179988520Y-86128516D01*
X180034602Y-86040385D01*
X180074400Y-85960201D01*
X180108374Y-85882756D01*
X180136986Y-85802842D01*
X180160696Y-85715252D01*
X180179964Y-85614780D01*
X180195252Y-85496216D01*
X180207019Y-85354354D01*
X180215726Y-85183987D01*
X180221835Y-84979906D01*
X180225805Y-84736905D01*
X180228097Y-84449776D01*
X180229172Y-84113311D01*
X180229490Y-83722304D01*
X180229510Y-83404056D01*
X180229510Y-81380713D01*
X180151651Y-81296702D01*
X180080191Y-81238448D01*
X179993072Y-81215026D01*
X179934935Y-81212690D01*
X179803720Y-81235232D01*
X179711520Y-81305141D01*
X179654797Y-81425848D01*
X179639731Y-81498797D01*
X179586200Y-81656741D01*
X179520790Y-81744503D01*
X179451725Y-81808219D01*
X179384406Y-81838399D01*
X179289594Y-81846618D01*
X179262844Y-81846634D01*
X179122184Y-81829781D01*
X179020060Y-81774324D01*
X178940164Y-81669650D01*
X178914746Y-81620081D01*
X178888482Y-81558716D01*
X178877609Y-81504358D01*
X178882546Y-81437796D01*
X178903712Y-81339820D01*
X178922475Y-81265375D01*
X179016062Y-81006181D01*
X179150881Y-80794887D01*
X179325294Y-80632778D01*
X179537663Y-80521141D01*
X179786348Y-80461261D01*
X179960393Y-80450690D01*
X180084084Y-80453973D01*
X180181787Y-80462714D01*
X180237439Y-80475252D01*
X180243875Y-80479998D01*
X180285532Y-80507670D01*
X180350854Y-80528823D01*
X180439770Y-80568848D01*
X180548925Y-80647198D01*
X180662720Y-80749778D01*
X180765553Y-80862495D01*
X180841825Y-80971253D01*
X180843138Y-80973588D01*
X180872467Y-81028293D01*
X180897658Y-81083063D01*
X180919028Y-81142959D01*
X180936888Y-81213044D01*
X180951553Y-81298381D01*
X180963336Y-81404031D01*
X180972551Y-81535059D01*
X180979511Y-81696526D01*
X180984531Y-81893496D01*
X180987923Y-82131029D01*
X180990002Y-82414190D01*
X180991080Y-82748041D01*
X180991473Y-83137643D01*
X180991510Y-83368617D01*
X180991510Y-85299168D01*
X181069368Y-85383179D01*
X181170983Y-85449893D01*
X181294411Y-85468758D01*
X181418621Y-85438794D01*
X181478255Y-85402249D01*
X181560815Y-85337308D01*
X181569850Y-83282937D01*
X181578885Y-81228565D01*
X181685347Y-81030864D01*
X181834022Y-80813424D01*
X182014852Y-80644404D01*
X182219743Y-80525080D01*
X182440600Y-80456728D01*
X182669328Y-80440624D01*
X182897831Y-80478045D01*
X183118016Y-80570267D01*
X183321787Y-80718567D01*
X183369910Y-80765265D01*
X183498143Y-80923861D01*
X183579360Y-81094729D01*
X183619642Y-81294098D01*
X183626760Y-81450531D01*
X183624446Y-81572629D01*
X183613748Y-81651025D01*
X183589029Y-81705459D01*
X183544651Y-81755670D01*
X183537710Y-81762375D01*
X183465781Y-81817621D01*
X183384440Y-81842676D01*
X183289650Y-81847690D01*
X183155044Y-81828704D01*
X183052463Y-81767339D01*
X182975111Y-81656991D01*
X182916191Y-81491054D01*
X182913966Y-81482565D01*
X182879289Y-81374734D01*
X182839778Y-81289631D01*
X182810984Y-81252378D01*
X182735266Y-81224027D01*
X182628544Y-81213770D01*
X182520894Y-81222330D01*
X182453262Y-81243770D01*
X182427629Y-81260014D01*
X182405652Y-81282372D01*
X182387050Y-81315523D01*
X182371542Y-81364146D01*
X182358850Y-81432920D01*
X182348692Y-81526524D01*
X182340788Y-81649637D01*
X182334858Y-81806939D01*
X182330623Y-82003107D01*
X182327801Y-82242822D01*
X182326113Y-82530761D01*
X182325279Y-82871605D01*
X182325018Y-83270032D01*
X182325010Y-83385633D01*
X182324909Y-83809022D01*
X182324314Y-84173900D01*
X182322781Y-84485258D01*
X182319868Y-84748084D01*
X182315131Y-84967368D01*
X182308128Y-85148100D01*
X182298417Y-85295270D01*
X182285554Y-85413865D01*
X182269097Y-85508877D01*
X182248603Y-85585295D01*
X182223630Y-85648108D01*
X182193735Y-85702306D01*
X182158475Y-85752878D01*
X182117408Y-85804814D01*
X182109506Y-85814519D01*
X181988064Y-85954181D01*
X181885047Y-86049245D01*
X181787614Y-86110384D01*
X181721760Y-86136802D01*
X181639867Y-86168364D01*
X181584623Y-86197864D01*
X181580472Y-86201276D01*
X181527313Y-86219465D01*
X181429663Y-86228486D01*
X181305773Y-86228957D01*
X181173892Y-86221497D01*
X181052273Y-86206725D01*
X180959165Y-86185260D01*
X180944330Y-86179706D01*
X180868775Y-86150941D01*
X180823630Y-86139089D01*
X180818944Y-86140018D01*
X180803046Y-86171952D01*
X180769455Y-86243837D01*
X180739812Y-86308565D01*
X180603297Y-86563199D01*
X180429249Y-86817689D01*
X180230508Y-87056609D01*
X180019913Y-87264535D01*
X179810305Y-87426043D01*
X179808823Y-87427005D01*
X179728303Y-87480334D01*
X179672096Y-87519667D01*
X179658010Y-87530965D01*
X179623109Y-87552013D01*
X179547271Y-87591015D01*
X179451635Y-87637275D01*
X179343739Y-87688653D01*
X179252358Y-87733060D01*
X179202662Y-87758103D01*
X179092900Y-87797430D01*
X178933025Y-87829781D01*
X178736103Y-87854553D01*
X178515201Y-87871139D01*
X178283384Y-87878936D01*
X178053720Y-87877338D01*
X177839273Y-87865740D01*
X177653112Y-87843538D01*
X177594250Y-87832563D01*
X177249333Y-87728664D01*
X176916277Y-87567715D01*
X176602624Y-87356021D01*
X176315920Y-87099887D01*
X176063707Y-86805615D01*
X175853530Y-86479512D01*
X175765620Y-86304431D01*
X175679043Y-86086038D01*
X175618495Y-85861086D01*
X175581121Y-85613750D01*
X175564067Y-85328209D01*
X175562259Y-85177309D01*
X175570245Y-84905781D01*
G36*
X179590200Y-79584311D02*
G01*
X179628472Y-79468257D01*
X179736587Y-79242326D01*
X179875989Y-79062200D01*
X180058560Y-78913224D01*
X180099988Y-78886687D01*
X180167131Y-78852258D01*
X180246048Y-78829360D01*
X180353044Y-78814924D01*
X180504428Y-78805880D01*
X180535856Y-78804654D01*
X180739261Y-78802674D01*
X180896807Y-78816708D01*
X181025032Y-78850975D01*
X181140471Y-78909693D01*
X181245510Y-78985655D01*
X181343225Y-79066463D01*
X181411164Y-79133602D01*
X181466852Y-79208205D01*
X181527815Y-79311406D01*
X181552064Y-79355315D01*
X181587022Y-79422996D01*
X181611495Y-79485905D01*
X181627671Y-79557774D01*
X181637736Y-79652334D01*
X181643879Y-79783314D01*
X181648167Y-79958565D01*
X181649489Y-80125481D01*
X181646816Y-80273962D01*
X181640673Y-80390263D01*
X181631585Y-80460637D01*
X181628635Y-80470118D01*
X181552847Y-80573647D01*
X181439116Y-80643093D01*
X181305306Y-80674673D01*
X181169280Y-80664601D01*
X181048904Y-80609092D01*
X181032967Y-80596327D01*
X180994948Y-80560758D01*
X180968924Y-80522884D01*
X180951845Y-80469771D01*
X180940663Y-80388482D01*
X180932326Y-80266081D01*
X180926312Y-80143889D01*
X180912192Y-79928687D01*
X180890001Y-79769081D01*
X180855542Y-79657284D01*
X180804615Y-79585509D01*
X180733023Y-79545972D01*
X180636567Y-79530886D01*
X180595279Y-79529940D01*
X180475293Y-79556939D01*
X180382204Y-79628826D01*
X180330582Y-79731939D01*
X180324760Y-79783614D01*
X180306858Y-79883153D01*
X180269210Y-79967620D01*
X180183076Y-80078248D01*
X180090264Y-80139160D01*
X179969439Y-80162425D01*
X179922259Y-80163884D01*
X179820420Y-80160251D01*
X179754436Y-80139497D01*
X179696846Y-80089324D01*
X179660321Y-80046581D01*
X179585415Y-79915865D01*
X179562163Y-79763993D01*
X179590200Y-79584311D01*
G37*
X179590200Y-79584311D02*
X179628472Y-79468257D01*
X179736587Y-79242326D01*
X179875989Y-79062200D01*
X180058560Y-78913224D01*
X180099988Y-78886687D01*
X180167131Y-78852258D01*
X180246048Y-78829360D01*
X180353044Y-78814924D01*
X180504428Y-78805880D01*
X180535856Y-78804654D01*
X180739261Y-78802674D01*
X180896807Y-78816708D01*
X181025032Y-78850975D01*
X181140471Y-78909693D01*
X181245510Y-78985655D01*
X181343225Y-79066463D01*
X181411164Y-79133602D01*
X181466852Y-79208205D01*
X181527815Y-79311406D01*
X181552064Y-79355315D01*
X181587022Y-79422996D01*
X181611495Y-79485905D01*
X181627671Y-79557774D01*
X181637736Y-79652334D01*
X181643879Y-79783314D01*
X181648167Y-79958565D01*
X181649489Y-80125481D01*
X181646816Y-80273962D01*
X181640673Y-80390263D01*
X181631585Y-80460637D01*
X181628635Y-80470118D01*
X181552847Y-80573647D01*
X181439116Y-80643093D01*
X181305306Y-80674673D01*
X181169280Y-80664601D01*
X181048904Y-80609092D01*
X181032967Y-80596327D01*
X180994948Y-80560758D01*
X180968924Y-80522884D01*
X180951845Y-80469771D01*
X180940663Y-80388482D01*
X180932326Y-80266081D01*
X180926312Y-80143889D01*
X180912192Y-79928687D01*
X180890001Y-79769081D01*
X180855542Y-79657284D01*
X180804615Y-79585509D01*
X180733023Y-79545972D01*
X180636567Y-79530886D01*
X180595279Y-79529940D01*
X180475293Y-79556939D01*
X180382204Y-79628826D01*
X180330582Y-79731939D01*
X180324760Y-79783614D01*
X180306858Y-79883153D01*
X180269210Y-79967620D01*
X180183076Y-80078248D01*
X180090264Y-80139160D01*
X179969439Y-80162425D01*
X179922259Y-80163884D01*
X179820420Y-80160251D01*
X179754436Y-80139497D01*
X179696846Y-80089324D01*
X179660321Y-80046581D01*
X179585415Y-79915865D01*
X179562163Y-79763993D01*
X179590200Y-79584311D01*
D10*
X193998100Y-23917760D02*
X193998100Y-28917760D01*
X193998100Y-28917760D02*
X181998100Y-28917760D01*
X181998100Y-28917760D02*
X181998100Y-23917760D01*
X193998100Y-19917760D02*
X193998100Y-15917760D01*
X193998100Y-15917760D02*
X181998100Y-15917760D01*
X181998100Y-15917760D02*
X181998100Y-19917760D01*
D15*
X185498100Y-29417760D02*
X185498100Y-29417760D01*
X185298100Y-29417760D02*
X185298100Y-29417760D01*
X185298100Y-29417760D02*
G75*
G03X185498100Y-29417760I100000J0D01*
G01*
X185498100Y-29417760D02*
G75*
G03X185298100Y-29417760I-100000J0D01*
G01*
D16*
X194222100Y-36374720D02*
X181022100Y-36374720D01*
X181022100Y-36374720D02*
X181022100Y-27354720D01*
D10*
X181022100Y-18494720D02*
X181022100Y-18374720D01*
D16*
X181022100Y-18374720D02*
X181022100Y-25154720D01*
D10*
X181022100Y-18384720D02*
X181022100Y-18374720D01*
D16*
X181022100Y-18374720D02*
X194222100Y-18374720D01*
X194222100Y-18374720D02*
X194222100Y-25154720D01*
D10*
X194222100Y-27424720D02*
X194222100Y-27354720D01*
D16*
X194222100Y-27354720D02*
X194222100Y-36374720D01*
X194692100Y-34374720D02*
X194692100Y-35904720D01*
X204741020Y-40623360D02*
X204741020Y-41393360D01*
X204741020Y-48703360D02*
X204741020Y-47933360D01*
X203371020Y-41393360D02*
X203371020Y-47933360D01*
X206111020Y-41393360D02*
X203371020Y-41393360D01*
X206111020Y-47933360D02*
X206111020Y-41393360D01*
X203371020Y-47933360D02*
X206111020Y-47933360D01*
X160911482Y-21553844D02*
G75*
G02X161594800Y-21408600I683318J-1534756D01*
G01*
X160059374Y-23771642D02*
G75*
G02X160059800Y-22404600I1535426J683042D01*
G01*
X162277842Y-24624026D02*
G75*
G02X160910800Y-24623600I-683042J1535426D01*
G01*
X163130226Y-22405558D02*
G75*
G02X163129800Y-23772600I-1535426J-683042D01*
G01*
X161565995Y-21408347D02*
G75*
G02X162278800Y-21553600I28805J-1680253D01*
G01*
X158194800Y-23088600D02*
G75*
G03X158194800Y-23088600I-1680000J0D01*
G01*
X164194800Y-18988600D02*
X153914800Y-18988600D01*
X164194800Y-20488600D02*
X153914800Y-20488600D01*
X164194800Y-25389600D02*
X153914800Y-25389600D01*
X164194800Y-28349600D02*
X153914800Y-28349600D01*
X164194800Y-18428600D02*
X153914800Y-18428600D01*
X164194800Y-28349600D02*
X164194800Y-18428600D01*
X153914800Y-28349600D02*
X153914800Y-18428600D01*
X155239800Y-24157600D02*
X155286800Y-24111600D01*
X157548800Y-21849600D02*
X157583800Y-21814600D01*
X155444800Y-24363600D02*
X155479800Y-24327600D01*
X157741800Y-22065600D02*
X157788800Y-22019600D01*
X164434800Y-18928600D02*
X164434800Y-18188600D01*
X164434800Y-18188600D02*
X163934800Y-18188600D01*
X192731080Y-38907260D02*
X194061080Y-38907260D01*
X192731080Y-40237260D02*
X192731080Y-38907260D01*
X192731080Y-41507260D02*
X195391080Y-41507260D01*
X195391080Y-41507260D02*
X195391080Y-49187260D01*
X192731080Y-41507260D02*
X192731080Y-49187260D01*
X192731080Y-49187260D02*
X195391080Y-49187260D01*
D17*
X186618880Y-47348140D02*
X186618880Y-41201340D01*
X176814480Y-41201340D02*
X176814480Y-43969940D01*
X176814480Y-43969940D02*
X176814480Y-44579540D01*
X176814480Y-44579540D02*
X176814480Y-46789340D01*
X176814480Y-43969940D02*
G75*
G02X176814480Y-44579540I0J-304800D01*
G01*
D16*
X199235000Y-57838400D02*
X199235000Y-59168400D01*
X197905000Y-57838400D02*
X199235000Y-57838400D01*
X196635000Y-57838400D02*
X196635000Y-60498400D01*
X196635000Y-60498400D02*
X188955000Y-60498400D01*
X196635000Y-57838400D02*
X188955000Y-57838400D01*
X188955000Y-57838400D02*
X188955000Y-60498400D01*
X199235000Y-51838400D02*
X199235000Y-53168400D01*
X197905000Y-51838400D02*
X199235000Y-51838400D01*
X196635000Y-51838400D02*
X196635000Y-54498400D01*
X196635000Y-54498400D02*
X188955000Y-54498400D01*
X196635000Y-51838400D02*
X188955000Y-51838400D01*
X188955000Y-51838400D02*
X188955000Y-54498400D01*
X189923280Y-39747140D02*
X189923280Y-48987140D01*
X187683280Y-39747140D02*
X187683280Y-48987140D01*
X189923280Y-39747140D02*
X189468280Y-39747140D01*
X188138280Y-39747140D02*
X187683280Y-39747140D01*
X189923280Y-48987140D02*
X189468280Y-48987140D01*
X188138280Y-48987140D02*
X187683280Y-48987140D01*
X192578000Y-78672000D02*
X192278000Y-79272000D01*
X191978000Y-78672000D02*
X192578000Y-78672000D01*
X192278000Y-79272000D02*
X191978000Y-78672000D01*
X202528000Y-82372000D02*
X202028000Y-82372000D01*
X202528000Y-87872000D02*
X202528000Y-82372000D01*
X202028000Y-87872000D02*
X202528000Y-87872000D01*
X202028000Y-82372000D02*
X202028000Y-87872000D01*
X200028000Y-82372000D02*
X199528000Y-82372000D01*
X200028000Y-87872000D02*
X200028000Y-82372000D01*
X199528000Y-87872000D02*
X200028000Y-87872000D01*
X199528000Y-82372000D02*
X199528000Y-87872000D01*
X197528000Y-82372000D02*
X197028000Y-82372000D01*
X197528000Y-87872000D02*
X197528000Y-82372000D01*
X197028000Y-87872000D02*
X197528000Y-87872000D01*
X197028000Y-82372000D02*
X197028000Y-87872000D01*
X195028000Y-82372000D02*
X194528000Y-82372000D01*
X195028000Y-87872000D02*
X195028000Y-82372000D01*
X194528000Y-87872000D02*
X195028000Y-87872000D01*
X194528000Y-82372000D02*
X194528000Y-87872000D01*
X192528000Y-82372000D02*
X192028000Y-82372000D01*
X192528000Y-87872000D02*
X192528000Y-82372000D01*
X192028000Y-87872000D02*
X192528000Y-87872000D01*
X192028000Y-82372000D02*
X192028000Y-87872000D01*
X203418000Y-76762000D02*
X203418000Y-81262000D01*
X204838000Y-76762000D02*
X203418000Y-76762000D01*
X204838000Y-88482000D02*
X204838000Y-76762000D01*
X197278000Y-88482000D02*
X204838000Y-88482000D01*
X191138000Y-76762000D02*
X191138000Y-81262000D01*
X189718000Y-76762000D02*
X191138000Y-76762000D01*
X189718000Y-88482000D02*
X189718000Y-76762000D01*
X197278000Y-88482000D02*
X189718000Y-88482000D01*
X199235000Y-71838400D02*
X199235000Y-73168400D01*
X197905000Y-71838400D02*
X199235000Y-71838400D01*
X196635000Y-71838400D02*
X196635000Y-74498400D01*
X196635000Y-74498400D02*
X188955000Y-74498400D01*
X196635000Y-71838400D02*
X188955000Y-71838400D01*
X188955000Y-71838400D02*
X188955000Y-74498400D01*
X199235000Y-65838400D02*
X199235000Y-67168400D01*
X197905000Y-65838400D02*
X199235000Y-65838400D01*
X196635000Y-65838400D02*
X196635000Y-68498400D01*
X196635000Y-68498400D02*
X188955000Y-68498400D01*
X196635000Y-65838400D02*
X188955000Y-65838400D01*
X188955000Y-65838400D02*
X188955000Y-68498400D01*
X170385000Y-25087000D02*
X170085000Y-24487000D01*
X169785000Y-25087000D02*
X170385000Y-25087000D01*
X170085000Y-24487000D02*
X169785000Y-25087000D01*
X175235000Y-22447000D02*
X175395000Y-22447000D01*
X177585000Y-21397000D02*
X177265000Y-21397000D01*
X173745000Y-22427000D02*
X173905000Y-22427000D01*
X175405000Y-21397000D02*
X175085000Y-21397000D01*
X175085000Y-21397000D02*
X174765000Y-21397000D01*
X172265000Y-22407000D02*
X172425000Y-22407000D01*
X172905000Y-21397000D02*
X172585000Y-21397000D01*
X172585000Y-21397000D02*
X172265000Y-21397000D01*
X170785000Y-22407000D02*
X170965000Y-22407000D01*
X170405000Y-21397000D02*
X170085000Y-21397000D01*
X170085000Y-21397000D02*
X169765000Y-21397000D01*
X168695000Y-21397000D02*
X177645000Y-21397000D01*
X176995000Y-18297000D02*
X176985000Y-22367000D01*
X169195000Y-22317000D02*
X168555000Y-22317000D01*
X169225000Y-18317000D02*
X169225000Y-22387000D01*
X176985000Y-24527000D02*
X176985000Y-22327000D01*
X177635000Y-24567000D02*
X176985000Y-24567000D01*
X177645000Y-18297000D02*
X177655000Y-24567000D01*
X168525000Y-18297000D02*
X177645000Y-18297000D01*
X168535000Y-24587000D02*
X168535000Y-18297000D01*
X169245000Y-24597000D02*
X168535000Y-24597000D01*
X169245000Y-22347000D02*
X169245000Y-24547000D01*
X199677020Y-40623360D02*
X199677020Y-41393360D01*
X199677020Y-48703360D02*
X199677020Y-47933360D01*
X198307020Y-41393360D02*
X198307020Y-47933360D01*
X201047020Y-41393360D02*
X198307020Y-41393360D01*
X201047020Y-47933360D02*
X201047020Y-41393360D01*
X198307020Y-47933360D02*
X201047020Y-47933360D01*
X178516280Y-53577360D02*
X178516280Y-54347360D01*
X178516280Y-61657360D02*
X178516280Y-60887360D01*
X177146280Y-54347360D02*
X177146280Y-60887360D01*
X179886280Y-54347360D02*
X177146280Y-54347360D01*
X179886280Y-60887360D02*
X179886280Y-54347360D01*
X177146280Y-60887360D02*
X179886280Y-60887360D01*
X183088280Y-53450360D02*
X183088280Y-54220360D01*
X183088280Y-61530360D02*
X183088280Y-60760360D01*
X181718280Y-54220360D02*
X181718280Y-60760360D01*
X184458280Y-54220360D02*
X181718280Y-54220360D01*
X184458280Y-60760360D02*
X184458280Y-54220360D01*
X181718280Y-60760360D02*
X184458280Y-60760360D01*
X178574700Y-76247120D02*
X178574700Y-75477120D01*
X178574700Y-68167120D02*
X178574700Y-68937120D01*
X179944700Y-75477120D02*
X179944700Y-68937120D01*
X177204700Y-75477120D02*
X179944700Y-75477120D01*
X177204700Y-68937120D02*
X177204700Y-75477120D01*
X179944700Y-68937120D02*
X177204700Y-68937120D01*
X182654900Y-66533720D02*
X183984900Y-66533720D01*
X182654900Y-67863720D02*
X182654900Y-66533720D01*
X182654900Y-69133720D02*
X185314900Y-69133720D01*
X185314900Y-69133720D02*
X185314900Y-76813720D01*
X182654900Y-69133720D02*
X182654900Y-76813720D01*
X182654900Y-76813720D02*
X185314900Y-76813720D01*
D15*
X157198791Y-77939697D02*
X158413077Y-77939697D01*
X158555934Y-77868268D01*
X158627362Y-77796840D01*
X158698791Y-77653982D01*
X158698791Y-77368268D01*
X158627362Y-77225411D01*
X158555934Y-77153982D01*
X158413077Y-77082554D01*
X157198791Y-77082554D01*
X158698791Y-75582554D02*
X158698791Y-76439697D01*
X158698791Y-76011125D02*
X157198791Y-76011125D01*
X157413077Y-76153982D01*
X157555934Y-76296840D01*
X157627362Y-76439697D01*
X158774981Y-73089697D02*
X156774981Y-73089697D01*
X157727362Y-73089697D02*
X157727362Y-71946840D01*
X158774981Y-71946840D02*
X156774981Y-71946840D01*
X158679743Y-70232554D02*
X158774981Y-70423030D01*
X158774981Y-70803982D01*
X158679743Y-70994459D01*
X158489267Y-71089697D01*
X157727362Y-71089697D01*
X157536886Y-70994459D01*
X157441648Y-70803982D01*
X157441648Y-70423030D01*
X157536886Y-70232554D01*
X157727362Y-70137316D01*
X157917839Y-70137316D01*
X158108315Y-71089697D01*
X158774981Y-68994459D02*
X158679743Y-69184935D01*
X158489267Y-69280173D01*
X156774981Y-69280173D01*
X157441648Y-68518268D02*
X157441648Y-67756363D01*
X156774981Y-68232554D02*
X158489267Y-68232554D01*
X158679743Y-68137316D01*
X158774981Y-67946840D01*
X158774981Y-67756363D01*
X158679743Y-66327792D02*
X158774981Y-66518268D01*
X158774981Y-66899220D01*
X158679743Y-67089697D01*
X158489267Y-67184935D01*
X157727362Y-67184935D01*
X157536886Y-67089697D01*
X157441648Y-66899220D01*
X157441648Y-66518268D01*
X157536886Y-66327792D01*
X157727362Y-66232554D01*
X157917839Y-66232554D01*
X158108315Y-67184935D01*
X158679743Y-64518268D02*
X158774981Y-64708744D01*
X158774981Y-65089697D01*
X158679743Y-65280173D01*
X158584505Y-65375411D01*
X158394029Y-65470649D01*
X157822600Y-65470649D01*
X157632124Y-65375411D01*
X157536886Y-65280173D01*
X157441648Y-65089697D01*
X157441648Y-64708744D01*
X157536886Y-64518268D01*
X158965458Y-64137316D02*
X158965458Y-62613506D01*
X156774981Y-62327792D02*
X158774981Y-61851601D01*
X157346410Y-61470649D01*
X158774981Y-61089697D01*
X156774981Y-60613506D01*
X158774981Y-59851601D02*
X156774981Y-59851601D01*
X157727362Y-58232554D02*
X157727362Y-58899220D01*
X158774981Y-58899220D02*
X156774981Y-58899220D01*
X156774981Y-57946840D01*
X158774981Y-57184935D02*
X156774981Y-57184935D01*
X158965458Y-56708744D02*
X158965458Y-55184935D01*
X158774981Y-53756363D02*
X158774981Y-54708744D01*
X156774981Y-54708744D01*
X158774981Y-52803982D02*
X158679743Y-52994459D01*
X158584505Y-53089697D01*
X158394029Y-53184935D01*
X157822600Y-53184935D01*
X157632124Y-53089697D01*
X157536886Y-52994459D01*
X157441648Y-52803982D01*
X157441648Y-52518268D01*
X157536886Y-52327792D01*
X157632124Y-52232554D01*
X157822600Y-52137316D01*
X158394029Y-52137316D01*
X158584505Y-52232554D01*
X158679743Y-52327792D01*
X158774981Y-52518268D01*
X158774981Y-52803982D01*
X158774981Y-50137316D02*
X157822600Y-50803982D01*
X158774981Y-51280173D02*
X156774981Y-51280173D01*
X156774981Y-50518268D01*
X156870220Y-50327792D01*
X156965458Y-50232554D01*
X157155934Y-50137316D01*
X157441648Y-50137316D01*
X157632124Y-50232554D01*
X157727362Y-50327792D01*
X157822600Y-50518268D01*
X157822600Y-51280173D01*
X158774981Y-48423030D02*
X157727362Y-48423030D01*
X157536886Y-48518268D01*
X157441648Y-48708744D01*
X157441648Y-49089697D01*
X157536886Y-49280173D01*
X158679743Y-48423030D02*
X158774981Y-48613506D01*
X158774981Y-49089697D01*
X158679743Y-49280173D01*
X158489267Y-49375411D01*
X158298791Y-49375411D01*
X158108315Y-49280173D01*
X158013077Y-49089697D01*
X158013077Y-48613506D01*
X157917839Y-48423030D01*
X158965458Y-47946840D02*
X158965458Y-46423030D01*
X156774981Y-46137316D02*
X156774981Y-44899220D01*
X157536886Y-45565887D01*
X157536886Y-45280173D01*
X157632124Y-45089697D01*
X157727362Y-44994459D01*
X157917839Y-44899220D01*
X158394029Y-44899220D01*
X158584505Y-44994459D01*
X158679743Y-45089697D01*
X158774981Y-45280173D01*
X158774981Y-45851601D01*
X158679743Y-46042078D01*
X158584505Y-46137316D01*
X156965458Y-44137316D02*
X156870220Y-44042078D01*
X156774981Y-43851601D01*
X156774981Y-43375411D01*
X156870220Y-43184935D01*
X156965458Y-43089697D01*
X157155934Y-42994459D01*
X157346410Y-42994459D01*
X157632124Y-43089697D01*
X158774981Y-44232554D01*
X158774981Y-42994459D01*
X159536886Y-41565887D02*
X159441648Y-41661125D01*
X159155934Y-41851601D01*
X158965458Y-41946840D01*
X158679743Y-42042078D01*
X158203553Y-42137316D01*
X157822600Y-42137316D01*
X157346410Y-42042078D01*
X157060696Y-41946840D01*
X156870220Y-41851601D01*
X156584505Y-41661125D01*
X156489267Y-41565887D01*
X156774981Y-41089697D02*
X158774981Y-40423030D01*
X156774981Y-39756363D01*
X156965458Y-39184935D02*
X156870220Y-39089697D01*
X156774981Y-38899220D01*
X156774981Y-38423030D01*
X156870220Y-38232554D01*
X156965458Y-38137316D01*
X157155934Y-38042078D01*
X157346410Y-38042078D01*
X157632124Y-38137316D01*
X158774981Y-39280173D01*
X158774981Y-38042078D01*
X159536886Y-37375411D02*
X159441648Y-37280173D01*
X159155934Y-37089697D01*
X158965458Y-36994459D01*
X158679743Y-36899220D01*
X158203553Y-36803982D01*
X157822600Y-36803982D01*
X157346410Y-36899220D01*
X157060696Y-36994459D01*
X156870220Y-37089697D01*
X156584505Y-37280173D01*
X156489267Y-37375411D01*
D11*
X197038696Y-22271740D02*
X197038696Y-22986026D01*
X196991077Y-23128883D01*
X196895839Y-23224121D01*
X196752981Y-23271740D01*
X196657743Y-23271740D01*
X198038696Y-23271740D02*
X197467267Y-23271740D01*
X197752981Y-23271740D02*
X197752981Y-22271740D01*
X197657743Y-22414598D01*
X197562505Y-22509836D01*
X197467267Y-22557455D01*
X198419648Y-22366979D02*
X198467267Y-22319360D01*
X198562505Y-22271740D01*
X198800600Y-22271740D01*
X198895839Y-22319360D01*
X198943458Y-22366979D01*
X198991077Y-22462217D01*
X198991077Y-22557455D01*
X198943458Y-22700312D01*
X198372029Y-23271740D01*
X198991077Y-23271740D01*
X197319710Y-24986240D02*
X196986377Y-24510050D01*
X196748281Y-24986240D02*
X196748281Y-23986240D01*
X197129234Y-23986240D01*
X197224472Y-24033860D01*
X197272091Y-24081479D01*
X197319710Y-24176717D01*
X197319710Y-24319574D01*
X197272091Y-24414812D01*
X197224472Y-24462431D01*
X197129234Y-24510050D01*
X196748281Y-24510050D01*
X198033996Y-23986240D02*
X198033996Y-24700526D01*
X197986377Y-24843383D01*
X197891139Y-24938621D01*
X197748281Y-24986240D01*
X197653043Y-24986240D01*
X199033996Y-24986240D02*
X198462567Y-24986240D01*
X198748281Y-24986240D02*
X198748281Y-23986240D01*
X198653043Y-24129098D01*
X198557805Y-24224336D01*
X198462567Y-24271955D01*
X199414948Y-24081479D02*
X199462567Y-24033860D01*
X199557805Y-23986240D01*
X199795900Y-23986240D01*
X199891139Y-24033860D01*
X199938758Y-24081479D01*
X199986377Y-24176717D01*
X199986377Y-24271955D01*
X199938758Y-24414812D01*
X199367329Y-24986240D01*
X199986377Y-24986240D01*
X195816956Y-32800040D02*
X195816956Y-33514326D01*
X195769337Y-33657183D01*
X195674099Y-33752421D01*
X195531241Y-33800040D01*
X195436003Y-33800040D01*
X196816956Y-33800040D02*
X196245527Y-33800040D01*
X196531241Y-33800040D02*
X196531241Y-32800040D01*
X196436003Y-32942898D01*
X196340765Y-33038136D01*
X196245527Y-33085755D01*
X197769337Y-33800040D02*
X197197908Y-33800040D01*
X197483622Y-33800040D02*
X197483622Y-32800040D01*
X197388384Y-32942898D01*
X197293146Y-33038136D01*
X197197908Y-33085755D01*
X207500480Y-46925526D02*
X207024290Y-47258860D01*
X207500480Y-47496955D02*
X206500480Y-47496955D01*
X206500480Y-47116002D01*
X206548100Y-47020764D01*
X206595719Y-46973145D01*
X206690957Y-46925526D01*
X206833814Y-46925526D01*
X206929052Y-46973145D01*
X206976671Y-47020764D01*
X207024290Y-47116002D01*
X207024290Y-47496955D01*
X206500480Y-46020764D02*
X206500480Y-46496955D01*
X206976671Y-46544574D01*
X206929052Y-46496955D01*
X206881433Y-46401717D01*
X206881433Y-46163621D01*
X206929052Y-46068383D01*
X206976671Y-46020764D01*
X207071909Y-45973145D01*
X207310004Y-45973145D01*
X207405242Y-46020764D01*
X207452861Y-46068383D01*
X207500480Y-46163621D01*
X207500480Y-46401717D01*
X207452861Y-46496955D01*
X207405242Y-46544574D01*
X206533500Y-44646054D02*
X206533500Y-44027006D01*
X206914453Y-44360340D01*
X206914453Y-44217482D01*
X206962072Y-44122244D01*
X207009691Y-44074625D01*
X207104929Y-44027006D01*
X207343024Y-44027006D01*
X207438262Y-44074625D01*
X207485881Y-44122244D01*
X207533500Y-44217482D01*
X207533500Y-44503197D01*
X207485881Y-44598435D01*
X207438262Y-44646054D01*
X206533500Y-43693673D02*
X206533500Y-43074625D01*
X206914453Y-43407959D01*
X206914453Y-43265101D01*
X206962072Y-43169863D01*
X207009691Y-43122244D01*
X207104929Y-43074625D01*
X207343024Y-43074625D01*
X207438262Y-43122244D01*
X207485881Y-43169863D01*
X207533500Y-43265101D01*
X207533500Y-43550816D01*
X207485881Y-43646054D01*
X207438262Y-43693673D01*
X206533500Y-42455578D02*
X206533500Y-42360340D01*
X206581120Y-42265101D01*
X206628739Y-42217482D01*
X206723977Y-42169863D01*
X206914453Y-42122244D01*
X207152548Y-42122244D01*
X207343024Y-42169863D01*
X207438262Y-42217482D01*
X207485881Y-42265101D01*
X207533500Y-42360340D01*
X207533500Y-42455578D01*
X207485881Y-42550816D01*
X207438262Y-42598435D01*
X207343024Y-42646054D01*
X207152548Y-42693673D01*
X206914453Y-42693673D01*
X206723977Y-42646054D01*
X206628739Y-42598435D01*
X206581120Y-42550816D01*
X206533500Y-42455578D01*
X152147946Y-19167860D02*
X152147946Y-19882146D01*
X152100327Y-20025003D01*
X152005089Y-20120241D01*
X151862232Y-20167860D01*
X151766994Y-20167860D01*
X152576518Y-19263099D02*
X152624137Y-19215480D01*
X152719375Y-19167860D01*
X152957470Y-19167860D01*
X153052708Y-19215480D01*
X153100327Y-19263099D01*
X153147946Y-19358337D01*
X153147946Y-19453575D01*
X153100327Y-19596432D01*
X152528899Y-20167860D01*
X153147946Y-20167860D01*
X193322676Y-49625000D02*
X193322676Y-50339286D01*
X193275057Y-50482143D01*
X193179819Y-50577381D01*
X193036961Y-50625000D01*
X192941723Y-50625000D01*
X194322676Y-50625000D02*
X193751247Y-50625000D01*
X194036961Y-50625000D02*
X194036961Y-49625000D01*
X193941723Y-49767858D01*
X193846485Y-49863096D01*
X193751247Y-49910715D01*
X194941723Y-49625000D02*
X195036961Y-49625000D01*
X195132200Y-49672620D01*
X195179819Y-49720239D01*
X195227438Y-49815477D01*
X195275057Y-50005953D01*
X195275057Y-50244048D01*
X195227438Y-50434524D01*
X195179819Y-50529762D01*
X195132200Y-50577381D01*
X195036961Y-50625000D01*
X194941723Y-50625000D01*
X194846485Y-50577381D01*
X194798866Y-50529762D01*
X194751247Y-50434524D01*
X194703628Y-50244048D01*
X194703628Y-50005953D01*
X194751247Y-49815477D01*
X194798866Y-49720239D01*
X194846485Y-49672620D01*
X194941723Y-49625000D01*
X181092860Y-46459044D02*
X181902384Y-46459044D01*
X181997622Y-46411425D01*
X182045241Y-46363806D01*
X182092860Y-46268568D01*
X182092860Y-46078092D01*
X182045241Y-45982854D01*
X181997622Y-45935235D01*
X181902384Y-45887616D01*
X181092860Y-45887616D01*
X181188099Y-45459044D02*
X181140480Y-45411425D01*
X181092860Y-45316187D01*
X181092860Y-45078092D01*
X181140480Y-44982854D01*
X181188099Y-44935235D01*
X181283337Y-44887616D01*
X181378575Y-44887616D01*
X181521432Y-44935235D01*
X182092860Y-45506663D01*
X182092860Y-44887616D01*
X176111946Y-38910520D02*
X176111946Y-37910520D01*
X176492899Y-37910520D01*
X176588137Y-37958140D01*
X176635756Y-38005759D01*
X176683375Y-38100997D01*
X176683375Y-38243854D01*
X176635756Y-38339092D01*
X176588137Y-38386711D01*
X176492899Y-38434330D01*
X176111946Y-38434330D01*
X177254803Y-38339092D02*
X177159565Y-38291473D01*
X177111946Y-38243854D01*
X177064327Y-38148616D01*
X177064327Y-38100997D01*
X177111946Y-38005759D01*
X177159565Y-37958140D01*
X177254803Y-37910520D01*
X177445280Y-37910520D01*
X177540518Y-37958140D01*
X177588137Y-38005759D01*
X177635756Y-38100997D01*
X177635756Y-38148616D01*
X177588137Y-38243854D01*
X177540518Y-38291473D01*
X177445280Y-38339092D01*
X177254803Y-38339092D01*
X177159565Y-38386711D01*
X177111946Y-38434330D01*
X177064327Y-38529568D01*
X177064327Y-38720044D01*
X177111946Y-38815282D01*
X177159565Y-38862901D01*
X177254803Y-38910520D01*
X177445280Y-38910520D01*
X177540518Y-38862901D01*
X177588137Y-38815282D01*
X177635756Y-38720044D01*
X177635756Y-38529568D01*
X177588137Y-38434330D01*
X177540518Y-38386711D01*
X177445280Y-38339092D01*
X178016708Y-38005759D02*
X178064327Y-37958140D01*
X178159565Y-37910520D01*
X178397660Y-37910520D01*
X178492899Y-37958140D01*
X178540518Y-38005759D01*
X178588137Y-38100997D01*
X178588137Y-38196235D01*
X178540518Y-38339092D01*
X177969089Y-38910520D01*
X178588137Y-38910520D01*
X179350041Y-38386711D02*
X179492899Y-38434330D01*
X179540518Y-38481949D01*
X179588137Y-38577187D01*
X179588137Y-38720044D01*
X179540518Y-38815282D01*
X179492899Y-38862901D01*
X179397660Y-38910520D01*
X179016708Y-38910520D01*
X179016708Y-37910520D01*
X179350041Y-37910520D01*
X179445280Y-37958140D01*
X179492899Y-38005759D01*
X179540518Y-38100997D01*
X179540518Y-38196235D01*
X179492899Y-38291473D01*
X179445280Y-38339092D01*
X179350041Y-38386711D01*
X179016708Y-38386711D01*
X179921470Y-37910520D02*
X180588137Y-37910520D01*
X180159565Y-38910520D01*
X181492899Y-38910520D02*
X180921470Y-38910520D01*
X181207184Y-38910520D02*
X181207184Y-37910520D01*
X181111946Y-38053378D01*
X181016708Y-38148616D01*
X180921470Y-38196235D01*
X182397660Y-37910520D02*
X181921470Y-37910520D01*
X181873851Y-38386711D01*
X181921470Y-38339092D01*
X182016708Y-38291473D01*
X182254803Y-38291473D01*
X182350041Y-38339092D01*
X182397660Y-38386711D01*
X182445280Y-38481949D01*
X182445280Y-38720044D01*
X182397660Y-38815282D01*
X182350041Y-38862901D01*
X182254803Y-38910520D01*
X182016708Y-38910520D01*
X181921470Y-38862901D01*
X181873851Y-38815282D01*
X182873851Y-38910520D02*
X182873851Y-37910520D01*
X183254803Y-37910520D01*
X183350041Y-37958140D01*
X183397660Y-38005759D01*
X183445280Y-38100997D01*
X183445280Y-38243854D01*
X183397660Y-38339092D01*
X183350041Y-38386711D01*
X183254803Y-38434330D01*
X182873851Y-38434330D01*
X183873851Y-38910520D02*
X183873851Y-37910520D01*
X184445280Y-38910520D01*
X184445280Y-37910520D01*
X184969089Y-38862901D02*
X184969089Y-38910520D01*
X184921470Y-39005759D01*
X184873851Y-39053378D01*
X185921470Y-38910520D02*
X185350041Y-38910520D01*
X185635756Y-38910520D02*
X185635756Y-37910520D01*
X185540518Y-38053378D01*
X185445280Y-38148616D01*
X185350041Y-38196235D01*
X186873851Y-38910520D02*
X186302422Y-38910520D01*
X186588137Y-38910520D02*
X186588137Y-37910520D01*
X186492899Y-38053378D01*
X186397660Y-38148616D01*
X186302422Y-38196235D01*
X187254803Y-38005759D02*
X187302422Y-37958140D01*
X187397660Y-37910520D01*
X187635756Y-37910520D01*
X187730994Y-37958140D01*
X187778613Y-38005759D01*
X187826232Y-38100997D01*
X187826232Y-38196235D01*
X187778613Y-38339092D01*
X187207184Y-38910520D01*
X187826232Y-38910520D01*
X199589140Y-62154393D02*
X200303426Y-62154393D01*
X200446283Y-62202012D01*
X200541521Y-62297250D01*
X200589140Y-62440107D01*
X200589140Y-62535345D01*
X200589140Y-61630583D02*
X200589140Y-61440107D01*
X200541521Y-61344869D01*
X200493902Y-61297250D01*
X200351045Y-61202012D01*
X200160569Y-61154393D01*
X199779617Y-61154393D01*
X199684379Y-61202012D01*
X199636760Y-61249631D01*
X199589140Y-61344869D01*
X199589140Y-61535345D01*
X199636760Y-61630583D01*
X199684379Y-61678202D01*
X199779617Y-61725821D01*
X200017712Y-61725821D01*
X200112950Y-61678202D01*
X200160569Y-61630583D01*
X200208188Y-61535345D01*
X200208188Y-61344869D01*
X200160569Y-61249631D01*
X200112950Y-61202012D01*
X200017712Y-61154393D01*
X199523100Y-56215873D02*
X200237386Y-56215873D01*
X200380243Y-56263492D01*
X200475481Y-56358730D01*
X200523100Y-56501587D01*
X200523100Y-56596825D01*
X199951672Y-55596825D02*
X199904053Y-55692063D01*
X199856434Y-55739682D01*
X199761196Y-55787301D01*
X199713577Y-55787301D01*
X199618339Y-55739682D01*
X199570720Y-55692063D01*
X199523100Y-55596825D01*
X199523100Y-55406349D01*
X199570720Y-55311111D01*
X199618339Y-55263492D01*
X199713577Y-55215873D01*
X199761196Y-55215873D01*
X199856434Y-55263492D01*
X199904053Y-55311111D01*
X199951672Y-55406349D01*
X199951672Y-55596825D01*
X199999291Y-55692063D01*
X200046910Y-55739682D01*
X200142148Y-55787301D01*
X200332624Y-55787301D01*
X200427862Y-55739682D01*
X200475481Y-55692063D01*
X200523100Y-55596825D01*
X200523100Y-55406349D01*
X200475481Y-55311111D01*
X200427862Y-55263492D01*
X200332624Y-55215873D01*
X200142148Y-55215873D01*
X200046910Y-55263492D01*
X199999291Y-55311111D01*
X199951672Y-55406349D01*
X181092860Y-43538044D02*
X181902384Y-43538044D01*
X181997622Y-43490425D01*
X182045241Y-43442806D01*
X182092860Y-43347568D01*
X182092860Y-43157092D01*
X182045241Y-43061854D01*
X181997622Y-43014235D01*
X181902384Y-42966616D01*
X181092860Y-42966616D01*
X181092860Y-42585663D02*
X181092860Y-41966616D01*
X181473813Y-42299949D01*
X181473813Y-42157092D01*
X181521432Y-42061854D01*
X181569051Y-42014235D01*
X181664289Y-41966616D01*
X181902384Y-41966616D01*
X181997622Y-42014235D01*
X182045241Y-42061854D01*
X182092860Y-42157092D01*
X182092860Y-42442806D01*
X182045241Y-42538044D01*
X181997622Y-42585663D01*
X186573660Y-45792825D02*
X186573660Y-46364254D01*
X186573660Y-46078540D02*
X185573660Y-46078540D01*
X185716518Y-46173778D01*
X185811756Y-46269016D01*
X185859375Y-46364254D01*
X191263542Y-47944066D02*
X191311161Y-47991685D01*
X191358780Y-48134542D01*
X191358780Y-48229780D01*
X191311161Y-48372638D01*
X191215923Y-48467876D01*
X191120685Y-48515495D01*
X190930209Y-48563114D01*
X190787352Y-48563114D01*
X190596876Y-48515495D01*
X190501638Y-48467876D01*
X190406400Y-48372638D01*
X190358780Y-48229780D01*
X190358780Y-48134542D01*
X190406400Y-47991685D01*
X190454019Y-47944066D01*
X191358780Y-46991685D02*
X191358780Y-47563114D01*
X191358780Y-47277400D02*
X190358780Y-47277400D01*
X190501638Y-47372638D01*
X190596876Y-47467876D01*
X190644495Y-47563114D01*
X191307980Y-45415959D02*
X191307980Y-45987387D01*
X191307980Y-45701673D02*
X190307980Y-45701673D01*
X190450838Y-45796911D01*
X190546076Y-45892149D01*
X190593695Y-45987387D01*
X190307980Y-44796911D02*
X190307980Y-44701673D01*
X190355600Y-44606435D01*
X190403219Y-44558816D01*
X190498457Y-44511197D01*
X190688933Y-44463578D01*
X190927028Y-44463578D01*
X191117504Y-44511197D01*
X191212742Y-44558816D01*
X191260361Y-44606435D01*
X191307980Y-44701673D01*
X191307980Y-44796911D01*
X191260361Y-44892149D01*
X191212742Y-44939768D01*
X191117504Y-44987387D01*
X190927028Y-45035006D01*
X190688933Y-45035006D01*
X190498457Y-44987387D01*
X190403219Y-44939768D01*
X190355600Y-44892149D01*
X190307980Y-44796911D01*
X190307980Y-43844530D02*
X190307980Y-43749292D01*
X190355600Y-43654054D01*
X190403219Y-43606435D01*
X190498457Y-43558816D01*
X190688933Y-43511197D01*
X190927028Y-43511197D01*
X191117504Y-43558816D01*
X191212742Y-43606435D01*
X191260361Y-43654054D01*
X191307980Y-43749292D01*
X191307980Y-43844530D01*
X191260361Y-43939768D01*
X191212742Y-43987387D01*
X191117504Y-44035006D01*
X190927028Y-44082625D01*
X190688933Y-44082625D01*
X190498457Y-44035006D01*
X190403219Y-43987387D01*
X190355600Y-43939768D01*
X190307980Y-43844530D01*
X190641314Y-43082625D02*
X191307980Y-43082625D01*
X190736552Y-43082625D02*
X190688933Y-43035006D01*
X190641314Y-42939768D01*
X190641314Y-42796911D01*
X190688933Y-42701673D01*
X190784171Y-42654054D01*
X191307980Y-42654054D01*
X190784171Y-41844530D02*
X190784171Y-42177863D01*
X191307980Y-42177863D02*
X190307980Y-42177863D01*
X190307980Y-41701673D01*
X205908660Y-86855893D02*
X206622946Y-86855893D01*
X206765803Y-86903512D01*
X206861041Y-86998750D01*
X206908660Y-87141607D01*
X206908660Y-87236845D01*
X206908660Y-85855893D02*
X206908660Y-86427321D01*
X206908660Y-86141607D02*
X205908660Y-86141607D01*
X206051518Y-86236845D01*
X206146756Y-86332083D01*
X206194375Y-86427321D01*
X199919340Y-75834833D02*
X200633626Y-75834833D01*
X200776483Y-75882452D01*
X200871721Y-75977690D01*
X200919340Y-76120547D01*
X200919340Y-76215785D01*
X199919340Y-75453880D02*
X199919340Y-74787214D01*
X200919340Y-75215785D01*
X199324980Y-70226513D02*
X200039266Y-70226513D01*
X200182123Y-70274132D01*
X200277361Y-70369370D01*
X200324980Y-70512227D01*
X200324980Y-70607465D01*
X199324980Y-69321751D02*
X199324980Y-69512227D01*
X199372600Y-69607465D01*
X199420219Y-69655084D01*
X199563076Y-69750322D01*
X199753552Y-69797941D01*
X200134504Y-69797941D01*
X200229742Y-69750322D01*
X200277361Y-69702703D01*
X200324980Y-69607465D01*
X200324980Y-69416989D01*
X200277361Y-69321751D01*
X200229742Y-69274132D01*
X200134504Y-69226513D01*
X199896409Y-69226513D01*
X199801171Y-69274132D01*
X199753552Y-69321751D01*
X199705933Y-69416989D01*
X199705933Y-69607465D01*
X199753552Y-69702703D01*
X199801171Y-69750322D01*
X199896409Y-69797941D01*
X169818726Y-25573740D02*
X169818726Y-26288026D01*
X169771107Y-26430883D01*
X169675869Y-26526121D01*
X169533012Y-26573740D01*
X169437774Y-26573740D01*
X170771107Y-25573740D02*
X170294917Y-25573740D01*
X170247298Y-26049931D01*
X170294917Y-26002312D01*
X170390155Y-25954693D01*
X170628250Y-25954693D01*
X170723488Y-26002312D01*
X170771107Y-26049931D01*
X170818726Y-26145169D01*
X170818726Y-26383264D01*
X170771107Y-26478502D01*
X170723488Y-26526121D01*
X170628250Y-26573740D01*
X170390155Y-26573740D01*
X170294917Y-26526121D01*
X170247298Y-26478502D01*
X202453500Y-47057606D02*
X201977310Y-47390940D01*
X202453500Y-47629035D02*
X201453500Y-47629035D01*
X201453500Y-47248082D01*
X201501120Y-47152844D01*
X201548739Y-47105225D01*
X201643977Y-47057606D01*
X201786834Y-47057606D01*
X201882072Y-47105225D01*
X201929691Y-47152844D01*
X201977310Y-47248082D01*
X201977310Y-47629035D01*
X201786834Y-46200463D02*
X202453500Y-46200463D01*
X201405881Y-46438559D02*
X202120167Y-46676654D01*
X202120167Y-46057606D01*
X201453500Y-44679074D02*
X201453500Y-44060026D01*
X201834453Y-44393360D01*
X201834453Y-44250502D01*
X201882072Y-44155264D01*
X201929691Y-44107645D01*
X202024929Y-44060026D01*
X202263024Y-44060026D01*
X202358262Y-44107645D01*
X202405881Y-44155264D01*
X202453500Y-44250502D01*
X202453500Y-44536217D01*
X202405881Y-44631455D01*
X202358262Y-44679074D01*
X201453500Y-43726693D02*
X201453500Y-43107645D01*
X201834453Y-43440979D01*
X201834453Y-43298121D01*
X201882072Y-43202883D01*
X201929691Y-43155264D01*
X202024929Y-43107645D01*
X202263024Y-43107645D01*
X202358262Y-43155264D01*
X202405881Y-43202883D01*
X202453500Y-43298121D01*
X202453500Y-43583836D01*
X202405881Y-43679074D01*
X202358262Y-43726693D01*
X201453500Y-42488598D02*
X201453500Y-42393360D01*
X201501120Y-42298121D01*
X201548739Y-42250502D01*
X201643977Y-42202883D01*
X201834453Y-42155264D01*
X202072548Y-42155264D01*
X202263024Y-42202883D01*
X202358262Y-42250502D01*
X202405881Y-42298121D01*
X202453500Y-42393360D01*
X202453500Y-42488598D01*
X202405881Y-42583836D01*
X202358262Y-42631455D01*
X202263024Y-42679074D01*
X202072548Y-42726693D01*
X201834453Y-42726693D01*
X201643977Y-42679074D01*
X201548739Y-42631455D01*
X201501120Y-42583836D01*
X201453500Y-42488598D01*
X181208940Y-59996366D02*
X180732750Y-60329700D01*
X181208940Y-60567795D02*
X180208940Y-60567795D01*
X180208940Y-60186842D01*
X180256560Y-60091604D01*
X180304179Y-60043985D01*
X180399417Y-59996366D01*
X180542274Y-59996366D01*
X180637512Y-60043985D01*
X180685131Y-60091604D01*
X180732750Y-60186842D01*
X180732750Y-60567795D01*
X180208940Y-59663033D02*
X180208940Y-59043985D01*
X180589893Y-59377319D01*
X180589893Y-59234461D01*
X180637512Y-59139223D01*
X180685131Y-59091604D01*
X180780369Y-59043985D01*
X181018464Y-59043985D01*
X181113702Y-59091604D01*
X181161321Y-59139223D01*
X181208940Y-59234461D01*
X181208940Y-59520176D01*
X181161321Y-59615414D01*
X181113702Y-59663033D01*
X180542274Y-57121656D02*
X181208940Y-57121656D01*
X180161321Y-57359751D02*
X180875607Y-57597846D01*
X180875607Y-56978799D01*
X181208940Y-56597846D02*
X180208940Y-56597846D01*
X180827988Y-56502608D02*
X181208940Y-56216894D01*
X180542274Y-56216894D02*
X180923226Y-56597846D01*
X180208940Y-55883560D02*
X180208940Y-55216894D01*
X181208940Y-55645465D01*
X185826660Y-59963346D02*
X185350470Y-60296680D01*
X185826660Y-60534775D02*
X184826660Y-60534775D01*
X184826660Y-60153822D01*
X184874280Y-60058584D01*
X184921899Y-60010965D01*
X185017137Y-59963346D01*
X185159994Y-59963346D01*
X185255232Y-60010965D01*
X185302851Y-60058584D01*
X185350470Y-60153822D01*
X185350470Y-60534775D01*
X184921899Y-59582394D02*
X184874280Y-59534775D01*
X184826660Y-59439537D01*
X184826660Y-59201441D01*
X184874280Y-59106203D01*
X184921899Y-59058584D01*
X185017137Y-59010965D01*
X185112375Y-59010965D01*
X185255232Y-59058584D01*
X185826660Y-59630013D01*
X185826660Y-59010965D01*
X185193014Y-56893056D02*
X185859680Y-56893056D01*
X184812061Y-57131151D02*
X185526347Y-57369246D01*
X185526347Y-56750199D01*
X185859680Y-56369246D02*
X184859680Y-56369246D01*
X185478728Y-56274008D02*
X185859680Y-55988294D01*
X185193014Y-55988294D02*
X185573966Y-56369246D01*
X184859680Y-55654960D02*
X184859680Y-54988294D01*
X185859680Y-55416865D01*
X181308000Y-74410866D02*
X180831810Y-74744200D01*
X181308000Y-74982295D02*
X180308000Y-74982295D01*
X180308000Y-74601342D01*
X180355620Y-74506104D01*
X180403239Y-74458485D01*
X180498477Y-74410866D01*
X180641334Y-74410866D01*
X180736572Y-74458485D01*
X180784191Y-74506104D01*
X180831810Y-74601342D01*
X180831810Y-74982295D01*
X181308000Y-73458485D02*
X181308000Y-74029914D01*
X181308000Y-73744200D02*
X180308000Y-73744200D01*
X180450858Y-73839438D01*
X180546096Y-73934676D01*
X180593715Y-74029914D01*
X181308000Y-71641578D02*
X181308000Y-72213006D01*
X181308000Y-71927292D02*
X180308000Y-71927292D01*
X180450858Y-72022530D01*
X180546096Y-72117768D01*
X180593715Y-72213006D01*
X180308000Y-71022530D02*
X180308000Y-70927292D01*
X180355620Y-70832054D01*
X180403239Y-70784435D01*
X180498477Y-70736816D01*
X180688953Y-70689197D01*
X180927048Y-70689197D01*
X181117524Y-70736816D01*
X181212762Y-70784435D01*
X181260381Y-70832054D01*
X181308000Y-70927292D01*
X181308000Y-71022530D01*
X181260381Y-71117768D01*
X181212762Y-71165387D01*
X181117524Y-71213006D01*
X180927048Y-71260625D01*
X180688953Y-71260625D01*
X180498477Y-71213006D01*
X180403239Y-71165387D01*
X180355620Y-71117768D01*
X180308000Y-71022530D01*
X181308000Y-70260625D02*
X180308000Y-70260625D01*
X180927048Y-70165387D02*
X181308000Y-69879673D01*
X180641334Y-69879673D02*
X181022286Y-70260625D01*
X183506786Y-77471020D02*
X183506786Y-78185306D01*
X183459167Y-78328163D01*
X183363929Y-78423401D01*
X183221072Y-78471020D01*
X183125834Y-78471020D01*
X184411548Y-77804354D02*
X184411548Y-78471020D01*
X184173453Y-77423401D02*
X183935358Y-78137687D01*
X184554405Y-78137687D01*
M02*
