G04 #@! TF.GenerationSoftware,KiCad,Pcbnew,5.1.5+dfsg1-2build2*
G04 #@! TF.CreationDate,2021-08-05T17:40:44+02:00*
G04 #@! TF.ProjectId,Airrohr_pcb,41697272-6f68-4725-9f70-63622e6b6963,rev?*
G04 #@! TF.SameCoordinates,Original*
G04 #@! TF.FileFunction,Copper,L2,Bot*
G04 #@! TF.FilePolarity,Positive*
%FSLAX46Y46*%
G04 Gerber Fmt 4.6, Leading zero omitted, Abs format (unit mm)*
G04 Created by KiCad (PCBNEW 5.1.5+dfsg1-2build2) date 2021-08-05 17:40:44*
%MOMM*%
%LPD*%
G04 APERTURE LIST*
%ADD10C,1.700000*%
%ADD11C,1.400000*%
%ADD12C,1.200000*%
%ADD13R,1.520000X1.520000*%
%ADD14C,1.520000*%
%ADD15O,1.600000X1.600000*%
%ADD16C,1.600000*%
%ADD17R,1.000000X0.500000*%
%ADD18C,1.900000*%
%ADD19R,2.200000X2.600000*%
%ADD20C,2.600000*%
%ADD21O,1.700000X1.700000*%
%ADD22R,1.700000X1.700000*%
%ADD23R,1.676400X1.676400*%
%ADD24C,1.676400*%
%ADD25O,1.700000X1.950000*%
%ADD26C,0.100000*%
%ADD27O,1.100000X1.700000*%
%ADD28C,0.800000*%
%ADD29C,0.500000*%
%ADD30C,0.250000*%
%ADD31C,0.254000*%
G04 APERTURE END LIST*
D10*
X146540220Y-48376840D03*
X146540220Y-45836840D03*
X146540220Y-43296840D03*
X146540220Y-40756840D03*
X169400220Y-40756840D03*
X169400220Y-43296840D03*
X146540220Y-81396840D03*
X146540220Y-76316840D03*
X146540220Y-78856840D03*
X146540220Y-58536840D03*
X146540220Y-61076840D03*
X146540220Y-66156840D03*
X146540220Y-63616840D03*
X169400220Y-45836840D03*
X146540220Y-68696840D03*
X146540220Y-73776840D03*
X146540220Y-71236840D03*
X146540220Y-55996840D03*
X146540220Y-50916840D03*
X146540220Y-53456840D03*
X146540220Y-83936840D03*
X169400220Y-48376840D03*
X169400220Y-50916840D03*
X169400220Y-53456840D03*
X169400220Y-55996840D03*
X169400220Y-58536840D03*
X169400220Y-61076840D03*
X169400220Y-63616840D03*
X169400220Y-66156840D03*
X169400220Y-68696840D03*
X169400220Y-71236840D03*
X169400220Y-73776840D03*
X169400220Y-76316840D03*
X169400220Y-78856840D03*
X169400220Y-81396840D03*
X169400220Y-83936840D03*
D11*
X185448100Y-26757760D03*
X186468100Y-24217760D03*
X187488100Y-26757760D03*
X188508100Y-24217760D03*
X189528100Y-26757760D03*
X190548100Y-24217760D03*
D12*
X193998100Y-21917760D03*
X181998100Y-21917760D03*
D13*
X190792100Y-35144720D03*
D14*
X189522100Y-32604720D03*
X188252100Y-35144720D03*
X186982100Y-32604720D03*
X185712100Y-35144720D03*
X184442100Y-32604720D03*
D15*
X204741020Y-39583360D03*
D16*
X204741020Y-49743360D03*
D17*
X157834800Y-23088600D03*
D18*
X159054800Y-23088600D03*
D19*
X161594800Y-23088600D03*
D20*
X156514800Y-23088600D03*
D21*
X194061080Y-47857260D03*
X194061080Y-45317260D03*
X194061080Y-42777260D03*
D22*
X194061080Y-40237260D03*
D23*
X177906680Y-48084740D03*
D24*
X180446680Y-48084740D03*
X182986680Y-48084740D03*
X185526680Y-48084740D03*
X185526680Y-40464740D03*
X182986680Y-40464740D03*
X180446680Y-40464740D03*
X177906680Y-40464740D03*
D21*
X190285000Y-59168400D03*
X192825000Y-59168400D03*
X195365000Y-59168400D03*
D22*
X197905000Y-59168400D03*
D21*
X190285000Y-53168400D03*
X192825000Y-53168400D03*
X195365000Y-53168400D03*
D22*
X197905000Y-53168400D03*
D16*
X188803280Y-46867140D03*
X188803280Y-41867140D03*
X188803280Y-40617140D03*
X188803280Y-48117140D03*
D25*
X202278000Y-80772000D03*
X199778000Y-80772000D03*
X197278000Y-80772000D03*
X194778000Y-80772000D03*
G04 #@! TA.AperFunction,ComponentPad*
D26*
G36*
X192902504Y-79798204D02*
G01*
X192926773Y-79801804D01*
X192950571Y-79807765D01*
X192973671Y-79816030D01*
X192995849Y-79826520D01*
X193016893Y-79839133D01*
X193036598Y-79853747D01*
X193054777Y-79870223D01*
X193071253Y-79888402D01*
X193085867Y-79908107D01*
X193098480Y-79929151D01*
X193108970Y-79951329D01*
X193117235Y-79974429D01*
X193123196Y-79998227D01*
X193126796Y-80022496D01*
X193128000Y-80047000D01*
X193128000Y-81497000D01*
X193126796Y-81521504D01*
X193123196Y-81545773D01*
X193117235Y-81569571D01*
X193108970Y-81592671D01*
X193098480Y-81614849D01*
X193085867Y-81635893D01*
X193071253Y-81655598D01*
X193054777Y-81673777D01*
X193036598Y-81690253D01*
X193016893Y-81704867D01*
X192995849Y-81717480D01*
X192973671Y-81727970D01*
X192950571Y-81736235D01*
X192926773Y-81742196D01*
X192902504Y-81745796D01*
X192878000Y-81747000D01*
X191678000Y-81747000D01*
X191653496Y-81745796D01*
X191629227Y-81742196D01*
X191605429Y-81736235D01*
X191582329Y-81727970D01*
X191560151Y-81717480D01*
X191539107Y-81704867D01*
X191519402Y-81690253D01*
X191501223Y-81673777D01*
X191484747Y-81655598D01*
X191470133Y-81635893D01*
X191457520Y-81614849D01*
X191447030Y-81592671D01*
X191438765Y-81569571D01*
X191432804Y-81545773D01*
X191429204Y-81521504D01*
X191428000Y-81497000D01*
X191428000Y-80047000D01*
X191429204Y-80022496D01*
X191432804Y-79998227D01*
X191438765Y-79974429D01*
X191447030Y-79951329D01*
X191457520Y-79929151D01*
X191470133Y-79908107D01*
X191484747Y-79888402D01*
X191501223Y-79870223D01*
X191519402Y-79853747D01*
X191539107Y-79839133D01*
X191560151Y-79826520D01*
X191582329Y-79816030D01*
X191605429Y-79807765D01*
X191629227Y-79801804D01*
X191653496Y-79798204D01*
X191678000Y-79797000D01*
X192878000Y-79797000D01*
X192902504Y-79798204D01*
G37*
G04 #@! TD.AperFunction*
D21*
X190285000Y-73168400D03*
X192825000Y-73168400D03*
X195365000Y-73168400D03*
D22*
X197905000Y-73168400D03*
D21*
X190285000Y-67168400D03*
X192825000Y-67168400D03*
X195365000Y-67168400D03*
D22*
X197905000Y-67168400D03*
D27*
X176085000Y-22987000D03*
X174585000Y-22987000D03*
X173085000Y-22987000D03*
X171585000Y-22987000D03*
G04 #@! TA.AperFunction,ComponentPad*
D26*
G36*
X170489149Y-22137779D02*
G01*
X170504846Y-22140107D01*
X170520239Y-22143963D01*
X170535180Y-22149309D01*
X170549525Y-22156093D01*
X170563136Y-22164251D01*
X170575881Y-22173704D01*
X170587639Y-22184361D01*
X170598296Y-22196119D01*
X170607749Y-22208864D01*
X170615907Y-22222475D01*
X170622691Y-22236820D01*
X170628037Y-22251761D01*
X170631893Y-22267154D01*
X170634221Y-22282851D01*
X170635000Y-22298700D01*
X170635000Y-23675300D01*
X170634221Y-23691149D01*
X170631893Y-23706846D01*
X170628037Y-23722239D01*
X170622691Y-23737180D01*
X170615907Y-23751525D01*
X170607749Y-23765136D01*
X170598296Y-23777881D01*
X170587639Y-23789639D01*
X170575881Y-23800296D01*
X170563136Y-23809749D01*
X170549525Y-23817907D01*
X170535180Y-23824691D01*
X170520239Y-23830037D01*
X170504846Y-23833893D01*
X170489149Y-23836221D01*
X170473300Y-23837000D01*
X169696700Y-23837000D01*
X169680851Y-23836221D01*
X169665154Y-23833893D01*
X169649761Y-23830037D01*
X169634820Y-23824691D01*
X169620475Y-23817907D01*
X169606864Y-23809749D01*
X169594119Y-23800296D01*
X169582361Y-23789639D01*
X169571704Y-23777881D01*
X169562251Y-23765136D01*
X169554093Y-23751525D01*
X169547309Y-23737180D01*
X169541963Y-23722239D01*
X169538107Y-23706846D01*
X169535779Y-23691149D01*
X169535000Y-23675300D01*
X169535000Y-22298700D01*
X169535779Y-22282851D01*
X169538107Y-22267154D01*
X169541963Y-22251761D01*
X169547309Y-22236820D01*
X169554093Y-22222475D01*
X169562251Y-22208864D01*
X169571704Y-22196119D01*
X169582361Y-22184361D01*
X169594119Y-22173704D01*
X169606864Y-22164251D01*
X169620475Y-22156093D01*
X169634820Y-22149309D01*
X169649761Y-22143963D01*
X169665154Y-22140107D01*
X169680851Y-22137779D01*
X169696700Y-22137000D01*
X170473300Y-22137000D01*
X170489149Y-22137779D01*
G37*
G04 #@! TD.AperFunction*
D15*
X199677020Y-39583360D03*
D16*
X199677020Y-49743360D03*
D15*
X178516280Y-52537360D03*
D16*
X178516280Y-62697360D03*
D15*
X183088280Y-52410360D03*
D16*
X183088280Y-62570360D03*
D15*
X178574700Y-77287120D03*
D16*
X178574700Y-67127120D03*
D21*
X183984900Y-75483720D03*
X183984900Y-72943720D03*
X183984900Y-70403720D03*
D22*
X183984900Y-67863720D03*
D28*
X181742080Y-43487340D03*
X174056040Y-48430180D03*
X174056040Y-52509420D03*
X176273460Y-44833540D03*
X176273460Y-49771300D03*
X180431440Y-37510720D03*
X194980560Y-23944580D03*
X185173620Y-44866560D03*
D29*
X195365000Y-53168400D02*
X195365000Y-59168400D01*
X195365000Y-67168400D02*
X195365000Y-73168400D01*
X174585000Y-22987000D02*
X176085000Y-22987000D01*
X176085000Y-19113000D02*
X176085000Y-22987000D01*
X176386000Y-18812000D02*
X176085000Y-19113000D01*
X179614320Y-23251920D02*
X179614320Y-31004000D01*
X181215040Y-32604720D02*
X184442100Y-32604720D01*
X179614320Y-31004000D02*
X181215040Y-32604720D01*
X184442100Y-33874720D02*
X185712100Y-35144720D01*
X184442100Y-32604720D02*
X184442100Y-33874720D01*
X163071400Y-18812000D02*
X163997640Y-18826480D01*
X163997640Y-18826480D02*
X176386000Y-18812000D01*
X161594800Y-21288600D02*
X161589720Y-21283520D01*
X161594800Y-23088600D02*
X161594800Y-21288600D01*
X161589720Y-20293680D02*
X163071400Y-18812000D01*
X161589720Y-21283520D02*
X161589720Y-20293680D01*
X197278000Y-80772000D02*
X197278000Y-78118980D01*
X197278000Y-78118980D02*
X195365000Y-76205980D01*
X194376040Y-75483720D02*
X195437760Y-74422000D01*
X183984900Y-75483720D02*
X194376040Y-75483720D01*
X195437760Y-74422000D02*
X195365000Y-73168400D01*
X195365000Y-76205980D02*
X195365000Y-73168400D01*
X179349400Y-22987000D02*
X176085000Y-22987000D01*
X179614320Y-23251920D02*
X179349400Y-22987000D01*
X189603279Y-48917139D02*
X191723559Y-48917139D01*
X188803280Y-48117140D02*
X189603279Y-48917139D01*
X191723559Y-48917139D02*
X194149980Y-51343560D01*
X194149980Y-51343560D02*
X195171060Y-51343560D01*
X195365000Y-51537500D02*
X195365000Y-53168400D01*
X195171060Y-51343560D02*
X195365000Y-51537500D01*
X201864860Y-64718300D02*
X195365000Y-64718300D01*
X207413860Y-59169300D02*
X201864860Y-64718300D01*
X207413860Y-40055800D02*
X207413860Y-59169300D01*
X195365000Y-59168400D02*
X195365000Y-64718300D01*
X195365000Y-64718300D02*
X195365000Y-67168400D01*
X198836280Y-29509720D02*
X198836280Y-22354540D01*
X201415800Y-32089240D02*
X198836280Y-29509720D01*
X207413860Y-34787840D02*
X206555340Y-33929320D01*
X206555340Y-33929320D02*
X203266040Y-33929320D01*
X203266040Y-33929320D02*
X201425960Y-32089240D01*
X198836280Y-22354540D02*
X195293740Y-18812000D01*
X207413860Y-40032940D02*
X207413860Y-34787840D01*
X201425960Y-32089240D02*
X201415800Y-32089240D01*
X190548100Y-25737760D02*
X189528100Y-26757760D01*
X190548100Y-24217760D02*
X190548100Y-25737760D01*
X190555880Y-23220031D02*
X190555880Y-18801080D01*
X190548100Y-23227811D02*
X190555880Y-23220031D01*
X190548100Y-24217760D02*
X190548100Y-23227811D01*
X195293740Y-18812000D02*
X190555880Y-18801080D01*
X190555880Y-18801080D02*
X176386000Y-18812000D01*
X147742301Y-83936840D02*
X169400220Y-83936840D01*
X146540220Y-83936840D02*
X147742301Y-83936840D01*
X183984900Y-75483720D02*
X175552100Y-83916520D01*
X161594800Y-30101540D02*
X154386280Y-30101540D01*
X161594800Y-23088600D02*
X161594800Y-30101540D01*
X154386280Y-30101540D02*
X148186140Y-36301680D01*
X148186140Y-36301680D02*
X143771620Y-36301680D01*
X143771620Y-36301680D02*
X142298420Y-37774880D01*
X142298420Y-37774880D02*
X142298420Y-83746340D01*
X142488920Y-83936840D02*
X146540220Y-83936840D01*
X142298420Y-83746340D02*
X142488920Y-83936840D01*
X170622621Y-83916520D02*
X175552100Y-83916520D01*
X170602301Y-83936840D02*
X170622621Y-83916520D01*
X169400220Y-83936840D02*
X170602301Y-83936840D01*
X197978000Y-59258200D02*
X197851000Y-59385200D01*
X182961280Y-62697360D02*
X183088280Y-62570360D01*
X178516280Y-62697360D02*
X182961280Y-62697360D01*
X178574700Y-67127120D02*
X178523900Y-67076320D01*
X188549280Y-38458140D02*
X178109880Y-38458140D01*
X188803280Y-40617140D02*
X188803280Y-38712140D01*
X177906680Y-38661340D02*
X177906680Y-40464740D01*
X178109880Y-38458140D02*
X177906680Y-38661340D01*
X188803280Y-38712140D02*
X188549280Y-38458140D01*
D30*
X187718700Y-38525842D02*
X187731400Y-38538542D01*
D29*
X178516280Y-67068700D02*
X178574700Y-67127120D01*
X178516280Y-62697360D02*
X178516280Y-67068700D01*
X183088280Y-66967100D02*
X183984900Y-67863720D01*
X183088280Y-62570360D02*
X183088280Y-66967100D01*
X183248300Y-67127120D02*
X183984900Y-67863720D01*
X178574700Y-67127120D02*
X183248300Y-67127120D01*
X197905000Y-51515380D02*
X199677020Y-49743360D01*
X197905000Y-53168400D02*
X197905000Y-51515380D01*
X200808390Y-49743360D02*
X204741020Y-49743360D01*
X199677020Y-49743360D02*
X200808390Y-49743360D01*
X159054800Y-23428602D02*
X159054800Y-23088600D01*
X156974799Y-23788601D02*
X158694801Y-23788601D01*
X156514800Y-23328602D02*
X156974799Y-23788601D01*
X158694801Y-23788601D02*
X159054800Y-23428602D01*
X156514800Y-23088600D02*
X156514800Y-23328602D01*
D30*
X200449200Y-81049400D02*
X200449200Y-80924400D01*
X178574700Y-73654920D02*
X178574700Y-77287120D01*
X183984900Y-70403720D02*
X181521100Y-70403720D01*
X177703480Y-70403720D02*
X181521100Y-70403720D01*
X177703480Y-72783700D02*
X178574700Y-73654920D01*
X177703480Y-70403720D02*
X177703480Y-72783700D01*
X176055020Y-68755260D02*
X176149000Y-68930520D01*
X176149000Y-68930520D02*
X177703480Y-70403720D01*
X174729140Y-67510660D02*
X176149000Y-68930520D01*
X174612300Y-67393820D02*
X174729140Y-67510660D01*
X160525460Y-61076840D02*
X166842440Y-67393820D01*
X146540220Y-61076840D02*
X160525460Y-61076840D01*
X166842440Y-67393820D02*
X174612300Y-67393820D01*
X190231000Y-59385200D02*
X190231000Y-58183119D01*
X190285000Y-54370481D02*
X190285000Y-59168400D01*
X190285000Y-53168400D02*
X190285000Y-54370481D01*
X190285000Y-60370481D02*
X190285000Y-67168400D01*
X190285000Y-59168400D02*
X190285000Y-60370481D01*
X190285000Y-68370481D02*
X190285000Y-73168400D01*
X190285000Y-67168400D02*
X190285000Y-68370481D01*
X181742080Y-43487340D02*
X181742080Y-44053025D01*
X181363620Y-50685700D02*
X183088280Y-52410360D01*
X181744620Y-44155360D02*
X181744620Y-50304700D01*
X175427640Y-50703480D02*
X175486060Y-50761900D01*
X181322980Y-50761900D02*
X181620160Y-50464720D01*
X175486060Y-50761900D02*
X181322980Y-50761900D01*
X181744620Y-50304700D02*
X181620160Y-50464720D01*
X181620160Y-50464720D02*
X181363620Y-50685700D01*
X175486060Y-50761900D02*
X172653960Y-50761900D01*
X172178980Y-50286920D02*
X172178980Y-43332400D01*
X169400220Y-43296840D02*
X172178980Y-43332400D01*
X172653960Y-50761900D02*
X172178980Y-50286920D01*
X172178980Y-24680980D02*
X172178980Y-43332400D01*
X171585000Y-24087000D02*
X172178980Y-24680980D01*
X171585000Y-22987000D02*
X171585000Y-24087000D01*
D29*
X178516280Y-52537360D02*
X178541680Y-52511960D01*
D30*
X178516280Y-52537360D02*
X181107080Y-55128160D01*
X181107080Y-55128160D02*
X185094880Y-55128160D01*
X182422800Y-47955200D02*
X183235600Y-48768000D01*
X185094880Y-51521360D02*
X185094880Y-51495960D01*
X185094880Y-55128160D02*
X185094880Y-51521360D01*
X192825000Y-54370481D02*
X192825000Y-59168400D01*
X192825000Y-53168400D02*
X192825000Y-54370481D01*
X192825000Y-60370481D02*
X192825000Y-67168400D01*
X192825000Y-59168400D02*
X192825000Y-60370481D01*
X192825000Y-67168400D02*
X192825000Y-73168400D01*
X185094880Y-55128160D02*
X185094880Y-55128160D01*
X192825000Y-53168400D02*
X192825000Y-51575600D01*
X192463420Y-51214020D02*
X184909460Y-51214020D01*
X192825000Y-51575600D02*
X192463420Y-51214020D01*
X183512460Y-49938940D02*
X184909460Y-51214020D01*
X184909460Y-51214020D02*
X185094880Y-51521360D01*
X182986680Y-49413160D02*
X182986680Y-48084740D01*
X183512460Y-49938940D02*
X182986680Y-49413160D01*
X174056040Y-47617380D02*
X174056040Y-48379380D01*
X174056040Y-48379380D02*
X174056040Y-48430180D01*
X174056040Y-48430180D02*
X174056040Y-48430180D01*
X173085000Y-24087000D02*
X174106840Y-25108840D01*
X173085000Y-22987000D02*
X173085000Y-24087000D01*
X174056040Y-25159640D02*
X174056040Y-48430180D01*
X174106840Y-25108840D02*
X174056040Y-25159640D01*
X178488340Y-52509420D02*
X178516280Y-52537360D01*
X174056040Y-52509420D02*
X178488340Y-52509420D01*
X174056040Y-53075105D02*
X174106840Y-53125905D01*
X174056040Y-52509420D02*
X174056040Y-53075105D01*
X174106840Y-53125905D02*
X174106840Y-62257940D01*
X174106840Y-62257940D02*
X172747940Y-63616840D01*
X172747940Y-63616840D02*
X169400220Y-63616840D01*
X204741020Y-43157140D02*
X204741020Y-39583360D01*
X200890899Y-47007261D02*
X204741020Y-43157140D01*
X194061080Y-47857260D02*
X194911079Y-47007261D01*
X194911079Y-47007261D02*
X200890899Y-47007261D01*
X176268380Y-49776380D02*
X176268380Y-49839880D01*
X176273460Y-49771300D02*
X176273460Y-49771300D01*
X176273460Y-44833540D02*
X176268380Y-49839880D01*
X176273460Y-49771300D02*
X176268380Y-49776380D01*
X176273460Y-37612320D02*
X176273460Y-44833540D01*
X176383950Y-37501830D02*
X176273460Y-37612320D01*
X195312540Y-30154880D02*
X204741020Y-39583360D01*
X176392840Y-37510720D02*
X180431440Y-37510720D01*
X176383950Y-37501830D02*
X176392840Y-37510720D01*
X194980560Y-29822900D02*
X194980560Y-23944580D01*
X195312540Y-30154880D02*
X194980560Y-29822900D01*
X189795160Y-29791660D02*
X186982100Y-32604720D01*
X194949320Y-29791660D02*
X194980560Y-29822900D01*
X189795160Y-29791660D02*
X194949320Y-29791660D01*
X192858999Y-45317260D02*
X192408299Y-44866560D01*
X194061080Y-45317260D02*
X192858999Y-45317260D01*
X187845700Y-44866560D02*
X185173620Y-44866560D01*
X192408299Y-44866560D02*
X191244220Y-44866560D01*
X191244220Y-44866560D02*
X187845700Y-44866560D01*
X195263161Y-45317260D02*
X197086220Y-43494201D01*
X194061080Y-45317260D02*
X195263161Y-45317260D01*
X197086220Y-43494201D02*
X197086220Y-43446700D01*
X199677020Y-40855900D02*
X199677020Y-39583360D01*
X197086220Y-43446700D02*
X199677020Y-40855900D01*
X191244220Y-39283640D02*
X191244220Y-44866560D01*
X188252100Y-36219522D02*
X188216540Y-36255082D01*
X188252100Y-35144720D02*
X188252100Y-36219522D01*
X188252100Y-36327080D02*
X189402720Y-37477700D01*
X188252100Y-36219522D02*
X188252100Y-36327080D01*
X189339220Y-37378640D02*
X189402720Y-37477700D01*
X189402720Y-37477700D02*
X191244220Y-39283640D01*
D31*
G36*
X183139080Y-62727450D02*
G01*
X183102423Y-62764108D01*
X183088280Y-62749965D01*
X182275183Y-63563062D01*
X182346766Y-63807031D01*
X182602276Y-63927931D01*
X182876464Y-63996660D01*
X183139080Y-64009605D01*
X183139080Y-66375671D01*
X183134900Y-66375648D01*
X183010418Y-66387908D01*
X182890720Y-66424218D01*
X182780406Y-66483183D01*
X182683715Y-66562535D01*
X182604363Y-66659226D01*
X182545398Y-66769540D01*
X182509088Y-66889238D01*
X182496828Y-67013720D01*
X182497860Y-67203320D01*
X180007685Y-67203320D01*
X180014917Y-67056608D01*
X179973487Y-66776990D01*
X179878303Y-66510828D01*
X179811371Y-66385606D01*
X179567402Y-66314023D01*
X178754305Y-67127120D01*
X178768448Y-67141263D01*
X178706390Y-67203320D01*
X178540602Y-67203320D01*
X178538490Y-66955440D01*
X178560558Y-66933373D01*
X178574700Y-66947515D01*
X179387797Y-66134418D01*
X179316214Y-65890449D01*
X179060704Y-65769549D01*
X178786516Y-65700820D01*
X178527693Y-65688062D01*
X178514453Y-64134011D01*
X178586792Y-64137577D01*
X178866410Y-64096147D01*
X179132572Y-64000963D01*
X179257794Y-63934031D01*
X179329377Y-63690062D01*
X178516280Y-62876965D01*
X178503849Y-62889396D01*
X178502344Y-62712731D01*
X178504389Y-62711056D01*
X178520203Y-62691828D01*
X178530937Y-62671797D01*
X178698433Y-62671623D01*
X178710028Y-62683218D01*
X178695885Y-62697360D01*
X179508982Y-63510457D01*
X179752951Y-63438874D01*
X179873851Y-63183364D01*
X179942580Y-62909176D01*
X179954354Y-62670319D01*
X181652165Y-62668556D01*
X181689493Y-62920490D01*
X181784677Y-63186652D01*
X181851609Y-63311874D01*
X182095578Y-63383457D01*
X182811683Y-62667352D01*
X183139080Y-62667012D01*
X183139080Y-62727450D01*
G37*
X183139080Y-62727450D02*
X183102423Y-62764108D01*
X183088280Y-62749965D01*
X182275183Y-63563062D01*
X182346766Y-63807031D01*
X182602276Y-63927931D01*
X182876464Y-63996660D01*
X183139080Y-64009605D01*
X183139080Y-66375671D01*
X183134900Y-66375648D01*
X183010418Y-66387908D01*
X182890720Y-66424218D01*
X182780406Y-66483183D01*
X182683715Y-66562535D01*
X182604363Y-66659226D01*
X182545398Y-66769540D01*
X182509088Y-66889238D01*
X182496828Y-67013720D01*
X182497860Y-67203320D01*
X180007685Y-67203320D01*
X180014917Y-67056608D01*
X179973487Y-66776990D01*
X179878303Y-66510828D01*
X179811371Y-66385606D01*
X179567402Y-66314023D01*
X178754305Y-67127120D01*
X178768448Y-67141263D01*
X178706390Y-67203320D01*
X178540602Y-67203320D01*
X178538490Y-66955440D01*
X178560558Y-66933373D01*
X178574700Y-66947515D01*
X179387797Y-66134418D01*
X179316214Y-65890449D01*
X179060704Y-65769549D01*
X178786516Y-65700820D01*
X178527693Y-65688062D01*
X178514453Y-64134011D01*
X178586792Y-64137577D01*
X178866410Y-64096147D01*
X179132572Y-64000963D01*
X179257794Y-63934031D01*
X179329377Y-63690062D01*
X178516280Y-62876965D01*
X178503849Y-62889396D01*
X178502344Y-62712731D01*
X178504389Y-62711056D01*
X178520203Y-62691828D01*
X178530937Y-62671797D01*
X178698433Y-62671623D01*
X178710028Y-62683218D01*
X178695885Y-62697360D01*
X179508982Y-63510457D01*
X179752951Y-63438874D01*
X179873851Y-63183364D01*
X179942580Y-62909176D01*
X179954354Y-62670319D01*
X181652165Y-62668556D01*
X181689493Y-62920490D01*
X181784677Y-63186652D01*
X181851609Y-63311874D01*
X182095578Y-63383457D01*
X182811683Y-62667352D01*
X183139080Y-62667012D01*
X183139080Y-62727450D01*
G36*
X196863297Y-18516310D02*
G01*
X198195800Y-18741686D01*
X199494898Y-19114196D01*
X200744365Y-19629190D01*
X201928638Y-20280250D01*
X203032958Y-21059263D01*
X204043563Y-21956519D01*
X204947853Y-22960834D01*
X205734560Y-24059696D01*
X206393869Y-25239390D01*
X206917577Y-26485243D01*
X207299141Y-27781689D01*
X207533816Y-29112595D01*
X207619761Y-30478655D01*
X207620000Y-30547038D01*
X207620001Y-87597711D01*
X207605278Y-87747869D01*
X207571047Y-87861246D01*
X207515446Y-87965817D01*
X207440594Y-88057595D01*
X207349335Y-88133091D01*
X207245160Y-88189419D01*
X207132024Y-88224440D01*
X206983979Y-88240000D01*
X141002279Y-88240000D01*
X140852131Y-88225278D01*
X140738754Y-88191047D01*
X140634183Y-88135446D01*
X140542405Y-88060594D01*
X140466909Y-87969335D01*
X140410581Y-87865160D01*
X140375560Y-87752024D01*
X140360000Y-87603979D01*
X140360000Y-84965237D01*
X145691428Y-84965237D01*
X145769063Y-85214312D01*
X146033103Y-85340211D01*
X146316631Y-85412179D01*
X146608751Y-85427451D01*
X146898239Y-85385439D01*
X147173967Y-85287759D01*
X147311377Y-85214312D01*
X147389012Y-84965237D01*
X168551428Y-84965237D01*
X168629063Y-85214312D01*
X168893103Y-85340211D01*
X169176631Y-85412179D01*
X169468751Y-85427451D01*
X169758239Y-85385439D01*
X170033967Y-85287759D01*
X170171377Y-85214312D01*
X170249012Y-84965237D01*
X169400220Y-84116445D01*
X168551428Y-84965237D01*
X147389012Y-84965237D01*
X146540220Y-84116445D01*
X145691428Y-84965237D01*
X140360000Y-84965237D01*
X140360000Y-84005371D01*
X145049609Y-84005371D01*
X145091621Y-84294859D01*
X145189301Y-84570587D01*
X145262748Y-84707997D01*
X145511823Y-84785632D01*
X146360615Y-83936840D01*
X146719825Y-83936840D01*
X147568617Y-84785632D01*
X147817692Y-84707997D01*
X147943591Y-84443957D01*
X148015559Y-84160429D01*
X148023665Y-84005371D01*
X167909609Y-84005371D01*
X167951621Y-84294859D01*
X168049301Y-84570587D01*
X168122748Y-84707997D01*
X168371823Y-84785632D01*
X169220615Y-83936840D01*
X169579825Y-83936840D01*
X170428617Y-84785632D01*
X170677692Y-84707997D01*
X170803591Y-84443957D01*
X170875559Y-84160429D01*
X170890831Y-83868309D01*
X170848819Y-83578821D01*
X170751139Y-83303093D01*
X170685277Y-83179872D01*
X182454400Y-83179872D01*
X182454400Y-83620128D01*
X182540290Y-84051925D01*
X182708769Y-84458669D01*
X182953362Y-84824729D01*
X183264671Y-85136038D01*
X183630731Y-85380631D01*
X184037475Y-85549110D01*
X184469272Y-85635000D01*
X184909528Y-85635000D01*
X185341325Y-85549110D01*
X185748069Y-85380631D01*
X186114129Y-85136038D01*
X186425438Y-84824729D01*
X186670031Y-84458669D01*
X186838510Y-84051925D01*
X186924400Y-83620128D01*
X186924400Y-83179872D01*
X186838510Y-82748075D01*
X186670031Y-82341331D01*
X186425438Y-81975271D01*
X186114129Y-81663962D01*
X185748069Y-81419369D01*
X185341325Y-81250890D01*
X184909528Y-81165000D01*
X184469272Y-81165000D01*
X184037475Y-81250890D01*
X183630731Y-81419369D01*
X183264671Y-81663962D01*
X182953362Y-81975271D01*
X182708769Y-82341331D01*
X182540290Y-82748075D01*
X182454400Y-83179872D01*
X170685277Y-83179872D01*
X170677692Y-83165683D01*
X170428617Y-83088048D01*
X169579825Y-83936840D01*
X169220615Y-83936840D01*
X168371823Y-83088048D01*
X168122748Y-83165683D01*
X167996849Y-83429723D01*
X167924881Y-83713251D01*
X167909609Y-84005371D01*
X148023665Y-84005371D01*
X148030831Y-83868309D01*
X147988819Y-83578821D01*
X147891139Y-83303093D01*
X147817692Y-83165683D01*
X147568617Y-83088048D01*
X146719825Y-83936840D01*
X146360615Y-83936840D01*
X145511823Y-83088048D01*
X145262748Y-83165683D01*
X145136849Y-83429723D01*
X145064881Y-83713251D01*
X145049609Y-84005371D01*
X140360000Y-84005371D01*
X140360000Y-40610580D01*
X145055220Y-40610580D01*
X145055220Y-40903100D01*
X145112288Y-41189998D01*
X145224230Y-41460251D01*
X145386745Y-41703472D01*
X145593588Y-41910315D01*
X145767980Y-42026840D01*
X145593588Y-42143365D01*
X145386745Y-42350208D01*
X145224230Y-42593429D01*
X145112288Y-42863682D01*
X145055220Y-43150580D01*
X145055220Y-43443100D01*
X145112288Y-43729998D01*
X145224230Y-44000251D01*
X145386745Y-44243472D01*
X145593588Y-44450315D01*
X145767980Y-44566840D01*
X145593588Y-44683365D01*
X145386745Y-44890208D01*
X145224230Y-45133429D01*
X145112288Y-45403682D01*
X145055220Y-45690580D01*
X145055220Y-45983100D01*
X145112288Y-46269998D01*
X145224230Y-46540251D01*
X145386745Y-46783472D01*
X145593588Y-46990315D01*
X145767980Y-47106840D01*
X145593588Y-47223365D01*
X145386745Y-47430208D01*
X145224230Y-47673429D01*
X145112288Y-47943682D01*
X145055220Y-48230580D01*
X145055220Y-48523100D01*
X145112288Y-48809998D01*
X145224230Y-49080251D01*
X145386745Y-49323472D01*
X145593588Y-49530315D01*
X145767980Y-49646840D01*
X145593588Y-49763365D01*
X145386745Y-49970208D01*
X145224230Y-50213429D01*
X145112288Y-50483682D01*
X145055220Y-50770580D01*
X145055220Y-51063100D01*
X145112288Y-51349998D01*
X145224230Y-51620251D01*
X145386745Y-51863472D01*
X145593588Y-52070315D01*
X145767980Y-52186840D01*
X145593588Y-52303365D01*
X145386745Y-52510208D01*
X145224230Y-52753429D01*
X145112288Y-53023682D01*
X145055220Y-53310580D01*
X145055220Y-53603100D01*
X145112288Y-53889998D01*
X145224230Y-54160251D01*
X145386745Y-54403472D01*
X145593588Y-54610315D01*
X145767980Y-54726840D01*
X145593588Y-54843365D01*
X145386745Y-55050208D01*
X145224230Y-55293429D01*
X145112288Y-55563682D01*
X145055220Y-55850580D01*
X145055220Y-56143100D01*
X145112288Y-56429998D01*
X145224230Y-56700251D01*
X145386745Y-56943472D01*
X145593588Y-57150315D01*
X145767980Y-57266840D01*
X145593588Y-57383365D01*
X145386745Y-57590208D01*
X145224230Y-57833429D01*
X145112288Y-58103682D01*
X145055220Y-58390580D01*
X145055220Y-58683100D01*
X145112288Y-58969998D01*
X145224230Y-59240251D01*
X145386745Y-59483472D01*
X145593588Y-59690315D01*
X145767980Y-59806840D01*
X145593588Y-59923365D01*
X145386745Y-60130208D01*
X145224230Y-60373429D01*
X145112288Y-60643682D01*
X145055220Y-60930580D01*
X145055220Y-61223100D01*
X145112288Y-61509998D01*
X145224230Y-61780251D01*
X145386745Y-62023472D01*
X145593588Y-62230315D01*
X145767980Y-62346840D01*
X145593588Y-62463365D01*
X145386745Y-62670208D01*
X145224230Y-62913429D01*
X145112288Y-63183682D01*
X145055220Y-63470580D01*
X145055220Y-63763100D01*
X145112288Y-64049998D01*
X145224230Y-64320251D01*
X145386745Y-64563472D01*
X145593588Y-64770315D01*
X145767980Y-64886840D01*
X145593588Y-65003365D01*
X145386745Y-65210208D01*
X145224230Y-65453429D01*
X145112288Y-65723682D01*
X145055220Y-66010580D01*
X145055220Y-66303100D01*
X145112288Y-66589998D01*
X145224230Y-66860251D01*
X145386745Y-67103472D01*
X145593588Y-67310315D01*
X145767980Y-67426840D01*
X145593588Y-67543365D01*
X145386745Y-67750208D01*
X145224230Y-67993429D01*
X145112288Y-68263682D01*
X145055220Y-68550580D01*
X145055220Y-68843100D01*
X145112288Y-69129998D01*
X145224230Y-69400251D01*
X145386745Y-69643472D01*
X145593588Y-69850315D01*
X145767980Y-69966840D01*
X145593588Y-70083365D01*
X145386745Y-70290208D01*
X145224230Y-70533429D01*
X145112288Y-70803682D01*
X145055220Y-71090580D01*
X145055220Y-71383100D01*
X145112288Y-71669998D01*
X145224230Y-71940251D01*
X145386745Y-72183472D01*
X145593588Y-72390315D01*
X145767980Y-72506840D01*
X145593588Y-72623365D01*
X145386745Y-72830208D01*
X145224230Y-73073429D01*
X145112288Y-73343682D01*
X145055220Y-73630580D01*
X145055220Y-73923100D01*
X145112288Y-74209998D01*
X145224230Y-74480251D01*
X145386745Y-74723472D01*
X145593588Y-74930315D01*
X145767980Y-75046840D01*
X145593588Y-75163365D01*
X145386745Y-75370208D01*
X145224230Y-75613429D01*
X145112288Y-75883682D01*
X145055220Y-76170580D01*
X145055220Y-76463100D01*
X145112288Y-76749998D01*
X145224230Y-77020251D01*
X145386745Y-77263472D01*
X145593588Y-77470315D01*
X145767980Y-77586840D01*
X145593588Y-77703365D01*
X145386745Y-77910208D01*
X145224230Y-78153429D01*
X145112288Y-78423682D01*
X145055220Y-78710580D01*
X145055220Y-79003100D01*
X145112288Y-79289998D01*
X145224230Y-79560251D01*
X145386745Y-79803472D01*
X145593588Y-80010315D01*
X145767980Y-80126840D01*
X145593588Y-80243365D01*
X145386745Y-80450208D01*
X145224230Y-80693429D01*
X145112288Y-80963682D01*
X145055220Y-81250580D01*
X145055220Y-81543100D01*
X145112288Y-81829998D01*
X145224230Y-82100251D01*
X145386745Y-82343472D01*
X145593588Y-82550315D01*
X145766949Y-82666151D01*
X145691428Y-82908443D01*
X146540220Y-83757235D01*
X147389012Y-82908443D01*
X147313491Y-82666151D01*
X147486852Y-82550315D01*
X147693695Y-82343472D01*
X147856210Y-82100251D01*
X147968152Y-81829998D01*
X148025220Y-81543100D01*
X148025220Y-81250580D01*
X147968152Y-80963682D01*
X147856210Y-80693429D01*
X147693695Y-80450208D01*
X147486852Y-80243365D01*
X147312460Y-80126840D01*
X147486852Y-80010315D01*
X147693695Y-79803472D01*
X147856210Y-79560251D01*
X147968152Y-79289998D01*
X148025220Y-79003100D01*
X148025220Y-78710580D01*
X147968152Y-78423682D01*
X147856210Y-78153429D01*
X147693695Y-77910208D01*
X147486852Y-77703365D01*
X147312460Y-77586840D01*
X147486852Y-77470315D01*
X147693695Y-77263472D01*
X147856210Y-77020251D01*
X147968152Y-76749998D01*
X148025220Y-76463100D01*
X148025220Y-76170580D01*
X147968152Y-75883682D01*
X147856210Y-75613429D01*
X147693695Y-75370208D01*
X147486852Y-75163365D01*
X147312460Y-75046840D01*
X147486852Y-74930315D01*
X147693695Y-74723472D01*
X147856210Y-74480251D01*
X147968152Y-74209998D01*
X148025220Y-73923100D01*
X148025220Y-73630580D01*
X147968152Y-73343682D01*
X147856210Y-73073429D01*
X147693695Y-72830208D01*
X147486852Y-72623365D01*
X147312460Y-72506840D01*
X147486852Y-72390315D01*
X147693695Y-72183472D01*
X147856210Y-71940251D01*
X147968152Y-71669998D01*
X148025220Y-71383100D01*
X148025220Y-71090580D01*
X147968152Y-70803682D01*
X147856210Y-70533429D01*
X147693695Y-70290208D01*
X147486852Y-70083365D01*
X147312460Y-69966840D01*
X147486852Y-69850315D01*
X147693695Y-69643472D01*
X147856210Y-69400251D01*
X147968152Y-69129998D01*
X148025220Y-68843100D01*
X148025220Y-68550580D01*
X147968152Y-68263682D01*
X147856210Y-67993429D01*
X147693695Y-67750208D01*
X147486852Y-67543365D01*
X147312460Y-67426840D01*
X147486852Y-67310315D01*
X147693695Y-67103472D01*
X147856210Y-66860251D01*
X147968152Y-66589998D01*
X148025220Y-66303100D01*
X148025220Y-66010580D01*
X147968152Y-65723682D01*
X147856210Y-65453429D01*
X147693695Y-65210208D01*
X147486852Y-65003365D01*
X147312460Y-64886840D01*
X147486852Y-64770315D01*
X147693695Y-64563472D01*
X147856210Y-64320251D01*
X147968152Y-64049998D01*
X148025220Y-63763100D01*
X148025220Y-63470580D01*
X147968152Y-63183682D01*
X147856210Y-62913429D01*
X147693695Y-62670208D01*
X147486852Y-62463365D01*
X147312460Y-62346840D01*
X147486852Y-62230315D01*
X147693695Y-62023472D01*
X147818398Y-61836840D01*
X160210659Y-61836840D01*
X166278640Y-67904822D01*
X166302439Y-67933821D01*
X166418164Y-68028794D01*
X166550193Y-68099366D01*
X166693454Y-68142823D01*
X166805107Y-68153820D01*
X166805115Y-68153820D01*
X166842440Y-68157496D01*
X166879765Y-68153820D01*
X168017794Y-68153820D01*
X167972288Y-68263682D01*
X167915220Y-68550580D01*
X167915220Y-68843100D01*
X167972288Y-69129998D01*
X168084230Y-69400251D01*
X168246745Y-69643472D01*
X168453588Y-69850315D01*
X168627980Y-69966840D01*
X168453588Y-70083365D01*
X168246745Y-70290208D01*
X168084230Y-70533429D01*
X167972288Y-70803682D01*
X167915220Y-71090580D01*
X167915220Y-71383100D01*
X167972288Y-71669998D01*
X168084230Y-71940251D01*
X168246745Y-72183472D01*
X168453588Y-72390315D01*
X168627980Y-72506840D01*
X168453588Y-72623365D01*
X168246745Y-72830208D01*
X168084230Y-73073429D01*
X167972288Y-73343682D01*
X167915220Y-73630580D01*
X167915220Y-73923100D01*
X167972288Y-74209998D01*
X168084230Y-74480251D01*
X168246745Y-74723472D01*
X168453588Y-74930315D01*
X168627980Y-75046840D01*
X168453588Y-75163365D01*
X168246745Y-75370208D01*
X168084230Y-75613429D01*
X167972288Y-75883682D01*
X167915220Y-76170580D01*
X167915220Y-76463100D01*
X167972288Y-76749998D01*
X168084230Y-77020251D01*
X168246745Y-77263472D01*
X168453588Y-77470315D01*
X168627980Y-77586840D01*
X168453588Y-77703365D01*
X168246745Y-77910208D01*
X168084230Y-78153429D01*
X167972288Y-78423682D01*
X167915220Y-78710580D01*
X167915220Y-79003100D01*
X167972288Y-79289998D01*
X168084230Y-79560251D01*
X168246745Y-79803472D01*
X168453588Y-80010315D01*
X168627980Y-80126840D01*
X168453588Y-80243365D01*
X168246745Y-80450208D01*
X168084230Y-80693429D01*
X167972288Y-80963682D01*
X167915220Y-81250580D01*
X167915220Y-81543100D01*
X167972288Y-81829998D01*
X168084230Y-82100251D01*
X168246745Y-82343472D01*
X168453588Y-82550315D01*
X168626949Y-82666151D01*
X168551428Y-82908443D01*
X169400220Y-83757235D01*
X170249012Y-82908443D01*
X170173491Y-82666151D01*
X170346852Y-82550315D01*
X170553695Y-82343472D01*
X170716210Y-82100251D01*
X170828152Y-81829998D01*
X170885220Y-81543100D01*
X170885220Y-81250580D01*
X170828152Y-80963682D01*
X170716210Y-80693429D01*
X170553695Y-80450208D01*
X170346852Y-80243365D01*
X170172460Y-80126840D01*
X170291949Y-80047000D01*
X190789928Y-80047000D01*
X190789928Y-81497000D01*
X190806992Y-81670254D01*
X190857528Y-81836850D01*
X190939595Y-81990386D01*
X191050038Y-82124962D01*
X191184614Y-82235405D01*
X191338150Y-82317472D01*
X191504746Y-82368008D01*
X191678000Y-82385072D01*
X192878000Y-82385072D01*
X193051254Y-82368008D01*
X193217850Y-82317472D01*
X193371386Y-82235405D01*
X193505962Y-82124962D01*
X193616405Y-81990386D01*
X193670777Y-81888663D01*
X193722866Y-81952134D01*
X193948987Y-82137706D01*
X194206967Y-82275599D01*
X194486890Y-82360513D01*
X194778000Y-82389185D01*
X195069111Y-82360513D01*
X195349034Y-82275599D01*
X195607014Y-82137706D01*
X195833134Y-81952134D01*
X196018706Y-81726014D01*
X196032462Y-81700278D01*
X196188951Y-81906429D01*
X196406807Y-82099496D01*
X196658142Y-82246352D01*
X196921110Y-82338476D01*
X197151000Y-82217155D01*
X197151000Y-80899000D01*
X197131000Y-80899000D01*
X197131000Y-80645000D01*
X197151000Y-80645000D01*
X197151000Y-79326845D01*
X197405000Y-79326845D01*
X197405000Y-80645000D01*
X197425000Y-80645000D01*
X197425000Y-80899000D01*
X197405000Y-80899000D01*
X197405000Y-82217155D01*
X197634890Y-82338476D01*
X197897858Y-82246352D01*
X198149193Y-82099496D01*
X198367049Y-81906429D01*
X198523538Y-81700278D01*
X198537294Y-81726014D01*
X198722866Y-81952134D01*
X198948987Y-82137706D01*
X199206967Y-82275599D01*
X199486890Y-82360513D01*
X199778000Y-82389185D01*
X200069111Y-82360513D01*
X200349034Y-82275599D01*
X200607014Y-82137706D01*
X200833134Y-81952134D01*
X201018706Y-81726014D01*
X201028000Y-81708626D01*
X201037294Y-81726014D01*
X201222866Y-81952134D01*
X201448987Y-82137706D01*
X201706967Y-82275599D01*
X201986890Y-82360513D01*
X202278000Y-82389185D01*
X202569111Y-82360513D01*
X202849034Y-82275599D01*
X203107014Y-82137706D01*
X203333134Y-81952134D01*
X203518706Y-81726014D01*
X203656599Y-81468033D01*
X203741513Y-81188110D01*
X203763000Y-80969949D01*
X203763000Y-80574050D01*
X203741513Y-80355889D01*
X203656599Y-80075966D01*
X203518706Y-79817986D01*
X203333134Y-79591866D01*
X203107013Y-79406294D01*
X202849033Y-79268401D01*
X202569110Y-79183487D01*
X202278000Y-79154815D01*
X201986889Y-79183487D01*
X201706966Y-79268401D01*
X201448986Y-79406294D01*
X201222866Y-79591866D01*
X201037294Y-79817987D01*
X201028000Y-79835374D01*
X201018706Y-79817986D01*
X200833134Y-79591866D01*
X200607013Y-79406294D01*
X200349033Y-79268401D01*
X200069110Y-79183487D01*
X199778000Y-79154815D01*
X199486889Y-79183487D01*
X199206966Y-79268401D01*
X198948986Y-79406294D01*
X198722866Y-79591866D01*
X198537294Y-79817987D01*
X198523538Y-79843722D01*
X198367049Y-79637571D01*
X198149193Y-79444504D01*
X197897858Y-79297648D01*
X197634890Y-79205524D01*
X197405000Y-79326845D01*
X197151000Y-79326845D01*
X196921110Y-79205524D01*
X196658142Y-79297648D01*
X196406807Y-79444504D01*
X196188951Y-79637571D01*
X196032462Y-79843722D01*
X196018706Y-79817986D01*
X195833134Y-79591866D01*
X195607013Y-79406294D01*
X195349033Y-79268401D01*
X195069110Y-79183487D01*
X194778000Y-79154815D01*
X194486889Y-79183487D01*
X194206966Y-79268401D01*
X193948986Y-79406294D01*
X193722866Y-79591866D01*
X193670777Y-79655337D01*
X193616405Y-79553614D01*
X193505962Y-79419038D01*
X193371386Y-79308595D01*
X193217850Y-79226528D01*
X193051254Y-79175992D01*
X192878000Y-79158928D01*
X191678000Y-79158928D01*
X191504746Y-79175992D01*
X191338150Y-79226528D01*
X191184614Y-79308595D01*
X191050038Y-79419038D01*
X190939595Y-79553614D01*
X190857528Y-79707150D01*
X190806992Y-79873746D01*
X190789928Y-80047000D01*
X170291949Y-80047000D01*
X170346852Y-80010315D01*
X170553695Y-79803472D01*
X170716210Y-79560251D01*
X170828152Y-79289998D01*
X170885220Y-79003100D01*
X170885220Y-78710580D01*
X170828152Y-78423682D01*
X170716210Y-78153429D01*
X170553695Y-77910208D01*
X170346852Y-77703365D01*
X170172460Y-77586840D01*
X170346852Y-77470315D01*
X170553695Y-77263472D01*
X170716210Y-77020251D01*
X170828152Y-76749998D01*
X170885220Y-76463100D01*
X170885220Y-76170580D01*
X170828152Y-75883682D01*
X170716210Y-75613429D01*
X170553695Y-75370208D01*
X170346852Y-75163365D01*
X170172460Y-75046840D01*
X170346852Y-74930315D01*
X170553695Y-74723472D01*
X170716210Y-74480251D01*
X170828152Y-74209998D01*
X170885220Y-73923100D01*
X170885220Y-73630580D01*
X170828152Y-73343682D01*
X170716210Y-73073429D01*
X170553695Y-72830208D01*
X170346852Y-72623365D01*
X170172460Y-72506840D01*
X170346852Y-72390315D01*
X170553695Y-72183472D01*
X170716210Y-71940251D01*
X170828152Y-71669998D01*
X170885220Y-71383100D01*
X170885220Y-71090580D01*
X170828152Y-70803682D01*
X170716210Y-70533429D01*
X170553695Y-70290208D01*
X170346852Y-70083365D01*
X170172460Y-69966840D01*
X170346852Y-69850315D01*
X170553695Y-69643472D01*
X170716210Y-69400251D01*
X170828152Y-69129998D01*
X170885220Y-68843100D01*
X170885220Y-68550580D01*
X170828152Y-68263682D01*
X170782646Y-68153820D01*
X174297499Y-68153820D01*
X175559037Y-69415358D01*
X175559319Y-69415780D01*
X175592757Y-69449129D01*
X175599117Y-69456468D01*
X175618797Y-69475119D01*
X175637997Y-69494319D01*
X175638395Y-69494646D01*
X175665319Y-69521498D01*
X175673453Y-69526917D01*
X176943480Y-70730538D01*
X176943481Y-72746368D01*
X176939804Y-72783700D01*
X176943481Y-72821033D01*
X176951842Y-72905917D01*
X176954478Y-72932685D01*
X176997934Y-73075946D01*
X177068506Y-73207976D01*
X177139681Y-73294702D01*
X177163480Y-73323701D01*
X177192478Y-73347499D01*
X177814700Y-73969722D01*
X177814701Y-76069076D01*
X177659941Y-76172483D01*
X177460063Y-76372361D01*
X177303020Y-76607393D01*
X177194847Y-76868546D01*
X177139700Y-77145785D01*
X177139700Y-77428455D01*
X177194847Y-77705694D01*
X177303020Y-77966847D01*
X177460063Y-78201879D01*
X177659941Y-78401757D01*
X177894973Y-78558800D01*
X178156126Y-78666973D01*
X178433365Y-78722120D01*
X178716035Y-78722120D01*
X178993274Y-78666973D01*
X179254427Y-78558800D01*
X179489459Y-78401757D01*
X179689337Y-78201879D01*
X179846380Y-77966847D01*
X179954553Y-77705694D01*
X180009700Y-77428455D01*
X180009700Y-77145785D01*
X179954553Y-76868546D01*
X179846380Y-76607393D01*
X179689337Y-76372361D01*
X179489459Y-76172483D01*
X179334700Y-76069077D01*
X179334700Y-75840610D01*
X182543424Y-75840610D01*
X182588075Y-75987819D01*
X182713259Y-76250640D01*
X182887312Y-76483989D01*
X183103545Y-76678898D01*
X183353648Y-76827877D01*
X183628009Y-76925201D01*
X183857900Y-76804534D01*
X183857900Y-75610720D01*
X184111900Y-75610720D01*
X184111900Y-76804534D01*
X184341791Y-76925201D01*
X184616152Y-76827877D01*
X184866255Y-76678898D01*
X185082488Y-76483989D01*
X185256541Y-76250640D01*
X185381725Y-75987819D01*
X185426376Y-75840610D01*
X185305055Y-75610720D01*
X184111900Y-75610720D01*
X183857900Y-75610720D01*
X182664745Y-75610720D01*
X182543424Y-75840610D01*
X179334700Y-75840610D01*
X179334700Y-73692242D01*
X179338376Y-73654919D01*
X179334700Y-73617596D01*
X179334700Y-73617587D01*
X179323703Y-73505934D01*
X179280246Y-73362673D01*
X179254582Y-73314660D01*
X179209674Y-73230643D01*
X179138499Y-73143917D01*
X179114701Y-73114919D01*
X179085704Y-73091122D01*
X178463480Y-72468899D01*
X178463480Y-71163720D01*
X182706722Y-71163720D01*
X182831425Y-71350352D01*
X183038268Y-71557195D01*
X183212660Y-71673720D01*
X183038268Y-71790245D01*
X182831425Y-71997088D01*
X182668910Y-72240309D01*
X182556968Y-72510562D01*
X182499900Y-72797460D01*
X182499900Y-73089980D01*
X182556968Y-73376878D01*
X182668910Y-73647131D01*
X182831425Y-73890352D01*
X183038268Y-74097195D01*
X183220434Y-74218915D01*
X183103545Y-74288542D01*
X182887312Y-74483451D01*
X182713259Y-74716800D01*
X182588075Y-74979621D01*
X182543424Y-75126830D01*
X182664745Y-75356720D01*
X183857900Y-75356720D01*
X183857900Y-75336720D01*
X184111900Y-75336720D01*
X184111900Y-75356720D01*
X185305055Y-75356720D01*
X185426376Y-75126830D01*
X185381725Y-74979621D01*
X185256541Y-74716800D01*
X185082488Y-74483451D01*
X184866255Y-74288542D01*
X184749366Y-74218915D01*
X184931532Y-74097195D01*
X185138375Y-73890352D01*
X185300890Y-73647131D01*
X185412832Y-73376878D01*
X185469900Y-73089980D01*
X185469900Y-72797460D01*
X185412832Y-72510562D01*
X185300890Y-72240309D01*
X185138375Y-71997088D01*
X184931532Y-71790245D01*
X184757140Y-71673720D01*
X184931532Y-71557195D01*
X185138375Y-71350352D01*
X185300890Y-71107131D01*
X185412832Y-70836878D01*
X185469900Y-70549980D01*
X185469900Y-70257460D01*
X185412832Y-69970562D01*
X185300890Y-69700309D01*
X185138375Y-69457088D01*
X185006520Y-69325233D01*
X185079080Y-69303222D01*
X185189394Y-69244257D01*
X185286085Y-69164905D01*
X185365437Y-69068214D01*
X185424402Y-68957900D01*
X185460712Y-68838202D01*
X185472972Y-68713720D01*
X185472972Y-67013720D01*
X185460712Y-66889238D01*
X185424402Y-66769540D01*
X185365437Y-66659226D01*
X185286085Y-66562535D01*
X185189394Y-66483183D01*
X185079080Y-66424218D01*
X184959382Y-66387908D01*
X184834900Y-66375648D01*
X183973280Y-66375648D01*
X183973280Y-63704881D01*
X184003039Y-63684997D01*
X184202917Y-63485119D01*
X184359960Y-63250087D01*
X184468133Y-62988934D01*
X184523280Y-62711695D01*
X184523280Y-62429025D01*
X184468133Y-62151786D01*
X184359960Y-61890633D01*
X184202917Y-61655601D01*
X184003039Y-61455723D01*
X183768007Y-61298680D01*
X183506854Y-61190507D01*
X183229615Y-61135360D01*
X182946945Y-61135360D01*
X182669706Y-61190507D01*
X182408553Y-61298680D01*
X182173521Y-61455723D01*
X181973643Y-61655601D01*
X181868900Y-61812360D01*
X179650801Y-61812360D01*
X179630917Y-61782601D01*
X179431039Y-61582723D01*
X179196007Y-61425680D01*
X178934854Y-61317507D01*
X178657615Y-61262360D01*
X178374945Y-61262360D01*
X178097706Y-61317507D01*
X177836553Y-61425680D01*
X177601521Y-61582723D01*
X177401643Y-61782601D01*
X177244600Y-62017633D01*
X177136427Y-62278786D01*
X177081280Y-62556025D01*
X177081280Y-62838695D01*
X177136427Y-63115934D01*
X177244600Y-63377087D01*
X177401643Y-63612119D01*
X177601521Y-63811997D01*
X177631280Y-63831881D01*
X177631281Y-66041143D01*
X177460063Y-66212361D01*
X177303020Y-66447393D01*
X177194847Y-66708546D01*
X177139700Y-66985785D01*
X177139700Y-67268455D01*
X177194847Y-67545694D01*
X177303020Y-67806847D01*
X177460063Y-68041879D01*
X177659941Y-68241757D01*
X177894973Y-68398800D01*
X178156126Y-68506973D01*
X178433365Y-68562120D01*
X178716035Y-68562120D01*
X178993274Y-68506973D01*
X179254427Y-68398800D01*
X179489459Y-68241757D01*
X179689337Y-68041879D01*
X179709221Y-68012120D01*
X182496828Y-68012120D01*
X182496828Y-68713720D01*
X182509088Y-68838202D01*
X182545398Y-68957900D01*
X182604363Y-69068214D01*
X182683715Y-69164905D01*
X182780406Y-69244257D01*
X182890720Y-69303222D01*
X182963280Y-69325233D01*
X182831425Y-69457088D01*
X182706722Y-69643720D01*
X178006399Y-69643720D01*
X176760815Y-68463266D01*
X176707157Y-68363202D01*
X176644701Y-68270000D01*
X176538701Y-68164282D01*
X176414113Y-68081277D01*
X176346770Y-68053488D01*
X175240142Y-66946861D01*
X175176104Y-66882823D01*
X175152301Y-66853819D01*
X175036576Y-66758846D01*
X174904547Y-66688274D01*
X174761286Y-66644817D01*
X174649633Y-66633820D01*
X174649622Y-66633820D01*
X174612300Y-66630144D01*
X174574978Y-66633820D01*
X170810000Y-66633820D01*
X170828152Y-66589998D01*
X170885220Y-66303100D01*
X170885220Y-66010580D01*
X170828152Y-65723682D01*
X170716210Y-65453429D01*
X170553695Y-65210208D01*
X170346852Y-65003365D01*
X170172460Y-64886840D01*
X170346852Y-64770315D01*
X170553695Y-64563472D01*
X170678398Y-64376840D01*
X172710618Y-64376840D01*
X172747940Y-64380516D01*
X172785262Y-64376840D01*
X172785273Y-64376840D01*
X172896926Y-64365843D01*
X173040187Y-64322386D01*
X173172216Y-64251814D01*
X173287941Y-64156841D01*
X173311744Y-64127837D01*
X174617843Y-62821739D01*
X174646841Y-62797941D01*
X174741814Y-62682216D01*
X174812386Y-62550187D01*
X174855843Y-62406926D01*
X174866840Y-62295273D01*
X174866840Y-62295263D01*
X174870516Y-62257940D01*
X174866840Y-62220617D01*
X174866840Y-53269420D01*
X177279568Y-53269420D01*
X177401643Y-53452119D01*
X177601521Y-53651997D01*
X177836553Y-53809040D01*
X178097706Y-53917213D01*
X178374945Y-53972360D01*
X178657615Y-53972360D01*
X178840166Y-53936048D01*
X180543285Y-55639168D01*
X180567079Y-55668161D01*
X180596072Y-55691955D01*
X180596076Y-55691959D01*
X180666765Y-55749971D01*
X180682804Y-55763134D01*
X180814833Y-55833706D01*
X180958094Y-55877163D01*
X181069747Y-55888160D01*
X181069756Y-55888160D01*
X181107079Y-55891836D01*
X181144402Y-55888160D01*
X185057547Y-55888160D01*
X185094880Y-55891837D01*
X185132213Y-55888160D01*
X185243866Y-55877163D01*
X185387127Y-55833706D01*
X185519156Y-55763134D01*
X185634881Y-55668161D01*
X185729854Y-55552436D01*
X185800426Y-55420407D01*
X185843883Y-55277146D01*
X185858557Y-55128160D01*
X185854880Y-55090827D01*
X185854880Y-51974020D01*
X189399587Y-51974020D01*
X189338368Y-52014925D01*
X189131525Y-52221768D01*
X188969010Y-52464989D01*
X188857068Y-52735242D01*
X188800000Y-53022140D01*
X188800000Y-53314660D01*
X188857068Y-53601558D01*
X188969010Y-53871811D01*
X189131525Y-54115032D01*
X189338368Y-54321875D01*
X189525000Y-54446578D01*
X189525001Y-57890221D01*
X189338368Y-58014925D01*
X189131525Y-58221768D01*
X188969010Y-58464989D01*
X188857068Y-58735242D01*
X188800000Y-59022140D01*
X188800000Y-59314660D01*
X188857068Y-59601558D01*
X188969010Y-59871811D01*
X189131525Y-60115032D01*
X189338368Y-60321875D01*
X189525000Y-60446578D01*
X189525001Y-65890221D01*
X189338368Y-66014925D01*
X189131525Y-66221768D01*
X188969010Y-66464989D01*
X188857068Y-66735242D01*
X188800000Y-67022140D01*
X188800000Y-67314660D01*
X188857068Y-67601558D01*
X188969010Y-67871811D01*
X189131525Y-68115032D01*
X189338368Y-68321875D01*
X189525000Y-68446578D01*
X189525001Y-71890221D01*
X189338368Y-72014925D01*
X189131525Y-72221768D01*
X188969010Y-72464989D01*
X188857068Y-72735242D01*
X188800000Y-73022140D01*
X188800000Y-73314660D01*
X188857068Y-73601558D01*
X188969010Y-73871811D01*
X189131525Y-74115032D01*
X189338368Y-74321875D01*
X189581589Y-74484390D01*
X189851842Y-74596332D01*
X190138740Y-74653400D01*
X190431260Y-74653400D01*
X190718158Y-74596332D01*
X190988411Y-74484390D01*
X191231632Y-74321875D01*
X191438475Y-74115032D01*
X191555000Y-73940640D01*
X191671525Y-74115032D01*
X191878368Y-74321875D01*
X192121589Y-74484390D01*
X192391842Y-74596332D01*
X192678740Y-74653400D01*
X192971260Y-74653400D01*
X193258158Y-74596332D01*
X193528411Y-74484390D01*
X193771632Y-74321875D01*
X193978475Y-74115032D01*
X194100195Y-73932866D01*
X194169822Y-74049755D01*
X194364731Y-74265988D01*
X194598080Y-74440041D01*
X194860901Y-74565225D01*
X195008110Y-74609876D01*
X195238000Y-74488555D01*
X195238000Y-73295400D01*
X195218000Y-73295400D01*
X195218000Y-73041400D01*
X195238000Y-73041400D01*
X195238000Y-71848245D01*
X195492000Y-71848245D01*
X195492000Y-73041400D01*
X195512000Y-73041400D01*
X195512000Y-73295400D01*
X195492000Y-73295400D01*
X195492000Y-74488555D01*
X195721890Y-74609876D01*
X195869099Y-74565225D01*
X196131920Y-74440041D01*
X196365269Y-74265988D01*
X196441034Y-74181934D01*
X196465498Y-74262580D01*
X196524463Y-74372894D01*
X196603815Y-74469585D01*
X196700506Y-74548937D01*
X196810820Y-74607902D01*
X196930518Y-74644212D01*
X197055000Y-74656472D01*
X198755000Y-74656472D01*
X198879482Y-74644212D01*
X198999180Y-74607902D01*
X199109494Y-74548937D01*
X199206185Y-74469585D01*
X199285537Y-74372894D01*
X199344502Y-74262580D01*
X199380812Y-74142882D01*
X199393072Y-74018400D01*
X199393072Y-72318400D01*
X199380812Y-72193918D01*
X199344502Y-72074220D01*
X199285537Y-71963906D01*
X199206185Y-71867215D01*
X199109494Y-71787863D01*
X198999180Y-71728898D01*
X198879482Y-71692588D01*
X198755000Y-71680328D01*
X197055000Y-71680328D01*
X196930518Y-71692588D01*
X196810820Y-71728898D01*
X196700506Y-71787863D01*
X196603815Y-71867215D01*
X196524463Y-71963906D01*
X196465498Y-72074220D01*
X196441034Y-72154866D01*
X196365269Y-72070812D01*
X196131920Y-71896759D01*
X195869099Y-71771575D01*
X195721890Y-71726924D01*
X195492000Y-71848245D01*
X195238000Y-71848245D01*
X195008110Y-71726924D01*
X194860901Y-71771575D01*
X194598080Y-71896759D01*
X194364731Y-72070812D01*
X194169822Y-72287045D01*
X194100195Y-72403934D01*
X193978475Y-72221768D01*
X193771632Y-72014925D01*
X193585000Y-71890222D01*
X193585000Y-68446578D01*
X193771632Y-68321875D01*
X193978475Y-68115032D01*
X194100195Y-67932866D01*
X194169822Y-68049755D01*
X194364731Y-68265988D01*
X194598080Y-68440041D01*
X194860901Y-68565225D01*
X195008110Y-68609876D01*
X195238000Y-68488555D01*
X195238000Y-67295400D01*
X195218000Y-67295400D01*
X195218000Y-67041400D01*
X195238000Y-67041400D01*
X195238000Y-65848245D01*
X195492000Y-65848245D01*
X195492000Y-67041400D01*
X195512000Y-67041400D01*
X195512000Y-67295400D01*
X195492000Y-67295400D01*
X195492000Y-68488555D01*
X195721890Y-68609876D01*
X195869099Y-68565225D01*
X196131920Y-68440041D01*
X196365269Y-68265988D01*
X196441034Y-68181934D01*
X196465498Y-68262580D01*
X196524463Y-68372894D01*
X196603815Y-68469585D01*
X196700506Y-68548937D01*
X196810820Y-68607902D01*
X196930518Y-68644212D01*
X197055000Y-68656472D01*
X198755000Y-68656472D01*
X198879482Y-68644212D01*
X198999180Y-68607902D01*
X199109494Y-68548937D01*
X199206185Y-68469585D01*
X199285537Y-68372894D01*
X199344502Y-68262580D01*
X199380812Y-68142882D01*
X199393072Y-68018400D01*
X199393072Y-66318400D01*
X199380812Y-66193918D01*
X199344502Y-66074220D01*
X199285537Y-65963906D01*
X199206185Y-65867215D01*
X199109494Y-65787863D01*
X198999180Y-65728898D01*
X198879482Y-65692588D01*
X198755000Y-65680328D01*
X197055000Y-65680328D01*
X196930518Y-65692588D01*
X196810820Y-65728898D01*
X196700506Y-65787863D01*
X196603815Y-65867215D01*
X196524463Y-65963906D01*
X196465498Y-66074220D01*
X196441034Y-66154866D01*
X196365269Y-66070812D01*
X196131920Y-65896759D01*
X195869099Y-65771575D01*
X195721890Y-65726924D01*
X195492000Y-65848245D01*
X195238000Y-65848245D01*
X195008110Y-65726924D01*
X194860901Y-65771575D01*
X194598080Y-65896759D01*
X194364731Y-66070812D01*
X194169822Y-66287045D01*
X194100195Y-66403934D01*
X193978475Y-66221768D01*
X193771632Y-66014925D01*
X193585000Y-65890222D01*
X193585000Y-60446578D01*
X193771632Y-60321875D01*
X193978475Y-60115032D01*
X194100195Y-59932866D01*
X194169822Y-60049755D01*
X194364731Y-60265988D01*
X194598080Y-60440041D01*
X194860901Y-60565225D01*
X195008110Y-60609876D01*
X195238000Y-60488555D01*
X195238000Y-59295400D01*
X195218000Y-59295400D01*
X195218000Y-59041400D01*
X195238000Y-59041400D01*
X195238000Y-57848245D01*
X195492000Y-57848245D01*
X195492000Y-59041400D01*
X195512000Y-59041400D01*
X195512000Y-59295400D01*
X195492000Y-59295400D01*
X195492000Y-60488555D01*
X195721890Y-60609876D01*
X195869099Y-60565225D01*
X196131920Y-60440041D01*
X196365269Y-60265988D01*
X196441034Y-60181934D01*
X196465498Y-60262580D01*
X196524463Y-60372894D01*
X196603815Y-60469585D01*
X196700506Y-60548937D01*
X196810820Y-60607902D01*
X196930518Y-60644212D01*
X197055000Y-60656472D01*
X198755000Y-60656472D01*
X198879482Y-60644212D01*
X198999180Y-60607902D01*
X199109494Y-60548937D01*
X199206185Y-60469585D01*
X199285537Y-60372894D01*
X199344502Y-60262580D01*
X199380812Y-60142882D01*
X199393072Y-60018400D01*
X199393072Y-58318400D01*
X199380812Y-58193918D01*
X199344502Y-58074220D01*
X199285537Y-57963906D01*
X199206185Y-57867215D01*
X199109494Y-57787863D01*
X198999180Y-57728898D01*
X198879482Y-57692588D01*
X198755000Y-57680328D01*
X197055000Y-57680328D01*
X196930518Y-57692588D01*
X196810820Y-57728898D01*
X196700506Y-57787863D01*
X196603815Y-57867215D01*
X196524463Y-57963906D01*
X196465498Y-58074220D01*
X196441034Y-58154866D01*
X196365269Y-58070812D01*
X196131920Y-57896759D01*
X195869099Y-57771575D01*
X195721890Y-57726924D01*
X195492000Y-57848245D01*
X195238000Y-57848245D01*
X195008110Y-57726924D01*
X194860901Y-57771575D01*
X194598080Y-57896759D01*
X194364731Y-58070812D01*
X194169822Y-58287045D01*
X194100195Y-58403934D01*
X193978475Y-58221768D01*
X193771632Y-58014925D01*
X193585000Y-57890222D01*
X193585000Y-54446578D01*
X193771632Y-54321875D01*
X193978475Y-54115032D01*
X194100195Y-53932866D01*
X194169822Y-54049755D01*
X194364731Y-54265988D01*
X194598080Y-54440041D01*
X194860901Y-54565225D01*
X195008110Y-54609876D01*
X195238000Y-54488555D01*
X195238000Y-53295400D01*
X195218000Y-53295400D01*
X195218000Y-53041400D01*
X195238000Y-53041400D01*
X195238000Y-51848245D01*
X195492000Y-51848245D01*
X195492000Y-53041400D01*
X195512000Y-53041400D01*
X195512000Y-53295400D01*
X195492000Y-53295400D01*
X195492000Y-54488555D01*
X195721890Y-54609876D01*
X195869099Y-54565225D01*
X196131920Y-54440041D01*
X196365269Y-54265988D01*
X196441034Y-54181934D01*
X196465498Y-54262580D01*
X196524463Y-54372894D01*
X196603815Y-54469585D01*
X196700506Y-54548937D01*
X196810820Y-54607902D01*
X196930518Y-54644212D01*
X197055000Y-54656472D01*
X198755000Y-54656472D01*
X198879482Y-54644212D01*
X198999180Y-54607902D01*
X199109494Y-54548937D01*
X199206185Y-54469585D01*
X199285537Y-54372894D01*
X199344502Y-54262580D01*
X199380812Y-54142882D01*
X199393072Y-54018400D01*
X199393072Y-52318400D01*
X199380812Y-52193918D01*
X199344502Y-52074220D01*
X199285537Y-51963906D01*
X199206185Y-51867215D01*
X199109494Y-51787863D01*
X198999180Y-51728898D01*
X198956122Y-51715836D01*
X199500581Y-51171377D01*
X199535685Y-51178360D01*
X199818355Y-51178360D01*
X200095594Y-51123213D01*
X200356747Y-51015040D01*
X200591779Y-50857997D01*
X200791657Y-50658119D01*
X200811541Y-50628360D01*
X203606499Y-50628360D01*
X203626383Y-50658119D01*
X203826261Y-50857997D01*
X204061293Y-51015040D01*
X204322446Y-51123213D01*
X204599685Y-51178360D01*
X204882355Y-51178360D01*
X205159594Y-51123213D01*
X205420747Y-51015040D01*
X205655779Y-50857997D01*
X205855657Y-50658119D01*
X206012700Y-50423087D01*
X206120873Y-50161934D01*
X206176020Y-49884695D01*
X206176020Y-49602025D01*
X206120873Y-49324786D01*
X206012700Y-49063633D01*
X205855657Y-48828601D01*
X205655779Y-48628723D01*
X205420747Y-48471680D01*
X205159594Y-48363507D01*
X204882355Y-48308360D01*
X204599685Y-48308360D01*
X204322446Y-48363507D01*
X204061293Y-48471680D01*
X203826261Y-48628723D01*
X203626383Y-48828601D01*
X203606499Y-48858360D01*
X200811541Y-48858360D01*
X200791657Y-48828601D01*
X200591779Y-48628723D01*
X200356747Y-48471680D01*
X200095594Y-48363507D01*
X199818355Y-48308360D01*
X199535685Y-48308360D01*
X199258446Y-48363507D01*
X198997293Y-48471680D01*
X198762261Y-48628723D01*
X198562383Y-48828601D01*
X198405340Y-49063633D01*
X198297167Y-49324786D01*
X198242020Y-49602025D01*
X198242020Y-49884695D01*
X198249003Y-49919799D01*
X197309951Y-50858851D01*
X197276184Y-50886563D01*
X197248471Y-50920331D01*
X197248468Y-50920334D01*
X197165590Y-51021321D01*
X197083412Y-51175067D01*
X197032805Y-51341890D01*
X197015719Y-51515380D01*
X197020001Y-51558859D01*
X197020001Y-51683775D01*
X196930518Y-51692588D01*
X196810820Y-51728898D01*
X196700506Y-51787863D01*
X196603815Y-51867215D01*
X196524463Y-51963906D01*
X196465498Y-52074220D01*
X196441034Y-52154866D01*
X196365269Y-52070812D01*
X196131920Y-51896759D01*
X195869099Y-51771575D01*
X195721890Y-51726924D01*
X195492000Y-51848245D01*
X195238000Y-51848245D01*
X195008110Y-51726924D01*
X194860901Y-51771575D01*
X194598080Y-51896759D01*
X194364731Y-52070812D01*
X194169822Y-52287045D01*
X194100195Y-52403934D01*
X193978475Y-52221768D01*
X193771632Y-52014925D01*
X193585000Y-51890222D01*
X193585000Y-51612922D01*
X193588676Y-51575599D01*
X193585000Y-51538276D01*
X193585000Y-51538267D01*
X193574003Y-51426614D01*
X193530546Y-51283353D01*
X193459974Y-51151324D01*
X193365001Y-51035599D01*
X193335997Y-51011796D01*
X193027224Y-50703023D01*
X193003421Y-50674019D01*
X192887696Y-50579046D01*
X192755667Y-50508474D01*
X192612406Y-50465017D01*
X192500753Y-50454020D01*
X192500742Y-50454020D01*
X192463420Y-50450344D01*
X192426098Y-50454020D01*
X185204150Y-50454020D01*
X184037611Y-49389289D01*
X183896765Y-49248443D01*
X183925790Y-49229049D01*
X184050124Y-49104715D01*
X184686310Y-49104715D01*
X184762518Y-49352584D01*
X185024545Y-49477303D01*
X185305869Y-49548508D01*
X185595679Y-49563459D01*
X185882837Y-49521585D01*
X186156308Y-49424494D01*
X186290842Y-49352584D01*
X186367050Y-49104715D01*
X185526680Y-48264345D01*
X184686310Y-49104715D01*
X184050124Y-49104715D01*
X184130989Y-49023850D01*
X184253969Y-48839797D01*
X184258836Y-48848902D01*
X184506705Y-48925110D01*
X185347075Y-48084740D01*
X185706285Y-48084740D01*
X186546655Y-48925110D01*
X186794524Y-48848902D01*
X186919243Y-48586875D01*
X186990448Y-48305551D01*
X187005399Y-48015741D01*
X186963525Y-47728583D01*
X186866434Y-47455112D01*
X186794524Y-47320578D01*
X186546655Y-47244370D01*
X185706285Y-48084740D01*
X185347075Y-48084740D01*
X184506705Y-47244370D01*
X184258836Y-47320578D01*
X184254281Y-47330148D01*
X184130989Y-47145630D01*
X184050124Y-47064765D01*
X184686310Y-47064765D01*
X185526680Y-47905135D01*
X186367050Y-47064765D01*
X186290842Y-46816896D01*
X186028815Y-46692177D01*
X185747491Y-46620972D01*
X185457681Y-46606021D01*
X185170523Y-46647895D01*
X184897052Y-46744986D01*
X184762518Y-46816896D01*
X184686310Y-47064765D01*
X184050124Y-47064765D01*
X183925790Y-46940431D01*
X183684502Y-46779207D01*
X183416397Y-46668154D01*
X183131778Y-46611540D01*
X182841582Y-46611540D01*
X182556963Y-46668154D01*
X182504620Y-46689835D01*
X182504620Y-44188511D01*
X182546017Y-44147114D01*
X182659285Y-43977596D01*
X182737306Y-43789238D01*
X182777080Y-43589279D01*
X182777080Y-43385401D01*
X182737306Y-43185442D01*
X182659285Y-42997084D01*
X182546017Y-42827566D01*
X182401854Y-42683403D01*
X182232336Y-42570135D01*
X182043978Y-42492114D01*
X181844019Y-42452340D01*
X181640141Y-42452340D01*
X181440182Y-42492114D01*
X181251824Y-42570135D01*
X181082306Y-42683403D01*
X180938143Y-42827566D01*
X180824875Y-42997084D01*
X180746854Y-43185442D01*
X180707080Y-43385401D01*
X180707080Y-43589279D01*
X180746854Y-43789238D01*
X180824875Y-43977596D01*
X180938143Y-44147114D01*
X180984620Y-44193591D01*
X180984620Y-46712982D01*
X180876397Y-46668154D01*
X180591778Y-46611540D01*
X180301582Y-46611540D01*
X180016963Y-46668154D01*
X179748858Y-46779207D01*
X179507570Y-46940431D01*
X179360277Y-47087724D01*
X179334382Y-47002360D01*
X179275417Y-46892046D01*
X179196065Y-46795355D01*
X179099374Y-46716003D01*
X178989060Y-46657038D01*
X178869362Y-46620728D01*
X178744880Y-46608468D01*
X177068480Y-46608468D01*
X177031655Y-46612095D01*
X177032745Y-45537966D01*
X177077397Y-45493314D01*
X177190665Y-45323796D01*
X177268686Y-45135438D01*
X177308460Y-44935479D01*
X177308460Y-44731601D01*
X177268686Y-44531642D01*
X177190665Y-44343284D01*
X177077397Y-44173766D01*
X177033460Y-44129829D01*
X177033460Y-41653075D01*
X177208858Y-41770273D01*
X177476963Y-41881326D01*
X177761582Y-41937940D01*
X178051778Y-41937940D01*
X178336397Y-41881326D01*
X178604502Y-41770273D01*
X178845790Y-41609049D01*
X179050989Y-41403850D01*
X179176680Y-41215741D01*
X179302371Y-41403850D01*
X179507570Y-41609049D01*
X179748858Y-41770273D01*
X180016963Y-41881326D01*
X180301582Y-41937940D01*
X180591778Y-41937940D01*
X180876397Y-41881326D01*
X181144502Y-41770273D01*
X181385790Y-41609049D01*
X181590989Y-41403850D01*
X181716680Y-41215741D01*
X181842371Y-41403850D01*
X182047570Y-41609049D01*
X182288858Y-41770273D01*
X182556963Y-41881326D01*
X182841582Y-41937940D01*
X183131778Y-41937940D01*
X183416397Y-41881326D01*
X183684502Y-41770273D01*
X183925790Y-41609049D01*
X184130989Y-41403850D01*
X184256680Y-41215741D01*
X184382371Y-41403850D01*
X184587570Y-41609049D01*
X184828858Y-41770273D01*
X185096963Y-41881326D01*
X185381582Y-41937940D01*
X185671778Y-41937940D01*
X185956397Y-41881326D01*
X186224502Y-41770273D01*
X186465790Y-41609049D01*
X186670989Y-41403850D01*
X186832213Y-41162562D01*
X186943266Y-40894457D01*
X186999880Y-40609838D01*
X186999880Y-40319642D01*
X186943266Y-40035023D01*
X186832213Y-39766918D01*
X186670989Y-39525630D01*
X186488499Y-39343140D01*
X187918281Y-39343140D01*
X187918281Y-39482618D01*
X187888521Y-39502503D01*
X187688643Y-39702381D01*
X187531600Y-39937413D01*
X187423427Y-40198566D01*
X187368280Y-40475805D01*
X187368280Y-40758475D01*
X187423427Y-41035714D01*
X187508931Y-41242140D01*
X187423427Y-41448566D01*
X187368280Y-41725805D01*
X187368280Y-42008475D01*
X187423427Y-42285714D01*
X187531600Y-42546867D01*
X187688643Y-42781899D01*
X187888521Y-42981777D01*
X188123553Y-43138820D01*
X188384706Y-43246993D01*
X188661945Y-43302140D01*
X188944615Y-43302140D01*
X189221854Y-43246993D01*
X189483007Y-43138820D01*
X189718039Y-42981777D01*
X189917917Y-42781899D01*
X190074960Y-42546867D01*
X190183133Y-42285714D01*
X190238280Y-42008475D01*
X190238280Y-41725805D01*
X190183133Y-41448566D01*
X190097629Y-41242140D01*
X190183133Y-41035714D01*
X190238280Y-40758475D01*
X190238280Y-40475805D01*
X190183133Y-40198566D01*
X190074960Y-39937413D01*
X189917917Y-39702381D01*
X189718039Y-39502503D01*
X189688280Y-39482619D01*
X189688280Y-38822221D01*
X190484220Y-39602792D01*
X190484221Y-44106560D01*
X185877331Y-44106560D01*
X185833394Y-44062623D01*
X185663876Y-43949355D01*
X185475518Y-43871334D01*
X185275559Y-43831560D01*
X185071681Y-43831560D01*
X184871722Y-43871334D01*
X184683364Y-43949355D01*
X184513846Y-44062623D01*
X184369683Y-44206786D01*
X184256415Y-44376304D01*
X184178394Y-44564662D01*
X184138620Y-44764621D01*
X184138620Y-44968499D01*
X184178394Y-45168458D01*
X184256415Y-45356816D01*
X184369683Y-45526334D01*
X184513846Y-45670497D01*
X184683364Y-45783765D01*
X184871722Y-45861786D01*
X185071681Y-45901560D01*
X185275559Y-45901560D01*
X185475518Y-45861786D01*
X185663876Y-45783765D01*
X185833394Y-45670497D01*
X185877331Y-45626560D01*
X188069079Y-45626560D01*
X188061766Y-45630469D01*
X187990183Y-45874438D01*
X188795774Y-46680029D01*
X188732768Y-46676923D01*
X188472083Y-46715548D01*
X187810578Y-46054043D01*
X187566609Y-46125626D01*
X187445709Y-46381136D01*
X187376980Y-46655324D01*
X187363063Y-46937652D01*
X187404493Y-47217270D01*
X187499677Y-47483432D01*
X187508122Y-47499232D01*
X187445709Y-47631136D01*
X187376980Y-47905324D01*
X187363063Y-48187652D01*
X187404493Y-48467270D01*
X187499677Y-48733432D01*
X187566609Y-48858654D01*
X187810578Y-48930237D01*
X188476254Y-48264561D01*
X188591464Y-48293440D01*
X188796479Y-48303546D01*
X187990183Y-49109842D01*
X188061766Y-49353811D01*
X188317276Y-49474711D01*
X188591464Y-49543440D01*
X188873792Y-49557357D01*
X189153410Y-49515927D01*
X189419572Y-49420743D01*
X189544794Y-49353811D01*
X189616377Y-49109842D01*
X188810786Y-48304251D01*
X188873792Y-48307357D01*
X189134477Y-48268732D01*
X189795982Y-48930237D01*
X190039951Y-48858654D01*
X190160851Y-48603144D01*
X190229580Y-48328956D01*
X190243497Y-48046628D01*
X190202067Y-47767010D01*
X190106883Y-47500848D01*
X190098438Y-47485048D01*
X190160851Y-47353144D01*
X190229580Y-47078956D01*
X190243497Y-46796628D01*
X190202067Y-46517010D01*
X190106883Y-46250848D01*
X190039951Y-46125626D01*
X189795982Y-46054043D01*
X189130306Y-46719719D01*
X189015096Y-46690840D01*
X188810081Y-46680734D01*
X189616377Y-45874438D01*
X189544794Y-45630469D01*
X189536533Y-45626560D01*
X191206887Y-45626560D01*
X191244220Y-45630237D01*
X191281553Y-45626560D01*
X192093498Y-45626560D01*
X192295195Y-45828257D01*
X192318998Y-45857261D01*
X192372977Y-45901560D01*
X192434722Y-45952234D01*
X192492468Y-45983100D01*
X192566752Y-46022806D01*
X192710013Y-46066263D01*
X192780171Y-46073173D01*
X192907605Y-46263892D01*
X193114448Y-46470735D01*
X193288840Y-46587260D01*
X193114448Y-46703785D01*
X192907605Y-46910628D01*
X192745090Y-47153849D01*
X192633148Y-47424102D01*
X192576080Y-47711000D01*
X192576080Y-48003520D01*
X192633148Y-48290418D01*
X192745090Y-48560671D01*
X192907605Y-48803892D01*
X193114448Y-49010735D01*
X193357669Y-49173250D01*
X193627922Y-49285192D01*
X193914820Y-49342260D01*
X194207340Y-49342260D01*
X194494238Y-49285192D01*
X194764491Y-49173250D01*
X195007712Y-49010735D01*
X195214555Y-48803892D01*
X195377070Y-48560671D01*
X195489012Y-48290418D01*
X195546080Y-48003520D01*
X195546080Y-47767261D01*
X200853577Y-47767261D01*
X200890899Y-47770937D01*
X200928221Y-47767261D01*
X200928232Y-47767261D01*
X201039885Y-47756264D01*
X201183146Y-47712807D01*
X201315175Y-47642235D01*
X201430900Y-47547262D01*
X201454703Y-47518258D01*
X205252024Y-43720938D01*
X205281021Y-43697141D01*
X205375994Y-43581416D01*
X205446566Y-43449387D01*
X205490023Y-43306126D01*
X205501020Y-43194473D01*
X205501020Y-43194464D01*
X205504696Y-43157141D01*
X205501020Y-43119818D01*
X205501020Y-40801403D01*
X205655779Y-40697997D01*
X205855657Y-40498119D01*
X206012700Y-40263087D01*
X206120873Y-40001934D01*
X206176020Y-39724695D01*
X206176020Y-39442025D01*
X206120873Y-39164786D01*
X206012700Y-38903633D01*
X205855657Y-38668601D01*
X205655779Y-38468723D01*
X205420747Y-38311680D01*
X205159594Y-38203507D01*
X204882355Y-38148360D01*
X204599685Y-38148360D01*
X204417134Y-38184672D01*
X195823542Y-29591081D01*
X195740560Y-29508099D01*
X195740560Y-28179872D01*
X201454400Y-28179872D01*
X201454400Y-28620128D01*
X201540290Y-29051925D01*
X201708769Y-29458669D01*
X201953362Y-29824729D01*
X202264671Y-30136038D01*
X202630731Y-30380631D01*
X203037475Y-30549110D01*
X203469272Y-30635000D01*
X203909528Y-30635000D01*
X204341325Y-30549110D01*
X204748069Y-30380631D01*
X205114129Y-30136038D01*
X205425438Y-29824729D01*
X205670031Y-29458669D01*
X205838510Y-29051925D01*
X205924400Y-28620128D01*
X205924400Y-28179872D01*
X205838510Y-27748075D01*
X205670031Y-27341331D01*
X205425438Y-26975271D01*
X205114129Y-26663962D01*
X204748069Y-26419369D01*
X204341325Y-26250890D01*
X203909528Y-26165000D01*
X203469272Y-26165000D01*
X203037475Y-26250890D01*
X202630731Y-26419369D01*
X202264671Y-26663962D01*
X201953362Y-26975271D01*
X201708769Y-27341331D01*
X201540290Y-27748075D01*
X201454400Y-28179872D01*
X195740560Y-28179872D01*
X195740560Y-24648291D01*
X195784497Y-24604354D01*
X195897765Y-24434836D01*
X195975786Y-24246478D01*
X196015560Y-24046519D01*
X196015560Y-23842641D01*
X195975786Y-23642682D01*
X195897765Y-23454324D01*
X195784497Y-23284806D01*
X195640334Y-23140643D01*
X195470816Y-23027375D01*
X195282458Y-22949354D01*
X195082499Y-22909580D01*
X194878621Y-22909580D01*
X194678662Y-22949354D01*
X194674689Y-22951000D01*
X194785367Y-22877047D01*
X194957387Y-22705027D01*
X195092543Y-22502752D01*
X195185640Y-22277996D01*
X195233100Y-22039397D01*
X195233100Y-21796123D01*
X195185640Y-21557524D01*
X195092543Y-21332768D01*
X194957387Y-21130493D01*
X194785367Y-20958473D01*
X194583092Y-20823317D01*
X194358336Y-20730220D01*
X194119737Y-20682760D01*
X193876463Y-20682760D01*
X193637864Y-20730220D01*
X193413108Y-20823317D01*
X193210833Y-20958473D01*
X193038813Y-21130493D01*
X192903657Y-21332768D01*
X192810560Y-21557524D01*
X192763100Y-21796123D01*
X192763100Y-22039397D01*
X192810560Y-22277996D01*
X192903657Y-22502752D01*
X193038813Y-22705027D01*
X193210833Y-22877047D01*
X193413108Y-23012203D01*
X193637864Y-23105300D01*
X193876463Y-23152760D01*
X194119737Y-23152760D01*
X194358336Y-23105300D01*
X194398708Y-23088577D01*
X194320786Y-23140643D01*
X194176623Y-23284806D01*
X194063355Y-23454324D01*
X193985334Y-23642682D01*
X193945560Y-23842641D01*
X193945560Y-24046519D01*
X193985334Y-24246478D01*
X194063355Y-24434836D01*
X194077076Y-24455372D01*
X193772611Y-24251934D01*
X193361318Y-24081571D01*
X192924691Y-23994720D01*
X192479509Y-23994720D01*
X192042882Y-24081571D01*
X191887375Y-24145984D01*
X191887490Y-24143287D01*
X191847225Y-23883416D01*
X191757035Y-23636394D01*
X191703137Y-23535557D01*
X191469369Y-23476096D01*
X190727705Y-24217760D01*
X190741848Y-24231903D01*
X190562243Y-24411508D01*
X190548100Y-24397365D01*
X189806436Y-25139029D01*
X189865897Y-25372797D01*
X190104342Y-25483694D01*
X190359840Y-25545943D01*
X190546187Y-25553892D01*
X190528951Y-25595502D01*
X190444276Y-26021189D01*
X189707705Y-26757760D01*
X190449369Y-27499424D01*
X190683137Y-27439963D01*
X190721237Y-27358042D01*
X190946644Y-27695386D01*
X191261434Y-28010176D01*
X191631589Y-28257506D01*
X192042882Y-28427869D01*
X192479509Y-28514720D01*
X192924691Y-28514720D01*
X193361318Y-28427869D01*
X193772611Y-28257506D01*
X194142766Y-28010176D01*
X194220560Y-27932382D01*
X194220560Y-29031660D01*
X189832493Y-29031660D01*
X189795160Y-29027983D01*
X189757827Y-29031660D01*
X189646174Y-29042657D01*
X189502913Y-29086114D01*
X189370884Y-29156686D01*
X189255159Y-29251659D01*
X189231361Y-29280657D01*
X187271970Y-31240049D01*
X187119496Y-31209720D01*
X186844704Y-31209720D01*
X186575193Y-31263329D01*
X186321320Y-31368487D01*
X186092839Y-31521153D01*
X185898533Y-31715459D01*
X185745867Y-31943940D01*
X185714270Y-32020221D01*
X185707844Y-32002394D01*
X185646125Y-31886926D01*
X185406237Y-31820189D01*
X184621705Y-32604720D01*
X185406237Y-33389251D01*
X185646125Y-33322514D01*
X185711700Y-33183013D01*
X185745867Y-33265500D01*
X185898533Y-33493981D01*
X186092839Y-33688287D01*
X186321320Y-33840953D01*
X186575193Y-33946111D01*
X186844704Y-33999720D01*
X187119496Y-33999720D01*
X187389007Y-33946111D01*
X187642880Y-33840953D01*
X187871361Y-33688287D01*
X188065667Y-33493981D01*
X188218333Y-33265500D01*
X188252100Y-33183980D01*
X188285867Y-33265500D01*
X188438533Y-33493981D01*
X188632839Y-33688287D01*
X188861320Y-33840953D01*
X189115193Y-33946111D01*
X189384704Y-33999720D01*
X189526599Y-33999720D01*
X189501563Y-34030226D01*
X189442598Y-34140540D01*
X189406288Y-34260238D01*
X189397626Y-34348187D01*
X189335667Y-34255459D01*
X189141361Y-34061153D01*
X188912880Y-33908487D01*
X188659007Y-33803329D01*
X188389496Y-33749720D01*
X188114704Y-33749720D01*
X187845193Y-33803329D01*
X187591320Y-33908487D01*
X187362839Y-34061153D01*
X187168533Y-34255459D01*
X187015867Y-34483940D01*
X186984270Y-34560221D01*
X186977844Y-34542394D01*
X186916125Y-34426926D01*
X186676237Y-34360189D01*
X185891705Y-35144720D01*
X186676237Y-35929251D01*
X186916125Y-35862514D01*
X186981700Y-35723013D01*
X187015867Y-35805500D01*
X187168533Y-36033981D01*
X187362839Y-36228287D01*
X187456381Y-36290790D01*
X187467538Y-36404067D01*
X187510994Y-36547328D01*
X187542716Y-36606676D01*
X187546554Y-36619327D01*
X187617126Y-36751356D01*
X187712099Y-36867081D01*
X187741101Y-36890882D01*
X188423358Y-37573140D01*
X181466440Y-37573140D01*
X181466440Y-37408781D01*
X181426666Y-37208822D01*
X181348645Y-37020464D01*
X181235377Y-36850946D01*
X181091214Y-36706783D01*
X180921696Y-36593515D01*
X180733338Y-36515494D01*
X180533379Y-36475720D01*
X180329501Y-36475720D01*
X180129542Y-36515494D01*
X179941184Y-36593515D01*
X179771666Y-36706783D01*
X179727729Y-36750720D01*
X176511532Y-36750720D01*
X176383950Y-36738154D01*
X176383949Y-36738154D01*
X176234964Y-36752828D01*
X176205661Y-36761717D01*
X176091704Y-36796284D01*
X175959674Y-36866856D01*
X175843949Y-36961829D01*
X175820149Y-36990829D01*
X175762461Y-37048518D01*
X175733459Y-37072319D01*
X175678331Y-37139494D01*
X175638486Y-37188044D01*
X175622221Y-37218474D01*
X175567914Y-37320074D01*
X175524457Y-37463335D01*
X175513460Y-37574988D01*
X175513460Y-37574998D01*
X175509784Y-37612320D01*
X175513460Y-37649643D01*
X175513461Y-44129828D01*
X175469523Y-44173766D01*
X175356255Y-44343284D01*
X175278234Y-44531642D01*
X175238460Y-44731601D01*
X175238460Y-44935479D01*
X175278234Y-45135438D01*
X175356255Y-45323796D01*
X175469523Y-45493314D01*
X175512747Y-45536538D01*
X175509159Y-49071890D01*
X175469523Y-49111526D01*
X175356255Y-49281044D01*
X175278234Y-49469402D01*
X175238460Y-49669361D01*
X175238460Y-49873239D01*
X175255987Y-49961354D01*
X175135394Y-49997934D01*
X175127974Y-50001900D01*
X172968761Y-50001900D01*
X172938980Y-49972119D01*
X172938980Y-43374605D01*
X172942594Y-43342172D01*
X172938980Y-43299945D01*
X172938980Y-25015781D01*
X173296040Y-25372842D01*
X173296041Y-47580038D01*
X173296040Y-47580048D01*
X173296040Y-47726469D01*
X173252103Y-47770406D01*
X173138835Y-47939924D01*
X173060814Y-48128282D01*
X173021040Y-48328241D01*
X173021040Y-48532119D01*
X173060814Y-48732078D01*
X173138835Y-48920436D01*
X173252103Y-49089954D01*
X173396266Y-49234117D01*
X173565784Y-49347385D01*
X173754142Y-49425406D01*
X173954101Y-49465180D01*
X174157979Y-49465180D01*
X174357938Y-49425406D01*
X174546296Y-49347385D01*
X174715814Y-49234117D01*
X174859977Y-49089954D01*
X174973245Y-48920436D01*
X175051266Y-48732078D01*
X175091040Y-48532119D01*
X175091040Y-48328241D01*
X175051266Y-48128282D01*
X174973245Y-47939924D01*
X174859977Y-47770406D01*
X174816040Y-47726469D01*
X174816040Y-36108857D01*
X184927569Y-36108857D01*
X184994306Y-36348745D01*
X185242992Y-36465644D01*
X185509706Y-36531781D01*
X185784197Y-36544615D01*
X186055917Y-36503651D01*
X186314426Y-36410464D01*
X186429894Y-36348745D01*
X186496631Y-36108857D01*
X185712100Y-35324325D01*
X184927569Y-36108857D01*
X174816040Y-36108857D01*
X174816040Y-35216817D01*
X184312205Y-35216817D01*
X184353169Y-35488537D01*
X184446356Y-35747046D01*
X184508075Y-35862514D01*
X184747963Y-35929251D01*
X185532495Y-35144720D01*
X184747963Y-34360189D01*
X184508075Y-34426926D01*
X184391176Y-34675612D01*
X184325039Y-34942326D01*
X184312205Y-35216817D01*
X174816040Y-35216817D01*
X174816040Y-34180583D01*
X184927569Y-34180583D01*
X185712100Y-34965115D01*
X186496631Y-34180583D01*
X186429894Y-33940695D01*
X186181208Y-33823796D01*
X185914494Y-33757659D01*
X185640003Y-33744825D01*
X185368283Y-33785789D01*
X185109774Y-33878976D01*
X184994306Y-33940695D01*
X184927569Y-34180583D01*
X174816040Y-34180583D01*
X174816040Y-33568857D01*
X183657569Y-33568857D01*
X183724306Y-33808745D01*
X183972992Y-33925644D01*
X184239706Y-33991781D01*
X184514197Y-34004615D01*
X184785917Y-33963651D01*
X185044426Y-33870464D01*
X185159894Y-33808745D01*
X185226631Y-33568857D01*
X184442100Y-32784325D01*
X183657569Y-33568857D01*
X174816040Y-33568857D01*
X174816040Y-32676817D01*
X183042205Y-32676817D01*
X183083169Y-32948537D01*
X183176356Y-33207046D01*
X183238075Y-33322514D01*
X183477963Y-33389251D01*
X184262495Y-32604720D01*
X183477963Y-31820189D01*
X183238075Y-31886926D01*
X183121176Y-32135612D01*
X183055039Y-32402326D01*
X183042205Y-32676817D01*
X174816040Y-32676817D01*
X174816040Y-31640583D01*
X183657569Y-31640583D01*
X184442100Y-32425115D01*
X185226631Y-31640583D01*
X185159894Y-31400695D01*
X184911208Y-31283796D01*
X184644494Y-31217659D01*
X184370003Y-31204825D01*
X184098283Y-31245789D01*
X183839774Y-31338976D01*
X183724306Y-31400695D01*
X183657569Y-31640583D01*
X174816040Y-31640583D01*
X174816040Y-26032129D01*
X180282100Y-26032129D01*
X180282100Y-26477311D01*
X180368951Y-26913938D01*
X180539314Y-27325231D01*
X180786644Y-27695386D01*
X181101434Y-28010176D01*
X181471589Y-28257506D01*
X181882882Y-28427869D01*
X182319509Y-28514720D01*
X182764691Y-28514720D01*
X183201318Y-28427869D01*
X183612611Y-28257506D01*
X183982766Y-28010176D01*
X184297556Y-27695386D01*
X184383284Y-27567086D01*
X184411138Y-27608773D01*
X184597087Y-27794722D01*
X184815741Y-27940821D01*
X185058695Y-28041456D01*
X185316614Y-28092760D01*
X185579586Y-28092760D01*
X185837505Y-28041456D01*
X186080459Y-27940821D01*
X186299113Y-27794722D01*
X186468100Y-27625735D01*
X186637087Y-27794722D01*
X186855741Y-27940821D01*
X187098695Y-28041456D01*
X187356614Y-28092760D01*
X187619586Y-28092760D01*
X187877505Y-28041456D01*
X188120459Y-27940821D01*
X188339113Y-27794722D01*
X188454806Y-27679029D01*
X188786436Y-27679029D01*
X188845897Y-27912797D01*
X189084342Y-28023694D01*
X189339840Y-28085943D01*
X189602573Y-28097150D01*
X189862444Y-28056885D01*
X190109466Y-27966695D01*
X190210303Y-27912797D01*
X190269764Y-27679029D01*
X189528100Y-26937365D01*
X188786436Y-27679029D01*
X188454806Y-27679029D01*
X188525062Y-27608773D01*
X188599391Y-27497531D01*
X188606831Y-27499424D01*
X189348495Y-26757760D01*
X188606831Y-26016096D01*
X188599391Y-26017989D01*
X188525062Y-25906747D01*
X188454806Y-25836491D01*
X188786436Y-25836491D01*
X189528100Y-26578155D01*
X190269764Y-25836491D01*
X190210303Y-25602723D01*
X189971858Y-25491826D01*
X189716360Y-25429577D01*
X189453627Y-25418370D01*
X189193756Y-25458635D01*
X188946734Y-25548825D01*
X188845897Y-25602723D01*
X188786436Y-25836491D01*
X188454806Y-25836491D01*
X188339113Y-25720798D01*
X188120459Y-25574699D01*
X187877505Y-25474064D01*
X187619586Y-25422760D01*
X187356614Y-25422760D01*
X187098695Y-25474064D01*
X186855741Y-25574699D01*
X186637087Y-25720798D01*
X186468100Y-25889785D01*
X186299113Y-25720798D01*
X186080459Y-25574699D01*
X185837505Y-25474064D01*
X185579586Y-25422760D01*
X185316614Y-25422760D01*
X185058695Y-25474064D01*
X184815741Y-25574699D01*
X184723386Y-25636408D01*
X184715249Y-25595502D01*
X184544886Y-25184209D01*
X184297556Y-24814054D01*
X183982766Y-24499264D01*
X183612611Y-24251934D01*
X183212673Y-24086274D01*
X185133100Y-24086274D01*
X185133100Y-24349246D01*
X185184404Y-24607165D01*
X185285039Y-24850119D01*
X185431138Y-25068773D01*
X185617087Y-25254722D01*
X185835741Y-25400821D01*
X186078695Y-25501456D01*
X186336614Y-25552760D01*
X186599586Y-25552760D01*
X186857505Y-25501456D01*
X187100459Y-25400821D01*
X187319113Y-25254722D01*
X187488100Y-25085735D01*
X187657087Y-25254722D01*
X187875741Y-25400821D01*
X188118695Y-25501456D01*
X188376614Y-25552760D01*
X188639586Y-25552760D01*
X188897505Y-25501456D01*
X189140459Y-25400821D01*
X189359113Y-25254722D01*
X189545062Y-25068773D01*
X189619391Y-24957531D01*
X189626831Y-24959424D01*
X190368495Y-24217760D01*
X189626831Y-23476096D01*
X189619391Y-23477989D01*
X189545062Y-23366747D01*
X189474806Y-23296491D01*
X189806436Y-23296491D01*
X190548100Y-24038155D01*
X191289764Y-23296491D01*
X191230303Y-23062723D01*
X190991858Y-22951826D01*
X190736360Y-22889577D01*
X190473627Y-22878370D01*
X190213756Y-22918635D01*
X189966734Y-23008825D01*
X189865897Y-23062723D01*
X189806436Y-23296491D01*
X189474806Y-23296491D01*
X189359113Y-23180798D01*
X189140459Y-23034699D01*
X188897505Y-22934064D01*
X188639586Y-22882760D01*
X188376614Y-22882760D01*
X188118695Y-22934064D01*
X187875741Y-23034699D01*
X187657087Y-23180798D01*
X187488100Y-23349785D01*
X187319113Y-23180798D01*
X187100459Y-23034699D01*
X186857505Y-22934064D01*
X186599586Y-22882760D01*
X186336614Y-22882760D01*
X186078695Y-22934064D01*
X185835741Y-23034699D01*
X185617087Y-23180798D01*
X185431138Y-23366747D01*
X185285039Y-23585401D01*
X185184404Y-23828355D01*
X185133100Y-24086274D01*
X183212673Y-24086274D01*
X183201318Y-24081571D01*
X182764691Y-23994720D01*
X182319509Y-23994720D01*
X181882882Y-24081571D01*
X181471589Y-24251934D01*
X181101434Y-24499264D01*
X180786644Y-24814054D01*
X180539314Y-25184209D01*
X180368951Y-25595502D01*
X180282100Y-26032129D01*
X174816040Y-26032129D01*
X174816040Y-25389040D01*
X174834623Y-25327778D01*
X174855842Y-25257826D01*
X174870516Y-25108841D01*
X174862423Y-25026672D01*
X174855842Y-24959854D01*
X174812386Y-24816593D01*
X174741814Y-24684563D01*
X174670639Y-24597837D01*
X174646841Y-24568839D01*
X174617843Y-24545041D01*
X174410659Y-24337857D01*
X174458000Y-24305361D01*
X174458000Y-23114000D01*
X174712000Y-23114000D01*
X174712000Y-24305361D01*
X174894744Y-24430803D01*
X174921147Y-24430399D01*
X175137754Y-24342850D01*
X175333119Y-24214725D01*
X175335000Y-24212876D01*
X175336881Y-24214725D01*
X175532246Y-24342850D01*
X175748853Y-24430399D01*
X175775256Y-24430803D01*
X175958000Y-24305361D01*
X175958000Y-23114000D01*
X176212000Y-23114000D01*
X176212000Y-24305361D01*
X176394744Y-24430803D01*
X176421147Y-24430399D01*
X176637754Y-24342850D01*
X176833119Y-24214725D01*
X176999734Y-24050948D01*
X177131196Y-23857813D01*
X177222454Y-23642742D01*
X177270000Y-23414000D01*
X177270000Y-23114000D01*
X176212000Y-23114000D01*
X175958000Y-23114000D01*
X174712000Y-23114000D01*
X174458000Y-23114000D01*
X174438000Y-23114000D01*
X174438000Y-22860000D01*
X174458000Y-22860000D01*
X174458000Y-21668639D01*
X174712000Y-21668639D01*
X174712000Y-22860000D01*
X175958000Y-22860000D01*
X175958000Y-21668639D01*
X176212000Y-21668639D01*
X176212000Y-22860000D01*
X177270000Y-22860000D01*
X177270000Y-22560000D01*
X177222454Y-22331258D01*
X177131196Y-22116187D01*
X176999734Y-21923052D01*
X176870606Y-21796123D01*
X180763100Y-21796123D01*
X180763100Y-22039397D01*
X180810560Y-22277996D01*
X180903657Y-22502752D01*
X181038813Y-22705027D01*
X181210833Y-22877047D01*
X181413108Y-23012203D01*
X181637864Y-23105300D01*
X181876463Y-23152760D01*
X182119737Y-23152760D01*
X182358336Y-23105300D01*
X182583092Y-23012203D01*
X182785367Y-22877047D01*
X182957387Y-22705027D01*
X183092543Y-22502752D01*
X183185640Y-22277996D01*
X183233100Y-22039397D01*
X183233100Y-21796123D01*
X183185640Y-21557524D01*
X183092543Y-21332768D01*
X182957387Y-21130493D01*
X182785367Y-20958473D01*
X182583092Y-20823317D01*
X182358336Y-20730220D01*
X182119737Y-20682760D01*
X181876463Y-20682760D01*
X181637864Y-20730220D01*
X181413108Y-20823317D01*
X181210833Y-20958473D01*
X181038813Y-21130493D01*
X180903657Y-21332768D01*
X180810560Y-21557524D01*
X180763100Y-21796123D01*
X176870606Y-21796123D01*
X176833119Y-21759275D01*
X176637754Y-21631150D01*
X176421147Y-21543601D01*
X176394744Y-21543197D01*
X176212000Y-21668639D01*
X175958000Y-21668639D01*
X175775256Y-21543197D01*
X175748853Y-21543601D01*
X175532246Y-21631150D01*
X175336881Y-21759275D01*
X175335000Y-21761124D01*
X175333119Y-21759275D01*
X175137754Y-21631150D01*
X174921147Y-21543601D01*
X174894744Y-21543197D01*
X174712000Y-21668639D01*
X174458000Y-21668639D01*
X174275256Y-21543197D01*
X174248853Y-21543601D01*
X174032246Y-21631150D01*
X173836881Y-21759275D01*
X173830332Y-21765712D01*
X173746535Y-21696942D01*
X173540673Y-21586906D01*
X173317299Y-21519147D01*
X173085000Y-21496267D01*
X172852700Y-21519147D01*
X172629326Y-21586906D01*
X172423464Y-21696942D01*
X172335000Y-21769543D01*
X172246535Y-21696942D01*
X172040673Y-21586906D01*
X171817299Y-21519147D01*
X171585000Y-21496267D01*
X171352700Y-21519147D01*
X171129326Y-21586906D01*
X170966587Y-21673892D01*
X170917630Y-21633714D01*
X170779359Y-21559807D01*
X170629328Y-21514295D01*
X170473300Y-21498928D01*
X169696700Y-21498928D01*
X169540672Y-21514295D01*
X169390641Y-21559807D01*
X169252370Y-21633714D01*
X169131176Y-21733176D01*
X169031714Y-21854370D01*
X168957807Y-21992641D01*
X168912295Y-22142672D01*
X168896928Y-22298700D01*
X168896928Y-23675300D01*
X168912295Y-23831328D01*
X168957807Y-23981359D01*
X169031714Y-24119630D01*
X169131176Y-24240824D01*
X169252370Y-24340286D01*
X169390641Y-24414193D01*
X169540672Y-24459705D01*
X169696700Y-24475072D01*
X170473300Y-24475072D01*
X170629328Y-24459705D01*
X170779359Y-24414193D01*
X170874611Y-24363280D01*
X170879454Y-24379246D01*
X170950026Y-24511276D01*
X170999558Y-24571630D01*
X171045000Y-24627001D01*
X171073998Y-24650799D01*
X171418980Y-24995782D01*
X171418981Y-42562612D01*
X170689380Y-42553276D01*
X170553695Y-42350208D01*
X170346852Y-42143365D01*
X170172460Y-42026840D01*
X170346852Y-41910315D01*
X170553695Y-41703472D01*
X170716210Y-41460251D01*
X170828152Y-41189998D01*
X170885220Y-40903100D01*
X170885220Y-40610580D01*
X170828152Y-40323682D01*
X170716210Y-40053429D01*
X170553695Y-39810208D01*
X170346852Y-39603365D01*
X170103631Y-39440850D01*
X169833378Y-39328908D01*
X169546480Y-39271840D01*
X169253960Y-39271840D01*
X168967062Y-39328908D01*
X168696809Y-39440850D01*
X168453588Y-39603365D01*
X168246745Y-39810208D01*
X168084230Y-40053429D01*
X167972288Y-40323682D01*
X167915220Y-40610580D01*
X167915220Y-40903100D01*
X167972288Y-41189998D01*
X168084230Y-41460251D01*
X168246745Y-41703472D01*
X168453588Y-41910315D01*
X168627980Y-42026840D01*
X168453588Y-42143365D01*
X168246745Y-42350208D01*
X168084230Y-42593429D01*
X167972288Y-42863682D01*
X167915220Y-43150580D01*
X167915220Y-43443100D01*
X167972288Y-43729998D01*
X168084230Y-44000251D01*
X168246745Y-44243472D01*
X168453588Y-44450315D01*
X168627980Y-44566840D01*
X168453588Y-44683365D01*
X168246745Y-44890208D01*
X168084230Y-45133429D01*
X167972288Y-45403682D01*
X167915220Y-45690580D01*
X167915220Y-45983100D01*
X167972288Y-46269998D01*
X168084230Y-46540251D01*
X168246745Y-46783472D01*
X168453588Y-46990315D01*
X168627980Y-47106840D01*
X168453588Y-47223365D01*
X168246745Y-47430208D01*
X168084230Y-47673429D01*
X167972288Y-47943682D01*
X167915220Y-48230580D01*
X167915220Y-48523100D01*
X167972288Y-48809998D01*
X168084230Y-49080251D01*
X168246745Y-49323472D01*
X168453588Y-49530315D01*
X168627980Y-49646840D01*
X168453588Y-49763365D01*
X168246745Y-49970208D01*
X168084230Y-50213429D01*
X167972288Y-50483682D01*
X167915220Y-50770580D01*
X167915220Y-51063100D01*
X167972288Y-51349998D01*
X168084230Y-51620251D01*
X168246745Y-51863472D01*
X168453588Y-52070315D01*
X168627980Y-52186840D01*
X168453588Y-52303365D01*
X168246745Y-52510208D01*
X168084230Y-52753429D01*
X167972288Y-53023682D01*
X167915220Y-53310580D01*
X167915220Y-53603100D01*
X167972288Y-53889998D01*
X168084230Y-54160251D01*
X168246745Y-54403472D01*
X168453588Y-54610315D01*
X168627980Y-54726840D01*
X168453588Y-54843365D01*
X168246745Y-55050208D01*
X168084230Y-55293429D01*
X167972288Y-55563682D01*
X167915220Y-55850580D01*
X167915220Y-56143100D01*
X167972288Y-56429998D01*
X168084230Y-56700251D01*
X168246745Y-56943472D01*
X168453588Y-57150315D01*
X168627980Y-57266840D01*
X168453588Y-57383365D01*
X168246745Y-57590208D01*
X168084230Y-57833429D01*
X167972288Y-58103682D01*
X167915220Y-58390580D01*
X167915220Y-58683100D01*
X167972288Y-58969998D01*
X168084230Y-59240251D01*
X168246745Y-59483472D01*
X168453588Y-59690315D01*
X168627980Y-59806840D01*
X168453588Y-59923365D01*
X168246745Y-60130208D01*
X168084230Y-60373429D01*
X167972288Y-60643682D01*
X167915220Y-60930580D01*
X167915220Y-61223100D01*
X167972288Y-61509998D01*
X168084230Y-61780251D01*
X168246745Y-62023472D01*
X168453588Y-62230315D01*
X168627980Y-62346840D01*
X168453588Y-62463365D01*
X168246745Y-62670208D01*
X168084230Y-62913429D01*
X167972288Y-63183682D01*
X167915220Y-63470580D01*
X167915220Y-63763100D01*
X167972288Y-64049998D01*
X168084230Y-64320251D01*
X168246745Y-64563472D01*
X168453588Y-64770315D01*
X168627980Y-64886840D01*
X168453588Y-65003365D01*
X168246745Y-65210208D01*
X168084230Y-65453429D01*
X167972288Y-65723682D01*
X167915220Y-66010580D01*
X167915220Y-66303100D01*
X167972288Y-66589998D01*
X167990440Y-66633820D01*
X167157242Y-66633820D01*
X161089264Y-60565843D01*
X161065461Y-60536839D01*
X160949736Y-60441866D01*
X160817707Y-60371294D01*
X160674446Y-60327837D01*
X160562793Y-60316840D01*
X160562782Y-60316840D01*
X160525460Y-60313164D01*
X160488138Y-60316840D01*
X147818398Y-60316840D01*
X147693695Y-60130208D01*
X147486852Y-59923365D01*
X147312460Y-59806840D01*
X147486852Y-59690315D01*
X147693695Y-59483472D01*
X147856210Y-59240251D01*
X147968152Y-58969998D01*
X148025220Y-58683100D01*
X148025220Y-58390580D01*
X147968152Y-58103682D01*
X147856210Y-57833429D01*
X147693695Y-57590208D01*
X147486852Y-57383365D01*
X147312460Y-57266840D01*
X147486852Y-57150315D01*
X147693695Y-56943472D01*
X147856210Y-56700251D01*
X147968152Y-56429998D01*
X148025220Y-56143100D01*
X148025220Y-55850580D01*
X147968152Y-55563682D01*
X147856210Y-55293429D01*
X147693695Y-55050208D01*
X147486852Y-54843365D01*
X147312460Y-54726840D01*
X147486852Y-54610315D01*
X147693695Y-54403472D01*
X147856210Y-54160251D01*
X147968152Y-53889998D01*
X148025220Y-53603100D01*
X148025220Y-53310580D01*
X147968152Y-53023682D01*
X147856210Y-52753429D01*
X147693695Y-52510208D01*
X147486852Y-52303365D01*
X147312460Y-52186840D01*
X147486852Y-52070315D01*
X147693695Y-51863472D01*
X147856210Y-51620251D01*
X147968152Y-51349998D01*
X148025220Y-51063100D01*
X148025220Y-50770580D01*
X147968152Y-50483682D01*
X147856210Y-50213429D01*
X147693695Y-49970208D01*
X147486852Y-49763365D01*
X147312460Y-49646840D01*
X147486852Y-49530315D01*
X147693695Y-49323472D01*
X147856210Y-49080251D01*
X147968152Y-48809998D01*
X148025220Y-48523100D01*
X148025220Y-48230580D01*
X147968152Y-47943682D01*
X147856210Y-47673429D01*
X147693695Y-47430208D01*
X147486852Y-47223365D01*
X147312460Y-47106840D01*
X147486852Y-46990315D01*
X147693695Y-46783472D01*
X147856210Y-46540251D01*
X147968152Y-46269998D01*
X148025220Y-45983100D01*
X148025220Y-45690580D01*
X147968152Y-45403682D01*
X147856210Y-45133429D01*
X147693695Y-44890208D01*
X147486852Y-44683365D01*
X147312460Y-44566840D01*
X147486852Y-44450315D01*
X147693695Y-44243472D01*
X147856210Y-44000251D01*
X147968152Y-43729998D01*
X148025220Y-43443100D01*
X148025220Y-43150580D01*
X147968152Y-42863682D01*
X147856210Y-42593429D01*
X147693695Y-42350208D01*
X147486852Y-42143365D01*
X147312460Y-42026840D01*
X147486852Y-41910315D01*
X147693695Y-41703472D01*
X147856210Y-41460251D01*
X147968152Y-41189998D01*
X148025220Y-40903100D01*
X148025220Y-40610580D01*
X147968152Y-40323682D01*
X147856210Y-40053429D01*
X147693695Y-39810208D01*
X147486852Y-39603365D01*
X147243631Y-39440850D01*
X146973378Y-39328908D01*
X146686480Y-39271840D01*
X146393960Y-39271840D01*
X146107062Y-39328908D01*
X145836809Y-39440850D01*
X145593588Y-39603365D01*
X145386745Y-39810208D01*
X145224230Y-40053429D01*
X145112288Y-40323682D01*
X145055220Y-40610580D01*
X140360000Y-40610580D01*
X140360000Y-30508169D01*
X140435088Y-29165108D01*
X140601728Y-28179872D01*
X141454400Y-28179872D01*
X141454400Y-28620128D01*
X141540290Y-29051925D01*
X141708769Y-29458669D01*
X141953362Y-29824729D01*
X142264671Y-30136038D01*
X142630731Y-30380631D01*
X143037475Y-30549110D01*
X143469272Y-30635000D01*
X143909528Y-30635000D01*
X144341325Y-30549110D01*
X144748069Y-30380631D01*
X145114129Y-30136038D01*
X145425438Y-29824729D01*
X145670031Y-29458669D01*
X145838510Y-29051925D01*
X145924400Y-28620128D01*
X145924400Y-28179872D01*
X145838510Y-27748075D01*
X145670031Y-27341331D01*
X145425438Y-26975271D01*
X145114129Y-26663962D01*
X144748069Y-26419369D01*
X144341325Y-26250890D01*
X143909528Y-26165000D01*
X143469272Y-26165000D01*
X143037475Y-26250890D01*
X142630731Y-26419369D01*
X142264671Y-26663962D01*
X141953362Y-26975271D01*
X141708769Y-27341331D01*
X141540290Y-27748075D01*
X141454400Y-28179872D01*
X140601728Y-28179872D01*
X140659803Y-27836519D01*
X141031219Y-26541236D01*
X141544698Y-25295442D01*
X142193848Y-24114645D01*
X142970571Y-23013570D01*
X143073161Y-22898019D01*
X154579800Y-22898019D01*
X154579800Y-23279181D01*
X154654161Y-23653019D01*
X154800025Y-24005166D01*
X155011787Y-24322091D01*
X155281309Y-24591613D01*
X155598234Y-24803375D01*
X155950381Y-24949239D01*
X156324219Y-25023600D01*
X156705381Y-25023600D01*
X157079219Y-24949239D01*
X157431366Y-24803375D01*
X157625587Y-24673601D01*
X158651332Y-24673601D01*
X158694801Y-24677882D01*
X158738270Y-24673601D01*
X158738278Y-24673601D01*
X158845571Y-24663034D01*
X158898691Y-24673600D01*
X159210909Y-24673600D01*
X159517127Y-24612689D01*
X159805579Y-24493209D01*
X159863236Y-24454684D01*
X159868988Y-24513082D01*
X159905298Y-24632780D01*
X159964263Y-24743094D01*
X160043615Y-24839785D01*
X160140306Y-24919137D01*
X160250620Y-24978102D01*
X160370318Y-25014412D01*
X160494800Y-25026672D01*
X161309050Y-25023600D01*
X161467800Y-24864850D01*
X161467800Y-23215600D01*
X161721800Y-23215600D01*
X161721800Y-24864850D01*
X161880550Y-25023600D01*
X162694800Y-25026672D01*
X162819282Y-25014412D01*
X162938980Y-24978102D01*
X163049294Y-24919137D01*
X163145985Y-24839785D01*
X163225337Y-24743094D01*
X163284302Y-24632780D01*
X163320612Y-24513082D01*
X163332872Y-24388600D01*
X163329800Y-23374350D01*
X163171050Y-23215600D01*
X161721800Y-23215600D01*
X161467800Y-23215600D01*
X161447800Y-23215600D01*
X161447800Y-22961600D01*
X161467800Y-22961600D01*
X161467800Y-21312350D01*
X161721800Y-21312350D01*
X161721800Y-22961600D01*
X163171050Y-22961600D01*
X163329800Y-22802850D01*
X163332872Y-21788600D01*
X163320612Y-21664118D01*
X163284302Y-21544420D01*
X163225337Y-21434106D01*
X163145985Y-21337415D01*
X163049294Y-21258063D01*
X162938980Y-21199098D01*
X162819282Y-21162788D01*
X162694800Y-21150528D01*
X161880550Y-21153600D01*
X161721800Y-21312350D01*
X161467800Y-21312350D01*
X161309050Y-21153600D01*
X160494800Y-21150528D01*
X160370318Y-21162788D01*
X160250620Y-21199098D01*
X160140306Y-21258063D01*
X160043615Y-21337415D01*
X159964263Y-21434106D01*
X159905298Y-21544420D01*
X159868988Y-21664118D01*
X159863236Y-21722516D01*
X159805579Y-21683991D01*
X159517127Y-21564511D01*
X159210909Y-21503600D01*
X158898691Y-21503600D01*
X158592473Y-21564511D01*
X158304021Y-21683991D01*
X158044421Y-21857450D01*
X158029408Y-21872463D01*
X158017813Y-21855109D01*
X157748291Y-21585587D01*
X157431366Y-21373825D01*
X157079219Y-21227961D01*
X156705381Y-21153600D01*
X156324219Y-21153600D01*
X155950381Y-21227961D01*
X155598234Y-21373825D01*
X155281309Y-21585587D01*
X155011787Y-21855109D01*
X154800025Y-22172034D01*
X154654161Y-22524181D01*
X154579800Y-22898019D01*
X143073161Y-22898019D01*
X143865191Y-22005934D01*
X144866562Y-21104297D01*
X145962187Y-20319906D01*
X147138422Y-19662531D01*
X148380609Y-19140363D01*
X149673251Y-18759918D01*
X151000246Y-18525933D01*
X152362342Y-18440238D01*
X152430476Y-18440000D01*
X195498385Y-18440000D01*
X196863297Y-18516310D01*
G37*
X196863297Y-18516310D02*
X198195800Y-18741686D01*
X199494898Y-19114196D01*
X200744365Y-19629190D01*
X201928638Y-20280250D01*
X203032958Y-21059263D01*
X204043563Y-21956519D01*
X204947853Y-22960834D01*
X205734560Y-24059696D01*
X206393869Y-25239390D01*
X206917577Y-26485243D01*
X207299141Y-27781689D01*
X207533816Y-29112595D01*
X207619761Y-30478655D01*
X207620000Y-30547038D01*
X207620001Y-87597711D01*
X207605278Y-87747869D01*
X207571047Y-87861246D01*
X207515446Y-87965817D01*
X207440594Y-88057595D01*
X207349335Y-88133091D01*
X207245160Y-88189419D01*
X207132024Y-88224440D01*
X206983979Y-88240000D01*
X141002279Y-88240000D01*
X140852131Y-88225278D01*
X140738754Y-88191047D01*
X140634183Y-88135446D01*
X140542405Y-88060594D01*
X140466909Y-87969335D01*
X140410581Y-87865160D01*
X140375560Y-87752024D01*
X140360000Y-87603979D01*
X140360000Y-84965237D01*
X145691428Y-84965237D01*
X145769063Y-85214312D01*
X146033103Y-85340211D01*
X146316631Y-85412179D01*
X146608751Y-85427451D01*
X146898239Y-85385439D01*
X147173967Y-85287759D01*
X147311377Y-85214312D01*
X147389012Y-84965237D01*
X168551428Y-84965237D01*
X168629063Y-85214312D01*
X168893103Y-85340211D01*
X169176631Y-85412179D01*
X169468751Y-85427451D01*
X169758239Y-85385439D01*
X170033967Y-85287759D01*
X170171377Y-85214312D01*
X170249012Y-84965237D01*
X169400220Y-84116445D01*
X168551428Y-84965237D01*
X147389012Y-84965237D01*
X146540220Y-84116445D01*
X145691428Y-84965237D01*
X140360000Y-84965237D01*
X140360000Y-84005371D01*
X145049609Y-84005371D01*
X145091621Y-84294859D01*
X145189301Y-84570587D01*
X145262748Y-84707997D01*
X145511823Y-84785632D01*
X146360615Y-83936840D01*
X146719825Y-83936840D01*
X147568617Y-84785632D01*
X147817692Y-84707997D01*
X147943591Y-84443957D01*
X148015559Y-84160429D01*
X148023665Y-84005371D01*
X167909609Y-84005371D01*
X167951621Y-84294859D01*
X168049301Y-84570587D01*
X168122748Y-84707997D01*
X168371823Y-84785632D01*
X169220615Y-83936840D01*
X169579825Y-83936840D01*
X170428617Y-84785632D01*
X170677692Y-84707997D01*
X170803591Y-84443957D01*
X170875559Y-84160429D01*
X170890831Y-83868309D01*
X170848819Y-83578821D01*
X170751139Y-83303093D01*
X170685277Y-83179872D01*
X182454400Y-83179872D01*
X182454400Y-83620128D01*
X182540290Y-84051925D01*
X182708769Y-84458669D01*
X182953362Y-84824729D01*
X183264671Y-85136038D01*
X183630731Y-85380631D01*
X184037475Y-85549110D01*
X184469272Y-85635000D01*
X184909528Y-85635000D01*
X185341325Y-85549110D01*
X185748069Y-85380631D01*
X186114129Y-85136038D01*
X186425438Y-84824729D01*
X186670031Y-84458669D01*
X186838510Y-84051925D01*
X186924400Y-83620128D01*
X186924400Y-83179872D01*
X186838510Y-82748075D01*
X186670031Y-82341331D01*
X186425438Y-81975271D01*
X186114129Y-81663962D01*
X185748069Y-81419369D01*
X185341325Y-81250890D01*
X184909528Y-81165000D01*
X184469272Y-81165000D01*
X184037475Y-81250890D01*
X183630731Y-81419369D01*
X183264671Y-81663962D01*
X182953362Y-81975271D01*
X182708769Y-82341331D01*
X182540290Y-82748075D01*
X182454400Y-83179872D01*
X170685277Y-83179872D01*
X170677692Y-83165683D01*
X170428617Y-83088048D01*
X169579825Y-83936840D01*
X169220615Y-83936840D01*
X168371823Y-83088048D01*
X168122748Y-83165683D01*
X167996849Y-83429723D01*
X167924881Y-83713251D01*
X167909609Y-84005371D01*
X148023665Y-84005371D01*
X148030831Y-83868309D01*
X147988819Y-83578821D01*
X147891139Y-83303093D01*
X147817692Y-83165683D01*
X147568617Y-83088048D01*
X146719825Y-83936840D01*
X146360615Y-83936840D01*
X145511823Y-83088048D01*
X145262748Y-83165683D01*
X145136849Y-83429723D01*
X145064881Y-83713251D01*
X145049609Y-84005371D01*
X140360000Y-84005371D01*
X140360000Y-40610580D01*
X145055220Y-40610580D01*
X145055220Y-40903100D01*
X145112288Y-41189998D01*
X145224230Y-41460251D01*
X145386745Y-41703472D01*
X145593588Y-41910315D01*
X145767980Y-42026840D01*
X145593588Y-42143365D01*
X145386745Y-42350208D01*
X145224230Y-42593429D01*
X145112288Y-42863682D01*
X145055220Y-43150580D01*
X145055220Y-43443100D01*
X145112288Y-43729998D01*
X145224230Y-44000251D01*
X145386745Y-44243472D01*
X145593588Y-44450315D01*
X145767980Y-44566840D01*
X145593588Y-44683365D01*
X145386745Y-44890208D01*
X145224230Y-45133429D01*
X145112288Y-45403682D01*
X145055220Y-45690580D01*
X145055220Y-45983100D01*
X145112288Y-46269998D01*
X145224230Y-46540251D01*
X145386745Y-46783472D01*
X145593588Y-46990315D01*
X145767980Y-47106840D01*
X145593588Y-47223365D01*
X145386745Y-47430208D01*
X145224230Y-47673429D01*
X145112288Y-47943682D01*
X145055220Y-48230580D01*
X145055220Y-48523100D01*
X145112288Y-48809998D01*
X145224230Y-49080251D01*
X145386745Y-49323472D01*
X145593588Y-49530315D01*
X145767980Y-49646840D01*
X145593588Y-49763365D01*
X145386745Y-49970208D01*
X145224230Y-50213429D01*
X145112288Y-50483682D01*
X145055220Y-50770580D01*
X145055220Y-51063100D01*
X145112288Y-51349998D01*
X145224230Y-51620251D01*
X145386745Y-51863472D01*
X145593588Y-52070315D01*
X145767980Y-52186840D01*
X145593588Y-52303365D01*
X145386745Y-52510208D01*
X145224230Y-52753429D01*
X145112288Y-53023682D01*
X145055220Y-53310580D01*
X145055220Y-53603100D01*
X145112288Y-53889998D01*
X145224230Y-54160251D01*
X145386745Y-54403472D01*
X145593588Y-54610315D01*
X145767980Y-54726840D01*
X145593588Y-54843365D01*
X145386745Y-55050208D01*
X145224230Y-55293429D01*
X145112288Y-55563682D01*
X145055220Y-55850580D01*
X145055220Y-56143100D01*
X145112288Y-56429998D01*
X145224230Y-56700251D01*
X145386745Y-56943472D01*
X145593588Y-57150315D01*
X145767980Y-57266840D01*
X145593588Y-57383365D01*
X145386745Y-57590208D01*
X145224230Y-57833429D01*
X145112288Y-58103682D01*
X145055220Y-58390580D01*
X145055220Y-58683100D01*
X145112288Y-58969998D01*
X145224230Y-59240251D01*
X145386745Y-59483472D01*
X145593588Y-59690315D01*
X145767980Y-59806840D01*
X145593588Y-59923365D01*
X145386745Y-60130208D01*
X145224230Y-60373429D01*
X145112288Y-60643682D01*
X145055220Y-60930580D01*
X145055220Y-61223100D01*
X145112288Y-61509998D01*
X145224230Y-61780251D01*
X145386745Y-62023472D01*
X145593588Y-62230315D01*
X145767980Y-62346840D01*
X145593588Y-62463365D01*
X145386745Y-62670208D01*
X145224230Y-62913429D01*
X145112288Y-63183682D01*
X145055220Y-63470580D01*
X145055220Y-63763100D01*
X145112288Y-64049998D01*
X145224230Y-64320251D01*
X145386745Y-64563472D01*
X145593588Y-64770315D01*
X145767980Y-64886840D01*
X145593588Y-65003365D01*
X145386745Y-65210208D01*
X145224230Y-65453429D01*
X145112288Y-65723682D01*
X145055220Y-66010580D01*
X145055220Y-66303100D01*
X145112288Y-66589998D01*
X145224230Y-66860251D01*
X145386745Y-67103472D01*
X145593588Y-67310315D01*
X145767980Y-67426840D01*
X145593588Y-67543365D01*
X145386745Y-67750208D01*
X145224230Y-67993429D01*
X145112288Y-68263682D01*
X145055220Y-68550580D01*
X145055220Y-68843100D01*
X145112288Y-69129998D01*
X145224230Y-69400251D01*
X145386745Y-69643472D01*
X145593588Y-69850315D01*
X145767980Y-69966840D01*
X145593588Y-70083365D01*
X145386745Y-70290208D01*
X145224230Y-70533429D01*
X145112288Y-70803682D01*
X145055220Y-71090580D01*
X145055220Y-71383100D01*
X145112288Y-71669998D01*
X145224230Y-71940251D01*
X145386745Y-72183472D01*
X145593588Y-72390315D01*
X145767980Y-72506840D01*
X145593588Y-72623365D01*
X145386745Y-72830208D01*
X145224230Y-73073429D01*
X145112288Y-73343682D01*
X145055220Y-73630580D01*
X145055220Y-73923100D01*
X145112288Y-74209998D01*
X145224230Y-74480251D01*
X145386745Y-74723472D01*
X145593588Y-74930315D01*
X145767980Y-75046840D01*
X145593588Y-75163365D01*
X145386745Y-75370208D01*
X145224230Y-75613429D01*
X145112288Y-75883682D01*
X145055220Y-76170580D01*
X145055220Y-76463100D01*
X145112288Y-76749998D01*
X145224230Y-77020251D01*
X145386745Y-77263472D01*
X145593588Y-77470315D01*
X145767980Y-77586840D01*
X145593588Y-77703365D01*
X145386745Y-77910208D01*
X145224230Y-78153429D01*
X145112288Y-78423682D01*
X145055220Y-78710580D01*
X145055220Y-79003100D01*
X145112288Y-79289998D01*
X145224230Y-79560251D01*
X145386745Y-79803472D01*
X145593588Y-80010315D01*
X145767980Y-80126840D01*
X145593588Y-80243365D01*
X145386745Y-80450208D01*
X145224230Y-80693429D01*
X145112288Y-80963682D01*
X145055220Y-81250580D01*
X145055220Y-81543100D01*
X145112288Y-81829998D01*
X145224230Y-82100251D01*
X145386745Y-82343472D01*
X145593588Y-82550315D01*
X145766949Y-82666151D01*
X145691428Y-82908443D01*
X146540220Y-83757235D01*
X147389012Y-82908443D01*
X147313491Y-82666151D01*
X147486852Y-82550315D01*
X147693695Y-82343472D01*
X147856210Y-82100251D01*
X147968152Y-81829998D01*
X148025220Y-81543100D01*
X148025220Y-81250580D01*
X147968152Y-80963682D01*
X147856210Y-80693429D01*
X147693695Y-80450208D01*
X147486852Y-80243365D01*
X147312460Y-80126840D01*
X147486852Y-80010315D01*
X147693695Y-79803472D01*
X147856210Y-79560251D01*
X147968152Y-79289998D01*
X148025220Y-79003100D01*
X148025220Y-78710580D01*
X147968152Y-78423682D01*
X147856210Y-78153429D01*
X147693695Y-77910208D01*
X147486852Y-77703365D01*
X147312460Y-77586840D01*
X147486852Y-77470315D01*
X147693695Y-77263472D01*
X147856210Y-77020251D01*
X147968152Y-76749998D01*
X148025220Y-76463100D01*
X148025220Y-76170580D01*
X147968152Y-75883682D01*
X147856210Y-75613429D01*
X147693695Y-75370208D01*
X147486852Y-75163365D01*
X147312460Y-75046840D01*
X147486852Y-74930315D01*
X147693695Y-74723472D01*
X147856210Y-74480251D01*
X147968152Y-74209998D01*
X148025220Y-73923100D01*
X148025220Y-73630580D01*
X147968152Y-73343682D01*
X147856210Y-73073429D01*
X147693695Y-72830208D01*
X147486852Y-72623365D01*
X147312460Y-72506840D01*
X147486852Y-72390315D01*
X147693695Y-72183472D01*
X147856210Y-71940251D01*
X147968152Y-71669998D01*
X148025220Y-71383100D01*
X148025220Y-71090580D01*
X147968152Y-70803682D01*
X147856210Y-70533429D01*
X147693695Y-70290208D01*
X147486852Y-70083365D01*
X147312460Y-69966840D01*
X147486852Y-69850315D01*
X147693695Y-69643472D01*
X147856210Y-69400251D01*
X147968152Y-69129998D01*
X148025220Y-68843100D01*
X148025220Y-68550580D01*
X147968152Y-68263682D01*
X147856210Y-67993429D01*
X147693695Y-67750208D01*
X147486852Y-67543365D01*
X147312460Y-67426840D01*
X147486852Y-67310315D01*
X147693695Y-67103472D01*
X147856210Y-66860251D01*
X147968152Y-66589998D01*
X148025220Y-66303100D01*
X148025220Y-66010580D01*
X147968152Y-65723682D01*
X147856210Y-65453429D01*
X147693695Y-65210208D01*
X147486852Y-65003365D01*
X147312460Y-64886840D01*
X147486852Y-64770315D01*
X147693695Y-64563472D01*
X147856210Y-64320251D01*
X147968152Y-64049998D01*
X148025220Y-63763100D01*
X148025220Y-63470580D01*
X147968152Y-63183682D01*
X147856210Y-62913429D01*
X147693695Y-62670208D01*
X147486852Y-62463365D01*
X147312460Y-62346840D01*
X147486852Y-62230315D01*
X147693695Y-62023472D01*
X147818398Y-61836840D01*
X160210659Y-61836840D01*
X166278640Y-67904822D01*
X166302439Y-67933821D01*
X166418164Y-68028794D01*
X166550193Y-68099366D01*
X166693454Y-68142823D01*
X166805107Y-68153820D01*
X166805115Y-68153820D01*
X166842440Y-68157496D01*
X166879765Y-68153820D01*
X168017794Y-68153820D01*
X167972288Y-68263682D01*
X167915220Y-68550580D01*
X167915220Y-68843100D01*
X167972288Y-69129998D01*
X168084230Y-69400251D01*
X168246745Y-69643472D01*
X168453588Y-69850315D01*
X168627980Y-69966840D01*
X168453588Y-70083365D01*
X168246745Y-70290208D01*
X168084230Y-70533429D01*
X167972288Y-70803682D01*
X167915220Y-71090580D01*
X167915220Y-71383100D01*
X167972288Y-71669998D01*
X168084230Y-71940251D01*
X168246745Y-72183472D01*
X168453588Y-72390315D01*
X168627980Y-72506840D01*
X168453588Y-72623365D01*
X168246745Y-72830208D01*
X168084230Y-73073429D01*
X167972288Y-73343682D01*
X167915220Y-73630580D01*
X167915220Y-73923100D01*
X167972288Y-74209998D01*
X168084230Y-74480251D01*
X168246745Y-74723472D01*
X168453588Y-74930315D01*
X168627980Y-75046840D01*
X168453588Y-75163365D01*
X168246745Y-75370208D01*
X168084230Y-75613429D01*
X167972288Y-75883682D01*
X167915220Y-76170580D01*
X167915220Y-76463100D01*
X167972288Y-76749998D01*
X168084230Y-77020251D01*
X168246745Y-77263472D01*
X168453588Y-77470315D01*
X168627980Y-77586840D01*
X168453588Y-77703365D01*
X168246745Y-77910208D01*
X168084230Y-78153429D01*
X167972288Y-78423682D01*
X167915220Y-78710580D01*
X167915220Y-79003100D01*
X167972288Y-79289998D01*
X168084230Y-79560251D01*
X168246745Y-79803472D01*
X168453588Y-80010315D01*
X168627980Y-80126840D01*
X168453588Y-80243365D01*
X168246745Y-80450208D01*
X168084230Y-80693429D01*
X167972288Y-80963682D01*
X167915220Y-81250580D01*
X167915220Y-81543100D01*
X167972288Y-81829998D01*
X168084230Y-82100251D01*
X168246745Y-82343472D01*
X168453588Y-82550315D01*
X168626949Y-82666151D01*
X168551428Y-82908443D01*
X169400220Y-83757235D01*
X170249012Y-82908443D01*
X170173491Y-82666151D01*
X170346852Y-82550315D01*
X170553695Y-82343472D01*
X170716210Y-82100251D01*
X170828152Y-81829998D01*
X170885220Y-81543100D01*
X170885220Y-81250580D01*
X170828152Y-80963682D01*
X170716210Y-80693429D01*
X170553695Y-80450208D01*
X170346852Y-80243365D01*
X170172460Y-80126840D01*
X170291949Y-80047000D01*
X190789928Y-80047000D01*
X190789928Y-81497000D01*
X190806992Y-81670254D01*
X190857528Y-81836850D01*
X190939595Y-81990386D01*
X191050038Y-82124962D01*
X191184614Y-82235405D01*
X191338150Y-82317472D01*
X191504746Y-82368008D01*
X191678000Y-82385072D01*
X192878000Y-82385072D01*
X193051254Y-82368008D01*
X193217850Y-82317472D01*
X193371386Y-82235405D01*
X193505962Y-82124962D01*
X193616405Y-81990386D01*
X193670777Y-81888663D01*
X193722866Y-81952134D01*
X193948987Y-82137706D01*
X194206967Y-82275599D01*
X194486890Y-82360513D01*
X194778000Y-82389185D01*
X195069111Y-82360513D01*
X195349034Y-82275599D01*
X195607014Y-82137706D01*
X195833134Y-81952134D01*
X196018706Y-81726014D01*
X196032462Y-81700278D01*
X196188951Y-81906429D01*
X196406807Y-82099496D01*
X196658142Y-82246352D01*
X196921110Y-82338476D01*
X197151000Y-82217155D01*
X197151000Y-80899000D01*
X197131000Y-80899000D01*
X197131000Y-80645000D01*
X197151000Y-80645000D01*
X197151000Y-79326845D01*
X197405000Y-79326845D01*
X197405000Y-80645000D01*
X197425000Y-80645000D01*
X197425000Y-80899000D01*
X197405000Y-80899000D01*
X197405000Y-82217155D01*
X197634890Y-82338476D01*
X197897858Y-82246352D01*
X198149193Y-82099496D01*
X198367049Y-81906429D01*
X198523538Y-81700278D01*
X198537294Y-81726014D01*
X198722866Y-81952134D01*
X198948987Y-82137706D01*
X199206967Y-82275599D01*
X199486890Y-82360513D01*
X199778000Y-82389185D01*
X200069111Y-82360513D01*
X200349034Y-82275599D01*
X200607014Y-82137706D01*
X200833134Y-81952134D01*
X201018706Y-81726014D01*
X201028000Y-81708626D01*
X201037294Y-81726014D01*
X201222866Y-81952134D01*
X201448987Y-82137706D01*
X201706967Y-82275599D01*
X201986890Y-82360513D01*
X202278000Y-82389185D01*
X202569111Y-82360513D01*
X202849034Y-82275599D01*
X203107014Y-82137706D01*
X203333134Y-81952134D01*
X203518706Y-81726014D01*
X203656599Y-81468033D01*
X203741513Y-81188110D01*
X203763000Y-80969949D01*
X203763000Y-80574050D01*
X203741513Y-80355889D01*
X203656599Y-80075966D01*
X203518706Y-79817986D01*
X203333134Y-79591866D01*
X203107013Y-79406294D01*
X202849033Y-79268401D01*
X202569110Y-79183487D01*
X202278000Y-79154815D01*
X201986889Y-79183487D01*
X201706966Y-79268401D01*
X201448986Y-79406294D01*
X201222866Y-79591866D01*
X201037294Y-79817987D01*
X201028000Y-79835374D01*
X201018706Y-79817986D01*
X200833134Y-79591866D01*
X200607013Y-79406294D01*
X200349033Y-79268401D01*
X200069110Y-79183487D01*
X199778000Y-79154815D01*
X199486889Y-79183487D01*
X199206966Y-79268401D01*
X198948986Y-79406294D01*
X198722866Y-79591866D01*
X198537294Y-79817987D01*
X198523538Y-79843722D01*
X198367049Y-79637571D01*
X198149193Y-79444504D01*
X197897858Y-79297648D01*
X197634890Y-79205524D01*
X197405000Y-79326845D01*
X197151000Y-79326845D01*
X196921110Y-79205524D01*
X196658142Y-79297648D01*
X196406807Y-79444504D01*
X196188951Y-79637571D01*
X196032462Y-79843722D01*
X196018706Y-79817986D01*
X195833134Y-79591866D01*
X195607013Y-79406294D01*
X195349033Y-79268401D01*
X195069110Y-79183487D01*
X194778000Y-79154815D01*
X194486889Y-79183487D01*
X194206966Y-79268401D01*
X193948986Y-79406294D01*
X193722866Y-79591866D01*
X193670777Y-79655337D01*
X193616405Y-79553614D01*
X193505962Y-79419038D01*
X193371386Y-79308595D01*
X193217850Y-79226528D01*
X193051254Y-79175992D01*
X192878000Y-79158928D01*
X191678000Y-79158928D01*
X191504746Y-79175992D01*
X191338150Y-79226528D01*
X191184614Y-79308595D01*
X191050038Y-79419038D01*
X190939595Y-79553614D01*
X190857528Y-79707150D01*
X190806992Y-79873746D01*
X190789928Y-80047000D01*
X170291949Y-80047000D01*
X170346852Y-80010315D01*
X170553695Y-79803472D01*
X170716210Y-79560251D01*
X170828152Y-79289998D01*
X170885220Y-79003100D01*
X170885220Y-78710580D01*
X170828152Y-78423682D01*
X170716210Y-78153429D01*
X170553695Y-77910208D01*
X170346852Y-77703365D01*
X170172460Y-77586840D01*
X170346852Y-77470315D01*
X170553695Y-77263472D01*
X170716210Y-77020251D01*
X170828152Y-76749998D01*
X170885220Y-76463100D01*
X170885220Y-76170580D01*
X170828152Y-75883682D01*
X170716210Y-75613429D01*
X170553695Y-75370208D01*
X170346852Y-75163365D01*
X170172460Y-75046840D01*
X170346852Y-74930315D01*
X170553695Y-74723472D01*
X170716210Y-74480251D01*
X170828152Y-74209998D01*
X170885220Y-73923100D01*
X170885220Y-73630580D01*
X170828152Y-73343682D01*
X170716210Y-73073429D01*
X170553695Y-72830208D01*
X170346852Y-72623365D01*
X170172460Y-72506840D01*
X170346852Y-72390315D01*
X170553695Y-72183472D01*
X170716210Y-71940251D01*
X170828152Y-71669998D01*
X170885220Y-71383100D01*
X170885220Y-71090580D01*
X170828152Y-70803682D01*
X170716210Y-70533429D01*
X170553695Y-70290208D01*
X170346852Y-70083365D01*
X170172460Y-69966840D01*
X170346852Y-69850315D01*
X170553695Y-69643472D01*
X170716210Y-69400251D01*
X170828152Y-69129998D01*
X170885220Y-68843100D01*
X170885220Y-68550580D01*
X170828152Y-68263682D01*
X170782646Y-68153820D01*
X174297499Y-68153820D01*
X175559037Y-69415358D01*
X175559319Y-69415780D01*
X175592757Y-69449129D01*
X175599117Y-69456468D01*
X175618797Y-69475119D01*
X175637997Y-69494319D01*
X175638395Y-69494646D01*
X175665319Y-69521498D01*
X175673453Y-69526917D01*
X176943480Y-70730538D01*
X176943481Y-72746368D01*
X176939804Y-72783700D01*
X176943481Y-72821033D01*
X176951842Y-72905917D01*
X176954478Y-72932685D01*
X176997934Y-73075946D01*
X177068506Y-73207976D01*
X177139681Y-73294702D01*
X177163480Y-73323701D01*
X177192478Y-73347499D01*
X177814700Y-73969722D01*
X177814701Y-76069076D01*
X177659941Y-76172483D01*
X177460063Y-76372361D01*
X177303020Y-76607393D01*
X177194847Y-76868546D01*
X177139700Y-77145785D01*
X177139700Y-77428455D01*
X177194847Y-77705694D01*
X177303020Y-77966847D01*
X177460063Y-78201879D01*
X177659941Y-78401757D01*
X177894973Y-78558800D01*
X178156126Y-78666973D01*
X178433365Y-78722120D01*
X178716035Y-78722120D01*
X178993274Y-78666973D01*
X179254427Y-78558800D01*
X179489459Y-78401757D01*
X179689337Y-78201879D01*
X179846380Y-77966847D01*
X179954553Y-77705694D01*
X180009700Y-77428455D01*
X180009700Y-77145785D01*
X179954553Y-76868546D01*
X179846380Y-76607393D01*
X179689337Y-76372361D01*
X179489459Y-76172483D01*
X179334700Y-76069077D01*
X179334700Y-75840610D01*
X182543424Y-75840610D01*
X182588075Y-75987819D01*
X182713259Y-76250640D01*
X182887312Y-76483989D01*
X183103545Y-76678898D01*
X183353648Y-76827877D01*
X183628009Y-76925201D01*
X183857900Y-76804534D01*
X183857900Y-75610720D01*
X184111900Y-75610720D01*
X184111900Y-76804534D01*
X184341791Y-76925201D01*
X184616152Y-76827877D01*
X184866255Y-76678898D01*
X185082488Y-76483989D01*
X185256541Y-76250640D01*
X185381725Y-75987819D01*
X185426376Y-75840610D01*
X185305055Y-75610720D01*
X184111900Y-75610720D01*
X183857900Y-75610720D01*
X182664745Y-75610720D01*
X182543424Y-75840610D01*
X179334700Y-75840610D01*
X179334700Y-73692242D01*
X179338376Y-73654919D01*
X179334700Y-73617596D01*
X179334700Y-73617587D01*
X179323703Y-73505934D01*
X179280246Y-73362673D01*
X179254582Y-73314660D01*
X179209674Y-73230643D01*
X179138499Y-73143917D01*
X179114701Y-73114919D01*
X179085704Y-73091122D01*
X178463480Y-72468899D01*
X178463480Y-71163720D01*
X182706722Y-71163720D01*
X182831425Y-71350352D01*
X183038268Y-71557195D01*
X183212660Y-71673720D01*
X183038268Y-71790245D01*
X182831425Y-71997088D01*
X182668910Y-72240309D01*
X182556968Y-72510562D01*
X182499900Y-72797460D01*
X182499900Y-73089980D01*
X182556968Y-73376878D01*
X182668910Y-73647131D01*
X182831425Y-73890352D01*
X183038268Y-74097195D01*
X183220434Y-74218915D01*
X183103545Y-74288542D01*
X182887312Y-74483451D01*
X182713259Y-74716800D01*
X182588075Y-74979621D01*
X182543424Y-75126830D01*
X182664745Y-75356720D01*
X183857900Y-75356720D01*
X183857900Y-75336720D01*
X184111900Y-75336720D01*
X184111900Y-75356720D01*
X185305055Y-75356720D01*
X185426376Y-75126830D01*
X185381725Y-74979621D01*
X185256541Y-74716800D01*
X185082488Y-74483451D01*
X184866255Y-74288542D01*
X184749366Y-74218915D01*
X184931532Y-74097195D01*
X185138375Y-73890352D01*
X185300890Y-73647131D01*
X185412832Y-73376878D01*
X185469900Y-73089980D01*
X185469900Y-72797460D01*
X185412832Y-72510562D01*
X185300890Y-72240309D01*
X185138375Y-71997088D01*
X184931532Y-71790245D01*
X184757140Y-71673720D01*
X184931532Y-71557195D01*
X185138375Y-71350352D01*
X185300890Y-71107131D01*
X185412832Y-70836878D01*
X185469900Y-70549980D01*
X185469900Y-70257460D01*
X185412832Y-69970562D01*
X185300890Y-69700309D01*
X185138375Y-69457088D01*
X185006520Y-69325233D01*
X185079080Y-69303222D01*
X185189394Y-69244257D01*
X185286085Y-69164905D01*
X185365437Y-69068214D01*
X185424402Y-68957900D01*
X185460712Y-68838202D01*
X185472972Y-68713720D01*
X185472972Y-67013720D01*
X185460712Y-66889238D01*
X185424402Y-66769540D01*
X185365437Y-66659226D01*
X185286085Y-66562535D01*
X185189394Y-66483183D01*
X185079080Y-66424218D01*
X184959382Y-66387908D01*
X184834900Y-66375648D01*
X183973280Y-66375648D01*
X183973280Y-63704881D01*
X184003039Y-63684997D01*
X184202917Y-63485119D01*
X184359960Y-63250087D01*
X184468133Y-62988934D01*
X184523280Y-62711695D01*
X184523280Y-62429025D01*
X184468133Y-62151786D01*
X184359960Y-61890633D01*
X184202917Y-61655601D01*
X184003039Y-61455723D01*
X183768007Y-61298680D01*
X183506854Y-61190507D01*
X183229615Y-61135360D01*
X182946945Y-61135360D01*
X182669706Y-61190507D01*
X182408553Y-61298680D01*
X182173521Y-61455723D01*
X181973643Y-61655601D01*
X181868900Y-61812360D01*
X179650801Y-61812360D01*
X179630917Y-61782601D01*
X179431039Y-61582723D01*
X179196007Y-61425680D01*
X178934854Y-61317507D01*
X178657615Y-61262360D01*
X178374945Y-61262360D01*
X178097706Y-61317507D01*
X177836553Y-61425680D01*
X177601521Y-61582723D01*
X177401643Y-61782601D01*
X177244600Y-62017633D01*
X177136427Y-62278786D01*
X177081280Y-62556025D01*
X177081280Y-62838695D01*
X177136427Y-63115934D01*
X177244600Y-63377087D01*
X177401643Y-63612119D01*
X177601521Y-63811997D01*
X177631280Y-63831881D01*
X177631281Y-66041143D01*
X177460063Y-66212361D01*
X177303020Y-66447393D01*
X177194847Y-66708546D01*
X177139700Y-66985785D01*
X177139700Y-67268455D01*
X177194847Y-67545694D01*
X177303020Y-67806847D01*
X177460063Y-68041879D01*
X177659941Y-68241757D01*
X177894973Y-68398800D01*
X178156126Y-68506973D01*
X178433365Y-68562120D01*
X178716035Y-68562120D01*
X178993274Y-68506973D01*
X179254427Y-68398800D01*
X179489459Y-68241757D01*
X179689337Y-68041879D01*
X179709221Y-68012120D01*
X182496828Y-68012120D01*
X182496828Y-68713720D01*
X182509088Y-68838202D01*
X182545398Y-68957900D01*
X182604363Y-69068214D01*
X182683715Y-69164905D01*
X182780406Y-69244257D01*
X182890720Y-69303222D01*
X182963280Y-69325233D01*
X182831425Y-69457088D01*
X182706722Y-69643720D01*
X178006399Y-69643720D01*
X176760815Y-68463266D01*
X176707157Y-68363202D01*
X176644701Y-68270000D01*
X176538701Y-68164282D01*
X176414113Y-68081277D01*
X176346770Y-68053488D01*
X175240142Y-66946861D01*
X175176104Y-66882823D01*
X175152301Y-66853819D01*
X175036576Y-66758846D01*
X174904547Y-66688274D01*
X174761286Y-66644817D01*
X174649633Y-66633820D01*
X174649622Y-66633820D01*
X174612300Y-66630144D01*
X174574978Y-66633820D01*
X170810000Y-66633820D01*
X170828152Y-66589998D01*
X170885220Y-66303100D01*
X170885220Y-66010580D01*
X170828152Y-65723682D01*
X170716210Y-65453429D01*
X170553695Y-65210208D01*
X170346852Y-65003365D01*
X170172460Y-64886840D01*
X170346852Y-64770315D01*
X170553695Y-64563472D01*
X170678398Y-64376840D01*
X172710618Y-64376840D01*
X172747940Y-64380516D01*
X172785262Y-64376840D01*
X172785273Y-64376840D01*
X172896926Y-64365843D01*
X173040187Y-64322386D01*
X173172216Y-64251814D01*
X173287941Y-64156841D01*
X173311744Y-64127837D01*
X174617843Y-62821739D01*
X174646841Y-62797941D01*
X174741814Y-62682216D01*
X174812386Y-62550187D01*
X174855843Y-62406926D01*
X174866840Y-62295273D01*
X174866840Y-62295263D01*
X174870516Y-62257940D01*
X174866840Y-62220617D01*
X174866840Y-53269420D01*
X177279568Y-53269420D01*
X177401643Y-53452119D01*
X177601521Y-53651997D01*
X177836553Y-53809040D01*
X178097706Y-53917213D01*
X178374945Y-53972360D01*
X178657615Y-53972360D01*
X178840166Y-53936048D01*
X180543285Y-55639168D01*
X180567079Y-55668161D01*
X180596072Y-55691955D01*
X180596076Y-55691959D01*
X180666765Y-55749971D01*
X180682804Y-55763134D01*
X180814833Y-55833706D01*
X180958094Y-55877163D01*
X181069747Y-55888160D01*
X181069756Y-55888160D01*
X181107079Y-55891836D01*
X181144402Y-55888160D01*
X185057547Y-55888160D01*
X185094880Y-55891837D01*
X185132213Y-55888160D01*
X185243866Y-55877163D01*
X185387127Y-55833706D01*
X185519156Y-55763134D01*
X185634881Y-55668161D01*
X185729854Y-55552436D01*
X185800426Y-55420407D01*
X185843883Y-55277146D01*
X185858557Y-55128160D01*
X185854880Y-55090827D01*
X185854880Y-51974020D01*
X189399587Y-51974020D01*
X189338368Y-52014925D01*
X189131525Y-52221768D01*
X188969010Y-52464989D01*
X188857068Y-52735242D01*
X188800000Y-53022140D01*
X188800000Y-53314660D01*
X188857068Y-53601558D01*
X188969010Y-53871811D01*
X189131525Y-54115032D01*
X189338368Y-54321875D01*
X189525000Y-54446578D01*
X189525001Y-57890221D01*
X189338368Y-58014925D01*
X189131525Y-58221768D01*
X188969010Y-58464989D01*
X188857068Y-58735242D01*
X188800000Y-59022140D01*
X188800000Y-59314660D01*
X188857068Y-59601558D01*
X188969010Y-59871811D01*
X189131525Y-60115032D01*
X189338368Y-60321875D01*
X189525000Y-60446578D01*
X189525001Y-65890221D01*
X189338368Y-66014925D01*
X189131525Y-66221768D01*
X188969010Y-66464989D01*
X188857068Y-66735242D01*
X188800000Y-67022140D01*
X188800000Y-67314660D01*
X188857068Y-67601558D01*
X188969010Y-67871811D01*
X189131525Y-68115032D01*
X189338368Y-68321875D01*
X189525000Y-68446578D01*
X189525001Y-71890221D01*
X189338368Y-72014925D01*
X189131525Y-72221768D01*
X188969010Y-72464989D01*
X188857068Y-72735242D01*
X188800000Y-73022140D01*
X188800000Y-73314660D01*
X188857068Y-73601558D01*
X188969010Y-73871811D01*
X189131525Y-74115032D01*
X189338368Y-74321875D01*
X189581589Y-74484390D01*
X189851842Y-74596332D01*
X190138740Y-74653400D01*
X190431260Y-74653400D01*
X190718158Y-74596332D01*
X190988411Y-74484390D01*
X191231632Y-74321875D01*
X191438475Y-74115032D01*
X191555000Y-73940640D01*
X191671525Y-74115032D01*
X191878368Y-74321875D01*
X192121589Y-74484390D01*
X192391842Y-74596332D01*
X192678740Y-74653400D01*
X192971260Y-74653400D01*
X193258158Y-74596332D01*
X193528411Y-74484390D01*
X193771632Y-74321875D01*
X193978475Y-74115032D01*
X194100195Y-73932866D01*
X194169822Y-74049755D01*
X194364731Y-74265988D01*
X194598080Y-74440041D01*
X194860901Y-74565225D01*
X195008110Y-74609876D01*
X195238000Y-74488555D01*
X195238000Y-73295400D01*
X195218000Y-73295400D01*
X195218000Y-73041400D01*
X195238000Y-73041400D01*
X195238000Y-71848245D01*
X195492000Y-71848245D01*
X195492000Y-73041400D01*
X195512000Y-73041400D01*
X195512000Y-73295400D01*
X195492000Y-73295400D01*
X195492000Y-74488555D01*
X195721890Y-74609876D01*
X195869099Y-74565225D01*
X196131920Y-74440041D01*
X196365269Y-74265988D01*
X196441034Y-74181934D01*
X196465498Y-74262580D01*
X196524463Y-74372894D01*
X196603815Y-74469585D01*
X196700506Y-74548937D01*
X196810820Y-74607902D01*
X196930518Y-74644212D01*
X197055000Y-74656472D01*
X198755000Y-74656472D01*
X198879482Y-74644212D01*
X198999180Y-74607902D01*
X199109494Y-74548937D01*
X199206185Y-74469585D01*
X199285537Y-74372894D01*
X199344502Y-74262580D01*
X199380812Y-74142882D01*
X199393072Y-74018400D01*
X199393072Y-72318400D01*
X199380812Y-72193918D01*
X199344502Y-72074220D01*
X199285537Y-71963906D01*
X199206185Y-71867215D01*
X199109494Y-71787863D01*
X198999180Y-71728898D01*
X198879482Y-71692588D01*
X198755000Y-71680328D01*
X197055000Y-71680328D01*
X196930518Y-71692588D01*
X196810820Y-71728898D01*
X196700506Y-71787863D01*
X196603815Y-71867215D01*
X196524463Y-71963906D01*
X196465498Y-72074220D01*
X196441034Y-72154866D01*
X196365269Y-72070812D01*
X196131920Y-71896759D01*
X195869099Y-71771575D01*
X195721890Y-71726924D01*
X195492000Y-71848245D01*
X195238000Y-71848245D01*
X195008110Y-71726924D01*
X194860901Y-71771575D01*
X194598080Y-71896759D01*
X194364731Y-72070812D01*
X194169822Y-72287045D01*
X194100195Y-72403934D01*
X193978475Y-72221768D01*
X193771632Y-72014925D01*
X193585000Y-71890222D01*
X193585000Y-68446578D01*
X193771632Y-68321875D01*
X193978475Y-68115032D01*
X194100195Y-67932866D01*
X194169822Y-68049755D01*
X194364731Y-68265988D01*
X194598080Y-68440041D01*
X194860901Y-68565225D01*
X195008110Y-68609876D01*
X195238000Y-68488555D01*
X195238000Y-67295400D01*
X195218000Y-67295400D01*
X195218000Y-67041400D01*
X195238000Y-67041400D01*
X195238000Y-65848245D01*
X195492000Y-65848245D01*
X195492000Y-67041400D01*
X195512000Y-67041400D01*
X195512000Y-67295400D01*
X195492000Y-67295400D01*
X195492000Y-68488555D01*
X195721890Y-68609876D01*
X195869099Y-68565225D01*
X196131920Y-68440041D01*
X196365269Y-68265988D01*
X196441034Y-68181934D01*
X196465498Y-68262580D01*
X196524463Y-68372894D01*
X196603815Y-68469585D01*
X196700506Y-68548937D01*
X196810820Y-68607902D01*
X196930518Y-68644212D01*
X197055000Y-68656472D01*
X198755000Y-68656472D01*
X198879482Y-68644212D01*
X198999180Y-68607902D01*
X199109494Y-68548937D01*
X199206185Y-68469585D01*
X199285537Y-68372894D01*
X199344502Y-68262580D01*
X199380812Y-68142882D01*
X199393072Y-68018400D01*
X199393072Y-66318400D01*
X199380812Y-66193918D01*
X199344502Y-66074220D01*
X199285537Y-65963906D01*
X199206185Y-65867215D01*
X199109494Y-65787863D01*
X198999180Y-65728898D01*
X198879482Y-65692588D01*
X198755000Y-65680328D01*
X197055000Y-65680328D01*
X196930518Y-65692588D01*
X196810820Y-65728898D01*
X196700506Y-65787863D01*
X196603815Y-65867215D01*
X196524463Y-65963906D01*
X196465498Y-66074220D01*
X196441034Y-66154866D01*
X196365269Y-66070812D01*
X196131920Y-65896759D01*
X195869099Y-65771575D01*
X195721890Y-65726924D01*
X195492000Y-65848245D01*
X195238000Y-65848245D01*
X195008110Y-65726924D01*
X194860901Y-65771575D01*
X194598080Y-65896759D01*
X194364731Y-66070812D01*
X194169822Y-66287045D01*
X194100195Y-66403934D01*
X193978475Y-66221768D01*
X193771632Y-66014925D01*
X193585000Y-65890222D01*
X193585000Y-60446578D01*
X193771632Y-60321875D01*
X193978475Y-60115032D01*
X194100195Y-59932866D01*
X194169822Y-60049755D01*
X194364731Y-60265988D01*
X194598080Y-60440041D01*
X194860901Y-60565225D01*
X195008110Y-60609876D01*
X195238000Y-60488555D01*
X195238000Y-59295400D01*
X195218000Y-59295400D01*
X195218000Y-59041400D01*
X195238000Y-59041400D01*
X195238000Y-57848245D01*
X195492000Y-57848245D01*
X195492000Y-59041400D01*
X195512000Y-59041400D01*
X195512000Y-59295400D01*
X195492000Y-59295400D01*
X195492000Y-60488555D01*
X195721890Y-60609876D01*
X195869099Y-60565225D01*
X196131920Y-60440041D01*
X196365269Y-60265988D01*
X196441034Y-60181934D01*
X196465498Y-60262580D01*
X196524463Y-60372894D01*
X196603815Y-60469585D01*
X196700506Y-60548937D01*
X196810820Y-60607902D01*
X196930518Y-60644212D01*
X197055000Y-60656472D01*
X198755000Y-60656472D01*
X198879482Y-60644212D01*
X198999180Y-60607902D01*
X199109494Y-60548937D01*
X199206185Y-60469585D01*
X199285537Y-60372894D01*
X199344502Y-60262580D01*
X199380812Y-60142882D01*
X199393072Y-60018400D01*
X199393072Y-58318400D01*
X199380812Y-58193918D01*
X199344502Y-58074220D01*
X199285537Y-57963906D01*
X199206185Y-57867215D01*
X199109494Y-57787863D01*
X198999180Y-57728898D01*
X198879482Y-57692588D01*
X198755000Y-57680328D01*
X197055000Y-57680328D01*
X196930518Y-57692588D01*
X196810820Y-57728898D01*
X196700506Y-57787863D01*
X196603815Y-57867215D01*
X196524463Y-57963906D01*
X196465498Y-58074220D01*
X196441034Y-58154866D01*
X196365269Y-58070812D01*
X196131920Y-57896759D01*
X195869099Y-57771575D01*
X195721890Y-57726924D01*
X195492000Y-57848245D01*
X195238000Y-57848245D01*
X195008110Y-57726924D01*
X194860901Y-57771575D01*
X194598080Y-57896759D01*
X194364731Y-58070812D01*
X194169822Y-58287045D01*
X194100195Y-58403934D01*
X193978475Y-58221768D01*
X193771632Y-58014925D01*
X193585000Y-57890222D01*
X193585000Y-54446578D01*
X193771632Y-54321875D01*
X193978475Y-54115032D01*
X194100195Y-53932866D01*
X194169822Y-54049755D01*
X194364731Y-54265988D01*
X194598080Y-54440041D01*
X194860901Y-54565225D01*
X195008110Y-54609876D01*
X195238000Y-54488555D01*
X195238000Y-53295400D01*
X195218000Y-53295400D01*
X195218000Y-53041400D01*
X195238000Y-53041400D01*
X195238000Y-51848245D01*
X195492000Y-51848245D01*
X195492000Y-53041400D01*
X195512000Y-53041400D01*
X195512000Y-53295400D01*
X195492000Y-53295400D01*
X195492000Y-54488555D01*
X195721890Y-54609876D01*
X195869099Y-54565225D01*
X196131920Y-54440041D01*
X196365269Y-54265988D01*
X196441034Y-54181934D01*
X196465498Y-54262580D01*
X196524463Y-54372894D01*
X196603815Y-54469585D01*
X196700506Y-54548937D01*
X196810820Y-54607902D01*
X196930518Y-54644212D01*
X197055000Y-54656472D01*
X198755000Y-54656472D01*
X198879482Y-54644212D01*
X198999180Y-54607902D01*
X199109494Y-54548937D01*
X199206185Y-54469585D01*
X199285537Y-54372894D01*
X199344502Y-54262580D01*
X199380812Y-54142882D01*
X199393072Y-54018400D01*
X199393072Y-52318400D01*
X199380812Y-52193918D01*
X199344502Y-52074220D01*
X199285537Y-51963906D01*
X199206185Y-51867215D01*
X199109494Y-51787863D01*
X198999180Y-51728898D01*
X198956122Y-51715836D01*
X199500581Y-51171377D01*
X199535685Y-51178360D01*
X199818355Y-51178360D01*
X200095594Y-51123213D01*
X200356747Y-51015040D01*
X200591779Y-50857997D01*
X200791657Y-50658119D01*
X200811541Y-50628360D01*
X203606499Y-50628360D01*
X203626383Y-50658119D01*
X203826261Y-50857997D01*
X204061293Y-51015040D01*
X204322446Y-51123213D01*
X204599685Y-51178360D01*
X204882355Y-51178360D01*
X205159594Y-51123213D01*
X205420747Y-51015040D01*
X205655779Y-50857997D01*
X205855657Y-50658119D01*
X206012700Y-50423087D01*
X206120873Y-50161934D01*
X206176020Y-49884695D01*
X206176020Y-49602025D01*
X206120873Y-49324786D01*
X206012700Y-49063633D01*
X205855657Y-48828601D01*
X205655779Y-48628723D01*
X205420747Y-48471680D01*
X205159594Y-48363507D01*
X204882355Y-48308360D01*
X204599685Y-48308360D01*
X204322446Y-48363507D01*
X204061293Y-48471680D01*
X203826261Y-48628723D01*
X203626383Y-48828601D01*
X203606499Y-48858360D01*
X200811541Y-48858360D01*
X200791657Y-48828601D01*
X200591779Y-48628723D01*
X200356747Y-48471680D01*
X200095594Y-48363507D01*
X199818355Y-48308360D01*
X199535685Y-48308360D01*
X199258446Y-48363507D01*
X198997293Y-48471680D01*
X198762261Y-48628723D01*
X198562383Y-48828601D01*
X198405340Y-49063633D01*
X198297167Y-49324786D01*
X198242020Y-49602025D01*
X198242020Y-49884695D01*
X198249003Y-49919799D01*
X197309951Y-50858851D01*
X197276184Y-50886563D01*
X197248471Y-50920331D01*
X197248468Y-50920334D01*
X197165590Y-51021321D01*
X197083412Y-51175067D01*
X197032805Y-51341890D01*
X197015719Y-51515380D01*
X197020001Y-51558859D01*
X197020001Y-51683775D01*
X196930518Y-51692588D01*
X196810820Y-51728898D01*
X196700506Y-51787863D01*
X196603815Y-51867215D01*
X196524463Y-51963906D01*
X196465498Y-52074220D01*
X196441034Y-52154866D01*
X196365269Y-52070812D01*
X196131920Y-51896759D01*
X195869099Y-51771575D01*
X195721890Y-51726924D01*
X195492000Y-51848245D01*
X195238000Y-51848245D01*
X195008110Y-51726924D01*
X194860901Y-51771575D01*
X194598080Y-51896759D01*
X194364731Y-52070812D01*
X194169822Y-52287045D01*
X194100195Y-52403934D01*
X193978475Y-52221768D01*
X193771632Y-52014925D01*
X193585000Y-51890222D01*
X193585000Y-51612922D01*
X193588676Y-51575599D01*
X193585000Y-51538276D01*
X193585000Y-51538267D01*
X193574003Y-51426614D01*
X193530546Y-51283353D01*
X193459974Y-51151324D01*
X193365001Y-51035599D01*
X193335997Y-51011796D01*
X193027224Y-50703023D01*
X193003421Y-50674019D01*
X192887696Y-50579046D01*
X192755667Y-50508474D01*
X192612406Y-50465017D01*
X192500753Y-50454020D01*
X192500742Y-50454020D01*
X192463420Y-50450344D01*
X192426098Y-50454020D01*
X185204150Y-50454020D01*
X184037611Y-49389289D01*
X183896765Y-49248443D01*
X183925790Y-49229049D01*
X184050124Y-49104715D01*
X184686310Y-49104715D01*
X184762518Y-49352584D01*
X185024545Y-49477303D01*
X185305869Y-49548508D01*
X185595679Y-49563459D01*
X185882837Y-49521585D01*
X186156308Y-49424494D01*
X186290842Y-49352584D01*
X186367050Y-49104715D01*
X185526680Y-48264345D01*
X184686310Y-49104715D01*
X184050124Y-49104715D01*
X184130989Y-49023850D01*
X184253969Y-48839797D01*
X184258836Y-48848902D01*
X184506705Y-48925110D01*
X185347075Y-48084740D01*
X185706285Y-48084740D01*
X186546655Y-48925110D01*
X186794524Y-48848902D01*
X186919243Y-48586875D01*
X186990448Y-48305551D01*
X187005399Y-48015741D01*
X186963525Y-47728583D01*
X186866434Y-47455112D01*
X186794524Y-47320578D01*
X186546655Y-47244370D01*
X185706285Y-48084740D01*
X185347075Y-48084740D01*
X184506705Y-47244370D01*
X184258836Y-47320578D01*
X184254281Y-47330148D01*
X184130989Y-47145630D01*
X184050124Y-47064765D01*
X184686310Y-47064765D01*
X185526680Y-47905135D01*
X186367050Y-47064765D01*
X186290842Y-46816896D01*
X186028815Y-46692177D01*
X185747491Y-46620972D01*
X185457681Y-46606021D01*
X185170523Y-46647895D01*
X184897052Y-46744986D01*
X184762518Y-46816896D01*
X184686310Y-47064765D01*
X184050124Y-47064765D01*
X183925790Y-46940431D01*
X183684502Y-46779207D01*
X183416397Y-46668154D01*
X183131778Y-46611540D01*
X182841582Y-46611540D01*
X182556963Y-46668154D01*
X182504620Y-46689835D01*
X182504620Y-44188511D01*
X182546017Y-44147114D01*
X182659285Y-43977596D01*
X182737306Y-43789238D01*
X182777080Y-43589279D01*
X182777080Y-43385401D01*
X182737306Y-43185442D01*
X182659285Y-42997084D01*
X182546017Y-42827566D01*
X182401854Y-42683403D01*
X182232336Y-42570135D01*
X182043978Y-42492114D01*
X181844019Y-42452340D01*
X181640141Y-42452340D01*
X181440182Y-42492114D01*
X181251824Y-42570135D01*
X181082306Y-42683403D01*
X180938143Y-42827566D01*
X180824875Y-42997084D01*
X180746854Y-43185442D01*
X180707080Y-43385401D01*
X180707080Y-43589279D01*
X180746854Y-43789238D01*
X180824875Y-43977596D01*
X180938143Y-44147114D01*
X180984620Y-44193591D01*
X180984620Y-46712982D01*
X180876397Y-46668154D01*
X180591778Y-46611540D01*
X180301582Y-46611540D01*
X180016963Y-46668154D01*
X179748858Y-46779207D01*
X179507570Y-46940431D01*
X179360277Y-47087724D01*
X179334382Y-47002360D01*
X179275417Y-46892046D01*
X179196065Y-46795355D01*
X179099374Y-46716003D01*
X178989060Y-46657038D01*
X178869362Y-46620728D01*
X178744880Y-46608468D01*
X177068480Y-46608468D01*
X177031655Y-46612095D01*
X177032745Y-45537966D01*
X177077397Y-45493314D01*
X177190665Y-45323796D01*
X177268686Y-45135438D01*
X177308460Y-44935479D01*
X177308460Y-44731601D01*
X177268686Y-44531642D01*
X177190665Y-44343284D01*
X177077397Y-44173766D01*
X177033460Y-44129829D01*
X177033460Y-41653075D01*
X177208858Y-41770273D01*
X177476963Y-41881326D01*
X177761582Y-41937940D01*
X178051778Y-41937940D01*
X178336397Y-41881326D01*
X178604502Y-41770273D01*
X178845790Y-41609049D01*
X179050989Y-41403850D01*
X179176680Y-41215741D01*
X179302371Y-41403850D01*
X179507570Y-41609049D01*
X179748858Y-41770273D01*
X180016963Y-41881326D01*
X180301582Y-41937940D01*
X180591778Y-41937940D01*
X180876397Y-41881326D01*
X181144502Y-41770273D01*
X181385790Y-41609049D01*
X181590989Y-41403850D01*
X181716680Y-41215741D01*
X181842371Y-41403850D01*
X182047570Y-41609049D01*
X182288858Y-41770273D01*
X182556963Y-41881326D01*
X182841582Y-41937940D01*
X183131778Y-41937940D01*
X183416397Y-41881326D01*
X183684502Y-41770273D01*
X183925790Y-41609049D01*
X184130989Y-41403850D01*
X184256680Y-41215741D01*
X184382371Y-41403850D01*
X184587570Y-41609049D01*
X184828858Y-41770273D01*
X185096963Y-41881326D01*
X185381582Y-41937940D01*
X185671778Y-41937940D01*
X185956397Y-41881326D01*
X186224502Y-41770273D01*
X186465790Y-41609049D01*
X186670989Y-41403850D01*
X186832213Y-41162562D01*
X186943266Y-40894457D01*
X186999880Y-40609838D01*
X186999880Y-40319642D01*
X186943266Y-40035023D01*
X186832213Y-39766918D01*
X186670989Y-39525630D01*
X186488499Y-39343140D01*
X187918281Y-39343140D01*
X187918281Y-39482618D01*
X187888521Y-39502503D01*
X187688643Y-39702381D01*
X187531600Y-39937413D01*
X187423427Y-40198566D01*
X187368280Y-40475805D01*
X187368280Y-40758475D01*
X187423427Y-41035714D01*
X187508931Y-41242140D01*
X187423427Y-41448566D01*
X187368280Y-41725805D01*
X187368280Y-42008475D01*
X187423427Y-42285714D01*
X187531600Y-42546867D01*
X187688643Y-42781899D01*
X187888521Y-42981777D01*
X188123553Y-43138820D01*
X188384706Y-43246993D01*
X188661945Y-43302140D01*
X188944615Y-43302140D01*
X189221854Y-43246993D01*
X189483007Y-43138820D01*
X189718039Y-42981777D01*
X189917917Y-42781899D01*
X190074960Y-42546867D01*
X190183133Y-42285714D01*
X190238280Y-42008475D01*
X190238280Y-41725805D01*
X190183133Y-41448566D01*
X190097629Y-41242140D01*
X190183133Y-41035714D01*
X190238280Y-40758475D01*
X190238280Y-40475805D01*
X190183133Y-40198566D01*
X190074960Y-39937413D01*
X189917917Y-39702381D01*
X189718039Y-39502503D01*
X189688280Y-39482619D01*
X189688280Y-38822221D01*
X190484220Y-39602792D01*
X190484221Y-44106560D01*
X185877331Y-44106560D01*
X185833394Y-44062623D01*
X185663876Y-43949355D01*
X185475518Y-43871334D01*
X185275559Y-43831560D01*
X185071681Y-43831560D01*
X184871722Y-43871334D01*
X184683364Y-43949355D01*
X184513846Y-44062623D01*
X184369683Y-44206786D01*
X184256415Y-44376304D01*
X184178394Y-44564662D01*
X184138620Y-44764621D01*
X184138620Y-44968499D01*
X184178394Y-45168458D01*
X184256415Y-45356816D01*
X184369683Y-45526334D01*
X184513846Y-45670497D01*
X184683364Y-45783765D01*
X184871722Y-45861786D01*
X185071681Y-45901560D01*
X185275559Y-45901560D01*
X185475518Y-45861786D01*
X185663876Y-45783765D01*
X185833394Y-45670497D01*
X185877331Y-45626560D01*
X188069079Y-45626560D01*
X188061766Y-45630469D01*
X187990183Y-45874438D01*
X188795774Y-46680029D01*
X188732768Y-46676923D01*
X188472083Y-46715548D01*
X187810578Y-46054043D01*
X187566609Y-46125626D01*
X187445709Y-46381136D01*
X187376980Y-46655324D01*
X187363063Y-46937652D01*
X187404493Y-47217270D01*
X187499677Y-47483432D01*
X187508122Y-47499232D01*
X187445709Y-47631136D01*
X187376980Y-47905324D01*
X187363063Y-48187652D01*
X187404493Y-48467270D01*
X187499677Y-48733432D01*
X187566609Y-48858654D01*
X187810578Y-48930237D01*
X188476254Y-48264561D01*
X188591464Y-48293440D01*
X188796479Y-48303546D01*
X187990183Y-49109842D01*
X188061766Y-49353811D01*
X188317276Y-49474711D01*
X188591464Y-49543440D01*
X188873792Y-49557357D01*
X189153410Y-49515927D01*
X189419572Y-49420743D01*
X189544794Y-49353811D01*
X189616377Y-49109842D01*
X188810786Y-48304251D01*
X188873792Y-48307357D01*
X189134477Y-48268732D01*
X189795982Y-48930237D01*
X190039951Y-48858654D01*
X190160851Y-48603144D01*
X190229580Y-48328956D01*
X190243497Y-48046628D01*
X190202067Y-47767010D01*
X190106883Y-47500848D01*
X190098438Y-47485048D01*
X190160851Y-47353144D01*
X190229580Y-47078956D01*
X190243497Y-46796628D01*
X190202067Y-46517010D01*
X190106883Y-46250848D01*
X190039951Y-46125626D01*
X189795982Y-46054043D01*
X189130306Y-46719719D01*
X189015096Y-46690840D01*
X188810081Y-46680734D01*
X189616377Y-45874438D01*
X189544794Y-45630469D01*
X189536533Y-45626560D01*
X191206887Y-45626560D01*
X191244220Y-45630237D01*
X191281553Y-45626560D01*
X192093498Y-45626560D01*
X192295195Y-45828257D01*
X192318998Y-45857261D01*
X192372977Y-45901560D01*
X192434722Y-45952234D01*
X192492468Y-45983100D01*
X192566752Y-46022806D01*
X192710013Y-46066263D01*
X192780171Y-46073173D01*
X192907605Y-46263892D01*
X193114448Y-46470735D01*
X193288840Y-46587260D01*
X193114448Y-46703785D01*
X192907605Y-46910628D01*
X192745090Y-47153849D01*
X192633148Y-47424102D01*
X192576080Y-47711000D01*
X192576080Y-48003520D01*
X192633148Y-48290418D01*
X192745090Y-48560671D01*
X192907605Y-48803892D01*
X193114448Y-49010735D01*
X193357669Y-49173250D01*
X193627922Y-49285192D01*
X193914820Y-49342260D01*
X194207340Y-49342260D01*
X194494238Y-49285192D01*
X194764491Y-49173250D01*
X195007712Y-49010735D01*
X195214555Y-48803892D01*
X195377070Y-48560671D01*
X195489012Y-48290418D01*
X195546080Y-48003520D01*
X195546080Y-47767261D01*
X200853577Y-47767261D01*
X200890899Y-47770937D01*
X200928221Y-47767261D01*
X200928232Y-47767261D01*
X201039885Y-47756264D01*
X201183146Y-47712807D01*
X201315175Y-47642235D01*
X201430900Y-47547262D01*
X201454703Y-47518258D01*
X205252024Y-43720938D01*
X205281021Y-43697141D01*
X205375994Y-43581416D01*
X205446566Y-43449387D01*
X205490023Y-43306126D01*
X205501020Y-43194473D01*
X205501020Y-43194464D01*
X205504696Y-43157141D01*
X205501020Y-43119818D01*
X205501020Y-40801403D01*
X205655779Y-40697997D01*
X205855657Y-40498119D01*
X206012700Y-40263087D01*
X206120873Y-40001934D01*
X206176020Y-39724695D01*
X206176020Y-39442025D01*
X206120873Y-39164786D01*
X206012700Y-38903633D01*
X205855657Y-38668601D01*
X205655779Y-38468723D01*
X205420747Y-38311680D01*
X205159594Y-38203507D01*
X204882355Y-38148360D01*
X204599685Y-38148360D01*
X204417134Y-38184672D01*
X195823542Y-29591081D01*
X195740560Y-29508099D01*
X195740560Y-28179872D01*
X201454400Y-28179872D01*
X201454400Y-28620128D01*
X201540290Y-29051925D01*
X201708769Y-29458669D01*
X201953362Y-29824729D01*
X202264671Y-30136038D01*
X202630731Y-30380631D01*
X203037475Y-30549110D01*
X203469272Y-30635000D01*
X203909528Y-30635000D01*
X204341325Y-30549110D01*
X204748069Y-30380631D01*
X205114129Y-30136038D01*
X205425438Y-29824729D01*
X205670031Y-29458669D01*
X205838510Y-29051925D01*
X205924400Y-28620128D01*
X205924400Y-28179872D01*
X205838510Y-27748075D01*
X205670031Y-27341331D01*
X205425438Y-26975271D01*
X205114129Y-26663962D01*
X204748069Y-26419369D01*
X204341325Y-26250890D01*
X203909528Y-26165000D01*
X203469272Y-26165000D01*
X203037475Y-26250890D01*
X202630731Y-26419369D01*
X202264671Y-26663962D01*
X201953362Y-26975271D01*
X201708769Y-27341331D01*
X201540290Y-27748075D01*
X201454400Y-28179872D01*
X195740560Y-28179872D01*
X195740560Y-24648291D01*
X195784497Y-24604354D01*
X195897765Y-24434836D01*
X195975786Y-24246478D01*
X196015560Y-24046519D01*
X196015560Y-23842641D01*
X195975786Y-23642682D01*
X195897765Y-23454324D01*
X195784497Y-23284806D01*
X195640334Y-23140643D01*
X195470816Y-23027375D01*
X195282458Y-22949354D01*
X195082499Y-22909580D01*
X194878621Y-22909580D01*
X194678662Y-22949354D01*
X194674689Y-22951000D01*
X194785367Y-22877047D01*
X194957387Y-22705027D01*
X195092543Y-22502752D01*
X195185640Y-22277996D01*
X195233100Y-22039397D01*
X195233100Y-21796123D01*
X195185640Y-21557524D01*
X195092543Y-21332768D01*
X194957387Y-21130493D01*
X194785367Y-20958473D01*
X194583092Y-20823317D01*
X194358336Y-20730220D01*
X194119737Y-20682760D01*
X193876463Y-20682760D01*
X193637864Y-20730220D01*
X193413108Y-20823317D01*
X193210833Y-20958473D01*
X193038813Y-21130493D01*
X192903657Y-21332768D01*
X192810560Y-21557524D01*
X192763100Y-21796123D01*
X192763100Y-22039397D01*
X192810560Y-22277996D01*
X192903657Y-22502752D01*
X193038813Y-22705027D01*
X193210833Y-22877047D01*
X193413108Y-23012203D01*
X193637864Y-23105300D01*
X193876463Y-23152760D01*
X194119737Y-23152760D01*
X194358336Y-23105300D01*
X194398708Y-23088577D01*
X194320786Y-23140643D01*
X194176623Y-23284806D01*
X194063355Y-23454324D01*
X193985334Y-23642682D01*
X193945560Y-23842641D01*
X193945560Y-24046519D01*
X193985334Y-24246478D01*
X194063355Y-24434836D01*
X194077076Y-24455372D01*
X193772611Y-24251934D01*
X193361318Y-24081571D01*
X192924691Y-23994720D01*
X192479509Y-23994720D01*
X192042882Y-24081571D01*
X191887375Y-24145984D01*
X191887490Y-24143287D01*
X191847225Y-23883416D01*
X191757035Y-23636394D01*
X191703137Y-23535557D01*
X191469369Y-23476096D01*
X190727705Y-24217760D01*
X190741848Y-24231903D01*
X190562243Y-24411508D01*
X190548100Y-24397365D01*
X189806436Y-25139029D01*
X189865897Y-25372797D01*
X190104342Y-25483694D01*
X190359840Y-25545943D01*
X190546187Y-25553892D01*
X190528951Y-25595502D01*
X190444276Y-26021189D01*
X189707705Y-26757760D01*
X190449369Y-27499424D01*
X190683137Y-27439963D01*
X190721237Y-27358042D01*
X190946644Y-27695386D01*
X191261434Y-28010176D01*
X191631589Y-28257506D01*
X192042882Y-28427869D01*
X192479509Y-28514720D01*
X192924691Y-28514720D01*
X193361318Y-28427869D01*
X193772611Y-28257506D01*
X194142766Y-28010176D01*
X194220560Y-27932382D01*
X194220560Y-29031660D01*
X189832493Y-29031660D01*
X189795160Y-29027983D01*
X189757827Y-29031660D01*
X189646174Y-29042657D01*
X189502913Y-29086114D01*
X189370884Y-29156686D01*
X189255159Y-29251659D01*
X189231361Y-29280657D01*
X187271970Y-31240049D01*
X187119496Y-31209720D01*
X186844704Y-31209720D01*
X186575193Y-31263329D01*
X186321320Y-31368487D01*
X186092839Y-31521153D01*
X185898533Y-31715459D01*
X185745867Y-31943940D01*
X185714270Y-32020221D01*
X185707844Y-32002394D01*
X185646125Y-31886926D01*
X185406237Y-31820189D01*
X184621705Y-32604720D01*
X185406237Y-33389251D01*
X185646125Y-33322514D01*
X185711700Y-33183013D01*
X185745867Y-33265500D01*
X185898533Y-33493981D01*
X186092839Y-33688287D01*
X186321320Y-33840953D01*
X186575193Y-33946111D01*
X186844704Y-33999720D01*
X187119496Y-33999720D01*
X187389007Y-33946111D01*
X187642880Y-33840953D01*
X187871361Y-33688287D01*
X188065667Y-33493981D01*
X188218333Y-33265500D01*
X188252100Y-33183980D01*
X188285867Y-33265500D01*
X188438533Y-33493981D01*
X188632839Y-33688287D01*
X188861320Y-33840953D01*
X189115193Y-33946111D01*
X189384704Y-33999720D01*
X189526599Y-33999720D01*
X189501563Y-34030226D01*
X189442598Y-34140540D01*
X189406288Y-34260238D01*
X189397626Y-34348187D01*
X189335667Y-34255459D01*
X189141361Y-34061153D01*
X188912880Y-33908487D01*
X188659007Y-33803329D01*
X188389496Y-33749720D01*
X188114704Y-33749720D01*
X187845193Y-33803329D01*
X187591320Y-33908487D01*
X187362839Y-34061153D01*
X187168533Y-34255459D01*
X187015867Y-34483940D01*
X186984270Y-34560221D01*
X186977844Y-34542394D01*
X186916125Y-34426926D01*
X186676237Y-34360189D01*
X185891705Y-35144720D01*
X186676237Y-35929251D01*
X186916125Y-35862514D01*
X186981700Y-35723013D01*
X187015867Y-35805500D01*
X187168533Y-36033981D01*
X187362839Y-36228287D01*
X187456381Y-36290790D01*
X187467538Y-36404067D01*
X187510994Y-36547328D01*
X187542716Y-36606676D01*
X187546554Y-36619327D01*
X187617126Y-36751356D01*
X187712099Y-36867081D01*
X187741101Y-36890882D01*
X188423358Y-37573140D01*
X181466440Y-37573140D01*
X181466440Y-37408781D01*
X181426666Y-37208822D01*
X181348645Y-37020464D01*
X181235377Y-36850946D01*
X181091214Y-36706783D01*
X180921696Y-36593515D01*
X180733338Y-36515494D01*
X180533379Y-36475720D01*
X180329501Y-36475720D01*
X180129542Y-36515494D01*
X179941184Y-36593515D01*
X179771666Y-36706783D01*
X179727729Y-36750720D01*
X176511532Y-36750720D01*
X176383950Y-36738154D01*
X176383949Y-36738154D01*
X176234964Y-36752828D01*
X176205661Y-36761717D01*
X176091704Y-36796284D01*
X175959674Y-36866856D01*
X175843949Y-36961829D01*
X175820149Y-36990829D01*
X175762461Y-37048518D01*
X175733459Y-37072319D01*
X175678331Y-37139494D01*
X175638486Y-37188044D01*
X175622221Y-37218474D01*
X175567914Y-37320074D01*
X175524457Y-37463335D01*
X175513460Y-37574988D01*
X175513460Y-37574998D01*
X175509784Y-37612320D01*
X175513460Y-37649643D01*
X175513461Y-44129828D01*
X175469523Y-44173766D01*
X175356255Y-44343284D01*
X175278234Y-44531642D01*
X175238460Y-44731601D01*
X175238460Y-44935479D01*
X175278234Y-45135438D01*
X175356255Y-45323796D01*
X175469523Y-45493314D01*
X175512747Y-45536538D01*
X175509159Y-49071890D01*
X175469523Y-49111526D01*
X175356255Y-49281044D01*
X175278234Y-49469402D01*
X175238460Y-49669361D01*
X175238460Y-49873239D01*
X175255987Y-49961354D01*
X175135394Y-49997934D01*
X175127974Y-50001900D01*
X172968761Y-50001900D01*
X172938980Y-49972119D01*
X172938980Y-43374605D01*
X172942594Y-43342172D01*
X172938980Y-43299945D01*
X172938980Y-25015781D01*
X173296040Y-25372842D01*
X173296041Y-47580038D01*
X173296040Y-47580048D01*
X173296040Y-47726469D01*
X173252103Y-47770406D01*
X173138835Y-47939924D01*
X173060814Y-48128282D01*
X173021040Y-48328241D01*
X173021040Y-48532119D01*
X173060814Y-48732078D01*
X173138835Y-48920436D01*
X173252103Y-49089954D01*
X173396266Y-49234117D01*
X173565784Y-49347385D01*
X173754142Y-49425406D01*
X173954101Y-49465180D01*
X174157979Y-49465180D01*
X174357938Y-49425406D01*
X174546296Y-49347385D01*
X174715814Y-49234117D01*
X174859977Y-49089954D01*
X174973245Y-48920436D01*
X175051266Y-48732078D01*
X175091040Y-48532119D01*
X175091040Y-48328241D01*
X175051266Y-48128282D01*
X174973245Y-47939924D01*
X174859977Y-47770406D01*
X174816040Y-47726469D01*
X174816040Y-36108857D01*
X184927569Y-36108857D01*
X184994306Y-36348745D01*
X185242992Y-36465644D01*
X185509706Y-36531781D01*
X185784197Y-36544615D01*
X186055917Y-36503651D01*
X186314426Y-36410464D01*
X186429894Y-36348745D01*
X186496631Y-36108857D01*
X185712100Y-35324325D01*
X184927569Y-36108857D01*
X174816040Y-36108857D01*
X174816040Y-35216817D01*
X184312205Y-35216817D01*
X184353169Y-35488537D01*
X184446356Y-35747046D01*
X184508075Y-35862514D01*
X184747963Y-35929251D01*
X185532495Y-35144720D01*
X184747963Y-34360189D01*
X184508075Y-34426926D01*
X184391176Y-34675612D01*
X184325039Y-34942326D01*
X184312205Y-35216817D01*
X174816040Y-35216817D01*
X174816040Y-34180583D01*
X184927569Y-34180583D01*
X185712100Y-34965115D01*
X186496631Y-34180583D01*
X186429894Y-33940695D01*
X186181208Y-33823796D01*
X185914494Y-33757659D01*
X185640003Y-33744825D01*
X185368283Y-33785789D01*
X185109774Y-33878976D01*
X184994306Y-33940695D01*
X184927569Y-34180583D01*
X174816040Y-34180583D01*
X174816040Y-33568857D01*
X183657569Y-33568857D01*
X183724306Y-33808745D01*
X183972992Y-33925644D01*
X184239706Y-33991781D01*
X184514197Y-34004615D01*
X184785917Y-33963651D01*
X185044426Y-33870464D01*
X185159894Y-33808745D01*
X185226631Y-33568857D01*
X184442100Y-32784325D01*
X183657569Y-33568857D01*
X174816040Y-33568857D01*
X174816040Y-32676817D01*
X183042205Y-32676817D01*
X183083169Y-32948537D01*
X183176356Y-33207046D01*
X183238075Y-33322514D01*
X183477963Y-33389251D01*
X184262495Y-32604720D01*
X183477963Y-31820189D01*
X183238075Y-31886926D01*
X183121176Y-32135612D01*
X183055039Y-32402326D01*
X183042205Y-32676817D01*
X174816040Y-32676817D01*
X174816040Y-31640583D01*
X183657569Y-31640583D01*
X184442100Y-32425115D01*
X185226631Y-31640583D01*
X185159894Y-31400695D01*
X184911208Y-31283796D01*
X184644494Y-31217659D01*
X184370003Y-31204825D01*
X184098283Y-31245789D01*
X183839774Y-31338976D01*
X183724306Y-31400695D01*
X183657569Y-31640583D01*
X174816040Y-31640583D01*
X174816040Y-26032129D01*
X180282100Y-26032129D01*
X180282100Y-26477311D01*
X180368951Y-26913938D01*
X180539314Y-27325231D01*
X180786644Y-27695386D01*
X181101434Y-28010176D01*
X181471589Y-28257506D01*
X181882882Y-28427869D01*
X182319509Y-28514720D01*
X182764691Y-28514720D01*
X183201318Y-28427869D01*
X183612611Y-28257506D01*
X183982766Y-28010176D01*
X184297556Y-27695386D01*
X184383284Y-27567086D01*
X184411138Y-27608773D01*
X184597087Y-27794722D01*
X184815741Y-27940821D01*
X185058695Y-28041456D01*
X185316614Y-28092760D01*
X185579586Y-28092760D01*
X185837505Y-28041456D01*
X186080459Y-27940821D01*
X186299113Y-27794722D01*
X186468100Y-27625735D01*
X186637087Y-27794722D01*
X186855741Y-27940821D01*
X187098695Y-28041456D01*
X187356614Y-28092760D01*
X187619586Y-28092760D01*
X187877505Y-28041456D01*
X188120459Y-27940821D01*
X188339113Y-27794722D01*
X188454806Y-27679029D01*
X188786436Y-27679029D01*
X188845897Y-27912797D01*
X189084342Y-28023694D01*
X189339840Y-28085943D01*
X189602573Y-28097150D01*
X189862444Y-28056885D01*
X190109466Y-27966695D01*
X190210303Y-27912797D01*
X190269764Y-27679029D01*
X189528100Y-26937365D01*
X188786436Y-27679029D01*
X188454806Y-27679029D01*
X188525062Y-27608773D01*
X188599391Y-27497531D01*
X188606831Y-27499424D01*
X189348495Y-26757760D01*
X188606831Y-26016096D01*
X188599391Y-26017989D01*
X188525062Y-25906747D01*
X188454806Y-25836491D01*
X188786436Y-25836491D01*
X189528100Y-26578155D01*
X190269764Y-25836491D01*
X190210303Y-25602723D01*
X189971858Y-25491826D01*
X189716360Y-25429577D01*
X189453627Y-25418370D01*
X189193756Y-25458635D01*
X188946734Y-25548825D01*
X188845897Y-25602723D01*
X188786436Y-25836491D01*
X188454806Y-25836491D01*
X188339113Y-25720798D01*
X188120459Y-25574699D01*
X187877505Y-25474064D01*
X187619586Y-25422760D01*
X187356614Y-25422760D01*
X187098695Y-25474064D01*
X186855741Y-25574699D01*
X186637087Y-25720798D01*
X186468100Y-25889785D01*
X186299113Y-25720798D01*
X186080459Y-25574699D01*
X185837505Y-25474064D01*
X185579586Y-25422760D01*
X185316614Y-25422760D01*
X185058695Y-25474064D01*
X184815741Y-25574699D01*
X184723386Y-25636408D01*
X184715249Y-25595502D01*
X184544886Y-25184209D01*
X184297556Y-24814054D01*
X183982766Y-24499264D01*
X183612611Y-24251934D01*
X183212673Y-24086274D01*
X185133100Y-24086274D01*
X185133100Y-24349246D01*
X185184404Y-24607165D01*
X185285039Y-24850119D01*
X185431138Y-25068773D01*
X185617087Y-25254722D01*
X185835741Y-25400821D01*
X186078695Y-25501456D01*
X186336614Y-25552760D01*
X186599586Y-25552760D01*
X186857505Y-25501456D01*
X187100459Y-25400821D01*
X187319113Y-25254722D01*
X187488100Y-25085735D01*
X187657087Y-25254722D01*
X187875741Y-25400821D01*
X188118695Y-25501456D01*
X188376614Y-25552760D01*
X188639586Y-25552760D01*
X188897505Y-25501456D01*
X189140459Y-25400821D01*
X189359113Y-25254722D01*
X189545062Y-25068773D01*
X189619391Y-24957531D01*
X189626831Y-24959424D01*
X190368495Y-24217760D01*
X189626831Y-23476096D01*
X189619391Y-23477989D01*
X189545062Y-23366747D01*
X189474806Y-23296491D01*
X189806436Y-23296491D01*
X190548100Y-24038155D01*
X191289764Y-23296491D01*
X191230303Y-23062723D01*
X190991858Y-22951826D01*
X190736360Y-22889577D01*
X190473627Y-22878370D01*
X190213756Y-22918635D01*
X189966734Y-23008825D01*
X189865897Y-23062723D01*
X189806436Y-23296491D01*
X189474806Y-23296491D01*
X189359113Y-23180798D01*
X189140459Y-23034699D01*
X188897505Y-22934064D01*
X188639586Y-22882760D01*
X188376614Y-22882760D01*
X188118695Y-22934064D01*
X187875741Y-23034699D01*
X187657087Y-23180798D01*
X187488100Y-23349785D01*
X187319113Y-23180798D01*
X187100459Y-23034699D01*
X186857505Y-22934064D01*
X186599586Y-22882760D01*
X186336614Y-22882760D01*
X186078695Y-22934064D01*
X185835741Y-23034699D01*
X185617087Y-23180798D01*
X185431138Y-23366747D01*
X185285039Y-23585401D01*
X185184404Y-23828355D01*
X185133100Y-24086274D01*
X183212673Y-24086274D01*
X183201318Y-24081571D01*
X182764691Y-23994720D01*
X182319509Y-23994720D01*
X181882882Y-24081571D01*
X181471589Y-24251934D01*
X181101434Y-24499264D01*
X180786644Y-24814054D01*
X180539314Y-25184209D01*
X180368951Y-25595502D01*
X180282100Y-26032129D01*
X174816040Y-26032129D01*
X174816040Y-25389040D01*
X174834623Y-25327778D01*
X174855842Y-25257826D01*
X174870516Y-25108841D01*
X174862423Y-25026672D01*
X174855842Y-24959854D01*
X174812386Y-24816593D01*
X174741814Y-24684563D01*
X174670639Y-24597837D01*
X174646841Y-24568839D01*
X174617843Y-24545041D01*
X174410659Y-24337857D01*
X174458000Y-24305361D01*
X174458000Y-23114000D01*
X174712000Y-23114000D01*
X174712000Y-24305361D01*
X174894744Y-24430803D01*
X174921147Y-24430399D01*
X175137754Y-24342850D01*
X175333119Y-24214725D01*
X175335000Y-24212876D01*
X175336881Y-24214725D01*
X175532246Y-24342850D01*
X175748853Y-24430399D01*
X175775256Y-24430803D01*
X175958000Y-24305361D01*
X175958000Y-23114000D01*
X176212000Y-23114000D01*
X176212000Y-24305361D01*
X176394744Y-24430803D01*
X176421147Y-24430399D01*
X176637754Y-24342850D01*
X176833119Y-24214725D01*
X176999734Y-24050948D01*
X177131196Y-23857813D01*
X177222454Y-23642742D01*
X177270000Y-23414000D01*
X177270000Y-23114000D01*
X176212000Y-23114000D01*
X175958000Y-23114000D01*
X174712000Y-23114000D01*
X174458000Y-23114000D01*
X174438000Y-23114000D01*
X174438000Y-22860000D01*
X174458000Y-22860000D01*
X174458000Y-21668639D01*
X174712000Y-21668639D01*
X174712000Y-22860000D01*
X175958000Y-22860000D01*
X175958000Y-21668639D01*
X176212000Y-21668639D01*
X176212000Y-22860000D01*
X177270000Y-22860000D01*
X177270000Y-22560000D01*
X177222454Y-22331258D01*
X177131196Y-22116187D01*
X176999734Y-21923052D01*
X176870606Y-21796123D01*
X180763100Y-21796123D01*
X180763100Y-22039397D01*
X180810560Y-22277996D01*
X180903657Y-22502752D01*
X181038813Y-22705027D01*
X181210833Y-22877047D01*
X181413108Y-23012203D01*
X181637864Y-23105300D01*
X181876463Y-23152760D01*
X182119737Y-23152760D01*
X182358336Y-23105300D01*
X182583092Y-23012203D01*
X182785367Y-22877047D01*
X182957387Y-22705027D01*
X183092543Y-22502752D01*
X183185640Y-22277996D01*
X183233100Y-22039397D01*
X183233100Y-21796123D01*
X183185640Y-21557524D01*
X183092543Y-21332768D01*
X182957387Y-21130493D01*
X182785367Y-20958473D01*
X182583092Y-20823317D01*
X182358336Y-20730220D01*
X182119737Y-20682760D01*
X181876463Y-20682760D01*
X181637864Y-20730220D01*
X181413108Y-20823317D01*
X181210833Y-20958473D01*
X181038813Y-21130493D01*
X180903657Y-21332768D01*
X180810560Y-21557524D01*
X180763100Y-21796123D01*
X176870606Y-21796123D01*
X176833119Y-21759275D01*
X176637754Y-21631150D01*
X176421147Y-21543601D01*
X176394744Y-21543197D01*
X176212000Y-21668639D01*
X175958000Y-21668639D01*
X175775256Y-21543197D01*
X175748853Y-21543601D01*
X175532246Y-21631150D01*
X175336881Y-21759275D01*
X175335000Y-21761124D01*
X175333119Y-21759275D01*
X175137754Y-21631150D01*
X174921147Y-21543601D01*
X174894744Y-21543197D01*
X174712000Y-21668639D01*
X174458000Y-21668639D01*
X174275256Y-21543197D01*
X174248853Y-21543601D01*
X174032246Y-21631150D01*
X173836881Y-21759275D01*
X173830332Y-21765712D01*
X173746535Y-21696942D01*
X173540673Y-21586906D01*
X173317299Y-21519147D01*
X173085000Y-21496267D01*
X172852700Y-21519147D01*
X172629326Y-21586906D01*
X172423464Y-21696942D01*
X172335000Y-21769543D01*
X172246535Y-21696942D01*
X172040673Y-21586906D01*
X171817299Y-21519147D01*
X171585000Y-21496267D01*
X171352700Y-21519147D01*
X171129326Y-21586906D01*
X170966587Y-21673892D01*
X170917630Y-21633714D01*
X170779359Y-21559807D01*
X170629328Y-21514295D01*
X170473300Y-21498928D01*
X169696700Y-21498928D01*
X169540672Y-21514295D01*
X169390641Y-21559807D01*
X169252370Y-21633714D01*
X169131176Y-21733176D01*
X169031714Y-21854370D01*
X168957807Y-21992641D01*
X168912295Y-22142672D01*
X168896928Y-22298700D01*
X168896928Y-23675300D01*
X168912295Y-23831328D01*
X168957807Y-23981359D01*
X169031714Y-24119630D01*
X169131176Y-24240824D01*
X169252370Y-24340286D01*
X169390641Y-24414193D01*
X169540672Y-24459705D01*
X169696700Y-24475072D01*
X170473300Y-24475072D01*
X170629328Y-24459705D01*
X170779359Y-24414193D01*
X170874611Y-24363280D01*
X170879454Y-24379246D01*
X170950026Y-24511276D01*
X170999558Y-24571630D01*
X171045000Y-24627001D01*
X171073998Y-24650799D01*
X171418980Y-24995782D01*
X171418981Y-42562612D01*
X170689380Y-42553276D01*
X170553695Y-42350208D01*
X170346852Y-42143365D01*
X170172460Y-42026840D01*
X170346852Y-41910315D01*
X170553695Y-41703472D01*
X170716210Y-41460251D01*
X170828152Y-41189998D01*
X170885220Y-40903100D01*
X170885220Y-40610580D01*
X170828152Y-40323682D01*
X170716210Y-40053429D01*
X170553695Y-39810208D01*
X170346852Y-39603365D01*
X170103631Y-39440850D01*
X169833378Y-39328908D01*
X169546480Y-39271840D01*
X169253960Y-39271840D01*
X168967062Y-39328908D01*
X168696809Y-39440850D01*
X168453588Y-39603365D01*
X168246745Y-39810208D01*
X168084230Y-40053429D01*
X167972288Y-40323682D01*
X167915220Y-40610580D01*
X167915220Y-40903100D01*
X167972288Y-41189998D01*
X168084230Y-41460251D01*
X168246745Y-41703472D01*
X168453588Y-41910315D01*
X168627980Y-42026840D01*
X168453588Y-42143365D01*
X168246745Y-42350208D01*
X168084230Y-42593429D01*
X167972288Y-42863682D01*
X167915220Y-43150580D01*
X167915220Y-43443100D01*
X167972288Y-43729998D01*
X168084230Y-44000251D01*
X168246745Y-44243472D01*
X168453588Y-44450315D01*
X168627980Y-44566840D01*
X168453588Y-44683365D01*
X168246745Y-44890208D01*
X168084230Y-45133429D01*
X167972288Y-45403682D01*
X167915220Y-45690580D01*
X167915220Y-45983100D01*
X167972288Y-46269998D01*
X168084230Y-46540251D01*
X168246745Y-46783472D01*
X168453588Y-46990315D01*
X168627980Y-47106840D01*
X168453588Y-47223365D01*
X168246745Y-47430208D01*
X168084230Y-47673429D01*
X167972288Y-47943682D01*
X167915220Y-48230580D01*
X167915220Y-48523100D01*
X167972288Y-48809998D01*
X168084230Y-49080251D01*
X168246745Y-49323472D01*
X168453588Y-49530315D01*
X168627980Y-49646840D01*
X168453588Y-49763365D01*
X168246745Y-49970208D01*
X168084230Y-50213429D01*
X167972288Y-50483682D01*
X167915220Y-50770580D01*
X167915220Y-51063100D01*
X167972288Y-51349998D01*
X168084230Y-51620251D01*
X168246745Y-51863472D01*
X168453588Y-52070315D01*
X168627980Y-52186840D01*
X168453588Y-52303365D01*
X168246745Y-52510208D01*
X168084230Y-52753429D01*
X167972288Y-53023682D01*
X167915220Y-53310580D01*
X167915220Y-53603100D01*
X167972288Y-53889998D01*
X168084230Y-54160251D01*
X168246745Y-54403472D01*
X168453588Y-54610315D01*
X168627980Y-54726840D01*
X168453588Y-54843365D01*
X168246745Y-55050208D01*
X168084230Y-55293429D01*
X167972288Y-55563682D01*
X167915220Y-55850580D01*
X167915220Y-56143100D01*
X167972288Y-56429998D01*
X168084230Y-56700251D01*
X168246745Y-56943472D01*
X168453588Y-57150315D01*
X168627980Y-57266840D01*
X168453588Y-57383365D01*
X168246745Y-57590208D01*
X168084230Y-57833429D01*
X167972288Y-58103682D01*
X167915220Y-58390580D01*
X167915220Y-58683100D01*
X167972288Y-58969998D01*
X168084230Y-59240251D01*
X168246745Y-59483472D01*
X168453588Y-59690315D01*
X168627980Y-59806840D01*
X168453588Y-59923365D01*
X168246745Y-60130208D01*
X168084230Y-60373429D01*
X167972288Y-60643682D01*
X167915220Y-60930580D01*
X167915220Y-61223100D01*
X167972288Y-61509998D01*
X168084230Y-61780251D01*
X168246745Y-62023472D01*
X168453588Y-62230315D01*
X168627980Y-62346840D01*
X168453588Y-62463365D01*
X168246745Y-62670208D01*
X168084230Y-62913429D01*
X167972288Y-63183682D01*
X167915220Y-63470580D01*
X167915220Y-63763100D01*
X167972288Y-64049998D01*
X168084230Y-64320251D01*
X168246745Y-64563472D01*
X168453588Y-64770315D01*
X168627980Y-64886840D01*
X168453588Y-65003365D01*
X168246745Y-65210208D01*
X168084230Y-65453429D01*
X167972288Y-65723682D01*
X167915220Y-66010580D01*
X167915220Y-66303100D01*
X167972288Y-66589998D01*
X167990440Y-66633820D01*
X167157242Y-66633820D01*
X161089264Y-60565843D01*
X161065461Y-60536839D01*
X160949736Y-60441866D01*
X160817707Y-60371294D01*
X160674446Y-60327837D01*
X160562793Y-60316840D01*
X160562782Y-60316840D01*
X160525460Y-60313164D01*
X160488138Y-60316840D01*
X147818398Y-60316840D01*
X147693695Y-60130208D01*
X147486852Y-59923365D01*
X147312460Y-59806840D01*
X147486852Y-59690315D01*
X147693695Y-59483472D01*
X147856210Y-59240251D01*
X147968152Y-58969998D01*
X148025220Y-58683100D01*
X148025220Y-58390580D01*
X147968152Y-58103682D01*
X147856210Y-57833429D01*
X147693695Y-57590208D01*
X147486852Y-57383365D01*
X147312460Y-57266840D01*
X147486852Y-57150315D01*
X147693695Y-56943472D01*
X147856210Y-56700251D01*
X147968152Y-56429998D01*
X148025220Y-56143100D01*
X148025220Y-55850580D01*
X147968152Y-55563682D01*
X147856210Y-55293429D01*
X147693695Y-55050208D01*
X147486852Y-54843365D01*
X147312460Y-54726840D01*
X147486852Y-54610315D01*
X147693695Y-54403472D01*
X147856210Y-54160251D01*
X147968152Y-53889998D01*
X148025220Y-53603100D01*
X148025220Y-53310580D01*
X147968152Y-53023682D01*
X147856210Y-52753429D01*
X147693695Y-52510208D01*
X147486852Y-52303365D01*
X147312460Y-52186840D01*
X147486852Y-52070315D01*
X147693695Y-51863472D01*
X147856210Y-51620251D01*
X147968152Y-51349998D01*
X148025220Y-51063100D01*
X148025220Y-50770580D01*
X147968152Y-50483682D01*
X147856210Y-50213429D01*
X147693695Y-49970208D01*
X147486852Y-49763365D01*
X147312460Y-49646840D01*
X147486852Y-49530315D01*
X147693695Y-49323472D01*
X147856210Y-49080251D01*
X147968152Y-48809998D01*
X148025220Y-48523100D01*
X148025220Y-48230580D01*
X147968152Y-47943682D01*
X147856210Y-47673429D01*
X147693695Y-47430208D01*
X147486852Y-47223365D01*
X147312460Y-47106840D01*
X147486852Y-46990315D01*
X147693695Y-46783472D01*
X147856210Y-46540251D01*
X147968152Y-46269998D01*
X148025220Y-45983100D01*
X148025220Y-45690580D01*
X147968152Y-45403682D01*
X147856210Y-45133429D01*
X147693695Y-44890208D01*
X147486852Y-44683365D01*
X147312460Y-44566840D01*
X147486852Y-44450315D01*
X147693695Y-44243472D01*
X147856210Y-44000251D01*
X147968152Y-43729998D01*
X148025220Y-43443100D01*
X148025220Y-43150580D01*
X147968152Y-42863682D01*
X147856210Y-42593429D01*
X147693695Y-42350208D01*
X147486852Y-42143365D01*
X147312460Y-42026840D01*
X147486852Y-41910315D01*
X147693695Y-41703472D01*
X147856210Y-41460251D01*
X147968152Y-41189998D01*
X148025220Y-40903100D01*
X148025220Y-40610580D01*
X147968152Y-40323682D01*
X147856210Y-40053429D01*
X147693695Y-39810208D01*
X147486852Y-39603365D01*
X147243631Y-39440850D01*
X146973378Y-39328908D01*
X146686480Y-39271840D01*
X146393960Y-39271840D01*
X146107062Y-39328908D01*
X145836809Y-39440850D01*
X145593588Y-39603365D01*
X145386745Y-39810208D01*
X145224230Y-40053429D01*
X145112288Y-40323682D01*
X145055220Y-40610580D01*
X140360000Y-40610580D01*
X140360000Y-30508169D01*
X140435088Y-29165108D01*
X140601728Y-28179872D01*
X141454400Y-28179872D01*
X141454400Y-28620128D01*
X141540290Y-29051925D01*
X141708769Y-29458669D01*
X141953362Y-29824729D01*
X142264671Y-30136038D01*
X142630731Y-30380631D01*
X143037475Y-30549110D01*
X143469272Y-30635000D01*
X143909528Y-30635000D01*
X144341325Y-30549110D01*
X144748069Y-30380631D01*
X145114129Y-30136038D01*
X145425438Y-29824729D01*
X145670031Y-29458669D01*
X145838510Y-29051925D01*
X145924400Y-28620128D01*
X145924400Y-28179872D01*
X145838510Y-27748075D01*
X145670031Y-27341331D01*
X145425438Y-26975271D01*
X145114129Y-26663962D01*
X144748069Y-26419369D01*
X144341325Y-26250890D01*
X143909528Y-26165000D01*
X143469272Y-26165000D01*
X143037475Y-26250890D01*
X142630731Y-26419369D01*
X142264671Y-26663962D01*
X141953362Y-26975271D01*
X141708769Y-27341331D01*
X141540290Y-27748075D01*
X141454400Y-28179872D01*
X140601728Y-28179872D01*
X140659803Y-27836519D01*
X141031219Y-26541236D01*
X141544698Y-25295442D01*
X142193848Y-24114645D01*
X142970571Y-23013570D01*
X143073161Y-22898019D01*
X154579800Y-22898019D01*
X154579800Y-23279181D01*
X154654161Y-23653019D01*
X154800025Y-24005166D01*
X155011787Y-24322091D01*
X155281309Y-24591613D01*
X155598234Y-24803375D01*
X155950381Y-24949239D01*
X156324219Y-25023600D01*
X156705381Y-25023600D01*
X157079219Y-24949239D01*
X157431366Y-24803375D01*
X157625587Y-24673601D01*
X158651332Y-24673601D01*
X158694801Y-24677882D01*
X158738270Y-24673601D01*
X158738278Y-24673601D01*
X158845571Y-24663034D01*
X158898691Y-24673600D01*
X159210909Y-24673600D01*
X159517127Y-24612689D01*
X159805579Y-24493209D01*
X159863236Y-24454684D01*
X159868988Y-24513082D01*
X159905298Y-24632780D01*
X159964263Y-24743094D01*
X160043615Y-24839785D01*
X160140306Y-24919137D01*
X160250620Y-24978102D01*
X160370318Y-25014412D01*
X160494800Y-25026672D01*
X161309050Y-25023600D01*
X161467800Y-24864850D01*
X161467800Y-23215600D01*
X161721800Y-23215600D01*
X161721800Y-24864850D01*
X161880550Y-25023600D01*
X162694800Y-25026672D01*
X162819282Y-25014412D01*
X162938980Y-24978102D01*
X163049294Y-24919137D01*
X163145985Y-24839785D01*
X163225337Y-24743094D01*
X163284302Y-24632780D01*
X163320612Y-24513082D01*
X163332872Y-24388600D01*
X163329800Y-23374350D01*
X163171050Y-23215600D01*
X161721800Y-23215600D01*
X161467800Y-23215600D01*
X161447800Y-23215600D01*
X161447800Y-22961600D01*
X161467800Y-22961600D01*
X161467800Y-21312350D01*
X161721800Y-21312350D01*
X161721800Y-22961600D01*
X163171050Y-22961600D01*
X163329800Y-22802850D01*
X163332872Y-21788600D01*
X163320612Y-21664118D01*
X163284302Y-21544420D01*
X163225337Y-21434106D01*
X163145985Y-21337415D01*
X163049294Y-21258063D01*
X162938980Y-21199098D01*
X162819282Y-21162788D01*
X162694800Y-21150528D01*
X161880550Y-21153600D01*
X161721800Y-21312350D01*
X161467800Y-21312350D01*
X161309050Y-21153600D01*
X160494800Y-21150528D01*
X160370318Y-21162788D01*
X160250620Y-21199098D01*
X160140306Y-21258063D01*
X160043615Y-21337415D01*
X159964263Y-21434106D01*
X159905298Y-21544420D01*
X159868988Y-21664118D01*
X159863236Y-21722516D01*
X159805579Y-21683991D01*
X159517127Y-21564511D01*
X159210909Y-21503600D01*
X158898691Y-21503600D01*
X158592473Y-21564511D01*
X158304021Y-21683991D01*
X158044421Y-21857450D01*
X158029408Y-21872463D01*
X158017813Y-21855109D01*
X157748291Y-21585587D01*
X157431366Y-21373825D01*
X157079219Y-21227961D01*
X156705381Y-21153600D01*
X156324219Y-21153600D01*
X155950381Y-21227961D01*
X155598234Y-21373825D01*
X155281309Y-21585587D01*
X155011787Y-21855109D01*
X154800025Y-22172034D01*
X154654161Y-22524181D01*
X154579800Y-22898019D01*
X143073161Y-22898019D01*
X143865191Y-22005934D01*
X144866562Y-21104297D01*
X145962187Y-20319906D01*
X147138422Y-19662531D01*
X148380609Y-19140363D01*
X149673251Y-18759918D01*
X151000246Y-18525933D01*
X152362342Y-18440238D01*
X152430476Y-18440000D01*
X195498385Y-18440000D01*
X196863297Y-18516310D01*
G36*
X194748741Y-30665882D02*
G01*
X203342332Y-39259474D01*
X203306020Y-39442025D01*
X203306020Y-39724695D01*
X203361167Y-40001934D01*
X203469340Y-40263087D01*
X203626383Y-40498119D01*
X203826261Y-40697997D01*
X203981021Y-40801404D01*
X203981020Y-42842338D01*
X200576098Y-46247261D01*
X195225667Y-46247261D01*
X195341989Y-46073173D01*
X195412147Y-46066263D01*
X195555408Y-46022806D01*
X195687437Y-45952234D01*
X195803162Y-45857261D01*
X195826965Y-45828257D01*
X197597224Y-44057999D01*
X197626221Y-44034202D01*
X197721194Y-43918477D01*
X197757883Y-43849839D01*
X200188029Y-41419694D01*
X200217021Y-41395901D01*
X200240815Y-41366908D01*
X200240819Y-41366904D01*
X200311993Y-41280177D01*
X200311994Y-41280176D01*
X200382566Y-41148147D01*
X200426023Y-41004886D01*
X200437020Y-40893233D01*
X200437020Y-40893224D01*
X200440696Y-40855901D01*
X200437020Y-40818578D01*
X200437020Y-40801403D01*
X200591779Y-40697997D01*
X200791657Y-40498119D01*
X200948700Y-40263087D01*
X201056873Y-40001934D01*
X201112020Y-39724695D01*
X201112020Y-39442025D01*
X201056873Y-39164786D01*
X200948700Y-38903633D01*
X200791657Y-38668601D01*
X200591779Y-38468723D01*
X200356747Y-38311680D01*
X200095594Y-38203507D01*
X199818355Y-38148360D01*
X199535685Y-38148360D01*
X199258446Y-38203507D01*
X198997293Y-38311680D01*
X198762261Y-38468723D01*
X198562383Y-38668601D01*
X198405340Y-38903633D01*
X198297167Y-39164786D01*
X198242020Y-39442025D01*
X198242020Y-39724695D01*
X198297167Y-40001934D01*
X198405340Y-40263087D01*
X198562383Y-40498119D01*
X198761191Y-40696927D01*
X196575221Y-42882898D01*
X196546219Y-42906699D01*
X196451246Y-43022424D01*
X196414558Y-43091061D01*
X195174773Y-44330846D01*
X195007712Y-44163785D01*
X194825546Y-44042065D01*
X194942435Y-43972438D01*
X195158668Y-43777529D01*
X195332721Y-43544180D01*
X195457905Y-43281359D01*
X195502556Y-43134150D01*
X195381235Y-42904260D01*
X194188080Y-42904260D01*
X194188080Y-42924260D01*
X193934080Y-42924260D01*
X193934080Y-42904260D01*
X192740925Y-42904260D01*
X192619604Y-43134150D01*
X192664255Y-43281359D01*
X192789439Y-43544180D01*
X192963492Y-43777529D01*
X193179725Y-43972438D01*
X193296614Y-44042065D01*
X193114448Y-44163785D01*
X192949821Y-44328412D01*
X192948300Y-44326559D01*
X192832575Y-44231586D01*
X192700546Y-44161014D01*
X192557285Y-44117557D01*
X192445632Y-44106560D01*
X192445621Y-44106560D01*
X192408299Y-44102884D01*
X192370977Y-44106560D01*
X192004220Y-44106560D01*
X192004220Y-39387260D01*
X192573008Y-39387260D01*
X192573008Y-41087260D01*
X192585268Y-41211742D01*
X192621578Y-41331440D01*
X192680543Y-41441754D01*
X192759895Y-41538445D01*
X192856586Y-41617797D01*
X192966900Y-41676762D01*
X193047546Y-41701226D01*
X192963492Y-41776991D01*
X192789439Y-42010340D01*
X192664255Y-42273161D01*
X192619604Y-42420370D01*
X192740925Y-42650260D01*
X193934080Y-42650260D01*
X193934080Y-42630260D01*
X194188080Y-42630260D01*
X194188080Y-42650260D01*
X195381235Y-42650260D01*
X195502556Y-42420370D01*
X195457905Y-42273161D01*
X195332721Y-42010340D01*
X195158668Y-41776991D01*
X195074614Y-41701226D01*
X195155260Y-41676762D01*
X195265574Y-41617797D01*
X195362265Y-41538445D01*
X195441617Y-41441754D01*
X195500582Y-41331440D01*
X195536892Y-41211742D01*
X195549152Y-41087260D01*
X195549152Y-39387260D01*
X195536892Y-39262778D01*
X195500582Y-39143080D01*
X195441617Y-39032766D01*
X195362265Y-38936075D01*
X195265574Y-38856723D01*
X195155260Y-38797758D01*
X195035562Y-38761448D01*
X194911080Y-38749188D01*
X193211080Y-38749188D01*
X193086598Y-38761448D01*
X192966900Y-38797758D01*
X192856586Y-38856723D01*
X192759895Y-38936075D01*
X192680543Y-39032766D01*
X192621578Y-39143080D01*
X192585268Y-39262778D01*
X192573008Y-39387260D01*
X192004220Y-39387260D01*
X192004220Y-39317250D01*
X192007860Y-39276194D01*
X192000205Y-39205538D01*
X191993223Y-39134654D01*
X191992136Y-39131071D01*
X191991734Y-39127359D01*
X191970441Y-39059550D01*
X191949766Y-38991393D01*
X191948002Y-38988093D01*
X191946883Y-38984529D01*
X191912748Y-38922137D01*
X191879194Y-38859364D01*
X191876822Y-38856473D01*
X191875027Y-38853193D01*
X191829344Y-38798621D01*
X191784221Y-38743639D01*
X191752357Y-38717489D01*
X189996188Y-36995232D01*
X189958900Y-36937064D01*
X189889387Y-36849001D01*
X189775488Y-36751845D01*
X189721449Y-36721626D01*
X189184735Y-36184913D01*
X189335667Y-36033981D01*
X189397626Y-35941253D01*
X189406288Y-36029202D01*
X189442598Y-36148900D01*
X189501563Y-36259214D01*
X189580915Y-36355905D01*
X189677606Y-36435257D01*
X189787920Y-36494222D01*
X189907618Y-36530532D01*
X190032100Y-36542792D01*
X191552100Y-36542792D01*
X191676582Y-36530532D01*
X191796280Y-36494222D01*
X191906594Y-36435257D01*
X192003285Y-36355905D01*
X192082637Y-36259214D01*
X192141602Y-36148900D01*
X192177912Y-36029202D01*
X192190172Y-35904720D01*
X192190172Y-34384720D01*
X192177912Y-34260238D01*
X192141602Y-34140540D01*
X192082637Y-34030226D01*
X192003285Y-33933535D01*
X191906594Y-33854183D01*
X191796280Y-33795218D01*
X191676582Y-33758908D01*
X191552100Y-33746648D01*
X190324018Y-33746648D01*
X190411361Y-33688287D01*
X190605667Y-33493981D01*
X190758333Y-33265500D01*
X190863491Y-33011627D01*
X190917100Y-32742116D01*
X190917100Y-32467324D01*
X190863491Y-32197813D01*
X190758333Y-31943940D01*
X190605667Y-31715459D01*
X190411361Y-31521153D01*
X190182880Y-31368487D01*
X189929007Y-31263329D01*
X189659496Y-31209720D01*
X189451902Y-31209720D01*
X190109962Y-30551660D01*
X194634519Y-30551660D01*
X194748741Y-30665882D01*
G37*
X194748741Y-30665882D02*
X203342332Y-39259474D01*
X203306020Y-39442025D01*
X203306020Y-39724695D01*
X203361167Y-40001934D01*
X203469340Y-40263087D01*
X203626383Y-40498119D01*
X203826261Y-40697997D01*
X203981021Y-40801404D01*
X203981020Y-42842338D01*
X200576098Y-46247261D01*
X195225667Y-46247261D01*
X195341989Y-46073173D01*
X195412147Y-46066263D01*
X195555408Y-46022806D01*
X195687437Y-45952234D01*
X195803162Y-45857261D01*
X195826965Y-45828257D01*
X197597224Y-44057999D01*
X197626221Y-44034202D01*
X197721194Y-43918477D01*
X197757883Y-43849839D01*
X200188029Y-41419694D01*
X200217021Y-41395901D01*
X200240815Y-41366908D01*
X200240819Y-41366904D01*
X200311993Y-41280177D01*
X200311994Y-41280176D01*
X200382566Y-41148147D01*
X200426023Y-41004886D01*
X200437020Y-40893233D01*
X200437020Y-40893224D01*
X200440696Y-40855901D01*
X200437020Y-40818578D01*
X200437020Y-40801403D01*
X200591779Y-40697997D01*
X200791657Y-40498119D01*
X200948700Y-40263087D01*
X201056873Y-40001934D01*
X201112020Y-39724695D01*
X201112020Y-39442025D01*
X201056873Y-39164786D01*
X200948700Y-38903633D01*
X200791657Y-38668601D01*
X200591779Y-38468723D01*
X200356747Y-38311680D01*
X200095594Y-38203507D01*
X199818355Y-38148360D01*
X199535685Y-38148360D01*
X199258446Y-38203507D01*
X198997293Y-38311680D01*
X198762261Y-38468723D01*
X198562383Y-38668601D01*
X198405340Y-38903633D01*
X198297167Y-39164786D01*
X198242020Y-39442025D01*
X198242020Y-39724695D01*
X198297167Y-40001934D01*
X198405340Y-40263087D01*
X198562383Y-40498119D01*
X198761191Y-40696927D01*
X196575221Y-42882898D01*
X196546219Y-42906699D01*
X196451246Y-43022424D01*
X196414558Y-43091061D01*
X195174773Y-44330846D01*
X195007712Y-44163785D01*
X194825546Y-44042065D01*
X194942435Y-43972438D01*
X195158668Y-43777529D01*
X195332721Y-43544180D01*
X195457905Y-43281359D01*
X195502556Y-43134150D01*
X195381235Y-42904260D01*
X194188080Y-42904260D01*
X194188080Y-42924260D01*
X193934080Y-42924260D01*
X193934080Y-42904260D01*
X192740925Y-42904260D01*
X192619604Y-43134150D01*
X192664255Y-43281359D01*
X192789439Y-43544180D01*
X192963492Y-43777529D01*
X193179725Y-43972438D01*
X193296614Y-44042065D01*
X193114448Y-44163785D01*
X192949821Y-44328412D01*
X192948300Y-44326559D01*
X192832575Y-44231586D01*
X192700546Y-44161014D01*
X192557285Y-44117557D01*
X192445632Y-44106560D01*
X192445621Y-44106560D01*
X192408299Y-44102884D01*
X192370977Y-44106560D01*
X192004220Y-44106560D01*
X192004220Y-39387260D01*
X192573008Y-39387260D01*
X192573008Y-41087260D01*
X192585268Y-41211742D01*
X192621578Y-41331440D01*
X192680543Y-41441754D01*
X192759895Y-41538445D01*
X192856586Y-41617797D01*
X192966900Y-41676762D01*
X193047546Y-41701226D01*
X192963492Y-41776991D01*
X192789439Y-42010340D01*
X192664255Y-42273161D01*
X192619604Y-42420370D01*
X192740925Y-42650260D01*
X193934080Y-42650260D01*
X193934080Y-42630260D01*
X194188080Y-42630260D01*
X194188080Y-42650260D01*
X195381235Y-42650260D01*
X195502556Y-42420370D01*
X195457905Y-42273161D01*
X195332721Y-42010340D01*
X195158668Y-41776991D01*
X195074614Y-41701226D01*
X195155260Y-41676762D01*
X195265574Y-41617797D01*
X195362265Y-41538445D01*
X195441617Y-41441754D01*
X195500582Y-41331440D01*
X195536892Y-41211742D01*
X195549152Y-41087260D01*
X195549152Y-39387260D01*
X195536892Y-39262778D01*
X195500582Y-39143080D01*
X195441617Y-39032766D01*
X195362265Y-38936075D01*
X195265574Y-38856723D01*
X195155260Y-38797758D01*
X195035562Y-38761448D01*
X194911080Y-38749188D01*
X193211080Y-38749188D01*
X193086598Y-38761448D01*
X192966900Y-38797758D01*
X192856586Y-38856723D01*
X192759895Y-38936075D01*
X192680543Y-39032766D01*
X192621578Y-39143080D01*
X192585268Y-39262778D01*
X192573008Y-39387260D01*
X192004220Y-39387260D01*
X192004220Y-39317250D01*
X192007860Y-39276194D01*
X192000205Y-39205538D01*
X191993223Y-39134654D01*
X191992136Y-39131071D01*
X191991734Y-39127359D01*
X191970441Y-39059550D01*
X191949766Y-38991393D01*
X191948002Y-38988093D01*
X191946883Y-38984529D01*
X191912748Y-38922137D01*
X191879194Y-38859364D01*
X191876822Y-38856473D01*
X191875027Y-38853193D01*
X191829344Y-38798621D01*
X191784221Y-38743639D01*
X191752357Y-38717489D01*
X189996188Y-36995232D01*
X189958900Y-36937064D01*
X189889387Y-36849001D01*
X189775488Y-36751845D01*
X189721449Y-36721626D01*
X189184735Y-36184913D01*
X189335667Y-36033981D01*
X189397626Y-35941253D01*
X189406288Y-36029202D01*
X189442598Y-36148900D01*
X189501563Y-36259214D01*
X189580915Y-36355905D01*
X189677606Y-36435257D01*
X189787920Y-36494222D01*
X189907618Y-36530532D01*
X190032100Y-36542792D01*
X191552100Y-36542792D01*
X191676582Y-36530532D01*
X191796280Y-36494222D01*
X191906594Y-36435257D01*
X192003285Y-36355905D01*
X192082637Y-36259214D01*
X192141602Y-36148900D01*
X192177912Y-36029202D01*
X192190172Y-35904720D01*
X192190172Y-34384720D01*
X192177912Y-34260238D01*
X192141602Y-34140540D01*
X192082637Y-34030226D01*
X192003285Y-33933535D01*
X191906594Y-33854183D01*
X191796280Y-33795218D01*
X191676582Y-33758908D01*
X191552100Y-33746648D01*
X190324018Y-33746648D01*
X190411361Y-33688287D01*
X190605667Y-33493981D01*
X190758333Y-33265500D01*
X190863491Y-33011627D01*
X190917100Y-32742116D01*
X190917100Y-32467324D01*
X190863491Y-32197813D01*
X190758333Y-31943940D01*
X190605667Y-31715459D01*
X190411361Y-31521153D01*
X190182880Y-31368487D01*
X189929007Y-31263329D01*
X189659496Y-31209720D01*
X189451902Y-31209720D01*
X190109962Y-30551660D01*
X194634519Y-30551660D01*
X194748741Y-30665882D01*
M02*
