G04 #@! TF.GenerationSoftware,KiCad,Pcbnew,(5.1.4)-1*
G04 #@! TF.CreationDate,2019-10-24T11:44:37+02:00*
G04 #@! TF.ProjectId,DNMS,444e4d53-2e6b-4696-9361-645f70636258,0.9.0*
G04 #@! TF.SameCoordinates,Original*
G04 #@! TF.FileFunction,Copper,L1,Top*
G04 #@! TF.FilePolarity,Positive*
%FSLAX46Y46*%
G04 Gerber Fmt 4.6, Leading zero omitted, Abs format (unit mm)*
G04 Created by KiCad (PCBNEW (5.1.4)-1) date 2019-10-24 11:44:37*
%MOMM*%
%LPD*%
G04 APERTURE LIST*
%ADD10C,1.530000*%
%ADD11C,1.524000*%
%ADD12O,1.600000X1.600000*%
%ADD13C,1.600000*%
%ADD14O,1.700000X1.700000*%
%ADD15R,1.700000X1.700000*%
%ADD16R,1.676400X1.676400*%
%ADD17C,1.676400*%
%ADD18C,0.500000*%
%ADD19C,0.250000*%
G04 APERTURE END LIST*
D10*
X134092620Y-76708000D03*
X131552620Y-76708000D03*
X129012620Y-76708000D03*
X126472620Y-76708000D03*
X123932620Y-76708000D03*
X121392620Y-76708000D03*
X118852620Y-76708000D03*
X116312620Y-76708000D03*
X113772620Y-76708000D03*
X111232620Y-76708000D03*
X108692620Y-76708000D03*
X106152620Y-76708000D03*
X103612620Y-76708000D03*
X101072620Y-76708000D03*
X98532620Y-76708000D03*
X95992620Y-76708000D03*
X101072620Y-91948000D03*
X103612620Y-91948000D03*
X106152620Y-91948000D03*
X108692620Y-91948000D03*
X111232620Y-91948000D03*
X113772620Y-91948000D03*
X116312620Y-91948000D03*
X118852620Y-91948000D03*
X121392620Y-91948000D03*
X123932620Y-91948000D03*
X126472620Y-91948000D03*
X129012620Y-91948000D03*
X131552620Y-91948000D03*
X134092620Y-91948000D03*
X93452620Y-76708000D03*
X90912620Y-76708000D03*
X88372620Y-76708000D03*
X85832620Y-76708000D03*
X83292620Y-76708000D03*
X80752620Y-76708000D03*
X78212620Y-76708000D03*
X75672620Y-76708000D03*
X98532620Y-91948000D03*
X95992620Y-91948000D03*
X93452620Y-91948000D03*
X75672620Y-91948000D03*
X78212620Y-91948000D03*
X80752620Y-91948000D03*
X83292620Y-91948000D03*
X85832620Y-91948000D03*
X88372620Y-91948000D03*
X90912620Y-91948000D03*
D11*
X131552620Y-89408000D03*
D12*
X180517800Y-77437600D03*
D13*
X180517800Y-84937600D03*
D14*
X69850000Y-86360000D03*
X69850000Y-83820000D03*
D15*
X69850000Y-81280000D03*
D14*
X64770000Y-86360000D03*
X64770000Y-83820000D03*
D15*
X64770000Y-81280000D03*
D14*
X188976000Y-92202000D03*
X188976000Y-89662000D03*
X188976000Y-87122000D03*
D15*
X188976000Y-84582000D03*
D14*
X184658000Y-85090000D03*
X184658000Y-82550000D03*
X184658000Y-80010000D03*
D15*
X184658000Y-77470000D03*
D14*
X157480000Y-91948000D03*
D15*
X160020000Y-91948000D03*
D16*
X176276000Y-76708000D03*
D17*
X173736000Y-76708000D03*
X171196000Y-76708000D03*
X168656000Y-76708000D03*
X168656000Y-84328000D03*
X171196000Y-84328000D03*
X173736000Y-84328000D03*
X176276000Y-84328000D03*
D12*
X161544000Y-76708000D03*
D13*
X161544000Y-86868000D03*
D12*
X165100000Y-76708000D03*
D13*
X165100000Y-86868000D03*
D18*
X69850000Y-81280000D02*
X64770000Y-81280000D01*
X173736000Y-86868000D02*
X176276000Y-84328000D01*
X165100000Y-86868000D02*
X173736000Y-86868000D01*
X154940000Y-89408000D02*
X131552620Y-89408000D01*
X157480000Y-91948000D02*
X154940000Y-89408000D01*
X160020000Y-93048000D02*
X160020000Y-91948000D01*
X159473010Y-93594990D02*
X160020000Y-93048000D01*
X135739610Y-93594990D02*
X159473010Y-93594990D01*
X134092620Y-91948000D02*
X135739610Y-93594990D01*
X161120000Y-91948000D02*
X161374000Y-91694000D01*
X160020000Y-91948000D02*
X161120000Y-91948000D01*
X161374000Y-91694000D02*
X183812000Y-91694000D01*
X186012000Y-77470000D02*
X184912000Y-77470000D01*
X187028000Y-77470000D02*
X186012000Y-77470000D01*
X187028000Y-81534000D02*
X187028000Y-77470000D01*
X188976000Y-83482000D02*
X187028000Y-81534000D01*
X188976000Y-84582000D02*
X188976000Y-83482000D01*
X187876000Y-84582000D02*
X185928000Y-86530000D01*
X188976000Y-84582000D02*
X187876000Y-84582000D01*
X185928000Y-89578000D02*
X183812000Y-91694000D01*
X185928000Y-86530000D02*
X185928000Y-89578000D01*
D19*
X173736000Y-84328000D02*
X175260000Y-82804000D01*
X182626000Y-82804000D02*
X184912000Y-85090000D01*
X175260000Y-82804000D02*
X182626000Y-82804000D01*
X161544000Y-76708000D02*
X165862000Y-81026000D01*
X167894000Y-81026000D02*
X171196000Y-84328000D01*
X165862000Y-81026000D02*
X167894000Y-81026000D01*
X100307621Y-91183001D02*
X101072620Y-91948000D01*
X100276201Y-91183001D02*
X100307621Y-91183001D01*
X97104200Y-88011000D02*
X100276201Y-91183001D01*
X66421000Y-88011000D02*
X97104200Y-88011000D01*
X64770000Y-86360000D02*
X66421000Y-88011000D01*
X64770000Y-83820000D02*
X66134999Y-85184999D01*
X126472620Y-91948000D02*
X119709619Y-85184999D01*
X66134999Y-85184999D02*
X119709619Y-85184999D01*
X101580620Y-83820000D02*
X101768110Y-83632510D01*
X69850000Y-83820000D02*
X101580620Y-83820000D01*
X108692620Y-76708000D02*
X101768110Y-83632510D01*
M02*
