G04 #@! TF.GenerationSoftware,KiCad,Pcbnew,5.1.5+dfsg1-2build2*
G04 #@! TF.CreationDate,2021-08-05T17:19:56+02:00*
G04 #@! TF.ProjectId,Airrohr_pcb,41697272-6f68-4725-9f70-63622e6b6963,rev?*
G04 #@! TF.SameCoordinates,Original*
G04 #@! TF.FileFunction,Copper,L1,Top*
G04 #@! TF.FilePolarity,Positive*
%FSLAX46Y46*%
G04 Gerber Fmt 4.6, Leading zero omitted, Abs format (unit mm)*
G04 Created by KiCad (PCBNEW 5.1.5+dfsg1-2build2) date 2021-08-05 17:19:56*
%MOMM*%
%LPD*%
G04 APERTURE LIST*
%ADD10C,1.400000*%
%ADD11C,1.200000*%
%ADD12R,1.520000X1.520000*%
%ADD13C,1.520000*%
%ADD14O,1.600000X1.600000*%
%ADD15C,1.600000*%
%ADD16R,1.000000X0.500000*%
%ADD17C,1.900000*%
%ADD18R,2.200000X2.600000*%
%ADD19C,2.600000*%
%ADD20O,1.700000X1.700000*%
%ADD21R,1.700000X1.700000*%
%ADD22R,1.676400X1.676400*%
%ADD23C,1.676400*%
%ADD24R,2.200000X0.600000*%
%ADD25O,1.700000X1.950000*%
%ADD26C,0.100000*%
%ADD27C,1.700000*%
%ADD28C,1.740000*%
%ADD29O,1.100000X1.700000*%
%ADD30C,0.800000*%
%ADD31C,0.500000*%
%ADD32C,0.250000*%
%ADD33C,0.254000*%
G04 APERTURE END LIST*
D10*
X185448100Y-26757760D03*
X186468100Y-24217760D03*
X187488100Y-26757760D03*
X188508100Y-24217760D03*
X189528100Y-26757760D03*
X190548100Y-24217760D03*
D11*
X193998100Y-21917760D03*
X181998100Y-21917760D03*
D12*
X190792100Y-35144720D03*
D13*
X189522100Y-32604720D03*
X188252100Y-35144720D03*
X186982100Y-32604720D03*
X185712100Y-35144720D03*
X184442100Y-32604720D03*
D14*
X204741020Y-39583360D03*
D15*
X204741020Y-49743360D03*
D16*
X157834800Y-23088600D03*
D17*
X159054800Y-23088600D03*
D18*
X161594800Y-23088600D03*
D19*
X156514800Y-23088600D03*
D20*
X194061080Y-47857260D03*
X194061080Y-45317260D03*
X194061080Y-42777260D03*
D21*
X194061080Y-40237260D03*
D22*
X177906680Y-48084740D03*
D23*
X180446680Y-48084740D03*
X182986680Y-48084740D03*
X185526680Y-48084740D03*
X185526680Y-40464740D03*
X182986680Y-40464740D03*
X180446680Y-40464740D03*
X177906680Y-40464740D03*
D20*
X190285000Y-59168400D03*
X192825000Y-59168400D03*
X195365000Y-59168400D03*
D21*
X197905000Y-59168400D03*
D20*
X190285000Y-53168400D03*
X192825000Y-53168400D03*
X195365000Y-53168400D03*
D21*
X197905000Y-53168400D03*
D24*
X179091280Y-42293540D03*
X179091280Y-43563540D03*
X179091280Y-46103540D03*
X184291280Y-42293540D03*
X184291280Y-43563540D03*
X184291280Y-46103540D03*
X179091280Y-44833540D03*
X184291280Y-44833540D03*
D15*
X188803280Y-46867140D03*
X188803280Y-41867140D03*
X188803280Y-40617140D03*
X188803280Y-48117140D03*
D25*
X202278000Y-80772000D03*
X199778000Y-80772000D03*
X197278000Y-80772000D03*
X194778000Y-80772000D03*
G04 #@! TA.AperFunction,ComponentPad*
D26*
G36*
X192902504Y-79798204D02*
G01*
X192926773Y-79801804D01*
X192950571Y-79807765D01*
X192973671Y-79816030D01*
X192995849Y-79826520D01*
X193016893Y-79839133D01*
X193036598Y-79853747D01*
X193054777Y-79870223D01*
X193071253Y-79888402D01*
X193085867Y-79908107D01*
X193098480Y-79929151D01*
X193108970Y-79951329D01*
X193117235Y-79974429D01*
X193123196Y-79998227D01*
X193126796Y-80022496D01*
X193128000Y-80047000D01*
X193128000Y-81497000D01*
X193126796Y-81521504D01*
X193123196Y-81545773D01*
X193117235Y-81569571D01*
X193108970Y-81592671D01*
X193098480Y-81614849D01*
X193085867Y-81635893D01*
X193071253Y-81655598D01*
X193054777Y-81673777D01*
X193036598Y-81690253D01*
X193016893Y-81704867D01*
X192995849Y-81717480D01*
X192973671Y-81727970D01*
X192950571Y-81736235D01*
X192926773Y-81742196D01*
X192902504Y-81745796D01*
X192878000Y-81747000D01*
X191678000Y-81747000D01*
X191653496Y-81745796D01*
X191629227Y-81742196D01*
X191605429Y-81736235D01*
X191582329Y-81727970D01*
X191560151Y-81717480D01*
X191539107Y-81704867D01*
X191519402Y-81690253D01*
X191501223Y-81673777D01*
X191484747Y-81655598D01*
X191470133Y-81635893D01*
X191457520Y-81614849D01*
X191447030Y-81592671D01*
X191438765Y-81569571D01*
X191432804Y-81545773D01*
X191429204Y-81521504D01*
X191428000Y-81497000D01*
X191428000Y-80047000D01*
X191429204Y-80022496D01*
X191432804Y-79998227D01*
X191438765Y-79974429D01*
X191447030Y-79951329D01*
X191457520Y-79929151D01*
X191470133Y-79908107D01*
X191484747Y-79888402D01*
X191501223Y-79870223D01*
X191519402Y-79853747D01*
X191539107Y-79839133D01*
X191560151Y-79826520D01*
X191582329Y-79816030D01*
X191605429Y-79807765D01*
X191629227Y-79801804D01*
X191653496Y-79798204D01*
X191678000Y-79797000D01*
X192878000Y-79797000D01*
X192902504Y-79798204D01*
G37*
G04 #@! TD.AperFunction*
D27*
X171138600Y-44399200D03*
X171138600Y-49479200D03*
X171138600Y-46939200D03*
X171138600Y-67259200D03*
X171138600Y-64719200D03*
X171138600Y-59639200D03*
X171138600Y-62179200D03*
X171138600Y-77419200D03*
X171138600Y-57099200D03*
X171138600Y-52019200D03*
X171138600Y-54559200D03*
X171138600Y-69799200D03*
X171138600Y-74879200D03*
X171138600Y-72339200D03*
X171138600Y-41859200D03*
X148278600Y-77419200D03*
X148278600Y-74879200D03*
X148278600Y-72339200D03*
X148278600Y-69799200D03*
X148278600Y-67259200D03*
X148278600Y-64719200D03*
X148278600Y-62179200D03*
X148278600Y-59639200D03*
X148278600Y-57099200D03*
X148278600Y-54559200D03*
X148278600Y-52019200D03*
X148278600Y-49479200D03*
X148278600Y-46939200D03*
X148278600Y-44399200D03*
X148278600Y-41859200D03*
X173653200Y-41833800D03*
X173653200Y-44373800D03*
X173653200Y-46913800D03*
D28*
X173653200Y-49453800D03*
D27*
X173653200Y-51993800D03*
X173653200Y-54533800D03*
X173653200Y-57073800D03*
X173653200Y-59613800D03*
X173653200Y-62153800D03*
X173653200Y-64693800D03*
X173653200Y-67233800D03*
X173653200Y-69773800D03*
X173653200Y-72313800D03*
X173653200Y-74853800D03*
X173653200Y-77393800D03*
X145713200Y-77393800D03*
X145713200Y-74853800D03*
X145713200Y-72313800D03*
X145713200Y-69773800D03*
X145713200Y-67233800D03*
X145713200Y-64693800D03*
X145713200Y-62153800D03*
X145713200Y-59613800D03*
X145713200Y-57073800D03*
X145713200Y-54533800D03*
X145713200Y-51993800D03*
X145713200Y-49453800D03*
X145713200Y-46913800D03*
X145713200Y-44373800D03*
X145713200Y-41833800D03*
D20*
X190285000Y-73168400D03*
X192825000Y-73168400D03*
X195365000Y-73168400D03*
D21*
X197905000Y-73168400D03*
D20*
X190285000Y-67168400D03*
X192825000Y-67168400D03*
X195365000Y-67168400D03*
D21*
X197905000Y-67168400D03*
D29*
X176085000Y-22987000D03*
X174585000Y-22987000D03*
X173085000Y-22987000D03*
X171585000Y-22987000D03*
G04 #@! TA.AperFunction,ComponentPad*
D26*
G36*
X170489149Y-22137779D02*
G01*
X170504846Y-22140107D01*
X170520239Y-22143963D01*
X170535180Y-22149309D01*
X170549525Y-22156093D01*
X170563136Y-22164251D01*
X170575881Y-22173704D01*
X170587639Y-22184361D01*
X170598296Y-22196119D01*
X170607749Y-22208864D01*
X170615907Y-22222475D01*
X170622691Y-22236820D01*
X170628037Y-22251761D01*
X170631893Y-22267154D01*
X170634221Y-22282851D01*
X170635000Y-22298700D01*
X170635000Y-23675300D01*
X170634221Y-23691149D01*
X170631893Y-23706846D01*
X170628037Y-23722239D01*
X170622691Y-23737180D01*
X170615907Y-23751525D01*
X170607749Y-23765136D01*
X170598296Y-23777881D01*
X170587639Y-23789639D01*
X170575881Y-23800296D01*
X170563136Y-23809749D01*
X170549525Y-23817907D01*
X170535180Y-23824691D01*
X170520239Y-23830037D01*
X170504846Y-23833893D01*
X170489149Y-23836221D01*
X170473300Y-23837000D01*
X169696700Y-23837000D01*
X169680851Y-23836221D01*
X169665154Y-23833893D01*
X169649761Y-23830037D01*
X169634820Y-23824691D01*
X169620475Y-23817907D01*
X169606864Y-23809749D01*
X169594119Y-23800296D01*
X169582361Y-23789639D01*
X169571704Y-23777881D01*
X169562251Y-23765136D01*
X169554093Y-23751525D01*
X169547309Y-23737180D01*
X169541963Y-23722239D01*
X169538107Y-23706846D01*
X169535779Y-23691149D01*
X169535000Y-23675300D01*
X169535000Y-22298700D01*
X169535779Y-22282851D01*
X169538107Y-22267154D01*
X169541963Y-22251761D01*
X169547309Y-22236820D01*
X169554093Y-22222475D01*
X169562251Y-22208864D01*
X169571704Y-22196119D01*
X169582361Y-22184361D01*
X169594119Y-22173704D01*
X169606864Y-22164251D01*
X169620475Y-22156093D01*
X169634820Y-22149309D01*
X169649761Y-22143963D01*
X169665154Y-22140107D01*
X169680851Y-22137779D01*
X169696700Y-22137000D01*
X170473300Y-22137000D01*
X170489149Y-22137779D01*
G37*
G04 #@! TD.AperFunction*
D14*
X199677020Y-39583360D03*
D15*
X199677020Y-49743360D03*
D14*
X178516280Y-52537360D03*
D15*
X178516280Y-62697360D03*
D14*
X183088280Y-52410360D03*
D15*
X183088280Y-62570360D03*
D14*
X178574700Y-77287120D03*
D15*
X178574700Y-67127120D03*
D20*
X183984900Y-75483720D03*
X183984900Y-72943720D03*
X183984900Y-70403720D03*
D21*
X183984900Y-67863720D03*
D20*
X150114000Y-25603200D03*
D21*
X150114000Y-23063200D03*
D30*
X181742080Y-43487340D03*
X175427640Y-28788360D03*
X176273460Y-44833540D03*
X176273460Y-49771300D03*
X180431440Y-37510720D03*
X194980560Y-23944580D03*
X185173620Y-44866560D03*
D31*
X194828160Y7861300D02*
X194726560Y7759700D01*
D32*
X185526680Y-48084740D02*
X186712073Y-48084740D01*
D31*
X188770880Y-48084740D02*
X188803280Y-48117140D01*
X185526680Y-48084740D02*
X188770880Y-48084740D01*
D32*
X174218600Y-74168000D02*
X174218600Y-74269600D01*
D31*
X173653200Y-74853800D02*
X181091840Y-74853800D01*
X181721760Y-75483720D02*
X183984900Y-75483720D01*
X181091840Y-74853800D02*
X181721760Y-75483720D01*
X188803280Y-46867140D02*
X188803280Y-48117140D01*
X192858999Y-42777260D02*
X194061080Y-42777260D01*
X191761790Y-42777260D02*
X192858999Y-42777260D01*
X188803280Y-45735770D02*
X191761790Y-42777260D01*
X188803280Y-46867140D02*
X188803280Y-45735770D01*
X185712100Y-35144720D02*
X185712100Y-37355780D01*
X185712100Y-37355780D02*
X187225940Y-38869620D01*
X187225940Y-45289800D02*
X188803280Y-46867140D01*
X184291280Y-42293540D02*
X185891280Y-42293540D01*
X185896360Y-42298620D02*
X187185300Y-42298620D01*
X185891280Y-42293540D02*
X185896360Y-42298620D01*
X187225940Y-38869620D02*
X187185300Y-42298620D01*
X187185300Y-42298620D02*
X187225940Y-45289800D01*
X167862000Y-75996800D02*
X169284400Y-77419200D01*
X169284400Y-77419200D02*
X171138600Y-77419200D01*
X171062400Y-54559200D02*
X170986200Y-54635400D01*
X170986200Y-54635400D02*
X168522400Y-54635400D01*
X168522400Y-54635400D02*
X167862000Y-55295800D01*
X167862000Y-55295800D02*
X167862000Y-75996800D01*
X197905000Y-54518400D02*
X197905000Y-59168400D01*
X197905000Y-53168400D02*
X197905000Y-54518400D01*
X188803280Y-40617140D02*
X188803280Y-41867140D01*
X175125380Y-54533800D02*
X173653200Y-54533800D01*
X175400599Y-54258581D02*
X175125380Y-54533800D01*
X175536860Y-40464740D02*
X177906680Y-40464740D01*
X175400599Y-40601001D02*
X175536860Y-40464740D01*
X175445420Y-46103540D02*
X175409860Y-46067980D01*
X179091280Y-46103540D02*
X175445420Y-46103540D01*
X175400599Y-40601001D02*
X175409860Y-46067980D01*
X175409860Y-46067980D02*
X175400599Y-54258581D01*
X197905000Y-62173760D02*
X197905000Y-59168400D01*
X197912980Y-62181740D02*
X197905000Y-62173760D01*
X183088280Y-62570360D02*
X197524360Y-62570360D01*
X197524360Y-62570360D02*
X197912980Y-62181740D01*
D32*
X166363400Y-44399200D02*
X165474400Y-45288200D01*
X171138600Y-44399200D02*
X166363400Y-44399200D01*
X191328000Y-80772000D02*
X192278000Y-80772000D01*
X165474400Y-45288200D02*
X165486080Y-78148180D01*
X165486080Y-78247240D02*
X167830500Y-80591660D01*
X165486080Y-78148180D02*
X165486080Y-78247240D01*
X167827960Y-80591660D02*
X167830500Y-80591660D01*
X189532260Y-79006700D02*
X190192660Y-79667100D01*
X190068160Y-79512160D02*
X190192660Y-79667100D01*
X181251860Y-80591660D02*
X182836820Y-79006700D01*
X167830500Y-80591660D02*
X181251860Y-80591660D01*
X190192660Y-79667100D02*
X191328000Y-80772000D01*
X182836820Y-79006700D02*
X189532260Y-79006700D01*
X169936519Y-46939200D02*
X171138600Y-46939200D01*
X169931439Y-46934120D02*
X169936519Y-46939200D01*
X194818000Y-79507000D02*
X194818000Y-78740000D01*
X182112920Y-77889100D02*
X180939870Y-79062150D01*
X166672260Y-77886560D02*
X166672260Y-47660560D01*
X193888360Y-77889100D02*
X182112920Y-77889100D01*
X194778000Y-80772000D02*
X194778000Y-79547000D01*
X194818000Y-78740000D02*
X193888360Y-77889100D01*
X194778000Y-79547000D02*
X194818000Y-79507000D01*
X166672260Y-47660560D02*
X167398700Y-46934120D01*
X180939870Y-79062150D02*
X167847850Y-79062150D01*
X167847850Y-79062150D02*
X166672260Y-77886560D01*
X167398700Y-46934120D02*
X169931439Y-46934120D01*
D31*
X144635570Y-46913800D02*
X142995400Y-48553970D01*
X145713200Y-46913800D02*
X144635570Y-46913800D01*
D32*
X148278600Y-77419200D02*
X148126200Y-77419200D01*
D31*
X142970000Y-48514000D02*
X142970000Y-80732030D01*
X150114000Y-75361800D02*
X150114000Y-25603200D01*
X197905000Y-71818400D02*
X197905000Y-67168400D01*
X197905000Y-73168400D02*
X197905000Y-71818400D01*
X150114000Y-25603200D02*
X150963999Y-26453199D01*
X152517741Y-26453199D02*
X152519380Y-26451560D01*
X152128881Y-26416000D02*
X152519380Y-26451560D01*
X150963999Y-26453199D02*
X152517741Y-26453199D01*
X152519380Y-26451560D02*
X168656000Y-26416000D01*
X170085000Y-23837000D02*
X170070780Y-23851220D01*
X170085000Y-22987000D02*
X170085000Y-23837000D01*
X170070780Y-25001220D02*
X168656000Y-26416000D01*
X170070780Y-23851220D02*
X170070780Y-25001220D01*
X192052100Y-35144720D02*
X192057260Y-35139560D01*
X150114000Y-76785881D02*
X150114000Y-75361800D01*
X149480681Y-77419200D02*
X150114000Y-76785881D01*
X148278600Y-77419200D02*
X149480681Y-77419200D01*
X148304000Y-78994000D02*
X146526000Y-80772000D01*
X148304000Y-78646681D02*
X148304000Y-78994000D01*
X148278600Y-78621281D02*
X148304000Y-78646681D01*
X152176480Y-87274400D02*
X152191720Y-87259160D01*
X148278600Y-77419200D02*
X148278600Y-78621281D01*
X146526000Y-80772000D02*
X142995400Y-80772000D01*
X142995400Y-80772000D02*
X142995400Y-85456780D01*
X142995400Y-85456780D02*
X144813020Y-87274400D01*
X144813020Y-87274400D02*
X152176480Y-87274400D01*
X199821800Y-82290800D02*
X199821800Y-87292180D01*
X199778000Y-80772000D02*
X199778000Y-82247000D01*
X152191720Y-87259160D02*
X199821800Y-87292180D01*
X199778000Y-82247000D02*
X199821800Y-82290800D01*
X199778000Y-79297000D02*
X199788780Y-79286220D01*
X199778000Y-80772000D02*
X199778000Y-79297000D01*
X199788780Y-76306680D02*
X197975220Y-74493120D01*
X199788780Y-79286220D02*
X199788780Y-76306680D01*
X197905000Y-73168400D02*
X197975220Y-74493120D01*
X197975220Y-74493120D02*
X197905000Y-74518400D01*
X191427180Y-30699640D02*
X189522100Y-32604720D01*
X199531040Y-30699640D02*
X191427180Y-30699640D01*
X194061080Y-38887260D02*
X194048380Y-38874560D01*
X194061080Y-40237260D02*
X194061080Y-38887260D01*
X194048380Y-37101780D02*
X192100200Y-35153600D01*
X194048380Y-38874560D02*
X194048380Y-37101780D01*
X190792100Y-35144720D02*
X192100200Y-35153600D01*
X192100200Y-35153600D02*
X192052100Y-35144720D01*
X190792100Y-33874720D02*
X189522100Y-32604720D01*
X190792100Y-35144720D02*
X190792100Y-33874720D01*
X201640580Y-32809180D02*
X199531040Y-30699640D01*
X205590140Y-32809180D02*
X201640580Y-32809180D01*
X202955800Y-64650000D02*
X207276700Y-60467240D01*
X207276700Y-34495740D02*
X205590140Y-32809180D01*
X207276700Y-60467240D02*
X207276700Y-34495740D01*
X199364600Y-30533200D02*
X199531040Y-30699640D01*
X170085000Y-20989800D02*
X172110400Y-18964400D01*
X172110400Y-18964400D02*
X185851800Y-18939000D01*
X199364600Y-23698200D02*
X199364600Y-30533200D01*
X170085000Y-22987000D02*
X170085000Y-20989800D01*
X194605400Y-18939000D02*
X199364600Y-23698200D01*
X200437400Y-67168400D02*
X197905000Y-67168400D01*
X202955800Y-64650000D02*
X200437400Y-67168400D01*
X186468100Y-24217760D02*
X185399680Y-25286180D01*
X185448100Y-25334600D02*
X185448100Y-26757760D01*
X185399680Y-25286180D02*
X185448100Y-25334600D01*
X186494420Y-23201491D02*
X186494420Y-18983960D01*
X186468100Y-23227811D02*
X186494420Y-23201491D01*
X186468100Y-24217760D02*
X186468100Y-23227811D01*
X185851800Y-18939000D02*
X186494420Y-18983960D01*
X186494420Y-18983960D02*
X194605400Y-18939000D01*
D32*
X181742080Y-41709340D02*
X182986680Y-40464740D01*
X181742080Y-43487340D02*
X181742080Y-43487340D01*
X183113680Y-52410360D02*
X183088280Y-52410360D01*
X189526960Y-52410360D02*
X190285000Y-53168400D01*
X183088280Y-52410360D02*
X189526960Y-52410360D01*
X181742080Y-43487340D02*
X181742080Y-41709340D01*
X179167480Y-43487340D02*
X179091280Y-43563540D01*
X181742080Y-43487340D02*
X179167480Y-43487340D01*
X171585000Y-24830685D02*
X171585000Y-22987000D01*
X174861955Y-28222675D02*
X175427640Y-28788360D01*
X174861955Y-28222675D02*
X174859415Y-28222675D01*
X171585000Y-24948260D02*
X171585000Y-24830685D01*
X174859415Y-28222675D02*
X171585000Y-24948260D01*
D31*
X183388000Y-48717200D02*
X182626000Y-47980600D01*
D32*
X192542400Y-66819119D02*
X192567800Y-66793719D01*
X186187080Y-43563540D02*
X186237880Y-43614340D01*
X184291280Y-43563540D02*
X186187080Y-43563540D01*
X186237880Y-43614340D02*
X186237880Y-46560740D01*
X185958480Y-46840140D02*
X184231280Y-46840140D01*
X184231280Y-46840140D02*
X182986680Y-48084740D01*
X186237880Y-46560740D02*
X185958480Y-46840140D01*
X194645280Y-47908060D02*
X193443199Y-47908060D01*
X204690220Y-39583360D02*
X204741020Y-39583360D01*
X179091280Y-44833540D02*
X176273460Y-44833540D01*
X176273460Y-44833540D02*
X176273460Y-44833540D01*
X176273460Y-49771300D02*
X193779140Y-49771300D01*
X194061080Y-49489360D02*
X194061080Y-47857260D01*
X193779140Y-49771300D02*
X194061080Y-49489360D01*
X180431440Y-40449500D02*
X180446680Y-40464740D01*
X180431440Y-37510720D02*
X180431440Y-40449500D01*
X188508100Y-23227811D02*
X189251831Y-22484080D01*
X188508100Y-24217760D02*
X188508100Y-23227811D01*
X189251831Y-22484080D02*
X190840360Y-22484080D01*
X190840360Y-22484080D02*
X191670940Y-22484080D01*
X191670940Y-22484080D02*
X192747900Y-23561040D01*
X192747900Y-23561040D02*
X193131440Y-23944580D01*
X193131440Y-23944580D02*
X194980560Y-23944580D01*
X194980560Y-23944580D02*
X194980560Y-23944580D01*
X182941280Y-44833540D02*
X184291280Y-44833540D01*
X182351680Y-46179740D02*
X182351680Y-45423140D01*
X182351680Y-45423140D02*
X182941280Y-44833540D01*
X180446680Y-48084740D02*
X182351680Y-46179740D01*
X187490100Y-30850840D02*
X188252100Y-31612840D01*
X187490100Y-27749709D02*
X187490100Y-30850840D01*
X188252100Y-31612840D02*
X188252100Y-35144720D01*
X187488100Y-26757760D02*
X187488100Y-27747709D01*
X187488100Y-27747709D02*
X187490100Y-27749709D01*
X202949200Y-80799400D02*
X202949200Y-80924400D01*
D33*
G36*
X169489951Y-20333271D02*
G01*
X169456184Y-20360983D01*
X169428471Y-20394751D01*
X169428468Y-20394754D01*
X169345590Y-20495741D01*
X169263412Y-20649487D01*
X169212805Y-20816310D01*
X169195719Y-20989800D01*
X169200001Y-21033279D01*
X169200001Y-21676693D01*
X169131176Y-21733176D01*
X169031714Y-21854370D01*
X168957807Y-21992641D01*
X168912295Y-22142672D01*
X168896928Y-22298700D01*
X168896928Y-23675300D01*
X168912295Y-23831328D01*
X168957807Y-23981359D01*
X169031714Y-24119630D01*
X169131176Y-24240824D01*
X169185780Y-24285637D01*
X169185781Y-24634641D01*
X168288614Y-25531808D01*
X152561877Y-25566464D01*
X152519380Y-25562279D01*
X152516111Y-25562601D01*
X152165841Y-25530704D01*
X152035204Y-25531666D01*
X151864479Y-25566935D01*
X151861490Y-25568199D01*
X151599000Y-25568199D01*
X151599000Y-25456940D01*
X151541932Y-25170042D01*
X151429990Y-24899789D01*
X151267475Y-24656568D01*
X151135620Y-24524713D01*
X151208180Y-24502702D01*
X151318494Y-24443737D01*
X151415185Y-24364385D01*
X151494537Y-24267694D01*
X151553502Y-24157380D01*
X151589812Y-24037682D01*
X151602072Y-23913200D01*
X151602072Y-22898019D01*
X154579800Y-22898019D01*
X154579800Y-23279181D01*
X154654161Y-23653019D01*
X154800025Y-24005166D01*
X155011787Y-24322091D01*
X155281309Y-24591613D01*
X155598234Y-24803375D01*
X155950381Y-24949239D01*
X156324219Y-25023600D01*
X156705381Y-25023600D01*
X157079219Y-24949239D01*
X157431366Y-24803375D01*
X157748291Y-24591613D01*
X158017813Y-24322091D01*
X158029408Y-24304737D01*
X158044421Y-24319750D01*
X158304021Y-24493209D01*
X158592473Y-24612689D01*
X158898691Y-24673600D01*
X159210909Y-24673600D01*
X159517127Y-24612689D01*
X159805579Y-24493209D01*
X159863236Y-24454684D01*
X159868988Y-24513082D01*
X159905298Y-24632780D01*
X159964263Y-24743094D01*
X160043615Y-24839785D01*
X160140306Y-24919137D01*
X160250620Y-24978102D01*
X160370318Y-25014412D01*
X160494800Y-25026672D01*
X161309050Y-25023600D01*
X161467800Y-24864850D01*
X161467800Y-23215600D01*
X161721800Y-23215600D01*
X161721800Y-24864850D01*
X161880550Y-25023600D01*
X162694800Y-25026672D01*
X162819282Y-25014412D01*
X162938980Y-24978102D01*
X163049294Y-24919137D01*
X163145985Y-24839785D01*
X163225337Y-24743094D01*
X163284302Y-24632780D01*
X163320612Y-24513082D01*
X163332872Y-24388600D01*
X163329800Y-23374350D01*
X163171050Y-23215600D01*
X161721800Y-23215600D01*
X161467800Y-23215600D01*
X161447800Y-23215600D01*
X161447800Y-22961600D01*
X161467800Y-22961600D01*
X161467800Y-21312350D01*
X161721800Y-21312350D01*
X161721800Y-22961600D01*
X163171050Y-22961600D01*
X163329800Y-22802850D01*
X163332872Y-21788600D01*
X163320612Y-21664118D01*
X163284302Y-21544420D01*
X163225337Y-21434106D01*
X163145985Y-21337415D01*
X163049294Y-21258063D01*
X162938980Y-21199098D01*
X162819282Y-21162788D01*
X162694800Y-21150528D01*
X161880550Y-21153600D01*
X161721800Y-21312350D01*
X161467800Y-21312350D01*
X161309050Y-21153600D01*
X160494800Y-21150528D01*
X160370318Y-21162788D01*
X160250620Y-21199098D01*
X160140306Y-21258063D01*
X160043615Y-21337415D01*
X159964263Y-21434106D01*
X159905298Y-21544420D01*
X159868988Y-21664118D01*
X159863236Y-21722516D01*
X159805579Y-21683991D01*
X159517127Y-21564511D01*
X159210909Y-21503600D01*
X158898691Y-21503600D01*
X158592473Y-21564511D01*
X158304021Y-21683991D01*
X158044421Y-21857450D01*
X158029408Y-21872463D01*
X158017813Y-21855109D01*
X157748291Y-21585587D01*
X157431366Y-21373825D01*
X157079219Y-21227961D01*
X156705381Y-21153600D01*
X156324219Y-21153600D01*
X155950381Y-21227961D01*
X155598234Y-21373825D01*
X155281309Y-21585587D01*
X155011787Y-21855109D01*
X154800025Y-22172034D01*
X154654161Y-22524181D01*
X154579800Y-22898019D01*
X151602072Y-22898019D01*
X151602072Y-22213200D01*
X151589812Y-22088718D01*
X151553502Y-21969020D01*
X151494537Y-21858706D01*
X151415185Y-21762015D01*
X151318494Y-21682663D01*
X151208180Y-21623698D01*
X151088482Y-21587388D01*
X150964000Y-21575128D01*
X149264000Y-21575128D01*
X149139518Y-21587388D01*
X149019820Y-21623698D01*
X148909506Y-21682663D01*
X148812815Y-21762015D01*
X148733463Y-21858706D01*
X148674498Y-21969020D01*
X148638188Y-22088718D01*
X148625928Y-22213200D01*
X148625928Y-23913200D01*
X148638188Y-24037682D01*
X148674498Y-24157380D01*
X148733463Y-24267694D01*
X148812815Y-24364385D01*
X148909506Y-24443737D01*
X149019820Y-24502702D01*
X149092380Y-24524713D01*
X148960525Y-24656568D01*
X148798010Y-24899789D01*
X148686068Y-25170042D01*
X148629000Y-25456940D01*
X148629000Y-25749460D01*
X148686068Y-26036358D01*
X148798010Y-26306611D01*
X148960525Y-26549832D01*
X149167368Y-26756675D01*
X149229001Y-26797857D01*
X149229001Y-40709494D01*
X149225232Y-40705725D01*
X148982011Y-40543210D01*
X148711758Y-40431268D01*
X148424860Y-40374200D01*
X148132340Y-40374200D01*
X147845442Y-40431268D01*
X147575189Y-40543210D01*
X147331968Y-40705725D01*
X147125125Y-40912568D01*
X147004386Y-41093267D01*
X146866675Y-40887168D01*
X146659832Y-40680325D01*
X146416611Y-40517810D01*
X146146358Y-40405868D01*
X145859460Y-40348800D01*
X145566940Y-40348800D01*
X145280042Y-40405868D01*
X145009789Y-40517810D01*
X144766568Y-40680325D01*
X144559725Y-40887168D01*
X144397210Y-41130389D01*
X144285268Y-41400642D01*
X144228200Y-41687540D01*
X144228200Y-41980060D01*
X144285268Y-42266958D01*
X144397210Y-42537211D01*
X144559725Y-42780432D01*
X144766568Y-42987275D01*
X144940960Y-43103800D01*
X144766568Y-43220325D01*
X144559725Y-43427168D01*
X144397210Y-43670389D01*
X144285268Y-43940642D01*
X144228200Y-44227540D01*
X144228200Y-44520060D01*
X144285268Y-44806958D01*
X144397210Y-45077211D01*
X144559725Y-45320432D01*
X144766568Y-45527275D01*
X144940960Y-45643800D01*
X144766568Y-45760325D01*
X144559725Y-45967168D01*
X144513363Y-46036554D01*
X144462080Y-46041605D01*
X144295256Y-46092211D01*
X144141511Y-46174389D01*
X144040523Y-46257268D01*
X144040521Y-46257270D01*
X144006753Y-46284983D01*
X143979040Y-46318751D01*
X142577471Y-47720321D01*
X142475941Y-47774589D01*
X142341183Y-47885183D01*
X142230589Y-48019942D01*
X142148411Y-48173688D01*
X142097805Y-48340511D01*
X142085000Y-48470524D01*
X142085001Y-80775507D01*
X142097806Y-80905520D01*
X142110400Y-80947036D01*
X142110401Y-85413301D01*
X142106119Y-85456780D01*
X142123205Y-85630270D01*
X142173812Y-85797093D01*
X142255990Y-85950839D01*
X142338868Y-86051826D01*
X142338871Y-86051829D01*
X142366584Y-86085597D01*
X142400351Y-86113309D01*
X144156490Y-87869449D01*
X144184203Y-87903217D01*
X144217971Y-87930930D01*
X144217973Y-87930932D01*
X144300244Y-87998450D01*
X144318961Y-88013811D01*
X144472707Y-88095989D01*
X144639530Y-88146595D01*
X144769543Y-88159400D01*
X144769551Y-88159400D01*
X144813020Y-88163681D01*
X144856489Y-88159400D01*
X152133011Y-88159400D01*
X152176480Y-88163681D01*
X152219949Y-88159400D01*
X152219957Y-88159400D01*
X152349970Y-88146595D01*
X152357619Y-88144275D01*
X199778008Y-88177149D01*
X199821800Y-88181462D01*
X199909206Y-88172853D01*
X199994684Y-88164495D01*
X199994980Y-88164406D01*
X199995290Y-88164375D01*
X200079471Y-88138839D01*
X200161542Y-88114004D01*
X200161810Y-88113861D01*
X200162113Y-88113769D01*
X200240087Y-88072092D01*
X200315345Y-88031933D01*
X200315581Y-88031740D01*
X200315859Y-88031591D01*
X200384261Y-87975454D01*
X200450180Y-87921432D01*
X200450373Y-87921197D01*
X200450617Y-87920997D01*
X200506874Y-87852449D01*
X200560867Y-87786751D01*
X200561010Y-87786484D01*
X200561211Y-87786239D01*
X200603109Y-87707853D01*
X200643152Y-87633062D01*
X200643241Y-87632771D01*
X200643389Y-87632493D01*
X200668947Y-87548240D01*
X200693874Y-87466274D01*
X200693904Y-87465969D01*
X200693995Y-87465670D01*
X200702612Y-87378176D01*
X200711081Y-87292796D01*
X200706800Y-87249019D01*
X200706800Y-82334269D01*
X200711081Y-82290800D01*
X200706800Y-82247331D01*
X200706800Y-82247323D01*
X200693995Y-82117310D01*
X200681611Y-82076486D01*
X200833134Y-81952134D01*
X201018706Y-81726014D01*
X201028000Y-81708626D01*
X201037294Y-81726014D01*
X201222866Y-81952134D01*
X201448987Y-82137706D01*
X201706967Y-82275599D01*
X201986890Y-82360513D01*
X202278000Y-82389185D01*
X202569111Y-82360513D01*
X202849034Y-82275599D01*
X203107014Y-82137706D01*
X203333134Y-81952134D01*
X203518706Y-81726014D01*
X203656599Y-81468033D01*
X203741513Y-81188110D01*
X203763000Y-80969949D01*
X203763000Y-80574050D01*
X203741513Y-80355889D01*
X203656599Y-80075966D01*
X203518706Y-79817986D01*
X203333134Y-79591866D01*
X203107013Y-79406294D01*
X202849033Y-79268401D01*
X202569110Y-79183487D01*
X202278000Y-79154815D01*
X201986889Y-79183487D01*
X201706966Y-79268401D01*
X201448986Y-79406294D01*
X201222866Y-79591866D01*
X201037294Y-79817987D01*
X201028000Y-79835374D01*
X201018706Y-79817986D01*
X200833134Y-79591866D01*
X200663000Y-79452241D01*
X200663000Y-79439150D01*
X200673780Y-79329697D01*
X200673780Y-79329687D01*
X200678061Y-79286221D01*
X200673780Y-79242755D01*
X200673780Y-76350145D01*
X200678061Y-76306679D01*
X200673780Y-76263213D01*
X200673780Y-76263203D01*
X200660975Y-76133190D01*
X200610369Y-75966367D01*
X200528191Y-75812621D01*
X200503990Y-75783132D01*
X200445312Y-75711633D01*
X200445310Y-75711631D01*
X200417597Y-75677863D01*
X200383829Y-75650150D01*
X199204580Y-74470902D01*
X199206185Y-74469585D01*
X199285537Y-74372894D01*
X199344502Y-74262580D01*
X199380812Y-74142882D01*
X199393072Y-74018400D01*
X199393072Y-72318400D01*
X199380812Y-72193918D01*
X199344502Y-72074220D01*
X199285537Y-71963906D01*
X199206185Y-71867215D01*
X199109494Y-71787863D01*
X198999180Y-71728898D01*
X198879482Y-71692588D01*
X198790000Y-71683775D01*
X198790000Y-68653025D01*
X198879482Y-68644212D01*
X198999180Y-68607902D01*
X199109494Y-68548937D01*
X199206185Y-68469585D01*
X199285537Y-68372894D01*
X199344502Y-68262580D01*
X199380812Y-68142882D01*
X199389625Y-68053400D01*
X200393931Y-68053400D01*
X200437400Y-68057681D01*
X200480869Y-68053400D01*
X200480877Y-68053400D01*
X200610890Y-68040595D01*
X200777713Y-67989989D01*
X200931459Y-67907811D01*
X201066217Y-67797217D01*
X201093934Y-67763444D01*
X203576544Y-65280835D01*
X207620001Y-61366649D01*
X207620001Y-87597711D01*
X207605278Y-87747869D01*
X207571047Y-87861246D01*
X207515446Y-87965817D01*
X207440594Y-88057595D01*
X207349335Y-88133091D01*
X207245160Y-88189419D01*
X207132024Y-88224440D01*
X206983979Y-88240000D01*
X141002279Y-88240000D01*
X140852131Y-88225278D01*
X140738754Y-88191047D01*
X140634183Y-88135446D01*
X140542405Y-88060594D01*
X140466909Y-87969335D01*
X140410581Y-87865160D01*
X140375560Y-87752024D01*
X140360000Y-87603979D01*
X140360000Y-30508169D01*
X140435088Y-29165108D01*
X140601728Y-28179872D01*
X141454400Y-28179872D01*
X141454400Y-28620128D01*
X141540290Y-29051925D01*
X141708769Y-29458669D01*
X141953362Y-29824729D01*
X142264671Y-30136038D01*
X142630731Y-30380631D01*
X143037475Y-30549110D01*
X143469272Y-30635000D01*
X143909528Y-30635000D01*
X144341325Y-30549110D01*
X144748069Y-30380631D01*
X145114129Y-30136038D01*
X145425438Y-29824729D01*
X145670031Y-29458669D01*
X145838510Y-29051925D01*
X145924400Y-28620128D01*
X145924400Y-28179872D01*
X145838510Y-27748075D01*
X145670031Y-27341331D01*
X145425438Y-26975271D01*
X145114129Y-26663962D01*
X144748069Y-26419369D01*
X144341325Y-26250890D01*
X143909528Y-26165000D01*
X143469272Y-26165000D01*
X143037475Y-26250890D01*
X142630731Y-26419369D01*
X142264671Y-26663962D01*
X141953362Y-26975271D01*
X141708769Y-27341331D01*
X141540290Y-27748075D01*
X141454400Y-28179872D01*
X140601728Y-28179872D01*
X140659803Y-27836519D01*
X141031219Y-26541236D01*
X141544698Y-25295442D01*
X142193848Y-24114645D01*
X142970571Y-23013570D01*
X143865191Y-22005934D01*
X144866562Y-21104297D01*
X145962187Y-20319906D01*
X147138422Y-19662531D01*
X148380609Y-19140363D01*
X149673251Y-18759918D01*
X151000246Y-18525933D01*
X152362342Y-18440238D01*
X152430476Y-18440000D01*
X171383221Y-18440000D01*
X169489951Y-20333271D01*
G37*
X169489951Y-20333271D02*
X169456184Y-20360983D01*
X169428471Y-20394751D01*
X169428468Y-20394754D01*
X169345590Y-20495741D01*
X169263412Y-20649487D01*
X169212805Y-20816310D01*
X169195719Y-20989800D01*
X169200001Y-21033279D01*
X169200001Y-21676693D01*
X169131176Y-21733176D01*
X169031714Y-21854370D01*
X168957807Y-21992641D01*
X168912295Y-22142672D01*
X168896928Y-22298700D01*
X168896928Y-23675300D01*
X168912295Y-23831328D01*
X168957807Y-23981359D01*
X169031714Y-24119630D01*
X169131176Y-24240824D01*
X169185780Y-24285637D01*
X169185781Y-24634641D01*
X168288614Y-25531808D01*
X152561877Y-25566464D01*
X152519380Y-25562279D01*
X152516111Y-25562601D01*
X152165841Y-25530704D01*
X152035204Y-25531666D01*
X151864479Y-25566935D01*
X151861490Y-25568199D01*
X151599000Y-25568199D01*
X151599000Y-25456940D01*
X151541932Y-25170042D01*
X151429990Y-24899789D01*
X151267475Y-24656568D01*
X151135620Y-24524713D01*
X151208180Y-24502702D01*
X151318494Y-24443737D01*
X151415185Y-24364385D01*
X151494537Y-24267694D01*
X151553502Y-24157380D01*
X151589812Y-24037682D01*
X151602072Y-23913200D01*
X151602072Y-22898019D01*
X154579800Y-22898019D01*
X154579800Y-23279181D01*
X154654161Y-23653019D01*
X154800025Y-24005166D01*
X155011787Y-24322091D01*
X155281309Y-24591613D01*
X155598234Y-24803375D01*
X155950381Y-24949239D01*
X156324219Y-25023600D01*
X156705381Y-25023600D01*
X157079219Y-24949239D01*
X157431366Y-24803375D01*
X157748291Y-24591613D01*
X158017813Y-24322091D01*
X158029408Y-24304737D01*
X158044421Y-24319750D01*
X158304021Y-24493209D01*
X158592473Y-24612689D01*
X158898691Y-24673600D01*
X159210909Y-24673600D01*
X159517127Y-24612689D01*
X159805579Y-24493209D01*
X159863236Y-24454684D01*
X159868988Y-24513082D01*
X159905298Y-24632780D01*
X159964263Y-24743094D01*
X160043615Y-24839785D01*
X160140306Y-24919137D01*
X160250620Y-24978102D01*
X160370318Y-25014412D01*
X160494800Y-25026672D01*
X161309050Y-25023600D01*
X161467800Y-24864850D01*
X161467800Y-23215600D01*
X161721800Y-23215600D01*
X161721800Y-24864850D01*
X161880550Y-25023600D01*
X162694800Y-25026672D01*
X162819282Y-25014412D01*
X162938980Y-24978102D01*
X163049294Y-24919137D01*
X163145985Y-24839785D01*
X163225337Y-24743094D01*
X163284302Y-24632780D01*
X163320612Y-24513082D01*
X163332872Y-24388600D01*
X163329800Y-23374350D01*
X163171050Y-23215600D01*
X161721800Y-23215600D01*
X161467800Y-23215600D01*
X161447800Y-23215600D01*
X161447800Y-22961600D01*
X161467800Y-22961600D01*
X161467800Y-21312350D01*
X161721800Y-21312350D01*
X161721800Y-22961600D01*
X163171050Y-22961600D01*
X163329800Y-22802850D01*
X163332872Y-21788600D01*
X163320612Y-21664118D01*
X163284302Y-21544420D01*
X163225337Y-21434106D01*
X163145985Y-21337415D01*
X163049294Y-21258063D01*
X162938980Y-21199098D01*
X162819282Y-21162788D01*
X162694800Y-21150528D01*
X161880550Y-21153600D01*
X161721800Y-21312350D01*
X161467800Y-21312350D01*
X161309050Y-21153600D01*
X160494800Y-21150528D01*
X160370318Y-21162788D01*
X160250620Y-21199098D01*
X160140306Y-21258063D01*
X160043615Y-21337415D01*
X159964263Y-21434106D01*
X159905298Y-21544420D01*
X159868988Y-21664118D01*
X159863236Y-21722516D01*
X159805579Y-21683991D01*
X159517127Y-21564511D01*
X159210909Y-21503600D01*
X158898691Y-21503600D01*
X158592473Y-21564511D01*
X158304021Y-21683991D01*
X158044421Y-21857450D01*
X158029408Y-21872463D01*
X158017813Y-21855109D01*
X157748291Y-21585587D01*
X157431366Y-21373825D01*
X157079219Y-21227961D01*
X156705381Y-21153600D01*
X156324219Y-21153600D01*
X155950381Y-21227961D01*
X155598234Y-21373825D01*
X155281309Y-21585587D01*
X155011787Y-21855109D01*
X154800025Y-22172034D01*
X154654161Y-22524181D01*
X154579800Y-22898019D01*
X151602072Y-22898019D01*
X151602072Y-22213200D01*
X151589812Y-22088718D01*
X151553502Y-21969020D01*
X151494537Y-21858706D01*
X151415185Y-21762015D01*
X151318494Y-21682663D01*
X151208180Y-21623698D01*
X151088482Y-21587388D01*
X150964000Y-21575128D01*
X149264000Y-21575128D01*
X149139518Y-21587388D01*
X149019820Y-21623698D01*
X148909506Y-21682663D01*
X148812815Y-21762015D01*
X148733463Y-21858706D01*
X148674498Y-21969020D01*
X148638188Y-22088718D01*
X148625928Y-22213200D01*
X148625928Y-23913200D01*
X148638188Y-24037682D01*
X148674498Y-24157380D01*
X148733463Y-24267694D01*
X148812815Y-24364385D01*
X148909506Y-24443737D01*
X149019820Y-24502702D01*
X149092380Y-24524713D01*
X148960525Y-24656568D01*
X148798010Y-24899789D01*
X148686068Y-25170042D01*
X148629000Y-25456940D01*
X148629000Y-25749460D01*
X148686068Y-26036358D01*
X148798010Y-26306611D01*
X148960525Y-26549832D01*
X149167368Y-26756675D01*
X149229001Y-26797857D01*
X149229001Y-40709494D01*
X149225232Y-40705725D01*
X148982011Y-40543210D01*
X148711758Y-40431268D01*
X148424860Y-40374200D01*
X148132340Y-40374200D01*
X147845442Y-40431268D01*
X147575189Y-40543210D01*
X147331968Y-40705725D01*
X147125125Y-40912568D01*
X147004386Y-41093267D01*
X146866675Y-40887168D01*
X146659832Y-40680325D01*
X146416611Y-40517810D01*
X146146358Y-40405868D01*
X145859460Y-40348800D01*
X145566940Y-40348800D01*
X145280042Y-40405868D01*
X145009789Y-40517810D01*
X144766568Y-40680325D01*
X144559725Y-40887168D01*
X144397210Y-41130389D01*
X144285268Y-41400642D01*
X144228200Y-41687540D01*
X144228200Y-41980060D01*
X144285268Y-42266958D01*
X144397210Y-42537211D01*
X144559725Y-42780432D01*
X144766568Y-42987275D01*
X144940960Y-43103800D01*
X144766568Y-43220325D01*
X144559725Y-43427168D01*
X144397210Y-43670389D01*
X144285268Y-43940642D01*
X144228200Y-44227540D01*
X144228200Y-44520060D01*
X144285268Y-44806958D01*
X144397210Y-45077211D01*
X144559725Y-45320432D01*
X144766568Y-45527275D01*
X144940960Y-45643800D01*
X144766568Y-45760325D01*
X144559725Y-45967168D01*
X144513363Y-46036554D01*
X144462080Y-46041605D01*
X144295256Y-46092211D01*
X144141511Y-46174389D01*
X144040523Y-46257268D01*
X144040521Y-46257270D01*
X144006753Y-46284983D01*
X143979040Y-46318751D01*
X142577471Y-47720321D01*
X142475941Y-47774589D01*
X142341183Y-47885183D01*
X142230589Y-48019942D01*
X142148411Y-48173688D01*
X142097805Y-48340511D01*
X142085000Y-48470524D01*
X142085001Y-80775507D01*
X142097806Y-80905520D01*
X142110400Y-80947036D01*
X142110401Y-85413301D01*
X142106119Y-85456780D01*
X142123205Y-85630270D01*
X142173812Y-85797093D01*
X142255990Y-85950839D01*
X142338868Y-86051826D01*
X142338871Y-86051829D01*
X142366584Y-86085597D01*
X142400351Y-86113309D01*
X144156490Y-87869449D01*
X144184203Y-87903217D01*
X144217971Y-87930930D01*
X144217973Y-87930932D01*
X144300244Y-87998450D01*
X144318961Y-88013811D01*
X144472707Y-88095989D01*
X144639530Y-88146595D01*
X144769543Y-88159400D01*
X144769551Y-88159400D01*
X144813020Y-88163681D01*
X144856489Y-88159400D01*
X152133011Y-88159400D01*
X152176480Y-88163681D01*
X152219949Y-88159400D01*
X152219957Y-88159400D01*
X152349970Y-88146595D01*
X152357619Y-88144275D01*
X199778008Y-88177149D01*
X199821800Y-88181462D01*
X199909206Y-88172853D01*
X199994684Y-88164495D01*
X199994980Y-88164406D01*
X199995290Y-88164375D01*
X200079471Y-88138839D01*
X200161542Y-88114004D01*
X200161810Y-88113861D01*
X200162113Y-88113769D01*
X200240087Y-88072092D01*
X200315345Y-88031933D01*
X200315581Y-88031740D01*
X200315859Y-88031591D01*
X200384261Y-87975454D01*
X200450180Y-87921432D01*
X200450373Y-87921197D01*
X200450617Y-87920997D01*
X200506874Y-87852449D01*
X200560867Y-87786751D01*
X200561010Y-87786484D01*
X200561211Y-87786239D01*
X200603109Y-87707853D01*
X200643152Y-87633062D01*
X200643241Y-87632771D01*
X200643389Y-87632493D01*
X200668947Y-87548240D01*
X200693874Y-87466274D01*
X200693904Y-87465969D01*
X200693995Y-87465670D01*
X200702612Y-87378176D01*
X200711081Y-87292796D01*
X200706800Y-87249019D01*
X200706800Y-82334269D01*
X200711081Y-82290800D01*
X200706800Y-82247331D01*
X200706800Y-82247323D01*
X200693995Y-82117310D01*
X200681611Y-82076486D01*
X200833134Y-81952134D01*
X201018706Y-81726014D01*
X201028000Y-81708626D01*
X201037294Y-81726014D01*
X201222866Y-81952134D01*
X201448987Y-82137706D01*
X201706967Y-82275599D01*
X201986890Y-82360513D01*
X202278000Y-82389185D01*
X202569111Y-82360513D01*
X202849034Y-82275599D01*
X203107014Y-82137706D01*
X203333134Y-81952134D01*
X203518706Y-81726014D01*
X203656599Y-81468033D01*
X203741513Y-81188110D01*
X203763000Y-80969949D01*
X203763000Y-80574050D01*
X203741513Y-80355889D01*
X203656599Y-80075966D01*
X203518706Y-79817986D01*
X203333134Y-79591866D01*
X203107013Y-79406294D01*
X202849033Y-79268401D01*
X202569110Y-79183487D01*
X202278000Y-79154815D01*
X201986889Y-79183487D01*
X201706966Y-79268401D01*
X201448986Y-79406294D01*
X201222866Y-79591866D01*
X201037294Y-79817987D01*
X201028000Y-79835374D01*
X201018706Y-79817986D01*
X200833134Y-79591866D01*
X200663000Y-79452241D01*
X200663000Y-79439150D01*
X200673780Y-79329697D01*
X200673780Y-79329687D01*
X200678061Y-79286221D01*
X200673780Y-79242755D01*
X200673780Y-76350145D01*
X200678061Y-76306679D01*
X200673780Y-76263213D01*
X200673780Y-76263203D01*
X200660975Y-76133190D01*
X200610369Y-75966367D01*
X200528191Y-75812621D01*
X200503990Y-75783132D01*
X200445312Y-75711633D01*
X200445310Y-75711631D01*
X200417597Y-75677863D01*
X200383829Y-75650150D01*
X199204580Y-74470902D01*
X199206185Y-74469585D01*
X199285537Y-74372894D01*
X199344502Y-74262580D01*
X199380812Y-74142882D01*
X199393072Y-74018400D01*
X199393072Y-72318400D01*
X199380812Y-72193918D01*
X199344502Y-72074220D01*
X199285537Y-71963906D01*
X199206185Y-71867215D01*
X199109494Y-71787863D01*
X198999180Y-71728898D01*
X198879482Y-71692588D01*
X198790000Y-71683775D01*
X198790000Y-68653025D01*
X198879482Y-68644212D01*
X198999180Y-68607902D01*
X199109494Y-68548937D01*
X199206185Y-68469585D01*
X199285537Y-68372894D01*
X199344502Y-68262580D01*
X199380812Y-68142882D01*
X199389625Y-68053400D01*
X200393931Y-68053400D01*
X200437400Y-68057681D01*
X200480869Y-68053400D01*
X200480877Y-68053400D01*
X200610890Y-68040595D01*
X200777713Y-67989989D01*
X200931459Y-67907811D01*
X201066217Y-67797217D01*
X201093934Y-67763444D01*
X203576544Y-65280835D01*
X207620001Y-61366649D01*
X207620001Y-87597711D01*
X207605278Y-87747869D01*
X207571047Y-87861246D01*
X207515446Y-87965817D01*
X207440594Y-88057595D01*
X207349335Y-88133091D01*
X207245160Y-88189419D01*
X207132024Y-88224440D01*
X206983979Y-88240000D01*
X141002279Y-88240000D01*
X140852131Y-88225278D01*
X140738754Y-88191047D01*
X140634183Y-88135446D01*
X140542405Y-88060594D01*
X140466909Y-87969335D01*
X140410581Y-87865160D01*
X140375560Y-87752024D01*
X140360000Y-87603979D01*
X140360000Y-30508169D01*
X140435088Y-29165108D01*
X140601728Y-28179872D01*
X141454400Y-28179872D01*
X141454400Y-28620128D01*
X141540290Y-29051925D01*
X141708769Y-29458669D01*
X141953362Y-29824729D01*
X142264671Y-30136038D01*
X142630731Y-30380631D01*
X143037475Y-30549110D01*
X143469272Y-30635000D01*
X143909528Y-30635000D01*
X144341325Y-30549110D01*
X144748069Y-30380631D01*
X145114129Y-30136038D01*
X145425438Y-29824729D01*
X145670031Y-29458669D01*
X145838510Y-29051925D01*
X145924400Y-28620128D01*
X145924400Y-28179872D01*
X145838510Y-27748075D01*
X145670031Y-27341331D01*
X145425438Y-26975271D01*
X145114129Y-26663962D01*
X144748069Y-26419369D01*
X144341325Y-26250890D01*
X143909528Y-26165000D01*
X143469272Y-26165000D01*
X143037475Y-26250890D01*
X142630731Y-26419369D01*
X142264671Y-26663962D01*
X141953362Y-26975271D01*
X141708769Y-27341331D01*
X141540290Y-27748075D01*
X141454400Y-28179872D01*
X140601728Y-28179872D01*
X140659803Y-27836519D01*
X141031219Y-26541236D01*
X141544698Y-25295442D01*
X142193848Y-24114645D01*
X142970571Y-23013570D01*
X143865191Y-22005934D01*
X144866562Y-21104297D01*
X145962187Y-20319906D01*
X147138422Y-19662531D01*
X148380609Y-19140363D01*
X149673251Y-18759918D01*
X151000246Y-18525933D01*
X152362342Y-18440238D01*
X152430476Y-18440000D01*
X171383221Y-18440000D01*
X169489951Y-20333271D01*
G36*
X185609420Y-23009769D02*
G01*
X185595905Y-23054321D01*
X185579774Y-23218111D01*
X185431138Y-23366747D01*
X185285039Y-23585401D01*
X185184404Y-23828355D01*
X185133100Y-24086274D01*
X185133100Y-24301182D01*
X184804634Y-24629647D01*
X184770863Y-24657363D01*
X184743148Y-24691134D01*
X184660270Y-24792121D01*
X184578092Y-24945867D01*
X184527485Y-25112690D01*
X184523582Y-25152325D01*
X184297556Y-24814054D01*
X183982766Y-24499264D01*
X183612611Y-24251934D01*
X183201318Y-24081571D01*
X182764691Y-23994720D01*
X182319509Y-23994720D01*
X181882882Y-24081571D01*
X181471589Y-24251934D01*
X181101434Y-24499264D01*
X180786644Y-24814054D01*
X180539314Y-25184209D01*
X180368951Y-25595502D01*
X180282100Y-26032129D01*
X180282100Y-26477311D01*
X180368951Y-26913938D01*
X180539314Y-27325231D01*
X180786644Y-27695386D01*
X181101434Y-28010176D01*
X181471589Y-28257506D01*
X181882882Y-28427869D01*
X182319509Y-28514720D01*
X182764691Y-28514720D01*
X183201318Y-28427869D01*
X183612611Y-28257506D01*
X183982766Y-28010176D01*
X184297556Y-27695386D01*
X184383284Y-27567086D01*
X184411138Y-27608773D01*
X184597087Y-27794722D01*
X184815741Y-27940821D01*
X185058695Y-28041456D01*
X185316614Y-28092760D01*
X185579586Y-28092760D01*
X185837505Y-28041456D01*
X186080459Y-27940821D01*
X186299113Y-27794722D01*
X186468100Y-27625735D01*
X186637087Y-27794722D01*
X186730100Y-27856871D01*
X186730101Y-30813508D01*
X186726424Y-30850840D01*
X186730101Y-30888173D01*
X186741098Y-30999826D01*
X186754280Y-31043282D01*
X186784554Y-31143086D01*
X186822529Y-31214131D01*
X186575193Y-31263329D01*
X186321320Y-31368487D01*
X186092839Y-31521153D01*
X185898533Y-31715459D01*
X185745867Y-31943940D01*
X185714270Y-32020221D01*
X185707844Y-32002394D01*
X185646125Y-31886926D01*
X185406237Y-31820189D01*
X184621705Y-32604720D01*
X185406237Y-33389251D01*
X185646125Y-33322514D01*
X185711700Y-33183013D01*
X185745867Y-33265500D01*
X185898533Y-33493981D01*
X186092839Y-33688287D01*
X186321320Y-33840953D01*
X186575193Y-33946111D01*
X186844704Y-33999720D01*
X187119496Y-33999720D01*
X187389007Y-33946111D01*
X187492101Y-33903408D01*
X187492101Y-33974783D01*
X187362839Y-34061153D01*
X187168533Y-34255459D01*
X187015867Y-34483940D01*
X186984270Y-34560221D01*
X186977844Y-34542394D01*
X186916125Y-34426926D01*
X186676237Y-34360189D01*
X185891705Y-35144720D01*
X186676237Y-35929251D01*
X186916125Y-35862514D01*
X186981700Y-35723013D01*
X187015867Y-35805500D01*
X187168533Y-36033981D01*
X187362839Y-36228287D01*
X187591320Y-36380953D01*
X187845193Y-36486111D01*
X188114704Y-36539720D01*
X188389496Y-36539720D01*
X188659007Y-36486111D01*
X188912880Y-36380953D01*
X189141361Y-36228287D01*
X189335667Y-36033981D01*
X189397626Y-35941253D01*
X189406288Y-36029202D01*
X189442598Y-36148900D01*
X189501563Y-36259214D01*
X189580915Y-36355905D01*
X189677606Y-36435257D01*
X189787920Y-36494222D01*
X189907618Y-36530532D01*
X190032100Y-36542792D01*
X191552100Y-36542792D01*
X191676582Y-36530532D01*
X191796280Y-36494222D01*
X191906594Y-36435257D01*
X192003285Y-36355905D01*
X192024760Y-36329738D01*
X193163381Y-37468360D01*
X193163380Y-38753886D01*
X193086598Y-38761448D01*
X192966900Y-38797758D01*
X192856586Y-38856723D01*
X192759895Y-38936075D01*
X192680543Y-39032766D01*
X192621578Y-39143080D01*
X192585268Y-39262778D01*
X192573008Y-39387260D01*
X192573008Y-41087260D01*
X192585268Y-41211742D01*
X192621578Y-41331440D01*
X192680543Y-41441754D01*
X192759895Y-41538445D01*
X192856586Y-41617797D01*
X192966900Y-41676762D01*
X193047546Y-41701226D01*
X192963492Y-41776991D01*
X192789439Y-42010340D01*
X192664255Y-42273161D01*
X192619604Y-42420370D01*
X192740925Y-42650260D01*
X193934080Y-42650260D01*
X193934080Y-42630260D01*
X194188080Y-42630260D01*
X194188080Y-42650260D01*
X195381235Y-42650260D01*
X195502556Y-42420370D01*
X195457905Y-42273161D01*
X195332721Y-42010340D01*
X195158668Y-41776991D01*
X195074614Y-41701226D01*
X195155260Y-41676762D01*
X195265574Y-41617797D01*
X195362265Y-41538445D01*
X195441617Y-41441754D01*
X195500582Y-41331440D01*
X195536892Y-41211742D01*
X195549152Y-41087260D01*
X195549152Y-39442025D01*
X198242020Y-39442025D01*
X198242020Y-39724695D01*
X198297167Y-40001934D01*
X198405340Y-40263087D01*
X198562383Y-40498119D01*
X198762261Y-40697997D01*
X198997293Y-40855040D01*
X199258446Y-40963213D01*
X199535685Y-41018360D01*
X199818355Y-41018360D01*
X200095594Y-40963213D01*
X200356747Y-40855040D01*
X200591779Y-40697997D01*
X200791657Y-40498119D01*
X200948700Y-40263087D01*
X201056873Y-40001934D01*
X201112020Y-39724695D01*
X201112020Y-39442025D01*
X203306020Y-39442025D01*
X203306020Y-39724695D01*
X203361167Y-40001934D01*
X203469340Y-40263087D01*
X203626383Y-40498119D01*
X203826261Y-40697997D01*
X204061293Y-40855040D01*
X204322446Y-40963213D01*
X204599685Y-41018360D01*
X204882355Y-41018360D01*
X205159594Y-40963213D01*
X205420747Y-40855040D01*
X205655779Y-40697997D01*
X205855657Y-40498119D01*
X206012700Y-40263087D01*
X206120873Y-40001934D01*
X206176020Y-39724695D01*
X206176020Y-39442025D01*
X206120873Y-39164786D01*
X206012700Y-38903633D01*
X205855657Y-38668601D01*
X205655779Y-38468723D01*
X205420747Y-38311680D01*
X205159594Y-38203507D01*
X204882355Y-38148360D01*
X204599685Y-38148360D01*
X204322446Y-38203507D01*
X204061293Y-38311680D01*
X203826261Y-38468723D01*
X203626383Y-38668601D01*
X203469340Y-38903633D01*
X203361167Y-39164786D01*
X203306020Y-39442025D01*
X201112020Y-39442025D01*
X201056873Y-39164786D01*
X200948700Y-38903633D01*
X200791657Y-38668601D01*
X200591779Y-38468723D01*
X200356747Y-38311680D01*
X200095594Y-38203507D01*
X199818355Y-38148360D01*
X199535685Y-38148360D01*
X199258446Y-38203507D01*
X198997293Y-38311680D01*
X198762261Y-38468723D01*
X198562383Y-38668601D01*
X198405340Y-38903633D01*
X198297167Y-39164786D01*
X198242020Y-39442025D01*
X195549152Y-39442025D01*
X195549152Y-39387260D01*
X195536892Y-39262778D01*
X195500582Y-39143080D01*
X195441617Y-39032766D01*
X195362265Y-38936075D01*
X195265574Y-38856723D01*
X195155260Y-38797758D01*
X195035562Y-38761448D01*
X194937015Y-38751742D01*
X194933380Y-38714836D01*
X194933380Y-37145249D01*
X194937661Y-37101780D01*
X194933380Y-37058311D01*
X194933380Y-37058303D01*
X194920575Y-36928290D01*
X194869969Y-36761467D01*
X194869969Y-36761466D01*
X194787791Y-36607721D01*
X194704912Y-36506733D01*
X194704910Y-36506731D01*
X194677197Y-36472963D01*
X194643429Y-36445250D01*
X192758855Y-34560677D01*
X192733270Y-34529067D01*
X192726217Y-34523198D01*
X192720287Y-34516172D01*
X192659256Y-34467479D01*
X192599266Y-34417560D01*
X192596602Y-34416113D01*
X192594259Y-34414190D01*
X192588824Y-34411285D01*
X192584015Y-34407448D01*
X192514673Y-34371604D01*
X192446082Y-34334341D01*
X192443187Y-34333441D01*
X192440513Y-34332012D01*
X192434626Y-34330226D01*
X192429151Y-34327396D01*
X192398867Y-34318663D01*
X192397573Y-34317972D01*
X192230749Y-34267366D01*
X192178103Y-34262181D01*
X192177912Y-34260238D01*
X192141602Y-34140540D01*
X192082637Y-34030226D01*
X192003285Y-33933535D01*
X191906594Y-33854183D01*
X191796280Y-33795218D01*
X191676582Y-33758908D01*
X191669911Y-33758251D01*
X191664295Y-33701230D01*
X191613689Y-33534407D01*
X191531511Y-33380661D01*
X191420917Y-33245903D01*
X191387149Y-33218190D01*
X190916100Y-32747142D01*
X190917100Y-32742116D01*
X190917100Y-32467324D01*
X190916100Y-32462298D01*
X191793759Y-31584640D01*
X199164462Y-31584640D01*
X200984050Y-33404229D01*
X201011763Y-33437997D01*
X201045531Y-33465710D01*
X201045533Y-33465712D01*
X201059184Y-33476915D01*
X201146521Y-33548591D01*
X201300267Y-33630769D01*
X201467090Y-33681375D01*
X201597103Y-33694180D01*
X201597113Y-33694180D01*
X201640579Y-33698461D01*
X201684046Y-33694180D01*
X205223562Y-33694180D01*
X206391701Y-34862320D01*
X206391700Y-60092212D01*
X202366331Y-63988890D01*
X202360753Y-63993468D01*
X202335045Y-64019176D01*
X202309020Y-64044369D01*
X202304370Y-64049851D01*
X200070822Y-66283400D01*
X199389625Y-66283400D01*
X199380812Y-66193918D01*
X199344502Y-66074220D01*
X199285537Y-65963906D01*
X199206185Y-65867215D01*
X199109494Y-65787863D01*
X198999180Y-65728898D01*
X198879482Y-65692588D01*
X198755000Y-65680328D01*
X197055000Y-65680328D01*
X196930518Y-65692588D01*
X196810820Y-65728898D01*
X196700506Y-65787863D01*
X196603815Y-65867215D01*
X196524463Y-65963906D01*
X196465498Y-66074220D01*
X196441034Y-66154866D01*
X196365269Y-66070812D01*
X196131920Y-65896759D01*
X195869099Y-65771575D01*
X195721890Y-65726924D01*
X195492000Y-65848245D01*
X195492000Y-67041400D01*
X195512000Y-67041400D01*
X195512000Y-67295400D01*
X195492000Y-67295400D01*
X195492000Y-68488555D01*
X195721890Y-68609876D01*
X195869099Y-68565225D01*
X196131920Y-68440041D01*
X196365269Y-68265988D01*
X196441034Y-68181934D01*
X196465498Y-68262580D01*
X196524463Y-68372894D01*
X196603815Y-68469585D01*
X196700506Y-68548937D01*
X196810820Y-68607902D01*
X196930518Y-68644212D01*
X197020001Y-68653025D01*
X197020000Y-71683775D01*
X196930518Y-71692588D01*
X196810820Y-71728898D01*
X196700506Y-71787863D01*
X196603815Y-71867215D01*
X196524463Y-71963906D01*
X196465498Y-72074220D01*
X196441034Y-72154866D01*
X196365269Y-72070812D01*
X196131920Y-71896759D01*
X195869099Y-71771575D01*
X195721890Y-71726924D01*
X195492000Y-71848245D01*
X195492000Y-73041400D01*
X195512000Y-73041400D01*
X195512000Y-73295400D01*
X195492000Y-73295400D01*
X195492000Y-74488555D01*
X195721890Y-74609876D01*
X195869099Y-74565225D01*
X196131920Y-74440041D01*
X196365269Y-74265988D01*
X196441034Y-74181934D01*
X196465498Y-74262580D01*
X196524463Y-74372894D01*
X196603815Y-74469585D01*
X196700506Y-74548937D01*
X196810820Y-74607902D01*
X196930518Y-74644212D01*
X197026370Y-74653652D01*
X197068289Y-74819625D01*
X197143132Y-74977071D01*
X197247254Y-75116891D01*
X197376653Y-75233712D01*
X197526355Y-75323042D01*
X197568579Y-75338057D01*
X198903781Y-76673260D01*
X198903780Y-79144071D01*
X198888719Y-79297000D01*
X198893001Y-79340479D01*
X198893001Y-79452240D01*
X198722866Y-79591866D01*
X198537294Y-79817987D01*
X198523538Y-79843722D01*
X198367049Y-79637571D01*
X198149193Y-79444504D01*
X197897858Y-79297648D01*
X197634890Y-79205524D01*
X197405000Y-79326845D01*
X197405000Y-80645000D01*
X197425000Y-80645000D01*
X197425000Y-80899000D01*
X197405000Y-80899000D01*
X197405000Y-82217155D01*
X197634890Y-82338476D01*
X197897858Y-82246352D01*
X198149193Y-82099496D01*
X198367049Y-81906429D01*
X198523538Y-81700278D01*
X198537294Y-81726014D01*
X198722866Y-81952134D01*
X198893001Y-82091760D01*
X198893001Y-82203521D01*
X198888719Y-82247000D01*
X198905805Y-82420490D01*
X198936800Y-82522663D01*
X198936801Y-86406567D01*
X152235504Y-86374191D01*
X152191720Y-86369879D01*
X152105140Y-86378406D01*
X152018835Y-86386845D01*
X152018539Y-86386935D01*
X152018231Y-86386965D01*
X152010204Y-86389400D01*
X145179599Y-86389400D01*
X143880400Y-85090202D01*
X143880400Y-83179872D01*
X182454400Y-83179872D01*
X182454400Y-83620128D01*
X182540290Y-84051925D01*
X182708769Y-84458669D01*
X182953362Y-84824729D01*
X183264671Y-85136038D01*
X183630731Y-85380631D01*
X184037475Y-85549110D01*
X184469272Y-85635000D01*
X184909528Y-85635000D01*
X185341325Y-85549110D01*
X185748069Y-85380631D01*
X186114129Y-85136038D01*
X186425438Y-84824729D01*
X186670031Y-84458669D01*
X186838510Y-84051925D01*
X186924400Y-83620128D01*
X186924400Y-83179872D01*
X186838510Y-82748075D01*
X186670031Y-82341331D01*
X186425438Y-81975271D01*
X186114129Y-81663962D01*
X185748069Y-81419369D01*
X185341325Y-81250890D01*
X184909528Y-81165000D01*
X184469272Y-81165000D01*
X184037475Y-81250890D01*
X183630731Y-81419369D01*
X183264671Y-81663962D01*
X182953362Y-81975271D01*
X182708769Y-82341331D01*
X182540290Y-82748075D01*
X182454400Y-83179872D01*
X143880400Y-83179872D01*
X143880400Y-81657000D01*
X146482531Y-81657000D01*
X146526000Y-81661281D01*
X146569469Y-81657000D01*
X146569477Y-81657000D01*
X146699490Y-81644195D01*
X146866313Y-81593589D01*
X147020059Y-81511411D01*
X147154817Y-81400817D01*
X147182534Y-81367044D01*
X148899049Y-79650530D01*
X148932817Y-79622817D01*
X148995285Y-79546701D01*
X149043411Y-79488059D01*
X149059602Y-79457768D01*
X149125589Y-79334313D01*
X149176195Y-79167489D01*
X149177358Y-79155686D01*
X149178387Y-79145228D01*
X149189000Y-79037476D01*
X149189000Y-79037469D01*
X149193281Y-78994000D01*
X149189000Y-78950531D01*
X149189000Y-78690147D01*
X149193281Y-78646680D01*
X149189000Y-78603214D01*
X149189000Y-78603204D01*
X149188416Y-78597275D01*
X149225232Y-78572675D01*
X149432075Y-78365832D01*
X149471031Y-78307531D01*
X149480681Y-78308481D01*
X149524150Y-78304200D01*
X149524158Y-78304200D01*
X149654171Y-78291395D01*
X149820994Y-78240789D01*
X149974740Y-78158611D01*
X150109498Y-78048017D01*
X150137215Y-78014244D01*
X150709050Y-77442410D01*
X150742817Y-77414698D01*
X150774803Y-77375724D01*
X150853410Y-77279941D01*
X150853411Y-77279940D01*
X150935589Y-77126194D01*
X150986195Y-76959371D01*
X150999000Y-76829358D01*
X150999000Y-76829348D01*
X151003281Y-76785882D01*
X150999000Y-76742416D01*
X150999000Y-45288200D01*
X164710724Y-45288200D01*
X164714413Y-45325659D01*
X164726080Y-78146398D01*
X164726080Y-78209918D01*
X164722404Y-78247240D01*
X164726080Y-78284562D01*
X164726080Y-78284573D01*
X164737077Y-78396226D01*
X164780534Y-78539487D01*
X164851106Y-78671516D01*
X164946079Y-78787241D01*
X164975081Y-78811042D01*
X167252536Y-81088498D01*
X167287959Y-81131661D01*
X167403684Y-81226634D01*
X167535713Y-81297206D01*
X167678974Y-81340663D01*
X167790627Y-81351660D01*
X167793167Y-81351660D01*
X167830500Y-81355337D01*
X167867833Y-81351660D01*
X181214538Y-81351660D01*
X181251860Y-81355336D01*
X181289182Y-81351660D01*
X181289193Y-81351660D01*
X181400846Y-81340663D01*
X181544107Y-81297206D01*
X181676136Y-81226634D01*
X181791861Y-81131661D01*
X181815664Y-81102657D01*
X183151622Y-79766700D01*
X189217459Y-79766700D01*
X189632525Y-80181767D01*
X189635856Y-80185715D01*
X189656099Y-80205415D01*
X189702117Y-80252394D01*
X189709685Y-80257565D01*
X190767487Y-81287007D01*
X190787999Y-81312001D01*
X190789928Y-81313584D01*
X190789928Y-81497000D01*
X190806992Y-81670254D01*
X190857528Y-81836850D01*
X190939595Y-81990386D01*
X191050038Y-82124962D01*
X191184614Y-82235405D01*
X191338150Y-82317472D01*
X191504746Y-82368008D01*
X191678000Y-82385072D01*
X192878000Y-82385072D01*
X193051254Y-82368008D01*
X193217850Y-82317472D01*
X193371386Y-82235405D01*
X193505962Y-82124962D01*
X193616405Y-81990386D01*
X193670777Y-81888663D01*
X193722866Y-81952134D01*
X193948987Y-82137706D01*
X194206967Y-82275599D01*
X194486890Y-82360513D01*
X194778000Y-82389185D01*
X195069111Y-82360513D01*
X195349034Y-82275599D01*
X195607014Y-82137706D01*
X195833134Y-81952134D01*
X196018706Y-81726014D01*
X196032462Y-81700278D01*
X196188951Y-81906429D01*
X196406807Y-82099496D01*
X196658142Y-82246352D01*
X196921110Y-82338476D01*
X197151000Y-82217155D01*
X197151000Y-80899000D01*
X197131000Y-80899000D01*
X197131000Y-80645000D01*
X197151000Y-80645000D01*
X197151000Y-79326845D01*
X196921110Y-79205524D01*
X196658142Y-79297648D01*
X196406807Y-79444504D01*
X196188951Y-79637571D01*
X196032462Y-79843722D01*
X196018706Y-79817986D01*
X195833134Y-79591866D01*
X195607013Y-79406294D01*
X195578000Y-79390786D01*
X195578000Y-78760488D01*
X195580930Y-78706260D01*
X195572696Y-78648811D01*
X195567003Y-78591014D01*
X195562090Y-78574817D01*
X195559689Y-78558068D01*
X195540402Y-78503321D01*
X195523546Y-78447753D01*
X195515567Y-78432826D01*
X195509945Y-78416867D01*
X195480344Y-78366929D01*
X195452974Y-78315724D01*
X195442237Y-78302641D01*
X195433609Y-78288085D01*
X195394829Y-78244874D01*
X195358001Y-78199999D01*
X195316013Y-78165540D01*
X194441470Y-77365072D01*
X194428361Y-77349099D01*
X194386354Y-77314625D01*
X194373955Y-77303276D01*
X194357526Y-77290966D01*
X194312636Y-77254126D01*
X194297710Y-77246148D01*
X194284169Y-77236002D01*
X194231822Y-77210929D01*
X194180607Y-77183554D01*
X194164408Y-77178640D01*
X194149150Y-77171332D01*
X194092915Y-77156953D01*
X194037346Y-77140097D01*
X194020500Y-77138438D01*
X194004110Y-77134247D01*
X193946152Y-77131115D01*
X193925693Y-77129100D01*
X193908862Y-77129100D01*
X193854622Y-77126169D01*
X193834174Y-77129100D01*
X182150242Y-77129100D01*
X182112919Y-77125424D01*
X182075596Y-77129100D01*
X182075587Y-77129100D01*
X181963934Y-77140097D01*
X181820673Y-77183554D01*
X181688644Y-77254126D01*
X181572919Y-77349099D01*
X181549121Y-77378097D01*
X180625069Y-78302150D01*
X179589066Y-78302150D01*
X179689337Y-78201879D01*
X179846380Y-77966847D01*
X179954553Y-77705694D01*
X180009700Y-77428455D01*
X180009700Y-77145785D01*
X179954553Y-76868546D01*
X179846380Y-76607393D01*
X179689337Y-76372361D01*
X179489459Y-76172483D01*
X179254427Y-76015440D01*
X178993274Y-75907267D01*
X178716035Y-75852120D01*
X178433365Y-75852120D01*
X178156126Y-75907267D01*
X177894973Y-76015440D01*
X177659941Y-76172483D01*
X177460063Y-76372361D01*
X177303020Y-76607393D01*
X177194847Y-76868546D01*
X177139700Y-77145785D01*
X177139700Y-77428455D01*
X177194847Y-77705694D01*
X177303020Y-77966847D01*
X177460063Y-78201879D01*
X177560334Y-78302150D01*
X174832254Y-78302150D01*
X174969190Y-78097211D01*
X175081132Y-77826958D01*
X175138200Y-77540060D01*
X175138200Y-77247540D01*
X175081132Y-76960642D01*
X174969190Y-76690389D01*
X174806675Y-76447168D01*
X174599832Y-76240325D01*
X174426471Y-76124489D01*
X174501992Y-75882197D01*
X174460405Y-75840610D01*
X182543424Y-75840610D01*
X182588075Y-75987819D01*
X182713259Y-76250640D01*
X182887312Y-76483989D01*
X183103545Y-76678898D01*
X183353648Y-76827877D01*
X183628009Y-76925201D01*
X183857900Y-76804534D01*
X183857900Y-75610720D01*
X184111900Y-75610720D01*
X184111900Y-76804534D01*
X184341791Y-76925201D01*
X184616152Y-76827877D01*
X184866255Y-76678898D01*
X185082488Y-76483989D01*
X185256541Y-76250640D01*
X185381725Y-75987819D01*
X185426376Y-75840610D01*
X185305055Y-75610720D01*
X184111900Y-75610720D01*
X183857900Y-75610720D01*
X182664745Y-75610720D01*
X182543424Y-75840610D01*
X174460405Y-75840610D01*
X173653200Y-75033405D01*
X172804408Y-75882197D01*
X172879929Y-76124489D01*
X172706568Y-76240325D01*
X172499725Y-76447168D01*
X172387414Y-76615253D01*
X172292075Y-76472568D01*
X172085232Y-76265725D01*
X171911871Y-76149889D01*
X171987392Y-75907597D01*
X171138600Y-75058805D01*
X170289808Y-75907597D01*
X170365329Y-76149889D01*
X170191968Y-76265725D01*
X169985125Y-76472568D01*
X169943944Y-76534200D01*
X169650979Y-76534200D01*
X168747000Y-75630222D01*
X168747000Y-74947731D01*
X169647989Y-74947731D01*
X169690001Y-75237219D01*
X169787681Y-75512947D01*
X169861128Y-75650357D01*
X170110203Y-75727992D01*
X170958995Y-74879200D01*
X171318205Y-74879200D01*
X172166997Y-75727992D01*
X172416072Y-75650357D01*
X172421396Y-75639191D01*
X172624803Y-75702592D01*
X173473595Y-74853800D01*
X173832805Y-74853800D01*
X174681597Y-75702592D01*
X174930672Y-75624957D01*
X175056571Y-75360917D01*
X175128539Y-75077389D01*
X175143811Y-74785269D01*
X175101799Y-74495781D01*
X175004119Y-74220053D01*
X174930672Y-74082643D01*
X174681597Y-74005008D01*
X173832805Y-74853800D01*
X173473595Y-74853800D01*
X172624803Y-74005008D01*
X172375728Y-74082643D01*
X172370404Y-74093809D01*
X172166997Y-74030408D01*
X171318205Y-74879200D01*
X170958995Y-74879200D01*
X170110203Y-74030408D01*
X169861128Y-74108043D01*
X169735229Y-74372083D01*
X169663261Y-74655611D01*
X169647989Y-74947731D01*
X168747000Y-74947731D01*
X168747000Y-59492940D01*
X169653600Y-59492940D01*
X169653600Y-59785460D01*
X169710668Y-60072358D01*
X169822610Y-60342611D01*
X169985125Y-60585832D01*
X170191968Y-60792675D01*
X170366360Y-60909200D01*
X170191968Y-61025725D01*
X169985125Y-61232568D01*
X169822610Y-61475789D01*
X169710668Y-61746042D01*
X169653600Y-62032940D01*
X169653600Y-62325460D01*
X169710668Y-62612358D01*
X169822610Y-62882611D01*
X169985125Y-63125832D01*
X170191968Y-63332675D01*
X170366360Y-63449200D01*
X170191968Y-63565725D01*
X169985125Y-63772568D01*
X169822610Y-64015789D01*
X169710668Y-64286042D01*
X169653600Y-64572940D01*
X169653600Y-64865460D01*
X169710668Y-65152358D01*
X169822610Y-65422611D01*
X169985125Y-65665832D01*
X170191968Y-65872675D01*
X170366360Y-65989200D01*
X170191968Y-66105725D01*
X169985125Y-66312568D01*
X169822610Y-66555789D01*
X169710668Y-66826042D01*
X169653600Y-67112940D01*
X169653600Y-67405460D01*
X169710668Y-67692358D01*
X169822610Y-67962611D01*
X169985125Y-68205832D01*
X170191968Y-68412675D01*
X170366360Y-68529200D01*
X170191968Y-68645725D01*
X169985125Y-68852568D01*
X169822610Y-69095789D01*
X169710668Y-69366042D01*
X169653600Y-69652940D01*
X169653600Y-69945460D01*
X169710668Y-70232358D01*
X169822610Y-70502611D01*
X169985125Y-70745832D01*
X170191968Y-70952675D01*
X170366360Y-71069200D01*
X170191968Y-71185725D01*
X169985125Y-71392568D01*
X169822610Y-71635789D01*
X169710668Y-71906042D01*
X169653600Y-72192940D01*
X169653600Y-72485460D01*
X169710668Y-72772358D01*
X169822610Y-73042611D01*
X169985125Y-73285832D01*
X170191968Y-73492675D01*
X170365329Y-73608511D01*
X170289808Y-73850803D01*
X171138600Y-74699595D01*
X171987392Y-73850803D01*
X171911871Y-73608511D01*
X172085232Y-73492675D01*
X172292075Y-73285832D01*
X172404386Y-73117747D01*
X172499725Y-73260432D01*
X172706568Y-73467275D01*
X172879929Y-73583111D01*
X172804408Y-73825403D01*
X173653200Y-74674195D01*
X174501992Y-73825403D01*
X174426471Y-73583111D01*
X174599832Y-73467275D01*
X174806675Y-73260432D01*
X174969190Y-73017211D01*
X175081132Y-72746958D01*
X175138200Y-72460060D01*
X175138200Y-72167540D01*
X175081132Y-71880642D01*
X174969190Y-71610389D01*
X174806675Y-71367168D01*
X174599832Y-71160325D01*
X174425440Y-71043800D01*
X174599832Y-70927275D01*
X174806675Y-70720432D01*
X174969190Y-70477211D01*
X175081132Y-70206958D01*
X175138200Y-69920060D01*
X175138200Y-69627540D01*
X175081132Y-69340642D01*
X174969190Y-69070389D01*
X174806675Y-68827168D01*
X174599832Y-68620325D01*
X174425440Y-68503800D01*
X174599832Y-68387275D01*
X174806675Y-68180432D01*
X174969190Y-67937211D01*
X175081132Y-67666958D01*
X175138200Y-67380060D01*
X175138200Y-67087540D01*
X175117960Y-66985785D01*
X177139700Y-66985785D01*
X177139700Y-67268455D01*
X177194847Y-67545694D01*
X177303020Y-67806847D01*
X177460063Y-68041879D01*
X177659941Y-68241757D01*
X177894973Y-68398800D01*
X178156126Y-68506973D01*
X178433365Y-68562120D01*
X178716035Y-68562120D01*
X178993274Y-68506973D01*
X179254427Y-68398800D01*
X179489459Y-68241757D01*
X179689337Y-68041879D01*
X179846380Y-67806847D01*
X179954553Y-67545694D01*
X180009700Y-67268455D01*
X180009700Y-67013720D01*
X182496828Y-67013720D01*
X182496828Y-68713720D01*
X182509088Y-68838202D01*
X182545398Y-68957900D01*
X182604363Y-69068214D01*
X182683715Y-69164905D01*
X182780406Y-69244257D01*
X182890720Y-69303222D01*
X182963280Y-69325233D01*
X182831425Y-69457088D01*
X182668910Y-69700309D01*
X182556968Y-69970562D01*
X182499900Y-70257460D01*
X182499900Y-70549980D01*
X182556968Y-70836878D01*
X182668910Y-71107131D01*
X182831425Y-71350352D01*
X183038268Y-71557195D01*
X183212660Y-71673720D01*
X183038268Y-71790245D01*
X182831425Y-71997088D01*
X182668910Y-72240309D01*
X182556968Y-72510562D01*
X182499900Y-72797460D01*
X182499900Y-73089980D01*
X182556968Y-73376878D01*
X182668910Y-73647131D01*
X182831425Y-73890352D01*
X183038268Y-74097195D01*
X183220434Y-74218915D01*
X183103545Y-74288542D01*
X182887312Y-74483451D01*
X182713259Y-74716800D01*
X182588075Y-74979621D01*
X182543424Y-75126830D01*
X182664745Y-75356720D01*
X183857900Y-75356720D01*
X183857900Y-75336720D01*
X184111900Y-75336720D01*
X184111900Y-75356720D01*
X185305055Y-75356720D01*
X185426376Y-75126830D01*
X185381725Y-74979621D01*
X185256541Y-74716800D01*
X185082488Y-74483451D01*
X184866255Y-74288542D01*
X184749366Y-74218915D01*
X184931532Y-74097195D01*
X185138375Y-73890352D01*
X185300890Y-73647131D01*
X185412832Y-73376878D01*
X185469900Y-73089980D01*
X185469900Y-73022140D01*
X188800000Y-73022140D01*
X188800000Y-73314660D01*
X188857068Y-73601558D01*
X188969010Y-73871811D01*
X189131525Y-74115032D01*
X189338368Y-74321875D01*
X189581589Y-74484390D01*
X189851842Y-74596332D01*
X190138740Y-74653400D01*
X190431260Y-74653400D01*
X190718158Y-74596332D01*
X190988411Y-74484390D01*
X191231632Y-74321875D01*
X191438475Y-74115032D01*
X191555000Y-73940640D01*
X191671525Y-74115032D01*
X191878368Y-74321875D01*
X192121589Y-74484390D01*
X192391842Y-74596332D01*
X192678740Y-74653400D01*
X192971260Y-74653400D01*
X193258158Y-74596332D01*
X193528411Y-74484390D01*
X193771632Y-74321875D01*
X193978475Y-74115032D01*
X194100195Y-73932866D01*
X194169822Y-74049755D01*
X194364731Y-74265988D01*
X194598080Y-74440041D01*
X194860901Y-74565225D01*
X195008110Y-74609876D01*
X195238000Y-74488555D01*
X195238000Y-73295400D01*
X195218000Y-73295400D01*
X195218000Y-73041400D01*
X195238000Y-73041400D01*
X195238000Y-71848245D01*
X195008110Y-71726924D01*
X194860901Y-71771575D01*
X194598080Y-71896759D01*
X194364731Y-72070812D01*
X194169822Y-72287045D01*
X194100195Y-72403934D01*
X193978475Y-72221768D01*
X193771632Y-72014925D01*
X193528411Y-71852410D01*
X193258158Y-71740468D01*
X192971260Y-71683400D01*
X192678740Y-71683400D01*
X192391842Y-71740468D01*
X192121589Y-71852410D01*
X191878368Y-72014925D01*
X191671525Y-72221768D01*
X191555000Y-72396160D01*
X191438475Y-72221768D01*
X191231632Y-72014925D01*
X190988411Y-71852410D01*
X190718158Y-71740468D01*
X190431260Y-71683400D01*
X190138740Y-71683400D01*
X189851842Y-71740468D01*
X189581589Y-71852410D01*
X189338368Y-72014925D01*
X189131525Y-72221768D01*
X188969010Y-72464989D01*
X188857068Y-72735242D01*
X188800000Y-73022140D01*
X185469900Y-73022140D01*
X185469900Y-72797460D01*
X185412832Y-72510562D01*
X185300890Y-72240309D01*
X185138375Y-71997088D01*
X184931532Y-71790245D01*
X184757140Y-71673720D01*
X184931532Y-71557195D01*
X185138375Y-71350352D01*
X185300890Y-71107131D01*
X185412832Y-70836878D01*
X185469900Y-70549980D01*
X185469900Y-70257460D01*
X185412832Y-69970562D01*
X185300890Y-69700309D01*
X185138375Y-69457088D01*
X185006520Y-69325233D01*
X185079080Y-69303222D01*
X185189394Y-69244257D01*
X185286085Y-69164905D01*
X185365437Y-69068214D01*
X185424402Y-68957900D01*
X185460712Y-68838202D01*
X185472972Y-68713720D01*
X185472972Y-67022140D01*
X188800000Y-67022140D01*
X188800000Y-67314660D01*
X188857068Y-67601558D01*
X188969010Y-67871811D01*
X189131525Y-68115032D01*
X189338368Y-68321875D01*
X189581589Y-68484390D01*
X189851842Y-68596332D01*
X190138740Y-68653400D01*
X190431260Y-68653400D01*
X190718158Y-68596332D01*
X190988411Y-68484390D01*
X191231632Y-68321875D01*
X191438475Y-68115032D01*
X191555000Y-67940640D01*
X191671525Y-68115032D01*
X191878368Y-68321875D01*
X192121589Y-68484390D01*
X192391842Y-68596332D01*
X192678740Y-68653400D01*
X192971260Y-68653400D01*
X193258158Y-68596332D01*
X193528411Y-68484390D01*
X193771632Y-68321875D01*
X193978475Y-68115032D01*
X194100195Y-67932866D01*
X194169822Y-68049755D01*
X194364731Y-68265988D01*
X194598080Y-68440041D01*
X194860901Y-68565225D01*
X195008110Y-68609876D01*
X195238000Y-68488555D01*
X195238000Y-67295400D01*
X195218000Y-67295400D01*
X195218000Y-67041400D01*
X195238000Y-67041400D01*
X195238000Y-65848245D01*
X195008110Y-65726924D01*
X194860901Y-65771575D01*
X194598080Y-65896759D01*
X194364731Y-66070812D01*
X194169822Y-66287045D01*
X194100195Y-66403934D01*
X193978475Y-66221768D01*
X193771632Y-66014925D01*
X193528411Y-65852410D01*
X193258158Y-65740468D01*
X192971260Y-65683400D01*
X192678740Y-65683400D01*
X192391842Y-65740468D01*
X192121589Y-65852410D01*
X191878368Y-66014925D01*
X191671525Y-66221768D01*
X191555000Y-66396160D01*
X191438475Y-66221768D01*
X191231632Y-66014925D01*
X190988411Y-65852410D01*
X190718158Y-65740468D01*
X190431260Y-65683400D01*
X190138740Y-65683400D01*
X189851842Y-65740468D01*
X189581589Y-65852410D01*
X189338368Y-66014925D01*
X189131525Y-66221768D01*
X188969010Y-66464989D01*
X188857068Y-66735242D01*
X188800000Y-67022140D01*
X185472972Y-67022140D01*
X185472972Y-67013720D01*
X185460712Y-66889238D01*
X185424402Y-66769540D01*
X185365437Y-66659226D01*
X185286085Y-66562535D01*
X185189394Y-66483183D01*
X185079080Y-66424218D01*
X184959382Y-66387908D01*
X184834900Y-66375648D01*
X183134900Y-66375648D01*
X183010418Y-66387908D01*
X182890720Y-66424218D01*
X182780406Y-66483183D01*
X182683715Y-66562535D01*
X182604363Y-66659226D01*
X182545398Y-66769540D01*
X182509088Y-66889238D01*
X182496828Y-67013720D01*
X180009700Y-67013720D01*
X180009700Y-66985785D01*
X179954553Y-66708546D01*
X179846380Y-66447393D01*
X179689337Y-66212361D01*
X179489459Y-66012483D01*
X179254427Y-65855440D01*
X178993274Y-65747267D01*
X178716035Y-65692120D01*
X178433365Y-65692120D01*
X178156126Y-65747267D01*
X177894973Y-65855440D01*
X177659941Y-66012483D01*
X177460063Y-66212361D01*
X177303020Y-66447393D01*
X177194847Y-66708546D01*
X177139700Y-66985785D01*
X175117960Y-66985785D01*
X175081132Y-66800642D01*
X174969190Y-66530389D01*
X174806675Y-66287168D01*
X174599832Y-66080325D01*
X174425440Y-65963800D01*
X174599832Y-65847275D01*
X174806675Y-65640432D01*
X174969190Y-65397211D01*
X175081132Y-65126958D01*
X175138200Y-64840060D01*
X175138200Y-64547540D01*
X175081132Y-64260642D01*
X174969190Y-63990389D01*
X174806675Y-63747168D01*
X174599832Y-63540325D01*
X174425440Y-63423800D01*
X174599832Y-63307275D01*
X174806675Y-63100432D01*
X174969190Y-62857211D01*
X175081132Y-62586958D01*
X175087285Y-62556025D01*
X177081280Y-62556025D01*
X177081280Y-62838695D01*
X177136427Y-63115934D01*
X177244600Y-63377087D01*
X177401643Y-63612119D01*
X177601521Y-63811997D01*
X177836553Y-63969040D01*
X178097706Y-64077213D01*
X178374945Y-64132360D01*
X178657615Y-64132360D01*
X178934854Y-64077213D01*
X179196007Y-63969040D01*
X179431039Y-63811997D01*
X179630917Y-63612119D01*
X179787960Y-63377087D01*
X179896133Y-63115934D01*
X179951280Y-62838695D01*
X179951280Y-62556025D01*
X179926018Y-62429025D01*
X181653280Y-62429025D01*
X181653280Y-62711695D01*
X181708427Y-62988934D01*
X181816600Y-63250087D01*
X181973643Y-63485119D01*
X182173521Y-63684997D01*
X182408553Y-63842040D01*
X182669706Y-63950213D01*
X182946945Y-64005360D01*
X183229615Y-64005360D01*
X183506854Y-63950213D01*
X183768007Y-63842040D01*
X184003039Y-63684997D01*
X184202917Y-63485119D01*
X184222801Y-63455360D01*
X197480891Y-63455360D01*
X197524360Y-63459641D01*
X197567829Y-63455360D01*
X197567837Y-63455360D01*
X197697850Y-63442555D01*
X197864673Y-63391949D01*
X198018419Y-63309771D01*
X198153177Y-63199177D01*
X198180894Y-63165404D01*
X198508026Y-62838272D01*
X198541797Y-62810557D01*
X198596542Y-62743850D01*
X198652391Y-62675798D01*
X198734569Y-62522054D01*
X198785175Y-62355230D01*
X198802261Y-62181740D01*
X198790000Y-62057243D01*
X198790000Y-60653025D01*
X198879482Y-60644212D01*
X198999180Y-60607902D01*
X199109494Y-60548937D01*
X199206185Y-60469585D01*
X199285537Y-60372894D01*
X199344502Y-60262580D01*
X199380812Y-60142882D01*
X199393072Y-60018400D01*
X199393072Y-58318400D01*
X199380812Y-58193918D01*
X199344502Y-58074220D01*
X199285537Y-57963906D01*
X199206185Y-57867215D01*
X199109494Y-57787863D01*
X198999180Y-57728898D01*
X198879482Y-57692588D01*
X198790000Y-57683775D01*
X198790000Y-54653025D01*
X198879482Y-54644212D01*
X198999180Y-54607902D01*
X199109494Y-54548937D01*
X199206185Y-54469585D01*
X199285537Y-54372894D01*
X199344502Y-54262580D01*
X199380812Y-54142882D01*
X199393072Y-54018400D01*
X199393072Y-52318400D01*
X199380812Y-52193918D01*
X199344502Y-52074220D01*
X199285537Y-51963906D01*
X199206185Y-51867215D01*
X199109494Y-51787863D01*
X198999180Y-51728898D01*
X198879482Y-51692588D01*
X198755000Y-51680328D01*
X197055000Y-51680328D01*
X196930518Y-51692588D01*
X196810820Y-51728898D01*
X196700506Y-51787863D01*
X196603815Y-51867215D01*
X196524463Y-51963906D01*
X196465498Y-52074220D01*
X196441034Y-52154866D01*
X196365269Y-52070812D01*
X196131920Y-51896759D01*
X195869099Y-51771575D01*
X195721890Y-51726924D01*
X195492000Y-51848245D01*
X195492000Y-53041400D01*
X195512000Y-53041400D01*
X195512000Y-53295400D01*
X195492000Y-53295400D01*
X195492000Y-54488555D01*
X195721890Y-54609876D01*
X195869099Y-54565225D01*
X196131920Y-54440041D01*
X196365269Y-54265988D01*
X196441034Y-54181934D01*
X196465498Y-54262580D01*
X196524463Y-54372894D01*
X196603815Y-54469585D01*
X196700506Y-54548937D01*
X196810820Y-54607902D01*
X196930518Y-54644212D01*
X197020000Y-54653025D01*
X197020001Y-57683775D01*
X196930518Y-57692588D01*
X196810820Y-57728898D01*
X196700506Y-57787863D01*
X196603815Y-57867215D01*
X196524463Y-57963906D01*
X196465498Y-58074220D01*
X196441034Y-58154866D01*
X196365269Y-58070812D01*
X196131920Y-57896759D01*
X195869099Y-57771575D01*
X195721890Y-57726924D01*
X195492000Y-57848245D01*
X195492000Y-59041400D01*
X195512000Y-59041400D01*
X195512000Y-59295400D01*
X195492000Y-59295400D01*
X195492000Y-60488555D01*
X195721890Y-60609876D01*
X195869099Y-60565225D01*
X196131920Y-60440041D01*
X196365269Y-60265988D01*
X196441034Y-60181934D01*
X196465498Y-60262580D01*
X196524463Y-60372894D01*
X196603815Y-60469585D01*
X196700506Y-60548937D01*
X196810820Y-60607902D01*
X196930518Y-60644212D01*
X197020001Y-60653025D01*
X197020000Y-61685360D01*
X184222801Y-61685360D01*
X184202917Y-61655601D01*
X184003039Y-61455723D01*
X183768007Y-61298680D01*
X183506854Y-61190507D01*
X183229615Y-61135360D01*
X182946945Y-61135360D01*
X182669706Y-61190507D01*
X182408553Y-61298680D01*
X182173521Y-61455723D01*
X181973643Y-61655601D01*
X181816600Y-61890633D01*
X181708427Y-62151786D01*
X181653280Y-62429025D01*
X179926018Y-62429025D01*
X179896133Y-62278786D01*
X179787960Y-62017633D01*
X179630917Y-61782601D01*
X179431039Y-61582723D01*
X179196007Y-61425680D01*
X178934854Y-61317507D01*
X178657615Y-61262360D01*
X178374945Y-61262360D01*
X178097706Y-61317507D01*
X177836553Y-61425680D01*
X177601521Y-61582723D01*
X177401643Y-61782601D01*
X177244600Y-62017633D01*
X177136427Y-62278786D01*
X177081280Y-62556025D01*
X175087285Y-62556025D01*
X175138200Y-62300060D01*
X175138200Y-62007540D01*
X175081132Y-61720642D01*
X174969190Y-61450389D01*
X174806675Y-61207168D01*
X174599832Y-61000325D01*
X174425440Y-60883800D01*
X174599832Y-60767275D01*
X174806675Y-60560432D01*
X174969190Y-60317211D01*
X175081132Y-60046958D01*
X175138200Y-59760060D01*
X175138200Y-59467540D01*
X175081132Y-59180642D01*
X175015479Y-59022140D01*
X188800000Y-59022140D01*
X188800000Y-59314660D01*
X188857068Y-59601558D01*
X188969010Y-59871811D01*
X189131525Y-60115032D01*
X189338368Y-60321875D01*
X189581589Y-60484390D01*
X189851842Y-60596332D01*
X190138740Y-60653400D01*
X190431260Y-60653400D01*
X190718158Y-60596332D01*
X190988411Y-60484390D01*
X191231632Y-60321875D01*
X191438475Y-60115032D01*
X191555000Y-59940640D01*
X191671525Y-60115032D01*
X191878368Y-60321875D01*
X192121589Y-60484390D01*
X192391842Y-60596332D01*
X192678740Y-60653400D01*
X192971260Y-60653400D01*
X193258158Y-60596332D01*
X193528411Y-60484390D01*
X193771632Y-60321875D01*
X193978475Y-60115032D01*
X194100195Y-59932866D01*
X194169822Y-60049755D01*
X194364731Y-60265988D01*
X194598080Y-60440041D01*
X194860901Y-60565225D01*
X195008110Y-60609876D01*
X195238000Y-60488555D01*
X195238000Y-59295400D01*
X195218000Y-59295400D01*
X195218000Y-59041400D01*
X195238000Y-59041400D01*
X195238000Y-57848245D01*
X195008110Y-57726924D01*
X194860901Y-57771575D01*
X194598080Y-57896759D01*
X194364731Y-58070812D01*
X194169822Y-58287045D01*
X194100195Y-58403934D01*
X193978475Y-58221768D01*
X193771632Y-58014925D01*
X193528411Y-57852410D01*
X193258158Y-57740468D01*
X192971260Y-57683400D01*
X192678740Y-57683400D01*
X192391842Y-57740468D01*
X192121589Y-57852410D01*
X191878368Y-58014925D01*
X191671525Y-58221768D01*
X191555000Y-58396160D01*
X191438475Y-58221768D01*
X191231632Y-58014925D01*
X190988411Y-57852410D01*
X190718158Y-57740468D01*
X190431260Y-57683400D01*
X190138740Y-57683400D01*
X189851842Y-57740468D01*
X189581589Y-57852410D01*
X189338368Y-58014925D01*
X189131525Y-58221768D01*
X188969010Y-58464989D01*
X188857068Y-58735242D01*
X188800000Y-59022140D01*
X175015479Y-59022140D01*
X174969190Y-58910389D01*
X174806675Y-58667168D01*
X174599832Y-58460325D01*
X174426471Y-58344489D01*
X174501992Y-58102197D01*
X173653200Y-57253405D01*
X172804408Y-58102197D01*
X172879929Y-58344489D01*
X172706568Y-58460325D01*
X172499725Y-58667168D01*
X172387414Y-58835253D01*
X172292075Y-58692568D01*
X172085232Y-58485725D01*
X171911871Y-58369889D01*
X171987392Y-58127597D01*
X171138600Y-57278805D01*
X170289808Y-58127597D01*
X170365329Y-58369889D01*
X170191968Y-58485725D01*
X169985125Y-58692568D01*
X169822610Y-58935789D01*
X169710668Y-59206042D01*
X169653600Y-59492940D01*
X168747000Y-59492940D01*
X168747000Y-57167731D01*
X169647989Y-57167731D01*
X169690001Y-57457219D01*
X169787681Y-57732947D01*
X169861128Y-57870357D01*
X170110203Y-57947992D01*
X170958995Y-57099200D01*
X171318205Y-57099200D01*
X172166997Y-57947992D01*
X172416072Y-57870357D01*
X172421396Y-57859191D01*
X172624803Y-57922592D01*
X173473595Y-57073800D01*
X173832805Y-57073800D01*
X174681597Y-57922592D01*
X174930672Y-57844957D01*
X175056571Y-57580917D01*
X175128539Y-57297389D01*
X175143811Y-57005269D01*
X175101799Y-56715781D01*
X175004119Y-56440053D01*
X174930672Y-56302643D01*
X174681597Y-56225008D01*
X173832805Y-57073800D01*
X173473595Y-57073800D01*
X172624803Y-56225008D01*
X172375728Y-56302643D01*
X172370404Y-56313809D01*
X172166997Y-56250408D01*
X171318205Y-57099200D01*
X170958995Y-57099200D01*
X170110203Y-56250408D01*
X169861128Y-56328043D01*
X169735229Y-56592083D01*
X169663261Y-56875611D01*
X169647989Y-57167731D01*
X168747000Y-57167731D01*
X168747000Y-55662378D01*
X168888979Y-55520400D01*
X169999693Y-55520400D01*
X170191968Y-55712675D01*
X170365329Y-55828511D01*
X170289808Y-56070803D01*
X171138600Y-56919595D01*
X171987392Y-56070803D01*
X171911871Y-55828511D01*
X172085232Y-55712675D01*
X172292075Y-55505832D01*
X172404386Y-55337747D01*
X172499725Y-55480432D01*
X172706568Y-55687275D01*
X172879929Y-55803111D01*
X172804408Y-56045403D01*
X173653200Y-56894195D01*
X174501992Y-56045403D01*
X174426471Y-55803111D01*
X174599832Y-55687275D01*
X174806675Y-55480432D01*
X174847856Y-55418800D01*
X175081911Y-55418800D01*
X175125380Y-55423081D01*
X175168849Y-55418800D01*
X175168857Y-55418800D01*
X175298870Y-55405995D01*
X175465693Y-55355389D01*
X175619439Y-55273211D01*
X175754197Y-55162617D01*
X175781914Y-55128844D01*
X175995294Y-54915464D01*
X176028704Y-54888108D01*
X176056772Y-54853986D01*
X176057131Y-54853627D01*
X176084699Y-54820035D01*
X176139450Y-54753475D01*
X176139688Y-54753032D01*
X176140009Y-54752640D01*
X176180933Y-54676076D01*
X176221802Y-54599822D01*
X176221949Y-54599339D01*
X176222187Y-54598894D01*
X176247284Y-54516163D01*
X176272597Y-54433057D01*
X176272647Y-54432552D01*
X176272793Y-54432072D01*
X176281235Y-54346356D01*
X176285549Y-54303058D01*
X176285550Y-54302550D01*
X176289880Y-54258582D01*
X176285648Y-54215612D01*
X176287705Y-52396025D01*
X177081280Y-52396025D01*
X177081280Y-52678695D01*
X177136427Y-52955934D01*
X177244600Y-53217087D01*
X177401643Y-53452119D01*
X177601521Y-53651997D01*
X177836553Y-53809040D01*
X178097706Y-53917213D01*
X178374945Y-53972360D01*
X178657615Y-53972360D01*
X178934854Y-53917213D01*
X179196007Y-53809040D01*
X179431039Y-53651997D01*
X179630917Y-53452119D01*
X179787960Y-53217087D01*
X179896133Y-52955934D01*
X179951280Y-52678695D01*
X179951280Y-52396025D01*
X179926018Y-52269025D01*
X181653280Y-52269025D01*
X181653280Y-52551695D01*
X181708427Y-52828934D01*
X181816600Y-53090087D01*
X181973643Y-53325119D01*
X182173521Y-53524997D01*
X182408553Y-53682040D01*
X182669706Y-53790213D01*
X182946945Y-53845360D01*
X183229615Y-53845360D01*
X183506854Y-53790213D01*
X183768007Y-53682040D01*
X184003039Y-53524997D01*
X184202917Y-53325119D01*
X184306323Y-53170360D01*
X188800000Y-53170360D01*
X188800000Y-53314660D01*
X188857068Y-53601558D01*
X188969010Y-53871811D01*
X189131525Y-54115032D01*
X189338368Y-54321875D01*
X189581589Y-54484390D01*
X189851842Y-54596332D01*
X190138740Y-54653400D01*
X190431260Y-54653400D01*
X190718158Y-54596332D01*
X190988411Y-54484390D01*
X191231632Y-54321875D01*
X191438475Y-54115032D01*
X191555000Y-53940640D01*
X191671525Y-54115032D01*
X191878368Y-54321875D01*
X192121589Y-54484390D01*
X192391842Y-54596332D01*
X192678740Y-54653400D01*
X192971260Y-54653400D01*
X193258158Y-54596332D01*
X193528411Y-54484390D01*
X193771632Y-54321875D01*
X193978475Y-54115032D01*
X194100195Y-53932866D01*
X194169822Y-54049755D01*
X194364731Y-54265988D01*
X194598080Y-54440041D01*
X194860901Y-54565225D01*
X195008110Y-54609876D01*
X195238000Y-54488555D01*
X195238000Y-53295400D01*
X195218000Y-53295400D01*
X195218000Y-53041400D01*
X195238000Y-53041400D01*
X195238000Y-51848245D01*
X195008110Y-51726924D01*
X194860901Y-51771575D01*
X194598080Y-51896759D01*
X194364731Y-52070812D01*
X194169822Y-52287045D01*
X194100195Y-52403934D01*
X193978475Y-52221768D01*
X193771632Y-52014925D01*
X193528411Y-51852410D01*
X193258158Y-51740468D01*
X192971260Y-51683400D01*
X192678740Y-51683400D01*
X192391842Y-51740468D01*
X192121589Y-51852410D01*
X191878368Y-52014925D01*
X191671525Y-52221768D01*
X191555000Y-52396160D01*
X191438475Y-52221768D01*
X191231632Y-52014925D01*
X190988411Y-51852410D01*
X190718158Y-51740468D01*
X190431260Y-51683400D01*
X190138740Y-51683400D01*
X189876670Y-51735529D01*
X189819207Y-51704814D01*
X189675946Y-51661357D01*
X189564293Y-51650360D01*
X189564282Y-51650360D01*
X189526960Y-51646684D01*
X189489638Y-51650360D01*
X184306323Y-51650360D01*
X184202917Y-51495601D01*
X184003039Y-51295723D01*
X183768007Y-51138680D01*
X183506854Y-51030507D01*
X183229615Y-50975360D01*
X182946945Y-50975360D01*
X182669706Y-51030507D01*
X182408553Y-51138680D01*
X182173521Y-51295723D01*
X181973643Y-51495601D01*
X181816600Y-51730633D01*
X181708427Y-51991786D01*
X181653280Y-52269025D01*
X179926018Y-52269025D01*
X179896133Y-52118786D01*
X179787960Y-51857633D01*
X179630917Y-51622601D01*
X179431039Y-51422723D01*
X179196007Y-51265680D01*
X178934854Y-51157507D01*
X178657615Y-51102360D01*
X178374945Y-51102360D01*
X178097706Y-51157507D01*
X177836553Y-51265680D01*
X177601521Y-51422723D01*
X177401643Y-51622601D01*
X177244600Y-51857633D01*
X177136427Y-52118786D01*
X177081280Y-52396025D01*
X176287705Y-52396025D01*
X176289503Y-50806300D01*
X176375399Y-50806300D01*
X176575358Y-50766526D01*
X176763716Y-50688505D01*
X176933234Y-50575237D01*
X176977171Y-50531300D01*
X193741818Y-50531300D01*
X193779140Y-50534976D01*
X193816462Y-50531300D01*
X193816473Y-50531300D01*
X193928126Y-50520303D01*
X194071387Y-50476846D01*
X194203416Y-50406274D01*
X194319141Y-50311301D01*
X194342944Y-50282297D01*
X194572078Y-50053163D01*
X194601081Y-50029361D01*
X194696054Y-49913636D01*
X194766626Y-49781607D01*
X194810083Y-49638346D01*
X194813660Y-49602025D01*
X198242020Y-49602025D01*
X198242020Y-49884695D01*
X198297167Y-50161934D01*
X198405340Y-50423087D01*
X198562383Y-50658119D01*
X198762261Y-50857997D01*
X198997293Y-51015040D01*
X199258446Y-51123213D01*
X199535685Y-51178360D01*
X199818355Y-51178360D01*
X200095594Y-51123213D01*
X200356747Y-51015040D01*
X200591779Y-50857997D01*
X200791657Y-50658119D01*
X200948700Y-50423087D01*
X201056873Y-50161934D01*
X201112020Y-49884695D01*
X201112020Y-49602025D01*
X203306020Y-49602025D01*
X203306020Y-49884695D01*
X203361167Y-50161934D01*
X203469340Y-50423087D01*
X203626383Y-50658119D01*
X203826261Y-50857997D01*
X204061293Y-51015040D01*
X204322446Y-51123213D01*
X204599685Y-51178360D01*
X204882355Y-51178360D01*
X205159594Y-51123213D01*
X205420747Y-51015040D01*
X205655779Y-50857997D01*
X205855657Y-50658119D01*
X206012700Y-50423087D01*
X206120873Y-50161934D01*
X206176020Y-49884695D01*
X206176020Y-49602025D01*
X206120873Y-49324786D01*
X206012700Y-49063633D01*
X205855657Y-48828601D01*
X205655779Y-48628723D01*
X205420747Y-48471680D01*
X205159594Y-48363507D01*
X204882355Y-48308360D01*
X204599685Y-48308360D01*
X204322446Y-48363507D01*
X204061293Y-48471680D01*
X203826261Y-48628723D01*
X203626383Y-48828601D01*
X203469340Y-49063633D01*
X203361167Y-49324786D01*
X203306020Y-49602025D01*
X201112020Y-49602025D01*
X201056873Y-49324786D01*
X200948700Y-49063633D01*
X200791657Y-48828601D01*
X200591779Y-48628723D01*
X200356747Y-48471680D01*
X200095594Y-48363507D01*
X199818355Y-48308360D01*
X199535685Y-48308360D01*
X199258446Y-48363507D01*
X198997293Y-48471680D01*
X198762261Y-48628723D01*
X198562383Y-48828601D01*
X198405340Y-49063633D01*
X198297167Y-49324786D01*
X198242020Y-49602025D01*
X194813660Y-49602025D01*
X194821080Y-49526693D01*
X194821080Y-49526684D01*
X194824756Y-49489361D01*
X194821080Y-49452038D01*
X194821080Y-49135438D01*
X195007712Y-49010735D01*
X195214555Y-48803892D01*
X195377070Y-48560671D01*
X195489012Y-48290418D01*
X195546080Y-48003520D01*
X195546080Y-47711000D01*
X195489012Y-47424102D01*
X195377070Y-47153849D01*
X195214555Y-46910628D01*
X195007712Y-46703785D01*
X194833320Y-46587260D01*
X195007712Y-46470735D01*
X195214555Y-46263892D01*
X195377070Y-46020671D01*
X195489012Y-45750418D01*
X195546080Y-45463520D01*
X195546080Y-45171000D01*
X195489012Y-44884102D01*
X195377070Y-44613849D01*
X195214555Y-44370628D01*
X195007712Y-44163785D01*
X194825546Y-44042065D01*
X194942435Y-43972438D01*
X195158668Y-43777529D01*
X195332721Y-43544180D01*
X195457905Y-43281359D01*
X195502556Y-43134150D01*
X195381235Y-42904260D01*
X194188080Y-42904260D01*
X194188080Y-42924260D01*
X193934080Y-42924260D01*
X193934080Y-42904260D01*
X192740925Y-42904260D01*
X192619604Y-43134150D01*
X192664255Y-43281359D01*
X192789439Y-43544180D01*
X192963492Y-43777529D01*
X193179725Y-43972438D01*
X193296614Y-44042065D01*
X193114448Y-44163785D01*
X192907605Y-44370628D01*
X192745090Y-44613849D01*
X192633148Y-44884102D01*
X192576080Y-45171000D01*
X192576080Y-45463520D01*
X192633148Y-45750418D01*
X192745090Y-46020671D01*
X192907605Y-46263892D01*
X193114448Y-46470735D01*
X193288840Y-46587260D01*
X193114448Y-46703785D01*
X192907605Y-46910628D01*
X192745090Y-47153849D01*
X192633148Y-47424102D01*
X192576080Y-47711000D01*
X192576080Y-48003520D01*
X192633148Y-48290418D01*
X192745090Y-48560671D01*
X192907605Y-48803892D01*
X193114448Y-49010735D01*
X193115294Y-49011300D01*
X189877047Y-49011300D01*
X189795984Y-48930237D01*
X190039951Y-48858654D01*
X190160851Y-48603144D01*
X190229580Y-48328956D01*
X190243497Y-48046628D01*
X190202067Y-47767010D01*
X190106883Y-47500848D01*
X190098438Y-47485048D01*
X190160851Y-47353144D01*
X190229580Y-47078956D01*
X190243497Y-46796628D01*
X190202067Y-46517010D01*
X190106883Y-46250848D01*
X190039951Y-46125626D01*
X189795982Y-46054043D01*
X189130306Y-46719719D01*
X189015096Y-46690840D01*
X188810081Y-46680734D01*
X189616377Y-45874438D01*
X189544794Y-45630469D01*
X189289284Y-45509569D01*
X189015096Y-45440840D01*
X188732768Y-45426923D01*
X188453150Y-45468353D01*
X188186988Y-45563537D01*
X188061766Y-45630469D01*
X187990183Y-45874438D01*
X188795774Y-46680029D01*
X188732768Y-46676923D01*
X188472083Y-46715548D01*
X187810578Y-46054043D01*
X187566609Y-46125626D01*
X187445709Y-46381136D01*
X187376980Y-46655324D01*
X187363063Y-46937652D01*
X187404493Y-47217270D01*
X187499677Y-47483432D01*
X187508122Y-47499232D01*
X187445709Y-47631136D01*
X187376980Y-47905324D01*
X187363063Y-48187652D01*
X187404493Y-48467270D01*
X187499677Y-48733432D01*
X187566609Y-48858654D01*
X187810576Y-48930237D01*
X187729513Y-49011300D01*
X186632848Y-49011300D01*
X186546657Y-48925109D01*
X186794524Y-48848902D01*
X186919243Y-48586875D01*
X186990448Y-48305551D01*
X187005399Y-48015741D01*
X186963525Y-47728583D01*
X186866434Y-47455112D01*
X186794524Y-47320578D01*
X186609675Y-47263746D01*
X186748877Y-47124544D01*
X186777881Y-47100741D01*
X186872854Y-46985016D01*
X186943426Y-46852987D01*
X186986883Y-46709726D01*
X186997880Y-46598073D01*
X186997880Y-46598064D01*
X187001556Y-46560741D01*
X186997880Y-46523418D01*
X186997880Y-43651662D01*
X187001556Y-43614339D01*
X186997880Y-43577017D01*
X186997880Y-43577007D01*
X186986883Y-43465354D01*
X186943426Y-43322093D01*
X186872854Y-43190064D01*
X186777881Y-43074339D01*
X186749980Y-43051441D01*
X186727081Y-43023539D01*
X186611356Y-42928566D01*
X186479327Y-42857994D01*
X186336066Y-42814537D01*
X186224413Y-42803540D01*
X186224402Y-42803540D01*
X186187080Y-42799864D01*
X186149758Y-42803540D01*
X185991150Y-42803540D01*
X186017092Y-42718022D01*
X186029352Y-42593540D01*
X186026280Y-42579290D01*
X185867530Y-42420540D01*
X184418280Y-42420540D01*
X184418280Y-42440540D01*
X184164280Y-42440540D01*
X184164280Y-42420540D01*
X182715030Y-42420540D01*
X182556280Y-42579290D01*
X182553208Y-42593540D01*
X182565468Y-42718022D01*
X182601778Y-42837720D01*
X182650323Y-42928540D01*
X182633951Y-42959169D01*
X182546017Y-42827566D01*
X182502080Y-42783629D01*
X182502080Y-42024141D01*
X182555451Y-41970771D01*
X182553208Y-41993540D01*
X182556280Y-42007790D01*
X182715030Y-42166540D01*
X184164280Y-42166540D01*
X184164280Y-41517290D01*
X184090915Y-41443925D01*
X184130989Y-41403850D01*
X184256680Y-41215741D01*
X184382371Y-41403850D01*
X184457046Y-41478525D01*
X184418280Y-41517290D01*
X184418280Y-42166540D01*
X185867530Y-42166540D01*
X186026280Y-42007790D01*
X186029352Y-41993540D01*
X186017092Y-41869058D01*
X186013623Y-41857622D01*
X186224502Y-41770273D01*
X186465790Y-41609049D01*
X186670989Y-41403850D01*
X186832213Y-41162562D01*
X186943266Y-40894457D01*
X186999880Y-40609838D01*
X186999880Y-40475805D01*
X187368280Y-40475805D01*
X187368280Y-40758475D01*
X187423427Y-41035714D01*
X187508931Y-41242140D01*
X187423427Y-41448566D01*
X187368280Y-41725805D01*
X187368280Y-42008475D01*
X187423427Y-42285714D01*
X187531600Y-42546867D01*
X187688643Y-42781899D01*
X187888521Y-42981777D01*
X188123553Y-43138820D01*
X188384706Y-43246993D01*
X188661945Y-43302140D01*
X188944615Y-43302140D01*
X189221854Y-43246993D01*
X189483007Y-43138820D01*
X189718039Y-42981777D01*
X189917917Y-42781899D01*
X190074960Y-42546867D01*
X190183133Y-42285714D01*
X190238280Y-42008475D01*
X190238280Y-41725805D01*
X190183133Y-41448566D01*
X190097629Y-41242140D01*
X190183133Y-41035714D01*
X190238280Y-40758475D01*
X190238280Y-40475805D01*
X190183133Y-40198566D01*
X190074960Y-39937413D01*
X189917917Y-39702381D01*
X189718039Y-39502503D01*
X189483007Y-39345460D01*
X189221854Y-39237287D01*
X188944615Y-39182140D01*
X188661945Y-39182140D01*
X188384706Y-39237287D01*
X188123553Y-39345460D01*
X187888521Y-39502503D01*
X187688643Y-39702381D01*
X187531600Y-39937413D01*
X187423427Y-40198566D01*
X187368280Y-40475805D01*
X186999880Y-40475805D01*
X186999880Y-40319642D01*
X186943266Y-40035023D01*
X186832213Y-39766918D01*
X186670989Y-39525630D01*
X186465790Y-39320431D01*
X186224502Y-39159207D01*
X185956397Y-39048154D01*
X185671778Y-38991540D01*
X185381582Y-38991540D01*
X185096963Y-39048154D01*
X184828858Y-39159207D01*
X184587570Y-39320431D01*
X184382371Y-39525630D01*
X184256680Y-39713739D01*
X184130989Y-39525630D01*
X183925790Y-39320431D01*
X183684502Y-39159207D01*
X183416397Y-39048154D01*
X183131778Y-38991540D01*
X182841582Y-38991540D01*
X182556963Y-39048154D01*
X182288858Y-39159207D01*
X182047570Y-39320431D01*
X181842371Y-39525630D01*
X181716680Y-39713739D01*
X181590989Y-39525630D01*
X181385790Y-39320431D01*
X181191440Y-39190570D01*
X181191440Y-38214431D01*
X181235377Y-38170494D01*
X181348645Y-38000976D01*
X181426666Y-37812618D01*
X181466440Y-37612659D01*
X181466440Y-37408781D01*
X181426666Y-37208822D01*
X181348645Y-37020464D01*
X181235377Y-36850946D01*
X181091214Y-36706783D01*
X180921696Y-36593515D01*
X180733338Y-36515494D01*
X180533379Y-36475720D01*
X180329501Y-36475720D01*
X180129542Y-36515494D01*
X179941184Y-36593515D01*
X179771666Y-36706783D01*
X179627503Y-36850946D01*
X179514235Y-37020464D01*
X179436214Y-37208822D01*
X179396440Y-37408781D01*
X179396440Y-37612659D01*
X179436214Y-37812618D01*
X179514235Y-38000976D01*
X179627503Y-38170494D01*
X179671440Y-38214431D01*
X179671441Y-39210936D01*
X179507570Y-39320431D01*
X179302371Y-39525630D01*
X179176680Y-39713739D01*
X179050989Y-39525630D01*
X178845790Y-39320431D01*
X178604502Y-39159207D01*
X178336397Y-39048154D01*
X178051778Y-38991540D01*
X177761582Y-38991540D01*
X177476963Y-39048154D01*
X177208858Y-39159207D01*
X176967570Y-39320431D01*
X176762371Y-39525630D01*
X176726216Y-39579740D01*
X175580325Y-39579740D01*
X175536859Y-39575459D01*
X175493393Y-39579740D01*
X175493383Y-39579740D01*
X175363370Y-39592545D01*
X175196547Y-39643151D01*
X175042801Y-39725329D01*
X174908043Y-39835923D01*
X174880326Y-39869696D01*
X174805018Y-39945004D01*
X174770718Y-39973251D01*
X174716203Y-40039907D01*
X174661189Y-40106942D01*
X174660831Y-40107611D01*
X174660353Y-40108196D01*
X174619741Y-40184486D01*
X174579011Y-40260688D01*
X174578792Y-40261411D01*
X174578435Y-40262081D01*
X174553512Y-40344743D01*
X174528404Y-40427511D01*
X174528329Y-40428268D01*
X174528112Y-40428989D01*
X174519787Y-40515008D01*
X174511318Y-40601001D01*
X174513445Y-40622603D01*
X174356611Y-40517810D01*
X174086358Y-40405868D01*
X173799460Y-40348800D01*
X173506940Y-40348800D01*
X173220042Y-40405868D01*
X172949789Y-40517810D01*
X172706568Y-40680325D01*
X172499725Y-40887168D01*
X172387414Y-41055253D01*
X172292075Y-40912568D01*
X172085232Y-40705725D01*
X171842011Y-40543210D01*
X171571758Y-40431268D01*
X171284860Y-40374200D01*
X170992340Y-40374200D01*
X170705442Y-40431268D01*
X170435189Y-40543210D01*
X170191968Y-40705725D01*
X169985125Y-40912568D01*
X169822610Y-41155789D01*
X169710668Y-41426042D01*
X169653600Y-41712940D01*
X169653600Y-42005460D01*
X169710668Y-42292358D01*
X169822610Y-42562611D01*
X169985125Y-42805832D01*
X170191968Y-43012675D01*
X170366360Y-43129200D01*
X170191968Y-43245725D01*
X169985125Y-43452568D01*
X169860422Y-43639200D01*
X166400723Y-43639200D01*
X166363400Y-43635524D01*
X166326077Y-43639200D01*
X166326067Y-43639200D01*
X166214414Y-43650197D01*
X166071153Y-43693654D01*
X165939124Y-43764226D01*
X165823399Y-43859199D01*
X165799601Y-43888197D01*
X164963302Y-44724496D01*
X164934208Y-44748391D01*
X164887360Y-44805517D01*
X164839426Y-44863924D01*
X164839360Y-44864048D01*
X164839276Y-44864150D01*
X164804856Y-44928600D01*
X164768854Y-44995954D01*
X164768814Y-44996086D01*
X164768751Y-44996204D01*
X164747254Y-45067163D01*
X164725398Y-45139215D01*
X164725385Y-45139350D01*
X164725345Y-45139481D01*
X164718028Y-45214038D01*
X164710724Y-45288200D01*
X150999000Y-45288200D01*
X150999000Y-36108857D01*
X184927569Y-36108857D01*
X184994306Y-36348745D01*
X185242992Y-36465644D01*
X185509706Y-36531781D01*
X185784197Y-36544615D01*
X186055917Y-36503651D01*
X186314426Y-36410464D01*
X186429894Y-36348745D01*
X186496631Y-36108857D01*
X185712100Y-35324325D01*
X184927569Y-36108857D01*
X150999000Y-36108857D01*
X150999000Y-35216817D01*
X184312205Y-35216817D01*
X184353169Y-35488537D01*
X184446356Y-35747046D01*
X184508075Y-35862514D01*
X184747963Y-35929251D01*
X185532495Y-35144720D01*
X184747963Y-34360189D01*
X184508075Y-34426926D01*
X184391176Y-34675612D01*
X184325039Y-34942326D01*
X184312205Y-35216817D01*
X150999000Y-35216817D01*
X150999000Y-34180583D01*
X184927569Y-34180583D01*
X185712100Y-34965115D01*
X186496631Y-34180583D01*
X186429894Y-33940695D01*
X186181208Y-33823796D01*
X185914494Y-33757659D01*
X185640003Y-33744825D01*
X185368283Y-33785789D01*
X185109774Y-33878976D01*
X184994306Y-33940695D01*
X184927569Y-34180583D01*
X150999000Y-34180583D01*
X150999000Y-33568857D01*
X183657569Y-33568857D01*
X183724306Y-33808745D01*
X183972992Y-33925644D01*
X184239706Y-33991781D01*
X184514197Y-34004615D01*
X184785917Y-33963651D01*
X185044426Y-33870464D01*
X185159894Y-33808745D01*
X185226631Y-33568857D01*
X184442100Y-32784325D01*
X183657569Y-33568857D01*
X150999000Y-33568857D01*
X150999000Y-32676817D01*
X183042205Y-32676817D01*
X183083169Y-32948537D01*
X183176356Y-33207046D01*
X183238075Y-33322514D01*
X183477963Y-33389251D01*
X184262495Y-32604720D01*
X183477963Y-31820189D01*
X183238075Y-31886926D01*
X183121176Y-32135612D01*
X183055039Y-32402326D01*
X183042205Y-32676817D01*
X150999000Y-32676817D01*
X150999000Y-31640583D01*
X183657569Y-31640583D01*
X184442100Y-32425115D01*
X185226631Y-31640583D01*
X185159894Y-31400695D01*
X184911208Y-31283796D01*
X184644494Y-31217659D01*
X184370003Y-31204825D01*
X184098283Y-31245789D01*
X183839774Y-31338976D01*
X183724306Y-31400695D01*
X183657569Y-31640583D01*
X150999000Y-31640583D01*
X150999000Y-27339033D01*
X151007464Y-27338199D01*
X152474272Y-27338199D01*
X152517741Y-27342480D01*
X152561210Y-27338199D01*
X152561218Y-27338199D01*
X152579182Y-27336430D01*
X168613503Y-27301096D01*
X168656000Y-27305281D01*
X168700442Y-27300904D01*
X168701426Y-27300902D01*
X168743809Y-27296633D01*
X168829490Y-27288195D01*
X168830435Y-27287908D01*
X168831411Y-27287810D01*
X168913834Y-27262609D01*
X168996313Y-27237588D01*
X168997178Y-27237126D01*
X168998122Y-27236837D01*
X169074216Y-27195948D01*
X169150059Y-27155410D01*
X169150819Y-27154787D01*
X169151687Y-27154320D01*
X169218143Y-27099535D01*
X169251046Y-27072532D01*
X169251740Y-27071838D01*
X169286201Y-27043429D01*
X169313220Y-27010358D01*
X170665829Y-25657750D01*
X170699597Y-25630037D01*
X170727940Y-25595502D01*
X170801052Y-25506415D01*
X170810191Y-25495279D01*
X170892369Y-25341533D01*
X170907244Y-25292497D01*
X170950026Y-25372536D01*
X170987641Y-25418370D01*
X171044999Y-25488261D01*
X171074003Y-25512064D01*
X174295615Y-28733677D01*
X174319414Y-28762676D01*
X174348412Y-28786474D01*
X174362582Y-28798103D01*
X174392640Y-28828161D01*
X174392640Y-28890299D01*
X174432414Y-29090258D01*
X174510435Y-29278616D01*
X174623703Y-29448134D01*
X174767866Y-29592297D01*
X174937384Y-29705565D01*
X175125742Y-29783586D01*
X175325701Y-29823360D01*
X175529579Y-29823360D01*
X175729538Y-29783586D01*
X175917896Y-29705565D01*
X176087414Y-29592297D01*
X176231577Y-29448134D01*
X176344845Y-29278616D01*
X176422866Y-29090258D01*
X176462640Y-28890299D01*
X176462640Y-28686421D01*
X176422866Y-28486462D01*
X176344845Y-28298104D01*
X176231577Y-28128586D01*
X176087414Y-27984423D01*
X175917896Y-27871155D01*
X175729538Y-27793134D01*
X175529579Y-27753360D01*
X175467441Y-27753360D01*
X175425758Y-27711677D01*
X175401956Y-27682674D01*
X175358793Y-27647251D01*
X172345000Y-24633459D01*
X172345000Y-24212663D01*
X172423465Y-24277058D01*
X172629327Y-24387094D01*
X172852701Y-24454853D01*
X173085000Y-24477733D01*
X173317300Y-24454853D01*
X173540674Y-24387094D01*
X173746536Y-24277058D01*
X173830332Y-24208288D01*
X173836881Y-24214725D01*
X174032246Y-24342850D01*
X174248853Y-24430399D01*
X174275256Y-24430803D01*
X174458000Y-24305361D01*
X174458000Y-23114000D01*
X174712000Y-23114000D01*
X174712000Y-24305361D01*
X174894744Y-24430803D01*
X174921147Y-24430399D01*
X175137754Y-24342850D01*
X175333119Y-24214725D01*
X175335000Y-24212876D01*
X175336881Y-24214725D01*
X175532246Y-24342850D01*
X175748853Y-24430399D01*
X175775256Y-24430803D01*
X175958000Y-24305361D01*
X175958000Y-23114000D01*
X176212000Y-23114000D01*
X176212000Y-24305361D01*
X176394744Y-24430803D01*
X176421147Y-24430399D01*
X176637754Y-24342850D01*
X176833119Y-24214725D01*
X176999734Y-24050948D01*
X177131196Y-23857813D01*
X177222454Y-23642742D01*
X177270000Y-23414000D01*
X177270000Y-23114000D01*
X176212000Y-23114000D01*
X175958000Y-23114000D01*
X174712000Y-23114000D01*
X174458000Y-23114000D01*
X174438000Y-23114000D01*
X174438000Y-22860000D01*
X174458000Y-22860000D01*
X174458000Y-21668639D01*
X174712000Y-21668639D01*
X174712000Y-22860000D01*
X175958000Y-22860000D01*
X175958000Y-21668639D01*
X176212000Y-21668639D01*
X176212000Y-22860000D01*
X177270000Y-22860000D01*
X177270000Y-22560000D01*
X177222454Y-22331258D01*
X177131196Y-22116187D01*
X176999734Y-21923052D01*
X176870606Y-21796123D01*
X180763100Y-21796123D01*
X180763100Y-22039397D01*
X180810560Y-22277996D01*
X180903657Y-22502752D01*
X181038813Y-22705027D01*
X181210833Y-22877047D01*
X181413108Y-23012203D01*
X181637864Y-23105300D01*
X181876463Y-23152760D01*
X182119737Y-23152760D01*
X182358336Y-23105300D01*
X182583092Y-23012203D01*
X182785367Y-22877047D01*
X182957387Y-22705027D01*
X183092543Y-22502752D01*
X183185640Y-22277996D01*
X183233100Y-22039397D01*
X183233100Y-21796123D01*
X183185640Y-21557524D01*
X183092543Y-21332768D01*
X182957387Y-21130493D01*
X182785367Y-20958473D01*
X182583092Y-20823317D01*
X182358336Y-20730220D01*
X182119737Y-20682760D01*
X181876463Y-20682760D01*
X181637864Y-20730220D01*
X181413108Y-20823317D01*
X181210833Y-20958473D01*
X181038813Y-21130493D01*
X180903657Y-21332768D01*
X180810560Y-21557524D01*
X180763100Y-21796123D01*
X176870606Y-21796123D01*
X176833119Y-21759275D01*
X176637754Y-21631150D01*
X176421147Y-21543601D01*
X176394744Y-21543197D01*
X176212000Y-21668639D01*
X175958000Y-21668639D01*
X175775256Y-21543197D01*
X175748853Y-21543601D01*
X175532246Y-21631150D01*
X175336881Y-21759275D01*
X175335000Y-21761124D01*
X175333119Y-21759275D01*
X175137754Y-21631150D01*
X174921147Y-21543601D01*
X174894744Y-21543197D01*
X174712000Y-21668639D01*
X174458000Y-21668639D01*
X174275256Y-21543197D01*
X174248853Y-21543601D01*
X174032246Y-21631150D01*
X173836881Y-21759275D01*
X173830332Y-21765712D01*
X173746535Y-21696942D01*
X173540673Y-21586906D01*
X173317299Y-21519147D01*
X173085000Y-21496267D01*
X172852700Y-21519147D01*
X172629326Y-21586906D01*
X172423464Y-21696942D01*
X172335000Y-21769543D01*
X172246535Y-21696942D01*
X172040673Y-21586906D01*
X171817299Y-21519147D01*
X171585000Y-21496267D01*
X171352700Y-21519147D01*
X171129326Y-21586906D01*
X170970000Y-21672068D01*
X170970000Y-21356378D01*
X172477657Y-19848722D01*
X185609421Y-19824449D01*
X185609420Y-23009769D01*
G37*
X185609420Y-23009769D02*
X185595905Y-23054321D01*
X185579774Y-23218111D01*
X185431138Y-23366747D01*
X185285039Y-23585401D01*
X185184404Y-23828355D01*
X185133100Y-24086274D01*
X185133100Y-24301182D01*
X184804634Y-24629647D01*
X184770863Y-24657363D01*
X184743148Y-24691134D01*
X184660270Y-24792121D01*
X184578092Y-24945867D01*
X184527485Y-25112690D01*
X184523582Y-25152325D01*
X184297556Y-24814054D01*
X183982766Y-24499264D01*
X183612611Y-24251934D01*
X183201318Y-24081571D01*
X182764691Y-23994720D01*
X182319509Y-23994720D01*
X181882882Y-24081571D01*
X181471589Y-24251934D01*
X181101434Y-24499264D01*
X180786644Y-24814054D01*
X180539314Y-25184209D01*
X180368951Y-25595502D01*
X180282100Y-26032129D01*
X180282100Y-26477311D01*
X180368951Y-26913938D01*
X180539314Y-27325231D01*
X180786644Y-27695386D01*
X181101434Y-28010176D01*
X181471589Y-28257506D01*
X181882882Y-28427869D01*
X182319509Y-28514720D01*
X182764691Y-28514720D01*
X183201318Y-28427869D01*
X183612611Y-28257506D01*
X183982766Y-28010176D01*
X184297556Y-27695386D01*
X184383284Y-27567086D01*
X184411138Y-27608773D01*
X184597087Y-27794722D01*
X184815741Y-27940821D01*
X185058695Y-28041456D01*
X185316614Y-28092760D01*
X185579586Y-28092760D01*
X185837505Y-28041456D01*
X186080459Y-27940821D01*
X186299113Y-27794722D01*
X186468100Y-27625735D01*
X186637087Y-27794722D01*
X186730100Y-27856871D01*
X186730101Y-30813508D01*
X186726424Y-30850840D01*
X186730101Y-30888173D01*
X186741098Y-30999826D01*
X186754280Y-31043282D01*
X186784554Y-31143086D01*
X186822529Y-31214131D01*
X186575193Y-31263329D01*
X186321320Y-31368487D01*
X186092839Y-31521153D01*
X185898533Y-31715459D01*
X185745867Y-31943940D01*
X185714270Y-32020221D01*
X185707844Y-32002394D01*
X185646125Y-31886926D01*
X185406237Y-31820189D01*
X184621705Y-32604720D01*
X185406237Y-33389251D01*
X185646125Y-33322514D01*
X185711700Y-33183013D01*
X185745867Y-33265500D01*
X185898533Y-33493981D01*
X186092839Y-33688287D01*
X186321320Y-33840953D01*
X186575193Y-33946111D01*
X186844704Y-33999720D01*
X187119496Y-33999720D01*
X187389007Y-33946111D01*
X187492101Y-33903408D01*
X187492101Y-33974783D01*
X187362839Y-34061153D01*
X187168533Y-34255459D01*
X187015867Y-34483940D01*
X186984270Y-34560221D01*
X186977844Y-34542394D01*
X186916125Y-34426926D01*
X186676237Y-34360189D01*
X185891705Y-35144720D01*
X186676237Y-35929251D01*
X186916125Y-35862514D01*
X186981700Y-35723013D01*
X187015867Y-35805500D01*
X187168533Y-36033981D01*
X187362839Y-36228287D01*
X187591320Y-36380953D01*
X187845193Y-36486111D01*
X188114704Y-36539720D01*
X188389496Y-36539720D01*
X188659007Y-36486111D01*
X188912880Y-36380953D01*
X189141361Y-36228287D01*
X189335667Y-36033981D01*
X189397626Y-35941253D01*
X189406288Y-36029202D01*
X189442598Y-36148900D01*
X189501563Y-36259214D01*
X189580915Y-36355905D01*
X189677606Y-36435257D01*
X189787920Y-36494222D01*
X189907618Y-36530532D01*
X190032100Y-36542792D01*
X191552100Y-36542792D01*
X191676582Y-36530532D01*
X191796280Y-36494222D01*
X191906594Y-36435257D01*
X192003285Y-36355905D01*
X192024760Y-36329738D01*
X193163381Y-37468360D01*
X193163380Y-38753886D01*
X193086598Y-38761448D01*
X192966900Y-38797758D01*
X192856586Y-38856723D01*
X192759895Y-38936075D01*
X192680543Y-39032766D01*
X192621578Y-39143080D01*
X192585268Y-39262778D01*
X192573008Y-39387260D01*
X192573008Y-41087260D01*
X192585268Y-41211742D01*
X192621578Y-41331440D01*
X192680543Y-41441754D01*
X192759895Y-41538445D01*
X192856586Y-41617797D01*
X192966900Y-41676762D01*
X193047546Y-41701226D01*
X192963492Y-41776991D01*
X192789439Y-42010340D01*
X192664255Y-42273161D01*
X192619604Y-42420370D01*
X192740925Y-42650260D01*
X193934080Y-42650260D01*
X193934080Y-42630260D01*
X194188080Y-42630260D01*
X194188080Y-42650260D01*
X195381235Y-42650260D01*
X195502556Y-42420370D01*
X195457905Y-42273161D01*
X195332721Y-42010340D01*
X195158668Y-41776991D01*
X195074614Y-41701226D01*
X195155260Y-41676762D01*
X195265574Y-41617797D01*
X195362265Y-41538445D01*
X195441617Y-41441754D01*
X195500582Y-41331440D01*
X195536892Y-41211742D01*
X195549152Y-41087260D01*
X195549152Y-39442025D01*
X198242020Y-39442025D01*
X198242020Y-39724695D01*
X198297167Y-40001934D01*
X198405340Y-40263087D01*
X198562383Y-40498119D01*
X198762261Y-40697997D01*
X198997293Y-40855040D01*
X199258446Y-40963213D01*
X199535685Y-41018360D01*
X199818355Y-41018360D01*
X200095594Y-40963213D01*
X200356747Y-40855040D01*
X200591779Y-40697997D01*
X200791657Y-40498119D01*
X200948700Y-40263087D01*
X201056873Y-40001934D01*
X201112020Y-39724695D01*
X201112020Y-39442025D01*
X203306020Y-39442025D01*
X203306020Y-39724695D01*
X203361167Y-40001934D01*
X203469340Y-40263087D01*
X203626383Y-40498119D01*
X203826261Y-40697997D01*
X204061293Y-40855040D01*
X204322446Y-40963213D01*
X204599685Y-41018360D01*
X204882355Y-41018360D01*
X205159594Y-40963213D01*
X205420747Y-40855040D01*
X205655779Y-40697997D01*
X205855657Y-40498119D01*
X206012700Y-40263087D01*
X206120873Y-40001934D01*
X206176020Y-39724695D01*
X206176020Y-39442025D01*
X206120873Y-39164786D01*
X206012700Y-38903633D01*
X205855657Y-38668601D01*
X205655779Y-38468723D01*
X205420747Y-38311680D01*
X205159594Y-38203507D01*
X204882355Y-38148360D01*
X204599685Y-38148360D01*
X204322446Y-38203507D01*
X204061293Y-38311680D01*
X203826261Y-38468723D01*
X203626383Y-38668601D01*
X203469340Y-38903633D01*
X203361167Y-39164786D01*
X203306020Y-39442025D01*
X201112020Y-39442025D01*
X201056873Y-39164786D01*
X200948700Y-38903633D01*
X200791657Y-38668601D01*
X200591779Y-38468723D01*
X200356747Y-38311680D01*
X200095594Y-38203507D01*
X199818355Y-38148360D01*
X199535685Y-38148360D01*
X199258446Y-38203507D01*
X198997293Y-38311680D01*
X198762261Y-38468723D01*
X198562383Y-38668601D01*
X198405340Y-38903633D01*
X198297167Y-39164786D01*
X198242020Y-39442025D01*
X195549152Y-39442025D01*
X195549152Y-39387260D01*
X195536892Y-39262778D01*
X195500582Y-39143080D01*
X195441617Y-39032766D01*
X195362265Y-38936075D01*
X195265574Y-38856723D01*
X195155260Y-38797758D01*
X195035562Y-38761448D01*
X194937015Y-38751742D01*
X194933380Y-38714836D01*
X194933380Y-37145249D01*
X194937661Y-37101780D01*
X194933380Y-37058311D01*
X194933380Y-37058303D01*
X194920575Y-36928290D01*
X194869969Y-36761467D01*
X194869969Y-36761466D01*
X194787791Y-36607721D01*
X194704912Y-36506733D01*
X194704910Y-36506731D01*
X194677197Y-36472963D01*
X194643429Y-36445250D01*
X192758855Y-34560677D01*
X192733270Y-34529067D01*
X192726217Y-34523198D01*
X192720287Y-34516172D01*
X192659256Y-34467479D01*
X192599266Y-34417560D01*
X192596602Y-34416113D01*
X192594259Y-34414190D01*
X192588824Y-34411285D01*
X192584015Y-34407448D01*
X192514673Y-34371604D01*
X192446082Y-34334341D01*
X192443187Y-34333441D01*
X192440513Y-34332012D01*
X192434626Y-34330226D01*
X192429151Y-34327396D01*
X192398867Y-34318663D01*
X192397573Y-34317972D01*
X192230749Y-34267366D01*
X192178103Y-34262181D01*
X192177912Y-34260238D01*
X192141602Y-34140540D01*
X192082637Y-34030226D01*
X192003285Y-33933535D01*
X191906594Y-33854183D01*
X191796280Y-33795218D01*
X191676582Y-33758908D01*
X191669911Y-33758251D01*
X191664295Y-33701230D01*
X191613689Y-33534407D01*
X191531511Y-33380661D01*
X191420917Y-33245903D01*
X191387149Y-33218190D01*
X190916100Y-32747142D01*
X190917100Y-32742116D01*
X190917100Y-32467324D01*
X190916100Y-32462298D01*
X191793759Y-31584640D01*
X199164462Y-31584640D01*
X200984050Y-33404229D01*
X201011763Y-33437997D01*
X201045531Y-33465710D01*
X201045533Y-33465712D01*
X201059184Y-33476915D01*
X201146521Y-33548591D01*
X201300267Y-33630769D01*
X201467090Y-33681375D01*
X201597103Y-33694180D01*
X201597113Y-33694180D01*
X201640579Y-33698461D01*
X201684046Y-33694180D01*
X205223562Y-33694180D01*
X206391701Y-34862320D01*
X206391700Y-60092212D01*
X202366331Y-63988890D01*
X202360753Y-63993468D01*
X202335045Y-64019176D01*
X202309020Y-64044369D01*
X202304370Y-64049851D01*
X200070822Y-66283400D01*
X199389625Y-66283400D01*
X199380812Y-66193918D01*
X199344502Y-66074220D01*
X199285537Y-65963906D01*
X199206185Y-65867215D01*
X199109494Y-65787863D01*
X198999180Y-65728898D01*
X198879482Y-65692588D01*
X198755000Y-65680328D01*
X197055000Y-65680328D01*
X196930518Y-65692588D01*
X196810820Y-65728898D01*
X196700506Y-65787863D01*
X196603815Y-65867215D01*
X196524463Y-65963906D01*
X196465498Y-66074220D01*
X196441034Y-66154866D01*
X196365269Y-66070812D01*
X196131920Y-65896759D01*
X195869099Y-65771575D01*
X195721890Y-65726924D01*
X195492000Y-65848245D01*
X195492000Y-67041400D01*
X195512000Y-67041400D01*
X195512000Y-67295400D01*
X195492000Y-67295400D01*
X195492000Y-68488555D01*
X195721890Y-68609876D01*
X195869099Y-68565225D01*
X196131920Y-68440041D01*
X196365269Y-68265988D01*
X196441034Y-68181934D01*
X196465498Y-68262580D01*
X196524463Y-68372894D01*
X196603815Y-68469585D01*
X196700506Y-68548937D01*
X196810820Y-68607902D01*
X196930518Y-68644212D01*
X197020001Y-68653025D01*
X197020000Y-71683775D01*
X196930518Y-71692588D01*
X196810820Y-71728898D01*
X196700506Y-71787863D01*
X196603815Y-71867215D01*
X196524463Y-71963906D01*
X196465498Y-72074220D01*
X196441034Y-72154866D01*
X196365269Y-72070812D01*
X196131920Y-71896759D01*
X195869099Y-71771575D01*
X195721890Y-71726924D01*
X195492000Y-71848245D01*
X195492000Y-73041400D01*
X195512000Y-73041400D01*
X195512000Y-73295400D01*
X195492000Y-73295400D01*
X195492000Y-74488555D01*
X195721890Y-74609876D01*
X195869099Y-74565225D01*
X196131920Y-74440041D01*
X196365269Y-74265988D01*
X196441034Y-74181934D01*
X196465498Y-74262580D01*
X196524463Y-74372894D01*
X196603815Y-74469585D01*
X196700506Y-74548937D01*
X196810820Y-74607902D01*
X196930518Y-74644212D01*
X197026370Y-74653652D01*
X197068289Y-74819625D01*
X197143132Y-74977071D01*
X197247254Y-75116891D01*
X197376653Y-75233712D01*
X197526355Y-75323042D01*
X197568579Y-75338057D01*
X198903781Y-76673260D01*
X198903780Y-79144071D01*
X198888719Y-79297000D01*
X198893001Y-79340479D01*
X198893001Y-79452240D01*
X198722866Y-79591866D01*
X198537294Y-79817987D01*
X198523538Y-79843722D01*
X198367049Y-79637571D01*
X198149193Y-79444504D01*
X197897858Y-79297648D01*
X197634890Y-79205524D01*
X197405000Y-79326845D01*
X197405000Y-80645000D01*
X197425000Y-80645000D01*
X197425000Y-80899000D01*
X197405000Y-80899000D01*
X197405000Y-82217155D01*
X197634890Y-82338476D01*
X197897858Y-82246352D01*
X198149193Y-82099496D01*
X198367049Y-81906429D01*
X198523538Y-81700278D01*
X198537294Y-81726014D01*
X198722866Y-81952134D01*
X198893001Y-82091760D01*
X198893001Y-82203521D01*
X198888719Y-82247000D01*
X198905805Y-82420490D01*
X198936800Y-82522663D01*
X198936801Y-86406567D01*
X152235504Y-86374191D01*
X152191720Y-86369879D01*
X152105140Y-86378406D01*
X152018835Y-86386845D01*
X152018539Y-86386935D01*
X152018231Y-86386965D01*
X152010204Y-86389400D01*
X145179599Y-86389400D01*
X143880400Y-85090202D01*
X143880400Y-83179872D01*
X182454400Y-83179872D01*
X182454400Y-83620128D01*
X182540290Y-84051925D01*
X182708769Y-84458669D01*
X182953362Y-84824729D01*
X183264671Y-85136038D01*
X183630731Y-85380631D01*
X184037475Y-85549110D01*
X184469272Y-85635000D01*
X184909528Y-85635000D01*
X185341325Y-85549110D01*
X185748069Y-85380631D01*
X186114129Y-85136038D01*
X186425438Y-84824729D01*
X186670031Y-84458669D01*
X186838510Y-84051925D01*
X186924400Y-83620128D01*
X186924400Y-83179872D01*
X186838510Y-82748075D01*
X186670031Y-82341331D01*
X186425438Y-81975271D01*
X186114129Y-81663962D01*
X185748069Y-81419369D01*
X185341325Y-81250890D01*
X184909528Y-81165000D01*
X184469272Y-81165000D01*
X184037475Y-81250890D01*
X183630731Y-81419369D01*
X183264671Y-81663962D01*
X182953362Y-81975271D01*
X182708769Y-82341331D01*
X182540290Y-82748075D01*
X182454400Y-83179872D01*
X143880400Y-83179872D01*
X143880400Y-81657000D01*
X146482531Y-81657000D01*
X146526000Y-81661281D01*
X146569469Y-81657000D01*
X146569477Y-81657000D01*
X146699490Y-81644195D01*
X146866313Y-81593589D01*
X147020059Y-81511411D01*
X147154817Y-81400817D01*
X147182534Y-81367044D01*
X148899049Y-79650530D01*
X148932817Y-79622817D01*
X148995285Y-79546701D01*
X149043411Y-79488059D01*
X149059602Y-79457768D01*
X149125589Y-79334313D01*
X149176195Y-79167489D01*
X149177358Y-79155686D01*
X149178387Y-79145228D01*
X149189000Y-79037476D01*
X149189000Y-79037469D01*
X149193281Y-78994000D01*
X149189000Y-78950531D01*
X149189000Y-78690147D01*
X149193281Y-78646680D01*
X149189000Y-78603214D01*
X149189000Y-78603204D01*
X149188416Y-78597275D01*
X149225232Y-78572675D01*
X149432075Y-78365832D01*
X149471031Y-78307531D01*
X149480681Y-78308481D01*
X149524150Y-78304200D01*
X149524158Y-78304200D01*
X149654171Y-78291395D01*
X149820994Y-78240789D01*
X149974740Y-78158611D01*
X150109498Y-78048017D01*
X150137215Y-78014244D01*
X150709050Y-77442410D01*
X150742817Y-77414698D01*
X150774803Y-77375724D01*
X150853410Y-77279941D01*
X150853411Y-77279940D01*
X150935589Y-77126194D01*
X150986195Y-76959371D01*
X150999000Y-76829358D01*
X150999000Y-76829348D01*
X151003281Y-76785882D01*
X150999000Y-76742416D01*
X150999000Y-45288200D01*
X164710724Y-45288200D01*
X164714413Y-45325659D01*
X164726080Y-78146398D01*
X164726080Y-78209918D01*
X164722404Y-78247240D01*
X164726080Y-78284562D01*
X164726080Y-78284573D01*
X164737077Y-78396226D01*
X164780534Y-78539487D01*
X164851106Y-78671516D01*
X164946079Y-78787241D01*
X164975081Y-78811042D01*
X167252536Y-81088498D01*
X167287959Y-81131661D01*
X167403684Y-81226634D01*
X167535713Y-81297206D01*
X167678974Y-81340663D01*
X167790627Y-81351660D01*
X167793167Y-81351660D01*
X167830500Y-81355337D01*
X167867833Y-81351660D01*
X181214538Y-81351660D01*
X181251860Y-81355336D01*
X181289182Y-81351660D01*
X181289193Y-81351660D01*
X181400846Y-81340663D01*
X181544107Y-81297206D01*
X181676136Y-81226634D01*
X181791861Y-81131661D01*
X181815664Y-81102657D01*
X183151622Y-79766700D01*
X189217459Y-79766700D01*
X189632525Y-80181767D01*
X189635856Y-80185715D01*
X189656099Y-80205415D01*
X189702117Y-80252394D01*
X189709685Y-80257565D01*
X190767487Y-81287007D01*
X190787999Y-81312001D01*
X190789928Y-81313584D01*
X190789928Y-81497000D01*
X190806992Y-81670254D01*
X190857528Y-81836850D01*
X190939595Y-81990386D01*
X191050038Y-82124962D01*
X191184614Y-82235405D01*
X191338150Y-82317472D01*
X191504746Y-82368008D01*
X191678000Y-82385072D01*
X192878000Y-82385072D01*
X193051254Y-82368008D01*
X193217850Y-82317472D01*
X193371386Y-82235405D01*
X193505962Y-82124962D01*
X193616405Y-81990386D01*
X193670777Y-81888663D01*
X193722866Y-81952134D01*
X193948987Y-82137706D01*
X194206967Y-82275599D01*
X194486890Y-82360513D01*
X194778000Y-82389185D01*
X195069111Y-82360513D01*
X195349034Y-82275599D01*
X195607014Y-82137706D01*
X195833134Y-81952134D01*
X196018706Y-81726014D01*
X196032462Y-81700278D01*
X196188951Y-81906429D01*
X196406807Y-82099496D01*
X196658142Y-82246352D01*
X196921110Y-82338476D01*
X197151000Y-82217155D01*
X197151000Y-80899000D01*
X197131000Y-80899000D01*
X197131000Y-80645000D01*
X197151000Y-80645000D01*
X197151000Y-79326845D01*
X196921110Y-79205524D01*
X196658142Y-79297648D01*
X196406807Y-79444504D01*
X196188951Y-79637571D01*
X196032462Y-79843722D01*
X196018706Y-79817986D01*
X195833134Y-79591866D01*
X195607013Y-79406294D01*
X195578000Y-79390786D01*
X195578000Y-78760488D01*
X195580930Y-78706260D01*
X195572696Y-78648811D01*
X195567003Y-78591014D01*
X195562090Y-78574817D01*
X195559689Y-78558068D01*
X195540402Y-78503321D01*
X195523546Y-78447753D01*
X195515567Y-78432826D01*
X195509945Y-78416867D01*
X195480344Y-78366929D01*
X195452974Y-78315724D01*
X195442237Y-78302641D01*
X195433609Y-78288085D01*
X195394829Y-78244874D01*
X195358001Y-78199999D01*
X195316013Y-78165540D01*
X194441470Y-77365072D01*
X194428361Y-77349099D01*
X194386354Y-77314625D01*
X194373955Y-77303276D01*
X194357526Y-77290966D01*
X194312636Y-77254126D01*
X194297710Y-77246148D01*
X194284169Y-77236002D01*
X194231822Y-77210929D01*
X194180607Y-77183554D01*
X194164408Y-77178640D01*
X194149150Y-77171332D01*
X194092915Y-77156953D01*
X194037346Y-77140097D01*
X194020500Y-77138438D01*
X194004110Y-77134247D01*
X193946152Y-77131115D01*
X193925693Y-77129100D01*
X193908862Y-77129100D01*
X193854622Y-77126169D01*
X193834174Y-77129100D01*
X182150242Y-77129100D01*
X182112919Y-77125424D01*
X182075596Y-77129100D01*
X182075587Y-77129100D01*
X181963934Y-77140097D01*
X181820673Y-77183554D01*
X181688644Y-77254126D01*
X181572919Y-77349099D01*
X181549121Y-77378097D01*
X180625069Y-78302150D01*
X179589066Y-78302150D01*
X179689337Y-78201879D01*
X179846380Y-77966847D01*
X179954553Y-77705694D01*
X180009700Y-77428455D01*
X180009700Y-77145785D01*
X179954553Y-76868546D01*
X179846380Y-76607393D01*
X179689337Y-76372361D01*
X179489459Y-76172483D01*
X179254427Y-76015440D01*
X178993274Y-75907267D01*
X178716035Y-75852120D01*
X178433365Y-75852120D01*
X178156126Y-75907267D01*
X177894973Y-76015440D01*
X177659941Y-76172483D01*
X177460063Y-76372361D01*
X177303020Y-76607393D01*
X177194847Y-76868546D01*
X177139700Y-77145785D01*
X177139700Y-77428455D01*
X177194847Y-77705694D01*
X177303020Y-77966847D01*
X177460063Y-78201879D01*
X177560334Y-78302150D01*
X174832254Y-78302150D01*
X174969190Y-78097211D01*
X175081132Y-77826958D01*
X175138200Y-77540060D01*
X175138200Y-77247540D01*
X175081132Y-76960642D01*
X174969190Y-76690389D01*
X174806675Y-76447168D01*
X174599832Y-76240325D01*
X174426471Y-76124489D01*
X174501992Y-75882197D01*
X174460405Y-75840610D01*
X182543424Y-75840610D01*
X182588075Y-75987819D01*
X182713259Y-76250640D01*
X182887312Y-76483989D01*
X183103545Y-76678898D01*
X183353648Y-76827877D01*
X183628009Y-76925201D01*
X183857900Y-76804534D01*
X183857900Y-75610720D01*
X184111900Y-75610720D01*
X184111900Y-76804534D01*
X184341791Y-76925201D01*
X184616152Y-76827877D01*
X184866255Y-76678898D01*
X185082488Y-76483989D01*
X185256541Y-76250640D01*
X185381725Y-75987819D01*
X185426376Y-75840610D01*
X185305055Y-75610720D01*
X184111900Y-75610720D01*
X183857900Y-75610720D01*
X182664745Y-75610720D01*
X182543424Y-75840610D01*
X174460405Y-75840610D01*
X173653200Y-75033405D01*
X172804408Y-75882197D01*
X172879929Y-76124489D01*
X172706568Y-76240325D01*
X172499725Y-76447168D01*
X172387414Y-76615253D01*
X172292075Y-76472568D01*
X172085232Y-76265725D01*
X171911871Y-76149889D01*
X171987392Y-75907597D01*
X171138600Y-75058805D01*
X170289808Y-75907597D01*
X170365329Y-76149889D01*
X170191968Y-76265725D01*
X169985125Y-76472568D01*
X169943944Y-76534200D01*
X169650979Y-76534200D01*
X168747000Y-75630222D01*
X168747000Y-74947731D01*
X169647989Y-74947731D01*
X169690001Y-75237219D01*
X169787681Y-75512947D01*
X169861128Y-75650357D01*
X170110203Y-75727992D01*
X170958995Y-74879200D01*
X171318205Y-74879200D01*
X172166997Y-75727992D01*
X172416072Y-75650357D01*
X172421396Y-75639191D01*
X172624803Y-75702592D01*
X173473595Y-74853800D01*
X173832805Y-74853800D01*
X174681597Y-75702592D01*
X174930672Y-75624957D01*
X175056571Y-75360917D01*
X175128539Y-75077389D01*
X175143811Y-74785269D01*
X175101799Y-74495781D01*
X175004119Y-74220053D01*
X174930672Y-74082643D01*
X174681597Y-74005008D01*
X173832805Y-74853800D01*
X173473595Y-74853800D01*
X172624803Y-74005008D01*
X172375728Y-74082643D01*
X172370404Y-74093809D01*
X172166997Y-74030408D01*
X171318205Y-74879200D01*
X170958995Y-74879200D01*
X170110203Y-74030408D01*
X169861128Y-74108043D01*
X169735229Y-74372083D01*
X169663261Y-74655611D01*
X169647989Y-74947731D01*
X168747000Y-74947731D01*
X168747000Y-59492940D01*
X169653600Y-59492940D01*
X169653600Y-59785460D01*
X169710668Y-60072358D01*
X169822610Y-60342611D01*
X169985125Y-60585832D01*
X170191968Y-60792675D01*
X170366360Y-60909200D01*
X170191968Y-61025725D01*
X169985125Y-61232568D01*
X169822610Y-61475789D01*
X169710668Y-61746042D01*
X169653600Y-62032940D01*
X169653600Y-62325460D01*
X169710668Y-62612358D01*
X169822610Y-62882611D01*
X169985125Y-63125832D01*
X170191968Y-63332675D01*
X170366360Y-63449200D01*
X170191968Y-63565725D01*
X169985125Y-63772568D01*
X169822610Y-64015789D01*
X169710668Y-64286042D01*
X169653600Y-64572940D01*
X169653600Y-64865460D01*
X169710668Y-65152358D01*
X169822610Y-65422611D01*
X169985125Y-65665832D01*
X170191968Y-65872675D01*
X170366360Y-65989200D01*
X170191968Y-66105725D01*
X169985125Y-66312568D01*
X169822610Y-66555789D01*
X169710668Y-66826042D01*
X169653600Y-67112940D01*
X169653600Y-67405460D01*
X169710668Y-67692358D01*
X169822610Y-67962611D01*
X169985125Y-68205832D01*
X170191968Y-68412675D01*
X170366360Y-68529200D01*
X170191968Y-68645725D01*
X169985125Y-68852568D01*
X169822610Y-69095789D01*
X169710668Y-69366042D01*
X169653600Y-69652940D01*
X169653600Y-69945460D01*
X169710668Y-70232358D01*
X169822610Y-70502611D01*
X169985125Y-70745832D01*
X170191968Y-70952675D01*
X170366360Y-71069200D01*
X170191968Y-71185725D01*
X169985125Y-71392568D01*
X169822610Y-71635789D01*
X169710668Y-71906042D01*
X169653600Y-72192940D01*
X169653600Y-72485460D01*
X169710668Y-72772358D01*
X169822610Y-73042611D01*
X169985125Y-73285832D01*
X170191968Y-73492675D01*
X170365329Y-73608511D01*
X170289808Y-73850803D01*
X171138600Y-74699595D01*
X171987392Y-73850803D01*
X171911871Y-73608511D01*
X172085232Y-73492675D01*
X172292075Y-73285832D01*
X172404386Y-73117747D01*
X172499725Y-73260432D01*
X172706568Y-73467275D01*
X172879929Y-73583111D01*
X172804408Y-73825403D01*
X173653200Y-74674195D01*
X174501992Y-73825403D01*
X174426471Y-73583111D01*
X174599832Y-73467275D01*
X174806675Y-73260432D01*
X174969190Y-73017211D01*
X175081132Y-72746958D01*
X175138200Y-72460060D01*
X175138200Y-72167540D01*
X175081132Y-71880642D01*
X174969190Y-71610389D01*
X174806675Y-71367168D01*
X174599832Y-71160325D01*
X174425440Y-71043800D01*
X174599832Y-70927275D01*
X174806675Y-70720432D01*
X174969190Y-70477211D01*
X175081132Y-70206958D01*
X175138200Y-69920060D01*
X175138200Y-69627540D01*
X175081132Y-69340642D01*
X174969190Y-69070389D01*
X174806675Y-68827168D01*
X174599832Y-68620325D01*
X174425440Y-68503800D01*
X174599832Y-68387275D01*
X174806675Y-68180432D01*
X174969190Y-67937211D01*
X175081132Y-67666958D01*
X175138200Y-67380060D01*
X175138200Y-67087540D01*
X175117960Y-66985785D01*
X177139700Y-66985785D01*
X177139700Y-67268455D01*
X177194847Y-67545694D01*
X177303020Y-67806847D01*
X177460063Y-68041879D01*
X177659941Y-68241757D01*
X177894973Y-68398800D01*
X178156126Y-68506973D01*
X178433365Y-68562120D01*
X178716035Y-68562120D01*
X178993274Y-68506973D01*
X179254427Y-68398800D01*
X179489459Y-68241757D01*
X179689337Y-68041879D01*
X179846380Y-67806847D01*
X179954553Y-67545694D01*
X180009700Y-67268455D01*
X180009700Y-67013720D01*
X182496828Y-67013720D01*
X182496828Y-68713720D01*
X182509088Y-68838202D01*
X182545398Y-68957900D01*
X182604363Y-69068214D01*
X182683715Y-69164905D01*
X182780406Y-69244257D01*
X182890720Y-69303222D01*
X182963280Y-69325233D01*
X182831425Y-69457088D01*
X182668910Y-69700309D01*
X182556968Y-69970562D01*
X182499900Y-70257460D01*
X182499900Y-70549980D01*
X182556968Y-70836878D01*
X182668910Y-71107131D01*
X182831425Y-71350352D01*
X183038268Y-71557195D01*
X183212660Y-71673720D01*
X183038268Y-71790245D01*
X182831425Y-71997088D01*
X182668910Y-72240309D01*
X182556968Y-72510562D01*
X182499900Y-72797460D01*
X182499900Y-73089980D01*
X182556968Y-73376878D01*
X182668910Y-73647131D01*
X182831425Y-73890352D01*
X183038268Y-74097195D01*
X183220434Y-74218915D01*
X183103545Y-74288542D01*
X182887312Y-74483451D01*
X182713259Y-74716800D01*
X182588075Y-74979621D01*
X182543424Y-75126830D01*
X182664745Y-75356720D01*
X183857900Y-75356720D01*
X183857900Y-75336720D01*
X184111900Y-75336720D01*
X184111900Y-75356720D01*
X185305055Y-75356720D01*
X185426376Y-75126830D01*
X185381725Y-74979621D01*
X185256541Y-74716800D01*
X185082488Y-74483451D01*
X184866255Y-74288542D01*
X184749366Y-74218915D01*
X184931532Y-74097195D01*
X185138375Y-73890352D01*
X185300890Y-73647131D01*
X185412832Y-73376878D01*
X185469900Y-73089980D01*
X185469900Y-73022140D01*
X188800000Y-73022140D01*
X188800000Y-73314660D01*
X188857068Y-73601558D01*
X188969010Y-73871811D01*
X189131525Y-74115032D01*
X189338368Y-74321875D01*
X189581589Y-74484390D01*
X189851842Y-74596332D01*
X190138740Y-74653400D01*
X190431260Y-74653400D01*
X190718158Y-74596332D01*
X190988411Y-74484390D01*
X191231632Y-74321875D01*
X191438475Y-74115032D01*
X191555000Y-73940640D01*
X191671525Y-74115032D01*
X191878368Y-74321875D01*
X192121589Y-74484390D01*
X192391842Y-74596332D01*
X192678740Y-74653400D01*
X192971260Y-74653400D01*
X193258158Y-74596332D01*
X193528411Y-74484390D01*
X193771632Y-74321875D01*
X193978475Y-74115032D01*
X194100195Y-73932866D01*
X194169822Y-74049755D01*
X194364731Y-74265988D01*
X194598080Y-74440041D01*
X194860901Y-74565225D01*
X195008110Y-74609876D01*
X195238000Y-74488555D01*
X195238000Y-73295400D01*
X195218000Y-73295400D01*
X195218000Y-73041400D01*
X195238000Y-73041400D01*
X195238000Y-71848245D01*
X195008110Y-71726924D01*
X194860901Y-71771575D01*
X194598080Y-71896759D01*
X194364731Y-72070812D01*
X194169822Y-72287045D01*
X194100195Y-72403934D01*
X193978475Y-72221768D01*
X193771632Y-72014925D01*
X193528411Y-71852410D01*
X193258158Y-71740468D01*
X192971260Y-71683400D01*
X192678740Y-71683400D01*
X192391842Y-71740468D01*
X192121589Y-71852410D01*
X191878368Y-72014925D01*
X191671525Y-72221768D01*
X191555000Y-72396160D01*
X191438475Y-72221768D01*
X191231632Y-72014925D01*
X190988411Y-71852410D01*
X190718158Y-71740468D01*
X190431260Y-71683400D01*
X190138740Y-71683400D01*
X189851842Y-71740468D01*
X189581589Y-71852410D01*
X189338368Y-72014925D01*
X189131525Y-72221768D01*
X188969010Y-72464989D01*
X188857068Y-72735242D01*
X188800000Y-73022140D01*
X185469900Y-73022140D01*
X185469900Y-72797460D01*
X185412832Y-72510562D01*
X185300890Y-72240309D01*
X185138375Y-71997088D01*
X184931532Y-71790245D01*
X184757140Y-71673720D01*
X184931532Y-71557195D01*
X185138375Y-71350352D01*
X185300890Y-71107131D01*
X185412832Y-70836878D01*
X185469900Y-70549980D01*
X185469900Y-70257460D01*
X185412832Y-69970562D01*
X185300890Y-69700309D01*
X185138375Y-69457088D01*
X185006520Y-69325233D01*
X185079080Y-69303222D01*
X185189394Y-69244257D01*
X185286085Y-69164905D01*
X185365437Y-69068214D01*
X185424402Y-68957900D01*
X185460712Y-68838202D01*
X185472972Y-68713720D01*
X185472972Y-67022140D01*
X188800000Y-67022140D01*
X188800000Y-67314660D01*
X188857068Y-67601558D01*
X188969010Y-67871811D01*
X189131525Y-68115032D01*
X189338368Y-68321875D01*
X189581589Y-68484390D01*
X189851842Y-68596332D01*
X190138740Y-68653400D01*
X190431260Y-68653400D01*
X190718158Y-68596332D01*
X190988411Y-68484390D01*
X191231632Y-68321875D01*
X191438475Y-68115032D01*
X191555000Y-67940640D01*
X191671525Y-68115032D01*
X191878368Y-68321875D01*
X192121589Y-68484390D01*
X192391842Y-68596332D01*
X192678740Y-68653400D01*
X192971260Y-68653400D01*
X193258158Y-68596332D01*
X193528411Y-68484390D01*
X193771632Y-68321875D01*
X193978475Y-68115032D01*
X194100195Y-67932866D01*
X194169822Y-68049755D01*
X194364731Y-68265988D01*
X194598080Y-68440041D01*
X194860901Y-68565225D01*
X195008110Y-68609876D01*
X195238000Y-68488555D01*
X195238000Y-67295400D01*
X195218000Y-67295400D01*
X195218000Y-67041400D01*
X195238000Y-67041400D01*
X195238000Y-65848245D01*
X195008110Y-65726924D01*
X194860901Y-65771575D01*
X194598080Y-65896759D01*
X194364731Y-66070812D01*
X194169822Y-66287045D01*
X194100195Y-66403934D01*
X193978475Y-66221768D01*
X193771632Y-66014925D01*
X193528411Y-65852410D01*
X193258158Y-65740468D01*
X192971260Y-65683400D01*
X192678740Y-65683400D01*
X192391842Y-65740468D01*
X192121589Y-65852410D01*
X191878368Y-66014925D01*
X191671525Y-66221768D01*
X191555000Y-66396160D01*
X191438475Y-66221768D01*
X191231632Y-66014925D01*
X190988411Y-65852410D01*
X190718158Y-65740468D01*
X190431260Y-65683400D01*
X190138740Y-65683400D01*
X189851842Y-65740468D01*
X189581589Y-65852410D01*
X189338368Y-66014925D01*
X189131525Y-66221768D01*
X188969010Y-66464989D01*
X188857068Y-66735242D01*
X188800000Y-67022140D01*
X185472972Y-67022140D01*
X185472972Y-67013720D01*
X185460712Y-66889238D01*
X185424402Y-66769540D01*
X185365437Y-66659226D01*
X185286085Y-66562535D01*
X185189394Y-66483183D01*
X185079080Y-66424218D01*
X184959382Y-66387908D01*
X184834900Y-66375648D01*
X183134900Y-66375648D01*
X183010418Y-66387908D01*
X182890720Y-66424218D01*
X182780406Y-66483183D01*
X182683715Y-66562535D01*
X182604363Y-66659226D01*
X182545398Y-66769540D01*
X182509088Y-66889238D01*
X182496828Y-67013720D01*
X180009700Y-67013720D01*
X180009700Y-66985785D01*
X179954553Y-66708546D01*
X179846380Y-66447393D01*
X179689337Y-66212361D01*
X179489459Y-66012483D01*
X179254427Y-65855440D01*
X178993274Y-65747267D01*
X178716035Y-65692120D01*
X178433365Y-65692120D01*
X178156126Y-65747267D01*
X177894973Y-65855440D01*
X177659941Y-66012483D01*
X177460063Y-66212361D01*
X177303020Y-66447393D01*
X177194847Y-66708546D01*
X177139700Y-66985785D01*
X175117960Y-66985785D01*
X175081132Y-66800642D01*
X174969190Y-66530389D01*
X174806675Y-66287168D01*
X174599832Y-66080325D01*
X174425440Y-65963800D01*
X174599832Y-65847275D01*
X174806675Y-65640432D01*
X174969190Y-65397211D01*
X175081132Y-65126958D01*
X175138200Y-64840060D01*
X175138200Y-64547540D01*
X175081132Y-64260642D01*
X174969190Y-63990389D01*
X174806675Y-63747168D01*
X174599832Y-63540325D01*
X174425440Y-63423800D01*
X174599832Y-63307275D01*
X174806675Y-63100432D01*
X174969190Y-62857211D01*
X175081132Y-62586958D01*
X175087285Y-62556025D01*
X177081280Y-62556025D01*
X177081280Y-62838695D01*
X177136427Y-63115934D01*
X177244600Y-63377087D01*
X177401643Y-63612119D01*
X177601521Y-63811997D01*
X177836553Y-63969040D01*
X178097706Y-64077213D01*
X178374945Y-64132360D01*
X178657615Y-64132360D01*
X178934854Y-64077213D01*
X179196007Y-63969040D01*
X179431039Y-63811997D01*
X179630917Y-63612119D01*
X179787960Y-63377087D01*
X179896133Y-63115934D01*
X179951280Y-62838695D01*
X179951280Y-62556025D01*
X179926018Y-62429025D01*
X181653280Y-62429025D01*
X181653280Y-62711695D01*
X181708427Y-62988934D01*
X181816600Y-63250087D01*
X181973643Y-63485119D01*
X182173521Y-63684997D01*
X182408553Y-63842040D01*
X182669706Y-63950213D01*
X182946945Y-64005360D01*
X183229615Y-64005360D01*
X183506854Y-63950213D01*
X183768007Y-63842040D01*
X184003039Y-63684997D01*
X184202917Y-63485119D01*
X184222801Y-63455360D01*
X197480891Y-63455360D01*
X197524360Y-63459641D01*
X197567829Y-63455360D01*
X197567837Y-63455360D01*
X197697850Y-63442555D01*
X197864673Y-63391949D01*
X198018419Y-63309771D01*
X198153177Y-63199177D01*
X198180894Y-63165404D01*
X198508026Y-62838272D01*
X198541797Y-62810557D01*
X198596542Y-62743850D01*
X198652391Y-62675798D01*
X198734569Y-62522054D01*
X198785175Y-62355230D01*
X198802261Y-62181740D01*
X198790000Y-62057243D01*
X198790000Y-60653025D01*
X198879482Y-60644212D01*
X198999180Y-60607902D01*
X199109494Y-60548937D01*
X199206185Y-60469585D01*
X199285537Y-60372894D01*
X199344502Y-60262580D01*
X199380812Y-60142882D01*
X199393072Y-60018400D01*
X199393072Y-58318400D01*
X199380812Y-58193918D01*
X199344502Y-58074220D01*
X199285537Y-57963906D01*
X199206185Y-57867215D01*
X199109494Y-57787863D01*
X198999180Y-57728898D01*
X198879482Y-57692588D01*
X198790000Y-57683775D01*
X198790000Y-54653025D01*
X198879482Y-54644212D01*
X198999180Y-54607902D01*
X199109494Y-54548937D01*
X199206185Y-54469585D01*
X199285537Y-54372894D01*
X199344502Y-54262580D01*
X199380812Y-54142882D01*
X199393072Y-54018400D01*
X199393072Y-52318400D01*
X199380812Y-52193918D01*
X199344502Y-52074220D01*
X199285537Y-51963906D01*
X199206185Y-51867215D01*
X199109494Y-51787863D01*
X198999180Y-51728898D01*
X198879482Y-51692588D01*
X198755000Y-51680328D01*
X197055000Y-51680328D01*
X196930518Y-51692588D01*
X196810820Y-51728898D01*
X196700506Y-51787863D01*
X196603815Y-51867215D01*
X196524463Y-51963906D01*
X196465498Y-52074220D01*
X196441034Y-52154866D01*
X196365269Y-52070812D01*
X196131920Y-51896759D01*
X195869099Y-51771575D01*
X195721890Y-51726924D01*
X195492000Y-51848245D01*
X195492000Y-53041400D01*
X195512000Y-53041400D01*
X195512000Y-53295400D01*
X195492000Y-53295400D01*
X195492000Y-54488555D01*
X195721890Y-54609876D01*
X195869099Y-54565225D01*
X196131920Y-54440041D01*
X196365269Y-54265988D01*
X196441034Y-54181934D01*
X196465498Y-54262580D01*
X196524463Y-54372894D01*
X196603815Y-54469585D01*
X196700506Y-54548937D01*
X196810820Y-54607902D01*
X196930518Y-54644212D01*
X197020000Y-54653025D01*
X197020001Y-57683775D01*
X196930518Y-57692588D01*
X196810820Y-57728898D01*
X196700506Y-57787863D01*
X196603815Y-57867215D01*
X196524463Y-57963906D01*
X196465498Y-58074220D01*
X196441034Y-58154866D01*
X196365269Y-58070812D01*
X196131920Y-57896759D01*
X195869099Y-57771575D01*
X195721890Y-57726924D01*
X195492000Y-57848245D01*
X195492000Y-59041400D01*
X195512000Y-59041400D01*
X195512000Y-59295400D01*
X195492000Y-59295400D01*
X195492000Y-60488555D01*
X195721890Y-60609876D01*
X195869099Y-60565225D01*
X196131920Y-60440041D01*
X196365269Y-60265988D01*
X196441034Y-60181934D01*
X196465498Y-60262580D01*
X196524463Y-60372894D01*
X196603815Y-60469585D01*
X196700506Y-60548937D01*
X196810820Y-60607902D01*
X196930518Y-60644212D01*
X197020001Y-60653025D01*
X197020000Y-61685360D01*
X184222801Y-61685360D01*
X184202917Y-61655601D01*
X184003039Y-61455723D01*
X183768007Y-61298680D01*
X183506854Y-61190507D01*
X183229615Y-61135360D01*
X182946945Y-61135360D01*
X182669706Y-61190507D01*
X182408553Y-61298680D01*
X182173521Y-61455723D01*
X181973643Y-61655601D01*
X181816600Y-61890633D01*
X181708427Y-62151786D01*
X181653280Y-62429025D01*
X179926018Y-62429025D01*
X179896133Y-62278786D01*
X179787960Y-62017633D01*
X179630917Y-61782601D01*
X179431039Y-61582723D01*
X179196007Y-61425680D01*
X178934854Y-61317507D01*
X178657615Y-61262360D01*
X178374945Y-61262360D01*
X178097706Y-61317507D01*
X177836553Y-61425680D01*
X177601521Y-61582723D01*
X177401643Y-61782601D01*
X177244600Y-62017633D01*
X177136427Y-62278786D01*
X177081280Y-62556025D01*
X175087285Y-62556025D01*
X175138200Y-62300060D01*
X175138200Y-62007540D01*
X175081132Y-61720642D01*
X174969190Y-61450389D01*
X174806675Y-61207168D01*
X174599832Y-61000325D01*
X174425440Y-60883800D01*
X174599832Y-60767275D01*
X174806675Y-60560432D01*
X174969190Y-60317211D01*
X175081132Y-60046958D01*
X175138200Y-59760060D01*
X175138200Y-59467540D01*
X175081132Y-59180642D01*
X175015479Y-59022140D01*
X188800000Y-59022140D01*
X188800000Y-59314660D01*
X188857068Y-59601558D01*
X188969010Y-59871811D01*
X189131525Y-60115032D01*
X189338368Y-60321875D01*
X189581589Y-60484390D01*
X189851842Y-60596332D01*
X190138740Y-60653400D01*
X190431260Y-60653400D01*
X190718158Y-60596332D01*
X190988411Y-60484390D01*
X191231632Y-60321875D01*
X191438475Y-60115032D01*
X191555000Y-59940640D01*
X191671525Y-60115032D01*
X191878368Y-60321875D01*
X192121589Y-60484390D01*
X192391842Y-60596332D01*
X192678740Y-60653400D01*
X192971260Y-60653400D01*
X193258158Y-60596332D01*
X193528411Y-60484390D01*
X193771632Y-60321875D01*
X193978475Y-60115032D01*
X194100195Y-59932866D01*
X194169822Y-60049755D01*
X194364731Y-60265988D01*
X194598080Y-60440041D01*
X194860901Y-60565225D01*
X195008110Y-60609876D01*
X195238000Y-60488555D01*
X195238000Y-59295400D01*
X195218000Y-59295400D01*
X195218000Y-59041400D01*
X195238000Y-59041400D01*
X195238000Y-57848245D01*
X195008110Y-57726924D01*
X194860901Y-57771575D01*
X194598080Y-57896759D01*
X194364731Y-58070812D01*
X194169822Y-58287045D01*
X194100195Y-58403934D01*
X193978475Y-58221768D01*
X193771632Y-58014925D01*
X193528411Y-57852410D01*
X193258158Y-57740468D01*
X192971260Y-57683400D01*
X192678740Y-57683400D01*
X192391842Y-57740468D01*
X192121589Y-57852410D01*
X191878368Y-58014925D01*
X191671525Y-58221768D01*
X191555000Y-58396160D01*
X191438475Y-58221768D01*
X191231632Y-58014925D01*
X190988411Y-57852410D01*
X190718158Y-57740468D01*
X190431260Y-57683400D01*
X190138740Y-57683400D01*
X189851842Y-57740468D01*
X189581589Y-57852410D01*
X189338368Y-58014925D01*
X189131525Y-58221768D01*
X188969010Y-58464989D01*
X188857068Y-58735242D01*
X188800000Y-59022140D01*
X175015479Y-59022140D01*
X174969190Y-58910389D01*
X174806675Y-58667168D01*
X174599832Y-58460325D01*
X174426471Y-58344489D01*
X174501992Y-58102197D01*
X173653200Y-57253405D01*
X172804408Y-58102197D01*
X172879929Y-58344489D01*
X172706568Y-58460325D01*
X172499725Y-58667168D01*
X172387414Y-58835253D01*
X172292075Y-58692568D01*
X172085232Y-58485725D01*
X171911871Y-58369889D01*
X171987392Y-58127597D01*
X171138600Y-57278805D01*
X170289808Y-58127597D01*
X170365329Y-58369889D01*
X170191968Y-58485725D01*
X169985125Y-58692568D01*
X169822610Y-58935789D01*
X169710668Y-59206042D01*
X169653600Y-59492940D01*
X168747000Y-59492940D01*
X168747000Y-57167731D01*
X169647989Y-57167731D01*
X169690001Y-57457219D01*
X169787681Y-57732947D01*
X169861128Y-57870357D01*
X170110203Y-57947992D01*
X170958995Y-57099200D01*
X171318205Y-57099200D01*
X172166997Y-57947992D01*
X172416072Y-57870357D01*
X172421396Y-57859191D01*
X172624803Y-57922592D01*
X173473595Y-57073800D01*
X173832805Y-57073800D01*
X174681597Y-57922592D01*
X174930672Y-57844957D01*
X175056571Y-57580917D01*
X175128539Y-57297389D01*
X175143811Y-57005269D01*
X175101799Y-56715781D01*
X175004119Y-56440053D01*
X174930672Y-56302643D01*
X174681597Y-56225008D01*
X173832805Y-57073800D01*
X173473595Y-57073800D01*
X172624803Y-56225008D01*
X172375728Y-56302643D01*
X172370404Y-56313809D01*
X172166997Y-56250408D01*
X171318205Y-57099200D01*
X170958995Y-57099200D01*
X170110203Y-56250408D01*
X169861128Y-56328043D01*
X169735229Y-56592083D01*
X169663261Y-56875611D01*
X169647989Y-57167731D01*
X168747000Y-57167731D01*
X168747000Y-55662378D01*
X168888979Y-55520400D01*
X169999693Y-55520400D01*
X170191968Y-55712675D01*
X170365329Y-55828511D01*
X170289808Y-56070803D01*
X171138600Y-56919595D01*
X171987392Y-56070803D01*
X171911871Y-55828511D01*
X172085232Y-55712675D01*
X172292075Y-55505832D01*
X172404386Y-55337747D01*
X172499725Y-55480432D01*
X172706568Y-55687275D01*
X172879929Y-55803111D01*
X172804408Y-56045403D01*
X173653200Y-56894195D01*
X174501992Y-56045403D01*
X174426471Y-55803111D01*
X174599832Y-55687275D01*
X174806675Y-55480432D01*
X174847856Y-55418800D01*
X175081911Y-55418800D01*
X175125380Y-55423081D01*
X175168849Y-55418800D01*
X175168857Y-55418800D01*
X175298870Y-55405995D01*
X175465693Y-55355389D01*
X175619439Y-55273211D01*
X175754197Y-55162617D01*
X175781914Y-55128844D01*
X175995294Y-54915464D01*
X176028704Y-54888108D01*
X176056772Y-54853986D01*
X176057131Y-54853627D01*
X176084699Y-54820035D01*
X176139450Y-54753475D01*
X176139688Y-54753032D01*
X176140009Y-54752640D01*
X176180933Y-54676076D01*
X176221802Y-54599822D01*
X176221949Y-54599339D01*
X176222187Y-54598894D01*
X176247284Y-54516163D01*
X176272597Y-54433057D01*
X176272647Y-54432552D01*
X176272793Y-54432072D01*
X176281235Y-54346356D01*
X176285549Y-54303058D01*
X176285550Y-54302550D01*
X176289880Y-54258582D01*
X176285648Y-54215612D01*
X176287705Y-52396025D01*
X177081280Y-52396025D01*
X177081280Y-52678695D01*
X177136427Y-52955934D01*
X177244600Y-53217087D01*
X177401643Y-53452119D01*
X177601521Y-53651997D01*
X177836553Y-53809040D01*
X178097706Y-53917213D01*
X178374945Y-53972360D01*
X178657615Y-53972360D01*
X178934854Y-53917213D01*
X179196007Y-53809040D01*
X179431039Y-53651997D01*
X179630917Y-53452119D01*
X179787960Y-53217087D01*
X179896133Y-52955934D01*
X179951280Y-52678695D01*
X179951280Y-52396025D01*
X179926018Y-52269025D01*
X181653280Y-52269025D01*
X181653280Y-52551695D01*
X181708427Y-52828934D01*
X181816600Y-53090087D01*
X181973643Y-53325119D01*
X182173521Y-53524997D01*
X182408553Y-53682040D01*
X182669706Y-53790213D01*
X182946945Y-53845360D01*
X183229615Y-53845360D01*
X183506854Y-53790213D01*
X183768007Y-53682040D01*
X184003039Y-53524997D01*
X184202917Y-53325119D01*
X184306323Y-53170360D01*
X188800000Y-53170360D01*
X188800000Y-53314660D01*
X188857068Y-53601558D01*
X188969010Y-53871811D01*
X189131525Y-54115032D01*
X189338368Y-54321875D01*
X189581589Y-54484390D01*
X189851842Y-54596332D01*
X190138740Y-54653400D01*
X190431260Y-54653400D01*
X190718158Y-54596332D01*
X190988411Y-54484390D01*
X191231632Y-54321875D01*
X191438475Y-54115032D01*
X191555000Y-53940640D01*
X191671525Y-54115032D01*
X191878368Y-54321875D01*
X192121589Y-54484390D01*
X192391842Y-54596332D01*
X192678740Y-54653400D01*
X192971260Y-54653400D01*
X193258158Y-54596332D01*
X193528411Y-54484390D01*
X193771632Y-54321875D01*
X193978475Y-54115032D01*
X194100195Y-53932866D01*
X194169822Y-54049755D01*
X194364731Y-54265988D01*
X194598080Y-54440041D01*
X194860901Y-54565225D01*
X195008110Y-54609876D01*
X195238000Y-54488555D01*
X195238000Y-53295400D01*
X195218000Y-53295400D01*
X195218000Y-53041400D01*
X195238000Y-53041400D01*
X195238000Y-51848245D01*
X195008110Y-51726924D01*
X194860901Y-51771575D01*
X194598080Y-51896759D01*
X194364731Y-52070812D01*
X194169822Y-52287045D01*
X194100195Y-52403934D01*
X193978475Y-52221768D01*
X193771632Y-52014925D01*
X193528411Y-51852410D01*
X193258158Y-51740468D01*
X192971260Y-51683400D01*
X192678740Y-51683400D01*
X192391842Y-51740468D01*
X192121589Y-51852410D01*
X191878368Y-52014925D01*
X191671525Y-52221768D01*
X191555000Y-52396160D01*
X191438475Y-52221768D01*
X191231632Y-52014925D01*
X190988411Y-51852410D01*
X190718158Y-51740468D01*
X190431260Y-51683400D01*
X190138740Y-51683400D01*
X189876670Y-51735529D01*
X189819207Y-51704814D01*
X189675946Y-51661357D01*
X189564293Y-51650360D01*
X189564282Y-51650360D01*
X189526960Y-51646684D01*
X189489638Y-51650360D01*
X184306323Y-51650360D01*
X184202917Y-51495601D01*
X184003039Y-51295723D01*
X183768007Y-51138680D01*
X183506854Y-51030507D01*
X183229615Y-50975360D01*
X182946945Y-50975360D01*
X182669706Y-51030507D01*
X182408553Y-51138680D01*
X182173521Y-51295723D01*
X181973643Y-51495601D01*
X181816600Y-51730633D01*
X181708427Y-51991786D01*
X181653280Y-52269025D01*
X179926018Y-52269025D01*
X179896133Y-52118786D01*
X179787960Y-51857633D01*
X179630917Y-51622601D01*
X179431039Y-51422723D01*
X179196007Y-51265680D01*
X178934854Y-51157507D01*
X178657615Y-51102360D01*
X178374945Y-51102360D01*
X178097706Y-51157507D01*
X177836553Y-51265680D01*
X177601521Y-51422723D01*
X177401643Y-51622601D01*
X177244600Y-51857633D01*
X177136427Y-52118786D01*
X177081280Y-52396025D01*
X176287705Y-52396025D01*
X176289503Y-50806300D01*
X176375399Y-50806300D01*
X176575358Y-50766526D01*
X176763716Y-50688505D01*
X176933234Y-50575237D01*
X176977171Y-50531300D01*
X193741818Y-50531300D01*
X193779140Y-50534976D01*
X193816462Y-50531300D01*
X193816473Y-50531300D01*
X193928126Y-50520303D01*
X194071387Y-50476846D01*
X194203416Y-50406274D01*
X194319141Y-50311301D01*
X194342944Y-50282297D01*
X194572078Y-50053163D01*
X194601081Y-50029361D01*
X194696054Y-49913636D01*
X194766626Y-49781607D01*
X194810083Y-49638346D01*
X194813660Y-49602025D01*
X198242020Y-49602025D01*
X198242020Y-49884695D01*
X198297167Y-50161934D01*
X198405340Y-50423087D01*
X198562383Y-50658119D01*
X198762261Y-50857997D01*
X198997293Y-51015040D01*
X199258446Y-51123213D01*
X199535685Y-51178360D01*
X199818355Y-51178360D01*
X200095594Y-51123213D01*
X200356747Y-51015040D01*
X200591779Y-50857997D01*
X200791657Y-50658119D01*
X200948700Y-50423087D01*
X201056873Y-50161934D01*
X201112020Y-49884695D01*
X201112020Y-49602025D01*
X203306020Y-49602025D01*
X203306020Y-49884695D01*
X203361167Y-50161934D01*
X203469340Y-50423087D01*
X203626383Y-50658119D01*
X203826261Y-50857997D01*
X204061293Y-51015040D01*
X204322446Y-51123213D01*
X204599685Y-51178360D01*
X204882355Y-51178360D01*
X205159594Y-51123213D01*
X205420747Y-51015040D01*
X205655779Y-50857997D01*
X205855657Y-50658119D01*
X206012700Y-50423087D01*
X206120873Y-50161934D01*
X206176020Y-49884695D01*
X206176020Y-49602025D01*
X206120873Y-49324786D01*
X206012700Y-49063633D01*
X205855657Y-48828601D01*
X205655779Y-48628723D01*
X205420747Y-48471680D01*
X205159594Y-48363507D01*
X204882355Y-48308360D01*
X204599685Y-48308360D01*
X204322446Y-48363507D01*
X204061293Y-48471680D01*
X203826261Y-48628723D01*
X203626383Y-48828601D01*
X203469340Y-49063633D01*
X203361167Y-49324786D01*
X203306020Y-49602025D01*
X201112020Y-49602025D01*
X201056873Y-49324786D01*
X200948700Y-49063633D01*
X200791657Y-48828601D01*
X200591779Y-48628723D01*
X200356747Y-48471680D01*
X200095594Y-48363507D01*
X199818355Y-48308360D01*
X199535685Y-48308360D01*
X199258446Y-48363507D01*
X198997293Y-48471680D01*
X198762261Y-48628723D01*
X198562383Y-48828601D01*
X198405340Y-49063633D01*
X198297167Y-49324786D01*
X198242020Y-49602025D01*
X194813660Y-49602025D01*
X194821080Y-49526693D01*
X194821080Y-49526684D01*
X194824756Y-49489361D01*
X194821080Y-49452038D01*
X194821080Y-49135438D01*
X195007712Y-49010735D01*
X195214555Y-48803892D01*
X195377070Y-48560671D01*
X195489012Y-48290418D01*
X195546080Y-48003520D01*
X195546080Y-47711000D01*
X195489012Y-47424102D01*
X195377070Y-47153849D01*
X195214555Y-46910628D01*
X195007712Y-46703785D01*
X194833320Y-46587260D01*
X195007712Y-46470735D01*
X195214555Y-46263892D01*
X195377070Y-46020671D01*
X195489012Y-45750418D01*
X195546080Y-45463520D01*
X195546080Y-45171000D01*
X195489012Y-44884102D01*
X195377070Y-44613849D01*
X195214555Y-44370628D01*
X195007712Y-44163785D01*
X194825546Y-44042065D01*
X194942435Y-43972438D01*
X195158668Y-43777529D01*
X195332721Y-43544180D01*
X195457905Y-43281359D01*
X195502556Y-43134150D01*
X195381235Y-42904260D01*
X194188080Y-42904260D01*
X194188080Y-42924260D01*
X193934080Y-42924260D01*
X193934080Y-42904260D01*
X192740925Y-42904260D01*
X192619604Y-43134150D01*
X192664255Y-43281359D01*
X192789439Y-43544180D01*
X192963492Y-43777529D01*
X193179725Y-43972438D01*
X193296614Y-44042065D01*
X193114448Y-44163785D01*
X192907605Y-44370628D01*
X192745090Y-44613849D01*
X192633148Y-44884102D01*
X192576080Y-45171000D01*
X192576080Y-45463520D01*
X192633148Y-45750418D01*
X192745090Y-46020671D01*
X192907605Y-46263892D01*
X193114448Y-46470735D01*
X193288840Y-46587260D01*
X193114448Y-46703785D01*
X192907605Y-46910628D01*
X192745090Y-47153849D01*
X192633148Y-47424102D01*
X192576080Y-47711000D01*
X192576080Y-48003520D01*
X192633148Y-48290418D01*
X192745090Y-48560671D01*
X192907605Y-48803892D01*
X193114448Y-49010735D01*
X193115294Y-49011300D01*
X189877047Y-49011300D01*
X189795984Y-48930237D01*
X190039951Y-48858654D01*
X190160851Y-48603144D01*
X190229580Y-48328956D01*
X190243497Y-48046628D01*
X190202067Y-47767010D01*
X190106883Y-47500848D01*
X190098438Y-47485048D01*
X190160851Y-47353144D01*
X190229580Y-47078956D01*
X190243497Y-46796628D01*
X190202067Y-46517010D01*
X190106883Y-46250848D01*
X190039951Y-46125626D01*
X189795982Y-46054043D01*
X189130306Y-46719719D01*
X189015096Y-46690840D01*
X188810081Y-46680734D01*
X189616377Y-45874438D01*
X189544794Y-45630469D01*
X189289284Y-45509569D01*
X189015096Y-45440840D01*
X188732768Y-45426923D01*
X188453150Y-45468353D01*
X188186988Y-45563537D01*
X188061766Y-45630469D01*
X187990183Y-45874438D01*
X188795774Y-46680029D01*
X188732768Y-46676923D01*
X188472083Y-46715548D01*
X187810578Y-46054043D01*
X187566609Y-46125626D01*
X187445709Y-46381136D01*
X187376980Y-46655324D01*
X187363063Y-46937652D01*
X187404493Y-47217270D01*
X187499677Y-47483432D01*
X187508122Y-47499232D01*
X187445709Y-47631136D01*
X187376980Y-47905324D01*
X187363063Y-48187652D01*
X187404493Y-48467270D01*
X187499677Y-48733432D01*
X187566609Y-48858654D01*
X187810576Y-48930237D01*
X187729513Y-49011300D01*
X186632848Y-49011300D01*
X186546657Y-48925109D01*
X186794524Y-48848902D01*
X186919243Y-48586875D01*
X186990448Y-48305551D01*
X187005399Y-48015741D01*
X186963525Y-47728583D01*
X186866434Y-47455112D01*
X186794524Y-47320578D01*
X186609675Y-47263746D01*
X186748877Y-47124544D01*
X186777881Y-47100741D01*
X186872854Y-46985016D01*
X186943426Y-46852987D01*
X186986883Y-46709726D01*
X186997880Y-46598073D01*
X186997880Y-46598064D01*
X187001556Y-46560741D01*
X186997880Y-46523418D01*
X186997880Y-43651662D01*
X187001556Y-43614339D01*
X186997880Y-43577017D01*
X186997880Y-43577007D01*
X186986883Y-43465354D01*
X186943426Y-43322093D01*
X186872854Y-43190064D01*
X186777881Y-43074339D01*
X186749980Y-43051441D01*
X186727081Y-43023539D01*
X186611356Y-42928566D01*
X186479327Y-42857994D01*
X186336066Y-42814537D01*
X186224413Y-42803540D01*
X186224402Y-42803540D01*
X186187080Y-42799864D01*
X186149758Y-42803540D01*
X185991150Y-42803540D01*
X186017092Y-42718022D01*
X186029352Y-42593540D01*
X186026280Y-42579290D01*
X185867530Y-42420540D01*
X184418280Y-42420540D01*
X184418280Y-42440540D01*
X184164280Y-42440540D01*
X184164280Y-42420540D01*
X182715030Y-42420540D01*
X182556280Y-42579290D01*
X182553208Y-42593540D01*
X182565468Y-42718022D01*
X182601778Y-42837720D01*
X182650323Y-42928540D01*
X182633951Y-42959169D01*
X182546017Y-42827566D01*
X182502080Y-42783629D01*
X182502080Y-42024141D01*
X182555451Y-41970771D01*
X182553208Y-41993540D01*
X182556280Y-42007790D01*
X182715030Y-42166540D01*
X184164280Y-42166540D01*
X184164280Y-41517290D01*
X184090915Y-41443925D01*
X184130989Y-41403850D01*
X184256680Y-41215741D01*
X184382371Y-41403850D01*
X184457046Y-41478525D01*
X184418280Y-41517290D01*
X184418280Y-42166540D01*
X185867530Y-42166540D01*
X186026280Y-42007790D01*
X186029352Y-41993540D01*
X186017092Y-41869058D01*
X186013623Y-41857622D01*
X186224502Y-41770273D01*
X186465790Y-41609049D01*
X186670989Y-41403850D01*
X186832213Y-41162562D01*
X186943266Y-40894457D01*
X186999880Y-40609838D01*
X186999880Y-40475805D01*
X187368280Y-40475805D01*
X187368280Y-40758475D01*
X187423427Y-41035714D01*
X187508931Y-41242140D01*
X187423427Y-41448566D01*
X187368280Y-41725805D01*
X187368280Y-42008475D01*
X187423427Y-42285714D01*
X187531600Y-42546867D01*
X187688643Y-42781899D01*
X187888521Y-42981777D01*
X188123553Y-43138820D01*
X188384706Y-43246993D01*
X188661945Y-43302140D01*
X188944615Y-43302140D01*
X189221854Y-43246993D01*
X189483007Y-43138820D01*
X189718039Y-42981777D01*
X189917917Y-42781899D01*
X190074960Y-42546867D01*
X190183133Y-42285714D01*
X190238280Y-42008475D01*
X190238280Y-41725805D01*
X190183133Y-41448566D01*
X190097629Y-41242140D01*
X190183133Y-41035714D01*
X190238280Y-40758475D01*
X190238280Y-40475805D01*
X190183133Y-40198566D01*
X190074960Y-39937413D01*
X189917917Y-39702381D01*
X189718039Y-39502503D01*
X189483007Y-39345460D01*
X189221854Y-39237287D01*
X188944615Y-39182140D01*
X188661945Y-39182140D01*
X188384706Y-39237287D01*
X188123553Y-39345460D01*
X187888521Y-39502503D01*
X187688643Y-39702381D01*
X187531600Y-39937413D01*
X187423427Y-40198566D01*
X187368280Y-40475805D01*
X186999880Y-40475805D01*
X186999880Y-40319642D01*
X186943266Y-40035023D01*
X186832213Y-39766918D01*
X186670989Y-39525630D01*
X186465790Y-39320431D01*
X186224502Y-39159207D01*
X185956397Y-39048154D01*
X185671778Y-38991540D01*
X185381582Y-38991540D01*
X185096963Y-39048154D01*
X184828858Y-39159207D01*
X184587570Y-39320431D01*
X184382371Y-39525630D01*
X184256680Y-39713739D01*
X184130989Y-39525630D01*
X183925790Y-39320431D01*
X183684502Y-39159207D01*
X183416397Y-39048154D01*
X183131778Y-38991540D01*
X182841582Y-38991540D01*
X182556963Y-39048154D01*
X182288858Y-39159207D01*
X182047570Y-39320431D01*
X181842371Y-39525630D01*
X181716680Y-39713739D01*
X181590989Y-39525630D01*
X181385790Y-39320431D01*
X181191440Y-39190570D01*
X181191440Y-38214431D01*
X181235377Y-38170494D01*
X181348645Y-38000976D01*
X181426666Y-37812618D01*
X181466440Y-37612659D01*
X181466440Y-37408781D01*
X181426666Y-37208822D01*
X181348645Y-37020464D01*
X181235377Y-36850946D01*
X181091214Y-36706783D01*
X180921696Y-36593515D01*
X180733338Y-36515494D01*
X180533379Y-36475720D01*
X180329501Y-36475720D01*
X180129542Y-36515494D01*
X179941184Y-36593515D01*
X179771666Y-36706783D01*
X179627503Y-36850946D01*
X179514235Y-37020464D01*
X179436214Y-37208822D01*
X179396440Y-37408781D01*
X179396440Y-37612659D01*
X179436214Y-37812618D01*
X179514235Y-38000976D01*
X179627503Y-38170494D01*
X179671440Y-38214431D01*
X179671441Y-39210936D01*
X179507570Y-39320431D01*
X179302371Y-39525630D01*
X179176680Y-39713739D01*
X179050989Y-39525630D01*
X178845790Y-39320431D01*
X178604502Y-39159207D01*
X178336397Y-39048154D01*
X178051778Y-38991540D01*
X177761582Y-38991540D01*
X177476963Y-39048154D01*
X177208858Y-39159207D01*
X176967570Y-39320431D01*
X176762371Y-39525630D01*
X176726216Y-39579740D01*
X175580325Y-39579740D01*
X175536859Y-39575459D01*
X175493393Y-39579740D01*
X175493383Y-39579740D01*
X175363370Y-39592545D01*
X175196547Y-39643151D01*
X175042801Y-39725329D01*
X174908043Y-39835923D01*
X174880326Y-39869696D01*
X174805018Y-39945004D01*
X174770718Y-39973251D01*
X174716203Y-40039907D01*
X174661189Y-40106942D01*
X174660831Y-40107611D01*
X174660353Y-40108196D01*
X174619741Y-40184486D01*
X174579011Y-40260688D01*
X174578792Y-40261411D01*
X174578435Y-40262081D01*
X174553512Y-40344743D01*
X174528404Y-40427511D01*
X174528329Y-40428268D01*
X174528112Y-40428989D01*
X174519787Y-40515008D01*
X174511318Y-40601001D01*
X174513445Y-40622603D01*
X174356611Y-40517810D01*
X174086358Y-40405868D01*
X173799460Y-40348800D01*
X173506940Y-40348800D01*
X173220042Y-40405868D01*
X172949789Y-40517810D01*
X172706568Y-40680325D01*
X172499725Y-40887168D01*
X172387414Y-41055253D01*
X172292075Y-40912568D01*
X172085232Y-40705725D01*
X171842011Y-40543210D01*
X171571758Y-40431268D01*
X171284860Y-40374200D01*
X170992340Y-40374200D01*
X170705442Y-40431268D01*
X170435189Y-40543210D01*
X170191968Y-40705725D01*
X169985125Y-40912568D01*
X169822610Y-41155789D01*
X169710668Y-41426042D01*
X169653600Y-41712940D01*
X169653600Y-42005460D01*
X169710668Y-42292358D01*
X169822610Y-42562611D01*
X169985125Y-42805832D01*
X170191968Y-43012675D01*
X170366360Y-43129200D01*
X170191968Y-43245725D01*
X169985125Y-43452568D01*
X169860422Y-43639200D01*
X166400723Y-43639200D01*
X166363400Y-43635524D01*
X166326077Y-43639200D01*
X166326067Y-43639200D01*
X166214414Y-43650197D01*
X166071153Y-43693654D01*
X165939124Y-43764226D01*
X165823399Y-43859199D01*
X165799601Y-43888197D01*
X164963302Y-44724496D01*
X164934208Y-44748391D01*
X164887360Y-44805517D01*
X164839426Y-44863924D01*
X164839360Y-44864048D01*
X164839276Y-44864150D01*
X164804856Y-44928600D01*
X164768854Y-44995954D01*
X164768814Y-44996086D01*
X164768751Y-44996204D01*
X164747254Y-45067163D01*
X164725398Y-45139215D01*
X164725385Y-45139350D01*
X164725345Y-45139481D01*
X164718028Y-45214038D01*
X164710724Y-45288200D01*
X150999000Y-45288200D01*
X150999000Y-36108857D01*
X184927569Y-36108857D01*
X184994306Y-36348745D01*
X185242992Y-36465644D01*
X185509706Y-36531781D01*
X185784197Y-36544615D01*
X186055917Y-36503651D01*
X186314426Y-36410464D01*
X186429894Y-36348745D01*
X186496631Y-36108857D01*
X185712100Y-35324325D01*
X184927569Y-36108857D01*
X150999000Y-36108857D01*
X150999000Y-35216817D01*
X184312205Y-35216817D01*
X184353169Y-35488537D01*
X184446356Y-35747046D01*
X184508075Y-35862514D01*
X184747963Y-35929251D01*
X185532495Y-35144720D01*
X184747963Y-34360189D01*
X184508075Y-34426926D01*
X184391176Y-34675612D01*
X184325039Y-34942326D01*
X184312205Y-35216817D01*
X150999000Y-35216817D01*
X150999000Y-34180583D01*
X184927569Y-34180583D01*
X185712100Y-34965115D01*
X186496631Y-34180583D01*
X186429894Y-33940695D01*
X186181208Y-33823796D01*
X185914494Y-33757659D01*
X185640003Y-33744825D01*
X185368283Y-33785789D01*
X185109774Y-33878976D01*
X184994306Y-33940695D01*
X184927569Y-34180583D01*
X150999000Y-34180583D01*
X150999000Y-33568857D01*
X183657569Y-33568857D01*
X183724306Y-33808745D01*
X183972992Y-33925644D01*
X184239706Y-33991781D01*
X184514197Y-34004615D01*
X184785917Y-33963651D01*
X185044426Y-33870464D01*
X185159894Y-33808745D01*
X185226631Y-33568857D01*
X184442100Y-32784325D01*
X183657569Y-33568857D01*
X150999000Y-33568857D01*
X150999000Y-32676817D01*
X183042205Y-32676817D01*
X183083169Y-32948537D01*
X183176356Y-33207046D01*
X183238075Y-33322514D01*
X183477963Y-33389251D01*
X184262495Y-32604720D01*
X183477963Y-31820189D01*
X183238075Y-31886926D01*
X183121176Y-32135612D01*
X183055039Y-32402326D01*
X183042205Y-32676817D01*
X150999000Y-32676817D01*
X150999000Y-31640583D01*
X183657569Y-31640583D01*
X184442100Y-32425115D01*
X185226631Y-31640583D01*
X185159894Y-31400695D01*
X184911208Y-31283796D01*
X184644494Y-31217659D01*
X184370003Y-31204825D01*
X184098283Y-31245789D01*
X183839774Y-31338976D01*
X183724306Y-31400695D01*
X183657569Y-31640583D01*
X150999000Y-31640583D01*
X150999000Y-27339033D01*
X151007464Y-27338199D01*
X152474272Y-27338199D01*
X152517741Y-27342480D01*
X152561210Y-27338199D01*
X152561218Y-27338199D01*
X152579182Y-27336430D01*
X168613503Y-27301096D01*
X168656000Y-27305281D01*
X168700442Y-27300904D01*
X168701426Y-27300902D01*
X168743809Y-27296633D01*
X168829490Y-27288195D01*
X168830435Y-27287908D01*
X168831411Y-27287810D01*
X168913834Y-27262609D01*
X168996313Y-27237588D01*
X168997178Y-27237126D01*
X168998122Y-27236837D01*
X169074216Y-27195948D01*
X169150059Y-27155410D01*
X169150819Y-27154787D01*
X169151687Y-27154320D01*
X169218143Y-27099535D01*
X169251046Y-27072532D01*
X169251740Y-27071838D01*
X169286201Y-27043429D01*
X169313220Y-27010358D01*
X170665829Y-25657750D01*
X170699597Y-25630037D01*
X170727940Y-25595502D01*
X170801052Y-25506415D01*
X170810191Y-25495279D01*
X170892369Y-25341533D01*
X170907244Y-25292497D01*
X170950026Y-25372536D01*
X170987641Y-25418370D01*
X171044999Y-25488261D01*
X171074003Y-25512064D01*
X174295615Y-28733677D01*
X174319414Y-28762676D01*
X174348412Y-28786474D01*
X174362582Y-28798103D01*
X174392640Y-28828161D01*
X174392640Y-28890299D01*
X174432414Y-29090258D01*
X174510435Y-29278616D01*
X174623703Y-29448134D01*
X174767866Y-29592297D01*
X174937384Y-29705565D01*
X175125742Y-29783586D01*
X175325701Y-29823360D01*
X175529579Y-29823360D01*
X175729538Y-29783586D01*
X175917896Y-29705565D01*
X176087414Y-29592297D01*
X176231577Y-29448134D01*
X176344845Y-29278616D01*
X176422866Y-29090258D01*
X176462640Y-28890299D01*
X176462640Y-28686421D01*
X176422866Y-28486462D01*
X176344845Y-28298104D01*
X176231577Y-28128586D01*
X176087414Y-27984423D01*
X175917896Y-27871155D01*
X175729538Y-27793134D01*
X175529579Y-27753360D01*
X175467441Y-27753360D01*
X175425758Y-27711677D01*
X175401956Y-27682674D01*
X175358793Y-27647251D01*
X172345000Y-24633459D01*
X172345000Y-24212663D01*
X172423465Y-24277058D01*
X172629327Y-24387094D01*
X172852701Y-24454853D01*
X173085000Y-24477733D01*
X173317300Y-24454853D01*
X173540674Y-24387094D01*
X173746536Y-24277058D01*
X173830332Y-24208288D01*
X173836881Y-24214725D01*
X174032246Y-24342850D01*
X174248853Y-24430399D01*
X174275256Y-24430803D01*
X174458000Y-24305361D01*
X174458000Y-23114000D01*
X174712000Y-23114000D01*
X174712000Y-24305361D01*
X174894744Y-24430803D01*
X174921147Y-24430399D01*
X175137754Y-24342850D01*
X175333119Y-24214725D01*
X175335000Y-24212876D01*
X175336881Y-24214725D01*
X175532246Y-24342850D01*
X175748853Y-24430399D01*
X175775256Y-24430803D01*
X175958000Y-24305361D01*
X175958000Y-23114000D01*
X176212000Y-23114000D01*
X176212000Y-24305361D01*
X176394744Y-24430803D01*
X176421147Y-24430399D01*
X176637754Y-24342850D01*
X176833119Y-24214725D01*
X176999734Y-24050948D01*
X177131196Y-23857813D01*
X177222454Y-23642742D01*
X177270000Y-23414000D01*
X177270000Y-23114000D01*
X176212000Y-23114000D01*
X175958000Y-23114000D01*
X174712000Y-23114000D01*
X174458000Y-23114000D01*
X174438000Y-23114000D01*
X174438000Y-22860000D01*
X174458000Y-22860000D01*
X174458000Y-21668639D01*
X174712000Y-21668639D01*
X174712000Y-22860000D01*
X175958000Y-22860000D01*
X175958000Y-21668639D01*
X176212000Y-21668639D01*
X176212000Y-22860000D01*
X177270000Y-22860000D01*
X177270000Y-22560000D01*
X177222454Y-22331258D01*
X177131196Y-22116187D01*
X176999734Y-21923052D01*
X176870606Y-21796123D01*
X180763100Y-21796123D01*
X180763100Y-22039397D01*
X180810560Y-22277996D01*
X180903657Y-22502752D01*
X181038813Y-22705027D01*
X181210833Y-22877047D01*
X181413108Y-23012203D01*
X181637864Y-23105300D01*
X181876463Y-23152760D01*
X182119737Y-23152760D01*
X182358336Y-23105300D01*
X182583092Y-23012203D01*
X182785367Y-22877047D01*
X182957387Y-22705027D01*
X183092543Y-22502752D01*
X183185640Y-22277996D01*
X183233100Y-22039397D01*
X183233100Y-21796123D01*
X183185640Y-21557524D01*
X183092543Y-21332768D01*
X182957387Y-21130493D01*
X182785367Y-20958473D01*
X182583092Y-20823317D01*
X182358336Y-20730220D01*
X182119737Y-20682760D01*
X181876463Y-20682760D01*
X181637864Y-20730220D01*
X181413108Y-20823317D01*
X181210833Y-20958473D01*
X181038813Y-21130493D01*
X180903657Y-21332768D01*
X180810560Y-21557524D01*
X180763100Y-21796123D01*
X176870606Y-21796123D01*
X176833119Y-21759275D01*
X176637754Y-21631150D01*
X176421147Y-21543601D01*
X176394744Y-21543197D01*
X176212000Y-21668639D01*
X175958000Y-21668639D01*
X175775256Y-21543197D01*
X175748853Y-21543601D01*
X175532246Y-21631150D01*
X175336881Y-21759275D01*
X175335000Y-21761124D01*
X175333119Y-21759275D01*
X175137754Y-21631150D01*
X174921147Y-21543601D01*
X174894744Y-21543197D01*
X174712000Y-21668639D01*
X174458000Y-21668639D01*
X174275256Y-21543197D01*
X174248853Y-21543601D01*
X174032246Y-21631150D01*
X173836881Y-21759275D01*
X173830332Y-21765712D01*
X173746535Y-21696942D01*
X173540673Y-21586906D01*
X173317299Y-21519147D01*
X173085000Y-21496267D01*
X172852700Y-21519147D01*
X172629326Y-21586906D01*
X172423464Y-21696942D01*
X172335000Y-21769543D01*
X172246535Y-21696942D01*
X172040673Y-21586906D01*
X171817299Y-21519147D01*
X171585000Y-21496267D01*
X171352700Y-21519147D01*
X171129326Y-21586906D01*
X170970000Y-21672068D01*
X170970000Y-21356378D01*
X172477657Y-19848722D01*
X185609421Y-19824449D01*
X185609420Y-23009769D01*
G36*
X185720428Y-48070598D02*
G01*
X185706285Y-48084740D01*
X185720428Y-48098883D01*
X185540823Y-48278488D01*
X185526680Y-48264345D01*
X185512538Y-48278488D01*
X185332933Y-48098883D01*
X185347075Y-48084740D01*
X185332933Y-48070598D01*
X185512538Y-47890993D01*
X185526680Y-47905135D01*
X185540823Y-47890993D01*
X185720428Y-48070598D01*
G37*
X185720428Y-48070598D02*
X185706285Y-48084740D01*
X185720428Y-48098883D01*
X185540823Y-48278488D01*
X185526680Y-48264345D01*
X185512538Y-48278488D01*
X185332933Y-48098883D01*
X185347075Y-48084740D01*
X185332933Y-48070598D01*
X185512538Y-47890993D01*
X185526680Y-47905135D01*
X185540823Y-47890993D01*
X185720428Y-48070598D01*
G36*
X144766568Y-48067275D02*
G01*
X144940960Y-48183800D01*
X144766568Y-48300325D01*
X144559725Y-48507168D01*
X144397210Y-48750389D01*
X144285268Y-49020642D01*
X144228200Y-49307540D01*
X144228200Y-49600060D01*
X144285268Y-49886958D01*
X144397210Y-50157211D01*
X144559725Y-50400432D01*
X144766568Y-50607275D01*
X144940960Y-50723800D01*
X144766568Y-50840325D01*
X144559725Y-51047168D01*
X144397210Y-51290389D01*
X144285268Y-51560642D01*
X144228200Y-51847540D01*
X144228200Y-52140060D01*
X144285268Y-52426958D01*
X144397210Y-52697211D01*
X144559725Y-52940432D01*
X144766568Y-53147275D01*
X144940960Y-53263800D01*
X144766568Y-53380325D01*
X144559725Y-53587168D01*
X144397210Y-53830389D01*
X144285268Y-54100642D01*
X144228200Y-54387540D01*
X144228200Y-54680060D01*
X144285268Y-54966958D01*
X144397210Y-55237211D01*
X144559725Y-55480432D01*
X144766568Y-55687275D01*
X144940960Y-55803800D01*
X144766568Y-55920325D01*
X144559725Y-56127168D01*
X144397210Y-56370389D01*
X144285268Y-56640642D01*
X144228200Y-56927540D01*
X144228200Y-57220060D01*
X144285268Y-57506958D01*
X144397210Y-57777211D01*
X144559725Y-58020432D01*
X144766568Y-58227275D01*
X144940960Y-58343800D01*
X144766568Y-58460325D01*
X144559725Y-58667168D01*
X144397210Y-58910389D01*
X144285268Y-59180642D01*
X144228200Y-59467540D01*
X144228200Y-59760060D01*
X144285268Y-60046958D01*
X144397210Y-60317211D01*
X144559725Y-60560432D01*
X144766568Y-60767275D01*
X144940960Y-60883800D01*
X144766568Y-61000325D01*
X144559725Y-61207168D01*
X144397210Y-61450389D01*
X144285268Y-61720642D01*
X144228200Y-62007540D01*
X144228200Y-62300060D01*
X144285268Y-62586958D01*
X144397210Y-62857211D01*
X144559725Y-63100432D01*
X144766568Y-63307275D01*
X144939929Y-63423111D01*
X144864408Y-63665403D01*
X145713200Y-64514195D01*
X146561992Y-63665403D01*
X146486471Y-63423111D01*
X146659832Y-63307275D01*
X146866675Y-63100432D01*
X146987414Y-62919733D01*
X147125125Y-63125832D01*
X147331968Y-63332675D01*
X147505329Y-63448511D01*
X147429808Y-63690803D01*
X148278600Y-64539595D01*
X148292743Y-64525453D01*
X148472348Y-64705058D01*
X148458205Y-64719200D01*
X148472348Y-64733343D01*
X148292743Y-64912948D01*
X148278600Y-64898805D01*
X147429808Y-65747597D01*
X147505329Y-65989889D01*
X147331968Y-66105725D01*
X147125125Y-66312568D01*
X147004386Y-66493267D01*
X146866675Y-66287168D01*
X146659832Y-66080325D01*
X146486471Y-65964489D01*
X146561992Y-65722197D01*
X145713200Y-64873405D01*
X144864408Y-65722197D01*
X144939929Y-65964489D01*
X144766568Y-66080325D01*
X144559725Y-66287168D01*
X144397210Y-66530389D01*
X144285268Y-66800642D01*
X144228200Y-67087540D01*
X144228200Y-67380060D01*
X144285268Y-67666958D01*
X144397210Y-67937211D01*
X144559725Y-68180432D01*
X144766568Y-68387275D01*
X144940960Y-68503800D01*
X144766568Y-68620325D01*
X144559725Y-68827168D01*
X144397210Y-69070389D01*
X144285268Y-69340642D01*
X144228200Y-69627540D01*
X144228200Y-69920060D01*
X144285268Y-70206958D01*
X144397210Y-70477211D01*
X144559725Y-70720432D01*
X144766568Y-70927275D01*
X144940960Y-71043800D01*
X144766568Y-71160325D01*
X144559725Y-71367168D01*
X144397210Y-71610389D01*
X144285268Y-71880642D01*
X144228200Y-72167540D01*
X144228200Y-72460060D01*
X144285268Y-72746958D01*
X144397210Y-73017211D01*
X144559725Y-73260432D01*
X144766568Y-73467275D01*
X144939929Y-73583111D01*
X144864408Y-73825403D01*
X145713200Y-74674195D01*
X146561992Y-73825403D01*
X146486471Y-73583111D01*
X146659832Y-73467275D01*
X146866675Y-73260432D01*
X146987414Y-73079733D01*
X147125125Y-73285832D01*
X147331968Y-73492675D01*
X147505329Y-73608511D01*
X147429808Y-73850803D01*
X148278600Y-74699595D01*
X148292743Y-74685453D01*
X148472348Y-74865058D01*
X148458205Y-74879200D01*
X148472348Y-74893343D01*
X148292743Y-75072948D01*
X148278600Y-75058805D01*
X147429808Y-75907597D01*
X147505329Y-76149889D01*
X147331968Y-76265725D01*
X147125125Y-76472568D01*
X147004386Y-76653267D01*
X146866675Y-76447168D01*
X146659832Y-76240325D01*
X146486471Y-76124489D01*
X146561992Y-75882197D01*
X145713200Y-75033405D01*
X144864408Y-75882197D01*
X144939929Y-76124489D01*
X144766568Y-76240325D01*
X144559725Y-76447168D01*
X144397210Y-76690389D01*
X144285268Y-76960642D01*
X144228200Y-77247540D01*
X144228200Y-77540060D01*
X144285268Y-77826958D01*
X144397210Y-78097211D01*
X144559725Y-78340432D01*
X144766568Y-78547275D01*
X145009789Y-78709790D01*
X145280042Y-78821732D01*
X145566940Y-78878800D01*
X145859460Y-78878800D01*
X146146358Y-78821732D01*
X146416611Y-78709790D01*
X146659832Y-78547275D01*
X146866675Y-78340432D01*
X146987414Y-78159733D01*
X147125125Y-78365832D01*
X147331968Y-78572675D01*
X147390269Y-78611631D01*
X147389319Y-78621281D01*
X147392531Y-78653891D01*
X146159422Y-79887000D01*
X143855000Y-79887000D01*
X143855000Y-74922331D01*
X144222589Y-74922331D01*
X144264601Y-75211819D01*
X144362281Y-75487547D01*
X144435728Y-75624957D01*
X144684803Y-75702592D01*
X145533595Y-74853800D01*
X145892805Y-74853800D01*
X146741597Y-75702592D01*
X146987997Y-75625791D01*
X147001128Y-75650357D01*
X147250203Y-75727992D01*
X148098995Y-74879200D01*
X147250203Y-74030408D01*
X147003803Y-74107209D01*
X146990672Y-74082643D01*
X146741597Y-74005008D01*
X145892805Y-74853800D01*
X145533595Y-74853800D01*
X144684803Y-74005008D01*
X144435728Y-74082643D01*
X144309829Y-74346683D01*
X144237861Y-74630211D01*
X144222589Y-74922331D01*
X143855000Y-74922331D01*
X143855000Y-64762331D01*
X144222589Y-64762331D01*
X144264601Y-65051819D01*
X144362281Y-65327547D01*
X144435728Y-65464957D01*
X144684803Y-65542592D01*
X145533595Y-64693800D01*
X145892805Y-64693800D01*
X146741597Y-65542592D01*
X146987997Y-65465791D01*
X147001128Y-65490357D01*
X147250203Y-65567992D01*
X148098995Y-64719200D01*
X147250203Y-63870408D01*
X147003803Y-63947209D01*
X146990672Y-63922643D01*
X146741597Y-63845008D01*
X145892805Y-64693800D01*
X145533595Y-64693800D01*
X144684803Y-63845008D01*
X144435728Y-63922643D01*
X144309829Y-64186683D01*
X144237861Y-64470211D01*
X144222589Y-64762331D01*
X143855000Y-64762331D01*
X143855000Y-48945948D01*
X144750121Y-48050828D01*
X144766568Y-48067275D01*
G37*
X144766568Y-48067275D02*
X144940960Y-48183800D01*
X144766568Y-48300325D01*
X144559725Y-48507168D01*
X144397210Y-48750389D01*
X144285268Y-49020642D01*
X144228200Y-49307540D01*
X144228200Y-49600060D01*
X144285268Y-49886958D01*
X144397210Y-50157211D01*
X144559725Y-50400432D01*
X144766568Y-50607275D01*
X144940960Y-50723800D01*
X144766568Y-50840325D01*
X144559725Y-51047168D01*
X144397210Y-51290389D01*
X144285268Y-51560642D01*
X144228200Y-51847540D01*
X144228200Y-52140060D01*
X144285268Y-52426958D01*
X144397210Y-52697211D01*
X144559725Y-52940432D01*
X144766568Y-53147275D01*
X144940960Y-53263800D01*
X144766568Y-53380325D01*
X144559725Y-53587168D01*
X144397210Y-53830389D01*
X144285268Y-54100642D01*
X144228200Y-54387540D01*
X144228200Y-54680060D01*
X144285268Y-54966958D01*
X144397210Y-55237211D01*
X144559725Y-55480432D01*
X144766568Y-55687275D01*
X144940960Y-55803800D01*
X144766568Y-55920325D01*
X144559725Y-56127168D01*
X144397210Y-56370389D01*
X144285268Y-56640642D01*
X144228200Y-56927540D01*
X144228200Y-57220060D01*
X144285268Y-57506958D01*
X144397210Y-57777211D01*
X144559725Y-58020432D01*
X144766568Y-58227275D01*
X144940960Y-58343800D01*
X144766568Y-58460325D01*
X144559725Y-58667168D01*
X144397210Y-58910389D01*
X144285268Y-59180642D01*
X144228200Y-59467540D01*
X144228200Y-59760060D01*
X144285268Y-60046958D01*
X144397210Y-60317211D01*
X144559725Y-60560432D01*
X144766568Y-60767275D01*
X144940960Y-60883800D01*
X144766568Y-61000325D01*
X144559725Y-61207168D01*
X144397210Y-61450389D01*
X144285268Y-61720642D01*
X144228200Y-62007540D01*
X144228200Y-62300060D01*
X144285268Y-62586958D01*
X144397210Y-62857211D01*
X144559725Y-63100432D01*
X144766568Y-63307275D01*
X144939929Y-63423111D01*
X144864408Y-63665403D01*
X145713200Y-64514195D01*
X146561992Y-63665403D01*
X146486471Y-63423111D01*
X146659832Y-63307275D01*
X146866675Y-63100432D01*
X146987414Y-62919733D01*
X147125125Y-63125832D01*
X147331968Y-63332675D01*
X147505329Y-63448511D01*
X147429808Y-63690803D01*
X148278600Y-64539595D01*
X148292743Y-64525453D01*
X148472348Y-64705058D01*
X148458205Y-64719200D01*
X148472348Y-64733343D01*
X148292743Y-64912948D01*
X148278600Y-64898805D01*
X147429808Y-65747597D01*
X147505329Y-65989889D01*
X147331968Y-66105725D01*
X147125125Y-66312568D01*
X147004386Y-66493267D01*
X146866675Y-66287168D01*
X146659832Y-66080325D01*
X146486471Y-65964489D01*
X146561992Y-65722197D01*
X145713200Y-64873405D01*
X144864408Y-65722197D01*
X144939929Y-65964489D01*
X144766568Y-66080325D01*
X144559725Y-66287168D01*
X144397210Y-66530389D01*
X144285268Y-66800642D01*
X144228200Y-67087540D01*
X144228200Y-67380060D01*
X144285268Y-67666958D01*
X144397210Y-67937211D01*
X144559725Y-68180432D01*
X144766568Y-68387275D01*
X144940960Y-68503800D01*
X144766568Y-68620325D01*
X144559725Y-68827168D01*
X144397210Y-69070389D01*
X144285268Y-69340642D01*
X144228200Y-69627540D01*
X144228200Y-69920060D01*
X144285268Y-70206958D01*
X144397210Y-70477211D01*
X144559725Y-70720432D01*
X144766568Y-70927275D01*
X144940960Y-71043800D01*
X144766568Y-71160325D01*
X144559725Y-71367168D01*
X144397210Y-71610389D01*
X144285268Y-71880642D01*
X144228200Y-72167540D01*
X144228200Y-72460060D01*
X144285268Y-72746958D01*
X144397210Y-73017211D01*
X144559725Y-73260432D01*
X144766568Y-73467275D01*
X144939929Y-73583111D01*
X144864408Y-73825403D01*
X145713200Y-74674195D01*
X146561992Y-73825403D01*
X146486471Y-73583111D01*
X146659832Y-73467275D01*
X146866675Y-73260432D01*
X146987414Y-73079733D01*
X147125125Y-73285832D01*
X147331968Y-73492675D01*
X147505329Y-73608511D01*
X147429808Y-73850803D01*
X148278600Y-74699595D01*
X148292743Y-74685453D01*
X148472348Y-74865058D01*
X148458205Y-74879200D01*
X148472348Y-74893343D01*
X148292743Y-75072948D01*
X148278600Y-75058805D01*
X147429808Y-75907597D01*
X147505329Y-76149889D01*
X147331968Y-76265725D01*
X147125125Y-76472568D01*
X147004386Y-76653267D01*
X146866675Y-76447168D01*
X146659832Y-76240325D01*
X146486471Y-76124489D01*
X146561992Y-75882197D01*
X145713200Y-75033405D01*
X144864408Y-75882197D01*
X144939929Y-76124489D01*
X144766568Y-76240325D01*
X144559725Y-76447168D01*
X144397210Y-76690389D01*
X144285268Y-76960642D01*
X144228200Y-77247540D01*
X144228200Y-77540060D01*
X144285268Y-77826958D01*
X144397210Y-78097211D01*
X144559725Y-78340432D01*
X144766568Y-78547275D01*
X145009789Y-78709790D01*
X145280042Y-78821732D01*
X145566940Y-78878800D01*
X145859460Y-78878800D01*
X146146358Y-78821732D01*
X146416611Y-78709790D01*
X146659832Y-78547275D01*
X146866675Y-78340432D01*
X146987414Y-78159733D01*
X147125125Y-78365832D01*
X147331968Y-78572675D01*
X147390269Y-78611631D01*
X147389319Y-78621281D01*
X147392531Y-78653891D01*
X146159422Y-79887000D01*
X143855000Y-79887000D01*
X143855000Y-74922331D01*
X144222589Y-74922331D01*
X144264601Y-75211819D01*
X144362281Y-75487547D01*
X144435728Y-75624957D01*
X144684803Y-75702592D01*
X145533595Y-74853800D01*
X145892805Y-74853800D01*
X146741597Y-75702592D01*
X146987997Y-75625791D01*
X147001128Y-75650357D01*
X147250203Y-75727992D01*
X148098995Y-74879200D01*
X147250203Y-74030408D01*
X147003803Y-74107209D01*
X146990672Y-74082643D01*
X146741597Y-74005008D01*
X145892805Y-74853800D01*
X145533595Y-74853800D01*
X144684803Y-74005008D01*
X144435728Y-74082643D01*
X144309829Y-74346683D01*
X144237861Y-74630211D01*
X144222589Y-74922331D01*
X143855000Y-74922331D01*
X143855000Y-64762331D01*
X144222589Y-64762331D01*
X144264601Y-65051819D01*
X144362281Y-65327547D01*
X144435728Y-65464957D01*
X144684803Y-65542592D01*
X145533595Y-64693800D01*
X145892805Y-64693800D01*
X146741597Y-65542592D01*
X146987997Y-65465791D01*
X147001128Y-65490357D01*
X147250203Y-65567992D01*
X148098995Y-64719200D01*
X147250203Y-63870408D01*
X147003803Y-63947209D01*
X146990672Y-63922643D01*
X146741597Y-63845008D01*
X145892805Y-64693800D01*
X145533595Y-64693800D01*
X144684803Y-63845008D01*
X144435728Y-63922643D01*
X144309829Y-64186683D01*
X144237861Y-64470211D01*
X144222589Y-64762331D01*
X143855000Y-64762331D01*
X143855000Y-48945948D01*
X144750121Y-48050828D01*
X144766568Y-48067275D01*
G36*
X198479600Y-24064779D02*
G01*
X198479601Y-29814640D01*
X191470649Y-29814640D01*
X191427180Y-29810359D01*
X191383711Y-29814640D01*
X191383703Y-29814640D01*
X191268486Y-29825988D01*
X191253689Y-29827445D01*
X191231323Y-29834230D01*
X191086867Y-29878051D01*
X190933121Y-29960229D01*
X190933119Y-29960230D01*
X190933120Y-29960230D01*
X190832133Y-30043108D01*
X190832131Y-30043110D01*
X190798363Y-30070823D01*
X190770650Y-30104591D01*
X189664522Y-31210720D01*
X189659496Y-31209720D01*
X189384704Y-31209720D01*
X189115193Y-31263329D01*
X188959800Y-31327695D01*
X188957646Y-31320593D01*
X188887074Y-31188564D01*
X188792101Y-31072839D01*
X188763104Y-31049042D01*
X188250100Y-30536039D01*
X188250100Y-27854198D01*
X188339113Y-27794722D01*
X188454806Y-27679029D01*
X188786436Y-27679029D01*
X188845897Y-27912797D01*
X189084342Y-28023694D01*
X189339840Y-28085943D01*
X189602573Y-28097150D01*
X189862444Y-28056885D01*
X190109466Y-27966695D01*
X190210303Y-27912797D01*
X190269764Y-27679029D01*
X189528100Y-26937365D01*
X188786436Y-27679029D01*
X188454806Y-27679029D01*
X188525062Y-27608773D01*
X188599391Y-27497531D01*
X188606831Y-27499424D01*
X189348495Y-26757760D01*
X188606831Y-26016096D01*
X188599391Y-26017989D01*
X188525062Y-25906747D01*
X188454806Y-25836491D01*
X188786436Y-25836491D01*
X189528100Y-26578155D01*
X190269764Y-25836491D01*
X190210303Y-25602723D01*
X189971858Y-25491826D01*
X189716360Y-25429577D01*
X189453627Y-25418370D01*
X189193756Y-25458635D01*
X188946734Y-25548825D01*
X188845897Y-25602723D01*
X188786436Y-25836491D01*
X188454806Y-25836491D01*
X188339113Y-25720798D01*
X188120459Y-25574699D01*
X187877505Y-25474064D01*
X187619586Y-25422760D01*
X187356614Y-25422760D01*
X187098695Y-25474064D01*
X186855741Y-25574699D01*
X186637087Y-25720798D01*
X186468100Y-25889785D01*
X186333100Y-25754785D01*
X186333100Y-25604338D01*
X186384678Y-25552760D01*
X186599586Y-25552760D01*
X186857505Y-25501456D01*
X187100459Y-25400821D01*
X187319113Y-25254722D01*
X187488100Y-25085735D01*
X187657087Y-25254722D01*
X187875741Y-25400821D01*
X188118695Y-25501456D01*
X188376614Y-25552760D01*
X188639586Y-25552760D01*
X188897505Y-25501456D01*
X189140459Y-25400821D01*
X189359113Y-25254722D01*
X189545062Y-25068773D01*
X189619391Y-24957531D01*
X189626831Y-24959424D01*
X190368495Y-24217760D01*
X189626831Y-23476096D01*
X189619391Y-23477989D01*
X189545062Y-23366747D01*
X189494514Y-23316199D01*
X189566633Y-23244080D01*
X189819767Y-23244080D01*
X189806436Y-23296491D01*
X190548100Y-24038155D01*
X190562243Y-24024013D01*
X190741848Y-24203618D01*
X190727705Y-24217760D01*
X190741848Y-24231903D01*
X190562243Y-24411508D01*
X190548100Y-24397365D01*
X189806436Y-25139029D01*
X189865897Y-25372797D01*
X190104342Y-25483694D01*
X190359840Y-25545943D01*
X190546187Y-25553892D01*
X190528951Y-25595502D01*
X190444276Y-26021189D01*
X189707705Y-26757760D01*
X190449369Y-27499424D01*
X190683137Y-27439963D01*
X190721237Y-27358042D01*
X190946644Y-27695386D01*
X191261434Y-28010176D01*
X191631589Y-28257506D01*
X192042882Y-28427869D01*
X192479509Y-28514720D01*
X192924691Y-28514720D01*
X193361318Y-28427869D01*
X193772611Y-28257506D01*
X194142766Y-28010176D01*
X194457556Y-27695386D01*
X194704886Y-27325231D01*
X194875249Y-26913938D01*
X194962100Y-26477311D01*
X194962100Y-26032129D01*
X194875249Y-25595502D01*
X194704886Y-25184209D01*
X194488759Y-24860753D01*
X194490304Y-24861785D01*
X194678662Y-24939806D01*
X194878621Y-24979580D01*
X195082499Y-24979580D01*
X195282458Y-24939806D01*
X195470816Y-24861785D01*
X195640334Y-24748517D01*
X195784497Y-24604354D01*
X195897765Y-24434836D01*
X195975786Y-24246478D01*
X196015560Y-24046519D01*
X196015560Y-23842641D01*
X195975786Y-23642682D01*
X195897765Y-23454324D01*
X195784497Y-23284806D01*
X195640334Y-23140643D01*
X195470816Y-23027375D01*
X195282458Y-22949354D01*
X195082499Y-22909580D01*
X194878621Y-22909580D01*
X194678662Y-22949354D01*
X194674689Y-22951000D01*
X194785367Y-22877047D01*
X194957387Y-22705027D01*
X195092543Y-22502752D01*
X195185640Y-22277996D01*
X195233100Y-22039397D01*
X195233100Y-21796123D01*
X195185640Y-21557524D01*
X195092543Y-21332768D01*
X194957387Y-21130493D01*
X194785367Y-20958473D01*
X194583092Y-20823317D01*
X194358336Y-20730220D01*
X194119737Y-20682760D01*
X193876463Y-20682760D01*
X193637864Y-20730220D01*
X193413108Y-20823317D01*
X193210833Y-20958473D01*
X193038813Y-21130493D01*
X192903657Y-21332768D01*
X192810560Y-21557524D01*
X192763100Y-21796123D01*
X192763100Y-22039397D01*
X192810560Y-22277996D01*
X192903657Y-22502752D01*
X193038813Y-22705027D01*
X193210833Y-22877047D01*
X193413108Y-23012203D01*
X193637864Y-23105300D01*
X193876463Y-23152760D01*
X194119737Y-23152760D01*
X194358336Y-23105300D01*
X194398708Y-23088577D01*
X194320786Y-23140643D01*
X194276849Y-23184580D01*
X193446241Y-23184580D01*
X193311708Y-23050046D01*
X193311699Y-23050036D01*
X192234743Y-21973082D01*
X192210941Y-21944079D01*
X192095216Y-21849106D01*
X191963187Y-21778534D01*
X191819926Y-21735077D01*
X191708273Y-21724080D01*
X191708262Y-21724080D01*
X191670940Y-21720404D01*
X191633618Y-21724080D01*
X189289153Y-21724080D01*
X189251830Y-21720404D01*
X189214507Y-21724080D01*
X189214498Y-21724080D01*
X189102845Y-21735077D01*
X188959584Y-21778534D01*
X188827555Y-21849106D01*
X188827553Y-21849107D01*
X188827554Y-21849107D01*
X188740827Y-21920281D01*
X188740823Y-21920285D01*
X188711830Y-21944079D01*
X188688036Y-21973072D01*
X187997097Y-22664012D01*
X187968100Y-22687810D01*
X187944302Y-22716808D01*
X187944301Y-22716809D01*
X187873126Y-22803535D01*
X187802554Y-22935565D01*
X187784500Y-22995084D01*
X187759098Y-23078825D01*
X187755533Y-23115019D01*
X187657087Y-23180798D01*
X187488100Y-23349785D01*
X187379765Y-23241450D01*
X187383701Y-23201492D01*
X187379420Y-23158026D01*
X187379420Y-19864068D01*
X194240856Y-19826034D01*
X198479600Y-24064779D01*
G37*
X198479600Y-24064779D02*
X198479601Y-29814640D01*
X191470649Y-29814640D01*
X191427180Y-29810359D01*
X191383711Y-29814640D01*
X191383703Y-29814640D01*
X191268486Y-29825988D01*
X191253689Y-29827445D01*
X191231323Y-29834230D01*
X191086867Y-29878051D01*
X190933121Y-29960229D01*
X190933119Y-29960230D01*
X190933120Y-29960230D01*
X190832133Y-30043108D01*
X190832131Y-30043110D01*
X190798363Y-30070823D01*
X190770650Y-30104591D01*
X189664522Y-31210720D01*
X189659496Y-31209720D01*
X189384704Y-31209720D01*
X189115193Y-31263329D01*
X188959800Y-31327695D01*
X188957646Y-31320593D01*
X188887074Y-31188564D01*
X188792101Y-31072839D01*
X188763104Y-31049042D01*
X188250100Y-30536039D01*
X188250100Y-27854198D01*
X188339113Y-27794722D01*
X188454806Y-27679029D01*
X188786436Y-27679029D01*
X188845897Y-27912797D01*
X189084342Y-28023694D01*
X189339840Y-28085943D01*
X189602573Y-28097150D01*
X189862444Y-28056885D01*
X190109466Y-27966695D01*
X190210303Y-27912797D01*
X190269764Y-27679029D01*
X189528100Y-26937365D01*
X188786436Y-27679029D01*
X188454806Y-27679029D01*
X188525062Y-27608773D01*
X188599391Y-27497531D01*
X188606831Y-27499424D01*
X189348495Y-26757760D01*
X188606831Y-26016096D01*
X188599391Y-26017989D01*
X188525062Y-25906747D01*
X188454806Y-25836491D01*
X188786436Y-25836491D01*
X189528100Y-26578155D01*
X190269764Y-25836491D01*
X190210303Y-25602723D01*
X189971858Y-25491826D01*
X189716360Y-25429577D01*
X189453627Y-25418370D01*
X189193756Y-25458635D01*
X188946734Y-25548825D01*
X188845897Y-25602723D01*
X188786436Y-25836491D01*
X188454806Y-25836491D01*
X188339113Y-25720798D01*
X188120459Y-25574699D01*
X187877505Y-25474064D01*
X187619586Y-25422760D01*
X187356614Y-25422760D01*
X187098695Y-25474064D01*
X186855741Y-25574699D01*
X186637087Y-25720798D01*
X186468100Y-25889785D01*
X186333100Y-25754785D01*
X186333100Y-25604338D01*
X186384678Y-25552760D01*
X186599586Y-25552760D01*
X186857505Y-25501456D01*
X187100459Y-25400821D01*
X187319113Y-25254722D01*
X187488100Y-25085735D01*
X187657087Y-25254722D01*
X187875741Y-25400821D01*
X188118695Y-25501456D01*
X188376614Y-25552760D01*
X188639586Y-25552760D01*
X188897505Y-25501456D01*
X189140459Y-25400821D01*
X189359113Y-25254722D01*
X189545062Y-25068773D01*
X189619391Y-24957531D01*
X189626831Y-24959424D01*
X190368495Y-24217760D01*
X189626831Y-23476096D01*
X189619391Y-23477989D01*
X189545062Y-23366747D01*
X189494514Y-23316199D01*
X189566633Y-23244080D01*
X189819767Y-23244080D01*
X189806436Y-23296491D01*
X190548100Y-24038155D01*
X190562243Y-24024013D01*
X190741848Y-24203618D01*
X190727705Y-24217760D01*
X190741848Y-24231903D01*
X190562243Y-24411508D01*
X190548100Y-24397365D01*
X189806436Y-25139029D01*
X189865897Y-25372797D01*
X190104342Y-25483694D01*
X190359840Y-25545943D01*
X190546187Y-25553892D01*
X190528951Y-25595502D01*
X190444276Y-26021189D01*
X189707705Y-26757760D01*
X190449369Y-27499424D01*
X190683137Y-27439963D01*
X190721237Y-27358042D01*
X190946644Y-27695386D01*
X191261434Y-28010176D01*
X191631589Y-28257506D01*
X192042882Y-28427869D01*
X192479509Y-28514720D01*
X192924691Y-28514720D01*
X193361318Y-28427869D01*
X193772611Y-28257506D01*
X194142766Y-28010176D01*
X194457556Y-27695386D01*
X194704886Y-27325231D01*
X194875249Y-26913938D01*
X194962100Y-26477311D01*
X194962100Y-26032129D01*
X194875249Y-25595502D01*
X194704886Y-25184209D01*
X194488759Y-24860753D01*
X194490304Y-24861785D01*
X194678662Y-24939806D01*
X194878621Y-24979580D01*
X195082499Y-24979580D01*
X195282458Y-24939806D01*
X195470816Y-24861785D01*
X195640334Y-24748517D01*
X195784497Y-24604354D01*
X195897765Y-24434836D01*
X195975786Y-24246478D01*
X196015560Y-24046519D01*
X196015560Y-23842641D01*
X195975786Y-23642682D01*
X195897765Y-23454324D01*
X195784497Y-23284806D01*
X195640334Y-23140643D01*
X195470816Y-23027375D01*
X195282458Y-22949354D01*
X195082499Y-22909580D01*
X194878621Y-22909580D01*
X194678662Y-22949354D01*
X194674689Y-22951000D01*
X194785367Y-22877047D01*
X194957387Y-22705027D01*
X195092543Y-22502752D01*
X195185640Y-22277996D01*
X195233100Y-22039397D01*
X195233100Y-21796123D01*
X195185640Y-21557524D01*
X195092543Y-21332768D01*
X194957387Y-21130493D01*
X194785367Y-20958473D01*
X194583092Y-20823317D01*
X194358336Y-20730220D01*
X194119737Y-20682760D01*
X193876463Y-20682760D01*
X193637864Y-20730220D01*
X193413108Y-20823317D01*
X193210833Y-20958473D01*
X193038813Y-21130493D01*
X192903657Y-21332768D01*
X192810560Y-21557524D01*
X192763100Y-21796123D01*
X192763100Y-22039397D01*
X192810560Y-22277996D01*
X192903657Y-22502752D01*
X193038813Y-22705027D01*
X193210833Y-22877047D01*
X193413108Y-23012203D01*
X193637864Y-23105300D01*
X193876463Y-23152760D01*
X194119737Y-23152760D01*
X194358336Y-23105300D01*
X194398708Y-23088577D01*
X194320786Y-23140643D01*
X194276849Y-23184580D01*
X193446241Y-23184580D01*
X193311708Y-23050046D01*
X193311699Y-23050036D01*
X192234743Y-21973082D01*
X192210941Y-21944079D01*
X192095216Y-21849106D01*
X191963187Y-21778534D01*
X191819926Y-21735077D01*
X191708273Y-21724080D01*
X191708262Y-21724080D01*
X191670940Y-21720404D01*
X191633618Y-21724080D01*
X189289153Y-21724080D01*
X189251830Y-21720404D01*
X189214507Y-21724080D01*
X189214498Y-21724080D01*
X189102845Y-21735077D01*
X188959584Y-21778534D01*
X188827555Y-21849106D01*
X188827553Y-21849107D01*
X188827554Y-21849107D01*
X188740827Y-21920281D01*
X188740823Y-21920285D01*
X188711830Y-21944079D01*
X188688036Y-21973072D01*
X187997097Y-22664012D01*
X187968100Y-22687810D01*
X187944302Y-22716808D01*
X187944301Y-22716809D01*
X187873126Y-22803535D01*
X187802554Y-22935565D01*
X187784500Y-22995084D01*
X187759098Y-23078825D01*
X187755533Y-23115019D01*
X187657087Y-23180798D01*
X187488100Y-23349785D01*
X187379765Y-23241450D01*
X187383701Y-23201492D01*
X187379420Y-23158026D01*
X187379420Y-19864068D01*
X194240856Y-19826034D01*
X198479600Y-24064779D01*
M02*
