M48
; DRILL file {KiCad (5.1.5)-3} date 14.07.2020 16:47:27
; FORMAT={-:-/ absolute / inch / decimal}
; #@! TF.CreationDate,2020-07-14T16:47:27+02:00
; #@! TF.GenerationSoftware,Kicad,Pcbnew,(5.1.5)-3
; #@! TF.FileFunction,Plated,1,2,PTH
FMAT,2
INCH
T1C0.0157
T2C0.0299
T3C0.0315
T4C0.0354
T5C0.0394
T6C0.0433
T7C0.0440
T8C0.0945
%
G90
G05
T1
X6.109Y-3.16
X6.5611Y-3.1464
T2
X6.6786Y-3.2476
X6.6786Y-3.3476
X6.6786Y-3.4476
X6.7786Y-3.1976
X6.7786Y-3.2976
X6.7786Y-3.3976
T3
X6.257Y-3.0201
X6.257Y-3.0693
X6.257Y-3.2662
X6.257Y-3.3154
X5.5061Y-3.0239
X5.5061Y-3.4239
X2.4527Y-3.6153
X2.5019Y-3.6153
X2.6988Y-3.6153
X2.748Y-3.6153
X5.6461Y-3.0239
X5.6461Y-3.4239
X5.843Y-3.5343
X5.8922Y-3.5343
X6.0891Y-3.5343
X6.1383Y-3.5343
T4
X7.0221Y-3.2426
X7.0221Y-3.3229
X7.0221Y-3.4032
X7.1221Y-3.2828
X7.1221Y-3.3631
X7.1221Y-3.4434
T5
X6.4573Y-3.2183
X6.4573Y-3.3183
X6.4573Y-3.4183
X6.4573Y-3.5183
X5.521Y-3.5529
X5.621Y-3.5529
X2.63Y-3.15
X2.63Y-3.25
X2.63Y-3.35
X2.73Y-3.15
X2.73Y-3.25
X2.73Y-3.35
X6.261Y-3.444
T6
X3.119Y-3.024
X3.119Y-3.124
X3.119Y-3.224
X3.119Y-3.324
X3.119Y-3.424
X3.119Y-3.524
X3.119Y-3.624
X3.219Y-3.024
X3.219Y-3.624
X3.319Y-3.024
X3.319Y-3.624
X3.419Y-3.024
X3.419Y-3.624
X3.519Y-3.024
X3.519Y-3.624
X3.619Y-3.024
X3.619Y-3.624
X3.719Y-3.024
X3.719Y-3.624
X3.819Y-3.024
X3.819Y-3.624
X3.919Y-3.024
X3.919Y-3.624
X4.019Y-3.024
X4.019Y-3.624
X4.119Y-3.024
X4.119Y-3.624
X4.219Y-3.024
X4.219Y-3.624
X4.319Y-3.024
X4.319Y-3.524
X4.319Y-3.624
X4.419Y-3.024
X4.419Y-3.624
T7
X5.7861Y-3.0239
X5.7861Y-3.3239
X5.8861Y-3.0239
X5.8861Y-3.3239
X5.9861Y-3.0239
X5.9861Y-3.3239
X6.0861Y-3.0239
X6.0861Y-3.3239
T8
X7.2127Y-3.1068
X7.2127Y-3.5792
T0
M30
