G04 #@! TF.GenerationSoftware,KiCad,Pcbnew,(5.1.5)-3*
G04 #@! TF.CreationDate,2020-08-25T13:18:29+02:00*
G04 #@! TF.ProjectId,DNMS,444e4d53-2e6b-4696-9361-645f70636258,0.9.0*
G04 #@! TF.SameCoordinates,Original*
G04 #@! TF.FileFunction,Copper,L1,Top*
G04 #@! TF.FilePolarity,Positive*
%FSLAX46Y46*%
G04 Gerber Fmt 4.6, Leading zero omitted, Abs format (unit mm)*
G04 Created by KiCad (PCBNEW (5.1.5)-3) date 2020-08-25 13:18:29*
%MOMM*%
%LPD*%
G04 APERTURE LIST*
%ADD10C,1.400000*%
%ADD11C,1.200000*%
%ADD12R,1.520000X1.520000*%
%ADD13C,1.520000*%
%ADD14C,1.530000*%
%ADD15C,1.524000*%
%ADD16R,1.700000X1.700000*%
%ADD17R,2.200000X0.600000*%
%ADD18C,1.600000*%
%ADD19O,1.700000X1.700000*%
%ADD20R,1.676400X1.676400*%
%ADD21C,1.676400*%
%ADD22O,1.600000X1.600000*%
%ADD23C,0.800000*%
%ADD24C,0.250000*%
%ADD25C,0.500000*%
G04 APERTURE END LIST*
D10*
X203762480Y-82748280D03*
X206302480Y-83768280D03*
X203762480Y-84788280D03*
X206302480Y-85808280D03*
X203762480Y-86828280D03*
X206302480Y-87848280D03*
D11*
X208602480Y-91298280D03*
X208602480Y-79298280D03*
D12*
X195064380Y-87988140D03*
D13*
X197604380Y-86718140D03*
X195064380Y-85448140D03*
X197604380Y-84178140D03*
X195064380Y-82908140D03*
X197604380Y-81638140D03*
D14*
X138645800Y-76809600D03*
X136105800Y-76809600D03*
X133565800Y-76809600D03*
X131025800Y-76809600D03*
X128485800Y-76809600D03*
X125945800Y-76809600D03*
X123405800Y-76809600D03*
X120865800Y-76809600D03*
X118325800Y-76809600D03*
X115785800Y-76809600D03*
X113245800Y-76809600D03*
X110705800Y-76809600D03*
X108165800Y-76809600D03*
X105625800Y-76809600D03*
X103085800Y-76809600D03*
X100545800Y-76809600D03*
X105625800Y-92049600D03*
X108165800Y-92049600D03*
X110705800Y-92049600D03*
X113245800Y-92049600D03*
X115785800Y-92049600D03*
X118325800Y-92049600D03*
X120865800Y-92049600D03*
X123405800Y-92049600D03*
X125945800Y-92049600D03*
X128485800Y-92049600D03*
X131025800Y-92049600D03*
X133565800Y-92049600D03*
X136105800Y-92049600D03*
X138645800Y-92049600D03*
X98005800Y-76809600D03*
X95465800Y-76809600D03*
X92925800Y-76809600D03*
X90385800Y-76809600D03*
X87845800Y-76809600D03*
X85305800Y-76809600D03*
X82765800Y-76809600D03*
X80225800Y-76809600D03*
X103085800Y-92049600D03*
X100545800Y-92049600D03*
X98005800Y-92049600D03*
X80225800Y-92049600D03*
X82765800Y-92049600D03*
X85305800Y-92049600D03*
X87845800Y-92049600D03*
X90385800Y-92049600D03*
X92925800Y-92049600D03*
X95465800Y-92049600D03*
D15*
X136105800Y-89509600D03*
D16*
X184429400Y-87477600D03*
D17*
X178749000Y-82473800D03*
X178749000Y-81203800D03*
X178749000Y-78663800D03*
X173549000Y-82473800D03*
X173549000Y-81203800D03*
X173549000Y-78663800D03*
X178749000Y-79933800D03*
X173549000Y-79933800D03*
D18*
X180062200Y-91770200D03*
X175062200Y-91770200D03*
X173812200Y-91770200D03*
X181312200Y-91770200D03*
X184327800Y-76960400D03*
X184327800Y-81960400D03*
X184327800Y-83210400D03*
X184327800Y-75710400D03*
X63549200Y-90227400D03*
X68549200Y-90227400D03*
X69799200Y-90227400D03*
X62299200Y-90227400D03*
D19*
X69342000Y-85090000D03*
X66802000Y-85090000D03*
X69342000Y-82550000D03*
X66802000Y-82550000D03*
X69342000Y-80010000D03*
D16*
X66802000Y-80010000D03*
D19*
X189414400Y-91363800D03*
X189414400Y-88823800D03*
X189414400Y-86283800D03*
D16*
X189414400Y-83743800D03*
D19*
X165588400Y-91744800D03*
D16*
X168128400Y-91744800D03*
D20*
X179986000Y-76808000D03*
D21*
X177446000Y-76808000D03*
X174906000Y-76808000D03*
X172366000Y-76808000D03*
X172366000Y-84428000D03*
X174906000Y-84428000D03*
X177446000Y-84428000D03*
X179986000Y-84428000D03*
D22*
X165254000Y-76808000D03*
D18*
X165254000Y-86968000D03*
D22*
X168810000Y-76808000D03*
D18*
X168810000Y-86968000D03*
D23*
X103073200Y-80619600D03*
X180568600Y-80264000D03*
X190189400Y-80289400D03*
D24*
X171180607Y-76808000D02*
X170230800Y-77757807D01*
X172366000Y-76808000D02*
X171180607Y-76808000D01*
X170230800Y-77757807D02*
X170230800Y-82473800D01*
X170230800Y-82473800D02*
X173549000Y-82473800D01*
D25*
X103085800Y-92113200D02*
X103085800Y-92049600D01*
X65046790Y-93724990D02*
X65760600Y-93724990D01*
X63549200Y-92227400D02*
X65046790Y-93724990D01*
X103085800Y-92176600D02*
X101549200Y-93713200D01*
X85675010Y-93724990D02*
X65046790Y-93724990D01*
X101485800Y-93726000D02*
X85750400Y-93726000D01*
X204782480Y-87848280D02*
X206302480Y-87848280D01*
X203762480Y-86828280D02*
X204782480Y-87848280D01*
X192051940Y-92758260D02*
X192051940Y-86951820D01*
X181312200Y-91770200D02*
X182112199Y-92570199D01*
X191383920Y-86283800D02*
X189414400Y-86283800D01*
X185059320Y-93616780D02*
X191193420Y-93616780D01*
X184012739Y-92570199D02*
X185059320Y-93616780D01*
X182112199Y-92570199D02*
X184012739Y-92570199D01*
X191193420Y-93616780D02*
X192051940Y-92758260D01*
X196334380Y-81638140D02*
X195064380Y-82908140D01*
X197604380Y-81638140D02*
X196334380Y-81638140D01*
X191193420Y-93616780D02*
X194922140Y-93616780D01*
X201710640Y-86828280D02*
X203762480Y-86828280D01*
X194922140Y-93616780D02*
X201710640Y-86828280D01*
X195064380Y-82908140D02*
X194304381Y-83668139D01*
X194218021Y-83668139D02*
X191493140Y-86393020D01*
X194304381Y-83668139D02*
X194218021Y-83668139D01*
X192051940Y-86951820D02*
X191493140Y-86393020D01*
X191493140Y-86393020D02*
X191383920Y-86283800D01*
X63549200Y-92227400D02*
X63549200Y-90227400D01*
X177446000Y-86968000D02*
X179986000Y-84428000D01*
X168810000Y-86968000D02*
X177446000Y-86968000D01*
X183110200Y-84428000D02*
X184327800Y-83210400D01*
X179986000Y-84428000D02*
X183110200Y-84428000D01*
X181031200Y-78663800D02*
X178749000Y-78663800D01*
X184327800Y-81960400D02*
X181031200Y-78663800D01*
X184327800Y-87376000D02*
X184429400Y-87477600D01*
X184327800Y-83210400D02*
X184327800Y-87376000D01*
X103073200Y-80619600D02*
X127660400Y-80619600D01*
X133565800Y-86525000D02*
X133565800Y-92049600D01*
X127660400Y-80619600D02*
X133565800Y-86525000D01*
X184327800Y-81960400D02*
X184327800Y-83210400D01*
X139209317Y-93694990D02*
X163183010Y-93694990D01*
X138645800Y-93131473D02*
X139209317Y-93694990D01*
X138645800Y-92049600D02*
X138645800Y-93131473D01*
X168153800Y-91770200D02*
X168128400Y-91744800D01*
X173812200Y-91770200D02*
X168153800Y-91770200D01*
X168128400Y-91744800D02*
X168128400Y-93094800D01*
X167498210Y-93724990D02*
X162737800Y-93724990D01*
X168128400Y-93094800D02*
X167498210Y-93724990D01*
X173812200Y-91770200D02*
X175062200Y-91770200D01*
D24*
X180099000Y-79933800D02*
X180670200Y-80505000D01*
X178749000Y-79933800D02*
X180099000Y-79933800D01*
X178609201Y-83264799D02*
X178284199Y-83589801D01*
X179943003Y-83264799D02*
X178609201Y-83264799D01*
X180670200Y-82537602D02*
X179943003Y-83264799D01*
X178284199Y-83589801D02*
X177446000Y-84428000D01*
X180670200Y-80505000D02*
X180670200Y-80505000D01*
X180670200Y-80505000D02*
X180670200Y-80505000D01*
X180670200Y-80505000D02*
X180670200Y-82537602D01*
X190189400Y-80289400D02*
X199903080Y-80289400D01*
X199903080Y-80289400D02*
X199936100Y-80322420D01*
X199936100Y-81846420D02*
X197604380Y-84178140D01*
X199936100Y-80322420D02*
X199936100Y-81846420D01*
X207843660Y-85808280D02*
X206302480Y-85808280D01*
X208678780Y-82961480D02*
X208678780Y-84973160D01*
X206667100Y-80949800D02*
X208678780Y-82961480D01*
X199936100Y-79169260D02*
X201884280Y-77221080D01*
X201884280Y-77221080D02*
X205940660Y-77221080D01*
X206667100Y-77947520D02*
X206667100Y-80949800D01*
X208678780Y-84973160D02*
X207843660Y-85808280D01*
X199936100Y-80322420D02*
X199936100Y-79169260D01*
X205940660Y-77221080D02*
X206667100Y-77947520D01*
X174899000Y-79933800D02*
X173549000Y-79933800D01*
X176607801Y-78224999D02*
X174899000Y-79933800D01*
X176607801Y-77646199D02*
X176607801Y-78224999D01*
X177446000Y-76808000D02*
X176607801Y-77646199D01*
X203102620Y-85448140D02*
X203762480Y-84788280D01*
X195064380Y-85448140D02*
X203102620Y-85448140D01*
X165254000Y-84377200D02*
X165254000Y-76808000D01*
X165814400Y-84937600D02*
X165254000Y-84377200D01*
X174906000Y-85613393D02*
X174667393Y-85852000D01*
X174906000Y-84428000D02*
X174906000Y-85613393D01*
X170129200Y-84937600D02*
X165814400Y-84937600D01*
X174667393Y-85852000D02*
X171043600Y-85852000D01*
X171043600Y-85852000D02*
X170129200Y-84937600D01*
X174906000Y-83242607D02*
X176944807Y-81203800D01*
X177399000Y-81203800D02*
X178749000Y-81203800D01*
X176944807Y-81203800D02*
X177399000Y-81203800D01*
X174906000Y-84428000D02*
X174906000Y-83242607D01*
X169609999Y-76008001D02*
X169609999Y-75982601D01*
X168810000Y-76808000D02*
X169609999Y-76008001D01*
X174906000Y-75622607D02*
X174906000Y-76808000D01*
X174543593Y-75260200D02*
X174906000Y-75622607D01*
X169559199Y-76033401D02*
X170332400Y-75260200D01*
X170332400Y-75260200D02*
X174543593Y-75260200D01*
X187072009Y-88818209D02*
X187077600Y-88823800D01*
X187077600Y-88823800D02*
X189414400Y-88823800D01*
X175395407Y-75133200D02*
X182143400Y-75133200D01*
X174906000Y-75622607D02*
X175395407Y-75133200D01*
X182143400Y-75133200D02*
X182143400Y-78054200D01*
X182143400Y-78054200D02*
X184251600Y-80162400D01*
X173742799Y-77971201D02*
X171609199Y-77971201D01*
X174906000Y-76808000D02*
X173742799Y-77971201D01*
X171609199Y-77971201D02*
X171018200Y-78562200D01*
X171018200Y-78562200D02*
X171018200Y-81178400D01*
X171043600Y-81203800D02*
X173549000Y-81203800D01*
X171018200Y-81178400D02*
X171043600Y-81203800D01*
X185427620Y-80162400D02*
X187037980Y-81772760D01*
X184251600Y-80162400D02*
X185427620Y-80162400D01*
X187037980Y-88784180D02*
X187077600Y-88823800D01*
X187037980Y-81772760D02*
X187037980Y-88784180D01*
X66802000Y-85090000D02*
X66802000Y-86893400D01*
X66802000Y-86893400D02*
X66852800Y-86842600D01*
X100418800Y-86842600D02*
X105625800Y-92049600D01*
X66852800Y-86842600D02*
X100418800Y-86842600D01*
X66802000Y-82550000D02*
X66878200Y-82550000D01*
X122770800Y-83794600D02*
X131025800Y-92049600D01*
X66802000Y-82550000D02*
X68046600Y-83794600D01*
X68046600Y-83794600D02*
X122770800Y-83794600D01*
X69342000Y-82550000D02*
X84582000Y-82550000D01*
X84582000Y-82550000D02*
X88239600Y-78892400D01*
X111163000Y-78892400D02*
X113245800Y-76809600D01*
X88239600Y-78892400D02*
X111163000Y-78892400D01*
D25*
X140436600Y-89509600D02*
X136105800Y-89509600D01*
X143521799Y-92594799D02*
X140436600Y-89509600D01*
X164738401Y-92594799D02*
X143521799Y-92594799D01*
X165588400Y-91744800D02*
X164738401Y-92594799D01*
M02*
