G04 #@! TF.GenerationSoftware,KiCad,Pcbnew,(5.1.5)-3*
G04 #@! TF.CreationDate,2020-08-25T13:18:29+02:00*
G04 #@! TF.ProjectId,DNMS,444e4d53-2e6b-4696-9361-645f70636258,0.9.0*
G04 #@! TF.SameCoordinates,Original*
G04 #@! TF.FileFunction,Legend,Top*
G04 #@! TF.FilePolarity,Positive*
%FSLAX46Y46*%
G04 Gerber Fmt 4.6, Leading zero omitted, Abs format (unit mm)*
G04 Created by KiCad (PCBNEW (5.1.5)-3) date 2020-08-25 13:18:29*
%MOMM*%
%LPD*%
G04 APERTURE LIST*
%ADD10C,0.150000*%
%ADD11C,0.200000*%
%ADD12C,0.100000*%
%ADD13C,0.300000*%
%ADD14C,0.750000*%
%ADD15C,0.120000*%
%ADD16C,0.127000*%
%ADD17C,0.152400*%
%ADD18C,0.010000*%
%ADD19C,0.015000*%
G04 APERTURE END LIST*
D10*
X196781230Y-93566240D02*
X196447897Y-93090050D01*
X196209801Y-93566240D02*
X196209801Y-92566240D01*
X196590754Y-92566240D01*
X196685992Y-92613860D01*
X196733611Y-92661479D01*
X196781230Y-92756717D01*
X196781230Y-92899574D01*
X196733611Y-92994812D01*
X196685992Y-93042431D01*
X196590754Y-93090050D01*
X196209801Y-93090050D01*
X197495516Y-92566240D02*
X197495516Y-93280526D01*
X197447897Y-93423383D01*
X197352659Y-93518621D01*
X197209801Y-93566240D01*
X197114563Y-93566240D01*
X198495516Y-93566240D02*
X197924087Y-93566240D01*
X198209801Y-93566240D02*
X198209801Y-92566240D01*
X198114563Y-92709098D01*
X198019325Y-92804336D01*
X197924087Y-92851955D01*
X198876468Y-92661479D02*
X198924087Y-92613860D01*
X199019325Y-92566240D01*
X199257420Y-92566240D01*
X199352659Y-92613860D01*
X199400278Y-92661479D01*
X199447897Y-92756717D01*
X199447897Y-92851955D01*
X199400278Y-92994812D01*
X198828849Y-93566240D01*
X199447897Y-93566240D01*
D11*
X138198361Y-89876380D02*
X138531695Y-90876380D01*
X138865028Y-89876380D01*
X139198361Y-90876380D02*
X139198361Y-89876380D01*
X139674552Y-90876380D02*
X139674552Y-89876380D01*
X140245980Y-90876380D01*
X140245980Y-89876380D01*
X137972895Y-78189200D02*
X137877657Y-78141580D01*
X137734800Y-78141580D01*
X137591942Y-78189200D01*
X137496704Y-78284438D01*
X137449085Y-78379676D01*
X137401466Y-78570152D01*
X137401466Y-78713009D01*
X137449085Y-78903485D01*
X137496704Y-78998723D01*
X137591942Y-79093961D01*
X137734800Y-79141580D01*
X137830038Y-79141580D01*
X137972895Y-79093961D01*
X138020514Y-79046342D01*
X138020514Y-78713009D01*
X137830038Y-78713009D01*
X138449085Y-79141580D02*
X138449085Y-78141580D01*
X139020514Y-79141580D01*
X139020514Y-78141580D01*
X139496704Y-79141580D02*
X139496704Y-78141580D01*
X139734800Y-78141580D01*
X139877657Y-78189200D01*
X139972895Y-78284438D01*
X140020514Y-78379676D01*
X140068133Y-78570152D01*
X140068133Y-78713009D01*
X140020514Y-78903485D01*
X139972895Y-78998723D01*
X139877657Y-79093961D01*
X139734800Y-79141580D01*
X139496704Y-79141580D01*
D10*
X181946514Y-76322180D02*
X181375085Y-76322180D01*
X181660800Y-76322180D02*
X181660800Y-75322180D01*
X181565561Y-75465038D01*
X181470323Y-75560276D01*
X181375085Y-75607895D01*
X171200819Y-79051114D02*
X171200819Y-78479685D01*
X171200819Y-78765400D02*
X172200819Y-78765400D01*
X172057961Y-78670161D01*
X171962723Y-78574923D01*
X171915104Y-78479685D01*
D12*
X179565476Y-87788742D02*
X180175000Y-87788742D01*
X179870238Y-88093504D02*
X179870238Y-87483980D01*
X180479761Y-87293504D02*
X180975000Y-87293504D01*
X180708333Y-87598266D01*
X180822619Y-87598266D01*
X180898809Y-87636361D01*
X180936904Y-87674457D01*
X180975000Y-87750647D01*
X180975000Y-87941123D01*
X180936904Y-88017314D01*
X180898809Y-88055409D01*
X180822619Y-88093504D01*
X180594047Y-88093504D01*
X180517857Y-88055409D01*
X180479761Y-88017314D01*
X181203571Y-87293504D02*
X181470238Y-88093504D01*
X181736904Y-87293504D01*
X181927380Y-87293504D02*
X182422619Y-87293504D01*
X182155952Y-87598266D01*
X182270238Y-87598266D01*
X182346428Y-87636361D01*
X182384523Y-87674457D01*
X182422619Y-87750647D01*
X182422619Y-87941123D01*
X182384523Y-88017314D01*
X182346428Y-88055409D01*
X182270238Y-88093504D01*
X182041666Y-88093504D01*
X181965476Y-88055409D01*
X181927380Y-88017314D01*
X62953971Y-80371904D02*
X62573019Y-80371904D01*
X62573019Y-79571904D01*
X63792066Y-79533809D02*
X63106352Y-80562380D01*
X64515876Y-80371904D02*
X64249209Y-79990952D01*
X64058733Y-80371904D02*
X64058733Y-79571904D01*
X64363495Y-79571904D01*
X64439685Y-79610000D01*
X64477780Y-79648095D01*
X64515876Y-79724285D01*
X64515876Y-79838571D01*
X64477780Y-79914761D01*
X64439685Y-79952857D01*
X64363495Y-79990952D01*
X64058733Y-79990952D01*
X63233390Y-82315104D02*
X63423866Y-83115104D01*
X63576247Y-82543676D01*
X63728628Y-83115104D01*
X63919104Y-82315104D01*
X64185771Y-83077009D02*
X64300057Y-83115104D01*
X64490533Y-83115104D01*
X64566723Y-83077009D01*
X64604819Y-83038914D01*
X64642914Y-82962723D01*
X64642914Y-82886533D01*
X64604819Y-82810342D01*
X64566723Y-82772247D01*
X64490533Y-82734152D01*
X64338152Y-82696057D01*
X64261961Y-82657961D01*
X64223866Y-82619866D01*
X64185771Y-82543676D01*
X64185771Y-82467485D01*
X64223866Y-82391295D01*
X64261961Y-82353200D01*
X64338152Y-82315104D01*
X64528628Y-82315104D01*
X64642914Y-82353200D01*
X63455628Y-85617009D02*
X63569914Y-85655104D01*
X63760390Y-85655104D01*
X63836580Y-85617009D01*
X63874676Y-85578914D01*
X63912771Y-85502723D01*
X63912771Y-85426533D01*
X63874676Y-85350342D01*
X63836580Y-85312247D01*
X63760390Y-85274152D01*
X63608009Y-85236057D01*
X63531819Y-85197961D01*
X63493723Y-85159866D01*
X63455628Y-85083676D01*
X63455628Y-85007485D01*
X63493723Y-84931295D01*
X63531819Y-84893200D01*
X63608009Y-84855104D01*
X63798485Y-84855104D01*
X63912771Y-84893200D01*
X64255628Y-85655104D02*
X64255628Y-84855104D01*
X64446104Y-84855104D01*
X64560390Y-84893200D01*
X64636580Y-84969390D01*
X64674676Y-85045580D01*
X64712771Y-85197961D01*
X64712771Y-85312247D01*
X64674676Y-85464628D01*
X64636580Y-85540819D01*
X64560390Y-85617009D01*
X64446104Y-85655104D01*
X64255628Y-85655104D01*
D13*
X142029514Y-82084171D02*
X142886657Y-82084171D01*
X142458085Y-83584171D02*
X142458085Y-82084171D01*
X143243800Y-82084171D02*
X144172371Y-82084171D01*
X143672371Y-82655600D01*
X143886657Y-82655600D01*
X144029514Y-82727028D01*
X144100942Y-82798457D01*
X144172371Y-82941314D01*
X144172371Y-83298457D01*
X144100942Y-83441314D01*
X144029514Y-83512742D01*
X143886657Y-83584171D01*
X143458085Y-83584171D01*
X143315228Y-83512742D01*
X143243800Y-83441314D01*
X144815228Y-83441314D02*
X144886657Y-83512742D01*
X144815228Y-83584171D01*
X144743800Y-83512742D01*
X144815228Y-83441314D01*
X144815228Y-83584171D01*
X146172371Y-82084171D02*
X145886657Y-82084171D01*
X145743800Y-82155600D01*
X145672371Y-82227028D01*
X145529514Y-82441314D01*
X145458085Y-82727028D01*
X145458085Y-83298457D01*
X145529514Y-83441314D01*
X145600942Y-83512742D01*
X145743800Y-83584171D01*
X146029514Y-83584171D01*
X146172371Y-83512742D01*
X146243800Y-83441314D01*
X146315228Y-83298457D01*
X146315228Y-82941314D01*
X146243800Y-82798457D01*
X146172371Y-82727028D01*
X146029514Y-82655600D01*
X145743800Y-82655600D01*
X145600942Y-82727028D01*
X145529514Y-82798457D01*
X145458085Y-82941314D01*
X147886657Y-82084171D02*
X148386657Y-83584171D01*
X148886657Y-82084171D01*
X150172371Y-83584171D02*
X149315228Y-83584171D01*
X149743800Y-83584171D02*
X149743800Y-82084171D01*
X149600942Y-82298457D01*
X149458085Y-82441314D01*
X149315228Y-82512742D01*
X150815228Y-83441314D02*
X150886657Y-83512742D01*
X150815228Y-83584171D01*
X150743800Y-83512742D01*
X150815228Y-83441314D01*
X150815228Y-83584171D01*
X152172371Y-82584171D02*
X152172371Y-83584171D01*
X151815228Y-82012742D02*
X151458085Y-83084171D01*
X152386657Y-83084171D01*
D12*
X71450323Y-84728104D02*
X71945561Y-84728104D01*
X71678895Y-85032866D01*
X71793180Y-85032866D01*
X71869371Y-85070961D01*
X71907466Y-85109057D01*
X71945561Y-85185247D01*
X71945561Y-85375723D01*
X71907466Y-85451914D01*
X71869371Y-85490009D01*
X71793180Y-85528104D01*
X71564609Y-85528104D01*
X71488419Y-85490009D01*
X71450323Y-85451914D01*
X72174133Y-84728104D02*
X72440800Y-85528104D01*
X72707466Y-84728104D01*
X72897942Y-84728104D02*
X73393180Y-84728104D01*
X73126514Y-85032866D01*
X73240800Y-85032866D01*
X73316990Y-85070961D01*
X73355085Y-85109057D01*
X73393180Y-85185247D01*
X73393180Y-85375723D01*
X73355085Y-85451914D01*
X73316990Y-85490009D01*
X73240800Y-85528104D01*
X73012228Y-85528104D01*
X72936038Y-85490009D01*
X72897942Y-85451914D01*
X71336028Y-83000809D02*
X71450314Y-83038904D01*
X71640790Y-83038904D01*
X71716980Y-83000809D01*
X71755076Y-82962714D01*
X71793171Y-82886523D01*
X71793171Y-82810333D01*
X71755076Y-82734142D01*
X71716980Y-82696047D01*
X71640790Y-82657952D01*
X71488409Y-82619857D01*
X71412219Y-82581761D01*
X71374123Y-82543666D01*
X71336028Y-82467476D01*
X71336028Y-82391285D01*
X71374123Y-82315095D01*
X71412219Y-82277000D01*
X71488409Y-82238904D01*
X71678885Y-82238904D01*
X71793171Y-82277000D01*
X72593171Y-82962714D02*
X72555076Y-83000809D01*
X72440790Y-83038904D01*
X72364600Y-83038904D01*
X72250314Y-83000809D01*
X72174123Y-82924619D01*
X72136028Y-82848428D01*
X72097933Y-82696047D01*
X72097933Y-82581761D01*
X72136028Y-82429380D01*
X72174123Y-82353190D01*
X72250314Y-82277000D01*
X72364600Y-82238904D01*
X72440790Y-82238904D01*
X72555076Y-82277000D01*
X72593171Y-82315095D01*
X72936028Y-83038904D02*
X72936028Y-82238904D01*
X73393171Y-83038904D02*
X73050314Y-82581761D01*
X73393171Y-82238904D02*
X72936028Y-82696047D01*
X71856676Y-79711600D02*
X71780485Y-79673504D01*
X71666200Y-79673504D01*
X71551914Y-79711600D01*
X71475723Y-79787790D01*
X71437628Y-79863980D01*
X71399533Y-80016361D01*
X71399533Y-80130647D01*
X71437628Y-80283028D01*
X71475723Y-80359219D01*
X71551914Y-80435409D01*
X71666200Y-80473504D01*
X71742390Y-80473504D01*
X71856676Y-80435409D01*
X71894771Y-80397314D01*
X71894771Y-80130647D01*
X71742390Y-80130647D01*
X72237628Y-80473504D02*
X72237628Y-79673504D01*
X72694771Y-80473504D01*
X72694771Y-79673504D01*
X73075723Y-80473504D02*
X73075723Y-79673504D01*
X73266200Y-79673504D01*
X73380485Y-79711600D01*
X73456676Y-79787790D01*
X73494771Y-79863980D01*
X73532866Y-80016361D01*
X73532866Y-80130647D01*
X73494771Y-80283028D01*
X73456676Y-80359219D01*
X73380485Y-80435409D01*
X73266200Y-80473504D01*
X73075723Y-80473504D01*
X190996691Y-91654589D02*
X191110977Y-91692684D01*
X191301453Y-91692684D01*
X191377643Y-91654589D01*
X191415739Y-91616494D01*
X191453834Y-91540303D01*
X191453834Y-91464113D01*
X191415739Y-91387922D01*
X191377643Y-91349827D01*
X191301453Y-91311732D01*
X191149072Y-91273637D01*
X191072881Y-91235541D01*
X191034786Y-91197446D01*
X190996691Y-91121256D01*
X190996691Y-91045065D01*
X191034786Y-90968875D01*
X191072881Y-90930780D01*
X191149072Y-90892684D01*
X191339548Y-90892684D01*
X191453834Y-90930780D01*
X191796691Y-91692684D02*
X191796691Y-90892684D01*
X191987167Y-90892684D01*
X192101453Y-90930780D01*
X192177643Y-91006970D01*
X192215739Y-91083160D01*
X192253834Y-91235541D01*
X192253834Y-91349827D01*
X192215739Y-91502208D01*
X192177643Y-91578399D01*
X192101453Y-91654589D01*
X191987167Y-91692684D01*
X191796691Y-91692684D01*
X192558596Y-91464113D02*
X192939548Y-91464113D01*
X192482405Y-91692684D02*
X192749072Y-90892684D01*
X193015739Y-91692684D01*
X191066539Y-89066329D02*
X191180824Y-89104424D01*
X191371300Y-89104424D01*
X191447491Y-89066329D01*
X191485586Y-89028234D01*
X191523681Y-88952043D01*
X191523681Y-88875853D01*
X191485586Y-88799662D01*
X191447491Y-88761567D01*
X191371300Y-88723472D01*
X191218920Y-88685377D01*
X191142729Y-88647281D01*
X191104634Y-88609186D01*
X191066539Y-88532996D01*
X191066539Y-88456805D01*
X191104634Y-88380615D01*
X191142729Y-88342520D01*
X191218920Y-88304424D01*
X191409396Y-88304424D01*
X191523681Y-88342520D01*
X192323681Y-89028234D02*
X192285586Y-89066329D01*
X192171300Y-89104424D01*
X192095110Y-89104424D01*
X191980824Y-89066329D01*
X191904634Y-88990139D01*
X191866539Y-88913948D01*
X191828443Y-88761567D01*
X191828443Y-88647281D01*
X191866539Y-88494900D01*
X191904634Y-88418710D01*
X191980824Y-88342520D01*
X192095110Y-88304424D01*
X192171300Y-88304424D01*
X192285586Y-88342520D01*
X192323681Y-88380615D01*
X193047491Y-89104424D02*
X192666539Y-89104424D01*
X192666539Y-88304424D01*
X191510996Y-85906660D02*
X191434805Y-85868564D01*
X191320520Y-85868564D01*
X191206234Y-85906660D01*
X191130043Y-85982850D01*
X191091948Y-86059040D01*
X191053853Y-86211421D01*
X191053853Y-86325707D01*
X191091948Y-86478088D01*
X191130043Y-86554279D01*
X191206234Y-86630469D01*
X191320520Y-86668564D01*
X191396710Y-86668564D01*
X191510996Y-86630469D01*
X191549091Y-86592374D01*
X191549091Y-86325707D01*
X191396710Y-86325707D01*
X191891948Y-86668564D02*
X191891948Y-85868564D01*
X192349091Y-86668564D01*
X192349091Y-85868564D01*
X192730043Y-86668564D02*
X192730043Y-85868564D01*
X192920520Y-85868564D01*
X193034805Y-85906660D01*
X193110996Y-85982850D01*
X193149091Y-86059040D01*
X193187186Y-86211421D01*
X193187186Y-86325707D01*
X193149091Y-86478088D01*
X193110996Y-86554279D01*
X193034805Y-86630469D01*
X192920520Y-86668564D01*
X192730043Y-86668564D01*
X190736348Y-83927942D02*
X191345872Y-83927942D01*
X191041110Y-84232704D02*
X191041110Y-83623180D01*
X192107777Y-83432704D02*
X191726824Y-83432704D01*
X191688729Y-83813657D01*
X191726824Y-83775561D01*
X191803015Y-83737466D01*
X191993491Y-83737466D01*
X192069681Y-83775561D01*
X192107777Y-83813657D01*
X192145872Y-83889847D01*
X192145872Y-84080323D01*
X192107777Y-84156514D01*
X192069681Y-84194609D01*
X191993491Y-84232704D01*
X191803015Y-84232704D01*
X191726824Y-84194609D01*
X191688729Y-84156514D01*
X192374443Y-83432704D02*
X192641110Y-84232704D01*
X192907777Y-83432704D01*
D14*
X141815466Y-80066923D02*
X141815466Y-76066923D01*
X142767847Y-76066923D01*
X143339276Y-76257400D01*
X143720228Y-76638352D01*
X143910704Y-77019304D01*
X144101180Y-77781209D01*
X144101180Y-78352638D01*
X143910704Y-79114542D01*
X143720228Y-79495495D01*
X143339276Y-79876447D01*
X142767847Y-80066923D01*
X141815466Y-80066923D01*
X145815466Y-80066923D02*
X145815466Y-76066923D01*
X148101180Y-80066923D01*
X148101180Y-76066923D01*
X150005942Y-80066923D02*
X150005942Y-76066923D01*
X151339276Y-78924066D01*
X152672609Y-76066923D01*
X152672609Y-80066923D01*
X154386895Y-79876447D02*
X154958323Y-80066923D01*
X155910704Y-80066923D01*
X156291657Y-79876447D01*
X156482133Y-79685971D01*
X156672609Y-79305019D01*
X156672609Y-78924066D01*
X156482133Y-78543114D01*
X156291657Y-78352638D01*
X155910704Y-78162161D01*
X155148800Y-77971685D01*
X154767847Y-77781209D01*
X154577371Y-77590733D01*
X154386895Y-77209780D01*
X154386895Y-76828828D01*
X154577371Y-76447876D01*
X154767847Y-76257400D01*
X155148800Y-76066923D01*
X156101180Y-76066923D01*
X156672609Y-76257400D01*
D12*
X206602480Y-91298280D02*
X201602480Y-91298280D01*
X201602480Y-91298280D02*
X201602480Y-79298280D01*
X201602480Y-79298280D02*
X206602480Y-79298280D01*
X210602480Y-91298280D02*
X214602480Y-91298280D01*
X214602480Y-91298280D02*
X214602480Y-79298280D01*
X214602480Y-79298280D02*
X210602480Y-79298280D01*
D11*
X201102480Y-82798280D02*
X201102480Y-82798280D01*
X201102480Y-82598280D02*
X201102480Y-82598280D01*
X201102480Y-82598280D02*
G75*
G03X201102480Y-82798280I0J-100000D01*
G01*
X201102480Y-82798280D02*
G75*
G03X201102480Y-82598280I0J100000D01*
G01*
D15*
X193834380Y-91418140D02*
X193834380Y-78218140D01*
X193834380Y-78218140D02*
X202854380Y-78218140D01*
D12*
X211714380Y-78218140D02*
X211834380Y-78218140D01*
D15*
X211834380Y-78218140D02*
X205054380Y-78218140D01*
D12*
X211824380Y-78218140D02*
X211834380Y-78218140D01*
D15*
X211834380Y-78218140D02*
X211834380Y-91418140D01*
X211834380Y-91418140D02*
X205054380Y-91418140D01*
D12*
X202784380Y-91418140D02*
X202854380Y-91418140D01*
D15*
X202854380Y-91418140D02*
X193834380Y-91418140D01*
X195834380Y-91888140D02*
X194304380Y-91888140D01*
D16*
X140585800Y-75429600D02*
X78285800Y-75429600D01*
X78285800Y-75429600D02*
X78285800Y-93429600D01*
X78285800Y-93429600D02*
X140585800Y-93429600D01*
X140585800Y-93429600D02*
X140585800Y-75429600D01*
D17*
X140535800Y-80929600D02*
X137835800Y-80929600D01*
X137835800Y-80929600D02*
X137835800Y-87929600D01*
X137835800Y-87929600D02*
X140535800Y-87929600D01*
D15*
X183099400Y-86147600D02*
X184429400Y-86147600D01*
X183099400Y-87477600D02*
X183099400Y-86147600D01*
X183099400Y-88747600D02*
X185759400Y-88747600D01*
X185759400Y-88747600D02*
X185759400Y-88807600D01*
X183099400Y-88747600D02*
X183099400Y-88807600D01*
X183099400Y-88807600D02*
X185759400Y-88807600D01*
X172942200Y-90650200D02*
X182182200Y-90650200D01*
X172942200Y-92890200D02*
X182182200Y-92890200D01*
X172942200Y-90650200D02*
X172942200Y-91105200D01*
X172942200Y-92435200D02*
X172942200Y-92890200D01*
X182182200Y-90650200D02*
X182182200Y-91105200D01*
X182182200Y-92435200D02*
X182182200Y-92890200D01*
X183207800Y-84080400D02*
X183207800Y-74840400D01*
X185447800Y-84080400D02*
X185447800Y-74840400D01*
X183207800Y-84080400D02*
X183662800Y-84080400D01*
X184992800Y-84080400D02*
X185447800Y-84080400D01*
X183207800Y-74840400D02*
X183662800Y-74840400D01*
X184992800Y-74840400D02*
X185447800Y-74840400D01*
X70669200Y-91347400D02*
X61429200Y-91347400D01*
X70669200Y-89107400D02*
X61429200Y-89107400D01*
X70669200Y-91347400D02*
X70669200Y-90892400D01*
X70669200Y-89562400D02*
X70669200Y-89107400D01*
X61429200Y-91347400D02*
X61429200Y-90892400D01*
X61429200Y-89562400D02*
X61429200Y-89107400D01*
X65472000Y-78680000D02*
X66802000Y-78680000D01*
X65472000Y-80010000D02*
X65472000Y-78680000D01*
X68072000Y-78680000D02*
X70672000Y-78680000D01*
X68072000Y-81280000D02*
X68072000Y-78680000D01*
X65472000Y-81280000D02*
X68072000Y-81280000D01*
X70672000Y-78680000D02*
X70672000Y-86420000D01*
X65472000Y-81280000D02*
X65472000Y-86420000D01*
X65472000Y-86420000D02*
X70672000Y-86420000D01*
D18*
G36*
X150645429Y-88633740D02*
G01*
X150761483Y-88672012D01*
X150987414Y-88780127D01*
X151167540Y-88919529D01*
X151316516Y-89102100D01*
X151343053Y-89143528D01*
X151377482Y-89210671D01*
X151400380Y-89289588D01*
X151414816Y-89396584D01*
X151423860Y-89547968D01*
X151425086Y-89579396D01*
X151427066Y-89782801D01*
X151413032Y-89940347D01*
X151378765Y-90068572D01*
X151320047Y-90184011D01*
X151244085Y-90289050D01*
X151163277Y-90386765D01*
X151096138Y-90454704D01*
X151021535Y-90510392D01*
X150918334Y-90571355D01*
X150874425Y-90595604D01*
X150806744Y-90630562D01*
X150743835Y-90655035D01*
X150671966Y-90671211D01*
X150577406Y-90681276D01*
X150446426Y-90687419D01*
X150271175Y-90691707D01*
X150104259Y-90693029D01*
X149955778Y-90690356D01*
X149839477Y-90684213D01*
X149769103Y-90675125D01*
X149759622Y-90672175D01*
X149656093Y-90596387D01*
X149586647Y-90482656D01*
X149555067Y-90348846D01*
X149565139Y-90212820D01*
X149620648Y-90092444D01*
X149633413Y-90076507D01*
X149668982Y-90038488D01*
X149706856Y-90012464D01*
X149759969Y-89995385D01*
X149841258Y-89984203D01*
X149963659Y-89975866D01*
X150085851Y-89969852D01*
X150301053Y-89955732D01*
X150460659Y-89933541D01*
X150572456Y-89899082D01*
X150644231Y-89848155D01*
X150683768Y-89776563D01*
X150698854Y-89680107D01*
X150699800Y-89638819D01*
X150672801Y-89518833D01*
X150600914Y-89425744D01*
X150497801Y-89374122D01*
X150446126Y-89368300D01*
X150346587Y-89350398D01*
X150262120Y-89312750D01*
X150151492Y-89226616D01*
X150090580Y-89133804D01*
X150067315Y-89012979D01*
X150065856Y-88965799D01*
X150069489Y-88863960D01*
X150090243Y-88797976D01*
X150140416Y-88740386D01*
X150183159Y-88703861D01*
X150313875Y-88628955D01*
X150465747Y-88605703D01*
X150645429Y-88633740D01*
G37*
X150645429Y-88633740D02*
X150761483Y-88672012D01*
X150987414Y-88780127D01*
X151167540Y-88919529D01*
X151316516Y-89102100D01*
X151343053Y-89143528D01*
X151377482Y-89210671D01*
X151400380Y-89289588D01*
X151414816Y-89396584D01*
X151423860Y-89547968D01*
X151425086Y-89579396D01*
X151427066Y-89782801D01*
X151413032Y-89940347D01*
X151378765Y-90068572D01*
X151320047Y-90184011D01*
X151244085Y-90289050D01*
X151163277Y-90386765D01*
X151096138Y-90454704D01*
X151021535Y-90510392D01*
X150918334Y-90571355D01*
X150874425Y-90595604D01*
X150806744Y-90630562D01*
X150743835Y-90655035D01*
X150671966Y-90671211D01*
X150577406Y-90681276D01*
X150446426Y-90687419D01*
X150271175Y-90691707D01*
X150104259Y-90693029D01*
X149955778Y-90690356D01*
X149839477Y-90684213D01*
X149769103Y-90675125D01*
X149759622Y-90672175D01*
X149656093Y-90596387D01*
X149586647Y-90482656D01*
X149555067Y-90348846D01*
X149565139Y-90212820D01*
X149620648Y-90092444D01*
X149633413Y-90076507D01*
X149668982Y-90038488D01*
X149706856Y-90012464D01*
X149759969Y-89995385D01*
X149841258Y-89984203D01*
X149963659Y-89975866D01*
X150085851Y-89969852D01*
X150301053Y-89955732D01*
X150460659Y-89933541D01*
X150572456Y-89899082D01*
X150644231Y-89848155D01*
X150683768Y-89776563D01*
X150698854Y-89680107D01*
X150699800Y-89638819D01*
X150672801Y-89518833D01*
X150600914Y-89425744D01*
X150497801Y-89374122D01*
X150446126Y-89368300D01*
X150346587Y-89350398D01*
X150262120Y-89312750D01*
X150151492Y-89226616D01*
X150090580Y-89133804D01*
X150067315Y-89012979D01*
X150065856Y-88965799D01*
X150069489Y-88863960D01*
X150090243Y-88797976D01*
X150140416Y-88740386D01*
X150183159Y-88703861D01*
X150313875Y-88628955D01*
X150465747Y-88605703D01*
X150645429Y-88633740D01*
G36*
X145323959Y-84613785D02*
G01*
X145572561Y-84636623D01*
X145786919Y-84672640D01*
X145955714Y-84720161D01*
X146022696Y-84749368D01*
X146092621Y-84782081D01*
X146136859Y-84796097D01*
X146137216Y-84796104D01*
X146174244Y-84811125D01*
X146252235Y-84851196D01*
X146357457Y-84909111D01*
X146414399Y-84941590D01*
X146636402Y-85089034D01*
X146859445Y-85271646D01*
X147064931Y-85472369D01*
X147234260Y-85674149D01*
X147272887Y-85728851D01*
X147409754Y-85932147D01*
X147713339Y-85930727D01*
X147904246Y-85936491D01*
X148092030Y-85953917D01*
X148259861Y-85980583D01*
X148390908Y-86014069D01*
X148443657Y-86035781D01*
X148500056Y-86063429D01*
X148589620Y-86105470D01*
X148647784Y-86132195D01*
X148727139Y-86175548D01*
X148829992Y-86241610D01*
X148944125Y-86321235D01*
X149057318Y-86405275D01*
X149157353Y-86484581D01*
X149232011Y-86550007D01*
X149269073Y-86592403D01*
X149271050Y-86598819D01*
X149290690Y-86635939D01*
X149338755Y-86695464D01*
X149346550Y-86703997D01*
X149411268Y-86788867D01*
X149487053Y-86910429D01*
X149563897Y-87049800D01*
X149631794Y-87188099D01*
X149680735Y-87306443D01*
X149698498Y-87368050D01*
X149723177Y-87466433D01*
X149753860Y-87549281D01*
X149754488Y-87550564D01*
X149776583Y-87615165D01*
X149756993Y-87639394D01*
X149692734Y-87623786D01*
X149598702Y-87578502D01*
X149426880Y-87491214D01*
X149288513Y-87432033D01*
X149164344Y-87393660D01*
X149052356Y-87371440D01*
X148931175Y-87341992D01*
X148855839Y-87295699D01*
X148833770Y-87269314D01*
X148700012Y-87099473D01*
X148550771Y-86960316D01*
X148370406Y-86839610D01*
X148143273Y-86725117D01*
X148131023Y-86719611D01*
X148067190Y-86704963D01*
X147957848Y-86693453D01*
X147820967Y-86686627D01*
X147734148Y-86685425D01*
X147560775Y-86688923D01*
X147427541Y-86703180D01*
X147311288Y-86733836D01*
X147188860Y-86786533D01*
X147075401Y-86845902D01*
X147004118Y-86881842D01*
X146969066Y-86879232D01*
X146951694Y-86828600D01*
X146943205Y-86778397D01*
X146908230Y-86655521D01*
X146842673Y-86501974D01*
X146756219Y-86336187D01*
X146658555Y-86176586D01*
X146559369Y-86041600D01*
X146550182Y-86030683D01*
X146379183Y-85853786D01*
X146187607Y-85694552D01*
X145995515Y-85568846D01*
X145913028Y-85526885D01*
X145815670Y-85481849D01*
X145736169Y-85443768D01*
X145709773Y-85430418D01*
X145609336Y-85395612D01*
X145461090Y-85368065D01*
X145280477Y-85349394D01*
X145082935Y-85341216D01*
X144891904Y-85344728D01*
X144584578Y-85379443D01*
X144313459Y-85453447D01*
X144060968Y-85572273D01*
X143949425Y-85641388D01*
X143827972Y-85733938D01*
X143695671Y-85853822D01*
X143567544Y-85985469D01*
X143458611Y-86113306D01*
X143383893Y-86221763D01*
X143376721Y-86235092D01*
X143337069Y-86306695D01*
X143307784Y-86349642D01*
X143305259Y-86352050D01*
X143279002Y-86394191D01*
X143241090Y-86479462D01*
X143198195Y-86590195D01*
X143156987Y-86708721D01*
X143124137Y-86817371D01*
X143113471Y-86860050D01*
X143093896Y-86990786D01*
X143084201Y-87152879D01*
X143083598Y-87331787D01*
X143091302Y-87512964D01*
X143106527Y-87681866D01*
X143128486Y-87823951D01*
X143156395Y-87924674D01*
X143172662Y-87955425D01*
X143198924Y-88004602D01*
X143232893Y-88084131D01*
X143238364Y-88098300D01*
X143349576Y-88319614D01*
X143509764Y-88540391D01*
X143705873Y-88746503D01*
X143924849Y-88923824D01*
X144101224Y-89032060D01*
X144189355Y-89078142D01*
X144269539Y-89117940D01*
X144346984Y-89151914D01*
X144426898Y-89180526D01*
X144514488Y-89204236D01*
X144614960Y-89223504D01*
X144733524Y-89238792D01*
X144875386Y-89250559D01*
X145045753Y-89259266D01*
X145249834Y-89265375D01*
X145492835Y-89269345D01*
X145779964Y-89271637D01*
X146116429Y-89272712D01*
X146507436Y-89273030D01*
X146825684Y-89273050D01*
X148849027Y-89273050D01*
X148933038Y-89195191D01*
X148991292Y-89123731D01*
X149014714Y-89036612D01*
X149017050Y-88978475D01*
X148994508Y-88847260D01*
X148924599Y-88755060D01*
X148803892Y-88698337D01*
X148730943Y-88683271D01*
X148572999Y-88629740D01*
X148485237Y-88564330D01*
X148421521Y-88495265D01*
X148391341Y-88427946D01*
X148383122Y-88333134D01*
X148383106Y-88306384D01*
X148399959Y-88165724D01*
X148455416Y-88063600D01*
X148560090Y-87983704D01*
X148609659Y-87958286D01*
X148671024Y-87932022D01*
X148725382Y-87921149D01*
X148791944Y-87926086D01*
X148889920Y-87947252D01*
X148964365Y-87966015D01*
X149223559Y-88059602D01*
X149434853Y-88194421D01*
X149596962Y-88368834D01*
X149708599Y-88581203D01*
X149768479Y-88829888D01*
X149779050Y-89003933D01*
X149775767Y-89127624D01*
X149767026Y-89225327D01*
X149754488Y-89280979D01*
X149749742Y-89287415D01*
X149722070Y-89329072D01*
X149700917Y-89394394D01*
X149660892Y-89483310D01*
X149582542Y-89592465D01*
X149479962Y-89706260D01*
X149367245Y-89809093D01*
X149258487Y-89885365D01*
X149256152Y-89886678D01*
X149201447Y-89916007D01*
X149146677Y-89941198D01*
X149086781Y-89962568D01*
X149016696Y-89980428D01*
X148931359Y-89995093D01*
X148825709Y-90006876D01*
X148694681Y-90016091D01*
X148533214Y-90023051D01*
X148336244Y-90028071D01*
X148098711Y-90031463D01*
X147815550Y-90033542D01*
X147481699Y-90034620D01*
X147092097Y-90035013D01*
X146861123Y-90035050D01*
X144930572Y-90035050D01*
X144846561Y-90112908D01*
X144779847Y-90214523D01*
X144760982Y-90337951D01*
X144790946Y-90462161D01*
X144827491Y-90521795D01*
X144892432Y-90604355D01*
X146946803Y-90613390D01*
X149001175Y-90622425D01*
X149198876Y-90728887D01*
X149416316Y-90877562D01*
X149585336Y-91058392D01*
X149704660Y-91263283D01*
X149773012Y-91484140D01*
X149789116Y-91712868D01*
X149751695Y-91941371D01*
X149659473Y-92161556D01*
X149511173Y-92365327D01*
X149464475Y-92413450D01*
X149305879Y-92541683D01*
X149135011Y-92622900D01*
X148935642Y-92663182D01*
X148779209Y-92670300D01*
X148657111Y-92667986D01*
X148578715Y-92657288D01*
X148524281Y-92632569D01*
X148474070Y-92588191D01*
X148467365Y-92581250D01*
X148412119Y-92509321D01*
X148387064Y-92427980D01*
X148382050Y-92333190D01*
X148401036Y-92198584D01*
X148462401Y-92096003D01*
X148572749Y-92018651D01*
X148738686Y-91959731D01*
X148747175Y-91957506D01*
X148855006Y-91922829D01*
X148940109Y-91883318D01*
X148977362Y-91854524D01*
X149005713Y-91778806D01*
X149015970Y-91672084D01*
X149007410Y-91564434D01*
X148985970Y-91496802D01*
X148969726Y-91471169D01*
X148947368Y-91449192D01*
X148914217Y-91430590D01*
X148865594Y-91415082D01*
X148796820Y-91402390D01*
X148703216Y-91392232D01*
X148580103Y-91384328D01*
X148422801Y-91378398D01*
X148226633Y-91374163D01*
X147986918Y-91371341D01*
X147698979Y-91369653D01*
X147358135Y-91368819D01*
X146959708Y-91368558D01*
X146844107Y-91368550D01*
X146420718Y-91368449D01*
X146055840Y-91367854D01*
X145744482Y-91366321D01*
X145481656Y-91363408D01*
X145262372Y-91358671D01*
X145081640Y-91351668D01*
X144934470Y-91341957D01*
X144815875Y-91329094D01*
X144720863Y-91312637D01*
X144644445Y-91292143D01*
X144581632Y-91267170D01*
X144527434Y-91237275D01*
X144476862Y-91202015D01*
X144424926Y-91160948D01*
X144415221Y-91153046D01*
X144275559Y-91031604D01*
X144180495Y-90928587D01*
X144119356Y-90831154D01*
X144092938Y-90765300D01*
X144061376Y-90683407D01*
X144031876Y-90628163D01*
X144028464Y-90624012D01*
X144010275Y-90570853D01*
X144001254Y-90473203D01*
X144000783Y-90349313D01*
X144008243Y-90217432D01*
X144023015Y-90095813D01*
X144044480Y-90002705D01*
X144050034Y-89987870D01*
X144078799Y-89912315D01*
X144090651Y-89867170D01*
X144089722Y-89862484D01*
X144057788Y-89846586D01*
X143985903Y-89812995D01*
X143921175Y-89783352D01*
X143666541Y-89646837D01*
X143412051Y-89472789D01*
X143173131Y-89274048D01*
X142965205Y-89063453D01*
X142803697Y-88853845D01*
X142802735Y-88852363D01*
X142749406Y-88771843D01*
X142710073Y-88715636D01*
X142698775Y-88701550D01*
X142677727Y-88666649D01*
X142638725Y-88590811D01*
X142592465Y-88495175D01*
X142541087Y-88387279D01*
X142496680Y-88295898D01*
X142471637Y-88246202D01*
X142432310Y-88136440D01*
X142399959Y-87976565D01*
X142375187Y-87779643D01*
X142358601Y-87558741D01*
X142350804Y-87326924D01*
X142352402Y-87097260D01*
X142364000Y-86882813D01*
X142386202Y-86696652D01*
X142397177Y-86637790D01*
X142501076Y-86292873D01*
X142662025Y-85959817D01*
X142873719Y-85646164D01*
X143129853Y-85359460D01*
X143424125Y-85107247D01*
X143750228Y-84897070D01*
X143925309Y-84809160D01*
X144143702Y-84722583D01*
X144368654Y-84662035D01*
X144615990Y-84624661D01*
X144901531Y-84607607D01*
X145052431Y-84605799D01*
X145323959Y-84613785D01*
G37*
X145323959Y-84613785D02*
X145572561Y-84636623D01*
X145786919Y-84672640D01*
X145955714Y-84720161D01*
X146022696Y-84749368D01*
X146092621Y-84782081D01*
X146136859Y-84796097D01*
X146137216Y-84796104D01*
X146174244Y-84811125D01*
X146252235Y-84851196D01*
X146357457Y-84909111D01*
X146414399Y-84941590D01*
X146636402Y-85089034D01*
X146859445Y-85271646D01*
X147064931Y-85472369D01*
X147234260Y-85674149D01*
X147272887Y-85728851D01*
X147409754Y-85932147D01*
X147713339Y-85930727D01*
X147904246Y-85936491D01*
X148092030Y-85953917D01*
X148259861Y-85980583D01*
X148390908Y-86014069D01*
X148443657Y-86035781D01*
X148500056Y-86063429D01*
X148589620Y-86105470D01*
X148647784Y-86132195D01*
X148727139Y-86175548D01*
X148829992Y-86241610D01*
X148944125Y-86321235D01*
X149057318Y-86405275D01*
X149157353Y-86484581D01*
X149232011Y-86550007D01*
X149269073Y-86592403D01*
X149271050Y-86598819D01*
X149290690Y-86635939D01*
X149338755Y-86695464D01*
X149346550Y-86703997D01*
X149411268Y-86788867D01*
X149487053Y-86910429D01*
X149563897Y-87049800D01*
X149631794Y-87188099D01*
X149680735Y-87306443D01*
X149698498Y-87368050D01*
X149723177Y-87466433D01*
X149753860Y-87549281D01*
X149754488Y-87550564D01*
X149776583Y-87615165D01*
X149756993Y-87639394D01*
X149692734Y-87623786D01*
X149598702Y-87578502D01*
X149426880Y-87491214D01*
X149288513Y-87432033D01*
X149164344Y-87393660D01*
X149052356Y-87371440D01*
X148931175Y-87341992D01*
X148855839Y-87295699D01*
X148833770Y-87269314D01*
X148700012Y-87099473D01*
X148550771Y-86960316D01*
X148370406Y-86839610D01*
X148143273Y-86725117D01*
X148131023Y-86719611D01*
X148067190Y-86704963D01*
X147957848Y-86693453D01*
X147820967Y-86686627D01*
X147734148Y-86685425D01*
X147560775Y-86688923D01*
X147427541Y-86703180D01*
X147311288Y-86733836D01*
X147188860Y-86786533D01*
X147075401Y-86845902D01*
X147004118Y-86881842D01*
X146969066Y-86879232D01*
X146951694Y-86828600D01*
X146943205Y-86778397D01*
X146908230Y-86655521D01*
X146842673Y-86501974D01*
X146756219Y-86336187D01*
X146658555Y-86176586D01*
X146559369Y-86041600D01*
X146550182Y-86030683D01*
X146379183Y-85853786D01*
X146187607Y-85694552D01*
X145995515Y-85568846D01*
X145913028Y-85526885D01*
X145815670Y-85481849D01*
X145736169Y-85443768D01*
X145709773Y-85430418D01*
X145609336Y-85395612D01*
X145461090Y-85368065D01*
X145280477Y-85349394D01*
X145082935Y-85341216D01*
X144891904Y-85344728D01*
X144584578Y-85379443D01*
X144313459Y-85453447D01*
X144060968Y-85572273D01*
X143949425Y-85641388D01*
X143827972Y-85733938D01*
X143695671Y-85853822D01*
X143567544Y-85985469D01*
X143458611Y-86113306D01*
X143383893Y-86221763D01*
X143376721Y-86235092D01*
X143337069Y-86306695D01*
X143307784Y-86349642D01*
X143305259Y-86352050D01*
X143279002Y-86394191D01*
X143241090Y-86479462D01*
X143198195Y-86590195D01*
X143156987Y-86708721D01*
X143124137Y-86817371D01*
X143113471Y-86860050D01*
X143093896Y-86990786D01*
X143084201Y-87152879D01*
X143083598Y-87331787D01*
X143091302Y-87512964D01*
X143106527Y-87681866D01*
X143128486Y-87823951D01*
X143156395Y-87924674D01*
X143172662Y-87955425D01*
X143198924Y-88004602D01*
X143232893Y-88084131D01*
X143238364Y-88098300D01*
X143349576Y-88319614D01*
X143509764Y-88540391D01*
X143705873Y-88746503D01*
X143924849Y-88923824D01*
X144101224Y-89032060D01*
X144189355Y-89078142D01*
X144269539Y-89117940D01*
X144346984Y-89151914D01*
X144426898Y-89180526D01*
X144514488Y-89204236D01*
X144614960Y-89223504D01*
X144733524Y-89238792D01*
X144875386Y-89250559D01*
X145045753Y-89259266D01*
X145249834Y-89265375D01*
X145492835Y-89269345D01*
X145779964Y-89271637D01*
X146116429Y-89272712D01*
X146507436Y-89273030D01*
X146825684Y-89273050D01*
X148849027Y-89273050D01*
X148933038Y-89195191D01*
X148991292Y-89123731D01*
X149014714Y-89036612D01*
X149017050Y-88978475D01*
X148994508Y-88847260D01*
X148924599Y-88755060D01*
X148803892Y-88698337D01*
X148730943Y-88683271D01*
X148572999Y-88629740D01*
X148485237Y-88564330D01*
X148421521Y-88495265D01*
X148391341Y-88427946D01*
X148383122Y-88333134D01*
X148383106Y-88306384D01*
X148399959Y-88165724D01*
X148455416Y-88063600D01*
X148560090Y-87983704D01*
X148609659Y-87958286D01*
X148671024Y-87932022D01*
X148725382Y-87921149D01*
X148791944Y-87926086D01*
X148889920Y-87947252D01*
X148964365Y-87966015D01*
X149223559Y-88059602D01*
X149434853Y-88194421D01*
X149596962Y-88368834D01*
X149708599Y-88581203D01*
X149768479Y-88829888D01*
X149779050Y-89003933D01*
X149775767Y-89127624D01*
X149767026Y-89225327D01*
X149754488Y-89280979D01*
X149749742Y-89287415D01*
X149722070Y-89329072D01*
X149700917Y-89394394D01*
X149660892Y-89483310D01*
X149582542Y-89592465D01*
X149479962Y-89706260D01*
X149367245Y-89809093D01*
X149258487Y-89885365D01*
X149256152Y-89886678D01*
X149201447Y-89916007D01*
X149146677Y-89941198D01*
X149086781Y-89962568D01*
X149016696Y-89980428D01*
X148931359Y-89995093D01*
X148825709Y-90006876D01*
X148694681Y-90016091D01*
X148533214Y-90023051D01*
X148336244Y-90028071D01*
X148098711Y-90031463D01*
X147815550Y-90033542D01*
X147481699Y-90034620D01*
X147092097Y-90035013D01*
X146861123Y-90035050D01*
X144930572Y-90035050D01*
X144846561Y-90112908D01*
X144779847Y-90214523D01*
X144760982Y-90337951D01*
X144790946Y-90462161D01*
X144827491Y-90521795D01*
X144892432Y-90604355D01*
X146946803Y-90613390D01*
X149001175Y-90622425D01*
X149198876Y-90728887D01*
X149416316Y-90877562D01*
X149585336Y-91058392D01*
X149704660Y-91263283D01*
X149773012Y-91484140D01*
X149789116Y-91712868D01*
X149751695Y-91941371D01*
X149659473Y-92161556D01*
X149511173Y-92365327D01*
X149464475Y-92413450D01*
X149305879Y-92541683D01*
X149135011Y-92622900D01*
X148935642Y-92663182D01*
X148779209Y-92670300D01*
X148657111Y-92667986D01*
X148578715Y-92657288D01*
X148524281Y-92632569D01*
X148474070Y-92588191D01*
X148467365Y-92581250D01*
X148412119Y-92509321D01*
X148387064Y-92427980D01*
X148382050Y-92333190D01*
X148401036Y-92198584D01*
X148462401Y-92096003D01*
X148572749Y-92018651D01*
X148738686Y-91959731D01*
X148747175Y-91957506D01*
X148855006Y-91922829D01*
X148940109Y-91883318D01*
X148977362Y-91854524D01*
X149005713Y-91778806D01*
X149015970Y-91672084D01*
X149007410Y-91564434D01*
X148985970Y-91496802D01*
X148969726Y-91471169D01*
X148947368Y-91449192D01*
X148914217Y-91430590D01*
X148865594Y-91415082D01*
X148796820Y-91402390D01*
X148703216Y-91392232D01*
X148580103Y-91384328D01*
X148422801Y-91378398D01*
X148226633Y-91374163D01*
X147986918Y-91371341D01*
X147698979Y-91369653D01*
X147358135Y-91368819D01*
X146959708Y-91368558D01*
X146844107Y-91368550D01*
X146420718Y-91368449D01*
X146055840Y-91367854D01*
X145744482Y-91366321D01*
X145481656Y-91363408D01*
X145262372Y-91358671D01*
X145081640Y-91351668D01*
X144934470Y-91341957D01*
X144815875Y-91329094D01*
X144720863Y-91312637D01*
X144644445Y-91292143D01*
X144581632Y-91267170D01*
X144527434Y-91237275D01*
X144476862Y-91202015D01*
X144424926Y-91160948D01*
X144415221Y-91153046D01*
X144275559Y-91031604D01*
X144180495Y-90928587D01*
X144119356Y-90831154D01*
X144092938Y-90765300D01*
X144061376Y-90683407D01*
X144031876Y-90628163D01*
X144028464Y-90624012D01*
X144010275Y-90570853D01*
X144001254Y-90473203D01*
X144000783Y-90349313D01*
X144008243Y-90217432D01*
X144023015Y-90095813D01*
X144044480Y-90002705D01*
X144050034Y-89987870D01*
X144078799Y-89912315D01*
X144090651Y-89867170D01*
X144089722Y-89862484D01*
X144057788Y-89846586D01*
X143985903Y-89812995D01*
X143921175Y-89783352D01*
X143666541Y-89646837D01*
X143412051Y-89472789D01*
X143173131Y-89274048D01*
X142965205Y-89063453D01*
X142803697Y-88853845D01*
X142802735Y-88852363D01*
X142749406Y-88771843D01*
X142710073Y-88715636D01*
X142698775Y-88701550D01*
X142677727Y-88666649D01*
X142638725Y-88590811D01*
X142592465Y-88495175D01*
X142541087Y-88387279D01*
X142496680Y-88295898D01*
X142471637Y-88246202D01*
X142432310Y-88136440D01*
X142399959Y-87976565D01*
X142375187Y-87779643D01*
X142358601Y-87558741D01*
X142350804Y-87326924D01*
X142352402Y-87097260D01*
X142364000Y-86882813D01*
X142386202Y-86696652D01*
X142397177Y-86637790D01*
X142501076Y-86292873D01*
X142662025Y-85959817D01*
X142873719Y-85646164D01*
X143129853Y-85359460D01*
X143424125Y-85107247D01*
X143750228Y-84897070D01*
X143925309Y-84809160D01*
X144143702Y-84722583D01*
X144368654Y-84662035D01*
X144615990Y-84624661D01*
X144901531Y-84607607D01*
X145052431Y-84605799D01*
X145323959Y-84613785D01*
D15*
X188084400Y-82413800D02*
X189414400Y-82413800D01*
X188084400Y-83743800D02*
X188084400Y-82413800D01*
X188084400Y-85013800D02*
X190744400Y-85013800D01*
X190744400Y-85013800D02*
X190744400Y-92693800D01*
X188084400Y-85013800D02*
X188084400Y-92693800D01*
X188084400Y-92693800D02*
X190744400Y-92693800D01*
X169458400Y-90414800D02*
X169458400Y-91744800D01*
X168128400Y-90414800D02*
X169458400Y-90414800D01*
X166858400Y-90414800D02*
X166858400Y-93074800D01*
X166858400Y-93074800D02*
X164258400Y-93074800D01*
X166858400Y-90414800D02*
X164258400Y-90414800D01*
X164258400Y-90414800D02*
X164258400Y-93074800D01*
D17*
X171273800Y-77544600D02*
X171273800Y-83691400D01*
X181078200Y-83691400D02*
X181078200Y-80922800D01*
X181078200Y-80922800D02*
X181078200Y-80313200D01*
X181078200Y-80313200D02*
X181078200Y-78103400D01*
X181078200Y-80922800D02*
G75*
G02X181078200Y-80313200I0J304800D01*
G01*
D15*
X165254000Y-77848000D02*
X165254000Y-78618000D01*
X165254000Y-85928000D02*
X165254000Y-85158000D01*
X163884000Y-78618000D02*
X163884000Y-85158000D01*
X166624000Y-78618000D02*
X163884000Y-78618000D01*
X166624000Y-85158000D02*
X166624000Y-78618000D01*
X163884000Y-85158000D02*
X166624000Y-85158000D01*
X168810000Y-77848000D02*
X168810000Y-78618000D01*
X168810000Y-85928000D02*
X168810000Y-85158000D01*
X167440000Y-78618000D02*
X167440000Y-85158000D01*
X170180000Y-78618000D02*
X167440000Y-78618000D01*
X170180000Y-85158000D02*
X170180000Y-78618000D01*
X167440000Y-85158000D02*
X170180000Y-85158000D01*
D10*
X205033286Y-92921840D02*
X205033286Y-93636126D01*
X204985667Y-93778983D01*
X204890429Y-93874221D01*
X204747572Y-93921840D01*
X204652334Y-93921840D01*
X205938048Y-92921840D02*
X205747572Y-92921840D01*
X205652334Y-92969460D01*
X205604715Y-93017079D01*
X205509477Y-93159936D01*
X205461858Y-93350412D01*
X205461858Y-93731364D01*
X205509477Y-93826602D01*
X205557096Y-93874221D01*
X205652334Y-93921840D01*
X205842810Y-93921840D01*
X205938048Y-93874221D01*
X205985667Y-93826602D01*
X206033286Y-93731364D01*
X206033286Y-93493269D01*
X205985667Y-93398031D01*
X205938048Y-93350412D01*
X205842810Y-93302793D01*
X205652334Y-93302793D01*
X205557096Y-93350412D01*
X205509477Y-93398031D01*
X205461858Y-93493269D01*
X207794670Y-93871040D02*
X207461337Y-93394850D01*
X207223241Y-93871040D02*
X207223241Y-92871040D01*
X207604194Y-92871040D01*
X207699432Y-92918660D01*
X207747051Y-92966279D01*
X207794670Y-93061517D01*
X207794670Y-93204374D01*
X207747051Y-93299612D01*
X207699432Y-93347231D01*
X207604194Y-93394850D01*
X207223241Y-93394850D01*
X208508956Y-92871040D02*
X208508956Y-93585326D01*
X208461337Y-93728183D01*
X208366099Y-93823421D01*
X208223241Y-93871040D01*
X208128003Y-93871040D01*
X209508956Y-93871040D02*
X208937527Y-93871040D01*
X209223241Y-93871040D02*
X209223241Y-92871040D01*
X209128003Y-93013898D01*
X209032765Y-93109136D01*
X208937527Y-93156755D01*
X209889908Y-92966279D02*
X209937527Y-92918660D01*
X210032765Y-92871040D01*
X210270860Y-92871040D01*
X210366099Y-92918660D01*
X210413718Y-92966279D01*
X210461337Y-93061517D01*
X210461337Y-93156755D01*
X210413718Y-93299612D01*
X209842289Y-93871040D01*
X210461337Y-93871040D01*
X194375446Y-92566240D02*
X194375446Y-93280526D01*
X194327827Y-93423383D01*
X194232589Y-93518621D01*
X194089732Y-93566240D01*
X193994494Y-93566240D01*
X195327827Y-92566240D02*
X194851637Y-92566240D01*
X194804018Y-93042431D01*
X194851637Y-92994812D01*
X194946875Y-92947193D01*
X195184970Y-92947193D01*
X195280208Y-92994812D01*
X195327827Y-93042431D01*
X195375446Y-93137669D01*
X195375446Y-93375764D01*
X195327827Y-93471002D01*
X195280208Y-93518621D01*
X195184970Y-93566240D01*
X194946875Y-93566240D01*
X194851637Y-93518621D01*
X194804018Y-93471002D01*
D13*
X108839190Y-83283561D02*
X108839190Y-84902609D01*
X108934428Y-85093085D01*
X109029666Y-85188323D01*
X109220142Y-85283561D01*
X109601095Y-85283561D01*
X109791571Y-85188323D01*
X109886809Y-85093085D01*
X109982047Y-84902609D01*
X109982047Y-83283561D01*
X111982047Y-85283561D02*
X110839190Y-85283561D01*
X111410619Y-85283561D02*
X111410619Y-83283561D01*
X111220142Y-83569276D01*
X111029666Y-83759752D01*
X110839190Y-83854990D01*
D10*
X184096066Y-84599980D02*
X184096066Y-85314266D01*
X184048447Y-85457123D01*
X183953209Y-85552361D01*
X183810352Y-85599980D01*
X183715114Y-85599980D01*
X185000828Y-84933314D02*
X185000828Y-85599980D01*
X184762733Y-84552361D02*
X184524638Y-85266647D01*
X185143685Y-85266647D01*
D19*
X176871779Y-78027304D02*
X177681749Y-78027304D01*
X177777039Y-77979659D01*
X177824684Y-77932014D01*
X177872330Y-77836723D01*
X177872330Y-77646142D01*
X177824684Y-77550851D01*
X177777039Y-77503206D01*
X177681749Y-77455561D01*
X176871779Y-77455561D01*
X176871779Y-77074398D02*
X176871779Y-76455010D01*
X177252941Y-76788527D01*
X177252941Y-76645591D01*
X177300586Y-76550300D01*
X177348232Y-76502655D01*
X177443522Y-76455010D01*
X177681749Y-76455010D01*
X177777039Y-76502655D01*
X177824684Y-76550300D01*
X177872330Y-76645591D01*
X177872330Y-76931463D01*
X177824684Y-77026753D01*
X177777039Y-77074398D01*
D10*
X175437895Y-80935580D02*
X175437895Y-81745104D01*
X175485514Y-81840342D01*
X175533133Y-81887961D01*
X175628371Y-81935580D01*
X175818847Y-81935580D01*
X175914085Y-81887961D01*
X175961704Y-81840342D01*
X176009323Y-81745104D01*
X176009323Y-80935580D01*
X176390276Y-80935580D02*
X177009323Y-80935580D01*
X176675990Y-81316533D01*
X176818847Y-81316533D01*
X176914085Y-81364152D01*
X176961704Y-81411771D01*
X177009323Y-81507009D01*
X177009323Y-81745104D01*
X176961704Y-81840342D01*
X176914085Y-81887961D01*
X176818847Y-81935580D01*
X176533133Y-81935580D01*
X176437895Y-81887961D01*
X176390276Y-81840342D01*
X173460113Y-90054702D02*
X173412494Y-90102321D01*
X173269637Y-90149940D01*
X173174399Y-90149940D01*
X173031541Y-90102321D01*
X172936303Y-90007083D01*
X172888684Y-89911845D01*
X172841065Y-89721369D01*
X172841065Y-89578512D01*
X172888684Y-89388036D01*
X172936303Y-89292798D01*
X173031541Y-89197560D01*
X173174399Y-89149940D01*
X173269637Y-89149940D01*
X173412494Y-89197560D01*
X173460113Y-89245179D01*
X173793446Y-89149940D02*
X174412494Y-89149940D01*
X174079160Y-89530893D01*
X174222018Y-89530893D01*
X174317256Y-89578512D01*
X174364875Y-89626131D01*
X174412494Y-89721369D01*
X174412494Y-89959464D01*
X174364875Y-90054702D01*
X174317256Y-90102321D01*
X174222018Y-90149940D01*
X173936303Y-90149940D01*
X173841065Y-90102321D01*
X173793446Y-90054702D01*
X176630840Y-90116920D02*
X176059412Y-90116920D01*
X176345126Y-90116920D02*
X176345126Y-89116920D01*
X176249888Y-89259778D01*
X176154650Y-89355016D01*
X176059412Y-89402635D01*
X177249888Y-89116920D02*
X177345126Y-89116920D01*
X177440364Y-89164540D01*
X177487983Y-89212159D01*
X177535602Y-89307397D01*
X177583221Y-89497873D01*
X177583221Y-89735968D01*
X177535602Y-89926444D01*
X177487983Y-90021682D01*
X177440364Y-90069301D01*
X177345126Y-90116920D01*
X177249888Y-90116920D01*
X177154650Y-90069301D01*
X177107031Y-90021682D01*
X177059412Y-89926444D01*
X177011793Y-89735968D01*
X177011793Y-89497873D01*
X177059412Y-89307397D01*
X177107031Y-89212159D01*
X177154650Y-89164540D01*
X177249888Y-89116920D01*
X178202269Y-89116920D02*
X178297507Y-89116920D01*
X178392745Y-89164540D01*
X178440364Y-89212159D01*
X178487983Y-89307397D01*
X178535602Y-89497873D01*
X178535602Y-89735968D01*
X178487983Y-89926444D01*
X178440364Y-90021682D01*
X178392745Y-90069301D01*
X178297507Y-90116920D01*
X178202269Y-90116920D01*
X178107031Y-90069301D01*
X178059412Y-90021682D01*
X178011793Y-89926444D01*
X177964174Y-89735968D01*
X177964174Y-89497873D01*
X178011793Y-89307397D01*
X178059412Y-89212159D01*
X178107031Y-89164540D01*
X178202269Y-89116920D01*
X178964174Y-89450254D02*
X178964174Y-90116920D01*
X178964174Y-89545492D02*
X179011793Y-89497873D01*
X179107031Y-89450254D01*
X179249888Y-89450254D01*
X179345126Y-89497873D01*
X179392745Y-89593111D01*
X179392745Y-90116920D01*
X180202269Y-89593111D02*
X179868936Y-89593111D01*
X179868936Y-90116920D02*
X179868936Y-89116920D01*
X180345126Y-89116920D01*
X186749962Y-82112146D02*
X186797581Y-82159765D01*
X186845200Y-82302622D01*
X186845200Y-82397860D01*
X186797581Y-82540718D01*
X186702343Y-82635956D01*
X186607105Y-82683575D01*
X186416629Y-82731194D01*
X186273772Y-82731194D01*
X186083296Y-82683575D01*
X185988058Y-82635956D01*
X185892820Y-82540718D01*
X185845200Y-82397860D01*
X185845200Y-82302622D01*
X185892820Y-82159765D01*
X185940439Y-82112146D01*
X185940439Y-81731194D02*
X185892820Y-81683575D01*
X185845200Y-81588337D01*
X185845200Y-81350241D01*
X185892820Y-81255003D01*
X185940439Y-81207384D01*
X186035677Y-81159765D01*
X186130915Y-81159765D01*
X186273772Y-81207384D01*
X186845200Y-81778813D01*
X186845200Y-81159765D01*
X186911240Y-79799939D02*
X186911240Y-80371367D01*
X186911240Y-80085653D02*
X185911240Y-80085653D01*
X186054098Y-80180891D01*
X186149336Y-80276129D01*
X186196955Y-80371367D01*
X185911240Y-79180891D02*
X185911240Y-79085653D01*
X185958860Y-78990415D01*
X186006479Y-78942796D01*
X186101717Y-78895177D01*
X186292193Y-78847558D01*
X186530288Y-78847558D01*
X186720764Y-78895177D01*
X186816002Y-78942796D01*
X186863621Y-78990415D01*
X186911240Y-79085653D01*
X186911240Y-79180891D01*
X186863621Y-79276129D01*
X186816002Y-79323748D01*
X186720764Y-79371367D01*
X186530288Y-79418986D01*
X186292193Y-79418986D01*
X186101717Y-79371367D01*
X186006479Y-79323748D01*
X185958860Y-79276129D01*
X185911240Y-79180891D01*
X185911240Y-78228510D02*
X185911240Y-78133272D01*
X185958860Y-78038034D01*
X186006479Y-77990415D01*
X186101717Y-77942796D01*
X186292193Y-77895177D01*
X186530288Y-77895177D01*
X186720764Y-77942796D01*
X186816002Y-77990415D01*
X186863621Y-78038034D01*
X186911240Y-78133272D01*
X186911240Y-78228510D01*
X186863621Y-78323748D01*
X186816002Y-78371367D01*
X186720764Y-78418986D01*
X186530288Y-78466605D01*
X186292193Y-78466605D01*
X186101717Y-78418986D01*
X186006479Y-78371367D01*
X185958860Y-78323748D01*
X185911240Y-78228510D01*
X186244574Y-77466605D02*
X186911240Y-77466605D01*
X186339812Y-77466605D02*
X186292193Y-77418986D01*
X186244574Y-77323748D01*
X186244574Y-77180891D01*
X186292193Y-77085653D01*
X186387431Y-77038034D01*
X186911240Y-77038034D01*
X186387431Y-76228510D02*
X186387431Y-76561843D01*
X186911240Y-76561843D02*
X185911240Y-76561843D01*
X185911240Y-76085653D01*
X62817713Y-92759802D02*
X62770094Y-92807421D01*
X62627237Y-92855040D01*
X62531999Y-92855040D01*
X62389141Y-92807421D01*
X62293903Y-92712183D01*
X62246284Y-92616945D01*
X62198665Y-92426469D01*
X62198665Y-92283612D01*
X62246284Y-92093136D01*
X62293903Y-91997898D01*
X62389141Y-91902660D01*
X62531999Y-91855040D01*
X62627237Y-91855040D01*
X62770094Y-91902660D01*
X62817713Y-91950279D01*
X63770094Y-92855040D02*
X63198665Y-92855040D01*
X63484380Y-92855040D02*
X63484380Y-91855040D01*
X63389141Y-91997898D01*
X63293903Y-92093136D01*
X63198665Y-92140755D01*
X65427100Y-92888060D02*
X64855672Y-92888060D01*
X65141386Y-92888060D02*
X65141386Y-91888060D01*
X65046148Y-92030918D01*
X64950910Y-92126156D01*
X64855672Y-92173775D01*
X66046148Y-91888060D02*
X66141386Y-91888060D01*
X66236624Y-91935680D01*
X66284243Y-91983299D01*
X66331862Y-92078537D01*
X66379481Y-92269013D01*
X66379481Y-92507108D01*
X66331862Y-92697584D01*
X66284243Y-92792822D01*
X66236624Y-92840441D01*
X66141386Y-92888060D01*
X66046148Y-92888060D01*
X65950910Y-92840441D01*
X65903291Y-92792822D01*
X65855672Y-92697584D01*
X65808053Y-92507108D01*
X65808053Y-92269013D01*
X65855672Y-92078537D01*
X65903291Y-91983299D01*
X65950910Y-91935680D01*
X66046148Y-91888060D01*
X66998529Y-91888060D02*
X67093767Y-91888060D01*
X67189005Y-91935680D01*
X67236624Y-91983299D01*
X67284243Y-92078537D01*
X67331862Y-92269013D01*
X67331862Y-92507108D01*
X67284243Y-92697584D01*
X67236624Y-92792822D01*
X67189005Y-92840441D01*
X67093767Y-92888060D01*
X66998529Y-92888060D01*
X66903291Y-92840441D01*
X66855672Y-92792822D01*
X66808053Y-92697584D01*
X66760434Y-92507108D01*
X66760434Y-92269013D01*
X66808053Y-92078537D01*
X66855672Y-91983299D01*
X66903291Y-91935680D01*
X66998529Y-91888060D01*
X67760434Y-92221394D02*
X67760434Y-92888060D01*
X67760434Y-92316632D02*
X67808053Y-92269013D01*
X67903291Y-92221394D01*
X68046148Y-92221394D01*
X68141386Y-92269013D01*
X68189005Y-92364251D01*
X68189005Y-92888060D01*
X68998529Y-92364251D02*
X68665196Y-92364251D01*
X68665196Y-92888060D02*
X68665196Y-91888060D01*
X69141386Y-91888060D01*
X67738666Y-77132380D02*
X67738666Y-77846666D01*
X67691047Y-77989523D01*
X67595809Y-78084761D01*
X67452952Y-78132380D01*
X67357714Y-78132380D01*
X68167238Y-77227619D02*
X68214857Y-77180000D01*
X68310095Y-77132380D01*
X68548190Y-77132380D01*
X68643428Y-77180000D01*
X68691047Y-77227619D01*
X68738666Y-77322857D01*
X68738666Y-77418095D01*
X68691047Y-77560952D01*
X68119619Y-78132380D01*
X68738666Y-78132380D01*
X188429306Y-80539340D02*
X188429306Y-81253626D01*
X188381687Y-81396483D01*
X188286449Y-81491721D01*
X188143592Y-81539340D01*
X188048354Y-81539340D01*
X188810259Y-80539340D02*
X189429306Y-80539340D01*
X189095973Y-80920293D01*
X189238830Y-80920293D01*
X189334068Y-80967912D01*
X189381687Y-81015531D01*
X189429306Y-81110769D01*
X189429306Y-81348864D01*
X189381687Y-81444102D01*
X189334068Y-81491721D01*
X189238830Y-81539340D01*
X188953116Y-81539340D01*
X188857878Y-81491721D01*
X188810259Y-81444102D01*
X162516226Y-91341960D02*
X162516226Y-92056246D01*
X162468607Y-92199103D01*
X162373369Y-92294341D01*
X162230512Y-92341960D01*
X162135274Y-92341960D01*
X163516226Y-92341960D02*
X162944798Y-92341960D01*
X163230512Y-92341960D02*
X163230512Y-91341960D01*
X163135274Y-91484818D01*
X163040036Y-91580056D01*
X162944798Y-91627675D01*
X175412495Y-79055980D02*
X175412495Y-79865504D01*
X175460114Y-79960742D01*
X175507733Y-80008361D01*
X175602971Y-80055980D01*
X175793447Y-80055980D01*
X175888685Y-80008361D01*
X175936304Y-79960742D01*
X175983923Y-79865504D01*
X175983923Y-79055980D01*
X176412495Y-79151219D02*
X176460114Y-79103600D01*
X176555352Y-79055980D01*
X176793447Y-79055980D01*
X176888685Y-79103600D01*
X176936304Y-79151219D01*
X176983923Y-79246457D01*
X176983923Y-79341695D01*
X176936304Y-79484552D01*
X176364876Y-80055980D01*
X176983923Y-80055980D01*
X182595780Y-84211657D02*
X181595780Y-84211657D01*
X181595780Y-83830704D01*
X181643400Y-83735466D01*
X181691019Y-83687847D01*
X181786257Y-83640228D01*
X181929114Y-83640228D01*
X182024352Y-83687847D01*
X182071971Y-83735466D01*
X182119590Y-83830704D01*
X182119590Y-84211657D01*
X182024352Y-83068800D02*
X181976733Y-83164038D01*
X181929114Y-83211657D01*
X181833876Y-83259276D01*
X181786257Y-83259276D01*
X181691019Y-83211657D01*
X181643400Y-83164038D01*
X181595780Y-83068800D01*
X181595780Y-82878323D01*
X181643400Y-82783085D01*
X181691019Y-82735466D01*
X181786257Y-82687847D01*
X181833876Y-82687847D01*
X181929114Y-82735466D01*
X181976733Y-82783085D01*
X182024352Y-82878323D01*
X182024352Y-83068800D01*
X182071971Y-83164038D01*
X182119590Y-83211657D01*
X182214828Y-83259276D01*
X182405304Y-83259276D01*
X182500542Y-83211657D01*
X182548161Y-83164038D01*
X182595780Y-83068800D01*
X182595780Y-82878323D01*
X182548161Y-82783085D01*
X182500542Y-82735466D01*
X182405304Y-82687847D01*
X182214828Y-82687847D01*
X182119590Y-82735466D01*
X182071971Y-82783085D01*
X182024352Y-82878323D01*
X181691019Y-82306895D02*
X181643400Y-82259276D01*
X181595780Y-82164038D01*
X181595780Y-81925942D01*
X181643400Y-81830704D01*
X181691019Y-81783085D01*
X181786257Y-81735466D01*
X181881495Y-81735466D01*
X182024352Y-81783085D01*
X182595780Y-82354514D01*
X182595780Y-81735466D01*
X182071971Y-80973561D02*
X182119590Y-80830704D01*
X182167209Y-80783085D01*
X182262447Y-80735466D01*
X182405304Y-80735466D01*
X182500542Y-80783085D01*
X182548161Y-80830704D01*
X182595780Y-80925942D01*
X182595780Y-81306895D01*
X181595780Y-81306895D01*
X181595780Y-80973561D01*
X181643400Y-80878323D01*
X181691019Y-80830704D01*
X181786257Y-80783085D01*
X181881495Y-80783085D01*
X181976733Y-80830704D01*
X182024352Y-80878323D01*
X182071971Y-80973561D01*
X182071971Y-81306895D01*
X181595780Y-80402133D02*
X181595780Y-79735466D01*
X182595780Y-80164038D01*
X182595780Y-78830704D02*
X182595780Y-79402133D01*
X182595780Y-79116419D02*
X181595780Y-79116419D01*
X181738638Y-79211657D01*
X181833876Y-79306895D01*
X181881495Y-79402133D01*
X181595780Y-77925942D02*
X181595780Y-78402133D01*
X182071971Y-78449752D01*
X182024352Y-78402133D01*
X181976733Y-78306895D01*
X181976733Y-78068800D01*
X182024352Y-77973561D01*
X182071971Y-77925942D01*
X182167209Y-77878323D01*
X182405304Y-77878323D01*
X182500542Y-77925942D01*
X182548161Y-77973561D01*
X182595780Y-78068800D01*
X182595780Y-78306895D01*
X182548161Y-78402133D01*
X182500542Y-78449752D01*
X182595780Y-77449752D02*
X181595780Y-77449752D01*
X181595780Y-77068800D01*
X181643400Y-76973561D01*
X181691019Y-76925942D01*
X181786257Y-76878323D01*
X181929114Y-76878323D01*
X182024352Y-76925942D01*
X182071971Y-76973561D01*
X182119590Y-77068800D01*
X182119590Y-77449752D01*
X163403540Y-86016126D02*
X162927350Y-86349460D01*
X163403540Y-86587555D02*
X162403540Y-86587555D01*
X162403540Y-86206602D01*
X162451160Y-86111364D01*
X162498779Y-86063745D01*
X162594017Y-86016126D01*
X162736874Y-86016126D01*
X162832112Y-86063745D01*
X162879731Y-86111364D01*
X162927350Y-86206602D01*
X162927350Y-86587555D01*
X162498779Y-85635174D02*
X162451160Y-85587555D01*
X162403540Y-85492317D01*
X162403540Y-85254221D01*
X162451160Y-85158983D01*
X162498779Y-85111364D01*
X162594017Y-85063745D01*
X162689255Y-85063745D01*
X162832112Y-85111364D01*
X163403540Y-85682793D01*
X163403540Y-85063745D01*
X162686074Y-83697676D02*
X163352740Y-83697676D01*
X162305121Y-83935771D02*
X163019407Y-84173866D01*
X163019407Y-83554819D01*
X163352740Y-83173866D02*
X162352740Y-83173866D01*
X162971788Y-83078628D02*
X163352740Y-82792914D01*
X162686074Y-82792914D02*
X163067026Y-83173866D01*
X162352740Y-82459580D02*
X162352740Y-81792914D01*
X163352740Y-82221485D01*
X169065200Y-89170806D02*
X168589010Y-89504140D01*
X169065200Y-89742235D02*
X168065200Y-89742235D01*
X168065200Y-89361282D01*
X168112820Y-89266044D01*
X168160439Y-89218425D01*
X168255677Y-89170806D01*
X168398534Y-89170806D01*
X168493772Y-89218425D01*
X168541391Y-89266044D01*
X168589010Y-89361282D01*
X168589010Y-89742235D01*
X169065200Y-88218425D02*
X169065200Y-88789854D01*
X169065200Y-88504140D02*
X168065200Y-88504140D01*
X168208058Y-88599378D01*
X168303296Y-88694616D01*
X168350915Y-88789854D01*
X170773434Y-87154616D02*
X171440100Y-87154616D01*
X170392481Y-87392711D02*
X171106767Y-87630806D01*
X171106767Y-87011759D01*
X171440100Y-86630806D02*
X170440100Y-86630806D01*
X171059148Y-86535568D02*
X171440100Y-86249854D01*
X170773434Y-86249854D02*
X171154386Y-86630806D01*
X170440100Y-85916520D02*
X170440100Y-85249854D01*
X171440100Y-85678425D01*
M02*
