G04 #@! TF.GenerationSoftware,KiCad,Pcbnew,(5.1.5)-3*
G04 #@! TF.CreationDate,2020-08-25T13:18:30+02:00*
G04 #@! TF.ProjectId,DNMS,444e4d53-2e6b-4696-9361-645f70636258,0.9.0*
G04 #@! TF.SameCoordinates,Original*
G04 #@! TF.FileFunction,Soldermask,Top*
G04 #@! TF.FilePolarity,Negative*
%FSLAX46Y46*%
G04 Gerber Fmt 4.6, Leading zero omitted, Abs format (unit mm)*
G04 Created by KiCad (PCBNEW (5.1.5)-3) date 2020-08-25 13:18:30*
%MOMM*%
%LPD*%
G04 APERTURE LIST*
%ADD10C,0.100000*%
G04 APERTURE END LIST*
D10*
G36*
X105863817Y-91264958D02*
G01*
X106012321Y-91326470D01*
X106012322Y-91326471D01*
X106145967Y-91415769D01*
X106259631Y-91529433D01*
X106311220Y-91606642D01*
X106348930Y-91663079D01*
X106410442Y-91811583D01*
X106441800Y-91969230D01*
X106441800Y-92129970D01*
X106410442Y-92287617D01*
X106400060Y-92312681D01*
X106348930Y-92436121D01*
X106343229Y-92444653D01*
X106259631Y-92569767D01*
X106145967Y-92683431D01*
X106045733Y-92750405D01*
X106012321Y-92772730D01*
X105938070Y-92803485D01*
X105863817Y-92834242D01*
X105706170Y-92865600D01*
X105545430Y-92865600D01*
X105387783Y-92834242D01*
X105313530Y-92803485D01*
X105239279Y-92772730D01*
X105205867Y-92750405D01*
X105105633Y-92683431D01*
X104991969Y-92569767D01*
X104908371Y-92444653D01*
X104902670Y-92436121D01*
X104851540Y-92312681D01*
X104841158Y-92287617D01*
X104809800Y-92129970D01*
X104809800Y-91969230D01*
X104841158Y-91811583D01*
X104902670Y-91663079D01*
X104940380Y-91606642D01*
X104991969Y-91529433D01*
X105105633Y-91415769D01*
X105239278Y-91326471D01*
X105239279Y-91326470D01*
X105387783Y-91264958D01*
X105545430Y-91233600D01*
X105706170Y-91233600D01*
X105863817Y-91264958D01*
G37*
G36*
X138883817Y-91264958D02*
G01*
X139032321Y-91326470D01*
X139032322Y-91326471D01*
X139165967Y-91415769D01*
X139279631Y-91529433D01*
X139331220Y-91606642D01*
X139368930Y-91663079D01*
X139430442Y-91811583D01*
X139461800Y-91969230D01*
X139461800Y-92129970D01*
X139430442Y-92287617D01*
X139420060Y-92312681D01*
X139368930Y-92436121D01*
X139363229Y-92444653D01*
X139279631Y-92569767D01*
X139165967Y-92683431D01*
X139065733Y-92750405D01*
X139032321Y-92772730D01*
X138958070Y-92803485D01*
X138883817Y-92834242D01*
X138726170Y-92865600D01*
X138565430Y-92865600D01*
X138407783Y-92834242D01*
X138333530Y-92803485D01*
X138259279Y-92772730D01*
X138225867Y-92750405D01*
X138125633Y-92683431D01*
X138011969Y-92569767D01*
X137928371Y-92444653D01*
X137922670Y-92436121D01*
X137871540Y-92312681D01*
X137861158Y-92287617D01*
X137829800Y-92129970D01*
X137829800Y-91969230D01*
X137861158Y-91811583D01*
X137922670Y-91663079D01*
X137960380Y-91606642D01*
X138011969Y-91529433D01*
X138125633Y-91415769D01*
X138259278Y-91326471D01*
X138259279Y-91326470D01*
X138407783Y-91264958D01*
X138565430Y-91233600D01*
X138726170Y-91233600D01*
X138883817Y-91264958D01*
G37*
G36*
X108403817Y-91264958D02*
G01*
X108552321Y-91326470D01*
X108552322Y-91326471D01*
X108685967Y-91415769D01*
X108799631Y-91529433D01*
X108851220Y-91606642D01*
X108888930Y-91663079D01*
X108950442Y-91811583D01*
X108981800Y-91969230D01*
X108981800Y-92129970D01*
X108950442Y-92287617D01*
X108940060Y-92312681D01*
X108888930Y-92436121D01*
X108883229Y-92444653D01*
X108799631Y-92569767D01*
X108685967Y-92683431D01*
X108585733Y-92750405D01*
X108552321Y-92772730D01*
X108478070Y-92803485D01*
X108403817Y-92834242D01*
X108246170Y-92865600D01*
X108085430Y-92865600D01*
X107927783Y-92834242D01*
X107853530Y-92803485D01*
X107779279Y-92772730D01*
X107745867Y-92750405D01*
X107645633Y-92683431D01*
X107531969Y-92569767D01*
X107448371Y-92444653D01*
X107442670Y-92436121D01*
X107391540Y-92312681D01*
X107381158Y-92287617D01*
X107349800Y-92129970D01*
X107349800Y-91969230D01*
X107381158Y-91811583D01*
X107442670Y-91663079D01*
X107480380Y-91606642D01*
X107531969Y-91529433D01*
X107645633Y-91415769D01*
X107779278Y-91326471D01*
X107779279Y-91326470D01*
X107927783Y-91264958D01*
X108085430Y-91233600D01*
X108246170Y-91233600D01*
X108403817Y-91264958D01*
G37*
G36*
X110943817Y-91264958D02*
G01*
X111092321Y-91326470D01*
X111092322Y-91326471D01*
X111225967Y-91415769D01*
X111339631Y-91529433D01*
X111391220Y-91606642D01*
X111428930Y-91663079D01*
X111490442Y-91811583D01*
X111521800Y-91969230D01*
X111521800Y-92129970D01*
X111490442Y-92287617D01*
X111480060Y-92312681D01*
X111428930Y-92436121D01*
X111423229Y-92444653D01*
X111339631Y-92569767D01*
X111225967Y-92683431D01*
X111125733Y-92750405D01*
X111092321Y-92772730D01*
X111018070Y-92803485D01*
X110943817Y-92834242D01*
X110786170Y-92865600D01*
X110625430Y-92865600D01*
X110467783Y-92834242D01*
X110393530Y-92803485D01*
X110319279Y-92772730D01*
X110285867Y-92750405D01*
X110185633Y-92683431D01*
X110071969Y-92569767D01*
X109988371Y-92444653D01*
X109982670Y-92436121D01*
X109931540Y-92312681D01*
X109921158Y-92287617D01*
X109889800Y-92129970D01*
X109889800Y-91969230D01*
X109921158Y-91811583D01*
X109982670Y-91663079D01*
X110020380Y-91606642D01*
X110071969Y-91529433D01*
X110185633Y-91415769D01*
X110319278Y-91326471D01*
X110319279Y-91326470D01*
X110467783Y-91264958D01*
X110625430Y-91233600D01*
X110786170Y-91233600D01*
X110943817Y-91264958D01*
G37*
G36*
X113483817Y-91264958D02*
G01*
X113632321Y-91326470D01*
X113632322Y-91326471D01*
X113765967Y-91415769D01*
X113879631Y-91529433D01*
X113931220Y-91606642D01*
X113968930Y-91663079D01*
X114030442Y-91811583D01*
X114061800Y-91969230D01*
X114061800Y-92129970D01*
X114030442Y-92287617D01*
X114020060Y-92312681D01*
X113968930Y-92436121D01*
X113963229Y-92444653D01*
X113879631Y-92569767D01*
X113765967Y-92683431D01*
X113665733Y-92750405D01*
X113632321Y-92772730D01*
X113558070Y-92803485D01*
X113483817Y-92834242D01*
X113326170Y-92865600D01*
X113165430Y-92865600D01*
X113007783Y-92834242D01*
X112933530Y-92803485D01*
X112859279Y-92772730D01*
X112825867Y-92750405D01*
X112725633Y-92683431D01*
X112611969Y-92569767D01*
X112528371Y-92444653D01*
X112522670Y-92436121D01*
X112471540Y-92312681D01*
X112461158Y-92287617D01*
X112429800Y-92129970D01*
X112429800Y-91969230D01*
X112461158Y-91811583D01*
X112522670Y-91663079D01*
X112560380Y-91606642D01*
X112611969Y-91529433D01*
X112725633Y-91415769D01*
X112859278Y-91326471D01*
X112859279Y-91326470D01*
X113007783Y-91264958D01*
X113165430Y-91233600D01*
X113326170Y-91233600D01*
X113483817Y-91264958D01*
G37*
G36*
X116023817Y-91264958D02*
G01*
X116172321Y-91326470D01*
X116172322Y-91326471D01*
X116305967Y-91415769D01*
X116419631Y-91529433D01*
X116471220Y-91606642D01*
X116508930Y-91663079D01*
X116570442Y-91811583D01*
X116601800Y-91969230D01*
X116601800Y-92129970D01*
X116570442Y-92287617D01*
X116560060Y-92312681D01*
X116508930Y-92436121D01*
X116503229Y-92444653D01*
X116419631Y-92569767D01*
X116305967Y-92683431D01*
X116205733Y-92750405D01*
X116172321Y-92772730D01*
X116098070Y-92803485D01*
X116023817Y-92834242D01*
X115866170Y-92865600D01*
X115705430Y-92865600D01*
X115547783Y-92834242D01*
X115473530Y-92803485D01*
X115399279Y-92772730D01*
X115365867Y-92750405D01*
X115265633Y-92683431D01*
X115151969Y-92569767D01*
X115068371Y-92444653D01*
X115062670Y-92436121D01*
X115011540Y-92312681D01*
X115001158Y-92287617D01*
X114969800Y-92129970D01*
X114969800Y-91969230D01*
X115001158Y-91811583D01*
X115062670Y-91663079D01*
X115100380Y-91606642D01*
X115151969Y-91529433D01*
X115265633Y-91415769D01*
X115399278Y-91326471D01*
X115399279Y-91326470D01*
X115547783Y-91264958D01*
X115705430Y-91233600D01*
X115866170Y-91233600D01*
X116023817Y-91264958D01*
G37*
G36*
X118563817Y-91264958D02*
G01*
X118712321Y-91326470D01*
X118712322Y-91326471D01*
X118845967Y-91415769D01*
X118959631Y-91529433D01*
X119011220Y-91606642D01*
X119048930Y-91663079D01*
X119110442Y-91811583D01*
X119141800Y-91969230D01*
X119141800Y-92129970D01*
X119110442Y-92287617D01*
X119100060Y-92312681D01*
X119048930Y-92436121D01*
X119043229Y-92444653D01*
X118959631Y-92569767D01*
X118845967Y-92683431D01*
X118745733Y-92750405D01*
X118712321Y-92772730D01*
X118638070Y-92803485D01*
X118563817Y-92834242D01*
X118406170Y-92865600D01*
X118245430Y-92865600D01*
X118087783Y-92834242D01*
X118013530Y-92803485D01*
X117939279Y-92772730D01*
X117905867Y-92750405D01*
X117805633Y-92683431D01*
X117691969Y-92569767D01*
X117608371Y-92444653D01*
X117602670Y-92436121D01*
X117551540Y-92312681D01*
X117541158Y-92287617D01*
X117509800Y-92129970D01*
X117509800Y-91969230D01*
X117541158Y-91811583D01*
X117602670Y-91663079D01*
X117640380Y-91606642D01*
X117691969Y-91529433D01*
X117805633Y-91415769D01*
X117939278Y-91326471D01*
X117939279Y-91326470D01*
X118087783Y-91264958D01*
X118245430Y-91233600D01*
X118406170Y-91233600D01*
X118563817Y-91264958D01*
G37*
G36*
X121103817Y-91264958D02*
G01*
X121252321Y-91326470D01*
X121252322Y-91326471D01*
X121385967Y-91415769D01*
X121499631Y-91529433D01*
X121551220Y-91606642D01*
X121588930Y-91663079D01*
X121650442Y-91811583D01*
X121681800Y-91969230D01*
X121681800Y-92129970D01*
X121650442Y-92287617D01*
X121640060Y-92312681D01*
X121588930Y-92436121D01*
X121583229Y-92444653D01*
X121499631Y-92569767D01*
X121385967Y-92683431D01*
X121285733Y-92750405D01*
X121252321Y-92772730D01*
X121178070Y-92803485D01*
X121103817Y-92834242D01*
X120946170Y-92865600D01*
X120785430Y-92865600D01*
X120627783Y-92834242D01*
X120553530Y-92803485D01*
X120479279Y-92772730D01*
X120445867Y-92750405D01*
X120345633Y-92683431D01*
X120231969Y-92569767D01*
X120148371Y-92444653D01*
X120142670Y-92436121D01*
X120091540Y-92312681D01*
X120081158Y-92287617D01*
X120049800Y-92129970D01*
X120049800Y-91969230D01*
X120081158Y-91811583D01*
X120142670Y-91663079D01*
X120180380Y-91606642D01*
X120231969Y-91529433D01*
X120345633Y-91415769D01*
X120479278Y-91326471D01*
X120479279Y-91326470D01*
X120627783Y-91264958D01*
X120785430Y-91233600D01*
X120946170Y-91233600D01*
X121103817Y-91264958D01*
G37*
G36*
X123643817Y-91264958D02*
G01*
X123792321Y-91326470D01*
X123792322Y-91326471D01*
X123925967Y-91415769D01*
X124039631Y-91529433D01*
X124091220Y-91606642D01*
X124128930Y-91663079D01*
X124190442Y-91811583D01*
X124221800Y-91969230D01*
X124221800Y-92129970D01*
X124190442Y-92287617D01*
X124180060Y-92312681D01*
X124128930Y-92436121D01*
X124123229Y-92444653D01*
X124039631Y-92569767D01*
X123925967Y-92683431D01*
X123825733Y-92750405D01*
X123792321Y-92772730D01*
X123718070Y-92803485D01*
X123643817Y-92834242D01*
X123486170Y-92865600D01*
X123325430Y-92865600D01*
X123167783Y-92834242D01*
X123093530Y-92803485D01*
X123019279Y-92772730D01*
X122985867Y-92750405D01*
X122885633Y-92683431D01*
X122771969Y-92569767D01*
X122688371Y-92444653D01*
X122682670Y-92436121D01*
X122631540Y-92312681D01*
X122621158Y-92287617D01*
X122589800Y-92129970D01*
X122589800Y-91969230D01*
X122621158Y-91811583D01*
X122682670Y-91663079D01*
X122720380Y-91606642D01*
X122771969Y-91529433D01*
X122885633Y-91415769D01*
X123019278Y-91326471D01*
X123019279Y-91326470D01*
X123167783Y-91264958D01*
X123325430Y-91233600D01*
X123486170Y-91233600D01*
X123643817Y-91264958D01*
G37*
G36*
X126183817Y-91264958D02*
G01*
X126332321Y-91326470D01*
X126332322Y-91326471D01*
X126465967Y-91415769D01*
X126579631Y-91529433D01*
X126631220Y-91606642D01*
X126668930Y-91663079D01*
X126730442Y-91811583D01*
X126761800Y-91969230D01*
X126761800Y-92129970D01*
X126730442Y-92287617D01*
X126720060Y-92312681D01*
X126668930Y-92436121D01*
X126663229Y-92444653D01*
X126579631Y-92569767D01*
X126465967Y-92683431D01*
X126365733Y-92750405D01*
X126332321Y-92772730D01*
X126258070Y-92803485D01*
X126183817Y-92834242D01*
X126026170Y-92865600D01*
X125865430Y-92865600D01*
X125707783Y-92834242D01*
X125633530Y-92803485D01*
X125559279Y-92772730D01*
X125525867Y-92750405D01*
X125425633Y-92683431D01*
X125311969Y-92569767D01*
X125228371Y-92444653D01*
X125222670Y-92436121D01*
X125171540Y-92312681D01*
X125161158Y-92287617D01*
X125129800Y-92129970D01*
X125129800Y-91969230D01*
X125161158Y-91811583D01*
X125222670Y-91663079D01*
X125260380Y-91606642D01*
X125311969Y-91529433D01*
X125425633Y-91415769D01*
X125559278Y-91326471D01*
X125559279Y-91326470D01*
X125707783Y-91264958D01*
X125865430Y-91233600D01*
X126026170Y-91233600D01*
X126183817Y-91264958D01*
G37*
G36*
X128723817Y-91264958D02*
G01*
X128872321Y-91326470D01*
X128872322Y-91326471D01*
X129005967Y-91415769D01*
X129119631Y-91529433D01*
X129171220Y-91606642D01*
X129208930Y-91663079D01*
X129270442Y-91811583D01*
X129301800Y-91969230D01*
X129301800Y-92129970D01*
X129270442Y-92287617D01*
X129260060Y-92312681D01*
X129208930Y-92436121D01*
X129203229Y-92444653D01*
X129119631Y-92569767D01*
X129005967Y-92683431D01*
X128905733Y-92750405D01*
X128872321Y-92772730D01*
X128798070Y-92803485D01*
X128723817Y-92834242D01*
X128566170Y-92865600D01*
X128405430Y-92865600D01*
X128247783Y-92834242D01*
X128173530Y-92803485D01*
X128099279Y-92772730D01*
X128065867Y-92750405D01*
X127965633Y-92683431D01*
X127851969Y-92569767D01*
X127768371Y-92444653D01*
X127762670Y-92436121D01*
X127711540Y-92312681D01*
X127701158Y-92287617D01*
X127669800Y-92129970D01*
X127669800Y-91969230D01*
X127701158Y-91811583D01*
X127762670Y-91663079D01*
X127800380Y-91606642D01*
X127851969Y-91529433D01*
X127965633Y-91415769D01*
X128099278Y-91326471D01*
X128099279Y-91326470D01*
X128247783Y-91264958D01*
X128405430Y-91233600D01*
X128566170Y-91233600D01*
X128723817Y-91264958D01*
G37*
G36*
X131263817Y-91264958D02*
G01*
X131412321Y-91326470D01*
X131412322Y-91326471D01*
X131545967Y-91415769D01*
X131659631Y-91529433D01*
X131711220Y-91606642D01*
X131748930Y-91663079D01*
X131810442Y-91811583D01*
X131841800Y-91969230D01*
X131841800Y-92129970D01*
X131810442Y-92287617D01*
X131800060Y-92312681D01*
X131748930Y-92436121D01*
X131743229Y-92444653D01*
X131659631Y-92569767D01*
X131545967Y-92683431D01*
X131445733Y-92750405D01*
X131412321Y-92772730D01*
X131338070Y-92803485D01*
X131263817Y-92834242D01*
X131106170Y-92865600D01*
X130945430Y-92865600D01*
X130787783Y-92834242D01*
X130713530Y-92803485D01*
X130639279Y-92772730D01*
X130605867Y-92750405D01*
X130505633Y-92683431D01*
X130391969Y-92569767D01*
X130308371Y-92444653D01*
X130302670Y-92436121D01*
X130251540Y-92312681D01*
X130241158Y-92287617D01*
X130209800Y-92129970D01*
X130209800Y-91969230D01*
X130241158Y-91811583D01*
X130302670Y-91663079D01*
X130340380Y-91606642D01*
X130391969Y-91529433D01*
X130505633Y-91415769D01*
X130639278Y-91326471D01*
X130639279Y-91326470D01*
X130787783Y-91264958D01*
X130945430Y-91233600D01*
X131106170Y-91233600D01*
X131263817Y-91264958D01*
G37*
G36*
X133803817Y-91264958D02*
G01*
X133952321Y-91326470D01*
X133952322Y-91326471D01*
X134085967Y-91415769D01*
X134199631Y-91529433D01*
X134251220Y-91606642D01*
X134288930Y-91663079D01*
X134350442Y-91811583D01*
X134381800Y-91969230D01*
X134381800Y-92129970D01*
X134350442Y-92287617D01*
X134340060Y-92312681D01*
X134288930Y-92436121D01*
X134283229Y-92444653D01*
X134199631Y-92569767D01*
X134085967Y-92683431D01*
X133985733Y-92750405D01*
X133952321Y-92772730D01*
X133878070Y-92803485D01*
X133803817Y-92834242D01*
X133646170Y-92865600D01*
X133485430Y-92865600D01*
X133327783Y-92834242D01*
X133253530Y-92803485D01*
X133179279Y-92772730D01*
X133145867Y-92750405D01*
X133045633Y-92683431D01*
X132931969Y-92569767D01*
X132848371Y-92444653D01*
X132842670Y-92436121D01*
X132791540Y-92312681D01*
X132781158Y-92287617D01*
X132749800Y-92129970D01*
X132749800Y-91969230D01*
X132781158Y-91811583D01*
X132842670Y-91663079D01*
X132880380Y-91606642D01*
X132931969Y-91529433D01*
X133045633Y-91415769D01*
X133179278Y-91326471D01*
X133179279Y-91326470D01*
X133327783Y-91264958D01*
X133485430Y-91233600D01*
X133646170Y-91233600D01*
X133803817Y-91264958D01*
G37*
G36*
X103323817Y-91264958D02*
G01*
X103472321Y-91326470D01*
X103472322Y-91326471D01*
X103605967Y-91415769D01*
X103719631Y-91529433D01*
X103771220Y-91606642D01*
X103808930Y-91663079D01*
X103839685Y-91737330D01*
X103870442Y-91811583D01*
X103901800Y-91969230D01*
X103901800Y-92129970D01*
X103870442Y-92287617D01*
X103860060Y-92312681D01*
X103808930Y-92436121D01*
X103803229Y-92444653D01*
X103719631Y-92569767D01*
X103605967Y-92683431D01*
X103505733Y-92750405D01*
X103472321Y-92772730D01*
X103398070Y-92803485D01*
X103323817Y-92834242D01*
X103166170Y-92865600D01*
X103005430Y-92865600D01*
X102847783Y-92834242D01*
X102773530Y-92803485D01*
X102699279Y-92772730D01*
X102665867Y-92750405D01*
X102565633Y-92683431D01*
X102451969Y-92569767D01*
X102368371Y-92444653D01*
X102362670Y-92436121D01*
X102311540Y-92312681D01*
X102301158Y-92287617D01*
X102269800Y-92129970D01*
X102269800Y-91969230D01*
X102301158Y-91811583D01*
X102362670Y-91663079D01*
X102400380Y-91606642D01*
X102451969Y-91529433D01*
X102565633Y-91415769D01*
X102699278Y-91326471D01*
X102699279Y-91326470D01*
X102847783Y-91264958D01*
X103005430Y-91233600D01*
X103166170Y-91233600D01*
X103323817Y-91264958D01*
G37*
G36*
X100783817Y-91264958D02*
G01*
X100932321Y-91326470D01*
X100932322Y-91326471D01*
X101065967Y-91415769D01*
X101179631Y-91529433D01*
X101231220Y-91606642D01*
X101268930Y-91663079D01*
X101299685Y-91737330D01*
X101330442Y-91811583D01*
X101361800Y-91969230D01*
X101361800Y-92129970D01*
X101330442Y-92287617D01*
X101320060Y-92312681D01*
X101268930Y-92436121D01*
X101263229Y-92444653D01*
X101179631Y-92569767D01*
X101065967Y-92683431D01*
X100965733Y-92750405D01*
X100932321Y-92772730D01*
X100858070Y-92803485D01*
X100783817Y-92834242D01*
X100626170Y-92865600D01*
X100465430Y-92865600D01*
X100307783Y-92834242D01*
X100233530Y-92803485D01*
X100159279Y-92772730D01*
X100125867Y-92750405D01*
X100025633Y-92683431D01*
X99911969Y-92569767D01*
X99828371Y-92444653D01*
X99822670Y-92436121D01*
X99771540Y-92312681D01*
X99761158Y-92287617D01*
X99729800Y-92129970D01*
X99729800Y-91969230D01*
X99761158Y-91811583D01*
X99822670Y-91663079D01*
X99860380Y-91606642D01*
X99911969Y-91529433D01*
X100025633Y-91415769D01*
X100159278Y-91326471D01*
X100159279Y-91326470D01*
X100307783Y-91264958D01*
X100465430Y-91233600D01*
X100626170Y-91233600D01*
X100783817Y-91264958D01*
G37*
G36*
X98243817Y-91264958D02*
G01*
X98392321Y-91326470D01*
X98392322Y-91326471D01*
X98525967Y-91415769D01*
X98639631Y-91529433D01*
X98691220Y-91606642D01*
X98728930Y-91663079D01*
X98759685Y-91737330D01*
X98790442Y-91811583D01*
X98821800Y-91969230D01*
X98821800Y-92129970D01*
X98790442Y-92287617D01*
X98780060Y-92312681D01*
X98728930Y-92436121D01*
X98723229Y-92444653D01*
X98639631Y-92569767D01*
X98525967Y-92683431D01*
X98425733Y-92750405D01*
X98392321Y-92772730D01*
X98318070Y-92803485D01*
X98243817Y-92834242D01*
X98086170Y-92865600D01*
X97925430Y-92865600D01*
X97767783Y-92834242D01*
X97693530Y-92803485D01*
X97619279Y-92772730D01*
X97585867Y-92750405D01*
X97485633Y-92683431D01*
X97371969Y-92569767D01*
X97288371Y-92444653D01*
X97282670Y-92436121D01*
X97231540Y-92312681D01*
X97221158Y-92287617D01*
X97189800Y-92129970D01*
X97189800Y-91969230D01*
X97221158Y-91811583D01*
X97282670Y-91663079D01*
X97320380Y-91606642D01*
X97371969Y-91529433D01*
X97485633Y-91415769D01*
X97619278Y-91326471D01*
X97619279Y-91326470D01*
X97767783Y-91264958D01*
X97925430Y-91233600D01*
X98086170Y-91233600D01*
X98243817Y-91264958D01*
G37*
G36*
X80463817Y-91264958D02*
G01*
X80612321Y-91326470D01*
X80612322Y-91326471D01*
X80745967Y-91415769D01*
X80859631Y-91529433D01*
X80911220Y-91606642D01*
X80948930Y-91663079D01*
X80979685Y-91737330D01*
X81010442Y-91811583D01*
X81041800Y-91969230D01*
X81041800Y-92129970D01*
X81010442Y-92287617D01*
X81000060Y-92312681D01*
X80948930Y-92436121D01*
X80943229Y-92444653D01*
X80859631Y-92569767D01*
X80745967Y-92683431D01*
X80645733Y-92750405D01*
X80612321Y-92772730D01*
X80538070Y-92803485D01*
X80463817Y-92834242D01*
X80306170Y-92865600D01*
X80145430Y-92865600D01*
X79987783Y-92834242D01*
X79913530Y-92803485D01*
X79839279Y-92772730D01*
X79805867Y-92750405D01*
X79705633Y-92683431D01*
X79591969Y-92569767D01*
X79508371Y-92444653D01*
X79502670Y-92436121D01*
X79451540Y-92312681D01*
X79441158Y-92287617D01*
X79409800Y-92129970D01*
X79409800Y-91969230D01*
X79441158Y-91811583D01*
X79502670Y-91663079D01*
X79540380Y-91606642D01*
X79591969Y-91529433D01*
X79705633Y-91415769D01*
X79839278Y-91326471D01*
X79839279Y-91326470D01*
X79987783Y-91264958D01*
X80145430Y-91233600D01*
X80306170Y-91233600D01*
X80463817Y-91264958D01*
G37*
G36*
X83003817Y-91264958D02*
G01*
X83152321Y-91326470D01*
X83152322Y-91326471D01*
X83285967Y-91415769D01*
X83399631Y-91529433D01*
X83451220Y-91606642D01*
X83488930Y-91663079D01*
X83519685Y-91737330D01*
X83550442Y-91811583D01*
X83581800Y-91969230D01*
X83581800Y-92129970D01*
X83550442Y-92287617D01*
X83540060Y-92312681D01*
X83488930Y-92436121D01*
X83483229Y-92444653D01*
X83399631Y-92569767D01*
X83285967Y-92683431D01*
X83185733Y-92750405D01*
X83152321Y-92772730D01*
X83078070Y-92803485D01*
X83003817Y-92834242D01*
X82846170Y-92865600D01*
X82685430Y-92865600D01*
X82527783Y-92834242D01*
X82453530Y-92803485D01*
X82379279Y-92772730D01*
X82345867Y-92750405D01*
X82245633Y-92683431D01*
X82131969Y-92569767D01*
X82048371Y-92444653D01*
X82042670Y-92436121D01*
X81991540Y-92312681D01*
X81981158Y-92287617D01*
X81949800Y-92129970D01*
X81949800Y-91969230D01*
X81981158Y-91811583D01*
X82042670Y-91663079D01*
X82080380Y-91606642D01*
X82131969Y-91529433D01*
X82245633Y-91415769D01*
X82379278Y-91326471D01*
X82379279Y-91326470D01*
X82527783Y-91264958D01*
X82685430Y-91233600D01*
X82846170Y-91233600D01*
X83003817Y-91264958D01*
G37*
G36*
X85543817Y-91264958D02*
G01*
X85692321Y-91326470D01*
X85692322Y-91326471D01*
X85825967Y-91415769D01*
X85939631Y-91529433D01*
X85991220Y-91606642D01*
X86028930Y-91663079D01*
X86059685Y-91737330D01*
X86090442Y-91811583D01*
X86121800Y-91969230D01*
X86121800Y-92129970D01*
X86090442Y-92287617D01*
X86080060Y-92312681D01*
X86028930Y-92436121D01*
X86023229Y-92444653D01*
X85939631Y-92569767D01*
X85825967Y-92683431D01*
X85725733Y-92750405D01*
X85692321Y-92772730D01*
X85618070Y-92803485D01*
X85543817Y-92834242D01*
X85386170Y-92865600D01*
X85225430Y-92865600D01*
X85067783Y-92834242D01*
X84993530Y-92803485D01*
X84919279Y-92772730D01*
X84885867Y-92750405D01*
X84785633Y-92683431D01*
X84671969Y-92569767D01*
X84588371Y-92444653D01*
X84582670Y-92436121D01*
X84531540Y-92312681D01*
X84521158Y-92287617D01*
X84489800Y-92129970D01*
X84489800Y-91969230D01*
X84521158Y-91811583D01*
X84582670Y-91663079D01*
X84620380Y-91606642D01*
X84671969Y-91529433D01*
X84785633Y-91415769D01*
X84919278Y-91326471D01*
X84919279Y-91326470D01*
X85067783Y-91264958D01*
X85225430Y-91233600D01*
X85386170Y-91233600D01*
X85543817Y-91264958D01*
G37*
G36*
X88083817Y-91264958D02*
G01*
X88232321Y-91326470D01*
X88232322Y-91326471D01*
X88365967Y-91415769D01*
X88479631Y-91529433D01*
X88531220Y-91606642D01*
X88568930Y-91663079D01*
X88599685Y-91737330D01*
X88630442Y-91811583D01*
X88661800Y-91969230D01*
X88661800Y-92129970D01*
X88630442Y-92287617D01*
X88620060Y-92312681D01*
X88568930Y-92436121D01*
X88563229Y-92444653D01*
X88479631Y-92569767D01*
X88365967Y-92683431D01*
X88265733Y-92750405D01*
X88232321Y-92772730D01*
X88158070Y-92803485D01*
X88083817Y-92834242D01*
X87926170Y-92865600D01*
X87765430Y-92865600D01*
X87607783Y-92834242D01*
X87533530Y-92803485D01*
X87459279Y-92772730D01*
X87425867Y-92750405D01*
X87325633Y-92683431D01*
X87211969Y-92569767D01*
X87128371Y-92444653D01*
X87122670Y-92436121D01*
X87071540Y-92312681D01*
X87061158Y-92287617D01*
X87029800Y-92129970D01*
X87029800Y-91969230D01*
X87061158Y-91811583D01*
X87122670Y-91663079D01*
X87160380Y-91606642D01*
X87211969Y-91529433D01*
X87325633Y-91415769D01*
X87459278Y-91326471D01*
X87459279Y-91326470D01*
X87607783Y-91264958D01*
X87765430Y-91233600D01*
X87926170Y-91233600D01*
X88083817Y-91264958D01*
G37*
G36*
X90623817Y-91264958D02*
G01*
X90772321Y-91326470D01*
X90772322Y-91326471D01*
X90905967Y-91415769D01*
X91019631Y-91529433D01*
X91071220Y-91606642D01*
X91108930Y-91663079D01*
X91139685Y-91737330D01*
X91170442Y-91811583D01*
X91201800Y-91969230D01*
X91201800Y-92129970D01*
X91170442Y-92287617D01*
X91160060Y-92312681D01*
X91108930Y-92436121D01*
X91103229Y-92444653D01*
X91019631Y-92569767D01*
X90905967Y-92683431D01*
X90805733Y-92750405D01*
X90772321Y-92772730D01*
X90698070Y-92803485D01*
X90623817Y-92834242D01*
X90466170Y-92865600D01*
X90305430Y-92865600D01*
X90147783Y-92834242D01*
X90073530Y-92803485D01*
X89999279Y-92772730D01*
X89965867Y-92750405D01*
X89865633Y-92683431D01*
X89751969Y-92569767D01*
X89668371Y-92444653D01*
X89662670Y-92436121D01*
X89611540Y-92312681D01*
X89601158Y-92287617D01*
X89569800Y-92129970D01*
X89569800Y-91969230D01*
X89601158Y-91811583D01*
X89662670Y-91663079D01*
X89700380Y-91606642D01*
X89751969Y-91529433D01*
X89865633Y-91415769D01*
X89999278Y-91326471D01*
X89999279Y-91326470D01*
X90147783Y-91264958D01*
X90305430Y-91233600D01*
X90466170Y-91233600D01*
X90623817Y-91264958D01*
G37*
G36*
X93163817Y-91264958D02*
G01*
X93312321Y-91326470D01*
X93312322Y-91326471D01*
X93445967Y-91415769D01*
X93559631Y-91529433D01*
X93611220Y-91606642D01*
X93648930Y-91663079D01*
X93679685Y-91737330D01*
X93710442Y-91811583D01*
X93741800Y-91969230D01*
X93741800Y-92129970D01*
X93710442Y-92287617D01*
X93700060Y-92312681D01*
X93648930Y-92436121D01*
X93643229Y-92444653D01*
X93559631Y-92569767D01*
X93445967Y-92683431D01*
X93345733Y-92750405D01*
X93312321Y-92772730D01*
X93238070Y-92803485D01*
X93163817Y-92834242D01*
X93006170Y-92865600D01*
X92845430Y-92865600D01*
X92687783Y-92834242D01*
X92613530Y-92803485D01*
X92539279Y-92772730D01*
X92505867Y-92750405D01*
X92405633Y-92683431D01*
X92291969Y-92569767D01*
X92208371Y-92444653D01*
X92202670Y-92436121D01*
X92151540Y-92312681D01*
X92141158Y-92287617D01*
X92109800Y-92129970D01*
X92109800Y-91969230D01*
X92141158Y-91811583D01*
X92202670Y-91663079D01*
X92240380Y-91606642D01*
X92291969Y-91529433D01*
X92405633Y-91415769D01*
X92539278Y-91326471D01*
X92539279Y-91326470D01*
X92687783Y-91264958D01*
X92845430Y-91233600D01*
X93006170Y-91233600D01*
X93163817Y-91264958D01*
G37*
G36*
X95703817Y-91264958D02*
G01*
X95852321Y-91326470D01*
X95852322Y-91326471D01*
X95985967Y-91415769D01*
X96099631Y-91529433D01*
X96151220Y-91606642D01*
X96188930Y-91663079D01*
X96219685Y-91737330D01*
X96250442Y-91811583D01*
X96281800Y-91969230D01*
X96281800Y-92129970D01*
X96250442Y-92287617D01*
X96240060Y-92312681D01*
X96188930Y-92436121D01*
X96183229Y-92444653D01*
X96099631Y-92569767D01*
X95985967Y-92683431D01*
X95885733Y-92750405D01*
X95852321Y-92772730D01*
X95778070Y-92803485D01*
X95703817Y-92834242D01*
X95546170Y-92865600D01*
X95385430Y-92865600D01*
X95227783Y-92834242D01*
X95153530Y-92803485D01*
X95079279Y-92772730D01*
X95045867Y-92750405D01*
X94945633Y-92683431D01*
X94831969Y-92569767D01*
X94748371Y-92444653D01*
X94742670Y-92436121D01*
X94691540Y-92312681D01*
X94681158Y-92287617D01*
X94649800Y-92129970D01*
X94649800Y-91969230D01*
X94681158Y-91811583D01*
X94742670Y-91663079D01*
X94780380Y-91606642D01*
X94831969Y-91529433D01*
X94945633Y-91415769D01*
X95079278Y-91326471D01*
X95079279Y-91326470D01*
X95227783Y-91264958D01*
X95385430Y-91233600D01*
X95546170Y-91233600D01*
X95703817Y-91264958D01*
G37*
G36*
X136343817Y-91264958D02*
G01*
X136492321Y-91326470D01*
X136492322Y-91326471D01*
X136625967Y-91415769D01*
X136739631Y-91529433D01*
X136791220Y-91606642D01*
X136828930Y-91663079D01*
X136890442Y-91811583D01*
X136921800Y-91969230D01*
X136921800Y-92129970D01*
X136890442Y-92287617D01*
X136880060Y-92312681D01*
X136828930Y-92436121D01*
X136823229Y-92444653D01*
X136739631Y-92569767D01*
X136625967Y-92683431D01*
X136525733Y-92750405D01*
X136492321Y-92772730D01*
X136418070Y-92803485D01*
X136343817Y-92834242D01*
X136186170Y-92865600D01*
X136025430Y-92865600D01*
X135867783Y-92834242D01*
X135793530Y-92803485D01*
X135719279Y-92772730D01*
X135685867Y-92750405D01*
X135585633Y-92683431D01*
X135471969Y-92569767D01*
X135388371Y-92444653D01*
X135382670Y-92436121D01*
X135331540Y-92312681D01*
X135321158Y-92287617D01*
X135289800Y-92129970D01*
X135289800Y-91969230D01*
X135321158Y-91811583D01*
X135382670Y-91663079D01*
X135420380Y-91606642D01*
X135471969Y-91529433D01*
X135585633Y-91415769D01*
X135719278Y-91326471D01*
X135719279Y-91326470D01*
X135867783Y-91264958D01*
X136025430Y-91233600D01*
X136186170Y-91233600D01*
X136343817Y-91264958D01*
G37*
G36*
X169029400Y-92645800D02*
G01*
X167227400Y-92645800D01*
X167227400Y-90843800D01*
X169029400Y-90843800D01*
X169029400Y-92645800D01*
G37*
G36*
X165701912Y-90848727D02*
G01*
X165851212Y-90878424D01*
X166015184Y-90946344D01*
X166162754Y-91044947D01*
X166288253Y-91170446D01*
X166386856Y-91318016D01*
X166454776Y-91481988D01*
X166489400Y-91656059D01*
X166489400Y-91833541D01*
X166454776Y-92007612D01*
X166386856Y-92171584D01*
X166288253Y-92319154D01*
X166162754Y-92444653D01*
X166015184Y-92543256D01*
X165851212Y-92611176D01*
X165701912Y-92640873D01*
X165677142Y-92645800D01*
X165499658Y-92645800D01*
X165474888Y-92640873D01*
X165325588Y-92611176D01*
X165161616Y-92543256D01*
X165014046Y-92444653D01*
X164888547Y-92319154D01*
X164789944Y-92171584D01*
X164722024Y-92007612D01*
X164687400Y-91833541D01*
X164687400Y-91656059D01*
X164722024Y-91481988D01*
X164789944Y-91318016D01*
X164888547Y-91170446D01*
X165014046Y-91044947D01*
X165161616Y-90946344D01*
X165325588Y-90878424D01*
X165474888Y-90848727D01*
X165499658Y-90843800D01*
X165677142Y-90843800D01*
X165701912Y-90848727D01*
G37*
G36*
X174060428Y-90951903D02*
G01*
X174215300Y-91016053D01*
X174354681Y-91109185D01*
X174354685Y-91109189D01*
X174361580Y-91113796D01*
X174367754Y-91118862D01*
X174389365Y-91130413D01*
X174412814Y-91137526D01*
X174437200Y-91139928D01*
X174461586Y-91137526D01*
X174485035Y-91130413D01*
X174506646Y-91118862D01*
X174512820Y-91113796D01*
X174519715Y-91109189D01*
X174519719Y-91109185D01*
X174659100Y-91016053D01*
X174813972Y-90951903D01*
X174978384Y-90919200D01*
X175146016Y-90919200D01*
X175310428Y-90951903D01*
X175465300Y-91016053D01*
X175604681Y-91109185D01*
X175723215Y-91227719D01*
X175816347Y-91367100D01*
X175880497Y-91521972D01*
X175913200Y-91686384D01*
X175913200Y-91854016D01*
X175880497Y-92018428D01*
X175816347Y-92173300D01*
X175723215Y-92312681D01*
X175604681Y-92431215D01*
X175465300Y-92524347D01*
X175310428Y-92588497D01*
X175146016Y-92621200D01*
X174978384Y-92621200D01*
X174813972Y-92588497D01*
X174659100Y-92524347D01*
X174519719Y-92431215D01*
X174519715Y-92431211D01*
X174512820Y-92426604D01*
X174506646Y-92421538D01*
X174485035Y-92409987D01*
X174461586Y-92402874D01*
X174437200Y-92400472D01*
X174412814Y-92402874D01*
X174389365Y-92409987D01*
X174367754Y-92421538D01*
X174361580Y-92426604D01*
X174354685Y-92431211D01*
X174354681Y-92431215D01*
X174215300Y-92524347D01*
X174060428Y-92588497D01*
X173896016Y-92621200D01*
X173728384Y-92621200D01*
X173563972Y-92588497D01*
X173409100Y-92524347D01*
X173269719Y-92431215D01*
X173151185Y-92312681D01*
X173058053Y-92173300D01*
X172993903Y-92018428D01*
X172961200Y-91854016D01*
X172961200Y-91686384D01*
X172993903Y-91521972D01*
X173058053Y-91367100D01*
X173151185Y-91227719D01*
X173269719Y-91109185D01*
X173409100Y-91016053D01*
X173563972Y-90951903D01*
X173728384Y-90919200D01*
X173896016Y-90919200D01*
X174060428Y-90951903D01*
G37*
G36*
X180310428Y-90951903D02*
G01*
X180465300Y-91016053D01*
X180604681Y-91109185D01*
X180604685Y-91109189D01*
X180611580Y-91113796D01*
X180617754Y-91118862D01*
X180639365Y-91130413D01*
X180662814Y-91137526D01*
X180687200Y-91139928D01*
X180711586Y-91137526D01*
X180735035Y-91130413D01*
X180756646Y-91118862D01*
X180762820Y-91113796D01*
X180769715Y-91109189D01*
X180769719Y-91109185D01*
X180909100Y-91016053D01*
X181063972Y-90951903D01*
X181228384Y-90919200D01*
X181396016Y-90919200D01*
X181560428Y-90951903D01*
X181715300Y-91016053D01*
X181854681Y-91109185D01*
X181973215Y-91227719D01*
X182066347Y-91367100D01*
X182130497Y-91521972D01*
X182163200Y-91686384D01*
X182163200Y-91854016D01*
X182130497Y-92018428D01*
X182066347Y-92173300D01*
X181973215Y-92312681D01*
X181854681Y-92431215D01*
X181715300Y-92524347D01*
X181560428Y-92588497D01*
X181396016Y-92621200D01*
X181228384Y-92621200D01*
X181063972Y-92588497D01*
X180909100Y-92524347D01*
X180769719Y-92431215D01*
X180769715Y-92431211D01*
X180762820Y-92426604D01*
X180756646Y-92421538D01*
X180735035Y-92409987D01*
X180711586Y-92402874D01*
X180687200Y-92400472D01*
X180662814Y-92402874D01*
X180639365Y-92409987D01*
X180617754Y-92421538D01*
X180611580Y-92426604D01*
X180604685Y-92431211D01*
X180604681Y-92431215D01*
X180465300Y-92524347D01*
X180310428Y-92588497D01*
X180146016Y-92621200D01*
X179978384Y-92621200D01*
X179813972Y-92588497D01*
X179659100Y-92524347D01*
X179519719Y-92431215D01*
X179401185Y-92312681D01*
X179308053Y-92173300D01*
X179243903Y-92018428D01*
X179211200Y-91854016D01*
X179211200Y-91686384D01*
X179243903Y-91521972D01*
X179308053Y-91367100D01*
X179401185Y-91227719D01*
X179519719Y-91109185D01*
X179659100Y-91016053D01*
X179813972Y-90951903D01*
X179978384Y-90919200D01*
X180146016Y-90919200D01*
X180310428Y-90951903D01*
G37*
G36*
X189527912Y-90467727D02*
G01*
X189677212Y-90497424D01*
X189841184Y-90565344D01*
X189988754Y-90663947D01*
X190114253Y-90789446D01*
X190212856Y-90937016D01*
X190280776Y-91100988D01*
X190315400Y-91275059D01*
X190315400Y-91452541D01*
X190280776Y-91626612D01*
X190212856Y-91790584D01*
X190114253Y-91938154D01*
X189988754Y-92063653D01*
X189841184Y-92162256D01*
X189677212Y-92230176D01*
X189527912Y-92259873D01*
X189503142Y-92264800D01*
X189325658Y-92264800D01*
X189300888Y-92259873D01*
X189151588Y-92230176D01*
X188987616Y-92162256D01*
X188840046Y-92063653D01*
X188714547Y-91938154D01*
X188615944Y-91790584D01*
X188548024Y-91626612D01*
X188513400Y-91452541D01*
X188513400Y-91275059D01*
X188548024Y-91100988D01*
X188615944Y-90937016D01*
X188714547Y-90789446D01*
X188840046Y-90663947D01*
X188987616Y-90565344D01*
X189151588Y-90497424D01*
X189300888Y-90467727D01*
X189325658Y-90462800D01*
X189503142Y-90462800D01*
X189527912Y-90467727D01*
G37*
G36*
X208750391Y-90663947D02*
G01*
X208792370Y-90672297D01*
X208910844Y-90721371D01*
X209017468Y-90792615D01*
X209108145Y-90883292D01*
X209173798Y-90981548D01*
X209179390Y-90989918D01*
X209228463Y-91108390D01*
X209252199Y-91227719D01*
X209253480Y-91234162D01*
X209253480Y-91362398D01*
X209228463Y-91488170D01*
X209179389Y-91606644D01*
X209108145Y-91713268D01*
X209017468Y-91803945D01*
X208910844Y-91875189D01*
X208910843Y-91875190D01*
X208910842Y-91875190D01*
X208792370Y-91924263D01*
X208666599Y-91949280D01*
X208538361Y-91949280D01*
X208412590Y-91924263D01*
X208294118Y-91875190D01*
X208294117Y-91875190D01*
X208294116Y-91875189D01*
X208187492Y-91803945D01*
X208096815Y-91713268D01*
X208025571Y-91606644D01*
X207976497Y-91488170D01*
X207951480Y-91362398D01*
X207951480Y-91234162D01*
X207952762Y-91227719D01*
X207976497Y-91108390D01*
X208025570Y-90989918D01*
X208031163Y-90981548D01*
X208096815Y-90883292D01*
X208187492Y-90792615D01*
X208294116Y-90721371D01*
X208412590Y-90672297D01*
X208454569Y-90663947D01*
X208538361Y-90647280D01*
X208666599Y-90647280D01*
X208750391Y-90663947D01*
G37*
G36*
X74994433Y-89058893D02*
G01*
X75084657Y-89076839D01*
X75190267Y-89120585D01*
X75339621Y-89182449D01*
X75339622Y-89182450D01*
X75569086Y-89335772D01*
X75764228Y-89530914D01*
X75825260Y-89622256D01*
X75917551Y-89760379D01*
X75944028Y-89824300D01*
X76023161Y-90015343D01*
X76032683Y-90063213D01*
X76077000Y-90286012D01*
X76077000Y-90561988D01*
X76045297Y-90721370D01*
X76023161Y-90832657D01*
X76004203Y-90878425D01*
X75917551Y-91087621D01*
X75866675Y-91163763D01*
X75764228Y-91317086D01*
X75569086Y-91512228D01*
X75427785Y-91606642D01*
X75339621Y-91665551D01*
X75224422Y-91713268D01*
X75084657Y-91771161D01*
X74994433Y-91789107D01*
X74813988Y-91825000D01*
X74538012Y-91825000D01*
X74357567Y-91789107D01*
X74267343Y-91771161D01*
X74127578Y-91713268D01*
X74012379Y-91665551D01*
X73924215Y-91606642D01*
X73782914Y-91512228D01*
X73587772Y-91317086D01*
X73485325Y-91163763D01*
X73434449Y-91087621D01*
X73347797Y-90878425D01*
X73328839Y-90832657D01*
X73306703Y-90721370D01*
X73275000Y-90561988D01*
X73275000Y-90286012D01*
X73319317Y-90063213D01*
X73328839Y-90015343D01*
X73407972Y-89824300D01*
X73434449Y-89760379D01*
X73526740Y-89622256D01*
X73587772Y-89530914D01*
X73782914Y-89335772D01*
X74012378Y-89182450D01*
X74012379Y-89182449D01*
X74161733Y-89120585D01*
X74267343Y-89076839D01*
X74357567Y-89058893D01*
X74538012Y-89023000D01*
X74813988Y-89023000D01*
X74994433Y-89058893D01*
G37*
G36*
X204256728Y-88249446D02*
G01*
X204443251Y-88286548D01*
X204748263Y-88412888D01*
X205022767Y-88596306D01*
X205256214Y-88829753D01*
X205439632Y-89104257D01*
X205565972Y-89409269D01*
X205590169Y-89530914D01*
X205628736Y-89724800D01*
X205630380Y-89733068D01*
X205630380Y-90063212D01*
X205565972Y-90387011D01*
X205439632Y-90692023D01*
X205256214Y-90966527D01*
X205022767Y-91199974D01*
X204748263Y-91383392D01*
X204443251Y-91509732D01*
X204344223Y-91529430D01*
X204119453Y-91574140D01*
X203789307Y-91574140D01*
X203564537Y-91529430D01*
X203465509Y-91509732D01*
X203160497Y-91383392D01*
X202885993Y-91199974D01*
X202652546Y-90966527D01*
X202469128Y-90692023D01*
X202342788Y-90387011D01*
X202278380Y-90063212D01*
X202278380Y-89733068D01*
X202280025Y-89724800D01*
X202318591Y-89530914D01*
X202342788Y-89409269D01*
X202469128Y-89104257D01*
X202652546Y-88829753D01*
X202885993Y-88596306D01*
X203160497Y-88412888D01*
X203465509Y-88286548D01*
X203652032Y-88249446D01*
X203789307Y-88222140D01*
X204119453Y-88222140D01*
X204256728Y-88249446D01*
G37*
G36*
X68797428Y-89409103D02*
G01*
X68952300Y-89473253D01*
X69091681Y-89566385D01*
X69091685Y-89566389D01*
X69098580Y-89570996D01*
X69104754Y-89576062D01*
X69126365Y-89587613D01*
X69149814Y-89594726D01*
X69174200Y-89597128D01*
X69198586Y-89594726D01*
X69222035Y-89587613D01*
X69243646Y-89576062D01*
X69249820Y-89570996D01*
X69256715Y-89566389D01*
X69256719Y-89566385D01*
X69396100Y-89473253D01*
X69550972Y-89409103D01*
X69715384Y-89376400D01*
X69883016Y-89376400D01*
X70047428Y-89409103D01*
X70202300Y-89473253D01*
X70341681Y-89566385D01*
X70460215Y-89684919D01*
X70553347Y-89824300D01*
X70617497Y-89979172D01*
X70650200Y-90143584D01*
X70650200Y-90311216D01*
X70617497Y-90475628D01*
X70553347Y-90630500D01*
X70460215Y-90769881D01*
X70341681Y-90888415D01*
X70202300Y-90981547D01*
X70047428Y-91045697D01*
X69883016Y-91078400D01*
X69715384Y-91078400D01*
X69550972Y-91045697D01*
X69396100Y-90981547D01*
X69256719Y-90888415D01*
X69256715Y-90888411D01*
X69249820Y-90883804D01*
X69243646Y-90878738D01*
X69222035Y-90867187D01*
X69198586Y-90860074D01*
X69174200Y-90857672D01*
X69149814Y-90860074D01*
X69126365Y-90867187D01*
X69104754Y-90878738D01*
X69098580Y-90883804D01*
X69091685Y-90888411D01*
X69091681Y-90888415D01*
X68952300Y-90981547D01*
X68797428Y-91045697D01*
X68633016Y-91078400D01*
X68465384Y-91078400D01*
X68300972Y-91045697D01*
X68146100Y-90981547D01*
X68006719Y-90888415D01*
X67888185Y-90769881D01*
X67795053Y-90630500D01*
X67730903Y-90475628D01*
X67698200Y-90311216D01*
X67698200Y-90143584D01*
X67730903Y-89979172D01*
X67795053Y-89824300D01*
X67888185Y-89684919D01*
X68006719Y-89566385D01*
X68146100Y-89473253D01*
X68300972Y-89409103D01*
X68465384Y-89376400D01*
X68633016Y-89376400D01*
X68797428Y-89409103D01*
G37*
G36*
X62547428Y-89409103D02*
G01*
X62702300Y-89473253D01*
X62841681Y-89566385D01*
X62841685Y-89566389D01*
X62848580Y-89570996D01*
X62854754Y-89576062D01*
X62876365Y-89587613D01*
X62899814Y-89594726D01*
X62924200Y-89597128D01*
X62948586Y-89594726D01*
X62972035Y-89587613D01*
X62993646Y-89576062D01*
X62999820Y-89570996D01*
X63006715Y-89566389D01*
X63006719Y-89566385D01*
X63146100Y-89473253D01*
X63300972Y-89409103D01*
X63465384Y-89376400D01*
X63633016Y-89376400D01*
X63797428Y-89409103D01*
X63952300Y-89473253D01*
X64091681Y-89566385D01*
X64210215Y-89684919D01*
X64303347Y-89824300D01*
X64367497Y-89979172D01*
X64400200Y-90143584D01*
X64400200Y-90311216D01*
X64367497Y-90475628D01*
X64303347Y-90630500D01*
X64210215Y-90769881D01*
X64091681Y-90888415D01*
X63952300Y-90981547D01*
X63797428Y-91045697D01*
X63633016Y-91078400D01*
X63465384Y-91078400D01*
X63300972Y-91045697D01*
X63146100Y-90981547D01*
X63006719Y-90888415D01*
X63006715Y-90888411D01*
X62999820Y-90883804D01*
X62993646Y-90878738D01*
X62972035Y-90867187D01*
X62948586Y-90860074D01*
X62924200Y-90857672D01*
X62899814Y-90860074D01*
X62876365Y-90867187D01*
X62854754Y-90878738D01*
X62848580Y-90883804D01*
X62841685Y-90888411D01*
X62841681Y-90888415D01*
X62702300Y-90981547D01*
X62547428Y-91045697D01*
X62383016Y-91078400D01*
X62215384Y-91078400D01*
X62050972Y-91045697D01*
X61896100Y-90981547D01*
X61756719Y-90888415D01*
X61638185Y-90769881D01*
X61545053Y-90630500D01*
X61480903Y-90475628D01*
X61448200Y-90311216D01*
X61448200Y-90143584D01*
X61480903Y-89979172D01*
X61545053Y-89824300D01*
X61638185Y-89684919D01*
X61756719Y-89566385D01*
X61896100Y-89473253D01*
X62050972Y-89409103D01*
X62215384Y-89376400D01*
X62383016Y-89376400D01*
X62547428Y-89409103D01*
G37*
G36*
X160706374Y-87786295D02*
G01*
X160809657Y-87806839D01*
X160915267Y-87850585D01*
X161064621Y-87912449D01*
X161079286Y-87922248D01*
X161294086Y-88065772D01*
X161489228Y-88260914D01*
X161533395Y-88327015D01*
X161642551Y-88490379D01*
X161675705Y-88570420D01*
X161743901Y-88735058D01*
X161748161Y-88745344D01*
X161802000Y-89016012D01*
X161802000Y-89291988D01*
X161780882Y-89398154D01*
X161748161Y-89562657D01*
X161723474Y-89622256D01*
X161642551Y-89817621D01*
X161642550Y-89817622D01*
X161489228Y-90047086D01*
X161294086Y-90242228D01*
X161173800Y-90322600D01*
X161064621Y-90395551D01*
X160915267Y-90457415D01*
X160809657Y-90501161D01*
X160719433Y-90519107D01*
X160538988Y-90555000D01*
X160263012Y-90555000D01*
X160082567Y-90519107D01*
X159992343Y-90501161D01*
X159886733Y-90457415D01*
X159737379Y-90395551D01*
X159628200Y-90322600D01*
X159507914Y-90242228D01*
X159312772Y-90047086D01*
X159159450Y-89817622D01*
X159159449Y-89817621D01*
X159078526Y-89622256D01*
X159053839Y-89562657D01*
X159021118Y-89398154D01*
X159000000Y-89291988D01*
X159000000Y-89016012D01*
X159053839Y-88745344D01*
X159058100Y-88735058D01*
X159126295Y-88570420D01*
X159159449Y-88490379D01*
X159268605Y-88327015D01*
X159312772Y-88260914D01*
X159507914Y-88065772D01*
X159722714Y-87922248D01*
X159737379Y-87912449D01*
X159886733Y-87850585D01*
X159992343Y-87806839D01*
X160095626Y-87786295D01*
X160263012Y-87753000D01*
X160538988Y-87753000D01*
X160706374Y-87786295D01*
G37*
G36*
X136342942Y-88727842D02*
G01*
X136490901Y-88789129D01*
X136624055Y-88878099D01*
X136737301Y-88991345D01*
X136826271Y-89124499D01*
X136887558Y-89272458D01*
X136918800Y-89429525D01*
X136918800Y-89589675D01*
X136887558Y-89746742D01*
X136826271Y-89894701D01*
X136737301Y-90027855D01*
X136624055Y-90141101D01*
X136490901Y-90230071D01*
X136342942Y-90291358D01*
X136185875Y-90322600D01*
X136025725Y-90322600D01*
X135868658Y-90291358D01*
X135720699Y-90230071D01*
X135587545Y-90141101D01*
X135474299Y-90027855D01*
X135385329Y-89894701D01*
X135324042Y-89746742D01*
X135292800Y-89589675D01*
X135292800Y-89429525D01*
X135324042Y-89272458D01*
X135385329Y-89124499D01*
X135474299Y-88991345D01*
X135587545Y-88878099D01*
X135720699Y-88789129D01*
X135868658Y-88727842D01*
X136025725Y-88696600D01*
X136185875Y-88696600D01*
X136342942Y-88727842D01*
G37*
G36*
X189527912Y-87927727D02*
G01*
X189677212Y-87957424D01*
X189841184Y-88025344D01*
X189988754Y-88123947D01*
X190114253Y-88249446D01*
X190212856Y-88397016D01*
X190280776Y-88560988D01*
X190307750Y-88696600D01*
X190313965Y-88727842D01*
X190315400Y-88735059D01*
X190315400Y-88912541D01*
X190280776Y-89086612D01*
X190212856Y-89250584D01*
X190114253Y-89398154D01*
X189988754Y-89523653D01*
X189841184Y-89622256D01*
X189677212Y-89690176D01*
X189527912Y-89719873D01*
X189503142Y-89724800D01*
X189325658Y-89724800D01*
X189300888Y-89719873D01*
X189151588Y-89690176D01*
X188987616Y-89622256D01*
X188840046Y-89523653D01*
X188714547Y-89398154D01*
X188615944Y-89250584D01*
X188548024Y-89086612D01*
X188513400Y-88912541D01*
X188513400Y-88735059D01*
X188514836Y-88727842D01*
X188521050Y-88696600D01*
X188548024Y-88560988D01*
X188615944Y-88397016D01*
X188714547Y-88249446D01*
X188840046Y-88123947D01*
X188987616Y-88025344D01*
X189151588Y-87957424D01*
X189300888Y-87927727D01*
X189325658Y-87922800D01*
X189503142Y-87922800D01*
X189527912Y-87927727D01*
G37*
G36*
X195875380Y-88799140D02*
G01*
X194253380Y-88799140D01*
X194253380Y-87177140D01*
X195875380Y-87177140D01*
X195875380Y-88799140D01*
G37*
G36*
X206521539Y-87126140D02*
G01*
X206644664Y-87177140D01*
X206658212Y-87182752D01*
X206781215Y-87264940D01*
X206885820Y-87369545D01*
X206913934Y-87411621D01*
X206968009Y-87492550D01*
X207003934Y-87579280D01*
X207024620Y-87629221D01*
X207053480Y-87774313D01*
X207053480Y-87922247D01*
X207024620Y-88067339D01*
X206968008Y-88204012D01*
X206885820Y-88327015D01*
X206781215Y-88431620D01*
X206658212Y-88513808D01*
X206658211Y-88513809D01*
X206658210Y-88513809D01*
X206521539Y-88570420D01*
X206376448Y-88599280D01*
X206228512Y-88599280D01*
X206083421Y-88570420D01*
X205946750Y-88513809D01*
X205946749Y-88513809D01*
X205946748Y-88513808D01*
X205823745Y-88431620D01*
X205719140Y-88327015D01*
X205636952Y-88204012D01*
X205580340Y-88067339D01*
X205551480Y-87922247D01*
X205551480Y-87774313D01*
X205580340Y-87629221D01*
X205601026Y-87579280D01*
X205636951Y-87492550D01*
X205691026Y-87411621D01*
X205719140Y-87369545D01*
X205823745Y-87264940D01*
X205946748Y-87182752D01*
X205960297Y-87177140D01*
X206083421Y-87126140D01*
X206228512Y-87097280D01*
X206376448Y-87097280D01*
X206521539Y-87126140D01*
G37*
G36*
X185330400Y-88378600D02*
G01*
X183528400Y-88378600D01*
X183528400Y-86576600D01*
X185330400Y-86576600D01*
X185330400Y-88378600D01*
G37*
G36*
X165502228Y-86149703D02*
G01*
X165657100Y-86213853D01*
X165796481Y-86306985D01*
X165915015Y-86425519D01*
X166008147Y-86564900D01*
X166072297Y-86719772D01*
X166105000Y-86884184D01*
X166105000Y-87051816D01*
X166072297Y-87216228D01*
X166008147Y-87371100D01*
X165915015Y-87510481D01*
X165796481Y-87629015D01*
X165657100Y-87722147D01*
X165502228Y-87786297D01*
X165337816Y-87819000D01*
X165170184Y-87819000D01*
X165005772Y-87786297D01*
X164850900Y-87722147D01*
X164711519Y-87629015D01*
X164592985Y-87510481D01*
X164499853Y-87371100D01*
X164435703Y-87216228D01*
X164403000Y-87051816D01*
X164403000Y-86884184D01*
X164435703Y-86719772D01*
X164499853Y-86564900D01*
X164592985Y-86425519D01*
X164711519Y-86306985D01*
X164850900Y-86213853D01*
X165005772Y-86149703D01*
X165170184Y-86117000D01*
X165337816Y-86117000D01*
X165502228Y-86149703D01*
G37*
G36*
X169058228Y-86149703D02*
G01*
X169213100Y-86213853D01*
X169352481Y-86306985D01*
X169471015Y-86425519D01*
X169564147Y-86564900D01*
X169628297Y-86719772D01*
X169661000Y-86884184D01*
X169661000Y-87051816D01*
X169628297Y-87216228D01*
X169564147Y-87371100D01*
X169471015Y-87510481D01*
X169352481Y-87629015D01*
X169213100Y-87722147D01*
X169058228Y-87786297D01*
X168893816Y-87819000D01*
X168726184Y-87819000D01*
X168561772Y-87786297D01*
X168406900Y-87722147D01*
X168267519Y-87629015D01*
X168148985Y-87510481D01*
X168055853Y-87371100D01*
X167991703Y-87216228D01*
X167959000Y-87051816D01*
X167959000Y-86884184D01*
X167991703Y-86719772D01*
X168055853Y-86564900D01*
X168148985Y-86425519D01*
X168267519Y-86306985D01*
X168406900Y-86213853D01*
X168561772Y-86149703D01*
X168726184Y-86117000D01*
X168893816Y-86117000D01*
X169058228Y-86149703D01*
G37*
G36*
X203891322Y-86088195D02*
G01*
X203981539Y-86106140D01*
X204118212Y-86162752D01*
X204241215Y-86244940D01*
X204345820Y-86349545D01*
X204373934Y-86391621D01*
X204428009Y-86472550D01*
X204484620Y-86609221D01*
X204513480Y-86754312D01*
X204513480Y-86902248D01*
X204484620Y-87047339D01*
X204430855Y-87177140D01*
X204428008Y-87184012D01*
X204345820Y-87307015D01*
X204241215Y-87411620D01*
X204118212Y-87493808D01*
X204118211Y-87493809D01*
X204118210Y-87493809D01*
X203981539Y-87550420D01*
X203836448Y-87579280D01*
X203688512Y-87579280D01*
X203543421Y-87550420D01*
X203406750Y-87493809D01*
X203406749Y-87493809D01*
X203406748Y-87493808D01*
X203283745Y-87411620D01*
X203179140Y-87307015D01*
X203096952Y-87184012D01*
X203094106Y-87177140D01*
X203040340Y-87047339D01*
X203011480Y-86902248D01*
X203011480Y-86754312D01*
X203040340Y-86609221D01*
X203096951Y-86472550D01*
X203151026Y-86391621D01*
X203179140Y-86349545D01*
X203283745Y-86244940D01*
X203406748Y-86162752D01*
X203543421Y-86106140D01*
X203633638Y-86088195D01*
X203688512Y-86077280D01*
X203836448Y-86077280D01*
X203891322Y-86088195D01*
G37*
G36*
X197840940Y-85938306D02*
G01*
X197884563Y-85956375D01*
X197988533Y-85999441D01*
X198121362Y-86088195D01*
X198234325Y-86201158D01*
X198305037Y-86306985D01*
X198323080Y-86333989D01*
X198384214Y-86481580D01*
X198415380Y-86638262D01*
X198415380Y-86798018D01*
X198384214Y-86954700D01*
X198325156Y-87097280D01*
X198323079Y-87102293D01*
X198234325Y-87235122D01*
X198121362Y-87348085D01*
X197988533Y-87436839D01*
X197988532Y-87436840D01*
X197988531Y-87436840D01*
X197840940Y-87497974D01*
X197684258Y-87529140D01*
X197524502Y-87529140D01*
X197367820Y-87497974D01*
X197220229Y-87436840D01*
X197220228Y-87436840D01*
X197220227Y-87436839D01*
X197087398Y-87348085D01*
X196974435Y-87235122D01*
X196885681Y-87102293D01*
X196883605Y-87097280D01*
X196824546Y-86954700D01*
X196793380Y-86798018D01*
X196793380Y-86638262D01*
X196824546Y-86481580D01*
X196885680Y-86333989D01*
X196903724Y-86306985D01*
X196974435Y-86201158D01*
X197087398Y-86088195D01*
X197220227Y-85999441D01*
X197324198Y-85956375D01*
X197367820Y-85938306D01*
X197524502Y-85907140D01*
X197684258Y-85907140D01*
X197840940Y-85938306D01*
G37*
G36*
X189527912Y-85387727D02*
G01*
X189677212Y-85417424D01*
X189841184Y-85485344D01*
X189988754Y-85583947D01*
X190114253Y-85709446D01*
X190212856Y-85857016D01*
X190280776Y-86020988D01*
X190315400Y-86195059D01*
X190315400Y-86372541D01*
X190280776Y-86546612D01*
X190212856Y-86710584D01*
X190114253Y-86858154D01*
X189988754Y-86983653D01*
X189841184Y-87082256D01*
X189677212Y-87150176D01*
X189541651Y-87177140D01*
X189503142Y-87184800D01*
X189325658Y-87184800D01*
X189287149Y-87177140D01*
X189151588Y-87150176D01*
X188987616Y-87082256D01*
X188840046Y-86983653D01*
X188714547Y-86858154D01*
X188615944Y-86710584D01*
X188548024Y-86546612D01*
X188513400Y-86372541D01*
X188513400Y-86195059D01*
X188548024Y-86020988D01*
X188615944Y-85857016D01*
X188714547Y-85709446D01*
X188840046Y-85583947D01*
X188987616Y-85485344D01*
X189151588Y-85417424D01*
X189300888Y-85387727D01*
X189325658Y-85382800D01*
X189503142Y-85382800D01*
X189527912Y-85387727D01*
G37*
G36*
X206521539Y-85086140D02*
G01*
X206658212Y-85142752D01*
X206781215Y-85224940D01*
X206885820Y-85329545D01*
X206968008Y-85452548D01*
X206968009Y-85452550D01*
X207024620Y-85589221D01*
X207053480Y-85734312D01*
X207053480Y-85882248D01*
X207024620Y-86027339D01*
X206991980Y-86106140D01*
X206968008Y-86164012D01*
X206885820Y-86287015D01*
X206781215Y-86391620D01*
X206658212Y-86473808D01*
X206658211Y-86473809D01*
X206658210Y-86473809D01*
X206521539Y-86530420D01*
X206376448Y-86559280D01*
X206228512Y-86559280D01*
X206083421Y-86530420D01*
X205946750Y-86473809D01*
X205946749Y-86473809D01*
X205946748Y-86473808D01*
X205823745Y-86391620D01*
X205719140Y-86287015D01*
X205636952Y-86164012D01*
X205612981Y-86106140D01*
X205580340Y-86027339D01*
X205551480Y-85882248D01*
X205551480Y-85734312D01*
X205580340Y-85589221D01*
X205636951Y-85452550D01*
X205636952Y-85452548D01*
X205719140Y-85329545D01*
X205823745Y-85224940D01*
X205946748Y-85142752D01*
X206083421Y-85086140D01*
X206228512Y-85057280D01*
X206376448Y-85057280D01*
X206521539Y-85086140D01*
G37*
G36*
X195300940Y-84668306D02*
G01*
X195412009Y-84714312D01*
X195448533Y-84729441D01*
X195581362Y-84818195D01*
X195694325Y-84931158D01*
X195778598Y-85057280D01*
X195783080Y-85063989D01*
X195844214Y-85211580D01*
X195872307Y-85352811D01*
X195875380Y-85368263D01*
X195875380Y-85528017D01*
X195844214Y-85684700D01*
X195783079Y-85832293D01*
X195694325Y-85965122D01*
X195581362Y-86078085D01*
X195448533Y-86166839D01*
X195448532Y-86166840D01*
X195448531Y-86166840D01*
X195300940Y-86227974D01*
X195144258Y-86259140D01*
X194984502Y-86259140D01*
X194827820Y-86227974D01*
X194680229Y-86166840D01*
X194680228Y-86166840D01*
X194680227Y-86166839D01*
X194547398Y-86078085D01*
X194434435Y-85965122D01*
X194345681Y-85832293D01*
X194284546Y-85684700D01*
X194253380Y-85528017D01*
X194253380Y-85368263D01*
X194256454Y-85352811D01*
X194284546Y-85211580D01*
X194345680Y-85063989D01*
X194350163Y-85057280D01*
X194434435Y-84931158D01*
X194547398Y-84818195D01*
X194680227Y-84729441D01*
X194716752Y-84714312D01*
X194827820Y-84668306D01*
X194984502Y-84637140D01*
X195144258Y-84637140D01*
X195300940Y-84668306D01*
G37*
G36*
X66915512Y-84193927D02*
G01*
X67064812Y-84223624D01*
X67228784Y-84291544D01*
X67376354Y-84390147D01*
X67501853Y-84515646D01*
X67600456Y-84663216D01*
X67668376Y-84827188D01*
X67682230Y-84896840D01*
X67700590Y-84989140D01*
X67703000Y-85001259D01*
X67703000Y-85178741D01*
X67668376Y-85352812D01*
X67600456Y-85516784D01*
X67501853Y-85664354D01*
X67376354Y-85789853D01*
X67228784Y-85888456D01*
X67064812Y-85956376D01*
X66915512Y-85986073D01*
X66890742Y-85991000D01*
X66713258Y-85991000D01*
X66688488Y-85986073D01*
X66539188Y-85956376D01*
X66375216Y-85888456D01*
X66227646Y-85789853D01*
X66102147Y-85664354D01*
X66003544Y-85516784D01*
X65935624Y-85352812D01*
X65901000Y-85178741D01*
X65901000Y-85001259D01*
X65903411Y-84989140D01*
X65921770Y-84896840D01*
X65935624Y-84827188D01*
X66003544Y-84663216D01*
X66102147Y-84515646D01*
X66227646Y-84390147D01*
X66375216Y-84291544D01*
X66539188Y-84223624D01*
X66688488Y-84193927D01*
X66713258Y-84189000D01*
X66890742Y-84189000D01*
X66915512Y-84193927D01*
G37*
G36*
X69455512Y-84193927D02*
G01*
X69604812Y-84223624D01*
X69768784Y-84291544D01*
X69916354Y-84390147D01*
X70041853Y-84515646D01*
X70140456Y-84663216D01*
X70208376Y-84827188D01*
X70222230Y-84896840D01*
X70240590Y-84989140D01*
X70243000Y-85001259D01*
X70243000Y-85178741D01*
X70208376Y-85352812D01*
X70140456Y-85516784D01*
X70041853Y-85664354D01*
X69916354Y-85789853D01*
X69768784Y-85888456D01*
X69604812Y-85956376D01*
X69455512Y-85986073D01*
X69430742Y-85991000D01*
X69253258Y-85991000D01*
X69228488Y-85986073D01*
X69079188Y-85956376D01*
X68915216Y-85888456D01*
X68767646Y-85789853D01*
X68642147Y-85664354D01*
X68543544Y-85516784D01*
X68475624Y-85352812D01*
X68441000Y-85178741D01*
X68441000Y-85001259D01*
X68443411Y-84989140D01*
X68461770Y-84896840D01*
X68475624Y-84827188D01*
X68543544Y-84663216D01*
X68642147Y-84515646D01*
X68767646Y-84390147D01*
X68915216Y-84291544D01*
X69079188Y-84223624D01*
X69228488Y-84193927D01*
X69253258Y-84189000D01*
X69430742Y-84189000D01*
X69455512Y-84193927D01*
G37*
G36*
X203957709Y-84061400D02*
G01*
X203981539Y-84066140D01*
X204118212Y-84122752D01*
X204241215Y-84204940D01*
X204345820Y-84309545D01*
X204399677Y-84390148D01*
X204428009Y-84432550D01*
X204484620Y-84569221D01*
X204513480Y-84714312D01*
X204513480Y-84862248D01*
X204484620Y-85007339D01*
X204438499Y-85118686D01*
X204428008Y-85144012D01*
X204345820Y-85267015D01*
X204241215Y-85371620D01*
X204118212Y-85453808D01*
X204118211Y-85453809D01*
X204118210Y-85453809D01*
X203981539Y-85510420D01*
X203836448Y-85539280D01*
X203688512Y-85539280D01*
X203543421Y-85510420D01*
X203406750Y-85453809D01*
X203406749Y-85453809D01*
X203406748Y-85453808D01*
X203283745Y-85371620D01*
X203179140Y-85267015D01*
X203096952Y-85144012D01*
X203086462Y-85118686D01*
X203040340Y-85007339D01*
X203011480Y-84862248D01*
X203011480Y-84714312D01*
X203040340Y-84569221D01*
X203096951Y-84432550D01*
X203125283Y-84390148D01*
X203179140Y-84309545D01*
X203283745Y-84204940D01*
X203406748Y-84122752D01*
X203543421Y-84066140D01*
X203567251Y-84061400D01*
X203688512Y-84037280D01*
X203836448Y-84037280D01*
X203957709Y-84061400D01*
G37*
G36*
X180245369Y-83572971D02*
G01*
X180407195Y-83640002D01*
X180552829Y-83737311D01*
X180676689Y-83861171D01*
X180773998Y-84006805D01*
X180841029Y-84168631D01*
X180875200Y-84340420D01*
X180875200Y-84515580D01*
X180841029Y-84687369D01*
X180773998Y-84849195D01*
X180676689Y-84994829D01*
X180552829Y-85118689D01*
X180407195Y-85215998D01*
X180245369Y-85283029D01*
X180073580Y-85317200D01*
X179898420Y-85317200D01*
X179726631Y-85283029D01*
X179564805Y-85215998D01*
X179419171Y-85118689D01*
X179295311Y-84994829D01*
X179198002Y-84849195D01*
X179130971Y-84687369D01*
X179096800Y-84515580D01*
X179096800Y-84340420D01*
X179130971Y-84168631D01*
X179198002Y-84006805D01*
X179295311Y-83861171D01*
X179419171Y-83737311D01*
X179564805Y-83640002D01*
X179726631Y-83572971D01*
X179898420Y-83538800D01*
X180073580Y-83538800D01*
X180245369Y-83572971D01*
G37*
G36*
X172625369Y-83572971D02*
G01*
X172787195Y-83640002D01*
X172932829Y-83737311D01*
X173056689Y-83861171D01*
X173153998Y-84006805D01*
X173221029Y-84168631D01*
X173255200Y-84340420D01*
X173255200Y-84515580D01*
X173221029Y-84687369D01*
X173153998Y-84849195D01*
X173056689Y-84994829D01*
X172932829Y-85118689D01*
X172787195Y-85215998D01*
X172625369Y-85283029D01*
X172453580Y-85317200D01*
X172278420Y-85317200D01*
X172106631Y-85283029D01*
X171944805Y-85215998D01*
X171799171Y-85118689D01*
X171675311Y-84994829D01*
X171578002Y-84849195D01*
X171510971Y-84687369D01*
X171476800Y-84515580D01*
X171476800Y-84340420D01*
X171510971Y-84168631D01*
X171578002Y-84006805D01*
X171675311Y-83861171D01*
X171799171Y-83737311D01*
X171944805Y-83640002D01*
X172106631Y-83572971D01*
X172278420Y-83538800D01*
X172453580Y-83538800D01*
X172625369Y-83572971D01*
G37*
G36*
X177705369Y-83572971D02*
G01*
X177867195Y-83640002D01*
X178012829Y-83737311D01*
X178136689Y-83861171D01*
X178233998Y-84006805D01*
X178301029Y-84168631D01*
X178335200Y-84340420D01*
X178335200Y-84515580D01*
X178301029Y-84687369D01*
X178233998Y-84849195D01*
X178136689Y-84994829D01*
X178012829Y-85118689D01*
X177867195Y-85215998D01*
X177705369Y-85283029D01*
X177533580Y-85317200D01*
X177358420Y-85317200D01*
X177186631Y-85283029D01*
X177024805Y-85215998D01*
X176879171Y-85118689D01*
X176755311Y-84994829D01*
X176658002Y-84849195D01*
X176590971Y-84687369D01*
X176556800Y-84515580D01*
X176556800Y-84340420D01*
X176590971Y-84168631D01*
X176658002Y-84006805D01*
X176755311Y-83861171D01*
X176879171Y-83737311D01*
X177024805Y-83640002D01*
X177186631Y-83572971D01*
X177358420Y-83538800D01*
X177533580Y-83538800D01*
X177705369Y-83572971D01*
G37*
G36*
X175165369Y-83572971D02*
G01*
X175327195Y-83640002D01*
X175472829Y-83737311D01*
X175596689Y-83861171D01*
X175693998Y-84006805D01*
X175761029Y-84168631D01*
X175795200Y-84340420D01*
X175795200Y-84515580D01*
X175761029Y-84687369D01*
X175693998Y-84849195D01*
X175596689Y-84994829D01*
X175472829Y-85118689D01*
X175327195Y-85215998D01*
X175165369Y-85283029D01*
X174993580Y-85317200D01*
X174818420Y-85317200D01*
X174646631Y-85283029D01*
X174484805Y-85215998D01*
X174339171Y-85118689D01*
X174215311Y-84994829D01*
X174118002Y-84849195D01*
X174050971Y-84687369D01*
X174016800Y-84515580D01*
X174016800Y-84340420D01*
X174050971Y-84168631D01*
X174118002Y-84006805D01*
X174215311Y-83861171D01*
X174339171Y-83737311D01*
X174484805Y-83640002D01*
X174646631Y-83572971D01*
X174818420Y-83538800D01*
X174993580Y-83538800D01*
X175165369Y-83572971D01*
G37*
G36*
X197840940Y-83398306D02*
G01*
X197986571Y-83458628D01*
X197988533Y-83459441D01*
X198121362Y-83548195D01*
X198234325Y-83661158D01*
X198295613Y-83752881D01*
X198323080Y-83793989D01*
X198384214Y-83941580D01*
X198415380Y-84098262D01*
X198415380Y-84258018D01*
X198384214Y-84414700D01*
X198342401Y-84515647D01*
X198323079Y-84562293D01*
X198234325Y-84695122D01*
X198121362Y-84808085D01*
X197988533Y-84896839D01*
X197988532Y-84896840D01*
X197988531Y-84896840D01*
X197840940Y-84957974D01*
X197684258Y-84989140D01*
X197524502Y-84989140D01*
X197367820Y-84957974D01*
X197220229Y-84896840D01*
X197220228Y-84896840D01*
X197220227Y-84896839D01*
X197087398Y-84808085D01*
X196974435Y-84695122D01*
X196885681Y-84562293D01*
X196866360Y-84515647D01*
X196824546Y-84414700D01*
X196793380Y-84258018D01*
X196793380Y-84098262D01*
X196824546Y-83941580D01*
X196885680Y-83793989D01*
X196913148Y-83752881D01*
X196974435Y-83661158D01*
X197087398Y-83548195D01*
X197220227Y-83459441D01*
X197222190Y-83458628D01*
X197367820Y-83398306D01*
X197524502Y-83367140D01*
X197684258Y-83367140D01*
X197840940Y-83398306D01*
G37*
G36*
X190315400Y-84644800D02*
G01*
X188513400Y-84644800D01*
X188513400Y-82842800D01*
X190315400Y-82842800D01*
X190315400Y-84644800D01*
G37*
G36*
X206521539Y-83046140D02*
G01*
X206658212Y-83102752D01*
X206781215Y-83184940D01*
X206885820Y-83289545D01*
X206968008Y-83412548D01*
X206968009Y-83412550D01*
X207024620Y-83549221D01*
X207053480Y-83694312D01*
X207053480Y-83842248D01*
X207024620Y-83987339D01*
X206991980Y-84066140D01*
X206968008Y-84124012D01*
X206885820Y-84247015D01*
X206781215Y-84351620D01*
X206658212Y-84433808D01*
X206658211Y-84433809D01*
X206658210Y-84433809D01*
X206521539Y-84490420D01*
X206376448Y-84519280D01*
X206228512Y-84519280D01*
X206083421Y-84490420D01*
X205946750Y-84433809D01*
X205946749Y-84433809D01*
X205946748Y-84433808D01*
X205823745Y-84351620D01*
X205719140Y-84247015D01*
X205636952Y-84124012D01*
X205612981Y-84066140D01*
X205580340Y-83987339D01*
X205551480Y-83842248D01*
X205551480Y-83694312D01*
X205580340Y-83549221D01*
X205636951Y-83412550D01*
X205636952Y-83412548D01*
X205719140Y-83289545D01*
X205823745Y-83184940D01*
X205946748Y-83102752D01*
X206083421Y-83046140D01*
X206228512Y-83017280D01*
X206376448Y-83017280D01*
X206521539Y-83046140D01*
G37*
G36*
X184576028Y-81142103D02*
G01*
X184730900Y-81206253D01*
X184870281Y-81299385D01*
X184988815Y-81417919D01*
X185081947Y-81557300D01*
X185146097Y-81712172D01*
X185178800Y-81876584D01*
X185178800Y-82044216D01*
X185146097Y-82208628D01*
X185081947Y-82363500D01*
X184988815Y-82502881D01*
X184988811Y-82502885D01*
X184984204Y-82509780D01*
X184979138Y-82515954D01*
X184967587Y-82537565D01*
X184960474Y-82561014D01*
X184958072Y-82585400D01*
X184960474Y-82609786D01*
X184967587Y-82633235D01*
X184979138Y-82654846D01*
X184984204Y-82661020D01*
X184988811Y-82667915D01*
X184988815Y-82667919D01*
X185081947Y-82807300D01*
X185146097Y-82962172D01*
X185178800Y-83126584D01*
X185178800Y-83294216D01*
X185146097Y-83458628D01*
X185081947Y-83613500D01*
X184988815Y-83752881D01*
X184870281Y-83871415D01*
X184730900Y-83964547D01*
X184576028Y-84028697D01*
X184411616Y-84061400D01*
X184243984Y-84061400D01*
X184079572Y-84028697D01*
X183924700Y-83964547D01*
X183785319Y-83871415D01*
X183666785Y-83752881D01*
X183573653Y-83613500D01*
X183509503Y-83458628D01*
X183476800Y-83294216D01*
X183476800Y-83126584D01*
X183509503Y-82962172D01*
X183573653Y-82807300D01*
X183666785Y-82667919D01*
X183666789Y-82667915D01*
X183671396Y-82661020D01*
X183676462Y-82654846D01*
X183688013Y-82633235D01*
X183695126Y-82609786D01*
X183697528Y-82585400D01*
X183695126Y-82561014D01*
X183688013Y-82537565D01*
X183676462Y-82515954D01*
X183671396Y-82509780D01*
X183666789Y-82502885D01*
X183666785Y-82502881D01*
X183573653Y-82363500D01*
X183509503Y-82208628D01*
X183476800Y-82044216D01*
X183476800Y-81876584D01*
X183509503Y-81712172D01*
X183573653Y-81557300D01*
X183666785Y-81417919D01*
X183785319Y-81299385D01*
X183924700Y-81206253D01*
X184079572Y-81142103D01*
X184243984Y-81109400D01*
X184411616Y-81109400D01*
X184576028Y-81142103D01*
G37*
G36*
X195300940Y-82128306D02*
G01*
X195389383Y-82164940D01*
X195448533Y-82189441D01*
X195581362Y-82278195D01*
X195694325Y-82391158D01*
X195741165Y-82461258D01*
X195783080Y-82523989D01*
X195844214Y-82671580D01*
X195875380Y-82828262D01*
X195875380Y-82988018D01*
X195844214Y-83144700D01*
X195784217Y-83289547D01*
X195783079Y-83292293D01*
X195694325Y-83425122D01*
X195581362Y-83538085D01*
X195448533Y-83626839D01*
X195448532Y-83626840D01*
X195448531Y-83626840D01*
X195300940Y-83687974D01*
X195144258Y-83719140D01*
X194984502Y-83719140D01*
X194827820Y-83687974D01*
X194680229Y-83626840D01*
X194680228Y-83626840D01*
X194680227Y-83626839D01*
X194547398Y-83538085D01*
X194434435Y-83425122D01*
X194345681Y-83292293D01*
X194344544Y-83289547D01*
X194284546Y-83144700D01*
X194253380Y-82988018D01*
X194253380Y-82828262D01*
X194284546Y-82671580D01*
X194345680Y-82523989D01*
X194387596Y-82461258D01*
X194434435Y-82391158D01*
X194547398Y-82278195D01*
X194680227Y-82189441D01*
X194739378Y-82164940D01*
X194827820Y-82128306D01*
X194984502Y-82097140D01*
X195144258Y-82097140D01*
X195300940Y-82128306D01*
G37*
G36*
X203981539Y-82026140D02*
G01*
X204118212Y-82082752D01*
X204241215Y-82164940D01*
X204345820Y-82269545D01*
X204428008Y-82392548D01*
X204428009Y-82392550D01*
X204484620Y-82529221D01*
X204513480Y-82674312D01*
X204513480Y-82822248D01*
X204484620Y-82967339D01*
X204451980Y-83046140D01*
X204428008Y-83104012D01*
X204345820Y-83227015D01*
X204241215Y-83331620D01*
X204118212Y-83413808D01*
X204118211Y-83413809D01*
X204118210Y-83413809D01*
X203981539Y-83470420D01*
X203836448Y-83499280D01*
X203688512Y-83499280D01*
X203543421Y-83470420D01*
X203406750Y-83413809D01*
X203406749Y-83413809D01*
X203406748Y-83413808D01*
X203283745Y-83331620D01*
X203179140Y-83227015D01*
X203096952Y-83104012D01*
X203072981Y-83046140D01*
X203040340Y-82967339D01*
X203011480Y-82822248D01*
X203011480Y-82674312D01*
X203040340Y-82529221D01*
X203096951Y-82392550D01*
X203096952Y-82392548D01*
X203179140Y-82269545D01*
X203283745Y-82164940D01*
X203406748Y-82082752D01*
X203543421Y-82026140D01*
X203688512Y-81997280D01*
X203836448Y-81997280D01*
X203981539Y-82026140D01*
G37*
G36*
X69455512Y-81653927D02*
G01*
X69604812Y-81683624D01*
X69768784Y-81751544D01*
X69916354Y-81850147D01*
X70041853Y-81975646D01*
X70140456Y-82123216D01*
X70208376Y-82287188D01*
X70229056Y-82391158D01*
X70240590Y-82449140D01*
X70243000Y-82461259D01*
X70243000Y-82638741D01*
X70208376Y-82812812D01*
X70140456Y-82976784D01*
X70041853Y-83124354D01*
X69916354Y-83249853D01*
X69768784Y-83348456D01*
X69604812Y-83416376D01*
X69455512Y-83446073D01*
X69430742Y-83451000D01*
X69253258Y-83451000D01*
X69228488Y-83446073D01*
X69079188Y-83416376D01*
X68915216Y-83348456D01*
X68767646Y-83249853D01*
X68642147Y-83124354D01*
X68543544Y-82976784D01*
X68475624Y-82812812D01*
X68441000Y-82638741D01*
X68441000Y-82461259D01*
X68443411Y-82449140D01*
X68454944Y-82391158D01*
X68475624Y-82287188D01*
X68543544Y-82123216D01*
X68642147Y-81975646D01*
X68767646Y-81850147D01*
X68915216Y-81751544D01*
X69079188Y-81683624D01*
X69228488Y-81653927D01*
X69253258Y-81649000D01*
X69430742Y-81649000D01*
X69455512Y-81653927D01*
G37*
G36*
X66915512Y-81653927D02*
G01*
X67064812Y-81683624D01*
X67228784Y-81751544D01*
X67376354Y-81850147D01*
X67501853Y-81975646D01*
X67600456Y-82123216D01*
X67668376Y-82287188D01*
X67689056Y-82391158D01*
X67700590Y-82449140D01*
X67703000Y-82461259D01*
X67703000Y-82638741D01*
X67668376Y-82812812D01*
X67600456Y-82976784D01*
X67501853Y-83124354D01*
X67376354Y-83249853D01*
X67228784Y-83348456D01*
X67064812Y-83416376D01*
X66915512Y-83446073D01*
X66890742Y-83451000D01*
X66713258Y-83451000D01*
X66688488Y-83446073D01*
X66539188Y-83416376D01*
X66375216Y-83348456D01*
X66227646Y-83249853D01*
X66102147Y-83124354D01*
X66003544Y-82976784D01*
X65935624Y-82812812D01*
X65901000Y-82638741D01*
X65901000Y-82461259D01*
X65903411Y-82449140D01*
X65914944Y-82391158D01*
X65935624Y-82287188D01*
X66003544Y-82123216D01*
X66102147Y-81975646D01*
X66227646Y-81850147D01*
X66375216Y-81751544D01*
X66539188Y-81683624D01*
X66688488Y-81653927D01*
X66713258Y-81649000D01*
X66890742Y-81649000D01*
X66915512Y-81653927D01*
G37*
G36*
X174700000Y-82824800D02*
G01*
X172398000Y-82824800D01*
X172398000Y-82122800D01*
X174700000Y-82122800D01*
X174700000Y-82824800D01*
G37*
G36*
X179900000Y-82824800D02*
G01*
X177598000Y-82824800D01*
X177598000Y-82122800D01*
X179900000Y-82122800D01*
X179900000Y-82824800D01*
G37*
G36*
X197840940Y-80858306D02*
G01*
X197884563Y-80876375D01*
X197988533Y-80919441D01*
X198121362Y-81008195D01*
X198234325Y-81121158D01*
X198323080Y-81253989D01*
X198384214Y-81401580D01*
X198415380Y-81558262D01*
X198415380Y-81718018D01*
X198384214Y-81874700D01*
X198342401Y-81975647D01*
X198323079Y-82022293D01*
X198234325Y-82155122D01*
X198121362Y-82268085D01*
X197988533Y-82356839D01*
X197988532Y-82356840D01*
X197988531Y-82356840D01*
X197840940Y-82417974D01*
X197684258Y-82449140D01*
X197524502Y-82449140D01*
X197367820Y-82417974D01*
X197220229Y-82356840D01*
X197220228Y-82356840D01*
X197220227Y-82356839D01*
X197087398Y-82268085D01*
X196974435Y-82155122D01*
X196885681Y-82022293D01*
X196866360Y-81975647D01*
X196824546Y-81874700D01*
X196793380Y-81718018D01*
X196793380Y-81558262D01*
X196824546Y-81401580D01*
X196885680Y-81253989D01*
X196974435Y-81121158D01*
X197087398Y-81008195D01*
X197220227Y-80919441D01*
X197324198Y-80876375D01*
X197367820Y-80858306D01*
X197524502Y-80827140D01*
X197684258Y-80827140D01*
X197840940Y-80858306D01*
G37*
G36*
X179900000Y-81554800D02*
G01*
X177598000Y-81554800D01*
X177598000Y-80852800D01*
X179900000Y-80852800D01*
X179900000Y-81554800D01*
G37*
G36*
X174700000Y-81554800D02*
G01*
X172398000Y-81554800D01*
X172398000Y-80852800D01*
X174700000Y-80852800D01*
X174700000Y-81554800D01*
G37*
G36*
X204443251Y-78126548D02*
G01*
X204748263Y-78252888D01*
X205022767Y-78436306D01*
X205256214Y-78669753D01*
X205439632Y-78944257D01*
X205559714Y-79234161D01*
X205565972Y-79249270D01*
X205630380Y-79573067D01*
X205630380Y-79903213D01*
X205565972Y-80227011D01*
X205439632Y-80532023D01*
X205256214Y-80806527D01*
X205022767Y-81039974D01*
X204748263Y-81223392D01*
X204443251Y-81349732D01*
X204281351Y-81381936D01*
X204119453Y-81414140D01*
X203789307Y-81414140D01*
X203627409Y-81381936D01*
X203465509Y-81349732D01*
X203160497Y-81223392D01*
X202885993Y-81039974D01*
X202652546Y-80806527D01*
X202469128Y-80532023D01*
X202342788Y-80227011D01*
X202278380Y-79903213D01*
X202278380Y-79573067D01*
X202342788Y-79249270D01*
X202349046Y-79234161D01*
X202469128Y-78944257D01*
X202652546Y-78669753D01*
X202885993Y-78436306D01*
X203160497Y-78252888D01*
X203465509Y-78126548D01*
X203789307Y-78062140D01*
X204119453Y-78062140D01*
X204443251Y-78126548D01*
G37*
G36*
X67703000Y-80911000D02*
G01*
X65901000Y-80911000D01*
X65901000Y-79109000D01*
X67703000Y-79109000D01*
X67703000Y-80911000D01*
G37*
G36*
X69455512Y-79113927D02*
G01*
X69604812Y-79143624D01*
X69768784Y-79211544D01*
X69916354Y-79310147D01*
X70041853Y-79435646D01*
X70140456Y-79583216D01*
X70208376Y-79747188D01*
X70243000Y-79921259D01*
X70243000Y-80098741D01*
X70208376Y-80272812D01*
X70140456Y-80436784D01*
X70041853Y-80584354D01*
X69916354Y-80709853D01*
X69768784Y-80808456D01*
X69604812Y-80876376D01*
X69455512Y-80906073D01*
X69430742Y-80911000D01*
X69253258Y-80911000D01*
X69228488Y-80906073D01*
X69079188Y-80876376D01*
X68915216Y-80808456D01*
X68767646Y-80709853D01*
X68642147Y-80584354D01*
X68543544Y-80436784D01*
X68475624Y-80272812D01*
X68441000Y-80098741D01*
X68441000Y-79921259D01*
X68475624Y-79747188D01*
X68543544Y-79583216D01*
X68642147Y-79435646D01*
X68767646Y-79310147D01*
X68915216Y-79211544D01*
X69079188Y-79143624D01*
X69228488Y-79113927D01*
X69253258Y-79109000D01*
X69430742Y-79109000D01*
X69455512Y-79113927D01*
G37*
G36*
X160719433Y-77908293D02*
G01*
X160809657Y-77926239D01*
X160915267Y-77969985D01*
X161064621Y-78031849D01*
X161140763Y-78082725D01*
X161294086Y-78185172D01*
X161489228Y-78380314D01*
X161526640Y-78436306D01*
X161642551Y-78609779D01*
X161688774Y-78721371D01*
X161748161Y-78864743D01*
X161763977Y-78944257D01*
X161802000Y-79135412D01*
X161802000Y-79411388D01*
X161786727Y-79488170D01*
X161748161Y-79682057D01*
X161721182Y-79747189D01*
X161642551Y-79937021D01*
X161642550Y-79937022D01*
X161489228Y-80166486D01*
X161294086Y-80361628D01*
X161181609Y-80436782D01*
X161064621Y-80514951D01*
X160915267Y-80576815D01*
X160809657Y-80620561D01*
X160719433Y-80638507D01*
X160538988Y-80674400D01*
X160263012Y-80674400D01*
X160082567Y-80638507D01*
X159992343Y-80620561D01*
X159886733Y-80576815D01*
X159737379Y-80514951D01*
X159620391Y-80436782D01*
X159507914Y-80361628D01*
X159312772Y-80166486D01*
X159159450Y-79937022D01*
X159159449Y-79937021D01*
X159080818Y-79747189D01*
X159053839Y-79682057D01*
X159015273Y-79488170D01*
X159000000Y-79411388D01*
X159000000Y-79135412D01*
X159038023Y-78944257D01*
X159053839Y-78864743D01*
X159113226Y-78721371D01*
X159159449Y-78609779D01*
X159275360Y-78436306D01*
X159312772Y-78380314D01*
X159507914Y-78185172D01*
X159661237Y-78082725D01*
X159737379Y-78031849D01*
X159886733Y-77969985D01*
X159992343Y-77926239D01*
X160082567Y-77908293D01*
X160263012Y-77872400D01*
X160538988Y-77872400D01*
X160719433Y-77908293D01*
G37*
G36*
X179900000Y-80284800D02*
G01*
X177598000Y-80284800D01*
X177598000Y-79582800D01*
X179900000Y-79582800D01*
X179900000Y-80284800D01*
G37*
G36*
X174700000Y-80284800D02*
G01*
X172398000Y-80284800D01*
X172398000Y-79582800D01*
X174700000Y-79582800D01*
X174700000Y-80284800D01*
G37*
G36*
X208779580Y-78669753D02*
G01*
X208792370Y-78672297D01*
X208910844Y-78721371D01*
X209017468Y-78792615D01*
X209108145Y-78883292D01*
X209148881Y-78944257D01*
X209179390Y-78989918D01*
X209228463Y-79108390D01*
X209253480Y-79234161D01*
X209253480Y-79362399D01*
X209228463Y-79488170D01*
X209189093Y-79583218D01*
X209179389Y-79606644D01*
X209108145Y-79713268D01*
X209017468Y-79803945D01*
X208910844Y-79875189D01*
X208910843Y-79875190D01*
X208910842Y-79875190D01*
X208792370Y-79924263D01*
X208666599Y-79949280D01*
X208538361Y-79949280D01*
X208412590Y-79924263D01*
X208294118Y-79875190D01*
X208294117Y-79875190D01*
X208294116Y-79875189D01*
X208187492Y-79803945D01*
X208096815Y-79713268D01*
X208025571Y-79606644D01*
X208015868Y-79583218D01*
X207976497Y-79488170D01*
X207951480Y-79362399D01*
X207951480Y-79234161D01*
X207976497Y-79108390D01*
X208025570Y-78989918D01*
X208056080Y-78944257D01*
X208096815Y-78883292D01*
X208187492Y-78792615D01*
X208294116Y-78721371D01*
X208412590Y-78672297D01*
X208425380Y-78669753D01*
X208538361Y-78647280D01*
X208666599Y-78647280D01*
X208779580Y-78669753D01*
G37*
G36*
X74961433Y-76358893D02*
G01*
X75051657Y-76376839D01*
X75134176Y-76411020D01*
X75306621Y-76482449D01*
X75306622Y-76482450D01*
X75536086Y-76635772D01*
X75731228Y-76830914D01*
X75774436Y-76895580D01*
X75884551Y-77060379D01*
X75940777Y-77196121D01*
X75990161Y-77315343D01*
X75997150Y-77350480D01*
X76044000Y-77586012D01*
X76044000Y-77861988D01*
X75990161Y-78132656D01*
X75884551Y-78387621D01*
X75884550Y-78387622D01*
X75731228Y-78617086D01*
X75536086Y-78812228D01*
X75382763Y-78914675D01*
X75306621Y-78965551D01*
X75187723Y-79014800D01*
X75051657Y-79071161D01*
X74961433Y-79089107D01*
X74780988Y-79125000D01*
X74505012Y-79125000D01*
X74324567Y-79089107D01*
X74234343Y-79071161D01*
X74098277Y-79014800D01*
X73979379Y-78965551D01*
X73903237Y-78914675D01*
X73749914Y-78812228D01*
X73554772Y-78617086D01*
X73401450Y-78387622D01*
X73401449Y-78387621D01*
X73295839Y-78132656D01*
X73242000Y-77861988D01*
X73242000Y-77586012D01*
X73288850Y-77350480D01*
X73295839Y-77315343D01*
X73345223Y-77196121D01*
X73401449Y-77060379D01*
X73511564Y-76895580D01*
X73554772Y-76830914D01*
X73749914Y-76635772D01*
X73979378Y-76482450D01*
X73979379Y-76482449D01*
X74151824Y-76411020D01*
X74234343Y-76376839D01*
X74324567Y-76358893D01*
X74505012Y-76323000D01*
X74780988Y-76323000D01*
X74961433Y-76358893D01*
G37*
G36*
X179900000Y-79014800D02*
G01*
X177598000Y-79014800D01*
X177598000Y-78312800D01*
X179900000Y-78312800D01*
X179900000Y-79014800D01*
G37*
G36*
X174700000Y-79014800D02*
G01*
X172398000Y-79014800D01*
X172398000Y-78312800D01*
X174700000Y-78312800D01*
X174700000Y-79014800D01*
G37*
G36*
X184576028Y-74892103D02*
G01*
X184730900Y-74956253D01*
X184870281Y-75049385D01*
X184988815Y-75167919D01*
X185081947Y-75307300D01*
X185146097Y-75462172D01*
X185178800Y-75626584D01*
X185178800Y-75794216D01*
X185146097Y-75958628D01*
X185081947Y-76113500D01*
X184988815Y-76252881D01*
X184988811Y-76252885D01*
X184984204Y-76259780D01*
X184979138Y-76265954D01*
X184967587Y-76287565D01*
X184960474Y-76311014D01*
X184958072Y-76335400D01*
X184960474Y-76359786D01*
X184967587Y-76383235D01*
X184979138Y-76404846D01*
X184984204Y-76411020D01*
X184988811Y-76417915D01*
X184988815Y-76417919D01*
X185081947Y-76557300D01*
X185146097Y-76712172D01*
X185178800Y-76876584D01*
X185178800Y-77044216D01*
X185146097Y-77208628D01*
X185081947Y-77363500D01*
X184988815Y-77502881D01*
X184870281Y-77621415D01*
X184730900Y-77714547D01*
X184576028Y-77778697D01*
X184411616Y-77811400D01*
X184243984Y-77811400D01*
X184079572Y-77778697D01*
X183924700Y-77714547D01*
X183785319Y-77621415D01*
X183666785Y-77502881D01*
X183573653Y-77363500D01*
X183509503Y-77208628D01*
X183476800Y-77044216D01*
X183476800Y-76876584D01*
X183509503Y-76712172D01*
X183573653Y-76557300D01*
X183666785Y-76417919D01*
X183666789Y-76417915D01*
X183671396Y-76411020D01*
X183676462Y-76404846D01*
X183688013Y-76383235D01*
X183695126Y-76359786D01*
X183697528Y-76335400D01*
X183695126Y-76311014D01*
X183688013Y-76287565D01*
X183676462Y-76265954D01*
X183671396Y-76259780D01*
X183666789Y-76252885D01*
X183666785Y-76252881D01*
X183573653Y-76113500D01*
X183509503Y-75958628D01*
X183476800Y-75794216D01*
X183476800Y-75626584D01*
X183509503Y-75462172D01*
X183573653Y-75307300D01*
X183666785Y-75167919D01*
X183785319Y-75049385D01*
X183924700Y-74956253D01*
X184079572Y-74892103D01*
X184243984Y-74859400D01*
X184411616Y-74859400D01*
X184576028Y-74892103D01*
G37*
G36*
X172625369Y-75952971D02*
G01*
X172787195Y-76020002D01*
X172932829Y-76117311D01*
X173056689Y-76241171D01*
X173153998Y-76386805D01*
X173221029Y-76548631D01*
X173255200Y-76720420D01*
X173255200Y-76895580D01*
X173221029Y-77067369D01*
X173153998Y-77229195D01*
X173056689Y-77374829D01*
X172932829Y-77498689D01*
X172787195Y-77595998D01*
X172625369Y-77663029D01*
X172453580Y-77697200D01*
X172278420Y-77697200D01*
X172106631Y-77663029D01*
X171944805Y-77595998D01*
X171799171Y-77498689D01*
X171675311Y-77374829D01*
X171578002Y-77229195D01*
X171510971Y-77067369D01*
X171476800Y-76895580D01*
X171476800Y-76720420D01*
X171510971Y-76548631D01*
X171578002Y-76386805D01*
X171675311Y-76241171D01*
X171799171Y-76117311D01*
X171944805Y-76020002D01*
X172106631Y-75952971D01*
X172278420Y-75918800D01*
X172453580Y-75918800D01*
X172625369Y-75952971D01*
G37*
G36*
X175165369Y-75952971D02*
G01*
X175327195Y-76020002D01*
X175472829Y-76117311D01*
X175596689Y-76241171D01*
X175693998Y-76386805D01*
X175761029Y-76548631D01*
X175795200Y-76720420D01*
X175795200Y-76895580D01*
X175761029Y-77067369D01*
X175693998Y-77229195D01*
X175596689Y-77374829D01*
X175472829Y-77498689D01*
X175327195Y-77595998D01*
X175165369Y-77663029D01*
X174993580Y-77697200D01*
X174818420Y-77697200D01*
X174646631Y-77663029D01*
X174484805Y-77595998D01*
X174339171Y-77498689D01*
X174215311Y-77374829D01*
X174118002Y-77229195D01*
X174050971Y-77067369D01*
X174016800Y-76895580D01*
X174016800Y-76720420D01*
X174050971Y-76548631D01*
X174118002Y-76386805D01*
X174215311Y-76241171D01*
X174339171Y-76117311D01*
X174484805Y-76020002D01*
X174646631Y-75952971D01*
X174818420Y-75918800D01*
X174993580Y-75918800D01*
X175165369Y-75952971D01*
G37*
G36*
X180875200Y-77697200D02*
G01*
X179096800Y-77697200D01*
X179096800Y-75918800D01*
X180875200Y-75918800D01*
X180875200Y-77697200D01*
G37*
G36*
X177705369Y-75952971D02*
G01*
X177867195Y-76020002D01*
X178012829Y-76117311D01*
X178136689Y-76241171D01*
X178233998Y-76386805D01*
X178301029Y-76548631D01*
X178335200Y-76720420D01*
X178335200Y-76895580D01*
X178301029Y-77067369D01*
X178233998Y-77229195D01*
X178136689Y-77374829D01*
X178012829Y-77498689D01*
X177867195Y-77595998D01*
X177705369Y-77663029D01*
X177533580Y-77697200D01*
X177358420Y-77697200D01*
X177186631Y-77663029D01*
X177024805Y-77595998D01*
X176879171Y-77498689D01*
X176755311Y-77374829D01*
X176658002Y-77229195D01*
X176590971Y-77067369D01*
X176556800Y-76895580D01*
X176556800Y-76720420D01*
X176590971Y-76548631D01*
X176658002Y-76386805D01*
X176755311Y-76241171D01*
X176879171Y-76117311D01*
X177024805Y-76020002D01*
X177186631Y-75952971D01*
X177358420Y-75918800D01*
X177533580Y-75918800D01*
X177705369Y-75952971D01*
G37*
G36*
X169058228Y-75989703D02*
G01*
X169213100Y-76053853D01*
X169352481Y-76146985D01*
X169471015Y-76265519D01*
X169564147Y-76404900D01*
X169628297Y-76559772D01*
X169661000Y-76724184D01*
X169661000Y-76891816D01*
X169628297Y-77056228D01*
X169564147Y-77211100D01*
X169471015Y-77350481D01*
X169352481Y-77469015D01*
X169213100Y-77562147D01*
X169058228Y-77626297D01*
X168893816Y-77659000D01*
X168726184Y-77659000D01*
X168561772Y-77626297D01*
X168406900Y-77562147D01*
X168267519Y-77469015D01*
X168148985Y-77350481D01*
X168055853Y-77211100D01*
X167991703Y-77056228D01*
X167959000Y-76891816D01*
X167959000Y-76724184D01*
X167991703Y-76559772D01*
X168055853Y-76404900D01*
X168148985Y-76265519D01*
X168267519Y-76146985D01*
X168406900Y-76053853D01*
X168561772Y-75989703D01*
X168726184Y-75957000D01*
X168893816Y-75957000D01*
X169058228Y-75989703D01*
G37*
G36*
X165502228Y-75989703D02*
G01*
X165657100Y-76053853D01*
X165796481Y-76146985D01*
X165915015Y-76265519D01*
X166008147Y-76404900D01*
X166072297Y-76559772D01*
X166105000Y-76724184D01*
X166105000Y-76891816D01*
X166072297Y-77056228D01*
X166008147Y-77211100D01*
X165915015Y-77350481D01*
X165796481Y-77469015D01*
X165657100Y-77562147D01*
X165502228Y-77626297D01*
X165337816Y-77659000D01*
X165170184Y-77659000D01*
X165005772Y-77626297D01*
X164850900Y-77562147D01*
X164711519Y-77469015D01*
X164592985Y-77350481D01*
X164499853Y-77211100D01*
X164435703Y-77056228D01*
X164403000Y-76891816D01*
X164403000Y-76724184D01*
X164435703Y-76559772D01*
X164499853Y-76404900D01*
X164592985Y-76265519D01*
X164711519Y-76146985D01*
X164850900Y-76053853D01*
X165005772Y-75989703D01*
X165170184Y-75957000D01*
X165337816Y-75957000D01*
X165502228Y-75989703D01*
G37*
G36*
X133803817Y-76024958D02*
G01*
X133873573Y-76053852D01*
X133952321Y-76086470D01*
X133952322Y-76086471D01*
X134085967Y-76175769D01*
X134199631Y-76289433D01*
X134246639Y-76359786D01*
X134288930Y-76423079D01*
X134306106Y-76464547D01*
X134350442Y-76571583D01*
X134381800Y-76729230D01*
X134381800Y-76889970D01*
X134350442Y-77047617D01*
X134342260Y-77067369D01*
X134288930Y-77196121D01*
X134288929Y-77196122D01*
X134199631Y-77329767D01*
X134085967Y-77443431D01*
X133996993Y-77502881D01*
X133952321Y-77532730D01*
X133878070Y-77563485D01*
X133803817Y-77594242D01*
X133646170Y-77625600D01*
X133485430Y-77625600D01*
X133327783Y-77594242D01*
X133179279Y-77532730D01*
X133134607Y-77502881D01*
X133045633Y-77443431D01*
X132931969Y-77329767D01*
X132842671Y-77196122D01*
X132842670Y-77196121D01*
X132789340Y-77067369D01*
X132781158Y-77047617D01*
X132749800Y-76889970D01*
X132749800Y-76729230D01*
X132781158Y-76571583D01*
X132825494Y-76464547D01*
X132842670Y-76423079D01*
X132884961Y-76359786D01*
X132931969Y-76289433D01*
X133045633Y-76175769D01*
X133179278Y-76086471D01*
X133179279Y-76086470D01*
X133258027Y-76053852D01*
X133327783Y-76024958D01*
X133485430Y-75993600D01*
X133646170Y-75993600D01*
X133803817Y-76024958D01*
G37*
G36*
X131263817Y-76024958D02*
G01*
X131333573Y-76053852D01*
X131412321Y-76086470D01*
X131412322Y-76086471D01*
X131545967Y-76175769D01*
X131659631Y-76289433D01*
X131706639Y-76359786D01*
X131748930Y-76423079D01*
X131766106Y-76464547D01*
X131810442Y-76571583D01*
X131841800Y-76729230D01*
X131841800Y-76889970D01*
X131810442Y-77047617D01*
X131802260Y-77067369D01*
X131748930Y-77196121D01*
X131748929Y-77196122D01*
X131659631Y-77329767D01*
X131545967Y-77443431D01*
X131456993Y-77502881D01*
X131412321Y-77532730D01*
X131338070Y-77563485D01*
X131263817Y-77594242D01*
X131106170Y-77625600D01*
X130945430Y-77625600D01*
X130787783Y-77594242D01*
X130639279Y-77532730D01*
X130594607Y-77502881D01*
X130505633Y-77443431D01*
X130391969Y-77329767D01*
X130302671Y-77196122D01*
X130302670Y-77196121D01*
X130249340Y-77067369D01*
X130241158Y-77047617D01*
X130209800Y-76889970D01*
X130209800Y-76729230D01*
X130241158Y-76571583D01*
X130285494Y-76464547D01*
X130302670Y-76423079D01*
X130344961Y-76359786D01*
X130391969Y-76289433D01*
X130505633Y-76175769D01*
X130639278Y-76086471D01*
X130639279Y-76086470D01*
X130718027Y-76053852D01*
X130787783Y-76024958D01*
X130945430Y-75993600D01*
X131106170Y-75993600D01*
X131263817Y-76024958D01*
G37*
G36*
X128723817Y-76024958D02*
G01*
X128793573Y-76053852D01*
X128872321Y-76086470D01*
X128872322Y-76086471D01*
X129005967Y-76175769D01*
X129119631Y-76289433D01*
X129166639Y-76359786D01*
X129208930Y-76423079D01*
X129226106Y-76464547D01*
X129270442Y-76571583D01*
X129301800Y-76729230D01*
X129301800Y-76889970D01*
X129270442Y-77047617D01*
X129262260Y-77067369D01*
X129208930Y-77196121D01*
X129208929Y-77196122D01*
X129119631Y-77329767D01*
X129005967Y-77443431D01*
X128916993Y-77502881D01*
X128872321Y-77532730D01*
X128798070Y-77563485D01*
X128723817Y-77594242D01*
X128566170Y-77625600D01*
X128405430Y-77625600D01*
X128247783Y-77594242D01*
X128099279Y-77532730D01*
X128054607Y-77502881D01*
X127965633Y-77443431D01*
X127851969Y-77329767D01*
X127762671Y-77196122D01*
X127762670Y-77196121D01*
X127709340Y-77067369D01*
X127701158Y-77047617D01*
X127669800Y-76889970D01*
X127669800Y-76729230D01*
X127701158Y-76571583D01*
X127745494Y-76464547D01*
X127762670Y-76423079D01*
X127804961Y-76359786D01*
X127851969Y-76289433D01*
X127965633Y-76175769D01*
X128099278Y-76086471D01*
X128099279Y-76086470D01*
X128178027Y-76053852D01*
X128247783Y-76024958D01*
X128405430Y-75993600D01*
X128566170Y-75993600D01*
X128723817Y-76024958D01*
G37*
G36*
X126183817Y-76024958D02*
G01*
X126253573Y-76053852D01*
X126332321Y-76086470D01*
X126332322Y-76086471D01*
X126465967Y-76175769D01*
X126579631Y-76289433D01*
X126626639Y-76359786D01*
X126668930Y-76423079D01*
X126686106Y-76464547D01*
X126730442Y-76571583D01*
X126761800Y-76729230D01*
X126761800Y-76889970D01*
X126730442Y-77047617D01*
X126722260Y-77067369D01*
X126668930Y-77196121D01*
X126668929Y-77196122D01*
X126579631Y-77329767D01*
X126465967Y-77443431D01*
X126376993Y-77502881D01*
X126332321Y-77532730D01*
X126258070Y-77563485D01*
X126183817Y-77594242D01*
X126026170Y-77625600D01*
X125865430Y-77625600D01*
X125707783Y-77594242D01*
X125559279Y-77532730D01*
X125514607Y-77502881D01*
X125425633Y-77443431D01*
X125311969Y-77329767D01*
X125222671Y-77196122D01*
X125222670Y-77196121D01*
X125169340Y-77067369D01*
X125161158Y-77047617D01*
X125129800Y-76889970D01*
X125129800Y-76729230D01*
X125161158Y-76571583D01*
X125205494Y-76464547D01*
X125222670Y-76423079D01*
X125264961Y-76359786D01*
X125311969Y-76289433D01*
X125425633Y-76175769D01*
X125559278Y-76086471D01*
X125559279Y-76086470D01*
X125638027Y-76053852D01*
X125707783Y-76024958D01*
X125865430Y-75993600D01*
X126026170Y-75993600D01*
X126183817Y-76024958D01*
G37*
G36*
X123643817Y-76024958D02*
G01*
X123713573Y-76053852D01*
X123792321Y-76086470D01*
X123792322Y-76086471D01*
X123925967Y-76175769D01*
X124039631Y-76289433D01*
X124086639Y-76359786D01*
X124128930Y-76423079D01*
X124146106Y-76464547D01*
X124190442Y-76571583D01*
X124221800Y-76729230D01*
X124221800Y-76889970D01*
X124190442Y-77047617D01*
X124182260Y-77067369D01*
X124128930Y-77196121D01*
X124128929Y-77196122D01*
X124039631Y-77329767D01*
X123925967Y-77443431D01*
X123836993Y-77502881D01*
X123792321Y-77532730D01*
X123718070Y-77563485D01*
X123643817Y-77594242D01*
X123486170Y-77625600D01*
X123325430Y-77625600D01*
X123167783Y-77594242D01*
X123019279Y-77532730D01*
X122974607Y-77502881D01*
X122885633Y-77443431D01*
X122771969Y-77329767D01*
X122682671Y-77196122D01*
X122682670Y-77196121D01*
X122629340Y-77067369D01*
X122621158Y-77047617D01*
X122589800Y-76889970D01*
X122589800Y-76729230D01*
X122621158Y-76571583D01*
X122665494Y-76464547D01*
X122682670Y-76423079D01*
X122724961Y-76359786D01*
X122771969Y-76289433D01*
X122885633Y-76175769D01*
X123019278Y-76086471D01*
X123019279Y-76086470D01*
X123098027Y-76053852D01*
X123167783Y-76024958D01*
X123325430Y-75993600D01*
X123486170Y-75993600D01*
X123643817Y-76024958D01*
G37*
G36*
X121103817Y-76024958D02*
G01*
X121173573Y-76053852D01*
X121252321Y-76086470D01*
X121252322Y-76086471D01*
X121385967Y-76175769D01*
X121499631Y-76289433D01*
X121546639Y-76359786D01*
X121588930Y-76423079D01*
X121606106Y-76464547D01*
X121650442Y-76571583D01*
X121681800Y-76729230D01*
X121681800Y-76889970D01*
X121650442Y-77047617D01*
X121642260Y-77067369D01*
X121588930Y-77196121D01*
X121588929Y-77196122D01*
X121499631Y-77329767D01*
X121385967Y-77443431D01*
X121296993Y-77502881D01*
X121252321Y-77532730D01*
X121178070Y-77563485D01*
X121103817Y-77594242D01*
X120946170Y-77625600D01*
X120785430Y-77625600D01*
X120627783Y-77594242D01*
X120479279Y-77532730D01*
X120434607Y-77502881D01*
X120345633Y-77443431D01*
X120231969Y-77329767D01*
X120142671Y-77196122D01*
X120142670Y-77196121D01*
X120089340Y-77067369D01*
X120081158Y-77047617D01*
X120049800Y-76889970D01*
X120049800Y-76729230D01*
X120081158Y-76571583D01*
X120125494Y-76464547D01*
X120142670Y-76423079D01*
X120184961Y-76359786D01*
X120231969Y-76289433D01*
X120345633Y-76175769D01*
X120479278Y-76086471D01*
X120479279Y-76086470D01*
X120558027Y-76053852D01*
X120627783Y-76024958D01*
X120785430Y-75993600D01*
X120946170Y-75993600D01*
X121103817Y-76024958D01*
G37*
G36*
X118563817Y-76024958D02*
G01*
X118633573Y-76053852D01*
X118712321Y-76086470D01*
X118712322Y-76086471D01*
X118845967Y-76175769D01*
X118959631Y-76289433D01*
X119006639Y-76359786D01*
X119048930Y-76423079D01*
X119066106Y-76464547D01*
X119110442Y-76571583D01*
X119141800Y-76729230D01*
X119141800Y-76889970D01*
X119110442Y-77047617D01*
X119102260Y-77067369D01*
X119048930Y-77196121D01*
X119048929Y-77196122D01*
X118959631Y-77329767D01*
X118845967Y-77443431D01*
X118756993Y-77502881D01*
X118712321Y-77532730D01*
X118638070Y-77563485D01*
X118563817Y-77594242D01*
X118406170Y-77625600D01*
X118245430Y-77625600D01*
X118087783Y-77594242D01*
X117939279Y-77532730D01*
X117894607Y-77502881D01*
X117805633Y-77443431D01*
X117691969Y-77329767D01*
X117602671Y-77196122D01*
X117602670Y-77196121D01*
X117549340Y-77067369D01*
X117541158Y-77047617D01*
X117509800Y-76889970D01*
X117509800Y-76729230D01*
X117541158Y-76571583D01*
X117585494Y-76464547D01*
X117602670Y-76423079D01*
X117644961Y-76359786D01*
X117691969Y-76289433D01*
X117805633Y-76175769D01*
X117939278Y-76086471D01*
X117939279Y-76086470D01*
X118018027Y-76053852D01*
X118087783Y-76024958D01*
X118245430Y-75993600D01*
X118406170Y-75993600D01*
X118563817Y-76024958D01*
G37*
G36*
X116023817Y-76024958D02*
G01*
X116093573Y-76053852D01*
X116172321Y-76086470D01*
X116172322Y-76086471D01*
X116305967Y-76175769D01*
X116419631Y-76289433D01*
X116466639Y-76359786D01*
X116508930Y-76423079D01*
X116526106Y-76464547D01*
X116570442Y-76571583D01*
X116601800Y-76729230D01*
X116601800Y-76889970D01*
X116570442Y-77047617D01*
X116562260Y-77067369D01*
X116508930Y-77196121D01*
X116508929Y-77196122D01*
X116419631Y-77329767D01*
X116305967Y-77443431D01*
X116216993Y-77502881D01*
X116172321Y-77532730D01*
X116098070Y-77563485D01*
X116023817Y-77594242D01*
X115866170Y-77625600D01*
X115705430Y-77625600D01*
X115547783Y-77594242D01*
X115399279Y-77532730D01*
X115354607Y-77502881D01*
X115265633Y-77443431D01*
X115151969Y-77329767D01*
X115062671Y-77196122D01*
X115062670Y-77196121D01*
X115009340Y-77067369D01*
X115001158Y-77047617D01*
X114969800Y-76889970D01*
X114969800Y-76729230D01*
X115001158Y-76571583D01*
X115045494Y-76464547D01*
X115062670Y-76423079D01*
X115104961Y-76359786D01*
X115151969Y-76289433D01*
X115265633Y-76175769D01*
X115399278Y-76086471D01*
X115399279Y-76086470D01*
X115478027Y-76053852D01*
X115547783Y-76024958D01*
X115705430Y-75993600D01*
X115866170Y-75993600D01*
X116023817Y-76024958D01*
G37*
G36*
X113483817Y-76024958D02*
G01*
X113553573Y-76053852D01*
X113632321Y-76086470D01*
X113632322Y-76086471D01*
X113765967Y-76175769D01*
X113879631Y-76289433D01*
X113926639Y-76359786D01*
X113968930Y-76423079D01*
X113986106Y-76464547D01*
X114030442Y-76571583D01*
X114061800Y-76729230D01*
X114061800Y-76889970D01*
X114030442Y-77047617D01*
X114022260Y-77067369D01*
X113968930Y-77196121D01*
X113968929Y-77196122D01*
X113879631Y-77329767D01*
X113765967Y-77443431D01*
X113676993Y-77502881D01*
X113632321Y-77532730D01*
X113558070Y-77563485D01*
X113483817Y-77594242D01*
X113326170Y-77625600D01*
X113165430Y-77625600D01*
X113007783Y-77594242D01*
X112859279Y-77532730D01*
X112814607Y-77502881D01*
X112725633Y-77443431D01*
X112611969Y-77329767D01*
X112522671Y-77196122D01*
X112522670Y-77196121D01*
X112469340Y-77067369D01*
X112461158Y-77047617D01*
X112429800Y-76889970D01*
X112429800Y-76729230D01*
X112461158Y-76571583D01*
X112505494Y-76464547D01*
X112522670Y-76423079D01*
X112564961Y-76359786D01*
X112611969Y-76289433D01*
X112725633Y-76175769D01*
X112859278Y-76086471D01*
X112859279Y-76086470D01*
X112938027Y-76053852D01*
X113007783Y-76024958D01*
X113165430Y-75993600D01*
X113326170Y-75993600D01*
X113483817Y-76024958D01*
G37*
G36*
X110943817Y-76024958D02*
G01*
X111013573Y-76053852D01*
X111092321Y-76086470D01*
X111092322Y-76086471D01*
X111225967Y-76175769D01*
X111339631Y-76289433D01*
X111386639Y-76359786D01*
X111428930Y-76423079D01*
X111446106Y-76464547D01*
X111490442Y-76571583D01*
X111521800Y-76729230D01*
X111521800Y-76889970D01*
X111490442Y-77047617D01*
X111482260Y-77067369D01*
X111428930Y-77196121D01*
X111428929Y-77196122D01*
X111339631Y-77329767D01*
X111225967Y-77443431D01*
X111136993Y-77502881D01*
X111092321Y-77532730D01*
X111018070Y-77563485D01*
X110943817Y-77594242D01*
X110786170Y-77625600D01*
X110625430Y-77625600D01*
X110467783Y-77594242D01*
X110319279Y-77532730D01*
X110274607Y-77502881D01*
X110185633Y-77443431D01*
X110071969Y-77329767D01*
X109982671Y-77196122D01*
X109982670Y-77196121D01*
X109929340Y-77067369D01*
X109921158Y-77047617D01*
X109889800Y-76889970D01*
X109889800Y-76729230D01*
X109921158Y-76571583D01*
X109965494Y-76464547D01*
X109982670Y-76423079D01*
X110024961Y-76359786D01*
X110071969Y-76289433D01*
X110185633Y-76175769D01*
X110319278Y-76086471D01*
X110319279Y-76086470D01*
X110398027Y-76053852D01*
X110467783Y-76024958D01*
X110625430Y-75993600D01*
X110786170Y-75993600D01*
X110943817Y-76024958D01*
G37*
G36*
X108403817Y-76024958D02*
G01*
X108473573Y-76053852D01*
X108552321Y-76086470D01*
X108552322Y-76086471D01*
X108685967Y-76175769D01*
X108799631Y-76289433D01*
X108846639Y-76359786D01*
X108888930Y-76423079D01*
X108906106Y-76464547D01*
X108950442Y-76571583D01*
X108981800Y-76729230D01*
X108981800Y-76889970D01*
X108950442Y-77047617D01*
X108942260Y-77067369D01*
X108888930Y-77196121D01*
X108888929Y-77196122D01*
X108799631Y-77329767D01*
X108685967Y-77443431D01*
X108596993Y-77502881D01*
X108552321Y-77532730D01*
X108478070Y-77563485D01*
X108403817Y-77594242D01*
X108246170Y-77625600D01*
X108085430Y-77625600D01*
X107927783Y-77594242D01*
X107779279Y-77532730D01*
X107734607Y-77502881D01*
X107645633Y-77443431D01*
X107531969Y-77329767D01*
X107442671Y-77196122D01*
X107442670Y-77196121D01*
X107389340Y-77067369D01*
X107381158Y-77047617D01*
X107349800Y-76889970D01*
X107349800Y-76729230D01*
X107381158Y-76571583D01*
X107425494Y-76464547D01*
X107442670Y-76423079D01*
X107484961Y-76359786D01*
X107531969Y-76289433D01*
X107645633Y-76175769D01*
X107779278Y-76086471D01*
X107779279Y-76086470D01*
X107858027Y-76053852D01*
X107927783Y-76024958D01*
X108085430Y-75993600D01*
X108246170Y-75993600D01*
X108403817Y-76024958D01*
G37*
G36*
X105863817Y-76024958D02*
G01*
X105933573Y-76053852D01*
X106012321Y-76086470D01*
X106012322Y-76086471D01*
X106145967Y-76175769D01*
X106259631Y-76289433D01*
X106306639Y-76359786D01*
X106348930Y-76423079D01*
X106366106Y-76464547D01*
X106410442Y-76571583D01*
X106441800Y-76729230D01*
X106441800Y-76889970D01*
X106410442Y-77047617D01*
X106402260Y-77067369D01*
X106348930Y-77196121D01*
X106348929Y-77196122D01*
X106259631Y-77329767D01*
X106145967Y-77443431D01*
X106056993Y-77502881D01*
X106012321Y-77532730D01*
X105938070Y-77563485D01*
X105863817Y-77594242D01*
X105706170Y-77625600D01*
X105545430Y-77625600D01*
X105387783Y-77594242D01*
X105239279Y-77532730D01*
X105194607Y-77502881D01*
X105105633Y-77443431D01*
X104991969Y-77329767D01*
X104902671Y-77196122D01*
X104902670Y-77196121D01*
X104849340Y-77067369D01*
X104841158Y-77047617D01*
X104809800Y-76889970D01*
X104809800Y-76729230D01*
X104841158Y-76571583D01*
X104885494Y-76464547D01*
X104902670Y-76423079D01*
X104944961Y-76359786D01*
X104991969Y-76289433D01*
X105105633Y-76175769D01*
X105239278Y-76086471D01*
X105239279Y-76086470D01*
X105318027Y-76053852D01*
X105387783Y-76024958D01*
X105545430Y-75993600D01*
X105706170Y-75993600D01*
X105863817Y-76024958D01*
G37*
G36*
X100783817Y-76024958D02*
G01*
X100853573Y-76053852D01*
X100932321Y-76086470D01*
X100932322Y-76086471D01*
X101065967Y-76175769D01*
X101179631Y-76289433D01*
X101226639Y-76359786D01*
X101268930Y-76423079D01*
X101286106Y-76464547D01*
X101330442Y-76571583D01*
X101361800Y-76729230D01*
X101361800Y-76889970D01*
X101330442Y-77047617D01*
X101322260Y-77067369D01*
X101268930Y-77196121D01*
X101268929Y-77196122D01*
X101179631Y-77329767D01*
X101065967Y-77443431D01*
X100976993Y-77502881D01*
X100932321Y-77532730D01*
X100858070Y-77563485D01*
X100783817Y-77594242D01*
X100626170Y-77625600D01*
X100465430Y-77625600D01*
X100307783Y-77594242D01*
X100159279Y-77532730D01*
X100114607Y-77502881D01*
X100025633Y-77443431D01*
X99911969Y-77329767D01*
X99822671Y-77196122D01*
X99822670Y-77196121D01*
X99769340Y-77067369D01*
X99761158Y-77047617D01*
X99729800Y-76889970D01*
X99729800Y-76729230D01*
X99761158Y-76571583D01*
X99805494Y-76464547D01*
X99822670Y-76423079D01*
X99864961Y-76359786D01*
X99911969Y-76289433D01*
X100025633Y-76175769D01*
X100159278Y-76086471D01*
X100159279Y-76086470D01*
X100238027Y-76053852D01*
X100307783Y-76024958D01*
X100465430Y-75993600D01*
X100626170Y-75993600D01*
X100783817Y-76024958D01*
G37*
G36*
X95703817Y-76024958D02*
G01*
X95773573Y-76053852D01*
X95852321Y-76086470D01*
X95852322Y-76086471D01*
X95985967Y-76175769D01*
X96099631Y-76289433D01*
X96146639Y-76359786D01*
X96188930Y-76423079D01*
X96206106Y-76464547D01*
X96250442Y-76571583D01*
X96281800Y-76729230D01*
X96281800Y-76889970D01*
X96250442Y-77047617D01*
X96242260Y-77067369D01*
X96188930Y-77196121D01*
X96188929Y-77196122D01*
X96099631Y-77329767D01*
X95985967Y-77443431D01*
X95896993Y-77502881D01*
X95852321Y-77532730D01*
X95778070Y-77563485D01*
X95703817Y-77594242D01*
X95546170Y-77625600D01*
X95385430Y-77625600D01*
X95227783Y-77594242D01*
X95079279Y-77532730D01*
X95034607Y-77502881D01*
X94945633Y-77443431D01*
X94831969Y-77329767D01*
X94742671Y-77196122D01*
X94742670Y-77196121D01*
X94689340Y-77067369D01*
X94681158Y-77047617D01*
X94649800Y-76889970D01*
X94649800Y-76729230D01*
X94681158Y-76571583D01*
X94725494Y-76464547D01*
X94742670Y-76423079D01*
X94784961Y-76359786D01*
X94831969Y-76289433D01*
X94945633Y-76175769D01*
X95079278Y-76086471D01*
X95079279Y-76086470D01*
X95158027Y-76053852D01*
X95227783Y-76024958D01*
X95385430Y-75993600D01*
X95546170Y-75993600D01*
X95703817Y-76024958D01*
G37*
G36*
X93163817Y-76024958D02*
G01*
X93233573Y-76053852D01*
X93312321Y-76086470D01*
X93312322Y-76086471D01*
X93445967Y-76175769D01*
X93559631Y-76289433D01*
X93606639Y-76359786D01*
X93648930Y-76423079D01*
X93666106Y-76464547D01*
X93710442Y-76571583D01*
X93741800Y-76729230D01*
X93741800Y-76889970D01*
X93710442Y-77047617D01*
X93702260Y-77067369D01*
X93648930Y-77196121D01*
X93648929Y-77196122D01*
X93559631Y-77329767D01*
X93445967Y-77443431D01*
X93356993Y-77502881D01*
X93312321Y-77532730D01*
X93238070Y-77563485D01*
X93163817Y-77594242D01*
X93006170Y-77625600D01*
X92845430Y-77625600D01*
X92687783Y-77594242D01*
X92539279Y-77532730D01*
X92494607Y-77502881D01*
X92405633Y-77443431D01*
X92291969Y-77329767D01*
X92202671Y-77196122D01*
X92202670Y-77196121D01*
X92149340Y-77067369D01*
X92141158Y-77047617D01*
X92109800Y-76889970D01*
X92109800Y-76729230D01*
X92141158Y-76571583D01*
X92185494Y-76464547D01*
X92202670Y-76423079D01*
X92244961Y-76359786D01*
X92291969Y-76289433D01*
X92405633Y-76175769D01*
X92539278Y-76086471D01*
X92539279Y-76086470D01*
X92618027Y-76053852D01*
X92687783Y-76024958D01*
X92845430Y-75993600D01*
X93006170Y-75993600D01*
X93163817Y-76024958D01*
G37*
G36*
X90623817Y-76024958D02*
G01*
X90693573Y-76053852D01*
X90772321Y-76086470D01*
X90772322Y-76086471D01*
X90905967Y-76175769D01*
X91019631Y-76289433D01*
X91066639Y-76359786D01*
X91108930Y-76423079D01*
X91126106Y-76464547D01*
X91170442Y-76571583D01*
X91201800Y-76729230D01*
X91201800Y-76889970D01*
X91170442Y-77047617D01*
X91162260Y-77067369D01*
X91108930Y-77196121D01*
X91108929Y-77196122D01*
X91019631Y-77329767D01*
X90905967Y-77443431D01*
X90816993Y-77502881D01*
X90772321Y-77532730D01*
X90698070Y-77563485D01*
X90623817Y-77594242D01*
X90466170Y-77625600D01*
X90305430Y-77625600D01*
X90147783Y-77594242D01*
X89999279Y-77532730D01*
X89954607Y-77502881D01*
X89865633Y-77443431D01*
X89751969Y-77329767D01*
X89662671Y-77196122D01*
X89662670Y-77196121D01*
X89609340Y-77067369D01*
X89601158Y-77047617D01*
X89569800Y-76889970D01*
X89569800Y-76729230D01*
X89601158Y-76571583D01*
X89645494Y-76464547D01*
X89662670Y-76423079D01*
X89704961Y-76359786D01*
X89751969Y-76289433D01*
X89865633Y-76175769D01*
X89999278Y-76086471D01*
X89999279Y-76086470D01*
X90078027Y-76053852D01*
X90147783Y-76024958D01*
X90305430Y-75993600D01*
X90466170Y-75993600D01*
X90623817Y-76024958D01*
G37*
G36*
X88083817Y-76024958D02*
G01*
X88153573Y-76053852D01*
X88232321Y-76086470D01*
X88232322Y-76086471D01*
X88365967Y-76175769D01*
X88479631Y-76289433D01*
X88526639Y-76359786D01*
X88568930Y-76423079D01*
X88586106Y-76464547D01*
X88630442Y-76571583D01*
X88661800Y-76729230D01*
X88661800Y-76889970D01*
X88630442Y-77047617D01*
X88622260Y-77067369D01*
X88568930Y-77196121D01*
X88568929Y-77196122D01*
X88479631Y-77329767D01*
X88365967Y-77443431D01*
X88276993Y-77502881D01*
X88232321Y-77532730D01*
X88158070Y-77563485D01*
X88083817Y-77594242D01*
X87926170Y-77625600D01*
X87765430Y-77625600D01*
X87607783Y-77594242D01*
X87459279Y-77532730D01*
X87414607Y-77502881D01*
X87325633Y-77443431D01*
X87211969Y-77329767D01*
X87122671Y-77196122D01*
X87122670Y-77196121D01*
X87069340Y-77067369D01*
X87061158Y-77047617D01*
X87029800Y-76889970D01*
X87029800Y-76729230D01*
X87061158Y-76571583D01*
X87105494Y-76464547D01*
X87122670Y-76423079D01*
X87164961Y-76359786D01*
X87211969Y-76289433D01*
X87325633Y-76175769D01*
X87459278Y-76086471D01*
X87459279Y-76086470D01*
X87538027Y-76053852D01*
X87607783Y-76024958D01*
X87765430Y-75993600D01*
X87926170Y-75993600D01*
X88083817Y-76024958D01*
G37*
G36*
X85543817Y-76024958D02*
G01*
X85613573Y-76053852D01*
X85692321Y-76086470D01*
X85692322Y-76086471D01*
X85825967Y-76175769D01*
X85939631Y-76289433D01*
X85986639Y-76359786D01*
X86028930Y-76423079D01*
X86046106Y-76464547D01*
X86090442Y-76571583D01*
X86121800Y-76729230D01*
X86121800Y-76889970D01*
X86090442Y-77047617D01*
X86082260Y-77067369D01*
X86028930Y-77196121D01*
X86028929Y-77196122D01*
X85939631Y-77329767D01*
X85825967Y-77443431D01*
X85736993Y-77502881D01*
X85692321Y-77532730D01*
X85618070Y-77563485D01*
X85543817Y-77594242D01*
X85386170Y-77625600D01*
X85225430Y-77625600D01*
X85067783Y-77594242D01*
X84919279Y-77532730D01*
X84874607Y-77502881D01*
X84785633Y-77443431D01*
X84671969Y-77329767D01*
X84582671Y-77196122D01*
X84582670Y-77196121D01*
X84529340Y-77067369D01*
X84521158Y-77047617D01*
X84489800Y-76889970D01*
X84489800Y-76729230D01*
X84521158Y-76571583D01*
X84565494Y-76464547D01*
X84582670Y-76423079D01*
X84624961Y-76359786D01*
X84671969Y-76289433D01*
X84785633Y-76175769D01*
X84919278Y-76086471D01*
X84919279Y-76086470D01*
X84998027Y-76053852D01*
X85067783Y-76024958D01*
X85225430Y-75993600D01*
X85386170Y-75993600D01*
X85543817Y-76024958D01*
G37*
G36*
X83003817Y-76024958D02*
G01*
X83073573Y-76053852D01*
X83152321Y-76086470D01*
X83152322Y-76086471D01*
X83285967Y-76175769D01*
X83399631Y-76289433D01*
X83446639Y-76359786D01*
X83488930Y-76423079D01*
X83506106Y-76464547D01*
X83550442Y-76571583D01*
X83581800Y-76729230D01*
X83581800Y-76889970D01*
X83550442Y-77047617D01*
X83542260Y-77067369D01*
X83488930Y-77196121D01*
X83488929Y-77196122D01*
X83399631Y-77329767D01*
X83285967Y-77443431D01*
X83196993Y-77502881D01*
X83152321Y-77532730D01*
X83078070Y-77563485D01*
X83003817Y-77594242D01*
X82846170Y-77625600D01*
X82685430Y-77625600D01*
X82527783Y-77594242D01*
X82379279Y-77532730D01*
X82334607Y-77502881D01*
X82245633Y-77443431D01*
X82131969Y-77329767D01*
X82042671Y-77196122D01*
X82042670Y-77196121D01*
X81989340Y-77067369D01*
X81981158Y-77047617D01*
X81949800Y-76889970D01*
X81949800Y-76729230D01*
X81981158Y-76571583D01*
X82025494Y-76464547D01*
X82042670Y-76423079D01*
X82084961Y-76359786D01*
X82131969Y-76289433D01*
X82245633Y-76175769D01*
X82379278Y-76086471D01*
X82379279Y-76086470D01*
X82458027Y-76053852D01*
X82527783Y-76024958D01*
X82685430Y-75993600D01*
X82846170Y-75993600D01*
X83003817Y-76024958D01*
G37*
G36*
X80463817Y-76024958D02*
G01*
X80533573Y-76053852D01*
X80612321Y-76086470D01*
X80612322Y-76086471D01*
X80745967Y-76175769D01*
X80859631Y-76289433D01*
X80906639Y-76359786D01*
X80948930Y-76423079D01*
X80966106Y-76464547D01*
X81010442Y-76571583D01*
X81041800Y-76729230D01*
X81041800Y-76889970D01*
X81010442Y-77047617D01*
X81002260Y-77067369D01*
X80948930Y-77196121D01*
X80948929Y-77196122D01*
X80859631Y-77329767D01*
X80745967Y-77443431D01*
X80656993Y-77502881D01*
X80612321Y-77532730D01*
X80463817Y-77594242D01*
X80306170Y-77625600D01*
X80145430Y-77625600D01*
X79987783Y-77594242D01*
X79839279Y-77532730D01*
X79794607Y-77502881D01*
X79705633Y-77443431D01*
X79591969Y-77329767D01*
X79502671Y-77196122D01*
X79502670Y-77196121D01*
X79449340Y-77067369D01*
X79441158Y-77047617D01*
X79409800Y-76889970D01*
X79409800Y-76729230D01*
X79441158Y-76571583D01*
X79485494Y-76464547D01*
X79502670Y-76423079D01*
X79544961Y-76359786D01*
X79591969Y-76289433D01*
X79705633Y-76175769D01*
X79839278Y-76086471D01*
X79839279Y-76086470D01*
X79918027Y-76053852D01*
X79987783Y-76024958D01*
X80145430Y-75993600D01*
X80306170Y-75993600D01*
X80463817Y-76024958D01*
G37*
G36*
X136343817Y-76024958D02*
G01*
X136413573Y-76053852D01*
X136492321Y-76086470D01*
X136492322Y-76086471D01*
X136625967Y-76175769D01*
X136739631Y-76289433D01*
X136786639Y-76359786D01*
X136828930Y-76423079D01*
X136846106Y-76464547D01*
X136890442Y-76571583D01*
X136921800Y-76729230D01*
X136921800Y-76889970D01*
X136890442Y-77047617D01*
X136882260Y-77067369D01*
X136828930Y-77196121D01*
X136828929Y-77196122D01*
X136739631Y-77329767D01*
X136625967Y-77443431D01*
X136536993Y-77502881D01*
X136492321Y-77532730D01*
X136418070Y-77563485D01*
X136343817Y-77594242D01*
X136186170Y-77625600D01*
X136025430Y-77625600D01*
X135867783Y-77594242D01*
X135719279Y-77532730D01*
X135674607Y-77502881D01*
X135585633Y-77443431D01*
X135471969Y-77329767D01*
X135382671Y-77196122D01*
X135382670Y-77196121D01*
X135329340Y-77067369D01*
X135321158Y-77047617D01*
X135289800Y-76889970D01*
X135289800Y-76729230D01*
X135321158Y-76571583D01*
X135365494Y-76464547D01*
X135382670Y-76423079D01*
X135424961Y-76359786D01*
X135471969Y-76289433D01*
X135585633Y-76175769D01*
X135719278Y-76086471D01*
X135719279Y-76086470D01*
X135798027Y-76053852D01*
X135867783Y-76024958D01*
X136025430Y-75993600D01*
X136186170Y-75993600D01*
X136343817Y-76024958D01*
G37*
G36*
X138883817Y-76024958D02*
G01*
X138953573Y-76053852D01*
X139032321Y-76086470D01*
X139032322Y-76086471D01*
X139165967Y-76175769D01*
X139279631Y-76289433D01*
X139326639Y-76359786D01*
X139368930Y-76423079D01*
X139386106Y-76464547D01*
X139430442Y-76571583D01*
X139461800Y-76729230D01*
X139461800Y-76889970D01*
X139430442Y-77047617D01*
X139422260Y-77067369D01*
X139368930Y-77196121D01*
X139368929Y-77196122D01*
X139279631Y-77329767D01*
X139165967Y-77443431D01*
X139076993Y-77502881D01*
X139032321Y-77532730D01*
X138958070Y-77563485D01*
X138883817Y-77594242D01*
X138726170Y-77625600D01*
X138565430Y-77625600D01*
X138407783Y-77594242D01*
X138259279Y-77532730D01*
X138214607Y-77502881D01*
X138125633Y-77443431D01*
X138011969Y-77329767D01*
X137922671Y-77196122D01*
X137922670Y-77196121D01*
X137869340Y-77067369D01*
X137861158Y-77047617D01*
X137829800Y-76889970D01*
X137829800Y-76729230D01*
X137861158Y-76571583D01*
X137905494Y-76464547D01*
X137922670Y-76423079D01*
X137964961Y-76359786D01*
X138011969Y-76289433D01*
X138125633Y-76175769D01*
X138259278Y-76086471D01*
X138259279Y-76086470D01*
X138338027Y-76053852D01*
X138407783Y-76024958D01*
X138565430Y-75993600D01*
X138726170Y-75993600D01*
X138883817Y-76024958D01*
G37*
G36*
X103323817Y-76024958D02*
G01*
X103393573Y-76053852D01*
X103472321Y-76086470D01*
X103472322Y-76086471D01*
X103605967Y-76175769D01*
X103719631Y-76289433D01*
X103766639Y-76359786D01*
X103808930Y-76423079D01*
X103826106Y-76464547D01*
X103870442Y-76571583D01*
X103901800Y-76729230D01*
X103901800Y-76889970D01*
X103870442Y-77047617D01*
X103862260Y-77067369D01*
X103808930Y-77196121D01*
X103808929Y-77196122D01*
X103719631Y-77329767D01*
X103605967Y-77443431D01*
X103516993Y-77502881D01*
X103472321Y-77532730D01*
X103398070Y-77563485D01*
X103323817Y-77594242D01*
X103166170Y-77625600D01*
X103005430Y-77625600D01*
X102847783Y-77594242D01*
X102699279Y-77532730D01*
X102654607Y-77502881D01*
X102565633Y-77443431D01*
X102451969Y-77329767D01*
X102362671Y-77196122D01*
X102362670Y-77196121D01*
X102309340Y-77067369D01*
X102301158Y-77047617D01*
X102269800Y-76889970D01*
X102269800Y-76729230D01*
X102301158Y-76571583D01*
X102345494Y-76464547D01*
X102362670Y-76423079D01*
X102404961Y-76359786D01*
X102451969Y-76289433D01*
X102565633Y-76175769D01*
X102699278Y-76086471D01*
X102699279Y-76086470D01*
X102778027Y-76053852D01*
X102847783Y-76024958D01*
X103005430Y-75993600D01*
X103166170Y-75993600D01*
X103323817Y-76024958D01*
G37*
G36*
X98243817Y-76024958D02*
G01*
X98313573Y-76053852D01*
X98392321Y-76086470D01*
X98392322Y-76086471D01*
X98525967Y-76175769D01*
X98639631Y-76289433D01*
X98686639Y-76359786D01*
X98728930Y-76423079D01*
X98746106Y-76464547D01*
X98790442Y-76571583D01*
X98821800Y-76729230D01*
X98821800Y-76889970D01*
X98790442Y-77047617D01*
X98782260Y-77067369D01*
X98728930Y-77196121D01*
X98728929Y-77196122D01*
X98639631Y-77329767D01*
X98525967Y-77443431D01*
X98436993Y-77502881D01*
X98392321Y-77532730D01*
X98318070Y-77563485D01*
X98243817Y-77594242D01*
X98086170Y-77625600D01*
X97925430Y-77625600D01*
X97767783Y-77594242D01*
X97619279Y-77532730D01*
X97574607Y-77502881D01*
X97485633Y-77443431D01*
X97371969Y-77329767D01*
X97282671Y-77196122D01*
X97282670Y-77196121D01*
X97229340Y-77067369D01*
X97221158Y-77047617D01*
X97189800Y-76889970D01*
X97189800Y-76729230D01*
X97221158Y-76571583D01*
X97265494Y-76464547D01*
X97282670Y-76423079D01*
X97324961Y-76359786D01*
X97371969Y-76289433D01*
X97485633Y-76175769D01*
X97619278Y-76086471D01*
X97619279Y-76086470D01*
X97698027Y-76053852D01*
X97767783Y-76024958D01*
X97925430Y-75993600D01*
X98086170Y-75993600D01*
X98243817Y-76024958D01*
G37*
M02*
