G04 #@! TF.GenerationSoftware,KiCad,Pcbnew,(5.1.4)-1*
G04 #@! TF.CreationDate,2019-11-17T17:18:35+01:00*
G04 #@! TF.ProjectId,DNMS,444e4d53-2e6b-4696-9361-645f70636258,0.9.0*
G04 #@! TF.SameCoordinates,Original*
G04 #@! TF.FileFunction,Legend,Top*
G04 #@! TF.FilePolarity,Positive*
%FSLAX46Y46*%
G04 Gerber Fmt 4.6, Leading zero omitted, Abs format (unit mm)*
G04 Created by KiCad (PCBNEW (5.1.4)-1) date 2019-11-17 17:18:35*
%MOMM*%
%LPD*%
G04 APERTURE LIST*
%ADD10C,0.100000*%
%ADD11C,0.300000*%
%ADD12C,0.750000*%
%ADD13C,0.200000*%
%ADD14C,0.120000*%
%ADD15C,0.127000*%
%ADD16C,0.152400*%
%ADD17C,0.010000*%
%ADD18C,0.254000*%
%ADD19C,0.150000*%
G04 APERTURE END LIST*
D10*
X200698228Y-82988142D02*
X201307752Y-82988142D01*
X201002990Y-83292904D02*
X201002990Y-82683380D01*
X202069657Y-82492904D02*
X201688704Y-82492904D01*
X201650609Y-82873857D01*
X201688704Y-82835761D01*
X201764895Y-82797666D01*
X201955371Y-82797666D01*
X202031561Y-82835761D01*
X202069657Y-82873857D01*
X202107752Y-82950047D01*
X202107752Y-83140523D01*
X202069657Y-83216714D01*
X202031561Y-83254809D01*
X201955371Y-83292904D01*
X201764895Y-83292904D01*
X201688704Y-83254809D01*
X201650609Y-83216714D01*
X202336323Y-82492904D02*
X202602990Y-83292904D01*
X202869657Y-82492904D01*
X201295076Y-86747400D02*
X201218885Y-86709304D01*
X201104600Y-86709304D01*
X200990314Y-86747400D01*
X200914123Y-86823590D01*
X200876028Y-86899780D01*
X200837933Y-87052161D01*
X200837933Y-87166447D01*
X200876028Y-87318828D01*
X200914123Y-87395019D01*
X200990314Y-87471209D01*
X201104600Y-87509304D01*
X201180790Y-87509304D01*
X201295076Y-87471209D01*
X201333171Y-87433114D01*
X201333171Y-87166447D01*
X201180790Y-87166447D01*
X201676028Y-87509304D02*
X201676028Y-86709304D01*
X202133171Y-87509304D01*
X202133171Y-86709304D01*
X202514123Y-87509304D02*
X202514123Y-86709304D01*
X202704600Y-86709304D01*
X202818885Y-86747400D01*
X202895076Y-86823590D01*
X202933171Y-86899780D01*
X202971266Y-87052161D01*
X202971266Y-87166447D01*
X202933171Y-87318828D01*
X202895076Y-87395019D01*
X202818885Y-87471209D01*
X202704600Y-87509304D01*
X202514123Y-87509304D01*
X200412619Y-85236009D02*
X200526904Y-85274104D01*
X200717380Y-85274104D01*
X200793571Y-85236009D01*
X200831666Y-85197914D01*
X200869761Y-85121723D01*
X200869761Y-85045533D01*
X200831666Y-84969342D01*
X200793571Y-84931247D01*
X200717380Y-84893152D01*
X200565000Y-84855057D01*
X200488809Y-84816961D01*
X200450714Y-84778866D01*
X200412619Y-84702676D01*
X200412619Y-84626485D01*
X200450714Y-84550295D01*
X200488809Y-84512200D01*
X200565000Y-84474104D01*
X200755476Y-84474104D01*
X200869761Y-84512200D01*
X201212619Y-85274104D02*
X201212619Y-84474104D01*
X201403095Y-84474104D01*
X201517380Y-84512200D01*
X201593571Y-84588390D01*
X201631666Y-84664580D01*
X201669761Y-84816961D01*
X201669761Y-84931247D01*
X201631666Y-85083628D01*
X201593571Y-85159819D01*
X201517380Y-85236009D01*
X201403095Y-85274104D01*
X201212619Y-85274104D01*
X201974523Y-85045533D02*
X202355476Y-85045533D01*
X201898333Y-85274104D02*
X202165000Y-84474104D01*
X202431666Y-85274104D01*
X202698333Y-84969342D02*
X203307857Y-84969342D01*
X203688809Y-84855057D02*
X203955476Y-84855057D01*
X204069761Y-85274104D02*
X203688809Y-85274104D01*
X203688809Y-84474104D01*
X204069761Y-84474104D01*
X204336428Y-85274104D02*
X204755476Y-84740771D01*
X204336428Y-84740771D02*
X204755476Y-85274104D01*
X191287666Y-84321609D02*
X191401952Y-84359704D01*
X191592428Y-84359704D01*
X191668619Y-84321609D01*
X191706714Y-84283514D01*
X191744809Y-84207323D01*
X191744809Y-84131133D01*
X191706714Y-84054942D01*
X191668619Y-84016847D01*
X191592428Y-83978752D01*
X191440047Y-83940657D01*
X191363857Y-83902561D01*
X191325761Y-83864466D01*
X191287666Y-83788276D01*
X191287666Y-83712085D01*
X191325761Y-83635895D01*
X191363857Y-83597800D01*
X191440047Y-83559704D01*
X191630523Y-83559704D01*
X191744809Y-83597800D01*
X192544809Y-84283514D02*
X192506714Y-84321609D01*
X192392428Y-84359704D01*
X192316238Y-84359704D01*
X192201952Y-84321609D01*
X192125761Y-84245419D01*
X192087666Y-84169228D01*
X192049571Y-84016847D01*
X192049571Y-83902561D01*
X192087666Y-83750180D01*
X192125761Y-83673990D01*
X192201952Y-83597800D01*
X192316238Y-83559704D01*
X192392428Y-83559704D01*
X192506714Y-83597800D01*
X192544809Y-83635895D01*
X193268619Y-84359704D02*
X192887666Y-84359704D01*
X192887666Y-83559704D01*
X193535285Y-84054942D02*
X194144809Y-84054942D01*
X194525761Y-83940657D02*
X194792428Y-83940657D01*
X194906714Y-84359704D02*
X194525761Y-84359704D01*
X194525761Y-83559704D01*
X194906714Y-83559704D01*
X195173380Y-84359704D02*
X195592428Y-83826371D01*
X195173380Y-83826371D02*
X195592428Y-84359704D01*
X193725876Y-85807600D02*
X193649685Y-85769504D01*
X193535400Y-85769504D01*
X193421114Y-85807600D01*
X193344923Y-85883790D01*
X193306828Y-85959980D01*
X193268733Y-86112361D01*
X193268733Y-86226647D01*
X193306828Y-86379028D01*
X193344923Y-86455219D01*
X193421114Y-86531409D01*
X193535400Y-86569504D01*
X193611590Y-86569504D01*
X193725876Y-86531409D01*
X193763971Y-86493314D01*
X193763971Y-86226647D01*
X193611590Y-86226647D01*
X194106828Y-86569504D02*
X194106828Y-85769504D01*
X194563971Y-86569504D01*
X194563971Y-85769504D01*
X194944923Y-86569504D02*
X194944923Y-85769504D01*
X195135400Y-85769504D01*
X195249685Y-85807600D01*
X195325876Y-85883790D01*
X195363971Y-85959980D01*
X195402066Y-86112361D01*
X195402066Y-86226647D01*
X195363971Y-86379028D01*
X195325876Y-86455219D01*
X195249685Y-86531409D01*
X195135400Y-86569504D01*
X194944923Y-86569504D01*
X195592828Y-80498942D02*
X196202352Y-80498942D01*
X195897590Y-80803704D02*
X195897590Y-80194180D01*
X196964257Y-80003704D02*
X196583304Y-80003704D01*
X196545209Y-80384657D01*
X196583304Y-80346561D01*
X196659495Y-80308466D01*
X196849971Y-80308466D01*
X196926161Y-80346561D01*
X196964257Y-80384657D01*
X197002352Y-80460847D01*
X197002352Y-80651323D01*
X196964257Y-80727514D01*
X196926161Y-80765609D01*
X196849971Y-80803704D01*
X196659495Y-80803704D01*
X196583304Y-80765609D01*
X196545209Y-80727514D01*
X197230923Y-80003704D02*
X197497590Y-80803704D01*
X197764257Y-80003704D01*
D11*
X147312714Y-84420971D02*
X148169857Y-84420971D01*
X147741285Y-85920971D02*
X147741285Y-84420971D01*
X148527000Y-84420971D02*
X149455571Y-84420971D01*
X148955571Y-84992400D01*
X149169857Y-84992400D01*
X149312714Y-85063828D01*
X149384142Y-85135257D01*
X149455571Y-85278114D01*
X149455571Y-85635257D01*
X149384142Y-85778114D01*
X149312714Y-85849542D01*
X149169857Y-85920971D01*
X148741285Y-85920971D01*
X148598428Y-85849542D01*
X148527000Y-85778114D01*
X150098428Y-85778114D02*
X150169857Y-85849542D01*
X150098428Y-85920971D01*
X150027000Y-85849542D01*
X150098428Y-85778114D01*
X150098428Y-85920971D01*
X151455571Y-84420971D02*
X151169857Y-84420971D01*
X151027000Y-84492400D01*
X150955571Y-84563828D01*
X150812714Y-84778114D01*
X150741285Y-85063828D01*
X150741285Y-85635257D01*
X150812714Y-85778114D01*
X150884142Y-85849542D01*
X151027000Y-85920971D01*
X151312714Y-85920971D01*
X151455571Y-85849542D01*
X151527000Y-85778114D01*
X151598428Y-85635257D01*
X151598428Y-85278114D01*
X151527000Y-85135257D01*
X151455571Y-85063828D01*
X151312714Y-84992400D01*
X151027000Y-84992400D01*
X150884142Y-85063828D01*
X150812714Y-85135257D01*
X150741285Y-85278114D01*
X153169857Y-84420971D02*
X153669857Y-85920971D01*
X154169857Y-84420971D01*
X155455571Y-85920971D02*
X154598428Y-85920971D01*
X155027000Y-85920971D02*
X155027000Y-84420971D01*
X154884142Y-84635257D01*
X154741285Y-84778114D01*
X154598428Y-84849542D01*
X156098428Y-85778114D02*
X156169857Y-85849542D01*
X156098428Y-85920971D01*
X156027000Y-85849542D01*
X156098428Y-85778114D01*
X156098428Y-85920971D01*
X156741285Y-84563828D02*
X156812714Y-84492400D01*
X156955571Y-84420971D01*
X157312714Y-84420971D01*
X157455571Y-84492400D01*
X157527000Y-84563828D01*
X157598428Y-84706685D01*
X157598428Y-84849542D01*
X157527000Y-85063828D01*
X156669857Y-85920971D01*
X157598428Y-85920971D01*
D10*
X62846028Y-85617009D02*
X62960314Y-85655104D01*
X63150790Y-85655104D01*
X63226980Y-85617009D01*
X63265076Y-85578914D01*
X63303171Y-85502723D01*
X63303171Y-85426533D01*
X63265076Y-85350342D01*
X63226980Y-85312247D01*
X63150790Y-85274152D01*
X62998409Y-85236057D01*
X62922219Y-85197961D01*
X62884123Y-85159866D01*
X62846028Y-85083676D01*
X62846028Y-85007485D01*
X62884123Y-84931295D01*
X62922219Y-84893200D01*
X62998409Y-84855104D01*
X63188885Y-84855104D01*
X63303171Y-84893200D01*
X63646028Y-85655104D02*
X63646028Y-84855104D01*
X63836504Y-84855104D01*
X63950790Y-84893200D01*
X64026980Y-84969390D01*
X64065076Y-85045580D01*
X64103171Y-85197961D01*
X64103171Y-85312247D01*
X64065076Y-85464628D01*
X64026980Y-85540819D01*
X63950790Y-85617009D01*
X63836504Y-85655104D01*
X63646028Y-85655104D01*
X62699990Y-82213504D02*
X62890466Y-83013504D01*
X63042847Y-82442076D01*
X63195228Y-83013504D01*
X63385704Y-82213504D01*
X63652371Y-82975409D02*
X63766657Y-83013504D01*
X63957133Y-83013504D01*
X64033323Y-82975409D01*
X64071419Y-82937314D01*
X64109514Y-82861123D01*
X64109514Y-82784933D01*
X64071419Y-82708742D01*
X64033323Y-82670647D01*
X63957133Y-82632552D01*
X63804752Y-82594457D01*
X63728561Y-82556361D01*
X63690466Y-82518266D01*
X63652371Y-82442076D01*
X63652371Y-82365885D01*
X63690466Y-82289695D01*
X63728561Y-82251600D01*
X63804752Y-82213504D01*
X63995228Y-82213504D01*
X64109514Y-82251600D01*
X62572971Y-80498904D02*
X62192019Y-80498904D01*
X62192019Y-79698904D01*
X63411066Y-79660809D02*
X62725352Y-80689380D01*
X64134876Y-80498904D02*
X63868209Y-80117952D01*
X63677733Y-80498904D02*
X63677733Y-79698904D01*
X63982495Y-79698904D01*
X64058685Y-79737000D01*
X64096780Y-79775095D01*
X64134876Y-79851285D01*
X64134876Y-79965571D01*
X64096780Y-80041761D01*
X64058685Y-80079857D01*
X63982495Y-80117952D01*
X63677733Y-80117952D01*
X70916923Y-84855104D02*
X71412161Y-84855104D01*
X71145495Y-85159866D01*
X71259780Y-85159866D01*
X71335971Y-85197961D01*
X71374066Y-85236057D01*
X71412161Y-85312247D01*
X71412161Y-85502723D01*
X71374066Y-85578914D01*
X71335971Y-85617009D01*
X71259780Y-85655104D01*
X71031209Y-85655104D01*
X70955019Y-85617009D01*
X70916923Y-85578914D01*
X71640733Y-84855104D02*
X71907400Y-85655104D01*
X72174066Y-84855104D01*
X72364542Y-84855104D02*
X72859780Y-84855104D01*
X72593114Y-85159866D01*
X72707400Y-85159866D01*
X72783590Y-85197961D01*
X72821685Y-85236057D01*
X72859780Y-85312247D01*
X72859780Y-85502723D01*
X72821685Y-85578914D01*
X72783590Y-85617009D01*
X72707400Y-85655104D01*
X72478828Y-85655104D01*
X72402638Y-85617009D01*
X72364542Y-85578914D01*
X70878828Y-82924609D02*
X70993114Y-82962704D01*
X71183590Y-82962704D01*
X71259780Y-82924609D01*
X71297876Y-82886514D01*
X71335971Y-82810323D01*
X71335971Y-82734133D01*
X71297876Y-82657942D01*
X71259780Y-82619847D01*
X71183590Y-82581752D01*
X71031209Y-82543657D01*
X70955019Y-82505561D01*
X70916923Y-82467466D01*
X70878828Y-82391276D01*
X70878828Y-82315085D01*
X70916923Y-82238895D01*
X70955019Y-82200800D01*
X71031209Y-82162704D01*
X71221685Y-82162704D01*
X71335971Y-82200800D01*
X72135971Y-82886514D02*
X72097876Y-82924609D01*
X71983590Y-82962704D01*
X71907400Y-82962704D01*
X71793114Y-82924609D01*
X71716923Y-82848419D01*
X71678828Y-82772228D01*
X71640733Y-82619847D01*
X71640733Y-82505561D01*
X71678828Y-82353180D01*
X71716923Y-82276990D01*
X71793114Y-82200800D01*
X71907400Y-82162704D01*
X71983590Y-82162704D01*
X72097876Y-82200800D01*
X72135971Y-82238895D01*
X72478828Y-82962704D02*
X72478828Y-82162704D01*
X72935971Y-82962704D02*
X72593114Y-82505561D01*
X72935971Y-82162704D02*
X72478828Y-82619847D01*
X71323276Y-79711600D02*
X71247085Y-79673504D01*
X71132800Y-79673504D01*
X71018514Y-79711600D01*
X70942323Y-79787790D01*
X70904228Y-79863980D01*
X70866133Y-80016361D01*
X70866133Y-80130647D01*
X70904228Y-80283028D01*
X70942323Y-80359219D01*
X71018514Y-80435409D01*
X71132800Y-80473504D01*
X71208990Y-80473504D01*
X71323276Y-80435409D01*
X71361371Y-80397314D01*
X71361371Y-80130647D01*
X71208990Y-80130647D01*
X71704228Y-80473504D02*
X71704228Y-79673504D01*
X72161371Y-80473504D01*
X72161371Y-79673504D01*
X72542323Y-80473504D02*
X72542323Y-79673504D01*
X72732800Y-79673504D01*
X72847085Y-79711600D01*
X72923276Y-79787790D01*
X72961371Y-79863980D01*
X72999466Y-80016361D01*
X72999466Y-80130647D01*
X72961371Y-80283028D01*
X72923276Y-80359219D01*
X72847085Y-80435409D01*
X72732800Y-80473504D01*
X72542323Y-80473504D01*
X188379228Y-84588342D02*
X188988752Y-84588342D01*
X188683990Y-84893104D02*
X188683990Y-84283580D01*
X189750657Y-84093104D02*
X189369704Y-84093104D01*
X189331609Y-84474057D01*
X189369704Y-84435961D01*
X189445895Y-84397866D01*
X189636371Y-84397866D01*
X189712561Y-84435961D01*
X189750657Y-84474057D01*
X189788752Y-84550247D01*
X189788752Y-84740723D01*
X189750657Y-84816914D01*
X189712561Y-84855009D01*
X189636371Y-84893104D01*
X189445895Y-84893104D01*
X189369704Y-84855009D01*
X189331609Y-84816914D01*
X190017323Y-84093104D02*
X190283990Y-84893104D01*
X190550657Y-84093104D01*
X188849076Y-86950600D02*
X188772885Y-86912504D01*
X188658600Y-86912504D01*
X188544314Y-86950600D01*
X188468123Y-87026790D01*
X188430028Y-87102980D01*
X188391933Y-87255361D01*
X188391933Y-87369647D01*
X188430028Y-87522028D01*
X188468123Y-87598219D01*
X188544314Y-87674409D01*
X188658600Y-87712504D01*
X188734790Y-87712504D01*
X188849076Y-87674409D01*
X188887171Y-87636314D01*
X188887171Y-87369647D01*
X188734790Y-87369647D01*
X189230028Y-87712504D02*
X189230028Y-86912504D01*
X189687171Y-87712504D01*
X189687171Y-86912504D01*
X190068123Y-87712504D02*
X190068123Y-86912504D01*
X190258600Y-86912504D01*
X190372885Y-86950600D01*
X190449076Y-87026790D01*
X190487171Y-87102980D01*
X190525266Y-87255361D01*
X190525266Y-87369647D01*
X190487171Y-87522028D01*
X190449076Y-87598219D01*
X190372885Y-87674409D01*
X190258600Y-87712504D01*
X190068123Y-87712504D01*
X188436371Y-92678209D02*
X188550657Y-92716304D01*
X188741133Y-92716304D01*
X188817323Y-92678209D01*
X188855419Y-92640114D01*
X188893514Y-92563923D01*
X188893514Y-92487733D01*
X188855419Y-92411542D01*
X188817323Y-92373447D01*
X188741133Y-92335352D01*
X188588752Y-92297257D01*
X188512561Y-92259161D01*
X188474466Y-92221066D01*
X188436371Y-92144876D01*
X188436371Y-92068685D01*
X188474466Y-91992495D01*
X188512561Y-91954400D01*
X188588752Y-91916304D01*
X188779228Y-91916304D01*
X188893514Y-91954400D01*
X189236371Y-92716304D02*
X189236371Y-91916304D01*
X189426847Y-91916304D01*
X189541133Y-91954400D01*
X189617323Y-92030590D01*
X189655419Y-92106780D01*
X189693514Y-92259161D01*
X189693514Y-92373447D01*
X189655419Y-92525828D01*
X189617323Y-92602019D01*
X189541133Y-92678209D01*
X189426847Y-92716304D01*
X189236371Y-92716304D01*
X189998276Y-92487733D02*
X190379228Y-92487733D01*
X189922085Y-92716304D02*
X190188752Y-91916304D01*
X190455419Y-92716304D01*
X188455419Y-90138209D02*
X188569704Y-90176304D01*
X188760180Y-90176304D01*
X188836371Y-90138209D01*
X188874466Y-90100114D01*
X188912561Y-90023923D01*
X188912561Y-89947733D01*
X188874466Y-89871542D01*
X188836371Y-89833447D01*
X188760180Y-89795352D01*
X188607800Y-89757257D01*
X188531609Y-89719161D01*
X188493514Y-89681066D01*
X188455419Y-89604876D01*
X188455419Y-89528685D01*
X188493514Y-89452495D01*
X188531609Y-89414400D01*
X188607800Y-89376304D01*
X188798276Y-89376304D01*
X188912561Y-89414400D01*
X189712561Y-90100114D02*
X189674466Y-90138209D01*
X189560180Y-90176304D01*
X189483990Y-90176304D01*
X189369704Y-90138209D01*
X189293514Y-90062019D01*
X189255419Y-89985828D01*
X189217323Y-89833447D01*
X189217323Y-89719161D01*
X189255419Y-89566780D01*
X189293514Y-89490590D01*
X189369704Y-89414400D01*
X189483990Y-89376304D01*
X189560180Y-89376304D01*
X189674466Y-89414400D01*
X189712561Y-89452495D01*
X190436371Y-90176304D02*
X190055419Y-90176304D01*
X190055419Y-89376304D01*
D12*
X139169333Y-82652904D02*
X139169333Y-77652904D01*
X140359809Y-77652904D01*
X141074095Y-77891000D01*
X141550285Y-78367190D01*
X141788380Y-78843380D01*
X142026476Y-79795761D01*
X142026476Y-80510047D01*
X141788380Y-81462428D01*
X141550285Y-81938619D01*
X141074095Y-82414809D01*
X140359809Y-82652904D01*
X139169333Y-82652904D01*
X144169333Y-82652904D02*
X144169333Y-77652904D01*
X147026476Y-82652904D01*
X147026476Y-77652904D01*
X149407428Y-82652904D02*
X149407428Y-77652904D01*
X151074095Y-81224333D01*
X152740761Y-77652904D01*
X152740761Y-82652904D01*
X154883619Y-82414809D02*
X155597904Y-82652904D01*
X156788380Y-82652904D01*
X157264571Y-82414809D01*
X157502666Y-82176714D01*
X157740761Y-81700523D01*
X157740761Y-81224333D01*
X157502666Y-80748142D01*
X157264571Y-80510047D01*
X156788380Y-80271952D01*
X155836000Y-80033857D01*
X155359809Y-79795761D01*
X155121714Y-79557666D01*
X154883619Y-79081476D01*
X154883619Y-78605285D01*
X155121714Y-78129095D01*
X155359809Y-77891000D01*
X155836000Y-77652904D01*
X157026476Y-77652904D01*
X157740761Y-77891000D01*
D10*
X199612400Y-90455000D02*
X194612400Y-90455000D01*
X194612400Y-90455000D02*
X194612400Y-78455000D01*
X194612400Y-78455000D02*
X199612400Y-78455000D01*
X203612400Y-90455000D02*
X207612400Y-90455000D01*
X207612400Y-90455000D02*
X207612400Y-78455000D01*
X207612400Y-78455000D02*
X203612400Y-78455000D01*
D13*
X194112400Y-81955000D02*
X194112400Y-81955000D01*
X194112400Y-81755000D02*
X194112400Y-81755000D01*
X194112400Y-81755000D02*
G75*
G03X194112400Y-81955000I0J-100000D01*
G01*
X194112400Y-81955000D02*
G75*
G03X194112400Y-81755000I0J100000D01*
G01*
D14*
X64913200Y-78756200D02*
X66243200Y-78756200D01*
X64913200Y-80086200D02*
X64913200Y-78756200D01*
X67513200Y-78756200D02*
X70113200Y-78756200D01*
X67513200Y-81356200D02*
X67513200Y-78756200D01*
X64913200Y-81356200D02*
X67513200Y-81356200D01*
X70113200Y-78756200D02*
X70113200Y-86496200D01*
X64913200Y-81356200D02*
X64913200Y-86496200D01*
X64913200Y-86496200D02*
X70113200Y-86496200D01*
X69731400Y-91821000D02*
X69041400Y-91821000D01*
X64311400Y-91821000D02*
X65001400Y-91821000D01*
X69041400Y-90401000D02*
X65001400Y-90401000D01*
X69041400Y-93241000D02*
X69041400Y-90401000D01*
X65001400Y-93241000D02*
X69041400Y-93241000D01*
X65001400Y-90401000D02*
X65001400Y-93241000D01*
X175217600Y-91694000D02*
X174527600Y-91694000D01*
X169797600Y-91694000D02*
X170487600Y-91694000D01*
X174527600Y-90274000D02*
X170487600Y-90274000D01*
X174527600Y-93114000D02*
X174527600Y-90274000D01*
X170487600Y-93114000D02*
X174527600Y-93114000D01*
X170487600Y-90274000D02*
X170487600Y-93114000D01*
D15*
X136032620Y-75328000D02*
X73732620Y-75328000D01*
X73732620Y-75328000D02*
X73732620Y-93328000D01*
X73732620Y-93328000D02*
X136032620Y-93328000D01*
X136032620Y-93328000D02*
X136032620Y-75328000D01*
D16*
X133282620Y-87728000D02*
X133282620Y-87828000D01*
D14*
X180517800Y-78477600D02*
X180517800Y-79167600D01*
X180517800Y-83897600D02*
X180517800Y-83207600D01*
X179097800Y-79167600D02*
X179097800Y-83207600D01*
X181937800Y-79167600D02*
X179097800Y-79167600D01*
X181937800Y-83207600D02*
X181937800Y-79167600D01*
X179097800Y-83207600D02*
X181937800Y-83207600D01*
D17*
G36*
X146935429Y-88533740D02*
G01*
X147051483Y-88572012D01*
X147277414Y-88680127D01*
X147457540Y-88819529D01*
X147606516Y-89002100D01*
X147633053Y-89043528D01*
X147667482Y-89110671D01*
X147690380Y-89189588D01*
X147704816Y-89296584D01*
X147713860Y-89447968D01*
X147715086Y-89479396D01*
X147717066Y-89682801D01*
X147703032Y-89840347D01*
X147668765Y-89968572D01*
X147610047Y-90084011D01*
X147534085Y-90189050D01*
X147453277Y-90286765D01*
X147386138Y-90354704D01*
X147311535Y-90410392D01*
X147208334Y-90471355D01*
X147164425Y-90495604D01*
X147096744Y-90530562D01*
X147033835Y-90555035D01*
X146961966Y-90571211D01*
X146867406Y-90581276D01*
X146736426Y-90587419D01*
X146561175Y-90591707D01*
X146394259Y-90593029D01*
X146245778Y-90590356D01*
X146129477Y-90584213D01*
X146059103Y-90575125D01*
X146049622Y-90572175D01*
X145946093Y-90496387D01*
X145876647Y-90382656D01*
X145845067Y-90248846D01*
X145855139Y-90112820D01*
X145910648Y-89992444D01*
X145923413Y-89976507D01*
X145958982Y-89938488D01*
X145996856Y-89912464D01*
X146049969Y-89895385D01*
X146131258Y-89884203D01*
X146253659Y-89875866D01*
X146375851Y-89869852D01*
X146591053Y-89855732D01*
X146750659Y-89833541D01*
X146862456Y-89799082D01*
X146934231Y-89748155D01*
X146973768Y-89676563D01*
X146988854Y-89580107D01*
X146989800Y-89538819D01*
X146962801Y-89418833D01*
X146890914Y-89325744D01*
X146787801Y-89274122D01*
X146736126Y-89268300D01*
X146636587Y-89250398D01*
X146552120Y-89212750D01*
X146441492Y-89126616D01*
X146380580Y-89033804D01*
X146357315Y-88912979D01*
X146355856Y-88865799D01*
X146359489Y-88763960D01*
X146380243Y-88697976D01*
X146430416Y-88640386D01*
X146473159Y-88603861D01*
X146603875Y-88528955D01*
X146755747Y-88505703D01*
X146935429Y-88533740D01*
X146935429Y-88533740D01*
G37*
X146935429Y-88533740D02*
X147051483Y-88572012D01*
X147277414Y-88680127D01*
X147457540Y-88819529D01*
X147606516Y-89002100D01*
X147633053Y-89043528D01*
X147667482Y-89110671D01*
X147690380Y-89189588D01*
X147704816Y-89296584D01*
X147713860Y-89447968D01*
X147715086Y-89479396D01*
X147717066Y-89682801D01*
X147703032Y-89840347D01*
X147668765Y-89968572D01*
X147610047Y-90084011D01*
X147534085Y-90189050D01*
X147453277Y-90286765D01*
X147386138Y-90354704D01*
X147311535Y-90410392D01*
X147208334Y-90471355D01*
X147164425Y-90495604D01*
X147096744Y-90530562D01*
X147033835Y-90555035D01*
X146961966Y-90571211D01*
X146867406Y-90581276D01*
X146736426Y-90587419D01*
X146561175Y-90591707D01*
X146394259Y-90593029D01*
X146245778Y-90590356D01*
X146129477Y-90584213D01*
X146059103Y-90575125D01*
X146049622Y-90572175D01*
X145946093Y-90496387D01*
X145876647Y-90382656D01*
X145845067Y-90248846D01*
X145855139Y-90112820D01*
X145910648Y-89992444D01*
X145923413Y-89976507D01*
X145958982Y-89938488D01*
X145996856Y-89912464D01*
X146049969Y-89895385D01*
X146131258Y-89884203D01*
X146253659Y-89875866D01*
X146375851Y-89869852D01*
X146591053Y-89855732D01*
X146750659Y-89833541D01*
X146862456Y-89799082D01*
X146934231Y-89748155D01*
X146973768Y-89676563D01*
X146988854Y-89580107D01*
X146989800Y-89538819D01*
X146962801Y-89418833D01*
X146890914Y-89325744D01*
X146787801Y-89274122D01*
X146736126Y-89268300D01*
X146636587Y-89250398D01*
X146552120Y-89212750D01*
X146441492Y-89126616D01*
X146380580Y-89033804D01*
X146357315Y-88912979D01*
X146355856Y-88865799D01*
X146359489Y-88763960D01*
X146380243Y-88697976D01*
X146430416Y-88640386D01*
X146473159Y-88603861D01*
X146603875Y-88528955D01*
X146755747Y-88505703D01*
X146935429Y-88533740D01*
G36*
X141613959Y-84513785D02*
G01*
X141862561Y-84536623D01*
X142076919Y-84572640D01*
X142245714Y-84620161D01*
X142312696Y-84649368D01*
X142382621Y-84682081D01*
X142426859Y-84696097D01*
X142427216Y-84696104D01*
X142464244Y-84711125D01*
X142542235Y-84751196D01*
X142647457Y-84809111D01*
X142704399Y-84841590D01*
X142926402Y-84989034D01*
X143149445Y-85171646D01*
X143354931Y-85372369D01*
X143524260Y-85574149D01*
X143562887Y-85628851D01*
X143699754Y-85832147D01*
X144003339Y-85830727D01*
X144194246Y-85836491D01*
X144382030Y-85853917D01*
X144549861Y-85880583D01*
X144680908Y-85914069D01*
X144733657Y-85935781D01*
X144790056Y-85963429D01*
X144879620Y-86005470D01*
X144937784Y-86032195D01*
X145017139Y-86075548D01*
X145119992Y-86141610D01*
X145234125Y-86221235D01*
X145347318Y-86305275D01*
X145447353Y-86384581D01*
X145522011Y-86450007D01*
X145559073Y-86492403D01*
X145561050Y-86498819D01*
X145580690Y-86535939D01*
X145628755Y-86595464D01*
X145636550Y-86603997D01*
X145701268Y-86688867D01*
X145777053Y-86810429D01*
X145853897Y-86949800D01*
X145921794Y-87088099D01*
X145970735Y-87206443D01*
X145988498Y-87268050D01*
X146013177Y-87366433D01*
X146043860Y-87449281D01*
X146044488Y-87450564D01*
X146066583Y-87515165D01*
X146046993Y-87539394D01*
X145982734Y-87523786D01*
X145888702Y-87478502D01*
X145716880Y-87391214D01*
X145578513Y-87332033D01*
X145454344Y-87293660D01*
X145342356Y-87271440D01*
X145221175Y-87241992D01*
X145145839Y-87195699D01*
X145123770Y-87169314D01*
X144990012Y-86999473D01*
X144840771Y-86860316D01*
X144660406Y-86739610D01*
X144433273Y-86625117D01*
X144421023Y-86619611D01*
X144357190Y-86604963D01*
X144247848Y-86593453D01*
X144110967Y-86586627D01*
X144024148Y-86585425D01*
X143850775Y-86588923D01*
X143717541Y-86603180D01*
X143601288Y-86633836D01*
X143478860Y-86686533D01*
X143365401Y-86745902D01*
X143294118Y-86781842D01*
X143259066Y-86779232D01*
X143241694Y-86728600D01*
X143233205Y-86678397D01*
X143198230Y-86555521D01*
X143132673Y-86401974D01*
X143046219Y-86236187D01*
X142948555Y-86076586D01*
X142849369Y-85941600D01*
X142840182Y-85930683D01*
X142669183Y-85753786D01*
X142477607Y-85594552D01*
X142285515Y-85468846D01*
X142203028Y-85426885D01*
X142105670Y-85381849D01*
X142026169Y-85343768D01*
X141999773Y-85330418D01*
X141899336Y-85295612D01*
X141751090Y-85268065D01*
X141570477Y-85249394D01*
X141372935Y-85241216D01*
X141181904Y-85244728D01*
X140874578Y-85279443D01*
X140603459Y-85353447D01*
X140350968Y-85472273D01*
X140239425Y-85541388D01*
X140117972Y-85633938D01*
X139985671Y-85753822D01*
X139857544Y-85885469D01*
X139748611Y-86013306D01*
X139673893Y-86121763D01*
X139666721Y-86135092D01*
X139627069Y-86206695D01*
X139597784Y-86249642D01*
X139595259Y-86252050D01*
X139569002Y-86294191D01*
X139531090Y-86379462D01*
X139488195Y-86490195D01*
X139446987Y-86608721D01*
X139414137Y-86717371D01*
X139403471Y-86760050D01*
X139383896Y-86890786D01*
X139374201Y-87052879D01*
X139373598Y-87231787D01*
X139381302Y-87412964D01*
X139396527Y-87581866D01*
X139418486Y-87723951D01*
X139446395Y-87824674D01*
X139462662Y-87855425D01*
X139488924Y-87904602D01*
X139522893Y-87984131D01*
X139528364Y-87998300D01*
X139639576Y-88219614D01*
X139799764Y-88440391D01*
X139995873Y-88646503D01*
X140214849Y-88823824D01*
X140391224Y-88932060D01*
X140479355Y-88978142D01*
X140559539Y-89017940D01*
X140636984Y-89051914D01*
X140716898Y-89080526D01*
X140804488Y-89104236D01*
X140904960Y-89123504D01*
X141023524Y-89138792D01*
X141165386Y-89150559D01*
X141335753Y-89159266D01*
X141539834Y-89165375D01*
X141782835Y-89169345D01*
X142069964Y-89171637D01*
X142406429Y-89172712D01*
X142797436Y-89173030D01*
X143115684Y-89173050D01*
X145139027Y-89173050D01*
X145223038Y-89095191D01*
X145281292Y-89023731D01*
X145304714Y-88936612D01*
X145307050Y-88878475D01*
X145284508Y-88747260D01*
X145214599Y-88655060D01*
X145093892Y-88598337D01*
X145020943Y-88583271D01*
X144862999Y-88529740D01*
X144775237Y-88464330D01*
X144711521Y-88395265D01*
X144681341Y-88327946D01*
X144673122Y-88233134D01*
X144673106Y-88206384D01*
X144689959Y-88065724D01*
X144745416Y-87963600D01*
X144850090Y-87883704D01*
X144899659Y-87858286D01*
X144961024Y-87832022D01*
X145015382Y-87821149D01*
X145081944Y-87826086D01*
X145179920Y-87847252D01*
X145254365Y-87866015D01*
X145513559Y-87959602D01*
X145724853Y-88094421D01*
X145886962Y-88268834D01*
X145998599Y-88481203D01*
X146058479Y-88729888D01*
X146069050Y-88903933D01*
X146065767Y-89027624D01*
X146057026Y-89125327D01*
X146044488Y-89180979D01*
X146039742Y-89187415D01*
X146012070Y-89229072D01*
X145990917Y-89294394D01*
X145950892Y-89383310D01*
X145872542Y-89492465D01*
X145769962Y-89606260D01*
X145657245Y-89709093D01*
X145548487Y-89785365D01*
X145546152Y-89786678D01*
X145491447Y-89816007D01*
X145436677Y-89841198D01*
X145376781Y-89862568D01*
X145306696Y-89880428D01*
X145221359Y-89895093D01*
X145115709Y-89906876D01*
X144984681Y-89916091D01*
X144823214Y-89923051D01*
X144626244Y-89928071D01*
X144388711Y-89931463D01*
X144105550Y-89933542D01*
X143771699Y-89934620D01*
X143382097Y-89935013D01*
X143151123Y-89935050D01*
X141220572Y-89935050D01*
X141136561Y-90012908D01*
X141069847Y-90114523D01*
X141050982Y-90237951D01*
X141080946Y-90362161D01*
X141117491Y-90421795D01*
X141182432Y-90504355D01*
X143236803Y-90513390D01*
X145291175Y-90522425D01*
X145488876Y-90628887D01*
X145706316Y-90777562D01*
X145875336Y-90958392D01*
X145994660Y-91163283D01*
X146063012Y-91384140D01*
X146079116Y-91612868D01*
X146041695Y-91841371D01*
X145949473Y-92061556D01*
X145801173Y-92265327D01*
X145754475Y-92313450D01*
X145595879Y-92441683D01*
X145425011Y-92522900D01*
X145225642Y-92563182D01*
X145069209Y-92570300D01*
X144947111Y-92567986D01*
X144868715Y-92557288D01*
X144814281Y-92532569D01*
X144764070Y-92488191D01*
X144757365Y-92481250D01*
X144702119Y-92409321D01*
X144677064Y-92327980D01*
X144672050Y-92233190D01*
X144691036Y-92098584D01*
X144752401Y-91996003D01*
X144862749Y-91918651D01*
X145028686Y-91859731D01*
X145037175Y-91857506D01*
X145145006Y-91822829D01*
X145230109Y-91783318D01*
X145267362Y-91754524D01*
X145295713Y-91678806D01*
X145305970Y-91572084D01*
X145297410Y-91464434D01*
X145275970Y-91396802D01*
X145259726Y-91371169D01*
X145237368Y-91349192D01*
X145204217Y-91330590D01*
X145155594Y-91315082D01*
X145086820Y-91302390D01*
X144993216Y-91292232D01*
X144870103Y-91284328D01*
X144712801Y-91278398D01*
X144516633Y-91274163D01*
X144276918Y-91271341D01*
X143988979Y-91269653D01*
X143648135Y-91268819D01*
X143249708Y-91268558D01*
X143134107Y-91268550D01*
X142710718Y-91268449D01*
X142345840Y-91267854D01*
X142034482Y-91266321D01*
X141771656Y-91263408D01*
X141552372Y-91258671D01*
X141371640Y-91251668D01*
X141224470Y-91241957D01*
X141105875Y-91229094D01*
X141010863Y-91212637D01*
X140934445Y-91192143D01*
X140871632Y-91167170D01*
X140817434Y-91137275D01*
X140766862Y-91102015D01*
X140714926Y-91060948D01*
X140705221Y-91053046D01*
X140565559Y-90931604D01*
X140470495Y-90828587D01*
X140409356Y-90731154D01*
X140382938Y-90665300D01*
X140351376Y-90583407D01*
X140321876Y-90528163D01*
X140318464Y-90524012D01*
X140300275Y-90470853D01*
X140291254Y-90373203D01*
X140290783Y-90249313D01*
X140298243Y-90117432D01*
X140313015Y-89995813D01*
X140334480Y-89902705D01*
X140340034Y-89887870D01*
X140368799Y-89812315D01*
X140380651Y-89767170D01*
X140379722Y-89762484D01*
X140347788Y-89746586D01*
X140275903Y-89712995D01*
X140211175Y-89683352D01*
X139956541Y-89546837D01*
X139702051Y-89372789D01*
X139463131Y-89174048D01*
X139255205Y-88963453D01*
X139093697Y-88753845D01*
X139092735Y-88752363D01*
X139039406Y-88671843D01*
X139000073Y-88615636D01*
X138988775Y-88601550D01*
X138967727Y-88566649D01*
X138928725Y-88490811D01*
X138882465Y-88395175D01*
X138831087Y-88287279D01*
X138786680Y-88195898D01*
X138761637Y-88146202D01*
X138722310Y-88036440D01*
X138689959Y-87876565D01*
X138665187Y-87679643D01*
X138648601Y-87458741D01*
X138640804Y-87226924D01*
X138642402Y-86997260D01*
X138654000Y-86782813D01*
X138676202Y-86596652D01*
X138687177Y-86537790D01*
X138791076Y-86192873D01*
X138952025Y-85859817D01*
X139163719Y-85546164D01*
X139419853Y-85259460D01*
X139714125Y-85007247D01*
X140040228Y-84797070D01*
X140215309Y-84709160D01*
X140433702Y-84622583D01*
X140658654Y-84562035D01*
X140905990Y-84524661D01*
X141191531Y-84507607D01*
X141342431Y-84505799D01*
X141613959Y-84513785D01*
X141613959Y-84513785D01*
G37*
X141613959Y-84513785D02*
X141862561Y-84536623D01*
X142076919Y-84572640D01*
X142245714Y-84620161D01*
X142312696Y-84649368D01*
X142382621Y-84682081D01*
X142426859Y-84696097D01*
X142427216Y-84696104D01*
X142464244Y-84711125D01*
X142542235Y-84751196D01*
X142647457Y-84809111D01*
X142704399Y-84841590D01*
X142926402Y-84989034D01*
X143149445Y-85171646D01*
X143354931Y-85372369D01*
X143524260Y-85574149D01*
X143562887Y-85628851D01*
X143699754Y-85832147D01*
X144003339Y-85830727D01*
X144194246Y-85836491D01*
X144382030Y-85853917D01*
X144549861Y-85880583D01*
X144680908Y-85914069D01*
X144733657Y-85935781D01*
X144790056Y-85963429D01*
X144879620Y-86005470D01*
X144937784Y-86032195D01*
X145017139Y-86075548D01*
X145119992Y-86141610D01*
X145234125Y-86221235D01*
X145347318Y-86305275D01*
X145447353Y-86384581D01*
X145522011Y-86450007D01*
X145559073Y-86492403D01*
X145561050Y-86498819D01*
X145580690Y-86535939D01*
X145628755Y-86595464D01*
X145636550Y-86603997D01*
X145701268Y-86688867D01*
X145777053Y-86810429D01*
X145853897Y-86949800D01*
X145921794Y-87088099D01*
X145970735Y-87206443D01*
X145988498Y-87268050D01*
X146013177Y-87366433D01*
X146043860Y-87449281D01*
X146044488Y-87450564D01*
X146066583Y-87515165D01*
X146046993Y-87539394D01*
X145982734Y-87523786D01*
X145888702Y-87478502D01*
X145716880Y-87391214D01*
X145578513Y-87332033D01*
X145454344Y-87293660D01*
X145342356Y-87271440D01*
X145221175Y-87241992D01*
X145145839Y-87195699D01*
X145123770Y-87169314D01*
X144990012Y-86999473D01*
X144840771Y-86860316D01*
X144660406Y-86739610D01*
X144433273Y-86625117D01*
X144421023Y-86619611D01*
X144357190Y-86604963D01*
X144247848Y-86593453D01*
X144110967Y-86586627D01*
X144024148Y-86585425D01*
X143850775Y-86588923D01*
X143717541Y-86603180D01*
X143601288Y-86633836D01*
X143478860Y-86686533D01*
X143365401Y-86745902D01*
X143294118Y-86781842D01*
X143259066Y-86779232D01*
X143241694Y-86728600D01*
X143233205Y-86678397D01*
X143198230Y-86555521D01*
X143132673Y-86401974D01*
X143046219Y-86236187D01*
X142948555Y-86076586D01*
X142849369Y-85941600D01*
X142840182Y-85930683D01*
X142669183Y-85753786D01*
X142477607Y-85594552D01*
X142285515Y-85468846D01*
X142203028Y-85426885D01*
X142105670Y-85381849D01*
X142026169Y-85343768D01*
X141999773Y-85330418D01*
X141899336Y-85295612D01*
X141751090Y-85268065D01*
X141570477Y-85249394D01*
X141372935Y-85241216D01*
X141181904Y-85244728D01*
X140874578Y-85279443D01*
X140603459Y-85353447D01*
X140350968Y-85472273D01*
X140239425Y-85541388D01*
X140117972Y-85633938D01*
X139985671Y-85753822D01*
X139857544Y-85885469D01*
X139748611Y-86013306D01*
X139673893Y-86121763D01*
X139666721Y-86135092D01*
X139627069Y-86206695D01*
X139597784Y-86249642D01*
X139595259Y-86252050D01*
X139569002Y-86294191D01*
X139531090Y-86379462D01*
X139488195Y-86490195D01*
X139446987Y-86608721D01*
X139414137Y-86717371D01*
X139403471Y-86760050D01*
X139383896Y-86890786D01*
X139374201Y-87052879D01*
X139373598Y-87231787D01*
X139381302Y-87412964D01*
X139396527Y-87581866D01*
X139418486Y-87723951D01*
X139446395Y-87824674D01*
X139462662Y-87855425D01*
X139488924Y-87904602D01*
X139522893Y-87984131D01*
X139528364Y-87998300D01*
X139639576Y-88219614D01*
X139799764Y-88440391D01*
X139995873Y-88646503D01*
X140214849Y-88823824D01*
X140391224Y-88932060D01*
X140479355Y-88978142D01*
X140559539Y-89017940D01*
X140636984Y-89051914D01*
X140716898Y-89080526D01*
X140804488Y-89104236D01*
X140904960Y-89123504D01*
X141023524Y-89138792D01*
X141165386Y-89150559D01*
X141335753Y-89159266D01*
X141539834Y-89165375D01*
X141782835Y-89169345D01*
X142069964Y-89171637D01*
X142406429Y-89172712D01*
X142797436Y-89173030D01*
X143115684Y-89173050D01*
X145139027Y-89173050D01*
X145223038Y-89095191D01*
X145281292Y-89023731D01*
X145304714Y-88936612D01*
X145307050Y-88878475D01*
X145284508Y-88747260D01*
X145214599Y-88655060D01*
X145093892Y-88598337D01*
X145020943Y-88583271D01*
X144862999Y-88529740D01*
X144775237Y-88464330D01*
X144711521Y-88395265D01*
X144681341Y-88327946D01*
X144673122Y-88233134D01*
X144673106Y-88206384D01*
X144689959Y-88065724D01*
X144745416Y-87963600D01*
X144850090Y-87883704D01*
X144899659Y-87858286D01*
X144961024Y-87832022D01*
X145015382Y-87821149D01*
X145081944Y-87826086D01*
X145179920Y-87847252D01*
X145254365Y-87866015D01*
X145513559Y-87959602D01*
X145724853Y-88094421D01*
X145886962Y-88268834D01*
X145998599Y-88481203D01*
X146058479Y-88729888D01*
X146069050Y-88903933D01*
X146065767Y-89027624D01*
X146057026Y-89125327D01*
X146044488Y-89180979D01*
X146039742Y-89187415D01*
X146012070Y-89229072D01*
X145990917Y-89294394D01*
X145950892Y-89383310D01*
X145872542Y-89492465D01*
X145769962Y-89606260D01*
X145657245Y-89709093D01*
X145548487Y-89785365D01*
X145546152Y-89786678D01*
X145491447Y-89816007D01*
X145436677Y-89841198D01*
X145376781Y-89862568D01*
X145306696Y-89880428D01*
X145221359Y-89895093D01*
X145115709Y-89906876D01*
X144984681Y-89916091D01*
X144823214Y-89923051D01*
X144626244Y-89928071D01*
X144388711Y-89931463D01*
X144105550Y-89933542D01*
X143771699Y-89934620D01*
X143382097Y-89935013D01*
X143151123Y-89935050D01*
X141220572Y-89935050D01*
X141136561Y-90012908D01*
X141069847Y-90114523D01*
X141050982Y-90237951D01*
X141080946Y-90362161D01*
X141117491Y-90421795D01*
X141182432Y-90504355D01*
X143236803Y-90513390D01*
X145291175Y-90522425D01*
X145488876Y-90628887D01*
X145706316Y-90777562D01*
X145875336Y-90958392D01*
X145994660Y-91163283D01*
X146063012Y-91384140D01*
X146079116Y-91612868D01*
X146041695Y-91841371D01*
X145949473Y-92061556D01*
X145801173Y-92265327D01*
X145754475Y-92313450D01*
X145595879Y-92441683D01*
X145425011Y-92522900D01*
X145225642Y-92563182D01*
X145069209Y-92570300D01*
X144947111Y-92567986D01*
X144868715Y-92557288D01*
X144814281Y-92532569D01*
X144764070Y-92488191D01*
X144757365Y-92481250D01*
X144702119Y-92409321D01*
X144677064Y-92327980D01*
X144672050Y-92233190D01*
X144691036Y-92098584D01*
X144752401Y-91996003D01*
X144862749Y-91918651D01*
X145028686Y-91859731D01*
X145037175Y-91857506D01*
X145145006Y-91822829D01*
X145230109Y-91783318D01*
X145267362Y-91754524D01*
X145295713Y-91678806D01*
X145305970Y-91572084D01*
X145297410Y-91464434D01*
X145275970Y-91396802D01*
X145259726Y-91371169D01*
X145237368Y-91349192D01*
X145204217Y-91330590D01*
X145155594Y-91315082D01*
X145086820Y-91302390D01*
X144993216Y-91292232D01*
X144870103Y-91284328D01*
X144712801Y-91278398D01*
X144516633Y-91274163D01*
X144276918Y-91271341D01*
X143988979Y-91269653D01*
X143648135Y-91268819D01*
X143249708Y-91268558D01*
X143134107Y-91268550D01*
X142710718Y-91268449D01*
X142345840Y-91267854D01*
X142034482Y-91266321D01*
X141771656Y-91263408D01*
X141552372Y-91258671D01*
X141371640Y-91251668D01*
X141224470Y-91241957D01*
X141105875Y-91229094D01*
X141010863Y-91212637D01*
X140934445Y-91192143D01*
X140871632Y-91167170D01*
X140817434Y-91137275D01*
X140766862Y-91102015D01*
X140714926Y-91060948D01*
X140705221Y-91053046D01*
X140565559Y-90931604D01*
X140470495Y-90828587D01*
X140409356Y-90731154D01*
X140382938Y-90665300D01*
X140351376Y-90583407D01*
X140321876Y-90528163D01*
X140318464Y-90524012D01*
X140300275Y-90470853D01*
X140291254Y-90373203D01*
X140290783Y-90249313D01*
X140298243Y-90117432D01*
X140313015Y-89995813D01*
X140334480Y-89902705D01*
X140340034Y-89887870D01*
X140368799Y-89812315D01*
X140380651Y-89767170D01*
X140379722Y-89762484D01*
X140347788Y-89746586D01*
X140275903Y-89712995D01*
X140211175Y-89683352D01*
X139956541Y-89546837D01*
X139702051Y-89372789D01*
X139463131Y-89174048D01*
X139255205Y-88963453D01*
X139093697Y-88753845D01*
X139092735Y-88752363D01*
X139039406Y-88671843D01*
X139000073Y-88615636D01*
X138988775Y-88601550D01*
X138967727Y-88566649D01*
X138928725Y-88490811D01*
X138882465Y-88395175D01*
X138831087Y-88287279D01*
X138786680Y-88195898D01*
X138761637Y-88146202D01*
X138722310Y-88036440D01*
X138689959Y-87876565D01*
X138665187Y-87679643D01*
X138648601Y-87458741D01*
X138640804Y-87226924D01*
X138642402Y-86997260D01*
X138654000Y-86782813D01*
X138676202Y-86596652D01*
X138687177Y-86537790D01*
X138791076Y-86192873D01*
X138952025Y-85859817D01*
X139163719Y-85546164D01*
X139419853Y-85259460D01*
X139714125Y-85007247D01*
X140040228Y-84797070D01*
X140215309Y-84709160D01*
X140433702Y-84622583D01*
X140658654Y-84562035D01*
X140905990Y-84524661D01*
X141191531Y-84507607D01*
X141342431Y-84505799D01*
X141613959Y-84513785D01*
D14*
X185055200Y-83252000D02*
X186385200Y-83252000D01*
X185055200Y-84582000D02*
X185055200Y-83252000D01*
X185055200Y-85852000D02*
X187715200Y-85852000D01*
X187715200Y-85852000D02*
X187715200Y-93532000D01*
X185055200Y-85852000D02*
X185055200Y-93532000D01*
X185055200Y-93532000D02*
X187715200Y-93532000D01*
X161350000Y-90618000D02*
X161350000Y-91948000D01*
X160020000Y-90618000D02*
X161350000Y-90618000D01*
X158750000Y-90618000D02*
X158750000Y-93278000D01*
X158750000Y-93278000D02*
X156150000Y-93278000D01*
X158750000Y-90618000D02*
X156150000Y-90618000D01*
X156150000Y-90618000D02*
X156150000Y-93278000D01*
D16*
X167563800Y-77444600D02*
X167563800Y-83591400D01*
X177368200Y-83591400D02*
X177368200Y-80822800D01*
X177368200Y-80822800D02*
X177368200Y-80213200D01*
X177368200Y-80213200D02*
X177368200Y-78003400D01*
X177368200Y-80822800D02*
G75*
G02X177368200Y-80213200I0J304800D01*
G01*
D14*
X161544000Y-77748000D02*
X161544000Y-78518000D01*
X161544000Y-85828000D02*
X161544000Y-85058000D01*
X160174000Y-78518000D02*
X160174000Y-85058000D01*
X162914000Y-78518000D02*
X160174000Y-78518000D01*
X162914000Y-85058000D02*
X162914000Y-78518000D01*
X160174000Y-85058000D02*
X162914000Y-85058000D01*
X165100000Y-77748000D02*
X165100000Y-78518000D01*
X165100000Y-85828000D02*
X165100000Y-85058000D01*
X163730000Y-78518000D02*
X163730000Y-85058000D01*
X166470000Y-78518000D02*
X163730000Y-78518000D01*
X166470000Y-85058000D02*
X166470000Y-78518000D01*
X163730000Y-85058000D02*
X166470000Y-85058000D01*
D18*
X195563066Y-91963723D02*
X195563066Y-92870866D01*
X195502590Y-93052295D01*
X195381638Y-93173247D01*
X195200209Y-93233723D01*
X195079257Y-93233723D01*
X196107352Y-92084676D02*
X196167828Y-92024200D01*
X196288780Y-91963723D01*
X196591161Y-91963723D01*
X196712114Y-92024200D01*
X196772590Y-92084676D01*
X196833066Y-92205628D01*
X196833066Y-92326580D01*
X196772590Y-92508009D01*
X196046876Y-93233723D01*
X196833066Y-93233723D01*
D19*
X67179866Y-77208580D02*
X67179866Y-77922866D01*
X67132247Y-78065723D01*
X67037009Y-78160961D01*
X66894152Y-78208580D01*
X66798914Y-78208580D01*
X68084628Y-77541914D02*
X68084628Y-78208580D01*
X67846533Y-77160961D02*
X67608438Y-77875247D01*
X68227485Y-77875247D01*
X66854733Y-89758142D02*
X66807114Y-89805761D01*
X66664257Y-89853380D01*
X66569019Y-89853380D01*
X66426161Y-89805761D01*
X66330923Y-89710523D01*
X66283304Y-89615285D01*
X66235685Y-89424809D01*
X66235685Y-89281952D01*
X66283304Y-89091476D01*
X66330923Y-88996238D01*
X66426161Y-88901000D01*
X66569019Y-88853380D01*
X66664257Y-88853380D01*
X66807114Y-88901000D01*
X66854733Y-88948619D01*
X67807114Y-89853380D02*
X67235685Y-89853380D01*
X67521400Y-89853380D02*
X67521400Y-88853380D01*
X67426161Y-88996238D01*
X67330923Y-89091476D01*
X67235685Y-89139095D01*
X172340933Y-89631142D02*
X172293314Y-89678761D01*
X172150457Y-89726380D01*
X172055219Y-89726380D01*
X171912361Y-89678761D01*
X171817123Y-89583523D01*
X171769504Y-89488285D01*
X171721885Y-89297809D01*
X171721885Y-89154952D01*
X171769504Y-88964476D01*
X171817123Y-88869238D01*
X171912361Y-88774000D01*
X172055219Y-88726380D01*
X172150457Y-88726380D01*
X172293314Y-88774000D01*
X172340933Y-88821619D01*
X172674266Y-88726380D02*
X173293314Y-88726380D01*
X172959980Y-89107333D01*
X173102838Y-89107333D01*
X173198076Y-89154952D01*
X173245695Y-89202571D01*
X173293314Y-89297809D01*
X173293314Y-89535904D01*
X173245695Y-89631142D01*
X173198076Y-89678761D01*
X173102838Y-89726380D01*
X172817123Y-89726380D01*
X172721885Y-89678761D01*
X172674266Y-89631142D01*
X130556095Y-79335380D02*
X130556095Y-80144904D01*
X130603714Y-80240142D01*
X130651333Y-80287761D01*
X130746571Y-80335380D01*
X130937047Y-80335380D01*
X131032285Y-80287761D01*
X131079904Y-80240142D01*
X131127523Y-80144904D01*
X131127523Y-79335380D01*
X131556095Y-79430619D02*
X131603714Y-79383000D01*
X131698952Y-79335380D01*
X131937047Y-79335380D01*
X132032285Y-79383000D01*
X132079904Y-79430619D01*
X132127523Y-79525857D01*
X132127523Y-79621095D01*
X132079904Y-79763952D01*
X131508476Y-80335380D01*
X132127523Y-80335380D01*
X74914571Y-79208380D02*
X75486000Y-79208380D01*
X75200285Y-80208380D02*
X75200285Y-79208380D01*
X76200285Y-80160761D02*
X76105047Y-80208380D01*
X75914571Y-80208380D01*
X75819333Y-80160761D01*
X75771714Y-80065523D01*
X75771714Y-79684571D01*
X75819333Y-79589333D01*
X75914571Y-79541714D01*
X76105047Y-79541714D01*
X76200285Y-79589333D01*
X76247904Y-79684571D01*
X76247904Y-79779809D01*
X75771714Y-79875047D01*
X77057428Y-80160761D02*
X76962190Y-80208380D01*
X76771714Y-80208380D01*
X76676476Y-80160761D01*
X76628857Y-80065523D01*
X76628857Y-79684571D01*
X76676476Y-79589333D01*
X76771714Y-79541714D01*
X76962190Y-79541714D01*
X77057428Y-79589333D01*
X77105047Y-79684571D01*
X77105047Y-79779809D01*
X76628857Y-79875047D01*
X77533619Y-79541714D02*
X77533619Y-80208380D01*
X77533619Y-79636952D02*
X77581238Y-79589333D01*
X77676476Y-79541714D01*
X77819333Y-79541714D01*
X77914571Y-79589333D01*
X77962190Y-79684571D01*
X77962190Y-80208380D01*
X78390761Y-80160761D02*
X78486000Y-80208380D01*
X78676476Y-80208380D01*
X78771714Y-80160761D01*
X78819333Y-80065523D01*
X78819333Y-80017904D01*
X78771714Y-79922666D01*
X78676476Y-79875047D01*
X78533619Y-79875047D01*
X78438380Y-79827428D01*
X78390761Y-79732190D01*
X78390761Y-79684571D01*
X78438380Y-79589333D01*
X78533619Y-79541714D01*
X78676476Y-79541714D01*
X78771714Y-79589333D01*
X79152666Y-79541714D02*
X79390761Y-80208380D01*
X79628857Y-79541714D02*
X79390761Y-80208380D01*
X79295523Y-80446476D01*
X79247904Y-80494095D01*
X79152666Y-80541714D01*
X79914571Y-79208380D02*
X80533619Y-79208380D01*
X80200285Y-79589333D01*
X80343142Y-79589333D01*
X80438380Y-79636952D01*
X80486000Y-79684571D01*
X80533619Y-79779809D01*
X80533619Y-80017904D01*
X80486000Y-80113142D01*
X80438380Y-80160761D01*
X80343142Y-80208380D01*
X80057428Y-80208380D01*
X79962190Y-80160761D01*
X79914571Y-80113142D01*
X80962190Y-80113142D02*
X81009809Y-80160761D01*
X80962190Y-80208380D01*
X80914571Y-80160761D01*
X80962190Y-80113142D01*
X80962190Y-80208380D01*
X81866952Y-79208380D02*
X81676476Y-79208380D01*
X81581238Y-79256000D01*
X81533619Y-79303619D01*
X81438380Y-79446476D01*
X81390761Y-79636952D01*
X81390761Y-80017904D01*
X81438380Y-80113142D01*
X81486000Y-80160761D01*
X81581238Y-80208380D01*
X81771714Y-80208380D01*
X81866952Y-80160761D01*
X81914571Y-80113142D01*
X81962190Y-80017904D01*
X81962190Y-79779809D01*
X81914571Y-79684571D01*
X81866952Y-79636952D01*
X81771714Y-79589333D01*
X81581238Y-79589333D01*
X81486000Y-79636952D01*
X81438380Y-79684571D01*
X81390761Y-79779809D01*
X178665142Y-81192666D02*
X178712761Y-81240285D01*
X178760380Y-81383142D01*
X178760380Y-81478380D01*
X178712761Y-81621238D01*
X178617523Y-81716476D01*
X178522285Y-81764095D01*
X178331809Y-81811714D01*
X178188952Y-81811714D01*
X177998476Y-81764095D01*
X177903238Y-81716476D01*
X177808000Y-81621238D01*
X177760380Y-81478380D01*
X177760380Y-81383142D01*
X177808000Y-81240285D01*
X177855619Y-81192666D01*
X177855619Y-80811714D02*
X177808000Y-80764095D01*
X177760380Y-80668857D01*
X177760380Y-80430761D01*
X177808000Y-80335523D01*
X177855619Y-80287904D01*
X177950857Y-80240285D01*
X178046095Y-80240285D01*
X178188952Y-80287904D01*
X178760380Y-80859333D01*
X178760380Y-80240285D01*
X183054666Y-92797380D02*
X183054666Y-93511666D01*
X183007047Y-93654523D01*
X182911809Y-93749761D01*
X182768952Y-93797380D01*
X182673714Y-93797380D01*
X183435619Y-92797380D02*
X184054666Y-92797380D01*
X183721333Y-93178333D01*
X183864190Y-93178333D01*
X183959428Y-93225952D01*
X184007047Y-93273571D01*
X184054666Y-93368809D01*
X184054666Y-93606904D01*
X184007047Y-93702142D01*
X183959428Y-93749761D01*
X183864190Y-93797380D01*
X183578476Y-93797380D01*
X183483238Y-93749761D01*
X183435619Y-93702142D01*
X154352666Y-91400380D02*
X154352666Y-92114666D01*
X154305047Y-92257523D01*
X154209809Y-92352761D01*
X154066952Y-92400380D01*
X153971714Y-92400380D01*
X155352666Y-92400380D02*
X154781238Y-92400380D01*
X155066952Y-92400380D02*
X155066952Y-91400380D01*
X154971714Y-91543238D01*
X154876476Y-91638476D01*
X154781238Y-91686095D01*
X171704095Y-81240380D02*
X171704095Y-82049904D01*
X171751714Y-82145142D01*
X171799333Y-82192761D01*
X171894571Y-82240380D01*
X172085047Y-82240380D01*
X172180285Y-82192761D01*
X172227904Y-82145142D01*
X172275523Y-82049904D01*
X172275523Y-81240380D01*
X173275523Y-82240380D02*
X172704095Y-82240380D01*
X172989809Y-82240380D02*
X172989809Y-81240380D01*
X172894571Y-81383238D01*
X172799333Y-81478476D01*
X172704095Y-81526095D01*
X166632666Y-79954380D02*
X166632666Y-78954380D01*
X167013619Y-78954380D01*
X167108857Y-79002000D01*
X167156476Y-79049619D01*
X167204095Y-79144857D01*
X167204095Y-79287714D01*
X167156476Y-79382952D01*
X167108857Y-79430571D01*
X167013619Y-79478190D01*
X166632666Y-79478190D01*
X167775523Y-79382952D02*
X167680285Y-79335333D01*
X167632666Y-79287714D01*
X167585047Y-79192476D01*
X167585047Y-79144857D01*
X167632666Y-79049619D01*
X167680285Y-79002000D01*
X167775523Y-78954380D01*
X167966000Y-78954380D01*
X168061238Y-79002000D01*
X168108857Y-79049619D01*
X168156476Y-79144857D01*
X168156476Y-79192476D01*
X168108857Y-79287714D01*
X168061238Y-79335333D01*
X167966000Y-79382952D01*
X167775523Y-79382952D01*
X167680285Y-79430571D01*
X167632666Y-79478190D01*
X167585047Y-79573428D01*
X167585047Y-79763904D01*
X167632666Y-79859142D01*
X167680285Y-79906761D01*
X167775523Y-79954380D01*
X167966000Y-79954380D01*
X168061238Y-79906761D01*
X168108857Y-79859142D01*
X168156476Y-79763904D01*
X168156476Y-79573428D01*
X168108857Y-79478190D01*
X168061238Y-79430571D01*
X167966000Y-79382952D01*
X168537428Y-79049619D02*
X168585047Y-79002000D01*
X168680285Y-78954380D01*
X168918380Y-78954380D01*
X169013619Y-79002000D01*
X169061238Y-79049619D01*
X169108857Y-79144857D01*
X169108857Y-79240095D01*
X169061238Y-79382952D01*
X168489809Y-79954380D01*
X169108857Y-79954380D01*
X169870761Y-79430571D02*
X170013619Y-79478190D01*
X170061238Y-79525809D01*
X170108857Y-79621047D01*
X170108857Y-79763904D01*
X170061238Y-79859142D01*
X170013619Y-79906761D01*
X169918380Y-79954380D01*
X169537428Y-79954380D01*
X169537428Y-78954380D01*
X169870761Y-78954380D01*
X169966000Y-79002000D01*
X170013619Y-79049619D01*
X170061238Y-79144857D01*
X170061238Y-79240095D01*
X170013619Y-79335333D01*
X169966000Y-79382952D01*
X169870761Y-79430571D01*
X169537428Y-79430571D01*
X170442190Y-78954380D02*
X171108857Y-78954380D01*
X170680285Y-79954380D01*
X172013619Y-79954380D02*
X171442190Y-79954380D01*
X171727904Y-79954380D02*
X171727904Y-78954380D01*
X171632666Y-79097238D01*
X171537428Y-79192476D01*
X171442190Y-79240095D01*
X172918380Y-78954380D02*
X172442190Y-78954380D01*
X172394571Y-79430571D01*
X172442190Y-79382952D01*
X172537428Y-79335333D01*
X172775523Y-79335333D01*
X172870761Y-79382952D01*
X172918380Y-79430571D01*
X172966000Y-79525809D01*
X172966000Y-79763904D01*
X172918380Y-79859142D01*
X172870761Y-79906761D01*
X172775523Y-79954380D01*
X172537428Y-79954380D01*
X172442190Y-79906761D01*
X172394571Y-79859142D01*
X173394571Y-79954380D02*
X173394571Y-78954380D01*
X173775523Y-78954380D01*
X173870761Y-79002000D01*
X173918380Y-79049619D01*
X173966000Y-79144857D01*
X173966000Y-79287714D01*
X173918380Y-79382952D01*
X173870761Y-79430571D01*
X173775523Y-79478190D01*
X173394571Y-79478190D01*
X174394571Y-79954380D02*
X174394571Y-78954380D01*
X174966000Y-79954380D01*
X174966000Y-78954380D01*
X175489809Y-79906761D02*
X175489809Y-79954380D01*
X175442190Y-80049619D01*
X175394571Y-80097238D01*
X176442190Y-79954380D02*
X175870761Y-79954380D01*
X176156476Y-79954380D02*
X176156476Y-78954380D01*
X176061238Y-79097238D01*
X175966000Y-79192476D01*
X175870761Y-79240095D01*
X177394571Y-79954380D02*
X176823142Y-79954380D01*
X177108857Y-79954380D02*
X177108857Y-78954380D01*
X177013619Y-79097238D01*
X176918380Y-79192476D01*
X176823142Y-79240095D01*
X177775523Y-79049619D02*
X177823142Y-79002000D01*
X177918380Y-78954380D01*
X178156476Y-78954380D01*
X178251714Y-79002000D01*
X178299333Y-79049619D01*
X178346952Y-79144857D01*
X178346952Y-79240095D01*
X178299333Y-79382952D01*
X177727904Y-79954380D01*
X178346952Y-79954380D01*
X161970980Y-83732666D02*
X161494790Y-84066000D01*
X161970980Y-84304095D02*
X160970980Y-84304095D01*
X160970980Y-83923142D01*
X161018600Y-83827904D01*
X161066219Y-83780285D01*
X161161457Y-83732666D01*
X161304314Y-83732666D01*
X161399552Y-83780285D01*
X161447171Y-83827904D01*
X161494790Y-83923142D01*
X161494790Y-84304095D01*
X161066219Y-83351714D02*
X161018600Y-83304095D01*
X160970980Y-83208857D01*
X160970980Y-82970761D01*
X161018600Y-82875523D01*
X161066219Y-82827904D01*
X161161457Y-82780285D01*
X161256695Y-82780285D01*
X161399552Y-82827904D01*
X161970980Y-83399333D01*
X161970980Y-82780285D01*
X161329714Y-81462476D02*
X161996380Y-81462476D01*
X160948761Y-81700571D02*
X161663047Y-81938666D01*
X161663047Y-81319619D01*
X161996380Y-80938666D02*
X160996380Y-80938666D01*
X161615428Y-80843428D02*
X161996380Y-80557714D01*
X161329714Y-80557714D02*
X161710666Y-80938666D01*
X160996380Y-80224380D02*
X160996380Y-79557714D01*
X161996380Y-79986285D01*
X165526980Y-83758066D02*
X165050790Y-84091400D01*
X165526980Y-84329495D02*
X164526980Y-84329495D01*
X164526980Y-83948542D01*
X164574600Y-83853304D01*
X164622219Y-83805685D01*
X164717457Y-83758066D01*
X164860314Y-83758066D01*
X164955552Y-83805685D01*
X165003171Y-83853304D01*
X165050790Y-83948542D01*
X165050790Y-84329495D01*
X165526980Y-82805685D02*
X165526980Y-83377114D01*
X165526980Y-83091400D02*
X164526980Y-83091400D01*
X164669838Y-83186638D01*
X164765076Y-83281876D01*
X164812695Y-83377114D01*
X164885714Y-81462476D02*
X165552380Y-81462476D01*
X164504761Y-81700571D02*
X165219047Y-81938666D01*
X165219047Y-81319619D01*
X165552380Y-80938666D02*
X164552380Y-80938666D01*
X165171428Y-80843428D02*
X165552380Y-80557714D01*
X164885714Y-80557714D02*
X165266666Y-80938666D01*
X164552380Y-80224380D02*
X164552380Y-79557714D01*
X165552380Y-79986285D01*
M02*
