M48
; DRILL file {KiCad (5.1.4)-1} date 17.11.2019 17:18:39
; FORMAT={-:-/ absolute / inch / decimal}
; #@! TF.CreationDate,2019-11-17T17:18:39+01:00
; #@! TF.GenerationSoftware,Kicad,Pcbnew,(5.1.4)-1
; #@! TF.FileFunction,Plated,1,2,PTH
FMAT,2
INCH
T1C0.0315
T2C0.0354
T3C0.0394
T4C0.0402
T5C0.0440
T6C0.0945
%
G90
G05
T1
X6.644Y-3.61
X6.36Y-3.02
X6.36Y-3.42
X7.107Y-3.0487
X7.107Y-3.344
X6.5Y-3.02
X6.5Y-3.42
X6.9393Y-3.61
X2.491Y-3.615
X2.7863Y-3.615
T2
X7.7469Y-3.2246
X7.7469Y-3.3049
X7.7469Y-3.3852
X7.8469Y-3.2648
X7.8469Y-3.3451
X7.8469Y-3.4254
T3
X6.2Y-3.62
X6.3Y-3.62
X2.608Y-3.153
X2.608Y-3.253
X2.608Y-3.353
X2.708Y-3.153
X2.708Y-3.253
X2.708Y-3.353
X7.338Y-3.33
X7.338Y-3.43
X7.338Y-3.53
X7.338Y-3.63
T4
X2.9792Y-3.02
X2.9792Y-3.62
X3.0792Y-3.02
X3.0792Y-3.62
X3.1792Y-3.02
X3.1792Y-3.62
X3.2792Y-3.02
X3.2792Y-3.62
X3.3792Y-3.02
X3.3792Y-3.62
X3.4792Y-3.02
X3.4792Y-3.62
X3.5792Y-3.02
X3.5792Y-3.62
X3.6792Y-3.02
X3.6792Y-3.62
X3.7792Y-3.02
X3.7792Y-3.62
X3.8792Y-3.02
X3.8792Y-3.62
X3.9792Y-3.02
X3.9792Y-3.62
X4.0792Y-3.02
X4.0792Y-3.62
X4.1792Y-3.02
X4.1792Y-3.62
X4.2792Y-3.02
X4.2792Y-3.62
X4.3792Y-3.02
X4.3792Y-3.62
X4.4792Y-3.02
X4.4792Y-3.62
X4.5792Y-3.02
X4.5792Y-3.62
X4.6792Y-3.02
X4.6792Y-3.62
X4.7792Y-3.02
X4.7792Y-3.62
X4.8792Y-3.02
X4.8792Y-3.62
X4.9792Y-3.02
X4.9792Y-3.62
X5.0792Y-3.02
X5.0792Y-3.62
X5.1792Y-3.02
X5.1792Y-3.52
X5.1792Y-3.62
X5.2792Y-3.02
X5.2792Y-3.62
T5
X6.64Y-3.02
X6.64Y-3.32
X6.74Y-3.02
X6.74Y-3.32
X6.84Y-3.02
X6.84Y-3.32
X6.94Y-3.02
X6.94Y-3.32
T6
X7.9375Y-3.0888
X7.9375Y-3.5612
T0
M30
