G04 #@! TF.GenerationSoftware,KiCad,Pcbnew,(5.1.4)-1*
G04 #@! TF.CreationDate,2019-11-17T17:18:35+01:00*
G04 #@! TF.ProjectId,DNMS,444e4d53-2e6b-4696-9361-645f70636258,0.9.0*
G04 #@! TF.SameCoordinates,Original*
G04 #@! TF.FileFunction,Soldermask,Bot*
G04 #@! TF.FilePolarity,Negative*
%FSLAX46Y46*%
G04 Gerber Fmt 4.6, Leading zero omitted, Abs format (unit mm)*
G04 Created by KiCad (PCBNEW (5.1.4)-1) date 2019-11-17 17:18:35*
%MOMM*%
%LPD*%
G04 APERTURE LIST*
%ADD10C,0.100000*%
G04 APERTURE END LIST*
D10*
G36*
X186495643Y-91307519D02*
G01*
X186561827Y-91314037D01*
X186731666Y-91365557D01*
X186888191Y-91449222D01*
X186923929Y-91478552D01*
X187025386Y-91561814D01*
X187101185Y-91654177D01*
X187137978Y-91699009D01*
X187221643Y-91855534D01*
X187273163Y-92025373D01*
X187290559Y-92202000D01*
X187273163Y-92378627D01*
X187221643Y-92548466D01*
X187137978Y-92704991D01*
X187115286Y-92732641D01*
X187025386Y-92842186D01*
X186923929Y-92925448D01*
X186888191Y-92954778D01*
X186731666Y-93038443D01*
X186561827Y-93089963D01*
X186495643Y-93096481D01*
X186429460Y-93103000D01*
X186340940Y-93103000D01*
X186274757Y-93096481D01*
X186208573Y-93089963D01*
X186038734Y-93038443D01*
X185882209Y-92954778D01*
X185846471Y-92925448D01*
X185745014Y-92842186D01*
X185655114Y-92732641D01*
X185632422Y-92704991D01*
X185548757Y-92548466D01*
X185497237Y-92378627D01*
X185479841Y-92202000D01*
X185497237Y-92025373D01*
X185548757Y-91855534D01*
X185632422Y-91699009D01*
X185669215Y-91654177D01*
X185745014Y-91561814D01*
X185846471Y-91478552D01*
X185882209Y-91449222D01*
X186038734Y-91365557D01*
X186208573Y-91314037D01*
X186274757Y-91307519D01*
X186340940Y-91301000D01*
X186429460Y-91301000D01*
X186495643Y-91307519D01*
X186495643Y-91307519D01*
G37*
G36*
X160921000Y-92849000D02*
G01*
X159119000Y-92849000D01*
X159119000Y-91047000D01*
X160921000Y-91047000D01*
X160921000Y-92849000D01*
X160921000Y-92849000D01*
G37*
G36*
X157590442Y-91053518D02*
G01*
X157656627Y-91060037D01*
X157826466Y-91111557D01*
X157982991Y-91195222D01*
X158008724Y-91216341D01*
X158120186Y-91307814D01*
X158203448Y-91409271D01*
X158232778Y-91445009D01*
X158316443Y-91601534D01*
X158367963Y-91771373D01*
X158385359Y-91948000D01*
X158367963Y-92124627D01*
X158316443Y-92294466D01*
X158232778Y-92450991D01*
X158203448Y-92486729D01*
X158120186Y-92588186D01*
X158033060Y-92659687D01*
X157982991Y-92700778D01*
X157826466Y-92784443D01*
X157656627Y-92835963D01*
X157593453Y-92842185D01*
X157524260Y-92849000D01*
X157435740Y-92849000D01*
X157366547Y-92842185D01*
X157303373Y-92835963D01*
X157133534Y-92784443D01*
X156977009Y-92700778D01*
X156926940Y-92659687D01*
X156839814Y-92588186D01*
X156756552Y-92486729D01*
X156727222Y-92450991D01*
X156643557Y-92294466D01*
X156592037Y-92124627D01*
X156574641Y-91948000D01*
X156592037Y-91771373D01*
X156643557Y-91601534D01*
X156727222Y-91445009D01*
X156756552Y-91409271D01*
X156839814Y-91307814D01*
X156951276Y-91216341D01*
X156977009Y-91195222D01*
X157133534Y-91111557D01*
X157303373Y-91060037D01*
X157369558Y-91053518D01*
X157435740Y-91047000D01*
X157524260Y-91047000D01*
X157590442Y-91053518D01*
X157590442Y-91053518D01*
G37*
G36*
X126710637Y-91163358D02*
G01*
X126859141Y-91224870D01*
X126859142Y-91224871D01*
X126992787Y-91314169D01*
X127106451Y-91427833D01*
X127150500Y-91493758D01*
X127195750Y-91561479D01*
X127212340Y-91601532D01*
X127257262Y-91709983D01*
X127288620Y-91867630D01*
X127288620Y-92028370D01*
X127257262Y-92186017D01*
X127241487Y-92224100D01*
X127195750Y-92334521D01*
X127195749Y-92334522D01*
X127106451Y-92468167D01*
X126992787Y-92581831D01*
X126906785Y-92639295D01*
X126859141Y-92671130D01*
X126787563Y-92700778D01*
X126710637Y-92732642D01*
X126552990Y-92764000D01*
X126392250Y-92764000D01*
X126234603Y-92732642D01*
X126157677Y-92700778D01*
X126086099Y-92671130D01*
X126038455Y-92639295D01*
X125952453Y-92581831D01*
X125838789Y-92468167D01*
X125749491Y-92334522D01*
X125749490Y-92334521D01*
X125703753Y-92224100D01*
X125687978Y-92186017D01*
X125656620Y-92028370D01*
X125656620Y-91867630D01*
X125687978Y-91709983D01*
X125732900Y-91601532D01*
X125749490Y-91561479D01*
X125794740Y-91493758D01*
X125838789Y-91427833D01*
X125952453Y-91314169D01*
X126086098Y-91224871D01*
X126086099Y-91224870D01*
X126234603Y-91163358D01*
X126392250Y-91132000D01*
X126552990Y-91132000D01*
X126710637Y-91163358D01*
X126710637Y-91163358D01*
G37*
G36*
X103850637Y-91163358D02*
G01*
X103999141Y-91224870D01*
X103999142Y-91224871D01*
X104132787Y-91314169D01*
X104246451Y-91427833D01*
X104290500Y-91493758D01*
X104335750Y-91561479D01*
X104352340Y-91601532D01*
X104397262Y-91709983D01*
X104428620Y-91867630D01*
X104428620Y-92028370D01*
X104397262Y-92186017D01*
X104381487Y-92224100D01*
X104335750Y-92334521D01*
X104335749Y-92334522D01*
X104246451Y-92468167D01*
X104132787Y-92581831D01*
X104046785Y-92639295D01*
X103999141Y-92671130D01*
X103927563Y-92700778D01*
X103850637Y-92732642D01*
X103692990Y-92764000D01*
X103532250Y-92764000D01*
X103374603Y-92732642D01*
X103297677Y-92700778D01*
X103226099Y-92671130D01*
X103178455Y-92639295D01*
X103092453Y-92581831D01*
X102978789Y-92468167D01*
X102889491Y-92334522D01*
X102889490Y-92334521D01*
X102843753Y-92224100D01*
X102827978Y-92186017D01*
X102796620Y-92028370D01*
X102796620Y-91867630D01*
X102827978Y-91709983D01*
X102872900Y-91601532D01*
X102889490Y-91561479D01*
X102934740Y-91493758D01*
X102978789Y-91427833D01*
X103092453Y-91314169D01*
X103226098Y-91224871D01*
X103226099Y-91224870D01*
X103374603Y-91163358D01*
X103532250Y-91132000D01*
X103692990Y-91132000D01*
X103850637Y-91163358D01*
X103850637Y-91163358D01*
G37*
G36*
X101310637Y-91163358D02*
G01*
X101459141Y-91224870D01*
X101459142Y-91224871D01*
X101592787Y-91314169D01*
X101706451Y-91427833D01*
X101750500Y-91493758D01*
X101795750Y-91561479D01*
X101812340Y-91601532D01*
X101857262Y-91709983D01*
X101888620Y-91867630D01*
X101888620Y-92028370D01*
X101857262Y-92186017D01*
X101841487Y-92224100D01*
X101795750Y-92334521D01*
X101795749Y-92334522D01*
X101706451Y-92468167D01*
X101592787Y-92581831D01*
X101506785Y-92639295D01*
X101459141Y-92671130D01*
X101387563Y-92700778D01*
X101310637Y-92732642D01*
X101152990Y-92764000D01*
X100992250Y-92764000D01*
X100834603Y-92732642D01*
X100757677Y-92700778D01*
X100686099Y-92671130D01*
X100638455Y-92639295D01*
X100552453Y-92581831D01*
X100438789Y-92468167D01*
X100349491Y-92334522D01*
X100349490Y-92334521D01*
X100303753Y-92224100D01*
X100287978Y-92186017D01*
X100256620Y-92028370D01*
X100256620Y-91867630D01*
X100287978Y-91709983D01*
X100332900Y-91601532D01*
X100349490Y-91561479D01*
X100394740Y-91493758D01*
X100438789Y-91427833D01*
X100552453Y-91314169D01*
X100686098Y-91224871D01*
X100686099Y-91224870D01*
X100834603Y-91163358D01*
X100992250Y-91132000D01*
X101152990Y-91132000D01*
X101310637Y-91163358D01*
X101310637Y-91163358D01*
G37*
G36*
X75910637Y-91163358D02*
G01*
X76059141Y-91224870D01*
X76059142Y-91224871D01*
X76192787Y-91314169D01*
X76306451Y-91427833D01*
X76350500Y-91493758D01*
X76395750Y-91561479D01*
X76412340Y-91601532D01*
X76457262Y-91709983D01*
X76488620Y-91867630D01*
X76488620Y-92028370D01*
X76457262Y-92186017D01*
X76441487Y-92224100D01*
X76395750Y-92334521D01*
X76395749Y-92334522D01*
X76306451Y-92468167D01*
X76192787Y-92581831D01*
X76106785Y-92639295D01*
X76059141Y-92671130D01*
X75987563Y-92700778D01*
X75910637Y-92732642D01*
X75752990Y-92764000D01*
X75592250Y-92764000D01*
X75434603Y-92732642D01*
X75357677Y-92700778D01*
X75286099Y-92671130D01*
X75238455Y-92639295D01*
X75152453Y-92581831D01*
X75038789Y-92468167D01*
X74949491Y-92334522D01*
X74949490Y-92334521D01*
X74903753Y-92224100D01*
X74887978Y-92186017D01*
X74856620Y-92028370D01*
X74856620Y-91867630D01*
X74887978Y-91709983D01*
X74932900Y-91601532D01*
X74949490Y-91561479D01*
X74994740Y-91493758D01*
X75038789Y-91427833D01*
X75152453Y-91314169D01*
X75286098Y-91224871D01*
X75286099Y-91224870D01*
X75434603Y-91163358D01*
X75592250Y-91132000D01*
X75752990Y-91132000D01*
X75910637Y-91163358D01*
X75910637Y-91163358D01*
G37*
G36*
X78450637Y-91163358D02*
G01*
X78599141Y-91224870D01*
X78599142Y-91224871D01*
X78732787Y-91314169D01*
X78846451Y-91427833D01*
X78890500Y-91493758D01*
X78935750Y-91561479D01*
X78952340Y-91601532D01*
X78997262Y-91709983D01*
X79028620Y-91867630D01*
X79028620Y-92028370D01*
X78997262Y-92186017D01*
X78981487Y-92224100D01*
X78935750Y-92334521D01*
X78935749Y-92334522D01*
X78846451Y-92468167D01*
X78732787Y-92581831D01*
X78646785Y-92639295D01*
X78599141Y-92671130D01*
X78527563Y-92700778D01*
X78450637Y-92732642D01*
X78292990Y-92764000D01*
X78132250Y-92764000D01*
X77974603Y-92732642D01*
X77897677Y-92700778D01*
X77826099Y-92671130D01*
X77778455Y-92639295D01*
X77692453Y-92581831D01*
X77578789Y-92468167D01*
X77489491Y-92334522D01*
X77489490Y-92334521D01*
X77443753Y-92224100D01*
X77427978Y-92186017D01*
X77396620Y-92028370D01*
X77396620Y-91867630D01*
X77427978Y-91709983D01*
X77472900Y-91601532D01*
X77489490Y-91561479D01*
X77534740Y-91493758D01*
X77578789Y-91427833D01*
X77692453Y-91314169D01*
X77826098Y-91224871D01*
X77826099Y-91224870D01*
X77974603Y-91163358D01*
X78132250Y-91132000D01*
X78292990Y-91132000D01*
X78450637Y-91163358D01*
X78450637Y-91163358D01*
G37*
G36*
X80990637Y-91163358D02*
G01*
X81139141Y-91224870D01*
X81139142Y-91224871D01*
X81272787Y-91314169D01*
X81386451Y-91427833D01*
X81430500Y-91493758D01*
X81475750Y-91561479D01*
X81492340Y-91601532D01*
X81537262Y-91709983D01*
X81568620Y-91867630D01*
X81568620Y-92028370D01*
X81537262Y-92186017D01*
X81521487Y-92224100D01*
X81475750Y-92334521D01*
X81475749Y-92334522D01*
X81386451Y-92468167D01*
X81272787Y-92581831D01*
X81186785Y-92639295D01*
X81139141Y-92671130D01*
X81067563Y-92700778D01*
X80990637Y-92732642D01*
X80832990Y-92764000D01*
X80672250Y-92764000D01*
X80514603Y-92732642D01*
X80437677Y-92700778D01*
X80366099Y-92671130D01*
X80318455Y-92639295D01*
X80232453Y-92581831D01*
X80118789Y-92468167D01*
X80029491Y-92334522D01*
X80029490Y-92334521D01*
X79983753Y-92224100D01*
X79967978Y-92186017D01*
X79936620Y-92028370D01*
X79936620Y-91867630D01*
X79967978Y-91709983D01*
X80012900Y-91601532D01*
X80029490Y-91561479D01*
X80074740Y-91493758D01*
X80118789Y-91427833D01*
X80232453Y-91314169D01*
X80366098Y-91224871D01*
X80366099Y-91224870D01*
X80514603Y-91163358D01*
X80672250Y-91132000D01*
X80832990Y-91132000D01*
X80990637Y-91163358D01*
X80990637Y-91163358D01*
G37*
G36*
X83530637Y-91163358D02*
G01*
X83679141Y-91224870D01*
X83679142Y-91224871D01*
X83812787Y-91314169D01*
X83926451Y-91427833D01*
X83970500Y-91493758D01*
X84015750Y-91561479D01*
X84032340Y-91601532D01*
X84077262Y-91709983D01*
X84108620Y-91867630D01*
X84108620Y-92028370D01*
X84077262Y-92186017D01*
X84061487Y-92224100D01*
X84015750Y-92334521D01*
X84015749Y-92334522D01*
X83926451Y-92468167D01*
X83812787Y-92581831D01*
X83726785Y-92639295D01*
X83679141Y-92671130D01*
X83607563Y-92700778D01*
X83530637Y-92732642D01*
X83372990Y-92764000D01*
X83212250Y-92764000D01*
X83054603Y-92732642D01*
X82977677Y-92700778D01*
X82906099Y-92671130D01*
X82858455Y-92639295D01*
X82772453Y-92581831D01*
X82658789Y-92468167D01*
X82569491Y-92334522D01*
X82569490Y-92334521D01*
X82523753Y-92224100D01*
X82507978Y-92186017D01*
X82476620Y-92028370D01*
X82476620Y-91867630D01*
X82507978Y-91709983D01*
X82552900Y-91601532D01*
X82569490Y-91561479D01*
X82614740Y-91493758D01*
X82658789Y-91427833D01*
X82772453Y-91314169D01*
X82906098Y-91224871D01*
X82906099Y-91224870D01*
X83054603Y-91163358D01*
X83212250Y-91132000D01*
X83372990Y-91132000D01*
X83530637Y-91163358D01*
X83530637Y-91163358D01*
G37*
G36*
X86070637Y-91163358D02*
G01*
X86219141Y-91224870D01*
X86219142Y-91224871D01*
X86352787Y-91314169D01*
X86466451Y-91427833D01*
X86510500Y-91493758D01*
X86555750Y-91561479D01*
X86572340Y-91601532D01*
X86617262Y-91709983D01*
X86648620Y-91867630D01*
X86648620Y-92028370D01*
X86617262Y-92186017D01*
X86601487Y-92224100D01*
X86555750Y-92334521D01*
X86555749Y-92334522D01*
X86466451Y-92468167D01*
X86352787Y-92581831D01*
X86266785Y-92639295D01*
X86219141Y-92671130D01*
X86147563Y-92700778D01*
X86070637Y-92732642D01*
X85912990Y-92764000D01*
X85752250Y-92764000D01*
X85594603Y-92732642D01*
X85517677Y-92700778D01*
X85446099Y-92671130D01*
X85398455Y-92639295D01*
X85312453Y-92581831D01*
X85198789Y-92468167D01*
X85109491Y-92334522D01*
X85109490Y-92334521D01*
X85063753Y-92224100D01*
X85047978Y-92186017D01*
X85016620Y-92028370D01*
X85016620Y-91867630D01*
X85047978Y-91709983D01*
X85092900Y-91601532D01*
X85109490Y-91561479D01*
X85154740Y-91493758D01*
X85198789Y-91427833D01*
X85312453Y-91314169D01*
X85446098Y-91224871D01*
X85446099Y-91224870D01*
X85594603Y-91163358D01*
X85752250Y-91132000D01*
X85912990Y-91132000D01*
X86070637Y-91163358D01*
X86070637Y-91163358D01*
G37*
G36*
X88610637Y-91163358D02*
G01*
X88759141Y-91224870D01*
X88759142Y-91224871D01*
X88892787Y-91314169D01*
X89006451Y-91427833D01*
X89050500Y-91493758D01*
X89095750Y-91561479D01*
X89112340Y-91601532D01*
X89157262Y-91709983D01*
X89188620Y-91867630D01*
X89188620Y-92028370D01*
X89157262Y-92186017D01*
X89141487Y-92224100D01*
X89095750Y-92334521D01*
X89095749Y-92334522D01*
X89006451Y-92468167D01*
X88892787Y-92581831D01*
X88806785Y-92639295D01*
X88759141Y-92671130D01*
X88687563Y-92700778D01*
X88610637Y-92732642D01*
X88452990Y-92764000D01*
X88292250Y-92764000D01*
X88134603Y-92732642D01*
X88057677Y-92700778D01*
X87986099Y-92671130D01*
X87938455Y-92639295D01*
X87852453Y-92581831D01*
X87738789Y-92468167D01*
X87649491Y-92334522D01*
X87649490Y-92334521D01*
X87603753Y-92224100D01*
X87587978Y-92186017D01*
X87556620Y-92028370D01*
X87556620Y-91867630D01*
X87587978Y-91709983D01*
X87632900Y-91601532D01*
X87649490Y-91561479D01*
X87694740Y-91493758D01*
X87738789Y-91427833D01*
X87852453Y-91314169D01*
X87986098Y-91224871D01*
X87986099Y-91224870D01*
X88134603Y-91163358D01*
X88292250Y-91132000D01*
X88452990Y-91132000D01*
X88610637Y-91163358D01*
X88610637Y-91163358D01*
G37*
G36*
X91150637Y-91163358D02*
G01*
X91299141Y-91224870D01*
X91299142Y-91224871D01*
X91432787Y-91314169D01*
X91546451Y-91427833D01*
X91590500Y-91493758D01*
X91635750Y-91561479D01*
X91652340Y-91601532D01*
X91697262Y-91709983D01*
X91728620Y-91867630D01*
X91728620Y-92028370D01*
X91697262Y-92186017D01*
X91681487Y-92224100D01*
X91635750Y-92334521D01*
X91635749Y-92334522D01*
X91546451Y-92468167D01*
X91432787Y-92581831D01*
X91346785Y-92639295D01*
X91299141Y-92671130D01*
X91227563Y-92700778D01*
X91150637Y-92732642D01*
X90992990Y-92764000D01*
X90832250Y-92764000D01*
X90674603Y-92732642D01*
X90597677Y-92700778D01*
X90526099Y-92671130D01*
X90478455Y-92639295D01*
X90392453Y-92581831D01*
X90278789Y-92468167D01*
X90189491Y-92334522D01*
X90189490Y-92334521D01*
X90143753Y-92224100D01*
X90127978Y-92186017D01*
X90096620Y-92028370D01*
X90096620Y-91867630D01*
X90127978Y-91709983D01*
X90172900Y-91601532D01*
X90189490Y-91561479D01*
X90234740Y-91493758D01*
X90278789Y-91427833D01*
X90392453Y-91314169D01*
X90526098Y-91224871D01*
X90526099Y-91224870D01*
X90674603Y-91163358D01*
X90832250Y-91132000D01*
X90992990Y-91132000D01*
X91150637Y-91163358D01*
X91150637Y-91163358D01*
G37*
G36*
X131790637Y-91163358D02*
G01*
X131939141Y-91224870D01*
X131939142Y-91224871D01*
X132072787Y-91314169D01*
X132186451Y-91427833D01*
X132230500Y-91493758D01*
X132275750Y-91561479D01*
X132292340Y-91601532D01*
X132337262Y-91709983D01*
X132368620Y-91867630D01*
X132368620Y-92028370D01*
X132337262Y-92186017D01*
X132321487Y-92224100D01*
X132275750Y-92334521D01*
X132275749Y-92334522D01*
X132186451Y-92468167D01*
X132072787Y-92581831D01*
X131986785Y-92639295D01*
X131939141Y-92671130D01*
X131867563Y-92700778D01*
X131790637Y-92732642D01*
X131632990Y-92764000D01*
X131472250Y-92764000D01*
X131314603Y-92732642D01*
X131237677Y-92700778D01*
X131166099Y-92671130D01*
X131118455Y-92639295D01*
X131032453Y-92581831D01*
X130918789Y-92468167D01*
X130829491Y-92334522D01*
X130829490Y-92334521D01*
X130783753Y-92224100D01*
X130767978Y-92186017D01*
X130736620Y-92028370D01*
X130736620Y-91867630D01*
X130767978Y-91709983D01*
X130812900Y-91601532D01*
X130829490Y-91561479D01*
X130874740Y-91493758D01*
X130918789Y-91427833D01*
X131032453Y-91314169D01*
X131166098Y-91224871D01*
X131166099Y-91224870D01*
X131314603Y-91163358D01*
X131472250Y-91132000D01*
X131632990Y-91132000D01*
X131790637Y-91163358D01*
X131790637Y-91163358D01*
G37*
G36*
X96230637Y-91163358D02*
G01*
X96379141Y-91224870D01*
X96379142Y-91224871D01*
X96512787Y-91314169D01*
X96626451Y-91427833D01*
X96670500Y-91493758D01*
X96715750Y-91561479D01*
X96732340Y-91601532D01*
X96777262Y-91709983D01*
X96808620Y-91867630D01*
X96808620Y-92028370D01*
X96777262Y-92186017D01*
X96761487Y-92224100D01*
X96715750Y-92334521D01*
X96715749Y-92334522D01*
X96626451Y-92468167D01*
X96512787Y-92581831D01*
X96426785Y-92639295D01*
X96379141Y-92671130D01*
X96307563Y-92700778D01*
X96230637Y-92732642D01*
X96072990Y-92764000D01*
X95912250Y-92764000D01*
X95754603Y-92732642D01*
X95677677Y-92700778D01*
X95606099Y-92671130D01*
X95558455Y-92639295D01*
X95472453Y-92581831D01*
X95358789Y-92468167D01*
X95269491Y-92334522D01*
X95269490Y-92334521D01*
X95223753Y-92224100D01*
X95207978Y-92186017D01*
X95176620Y-92028370D01*
X95176620Y-91867630D01*
X95207978Y-91709983D01*
X95252900Y-91601532D01*
X95269490Y-91561479D01*
X95314740Y-91493758D01*
X95358789Y-91427833D01*
X95472453Y-91314169D01*
X95606098Y-91224871D01*
X95606099Y-91224870D01*
X95754603Y-91163358D01*
X95912250Y-91132000D01*
X96072990Y-91132000D01*
X96230637Y-91163358D01*
X96230637Y-91163358D01*
G37*
G36*
X93690637Y-91163358D02*
G01*
X93839141Y-91224870D01*
X93839142Y-91224871D01*
X93972787Y-91314169D01*
X94086451Y-91427833D01*
X94130500Y-91493758D01*
X94175750Y-91561479D01*
X94192340Y-91601532D01*
X94237262Y-91709983D01*
X94268620Y-91867630D01*
X94268620Y-92028370D01*
X94237262Y-92186017D01*
X94221487Y-92224100D01*
X94175750Y-92334521D01*
X94175749Y-92334522D01*
X94086451Y-92468167D01*
X93972787Y-92581831D01*
X93886785Y-92639295D01*
X93839141Y-92671130D01*
X93767563Y-92700778D01*
X93690637Y-92732642D01*
X93532990Y-92764000D01*
X93372250Y-92764000D01*
X93214603Y-92732642D01*
X93137677Y-92700778D01*
X93066099Y-92671130D01*
X93018455Y-92639295D01*
X92932453Y-92581831D01*
X92818789Y-92468167D01*
X92729491Y-92334522D01*
X92729490Y-92334521D01*
X92683753Y-92224100D01*
X92667978Y-92186017D01*
X92636620Y-92028370D01*
X92636620Y-91867630D01*
X92667978Y-91709983D01*
X92712900Y-91601532D01*
X92729490Y-91561479D01*
X92774740Y-91493758D01*
X92818789Y-91427833D01*
X92932453Y-91314169D01*
X93066098Y-91224871D01*
X93066099Y-91224870D01*
X93214603Y-91163358D01*
X93372250Y-91132000D01*
X93532990Y-91132000D01*
X93690637Y-91163358D01*
X93690637Y-91163358D01*
G37*
G36*
X98770637Y-91163358D02*
G01*
X98919141Y-91224870D01*
X98919142Y-91224871D01*
X99052787Y-91314169D01*
X99166451Y-91427833D01*
X99210500Y-91493758D01*
X99255750Y-91561479D01*
X99272340Y-91601532D01*
X99317262Y-91709983D01*
X99348620Y-91867630D01*
X99348620Y-92028370D01*
X99317262Y-92186017D01*
X99301487Y-92224100D01*
X99255750Y-92334521D01*
X99255749Y-92334522D01*
X99166451Y-92468167D01*
X99052787Y-92581831D01*
X98966785Y-92639295D01*
X98919141Y-92671130D01*
X98847563Y-92700778D01*
X98770637Y-92732642D01*
X98612990Y-92764000D01*
X98452250Y-92764000D01*
X98294603Y-92732642D01*
X98217677Y-92700778D01*
X98146099Y-92671130D01*
X98098455Y-92639295D01*
X98012453Y-92581831D01*
X97898789Y-92468167D01*
X97809491Y-92334522D01*
X97809490Y-92334521D01*
X97763753Y-92224100D01*
X97747978Y-92186017D01*
X97716620Y-92028370D01*
X97716620Y-91867630D01*
X97747978Y-91709983D01*
X97792900Y-91601532D01*
X97809490Y-91561479D01*
X97854740Y-91493758D01*
X97898789Y-91427833D01*
X98012453Y-91314169D01*
X98146098Y-91224871D01*
X98146099Y-91224870D01*
X98294603Y-91163358D01*
X98452250Y-91132000D01*
X98612990Y-91132000D01*
X98770637Y-91163358D01*
X98770637Y-91163358D01*
G37*
G36*
X124170637Y-91163358D02*
G01*
X124319141Y-91224870D01*
X124319142Y-91224871D01*
X124452787Y-91314169D01*
X124566451Y-91427833D01*
X124610500Y-91493758D01*
X124655750Y-91561479D01*
X124672340Y-91601532D01*
X124717262Y-91709983D01*
X124748620Y-91867630D01*
X124748620Y-92028370D01*
X124717262Y-92186017D01*
X124701487Y-92224100D01*
X124655750Y-92334521D01*
X124655749Y-92334522D01*
X124566451Y-92468167D01*
X124452787Y-92581831D01*
X124366785Y-92639295D01*
X124319141Y-92671130D01*
X124247563Y-92700778D01*
X124170637Y-92732642D01*
X124012990Y-92764000D01*
X123852250Y-92764000D01*
X123694603Y-92732642D01*
X123617677Y-92700778D01*
X123546099Y-92671130D01*
X123498455Y-92639295D01*
X123412453Y-92581831D01*
X123298789Y-92468167D01*
X123209491Y-92334522D01*
X123209490Y-92334521D01*
X123163753Y-92224100D01*
X123147978Y-92186017D01*
X123116620Y-92028370D01*
X123116620Y-91867630D01*
X123147978Y-91709983D01*
X123192900Y-91601532D01*
X123209490Y-91561479D01*
X123254740Y-91493758D01*
X123298789Y-91427833D01*
X123412453Y-91314169D01*
X123546098Y-91224871D01*
X123546099Y-91224870D01*
X123694603Y-91163358D01*
X123852250Y-91132000D01*
X124012990Y-91132000D01*
X124170637Y-91163358D01*
X124170637Y-91163358D01*
G37*
G36*
X134330637Y-91163358D02*
G01*
X134479141Y-91224870D01*
X134479142Y-91224871D01*
X134612787Y-91314169D01*
X134726451Y-91427833D01*
X134770500Y-91493758D01*
X134815750Y-91561479D01*
X134832340Y-91601532D01*
X134877262Y-91709983D01*
X134908620Y-91867630D01*
X134908620Y-92028370D01*
X134877262Y-92186017D01*
X134861487Y-92224100D01*
X134815750Y-92334521D01*
X134815749Y-92334522D01*
X134726451Y-92468167D01*
X134612787Y-92581831D01*
X134526785Y-92639295D01*
X134479141Y-92671130D01*
X134407563Y-92700778D01*
X134330637Y-92732642D01*
X134172990Y-92764000D01*
X134012250Y-92764000D01*
X133854603Y-92732642D01*
X133777677Y-92700778D01*
X133706099Y-92671130D01*
X133658455Y-92639295D01*
X133572453Y-92581831D01*
X133458789Y-92468167D01*
X133369491Y-92334522D01*
X133369490Y-92334521D01*
X133323753Y-92224100D01*
X133307978Y-92186017D01*
X133276620Y-92028370D01*
X133276620Y-91867630D01*
X133307978Y-91709983D01*
X133352900Y-91601532D01*
X133369490Y-91561479D01*
X133414740Y-91493758D01*
X133458789Y-91427833D01*
X133572453Y-91314169D01*
X133706098Y-91224871D01*
X133706099Y-91224870D01*
X133854603Y-91163358D01*
X134012250Y-91132000D01*
X134172990Y-91132000D01*
X134330637Y-91163358D01*
X134330637Y-91163358D01*
G37*
G36*
X121630637Y-91163358D02*
G01*
X121779141Y-91224870D01*
X121779142Y-91224871D01*
X121912787Y-91314169D01*
X122026451Y-91427833D01*
X122070500Y-91493758D01*
X122115750Y-91561479D01*
X122132340Y-91601532D01*
X122177262Y-91709983D01*
X122208620Y-91867630D01*
X122208620Y-92028370D01*
X122177262Y-92186017D01*
X122161487Y-92224100D01*
X122115750Y-92334521D01*
X122115749Y-92334522D01*
X122026451Y-92468167D01*
X121912787Y-92581831D01*
X121826785Y-92639295D01*
X121779141Y-92671130D01*
X121707563Y-92700778D01*
X121630637Y-92732642D01*
X121472990Y-92764000D01*
X121312250Y-92764000D01*
X121154603Y-92732642D01*
X121077677Y-92700778D01*
X121006099Y-92671130D01*
X120958455Y-92639295D01*
X120872453Y-92581831D01*
X120758789Y-92468167D01*
X120669491Y-92334522D01*
X120669490Y-92334521D01*
X120623753Y-92224100D01*
X120607978Y-92186017D01*
X120576620Y-92028370D01*
X120576620Y-91867630D01*
X120607978Y-91709983D01*
X120652900Y-91601532D01*
X120669490Y-91561479D01*
X120714740Y-91493758D01*
X120758789Y-91427833D01*
X120872453Y-91314169D01*
X121006098Y-91224871D01*
X121006099Y-91224870D01*
X121154603Y-91163358D01*
X121312250Y-91132000D01*
X121472990Y-91132000D01*
X121630637Y-91163358D01*
X121630637Y-91163358D01*
G37*
G36*
X119090637Y-91163358D02*
G01*
X119239141Y-91224870D01*
X119239142Y-91224871D01*
X119372787Y-91314169D01*
X119486451Y-91427833D01*
X119530500Y-91493758D01*
X119575750Y-91561479D01*
X119592340Y-91601532D01*
X119637262Y-91709983D01*
X119668620Y-91867630D01*
X119668620Y-92028370D01*
X119637262Y-92186017D01*
X119621487Y-92224100D01*
X119575750Y-92334521D01*
X119575749Y-92334522D01*
X119486451Y-92468167D01*
X119372787Y-92581831D01*
X119286785Y-92639295D01*
X119239141Y-92671130D01*
X119167563Y-92700778D01*
X119090637Y-92732642D01*
X118932990Y-92764000D01*
X118772250Y-92764000D01*
X118614603Y-92732642D01*
X118537677Y-92700778D01*
X118466099Y-92671130D01*
X118418455Y-92639295D01*
X118332453Y-92581831D01*
X118218789Y-92468167D01*
X118129491Y-92334522D01*
X118129490Y-92334521D01*
X118083753Y-92224100D01*
X118067978Y-92186017D01*
X118036620Y-92028370D01*
X118036620Y-91867630D01*
X118067978Y-91709983D01*
X118112900Y-91601532D01*
X118129490Y-91561479D01*
X118174740Y-91493758D01*
X118218789Y-91427833D01*
X118332453Y-91314169D01*
X118466098Y-91224871D01*
X118466099Y-91224870D01*
X118614603Y-91163358D01*
X118772250Y-91132000D01*
X118932990Y-91132000D01*
X119090637Y-91163358D01*
X119090637Y-91163358D01*
G37*
G36*
X116550637Y-91163358D02*
G01*
X116699141Y-91224870D01*
X116699142Y-91224871D01*
X116832787Y-91314169D01*
X116946451Y-91427833D01*
X116990500Y-91493758D01*
X117035750Y-91561479D01*
X117052340Y-91601532D01*
X117097262Y-91709983D01*
X117128620Y-91867630D01*
X117128620Y-92028370D01*
X117097262Y-92186017D01*
X117081487Y-92224100D01*
X117035750Y-92334521D01*
X117035749Y-92334522D01*
X116946451Y-92468167D01*
X116832787Y-92581831D01*
X116746785Y-92639295D01*
X116699141Y-92671130D01*
X116627563Y-92700778D01*
X116550637Y-92732642D01*
X116392990Y-92764000D01*
X116232250Y-92764000D01*
X116074603Y-92732642D01*
X115997677Y-92700778D01*
X115926099Y-92671130D01*
X115878455Y-92639295D01*
X115792453Y-92581831D01*
X115678789Y-92468167D01*
X115589491Y-92334522D01*
X115589490Y-92334521D01*
X115543753Y-92224100D01*
X115527978Y-92186017D01*
X115496620Y-92028370D01*
X115496620Y-91867630D01*
X115527978Y-91709983D01*
X115572900Y-91601532D01*
X115589490Y-91561479D01*
X115634740Y-91493758D01*
X115678789Y-91427833D01*
X115792453Y-91314169D01*
X115926098Y-91224871D01*
X115926099Y-91224870D01*
X116074603Y-91163358D01*
X116232250Y-91132000D01*
X116392990Y-91132000D01*
X116550637Y-91163358D01*
X116550637Y-91163358D01*
G37*
G36*
X114010637Y-91163358D02*
G01*
X114159141Y-91224870D01*
X114159142Y-91224871D01*
X114292787Y-91314169D01*
X114406451Y-91427833D01*
X114450500Y-91493758D01*
X114495750Y-91561479D01*
X114512340Y-91601532D01*
X114557262Y-91709983D01*
X114588620Y-91867630D01*
X114588620Y-92028370D01*
X114557262Y-92186017D01*
X114541487Y-92224100D01*
X114495750Y-92334521D01*
X114495749Y-92334522D01*
X114406451Y-92468167D01*
X114292787Y-92581831D01*
X114206785Y-92639295D01*
X114159141Y-92671130D01*
X114087563Y-92700778D01*
X114010637Y-92732642D01*
X113852990Y-92764000D01*
X113692250Y-92764000D01*
X113534603Y-92732642D01*
X113457677Y-92700778D01*
X113386099Y-92671130D01*
X113338455Y-92639295D01*
X113252453Y-92581831D01*
X113138789Y-92468167D01*
X113049491Y-92334522D01*
X113049490Y-92334521D01*
X113003753Y-92224100D01*
X112987978Y-92186017D01*
X112956620Y-92028370D01*
X112956620Y-91867630D01*
X112987978Y-91709983D01*
X113032900Y-91601532D01*
X113049490Y-91561479D01*
X113094740Y-91493758D01*
X113138789Y-91427833D01*
X113252453Y-91314169D01*
X113386098Y-91224871D01*
X113386099Y-91224870D01*
X113534603Y-91163358D01*
X113692250Y-91132000D01*
X113852990Y-91132000D01*
X114010637Y-91163358D01*
X114010637Y-91163358D01*
G37*
G36*
X111470637Y-91163358D02*
G01*
X111619141Y-91224870D01*
X111619142Y-91224871D01*
X111752787Y-91314169D01*
X111866451Y-91427833D01*
X111910500Y-91493758D01*
X111955750Y-91561479D01*
X111972340Y-91601532D01*
X112017262Y-91709983D01*
X112048620Y-91867630D01*
X112048620Y-92028370D01*
X112017262Y-92186017D01*
X112001487Y-92224100D01*
X111955750Y-92334521D01*
X111955749Y-92334522D01*
X111866451Y-92468167D01*
X111752787Y-92581831D01*
X111666785Y-92639295D01*
X111619141Y-92671130D01*
X111547563Y-92700778D01*
X111470637Y-92732642D01*
X111312990Y-92764000D01*
X111152250Y-92764000D01*
X110994603Y-92732642D01*
X110917677Y-92700778D01*
X110846099Y-92671130D01*
X110798455Y-92639295D01*
X110712453Y-92581831D01*
X110598789Y-92468167D01*
X110509491Y-92334522D01*
X110509490Y-92334521D01*
X110463753Y-92224100D01*
X110447978Y-92186017D01*
X110416620Y-92028370D01*
X110416620Y-91867630D01*
X110447978Y-91709983D01*
X110492900Y-91601532D01*
X110509490Y-91561479D01*
X110554740Y-91493758D01*
X110598789Y-91427833D01*
X110712453Y-91314169D01*
X110846098Y-91224871D01*
X110846099Y-91224870D01*
X110994603Y-91163358D01*
X111152250Y-91132000D01*
X111312990Y-91132000D01*
X111470637Y-91163358D01*
X111470637Y-91163358D01*
G37*
G36*
X108930637Y-91163358D02*
G01*
X109079141Y-91224870D01*
X109079142Y-91224871D01*
X109212787Y-91314169D01*
X109326451Y-91427833D01*
X109370500Y-91493758D01*
X109415750Y-91561479D01*
X109432340Y-91601532D01*
X109477262Y-91709983D01*
X109508620Y-91867630D01*
X109508620Y-92028370D01*
X109477262Y-92186017D01*
X109461487Y-92224100D01*
X109415750Y-92334521D01*
X109415749Y-92334522D01*
X109326451Y-92468167D01*
X109212787Y-92581831D01*
X109126785Y-92639295D01*
X109079141Y-92671130D01*
X109007563Y-92700778D01*
X108930637Y-92732642D01*
X108772990Y-92764000D01*
X108612250Y-92764000D01*
X108454603Y-92732642D01*
X108377677Y-92700778D01*
X108306099Y-92671130D01*
X108258455Y-92639295D01*
X108172453Y-92581831D01*
X108058789Y-92468167D01*
X107969491Y-92334522D01*
X107969490Y-92334521D01*
X107923753Y-92224100D01*
X107907978Y-92186017D01*
X107876620Y-92028370D01*
X107876620Y-91867630D01*
X107907978Y-91709983D01*
X107952900Y-91601532D01*
X107969490Y-91561479D01*
X108014740Y-91493758D01*
X108058789Y-91427833D01*
X108172453Y-91314169D01*
X108306098Y-91224871D01*
X108306099Y-91224870D01*
X108454603Y-91163358D01*
X108612250Y-91132000D01*
X108772990Y-91132000D01*
X108930637Y-91163358D01*
X108930637Y-91163358D01*
G37*
G36*
X106390637Y-91163358D02*
G01*
X106539141Y-91224870D01*
X106539142Y-91224871D01*
X106672787Y-91314169D01*
X106786451Y-91427833D01*
X106830500Y-91493758D01*
X106875750Y-91561479D01*
X106892340Y-91601532D01*
X106937262Y-91709983D01*
X106968620Y-91867630D01*
X106968620Y-92028370D01*
X106937262Y-92186017D01*
X106921487Y-92224100D01*
X106875750Y-92334521D01*
X106875749Y-92334522D01*
X106786451Y-92468167D01*
X106672787Y-92581831D01*
X106586785Y-92639295D01*
X106539141Y-92671130D01*
X106467563Y-92700778D01*
X106390637Y-92732642D01*
X106232990Y-92764000D01*
X106072250Y-92764000D01*
X105914603Y-92732642D01*
X105837677Y-92700778D01*
X105766099Y-92671130D01*
X105718455Y-92639295D01*
X105632453Y-92581831D01*
X105518789Y-92468167D01*
X105429491Y-92334522D01*
X105429490Y-92334521D01*
X105383753Y-92224100D01*
X105367978Y-92186017D01*
X105336620Y-92028370D01*
X105336620Y-91867630D01*
X105367978Y-91709983D01*
X105412900Y-91601532D01*
X105429490Y-91561479D01*
X105474740Y-91493758D01*
X105518789Y-91427833D01*
X105632453Y-91314169D01*
X105766098Y-91224871D01*
X105766099Y-91224870D01*
X105914603Y-91163358D01*
X106072250Y-91132000D01*
X106232990Y-91132000D01*
X106390637Y-91163358D01*
X106390637Y-91163358D01*
G37*
G36*
X129250637Y-91163358D02*
G01*
X129399141Y-91224870D01*
X129399142Y-91224871D01*
X129532787Y-91314169D01*
X129646451Y-91427833D01*
X129690500Y-91493758D01*
X129735750Y-91561479D01*
X129752340Y-91601532D01*
X129797262Y-91709983D01*
X129828620Y-91867630D01*
X129828620Y-92028370D01*
X129797262Y-92186017D01*
X129781487Y-92224100D01*
X129735750Y-92334521D01*
X129735749Y-92334522D01*
X129646451Y-92468167D01*
X129532787Y-92581831D01*
X129446785Y-92639295D01*
X129399141Y-92671130D01*
X129327563Y-92700778D01*
X129250637Y-92732642D01*
X129092990Y-92764000D01*
X128932250Y-92764000D01*
X128774603Y-92732642D01*
X128697677Y-92700778D01*
X128626099Y-92671130D01*
X128578455Y-92639295D01*
X128492453Y-92581831D01*
X128378789Y-92468167D01*
X128289491Y-92334522D01*
X128289490Y-92334521D01*
X128243753Y-92224100D01*
X128227978Y-92186017D01*
X128196620Y-92028370D01*
X128196620Y-91867630D01*
X128227978Y-91709983D01*
X128272900Y-91601532D01*
X128289490Y-91561479D01*
X128334740Y-91493758D01*
X128378789Y-91427833D01*
X128492453Y-91314169D01*
X128626098Y-91224871D01*
X128626099Y-91224870D01*
X128774603Y-91163358D01*
X128932250Y-91132000D01*
X129092990Y-91132000D01*
X129250637Y-91163358D01*
X129250637Y-91163358D01*
G37*
G36*
X63519628Y-91002703D02*
G01*
X63674500Y-91066853D01*
X63813881Y-91159985D01*
X63932415Y-91278519D01*
X64025547Y-91417900D01*
X64089697Y-91572772D01*
X64122400Y-91737184D01*
X64122400Y-91904816D01*
X64089697Y-92069228D01*
X64025547Y-92224100D01*
X63932415Y-92363481D01*
X63813881Y-92482015D01*
X63674500Y-92575147D01*
X63519628Y-92639297D01*
X63355216Y-92672000D01*
X63187584Y-92672000D01*
X63023172Y-92639297D01*
X62868300Y-92575147D01*
X62728919Y-92482015D01*
X62610385Y-92363481D01*
X62517253Y-92224100D01*
X62453103Y-92069228D01*
X62420400Y-91904816D01*
X62420400Y-91737184D01*
X62453103Y-91572772D01*
X62517253Y-91417900D01*
X62610385Y-91278519D01*
X62728919Y-91159985D01*
X62868300Y-91066853D01*
X63023172Y-91002703D01*
X63187584Y-90970000D01*
X63355216Y-90970000D01*
X63519628Y-91002703D01*
X63519628Y-91002703D01*
G37*
G36*
X70938223Y-90982313D02*
G01*
X71098642Y-91030976D01*
X71153011Y-91060037D01*
X71246478Y-91109996D01*
X71376059Y-91216341D01*
X71482404Y-91345922D01*
X71482405Y-91345924D01*
X71561424Y-91493758D01*
X71610087Y-91654177D01*
X71626517Y-91821000D01*
X71610087Y-91987823D01*
X71561424Y-92148242D01*
X71520877Y-92224100D01*
X71482404Y-92296078D01*
X71376059Y-92425659D01*
X71246478Y-92532004D01*
X71246476Y-92532005D01*
X71098642Y-92611024D01*
X70938223Y-92659687D01*
X70813204Y-92672000D01*
X70729596Y-92672000D01*
X70604577Y-92659687D01*
X70444158Y-92611024D01*
X70296324Y-92532005D01*
X70296322Y-92532004D01*
X70166741Y-92425659D01*
X70060396Y-92296078D01*
X70021923Y-92224100D01*
X69981376Y-92148242D01*
X69932713Y-91987823D01*
X69916283Y-91821000D01*
X69932713Y-91654177D01*
X69981376Y-91493758D01*
X70060395Y-91345924D01*
X70060396Y-91345922D01*
X70166741Y-91216341D01*
X70296322Y-91109996D01*
X70389789Y-91060037D01*
X70444158Y-91030976D01*
X70604577Y-90982313D01*
X70729596Y-90970000D01*
X70813204Y-90970000D01*
X70938223Y-90982313D01*
X70938223Y-90982313D01*
G37*
G36*
X169005828Y-90875703D02*
G01*
X169160700Y-90939853D01*
X169300081Y-91032985D01*
X169418615Y-91151519D01*
X169511747Y-91290900D01*
X169575897Y-91445772D01*
X169608600Y-91610184D01*
X169608600Y-91777816D01*
X169575897Y-91942228D01*
X169511747Y-92097100D01*
X169418615Y-92236481D01*
X169300081Y-92355015D01*
X169160700Y-92448147D01*
X169005828Y-92512297D01*
X168841416Y-92545000D01*
X168673784Y-92545000D01*
X168509372Y-92512297D01*
X168354500Y-92448147D01*
X168215119Y-92355015D01*
X168096585Y-92236481D01*
X168003453Y-92097100D01*
X167939303Y-91942228D01*
X167906600Y-91777816D01*
X167906600Y-91610184D01*
X167939303Y-91445772D01*
X168003453Y-91290900D01*
X168096585Y-91151519D01*
X168215119Y-91032985D01*
X168354500Y-90939853D01*
X168509372Y-90875703D01*
X168673784Y-90843000D01*
X168841416Y-90843000D01*
X169005828Y-90875703D01*
X169005828Y-90875703D01*
G37*
G36*
X176424423Y-90855313D02*
G01*
X176584842Y-90903976D01*
X176708364Y-90970000D01*
X176732678Y-90982996D01*
X176862259Y-91089341D01*
X176968604Y-91218922D01*
X176968605Y-91218924D01*
X177047624Y-91366758D01*
X177096287Y-91527177D01*
X177112717Y-91694000D01*
X177096287Y-91860823D01*
X177047624Y-92021242D01*
X176979743Y-92148239D01*
X176968604Y-92169078D01*
X176862259Y-92298659D01*
X176732678Y-92405004D01*
X176732676Y-92405005D01*
X176584842Y-92484024D01*
X176424423Y-92532687D01*
X176299404Y-92545000D01*
X176215796Y-92545000D01*
X176090777Y-92532687D01*
X175930358Y-92484024D01*
X175782524Y-92405005D01*
X175782522Y-92405004D01*
X175652941Y-92298659D01*
X175546596Y-92169078D01*
X175535457Y-92148239D01*
X175467576Y-92021242D01*
X175418913Y-91860823D01*
X175402483Y-91694000D01*
X175418913Y-91527177D01*
X175467576Y-91366758D01*
X175546595Y-91218924D01*
X175546596Y-91218922D01*
X175652941Y-91089341D01*
X175782522Y-90982996D01*
X175806836Y-90970000D01*
X175930358Y-90903976D01*
X176090777Y-90855313D01*
X176215796Y-90843000D01*
X176299404Y-90843000D01*
X176424423Y-90855313D01*
X176424423Y-90855313D01*
G37*
G36*
X201802290Y-89829017D02*
G01*
X201920764Y-89878091D01*
X202027388Y-89949335D01*
X202118065Y-90040012D01*
X202177172Y-90128471D01*
X202189310Y-90146638D01*
X202238383Y-90265110D01*
X202245758Y-90302185D01*
X202263400Y-90390882D01*
X202263400Y-90519118D01*
X202238383Y-90644890D01*
X202189309Y-90763364D01*
X202118065Y-90869988D01*
X202027388Y-90960665D01*
X201920764Y-91031909D01*
X201920763Y-91031910D01*
X201920762Y-91031910D01*
X201802290Y-91080983D01*
X201676519Y-91106000D01*
X201548281Y-91106000D01*
X201422510Y-91080983D01*
X201304038Y-91031910D01*
X201304037Y-91031910D01*
X201304036Y-91031909D01*
X201197412Y-90960665D01*
X201106735Y-90869988D01*
X201035491Y-90763364D01*
X200986417Y-90644890D01*
X200961400Y-90519118D01*
X200961400Y-90390882D01*
X200979043Y-90302185D01*
X200986417Y-90265110D01*
X201035490Y-90146638D01*
X201047629Y-90128471D01*
X201106735Y-90040012D01*
X201197412Y-89949335D01*
X201304036Y-89878091D01*
X201422510Y-89829017D01*
X201548281Y-89804000D01*
X201676519Y-89804000D01*
X201802290Y-89829017D01*
X201802290Y-89829017D01*
G37*
G36*
X186495642Y-88767518D02*
G01*
X186561827Y-88774037D01*
X186731666Y-88825557D01*
X186888191Y-88909222D01*
X186923929Y-88938552D01*
X187025386Y-89021814D01*
X187108648Y-89123271D01*
X187137978Y-89159009D01*
X187221643Y-89315534D01*
X187273163Y-89485373D01*
X187290559Y-89662000D01*
X187273163Y-89838627D01*
X187221643Y-90008466D01*
X187137978Y-90164991D01*
X187117653Y-90189757D01*
X187025386Y-90302186D01*
X186923929Y-90385448D01*
X186888191Y-90414778D01*
X186731666Y-90498443D01*
X186561827Y-90549963D01*
X186495642Y-90556482D01*
X186429460Y-90563000D01*
X186340940Y-90563000D01*
X186274758Y-90556482D01*
X186208573Y-90549963D01*
X186038734Y-90498443D01*
X185882209Y-90414778D01*
X185846471Y-90385448D01*
X185745014Y-90302186D01*
X185652747Y-90189757D01*
X185632422Y-90164991D01*
X185548757Y-90008466D01*
X185497237Y-89838627D01*
X185479841Y-89662000D01*
X185497237Y-89485373D01*
X185548757Y-89315534D01*
X185632422Y-89159009D01*
X185661752Y-89123271D01*
X185745014Y-89021814D01*
X185846471Y-88938552D01*
X185882209Y-88909222D01*
X186038734Y-88825557D01*
X186208573Y-88774037D01*
X186274758Y-88767518D01*
X186340940Y-88761000D01*
X186429460Y-88761000D01*
X186495642Y-88767518D01*
X186495642Y-88767518D01*
G37*
G36*
X131789762Y-88626242D02*
G01*
X131937721Y-88687529D01*
X132070875Y-88776499D01*
X132184121Y-88889745D01*
X132273091Y-89022899D01*
X132334378Y-89170858D01*
X132365620Y-89327925D01*
X132365620Y-89488075D01*
X132334378Y-89645142D01*
X132273091Y-89793101D01*
X132184121Y-89926255D01*
X132070875Y-90039501D01*
X131937721Y-90128471D01*
X131789762Y-90189758D01*
X131632695Y-90221000D01*
X131472545Y-90221000D01*
X131315478Y-90189758D01*
X131167519Y-90128471D01*
X131034365Y-90039501D01*
X130921119Y-89926255D01*
X130832149Y-89793101D01*
X130770862Y-89645142D01*
X130739620Y-89488075D01*
X130739620Y-89327925D01*
X130770862Y-89170858D01*
X130832149Y-89022899D01*
X130921119Y-88889745D01*
X131034365Y-88776499D01*
X131167519Y-88687529D01*
X131315478Y-88626242D01*
X131472545Y-88595000D01*
X131632695Y-88595000D01*
X131789762Y-88626242D01*
X131789762Y-88626242D01*
G37*
G36*
X186495643Y-86227519D02*
G01*
X186561827Y-86234037D01*
X186731666Y-86285557D01*
X186888191Y-86369222D01*
X186923929Y-86398552D01*
X187025386Y-86481814D01*
X187096395Y-86568340D01*
X187137978Y-86619009D01*
X187137979Y-86619011D01*
X187200512Y-86736000D01*
X187221643Y-86775534D01*
X187273163Y-86945373D01*
X187290559Y-87122000D01*
X187273163Y-87298627D01*
X187221643Y-87468466D01*
X187221642Y-87468468D01*
X187189279Y-87529015D01*
X187137978Y-87624991D01*
X187108648Y-87660729D01*
X187025386Y-87762186D01*
X186923929Y-87845448D01*
X186888191Y-87874778D01*
X186731666Y-87958443D01*
X186561827Y-88009963D01*
X186495643Y-88016481D01*
X186429460Y-88023000D01*
X186340940Y-88023000D01*
X186274757Y-88016481D01*
X186208573Y-88009963D01*
X186038734Y-87958443D01*
X185882209Y-87874778D01*
X185846471Y-87845448D01*
X185745014Y-87762186D01*
X185661752Y-87660729D01*
X185632422Y-87624991D01*
X185581121Y-87529015D01*
X185548758Y-87468468D01*
X185548757Y-87468466D01*
X185497237Y-87298627D01*
X185479841Y-87122000D01*
X185497237Y-86945373D01*
X185548757Y-86775534D01*
X185569889Y-86736000D01*
X185632421Y-86619011D01*
X185632422Y-86619009D01*
X185674005Y-86568340D01*
X185745014Y-86481814D01*
X185846471Y-86398552D01*
X185882209Y-86369222D01*
X186038734Y-86285557D01*
X186208573Y-86234037D01*
X186274757Y-86227519D01*
X186340940Y-86221000D01*
X186429460Y-86221000D01*
X186495643Y-86227519D01*
X186495643Y-86227519D01*
G37*
G36*
X199531459Y-86282860D02*
G01*
X199668132Y-86339472D01*
X199791135Y-86421660D01*
X199895740Y-86526265D01*
X199958219Y-86619772D01*
X199977929Y-86649270D01*
X200034540Y-86785941D01*
X200063400Y-86931032D01*
X200063400Y-87078968D01*
X200034540Y-87224059D01*
X199977928Y-87360732D01*
X199895740Y-87483735D01*
X199791135Y-87588340D01*
X199668132Y-87670528D01*
X199668131Y-87670529D01*
X199668130Y-87670529D01*
X199531459Y-87727140D01*
X199386368Y-87756000D01*
X199238432Y-87756000D01*
X199093341Y-87727140D01*
X198956670Y-87670529D01*
X198956669Y-87670529D01*
X198956668Y-87670528D01*
X198833665Y-87588340D01*
X198729060Y-87483735D01*
X198646872Y-87360732D01*
X198590260Y-87224059D01*
X198561400Y-87078968D01*
X198561400Y-86931032D01*
X198590260Y-86785941D01*
X198646871Y-86649270D01*
X198666581Y-86619772D01*
X198729060Y-86526265D01*
X198833665Y-86421660D01*
X198956668Y-86339472D01*
X199093341Y-86282860D01*
X199238432Y-86254000D01*
X199386368Y-86254000D01*
X199531459Y-86282860D01*
X199531459Y-86282860D01*
G37*
G36*
X161792228Y-86049703D02*
G01*
X161947100Y-86113853D01*
X162086481Y-86206985D01*
X162205015Y-86325519D01*
X162298147Y-86464900D01*
X162362297Y-86619772D01*
X162395000Y-86784184D01*
X162395000Y-86951816D01*
X162362297Y-87116228D01*
X162298147Y-87271100D01*
X162205015Y-87410481D01*
X162086481Y-87529015D01*
X161947100Y-87622147D01*
X161792228Y-87686297D01*
X161627816Y-87719000D01*
X161460184Y-87719000D01*
X161295772Y-87686297D01*
X161140900Y-87622147D01*
X161001519Y-87529015D01*
X160882985Y-87410481D01*
X160789853Y-87271100D01*
X160725703Y-87116228D01*
X160693000Y-86951816D01*
X160693000Y-86784184D01*
X160725703Y-86619772D01*
X160789853Y-86464900D01*
X160882985Y-86325519D01*
X161001519Y-86206985D01*
X161140900Y-86113853D01*
X161295772Y-86049703D01*
X161460184Y-86017000D01*
X161627816Y-86017000D01*
X161792228Y-86049703D01*
X161792228Y-86049703D01*
G37*
G36*
X165348228Y-86049703D02*
G01*
X165503100Y-86113853D01*
X165642481Y-86206985D01*
X165761015Y-86325519D01*
X165854147Y-86464900D01*
X165918297Y-86619772D01*
X165951000Y-86784184D01*
X165951000Y-86951816D01*
X165918297Y-87116228D01*
X165854147Y-87271100D01*
X165761015Y-87410481D01*
X165642481Y-87529015D01*
X165503100Y-87622147D01*
X165348228Y-87686297D01*
X165183816Y-87719000D01*
X165016184Y-87719000D01*
X164851772Y-87686297D01*
X164696900Y-87622147D01*
X164557519Y-87529015D01*
X164438985Y-87410481D01*
X164345853Y-87271100D01*
X164281703Y-87116228D01*
X164249000Y-86951816D01*
X164249000Y-86784184D01*
X164281703Y-86619772D01*
X164345853Y-86464900D01*
X164438985Y-86325519D01*
X164557519Y-86206985D01*
X164696900Y-86113853D01*
X164851772Y-86049703D01*
X165016184Y-86017000D01*
X165183816Y-86017000D01*
X165348228Y-86049703D01*
X165348228Y-86049703D01*
G37*
G36*
X196991459Y-85262860D02*
G01*
X197128132Y-85319472D01*
X197251135Y-85401660D01*
X197355740Y-85506265D01*
X197383854Y-85548341D01*
X197437929Y-85629270D01*
X197494540Y-85765941D01*
X197523400Y-85911032D01*
X197523400Y-86058968D01*
X197494540Y-86204059D01*
X197444230Y-86325519D01*
X197437928Y-86340732D01*
X197355740Y-86463735D01*
X197251135Y-86568340D01*
X197128132Y-86650528D01*
X197128131Y-86650529D01*
X197128130Y-86650529D01*
X196991459Y-86707140D01*
X196846368Y-86736000D01*
X196698432Y-86736000D01*
X196553341Y-86707140D01*
X196416670Y-86650529D01*
X196416669Y-86650529D01*
X196416668Y-86650528D01*
X196293665Y-86568340D01*
X196189060Y-86463735D01*
X196106872Y-86340732D01*
X196100571Y-86325519D01*
X196050260Y-86204059D01*
X196021400Y-86058968D01*
X196021400Y-85911032D01*
X196050260Y-85765941D01*
X196106871Y-85629270D01*
X196160946Y-85548341D01*
X196189060Y-85506265D01*
X196293665Y-85401660D01*
X196416668Y-85319472D01*
X196553341Y-85262860D01*
X196698432Y-85234000D01*
X196846368Y-85234000D01*
X196991459Y-85262860D01*
X196991459Y-85262860D01*
G37*
G36*
X66353642Y-84271718D02*
G01*
X66419827Y-84278237D01*
X66589666Y-84329757D01*
X66746191Y-84413422D01*
X66758757Y-84423735D01*
X66883386Y-84526014D01*
X66966648Y-84627471D01*
X66995978Y-84663209D01*
X67079643Y-84819734D01*
X67131163Y-84989573D01*
X67148559Y-85166200D01*
X67131163Y-85342827D01*
X67079643Y-85512666D01*
X66995978Y-85669191D01*
X66977466Y-85691748D01*
X66883386Y-85806386D01*
X66781929Y-85889648D01*
X66746191Y-85918978D01*
X66589666Y-86002643D01*
X66419827Y-86054163D01*
X66371050Y-86058967D01*
X66287460Y-86067200D01*
X66198940Y-86067200D01*
X66115350Y-86058967D01*
X66066573Y-86054163D01*
X65896734Y-86002643D01*
X65740209Y-85918978D01*
X65704471Y-85889648D01*
X65603014Y-85806386D01*
X65508934Y-85691748D01*
X65490422Y-85669191D01*
X65406757Y-85512666D01*
X65355237Y-85342827D01*
X65337841Y-85166200D01*
X65355237Y-84989573D01*
X65406757Y-84819734D01*
X65490422Y-84663209D01*
X65519752Y-84627471D01*
X65603014Y-84526014D01*
X65727643Y-84423735D01*
X65740209Y-84413422D01*
X65896734Y-84329757D01*
X66066573Y-84278237D01*
X66132758Y-84271718D01*
X66198940Y-84265200D01*
X66287460Y-84265200D01*
X66353642Y-84271718D01*
X66353642Y-84271718D01*
G37*
G36*
X68893642Y-84271718D02*
G01*
X68959827Y-84278237D01*
X69129666Y-84329757D01*
X69286191Y-84413422D01*
X69298757Y-84423735D01*
X69423386Y-84526014D01*
X69506648Y-84627471D01*
X69535978Y-84663209D01*
X69619643Y-84819734D01*
X69671163Y-84989573D01*
X69688559Y-85166200D01*
X69671163Y-85342827D01*
X69619643Y-85512666D01*
X69535978Y-85669191D01*
X69517466Y-85691748D01*
X69423386Y-85806386D01*
X69321929Y-85889648D01*
X69286191Y-85918978D01*
X69129666Y-86002643D01*
X68959827Y-86054163D01*
X68911050Y-86058967D01*
X68827460Y-86067200D01*
X68738940Y-86067200D01*
X68655350Y-86058967D01*
X68606573Y-86054163D01*
X68436734Y-86002643D01*
X68280209Y-85918978D01*
X68244471Y-85889648D01*
X68143014Y-85806386D01*
X68048934Y-85691748D01*
X68030422Y-85669191D01*
X67946757Y-85512666D01*
X67895237Y-85342827D01*
X67877841Y-85166200D01*
X67895237Y-84989573D01*
X67946757Y-84819734D01*
X68030422Y-84663209D01*
X68059752Y-84627471D01*
X68143014Y-84526014D01*
X68267643Y-84423735D01*
X68280209Y-84413422D01*
X68436734Y-84329757D01*
X68606573Y-84278237D01*
X68672758Y-84271718D01*
X68738940Y-84265200D01*
X68827460Y-84265200D01*
X68893642Y-84271718D01*
X68893642Y-84271718D01*
G37*
G36*
X180766028Y-84119303D02*
G01*
X180920900Y-84183453D01*
X181060281Y-84276585D01*
X181178815Y-84395119D01*
X181271947Y-84534500D01*
X181336097Y-84689372D01*
X181368800Y-84853784D01*
X181368800Y-85021416D01*
X181336097Y-85185828D01*
X181271947Y-85340700D01*
X181178815Y-85480081D01*
X181060281Y-85598615D01*
X180920900Y-85691747D01*
X180766028Y-85755897D01*
X180601616Y-85788600D01*
X180433984Y-85788600D01*
X180269572Y-85755897D01*
X180114700Y-85691747D01*
X179975319Y-85598615D01*
X179856785Y-85480081D01*
X179763653Y-85340700D01*
X179699503Y-85185828D01*
X179666800Y-85021416D01*
X179666800Y-84853784D01*
X179699503Y-84689372D01*
X179763653Y-84534500D01*
X179856785Y-84395119D01*
X179975319Y-84276585D01*
X180114700Y-84183453D01*
X180269572Y-84119303D01*
X180433984Y-84086600D01*
X180601616Y-84086600D01*
X180766028Y-84119303D01*
X180766028Y-84119303D01*
G37*
G36*
X199531459Y-84242860D02*
G01*
X199616867Y-84278237D01*
X199668132Y-84299472D01*
X199791135Y-84381660D01*
X199895740Y-84486265D01*
X199963296Y-84587370D01*
X199977929Y-84609270D01*
X200034540Y-84745941D01*
X200063400Y-84891032D01*
X200063400Y-85038968D01*
X200034540Y-85184059D01*
X200001900Y-85262860D01*
X199977928Y-85320732D01*
X199895740Y-85443735D01*
X199791135Y-85548340D01*
X199668132Y-85630528D01*
X199668131Y-85630529D01*
X199668130Y-85630529D01*
X199531459Y-85687140D01*
X199386368Y-85716000D01*
X199238432Y-85716000D01*
X199093341Y-85687140D01*
X198956670Y-85630529D01*
X198956669Y-85630529D01*
X198956668Y-85630528D01*
X198833665Y-85548340D01*
X198729060Y-85443735D01*
X198646872Y-85320732D01*
X198622901Y-85262860D01*
X198590260Y-85184059D01*
X198561400Y-85038968D01*
X198561400Y-84891032D01*
X198590260Y-84745941D01*
X198646871Y-84609270D01*
X198661504Y-84587370D01*
X198729060Y-84486265D01*
X198833665Y-84381660D01*
X198956668Y-84299472D01*
X199007934Y-84278237D01*
X199093341Y-84242860D01*
X199238432Y-84214000D01*
X199386368Y-84214000D01*
X199531459Y-84242860D01*
X199531459Y-84242860D01*
G37*
G36*
X187286200Y-85483000D02*
G01*
X185484200Y-85483000D01*
X185484200Y-83681000D01*
X187286200Y-83681000D01*
X187286200Y-85483000D01*
X187286200Y-85483000D01*
G37*
G36*
X176535369Y-83472971D02*
G01*
X176697195Y-83540002D01*
X176842829Y-83637311D01*
X176966689Y-83761171D01*
X177063998Y-83906805D01*
X177131029Y-84068631D01*
X177165200Y-84240420D01*
X177165200Y-84415580D01*
X177131029Y-84587369D01*
X177063998Y-84749195D01*
X176966689Y-84894829D01*
X176842829Y-85018689D01*
X176697195Y-85115998D01*
X176535369Y-85183029D01*
X176363580Y-85217200D01*
X176188420Y-85217200D01*
X176016631Y-85183029D01*
X175854805Y-85115998D01*
X175709171Y-85018689D01*
X175585311Y-84894829D01*
X175488002Y-84749195D01*
X175420971Y-84587369D01*
X175386800Y-84415580D01*
X175386800Y-84240420D01*
X175420971Y-84068631D01*
X175488002Y-83906805D01*
X175585311Y-83761171D01*
X175709171Y-83637311D01*
X175854805Y-83540002D01*
X176016631Y-83472971D01*
X176188420Y-83438800D01*
X176363580Y-83438800D01*
X176535369Y-83472971D01*
X176535369Y-83472971D01*
G37*
G36*
X171455369Y-83472971D02*
G01*
X171617195Y-83540002D01*
X171762829Y-83637311D01*
X171886689Y-83761171D01*
X171983998Y-83906805D01*
X172051029Y-84068631D01*
X172085200Y-84240420D01*
X172085200Y-84415580D01*
X172051029Y-84587369D01*
X171983998Y-84749195D01*
X171886689Y-84894829D01*
X171762829Y-85018689D01*
X171617195Y-85115998D01*
X171455369Y-85183029D01*
X171283580Y-85217200D01*
X171108420Y-85217200D01*
X170936631Y-85183029D01*
X170774805Y-85115998D01*
X170629171Y-85018689D01*
X170505311Y-84894829D01*
X170408002Y-84749195D01*
X170340971Y-84587369D01*
X170306800Y-84415580D01*
X170306800Y-84240420D01*
X170340971Y-84068631D01*
X170408002Y-83906805D01*
X170505311Y-83761171D01*
X170629171Y-83637311D01*
X170774805Y-83540002D01*
X170936631Y-83472971D01*
X171108420Y-83438800D01*
X171283580Y-83438800D01*
X171455369Y-83472971D01*
X171455369Y-83472971D01*
G37*
G36*
X168915369Y-83472971D02*
G01*
X169077195Y-83540002D01*
X169222829Y-83637311D01*
X169346689Y-83761171D01*
X169443998Y-83906805D01*
X169511029Y-84068631D01*
X169545200Y-84240420D01*
X169545200Y-84415580D01*
X169511029Y-84587369D01*
X169443998Y-84749195D01*
X169346689Y-84894829D01*
X169222829Y-85018689D01*
X169077195Y-85115998D01*
X168915369Y-85183029D01*
X168743580Y-85217200D01*
X168568420Y-85217200D01*
X168396631Y-85183029D01*
X168234805Y-85115998D01*
X168089171Y-85018689D01*
X167965311Y-84894829D01*
X167868002Y-84749195D01*
X167800971Y-84587369D01*
X167766800Y-84415580D01*
X167766800Y-84240420D01*
X167800971Y-84068631D01*
X167868002Y-83906805D01*
X167965311Y-83761171D01*
X168089171Y-83637311D01*
X168234805Y-83540002D01*
X168396631Y-83472971D01*
X168568420Y-83438800D01*
X168743580Y-83438800D01*
X168915369Y-83472971D01*
X168915369Y-83472971D01*
G37*
G36*
X173995369Y-83472971D02*
G01*
X174157195Y-83540002D01*
X174302829Y-83637311D01*
X174426689Y-83761171D01*
X174523998Y-83906805D01*
X174591029Y-84068631D01*
X174625200Y-84240420D01*
X174625200Y-84415580D01*
X174591029Y-84587369D01*
X174523998Y-84749195D01*
X174426689Y-84894829D01*
X174302829Y-85018689D01*
X174157195Y-85115998D01*
X173995369Y-85183029D01*
X173823580Y-85217200D01*
X173648420Y-85217200D01*
X173476631Y-85183029D01*
X173314805Y-85115998D01*
X173169171Y-85018689D01*
X173045311Y-84894829D01*
X172948002Y-84749195D01*
X172880971Y-84587369D01*
X172846800Y-84415580D01*
X172846800Y-84240420D01*
X172880971Y-84068631D01*
X172948002Y-83906805D01*
X173045311Y-83761171D01*
X173169171Y-83637311D01*
X173314805Y-83540002D01*
X173476631Y-83472971D01*
X173648420Y-83438800D01*
X173823580Y-83438800D01*
X173995369Y-83472971D01*
X173995369Y-83472971D01*
G37*
G36*
X196991459Y-83222860D02*
G01*
X197096538Y-83266385D01*
X197128132Y-83279472D01*
X197251135Y-83361660D01*
X197355740Y-83466265D01*
X197437928Y-83589268D01*
X197437929Y-83589270D01*
X197494540Y-83725941D01*
X197523400Y-83871032D01*
X197523400Y-84018968D01*
X197494540Y-84164059D01*
X197461900Y-84242860D01*
X197437928Y-84300732D01*
X197355740Y-84423735D01*
X197251135Y-84528340D01*
X197128132Y-84610528D01*
X197128131Y-84610529D01*
X197128130Y-84610529D01*
X196991459Y-84667140D01*
X196846368Y-84696000D01*
X196698432Y-84696000D01*
X196553341Y-84667140D01*
X196416670Y-84610529D01*
X196416669Y-84610529D01*
X196416668Y-84610528D01*
X196293665Y-84528340D01*
X196189060Y-84423735D01*
X196106872Y-84300732D01*
X196082901Y-84242860D01*
X196050260Y-84164059D01*
X196021400Y-84018968D01*
X196021400Y-83871032D01*
X196050260Y-83725941D01*
X196106871Y-83589270D01*
X196106872Y-83589268D01*
X196189060Y-83466265D01*
X196293665Y-83361660D01*
X196416668Y-83279472D01*
X196448263Y-83266385D01*
X196553341Y-83222860D01*
X196698432Y-83194000D01*
X196846368Y-83194000D01*
X196991459Y-83222860D01*
X196991459Y-83222860D01*
G37*
G36*
X199531459Y-82202860D02*
G01*
X199668132Y-82259472D01*
X199791135Y-82341660D01*
X199895740Y-82446265D01*
X199923854Y-82488341D01*
X199977929Y-82569270D01*
X200034540Y-82705941D01*
X200063400Y-82851032D01*
X200063400Y-82998968D01*
X200034540Y-83144059D01*
X200001900Y-83222860D01*
X199977928Y-83280732D01*
X199895740Y-83403735D01*
X199791135Y-83508340D01*
X199668132Y-83590528D01*
X199668131Y-83590529D01*
X199668130Y-83590529D01*
X199531459Y-83647140D01*
X199386368Y-83676000D01*
X199238432Y-83676000D01*
X199093341Y-83647140D01*
X198956670Y-83590529D01*
X198956669Y-83590529D01*
X198956668Y-83590528D01*
X198833665Y-83508340D01*
X198729060Y-83403735D01*
X198646872Y-83280732D01*
X198622901Y-83222860D01*
X198590260Y-83144059D01*
X198561400Y-82998968D01*
X198561400Y-82851032D01*
X198590260Y-82705941D01*
X198646871Y-82569270D01*
X198700946Y-82488341D01*
X198729060Y-82446265D01*
X198833665Y-82341660D01*
X198956668Y-82259472D01*
X199093341Y-82202860D01*
X199238432Y-82174000D01*
X199386368Y-82174000D01*
X199531459Y-82202860D01*
X199531459Y-82202860D01*
G37*
G36*
X68893643Y-81731719D02*
G01*
X68959827Y-81738237D01*
X69129666Y-81789757D01*
X69129668Y-81789758D01*
X69206887Y-81831033D01*
X69286191Y-81873422D01*
X69321929Y-81902752D01*
X69423386Y-81986014D01*
X69506648Y-82087471D01*
X69535978Y-82123209D01*
X69619643Y-82279734D01*
X69671163Y-82449573D01*
X69688559Y-82626200D01*
X69671163Y-82802827D01*
X69619643Y-82972666D01*
X69535978Y-83129191D01*
X69523776Y-83144059D01*
X69423386Y-83266386D01*
X69321929Y-83349648D01*
X69286191Y-83378978D01*
X69129666Y-83462643D01*
X68959827Y-83514163D01*
X68893642Y-83520682D01*
X68827460Y-83527200D01*
X68738940Y-83527200D01*
X68672758Y-83520682D01*
X68606573Y-83514163D01*
X68436734Y-83462643D01*
X68280209Y-83378978D01*
X68244471Y-83349648D01*
X68143014Y-83266386D01*
X68042624Y-83144059D01*
X68030422Y-83129191D01*
X67946757Y-82972666D01*
X67895237Y-82802827D01*
X67877841Y-82626200D01*
X67895237Y-82449573D01*
X67946757Y-82279734D01*
X68030422Y-82123209D01*
X68059752Y-82087471D01*
X68143014Y-81986014D01*
X68244471Y-81902752D01*
X68280209Y-81873422D01*
X68359513Y-81831033D01*
X68436732Y-81789758D01*
X68436734Y-81789757D01*
X68606573Y-81738237D01*
X68672757Y-81731719D01*
X68738940Y-81725200D01*
X68827460Y-81725200D01*
X68893643Y-81731719D01*
X68893643Y-81731719D01*
G37*
G36*
X66353643Y-81731719D02*
G01*
X66419827Y-81738237D01*
X66589666Y-81789757D01*
X66589668Y-81789758D01*
X66666887Y-81831033D01*
X66746191Y-81873422D01*
X66781929Y-81902752D01*
X66883386Y-81986014D01*
X66966648Y-82087471D01*
X66995978Y-82123209D01*
X67079643Y-82279734D01*
X67131163Y-82449573D01*
X67148559Y-82626200D01*
X67131163Y-82802827D01*
X67079643Y-82972666D01*
X66995978Y-83129191D01*
X66983776Y-83144059D01*
X66883386Y-83266386D01*
X66781929Y-83349648D01*
X66746191Y-83378978D01*
X66589666Y-83462643D01*
X66419827Y-83514163D01*
X66353642Y-83520682D01*
X66287460Y-83527200D01*
X66198940Y-83527200D01*
X66132758Y-83520682D01*
X66066573Y-83514163D01*
X65896734Y-83462643D01*
X65740209Y-83378978D01*
X65704471Y-83349648D01*
X65603014Y-83266386D01*
X65502624Y-83144059D01*
X65490422Y-83129191D01*
X65406757Y-82972666D01*
X65355237Y-82802827D01*
X65337841Y-82626200D01*
X65355237Y-82449573D01*
X65406757Y-82279734D01*
X65490422Y-82123209D01*
X65519752Y-82087471D01*
X65603014Y-81986014D01*
X65704471Y-81902752D01*
X65740209Y-81873422D01*
X65819513Y-81831033D01*
X65896732Y-81789758D01*
X65896734Y-81789757D01*
X66066573Y-81738237D01*
X66132757Y-81731719D01*
X66198940Y-81725200D01*
X66287460Y-81725200D01*
X66353643Y-81731719D01*
X66353643Y-81731719D01*
G37*
G36*
X196991459Y-81182860D02*
G01*
X197128132Y-81239472D01*
X197251135Y-81321660D01*
X197355740Y-81426265D01*
X197355741Y-81426267D01*
X197437929Y-81549270D01*
X197494540Y-81685941D01*
X197523400Y-81831032D01*
X197523400Y-81978968D01*
X197494540Y-82124059D01*
X197461900Y-82202860D01*
X197437928Y-82260732D01*
X197355740Y-82383735D01*
X197251135Y-82488340D01*
X197128132Y-82570528D01*
X197128131Y-82570529D01*
X197128130Y-82570529D01*
X196991459Y-82627140D01*
X196846368Y-82656000D01*
X196698432Y-82656000D01*
X196553341Y-82627140D01*
X196416670Y-82570529D01*
X196416669Y-82570529D01*
X196416668Y-82570528D01*
X196293665Y-82488340D01*
X196189060Y-82383735D01*
X196106872Y-82260732D01*
X196082901Y-82202860D01*
X196050260Y-82124059D01*
X196021400Y-81978968D01*
X196021400Y-81831032D01*
X196050260Y-81685941D01*
X196106871Y-81549270D01*
X196189059Y-81426267D01*
X196189060Y-81426265D01*
X196293665Y-81321660D01*
X196416668Y-81239472D01*
X196553341Y-81182860D01*
X196698432Y-81154000D01*
X196846368Y-81154000D01*
X196991459Y-81182860D01*
X196991459Y-81182860D01*
G37*
G36*
X67144200Y-80987200D02*
G01*
X65342200Y-80987200D01*
X65342200Y-79185200D01*
X67144200Y-79185200D01*
X67144200Y-80987200D01*
X67144200Y-80987200D01*
G37*
G36*
X68893643Y-79191719D02*
G01*
X68959827Y-79198237D01*
X69129666Y-79249757D01*
X69286191Y-79333422D01*
X69321929Y-79362752D01*
X69423386Y-79446014D01*
X69506648Y-79547471D01*
X69535978Y-79583209D01*
X69619643Y-79739734D01*
X69671163Y-79909573D01*
X69688559Y-80086200D01*
X69671163Y-80262827D01*
X69619643Y-80432666D01*
X69535978Y-80589191D01*
X69506648Y-80624929D01*
X69423386Y-80726386D01*
X69321929Y-80809648D01*
X69286191Y-80838978D01*
X69129666Y-80922643D01*
X68959827Y-80974163D01*
X68893643Y-80980681D01*
X68827460Y-80987200D01*
X68738940Y-80987200D01*
X68672757Y-80980681D01*
X68606573Y-80974163D01*
X68436734Y-80922643D01*
X68280209Y-80838978D01*
X68244471Y-80809648D01*
X68143014Y-80726386D01*
X68059752Y-80624929D01*
X68030422Y-80589191D01*
X67946757Y-80432666D01*
X67895237Y-80262827D01*
X67877841Y-80086200D01*
X67895237Y-79909573D01*
X67946757Y-79739734D01*
X68030422Y-79583209D01*
X68059752Y-79547471D01*
X68143014Y-79446014D01*
X68244471Y-79362752D01*
X68280209Y-79333422D01*
X68436734Y-79249757D01*
X68606573Y-79198237D01*
X68672757Y-79191719D01*
X68738940Y-79185200D01*
X68827460Y-79185200D01*
X68893643Y-79191719D01*
X68893643Y-79191719D01*
G37*
G36*
X201802290Y-77829017D02*
G01*
X201920764Y-77878091D01*
X202027388Y-77949335D01*
X202118065Y-78040012D01*
X202189309Y-78146636D01*
X202238383Y-78265110D01*
X202263400Y-78390882D01*
X202263400Y-78519118D01*
X202238383Y-78644890D01*
X202189309Y-78763364D01*
X202118065Y-78869988D01*
X202027388Y-78960665D01*
X201920764Y-79031909D01*
X201920763Y-79031910D01*
X201920762Y-79031910D01*
X201802290Y-79080983D01*
X201676519Y-79106000D01*
X201548281Y-79106000D01*
X201422510Y-79080983D01*
X201304038Y-79031910D01*
X201304037Y-79031910D01*
X201304036Y-79031909D01*
X201197412Y-78960665D01*
X201106735Y-78869988D01*
X201035491Y-78763364D01*
X200986417Y-78644890D01*
X200961400Y-78519118D01*
X200961400Y-78390882D01*
X200986417Y-78265110D01*
X201035491Y-78146636D01*
X201106735Y-78040012D01*
X201197412Y-77949335D01*
X201304036Y-77878091D01*
X201422510Y-77829017D01*
X201548281Y-77804000D01*
X201676519Y-77804000D01*
X201802290Y-77829017D01*
X201802290Y-77829017D01*
G37*
G36*
X180684623Y-76598913D02*
G01*
X180845042Y-76647576D01*
X180958087Y-76708000D01*
X180992878Y-76726596D01*
X181122459Y-76832941D01*
X181228804Y-76962522D01*
X181228805Y-76962524D01*
X181307824Y-77110358D01*
X181356487Y-77270777D01*
X181372917Y-77437600D01*
X181356487Y-77604423D01*
X181307824Y-77764842D01*
X181247292Y-77878090D01*
X181228804Y-77912678D01*
X181122459Y-78042259D01*
X180992878Y-78148604D01*
X180992876Y-78148605D01*
X180845042Y-78227624D01*
X180684623Y-78276287D01*
X180559604Y-78288600D01*
X180475996Y-78288600D01*
X180350977Y-78276287D01*
X180190558Y-78227624D01*
X180042724Y-78148605D01*
X180042722Y-78148604D01*
X179913141Y-78042259D01*
X179806796Y-77912678D01*
X179788308Y-77878090D01*
X179727776Y-77764842D01*
X179679113Y-77604423D01*
X179662683Y-77437600D01*
X179679113Y-77270777D01*
X179727776Y-77110358D01*
X179806795Y-76962524D01*
X179806796Y-76962522D01*
X179913141Y-76832941D01*
X180042722Y-76726596D01*
X180077513Y-76708000D01*
X180190558Y-76647576D01*
X180350977Y-76598913D01*
X180475996Y-76586600D01*
X180559604Y-76586600D01*
X180684623Y-76598913D01*
X180684623Y-76598913D01*
G37*
G36*
X171455369Y-75852971D02*
G01*
X171617195Y-75920002D01*
X171762829Y-76017311D01*
X171886689Y-76141171D01*
X171983998Y-76286805D01*
X172051029Y-76448631D01*
X172085200Y-76620420D01*
X172085200Y-76795580D01*
X172051029Y-76967369D01*
X171983998Y-77129195D01*
X171886689Y-77274829D01*
X171762829Y-77398689D01*
X171617195Y-77495998D01*
X171455369Y-77563029D01*
X171283580Y-77597200D01*
X171108420Y-77597200D01*
X170936631Y-77563029D01*
X170774805Y-77495998D01*
X170629171Y-77398689D01*
X170505311Y-77274829D01*
X170408002Y-77129195D01*
X170340971Y-76967369D01*
X170306800Y-76795580D01*
X170306800Y-76620420D01*
X170340971Y-76448631D01*
X170408002Y-76286805D01*
X170505311Y-76141171D01*
X170629171Y-76017311D01*
X170774805Y-75920002D01*
X170936631Y-75852971D01*
X171108420Y-75818800D01*
X171283580Y-75818800D01*
X171455369Y-75852971D01*
X171455369Y-75852971D01*
G37*
G36*
X177165200Y-77597200D02*
G01*
X175386800Y-77597200D01*
X175386800Y-75818800D01*
X177165200Y-75818800D01*
X177165200Y-77597200D01*
X177165200Y-77597200D01*
G37*
G36*
X168915369Y-75852971D02*
G01*
X169077195Y-75920002D01*
X169222829Y-76017311D01*
X169346689Y-76141171D01*
X169443998Y-76286805D01*
X169511029Y-76448631D01*
X169545200Y-76620420D01*
X169545200Y-76795580D01*
X169511029Y-76967369D01*
X169443998Y-77129195D01*
X169346689Y-77274829D01*
X169222829Y-77398689D01*
X169077195Y-77495998D01*
X168915369Y-77563029D01*
X168743580Y-77597200D01*
X168568420Y-77597200D01*
X168396631Y-77563029D01*
X168234805Y-77495998D01*
X168089171Y-77398689D01*
X167965311Y-77274829D01*
X167868002Y-77129195D01*
X167800971Y-76967369D01*
X167766800Y-76795580D01*
X167766800Y-76620420D01*
X167800971Y-76448631D01*
X167868002Y-76286805D01*
X167965311Y-76141171D01*
X168089171Y-76017311D01*
X168234805Y-75920002D01*
X168396631Y-75852971D01*
X168568420Y-75818800D01*
X168743580Y-75818800D01*
X168915369Y-75852971D01*
X168915369Y-75852971D01*
G37*
G36*
X173995369Y-75852971D02*
G01*
X174157195Y-75920002D01*
X174302829Y-76017311D01*
X174426689Y-76141171D01*
X174523998Y-76286805D01*
X174591029Y-76448631D01*
X174625200Y-76620420D01*
X174625200Y-76795580D01*
X174591029Y-76967369D01*
X174523998Y-77129195D01*
X174426689Y-77274829D01*
X174302829Y-77398689D01*
X174157195Y-77495998D01*
X173995369Y-77563029D01*
X173823580Y-77597200D01*
X173648420Y-77597200D01*
X173476631Y-77563029D01*
X173314805Y-77495998D01*
X173169171Y-77398689D01*
X173045311Y-77274829D01*
X172948002Y-77129195D01*
X172880971Y-76967369D01*
X172846800Y-76795580D01*
X172846800Y-76620420D01*
X172880971Y-76448631D01*
X172948002Y-76286805D01*
X173045311Y-76141171D01*
X173169171Y-76017311D01*
X173314805Y-75920002D01*
X173476631Y-75852971D01*
X173648420Y-75818800D01*
X173823580Y-75818800D01*
X173995369Y-75852971D01*
X173995369Y-75852971D01*
G37*
G36*
X165266823Y-75869313D02*
G01*
X165427242Y-75917976D01*
X165552392Y-75984870D01*
X165575078Y-75996996D01*
X165704659Y-76103341D01*
X165811004Y-76232922D01*
X165811005Y-76232924D01*
X165890024Y-76380758D01*
X165938687Y-76541177D01*
X165955117Y-76708000D01*
X165938687Y-76874823D01*
X165890024Y-77035242D01*
X165839805Y-77129195D01*
X165811004Y-77183078D01*
X165704659Y-77312659D01*
X165575078Y-77419004D01*
X165575076Y-77419005D01*
X165427242Y-77498024D01*
X165266823Y-77546687D01*
X165141804Y-77559000D01*
X165058196Y-77559000D01*
X164933177Y-77546687D01*
X164772758Y-77498024D01*
X164624924Y-77419005D01*
X164624922Y-77419004D01*
X164495341Y-77312659D01*
X164388996Y-77183078D01*
X164360195Y-77129195D01*
X164309976Y-77035242D01*
X164261313Y-76874823D01*
X164244883Y-76708000D01*
X164261313Y-76541177D01*
X164309976Y-76380758D01*
X164388995Y-76232924D01*
X164388996Y-76232922D01*
X164495341Y-76103341D01*
X164624922Y-75996996D01*
X164647608Y-75984870D01*
X164772758Y-75917976D01*
X164933177Y-75869313D01*
X165058196Y-75857000D01*
X165141804Y-75857000D01*
X165266823Y-75869313D01*
X165266823Y-75869313D01*
G37*
G36*
X161710823Y-75869313D02*
G01*
X161871242Y-75917976D01*
X161996392Y-75984870D01*
X162019078Y-75996996D01*
X162148659Y-76103341D01*
X162255004Y-76232922D01*
X162255005Y-76232924D01*
X162334024Y-76380758D01*
X162382687Y-76541177D01*
X162399117Y-76708000D01*
X162382687Y-76874823D01*
X162334024Y-77035242D01*
X162283805Y-77129195D01*
X162255004Y-77183078D01*
X162148659Y-77312659D01*
X162019078Y-77419004D01*
X162019076Y-77419005D01*
X161871242Y-77498024D01*
X161710823Y-77546687D01*
X161585804Y-77559000D01*
X161502196Y-77559000D01*
X161377177Y-77546687D01*
X161216758Y-77498024D01*
X161068924Y-77419005D01*
X161068922Y-77419004D01*
X160939341Y-77312659D01*
X160832996Y-77183078D01*
X160804195Y-77129195D01*
X160753976Y-77035242D01*
X160705313Y-76874823D01*
X160688883Y-76708000D01*
X160705313Y-76541177D01*
X160753976Y-76380758D01*
X160832995Y-76232924D01*
X160832996Y-76232922D01*
X160939341Y-76103341D01*
X161068922Y-75996996D01*
X161091608Y-75984870D01*
X161216758Y-75917976D01*
X161377177Y-75869313D01*
X161502196Y-75857000D01*
X161585804Y-75857000D01*
X161710823Y-75869313D01*
X161710823Y-75869313D01*
G37*
G36*
X124170637Y-75923358D02*
G01*
X124244890Y-75954115D01*
X124319141Y-75984870D01*
X124352553Y-76007195D01*
X124452787Y-76074169D01*
X124566451Y-76187833D01*
X124632581Y-76286805D01*
X124655750Y-76321479D01*
X124680304Y-76380758D01*
X124717262Y-76469983D01*
X124748620Y-76627630D01*
X124748620Y-76788370D01*
X124717262Y-76946017D01*
X124708417Y-76967370D01*
X124655750Y-77094521D01*
X124655749Y-77094522D01*
X124566451Y-77228167D01*
X124452787Y-77341831D01*
X124367697Y-77398686D01*
X124319141Y-77431130D01*
X124244890Y-77461885D01*
X124170637Y-77492642D01*
X124012990Y-77524000D01*
X123852250Y-77524000D01*
X123694603Y-77492642D01*
X123620350Y-77461885D01*
X123546099Y-77431130D01*
X123497543Y-77398686D01*
X123412453Y-77341831D01*
X123298789Y-77228167D01*
X123209491Y-77094522D01*
X123209490Y-77094521D01*
X123156823Y-76967370D01*
X123147978Y-76946017D01*
X123116620Y-76788370D01*
X123116620Y-76627630D01*
X123147978Y-76469983D01*
X123184936Y-76380758D01*
X123209490Y-76321479D01*
X123232659Y-76286805D01*
X123298789Y-76187833D01*
X123412453Y-76074169D01*
X123512687Y-76007196D01*
X123546099Y-75984870D01*
X123620350Y-75954115D01*
X123694603Y-75923358D01*
X123852250Y-75892000D01*
X124012990Y-75892000D01*
X124170637Y-75923358D01*
X124170637Y-75923358D01*
G37*
G36*
X126710637Y-75923358D02*
G01*
X126784890Y-75954115D01*
X126859141Y-75984870D01*
X126892553Y-76007195D01*
X126992787Y-76074169D01*
X127106451Y-76187833D01*
X127172581Y-76286805D01*
X127195750Y-76321479D01*
X127220304Y-76380758D01*
X127257262Y-76469983D01*
X127288620Y-76627630D01*
X127288620Y-76788370D01*
X127257262Y-76946017D01*
X127248417Y-76967370D01*
X127195750Y-77094521D01*
X127195749Y-77094522D01*
X127106451Y-77228167D01*
X126992787Y-77341831D01*
X126907697Y-77398686D01*
X126859141Y-77431130D01*
X126784890Y-77461885D01*
X126710637Y-77492642D01*
X126552990Y-77524000D01*
X126392250Y-77524000D01*
X126234603Y-77492642D01*
X126160350Y-77461885D01*
X126086099Y-77431130D01*
X126037543Y-77398686D01*
X125952453Y-77341831D01*
X125838789Y-77228167D01*
X125749491Y-77094522D01*
X125749490Y-77094521D01*
X125696823Y-76967370D01*
X125687978Y-76946017D01*
X125656620Y-76788370D01*
X125656620Y-76627630D01*
X125687978Y-76469983D01*
X125724936Y-76380758D01*
X125749490Y-76321479D01*
X125772659Y-76286805D01*
X125838789Y-76187833D01*
X125952453Y-76074169D01*
X126052687Y-76007196D01*
X126086099Y-75984870D01*
X126160350Y-75954115D01*
X126234603Y-75923358D01*
X126392250Y-75892000D01*
X126552990Y-75892000D01*
X126710637Y-75923358D01*
X126710637Y-75923358D01*
G37*
G36*
X129250637Y-75923358D02*
G01*
X129324890Y-75954115D01*
X129399141Y-75984870D01*
X129432553Y-76007195D01*
X129532787Y-76074169D01*
X129646451Y-76187833D01*
X129712581Y-76286805D01*
X129735750Y-76321479D01*
X129760304Y-76380758D01*
X129797262Y-76469983D01*
X129828620Y-76627630D01*
X129828620Y-76788370D01*
X129797262Y-76946017D01*
X129788417Y-76967370D01*
X129735750Y-77094521D01*
X129735749Y-77094522D01*
X129646451Y-77228167D01*
X129532787Y-77341831D01*
X129447697Y-77398686D01*
X129399141Y-77431130D01*
X129324890Y-77461885D01*
X129250637Y-77492642D01*
X129092990Y-77524000D01*
X128932250Y-77524000D01*
X128774603Y-77492642D01*
X128700350Y-77461885D01*
X128626099Y-77431130D01*
X128577543Y-77398686D01*
X128492453Y-77341831D01*
X128378789Y-77228167D01*
X128289491Y-77094522D01*
X128289490Y-77094521D01*
X128236823Y-76967370D01*
X128227978Y-76946017D01*
X128196620Y-76788370D01*
X128196620Y-76627630D01*
X128227978Y-76469983D01*
X128264936Y-76380758D01*
X128289490Y-76321479D01*
X128312659Y-76286805D01*
X128378789Y-76187833D01*
X128492453Y-76074169D01*
X128592687Y-76007196D01*
X128626099Y-75984870D01*
X128700350Y-75954115D01*
X128774603Y-75923358D01*
X128932250Y-75892000D01*
X129092990Y-75892000D01*
X129250637Y-75923358D01*
X129250637Y-75923358D01*
G37*
G36*
X106390637Y-75923358D02*
G01*
X106464890Y-75954115D01*
X106539141Y-75984870D01*
X106572553Y-76007195D01*
X106672787Y-76074169D01*
X106786451Y-76187833D01*
X106852581Y-76286805D01*
X106875750Y-76321479D01*
X106900304Y-76380758D01*
X106937262Y-76469983D01*
X106968620Y-76627630D01*
X106968620Y-76788370D01*
X106937262Y-76946017D01*
X106928417Y-76967370D01*
X106875750Y-77094521D01*
X106875749Y-77094522D01*
X106786451Y-77228167D01*
X106672787Y-77341831D01*
X106587697Y-77398686D01*
X106539141Y-77431130D01*
X106464890Y-77461885D01*
X106390637Y-77492642D01*
X106232990Y-77524000D01*
X106072250Y-77524000D01*
X105914603Y-77492642D01*
X105840350Y-77461885D01*
X105766099Y-77431130D01*
X105717543Y-77398686D01*
X105632453Y-77341831D01*
X105518789Y-77228167D01*
X105429491Y-77094522D01*
X105429490Y-77094521D01*
X105376823Y-76967370D01*
X105367978Y-76946017D01*
X105336620Y-76788370D01*
X105336620Y-76627630D01*
X105367978Y-76469983D01*
X105404936Y-76380758D01*
X105429490Y-76321479D01*
X105452659Y-76286805D01*
X105518789Y-76187833D01*
X105632453Y-76074169D01*
X105732687Y-76007196D01*
X105766099Y-75984870D01*
X105840350Y-75954115D01*
X105914603Y-75923358D01*
X106072250Y-75892000D01*
X106232990Y-75892000D01*
X106390637Y-75923358D01*
X106390637Y-75923358D01*
G37*
G36*
X103850637Y-75923358D02*
G01*
X103924890Y-75954115D01*
X103999141Y-75984870D01*
X104032553Y-76007195D01*
X104132787Y-76074169D01*
X104246451Y-76187833D01*
X104312581Y-76286805D01*
X104335750Y-76321479D01*
X104360304Y-76380758D01*
X104397262Y-76469983D01*
X104428620Y-76627630D01*
X104428620Y-76788370D01*
X104397262Y-76946017D01*
X104388417Y-76967370D01*
X104335750Y-77094521D01*
X104335749Y-77094522D01*
X104246451Y-77228167D01*
X104132787Y-77341831D01*
X104047697Y-77398686D01*
X103999141Y-77431130D01*
X103924890Y-77461885D01*
X103850637Y-77492642D01*
X103692990Y-77524000D01*
X103532250Y-77524000D01*
X103374603Y-77492642D01*
X103300350Y-77461885D01*
X103226099Y-77431130D01*
X103177543Y-77398686D01*
X103092453Y-77341831D01*
X102978789Y-77228167D01*
X102889491Y-77094522D01*
X102889490Y-77094521D01*
X102836823Y-76967370D01*
X102827978Y-76946017D01*
X102796620Y-76788370D01*
X102796620Y-76627630D01*
X102827978Y-76469983D01*
X102864936Y-76380758D01*
X102889490Y-76321479D01*
X102912659Y-76286805D01*
X102978789Y-76187833D01*
X103092453Y-76074169D01*
X103192687Y-76007196D01*
X103226099Y-75984870D01*
X103300350Y-75954115D01*
X103374603Y-75923358D01*
X103532250Y-75892000D01*
X103692990Y-75892000D01*
X103850637Y-75923358D01*
X103850637Y-75923358D01*
G37*
G36*
X101310637Y-75923358D02*
G01*
X101384890Y-75954115D01*
X101459141Y-75984870D01*
X101492553Y-76007195D01*
X101592787Y-76074169D01*
X101706451Y-76187833D01*
X101772581Y-76286805D01*
X101795750Y-76321479D01*
X101820304Y-76380758D01*
X101857262Y-76469983D01*
X101888620Y-76627630D01*
X101888620Y-76788370D01*
X101857262Y-76946017D01*
X101848417Y-76967370D01*
X101795750Y-77094521D01*
X101795749Y-77094522D01*
X101706451Y-77228167D01*
X101592787Y-77341831D01*
X101507697Y-77398686D01*
X101459141Y-77431130D01*
X101384890Y-77461885D01*
X101310637Y-77492642D01*
X101152990Y-77524000D01*
X100992250Y-77524000D01*
X100834603Y-77492642D01*
X100760350Y-77461885D01*
X100686099Y-77431130D01*
X100637543Y-77398686D01*
X100552453Y-77341831D01*
X100438789Y-77228167D01*
X100349491Y-77094522D01*
X100349490Y-77094521D01*
X100296823Y-76967370D01*
X100287978Y-76946017D01*
X100256620Y-76788370D01*
X100256620Y-76627630D01*
X100287978Y-76469983D01*
X100324936Y-76380758D01*
X100349490Y-76321479D01*
X100372659Y-76286805D01*
X100438789Y-76187833D01*
X100552453Y-76074169D01*
X100652687Y-76007196D01*
X100686099Y-75984870D01*
X100760350Y-75954115D01*
X100834603Y-75923358D01*
X100992250Y-75892000D01*
X101152990Y-75892000D01*
X101310637Y-75923358D01*
X101310637Y-75923358D01*
G37*
G36*
X98770637Y-75923358D02*
G01*
X98844890Y-75954115D01*
X98919141Y-75984870D01*
X98952553Y-76007195D01*
X99052787Y-76074169D01*
X99166451Y-76187833D01*
X99232581Y-76286805D01*
X99255750Y-76321479D01*
X99280304Y-76380758D01*
X99317262Y-76469983D01*
X99348620Y-76627630D01*
X99348620Y-76788370D01*
X99317262Y-76946017D01*
X99308417Y-76967370D01*
X99255750Y-77094521D01*
X99255749Y-77094522D01*
X99166451Y-77228167D01*
X99052787Y-77341831D01*
X98967697Y-77398686D01*
X98919141Y-77431130D01*
X98844890Y-77461885D01*
X98770637Y-77492642D01*
X98612990Y-77524000D01*
X98452250Y-77524000D01*
X98294603Y-77492642D01*
X98220350Y-77461885D01*
X98146099Y-77431130D01*
X98097543Y-77398686D01*
X98012453Y-77341831D01*
X97898789Y-77228167D01*
X97809491Y-77094522D01*
X97809490Y-77094521D01*
X97756823Y-76967370D01*
X97747978Y-76946017D01*
X97716620Y-76788370D01*
X97716620Y-76627630D01*
X97747978Y-76469983D01*
X97784936Y-76380758D01*
X97809490Y-76321479D01*
X97832659Y-76286805D01*
X97898789Y-76187833D01*
X98012453Y-76074169D01*
X98112687Y-76007196D01*
X98146099Y-75984870D01*
X98220350Y-75954115D01*
X98294603Y-75923358D01*
X98452250Y-75892000D01*
X98612990Y-75892000D01*
X98770637Y-75923358D01*
X98770637Y-75923358D01*
G37*
G36*
X96230637Y-75923358D02*
G01*
X96304890Y-75954115D01*
X96379141Y-75984870D01*
X96412553Y-76007195D01*
X96512787Y-76074169D01*
X96626451Y-76187833D01*
X96692581Y-76286805D01*
X96715750Y-76321479D01*
X96740304Y-76380758D01*
X96777262Y-76469983D01*
X96808620Y-76627630D01*
X96808620Y-76788370D01*
X96777262Y-76946017D01*
X96768417Y-76967370D01*
X96715750Y-77094521D01*
X96715749Y-77094522D01*
X96626451Y-77228167D01*
X96512787Y-77341831D01*
X96427697Y-77398686D01*
X96379141Y-77431130D01*
X96304890Y-77461885D01*
X96230637Y-77492642D01*
X96072990Y-77524000D01*
X95912250Y-77524000D01*
X95754603Y-77492642D01*
X95680350Y-77461885D01*
X95606099Y-77431130D01*
X95557543Y-77398686D01*
X95472453Y-77341831D01*
X95358789Y-77228167D01*
X95269491Y-77094522D01*
X95269490Y-77094521D01*
X95216823Y-76967370D01*
X95207978Y-76946017D01*
X95176620Y-76788370D01*
X95176620Y-76627630D01*
X95207978Y-76469983D01*
X95244936Y-76380758D01*
X95269490Y-76321479D01*
X95292659Y-76286805D01*
X95358789Y-76187833D01*
X95472453Y-76074169D01*
X95572687Y-76007196D01*
X95606099Y-75984870D01*
X95680350Y-75954115D01*
X95754603Y-75923358D01*
X95912250Y-75892000D01*
X96072990Y-75892000D01*
X96230637Y-75923358D01*
X96230637Y-75923358D01*
G37*
G36*
X108930637Y-75923358D02*
G01*
X109004890Y-75954115D01*
X109079141Y-75984870D01*
X109112553Y-76007195D01*
X109212787Y-76074169D01*
X109326451Y-76187833D01*
X109392581Y-76286805D01*
X109415750Y-76321479D01*
X109440304Y-76380758D01*
X109477262Y-76469983D01*
X109508620Y-76627630D01*
X109508620Y-76788370D01*
X109477262Y-76946017D01*
X109468417Y-76967370D01*
X109415750Y-77094521D01*
X109415749Y-77094522D01*
X109326451Y-77228167D01*
X109212787Y-77341831D01*
X109127697Y-77398686D01*
X109079141Y-77431130D01*
X109004890Y-77461885D01*
X108930637Y-77492642D01*
X108772990Y-77524000D01*
X108612250Y-77524000D01*
X108454603Y-77492642D01*
X108380350Y-77461885D01*
X108306099Y-77431130D01*
X108257543Y-77398686D01*
X108172453Y-77341831D01*
X108058789Y-77228167D01*
X107969491Y-77094522D01*
X107969490Y-77094521D01*
X107916823Y-76967370D01*
X107907978Y-76946017D01*
X107876620Y-76788370D01*
X107876620Y-76627630D01*
X107907978Y-76469983D01*
X107944936Y-76380758D01*
X107969490Y-76321479D01*
X107992659Y-76286805D01*
X108058789Y-76187833D01*
X108172453Y-76074169D01*
X108272687Y-76007196D01*
X108306099Y-75984870D01*
X108380350Y-75954115D01*
X108454603Y-75923358D01*
X108612250Y-75892000D01*
X108772990Y-75892000D01*
X108930637Y-75923358D01*
X108930637Y-75923358D01*
G37*
G36*
X111470637Y-75923358D02*
G01*
X111544890Y-75954115D01*
X111619141Y-75984870D01*
X111652553Y-76007195D01*
X111752787Y-76074169D01*
X111866451Y-76187833D01*
X111932581Y-76286805D01*
X111955750Y-76321479D01*
X111980304Y-76380758D01*
X112017262Y-76469983D01*
X112048620Y-76627630D01*
X112048620Y-76788370D01*
X112017262Y-76946017D01*
X112008417Y-76967370D01*
X111955750Y-77094521D01*
X111955749Y-77094522D01*
X111866451Y-77228167D01*
X111752787Y-77341831D01*
X111667697Y-77398686D01*
X111619141Y-77431130D01*
X111544890Y-77461885D01*
X111470637Y-77492642D01*
X111312990Y-77524000D01*
X111152250Y-77524000D01*
X110994603Y-77492642D01*
X110920350Y-77461885D01*
X110846099Y-77431130D01*
X110797543Y-77398686D01*
X110712453Y-77341831D01*
X110598789Y-77228167D01*
X110509491Y-77094522D01*
X110509490Y-77094521D01*
X110456823Y-76967370D01*
X110447978Y-76946017D01*
X110416620Y-76788370D01*
X110416620Y-76627630D01*
X110447978Y-76469983D01*
X110484936Y-76380758D01*
X110509490Y-76321479D01*
X110532659Y-76286805D01*
X110598789Y-76187833D01*
X110712453Y-76074169D01*
X110812687Y-76007196D01*
X110846099Y-75984870D01*
X110920350Y-75954115D01*
X110994603Y-75923358D01*
X111152250Y-75892000D01*
X111312990Y-75892000D01*
X111470637Y-75923358D01*
X111470637Y-75923358D01*
G37*
G36*
X114010637Y-75923358D02*
G01*
X114084890Y-75954115D01*
X114159141Y-75984870D01*
X114192553Y-76007195D01*
X114292787Y-76074169D01*
X114406451Y-76187833D01*
X114472581Y-76286805D01*
X114495750Y-76321479D01*
X114520304Y-76380758D01*
X114557262Y-76469983D01*
X114588620Y-76627630D01*
X114588620Y-76788370D01*
X114557262Y-76946017D01*
X114548417Y-76967370D01*
X114495750Y-77094521D01*
X114495749Y-77094522D01*
X114406451Y-77228167D01*
X114292787Y-77341831D01*
X114207697Y-77398686D01*
X114159141Y-77431130D01*
X114084890Y-77461885D01*
X114010637Y-77492642D01*
X113852990Y-77524000D01*
X113692250Y-77524000D01*
X113534603Y-77492642D01*
X113460350Y-77461885D01*
X113386099Y-77431130D01*
X113337543Y-77398686D01*
X113252453Y-77341831D01*
X113138789Y-77228167D01*
X113049491Y-77094522D01*
X113049490Y-77094521D01*
X112996823Y-76967370D01*
X112987978Y-76946017D01*
X112956620Y-76788370D01*
X112956620Y-76627630D01*
X112987978Y-76469983D01*
X113024936Y-76380758D01*
X113049490Y-76321479D01*
X113072659Y-76286805D01*
X113138789Y-76187833D01*
X113252453Y-76074169D01*
X113352687Y-76007196D01*
X113386099Y-75984870D01*
X113460350Y-75954115D01*
X113534603Y-75923358D01*
X113692250Y-75892000D01*
X113852990Y-75892000D01*
X114010637Y-75923358D01*
X114010637Y-75923358D01*
G37*
G36*
X116550637Y-75923358D02*
G01*
X116624890Y-75954115D01*
X116699141Y-75984870D01*
X116732553Y-76007195D01*
X116832787Y-76074169D01*
X116946451Y-76187833D01*
X117012581Y-76286805D01*
X117035750Y-76321479D01*
X117060304Y-76380758D01*
X117097262Y-76469983D01*
X117128620Y-76627630D01*
X117128620Y-76788370D01*
X117097262Y-76946017D01*
X117088417Y-76967370D01*
X117035750Y-77094521D01*
X117035749Y-77094522D01*
X116946451Y-77228167D01*
X116832787Y-77341831D01*
X116747697Y-77398686D01*
X116699141Y-77431130D01*
X116624890Y-77461885D01*
X116550637Y-77492642D01*
X116392990Y-77524000D01*
X116232250Y-77524000D01*
X116074603Y-77492642D01*
X116000350Y-77461885D01*
X115926099Y-77431130D01*
X115877543Y-77398686D01*
X115792453Y-77341831D01*
X115678789Y-77228167D01*
X115589491Y-77094522D01*
X115589490Y-77094521D01*
X115536823Y-76967370D01*
X115527978Y-76946017D01*
X115496620Y-76788370D01*
X115496620Y-76627630D01*
X115527978Y-76469983D01*
X115564936Y-76380758D01*
X115589490Y-76321479D01*
X115612659Y-76286805D01*
X115678789Y-76187833D01*
X115792453Y-76074169D01*
X115892687Y-76007196D01*
X115926099Y-75984870D01*
X116000350Y-75954115D01*
X116074603Y-75923358D01*
X116232250Y-75892000D01*
X116392990Y-75892000D01*
X116550637Y-75923358D01*
X116550637Y-75923358D01*
G37*
G36*
X119090637Y-75923358D02*
G01*
X119164890Y-75954115D01*
X119239141Y-75984870D01*
X119272553Y-76007195D01*
X119372787Y-76074169D01*
X119486451Y-76187833D01*
X119552581Y-76286805D01*
X119575750Y-76321479D01*
X119600304Y-76380758D01*
X119637262Y-76469983D01*
X119668620Y-76627630D01*
X119668620Y-76788370D01*
X119637262Y-76946017D01*
X119628417Y-76967370D01*
X119575750Y-77094521D01*
X119575749Y-77094522D01*
X119486451Y-77228167D01*
X119372787Y-77341831D01*
X119287697Y-77398686D01*
X119239141Y-77431130D01*
X119164890Y-77461885D01*
X119090637Y-77492642D01*
X118932990Y-77524000D01*
X118772250Y-77524000D01*
X118614603Y-77492642D01*
X118540350Y-77461885D01*
X118466099Y-77431130D01*
X118417543Y-77398686D01*
X118332453Y-77341831D01*
X118218789Y-77228167D01*
X118129491Y-77094522D01*
X118129490Y-77094521D01*
X118076823Y-76967370D01*
X118067978Y-76946017D01*
X118036620Y-76788370D01*
X118036620Y-76627630D01*
X118067978Y-76469983D01*
X118104936Y-76380758D01*
X118129490Y-76321479D01*
X118152659Y-76286805D01*
X118218789Y-76187833D01*
X118332453Y-76074169D01*
X118432687Y-76007196D01*
X118466099Y-75984870D01*
X118540350Y-75954115D01*
X118614603Y-75923358D01*
X118772250Y-75892000D01*
X118932990Y-75892000D01*
X119090637Y-75923358D01*
X119090637Y-75923358D01*
G37*
G36*
X121630637Y-75923358D02*
G01*
X121704890Y-75954115D01*
X121779141Y-75984870D01*
X121812553Y-76007195D01*
X121912787Y-76074169D01*
X122026451Y-76187833D01*
X122092581Y-76286805D01*
X122115750Y-76321479D01*
X122140304Y-76380758D01*
X122177262Y-76469983D01*
X122208620Y-76627630D01*
X122208620Y-76788370D01*
X122177262Y-76946017D01*
X122168417Y-76967370D01*
X122115750Y-77094521D01*
X122115749Y-77094522D01*
X122026451Y-77228167D01*
X121912787Y-77341831D01*
X121827697Y-77398686D01*
X121779141Y-77431130D01*
X121704890Y-77461885D01*
X121630637Y-77492642D01*
X121472990Y-77524000D01*
X121312250Y-77524000D01*
X121154603Y-77492642D01*
X121080350Y-77461885D01*
X121006099Y-77431130D01*
X120957543Y-77398686D01*
X120872453Y-77341831D01*
X120758789Y-77228167D01*
X120669491Y-77094522D01*
X120669490Y-77094521D01*
X120616823Y-76967370D01*
X120607978Y-76946017D01*
X120576620Y-76788370D01*
X120576620Y-76627630D01*
X120607978Y-76469983D01*
X120644936Y-76380758D01*
X120669490Y-76321479D01*
X120692659Y-76286805D01*
X120758789Y-76187833D01*
X120872453Y-76074169D01*
X120972687Y-76007196D01*
X121006099Y-75984870D01*
X121080350Y-75954115D01*
X121154603Y-75923358D01*
X121312250Y-75892000D01*
X121472990Y-75892000D01*
X121630637Y-75923358D01*
X121630637Y-75923358D01*
G37*
G36*
X134330637Y-75923358D02*
G01*
X134404890Y-75954115D01*
X134479141Y-75984870D01*
X134512553Y-76007195D01*
X134612787Y-76074169D01*
X134726451Y-76187833D01*
X134792581Y-76286805D01*
X134815750Y-76321479D01*
X134840304Y-76380758D01*
X134877262Y-76469983D01*
X134908620Y-76627630D01*
X134908620Y-76788370D01*
X134877262Y-76946017D01*
X134868417Y-76967370D01*
X134815750Y-77094521D01*
X134815749Y-77094522D01*
X134726451Y-77228167D01*
X134612787Y-77341831D01*
X134527697Y-77398686D01*
X134479141Y-77431130D01*
X134404890Y-77461885D01*
X134330637Y-77492642D01*
X134172990Y-77524000D01*
X134012250Y-77524000D01*
X133854603Y-77492642D01*
X133780350Y-77461885D01*
X133706099Y-77431130D01*
X133657543Y-77398686D01*
X133572453Y-77341831D01*
X133458789Y-77228167D01*
X133369491Y-77094522D01*
X133369490Y-77094521D01*
X133316823Y-76967370D01*
X133307978Y-76946017D01*
X133276620Y-76788370D01*
X133276620Y-76627630D01*
X133307978Y-76469983D01*
X133344936Y-76380758D01*
X133369490Y-76321479D01*
X133392659Y-76286805D01*
X133458789Y-76187833D01*
X133572453Y-76074169D01*
X133672687Y-76007196D01*
X133706099Y-75984870D01*
X133780350Y-75954115D01*
X133854603Y-75923358D01*
X134012250Y-75892000D01*
X134172990Y-75892000D01*
X134330637Y-75923358D01*
X134330637Y-75923358D01*
G37*
G36*
X131790637Y-75923358D02*
G01*
X131864890Y-75954115D01*
X131939141Y-75984870D01*
X131972553Y-76007195D01*
X132072787Y-76074169D01*
X132186451Y-76187833D01*
X132252581Y-76286805D01*
X132275750Y-76321479D01*
X132300304Y-76380758D01*
X132337262Y-76469983D01*
X132368620Y-76627630D01*
X132368620Y-76788370D01*
X132337262Y-76946017D01*
X132328417Y-76967370D01*
X132275750Y-77094521D01*
X132275749Y-77094522D01*
X132186451Y-77228167D01*
X132072787Y-77341831D01*
X131987697Y-77398686D01*
X131939141Y-77431130D01*
X131864890Y-77461885D01*
X131790637Y-77492642D01*
X131632990Y-77524000D01*
X131472250Y-77524000D01*
X131314603Y-77492642D01*
X131240350Y-77461885D01*
X131166099Y-77431130D01*
X131117543Y-77398686D01*
X131032453Y-77341831D01*
X130918789Y-77228167D01*
X130829491Y-77094522D01*
X130829490Y-77094521D01*
X130776823Y-76967370D01*
X130767978Y-76946017D01*
X130736620Y-76788370D01*
X130736620Y-76627630D01*
X130767978Y-76469983D01*
X130804936Y-76380758D01*
X130829490Y-76321479D01*
X130852659Y-76286805D01*
X130918789Y-76187833D01*
X131032453Y-76074169D01*
X131132687Y-76007196D01*
X131166099Y-75984870D01*
X131240350Y-75954115D01*
X131314603Y-75923358D01*
X131472250Y-75892000D01*
X131632990Y-75892000D01*
X131790637Y-75923358D01*
X131790637Y-75923358D01*
G37*
G36*
X75910637Y-75923358D02*
G01*
X75984890Y-75954115D01*
X76059141Y-75984870D01*
X76092553Y-76007195D01*
X76192787Y-76074169D01*
X76306451Y-76187833D01*
X76372581Y-76286805D01*
X76395750Y-76321479D01*
X76420304Y-76380758D01*
X76457262Y-76469983D01*
X76488620Y-76627630D01*
X76488620Y-76788370D01*
X76457262Y-76946017D01*
X76448417Y-76967370D01*
X76395750Y-77094521D01*
X76395749Y-77094522D01*
X76306451Y-77228167D01*
X76192787Y-77341831D01*
X76107697Y-77398686D01*
X76059141Y-77431130D01*
X75984890Y-77461885D01*
X75910637Y-77492642D01*
X75752990Y-77524000D01*
X75592250Y-77524000D01*
X75434603Y-77492642D01*
X75360350Y-77461885D01*
X75286099Y-77431130D01*
X75237543Y-77398686D01*
X75152453Y-77341831D01*
X75038789Y-77228167D01*
X74949491Y-77094522D01*
X74949490Y-77094521D01*
X74896823Y-76967370D01*
X74887978Y-76946017D01*
X74856620Y-76788370D01*
X74856620Y-76627630D01*
X74887978Y-76469983D01*
X74924936Y-76380758D01*
X74949490Y-76321479D01*
X74972659Y-76286805D01*
X75038789Y-76187833D01*
X75152453Y-76074169D01*
X75252687Y-76007196D01*
X75286099Y-75984870D01*
X75360350Y-75954115D01*
X75434603Y-75923358D01*
X75592250Y-75892000D01*
X75752990Y-75892000D01*
X75910637Y-75923358D01*
X75910637Y-75923358D01*
G37*
G36*
X78450637Y-75923358D02*
G01*
X78524890Y-75954115D01*
X78599141Y-75984870D01*
X78632553Y-76007195D01*
X78732787Y-76074169D01*
X78846451Y-76187833D01*
X78912581Y-76286805D01*
X78935750Y-76321479D01*
X78960304Y-76380758D01*
X78997262Y-76469983D01*
X79028620Y-76627630D01*
X79028620Y-76788370D01*
X78997262Y-76946017D01*
X78988417Y-76967370D01*
X78935750Y-77094521D01*
X78935749Y-77094522D01*
X78846451Y-77228167D01*
X78732787Y-77341831D01*
X78647697Y-77398686D01*
X78599141Y-77431130D01*
X78524890Y-77461885D01*
X78450637Y-77492642D01*
X78292990Y-77524000D01*
X78132250Y-77524000D01*
X77974603Y-77492642D01*
X77900350Y-77461885D01*
X77826099Y-77431130D01*
X77777543Y-77398686D01*
X77692453Y-77341831D01*
X77578789Y-77228167D01*
X77489491Y-77094522D01*
X77489490Y-77094521D01*
X77436823Y-76967370D01*
X77427978Y-76946017D01*
X77396620Y-76788370D01*
X77396620Y-76627630D01*
X77427978Y-76469983D01*
X77464936Y-76380758D01*
X77489490Y-76321479D01*
X77512659Y-76286805D01*
X77578789Y-76187833D01*
X77692453Y-76074169D01*
X77792687Y-76007196D01*
X77826099Y-75984870D01*
X77900350Y-75954115D01*
X77974603Y-75923358D01*
X78132250Y-75892000D01*
X78292990Y-75892000D01*
X78450637Y-75923358D01*
X78450637Y-75923358D01*
G37*
G36*
X80990637Y-75923358D02*
G01*
X81064890Y-75954115D01*
X81139141Y-75984870D01*
X81172553Y-76007195D01*
X81272787Y-76074169D01*
X81386451Y-76187833D01*
X81452581Y-76286805D01*
X81475750Y-76321479D01*
X81500304Y-76380758D01*
X81537262Y-76469983D01*
X81568620Y-76627630D01*
X81568620Y-76788370D01*
X81537262Y-76946017D01*
X81528417Y-76967370D01*
X81475750Y-77094521D01*
X81475749Y-77094522D01*
X81386451Y-77228167D01*
X81272787Y-77341831D01*
X81187697Y-77398686D01*
X81139141Y-77431130D01*
X81064890Y-77461885D01*
X80990637Y-77492642D01*
X80832990Y-77524000D01*
X80672250Y-77524000D01*
X80514603Y-77492642D01*
X80440350Y-77461885D01*
X80366099Y-77431130D01*
X80317543Y-77398686D01*
X80232453Y-77341831D01*
X80118789Y-77228167D01*
X80029491Y-77094522D01*
X80029490Y-77094521D01*
X79976823Y-76967370D01*
X79967978Y-76946017D01*
X79936620Y-76788370D01*
X79936620Y-76627630D01*
X79967978Y-76469983D01*
X80004936Y-76380758D01*
X80029490Y-76321479D01*
X80052659Y-76286805D01*
X80118789Y-76187833D01*
X80232453Y-76074169D01*
X80332687Y-76007196D01*
X80366099Y-75984870D01*
X80440350Y-75954115D01*
X80514603Y-75923358D01*
X80672250Y-75892000D01*
X80832990Y-75892000D01*
X80990637Y-75923358D01*
X80990637Y-75923358D01*
G37*
G36*
X83530637Y-75923358D02*
G01*
X83604890Y-75954115D01*
X83679141Y-75984870D01*
X83712553Y-76007195D01*
X83812787Y-76074169D01*
X83926451Y-76187833D01*
X83992581Y-76286805D01*
X84015750Y-76321479D01*
X84040304Y-76380758D01*
X84077262Y-76469983D01*
X84108620Y-76627630D01*
X84108620Y-76788370D01*
X84077262Y-76946017D01*
X84068417Y-76967370D01*
X84015750Y-77094521D01*
X84015749Y-77094522D01*
X83926451Y-77228167D01*
X83812787Y-77341831D01*
X83727697Y-77398686D01*
X83679141Y-77431130D01*
X83604890Y-77461885D01*
X83530637Y-77492642D01*
X83372990Y-77524000D01*
X83212250Y-77524000D01*
X83054603Y-77492642D01*
X82980350Y-77461885D01*
X82906099Y-77431130D01*
X82857543Y-77398686D01*
X82772453Y-77341831D01*
X82658789Y-77228167D01*
X82569491Y-77094522D01*
X82569490Y-77094521D01*
X82516823Y-76967370D01*
X82507978Y-76946017D01*
X82476620Y-76788370D01*
X82476620Y-76627630D01*
X82507978Y-76469983D01*
X82544936Y-76380758D01*
X82569490Y-76321479D01*
X82592659Y-76286805D01*
X82658789Y-76187833D01*
X82772453Y-76074169D01*
X82872687Y-76007196D01*
X82906099Y-75984870D01*
X82980350Y-75954115D01*
X83054603Y-75923358D01*
X83212250Y-75892000D01*
X83372990Y-75892000D01*
X83530637Y-75923358D01*
X83530637Y-75923358D01*
G37*
G36*
X86070637Y-75923358D02*
G01*
X86144890Y-75954115D01*
X86219141Y-75984870D01*
X86252553Y-76007195D01*
X86352787Y-76074169D01*
X86466451Y-76187833D01*
X86532581Y-76286805D01*
X86555750Y-76321479D01*
X86580304Y-76380758D01*
X86617262Y-76469983D01*
X86648620Y-76627630D01*
X86648620Y-76788370D01*
X86617262Y-76946017D01*
X86608417Y-76967370D01*
X86555750Y-77094521D01*
X86555749Y-77094522D01*
X86466451Y-77228167D01*
X86352787Y-77341831D01*
X86267697Y-77398686D01*
X86219141Y-77431130D01*
X86144890Y-77461885D01*
X86070637Y-77492642D01*
X85912990Y-77524000D01*
X85752250Y-77524000D01*
X85594603Y-77492642D01*
X85520350Y-77461885D01*
X85446099Y-77431130D01*
X85397543Y-77398686D01*
X85312453Y-77341831D01*
X85198789Y-77228167D01*
X85109491Y-77094522D01*
X85109490Y-77094521D01*
X85056823Y-76967370D01*
X85047978Y-76946017D01*
X85016620Y-76788370D01*
X85016620Y-76627630D01*
X85047978Y-76469983D01*
X85084936Y-76380758D01*
X85109490Y-76321479D01*
X85132659Y-76286805D01*
X85198789Y-76187833D01*
X85312453Y-76074169D01*
X85412687Y-76007196D01*
X85446099Y-75984870D01*
X85520350Y-75954115D01*
X85594603Y-75923358D01*
X85752250Y-75892000D01*
X85912990Y-75892000D01*
X86070637Y-75923358D01*
X86070637Y-75923358D01*
G37*
G36*
X88610637Y-75923358D02*
G01*
X88684890Y-75954115D01*
X88759141Y-75984870D01*
X88792553Y-76007195D01*
X88892787Y-76074169D01*
X89006451Y-76187833D01*
X89072581Y-76286805D01*
X89095750Y-76321479D01*
X89120304Y-76380758D01*
X89157262Y-76469983D01*
X89188620Y-76627630D01*
X89188620Y-76788370D01*
X89157262Y-76946017D01*
X89148417Y-76967370D01*
X89095750Y-77094521D01*
X89095749Y-77094522D01*
X89006451Y-77228167D01*
X88892787Y-77341831D01*
X88807697Y-77398686D01*
X88759141Y-77431130D01*
X88684890Y-77461885D01*
X88610637Y-77492642D01*
X88452990Y-77524000D01*
X88292250Y-77524000D01*
X88134603Y-77492642D01*
X88060350Y-77461885D01*
X87986099Y-77431130D01*
X87937543Y-77398686D01*
X87852453Y-77341831D01*
X87738789Y-77228167D01*
X87649491Y-77094522D01*
X87649490Y-77094521D01*
X87596823Y-76967370D01*
X87587978Y-76946017D01*
X87556620Y-76788370D01*
X87556620Y-76627630D01*
X87587978Y-76469983D01*
X87624936Y-76380758D01*
X87649490Y-76321479D01*
X87672659Y-76286805D01*
X87738789Y-76187833D01*
X87852453Y-76074169D01*
X87952687Y-76007196D01*
X87986099Y-75984870D01*
X88060350Y-75954115D01*
X88134603Y-75923358D01*
X88292250Y-75892000D01*
X88452990Y-75892000D01*
X88610637Y-75923358D01*
X88610637Y-75923358D01*
G37*
G36*
X91150637Y-75923358D02*
G01*
X91224890Y-75954115D01*
X91299141Y-75984870D01*
X91332553Y-76007195D01*
X91432787Y-76074169D01*
X91546451Y-76187833D01*
X91612581Y-76286805D01*
X91635750Y-76321479D01*
X91660304Y-76380758D01*
X91697262Y-76469983D01*
X91728620Y-76627630D01*
X91728620Y-76788370D01*
X91697262Y-76946017D01*
X91688417Y-76967370D01*
X91635750Y-77094521D01*
X91635749Y-77094522D01*
X91546451Y-77228167D01*
X91432787Y-77341831D01*
X91347697Y-77398686D01*
X91299141Y-77431130D01*
X91224890Y-77461885D01*
X91150637Y-77492642D01*
X90992990Y-77524000D01*
X90832250Y-77524000D01*
X90674603Y-77492642D01*
X90600350Y-77461885D01*
X90526099Y-77431130D01*
X90477543Y-77398686D01*
X90392453Y-77341831D01*
X90278789Y-77228167D01*
X90189491Y-77094522D01*
X90189490Y-77094521D01*
X90136823Y-76967370D01*
X90127978Y-76946017D01*
X90096620Y-76788370D01*
X90096620Y-76627630D01*
X90127978Y-76469983D01*
X90164936Y-76380758D01*
X90189490Y-76321479D01*
X90212659Y-76286805D01*
X90278789Y-76187833D01*
X90392453Y-76074169D01*
X90492687Y-76007196D01*
X90526099Y-75984870D01*
X90600350Y-75954115D01*
X90674603Y-75923358D01*
X90832250Y-75892000D01*
X90992990Y-75892000D01*
X91150637Y-75923358D01*
X91150637Y-75923358D01*
G37*
G36*
X93690637Y-75923358D02*
G01*
X93764890Y-75954115D01*
X93839141Y-75984870D01*
X93872553Y-76007195D01*
X93972787Y-76074169D01*
X94086451Y-76187833D01*
X94152581Y-76286805D01*
X94175750Y-76321479D01*
X94200304Y-76380758D01*
X94237262Y-76469983D01*
X94268620Y-76627630D01*
X94268620Y-76788370D01*
X94237262Y-76946017D01*
X94228417Y-76967370D01*
X94175750Y-77094521D01*
X94175749Y-77094522D01*
X94086451Y-77228167D01*
X93972787Y-77341831D01*
X93887697Y-77398686D01*
X93839141Y-77431130D01*
X93764890Y-77461885D01*
X93690637Y-77492642D01*
X93532990Y-77524000D01*
X93372250Y-77524000D01*
X93214603Y-77492642D01*
X93140350Y-77461885D01*
X93066099Y-77431130D01*
X93017543Y-77398686D01*
X92932453Y-77341831D01*
X92818789Y-77228167D01*
X92729491Y-77094522D01*
X92729490Y-77094521D01*
X92676823Y-76967370D01*
X92667978Y-76946017D01*
X92636620Y-76788370D01*
X92636620Y-76627630D01*
X92667978Y-76469983D01*
X92704936Y-76380758D01*
X92729490Y-76321479D01*
X92752659Y-76286805D01*
X92818789Y-76187833D01*
X92932453Y-76074169D01*
X93032687Y-76007196D01*
X93066099Y-75984870D01*
X93140350Y-75954115D01*
X93214603Y-75923358D01*
X93372250Y-75892000D01*
X93532990Y-75892000D01*
X93690637Y-75923358D01*
X93690637Y-75923358D01*
G37*
M02*
