G04 #@! TF.GenerationSoftware,KiCad,Pcbnew,(5.1.4)-1*
G04 #@! TF.CreationDate,2019-11-17T17:18:35+01:00*
G04 #@! TF.ProjectId,DNMS,444e4d53-2e6b-4696-9361-645f70636258,0.9.0*
G04 #@! TF.SameCoordinates,Original*
G04 #@! TF.FileFunction,Copper,L2,Bot*
G04 #@! TF.FilePolarity,Positive*
%FSLAX46Y46*%
G04 Gerber Fmt 4.6, Leading zero omitted, Abs format (unit mm)*
G04 Created by KiCad (PCBNEW (5.1.4)-1) date 2019-11-17 17:18:35*
%MOMM*%
%LPD*%
G04 APERTURE LIST*
%ADD10C,1.400000*%
%ADD11C,1.200000*%
%ADD12O,1.700000X1.700000*%
%ADD13R,1.700000X1.700000*%
%ADD14O,1.600000X1.600000*%
%ADD15C,1.600000*%
%ADD16C,1.530000*%
%ADD17C,1.524000*%
%ADD18R,1.676400X1.676400*%
%ADD19C,1.676400*%
%ADD20C,0.500000*%
%ADD21C,0.250000*%
G04 APERTURE END LIST*
D10*
X196772400Y-81905000D03*
X199312400Y-82925000D03*
X196772400Y-83945000D03*
X199312400Y-84965000D03*
X196772400Y-85985000D03*
X199312400Y-87005000D03*
D11*
X201612400Y-90455000D03*
X201612400Y-78455000D03*
D12*
X68783200Y-85166200D03*
X66243200Y-85166200D03*
X68783200Y-82626200D03*
X66243200Y-82626200D03*
X68783200Y-80086200D03*
D13*
X66243200Y-80086200D03*
D14*
X70771400Y-91821000D03*
D15*
X63271400Y-91821000D03*
D14*
X176257600Y-91694000D03*
D15*
X168757600Y-91694000D03*
D16*
X134092620Y-76708000D03*
X131552620Y-76708000D03*
X129012620Y-76708000D03*
X126472620Y-76708000D03*
X123932620Y-76708000D03*
X121392620Y-76708000D03*
X118852620Y-76708000D03*
X116312620Y-76708000D03*
X113772620Y-76708000D03*
X111232620Y-76708000D03*
X108692620Y-76708000D03*
X106152620Y-76708000D03*
X103612620Y-76708000D03*
X101072620Y-76708000D03*
X98532620Y-76708000D03*
X95992620Y-76708000D03*
X101072620Y-91948000D03*
X103612620Y-91948000D03*
X106152620Y-91948000D03*
X108692620Y-91948000D03*
X111232620Y-91948000D03*
X113772620Y-91948000D03*
X116312620Y-91948000D03*
X118852620Y-91948000D03*
X121392620Y-91948000D03*
X123932620Y-91948000D03*
X126472620Y-91948000D03*
X129012620Y-91948000D03*
X131552620Y-91948000D03*
X134092620Y-91948000D03*
X93452620Y-76708000D03*
X90912620Y-76708000D03*
X88372620Y-76708000D03*
X85832620Y-76708000D03*
X83292620Y-76708000D03*
X80752620Y-76708000D03*
X78212620Y-76708000D03*
X75672620Y-76708000D03*
X98532620Y-91948000D03*
X95992620Y-91948000D03*
X93452620Y-91948000D03*
X75672620Y-91948000D03*
X78212620Y-91948000D03*
X80752620Y-91948000D03*
X83292620Y-91948000D03*
X85832620Y-91948000D03*
X88372620Y-91948000D03*
X90912620Y-91948000D03*
D17*
X131552620Y-89408000D03*
D14*
X180517800Y-77437600D03*
D15*
X180517800Y-84937600D03*
D12*
X186385200Y-92202000D03*
X186385200Y-89662000D03*
X186385200Y-87122000D03*
D13*
X186385200Y-84582000D03*
D12*
X157480000Y-91948000D03*
D13*
X160020000Y-91948000D03*
D18*
X176276000Y-76708000D03*
D19*
X173736000Y-76708000D03*
X171196000Y-76708000D03*
X168656000Y-76708000D03*
X168656000Y-84328000D03*
X171196000Y-84328000D03*
X173736000Y-84328000D03*
X176276000Y-84328000D03*
D14*
X161544000Y-76708000D03*
D15*
X161544000Y-86868000D03*
D14*
X165100000Y-76708000D03*
D15*
X165100000Y-86868000D03*
D20*
X134092620Y-76708000D02*
X135616620Y-75184000D01*
X167132000Y-75184000D02*
X168656000Y-76708000D01*
X135616620Y-75184000D02*
X167132000Y-75184000D01*
X168656000Y-76708000D02*
X170302990Y-75061010D01*
D21*
X87864620Y-81280000D02*
X87963210Y-81378590D01*
D20*
X87963210Y-81378590D02*
X98532620Y-91948000D01*
D21*
X180590200Y-80010000D02*
X180517800Y-79937600D01*
D20*
X180517800Y-76462020D02*
X179116790Y-75061010D01*
X179116790Y-75061010D02*
X170302990Y-75061010D01*
X86670820Y-80086200D02*
X87963210Y-81378590D01*
X71571399Y-80219001D02*
X71704200Y-80086200D01*
X71571399Y-91021001D02*
X71571399Y-80219001D01*
X70771400Y-91821000D02*
X71571399Y-91021001D01*
X68783200Y-80086200D02*
X71704200Y-80086200D01*
X71704200Y-80086200D02*
X86670820Y-80086200D01*
X180517800Y-77437600D02*
X180517800Y-76462020D01*
X202854400Y-86954200D02*
X199287000Y-86954200D01*
X202869800Y-86969600D02*
X202854400Y-86954200D01*
X202869800Y-82905600D02*
X202869800Y-86969600D01*
X180517800Y-77437600D02*
X197401800Y-77437600D01*
X197401800Y-77437600D02*
X202869800Y-82905600D01*
X195559200Y-87122000D02*
X196747000Y-85934200D01*
X186385200Y-87122000D02*
X195559200Y-87122000D01*
X197446999Y-86634199D02*
X197446999Y-86677599D01*
X196747000Y-85934200D02*
X197446999Y-86634199D01*
X197723600Y-86954200D02*
X199287000Y-86954200D01*
X197446999Y-86677599D02*
X197723600Y-86954200D01*
X98532620Y-76708000D02*
X96885630Y-75061010D01*
D21*
X160412630Y-86868000D02*
X161544000Y-86868000D01*
D20*
X161544000Y-86868000D02*
X165100000Y-86868000D01*
X69972990Y-75061010D02*
X96885630Y-75061010D01*
X130536620Y-93472000D02*
X129012620Y-91948000D01*
X136906000Y-93472000D02*
X130536620Y-93472000D01*
X160793630Y-86868000D02*
X143510000Y-86868000D01*
X143510000Y-86868000D02*
X136906000Y-93472000D01*
X179717801Y-85737599D02*
X180517800Y-84937600D01*
X179717599Y-85737599D02*
X179717801Y-85737599D01*
X177546000Y-85725000D02*
X179578000Y-85725000D01*
X176149000Y-84328000D02*
X177419000Y-85598000D01*
X63246000Y-75057000D02*
X69947590Y-75057000D01*
X63271400Y-75135210D02*
X63246000Y-75109810D01*
X63271400Y-88315800D02*
X68122800Y-88315800D01*
X63271400Y-88315800D02*
X63271400Y-75135210D01*
X63271400Y-91821000D02*
X63271400Y-88315800D01*
X68783200Y-87655400D02*
X68783200Y-85166200D01*
X68122800Y-88315800D02*
X68783200Y-87655400D01*
X194019200Y-84582000D02*
X196747000Y-81854200D01*
X186385200Y-84582000D02*
X194019200Y-84582000D01*
X198267000Y-81854200D02*
X199287000Y-82874200D01*
X196747000Y-81854200D02*
X198267000Y-81854200D01*
D21*
X161544000Y-76708000D02*
X142748000Y-76708000D01*
X171196000Y-84328000D02*
X171196000Y-85513393D01*
X114537619Y-91183001D02*
X114556999Y-91183001D01*
X113772620Y-91948000D02*
X114537619Y-91183001D01*
X118935500Y-86804500D02*
X132651500Y-86804500D01*
X114556999Y-91183001D02*
X118935500Y-86804500D01*
X142748000Y-76708000D02*
X132651500Y-86804500D01*
X171196000Y-87376000D02*
X171196000Y-84328000D01*
X171297600Y-87477600D02*
X171196000Y-87376000D01*
X178612800Y-87477600D02*
X171297600Y-87477600D01*
X183337200Y-92202000D02*
X178612800Y-87477600D01*
X186385200Y-92202000D02*
X183337200Y-92202000D01*
X165100000Y-76708000D02*
X167640000Y-79248000D01*
X168656000Y-79248000D02*
X171196000Y-76708000D01*
X167640000Y-79248000D02*
X168656000Y-79248000D01*
X171196000Y-76708000D02*
X177977800Y-83489800D01*
X120180611Y-88080009D02*
X116312620Y-91948000D01*
X137979991Y-88080009D02*
X120180611Y-88080009D01*
X161226500Y-80581500D02*
X145478500Y-80581500D01*
X165100000Y-76708000D02*
X161226500Y-80581500D01*
X145478500Y-80581500D02*
X137979991Y-88080009D01*
X185183119Y-89662000D02*
X183235600Y-87714481D01*
X186385200Y-89662000D02*
X185183119Y-89662000D01*
X183235600Y-84658200D02*
X182067200Y-83489800D01*
X183235600Y-87714481D02*
X183235600Y-84658200D01*
X177977800Y-83489800D02*
X182067200Y-83489800D01*
M02*
