%TF.GenerationSoftware,KiCad,Pcbnew,7.0.10*%
%TF.CreationDate,2024-02-21T13:57:14+01:00*%
%TF.ProjectId,DNMS,444e4d53-2e6b-4696-9361-645f70636258,V1.6*%
%TF.SameCoordinates,Original*%
%TF.FileFunction,Drillmap*%
%TF.FilePolarity,Positive*%
%FSLAX45Y45*%
G04 Gerber Fmt 4.5, Leading zero omitted, Abs format (unit mm)*
G04 Created by KiCad (PCBNEW 7.0.10) date 2024-02-21 13:57:14*
%MOMM*%
%LPD*%
G01*
G04 APERTURE LIST*
%ADD10C,0.050000*%
%ADD11C,0.200000*%
%ADD12C,0.100000*%
%ADD13C,0.110000*%
%ADD14C,0.111760*%
%ADD15C,0.240000*%
G04 APERTURE END LIST*
D10*
X5585840Y-7479980D02*
X18696180Y-7479980D01*
X5585840Y-9400000D02*
X18696180Y-9400000D01*
X18696180Y-7479980D02*
X18696180Y-9400000D01*
X5585840Y-7479980D02*
X5585840Y-9400000D01*
D11*
D12*
X5680118Y-8348942D02*
X5720118Y-8388942D01*
X5720118Y-8348942D02*
X5680118Y-8388942D01*
X5843336Y-8483920D02*
X5883336Y-8523920D01*
X5883336Y-8483920D02*
X5843336Y-8523920D01*
X5920514Y-8344766D02*
X5960514Y-8384766D01*
X5960514Y-8344766D02*
X5920514Y-8384766D01*
X6073714Y-7816154D02*
X6113714Y-7856154D01*
X6113714Y-7816154D02*
X6073714Y-7856154D01*
X6137354Y-8244766D02*
X6177354Y-8284766D01*
X6177354Y-8244766D02*
X6137354Y-8284766D01*
X6228514Y-8544766D02*
X6268514Y-8584766D01*
X6268514Y-8544766D02*
X6228514Y-8584766D01*
X6244148Y-8371398D02*
X6284148Y-8411398D01*
X6284148Y-8371398D02*
X6244148Y-8411398D01*
X7409500Y-8557580D02*
X7449500Y-8597580D01*
X7449500Y-8557580D02*
X7409500Y-8597580D01*
X8224840Y-7881940D02*
X8264840Y-7921940D01*
X8264840Y-7881940D02*
X8224840Y-7921940D01*
X8532180Y-8765860D02*
X8572180Y-8805860D01*
X8572180Y-8765860D02*
X8532180Y-8805860D01*
X12631740Y-8120700D02*
X12671740Y-8160700D01*
X12671740Y-8120700D02*
X12631740Y-8160700D01*
X15496860Y-8006400D02*
X15536860Y-8046400D01*
X15536860Y-8006400D02*
X15496860Y-8046400D01*
X16645156Y-7971856D02*
X16685156Y-8011856D01*
X16685156Y-7971856D02*
X16645156Y-8011856D01*
X17001644Y-8248856D02*
G75*
G03*
X16925644Y-8248856I-38000J0D01*
G01*
X16925644Y-8248856D02*
G75*
G03*
X17001644Y-8248856I38000J0D01*
G01*
X17001644Y-8502856D02*
G75*
G03*
X16925644Y-8502856I-38000J0D01*
G01*
X16925644Y-8502856D02*
G75*
G03*
X17001644Y-8502856I38000J0D01*
G01*
X17001644Y-8756856D02*
G75*
G03*
X16925644Y-8756856I-38000J0D01*
G01*
X16925644Y-8756856D02*
G75*
G03*
X17001644Y-8756856I38000J0D01*
G01*
X17255644Y-8121856D02*
G75*
G03*
X17179644Y-8121856I-38000J0D01*
G01*
X17179644Y-8121856D02*
G75*
G03*
X17255644Y-8121856I38000J0D01*
G01*
X17255644Y-8375856D02*
G75*
G03*
X17179644Y-8375856I-38000J0D01*
G01*
X17179644Y-8375856D02*
G75*
G03*
X17255644Y-8375856I38000J0D01*
G01*
X17255644Y-8629856D02*
G75*
G03*
X17179644Y-8629856I-38000J0D01*
G01*
X17179644Y-8629856D02*
G75*
G03*
X17255644Y-8629856I38000J0D01*
G01*
X6229920Y-9142740D02*
X6229920Y-9222740D01*
X6189920Y-9182740D02*
X6269920Y-9182740D01*
X6354920Y-9142740D02*
X6354920Y-9222740D01*
X6314920Y-9182740D02*
X6394920Y-9182740D01*
X6854920Y-9142740D02*
X6854920Y-9222740D01*
X6814920Y-9182740D02*
X6894920Y-9182740D01*
X6979920Y-9142740D02*
X6979920Y-9222740D01*
X6939920Y-9182740D02*
X7019920Y-9182740D01*
X13985400Y-7640800D02*
X13985400Y-7720800D01*
X13945400Y-7680800D02*
X14025400Y-7680800D01*
X13985400Y-8656800D02*
X13985400Y-8736800D01*
X13945400Y-8696800D02*
X14025400Y-8696800D01*
X14341000Y-7640800D02*
X14341000Y-7720800D01*
X14301000Y-7680800D02*
X14381000Y-7680800D01*
X14341000Y-8656800D02*
X14341000Y-8736800D01*
X14301000Y-8696800D02*
X14381000Y-8696800D01*
X14841220Y-8937020D02*
X14841220Y-9017020D01*
X14801220Y-8977020D02*
X14881220Y-8977020D01*
X14966220Y-8937020D02*
X14966220Y-9017020D01*
X14926220Y-8977020D02*
X15006220Y-8977020D01*
X15466220Y-8937020D02*
X15466220Y-9017020D01*
X15426220Y-8977020D02*
X15506220Y-8977020D01*
X15591220Y-8937020D02*
X15591220Y-9017020D01*
X15551220Y-8977020D02*
X15631220Y-8977020D01*
X15892780Y-7631040D02*
X15892780Y-7711040D01*
X15852780Y-7671040D02*
X15932780Y-7671040D01*
X15892780Y-7756040D02*
X15892780Y-7836040D01*
X15852780Y-7796040D02*
X15932780Y-7796040D01*
X15892780Y-8256040D02*
X15892780Y-8336040D01*
X15852780Y-8296040D02*
X15932780Y-8296040D01*
X15892780Y-8381040D02*
X15892780Y-8461040D01*
X15852780Y-8421040D02*
X15932780Y-8421040D01*
X17868068Y-8268040D02*
X17868068Y-8204400D01*
X17804428Y-8204400D01*
X17804428Y-8268040D01*
X17868068Y-8268040D01*
X17868068Y-8472040D02*
X17868068Y-8408400D01*
X17804428Y-8408400D01*
X17804428Y-8472040D01*
X17868068Y-8472040D01*
X17868068Y-8676040D02*
X17868068Y-8612400D01*
X17804428Y-8612400D01*
X17804428Y-8676040D01*
X17868068Y-8676040D01*
X18122068Y-8370040D02*
X18122068Y-8306400D01*
X18058428Y-8306400D01*
X18058428Y-8370040D01*
X18122068Y-8370040D01*
X18122068Y-8574040D02*
X18122068Y-8510400D01*
X18058428Y-8510400D01*
X18058428Y-8574040D01*
X18122068Y-8574040D01*
X18122068Y-8778040D02*
X18122068Y-8714400D01*
X18058428Y-8714400D01*
X18058428Y-8778040D01*
X18122068Y-8778040D01*
X6680200Y-8051000D02*
X6730200Y-8001000D01*
X6680200Y-7951000D01*
X6630200Y-8001000D01*
X6680200Y-8051000D01*
X6680200Y-8305000D02*
X6730200Y-8255000D01*
X6680200Y-8205000D01*
X6630200Y-8255000D01*
X6680200Y-8305000D01*
X6680200Y-8559000D02*
X6730200Y-8509000D01*
X6680200Y-8459000D01*
X6630200Y-8509000D01*
X6680200Y-8559000D01*
X6934200Y-8051000D02*
X6984200Y-8001000D01*
X6934200Y-7951000D01*
X6884200Y-8001000D01*
X6934200Y-8051000D01*
X6934200Y-8305000D02*
X6984200Y-8255000D01*
X6934200Y-8205000D01*
X6884200Y-8255000D01*
X6934200Y-8305000D01*
X6934200Y-8559000D02*
X6984200Y-8509000D01*
X6934200Y-8459000D01*
X6884200Y-8509000D01*
X6934200Y-8559000D01*
X14023340Y-9074480D02*
X14073340Y-9024480D01*
X14023340Y-8974480D01*
X13973340Y-9024480D01*
X14023340Y-9074480D01*
X14277340Y-9074480D02*
X14327340Y-9024480D01*
X14277340Y-8974480D01*
X14227340Y-9024480D01*
X14277340Y-9074480D01*
X15902940Y-8797760D02*
X15952940Y-8747760D01*
X15902940Y-8697760D01*
X15852940Y-8747760D01*
X15902940Y-8797760D01*
X16401440Y-8224380D02*
X16451440Y-8174380D01*
X16401440Y-8124380D01*
X16351440Y-8174380D01*
X16401440Y-8224380D01*
X16401440Y-8478380D02*
X16451440Y-8428380D01*
X16401440Y-8378380D01*
X16351440Y-8428380D01*
X16401440Y-8478380D01*
X16401440Y-8732380D02*
X16451440Y-8682380D01*
X16401440Y-8632380D01*
X16351440Y-8682380D01*
X16401440Y-8732380D01*
X16401440Y-8986380D02*
X16451440Y-8936380D01*
X16401440Y-8886380D01*
X16351440Y-8936380D01*
X16401440Y-8986380D01*
D13*
X7867260Y-7625960D02*
X7977260Y-7735960D01*
X7977260Y-7625960D02*
X7867260Y-7735960D01*
X7977260Y-7680960D02*
G75*
G03*
X7867260Y-7680960I-55000J0D01*
G01*
X7867260Y-7680960D02*
G75*
G03*
X7977260Y-7680960I55000J0D01*
G01*
X7867260Y-7879960D02*
X7977260Y-7989960D01*
X7977260Y-7879960D02*
X7867260Y-7989960D01*
X7977260Y-7934960D02*
G75*
G03*
X7867260Y-7934960I-55000J0D01*
G01*
X7867260Y-7934960D02*
G75*
G03*
X7977260Y-7934960I55000J0D01*
G01*
X7867260Y-8133960D02*
X7977260Y-8243960D01*
X7977260Y-8133960D02*
X7867260Y-8243960D01*
X7977260Y-8188960D02*
G75*
G03*
X7867260Y-8188960I-55000J0D01*
G01*
X7867260Y-8188960D02*
G75*
G03*
X7977260Y-8188960I55000J0D01*
G01*
X7867260Y-8387960D02*
X7977260Y-8497960D01*
X7977260Y-8387960D02*
X7867260Y-8497960D01*
X7977260Y-8442960D02*
G75*
G03*
X7867260Y-8442960I-55000J0D01*
G01*
X7867260Y-8442960D02*
G75*
G03*
X7977260Y-8442960I55000J0D01*
G01*
X7867260Y-8641960D02*
X7977260Y-8751960D01*
X7977260Y-8641960D02*
X7867260Y-8751960D01*
X7977260Y-8696960D02*
G75*
G03*
X7867260Y-8696960I-55000J0D01*
G01*
X7867260Y-8696960D02*
G75*
G03*
X7977260Y-8696960I55000J0D01*
G01*
X7867260Y-8895960D02*
X7977260Y-9005960D01*
X7977260Y-8895960D02*
X7867260Y-9005960D01*
X7977260Y-8950960D02*
G75*
G03*
X7867260Y-8950960I-55000J0D01*
G01*
X7867260Y-8950960D02*
G75*
G03*
X7977260Y-8950960I55000J0D01*
G01*
X7867260Y-9149960D02*
X7977260Y-9259960D01*
X7977260Y-9149960D02*
X7867260Y-9259960D01*
X7977260Y-9204960D02*
G75*
G03*
X7867260Y-9204960I-55000J0D01*
G01*
X7867260Y-9204960D02*
G75*
G03*
X7977260Y-9204960I55000J0D01*
G01*
X8121260Y-7625960D02*
X8231260Y-7735960D01*
X8231260Y-7625960D02*
X8121260Y-7735960D01*
X8231260Y-7680960D02*
G75*
G03*
X8121260Y-7680960I-55000J0D01*
G01*
X8121260Y-7680960D02*
G75*
G03*
X8231260Y-7680960I55000J0D01*
G01*
X8121260Y-9149960D02*
X8231260Y-9259960D01*
X8231260Y-9149960D02*
X8121260Y-9259960D01*
X8231260Y-9204960D02*
G75*
G03*
X8121260Y-9204960I-55000J0D01*
G01*
X8121260Y-9204960D02*
G75*
G03*
X8231260Y-9204960I55000J0D01*
G01*
X8375260Y-7625960D02*
X8485260Y-7735960D01*
X8485260Y-7625960D02*
X8375260Y-7735960D01*
X8485260Y-7680960D02*
G75*
G03*
X8375260Y-7680960I-55000J0D01*
G01*
X8375260Y-7680960D02*
G75*
G03*
X8485260Y-7680960I55000J0D01*
G01*
X8375260Y-9149960D02*
X8485260Y-9259960D01*
X8485260Y-9149960D02*
X8375260Y-9259960D01*
X8485260Y-9204960D02*
G75*
G03*
X8375260Y-9204960I-55000J0D01*
G01*
X8375260Y-9204960D02*
G75*
G03*
X8485260Y-9204960I55000J0D01*
G01*
X8629260Y-7625960D02*
X8739260Y-7735960D01*
X8739260Y-7625960D02*
X8629260Y-7735960D01*
X8739260Y-7680960D02*
G75*
G03*
X8629260Y-7680960I-55000J0D01*
G01*
X8629260Y-7680960D02*
G75*
G03*
X8739260Y-7680960I55000J0D01*
G01*
X8629260Y-9149960D02*
X8739260Y-9259960D01*
X8739260Y-9149960D02*
X8629260Y-9259960D01*
X8739260Y-9204960D02*
G75*
G03*
X8629260Y-9204960I-55000J0D01*
G01*
X8629260Y-9204960D02*
G75*
G03*
X8739260Y-9204960I55000J0D01*
G01*
X8883260Y-7625960D02*
X8993260Y-7735960D01*
X8993260Y-7625960D02*
X8883260Y-7735960D01*
X8993260Y-7680960D02*
G75*
G03*
X8883260Y-7680960I-55000J0D01*
G01*
X8883260Y-7680960D02*
G75*
G03*
X8993260Y-7680960I55000J0D01*
G01*
X8883260Y-9149960D02*
X8993260Y-9259960D01*
X8993260Y-9149960D02*
X8883260Y-9259960D01*
X8993260Y-9204960D02*
G75*
G03*
X8883260Y-9204960I-55000J0D01*
G01*
X8883260Y-9204960D02*
G75*
G03*
X8993260Y-9204960I55000J0D01*
G01*
X9137260Y-7625960D02*
X9247260Y-7735960D01*
X9247260Y-7625960D02*
X9137260Y-7735960D01*
X9247260Y-7680960D02*
G75*
G03*
X9137260Y-7680960I-55000J0D01*
G01*
X9137260Y-7680960D02*
G75*
G03*
X9247260Y-7680960I55000J0D01*
G01*
X9137260Y-9149960D02*
X9247260Y-9259960D01*
X9247260Y-9149960D02*
X9137260Y-9259960D01*
X9247260Y-9204960D02*
G75*
G03*
X9137260Y-9204960I-55000J0D01*
G01*
X9137260Y-9204960D02*
G75*
G03*
X9247260Y-9204960I55000J0D01*
G01*
X9391260Y-7625960D02*
X9501260Y-7735960D01*
X9501260Y-7625960D02*
X9391260Y-7735960D01*
X9501260Y-7680960D02*
G75*
G03*
X9391260Y-7680960I-55000J0D01*
G01*
X9391260Y-7680960D02*
G75*
G03*
X9501260Y-7680960I55000J0D01*
G01*
X9391260Y-9149960D02*
X9501260Y-9259960D01*
X9501260Y-9149960D02*
X9391260Y-9259960D01*
X9501260Y-9204960D02*
G75*
G03*
X9391260Y-9204960I-55000J0D01*
G01*
X9391260Y-9204960D02*
G75*
G03*
X9501260Y-9204960I55000J0D01*
G01*
X9645260Y-7625960D02*
X9755260Y-7735960D01*
X9755260Y-7625960D02*
X9645260Y-7735960D01*
X9755260Y-7680960D02*
G75*
G03*
X9645260Y-7680960I-55000J0D01*
G01*
X9645260Y-7680960D02*
G75*
G03*
X9755260Y-7680960I55000J0D01*
G01*
X9645260Y-9149960D02*
X9755260Y-9259960D01*
X9755260Y-9149960D02*
X9645260Y-9259960D01*
X9755260Y-9204960D02*
G75*
G03*
X9645260Y-9204960I-55000J0D01*
G01*
X9645260Y-9204960D02*
G75*
G03*
X9755260Y-9204960I55000J0D01*
G01*
X9899260Y-7625960D02*
X10009260Y-7735960D01*
X10009260Y-7625960D02*
X9899260Y-7735960D01*
X10009260Y-7680960D02*
G75*
G03*
X9899260Y-7680960I-55000J0D01*
G01*
X9899260Y-7680960D02*
G75*
G03*
X10009260Y-7680960I55000J0D01*
G01*
X9899260Y-9149960D02*
X10009260Y-9259960D01*
X10009260Y-9149960D02*
X9899260Y-9259960D01*
X10009260Y-9204960D02*
G75*
G03*
X9899260Y-9204960I-55000J0D01*
G01*
X9899260Y-9204960D02*
G75*
G03*
X10009260Y-9204960I55000J0D01*
G01*
X10153260Y-7625960D02*
X10263260Y-7735960D01*
X10263260Y-7625960D02*
X10153260Y-7735960D01*
X10263260Y-7680960D02*
G75*
G03*
X10153260Y-7680960I-55000J0D01*
G01*
X10153260Y-7680960D02*
G75*
G03*
X10263260Y-7680960I55000J0D01*
G01*
X10153260Y-9149960D02*
X10263260Y-9259960D01*
X10263260Y-9149960D02*
X10153260Y-9259960D01*
X10263260Y-9204960D02*
G75*
G03*
X10153260Y-9204960I-55000J0D01*
G01*
X10153260Y-9204960D02*
G75*
G03*
X10263260Y-9204960I55000J0D01*
G01*
X10407260Y-7625960D02*
X10517260Y-7735960D01*
X10517260Y-7625960D02*
X10407260Y-7735960D01*
X10517260Y-7680960D02*
G75*
G03*
X10407260Y-7680960I-55000J0D01*
G01*
X10407260Y-7680960D02*
G75*
G03*
X10517260Y-7680960I55000J0D01*
G01*
X10407260Y-9149960D02*
X10517260Y-9259960D01*
X10517260Y-9149960D02*
X10407260Y-9259960D01*
X10517260Y-9204960D02*
G75*
G03*
X10407260Y-9204960I-55000J0D01*
G01*
X10407260Y-9204960D02*
G75*
G03*
X10517260Y-9204960I55000J0D01*
G01*
X10661260Y-7625960D02*
X10771260Y-7735960D01*
X10771260Y-7625960D02*
X10661260Y-7735960D01*
X10771260Y-7680960D02*
G75*
G03*
X10661260Y-7680960I-55000J0D01*
G01*
X10661260Y-7680960D02*
G75*
G03*
X10771260Y-7680960I55000J0D01*
G01*
X10661260Y-9149960D02*
X10771260Y-9259960D01*
X10771260Y-9149960D02*
X10661260Y-9259960D01*
X10771260Y-9204960D02*
G75*
G03*
X10661260Y-9204960I-55000J0D01*
G01*
X10661260Y-9204960D02*
G75*
G03*
X10771260Y-9204960I55000J0D01*
G01*
X10915260Y-7625960D02*
X11025260Y-7735960D01*
X11025260Y-7625960D02*
X10915260Y-7735960D01*
X11025260Y-7680960D02*
G75*
G03*
X10915260Y-7680960I-55000J0D01*
G01*
X10915260Y-7680960D02*
G75*
G03*
X11025260Y-7680960I55000J0D01*
G01*
X10915260Y-8895960D02*
X11025260Y-9005960D01*
X11025260Y-8895960D02*
X10915260Y-9005960D01*
X11025260Y-8950960D02*
G75*
G03*
X10915260Y-8950960I-55000J0D01*
G01*
X10915260Y-8950960D02*
G75*
G03*
X11025260Y-8950960I55000J0D01*
G01*
X10915260Y-9149960D02*
X11025260Y-9259960D01*
X11025260Y-9149960D02*
X10915260Y-9259960D01*
X11025260Y-9204960D02*
G75*
G03*
X10915260Y-9204960I-55000J0D01*
G01*
X10915260Y-9204960D02*
G75*
G03*
X11025260Y-9204960I55000J0D01*
G01*
X11169260Y-7625960D02*
X11279260Y-7735960D01*
X11279260Y-7625960D02*
X11169260Y-7735960D01*
X11279260Y-7680960D02*
G75*
G03*
X11169260Y-7680960I-55000J0D01*
G01*
X11169260Y-7680960D02*
G75*
G03*
X11279260Y-7680960I55000J0D01*
G01*
X11169260Y-9149960D02*
X11279260Y-9259960D01*
X11279260Y-9149960D02*
X11169260Y-9259960D01*
X11279260Y-9204960D02*
G75*
G03*
X11169260Y-9204960I-55000J0D01*
G01*
X11169260Y-9204960D02*
G75*
G03*
X11279260Y-9204960I55000J0D01*
G01*
D14*
X14640720Y-7624920D02*
X14752480Y-7736680D01*
X14752480Y-7624920D02*
X14640720Y-7736680D01*
X14696600Y-7624920D02*
X14696600Y-7736680D01*
X14640720Y-7680800D02*
X14752480Y-7680800D01*
X14640720Y-8386920D02*
X14752480Y-8498680D01*
X14752480Y-8386920D02*
X14640720Y-8498680D01*
X14696600Y-8386920D02*
X14696600Y-8498680D01*
X14640720Y-8442800D02*
X14752480Y-8442800D01*
X14894720Y-7624920D02*
X15006480Y-7736680D01*
X15006480Y-7624920D02*
X14894720Y-7736680D01*
X14950600Y-7624920D02*
X14950600Y-7736680D01*
X14894720Y-7680800D02*
X15006480Y-7680800D01*
X14894720Y-8386920D02*
X15006480Y-8498680D01*
X15006480Y-8386920D02*
X14894720Y-8498680D01*
X14950600Y-8386920D02*
X14950600Y-8498680D01*
X14894720Y-8442800D02*
X15006480Y-8442800D01*
X15148720Y-7624920D02*
X15260480Y-7736680D01*
X15260480Y-7624920D02*
X15148720Y-7736680D01*
X15204600Y-7624920D02*
X15204600Y-7736680D01*
X15148720Y-7680800D02*
X15260480Y-7680800D01*
X15148720Y-8386920D02*
X15260480Y-8498680D01*
X15260480Y-8386920D02*
X15148720Y-8498680D01*
X15204600Y-8386920D02*
X15204600Y-8498680D01*
X15148720Y-8442800D02*
X15260480Y-8442800D01*
X15402720Y-7624920D02*
X15514480Y-7736680D01*
X15514480Y-7624920D02*
X15402720Y-7736680D01*
X15458600Y-7624920D02*
X15458600Y-7736680D01*
X15402720Y-7680800D02*
X15514480Y-7680800D01*
X15402720Y-8386920D02*
X15514480Y-8498680D01*
X15514480Y-8386920D02*
X15402720Y-8498680D01*
X15458600Y-8386920D02*
X15458600Y-8498680D01*
X15402720Y-8442800D02*
X15514480Y-8442800D01*
D15*
X18200248Y-7771220D02*
X18440248Y-8011220D01*
X18440248Y-7771220D02*
X18200248Y-8011220D01*
X18405102Y-7976074D02*
X18405102Y-7806366D01*
X18235394Y-7806366D01*
X18235394Y-7976074D01*
X18405102Y-7976074D01*
X18200248Y-8971220D02*
X18440248Y-9211220D01*
X18440248Y-8971220D02*
X18200248Y-9211220D01*
X18405102Y-9176074D02*
X18405102Y-9006366D01*
X18235394Y-9006366D01*
X18235394Y-9176074D01*
X18405102Y-9176074D01*
D11*
X5844117Y-9713984D02*
X5844117Y-9513984D01*
X5844117Y-9513984D02*
X5891736Y-9513984D01*
X5891736Y-9513984D02*
X5920307Y-9523508D01*
X5920307Y-9523508D02*
X5939355Y-9542555D01*
X5939355Y-9542555D02*
X5948879Y-9561603D01*
X5948879Y-9561603D02*
X5958402Y-9599698D01*
X5958402Y-9599698D02*
X5958402Y-9628270D01*
X5958402Y-9628270D02*
X5948879Y-9666365D01*
X5948879Y-9666365D02*
X5939355Y-9685412D01*
X5939355Y-9685412D02*
X5920307Y-9704460D01*
X5920307Y-9704460D02*
X5891736Y-9713984D01*
X5891736Y-9713984D02*
X5844117Y-9713984D01*
X6044117Y-9713984D02*
X6044117Y-9580650D01*
X6044117Y-9618746D02*
X6053641Y-9599698D01*
X6053641Y-9599698D02*
X6063164Y-9590174D01*
X6063164Y-9590174D02*
X6082212Y-9580650D01*
X6082212Y-9580650D02*
X6101260Y-9580650D01*
X6167926Y-9713984D02*
X6167926Y-9580650D01*
X6167926Y-9513984D02*
X6158402Y-9523508D01*
X6158402Y-9523508D02*
X6167926Y-9533031D01*
X6167926Y-9533031D02*
X6177450Y-9523508D01*
X6177450Y-9523508D02*
X6167926Y-9513984D01*
X6167926Y-9513984D02*
X6167926Y-9533031D01*
X6291736Y-9713984D02*
X6272688Y-9704460D01*
X6272688Y-9704460D02*
X6263164Y-9685412D01*
X6263164Y-9685412D02*
X6263164Y-9513984D01*
X6396498Y-9713984D02*
X6377450Y-9704460D01*
X6377450Y-9704460D02*
X6367926Y-9685412D01*
X6367926Y-9685412D02*
X6367926Y-9513984D01*
X6625069Y-9713984D02*
X6625069Y-9513984D01*
X6625069Y-9513984D02*
X6691736Y-9656841D01*
X6691736Y-9656841D02*
X6758402Y-9513984D01*
X6758402Y-9513984D02*
X6758402Y-9713984D01*
X6939355Y-9713984D02*
X6939355Y-9609222D01*
X6939355Y-9609222D02*
X6929831Y-9590174D01*
X6929831Y-9590174D02*
X6910783Y-9580650D01*
X6910783Y-9580650D02*
X6872688Y-9580650D01*
X6872688Y-9580650D02*
X6853641Y-9590174D01*
X6939355Y-9704460D02*
X6920307Y-9713984D01*
X6920307Y-9713984D02*
X6872688Y-9713984D01*
X6872688Y-9713984D02*
X6853641Y-9704460D01*
X6853641Y-9704460D02*
X6844117Y-9685412D01*
X6844117Y-9685412D02*
X6844117Y-9666365D01*
X6844117Y-9666365D02*
X6853641Y-9647317D01*
X6853641Y-9647317D02*
X6872688Y-9637793D01*
X6872688Y-9637793D02*
X6920307Y-9637793D01*
X6920307Y-9637793D02*
X6939355Y-9628270D01*
X7034593Y-9580650D02*
X7034593Y-9780650D01*
X7034593Y-9590174D02*
X7053641Y-9580650D01*
X7053641Y-9580650D02*
X7091736Y-9580650D01*
X7091736Y-9580650D02*
X7110783Y-9590174D01*
X7110783Y-9590174D02*
X7120307Y-9599698D01*
X7120307Y-9599698D02*
X7129831Y-9618746D01*
X7129831Y-9618746D02*
X7129831Y-9675889D01*
X7129831Y-9675889D02*
X7120307Y-9694936D01*
X7120307Y-9694936D02*
X7110783Y-9704460D01*
X7110783Y-9704460D02*
X7091736Y-9713984D01*
X7091736Y-9713984D02*
X7053641Y-9713984D01*
X7053641Y-9713984D02*
X7034593Y-9704460D01*
X7215545Y-9694936D02*
X7225069Y-9704460D01*
X7225069Y-9704460D02*
X7215545Y-9713984D01*
X7215545Y-9713984D02*
X7206022Y-9704460D01*
X7206022Y-9704460D02*
X7215545Y-9694936D01*
X7215545Y-9694936D02*
X7215545Y-9713984D01*
X7215545Y-9590174D02*
X7225069Y-9599698D01*
X7225069Y-9599698D02*
X7215545Y-9609222D01*
X7215545Y-9609222D02*
X7206022Y-9599698D01*
X7206022Y-9599698D02*
X7215545Y-9590174D01*
X7215545Y-9590174D02*
X7215545Y-9609222D01*
D12*
X5543340Y-10022500D02*
X5583340Y-10062500D01*
X5583340Y-10022500D02*
X5543340Y-10062500D01*
D11*
X5882212Y-9933984D02*
X5901260Y-9933984D01*
X5901260Y-9933984D02*
X5920307Y-9943508D01*
X5920307Y-9943508D02*
X5929831Y-9953031D01*
X5929831Y-9953031D02*
X5939355Y-9972079D01*
X5939355Y-9972079D02*
X5948879Y-10010174D01*
X5948879Y-10010174D02*
X5948879Y-10057793D01*
X5948879Y-10057793D02*
X5939355Y-10095889D01*
X5939355Y-10095889D02*
X5929831Y-10114936D01*
X5929831Y-10114936D02*
X5920307Y-10124460D01*
X5920307Y-10124460D02*
X5901260Y-10133984D01*
X5901260Y-10133984D02*
X5882212Y-10133984D01*
X5882212Y-10133984D02*
X5863164Y-10124460D01*
X5863164Y-10124460D02*
X5853641Y-10114936D01*
X5853641Y-10114936D02*
X5844117Y-10095889D01*
X5844117Y-10095889D02*
X5834593Y-10057793D01*
X5834593Y-10057793D02*
X5834593Y-10010174D01*
X5834593Y-10010174D02*
X5844117Y-9972079D01*
X5844117Y-9972079D02*
X5853641Y-9953031D01*
X5853641Y-9953031D02*
X5863164Y-9943508D01*
X5863164Y-9943508D02*
X5882212Y-9933984D01*
X6034593Y-10114936D02*
X6044117Y-10124460D01*
X6044117Y-10124460D02*
X6034593Y-10133984D01*
X6034593Y-10133984D02*
X6025069Y-10124460D01*
X6025069Y-10124460D02*
X6034593Y-10114936D01*
X6034593Y-10114936D02*
X6034593Y-10133984D01*
X6215545Y-10000650D02*
X6215545Y-10133984D01*
X6167926Y-9924460D02*
X6120307Y-10067317D01*
X6120307Y-10067317D02*
X6244117Y-10067317D01*
X6358402Y-9933984D02*
X6377450Y-9933984D01*
X6377450Y-9933984D02*
X6396498Y-9943508D01*
X6396498Y-9943508D02*
X6406022Y-9953031D01*
X6406022Y-9953031D02*
X6415545Y-9972079D01*
X6415545Y-9972079D02*
X6425069Y-10010174D01*
X6425069Y-10010174D02*
X6425069Y-10057793D01*
X6425069Y-10057793D02*
X6415545Y-10095889D01*
X6415545Y-10095889D02*
X6406022Y-10114936D01*
X6406022Y-10114936D02*
X6396498Y-10124460D01*
X6396498Y-10124460D02*
X6377450Y-10133984D01*
X6377450Y-10133984D02*
X6358402Y-10133984D01*
X6358402Y-10133984D02*
X6339355Y-10124460D01*
X6339355Y-10124460D02*
X6329831Y-10114936D01*
X6329831Y-10114936D02*
X6320307Y-10095889D01*
X6320307Y-10095889D02*
X6310783Y-10057793D01*
X6310783Y-10057793D02*
X6310783Y-10010174D01*
X6310783Y-10010174D02*
X6320307Y-9972079D01*
X6320307Y-9972079D02*
X6329831Y-9953031D01*
X6329831Y-9953031D02*
X6339355Y-9943508D01*
X6339355Y-9943508D02*
X6358402Y-9933984D01*
X6548879Y-9933984D02*
X6567926Y-9933984D01*
X6567926Y-9933984D02*
X6586974Y-9943508D01*
X6586974Y-9943508D02*
X6596498Y-9953031D01*
X6596498Y-9953031D02*
X6606022Y-9972079D01*
X6606022Y-9972079D02*
X6615545Y-10010174D01*
X6615545Y-10010174D02*
X6615545Y-10057793D01*
X6615545Y-10057793D02*
X6606022Y-10095889D01*
X6606022Y-10095889D02*
X6596498Y-10114936D01*
X6596498Y-10114936D02*
X6586974Y-10124460D01*
X6586974Y-10124460D02*
X6567926Y-10133984D01*
X6567926Y-10133984D02*
X6548879Y-10133984D01*
X6548879Y-10133984D02*
X6529831Y-10124460D01*
X6529831Y-10124460D02*
X6520307Y-10114936D01*
X6520307Y-10114936D02*
X6510783Y-10095889D01*
X6510783Y-10095889D02*
X6501260Y-10057793D01*
X6501260Y-10057793D02*
X6501260Y-10010174D01*
X6501260Y-10010174D02*
X6510783Y-9972079D01*
X6510783Y-9972079D02*
X6520307Y-9953031D01*
X6520307Y-9953031D02*
X6529831Y-9943508D01*
X6529831Y-9943508D02*
X6548879Y-9933984D01*
X6701260Y-10133984D02*
X6701260Y-10000650D01*
X6701260Y-10019698D02*
X6710783Y-10010174D01*
X6710783Y-10010174D02*
X6729831Y-10000650D01*
X6729831Y-10000650D02*
X6758403Y-10000650D01*
X6758403Y-10000650D02*
X6777450Y-10010174D01*
X6777450Y-10010174D02*
X6786974Y-10029222D01*
X6786974Y-10029222D02*
X6786974Y-10133984D01*
X6786974Y-10029222D02*
X6796498Y-10010174D01*
X6796498Y-10010174D02*
X6815545Y-10000650D01*
X6815545Y-10000650D02*
X6844117Y-10000650D01*
X6844117Y-10000650D02*
X6863164Y-10010174D01*
X6863164Y-10010174D02*
X6872688Y-10029222D01*
X6872688Y-10029222D02*
X6872688Y-10133984D01*
X6967926Y-10133984D02*
X6967926Y-10000650D01*
X6967926Y-10019698D02*
X6977450Y-10010174D01*
X6977450Y-10010174D02*
X6996498Y-10000650D01*
X6996498Y-10000650D02*
X7025069Y-10000650D01*
X7025069Y-10000650D02*
X7044117Y-10010174D01*
X7044117Y-10010174D02*
X7053641Y-10029222D01*
X7053641Y-10029222D02*
X7053641Y-10133984D01*
X7053641Y-10029222D02*
X7063164Y-10010174D01*
X7063164Y-10010174D02*
X7082212Y-10000650D01*
X7082212Y-10000650D02*
X7110783Y-10000650D01*
X7110783Y-10000650D02*
X7129831Y-10010174D01*
X7129831Y-10010174D02*
X7139355Y-10029222D01*
X7139355Y-10029222D02*
X7139355Y-10133984D01*
X7529831Y-9924460D02*
X7358403Y-10181603D01*
X7786974Y-9933984D02*
X7806022Y-9933984D01*
X7806022Y-9933984D02*
X7825069Y-9943508D01*
X7825069Y-9943508D02*
X7834593Y-9953031D01*
X7834593Y-9953031D02*
X7844117Y-9972079D01*
X7844117Y-9972079D02*
X7853641Y-10010174D01*
X7853641Y-10010174D02*
X7853641Y-10057793D01*
X7853641Y-10057793D02*
X7844117Y-10095889D01*
X7844117Y-10095889D02*
X7834593Y-10114936D01*
X7834593Y-10114936D02*
X7825069Y-10124460D01*
X7825069Y-10124460D02*
X7806022Y-10133984D01*
X7806022Y-10133984D02*
X7786974Y-10133984D01*
X7786974Y-10133984D02*
X7767926Y-10124460D01*
X7767926Y-10124460D02*
X7758403Y-10114936D01*
X7758403Y-10114936D02*
X7748879Y-10095889D01*
X7748879Y-10095889D02*
X7739355Y-10057793D01*
X7739355Y-10057793D02*
X7739355Y-10010174D01*
X7739355Y-10010174D02*
X7748879Y-9972079D01*
X7748879Y-9972079D02*
X7758403Y-9953031D01*
X7758403Y-9953031D02*
X7767926Y-9943508D01*
X7767926Y-9943508D02*
X7786974Y-9933984D01*
X7939355Y-10114936D02*
X7948879Y-10124460D01*
X7948879Y-10124460D02*
X7939355Y-10133984D01*
X7939355Y-10133984D02*
X7929831Y-10124460D01*
X7929831Y-10124460D02*
X7939355Y-10114936D01*
X7939355Y-10114936D02*
X7939355Y-10133984D01*
X8072688Y-9933984D02*
X8091736Y-9933984D01*
X8091736Y-9933984D02*
X8110784Y-9943508D01*
X8110784Y-9943508D02*
X8120307Y-9953031D01*
X8120307Y-9953031D02*
X8129831Y-9972079D01*
X8129831Y-9972079D02*
X8139355Y-10010174D01*
X8139355Y-10010174D02*
X8139355Y-10057793D01*
X8139355Y-10057793D02*
X8129831Y-10095889D01*
X8129831Y-10095889D02*
X8120307Y-10114936D01*
X8120307Y-10114936D02*
X8110784Y-10124460D01*
X8110784Y-10124460D02*
X8091736Y-10133984D01*
X8091736Y-10133984D02*
X8072688Y-10133984D01*
X8072688Y-10133984D02*
X8053641Y-10124460D01*
X8053641Y-10124460D02*
X8044117Y-10114936D01*
X8044117Y-10114936D02*
X8034593Y-10095889D01*
X8034593Y-10095889D02*
X8025069Y-10057793D01*
X8025069Y-10057793D02*
X8025069Y-10010174D01*
X8025069Y-10010174D02*
X8034593Y-9972079D01*
X8034593Y-9972079D02*
X8044117Y-9953031D01*
X8044117Y-9953031D02*
X8053641Y-9943508D01*
X8053641Y-9943508D02*
X8072688Y-9933984D01*
X8329831Y-10133984D02*
X8215546Y-10133984D01*
X8272688Y-10133984D02*
X8272688Y-9933984D01*
X8272688Y-9933984D02*
X8253641Y-9962555D01*
X8253641Y-9962555D02*
X8234593Y-9981603D01*
X8234593Y-9981603D02*
X8215546Y-9991127D01*
X8510784Y-9933984D02*
X8415546Y-9933984D01*
X8415546Y-9933984D02*
X8406022Y-10029222D01*
X8406022Y-10029222D02*
X8415546Y-10019698D01*
X8415546Y-10019698D02*
X8434593Y-10010174D01*
X8434593Y-10010174D02*
X8482212Y-10010174D01*
X8482212Y-10010174D02*
X8501260Y-10019698D01*
X8501260Y-10019698D02*
X8510784Y-10029222D01*
X8510784Y-10029222D02*
X8520308Y-10048270D01*
X8520308Y-10048270D02*
X8520308Y-10095889D01*
X8520308Y-10095889D02*
X8510784Y-10114936D01*
X8510784Y-10114936D02*
X8501260Y-10124460D01*
X8501260Y-10124460D02*
X8482212Y-10133984D01*
X8482212Y-10133984D02*
X8434593Y-10133984D01*
X8434593Y-10133984D02*
X8415546Y-10124460D01*
X8415546Y-10124460D02*
X8406022Y-10114936D01*
X8586974Y-9933984D02*
X8720308Y-9933984D01*
X8720308Y-9933984D02*
X8634593Y-10133984D01*
X8786974Y-9933984D02*
X8786974Y-9972079D01*
X8863165Y-9933984D02*
X8863165Y-9972079D01*
X9158403Y-10210174D02*
X9148879Y-10200650D01*
X9148879Y-10200650D02*
X9129831Y-10172079D01*
X9129831Y-10172079D02*
X9120308Y-10153031D01*
X9120308Y-10153031D02*
X9110784Y-10124460D01*
X9110784Y-10124460D02*
X9101260Y-10076841D01*
X9101260Y-10076841D02*
X9101260Y-10038746D01*
X9101260Y-10038746D02*
X9110784Y-9991127D01*
X9110784Y-9991127D02*
X9120308Y-9962555D01*
X9120308Y-9962555D02*
X9129831Y-9943508D01*
X9129831Y-9943508D02*
X9148879Y-9914936D01*
X9148879Y-9914936D02*
X9158403Y-9905412D01*
X9339355Y-10133984D02*
X9225070Y-10133984D01*
X9282212Y-10133984D02*
X9282212Y-9933984D01*
X9282212Y-9933984D02*
X9263165Y-9962555D01*
X9263165Y-9962555D02*
X9244117Y-9981603D01*
X9244117Y-9981603D02*
X9225070Y-9991127D01*
X9406022Y-9933984D02*
X9529831Y-9933984D01*
X9529831Y-9933984D02*
X9463165Y-10010174D01*
X9463165Y-10010174D02*
X9491736Y-10010174D01*
X9491736Y-10010174D02*
X9510784Y-10019698D01*
X9510784Y-10019698D02*
X9520308Y-10029222D01*
X9520308Y-10029222D02*
X9529831Y-10048270D01*
X9529831Y-10048270D02*
X9529831Y-10095889D01*
X9529831Y-10095889D02*
X9520308Y-10114936D01*
X9520308Y-10114936D02*
X9510784Y-10124460D01*
X9510784Y-10124460D02*
X9491736Y-10133984D01*
X9491736Y-10133984D02*
X9434593Y-10133984D01*
X9434593Y-10133984D02*
X9415546Y-10124460D01*
X9415546Y-10124460D02*
X9406022Y-10114936D01*
X9767927Y-10133984D02*
X9767927Y-9933984D01*
X9853641Y-10133984D02*
X9853641Y-10029222D01*
X9853641Y-10029222D02*
X9844117Y-10010174D01*
X9844117Y-10010174D02*
X9825070Y-10000650D01*
X9825070Y-10000650D02*
X9796498Y-10000650D01*
X9796498Y-10000650D02*
X9777451Y-10010174D01*
X9777451Y-10010174D02*
X9767927Y-10019698D01*
X9977451Y-10133984D02*
X9958403Y-10124460D01*
X9958403Y-10124460D02*
X9948879Y-10114936D01*
X9948879Y-10114936D02*
X9939355Y-10095889D01*
X9939355Y-10095889D02*
X9939355Y-10038746D01*
X9939355Y-10038746D02*
X9948879Y-10019698D01*
X9948879Y-10019698D02*
X9958403Y-10010174D01*
X9958403Y-10010174D02*
X9977451Y-10000650D01*
X9977451Y-10000650D02*
X10006022Y-10000650D01*
X10006022Y-10000650D02*
X10025070Y-10010174D01*
X10025070Y-10010174D02*
X10034593Y-10019698D01*
X10034593Y-10019698D02*
X10044117Y-10038746D01*
X10044117Y-10038746D02*
X10044117Y-10095889D01*
X10044117Y-10095889D02*
X10034593Y-10114936D01*
X10034593Y-10114936D02*
X10025070Y-10124460D01*
X10025070Y-10124460D02*
X10006022Y-10133984D01*
X10006022Y-10133984D02*
X9977451Y-10133984D01*
X10158403Y-10133984D02*
X10139355Y-10124460D01*
X10139355Y-10124460D02*
X10129832Y-10105412D01*
X10129832Y-10105412D02*
X10129832Y-9933984D01*
X10310784Y-10124460D02*
X10291736Y-10133984D01*
X10291736Y-10133984D02*
X10253641Y-10133984D01*
X10253641Y-10133984D02*
X10234593Y-10124460D01*
X10234593Y-10124460D02*
X10225070Y-10105412D01*
X10225070Y-10105412D02*
X10225070Y-10029222D01*
X10225070Y-10029222D02*
X10234593Y-10010174D01*
X10234593Y-10010174D02*
X10253641Y-10000650D01*
X10253641Y-10000650D02*
X10291736Y-10000650D01*
X10291736Y-10000650D02*
X10310784Y-10010174D01*
X10310784Y-10010174D02*
X10320308Y-10029222D01*
X10320308Y-10029222D02*
X10320308Y-10048270D01*
X10320308Y-10048270D02*
X10225070Y-10067317D01*
X10396498Y-10124460D02*
X10415546Y-10133984D01*
X10415546Y-10133984D02*
X10453641Y-10133984D01*
X10453641Y-10133984D02*
X10472689Y-10124460D01*
X10472689Y-10124460D02*
X10482213Y-10105412D01*
X10482213Y-10105412D02*
X10482213Y-10095889D01*
X10482213Y-10095889D02*
X10472689Y-10076841D01*
X10472689Y-10076841D02*
X10453641Y-10067317D01*
X10453641Y-10067317D02*
X10425070Y-10067317D01*
X10425070Y-10067317D02*
X10406022Y-10057793D01*
X10406022Y-10057793D02*
X10396498Y-10038746D01*
X10396498Y-10038746D02*
X10396498Y-10029222D01*
X10396498Y-10029222D02*
X10406022Y-10010174D01*
X10406022Y-10010174D02*
X10425070Y-10000650D01*
X10425070Y-10000650D02*
X10453641Y-10000650D01*
X10453641Y-10000650D02*
X10472689Y-10010174D01*
X10548879Y-10210174D02*
X10558403Y-10200650D01*
X10558403Y-10200650D02*
X10577451Y-10172079D01*
X10577451Y-10172079D02*
X10586974Y-10153031D01*
X10586974Y-10153031D02*
X10596498Y-10124460D01*
X10596498Y-10124460D02*
X10606022Y-10076841D01*
X10606022Y-10076841D02*
X10606022Y-10038746D01*
X10606022Y-10038746D02*
X10596498Y-9991127D01*
X10596498Y-9991127D02*
X10586974Y-9962555D01*
X10586974Y-9962555D02*
X10577451Y-9943508D01*
X10577451Y-9943508D02*
X10558403Y-9914936D01*
X10558403Y-9914936D02*
X10548879Y-9905412D01*
D12*
X5583340Y-10306500D02*
G75*
G03*
X5507340Y-10306500I-38000J0D01*
G01*
X5507340Y-10306500D02*
G75*
G03*
X5583340Y-10306500I38000J0D01*
G01*
D11*
X5882212Y-10197984D02*
X5901260Y-10197984D01*
X5901260Y-10197984D02*
X5920307Y-10207508D01*
X5920307Y-10207508D02*
X5929831Y-10217031D01*
X5929831Y-10217031D02*
X5939355Y-10236079D01*
X5939355Y-10236079D02*
X5948879Y-10274174D01*
X5948879Y-10274174D02*
X5948879Y-10321793D01*
X5948879Y-10321793D02*
X5939355Y-10359889D01*
X5939355Y-10359889D02*
X5929831Y-10378936D01*
X5929831Y-10378936D02*
X5920307Y-10388460D01*
X5920307Y-10388460D02*
X5901260Y-10397984D01*
X5901260Y-10397984D02*
X5882212Y-10397984D01*
X5882212Y-10397984D02*
X5863164Y-10388460D01*
X5863164Y-10388460D02*
X5853641Y-10378936D01*
X5853641Y-10378936D02*
X5844117Y-10359889D01*
X5844117Y-10359889D02*
X5834593Y-10321793D01*
X5834593Y-10321793D02*
X5834593Y-10274174D01*
X5834593Y-10274174D02*
X5844117Y-10236079D01*
X5844117Y-10236079D02*
X5853641Y-10217031D01*
X5853641Y-10217031D02*
X5863164Y-10207508D01*
X5863164Y-10207508D02*
X5882212Y-10197984D01*
X6034593Y-10378936D02*
X6044117Y-10388460D01*
X6044117Y-10388460D02*
X6034593Y-10397984D01*
X6034593Y-10397984D02*
X6025069Y-10388460D01*
X6025069Y-10388460D02*
X6034593Y-10378936D01*
X6034593Y-10378936D02*
X6034593Y-10397984D01*
X6110783Y-10197984D02*
X6244117Y-10197984D01*
X6244117Y-10197984D02*
X6158402Y-10397984D01*
X6406022Y-10197984D02*
X6367926Y-10197984D01*
X6367926Y-10197984D02*
X6348879Y-10207508D01*
X6348879Y-10207508D02*
X6339355Y-10217031D01*
X6339355Y-10217031D02*
X6320307Y-10245603D01*
X6320307Y-10245603D02*
X6310783Y-10283698D01*
X6310783Y-10283698D02*
X6310783Y-10359889D01*
X6310783Y-10359889D02*
X6320307Y-10378936D01*
X6320307Y-10378936D02*
X6329831Y-10388460D01*
X6329831Y-10388460D02*
X6348879Y-10397984D01*
X6348879Y-10397984D02*
X6386974Y-10397984D01*
X6386974Y-10397984D02*
X6406022Y-10388460D01*
X6406022Y-10388460D02*
X6415545Y-10378936D01*
X6415545Y-10378936D02*
X6425069Y-10359889D01*
X6425069Y-10359889D02*
X6425069Y-10312270D01*
X6425069Y-10312270D02*
X6415545Y-10293222D01*
X6415545Y-10293222D02*
X6406022Y-10283698D01*
X6406022Y-10283698D02*
X6386974Y-10274174D01*
X6386974Y-10274174D02*
X6348879Y-10274174D01*
X6348879Y-10274174D02*
X6329831Y-10283698D01*
X6329831Y-10283698D02*
X6320307Y-10293222D01*
X6320307Y-10293222D02*
X6310783Y-10312270D01*
X6548879Y-10197984D02*
X6567926Y-10197984D01*
X6567926Y-10197984D02*
X6586974Y-10207508D01*
X6586974Y-10207508D02*
X6596498Y-10217031D01*
X6596498Y-10217031D02*
X6606022Y-10236079D01*
X6606022Y-10236079D02*
X6615545Y-10274174D01*
X6615545Y-10274174D02*
X6615545Y-10321793D01*
X6615545Y-10321793D02*
X6606022Y-10359889D01*
X6606022Y-10359889D02*
X6596498Y-10378936D01*
X6596498Y-10378936D02*
X6586974Y-10388460D01*
X6586974Y-10388460D02*
X6567926Y-10397984D01*
X6567926Y-10397984D02*
X6548879Y-10397984D01*
X6548879Y-10397984D02*
X6529831Y-10388460D01*
X6529831Y-10388460D02*
X6520307Y-10378936D01*
X6520307Y-10378936D02*
X6510783Y-10359889D01*
X6510783Y-10359889D02*
X6501260Y-10321793D01*
X6501260Y-10321793D02*
X6501260Y-10274174D01*
X6501260Y-10274174D02*
X6510783Y-10236079D01*
X6510783Y-10236079D02*
X6520307Y-10217031D01*
X6520307Y-10217031D02*
X6529831Y-10207508D01*
X6529831Y-10207508D02*
X6548879Y-10197984D01*
X6701260Y-10397984D02*
X6701260Y-10264650D01*
X6701260Y-10283698D02*
X6710783Y-10274174D01*
X6710783Y-10274174D02*
X6729831Y-10264650D01*
X6729831Y-10264650D02*
X6758403Y-10264650D01*
X6758403Y-10264650D02*
X6777450Y-10274174D01*
X6777450Y-10274174D02*
X6786974Y-10293222D01*
X6786974Y-10293222D02*
X6786974Y-10397984D01*
X6786974Y-10293222D02*
X6796498Y-10274174D01*
X6796498Y-10274174D02*
X6815545Y-10264650D01*
X6815545Y-10264650D02*
X6844117Y-10264650D01*
X6844117Y-10264650D02*
X6863164Y-10274174D01*
X6863164Y-10274174D02*
X6872688Y-10293222D01*
X6872688Y-10293222D02*
X6872688Y-10397984D01*
X6967926Y-10397984D02*
X6967926Y-10264650D01*
X6967926Y-10283698D02*
X6977450Y-10274174D01*
X6977450Y-10274174D02*
X6996498Y-10264650D01*
X6996498Y-10264650D02*
X7025069Y-10264650D01*
X7025069Y-10264650D02*
X7044117Y-10274174D01*
X7044117Y-10274174D02*
X7053641Y-10293222D01*
X7053641Y-10293222D02*
X7053641Y-10397984D01*
X7053641Y-10293222D02*
X7063164Y-10274174D01*
X7063164Y-10274174D02*
X7082212Y-10264650D01*
X7082212Y-10264650D02*
X7110783Y-10264650D01*
X7110783Y-10264650D02*
X7129831Y-10274174D01*
X7129831Y-10274174D02*
X7139355Y-10293222D01*
X7139355Y-10293222D02*
X7139355Y-10397984D01*
X7529831Y-10188460D02*
X7358403Y-10445603D01*
X7786974Y-10197984D02*
X7806022Y-10197984D01*
X7806022Y-10197984D02*
X7825069Y-10207508D01*
X7825069Y-10207508D02*
X7834593Y-10217031D01*
X7834593Y-10217031D02*
X7844117Y-10236079D01*
X7844117Y-10236079D02*
X7853641Y-10274174D01*
X7853641Y-10274174D02*
X7853641Y-10321793D01*
X7853641Y-10321793D02*
X7844117Y-10359889D01*
X7844117Y-10359889D02*
X7834593Y-10378936D01*
X7834593Y-10378936D02*
X7825069Y-10388460D01*
X7825069Y-10388460D02*
X7806022Y-10397984D01*
X7806022Y-10397984D02*
X7786974Y-10397984D01*
X7786974Y-10397984D02*
X7767926Y-10388460D01*
X7767926Y-10388460D02*
X7758403Y-10378936D01*
X7758403Y-10378936D02*
X7748879Y-10359889D01*
X7748879Y-10359889D02*
X7739355Y-10321793D01*
X7739355Y-10321793D02*
X7739355Y-10274174D01*
X7739355Y-10274174D02*
X7748879Y-10236079D01*
X7748879Y-10236079D02*
X7758403Y-10217031D01*
X7758403Y-10217031D02*
X7767926Y-10207508D01*
X7767926Y-10207508D02*
X7786974Y-10197984D01*
X7939355Y-10378936D02*
X7948879Y-10388460D01*
X7948879Y-10388460D02*
X7939355Y-10397984D01*
X7939355Y-10397984D02*
X7929831Y-10388460D01*
X7929831Y-10388460D02*
X7939355Y-10378936D01*
X7939355Y-10378936D02*
X7939355Y-10397984D01*
X8072688Y-10197984D02*
X8091736Y-10197984D01*
X8091736Y-10197984D02*
X8110784Y-10207508D01*
X8110784Y-10207508D02*
X8120307Y-10217031D01*
X8120307Y-10217031D02*
X8129831Y-10236079D01*
X8129831Y-10236079D02*
X8139355Y-10274174D01*
X8139355Y-10274174D02*
X8139355Y-10321793D01*
X8139355Y-10321793D02*
X8129831Y-10359889D01*
X8129831Y-10359889D02*
X8120307Y-10378936D01*
X8120307Y-10378936D02*
X8110784Y-10388460D01*
X8110784Y-10388460D02*
X8091736Y-10397984D01*
X8091736Y-10397984D02*
X8072688Y-10397984D01*
X8072688Y-10397984D02*
X8053641Y-10388460D01*
X8053641Y-10388460D02*
X8044117Y-10378936D01*
X8044117Y-10378936D02*
X8034593Y-10359889D01*
X8034593Y-10359889D02*
X8025069Y-10321793D01*
X8025069Y-10321793D02*
X8025069Y-10274174D01*
X8025069Y-10274174D02*
X8034593Y-10236079D01*
X8034593Y-10236079D02*
X8044117Y-10217031D01*
X8044117Y-10217031D02*
X8053641Y-10207508D01*
X8053641Y-10207508D02*
X8072688Y-10197984D01*
X8215546Y-10217031D02*
X8225069Y-10207508D01*
X8225069Y-10207508D02*
X8244117Y-10197984D01*
X8244117Y-10197984D02*
X8291736Y-10197984D01*
X8291736Y-10197984D02*
X8310784Y-10207508D01*
X8310784Y-10207508D02*
X8320307Y-10217031D01*
X8320307Y-10217031D02*
X8329831Y-10236079D01*
X8329831Y-10236079D02*
X8329831Y-10255127D01*
X8329831Y-10255127D02*
X8320307Y-10283698D01*
X8320307Y-10283698D02*
X8206022Y-10397984D01*
X8206022Y-10397984D02*
X8329831Y-10397984D01*
X8425069Y-10397984D02*
X8463165Y-10397984D01*
X8463165Y-10397984D02*
X8482212Y-10388460D01*
X8482212Y-10388460D02*
X8491736Y-10378936D01*
X8491736Y-10378936D02*
X8510784Y-10350365D01*
X8510784Y-10350365D02*
X8520308Y-10312270D01*
X8520308Y-10312270D02*
X8520308Y-10236079D01*
X8520308Y-10236079D02*
X8510784Y-10217031D01*
X8510784Y-10217031D02*
X8501260Y-10207508D01*
X8501260Y-10207508D02*
X8482212Y-10197984D01*
X8482212Y-10197984D02*
X8444117Y-10197984D01*
X8444117Y-10197984D02*
X8425069Y-10207508D01*
X8425069Y-10207508D02*
X8415546Y-10217031D01*
X8415546Y-10217031D02*
X8406022Y-10236079D01*
X8406022Y-10236079D02*
X8406022Y-10283698D01*
X8406022Y-10283698D02*
X8415546Y-10302746D01*
X8415546Y-10302746D02*
X8425069Y-10312270D01*
X8425069Y-10312270D02*
X8444117Y-10321793D01*
X8444117Y-10321793D02*
X8482212Y-10321793D01*
X8482212Y-10321793D02*
X8501260Y-10312270D01*
X8501260Y-10312270D02*
X8510784Y-10302746D01*
X8510784Y-10302746D02*
X8520308Y-10283698D01*
X8615546Y-10397984D02*
X8653641Y-10397984D01*
X8653641Y-10397984D02*
X8672689Y-10388460D01*
X8672689Y-10388460D02*
X8682212Y-10378936D01*
X8682212Y-10378936D02*
X8701260Y-10350365D01*
X8701260Y-10350365D02*
X8710784Y-10312270D01*
X8710784Y-10312270D02*
X8710784Y-10236079D01*
X8710784Y-10236079D02*
X8701260Y-10217031D01*
X8701260Y-10217031D02*
X8691736Y-10207508D01*
X8691736Y-10207508D02*
X8672689Y-10197984D01*
X8672689Y-10197984D02*
X8634593Y-10197984D01*
X8634593Y-10197984D02*
X8615546Y-10207508D01*
X8615546Y-10207508D02*
X8606022Y-10217031D01*
X8606022Y-10217031D02*
X8596498Y-10236079D01*
X8596498Y-10236079D02*
X8596498Y-10283698D01*
X8596498Y-10283698D02*
X8606022Y-10302746D01*
X8606022Y-10302746D02*
X8615546Y-10312270D01*
X8615546Y-10312270D02*
X8634593Y-10321793D01*
X8634593Y-10321793D02*
X8672689Y-10321793D01*
X8672689Y-10321793D02*
X8691736Y-10312270D01*
X8691736Y-10312270D02*
X8701260Y-10302746D01*
X8701260Y-10302746D02*
X8710784Y-10283698D01*
X8786974Y-10197984D02*
X8786974Y-10236079D01*
X8863165Y-10197984D02*
X8863165Y-10236079D01*
X9158403Y-10474174D02*
X9148879Y-10464650D01*
X9148879Y-10464650D02*
X9129831Y-10436079D01*
X9129831Y-10436079D02*
X9120308Y-10417031D01*
X9120308Y-10417031D02*
X9110784Y-10388460D01*
X9110784Y-10388460D02*
X9101260Y-10340841D01*
X9101260Y-10340841D02*
X9101260Y-10302746D01*
X9101260Y-10302746D02*
X9110784Y-10255127D01*
X9110784Y-10255127D02*
X9120308Y-10226555D01*
X9120308Y-10226555D02*
X9129831Y-10207508D01*
X9129831Y-10207508D02*
X9148879Y-10178936D01*
X9148879Y-10178936D02*
X9158403Y-10169412D01*
X9320308Y-10197984D02*
X9282212Y-10197984D01*
X9282212Y-10197984D02*
X9263165Y-10207508D01*
X9263165Y-10207508D02*
X9253641Y-10217031D01*
X9253641Y-10217031D02*
X9234593Y-10245603D01*
X9234593Y-10245603D02*
X9225070Y-10283698D01*
X9225070Y-10283698D02*
X9225070Y-10359889D01*
X9225070Y-10359889D02*
X9234593Y-10378936D01*
X9234593Y-10378936D02*
X9244117Y-10388460D01*
X9244117Y-10388460D02*
X9263165Y-10397984D01*
X9263165Y-10397984D02*
X9301260Y-10397984D01*
X9301260Y-10397984D02*
X9320308Y-10388460D01*
X9320308Y-10388460D02*
X9329831Y-10378936D01*
X9329831Y-10378936D02*
X9339355Y-10359889D01*
X9339355Y-10359889D02*
X9339355Y-10312270D01*
X9339355Y-10312270D02*
X9329831Y-10293222D01*
X9329831Y-10293222D02*
X9320308Y-10283698D01*
X9320308Y-10283698D02*
X9301260Y-10274174D01*
X9301260Y-10274174D02*
X9263165Y-10274174D01*
X9263165Y-10274174D02*
X9244117Y-10283698D01*
X9244117Y-10283698D02*
X9234593Y-10293222D01*
X9234593Y-10293222D02*
X9225070Y-10312270D01*
X9577451Y-10397984D02*
X9577451Y-10197984D01*
X9663165Y-10397984D02*
X9663165Y-10293222D01*
X9663165Y-10293222D02*
X9653641Y-10274174D01*
X9653641Y-10274174D02*
X9634593Y-10264650D01*
X9634593Y-10264650D02*
X9606022Y-10264650D01*
X9606022Y-10264650D02*
X9586974Y-10274174D01*
X9586974Y-10274174D02*
X9577451Y-10283698D01*
X9786974Y-10397984D02*
X9767927Y-10388460D01*
X9767927Y-10388460D02*
X9758403Y-10378936D01*
X9758403Y-10378936D02*
X9748879Y-10359889D01*
X9748879Y-10359889D02*
X9748879Y-10302746D01*
X9748879Y-10302746D02*
X9758403Y-10283698D01*
X9758403Y-10283698D02*
X9767927Y-10274174D01*
X9767927Y-10274174D02*
X9786974Y-10264650D01*
X9786974Y-10264650D02*
X9815546Y-10264650D01*
X9815546Y-10264650D02*
X9834593Y-10274174D01*
X9834593Y-10274174D02*
X9844117Y-10283698D01*
X9844117Y-10283698D02*
X9853641Y-10302746D01*
X9853641Y-10302746D02*
X9853641Y-10359889D01*
X9853641Y-10359889D02*
X9844117Y-10378936D01*
X9844117Y-10378936D02*
X9834593Y-10388460D01*
X9834593Y-10388460D02*
X9815546Y-10397984D01*
X9815546Y-10397984D02*
X9786974Y-10397984D01*
X9967927Y-10397984D02*
X9948879Y-10388460D01*
X9948879Y-10388460D02*
X9939355Y-10369412D01*
X9939355Y-10369412D02*
X9939355Y-10197984D01*
X10120308Y-10388460D02*
X10101260Y-10397984D01*
X10101260Y-10397984D02*
X10063165Y-10397984D01*
X10063165Y-10397984D02*
X10044117Y-10388460D01*
X10044117Y-10388460D02*
X10034593Y-10369412D01*
X10034593Y-10369412D02*
X10034593Y-10293222D01*
X10034593Y-10293222D02*
X10044117Y-10274174D01*
X10044117Y-10274174D02*
X10063165Y-10264650D01*
X10063165Y-10264650D02*
X10101260Y-10264650D01*
X10101260Y-10264650D02*
X10120308Y-10274174D01*
X10120308Y-10274174D02*
X10129832Y-10293222D01*
X10129832Y-10293222D02*
X10129832Y-10312270D01*
X10129832Y-10312270D02*
X10034593Y-10331317D01*
X10206022Y-10388460D02*
X10225070Y-10397984D01*
X10225070Y-10397984D02*
X10263165Y-10397984D01*
X10263165Y-10397984D02*
X10282213Y-10388460D01*
X10282213Y-10388460D02*
X10291736Y-10369412D01*
X10291736Y-10369412D02*
X10291736Y-10359889D01*
X10291736Y-10359889D02*
X10282213Y-10340841D01*
X10282213Y-10340841D02*
X10263165Y-10331317D01*
X10263165Y-10331317D02*
X10234593Y-10331317D01*
X10234593Y-10331317D02*
X10215546Y-10321793D01*
X10215546Y-10321793D02*
X10206022Y-10302746D01*
X10206022Y-10302746D02*
X10206022Y-10293222D01*
X10206022Y-10293222D02*
X10215546Y-10274174D01*
X10215546Y-10274174D02*
X10234593Y-10264650D01*
X10234593Y-10264650D02*
X10263165Y-10264650D01*
X10263165Y-10264650D02*
X10282213Y-10274174D01*
X10358403Y-10474174D02*
X10367927Y-10464650D01*
X10367927Y-10464650D02*
X10386974Y-10436079D01*
X10386974Y-10436079D02*
X10396498Y-10417031D01*
X10396498Y-10417031D02*
X10406022Y-10388460D01*
X10406022Y-10388460D02*
X10415546Y-10340841D01*
X10415546Y-10340841D02*
X10415546Y-10302746D01*
X10415546Y-10302746D02*
X10406022Y-10255127D01*
X10406022Y-10255127D02*
X10396498Y-10226555D01*
X10396498Y-10226555D02*
X10386974Y-10207508D01*
X10386974Y-10207508D02*
X10367927Y-10178936D01*
X10367927Y-10178936D02*
X10358403Y-10169412D01*
D12*
X5543340Y-10530500D02*
X5543340Y-10610500D01*
X5503340Y-10570500D02*
X5583340Y-10570500D01*
D11*
X5882212Y-10461984D02*
X5901260Y-10461984D01*
X5901260Y-10461984D02*
X5920307Y-10471508D01*
X5920307Y-10471508D02*
X5929831Y-10481031D01*
X5929831Y-10481031D02*
X5939355Y-10500079D01*
X5939355Y-10500079D02*
X5948879Y-10538174D01*
X5948879Y-10538174D02*
X5948879Y-10585793D01*
X5948879Y-10585793D02*
X5939355Y-10623889D01*
X5939355Y-10623889D02*
X5929831Y-10642936D01*
X5929831Y-10642936D02*
X5920307Y-10652460D01*
X5920307Y-10652460D02*
X5901260Y-10661984D01*
X5901260Y-10661984D02*
X5882212Y-10661984D01*
X5882212Y-10661984D02*
X5863164Y-10652460D01*
X5863164Y-10652460D02*
X5853641Y-10642936D01*
X5853641Y-10642936D02*
X5844117Y-10623889D01*
X5844117Y-10623889D02*
X5834593Y-10585793D01*
X5834593Y-10585793D02*
X5834593Y-10538174D01*
X5834593Y-10538174D02*
X5844117Y-10500079D01*
X5844117Y-10500079D02*
X5853641Y-10481031D01*
X5853641Y-10481031D02*
X5863164Y-10471508D01*
X5863164Y-10471508D02*
X5882212Y-10461984D01*
X6034593Y-10642936D02*
X6044117Y-10652460D01*
X6044117Y-10652460D02*
X6034593Y-10661984D01*
X6034593Y-10661984D02*
X6025069Y-10652460D01*
X6025069Y-10652460D02*
X6034593Y-10642936D01*
X6034593Y-10642936D02*
X6034593Y-10661984D01*
X6158402Y-10547698D02*
X6139355Y-10538174D01*
X6139355Y-10538174D02*
X6129831Y-10528650D01*
X6129831Y-10528650D02*
X6120307Y-10509603D01*
X6120307Y-10509603D02*
X6120307Y-10500079D01*
X6120307Y-10500079D02*
X6129831Y-10481031D01*
X6129831Y-10481031D02*
X6139355Y-10471508D01*
X6139355Y-10471508D02*
X6158402Y-10461984D01*
X6158402Y-10461984D02*
X6196498Y-10461984D01*
X6196498Y-10461984D02*
X6215545Y-10471508D01*
X6215545Y-10471508D02*
X6225069Y-10481031D01*
X6225069Y-10481031D02*
X6234593Y-10500079D01*
X6234593Y-10500079D02*
X6234593Y-10509603D01*
X6234593Y-10509603D02*
X6225069Y-10528650D01*
X6225069Y-10528650D02*
X6215545Y-10538174D01*
X6215545Y-10538174D02*
X6196498Y-10547698D01*
X6196498Y-10547698D02*
X6158402Y-10547698D01*
X6158402Y-10547698D02*
X6139355Y-10557222D01*
X6139355Y-10557222D02*
X6129831Y-10566746D01*
X6129831Y-10566746D02*
X6120307Y-10585793D01*
X6120307Y-10585793D02*
X6120307Y-10623889D01*
X6120307Y-10623889D02*
X6129831Y-10642936D01*
X6129831Y-10642936D02*
X6139355Y-10652460D01*
X6139355Y-10652460D02*
X6158402Y-10661984D01*
X6158402Y-10661984D02*
X6196498Y-10661984D01*
X6196498Y-10661984D02*
X6215545Y-10652460D01*
X6215545Y-10652460D02*
X6225069Y-10642936D01*
X6225069Y-10642936D02*
X6234593Y-10623889D01*
X6234593Y-10623889D02*
X6234593Y-10585793D01*
X6234593Y-10585793D02*
X6225069Y-10566746D01*
X6225069Y-10566746D02*
X6215545Y-10557222D01*
X6215545Y-10557222D02*
X6196498Y-10547698D01*
X6358402Y-10461984D02*
X6377450Y-10461984D01*
X6377450Y-10461984D02*
X6396498Y-10471508D01*
X6396498Y-10471508D02*
X6406022Y-10481031D01*
X6406022Y-10481031D02*
X6415545Y-10500079D01*
X6415545Y-10500079D02*
X6425069Y-10538174D01*
X6425069Y-10538174D02*
X6425069Y-10585793D01*
X6425069Y-10585793D02*
X6415545Y-10623889D01*
X6415545Y-10623889D02*
X6406022Y-10642936D01*
X6406022Y-10642936D02*
X6396498Y-10652460D01*
X6396498Y-10652460D02*
X6377450Y-10661984D01*
X6377450Y-10661984D02*
X6358402Y-10661984D01*
X6358402Y-10661984D02*
X6339355Y-10652460D01*
X6339355Y-10652460D02*
X6329831Y-10642936D01*
X6329831Y-10642936D02*
X6320307Y-10623889D01*
X6320307Y-10623889D02*
X6310783Y-10585793D01*
X6310783Y-10585793D02*
X6310783Y-10538174D01*
X6310783Y-10538174D02*
X6320307Y-10500079D01*
X6320307Y-10500079D02*
X6329831Y-10481031D01*
X6329831Y-10481031D02*
X6339355Y-10471508D01*
X6339355Y-10471508D02*
X6358402Y-10461984D01*
X6548879Y-10461984D02*
X6567926Y-10461984D01*
X6567926Y-10461984D02*
X6586974Y-10471508D01*
X6586974Y-10471508D02*
X6596498Y-10481031D01*
X6596498Y-10481031D02*
X6606022Y-10500079D01*
X6606022Y-10500079D02*
X6615545Y-10538174D01*
X6615545Y-10538174D02*
X6615545Y-10585793D01*
X6615545Y-10585793D02*
X6606022Y-10623889D01*
X6606022Y-10623889D02*
X6596498Y-10642936D01*
X6596498Y-10642936D02*
X6586974Y-10652460D01*
X6586974Y-10652460D02*
X6567926Y-10661984D01*
X6567926Y-10661984D02*
X6548879Y-10661984D01*
X6548879Y-10661984D02*
X6529831Y-10652460D01*
X6529831Y-10652460D02*
X6520307Y-10642936D01*
X6520307Y-10642936D02*
X6510783Y-10623889D01*
X6510783Y-10623889D02*
X6501260Y-10585793D01*
X6501260Y-10585793D02*
X6501260Y-10538174D01*
X6501260Y-10538174D02*
X6510783Y-10500079D01*
X6510783Y-10500079D02*
X6520307Y-10481031D01*
X6520307Y-10481031D02*
X6529831Y-10471508D01*
X6529831Y-10471508D02*
X6548879Y-10461984D01*
X6701260Y-10661984D02*
X6701260Y-10528650D01*
X6701260Y-10547698D02*
X6710783Y-10538174D01*
X6710783Y-10538174D02*
X6729831Y-10528650D01*
X6729831Y-10528650D02*
X6758403Y-10528650D01*
X6758403Y-10528650D02*
X6777450Y-10538174D01*
X6777450Y-10538174D02*
X6786974Y-10557222D01*
X6786974Y-10557222D02*
X6786974Y-10661984D01*
X6786974Y-10557222D02*
X6796498Y-10538174D01*
X6796498Y-10538174D02*
X6815545Y-10528650D01*
X6815545Y-10528650D02*
X6844117Y-10528650D01*
X6844117Y-10528650D02*
X6863164Y-10538174D01*
X6863164Y-10538174D02*
X6872688Y-10557222D01*
X6872688Y-10557222D02*
X6872688Y-10661984D01*
X6967926Y-10661984D02*
X6967926Y-10528650D01*
X6967926Y-10547698D02*
X6977450Y-10538174D01*
X6977450Y-10538174D02*
X6996498Y-10528650D01*
X6996498Y-10528650D02*
X7025069Y-10528650D01*
X7025069Y-10528650D02*
X7044117Y-10538174D01*
X7044117Y-10538174D02*
X7053641Y-10557222D01*
X7053641Y-10557222D02*
X7053641Y-10661984D01*
X7053641Y-10557222D02*
X7063164Y-10538174D01*
X7063164Y-10538174D02*
X7082212Y-10528650D01*
X7082212Y-10528650D02*
X7110783Y-10528650D01*
X7110783Y-10528650D02*
X7129831Y-10538174D01*
X7129831Y-10538174D02*
X7139355Y-10557222D01*
X7139355Y-10557222D02*
X7139355Y-10661984D01*
X7529831Y-10452460D02*
X7358403Y-10709603D01*
X7786974Y-10461984D02*
X7806022Y-10461984D01*
X7806022Y-10461984D02*
X7825069Y-10471508D01*
X7825069Y-10471508D02*
X7834593Y-10481031D01*
X7834593Y-10481031D02*
X7844117Y-10500079D01*
X7844117Y-10500079D02*
X7853641Y-10538174D01*
X7853641Y-10538174D02*
X7853641Y-10585793D01*
X7853641Y-10585793D02*
X7844117Y-10623889D01*
X7844117Y-10623889D02*
X7834593Y-10642936D01*
X7834593Y-10642936D02*
X7825069Y-10652460D01*
X7825069Y-10652460D02*
X7806022Y-10661984D01*
X7806022Y-10661984D02*
X7786974Y-10661984D01*
X7786974Y-10661984D02*
X7767926Y-10652460D01*
X7767926Y-10652460D02*
X7758403Y-10642936D01*
X7758403Y-10642936D02*
X7748879Y-10623889D01*
X7748879Y-10623889D02*
X7739355Y-10585793D01*
X7739355Y-10585793D02*
X7739355Y-10538174D01*
X7739355Y-10538174D02*
X7748879Y-10500079D01*
X7748879Y-10500079D02*
X7758403Y-10481031D01*
X7758403Y-10481031D02*
X7767926Y-10471508D01*
X7767926Y-10471508D02*
X7786974Y-10461984D01*
X7939355Y-10642936D02*
X7948879Y-10652460D01*
X7948879Y-10652460D02*
X7939355Y-10661984D01*
X7939355Y-10661984D02*
X7929831Y-10652460D01*
X7929831Y-10652460D02*
X7939355Y-10642936D01*
X7939355Y-10642936D02*
X7939355Y-10661984D01*
X8072688Y-10461984D02*
X8091736Y-10461984D01*
X8091736Y-10461984D02*
X8110784Y-10471508D01*
X8110784Y-10471508D02*
X8120307Y-10481031D01*
X8120307Y-10481031D02*
X8129831Y-10500079D01*
X8129831Y-10500079D02*
X8139355Y-10538174D01*
X8139355Y-10538174D02*
X8139355Y-10585793D01*
X8139355Y-10585793D02*
X8129831Y-10623889D01*
X8129831Y-10623889D02*
X8120307Y-10642936D01*
X8120307Y-10642936D02*
X8110784Y-10652460D01*
X8110784Y-10652460D02*
X8091736Y-10661984D01*
X8091736Y-10661984D02*
X8072688Y-10661984D01*
X8072688Y-10661984D02*
X8053641Y-10652460D01*
X8053641Y-10652460D02*
X8044117Y-10642936D01*
X8044117Y-10642936D02*
X8034593Y-10623889D01*
X8034593Y-10623889D02*
X8025069Y-10585793D01*
X8025069Y-10585793D02*
X8025069Y-10538174D01*
X8025069Y-10538174D02*
X8034593Y-10500079D01*
X8034593Y-10500079D02*
X8044117Y-10481031D01*
X8044117Y-10481031D02*
X8053641Y-10471508D01*
X8053641Y-10471508D02*
X8072688Y-10461984D01*
X8206022Y-10461984D02*
X8329831Y-10461984D01*
X8329831Y-10461984D02*
X8263165Y-10538174D01*
X8263165Y-10538174D02*
X8291736Y-10538174D01*
X8291736Y-10538174D02*
X8310784Y-10547698D01*
X8310784Y-10547698D02*
X8320307Y-10557222D01*
X8320307Y-10557222D02*
X8329831Y-10576270D01*
X8329831Y-10576270D02*
X8329831Y-10623889D01*
X8329831Y-10623889D02*
X8320307Y-10642936D01*
X8320307Y-10642936D02*
X8310784Y-10652460D01*
X8310784Y-10652460D02*
X8291736Y-10661984D01*
X8291736Y-10661984D02*
X8234593Y-10661984D01*
X8234593Y-10661984D02*
X8215546Y-10652460D01*
X8215546Y-10652460D02*
X8206022Y-10642936D01*
X8520308Y-10661984D02*
X8406022Y-10661984D01*
X8463165Y-10661984D02*
X8463165Y-10461984D01*
X8463165Y-10461984D02*
X8444117Y-10490555D01*
X8444117Y-10490555D02*
X8425069Y-10509603D01*
X8425069Y-10509603D02*
X8406022Y-10519127D01*
X8701260Y-10461984D02*
X8606022Y-10461984D01*
X8606022Y-10461984D02*
X8596498Y-10557222D01*
X8596498Y-10557222D02*
X8606022Y-10547698D01*
X8606022Y-10547698D02*
X8625069Y-10538174D01*
X8625069Y-10538174D02*
X8672689Y-10538174D01*
X8672689Y-10538174D02*
X8691736Y-10547698D01*
X8691736Y-10547698D02*
X8701260Y-10557222D01*
X8701260Y-10557222D02*
X8710784Y-10576270D01*
X8710784Y-10576270D02*
X8710784Y-10623889D01*
X8710784Y-10623889D02*
X8701260Y-10642936D01*
X8701260Y-10642936D02*
X8691736Y-10652460D01*
X8691736Y-10652460D02*
X8672689Y-10661984D01*
X8672689Y-10661984D02*
X8625069Y-10661984D01*
X8625069Y-10661984D02*
X8606022Y-10652460D01*
X8606022Y-10652460D02*
X8596498Y-10642936D01*
X8786974Y-10461984D02*
X8786974Y-10500079D01*
X8863165Y-10461984D02*
X8863165Y-10500079D01*
X9158403Y-10738174D02*
X9148879Y-10728650D01*
X9148879Y-10728650D02*
X9129831Y-10700079D01*
X9129831Y-10700079D02*
X9120308Y-10681031D01*
X9120308Y-10681031D02*
X9110784Y-10652460D01*
X9110784Y-10652460D02*
X9101260Y-10604841D01*
X9101260Y-10604841D02*
X9101260Y-10566746D01*
X9101260Y-10566746D02*
X9110784Y-10519127D01*
X9110784Y-10519127D02*
X9120308Y-10490555D01*
X9120308Y-10490555D02*
X9129831Y-10471508D01*
X9129831Y-10471508D02*
X9148879Y-10442936D01*
X9148879Y-10442936D02*
X9158403Y-10433412D01*
X9339355Y-10661984D02*
X9225070Y-10661984D01*
X9282212Y-10661984D02*
X9282212Y-10461984D01*
X9282212Y-10461984D02*
X9263165Y-10490555D01*
X9263165Y-10490555D02*
X9244117Y-10509603D01*
X9244117Y-10509603D02*
X9225070Y-10519127D01*
X9510784Y-10461984D02*
X9472689Y-10461984D01*
X9472689Y-10461984D02*
X9453641Y-10471508D01*
X9453641Y-10471508D02*
X9444117Y-10481031D01*
X9444117Y-10481031D02*
X9425070Y-10509603D01*
X9425070Y-10509603D02*
X9415546Y-10547698D01*
X9415546Y-10547698D02*
X9415546Y-10623889D01*
X9415546Y-10623889D02*
X9425070Y-10642936D01*
X9425070Y-10642936D02*
X9434593Y-10652460D01*
X9434593Y-10652460D02*
X9453641Y-10661984D01*
X9453641Y-10661984D02*
X9491736Y-10661984D01*
X9491736Y-10661984D02*
X9510784Y-10652460D01*
X9510784Y-10652460D02*
X9520308Y-10642936D01*
X9520308Y-10642936D02*
X9529831Y-10623889D01*
X9529831Y-10623889D02*
X9529831Y-10576270D01*
X9529831Y-10576270D02*
X9520308Y-10557222D01*
X9520308Y-10557222D02*
X9510784Y-10547698D01*
X9510784Y-10547698D02*
X9491736Y-10538174D01*
X9491736Y-10538174D02*
X9453641Y-10538174D01*
X9453641Y-10538174D02*
X9434593Y-10547698D01*
X9434593Y-10547698D02*
X9425070Y-10557222D01*
X9425070Y-10557222D02*
X9415546Y-10576270D01*
X9767927Y-10661984D02*
X9767927Y-10461984D01*
X9853641Y-10661984D02*
X9853641Y-10557222D01*
X9853641Y-10557222D02*
X9844117Y-10538174D01*
X9844117Y-10538174D02*
X9825070Y-10528650D01*
X9825070Y-10528650D02*
X9796498Y-10528650D01*
X9796498Y-10528650D02*
X9777451Y-10538174D01*
X9777451Y-10538174D02*
X9767927Y-10547698D01*
X9977451Y-10661984D02*
X9958403Y-10652460D01*
X9958403Y-10652460D02*
X9948879Y-10642936D01*
X9948879Y-10642936D02*
X9939355Y-10623889D01*
X9939355Y-10623889D02*
X9939355Y-10566746D01*
X9939355Y-10566746D02*
X9948879Y-10547698D01*
X9948879Y-10547698D02*
X9958403Y-10538174D01*
X9958403Y-10538174D02*
X9977451Y-10528650D01*
X9977451Y-10528650D02*
X10006022Y-10528650D01*
X10006022Y-10528650D02*
X10025070Y-10538174D01*
X10025070Y-10538174D02*
X10034593Y-10547698D01*
X10034593Y-10547698D02*
X10044117Y-10566746D01*
X10044117Y-10566746D02*
X10044117Y-10623889D01*
X10044117Y-10623889D02*
X10034593Y-10642936D01*
X10034593Y-10642936D02*
X10025070Y-10652460D01*
X10025070Y-10652460D02*
X10006022Y-10661984D01*
X10006022Y-10661984D02*
X9977451Y-10661984D01*
X10158403Y-10661984D02*
X10139355Y-10652460D01*
X10139355Y-10652460D02*
X10129832Y-10633412D01*
X10129832Y-10633412D02*
X10129832Y-10461984D01*
X10310784Y-10652460D02*
X10291736Y-10661984D01*
X10291736Y-10661984D02*
X10253641Y-10661984D01*
X10253641Y-10661984D02*
X10234593Y-10652460D01*
X10234593Y-10652460D02*
X10225070Y-10633412D01*
X10225070Y-10633412D02*
X10225070Y-10557222D01*
X10225070Y-10557222D02*
X10234593Y-10538174D01*
X10234593Y-10538174D02*
X10253641Y-10528650D01*
X10253641Y-10528650D02*
X10291736Y-10528650D01*
X10291736Y-10528650D02*
X10310784Y-10538174D01*
X10310784Y-10538174D02*
X10320308Y-10557222D01*
X10320308Y-10557222D02*
X10320308Y-10576270D01*
X10320308Y-10576270D02*
X10225070Y-10595317D01*
X10396498Y-10652460D02*
X10415546Y-10661984D01*
X10415546Y-10661984D02*
X10453641Y-10661984D01*
X10453641Y-10661984D02*
X10472689Y-10652460D01*
X10472689Y-10652460D02*
X10482213Y-10633412D01*
X10482213Y-10633412D02*
X10482213Y-10623889D01*
X10482213Y-10623889D02*
X10472689Y-10604841D01*
X10472689Y-10604841D02*
X10453641Y-10595317D01*
X10453641Y-10595317D02*
X10425070Y-10595317D01*
X10425070Y-10595317D02*
X10406022Y-10585793D01*
X10406022Y-10585793D02*
X10396498Y-10566746D01*
X10396498Y-10566746D02*
X10396498Y-10557222D01*
X10396498Y-10557222D02*
X10406022Y-10538174D01*
X10406022Y-10538174D02*
X10425070Y-10528650D01*
X10425070Y-10528650D02*
X10453641Y-10528650D01*
X10453641Y-10528650D02*
X10472689Y-10538174D01*
X10548879Y-10738174D02*
X10558403Y-10728650D01*
X10558403Y-10728650D02*
X10577451Y-10700079D01*
X10577451Y-10700079D02*
X10586974Y-10681031D01*
X10586974Y-10681031D02*
X10596498Y-10652460D01*
X10596498Y-10652460D02*
X10606022Y-10604841D01*
X10606022Y-10604841D02*
X10606022Y-10566746D01*
X10606022Y-10566746D02*
X10596498Y-10519127D01*
X10596498Y-10519127D02*
X10586974Y-10490555D01*
X10586974Y-10490555D02*
X10577451Y-10471508D01*
X10577451Y-10471508D02*
X10558403Y-10442936D01*
X10558403Y-10442936D02*
X10548879Y-10433412D01*
D12*
X5570160Y-10866320D02*
X5570160Y-10802680D01*
X5506520Y-10802680D01*
X5506520Y-10866320D01*
X5570160Y-10866320D01*
D11*
X5882212Y-10725984D02*
X5901260Y-10725984D01*
X5901260Y-10725984D02*
X5920307Y-10735508D01*
X5920307Y-10735508D02*
X5929831Y-10745031D01*
X5929831Y-10745031D02*
X5939355Y-10764079D01*
X5939355Y-10764079D02*
X5948879Y-10802174D01*
X5948879Y-10802174D02*
X5948879Y-10849793D01*
X5948879Y-10849793D02*
X5939355Y-10887889D01*
X5939355Y-10887889D02*
X5929831Y-10906936D01*
X5929831Y-10906936D02*
X5920307Y-10916460D01*
X5920307Y-10916460D02*
X5901260Y-10925984D01*
X5901260Y-10925984D02*
X5882212Y-10925984D01*
X5882212Y-10925984D02*
X5863164Y-10916460D01*
X5863164Y-10916460D02*
X5853641Y-10906936D01*
X5853641Y-10906936D02*
X5844117Y-10887889D01*
X5844117Y-10887889D02*
X5834593Y-10849793D01*
X5834593Y-10849793D02*
X5834593Y-10802174D01*
X5834593Y-10802174D02*
X5844117Y-10764079D01*
X5844117Y-10764079D02*
X5853641Y-10745031D01*
X5853641Y-10745031D02*
X5863164Y-10735508D01*
X5863164Y-10735508D02*
X5882212Y-10725984D01*
X6034593Y-10906936D02*
X6044117Y-10916460D01*
X6044117Y-10916460D02*
X6034593Y-10925984D01*
X6034593Y-10925984D02*
X6025069Y-10916460D01*
X6025069Y-10916460D02*
X6034593Y-10906936D01*
X6034593Y-10906936D02*
X6034593Y-10925984D01*
X6139355Y-10925984D02*
X6177450Y-10925984D01*
X6177450Y-10925984D02*
X6196498Y-10916460D01*
X6196498Y-10916460D02*
X6206022Y-10906936D01*
X6206022Y-10906936D02*
X6225069Y-10878365D01*
X6225069Y-10878365D02*
X6234593Y-10840270D01*
X6234593Y-10840270D02*
X6234593Y-10764079D01*
X6234593Y-10764079D02*
X6225069Y-10745031D01*
X6225069Y-10745031D02*
X6215545Y-10735508D01*
X6215545Y-10735508D02*
X6196498Y-10725984D01*
X6196498Y-10725984D02*
X6158402Y-10725984D01*
X6158402Y-10725984D02*
X6139355Y-10735508D01*
X6139355Y-10735508D02*
X6129831Y-10745031D01*
X6129831Y-10745031D02*
X6120307Y-10764079D01*
X6120307Y-10764079D02*
X6120307Y-10811698D01*
X6120307Y-10811698D02*
X6129831Y-10830746D01*
X6129831Y-10830746D02*
X6139355Y-10840270D01*
X6139355Y-10840270D02*
X6158402Y-10849793D01*
X6158402Y-10849793D02*
X6196498Y-10849793D01*
X6196498Y-10849793D02*
X6215545Y-10840270D01*
X6215545Y-10840270D02*
X6225069Y-10830746D01*
X6225069Y-10830746D02*
X6234593Y-10811698D01*
X6358402Y-10725984D02*
X6377450Y-10725984D01*
X6377450Y-10725984D02*
X6396498Y-10735508D01*
X6396498Y-10735508D02*
X6406022Y-10745031D01*
X6406022Y-10745031D02*
X6415545Y-10764079D01*
X6415545Y-10764079D02*
X6425069Y-10802174D01*
X6425069Y-10802174D02*
X6425069Y-10849793D01*
X6425069Y-10849793D02*
X6415545Y-10887889D01*
X6415545Y-10887889D02*
X6406022Y-10906936D01*
X6406022Y-10906936D02*
X6396498Y-10916460D01*
X6396498Y-10916460D02*
X6377450Y-10925984D01*
X6377450Y-10925984D02*
X6358402Y-10925984D01*
X6358402Y-10925984D02*
X6339355Y-10916460D01*
X6339355Y-10916460D02*
X6329831Y-10906936D01*
X6329831Y-10906936D02*
X6320307Y-10887889D01*
X6320307Y-10887889D02*
X6310783Y-10849793D01*
X6310783Y-10849793D02*
X6310783Y-10802174D01*
X6310783Y-10802174D02*
X6320307Y-10764079D01*
X6320307Y-10764079D02*
X6329831Y-10745031D01*
X6329831Y-10745031D02*
X6339355Y-10735508D01*
X6339355Y-10735508D02*
X6358402Y-10725984D01*
X6548879Y-10725984D02*
X6567926Y-10725984D01*
X6567926Y-10725984D02*
X6586974Y-10735508D01*
X6586974Y-10735508D02*
X6596498Y-10745031D01*
X6596498Y-10745031D02*
X6606022Y-10764079D01*
X6606022Y-10764079D02*
X6615545Y-10802174D01*
X6615545Y-10802174D02*
X6615545Y-10849793D01*
X6615545Y-10849793D02*
X6606022Y-10887889D01*
X6606022Y-10887889D02*
X6596498Y-10906936D01*
X6596498Y-10906936D02*
X6586974Y-10916460D01*
X6586974Y-10916460D02*
X6567926Y-10925984D01*
X6567926Y-10925984D02*
X6548879Y-10925984D01*
X6548879Y-10925984D02*
X6529831Y-10916460D01*
X6529831Y-10916460D02*
X6520307Y-10906936D01*
X6520307Y-10906936D02*
X6510783Y-10887889D01*
X6510783Y-10887889D02*
X6501260Y-10849793D01*
X6501260Y-10849793D02*
X6501260Y-10802174D01*
X6501260Y-10802174D02*
X6510783Y-10764079D01*
X6510783Y-10764079D02*
X6520307Y-10745031D01*
X6520307Y-10745031D02*
X6529831Y-10735508D01*
X6529831Y-10735508D02*
X6548879Y-10725984D01*
X6701260Y-10925984D02*
X6701260Y-10792650D01*
X6701260Y-10811698D02*
X6710783Y-10802174D01*
X6710783Y-10802174D02*
X6729831Y-10792650D01*
X6729831Y-10792650D02*
X6758403Y-10792650D01*
X6758403Y-10792650D02*
X6777450Y-10802174D01*
X6777450Y-10802174D02*
X6786974Y-10821222D01*
X6786974Y-10821222D02*
X6786974Y-10925984D01*
X6786974Y-10821222D02*
X6796498Y-10802174D01*
X6796498Y-10802174D02*
X6815545Y-10792650D01*
X6815545Y-10792650D02*
X6844117Y-10792650D01*
X6844117Y-10792650D02*
X6863164Y-10802174D01*
X6863164Y-10802174D02*
X6872688Y-10821222D01*
X6872688Y-10821222D02*
X6872688Y-10925984D01*
X6967926Y-10925984D02*
X6967926Y-10792650D01*
X6967926Y-10811698D02*
X6977450Y-10802174D01*
X6977450Y-10802174D02*
X6996498Y-10792650D01*
X6996498Y-10792650D02*
X7025069Y-10792650D01*
X7025069Y-10792650D02*
X7044117Y-10802174D01*
X7044117Y-10802174D02*
X7053641Y-10821222D01*
X7053641Y-10821222D02*
X7053641Y-10925984D01*
X7053641Y-10821222D02*
X7063164Y-10802174D01*
X7063164Y-10802174D02*
X7082212Y-10792650D01*
X7082212Y-10792650D02*
X7110783Y-10792650D01*
X7110783Y-10792650D02*
X7129831Y-10802174D01*
X7129831Y-10802174D02*
X7139355Y-10821222D01*
X7139355Y-10821222D02*
X7139355Y-10925984D01*
X7529831Y-10716460D02*
X7358403Y-10973603D01*
X7786974Y-10725984D02*
X7806022Y-10725984D01*
X7806022Y-10725984D02*
X7825069Y-10735508D01*
X7825069Y-10735508D02*
X7834593Y-10745031D01*
X7834593Y-10745031D02*
X7844117Y-10764079D01*
X7844117Y-10764079D02*
X7853641Y-10802174D01*
X7853641Y-10802174D02*
X7853641Y-10849793D01*
X7853641Y-10849793D02*
X7844117Y-10887889D01*
X7844117Y-10887889D02*
X7834593Y-10906936D01*
X7834593Y-10906936D02*
X7825069Y-10916460D01*
X7825069Y-10916460D02*
X7806022Y-10925984D01*
X7806022Y-10925984D02*
X7786974Y-10925984D01*
X7786974Y-10925984D02*
X7767926Y-10916460D01*
X7767926Y-10916460D02*
X7758403Y-10906936D01*
X7758403Y-10906936D02*
X7748879Y-10887889D01*
X7748879Y-10887889D02*
X7739355Y-10849793D01*
X7739355Y-10849793D02*
X7739355Y-10802174D01*
X7739355Y-10802174D02*
X7748879Y-10764079D01*
X7748879Y-10764079D02*
X7758403Y-10745031D01*
X7758403Y-10745031D02*
X7767926Y-10735508D01*
X7767926Y-10735508D02*
X7786974Y-10725984D01*
X7939355Y-10906936D02*
X7948879Y-10916460D01*
X7948879Y-10916460D02*
X7939355Y-10925984D01*
X7939355Y-10925984D02*
X7929831Y-10916460D01*
X7929831Y-10916460D02*
X7939355Y-10906936D01*
X7939355Y-10906936D02*
X7939355Y-10925984D01*
X8072688Y-10725984D02*
X8091736Y-10725984D01*
X8091736Y-10725984D02*
X8110784Y-10735508D01*
X8110784Y-10735508D02*
X8120307Y-10745031D01*
X8120307Y-10745031D02*
X8129831Y-10764079D01*
X8129831Y-10764079D02*
X8139355Y-10802174D01*
X8139355Y-10802174D02*
X8139355Y-10849793D01*
X8139355Y-10849793D02*
X8129831Y-10887889D01*
X8129831Y-10887889D02*
X8120307Y-10906936D01*
X8120307Y-10906936D02*
X8110784Y-10916460D01*
X8110784Y-10916460D02*
X8091736Y-10925984D01*
X8091736Y-10925984D02*
X8072688Y-10925984D01*
X8072688Y-10925984D02*
X8053641Y-10916460D01*
X8053641Y-10916460D02*
X8044117Y-10906936D01*
X8044117Y-10906936D02*
X8034593Y-10887889D01*
X8034593Y-10887889D02*
X8025069Y-10849793D01*
X8025069Y-10849793D02*
X8025069Y-10802174D01*
X8025069Y-10802174D02*
X8034593Y-10764079D01*
X8034593Y-10764079D02*
X8044117Y-10745031D01*
X8044117Y-10745031D02*
X8053641Y-10735508D01*
X8053641Y-10735508D02*
X8072688Y-10725984D01*
X8206022Y-10725984D02*
X8329831Y-10725984D01*
X8329831Y-10725984D02*
X8263165Y-10802174D01*
X8263165Y-10802174D02*
X8291736Y-10802174D01*
X8291736Y-10802174D02*
X8310784Y-10811698D01*
X8310784Y-10811698D02*
X8320307Y-10821222D01*
X8320307Y-10821222D02*
X8329831Y-10840270D01*
X8329831Y-10840270D02*
X8329831Y-10887889D01*
X8329831Y-10887889D02*
X8320307Y-10906936D01*
X8320307Y-10906936D02*
X8310784Y-10916460D01*
X8310784Y-10916460D02*
X8291736Y-10925984D01*
X8291736Y-10925984D02*
X8234593Y-10925984D01*
X8234593Y-10925984D02*
X8215546Y-10916460D01*
X8215546Y-10916460D02*
X8206022Y-10906936D01*
X8510784Y-10725984D02*
X8415546Y-10725984D01*
X8415546Y-10725984D02*
X8406022Y-10821222D01*
X8406022Y-10821222D02*
X8415546Y-10811698D01*
X8415546Y-10811698D02*
X8434593Y-10802174D01*
X8434593Y-10802174D02*
X8482212Y-10802174D01*
X8482212Y-10802174D02*
X8501260Y-10811698D01*
X8501260Y-10811698D02*
X8510784Y-10821222D01*
X8510784Y-10821222D02*
X8520308Y-10840270D01*
X8520308Y-10840270D02*
X8520308Y-10887889D01*
X8520308Y-10887889D02*
X8510784Y-10906936D01*
X8510784Y-10906936D02*
X8501260Y-10916460D01*
X8501260Y-10916460D02*
X8482212Y-10925984D01*
X8482212Y-10925984D02*
X8434593Y-10925984D01*
X8434593Y-10925984D02*
X8415546Y-10916460D01*
X8415546Y-10916460D02*
X8406022Y-10906936D01*
X8691736Y-10792650D02*
X8691736Y-10925984D01*
X8644117Y-10716460D02*
X8596498Y-10859317D01*
X8596498Y-10859317D02*
X8720308Y-10859317D01*
X8786974Y-10725984D02*
X8786974Y-10764079D01*
X8863165Y-10725984D02*
X8863165Y-10764079D01*
X9158403Y-11002174D02*
X9148879Y-10992650D01*
X9148879Y-10992650D02*
X9129831Y-10964079D01*
X9129831Y-10964079D02*
X9120308Y-10945031D01*
X9120308Y-10945031D02*
X9110784Y-10916460D01*
X9110784Y-10916460D02*
X9101260Y-10868841D01*
X9101260Y-10868841D02*
X9101260Y-10830746D01*
X9101260Y-10830746D02*
X9110784Y-10783127D01*
X9110784Y-10783127D02*
X9120308Y-10754555D01*
X9120308Y-10754555D02*
X9129831Y-10735508D01*
X9129831Y-10735508D02*
X9148879Y-10706936D01*
X9148879Y-10706936D02*
X9158403Y-10697412D01*
X9320308Y-10725984D02*
X9282212Y-10725984D01*
X9282212Y-10725984D02*
X9263165Y-10735508D01*
X9263165Y-10735508D02*
X9253641Y-10745031D01*
X9253641Y-10745031D02*
X9234593Y-10773603D01*
X9234593Y-10773603D02*
X9225070Y-10811698D01*
X9225070Y-10811698D02*
X9225070Y-10887889D01*
X9225070Y-10887889D02*
X9234593Y-10906936D01*
X9234593Y-10906936D02*
X9244117Y-10916460D01*
X9244117Y-10916460D02*
X9263165Y-10925984D01*
X9263165Y-10925984D02*
X9301260Y-10925984D01*
X9301260Y-10925984D02*
X9320308Y-10916460D01*
X9320308Y-10916460D02*
X9329831Y-10906936D01*
X9329831Y-10906936D02*
X9339355Y-10887889D01*
X9339355Y-10887889D02*
X9339355Y-10840270D01*
X9339355Y-10840270D02*
X9329831Y-10821222D01*
X9329831Y-10821222D02*
X9320308Y-10811698D01*
X9320308Y-10811698D02*
X9301260Y-10802174D01*
X9301260Y-10802174D02*
X9263165Y-10802174D01*
X9263165Y-10802174D02*
X9244117Y-10811698D01*
X9244117Y-10811698D02*
X9234593Y-10821222D01*
X9234593Y-10821222D02*
X9225070Y-10840270D01*
X9577451Y-10925984D02*
X9577451Y-10725984D01*
X9663165Y-10925984D02*
X9663165Y-10821222D01*
X9663165Y-10821222D02*
X9653641Y-10802174D01*
X9653641Y-10802174D02*
X9634593Y-10792650D01*
X9634593Y-10792650D02*
X9606022Y-10792650D01*
X9606022Y-10792650D02*
X9586974Y-10802174D01*
X9586974Y-10802174D02*
X9577451Y-10811698D01*
X9786974Y-10925984D02*
X9767927Y-10916460D01*
X9767927Y-10916460D02*
X9758403Y-10906936D01*
X9758403Y-10906936D02*
X9748879Y-10887889D01*
X9748879Y-10887889D02*
X9748879Y-10830746D01*
X9748879Y-10830746D02*
X9758403Y-10811698D01*
X9758403Y-10811698D02*
X9767927Y-10802174D01*
X9767927Y-10802174D02*
X9786974Y-10792650D01*
X9786974Y-10792650D02*
X9815546Y-10792650D01*
X9815546Y-10792650D02*
X9834593Y-10802174D01*
X9834593Y-10802174D02*
X9844117Y-10811698D01*
X9844117Y-10811698D02*
X9853641Y-10830746D01*
X9853641Y-10830746D02*
X9853641Y-10887889D01*
X9853641Y-10887889D02*
X9844117Y-10906936D01*
X9844117Y-10906936D02*
X9834593Y-10916460D01*
X9834593Y-10916460D02*
X9815546Y-10925984D01*
X9815546Y-10925984D02*
X9786974Y-10925984D01*
X9967927Y-10925984D02*
X9948879Y-10916460D01*
X9948879Y-10916460D02*
X9939355Y-10897412D01*
X9939355Y-10897412D02*
X9939355Y-10725984D01*
X10120308Y-10916460D02*
X10101260Y-10925984D01*
X10101260Y-10925984D02*
X10063165Y-10925984D01*
X10063165Y-10925984D02*
X10044117Y-10916460D01*
X10044117Y-10916460D02*
X10034593Y-10897412D01*
X10034593Y-10897412D02*
X10034593Y-10821222D01*
X10034593Y-10821222D02*
X10044117Y-10802174D01*
X10044117Y-10802174D02*
X10063165Y-10792650D01*
X10063165Y-10792650D02*
X10101260Y-10792650D01*
X10101260Y-10792650D02*
X10120308Y-10802174D01*
X10120308Y-10802174D02*
X10129832Y-10821222D01*
X10129832Y-10821222D02*
X10129832Y-10840270D01*
X10129832Y-10840270D02*
X10034593Y-10859317D01*
X10206022Y-10916460D02*
X10225070Y-10925984D01*
X10225070Y-10925984D02*
X10263165Y-10925984D01*
X10263165Y-10925984D02*
X10282213Y-10916460D01*
X10282213Y-10916460D02*
X10291736Y-10897412D01*
X10291736Y-10897412D02*
X10291736Y-10887889D01*
X10291736Y-10887889D02*
X10282213Y-10868841D01*
X10282213Y-10868841D02*
X10263165Y-10859317D01*
X10263165Y-10859317D02*
X10234593Y-10859317D01*
X10234593Y-10859317D02*
X10215546Y-10849793D01*
X10215546Y-10849793D02*
X10206022Y-10830746D01*
X10206022Y-10830746D02*
X10206022Y-10821222D01*
X10206022Y-10821222D02*
X10215546Y-10802174D01*
X10215546Y-10802174D02*
X10234593Y-10792650D01*
X10234593Y-10792650D02*
X10263165Y-10792650D01*
X10263165Y-10792650D02*
X10282213Y-10802174D01*
X10358403Y-11002174D02*
X10367927Y-10992650D01*
X10367927Y-10992650D02*
X10386974Y-10964079D01*
X10386974Y-10964079D02*
X10396498Y-10945031D01*
X10396498Y-10945031D02*
X10406022Y-10916460D01*
X10406022Y-10916460D02*
X10415546Y-10868841D01*
X10415546Y-10868841D02*
X10415546Y-10830746D01*
X10415546Y-10830746D02*
X10406022Y-10783127D01*
X10406022Y-10783127D02*
X10396498Y-10754555D01*
X10396498Y-10754555D02*
X10386974Y-10735508D01*
X10386974Y-10735508D02*
X10367927Y-10706936D01*
X10367927Y-10706936D02*
X10358403Y-10697412D01*
D12*
X5533340Y-11148500D02*
X5583340Y-11098500D01*
X5533340Y-11048500D01*
X5483340Y-11098500D01*
X5533340Y-11148500D01*
D11*
X5948879Y-11189984D02*
X5834593Y-11189984D01*
X5891736Y-11189984D02*
X5891736Y-10989984D01*
X5891736Y-10989984D02*
X5872688Y-11018555D01*
X5872688Y-11018555D02*
X5853641Y-11037603D01*
X5853641Y-11037603D02*
X5834593Y-11047127D01*
X6034593Y-11170936D02*
X6044117Y-11180460D01*
X6044117Y-11180460D02*
X6034593Y-11189984D01*
X6034593Y-11189984D02*
X6025069Y-11180460D01*
X6025069Y-11180460D02*
X6034593Y-11170936D01*
X6034593Y-11170936D02*
X6034593Y-11189984D01*
X6167926Y-10989984D02*
X6186974Y-10989984D01*
X6186974Y-10989984D02*
X6206022Y-10999508D01*
X6206022Y-10999508D02*
X6215545Y-11009031D01*
X6215545Y-11009031D02*
X6225069Y-11028079D01*
X6225069Y-11028079D02*
X6234593Y-11066174D01*
X6234593Y-11066174D02*
X6234593Y-11113793D01*
X6234593Y-11113793D02*
X6225069Y-11151889D01*
X6225069Y-11151889D02*
X6215545Y-11170936D01*
X6215545Y-11170936D02*
X6206022Y-11180460D01*
X6206022Y-11180460D02*
X6186974Y-11189984D01*
X6186974Y-11189984D02*
X6167926Y-11189984D01*
X6167926Y-11189984D02*
X6148879Y-11180460D01*
X6148879Y-11180460D02*
X6139355Y-11170936D01*
X6139355Y-11170936D02*
X6129831Y-11151889D01*
X6129831Y-11151889D02*
X6120307Y-11113793D01*
X6120307Y-11113793D02*
X6120307Y-11066174D01*
X6120307Y-11066174D02*
X6129831Y-11028079D01*
X6129831Y-11028079D02*
X6139355Y-11009031D01*
X6139355Y-11009031D02*
X6148879Y-10999508D01*
X6148879Y-10999508D02*
X6167926Y-10989984D01*
X6358402Y-10989984D02*
X6377450Y-10989984D01*
X6377450Y-10989984D02*
X6396498Y-10999508D01*
X6396498Y-10999508D02*
X6406022Y-11009031D01*
X6406022Y-11009031D02*
X6415545Y-11028079D01*
X6415545Y-11028079D02*
X6425069Y-11066174D01*
X6425069Y-11066174D02*
X6425069Y-11113793D01*
X6425069Y-11113793D02*
X6415545Y-11151889D01*
X6415545Y-11151889D02*
X6406022Y-11170936D01*
X6406022Y-11170936D02*
X6396498Y-11180460D01*
X6396498Y-11180460D02*
X6377450Y-11189984D01*
X6377450Y-11189984D02*
X6358402Y-11189984D01*
X6358402Y-11189984D02*
X6339355Y-11180460D01*
X6339355Y-11180460D02*
X6329831Y-11170936D01*
X6329831Y-11170936D02*
X6320307Y-11151889D01*
X6320307Y-11151889D02*
X6310783Y-11113793D01*
X6310783Y-11113793D02*
X6310783Y-11066174D01*
X6310783Y-11066174D02*
X6320307Y-11028079D01*
X6320307Y-11028079D02*
X6329831Y-11009031D01*
X6329831Y-11009031D02*
X6339355Y-10999508D01*
X6339355Y-10999508D02*
X6358402Y-10989984D01*
X6548879Y-10989984D02*
X6567926Y-10989984D01*
X6567926Y-10989984D02*
X6586974Y-10999508D01*
X6586974Y-10999508D02*
X6596498Y-11009031D01*
X6596498Y-11009031D02*
X6606022Y-11028079D01*
X6606022Y-11028079D02*
X6615545Y-11066174D01*
X6615545Y-11066174D02*
X6615545Y-11113793D01*
X6615545Y-11113793D02*
X6606022Y-11151889D01*
X6606022Y-11151889D02*
X6596498Y-11170936D01*
X6596498Y-11170936D02*
X6586974Y-11180460D01*
X6586974Y-11180460D02*
X6567926Y-11189984D01*
X6567926Y-11189984D02*
X6548879Y-11189984D01*
X6548879Y-11189984D02*
X6529831Y-11180460D01*
X6529831Y-11180460D02*
X6520307Y-11170936D01*
X6520307Y-11170936D02*
X6510783Y-11151889D01*
X6510783Y-11151889D02*
X6501260Y-11113793D01*
X6501260Y-11113793D02*
X6501260Y-11066174D01*
X6501260Y-11066174D02*
X6510783Y-11028079D01*
X6510783Y-11028079D02*
X6520307Y-11009031D01*
X6520307Y-11009031D02*
X6529831Y-10999508D01*
X6529831Y-10999508D02*
X6548879Y-10989984D01*
X6701260Y-11189984D02*
X6701260Y-11056650D01*
X6701260Y-11075698D02*
X6710783Y-11066174D01*
X6710783Y-11066174D02*
X6729831Y-11056650D01*
X6729831Y-11056650D02*
X6758403Y-11056650D01*
X6758403Y-11056650D02*
X6777450Y-11066174D01*
X6777450Y-11066174D02*
X6786974Y-11085222D01*
X6786974Y-11085222D02*
X6786974Y-11189984D01*
X6786974Y-11085222D02*
X6796498Y-11066174D01*
X6796498Y-11066174D02*
X6815545Y-11056650D01*
X6815545Y-11056650D02*
X6844117Y-11056650D01*
X6844117Y-11056650D02*
X6863164Y-11066174D01*
X6863164Y-11066174D02*
X6872688Y-11085222D01*
X6872688Y-11085222D02*
X6872688Y-11189984D01*
X6967926Y-11189984D02*
X6967926Y-11056650D01*
X6967926Y-11075698D02*
X6977450Y-11066174D01*
X6977450Y-11066174D02*
X6996498Y-11056650D01*
X6996498Y-11056650D02*
X7025069Y-11056650D01*
X7025069Y-11056650D02*
X7044117Y-11066174D01*
X7044117Y-11066174D02*
X7053641Y-11085222D01*
X7053641Y-11085222D02*
X7053641Y-11189984D01*
X7053641Y-11085222D02*
X7063164Y-11066174D01*
X7063164Y-11066174D02*
X7082212Y-11056650D01*
X7082212Y-11056650D02*
X7110783Y-11056650D01*
X7110783Y-11056650D02*
X7129831Y-11066174D01*
X7129831Y-11066174D02*
X7139355Y-11085222D01*
X7139355Y-11085222D02*
X7139355Y-11189984D01*
X7529831Y-10980460D02*
X7358403Y-11237603D01*
X7786974Y-10989984D02*
X7806022Y-10989984D01*
X7806022Y-10989984D02*
X7825069Y-10999508D01*
X7825069Y-10999508D02*
X7834593Y-11009031D01*
X7834593Y-11009031D02*
X7844117Y-11028079D01*
X7844117Y-11028079D02*
X7853641Y-11066174D01*
X7853641Y-11066174D02*
X7853641Y-11113793D01*
X7853641Y-11113793D02*
X7844117Y-11151889D01*
X7844117Y-11151889D02*
X7834593Y-11170936D01*
X7834593Y-11170936D02*
X7825069Y-11180460D01*
X7825069Y-11180460D02*
X7806022Y-11189984D01*
X7806022Y-11189984D02*
X7786974Y-11189984D01*
X7786974Y-11189984D02*
X7767926Y-11180460D01*
X7767926Y-11180460D02*
X7758403Y-11170936D01*
X7758403Y-11170936D02*
X7748879Y-11151889D01*
X7748879Y-11151889D02*
X7739355Y-11113793D01*
X7739355Y-11113793D02*
X7739355Y-11066174D01*
X7739355Y-11066174D02*
X7748879Y-11028079D01*
X7748879Y-11028079D02*
X7758403Y-11009031D01*
X7758403Y-11009031D02*
X7767926Y-10999508D01*
X7767926Y-10999508D02*
X7786974Y-10989984D01*
X7939355Y-11170936D02*
X7948879Y-11180460D01*
X7948879Y-11180460D02*
X7939355Y-11189984D01*
X7939355Y-11189984D02*
X7929831Y-11180460D01*
X7929831Y-11180460D02*
X7939355Y-11170936D01*
X7939355Y-11170936D02*
X7939355Y-11189984D01*
X8072688Y-10989984D02*
X8091736Y-10989984D01*
X8091736Y-10989984D02*
X8110784Y-10999508D01*
X8110784Y-10999508D02*
X8120307Y-11009031D01*
X8120307Y-11009031D02*
X8129831Y-11028079D01*
X8129831Y-11028079D02*
X8139355Y-11066174D01*
X8139355Y-11066174D02*
X8139355Y-11113793D01*
X8139355Y-11113793D02*
X8129831Y-11151889D01*
X8129831Y-11151889D02*
X8120307Y-11170936D01*
X8120307Y-11170936D02*
X8110784Y-11180460D01*
X8110784Y-11180460D02*
X8091736Y-11189984D01*
X8091736Y-11189984D02*
X8072688Y-11189984D01*
X8072688Y-11189984D02*
X8053641Y-11180460D01*
X8053641Y-11180460D02*
X8044117Y-11170936D01*
X8044117Y-11170936D02*
X8034593Y-11151889D01*
X8034593Y-11151889D02*
X8025069Y-11113793D01*
X8025069Y-11113793D02*
X8025069Y-11066174D01*
X8025069Y-11066174D02*
X8034593Y-11028079D01*
X8034593Y-11028079D02*
X8044117Y-11009031D01*
X8044117Y-11009031D02*
X8053641Y-10999508D01*
X8053641Y-10999508D02*
X8072688Y-10989984D01*
X8206022Y-10989984D02*
X8329831Y-10989984D01*
X8329831Y-10989984D02*
X8263165Y-11066174D01*
X8263165Y-11066174D02*
X8291736Y-11066174D01*
X8291736Y-11066174D02*
X8310784Y-11075698D01*
X8310784Y-11075698D02*
X8320307Y-11085222D01*
X8320307Y-11085222D02*
X8329831Y-11104270D01*
X8329831Y-11104270D02*
X8329831Y-11151889D01*
X8329831Y-11151889D02*
X8320307Y-11170936D01*
X8320307Y-11170936D02*
X8310784Y-11180460D01*
X8310784Y-11180460D02*
X8291736Y-11189984D01*
X8291736Y-11189984D02*
X8234593Y-11189984D01*
X8234593Y-11189984D02*
X8215546Y-11180460D01*
X8215546Y-11180460D02*
X8206022Y-11170936D01*
X8425069Y-11189984D02*
X8463165Y-11189984D01*
X8463165Y-11189984D02*
X8482212Y-11180460D01*
X8482212Y-11180460D02*
X8491736Y-11170936D01*
X8491736Y-11170936D02*
X8510784Y-11142365D01*
X8510784Y-11142365D02*
X8520308Y-11104270D01*
X8520308Y-11104270D02*
X8520308Y-11028079D01*
X8520308Y-11028079D02*
X8510784Y-11009031D01*
X8510784Y-11009031D02*
X8501260Y-10999508D01*
X8501260Y-10999508D02*
X8482212Y-10989984D01*
X8482212Y-10989984D02*
X8444117Y-10989984D01*
X8444117Y-10989984D02*
X8425069Y-10999508D01*
X8425069Y-10999508D02*
X8415546Y-11009031D01*
X8415546Y-11009031D02*
X8406022Y-11028079D01*
X8406022Y-11028079D02*
X8406022Y-11075698D01*
X8406022Y-11075698D02*
X8415546Y-11094746D01*
X8415546Y-11094746D02*
X8425069Y-11104270D01*
X8425069Y-11104270D02*
X8444117Y-11113793D01*
X8444117Y-11113793D02*
X8482212Y-11113793D01*
X8482212Y-11113793D02*
X8501260Y-11104270D01*
X8501260Y-11104270D02*
X8510784Y-11094746D01*
X8510784Y-11094746D02*
X8520308Y-11075698D01*
X8691736Y-11056650D02*
X8691736Y-11189984D01*
X8644117Y-10980460D02*
X8596498Y-11123317D01*
X8596498Y-11123317D02*
X8720308Y-11123317D01*
X8786974Y-10989984D02*
X8786974Y-11028079D01*
X8863165Y-10989984D02*
X8863165Y-11028079D01*
X9158403Y-11266174D02*
X9148879Y-11256650D01*
X9148879Y-11256650D02*
X9129831Y-11228079D01*
X9129831Y-11228079D02*
X9120308Y-11209031D01*
X9120308Y-11209031D02*
X9110784Y-11180460D01*
X9110784Y-11180460D02*
X9101260Y-11132841D01*
X9101260Y-11132841D02*
X9101260Y-11094746D01*
X9101260Y-11094746D02*
X9110784Y-11047127D01*
X9110784Y-11047127D02*
X9120308Y-11018555D01*
X9120308Y-11018555D02*
X9129831Y-10999508D01*
X9129831Y-10999508D02*
X9148879Y-10970936D01*
X9148879Y-10970936D02*
X9158403Y-10961412D01*
X9339355Y-11189984D02*
X9225070Y-11189984D01*
X9282212Y-11189984D02*
X9282212Y-10989984D01*
X9282212Y-10989984D02*
X9263165Y-11018555D01*
X9263165Y-11018555D02*
X9244117Y-11037603D01*
X9244117Y-11037603D02*
X9225070Y-11047127D01*
X9406022Y-10989984D02*
X9529831Y-10989984D01*
X9529831Y-10989984D02*
X9463165Y-11066174D01*
X9463165Y-11066174D02*
X9491736Y-11066174D01*
X9491736Y-11066174D02*
X9510784Y-11075698D01*
X9510784Y-11075698D02*
X9520308Y-11085222D01*
X9520308Y-11085222D02*
X9529831Y-11104270D01*
X9529831Y-11104270D02*
X9529831Y-11151889D01*
X9529831Y-11151889D02*
X9520308Y-11170936D01*
X9520308Y-11170936D02*
X9510784Y-11180460D01*
X9510784Y-11180460D02*
X9491736Y-11189984D01*
X9491736Y-11189984D02*
X9434593Y-11189984D01*
X9434593Y-11189984D02*
X9415546Y-11180460D01*
X9415546Y-11180460D02*
X9406022Y-11170936D01*
X9767927Y-11189984D02*
X9767927Y-10989984D01*
X9853641Y-11189984D02*
X9853641Y-11085222D01*
X9853641Y-11085222D02*
X9844117Y-11066174D01*
X9844117Y-11066174D02*
X9825070Y-11056650D01*
X9825070Y-11056650D02*
X9796498Y-11056650D01*
X9796498Y-11056650D02*
X9777451Y-11066174D01*
X9777451Y-11066174D02*
X9767927Y-11075698D01*
X9977451Y-11189984D02*
X9958403Y-11180460D01*
X9958403Y-11180460D02*
X9948879Y-11170936D01*
X9948879Y-11170936D02*
X9939355Y-11151889D01*
X9939355Y-11151889D02*
X9939355Y-11094746D01*
X9939355Y-11094746D02*
X9948879Y-11075698D01*
X9948879Y-11075698D02*
X9958403Y-11066174D01*
X9958403Y-11066174D02*
X9977451Y-11056650D01*
X9977451Y-11056650D02*
X10006022Y-11056650D01*
X10006022Y-11056650D02*
X10025070Y-11066174D01*
X10025070Y-11066174D02*
X10034593Y-11075698D01*
X10034593Y-11075698D02*
X10044117Y-11094746D01*
X10044117Y-11094746D02*
X10044117Y-11151889D01*
X10044117Y-11151889D02*
X10034593Y-11170936D01*
X10034593Y-11170936D02*
X10025070Y-11180460D01*
X10025070Y-11180460D02*
X10006022Y-11189984D01*
X10006022Y-11189984D02*
X9977451Y-11189984D01*
X10158403Y-11189984D02*
X10139355Y-11180460D01*
X10139355Y-11180460D02*
X10129832Y-11161412D01*
X10129832Y-11161412D02*
X10129832Y-10989984D01*
X10310784Y-11180460D02*
X10291736Y-11189984D01*
X10291736Y-11189984D02*
X10253641Y-11189984D01*
X10253641Y-11189984D02*
X10234593Y-11180460D01*
X10234593Y-11180460D02*
X10225070Y-11161412D01*
X10225070Y-11161412D02*
X10225070Y-11085222D01*
X10225070Y-11085222D02*
X10234593Y-11066174D01*
X10234593Y-11066174D02*
X10253641Y-11056650D01*
X10253641Y-11056650D02*
X10291736Y-11056650D01*
X10291736Y-11056650D02*
X10310784Y-11066174D01*
X10310784Y-11066174D02*
X10320308Y-11085222D01*
X10320308Y-11085222D02*
X10320308Y-11104270D01*
X10320308Y-11104270D02*
X10225070Y-11123317D01*
X10396498Y-11180460D02*
X10415546Y-11189984D01*
X10415546Y-11189984D02*
X10453641Y-11189984D01*
X10453641Y-11189984D02*
X10472689Y-11180460D01*
X10472689Y-11180460D02*
X10482213Y-11161412D01*
X10482213Y-11161412D02*
X10482213Y-11151889D01*
X10482213Y-11151889D02*
X10472689Y-11132841D01*
X10472689Y-11132841D02*
X10453641Y-11123317D01*
X10453641Y-11123317D02*
X10425070Y-11123317D01*
X10425070Y-11123317D02*
X10406022Y-11113793D01*
X10406022Y-11113793D02*
X10396498Y-11094746D01*
X10396498Y-11094746D02*
X10396498Y-11085222D01*
X10396498Y-11085222D02*
X10406022Y-11066174D01*
X10406022Y-11066174D02*
X10425070Y-11056650D01*
X10425070Y-11056650D02*
X10453641Y-11056650D01*
X10453641Y-11056650D02*
X10472689Y-11066174D01*
X10548879Y-11266174D02*
X10558403Y-11256650D01*
X10558403Y-11256650D02*
X10577451Y-11228079D01*
X10577451Y-11228079D02*
X10586974Y-11209031D01*
X10586974Y-11209031D02*
X10596498Y-11180460D01*
X10596498Y-11180460D02*
X10606022Y-11132841D01*
X10606022Y-11132841D02*
X10606022Y-11094746D01*
X10606022Y-11094746D02*
X10596498Y-11047127D01*
X10596498Y-11047127D02*
X10586974Y-11018555D01*
X10586974Y-11018555D02*
X10577451Y-10999508D01*
X10577451Y-10999508D02*
X10558403Y-10970936D01*
X10558403Y-10970936D02*
X10548879Y-10961412D01*
D13*
X5473340Y-11307500D02*
X5583340Y-11417500D01*
X5583340Y-11307500D02*
X5473340Y-11417500D01*
X5583340Y-11362500D02*
G75*
G03*
X5473340Y-11362500I-55000J0D01*
G01*
X5473340Y-11362500D02*
G75*
G03*
X5583340Y-11362500I55000J0D01*
G01*
D11*
X5948879Y-11453984D02*
X5834593Y-11453984D01*
X5891736Y-11453984D02*
X5891736Y-11253984D01*
X5891736Y-11253984D02*
X5872688Y-11282555D01*
X5872688Y-11282555D02*
X5853641Y-11301603D01*
X5853641Y-11301603D02*
X5834593Y-11311127D01*
X6034593Y-11434936D02*
X6044117Y-11444460D01*
X6044117Y-11444460D02*
X6034593Y-11453984D01*
X6034593Y-11453984D02*
X6025069Y-11444460D01*
X6025069Y-11444460D02*
X6034593Y-11434936D01*
X6034593Y-11434936D02*
X6034593Y-11453984D01*
X6234593Y-11453984D02*
X6120307Y-11453984D01*
X6177450Y-11453984D02*
X6177450Y-11253984D01*
X6177450Y-11253984D02*
X6158402Y-11282555D01*
X6158402Y-11282555D02*
X6139355Y-11301603D01*
X6139355Y-11301603D02*
X6120307Y-11311127D01*
X6358402Y-11253984D02*
X6377450Y-11253984D01*
X6377450Y-11253984D02*
X6396498Y-11263508D01*
X6396498Y-11263508D02*
X6406022Y-11273031D01*
X6406022Y-11273031D02*
X6415545Y-11292079D01*
X6415545Y-11292079D02*
X6425069Y-11330174D01*
X6425069Y-11330174D02*
X6425069Y-11377793D01*
X6425069Y-11377793D02*
X6415545Y-11415888D01*
X6415545Y-11415888D02*
X6406022Y-11434936D01*
X6406022Y-11434936D02*
X6396498Y-11444460D01*
X6396498Y-11444460D02*
X6377450Y-11453984D01*
X6377450Y-11453984D02*
X6358402Y-11453984D01*
X6358402Y-11453984D02*
X6339355Y-11444460D01*
X6339355Y-11444460D02*
X6329831Y-11434936D01*
X6329831Y-11434936D02*
X6320307Y-11415888D01*
X6320307Y-11415888D02*
X6310783Y-11377793D01*
X6310783Y-11377793D02*
X6310783Y-11330174D01*
X6310783Y-11330174D02*
X6320307Y-11292079D01*
X6320307Y-11292079D02*
X6329831Y-11273031D01*
X6329831Y-11273031D02*
X6339355Y-11263508D01*
X6339355Y-11263508D02*
X6358402Y-11253984D01*
X6548879Y-11253984D02*
X6567926Y-11253984D01*
X6567926Y-11253984D02*
X6586974Y-11263508D01*
X6586974Y-11263508D02*
X6596498Y-11273031D01*
X6596498Y-11273031D02*
X6606022Y-11292079D01*
X6606022Y-11292079D02*
X6615545Y-11330174D01*
X6615545Y-11330174D02*
X6615545Y-11377793D01*
X6615545Y-11377793D02*
X6606022Y-11415888D01*
X6606022Y-11415888D02*
X6596498Y-11434936D01*
X6596498Y-11434936D02*
X6586974Y-11444460D01*
X6586974Y-11444460D02*
X6567926Y-11453984D01*
X6567926Y-11453984D02*
X6548879Y-11453984D01*
X6548879Y-11453984D02*
X6529831Y-11444460D01*
X6529831Y-11444460D02*
X6520307Y-11434936D01*
X6520307Y-11434936D02*
X6510783Y-11415888D01*
X6510783Y-11415888D02*
X6501260Y-11377793D01*
X6501260Y-11377793D02*
X6501260Y-11330174D01*
X6501260Y-11330174D02*
X6510783Y-11292079D01*
X6510783Y-11292079D02*
X6520307Y-11273031D01*
X6520307Y-11273031D02*
X6529831Y-11263508D01*
X6529831Y-11263508D02*
X6548879Y-11253984D01*
X6701260Y-11453984D02*
X6701260Y-11320650D01*
X6701260Y-11339698D02*
X6710783Y-11330174D01*
X6710783Y-11330174D02*
X6729831Y-11320650D01*
X6729831Y-11320650D02*
X6758403Y-11320650D01*
X6758403Y-11320650D02*
X6777450Y-11330174D01*
X6777450Y-11330174D02*
X6786974Y-11349222D01*
X6786974Y-11349222D02*
X6786974Y-11453984D01*
X6786974Y-11349222D02*
X6796498Y-11330174D01*
X6796498Y-11330174D02*
X6815545Y-11320650D01*
X6815545Y-11320650D02*
X6844117Y-11320650D01*
X6844117Y-11320650D02*
X6863164Y-11330174D01*
X6863164Y-11330174D02*
X6872688Y-11349222D01*
X6872688Y-11349222D02*
X6872688Y-11453984D01*
X6967926Y-11453984D02*
X6967926Y-11320650D01*
X6967926Y-11339698D02*
X6977450Y-11330174D01*
X6977450Y-11330174D02*
X6996498Y-11320650D01*
X6996498Y-11320650D02*
X7025069Y-11320650D01*
X7025069Y-11320650D02*
X7044117Y-11330174D01*
X7044117Y-11330174D02*
X7053641Y-11349222D01*
X7053641Y-11349222D02*
X7053641Y-11453984D01*
X7053641Y-11349222D02*
X7063164Y-11330174D01*
X7063164Y-11330174D02*
X7082212Y-11320650D01*
X7082212Y-11320650D02*
X7110783Y-11320650D01*
X7110783Y-11320650D02*
X7129831Y-11330174D01*
X7129831Y-11330174D02*
X7139355Y-11349222D01*
X7139355Y-11349222D02*
X7139355Y-11453984D01*
X7529831Y-11244460D02*
X7358403Y-11501603D01*
X7786974Y-11253984D02*
X7806022Y-11253984D01*
X7806022Y-11253984D02*
X7825069Y-11263508D01*
X7825069Y-11263508D02*
X7834593Y-11273031D01*
X7834593Y-11273031D02*
X7844117Y-11292079D01*
X7844117Y-11292079D02*
X7853641Y-11330174D01*
X7853641Y-11330174D02*
X7853641Y-11377793D01*
X7853641Y-11377793D02*
X7844117Y-11415888D01*
X7844117Y-11415888D02*
X7834593Y-11434936D01*
X7834593Y-11434936D02*
X7825069Y-11444460D01*
X7825069Y-11444460D02*
X7806022Y-11453984D01*
X7806022Y-11453984D02*
X7786974Y-11453984D01*
X7786974Y-11453984D02*
X7767926Y-11444460D01*
X7767926Y-11444460D02*
X7758403Y-11434936D01*
X7758403Y-11434936D02*
X7748879Y-11415888D01*
X7748879Y-11415888D02*
X7739355Y-11377793D01*
X7739355Y-11377793D02*
X7739355Y-11330174D01*
X7739355Y-11330174D02*
X7748879Y-11292079D01*
X7748879Y-11292079D02*
X7758403Y-11273031D01*
X7758403Y-11273031D02*
X7767926Y-11263508D01*
X7767926Y-11263508D02*
X7786974Y-11253984D01*
X7939355Y-11434936D02*
X7948879Y-11444460D01*
X7948879Y-11444460D02*
X7939355Y-11453984D01*
X7939355Y-11453984D02*
X7929831Y-11444460D01*
X7929831Y-11444460D02*
X7939355Y-11434936D01*
X7939355Y-11434936D02*
X7939355Y-11453984D01*
X8072688Y-11253984D02*
X8091736Y-11253984D01*
X8091736Y-11253984D02*
X8110784Y-11263508D01*
X8110784Y-11263508D02*
X8120307Y-11273031D01*
X8120307Y-11273031D02*
X8129831Y-11292079D01*
X8129831Y-11292079D02*
X8139355Y-11330174D01*
X8139355Y-11330174D02*
X8139355Y-11377793D01*
X8139355Y-11377793D02*
X8129831Y-11415888D01*
X8129831Y-11415888D02*
X8120307Y-11434936D01*
X8120307Y-11434936D02*
X8110784Y-11444460D01*
X8110784Y-11444460D02*
X8091736Y-11453984D01*
X8091736Y-11453984D02*
X8072688Y-11453984D01*
X8072688Y-11453984D02*
X8053641Y-11444460D01*
X8053641Y-11444460D02*
X8044117Y-11434936D01*
X8044117Y-11434936D02*
X8034593Y-11415888D01*
X8034593Y-11415888D02*
X8025069Y-11377793D01*
X8025069Y-11377793D02*
X8025069Y-11330174D01*
X8025069Y-11330174D02*
X8034593Y-11292079D01*
X8034593Y-11292079D02*
X8044117Y-11273031D01*
X8044117Y-11273031D02*
X8053641Y-11263508D01*
X8053641Y-11263508D02*
X8072688Y-11253984D01*
X8310784Y-11320650D02*
X8310784Y-11453984D01*
X8263165Y-11244460D02*
X8215546Y-11387317D01*
X8215546Y-11387317D02*
X8339355Y-11387317D01*
X8396498Y-11253984D02*
X8520308Y-11253984D01*
X8520308Y-11253984D02*
X8453641Y-11330174D01*
X8453641Y-11330174D02*
X8482212Y-11330174D01*
X8482212Y-11330174D02*
X8501260Y-11339698D01*
X8501260Y-11339698D02*
X8510784Y-11349222D01*
X8510784Y-11349222D02*
X8520308Y-11368269D01*
X8520308Y-11368269D02*
X8520308Y-11415888D01*
X8520308Y-11415888D02*
X8510784Y-11434936D01*
X8510784Y-11434936D02*
X8501260Y-11444460D01*
X8501260Y-11444460D02*
X8482212Y-11453984D01*
X8482212Y-11453984D02*
X8425069Y-11453984D01*
X8425069Y-11453984D02*
X8406022Y-11444460D01*
X8406022Y-11444460D02*
X8396498Y-11434936D01*
X8586974Y-11253984D02*
X8710784Y-11253984D01*
X8710784Y-11253984D02*
X8644117Y-11330174D01*
X8644117Y-11330174D02*
X8672689Y-11330174D01*
X8672689Y-11330174D02*
X8691736Y-11339698D01*
X8691736Y-11339698D02*
X8701260Y-11349222D01*
X8701260Y-11349222D02*
X8710784Y-11368269D01*
X8710784Y-11368269D02*
X8710784Y-11415888D01*
X8710784Y-11415888D02*
X8701260Y-11434936D01*
X8701260Y-11434936D02*
X8691736Y-11444460D01*
X8691736Y-11444460D02*
X8672689Y-11453984D01*
X8672689Y-11453984D02*
X8615546Y-11453984D01*
X8615546Y-11453984D02*
X8596498Y-11444460D01*
X8596498Y-11444460D02*
X8586974Y-11434936D01*
X8786974Y-11253984D02*
X8786974Y-11292079D01*
X8863165Y-11253984D02*
X8863165Y-11292079D01*
X9158403Y-11530174D02*
X9148879Y-11520650D01*
X9148879Y-11520650D02*
X9129831Y-11492079D01*
X9129831Y-11492079D02*
X9120308Y-11473031D01*
X9120308Y-11473031D02*
X9110784Y-11444460D01*
X9110784Y-11444460D02*
X9101260Y-11396841D01*
X9101260Y-11396841D02*
X9101260Y-11358746D01*
X9101260Y-11358746D02*
X9110784Y-11311127D01*
X9110784Y-11311127D02*
X9120308Y-11282555D01*
X9120308Y-11282555D02*
X9129831Y-11263508D01*
X9129831Y-11263508D02*
X9148879Y-11234936D01*
X9148879Y-11234936D02*
X9158403Y-11225412D01*
X9215546Y-11253984D02*
X9339355Y-11253984D01*
X9339355Y-11253984D02*
X9272689Y-11330174D01*
X9272689Y-11330174D02*
X9301260Y-11330174D01*
X9301260Y-11330174D02*
X9320308Y-11339698D01*
X9320308Y-11339698D02*
X9329831Y-11349222D01*
X9329831Y-11349222D02*
X9339355Y-11368269D01*
X9339355Y-11368269D02*
X9339355Y-11415888D01*
X9339355Y-11415888D02*
X9329831Y-11434936D01*
X9329831Y-11434936D02*
X9320308Y-11444460D01*
X9320308Y-11444460D02*
X9301260Y-11453984D01*
X9301260Y-11453984D02*
X9244117Y-11453984D01*
X9244117Y-11453984D02*
X9225070Y-11444460D01*
X9225070Y-11444460D02*
X9215546Y-11434936D01*
X9510784Y-11320650D02*
X9510784Y-11453984D01*
X9463165Y-11244460D02*
X9415546Y-11387317D01*
X9415546Y-11387317D02*
X9539355Y-11387317D01*
X9767927Y-11453984D02*
X9767927Y-11253984D01*
X9853641Y-11453984D02*
X9853641Y-11349222D01*
X9853641Y-11349222D02*
X9844117Y-11330174D01*
X9844117Y-11330174D02*
X9825070Y-11320650D01*
X9825070Y-11320650D02*
X9796498Y-11320650D01*
X9796498Y-11320650D02*
X9777451Y-11330174D01*
X9777451Y-11330174D02*
X9767927Y-11339698D01*
X9977451Y-11453984D02*
X9958403Y-11444460D01*
X9958403Y-11444460D02*
X9948879Y-11434936D01*
X9948879Y-11434936D02*
X9939355Y-11415888D01*
X9939355Y-11415888D02*
X9939355Y-11358746D01*
X9939355Y-11358746D02*
X9948879Y-11339698D01*
X9948879Y-11339698D02*
X9958403Y-11330174D01*
X9958403Y-11330174D02*
X9977451Y-11320650D01*
X9977451Y-11320650D02*
X10006022Y-11320650D01*
X10006022Y-11320650D02*
X10025070Y-11330174D01*
X10025070Y-11330174D02*
X10034593Y-11339698D01*
X10034593Y-11339698D02*
X10044117Y-11358746D01*
X10044117Y-11358746D02*
X10044117Y-11415888D01*
X10044117Y-11415888D02*
X10034593Y-11434936D01*
X10034593Y-11434936D02*
X10025070Y-11444460D01*
X10025070Y-11444460D02*
X10006022Y-11453984D01*
X10006022Y-11453984D02*
X9977451Y-11453984D01*
X10158403Y-11453984D02*
X10139355Y-11444460D01*
X10139355Y-11444460D02*
X10129832Y-11425412D01*
X10129832Y-11425412D02*
X10129832Y-11253984D01*
X10310784Y-11444460D02*
X10291736Y-11453984D01*
X10291736Y-11453984D02*
X10253641Y-11453984D01*
X10253641Y-11453984D02*
X10234593Y-11444460D01*
X10234593Y-11444460D02*
X10225070Y-11425412D01*
X10225070Y-11425412D02*
X10225070Y-11349222D01*
X10225070Y-11349222D02*
X10234593Y-11330174D01*
X10234593Y-11330174D02*
X10253641Y-11320650D01*
X10253641Y-11320650D02*
X10291736Y-11320650D01*
X10291736Y-11320650D02*
X10310784Y-11330174D01*
X10310784Y-11330174D02*
X10320308Y-11349222D01*
X10320308Y-11349222D02*
X10320308Y-11368269D01*
X10320308Y-11368269D02*
X10225070Y-11387317D01*
X10396498Y-11444460D02*
X10415546Y-11453984D01*
X10415546Y-11453984D02*
X10453641Y-11453984D01*
X10453641Y-11453984D02*
X10472689Y-11444460D01*
X10472689Y-11444460D02*
X10482213Y-11425412D01*
X10482213Y-11425412D02*
X10482213Y-11415888D01*
X10482213Y-11415888D02*
X10472689Y-11396841D01*
X10472689Y-11396841D02*
X10453641Y-11387317D01*
X10453641Y-11387317D02*
X10425070Y-11387317D01*
X10425070Y-11387317D02*
X10406022Y-11377793D01*
X10406022Y-11377793D02*
X10396498Y-11358746D01*
X10396498Y-11358746D02*
X10396498Y-11349222D01*
X10396498Y-11349222D02*
X10406022Y-11330174D01*
X10406022Y-11330174D02*
X10425070Y-11320650D01*
X10425070Y-11320650D02*
X10453641Y-11320650D01*
X10453641Y-11320650D02*
X10472689Y-11330174D01*
X10548879Y-11530174D02*
X10558403Y-11520650D01*
X10558403Y-11520650D02*
X10577451Y-11492079D01*
X10577451Y-11492079D02*
X10586974Y-11473031D01*
X10586974Y-11473031D02*
X10596498Y-11444460D01*
X10596498Y-11444460D02*
X10606022Y-11396841D01*
X10606022Y-11396841D02*
X10606022Y-11358746D01*
X10606022Y-11358746D02*
X10596498Y-11311127D01*
X10596498Y-11311127D02*
X10586974Y-11282555D01*
X10586974Y-11282555D02*
X10577451Y-11263508D01*
X10577451Y-11263508D02*
X10558403Y-11234936D01*
X10558403Y-11234936D02*
X10548879Y-11225412D01*
D14*
X5471580Y-11570620D02*
X5583340Y-11682380D01*
X5583340Y-11570620D02*
X5471580Y-11682380D01*
X5527460Y-11570620D02*
X5527460Y-11682380D01*
X5471580Y-11626500D02*
X5583340Y-11626500D01*
D11*
X5948879Y-11717984D02*
X5834593Y-11717984D01*
X5891736Y-11717984D02*
X5891736Y-11517984D01*
X5891736Y-11517984D02*
X5872688Y-11546555D01*
X5872688Y-11546555D02*
X5853641Y-11565603D01*
X5853641Y-11565603D02*
X5834593Y-11575127D01*
X6034593Y-11698936D02*
X6044117Y-11708460D01*
X6044117Y-11708460D02*
X6034593Y-11717984D01*
X6034593Y-11717984D02*
X6025069Y-11708460D01*
X6025069Y-11708460D02*
X6034593Y-11698936D01*
X6034593Y-11698936D02*
X6034593Y-11717984D01*
X6234593Y-11717984D02*
X6120307Y-11717984D01*
X6177450Y-11717984D02*
X6177450Y-11517984D01*
X6177450Y-11517984D02*
X6158402Y-11546555D01*
X6158402Y-11546555D02*
X6139355Y-11565603D01*
X6139355Y-11565603D02*
X6120307Y-11575127D01*
X6425069Y-11717984D02*
X6310783Y-11717984D01*
X6367926Y-11717984D02*
X6367926Y-11517984D01*
X6367926Y-11517984D02*
X6348879Y-11546555D01*
X6348879Y-11546555D02*
X6329831Y-11565603D01*
X6329831Y-11565603D02*
X6310783Y-11575127D01*
X6539355Y-11603698D02*
X6520307Y-11594174D01*
X6520307Y-11594174D02*
X6510783Y-11584650D01*
X6510783Y-11584650D02*
X6501260Y-11565603D01*
X6501260Y-11565603D02*
X6501260Y-11556079D01*
X6501260Y-11556079D02*
X6510783Y-11537031D01*
X6510783Y-11537031D02*
X6520307Y-11527508D01*
X6520307Y-11527508D02*
X6539355Y-11517984D01*
X6539355Y-11517984D02*
X6577450Y-11517984D01*
X6577450Y-11517984D02*
X6596498Y-11527508D01*
X6596498Y-11527508D02*
X6606022Y-11537031D01*
X6606022Y-11537031D02*
X6615545Y-11556079D01*
X6615545Y-11556079D02*
X6615545Y-11565603D01*
X6615545Y-11565603D02*
X6606022Y-11584650D01*
X6606022Y-11584650D02*
X6596498Y-11594174D01*
X6596498Y-11594174D02*
X6577450Y-11603698D01*
X6577450Y-11603698D02*
X6539355Y-11603698D01*
X6539355Y-11603698D02*
X6520307Y-11613222D01*
X6520307Y-11613222D02*
X6510783Y-11622746D01*
X6510783Y-11622746D02*
X6501260Y-11641793D01*
X6501260Y-11641793D02*
X6501260Y-11679888D01*
X6501260Y-11679888D02*
X6510783Y-11698936D01*
X6510783Y-11698936D02*
X6520307Y-11708460D01*
X6520307Y-11708460D02*
X6539355Y-11717984D01*
X6539355Y-11717984D02*
X6577450Y-11717984D01*
X6577450Y-11717984D02*
X6596498Y-11708460D01*
X6596498Y-11708460D02*
X6606022Y-11698936D01*
X6606022Y-11698936D02*
X6615545Y-11679888D01*
X6615545Y-11679888D02*
X6615545Y-11641793D01*
X6615545Y-11641793D02*
X6606022Y-11622746D01*
X6606022Y-11622746D02*
X6596498Y-11613222D01*
X6596498Y-11613222D02*
X6577450Y-11603698D01*
X6701260Y-11717984D02*
X6701260Y-11584650D01*
X6701260Y-11603698D02*
X6710783Y-11594174D01*
X6710783Y-11594174D02*
X6729831Y-11584650D01*
X6729831Y-11584650D02*
X6758403Y-11584650D01*
X6758403Y-11584650D02*
X6777450Y-11594174D01*
X6777450Y-11594174D02*
X6786974Y-11613222D01*
X6786974Y-11613222D02*
X6786974Y-11717984D01*
X6786974Y-11613222D02*
X6796498Y-11594174D01*
X6796498Y-11594174D02*
X6815545Y-11584650D01*
X6815545Y-11584650D02*
X6844117Y-11584650D01*
X6844117Y-11584650D02*
X6863164Y-11594174D01*
X6863164Y-11594174D02*
X6872688Y-11613222D01*
X6872688Y-11613222D02*
X6872688Y-11717984D01*
X6967926Y-11717984D02*
X6967926Y-11584650D01*
X6967926Y-11603698D02*
X6977450Y-11594174D01*
X6977450Y-11594174D02*
X6996498Y-11584650D01*
X6996498Y-11584650D02*
X7025069Y-11584650D01*
X7025069Y-11584650D02*
X7044117Y-11594174D01*
X7044117Y-11594174D02*
X7053641Y-11613222D01*
X7053641Y-11613222D02*
X7053641Y-11717984D01*
X7053641Y-11613222D02*
X7063164Y-11594174D01*
X7063164Y-11594174D02*
X7082212Y-11584650D01*
X7082212Y-11584650D02*
X7110783Y-11584650D01*
X7110783Y-11584650D02*
X7129831Y-11594174D01*
X7129831Y-11594174D02*
X7139355Y-11613222D01*
X7139355Y-11613222D02*
X7139355Y-11717984D01*
X7529831Y-11508460D02*
X7358403Y-11765603D01*
X7786974Y-11517984D02*
X7806022Y-11517984D01*
X7806022Y-11517984D02*
X7825069Y-11527508D01*
X7825069Y-11527508D02*
X7834593Y-11537031D01*
X7834593Y-11537031D02*
X7844117Y-11556079D01*
X7844117Y-11556079D02*
X7853641Y-11594174D01*
X7853641Y-11594174D02*
X7853641Y-11641793D01*
X7853641Y-11641793D02*
X7844117Y-11679888D01*
X7844117Y-11679888D02*
X7834593Y-11698936D01*
X7834593Y-11698936D02*
X7825069Y-11708460D01*
X7825069Y-11708460D02*
X7806022Y-11717984D01*
X7806022Y-11717984D02*
X7786974Y-11717984D01*
X7786974Y-11717984D02*
X7767926Y-11708460D01*
X7767926Y-11708460D02*
X7758403Y-11698936D01*
X7758403Y-11698936D02*
X7748879Y-11679888D01*
X7748879Y-11679888D02*
X7739355Y-11641793D01*
X7739355Y-11641793D02*
X7739355Y-11594174D01*
X7739355Y-11594174D02*
X7748879Y-11556079D01*
X7748879Y-11556079D02*
X7758403Y-11537031D01*
X7758403Y-11537031D02*
X7767926Y-11527508D01*
X7767926Y-11527508D02*
X7786974Y-11517984D01*
X7939355Y-11698936D02*
X7948879Y-11708460D01*
X7948879Y-11708460D02*
X7939355Y-11717984D01*
X7939355Y-11717984D02*
X7929831Y-11708460D01*
X7929831Y-11708460D02*
X7939355Y-11698936D01*
X7939355Y-11698936D02*
X7939355Y-11717984D01*
X8072688Y-11517984D02*
X8091736Y-11517984D01*
X8091736Y-11517984D02*
X8110784Y-11527508D01*
X8110784Y-11527508D02*
X8120307Y-11537031D01*
X8120307Y-11537031D02*
X8129831Y-11556079D01*
X8129831Y-11556079D02*
X8139355Y-11594174D01*
X8139355Y-11594174D02*
X8139355Y-11641793D01*
X8139355Y-11641793D02*
X8129831Y-11679888D01*
X8129831Y-11679888D02*
X8120307Y-11698936D01*
X8120307Y-11698936D02*
X8110784Y-11708460D01*
X8110784Y-11708460D02*
X8091736Y-11717984D01*
X8091736Y-11717984D02*
X8072688Y-11717984D01*
X8072688Y-11717984D02*
X8053641Y-11708460D01*
X8053641Y-11708460D02*
X8044117Y-11698936D01*
X8044117Y-11698936D02*
X8034593Y-11679888D01*
X8034593Y-11679888D02*
X8025069Y-11641793D01*
X8025069Y-11641793D02*
X8025069Y-11594174D01*
X8025069Y-11594174D02*
X8034593Y-11556079D01*
X8034593Y-11556079D02*
X8044117Y-11537031D01*
X8044117Y-11537031D02*
X8053641Y-11527508D01*
X8053641Y-11527508D02*
X8072688Y-11517984D01*
X8310784Y-11584650D02*
X8310784Y-11717984D01*
X8263165Y-11508460D02*
X8215546Y-11651317D01*
X8215546Y-11651317D02*
X8339355Y-11651317D01*
X8501260Y-11584650D02*
X8501260Y-11717984D01*
X8453641Y-11508460D02*
X8406022Y-11651317D01*
X8406022Y-11651317D02*
X8529831Y-11651317D01*
X8644117Y-11517984D02*
X8663165Y-11517984D01*
X8663165Y-11517984D02*
X8682212Y-11527508D01*
X8682212Y-11527508D02*
X8691736Y-11537031D01*
X8691736Y-11537031D02*
X8701260Y-11556079D01*
X8701260Y-11556079D02*
X8710784Y-11594174D01*
X8710784Y-11594174D02*
X8710784Y-11641793D01*
X8710784Y-11641793D02*
X8701260Y-11679888D01*
X8701260Y-11679888D02*
X8691736Y-11698936D01*
X8691736Y-11698936D02*
X8682212Y-11708460D01*
X8682212Y-11708460D02*
X8663165Y-11717984D01*
X8663165Y-11717984D02*
X8644117Y-11717984D01*
X8644117Y-11717984D02*
X8625069Y-11708460D01*
X8625069Y-11708460D02*
X8615546Y-11698936D01*
X8615546Y-11698936D02*
X8606022Y-11679888D01*
X8606022Y-11679888D02*
X8596498Y-11641793D01*
X8596498Y-11641793D02*
X8596498Y-11594174D01*
X8596498Y-11594174D02*
X8606022Y-11556079D01*
X8606022Y-11556079D02*
X8615546Y-11537031D01*
X8615546Y-11537031D02*
X8625069Y-11527508D01*
X8625069Y-11527508D02*
X8644117Y-11517984D01*
X8786974Y-11517984D02*
X8786974Y-11556079D01*
X8863165Y-11517984D02*
X8863165Y-11556079D01*
X9158403Y-11794174D02*
X9148879Y-11784650D01*
X9148879Y-11784650D02*
X9129831Y-11756079D01*
X9129831Y-11756079D02*
X9120308Y-11737031D01*
X9120308Y-11737031D02*
X9110784Y-11708460D01*
X9110784Y-11708460D02*
X9101260Y-11660841D01*
X9101260Y-11660841D02*
X9101260Y-11622746D01*
X9101260Y-11622746D02*
X9110784Y-11575127D01*
X9110784Y-11575127D02*
X9120308Y-11546555D01*
X9120308Y-11546555D02*
X9129831Y-11527508D01*
X9129831Y-11527508D02*
X9148879Y-11498936D01*
X9148879Y-11498936D02*
X9158403Y-11489412D01*
X9263165Y-11603698D02*
X9244117Y-11594174D01*
X9244117Y-11594174D02*
X9234593Y-11584650D01*
X9234593Y-11584650D02*
X9225070Y-11565603D01*
X9225070Y-11565603D02*
X9225070Y-11556079D01*
X9225070Y-11556079D02*
X9234593Y-11537031D01*
X9234593Y-11537031D02*
X9244117Y-11527508D01*
X9244117Y-11527508D02*
X9263165Y-11517984D01*
X9263165Y-11517984D02*
X9301260Y-11517984D01*
X9301260Y-11517984D02*
X9320308Y-11527508D01*
X9320308Y-11527508D02*
X9329831Y-11537031D01*
X9329831Y-11537031D02*
X9339355Y-11556079D01*
X9339355Y-11556079D02*
X9339355Y-11565603D01*
X9339355Y-11565603D02*
X9329831Y-11584650D01*
X9329831Y-11584650D02*
X9320308Y-11594174D01*
X9320308Y-11594174D02*
X9301260Y-11603698D01*
X9301260Y-11603698D02*
X9263165Y-11603698D01*
X9263165Y-11603698D02*
X9244117Y-11613222D01*
X9244117Y-11613222D02*
X9234593Y-11622746D01*
X9234593Y-11622746D02*
X9225070Y-11641793D01*
X9225070Y-11641793D02*
X9225070Y-11679888D01*
X9225070Y-11679888D02*
X9234593Y-11698936D01*
X9234593Y-11698936D02*
X9244117Y-11708460D01*
X9244117Y-11708460D02*
X9263165Y-11717984D01*
X9263165Y-11717984D02*
X9301260Y-11717984D01*
X9301260Y-11717984D02*
X9320308Y-11708460D01*
X9320308Y-11708460D02*
X9329831Y-11698936D01*
X9329831Y-11698936D02*
X9339355Y-11679888D01*
X9339355Y-11679888D02*
X9339355Y-11641793D01*
X9339355Y-11641793D02*
X9329831Y-11622746D01*
X9329831Y-11622746D02*
X9320308Y-11613222D01*
X9320308Y-11613222D02*
X9301260Y-11603698D01*
X9577451Y-11717984D02*
X9577451Y-11517984D01*
X9663165Y-11717984D02*
X9663165Y-11613222D01*
X9663165Y-11613222D02*
X9653641Y-11594174D01*
X9653641Y-11594174D02*
X9634593Y-11584650D01*
X9634593Y-11584650D02*
X9606022Y-11584650D01*
X9606022Y-11584650D02*
X9586974Y-11594174D01*
X9586974Y-11594174D02*
X9577451Y-11603698D01*
X9786974Y-11717984D02*
X9767927Y-11708460D01*
X9767927Y-11708460D02*
X9758403Y-11698936D01*
X9758403Y-11698936D02*
X9748879Y-11679888D01*
X9748879Y-11679888D02*
X9748879Y-11622746D01*
X9748879Y-11622746D02*
X9758403Y-11603698D01*
X9758403Y-11603698D02*
X9767927Y-11594174D01*
X9767927Y-11594174D02*
X9786974Y-11584650D01*
X9786974Y-11584650D02*
X9815546Y-11584650D01*
X9815546Y-11584650D02*
X9834593Y-11594174D01*
X9834593Y-11594174D02*
X9844117Y-11603698D01*
X9844117Y-11603698D02*
X9853641Y-11622746D01*
X9853641Y-11622746D02*
X9853641Y-11679888D01*
X9853641Y-11679888D02*
X9844117Y-11698936D01*
X9844117Y-11698936D02*
X9834593Y-11708460D01*
X9834593Y-11708460D02*
X9815546Y-11717984D01*
X9815546Y-11717984D02*
X9786974Y-11717984D01*
X9967927Y-11717984D02*
X9948879Y-11708460D01*
X9948879Y-11708460D02*
X9939355Y-11689412D01*
X9939355Y-11689412D02*
X9939355Y-11517984D01*
X10120308Y-11708460D02*
X10101260Y-11717984D01*
X10101260Y-11717984D02*
X10063165Y-11717984D01*
X10063165Y-11717984D02*
X10044117Y-11708460D01*
X10044117Y-11708460D02*
X10034593Y-11689412D01*
X10034593Y-11689412D02*
X10034593Y-11613222D01*
X10034593Y-11613222D02*
X10044117Y-11594174D01*
X10044117Y-11594174D02*
X10063165Y-11584650D01*
X10063165Y-11584650D02*
X10101260Y-11584650D01*
X10101260Y-11584650D02*
X10120308Y-11594174D01*
X10120308Y-11594174D02*
X10129832Y-11613222D01*
X10129832Y-11613222D02*
X10129832Y-11632269D01*
X10129832Y-11632269D02*
X10034593Y-11651317D01*
X10206022Y-11708460D02*
X10225070Y-11717984D01*
X10225070Y-11717984D02*
X10263165Y-11717984D01*
X10263165Y-11717984D02*
X10282213Y-11708460D01*
X10282213Y-11708460D02*
X10291736Y-11689412D01*
X10291736Y-11689412D02*
X10291736Y-11679888D01*
X10291736Y-11679888D02*
X10282213Y-11660841D01*
X10282213Y-11660841D02*
X10263165Y-11651317D01*
X10263165Y-11651317D02*
X10234593Y-11651317D01*
X10234593Y-11651317D02*
X10215546Y-11641793D01*
X10215546Y-11641793D02*
X10206022Y-11622746D01*
X10206022Y-11622746D02*
X10206022Y-11613222D01*
X10206022Y-11613222D02*
X10215546Y-11594174D01*
X10215546Y-11594174D02*
X10234593Y-11584650D01*
X10234593Y-11584650D02*
X10263165Y-11584650D01*
X10263165Y-11584650D02*
X10282213Y-11594174D01*
X10358403Y-11794174D02*
X10367927Y-11784650D01*
X10367927Y-11784650D02*
X10386974Y-11756079D01*
X10386974Y-11756079D02*
X10396498Y-11737031D01*
X10396498Y-11737031D02*
X10406022Y-11708460D01*
X10406022Y-11708460D02*
X10415546Y-11660841D01*
X10415546Y-11660841D02*
X10415546Y-11622746D01*
X10415546Y-11622746D02*
X10406022Y-11575127D01*
X10406022Y-11575127D02*
X10396498Y-11546555D01*
X10396498Y-11546555D02*
X10386974Y-11527508D01*
X10386974Y-11527508D02*
X10367927Y-11498936D01*
X10367927Y-11498936D02*
X10358403Y-11489412D01*
X5383340Y-11790500D02*
X5583340Y-11990500D01*
X5583340Y-11790500D02*
X5383340Y-11990500D01*
X5554051Y-11961211D02*
X5554051Y-11819789D01*
X5412629Y-11819789D01*
X5412629Y-11961211D01*
X5554051Y-11961211D01*
X5834593Y-11801031D02*
X5844117Y-11791508D01*
X5844117Y-11791508D02*
X5863164Y-11781984D01*
X5863164Y-11781984D02*
X5910783Y-11781984D01*
X5910783Y-11781984D02*
X5929831Y-11791508D01*
X5929831Y-11791508D02*
X5939355Y-11801031D01*
X5939355Y-11801031D02*
X5948879Y-11820079D01*
X5948879Y-11820079D02*
X5948879Y-11839127D01*
X5948879Y-11839127D02*
X5939355Y-11867698D01*
X5939355Y-11867698D02*
X5825069Y-11981984D01*
X5825069Y-11981984D02*
X5948879Y-11981984D01*
X6034593Y-11962936D02*
X6044117Y-11972460D01*
X6044117Y-11972460D02*
X6034593Y-11981984D01*
X6034593Y-11981984D02*
X6025069Y-11972460D01*
X6025069Y-11972460D02*
X6034593Y-11962936D01*
X6034593Y-11962936D02*
X6034593Y-11981984D01*
X6215545Y-11848650D02*
X6215545Y-11981984D01*
X6167926Y-11772460D02*
X6120307Y-11915317D01*
X6120307Y-11915317D02*
X6244117Y-11915317D01*
X6358402Y-11781984D02*
X6377450Y-11781984D01*
X6377450Y-11781984D02*
X6396498Y-11791508D01*
X6396498Y-11791508D02*
X6406022Y-11801031D01*
X6406022Y-11801031D02*
X6415545Y-11820079D01*
X6415545Y-11820079D02*
X6425069Y-11858174D01*
X6425069Y-11858174D02*
X6425069Y-11905793D01*
X6425069Y-11905793D02*
X6415545Y-11943888D01*
X6415545Y-11943888D02*
X6406022Y-11962936D01*
X6406022Y-11962936D02*
X6396498Y-11972460D01*
X6396498Y-11972460D02*
X6377450Y-11981984D01*
X6377450Y-11981984D02*
X6358402Y-11981984D01*
X6358402Y-11981984D02*
X6339355Y-11972460D01*
X6339355Y-11972460D02*
X6329831Y-11962936D01*
X6329831Y-11962936D02*
X6320307Y-11943888D01*
X6320307Y-11943888D02*
X6310783Y-11905793D01*
X6310783Y-11905793D02*
X6310783Y-11858174D01*
X6310783Y-11858174D02*
X6320307Y-11820079D01*
X6320307Y-11820079D02*
X6329831Y-11801031D01*
X6329831Y-11801031D02*
X6339355Y-11791508D01*
X6339355Y-11791508D02*
X6358402Y-11781984D01*
X6548879Y-11781984D02*
X6567926Y-11781984D01*
X6567926Y-11781984D02*
X6586974Y-11791508D01*
X6586974Y-11791508D02*
X6596498Y-11801031D01*
X6596498Y-11801031D02*
X6606022Y-11820079D01*
X6606022Y-11820079D02*
X6615545Y-11858174D01*
X6615545Y-11858174D02*
X6615545Y-11905793D01*
X6615545Y-11905793D02*
X6606022Y-11943888D01*
X6606022Y-11943888D02*
X6596498Y-11962936D01*
X6596498Y-11962936D02*
X6586974Y-11972460D01*
X6586974Y-11972460D02*
X6567926Y-11981984D01*
X6567926Y-11981984D02*
X6548879Y-11981984D01*
X6548879Y-11981984D02*
X6529831Y-11972460D01*
X6529831Y-11972460D02*
X6520307Y-11962936D01*
X6520307Y-11962936D02*
X6510783Y-11943888D01*
X6510783Y-11943888D02*
X6501260Y-11905793D01*
X6501260Y-11905793D02*
X6501260Y-11858174D01*
X6501260Y-11858174D02*
X6510783Y-11820079D01*
X6510783Y-11820079D02*
X6520307Y-11801031D01*
X6520307Y-11801031D02*
X6529831Y-11791508D01*
X6529831Y-11791508D02*
X6548879Y-11781984D01*
X6701260Y-11981984D02*
X6701260Y-11848650D01*
X6701260Y-11867698D02*
X6710783Y-11858174D01*
X6710783Y-11858174D02*
X6729831Y-11848650D01*
X6729831Y-11848650D02*
X6758403Y-11848650D01*
X6758403Y-11848650D02*
X6777450Y-11858174D01*
X6777450Y-11858174D02*
X6786974Y-11877222D01*
X6786974Y-11877222D02*
X6786974Y-11981984D01*
X6786974Y-11877222D02*
X6796498Y-11858174D01*
X6796498Y-11858174D02*
X6815545Y-11848650D01*
X6815545Y-11848650D02*
X6844117Y-11848650D01*
X6844117Y-11848650D02*
X6863164Y-11858174D01*
X6863164Y-11858174D02*
X6872688Y-11877222D01*
X6872688Y-11877222D02*
X6872688Y-11981984D01*
X6967926Y-11981984D02*
X6967926Y-11848650D01*
X6967926Y-11867698D02*
X6977450Y-11858174D01*
X6977450Y-11858174D02*
X6996498Y-11848650D01*
X6996498Y-11848650D02*
X7025069Y-11848650D01*
X7025069Y-11848650D02*
X7044117Y-11858174D01*
X7044117Y-11858174D02*
X7053641Y-11877222D01*
X7053641Y-11877222D02*
X7053641Y-11981984D01*
X7053641Y-11877222D02*
X7063164Y-11858174D01*
X7063164Y-11858174D02*
X7082212Y-11848650D01*
X7082212Y-11848650D02*
X7110783Y-11848650D01*
X7110783Y-11848650D02*
X7129831Y-11858174D01*
X7129831Y-11858174D02*
X7139355Y-11877222D01*
X7139355Y-11877222D02*
X7139355Y-11981984D01*
X7529831Y-11772460D02*
X7358403Y-12029603D01*
X7786974Y-11781984D02*
X7806022Y-11781984D01*
X7806022Y-11781984D02*
X7825069Y-11791508D01*
X7825069Y-11791508D02*
X7834593Y-11801031D01*
X7834593Y-11801031D02*
X7844117Y-11820079D01*
X7844117Y-11820079D02*
X7853641Y-11858174D01*
X7853641Y-11858174D02*
X7853641Y-11905793D01*
X7853641Y-11905793D02*
X7844117Y-11943888D01*
X7844117Y-11943888D02*
X7834593Y-11962936D01*
X7834593Y-11962936D02*
X7825069Y-11972460D01*
X7825069Y-11972460D02*
X7806022Y-11981984D01*
X7806022Y-11981984D02*
X7786974Y-11981984D01*
X7786974Y-11981984D02*
X7767926Y-11972460D01*
X7767926Y-11972460D02*
X7758403Y-11962936D01*
X7758403Y-11962936D02*
X7748879Y-11943888D01*
X7748879Y-11943888D02*
X7739355Y-11905793D01*
X7739355Y-11905793D02*
X7739355Y-11858174D01*
X7739355Y-11858174D02*
X7748879Y-11820079D01*
X7748879Y-11820079D02*
X7758403Y-11801031D01*
X7758403Y-11801031D02*
X7767926Y-11791508D01*
X7767926Y-11791508D02*
X7786974Y-11781984D01*
X7939355Y-11962936D02*
X7948879Y-11972460D01*
X7948879Y-11972460D02*
X7939355Y-11981984D01*
X7939355Y-11981984D02*
X7929831Y-11972460D01*
X7929831Y-11972460D02*
X7939355Y-11962936D01*
X7939355Y-11962936D02*
X7939355Y-11981984D01*
X8072688Y-11781984D02*
X8091736Y-11781984D01*
X8091736Y-11781984D02*
X8110784Y-11791508D01*
X8110784Y-11791508D02*
X8120307Y-11801031D01*
X8120307Y-11801031D02*
X8129831Y-11820079D01*
X8129831Y-11820079D02*
X8139355Y-11858174D01*
X8139355Y-11858174D02*
X8139355Y-11905793D01*
X8139355Y-11905793D02*
X8129831Y-11943888D01*
X8129831Y-11943888D02*
X8120307Y-11962936D01*
X8120307Y-11962936D02*
X8110784Y-11972460D01*
X8110784Y-11972460D02*
X8091736Y-11981984D01*
X8091736Y-11981984D02*
X8072688Y-11981984D01*
X8072688Y-11981984D02*
X8053641Y-11972460D01*
X8053641Y-11972460D02*
X8044117Y-11962936D01*
X8044117Y-11962936D02*
X8034593Y-11943888D01*
X8034593Y-11943888D02*
X8025069Y-11905793D01*
X8025069Y-11905793D02*
X8025069Y-11858174D01*
X8025069Y-11858174D02*
X8034593Y-11820079D01*
X8034593Y-11820079D02*
X8044117Y-11801031D01*
X8044117Y-11801031D02*
X8053641Y-11791508D01*
X8053641Y-11791508D02*
X8072688Y-11781984D01*
X8234593Y-11981984D02*
X8272688Y-11981984D01*
X8272688Y-11981984D02*
X8291736Y-11972460D01*
X8291736Y-11972460D02*
X8301260Y-11962936D01*
X8301260Y-11962936D02*
X8320307Y-11934365D01*
X8320307Y-11934365D02*
X8329831Y-11896269D01*
X8329831Y-11896269D02*
X8329831Y-11820079D01*
X8329831Y-11820079D02*
X8320307Y-11801031D01*
X8320307Y-11801031D02*
X8310784Y-11791508D01*
X8310784Y-11791508D02*
X8291736Y-11781984D01*
X8291736Y-11781984D02*
X8253641Y-11781984D01*
X8253641Y-11781984D02*
X8234593Y-11791508D01*
X8234593Y-11791508D02*
X8225069Y-11801031D01*
X8225069Y-11801031D02*
X8215546Y-11820079D01*
X8215546Y-11820079D02*
X8215546Y-11867698D01*
X8215546Y-11867698D02*
X8225069Y-11886746D01*
X8225069Y-11886746D02*
X8234593Y-11896269D01*
X8234593Y-11896269D02*
X8253641Y-11905793D01*
X8253641Y-11905793D02*
X8291736Y-11905793D01*
X8291736Y-11905793D02*
X8310784Y-11896269D01*
X8310784Y-11896269D02*
X8320307Y-11886746D01*
X8320307Y-11886746D02*
X8329831Y-11867698D01*
X8501260Y-11848650D02*
X8501260Y-11981984D01*
X8453641Y-11772460D02*
X8406022Y-11915317D01*
X8406022Y-11915317D02*
X8529831Y-11915317D01*
X8701260Y-11781984D02*
X8606022Y-11781984D01*
X8606022Y-11781984D02*
X8596498Y-11877222D01*
X8596498Y-11877222D02*
X8606022Y-11867698D01*
X8606022Y-11867698D02*
X8625069Y-11858174D01*
X8625069Y-11858174D02*
X8672689Y-11858174D01*
X8672689Y-11858174D02*
X8691736Y-11867698D01*
X8691736Y-11867698D02*
X8701260Y-11877222D01*
X8701260Y-11877222D02*
X8710784Y-11896269D01*
X8710784Y-11896269D02*
X8710784Y-11943888D01*
X8710784Y-11943888D02*
X8701260Y-11962936D01*
X8701260Y-11962936D02*
X8691736Y-11972460D01*
X8691736Y-11972460D02*
X8672689Y-11981984D01*
X8672689Y-11981984D02*
X8625069Y-11981984D01*
X8625069Y-11981984D02*
X8606022Y-11972460D01*
X8606022Y-11972460D02*
X8596498Y-11962936D01*
X8786974Y-11781984D02*
X8786974Y-11820079D01*
X8863165Y-11781984D02*
X8863165Y-11820079D01*
X9158403Y-12058174D02*
X9148879Y-12048650D01*
X9148879Y-12048650D02*
X9129831Y-12020079D01*
X9129831Y-12020079D02*
X9120308Y-12001031D01*
X9120308Y-12001031D02*
X9110784Y-11972460D01*
X9110784Y-11972460D02*
X9101260Y-11924841D01*
X9101260Y-11924841D02*
X9101260Y-11886746D01*
X9101260Y-11886746D02*
X9110784Y-11839127D01*
X9110784Y-11839127D02*
X9120308Y-11810555D01*
X9120308Y-11810555D02*
X9129831Y-11791508D01*
X9129831Y-11791508D02*
X9148879Y-11762936D01*
X9148879Y-11762936D02*
X9158403Y-11753412D01*
X9225070Y-11801031D02*
X9234593Y-11791508D01*
X9234593Y-11791508D02*
X9253641Y-11781984D01*
X9253641Y-11781984D02*
X9301260Y-11781984D01*
X9301260Y-11781984D02*
X9320308Y-11791508D01*
X9320308Y-11791508D02*
X9329831Y-11801031D01*
X9329831Y-11801031D02*
X9339355Y-11820079D01*
X9339355Y-11820079D02*
X9339355Y-11839127D01*
X9339355Y-11839127D02*
X9329831Y-11867698D01*
X9329831Y-11867698D02*
X9215546Y-11981984D01*
X9215546Y-11981984D02*
X9339355Y-11981984D01*
X9577451Y-11981984D02*
X9577451Y-11781984D01*
X9663165Y-11981984D02*
X9663165Y-11877222D01*
X9663165Y-11877222D02*
X9653641Y-11858174D01*
X9653641Y-11858174D02*
X9634593Y-11848650D01*
X9634593Y-11848650D02*
X9606022Y-11848650D01*
X9606022Y-11848650D02*
X9586974Y-11858174D01*
X9586974Y-11858174D02*
X9577451Y-11867698D01*
X9786974Y-11981984D02*
X9767927Y-11972460D01*
X9767927Y-11972460D02*
X9758403Y-11962936D01*
X9758403Y-11962936D02*
X9748879Y-11943888D01*
X9748879Y-11943888D02*
X9748879Y-11886746D01*
X9748879Y-11886746D02*
X9758403Y-11867698D01*
X9758403Y-11867698D02*
X9767927Y-11858174D01*
X9767927Y-11858174D02*
X9786974Y-11848650D01*
X9786974Y-11848650D02*
X9815546Y-11848650D01*
X9815546Y-11848650D02*
X9834593Y-11858174D01*
X9834593Y-11858174D02*
X9844117Y-11867698D01*
X9844117Y-11867698D02*
X9853641Y-11886746D01*
X9853641Y-11886746D02*
X9853641Y-11943888D01*
X9853641Y-11943888D02*
X9844117Y-11962936D01*
X9844117Y-11962936D02*
X9834593Y-11972460D01*
X9834593Y-11972460D02*
X9815546Y-11981984D01*
X9815546Y-11981984D02*
X9786974Y-11981984D01*
X9967927Y-11981984D02*
X9948879Y-11972460D01*
X9948879Y-11972460D02*
X9939355Y-11953412D01*
X9939355Y-11953412D02*
X9939355Y-11781984D01*
X10120308Y-11972460D02*
X10101260Y-11981984D01*
X10101260Y-11981984D02*
X10063165Y-11981984D01*
X10063165Y-11981984D02*
X10044117Y-11972460D01*
X10044117Y-11972460D02*
X10034593Y-11953412D01*
X10034593Y-11953412D02*
X10034593Y-11877222D01*
X10034593Y-11877222D02*
X10044117Y-11858174D01*
X10044117Y-11858174D02*
X10063165Y-11848650D01*
X10063165Y-11848650D02*
X10101260Y-11848650D01*
X10101260Y-11848650D02*
X10120308Y-11858174D01*
X10120308Y-11858174D02*
X10129832Y-11877222D01*
X10129832Y-11877222D02*
X10129832Y-11896269D01*
X10129832Y-11896269D02*
X10034593Y-11915317D01*
X10206022Y-11972460D02*
X10225070Y-11981984D01*
X10225070Y-11981984D02*
X10263165Y-11981984D01*
X10263165Y-11981984D02*
X10282213Y-11972460D01*
X10282213Y-11972460D02*
X10291736Y-11953412D01*
X10291736Y-11953412D02*
X10291736Y-11943888D01*
X10291736Y-11943888D02*
X10282213Y-11924841D01*
X10282213Y-11924841D02*
X10263165Y-11915317D01*
X10263165Y-11915317D02*
X10234593Y-11915317D01*
X10234593Y-11915317D02*
X10215546Y-11905793D01*
X10215546Y-11905793D02*
X10206022Y-11886746D01*
X10206022Y-11886746D02*
X10206022Y-11877222D01*
X10206022Y-11877222D02*
X10215546Y-11858174D01*
X10215546Y-11858174D02*
X10234593Y-11848650D01*
X10234593Y-11848650D02*
X10263165Y-11848650D01*
X10263165Y-11848650D02*
X10282213Y-11858174D01*
X10358403Y-12058174D02*
X10367927Y-12048650D01*
X10367927Y-12048650D02*
X10386974Y-12020079D01*
X10386974Y-12020079D02*
X10396498Y-12001031D01*
X10396498Y-12001031D02*
X10406022Y-11972460D01*
X10406022Y-11972460D02*
X10415546Y-11924841D01*
X10415546Y-11924841D02*
X10415546Y-11886746D01*
X10415546Y-11886746D02*
X10406022Y-11839127D01*
X10406022Y-11839127D02*
X10396498Y-11810555D01*
X10396498Y-11810555D02*
X10386974Y-11791508D01*
X10386974Y-11791508D02*
X10367927Y-11762936D01*
X10367927Y-11762936D02*
X10358403Y-11753412D01*
M02*
