M48
; DRILL file {KiCad 6.0.1-79c1e3a40b~116~ubuntu20.04.1} date Mo 17 Jan 2022 11:12:08 CET
; FORMAT={-:-/ absolute / inch / decimal}
; #@! TF.CreationDate,2022-01-17T11:12:08+01:00
; #@! TF.GenerationSoftware,Kicad,Pcbnew,6.0.1-79c1e3a40b~116~ubuntu20.04.1
; #@! TF.FileFunction,Plated,1,2,PTH
FMAT,2
INCH
; #@! TA.AperFunction,Plated,PTH,ViaDrill
T1C0.0157
; #@! TA.AperFunction,Plated,PTH,ComponentDrill
T2C0.0299
; #@! TA.AperFunction,Plated,PTH,ComponentDrill
T3C0.0315
; #@! TA.AperFunction,Plated,PTH,ComponentDrill
T4C0.0354
; #@! TA.AperFunction,Plated,PTH,ComponentDrill
T5C0.0394
; #@! TA.AperFunction,Plated,PTH,ComponentDrill
T6C0.0433
; #@! TA.AperFunction,Plated,PTH,ComponentDrill
T7C0.0440
; #@! TA.AperFunction,Plated,PTH,ComponentDrill
T8C0.0945
%
G90
G05
T1
X2.2441Y-3.2949
X2.3084Y-3.348
X2.3388Y-3.2932
X2.3991Y-3.0851
X2.4242Y-3.2538
X2.46Y-3.372
X2.4662Y-3.3037
X2.925Y-3.377
X3.246Y-3.111
X3.367Y-3.459
X4.981Y-3.205
X6.109Y-3.16
X6.5611Y-3.1464
T2
X6.6786Y-3.2476
X6.6786Y-3.3476
X6.6786Y-3.4476
X6.7786Y-3.1976
X6.7786Y-3.2976
X6.7786Y-3.3976
T3
X2.4527Y-3.6153
X2.5019Y-3.6153
X2.6988Y-3.6153
X2.748Y-3.6153
X5.5061Y-3.0239
X5.5061Y-3.4239
X5.6461Y-3.0239
X5.6461Y-3.4239
X5.843Y-3.5343
X5.8922Y-3.5343
X6.0891Y-3.5343
X6.1383Y-3.5343
X6.257Y-3.0201
X6.257Y-3.0693
X6.257Y-3.2662
X6.257Y-3.3154
T4
X7.0221Y-3.2426
X7.0221Y-3.3229
X7.0221Y-3.4032
X7.1221Y-3.2828
X7.1221Y-3.3631
X7.1221Y-3.4434
T5
X2.63Y-3.15
X2.63Y-3.25
X2.63Y-3.35
X2.73Y-3.15
X2.73Y-3.25
X2.73Y-3.35
X5.521Y-3.5529
X5.621Y-3.5529
X6.261Y-3.444
X6.4573Y-3.2183
X6.4573Y-3.3183
X6.4573Y-3.4183
X6.4573Y-3.5183
T6
X3.119Y-3.024
X3.119Y-3.124
X3.119Y-3.224
X3.119Y-3.324
X3.119Y-3.424
X3.119Y-3.524
X3.119Y-3.624
X3.219Y-3.024
X3.219Y-3.624
X3.319Y-3.024
X3.319Y-3.624
X3.419Y-3.024
X3.419Y-3.624
X3.519Y-3.024
X3.519Y-3.624
X3.619Y-3.024
X3.619Y-3.624
X3.719Y-3.024
X3.719Y-3.624
X3.819Y-3.024
X3.819Y-3.624
X3.919Y-3.024
X3.919Y-3.624
X4.019Y-3.024
X4.019Y-3.624
X4.119Y-3.024
X4.119Y-3.624
X4.219Y-3.024
X4.219Y-3.624
X4.319Y-3.024
X4.319Y-3.524
X4.319Y-3.624
X4.419Y-3.024
X4.419Y-3.624
T7
X5.7861Y-3.0239
X5.7861Y-3.3239
X5.8861Y-3.0239
X5.8861Y-3.3239
X5.9861Y-3.0239
X5.9861Y-3.3239
X6.0861Y-3.0239
X6.0861Y-3.3239
T8
X7.2127Y-3.1068
X7.2127Y-3.5792
T0
M30
