G04 #@! TF.GenerationSoftware,KiCad,Pcbnew,6.0.1-79c1e3a40b~116~ubuntu20.04.1*
G04 #@! TF.CreationDate,2022-01-17T11:12:02+01:00*
G04 #@! TF.ProjectId,DNMS,444e4d53-2e6b-4696-9361-645f70636258,V1.6*
G04 #@! TF.SameCoordinates,Original*
G04 #@! TF.FileFunction,Legend,Bot*
G04 #@! TF.FilePolarity,Positive*
%FSLAX46Y46*%
G04 Gerber Fmt 4.6, Leading zero omitted, Abs format (unit mm)*
G04 Created by KiCad (PCBNEW 6.0.1-79c1e3a40b~116~ubuntu20.04.1) date 2022-01-17 11:12:02*
%MOMM*%
%LPD*%
G01*
G04 APERTURE LIST*
%ADD10C,0.150000*%
%ADD11C,0.127000*%
%ADD12C,0.200000*%
G04 APERTURE END LIST*
D10*
X56454895Y-77703419D02*
X56454895Y-78703419D01*
X56788228Y-77989133D01*
X57121561Y-78703419D01*
X57121561Y-77703419D01*
X57597752Y-77703419D02*
X57597752Y-78370085D01*
X57597752Y-78703419D02*
X57550133Y-78655800D01*
X57597752Y-78608180D01*
X57645371Y-78655800D01*
X57597752Y-78703419D01*
X57597752Y-78608180D01*
X58502514Y-77751038D02*
X58407276Y-77703419D01*
X58216800Y-77703419D01*
X58121561Y-77751038D01*
X58073942Y-77798657D01*
X58026323Y-77893895D01*
X58026323Y-78179609D01*
X58073942Y-78274847D01*
X58121561Y-78322466D01*
X58216800Y-78370085D01*
X58407276Y-78370085D01*
X58502514Y-78322466D01*
X58931085Y-77703419D02*
X58931085Y-78370085D01*
X58931085Y-78179609D02*
X58978704Y-78274847D01*
X59026323Y-78322466D01*
X59121561Y-78370085D01*
X59216800Y-78370085D01*
X59692990Y-77703419D02*
X59597752Y-77751038D01*
X59550133Y-77798657D01*
X59502514Y-77893895D01*
X59502514Y-78179609D01*
X59550133Y-78274847D01*
X59597752Y-78322466D01*
X59692990Y-78370085D01*
X59835847Y-78370085D01*
X59931085Y-78322466D01*
X59978704Y-78274847D01*
X60026323Y-78179609D01*
X60026323Y-77893895D01*
X59978704Y-77798657D01*
X59931085Y-77751038D01*
X59835847Y-77703419D01*
X59692990Y-77703419D01*
X56212123Y-89485838D02*
X56307361Y-89438219D01*
X56497838Y-89438219D01*
X56593076Y-89485838D01*
X56640695Y-89581076D01*
X56640695Y-89628695D01*
X56593076Y-89723933D01*
X56497838Y-89771552D01*
X56354980Y-89771552D01*
X56259742Y-89819171D01*
X56212123Y-89914409D01*
X56212123Y-89962028D01*
X56259742Y-90057266D01*
X56354980Y-90104885D01*
X56497838Y-90104885D01*
X56593076Y-90057266D01*
X56926409Y-90104885D02*
X57307361Y-90104885D01*
X57069266Y-90438219D02*
X57069266Y-89581076D01*
X57116885Y-89485838D01*
X57212123Y-89438219D01*
X57307361Y-89438219D01*
X57640695Y-89438219D02*
X57640695Y-90104885D01*
X57640695Y-89914409D02*
X57688314Y-90009647D01*
X57735933Y-90057266D01*
X57831171Y-90104885D01*
X57926409Y-90104885D01*
X58688314Y-89438219D02*
X58688314Y-89962028D01*
X58640695Y-90057266D01*
X58545457Y-90104885D01*
X58354980Y-90104885D01*
X58259742Y-90057266D01*
X58688314Y-89485838D02*
X58593076Y-89438219D01*
X58354980Y-89438219D01*
X58259742Y-89485838D01*
X58212123Y-89581076D01*
X58212123Y-89676314D01*
X58259742Y-89771552D01*
X58354980Y-89819171D01*
X58593076Y-89819171D01*
X58688314Y-89866790D01*
X59164504Y-89438219D02*
X59164504Y-90104885D01*
X59164504Y-90438219D02*
X59116885Y-90390600D01*
X59164504Y-90342980D01*
X59212123Y-90390600D01*
X59164504Y-90438219D01*
X59164504Y-90342980D01*
X60069266Y-90104885D02*
X60069266Y-89295361D01*
X60021647Y-89200123D01*
X59974028Y-89152504D01*
X59878790Y-89104885D01*
X59735933Y-89104885D01*
X59640695Y-89152504D01*
X60069266Y-89485838D02*
X59974028Y-89438219D01*
X59783552Y-89438219D01*
X59688314Y-89485838D01*
X59640695Y-89533457D01*
X59593076Y-89628695D01*
X59593076Y-89914409D01*
X59640695Y-90009647D01*
X59688314Y-90057266D01*
X59783552Y-90104885D01*
X59974028Y-90104885D01*
X60069266Y-90057266D01*
X60545457Y-89438219D02*
X60545457Y-90438219D01*
X60974028Y-89438219D02*
X60974028Y-89962028D01*
X60926409Y-90057266D01*
X60831171Y-90104885D01*
X60688314Y-90104885D01*
X60593076Y-90057266D01*
X60545457Y-90009647D01*
X61307361Y-90104885D02*
X61688314Y-90104885D01*
X61450219Y-90438219D02*
X61450219Y-89581076D01*
X61497838Y-89485838D01*
X61593076Y-89438219D01*
X61688314Y-89438219D01*
X58112066Y-92013019D02*
X58112066Y-91298733D01*
X58064447Y-91155876D01*
X57969209Y-91060638D01*
X57826352Y-91013019D01*
X57731114Y-91013019D01*
X58731114Y-91584447D02*
X58635876Y-91632066D01*
X58588257Y-91679685D01*
X58540638Y-91774923D01*
X58540638Y-91822542D01*
X58588257Y-91917780D01*
X58635876Y-91965400D01*
X58731114Y-92013019D01*
X58921590Y-92013019D01*
X59016828Y-91965400D01*
X59064447Y-91917780D01*
X59112066Y-91822542D01*
X59112066Y-91774923D01*
X59064447Y-91679685D01*
X59016828Y-91632066D01*
X58921590Y-91584447D01*
X58731114Y-91584447D01*
X58635876Y-91536828D01*
X58588257Y-91489209D01*
X58540638Y-91393971D01*
X58540638Y-91203495D01*
X58588257Y-91108257D01*
X58635876Y-91060638D01*
X58731114Y-91013019D01*
X58921590Y-91013019D01*
X59016828Y-91060638D01*
X59064447Y-91108257D01*
X59112066Y-91203495D01*
X59112066Y-91393971D01*
X59064447Y-91489209D01*
X59016828Y-91536828D01*
X58921590Y-91584447D01*
D11*
X60551180Y-80947660D02*
X60551180Y-80147660D01*
X60551180Y-87347660D02*
X60551180Y-88147660D01*
X60551180Y-80147660D02*
X58276180Y-80147660D01*
X60551180Y-88147660D02*
X58276180Y-88147660D01*
X56301180Y-86947660D02*
X56301180Y-81347660D01*
D12*
X61476180Y-87447660D02*
G75*
G03*
X61476180Y-87447660I-100000J0D01*
G01*
M02*
