<?xml version="1.0" standalone="no"?>
 <!DOCTYPE svg PUBLIC "-//W3C//DTD SVG 1.1//EN" 
 "http://www.w3.org/Graphics/SVG/1.1/DTD/svg11.dtd"> 
<svg
  xmlns:svg="http://www.w3.org/2000/svg"
  xmlns="http://www.w3.org/2000/svg"
  xmlns:xlink="http://www.w3.org/1999/xlink"
  version="1.1"
  width="29.700220cm" height="21.000720cm" viewBox="0 0 116930 82680">
<title>SVG Picture created as ICS-43434-PCB.svg date 2022/03/16 12:26:15 </title>
  <desc>Picture generated by Eeschema-SVG </desc>
<g style="fill:#000000; fill-opacity:1.000000;stroke:#000000; stroke-opacity:1.000000;
stroke-linecap:round; stroke-linejoin:round;"
 transform="translate(0 0) scale(1 1)">
</g>
<g style="fill:#840000; fill-opacity:0.0; 
stroke:#840000; stroke-width:0.000000; stroke-opacity:1; 
stroke-linecap:round; stroke-linejoin:round;">
</g>
<g style="fill:#840000; fill-opacity:0.0; 
stroke:#840000; stroke-width:60.000000; stroke-opacity:1; 
stroke-linecap:round; stroke-linejoin:round;">
<rect x="69685.905512" y="65357.165354" width="42519.685039" height="12598.425197" rx="0.000000" />
<rect x="3937.007874" y="3937.007874" width="109055.984252" height="74805.984252" rx="0.000000" />
<rect x="4724.409449" y="4724.409449" width="107481.181102" height="73231.181102" rx="0.000000" />
<path d="M23622 4724
L23622 3937
" />
<path d="M43307 4724
L43307 3937
" />
<path d="M62992 4724
L62992 3937
" />
<path d="M82677 4724
L82677 3937
" />
<path d="M102362 4724
L102362 3937
" />
<text x="13779.527559" y="4586.614173"
textLength="549.960630" font-size="682.401575" lengthAdjust="spacingAndGlyphs"
text-anchor="start" opacity="0">1</text>
<g class="stroked-text"><desc>1</desc>
<path d="M14199 4562
L13907 4562
" />
<path d="M14053 4562
L14053 4050
L14004 4123
L13955 4172
L13907 4196
" />
</g><text x="33464.566929" y="4586.614173"
textLength="547.440945" font-size="682.401575" lengthAdjust="spacingAndGlyphs"
text-anchor="start" opacity="0">2</text>
<g class="stroked-text"><desc>2</desc>
<path d="M33592 4099
L33616 4074
L33665 4050
L33787 4050
L33835 4074
L33860 4099
L33884 4147
L33884 4196
L33860 4269
L33567 4562
L33884 4562
" />
</g><text x="53149.606299" y="4586.614173"
textLength="547.440945" font-size="682.401575" lengthAdjust="spacingAndGlyphs"
text-anchor="start" opacity="0">3</text>
<g class="stroked-text"><desc>3</desc>
<path d="M53252 4050
L53569 4050
L53398 4245
L53472 4245
L53520 4269
L53545 4294
L53569 4342
L53569 4464
L53545 4513
L53520 4537
L53472 4562
L53325 4562
L53277 4537
L53252 4513
" />
</g><text x="72834.645669" y="4586.614173"
textLength="547.440945" font-size="682.401575" lengthAdjust="spacingAndGlyphs"
text-anchor="start" opacity="0">4</text>
<g class="stroked-text"><desc>4</desc>
<path d="M73205 4221
L73205 4562
" />
<path d="M73083 4026
L72962 4391
L73278 4391
" />
</g><text x="92519.685039" y="4586.614173"
textLength="547.440945" font-size="682.401575" lengthAdjust="spacingAndGlyphs"
text-anchor="start" opacity="0">5</text>
<g class="stroked-text"><desc>5</desc>
<path d="M92915 4050
L92671 4050
L92647 4294
L92671 4269
L92720 4245
L92842 4245
L92890 4269
L92915 4294
L92939 4342
L92939 4464
L92915 4513
L92890 4537
L92842 4562
L92720 4562
L92671 4537
L92647 4513
" />
</g><text x="112204.724409" y="4586.614173"
textLength="547.440945" font-size="682.401575" lengthAdjust="spacingAndGlyphs"
text-anchor="start" opacity="0">6</text>
<g class="stroked-text"><desc>6</desc>
<path d="M112575 4050
L112478 4050
L112429 4074
L112405 4099
L112356 4172
L112332 4269
L112332 4464
L112356 4513
L112380 4537
L112429 4562
L112527 4562
L112575 4537
L112600 4513
L112624 4464
L112624 4342
L112600 4294
L112575 4269
L112527 4245
L112429 4245
L112380 4269
L112356 4294
L112332 4342
" />
</g><path d="M23622 77955
L23622 78742
" />
<path d="M43307 77955
L43307 78742
" />
<path d="M62992 77955
L62992 78742
" />
<path d="M82677 77955
L82677 78742
" />
<path d="M102362 77955
L102362 78742
" />
<text x="13779.527559" y="78605.196850"
textLength="547.440945" font-size="682.401575" lengthAdjust="spacingAndGlyphs"
text-anchor="start" opacity="0">1</text>
<g class="stroked-text"><desc>1</desc>
<path d="M14199 78580
L13907 78580
" />
<path d="M14053 78580
L14053 78068
L14004 78142
L13955 78190
L13907 78215
" />
</g><text x="33464.566929" y="78605.196850"
textLength="547.440945" font-size="682.401575" lengthAdjust="spacingAndGlyphs"
text-anchor="start" opacity="0">2</text>
<g class="stroked-text"><desc>2</desc>
<path d="M33592 78117
L33616 78093
L33665 78068
L33787 78068
L33835 78093
L33860 78117
L33884 78166
L33884 78215
L33860 78288
L33567 78580
L33884 78580
" />
</g><text x="53149.606299" y="78605.196850"
textLength="547.440945" font-size="682.401575" lengthAdjust="spacingAndGlyphs"
text-anchor="start" opacity="0">3</text>
<g class="stroked-text"><desc>3</desc>
<path d="M53252 78068
L53569 78068
L53398 78263
L53472 78263
L53520 78288
L53545 78312
L53569 78361
L53569 78483
L53545 78532
L53520 78556
L53472 78580
L53325 78580
L53277 78556
L53252 78532
" />
</g><text x="72834.645669" y="78605.196850"
textLength="547.440945" font-size="682.401575" lengthAdjust="spacingAndGlyphs"
text-anchor="start" opacity="0">4</text>
<g class="stroked-text"><desc>4</desc>
<path d="M73205 78239
L73205 78580
" />
<path d="M73083 78044
L72962 78410
L73278 78410
" />
</g><text x="92519.685039" y="78605.196850"
textLength="547.440945" font-size="682.401575" lengthAdjust="spacingAndGlyphs"
text-anchor="start" opacity="0">5</text>
<g class="stroked-text"><desc>5</desc>
<path d="M92915 78068
L92671 78068
L92647 78312
L92671 78288
L92720 78263
L92842 78263
L92890 78288
L92915 78312
L92939 78361
L92939 78483
L92915 78532
L92890 78556
L92842 78580
L92720 78580
L92671 78556
L92647 78532
" />
</g><text x="112204.724409" y="78605.196850"
textLength="547.440945" font-size="682.401575" lengthAdjust="spacingAndGlyphs"
text-anchor="start" opacity="0">6</text>
<g class="stroked-text"><desc>6</desc>
<path d="M112575 78068
L112478 78068
L112429 78093
L112405 78117
L112356 78190
L112332 78288
L112332 78483
L112356 78532
L112380 78556
L112429 78580
L112527 78580
L112575 78556
L112600 78532
L112624 78483
L112624 78361
L112600 78312
L112575 78288
L112527 78263
L112429 78263
L112380 78288
L112356 78312
L112332 78361
" />
</g><path d="M3937 23622
L4724 23622
" />
<path d="M3937 43307
L4724 43307
" />
<path d="M3937 62992
L4724 62992
" />
<text x="4330.708661" y="14035.433071"
textLength="498.700787" font-size="682.401575" lengthAdjust="spacingAndGlyphs"
text-anchor="middle" opacity="0">A</text>
<g class="stroked-text"><desc>A</desc>
<path d="M4208 13864
L4452 13864
" />
<path d="M4160 14011
L4330 13499
L4501 14011
" />
</g><text x="4330.708661" y="33720.472441"
textLength="571.811024" font-size="682.401575" lengthAdjust="spacingAndGlyphs"
text-anchor="middle" opacity="0">B</text>
<g class="stroked-text"><desc>B</desc>
<path d="M4367 33427
L4440 33452
L4464 33476
L4489 33525
L4489 33598
L4464 33647
L4440 33671
L4391 33696
L4196 33696
L4196 33184
L4367 33184
L4415 33208
L4440 33233
L4464 33281
L4464 33330
L4440 33379
L4415 33403
L4367 33427
L4196 33427
" />
</g><text x="4330.708661" y="53405.511811"
textLength="571.811024" font-size="682.401575" lengthAdjust="spacingAndGlyphs"
text-anchor="middle" opacity="0">C</text>
<g class="stroked-text"><desc>C</desc>
<path d="M4489 53332
L4464 53356
L4391 53381
L4342 53381
L4269 53356
L4221 53307
L4196 53259
L4172 53161
L4172 53088
L4196 52991
L4221 52942
L4269 52893
L4342 52869
L4391 52869
L4464 52893
L4489 52918
" />
</g><text x="4330.708661" y="73090.551181"
textLength="571.811024" font-size="682.401575" lengthAdjust="spacingAndGlyphs"
text-anchor="middle" opacity="0">D</text>
<g class="stroked-text"><desc>D</desc>
<path d="M4196 73066
L4196 72554
L4318 72554
L4391 72578
L4440 72627
L4464 72676
L4489 72773
L4489 72846
L4464 72944
L4440 72993
L4391 73041
L4318 73066
L4196 73066
" />
</g><path d="M112992 23622
L112205 23622
" />
<path d="M112992 43307
L112205 43307
" />
<path d="M112992 62992
L112205 62992
" />
<text x="112599.291339" y="14035.433071"
textLength="498.700787" font-size="682.401575" lengthAdjust="spacingAndGlyphs"
text-anchor="middle" opacity="0">A</text>
<g class="stroked-text"><desc>A</desc>
<path d="M112477 13864
L112721 13864
" />
<path d="M112428 14011
L112599 13499
L112769 14011
" />
</g><text x="112599.291339" y="33720.472441"
textLength="571.811024" font-size="682.401575" lengthAdjust="spacingAndGlyphs"
text-anchor="middle" opacity="0">B</text>
<g class="stroked-text"><desc>B</desc>
<path d="M112635 33427
L112708 33452
L112733 33476
L112757 33525
L112757 33598
L112733 33647
L112708 33671
L112660 33696
L112465 33696
L112465 33184
L112635 33184
L112684 33208
L112708 33233
L112733 33281
L112733 33330
L112708 33379
L112684 33403
L112635 33427
L112465 33427
" />
</g><text x="112599.291339" y="53405.511811"
textLength="571.811024" font-size="682.401575" lengthAdjust="spacingAndGlyphs"
text-anchor="middle" opacity="0">C</text>
<g class="stroked-text"><desc>C</desc>
<path d="M112757 53332
L112733 53356
L112660 53381
L112611 53381
L112538 53356
L112489 53307
L112465 53259
L112440 53161
L112440 53088
L112465 52991
L112489 52942
L112538 52893
L112611 52869
L112660 52869
L112733 52893
L112757 52918
" />
</g><text x="112599.291339" y="73090.551181"
textLength="571.811024" font-size="682.401575" lengthAdjust="spacingAndGlyphs"
text-anchor="middle" opacity="0">D</text>
<g class="stroked-text"><desc>D</desc>
<path d="M112465 73066
L112465 72554
L112587 72554
L112660 72578
L112708 72627
L112733 72676
L112757 72773
L112757 72846
L112733 72944
L112708 72993
L112660 73041
L112587 73066
L112465 73066
" />
</g><text x="78741.023622" y="76321.732283"
textLength="7821.535433" font-size="787.401575" lengthAdjust="spacingAndGlyphs"
text-anchor="start" opacity="0">Date: 16.03.2022</text>
<g class="stroked-text"><desc>Date: 16.03.2022</desc>
<path d="M78911 76293
L78911 75703
L79052 75703
L79136 75731
L79192 75787
L79220 75843
L79249 75956
L79249 76040
L79220 76152
L79192 76209
L79136 76265
L79052 76293
L78911 76293
" />
<path d="M79755 76293
L79755 75984
L79727 75928
L79670 75899
L79558 75899
L79502 75928
" />
<path d="M79755 76265
L79699 76293
L79558 76293
L79502 76265
L79474 76209
L79474 76152
L79502 76096
L79558 76068
L79699 76068
L79755 76040
" />
<path d="M79952 75899
L80177 75899
" />
<path d="M80036 75703
L80036 76209
L80064 76265
L80120 76293
L80177 76293
" />
<path d="M80598 76265
L80542 76293
L80430 76293
L80373 76265
L80345 76209
L80345 75984
L80373 75928
L80430 75899
L80542 75899
L80598 75928
L80627 75984
L80627 76040
L80345 76096
" />
<path d="M80880 76237
L80908 76265
L80880 76293
L80852 76265
L80880 76237
L80880 76293
" />
<path d="M80880 75928
L80908 75956
L80880 75984
L80852 75956
L80880 75928
L80880 75984
" />
<path d="M81920 76293
L81583 76293
" />
<path d="M81751 76293
L81751 75703
L81695 75787
L81639 75843
L81583 75871
" />
<path d="M82426 75703
L82314 75703
L82258 75731
L82229 75759
L82173 75843
L82145 75956
L82145 76181
L82173 76237
L82201 76265
L82258 76293
L82370 76293
L82426 76265
L82454 76237
L82483 76181
L82483 76040
L82454 75984
L82426 75956
L82370 75928
L82258 75928
L82201 75956
L82173 75984
L82145 76040
" />
<path d="M82736 76237
L82764 76265
L82736 76293
L82708 76265
L82736 76237
L82736 76293
" />
<path d="M83129 75703
L83186 75703
L83242 75731
L83270 75759
L83298 75815
L83326 75928
L83326 76068
L83298 76181
L83270 76237
L83242 76265
L83186 76293
L83129 76293
L83073 76265
L83045 76237
L83017 76181
L82989 76068
L82989 75928
L83017 75815
L83045 75759
L83073 75731
L83129 75703
" />
<path d="M83523 75703
L83889 75703
L83692 75928
L83776 75928
L83832 75956
L83860 75984
L83889 76040
L83889 76181
L83860 76237
L83832 76265
L83776 76293
L83607 76293
L83551 76265
L83523 76237
" />
<path d="M84142 76237
L84170 76265
L84142 76293
L84114 76265
L84142 76237
L84142 76293
" />
<path d="M84395 75759
L84423 75731
L84479 75703
L84620 75703
L84676 75731
L84704 75759
L84732 75815
L84732 75871
L84704 75956
L84367 76293
L84732 76293
" />
<path d="M85098 75703
L85154 75703
L85210 75731
L85238 75759
L85267 75815
L85295 75928
L85295 76068
L85267 76181
L85238 76237
L85210 76265
L85154 76293
L85098 76293
L85042 76265
L85013 76237
L84985 76181
L84957 76068
L84957 75928
L84985 75815
L85013 75759
L85042 75731
L85098 75703
" />
<path d="M85520 75759
L85548 75731
L85604 75703
L85745 75703
L85801 75731
L85829 75759
L85857 75815
L85857 75871
L85829 75956
L85492 76293
L85857 76293
" />
<path d="M86082 75759
L86110 75731
L86166 75703
L86307 75703
L86363 75731
L86391 75759
L86420 75815
L86420 75871
L86391 75956
L86054 76293
L86420 76293
" />
</g><path d="M69685 76577
L112205 76577
" />
<text x="70079.606299" y="77424.094488"
textLength="26606.692913" font-size="787.401575" lengthAdjust="spacingAndGlyphs"
text-anchor="start" opacity="0">KiCad E.D.A.  kicad 6.0.2-378541a8eb~116~ubuntu20.04.1</text>
<g class="stroked-text"><desc>KiCad E.D.A.  kicad 6.0.2-378541a8eb~116~ubuntu20.04.1</desc>
<path d="M70250 77395
L70250 76805
" />
<path d="M70587 77395
L70334 77058
" />
<path d="M70587 76805
L70250 77142
" />
<path d="M70840 77395
L70840 77002
" />
<path d="M70840 76805
L70812 76833
L70840 76861
L70868 76833
L70840 76805
L70840 76861
" />
<path d="M71459 77339
L71431 77367
L71346 77395
L71290 77395
L71206 77367
L71150 77311
L71121 77255
L71093 77142
L71093 77058
L71121 76946
L71150 76889
L71206 76833
L71290 76805
L71346 76805
L71431 76833
L71459 76861
" />
<path d="M71965 77395
L71965 77086
L71937 77030
L71881 77002
L71768 77002
L71712 77030
" />
<path d="M71965 77367
L71909 77395
L71768 77395
L71712 77367
L71684 77311
L71684 77255
L71712 77199
L71768 77170
L71909 77170
L71965 77142
" />
<path d="M72499 77395
L72499 76805
" />
<path d="M72499 77367
L72443 77395
L72331 77395
L72274 77367
L72246 77339
L72218 77283
L72218 77114
L72246 77058
L72274 77030
L72331 77002
L72443 77002
L72499 77030
" />
<path d="M73231 77086
L73427 77086
" />
<path d="M73512 77395
L73231 77395
L73231 76805
L73512 76805
" />
<path d="M73765 77339
L73793 77367
L73765 77395
L73737 77367
L73765 77339
L73765 77395
" />
<path d="M74046 77395
L74046 76805
L74187 76805
L74271 76833
L74327 76889
L74355 76946
L74384 77058
L74384 77142
L74355 77255
L74327 77311
L74271 77367
L74187 77395
L74046 77395
" />
<path d="M74637 77339
L74665 77367
L74637 77395
L74609 77367
L74637 77339
L74637 77395
" />
<path d="M74890 77227
L75171 77227
" />
<path d="M74834 77395
L75030 76805
L75227 77395
" />
<path d="M75424 77339
L75452 77367
L75424 77395
L75396 77367
L75424 77339
L75424 77395
" />
<path d="M76605 77395
L76605 76805
" />
<path d="M76661 77170
L76830 77395
" />
<path d="M76830 77002
L76605 77227
" />
<path d="M77083 77395
L77083 77002
" />
<path d="M77083 76805
L77055 76833
L77083 76861
L77111 76833
L77083 76805
L77083 76861
" />
<path d="M77618 77367
L77561 77395
L77449 77395
L77393 77367
L77364 77339
L77336 77283
L77336 77114
L77364 77058
L77393 77030
L77449 77002
L77561 77002
L77618 77030
" />
<path d="M78124 77395
L78124 77086
L78096 77030
L78039 77002
L77927 77002
L77871 77030
" />
<path d="M78124 77367
L78067 77395
L77927 77395
L77871 77367
L77842 77311
L77842 77255
L77871 77199
L77927 77170
L78067 77170
L78124 77142
" />
<path d="M78658 77395
L78658 76805
" />
<path d="M78658 77367
L78602 77395
L78489 77395
L78433 77367
L78405 77339
L78377 77283
L78377 77114
L78405 77058
L78433 77030
L78489 77002
L78602 77002
L78658 77030
" />
<path d="M79642 76805
L79530 76805
L79474 76833
L79445 76861
L79389 76946
L79361 77058
L79361 77283
L79389 77339
L79417 77367
L79474 77395
L79586 77395
L79642 77367
L79670 77339
L79699 77283
L79699 77142
L79670 77086
L79642 77058
L79586 77030
L79474 77030
L79417 77058
L79389 77086
L79361 77142
" />
<path d="M79952 77339
L79980 77367
L79952 77395
L79923 77367
L79952 77339
L79952 77395
" />
<path d="M80345 76805
L80402 76805
L80458 76833
L80486 76861
L80514 76917
L80542 77030
L80542 77170
L80514 77283
L80486 77339
L80458 77367
L80402 77395
L80345 77395
L80289 77367
L80261 77339
L80233 77283
L80205 77170
L80205 77030
L80233 76917
L80261 76861
L80289 76833
L80345 76805
" />
<path d="M80795 77339
L80823 77367
L80795 77395
L80767 77367
L80795 77339
L80795 77395
" />
<path d="M81048 76861
L81076 76833
L81133 76805
L81273 76805
L81330 76833
L81358 76861
L81386 76917
L81386 76974
L81358 77058
L81020 77395
L81386 77395
" />
<path d="M81639 77170
L82089 77170
" />
<path d="M82314 76805
L82679 76805
L82483 77030
L82567 77030
L82623 77058
L82651 77086
L82679 77142
L82679 77283
L82651 77339
L82623 77367
L82567 77395
L82398 77395
L82342 77367
L82314 77339
" />
<path d="M82876 76805
L83270 76805
L83017 77395
" />
<path d="M83579 77058
L83523 77030
L83495 77002
L83467 76946
L83467 76917
L83495 76861
L83523 76833
L83579 76805
L83692 76805
L83748 76833
L83776 76861
L83804 76917
L83804 76946
L83776 77002
L83748 77030
L83692 77058
L83579 77058
L83523 77086
L83495 77114
L83467 77170
L83467 77283
L83495 77339
L83523 77367
L83579 77395
L83692 77395
L83748 77367
L83776 77339
L83804 77283
L83804 77170
L83776 77114
L83748 77086
L83692 77058
" />
<path d="M84339 76805
L84057 76805
L84029 77086
L84057 77058
L84114 77030
L84254 77030
L84310 77058
L84339 77086
L84367 77142
L84367 77283
L84339 77339
L84310 77367
L84254 77395
L84114 77395
L84057 77367
L84029 77339
" />
<path d="M84873 77002
L84873 77395
" />
<path d="M84732 76777
L84592 77199
L84957 77199
" />
<path d="M85492 77395
L85154 77395
" />
<path d="M85323 77395
L85323 76805
L85267 76889
L85210 76946
L85154 76974
" />
<path d="M85998 77395
L85998 77086
L85970 77030
L85913 77002
L85801 77002
L85745 77030
" />
<path d="M85998 77367
L85941 77395
L85801 77395
L85745 77367
L85717 77311
L85717 77255
L85745 77199
L85801 77170
L85941 77170
L85998 77142
" />
<path d="M86363 77058
L86307 77030
L86279 77002
L86251 76946
L86251 76917
L86279 76861
L86307 76833
L86363 76805
L86476 76805
L86532 76833
L86560 76861
L86588 76917
L86588 76946
L86560 77002
L86532 77030
L86476 77058
L86363 77058
L86307 77086
L86279 77114
L86251 77170
L86251 77283
L86279 77339
L86307 77367
L86363 77395
L86476 77395
L86532 77367
L86560 77339
L86588 77283
L86588 77170
L86560 77114
L86532 77086
L86476 77058
" />
<path d="M87066 77367
L87010 77395
L86898 77395
L86841 77367
L86813 77311
L86813 77086
L86841 77030
L86898 77002
L87010 77002
L87066 77030
L87094 77086
L87094 77142
L86813 77199
" />
<path d="M87348 77395
L87348 76805
" />
<path d="M87348 77030
L87404 77002
L87516 77002
L87573 77030
L87601 77058
L87629 77114
L87629 77283
L87601 77339
L87573 77367
L87516 77395
L87404 77395
L87348 77367
" />
<path d="M87797 77170
L87826 77142
L87882 77114
L87994 77170
L88051 77142
L88079 77114
" />
<path d="M88613 77395
L88276 77395
" />
<path d="M88444 77395
L88444 76805
L88388 76889
L88332 76946
L88276 76974
" />
<path d="M89175 77395
L88838 77395
" />
<path d="M89007 77395
L89007 76805
L88950 76889
L88894 76946
L88838 76974
" />
<path d="M89682 76805
L89569 76805
L89513 76833
L89485 76861
L89429 76946
L89400 77058
L89400 77283
L89429 77339
L89457 77367
L89513 77395
L89625 77395
L89682 77367
L89710 77339
L89738 77283
L89738 77142
L89710 77086
L89682 77058
L89625 77030
L89513 77030
L89457 77058
L89429 77086
L89400 77142
" />
<path d="M89907 77170
L89935 77142
L89991 77114
L90103 77170
L90160 77142
L90188 77114
" />
<path d="M90666 77002
L90666 77395
" />
<path d="M90413 77002
L90413 77311
L90441 77367
L90497 77395
L90582 77395
L90638 77367
L90666 77339
" />
<path d="M90947 77395
L90947 76805
" />
<path d="M90947 77030
L91003 77002
L91116 77002
L91172 77030
L91200 77058
L91228 77114
L91228 77283
L91200 77339
L91172 77367
L91116 77395
L91003 77395
L90947 77367
" />
<path d="M91735 77002
L91735 77395
" />
<path d="M91481 77002
L91481 77311
L91510 77367
L91566 77395
L91650 77395
L91706 77367
L91735 77339
" />
<path d="M92016 77002
L92016 77395
" />
<path d="M92016 77058
L92044 77030
L92100 77002
L92184 77002
L92241 77030
L92269 77086
L92269 77395
" />
<path d="M92466 77002
L92691 77002
" />
<path d="M92550 76805
L92550 77311
L92578 77367
L92634 77395
L92691 77395
" />
<path d="M93141 77002
L93141 77395
" />
<path d="M92887 77002
L92887 77311
L92916 77367
L92972 77395
L93056 77395
L93112 77367
L93141 77339
" />
<path d="M93394 76861
L93422 76833
L93478 76805
L93619 76805
L93675 76833
L93703 76861
L93731 76917
L93731 76974
L93703 77058
L93366 77395
L93731 77395
" />
<path d="M94097 76805
L94153 76805
L94209 76833
L94237 76861
L94265 76917
L94294 77030
L94294 77170
L94265 77283
L94237 77339
L94209 77367
L94153 77395
L94097 77395
L94040 77367
L94012 77339
L93984 77283
L93956 77170
L93956 77030
L93984 76917
L94012 76861
L94040 76833
L94097 76805
" />
<path d="M94547 77339
L94575 77367
L94547 77395
L94519 77367
L94547 77339
L94547 77395
" />
<path d="M94940 76805
L94997 76805
L95053 76833
L95081 76861
L95109 76917
L95137 77030
L95137 77170
L95109 77283
L95081 77339
L95053 77367
L94997 77395
L94940 77395
L94884 77367
L94856 77339
L94828 77283
L94800 77170
L94800 77030
L94828 76917
L94856 76861
L94884 76833
L94940 76805
" />
<path d="M95643 77002
L95643 77395
" />
<path d="M95503 76777
L95362 77199
L95728 77199
" />
<path d="M95953 77339
L95981 77367
L95953 77395
L95925 77367
L95953 77339
L95953 77395
" />
<path d="M96543 77395
L96206 77395
" />
<path d="M96375 77395
L96375 76805
L96318 76889
L96262 76946
L96206 76974
" />
</g><path d="M69685 75396
L112205 75396
" />
</g>
<g style="fill:#840000; fill-opacity:0.0; 
stroke:#840000; stroke-width:118.110236; stroke-opacity:1; 
stroke-linecap:round; stroke-linejoin:round;">
<text x="103544.173228" y="76321.732283"
textLength="4250.118110" font-size="787.401575" lengthAdjust="spacingAndGlyphs"
text-anchor="start" opacity="0">Rev: V1.4</text>
<g class="stroked-text"><desc>Rev: V1.4</desc>
<path d="M104098 76293
L103902 76012
" />
<path d="M103761 76293
L103761 75703
L103986 75703
L104042 75731
L104070 75759
L104098 75815
L104098 75899
L104070 75956
L104042 75984
L103986 76012
L103761 76012
" />
<path d="M104577 76265
L104520 76293
L104408 76293
L104352 76265
L104323 76209
L104323 75984
L104352 75928
L104408 75899
L104520 75899
L104577 75928
L104605 75984
L104605 76040
L104323 76096
" />
<path d="M104802 75899
L104942 76293
L105083 75899
" />
<path d="M105308 76237
L105336 76265
L105308 76293
L105280 76265
L105308 76237
L105308 76293
" />
<path d="M105308 75928
L105336 75956
L105308 75984
L105280 75956
L105308 75928
L105308 75984
" />
<path d="M105955 75703
L106151 76293
L106348 75703
" />
<path d="M106854 76293
L106517 76293
" />
<path d="M106686 76293
L106686 75703
L106629 75787
L106573 75843
L106517 75871
" />
<path d="M107107 76237
L107136 76265
L107107 76293
L107079 76265
L107107 76237
L107107 76293
" />
<path d="M107642 75899
L107642 76293
" />
<path d="M107501 75674
L107361 76096
L107726 76096
" />
</g></g>
<g style="fill:#840000; fill-opacity:0.0; 
stroke:#840000; stroke-width:60.000000; stroke-opacity:1; 
stroke-linecap:round; stroke-linejoin:round;">
<text x="70079.606299" y="76321.732283"
textLength="3781.220472" font-size="787.401575" lengthAdjust="spacingAndGlyphs"
text-anchor="start" opacity="0">Size: A4</text>
<g class="stroked-text"><desc>Size: A4</desc>
<path d="M70222 76265
L70306 76293
L70447 76293
L70503 76265
L70531 76237
L70559 76181
L70559 76124
L70531 76068
L70503 76040
L70447 76012
L70334 75984
L70278 75956
L70250 75928
L70222 75871
L70222 75815
L70250 75759
L70278 75731
L70334 75703
L70475 75703
L70559 75731
" />
<path d="M70812 76293
L70812 75899
" />
<path d="M70812 75703
L70784 75731
L70812 75759
L70840 75731
L70812 75703
L70812 75759
" />
<path d="M71037 75899
L71346 75899
L71037 76293
L71346 76293
" />
<path d="M71796 76265
L71740 76293
L71628 76293
L71571 76265
L71543 76209
L71543 75984
L71571 75928
L71628 75899
L71740 75899
L71796 75928
L71825 75984
L71825 76040
L71543 76096
" />
<path d="M72078 76237
L72106 76265
L72078 76293
L72049 76265
L72078 76237
L72078 76293
" />
<path d="M72078 75928
L72106 75956
L72078 75984
L72049 75956
L72078 75928
L72078 75984
" />
<path d="M72781 76124
L73062 76124
" />
<path d="M72724 76293
L72921 75703
L73118 76293
" />
<path d="M73568 75899
L73568 76293
" />
<path d="M73427 75674
L73287 76096
L73652 76096
" />
</g><text x="103544.173228" y="77424.094488"
textLength="3350.196850" font-size="787.401575" lengthAdjust="spacingAndGlyphs"
text-anchor="start" opacity="0">Id: 1/1</text>
<g class="stroked-text"><desc>Id: 1/1</desc>
<path d="M103714 77395
L103714 76805
" />
<path d="M104249 77395
L104249 76805
" />
<path d="M104249 77367
L104192 77395
L104080 77395
L104024 77367
L103995 77339
L103967 77283
L103967 77114
L103995 77058
L104024 77030
L104080 77002
L104192 77002
L104249 77030
" />
<path d="M104530 77339
L104558 77367
L104530 77395
L104502 77367
L104530 77339
L104530 77395
" />
<path d="M104530 77030
L104558 77058
L104530 77086
L104502 77058
L104530 77030
L104530 77086
" />
<path d="M105570 77395
L105233 77395
" />
<path d="M105402 77395
L105402 76805
L105345 76889
L105289 76946
L105233 76974
" />
<path d="M106245 76777
L105739 77536
" />
<path d="M106751 77395
L106414 77395
" />
<path d="M106583 77395
L106583 76805
L106526 76889
L106470 76946
L106414 76974
" />
</g><path d="M69685 73821
L112205 73821
" />
</g>
<g style="fill:#840000; fill-opacity:0.0; 
stroke:#840000; stroke-width:157.480315; stroke-opacity:1; 
stroke-linecap:round; stroke-linejoin:round;">
<text x="70079.606299" y="74924.094488"
textLength="13679.291339" font-size="1049.842520" lengthAdjust="spacingAndGlyphs"
text-anchor="start" opacity="0">Title: ICS-43434-PCB</text>
<g class="stroked-text"><desc>Title: ICS-43434-PCB</desc>
<path d="M70360 74099
L70810 74099
" />
<path d="M70486 74886
L70585 74099
" />
<path d="M70974 74886
L71039 74361
" />
<path d="M71072 74099
L71030 74136
L71063 74174
L71105 74136
L71072 74099
L71063 74174
" />
<path d="M71302 74361
L71602 74361
" />
<path d="M71447 74099
L71363 74774
L71391 74849
L71461 74886
L71536 74886
" />
<path d="M71911 74886
L71841 74849
L71812 74774
L71897 74099
" />
<path d="M72516 74849
L72436 74886
L72286 74886
L72216 74849
L72187 74774
L72225 74474
L72272 74399
L72352 74361
L72501 74361
L72572 74399
L72600 74474
L72591 74549
L72206 74624
" />
<path d="M72895 74811
L72928 74849
L72886 74886
L72853 74849
L72895 74811
L72886 74886
" />
<path d="M72947 74399
L72980 74436
L72937 74474
L72905 74436
L72947 74399
L72937 74474
" />
<path d="M73861 74886
L73959 74099
" />
<path d="M74695 74811
L74653 74849
L74536 74886
L74461 74886
L74353 74849
L74287 74774
L74259 74699
L74240 74549
L74254 74436
L74311 74286
L74357 74211
L74442 74136
L74559 74099
L74634 74099
L74742 74136
L74775 74174
" />
<path d="M74990 74849
L75098 74886
L75285 74886
L75365 74849
L75407 74811
L75454 74736
L75464 74661
L75435 74586
L75403 74549
L75332 74511
L75187 74474
L75117 74436
L75084 74399
L75056 74324
L75065 74249
L75112 74174
L75154 74136
L75234 74099
L75421 74099
L75529 74136
" />
<path d="M75810 74586
L76410 74586
" />
<path d="M77151 74361
L77085 74886
" />
<path d="M77001 74061
L76743 74624
L77231 74624
" />
<path d="M77521 74099
L78009 74099
L77709 74399
L77821 74399
L77891 74436
L77924 74474
L77952 74549
L77929 74736
L77882 74811
L77840 74849
L77760 74886
L77535 74886
L77465 74849
L77432 74811
" />
<path d="M78651 74361
L78585 74886
" />
<path d="M78501 74061
L78243 74624
L78730 74624
" />
<path d="M79021 74099
L79508 74099
L79208 74399
L79321 74399
L79391 74436
L79424 74474
L79452 74549
L79429 74736
L79382 74811
L79340 74849
L79260 74886
L79035 74886
L78965 74849
L78932 74811
" />
<path d="M80151 74361
L80085 74886
" />
<path d="M80001 74061
L79743 74624
L80230 74624
" />
<path d="M80535 74586
L81135 74586
" />
<path d="M81472 74886
L81571 74099
L81871 74099
L81941 74136
L81974 74174
L82002 74249
L81988 74361
L81941 74436
L81899 74474
L81819 74511
L81519 74511
" />
<path d="M82719 74811
L82677 74849
L82560 74886
L82485 74886
L82377 74849
L82311 74774
L82283 74699
L82264 74549
L82278 74436
L82335 74286
L82381 74211
L82466 74136
L82583 74099
L82658 74099
L82766 74136
L82799 74174
" />
<path d="M83361 74474
L83469 74511
L83502 74549
L83530 74624
L83516 74736
L83469 74811
L83427 74849
L83347 74886
L83047 74886
L83145 74099
L83408 74099
L83478 74136
L83511 74174
L83539 74249
L83530 74324
L83483 74399
L83441 74436
L83361 74474
L83099 74474
" />
</g></g>
<g style="fill:#840000; fill-opacity:0.0; 
stroke:#840000; stroke-width:60.000000; stroke-opacity:1; 
stroke-linecap:round; stroke-linejoin:round;">
<text x="70079.606299" y="73408.346457"
textLength="14602.913386" font-size="787.401575" lengthAdjust="spacingAndGlyphs"
text-anchor="start" opacity="0">File: ICS-43434-PCB.kicad_sch</text>
<g class="stroked-text"><desc>File: ICS-43434-PCB.kicad_sch</desc>
<path d="M70447 73070
L70250 73070
" />
<path d="M70250 73380
L70250 72789
L70531 72789
" />
<path d="M70756 73380
L70756 72986
" />
<path d="M70756 72789
L70728 72817
L70756 72845
L70784 72817
L70756 72789
L70756 72845
" />
<path d="M71121 73380
L71065 73352
L71037 73295
L71037 72789
" />
<path d="M71571 73352
L71515 73380
L71403 73380
L71346 73352
L71318 73295
L71318 73070
L71346 73014
L71403 72986
L71515 72986
L71571 73014
L71600 73070
L71600 73127
L71318 73183
" />
<path d="M71853 73323
L71881 73352
L71853 73380
L71825 73352
L71853 73323
L71853 73380
" />
<path d="M71853 73014
L71881 73042
L71853 73070
L71825 73042
L71853 73014
L71853 73070
" />
<path d="M72584 73380
L72584 72789
" />
<path d="M73202 73323
L73174 73352
L73090 73380
L73034 73380
L72949 73352
L72893 73295
L72865 73239
L72837 73127
L72837 73042
L72865 72930
L72893 72874
L72949 72817
L73034 72789
L73090 72789
L73174 72817
L73202 72845
" />
<path d="M73427 73352
L73512 73380
L73652 73380
L73709 73352
L73737 73323
L73765 73267
L73765 73211
L73737 73155
L73709 73127
L73652 73098
L73540 73070
L73484 73042
L73456 73014
L73427 72958
L73427 72902
L73456 72845
L73484 72817
L73540 72789
L73681 72789
L73765 72817
" />
<path d="M74018 73155
L74468 73155
" />
<path d="M75002 72986
L75002 73380
" />
<path d="M74862 72761
L74721 73183
L75087 73183
" />
<path d="M75255 72789
L75621 72789
L75424 73014
L75508 73014
L75565 73042
L75593 73070
L75621 73127
L75621 73267
L75593 73323
L75565 73352
L75508 73380
L75340 73380
L75283 73352
L75255 73323
" />
<path d="M76127 72986
L76127 73380
" />
<path d="M75986 72761
L75846 73183
L76211 73183
" />
<path d="M76380 72789
L76746 72789
L76549 73014
L76633 73014
L76690 73042
L76718 73070
L76746 73127
L76746 73267
L76718 73323
L76690 73352
L76633 73380
L76465 73380
L76408 73352
L76380 73323
" />
<path d="M77252 72986
L77252 73380
" />
<path d="M77111 72761
L76971 73183
L77336 73183
" />
<path d="M77561 73155
L78011 73155
" />
<path d="M78292 73380
L78292 72789
L78517 72789
L78574 72817
L78602 72845
L78630 72902
L78630 72986
L78602 73042
L78574 73070
L78517 73098
L78292 73098
" />
<path d="M79220 73323
L79192 73352
L79108 73380
L79052 73380
L78967 73352
L78911 73295
L78883 73239
L78855 73127
L78855 73042
L78883 72930
L78911 72874
L78967 72817
L79052 72789
L79108 72789
L79192 72817
L79220 72845
" />
<path d="M79670 73070
L79755 73098
L79783 73127
L79811 73183
L79811 73267
L79783 73323
L79755 73352
L79699 73380
L79474 73380
L79474 72789
L79670 72789
L79727 72817
L79755 72845
L79783 72902
L79783 72958
L79755 73014
L79727 73042
L79670 73070
L79474 73070
" />
<path d="M80064 73323
L80092 73352
L80064 73380
L80036 73352
L80064 73323
L80064 73380
" />
<path d="M80345 73380
L80345 72789
" />
<path d="M80402 73155
L80570 73380
" />
<path d="M80570 72986
L80345 73211
" />
<path d="M80823 73380
L80823 72986
" />
<path d="M80823 72789
L80795 72817
L80823 72845
L80852 72817
L80823 72789
L80823 72845
" />
<path d="M81358 73352
L81301 73380
L81189 73380
L81133 73352
L81105 73323
L81076 73267
L81076 73098
L81105 73042
L81133 73014
L81189 72986
L81301 72986
L81358 73014
" />
<path d="M81864 73380
L81864 73070
L81836 73014
L81780 72986
L81667 72986
L81611 73014
" />
<path d="M81864 73352
L81808 73380
L81667 73380
L81611 73352
L81583 73295
L81583 73239
L81611 73183
L81667 73155
L81808 73155
L81864 73127
" />
<path d="M82398 73380
L82398 72789
" />
<path d="M82398 73352
L82342 73380
L82229 73380
L82173 73352
L82145 73323
L82117 73267
L82117 73098
L82145 73042
L82173 73014
L82229 72986
L82342 72986
L82398 73014
" />
<path d="M82539 73436
L82989 73436
" />
<path d="M83101 73352
L83157 73380
L83270 73380
L83326 73352
L83354 73295
L83354 73267
L83326 73211
L83270 73183
L83186 73183
L83129 73155
L83101 73098
L83101 73070
L83129 73014
L83186 72986
L83270 72986
L83326 73014
" />
<path d="M83860 73352
L83804 73380
L83692 73380
L83636 73352
L83607 73323
L83579 73267
L83579 73098
L83607 73042
L83636 73014
L83692 72986
L83804 72986
L83860 73014
" />
<path d="M84114 73380
L84114 72789
" />
<path d="M84367 73380
L84367 73070
L84339 73014
L84282 72986
L84198 72986
L84142 73014
L84114 73042
" />
</g><path d="M69685 71459
L112205 71459
" />
<text x="70079.606299" y="72345.354331"
textLength="3856.417323" font-size="787.401575" lengthAdjust="spacingAndGlyphs"
text-anchor="start" opacity="0">Sheet: /</text>
<g class="stroked-text"><desc>Sheet: /</desc>
<path d="M70222 72289
L70306 72317
L70447 72317
L70503 72289
L70531 72260
L70559 72204
L70559 72148
L70531 72092
L70503 72064
L70447 72035
L70334 72007
L70278 71979
L70250 71951
L70222 71895
L70222 71839
L70250 71782
L70278 71754
L70334 71726
L70475 71726
L70559 71754
" />
<path d="M70812 72317
L70812 71726
" />
<path d="M71065 72317
L71065 72007
L71037 71951
L70981 71923
L70897 71923
L70840 71951
L70812 71979
" />
<path d="M71571 72289
L71515 72317
L71403 72317
L71346 72289
L71318 72232
L71318 72007
L71346 71951
L71403 71923
L71515 71923
L71571 71951
L71600 72007
L71600 72064
L71318 72120
" />
<path d="M72078 72289
L72021 72317
L71909 72317
L71853 72289
L71825 72232
L71825 72007
L71853 71951
L71909 71923
L72021 71923
L72078 71951
L72106 72007
L72106 72064
L71825 72120
" />
<path d="M72274 71923
L72499 71923
" />
<path d="M72359 71726
L72359 72232
L72387 72289
L72443 72317
L72499 72317
" />
<path d="M72696 72260
L72724 72289
L72696 72317
L72668 72289
L72696 72260
L72696 72317
" />
<path d="M72696 71951
L72724 71979
L72696 72007
L72668 71979
L72696 71951
L72696 72007
" />
<path d="M73849 71698
L73343 72457
" />
</g></g>
<g style="fill:#840000; fill-opacity:0.0; 
stroke:#840000; stroke-width:118.110236; stroke-opacity:1; 
stroke-linecap:round; stroke-linejoin:round;">
<text x="70079.606299" y="71164.251969"
textLength="60.000000" font-size="787.401575" lengthAdjust="spacingAndGlyphs"
text-anchor="start" opacity="0"></text>
<g class="stroked-text"><desc></desc>
</g></g>
<g style="fill:#840000; fill-opacity:0.0; 
stroke:#840000; stroke-width:60.000000; stroke-opacity:1; 
stroke-linecap:round; stroke-linejoin:round;">
<text x="70079.606299" y="69983.149606"
textLength="118.110236" font-size="787.401575" lengthAdjust="spacingAndGlyphs"
text-anchor="start" opacity="0"></text>
<g class="stroked-text"><desc></desc>
</g><text x="70079.606299" y="68802.047244"
textLength="60.000000" font-size="787.401575" lengthAdjust="spacingAndGlyphs"
text-anchor="start" opacity="0"></text>
<g class="stroked-text"><desc></desc>
</g><text x="70079.606299" y="67620.944882"
textLength="60.000000" font-size="787.401575" lengthAdjust="spacingAndGlyphs"
text-anchor="start" opacity="0"></text>
<g class="stroked-text"><desc></desc>
</g><text x="70079.606299" y="66439.842520"
textLength="60.000000" font-size="787.401575" lengthAdjust="spacingAndGlyphs"
text-anchor="start" opacity="0"></text>
<g class="stroked-text"><desc></desc>
</g><path d="M77559 75396
L77559 76577
" />
<path d="M102756 75396
L102756 77955
" />
<g >
<path style="fill:#840000; fill-opacity:0.0; 
stroke:#840000; stroke-width:60.000000; stroke-opacity:1; 
stroke-linecap:round; stroke-linejoin:round;fill:none"
d="M 39500.000000,47500.000000
39500.000000,48000.000000
39900.000000,48250.000000
39500.000000,48500.000000
39100.000000,48250.000000
39500.000000,48000.000000
" /> 
<path d="M39500 47500
L39500 47500
" />
</g>
<g style="fill:#008484; fill-opacity:0.0; 
stroke:#008484; stroke-width:60.000000; stroke-opacity:1; 
stroke-linecap:round; stroke-linejoin:round;">
<text x="39499.960630" y="49480.000000"
textLength="3774.291339" font-size="666.653543" lengthAdjust="spacingAndGlyphs"
text-anchor="middle" opacity="0">PWR_FLAG</text>
<g class="stroked-text"><desc>PWR_FLAG</desc>
<path d="M37761 49456
L37761 48956
L37952 48956
L37999 48980
L38023 49003
L38047 49051
L38047 49122
L38023 49170
L37999 49194
L37952 49218
L37761 49218
" />
<path d="M38214 48956
L38333 49456
L38428 49099
L38523 49456
L38642 48956
" />
<path d="M39118 49456
L38952 49218
" />
<path d="M38833 49456
L38833 48956
L39023 48956
L39071 48980
L39095 49003
L39118 49051
L39118 49122
L39095 49170
L39071 49194
L39023 49218
L38833 49218
" />
<path d="M39214 49503
L39595 49503
" />
<path d="M39880 49194
L39714 49194
" />
<path d="M39714 49456
L39714 48956
L39952 48956
" />
<path d="M40380 49456
L40142 49456
L40142 48956
" />
<path d="M40523 49313
L40761 49313
" />
<path d="M40476 49456
L40642 48956
L40809 49456
" />
<path d="M41238 48980
L41190 48956
L41118 48956
L41047 48980
L40999 49027
L40976 49075
L40952 49170
L40952 49241
L40976 49337
L40999 49384
L41047 49432
L41118 49456
L41166 49456
L41238 49432
L41261 49408
L41261 49241
L41166 49241
" />
</g></g>
</g>
<g style="fill:#008484; fill-opacity:0.0; 
stroke:#008484; stroke-width:60.000000; stroke-opacity:1; 
stroke-linecap:round; stroke-linejoin:round;">
<g >
</g>
<g style="fill:#840000; fill-opacity:0.0; 
stroke:#840000; stroke-width:60.000000; stroke-opacity:1; 
stroke-linecap:round; stroke-linejoin:round;">
</g>
<g style="fill:#840000; fill-opacity:0.0; 
stroke:#840000; stroke-width:200.000000; stroke-opacity:1; 
stroke-linecap:round; stroke-linejoin:round;">
<path style="fill:#840000; fill-opacity:0.0; 
stroke:#840000; stroke-width:200.000000; stroke-opacity:1; 
stroke-linecap:round; stroke-linejoin:round;fill:none"
d="M 71700.000000,38300.000000
73300.000000,38300.000000
" /> 
<path style="fill:#840000; fill-opacity:0.0; 
stroke:#840000; stroke-width:200.000000; stroke-opacity:1; 
stroke-linecap:round; stroke-linejoin:round;fill:none"
d="M 71700.000000,37700.000000
73300.000000,37700.000000
" /> 
</g>
<g style="fill:#840000; fill-opacity:0.0; 
stroke:#840000; stroke-width:60.000000; stroke-opacity:1; 
stroke-linecap:round; stroke-linejoin:round;">
<path d="M72500 37600
L72500 36500
" />
<path d="M72500 38400
L72500 39500
" />
</g>
<g style="fill:#008484; fill-opacity:0.0; 
stroke:#008484; stroke-width:60.000000; stroke-opacity:1; 
stroke-linecap:round; stroke-linejoin:round;">
<text x="74169.330709" y="37789.960630"
textLength="1036.181102" font-size="666.653543" lengthAdjust="spacingAndGlyphs"
text-anchor="middle" opacity="0">C1</text>
<g class="stroked-text"><desc>C1</desc>
<path d="M74085 37718
L74062 37742
L73990 37766
L73943 37766
L73871 37742
L73824 37694
L73800 37647
L73776 37551
L73776 37480
L73800 37385
L73824 37337
L73871 37289
L73943 37266
L73990 37266
L74062 37289
L74085 37313
" />
<path d="M74562 37766
L74276 37766
" />
<path d="M74419 37766
L74419 37266
L74371 37337
L74324 37385
L74276 37408
" />
</g><text x="74836.023622" y="38699.960630"
textLength="2369.527559" font-size="666.653543" lengthAdjust="spacingAndGlyphs"
text-anchor="middle" opacity="0">100nF</text>
<g class="stroked-text"><desc>100nF</desc>
<path d="M74062 38676
L73776 38676
" />
<path d="M73919 38676
L73919 38176
L73871 38247
L73824 38295
L73776 38318
" />
<path d="M74371 38176
L74419 38176
L74466 38199
L74490 38223
L74514 38271
L74538 38366
L74538 38485
L74514 38580
L74490 38628
L74466 38652
L74419 38676
L74371 38676
L74324 38652
L74300 38628
L74276 38580
L74252 38485
L74252 38366
L74276 38271
L74300 38223
L74324 38199
L74371 38176
" />
<path d="M74847 38176
L74895 38176
L74943 38199
L74966 38223
L74990 38271
L75014 38366
L75014 38485
L74990 38580
L74966 38628
L74943 38652
L74895 38676
L74847 38676
L74800 38652
L74776 38628
L74752 38580
L74728 38485
L74728 38366
L74752 38271
L74776 38223
L74800 38199
L74847 38176
" />
<path d="M75228 38342
L75228 38676
" />
<path d="M75228 38390
L75252 38366
L75300 38342
L75371 38342
L75419 38366
L75443 38414
L75443 38676
" />
<path d="M75847 38414
L75681 38414
" />
<path d="M75681 38676
L75681 38176
L75919 38176
" />
</g></g>
</g>
<g style="fill:#008484; fill-opacity:0.0; 
stroke:#008484; stroke-width:60.000000; stroke-opacity:1; 
stroke-linecap:round; stroke-linejoin:round;">
<g >
</g>
<g style="fill:#840000; fill-opacity:0.0; 
stroke:#840000; stroke-width:60.000000; stroke-opacity:1; 
stroke-linecap:round; stroke-linejoin:round;">
<path style="fill:#840000; fill-opacity:0.0; 
stroke:#840000; stroke-width:60.000000; stroke-opacity:1; 
stroke-linecap:round; stroke-linejoin:round;fill:none"
d="M 72500.000000,43000.000000
72500.000000,43500.000000
73000.000000,43500.000000
72500.000000,44000.000000
72000.000000,43500.000000
72500.000000,43500.000000
" /> 
</g>
<g style="fill:#008484; fill-opacity:0.0; 
stroke:#008484; stroke-width:60.000000; stroke-opacity:1; 
stroke-linecap:round; stroke-linejoin:round;">
<text x="72550.000000" y="44979.960630"
textLength="1583.818898" font-size="666.653543" lengthAdjust="spacingAndGlyphs"
text-anchor="middle" opacity="0">GND</text>
<g class="stroked-text"><desc>GND</desc>
<path d="M72169 44479
L72121 44456
L72050 44456
L71978 44479
L71930 44527
L71907 44575
L71883 44670
L71883 44741
L71907 44837
L71930 44884
L71978 44932
L72050 44956
L72097 44956
L72169 44932
L72192 44908
L72192 44741
L72097 44741
" />
<path d="M72407 44956
L72407 44456
L72692 44956
L72692 44456
" />
<path d="M72930 44956
L72930 44456
L73050 44456
L73121 44479
L73169 44527
L73192 44575
L73216 44670
L73216 44741
L73192 44837
L73169 44884
L73121 44932
L73050 44956
L72930 44956
" />
</g></g>
</g>
<g style="fill:#008484; fill-opacity:0.0; 
stroke:#008484; stroke-width:60.000000; stroke-opacity:1; 
stroke-linecap:round; stroke-linejoin:round;">
<g >
</g>
<g style="fill:#840000; fill-opacity:0.0; 
stroke:#840000; stroke-width:60.000000; stroke-opacity:1; 
stroke-linecap:round; stroke-linejoin:round;">
<path style="fill:#840000; fill-opacity:0.0; 
stroke:#840000; stroke-width:60.000000; stroke-opacity:1; 
stroke-linecap:round; stroke-linejoin:round;fill:none"
d="M 41000.000000,34500.000000
45000.000000,34500.000000
45000.000000,41500.000000
41000.000000,41500.000000
Z" /> 
<path d="M41000 40500
L39000 40500
" />
</g>
<g style="fill:#008484; fill-opacity:0.0; 
stroke:#008484; stroke-width:60.000000; stroke-opacity:1; 
stroke-linecap:round; stroke-linejoin:round;">
<text x="41300.000000" y="40750.000000"
textLength="536.181102" font-size="666.653543" lengthAdjust="spacingAndGlyphs"
text-anchor="start" opacity="0">6</text>
<g class="stroked-text"><desc>6</desc>
<path d="M41663 40226
L41568 40226
L41520 40250
L41496 40273
L41449 40345
L41425 40440
L41425 40630
L41449 40678
L41472 40702
L41520 40726
L41615 40726
L41663 40702
L41687 40678
L41710 40630
L41710 40511
L41687 40464
L41663 40440
L41615 40416
L41520 40416
L41472 40440
L41449 40464
L41425 40511
" />
</g></g>
<g style="fill:#840000; fill-opacity:0.0; 
stroke:#840000; stroke-width:60.000000; stroke-opacity:1; 
stroke-linecap:round; stroke-linejoin:round;">
<text x="40000.000000" y="40400.000000"
textLength="536.181102" font-size="666.653543" lengthAdjust="spacingAndGlyphs"
text-anchor="middle" opacity="0">1</text>
<g class="stroked-text"><desc>1</desc>
<path d="M40142 40376
L39857 40376
" />
<path d="M40000 40376
L40000 39876
L39952 39947
L39904 39995
L39857 40019
" />
</g><path d="M41000 39500
L39000 39500
" />
</g>
<g style="fill:#008484; fill-opacity:0.0; 
stroke:#008484; stroke-width:60.000000; stroke-opacity:1; 
stroke-linecap:round; stroke-linejoin:round;">
<text x="41300.000000" y="39750.000000"
textLength="536.181102" font-size="666.653543" lengthAdjust="spacingAndGlyphs"
text-anchor="start" opacity="0">5</text>
<g class="stroked-text"><desc>5</desc>
<path d="M41687 39226
L41449 39226
L41425 39464
L41449 39440
L41496 39416
L41615 39416
L41663 39440
L41687 39464
L41710 39511
L41710 39630
L41687 39678
L41663 39702
L41615 39726
L41496 39726
L41449 39702
L41425 39678
" />
</g></g>
<g style="fill:#840000; fill-opacity:0.0; 
stroke:#840000; stroke-width:60.000000; stroke-opacity:1; 
stroke-linecap:round; stroke-linejoin:round;">
<text x="40000.000000" y="39400.000000"
textLength="536.181102" font-size="666.653543" lengthAdjust="spacingAndGlyphs"
text-anchor="middle" opacity="0">2</text>
<g class="stroked-text"><desc>2</desc>
<path d="M39857 38923
L39880 38900
L39928 38876
L40047 38876
L40095 38900
L40119 38923
L40142 38971
L40142 39019
L40119 39090
L39833 39376
L40142 39376
" />
</g><path d="M41000 38500
L39000 38500
" />
</g>
<g style="fill:#008484; fill-opacity:0.0; 
stroke:#008484; stroke-width:60.000000; stroke-opacity:1; 
stroke-linecap:round; stroke-linejoin:round;">
<text x="41300.000000" y="38750.000000"
textLength="536.181102" font-size="666.653543" lengthAdjust="spacingAndGlyphs"
text-anchor="start" opacity="0">4</text>
<g class="stroked-text"><desc>4</desc>
<path d="M41663 38392
L41663 38726
" />
<path d="M41544 38202
L41425 38559
L41734 38559
" />
</g></g>
<g style="fill:#840000; fill-opacity:0.0; 
stroke:#840000; stroke-width:60.000000; stroke-opacity:1; 
stroke-linecap:round; stroke-linejoin:round;">
<text x="40000.000000" y="38400.000000"
textLength="536.181102" font-size="666.653543" lengthAdjust="spacingAndGlyphs"
text-anchor="middle" opacity="0">3</text>
<g class="stroked-text"><desc>3</desc>
<path d="M39833 37876
L40142 37876
L39976 38066
L40047 38066
L40095 38090
L40119 38114
L40142 38161
L40142 38280
L40119 38328
L40095 38352
L40047 38376
L39904 38376
L39857 38352
L39833 38328
" />
</g><path d="M41000 37500
L39000 37500
" />
</g>
<g style="fill:#008484; fill-opacity:0.0; 
stroke:#008484; stroke-width:60.000000; stroke-opacity:1; 
stroke-linecap:round; stroke-linejoin:round;">
<text x="41300.000000" y="37750.000000"
textLength="536.181102" font-size="666.653543" lengthAdjust="spacingAndGlyphs"
text-anchor="start" opacity="0">3</text>
<g class="stroked-text"><desc>3</desc>
<path d="M41401 37226
L41710 37226
L41544 37416
L41615 37416
L41663 37440
L41687 37464
L41710 37511
L41710 37630
L41687 37678
L41663 37702
L41615 37726
L41472 37726
L41425 37702
L41401 37678
" />
</g></g>
<g style="fill:#840000; fill-opacity:0.0; 
stroke:#840000; stroke-width:60.000000; stroke-opacity:1; 
stroke-linecap:round; stroke-linejoin:round;">
<text x="40000.000000" y="37400.000000"
textLength="536.181102" font-size="666.653543" lengthAdjust="spacingAndGlyphs"
text-anchor="middle" opacity="0">4</text>
<g class="stroked-text"><desc>4</desc>
<path d="M40095 37042
L40095 37376
" />
<path d="M39976 36852
L39857 37209
L40166 37209
" />
</g><path d="M41000 36500
L39000 36500
" />
</g>
<g style="fill:#008484; fill-opacity:0.0; 
stroke:#008484; stroke-width:60.000000; stroke-opacity:1; 
stroke-linecap:round; stroke-linejoin:round;">
<text x="41300.000000" y="36750.000000"
textLength="536.181102" font-size="666.653543" lengthAdjust="spacingAndGlyphs"
text-anchor="start" opacity="0">2</text>
<g class="stroked-text"><desc>2</desc>
<path d="M41425 36273
L41449 36250
L41496 36226
L41615 36226
L41663 36250
L41687 36273
L41710 36321
L41710 36369
L41687 36440
L41401 36726
L41710 36726
" />
</g></g>
<g style="fill:#840000; fill-opacity:0.0; 
stroke:#840000; stroke-width:60.000000; stroke-opacity:1; 
stroke-linecap:round; stroke-linejoin:round;">
<text x="40000.000000" y="36400.000000"
textLength="536.181102" font-size="666.653543" lengthAdjust="spacingAndGlyphs"
text-anchor="middle" opacity="0">5</text>
<g class="stroked-text"><desc>5</desc>
<path d="M40119 35876
L39880 35876
L39857 36114
L39880 36090
L39928 36066
L40047 36066
L40095 36090
L40119 36114
L40142 36161
L40142 36280
L40119 36328
L40095 36352
L40047 36376
L39928 36376
L39880 36352
L39857 36328
" />
</g><path d="M41000 35500
L39000 35500
" />
</g>
<g style="fill:#008484; fill-opacity:0.0; 
stroke:#008484; stroke-width:60.000000; stroke-opacity:1; 
stroke-linecap:round; stroke-linejoin:round;">
<text x="41300.000000" y="35750.000000"
textLength="536.181102" font-size="666.653543" lengthAdjust="spacingAndGlyphs"
text-anchor="start" opacity="0">1</text>
<g class="stroked-text"><desc>1</desc>
<path d="M41710 35726
L41425 35726
" />
<path d="M41568 35726
L41568 35226
L41520 35297
L41472 35345
L41425 35369
" />
</g></g>
<g style="fill:#840000; fill-opacity:0.0; 
stroke:#840000; stroke-width:60.000000; stroke-opacity:1; 
stroke-linecap:round; stroke-linejoin:round;">
<text x="40000.000000" y="35400.000000"
textLength="536.181102" font-size="666.653543" lengthAdjust="spacingAndGlyphs"
text-anchor="middle" opacity="0">6</text>
<g class="stroked-text"><desc>6</desc>
<path d="M40095 34876
L40000 34876
L39952 34900
L39928 34923
L39880 34995
L39857 35090
L39857 35280
L39880 35328
L39904 35352
L39952 35376
L40047 35376
L40095 35352
L40119 35328
L40142 35280
L40142 35161
L40119 35114
L40095 35090
L40047 35066
L39952 35066
L39904 35090
L39880 35114
L39857 35161
" />
</g><path d="M45000 35500
L47000 35500
" />
</g>
<g style="fill:#008484; fill-opacity:0.0; 
stroke:#008484; stroke-width:60.000000; stroke-opacity:1; 
stroke-linecap:round; stroke-linejoin:round;">
<text x="44700.000000" y="35750.000000"
textLength="536.181102" font-size="666.653543" lengthAdjust="spacingAndGlyphs"
text-anchor="end" opacity="0">7</text>
<g class="stroked-text"><desc>7</desc>
<path d="M44265 35226
L44598 35226
L44384 35726
" />
</g></g>
<g style="fill:#840000; fill-opacity:0.0; 
stroke:#840000; stroke-width:60.000000; stroke-opacity:1; 
stroke-linecap:round; stroke-linejoin:round;">
<text x="46000.000000" y="35400.000000"
textLength="1607.637795" font-size="666.653543" lengthAdjust="spacingAndGlyphs"
text-anchor="middle" opacity="0">MP1</text>
<g class="stroked-text"><desc>MP1</desc>
<path d="M45345 35376
L45345 34876
L45511 35233
L45678 34876
L45678 35376
" />
<path d="M45916 35376
L45916 34876
L46107 34876
L46154 34900
L46178 34923
L46202 34971
L46202 35042
L46178 35090
L46154 35114
L46107 35138
L45916 35138
" />
<path d="M46678 35376
L46392 35376
" />
<path d="M46535 35376
L46535 34876
L46488 34947
L46440 34995
L46392 35019
" />
</g><path d="M45000 36500
L47000 36500
" />
</g>
<g style="fill:#008484; fill-opacity:0.0; 
stroke:#008484; stroke-width:60.000000; stroke-opacity:1; 
stroke-linecap:round; stroke-linejoin:round;">
<text x="44700.000000" y="36750.000000"
textLength="536.181102" font-size="666.653543" lengthAdjust="spacingAndGlyphs"
text-anchor="end" opacity="0">8</text>
<g class="stroked-text"><desc>8</desc>
<path d="M44384 36440
L44336 36416
L44312 36392
L44289 36345
L44289 36321
L44312 36273
L44336 36250
L44384 36226
L44479 36226
L44527 36250
L44550 36273
L44574 36321
L44574 36345
L44550 36392
L44527 36416
L44479 36440
L44384 36440
L44336 36464
L44312 36488
L44289 36535
L44289 36630
L44312 36678
L44336 36702
L44384 36726
L44479 36726
L44527 36702
L44550 36678
L44574 36630
L44574 36535
L44550 36488
L44527 36464
L44479 36440
" />
</g></g>
<g style="fill:#840000; fill-opacity:0.0; 
stroke:#840000; stroke-width:60.000000; stroke-opacity:1; 
stroke-linecap:round; stroke-linejoin:round;">
<text x="46000.000000" y="36400.000000"
textLength="1607.637795" font-size="666.653543" lengthAdjust="spacingAndGlyphs"
text-anchor="middle" opacity="0">MP2</text>
<g class="stroked-text"><desc>MP2</desc>
<path d="M45345 36376
L45345 35876
L45511 36233
L45678 35876
L45678 36376
" />
<path d="M45916 36376
L45916 35876
L46107 35876
L46154 35900
L46178 35923
L46202 35971
L46202 36042
L46178 36090
L46154 36114
L46107 36138
L45916 36138
" />
<path d="M46392 35923
L46416 35900
L46464 35876
L46583 35876
L46630 35900
L46654 35923
L46678 35971
L46678 36019
L46654 36090
L46369 36376
L46678 36376
" />
</g></g>
<g style="fill:#008484; fill-opacity:0.0; 
stroke:#008484; stroke-width:60.000000; stroke-opacity:1; 
stroke-linecap:round; stroke-linejoin:round;">
<text x="43000.000000" y="33099.960630"
textLength="917.125984" font-size="666.653543" lengthAdjust="spacingAndGlyphs"
text-anchor="middle" opacity="0">J1</text>
<g class="stroked-text"><desc>J1</desc>
<path d="M42833 32576
L42833 32933
L42809 33004
L42761 33052
L42690 33076
L42642 33076
" />
<path d="M43333 33076
L43047 33076
" />
<path d="M43190 33076
L43190 32576
L43142 32647
L43095 32695
L43047 32718
" />
</g><text x="43000.000000" y="34009.960630"
textLength="9988.582677" font-size="666.653543" lengthAdjust="spacingAndGlyphs"
text-anchor="middle" opacity="0">BM06B-SRSS-TB_LF__SN_</text>
<g class="stroked-text"><desc>BM06B-SRSS-TB_LF__SN_</desc>
<path d="M38321 33724
L38392 33748
L38416 33771
L38440 33819
L38440 33890
L38416 33938
L38392 33962
L38345 33986
L38154 33986
L38154 33486
L38321 33486
L38369 33509
L38392 33533
L38416 33581
L38416 33628
L38392 33676
L38369 33700
L38321 33724
L38154 33724
" />
<path d="M38654 33986
L38654 33486
L38821 33843
L38988 33486
L38988 33986
" />
<path d="M39321 33486
L39369 33486
L39416 33509
L39440 33533
L39464 33581
L39488 33676
L39488 33795
L39464 33890
L39440 33938
L39416 33962
L39369 33986
L39321 33986
L39273 33962
L39250 33938
L39226 33890
L39202 33795
L39202 33676
L39226 33581
L39250 33533
L39273 33509
L39321 33486
" />
<path d="M39916 33486
L39821 33486
L39773 33509
L39750 33533
L39702 33605
L39678 33700
L39678 33890
L39702 33938
L39726 33962
L39773 33986
L39869 33986
L39916 33962
L39940 33938
L39964 33890
L39964 33771
L39940 33724
L39916 33700
L39869 33676
L39773 33676
L39726 33700
L39702 33724
L39678 33771
" />
<path d="M40345 33724
L40416 33748
L40440 33771
L40464 33819
L40464 33890
L40440 33938
L40416 33962
L40369 33986
L40178 33986
L40178 33486
L40345 33486
L40392 33509
L40416 33533
L40440 33581
L40440 33628
L40416 33676
L40392 33700
L40345 33724
L40178 33724
" />
<path d="M40678 33795
L41059 33795
" />
<path d="M41273 33962
L41345 33986
L41464 33986
L41511 33962
L41535 33938
L41559 33890
L41559 33843
L41535 33795
L41511 33771
L41464 33748
L41369 33724
L41321 33700
L41297 33676
L41273 33628
L41273 33581
L41297 33533
L41321 33509
L41369 33486
L41488 33486
L41559 33509
" />
<path d="M42059 33986
L41892 33748
" />
<path d="M41773 33986
L41773 33486
L41964 33486
L42011 33509
L42035 33533
L42059 33581
L42059 33652
L42035 33700
L42011 33724
L41964 33748
L41773 33748
" />
<path d="M42250 33962
L42321 33986
L42440 33986
L42488 33962
L42511 33938
L42535 33890
L42535 33843
L42511 33795
L42488 33771
L42440 33748
L42345 33724
L42297 33700
L42273 33676
L42250 33628
L42250 33581
L42273 33533
L42297 33509
L42345 33486
L42464 33486
L42535 33509
" />
<path d="M42726 33962
L42797 33986
L42916 33986
L42964 33962
L42988 33938
L43011 33890
L43011 33843
L42988 33795
L42964 33771
L42916 33748
L42821 33724
L42773 33700
L42750 33676
L42726 33628
L42726 33581
L42750 33533
L42773 33509
L42821 33486
L42940 33486
L43011 33509
" />
<path d="M43226 33795
L43607 33795
" />
<path d="M43773 33486
L44059 33486
" />
<path d="M43916 33986
L43916 33486
" />
<path d="M44392 33724
L44464 33748
L44488 33771
L44511 33819
L44511 33890
L44488 33938
L44464 33962
L44416 33986
L44226 33986
L44226 33486
L44392 33486
L44440 33509
L44464 33533
L44488 33581
L44488 33628
L44464 33676
L44440 33700
L44392 33724
L44226 33724
" />
<path d="M44607 34033
L44988 34033
" />
<path d="M45345 33986
L45107 33986
L45107 33486
" />
<path d="M45678 33724
L45511 33724
" />
<path d="M45511 33986
L45511 33486
L45750 33486
" />
<path d="M45821 34033
L46202 34033
" />
<path d="M46202 34033
L46583 34033
" />
<path d="M46678 33962
L46750 33986
L46869 33986
L46916 33962
L46940 33938
L46964 33890
L46964 33843
L46940 33795
L46916 33771
L46869 33748
L46773 33724
L46726 33700
L46702 33676
L46678 33628
L46678 33581
L46702 33533
L46726 33509
L46773 33486
L46892 33486
L46964 33509
" />
<path d="M47178 33986
L47178 33486
L47464 33986
L47464 33486
" />
<path d="M47583 34033
L47964 34033
" />
</g></g>
</g>
<g style="fill:#008484; fill-opacity:0.0; 
stroke:#008484; stroke-width:60.000000; stroke-opacity:1; 
stroke-linecap:round; stroke-linejoin:round;">
<g >
</g>
<g style="fill:#840000; fill-opacity:0.0; 
stroke:#840000; stroke-width:60.000000; stroke-opacity:1; 
stroke-linecap:round; stroke-linejoin:round;">
<path style="fill:#840000; fill-opacity:0.0; 
stroke:#840000; stroke-width:60.000000; stroke-opacity:1; 
stroke-linecap:round; stroke-linejoin:round;fill:none"
d="M 47000.000000,37500.000000
47000.000000,38000.000000
47500.000000,38000.000000
47000.000000,38500.000000
46500.000000,38000.000000
47000.000000,38000.000000
" /> 
</g>
<g style="fill:#008484; fill-opacity:0.0; 
stroke:#008484; stroke-width:60.000000; stroke-opacity:1; 
stroke-linecap:round; stroke-linejoin:round;">
<text x="47050.000000" y="39479.960630"
textLength="1583.818898" font-size="666.653543" lengthAdjust="spacingAndGlyphs"
text-anchor="middle" opacity="0">GND</text>
<g class="stroked-text"><desc>GND</desc>
<path d="M46669 38979
L46621 38956
L46550 38956
L46478 38979
L46430 39027
L46407 39075
L46383 39170
L46383 39241
L46407 39337
L46430 39384
L46478 39432
L46550 39456
L46597 39456
L46669 39432
L46692 39408
L46692 39241
L46597 39241
" />
<path d="M46907 39456
L46907 38956
L47192 39456
L47192 38956
" />
<path d="M47430 39456
L47430 38956
L47550 38956
L47621 38979
L47669 39027
L47692 39075
L47716 39170
L47716 39241
L47692 39337
L47669 39384
L47621 39432
L47550 39456
L47430 39456
" />
</g></g>
</g>
<g style="fill:#008484; fill-opacity:0.0; 
stroke:#008484; stroke-width:60.000000; stroke-opacity:1; 
stroke-linecap:round; stroke-linejoin:round;">
<g >
</g>
<g style="fill:#840000; fill-opacity:0.0; 
stroke:#840000; stroke-width:60.000000; stroke-opacity:1; 
stroke-linecap:round; stroke-linejoin:round;">
<path style="fill:#840000; fill-opacity:0.0; 
stroke:#840000; stroke-width:60.000000; stroke-opacity:1; 
stroke-linecap:round; stroke-linejoin:round;fill:none"
d="M 34700.000000,38000.000000
35000.000000,37500.000000
" /> 
<path style="fill:#840000; fill-opacity:0.0; 
stroke:#840000; stroke-width:60.000000; stroke-opacity:1; 
stroke-linecap:round; stroke-linejoin:round;fill:none"
d="M 35000.000000,38500.000000
35000.000000,37500.000000
" /> 
<path style="fill:#840000; fill-opacity:0.0; 
stroke:#840000; stroke-width:60.000000; stroke-opacity:1; 
stroke-linecap:round; stroke-linejoin:round;fill:none"
d="M 35000.000000,37500.000000
35300.000000,38000.000000
" /> 
</g>
<g style="fill:#008484; fill-opacity:0.0; 
stroke:#008484; stroke-width:60.000000; stroke-opacity:1; 
stroke-linecap:round; stroke-linejoin:round;">
<text x="35150.000000" y="37019.960630"
textLength="2298.110236" font-size="666.653543" lengthAdjust="spacingAndGlyphs"
text-anchor="middle" opacity="0">+3.3V</text>
<g class="stroked-text"><desc>+3.3V</desc>
<path d="M34150 36805
L34530 36805
" />
<path d="M34340 36996
L34340 36615
" />
<path d="M34721 36496
L35030 36496
L34864 36686
L34935 36686
L34983 36710
L35007 36734
L35030 36781
L35030 36900
L35007 36948
L34983 36972
L34935 36996
L34792 36996
L34745 36972
L34721 36948
" />
<path d="M35245 36948
L35269 36972
L35245 36996
L35221 36972
L35245 36948
L35245 36996
" />
<path d="M35435 36496
L35745 36496
L35578 36686
L35650 36686
L35697 36710
L35721 36734
L35745 36781
L35745 36900
L35721 36948
L35697 36972
L35650 36996
L35507 36996
L35459 36972
L35435 36948
" />
<path d="M35888 36496
L36054 36996
L36221 36496
" />
</g></g>
</g>
<g style="fill:#008484; fill-opacity:0.0; 
stroke:#008484; stroke-width:60.000000; stroke-opacity:1; 
stroke-linecap:round; stroke-linejoin:round;">
<g >
</g>
<g style="fill:#840000; fill-opacity:0.0; 
stroke:#840000; stroke-width:60.000000; stroke-opacity:1; 
stroke-linecap:round; stroke-linejoin:round;">
<path style="fill:#840000; fill-opacity:0.0; 
stroke:#840000; stroke-width:60.000000; stroke-opacity:1; 
stroke-linecap:round; stroke-linejoin:round;fill:none"
d="M 44000.000000,47500.000000
44000.000000,47000.000000
43600.000000,46750.000000
44000.000000,46500.000000
44400.000000,46750.000000
44000.000000,47000.000000
" /> 
<path d="M44000 47500
L44000 47500
" />
</g>
<g style="fill:#008484; fill-opacity:0.0; 
stroke:#008484; stroke-width:60.000000; stroke-opacity:1; 
stroke-linecap:round; stroke-linejoin:round;">
<text x="44000.000000" y="46019.960630"
textLength="3774.291339" font-size="666.653543" lengthAdjust="spacingAndGlyphs"
text-anchor="middle" opacity="0">PWR_FLAG</text>
<g class="stroked-text"><desc>PWR_FLAG</desc>
<path d="M42261 45996
L42261 45496
L42452 45496
L42500 45519
L42523 45543
L42547 45591
L42547 45662
L42523 45710
L42500 45734
L42452 45758
L42261 45758
" />
<path d="M42714 45496
L42833 45996
L42928 45638
L43023 45996
L43142 45496
" />
<path d="M43619 45996
L43452 45758
" />
<path d="M43333 45996
L43333 45496
L43523 45496
L43571 45519
L43595 45543
L43619 45591
L43619 45662
L43595 45710
L43571 45734
L43523 45758
L43333 45758
" />
<path d="M43714 46043
L44095 46043
" />
<path d="M44380 45734
L44214 45734
" />
<path d="M44214 45996
L44214 45496
L44452 45496
" />
<path d="M44880 45996
L44642 45996
L44642 45496
" />
<path d="M45023 45853
L45261 45853
" />
<path d="M44976 45996
L45142 45496
L45309 45996
" />
<path d="M45738 45519
L45690 45496
L45619 45496
L45547 45519
L45500 45567
L45476 45615
L45452 45710
L45452 45781
L45476 45877
L45500 45924
L45547 45972
L45619 45996
L45666 45996
L45738 45972
L45761 45948
L45761 45781
L45666 45781
" />
</g></g>
</g>
<g style="fill:#008484; fill-opacity:0.0; 
stroke:#008484; stroke-width:60.000000; stroke-opacity:1; 
stroke-linecap:round; stroke-linejoin:round;">
<g >
</g>
<g style="fill:#840000; fill-opacity:0.0; 
stroke:#840000; stroke-width:60.000000; stroke-opacity:1; 
stroke-linecap:round; stroke-linejoin:round;">
<path style="fill:#840000; fill-opacity:0.0; 
stroke:#840000; stroke-width:60.000000; stroke-opacity:1; 
stroke-linecap:round; stroke-linejoin:round;fill:none"
d="M 35000.000000,42000.000000
35000.000000,42500.000000
35500.000000,42500.000000
35000.000000,43000.000000
34500.000000,42500.000000
35000.000000,42500.000000
" /> 
</g>
<g style="fill:#008484; fill-opacity:0.0; 
stroke:#008484; stroke-width:60.000000; stroke-opacity:1; 
stroke-linecap:round; stroke-linejoin:round;">
<text x="35050.000000" y="43979.960630"
textLength="1583.818898" font-size="666.653543" lengthAdjust="spacingAndGlyphs"
text-anchor="middle" opacity="0">GND</text>
<g class="stroked-text"><desc>GND</desc>
<path d="M34669 43479
L34621 43456
L34550 43456
L34478 43479
L34430 43527
L34407 43575
L34383 43670
L34383 43741
L34407 43837
L34430 43884
L34478 43932
L34550 43956
L34597 43956
L34669 43932
L34692 43908
L34692 43741
L34597 43741
" />
<path d="M34907 43956
L34907 43456
L35192 43956
L35192 43456
" />
<path d="M35430 43956
L35430 43456
L35550 43456
L35621 43479
L35669 43527
L35692 43575
L35716 43670
L35716 43741
L35692 43837
L35669 43884
L35621 43932
L35550 43956
L35430 43956
" />
</g></g>
</g>
<g style="fill:#008484; fill-opacity:0.0; 
stroke:#008484; stroke-width:60.000000; stroke-opacity:1; 
stroke-linecap:round; stroke-linejoin:round;">
<g >
</g>
<g style="fill:#840000; fill-opacity:0.0; 
stroke:#840000; stroke-width:60.000000; stroke-opacity:1; 
stroke-linecap:round; stroke-linejoin:round;">
<path style="fill:#840000; fill-opacity:0.0; 
stroke:#840000; stroke-width:60.000000; stroke-opacity:1; 
stroke-linecap:round; stroke-linejoin:round;fill:none"
d="M 58000.000000,46500.000000
58000.000000,47000.000000
58500.000000,47000.000000
58000.000000,47500.000000
57500.000000,47000.000000
58000.000000,47000.000000
" /> 
</g>
<g style="fill:#008484; fill-opacity:0.0; 
stroke:#008484; stroke-width:60.000000; stroke-opacity:1; 
stroke-linecap:round; stroke-linejoin:round;">
<text x="58050.000000" y="48479.960630"
textLength="1583.818898" font-size="666.653543" lengthAdjust="spacingAndGlyphs"
text-anchor="middle" opacity="0">GND</text>
<g class="stroked-text"><desc>GND</desc>
<path d="M57669 47979
L57621 47956
L57550 47956
L57478 47979
L57430 48027
L57407 48075
L57383 48170
L57383 48241
L57407 48337
L57430 48384
L57478 48432
L57550 48456
L57597 48456
L57669 48432
L57692 48408
L57692 48241
L57597 48241
" />
<path d="M57907 48456
L57907 47956
L58192 48456
L58192 47956
" />
<path d="M58430 48456
L58430 47956
L58550 47956
L58621 47979
L58669 48027
L58692 48075
L58716 48170
L58716 48241
L58692 48337
L58669 48384
L58621 48432
L58550 48456
L58430 48456
" />
</g></g>
</g>
<g style="fill:#008484; fill-opacity:0.0; 
stroke:#008484; stroke-width:60.000000; stroke-opacity:1; 
stroke-linecap:round; stroke-linejoin:round;">
<g >
</g>
<g style="fill:#840000; fill-opacity:0.0; 
stroke:#840000; stroke-width:60.000000; stroke-opacity:1; 
stroke-linecap:round; stroke-linejoin:round;">
</g>
<g style="fill:#840000; fill-opacity:0.0; 
stroke:#840000; stroke-width:100.000000; stroke-opacity:1; 
stroke-linecap:round; stroke-linejoin:round;">
<rect x="57600.000000" y="43000.000000" width="800.000000" height="2000.000000" rx="0.000000" />
</g>
<g style="fill:#840000; fill-opacity:0.0; 
stroke:#840000; stroke-width:60.000000; stroke-opacity:1; 
stroke-linecap:round; stroke-linejoin:round;">
<path d="M58000 43000
L58000 42500
" />
<path d="M58000 45000
L58000 45500
" />
</g>
<g style="fill:#008484; fill-opacity:0.0; 
stroke:#008484; stroke-width:60.000000; stroke-opacity:1; 
stroke-linecap:round; stroke-linejoin:round;">
<text x="59219.330709" y="43789.960630"
textLength="1036.181102" font-size="666.653543" lengthAdjust="spacingAndGlyphs"
text-anchor="middle" opacity="0">R1</text>
<g class="stroked-text"><desc>R1</desc>
<path d="M59135 43766
L58969 43528
" />
<path d="M58850 43766
L58850 43266
L59040 43266
L59088 43289
L59112 43313
L59135 43361
L59135 43432
L59112 43480
L59088 43504
L59040 43528
L58850 43528
" />
<path d="M59612 43766
L59326 43766
" />
<path d="M59469 43766
L59469 43266
L59421 43337
L59374 43385
L59326 43408
" />
</g><text x="59647.913386" y="44699.960630"
textLength="1893.346457" font-size="666.653543" lengthAdjust="spacingAndGlyphs"
text-anchor="middle" opacity="0">100k</text>
<g class="stroked-text"><desc>100k</desc>
<path d="M59112 44676
L58826 44676
" />
<path d="M58969 44676
L58969 44176
L58921 44247
L58874 44295
L58826 44318
" />
<path d="M59421 44176
L59469 44176
L59516 44199
L59540 44223
L59564 44271
L59588 44366
L59588 44485
L59564 44580
L59540 44628
L59516 44652
L59469 44676
L59421 44676
L59374 44652
L59350 44628
L59326 44580
L59302 44485
L59302 44366
L59326 44271
L59350 44223
L59374 44199
L59421 44176
" />
<path d="M59897 44176
L59945 44176
L59993 44199
L60016 44223
L60040 44271
L60064 44366
L60064 44485
L60040 44580
L60016 44628
L59993 44652
L59945 44676
L59897 44676
L59850 44652
L59826 44628
L59802 44580
L59778 44485
L59778 44366
L59802 44271
L59826 44223
L59850 44199
L59897 44176
" />
<path d="M60278 44676
L60278 44176
" />
<path d="M60326 44485
L60469 44676
" />
<path d="M60469 44342
L60278 44533
" />
</g></g>
</g>
<g style="fill:#008484; fill-opacity:0.0; 
stroke:#008484; stroke-width:60.000000; stroke-opacity:1; 
stroke-linecap:round; stroke-linejoin:round;">
<g >
</g>
<g style="fill:#840000; fill-opacity:0.0; 
stroke:#840000; stroke-width:60.000000; stroke-opacity:1; 
stroke-linecap:round; stroke-linejoin:round;">
<path style="fill:#840000; fill-opacity:0.0; 
stroke:#840000; stroke-width:60.000000; stroke-opacity:1; 
stroke-linecap:round; stroke-linejoin:round;fill:none"
d="M 39200.000000,47000.000000
39500.000000,46500.000000
" /> 
<path style="fill:#840000; fill-opacity:0.0; 
stroke:#840000; stroke-width:60.000000; stroke-opacity:1; 
stroke-linecap:round; stroke-linejoin:round;fill:none"
d="M 39500.000000,47500.000000
39500.000000,46500.000000
" /> 
<path style="fill:#840000; fill-opacity:0.0; 
stroke:#840000; stroke-width:60.000000; stroke-opacity:1; 
stroke-linecap:round; stroke-linejoin:round;fill:none"
d="M 39500.000000,46500.000000
39800.000000,47000.000000
" /> 
</g>
<g style="fill:#008484; fill-opacity:0.0; 
stroke:#008484; stroke-width:60.000000; stroke-opacity:1; 
stroke-linecap:round; stroke-linejoin:round;">
<text x="39650.000000" y="46019.960630"
textLength="2298.110236" font-size="666.653543" lengthAdjust="spacingAndGlyphs"
text-anchor="middle" opacity="0">+3.3V</text>
<g class="stroked-text"><desc>+3.3V</desc>
<path d="M38650 45805
L39030 45805
" />
<path d="M38840 45996
L38840 45615
" />
<path d="M39221 45496
L39530 45496
L39364 45686
L39435 45686
L39483 45710
L39507 45734
L39530 45781
L39530 45900
L39507 45948
L39483 45972
L39435 45996
L39292 45996
L39245 45972
L39221 45948
" />
<path d="M39745 45948
L39769 45972
L39745 45996
L39721 45972
L39745 45948
L39745 45996
" />
<path d="M39935 45496
L40245 45496
L40078 45686
L40150 45686
L40197 45710
L40221 45734
L40245 45781
L40245 45900
L40221 45948
L40197 45972
L40150 45996
L40007 45996
L39959 45972
L39935 45948
" />
<path d="M40388 45496
L40554 45996
L40721 45496
" />
</g></g>
</g>
<g style="fill:#008484; fill-opacity:0.0; 
stroke:#008484; stroke-width:60.000000; stroke-opacity:1; 
stroke-linecap:round; stroke-linejoin:round;">
<g >
</g>
<g style="fill:#840000; fill-opacity:0.0; 
stroke:#840000; stroke-width:60.000000; stroke-opacity:1; 
stroke-linecap:round; stroke-linejoin:round;">
<path style="fill:#840000; fill-opacity:0.0; 
stroke:#840000; stroke-width:60.000000; stroke-opacity:1; 
stroke-linecap:round; stroke-linejoin:round;fill:none"
d="M 44000.000000,47500.000000
44000.000000,48000.000000
44500.000000,48000.000000
44000.000000,48500.000000
43500.000000,48000.000000
44000.000000,48000.000000
" /> 
</g>
<g style="fill:#008484; fill-opacity:0.0; 
stroke:#008484; stroke-width:60.000000; stroke-opacity:1; 
stroke-linecap:round; stroke-linejoin:round;">
<text x="44050.000000" y="49479.960630"
textLength="1583.818898" font-size="666.653543" lengthAdjust="spacingAndGlyphs"
text-anchor="middle" opacity="0">GND</text>
<g class="stroked-text"><desc>GND</desc>
<path d="M43669 48979
L43621 48956
L43550 48956
L43478 48979
L43430 49027
L43407 49075
L43383 49170
L43383 49241
L43407 49337
L43430 49384
L43478 49432
L43550 49456
L43597 49456
L43669 49432
L43692 49408
L43692 49241
L43597 49241
" />
<path d="M43907 49456
L43907 48956
L44192 49456
L44192 48956
" />
<path d="M44430 49456
L44430 48956
L44550 48956
L44621 48979
L44669 49027
L44692 49075
L44716 49170
L44716 49241
L44692 49337
L44669 49384
L44621 49432
L44550 49456
L44430 49456
" />
</g></g>
</g>
<g style="fill:#008484; fill-opacity:0.0; 
stroke:#008484; stroke-width:60.000000; stroke-opacity:1; 
stroke-linecap:round; stroke-linejoin:round;">
<g >
</g>
<g style="fill:#840000; fill-opacity:0.0; 
stroke:#840000; stroke-width:60.000000; stroke-opacity:1; 
stroke-linecap:round; stroke-linejoin:round;">
</g>
<g style="fill:#840000; fill-opacity:0.0; 
stroke:#840000; stroke-width:100.000000; stroke-opacity:1; 
stroke-linecap:round; stroke-linejoin:round;">
<path style="fill:#840000; fill-opacity:0.0; 
stroke:#840000; stroke-width:100.000000; stroke-opacity:1; 
stroke-linecap:round; stroke-linejoin:round;fill:none"
d="M 61500.000000,43000.000000
61500.000000,33000.000000
" /> 
<path style="fill:#840000; fill-opacity:0.0; 
stroke:#840000; stroke-width:100.000000; stroke-opacity:1; 
stroke-linecap:round; stroke-linejoin:round;fill:none"
d="M 61500.000000,33000.000000
67500.000000,33000.000000
" /> 
<path style="fill:#840000; fill-opacity:0.0; 
stroke:#840000; stroke-width:100.000000; stroke-opacity:1; 
stroke-linecap:round; stroke-linejoin:round;fill:none"
d="M 67500.000000,43000.000000
61500.000000,43000.000000
" /> 
<path style="fill:#840000; fill-opacity:0.0; 
stroke:#840000; stroke-width:100.000000; stroke-opacity:1; 
stroke-linecap:round; stroke-linejoin:round;fill:none"
d="M 67500.000000,33000.000000
67500.000000,43000.000000
" /> 
</g>
<g style="fill:#840000; fill-opacity:0.0; 
stroke:#840000; stroke-width:60.000000; stroke-opacity:1; 
stroke-linecap:round; stroke-linejoin:round;">
<path d="M61500 38000
L59500 38000
" />
</g>
<g style="fill:#008484; fill-opacity:0.0; 
stroke:#008484; stroke-width:60.000000; stroke-opacity:1; 
stroke-linecap:round; stroke-linejoin:round;">
<text x="61900.000000" y="38200.000000"
textLength="898.110236" font-size="533.307087" lengthAdjust="spacingAndGlyphs"
text-anchor="start" opacity="0">WS</text>
<g class="stroked-text"><desc>WS</desc>
<path d="M61987 37780
L62082 38180
L62158 37895
L62234 38180
L62330 37780
" />
<path d="M62463 38161
L62520 38180
L62615 38180
L62653 38161
L62672 38142
L62691 38104
L62691 38066
L62672 38028
L62653 38009
L62615 37990
L62539 37971
L62501 37952
L62482 37933
L62463 37895
L62463 37857
L62482 37819
L62501 37800
L62539 37780
L62634 37780
L62691 37800
" />
</g></g>
<g style="fill:#840000; fill-opacity:0.0; 
stroke:#840000; stroke-width:60.000000; stroke-opacity:1; 
stroke-linecap:round; stroke-linejoin:round;">
<text x="60500.000000" y="37900.000000"
textLength="440.944882" font-size="533.307087" lengthAdjust="spacingAndGlyphs"
text-anchor="middle" opacity="0">1</text>
<g class="stroked-text"><desc>1</desc>
<path d="M60614 37880
L60385 37880
" />
<path d="M60500 37880
L60500 37480
L60461 37538
L60423 37576
L60385 37595
" />
</g><path d="M61500 36000
L59500 36000
" />
</g>
<g style="fill:#008484; fill-opacity:0.0; 
stroke:#008484; stroke-width:60.000000; stroke-opacity:1; 
stroke-linecap:round; stroke-linejoin:round;">
<text x="61900.000000" y="36200.000000"
textLength="783.818898" font-size="533.307087" lengthAdjust="spacingAndGlyphs"
text-anchor="start" opacity="0">LR</text>
<g class="stroked-text"><desc>LR</desc>
<path d="M62215 36180
L62025 36180
L62025 35780
" />
<path d="M62577 36180
L62444 35990
" />
<path d="M62349 36180
L62349 35780
L62501 35780
L62539 35800
L62558 35819
L62577 35857
L62577 35914
L62558 35952
L62539 35971
L62501 35990
L62349 35990
" />
</g></g>
<g style="fill:#840000; fill-opacity:0.0; 
stroke:#840000; stroke-width:60.000000; stroke-opacity:1; 
stroke-linecap:round; stroke-linejoin:round;">
<text x="60500.000000" y="35900.000000"
textLength="440.944882" font-size="533.307087" lengthAdjust="spacingAndGlyphs"
text-anchor="middle" opacity="0">2</text>
<g class="stroked-text"><desc>2</desc>
<path d="M60385 35519
L60404 35500
L60442 35480
L60538 35480
L60576 35500
L60595 35519
L60614 35557
L60614 35595
L60595 35652
L60366 35880
L60614 35880
" />
</g><path d="M67500 42000
L69500 42000
" />
</g>
<g style="fill:#008484; fill-opacity:0.0; 
stroke:#008484; stroke-width:60.000000; stroke-opacity:1; 
stroke-linecap:round; stroke-linejoin:round;">
<text x="67100.000000" y="42200.000000"
textLength="1279.055118" font-size="533.307087" lengthAdjust="spacingAndGlyphs"
text-anchor="end" opacity="0">GND</text>
<g class="stroked-text"><desc>GND</desc>
<path d="M66155 41800
L66117 41780
L66060 41780
L66003 41800
L65965 41838
L65946 41876
L65927 41952
L65927 42009
L65946 42085
L65965 42123
L66003 42161
L66060 42180
L66098 42180
L66155 42161
L66174 42142
L66174 42009
L66098 42009
" />
<path d="M66346 42180
L66346 41780
L66574 42180
L66574 41780
" />
<path d="M66765 42180
L66765 41780
L66860 41780
L66917 41800
L66955 41838
L66974 41876
L66993 41952
L66993 42009
L66974 42085
L66955 42123
L66917 42161
L66860 42180
L66765 42180
" />
</g></g>
<g style="fill:#840000; fill-opacity:0.0; 
stroke:#840000; stroke-width:60.000000; stroke-opacity:1; 
stroke-linecap:round; stroke-linejoin:round;">
<text x="68500.000000" y="41900.000000"
textLength="440.944882" font-size="533.307087" lengthAdjust="spacingAndGlyphs"
text-anchor="middle" opacity="0">3</text>
<g class="stroked-text"><desc>3</desc>
<path d="M68366 41480
L68614 41480
L68480 41633
L68538 41633
L68576 41652
L68595 41671
L68614 41709
L68614 41804
L68595 41842
L68576 41861
L68538 41880
L68423 41880
L68385 41861
L68366 41842
" />
</g><path d="M61500 39000
L59500 39000
" />
</g>
<g style="fill:#008484; fill-opacity:0.0; 
stroke:#008484; stroke-width:60.000000; stroke-opacity:1; 
stroke-linecap:round; stroke-linejoin:round;">
<text x="61900.000000" y="39200.000000"
textLength="1240.944882" font-size="533.307087" lengthAdjust="spacingAndGlyphs"
text-anchor="start" opacity="0">SCK</text>
<g class="stroked-text"><desc>SCK</desc>
<path d="M62006 39161
L62063 39180
L62158 39180
L62196 39161
L62215 39142
L62234 39104
L62234 39066
L62215 39028
L62196 39009
L62158 38990
L62082 38971
L62044 38952
L62025 38933
L62006 38895
L62006 38857
L62025 38819
L62044 38800
L62082 38780
L62177 38780
L62234 38800
" />
<path d="M62634 39142
L62615 39161
L62558 39180
L62520 39180
L62463 39161
L62425 39123
L62406 39085
L62387 39009
L62387 38952
L62406 38876
L62425 38838
L62463 38800
L62520 38780
L62558 38780
L62615 38800
L62634 38819
" />
<path d="M62806 39180
L62806 38780
" />
<path d="M63034 39180
L62863 38952
" />
<path d="M63034 38780
L62806 39009
" />
</g></g>
<g style="fill:#840000; fill-opacity:0.0; 
stroke:#840000; stroke-width:60.000000; stroke-opacity:1; 
stroke-linecap:round; stroke-linejoin:round;">
<text x="60500.000000" y="38900.000000"
textLength="440.944882" font-size="533.307087" lengthAdjust="spacingAndGlyphs"
text-anchor="middle" opacity="0">4</text>
<g class="stroked-text"><desc>4</desc>
<path d="M60576 38614
L60576 38880
" />
<path d="M60480 38461
L60385 38747
L60633 38747
" />
</g><path d="M67500 34000
L69500 34000
" />
</g>
<g style="fill:#008484; fill-opacity:0.0; 
stroke:#008484; stroke-width:60.000000; stroke-opacity:1; 
stroke-linecap:round; stroke-linejoin:round;">
<text x="67100.000000" y="34200.000000"
textLength="1202.874016" font-size="533.307087" lengthAdjust="spacingAndGlyphs"
text-anchor="end" opacity="0">VDD</text>
<g class="stroked-text"><desc>VDD</desc>
<path d="M65965 33780
L66098 34180
L66231 33780
" />
<path d="M66365 34180
L66365 33780
L66460 33780
L66517 33800
L66555 33838
L66574 33876
L66593 33952
L66593 34009
L66574 34085
L66555 34123
L66517 34161
L66460 34180
L66365 34180
" />
<path d="M66765 34180
L66765 33780
L66860 33780
L66917 33800
L66955 33838
L66974 33876
L66993 33952
L66993 34009
L66974 34085
L66955 34123
L66917 34161
L66860 34180
L66765 34180
" />
</g></g>
<g style="fill:#840000; fill-opacity:0.0; 
stroke:#840000; stroke-width:60.000000; stroke-opacity:1; 
stroke-linecap:round; stroke-linejoin:round;">
<text x="68500.000000" y="33900.000000"
textLength="440.944882" font-size="533.307087" lengthAdjust="spacingAndGlyphs"
text-anchor="middle" opacity="0">5</text>
<g class="stroked-text"><desc>5</desc>
<path d="M68595 33480
L68404 33480
L68385 33671
L68404 33652
L68442 33633
L68538 33633
L68576 33652
L68595 33671
L68614 33709
L68614 33804
L68595 33842
L68576 33861
L68538 33880
L68442 33880
L68404 33861
L68385 33842
" />
</g><path d="M61500 40000
L59500 40000
" />
</g>
<g style="fill:#008484; fill-opacity:0.0; 
stroke:#008484; stroke-width:60.000000; stroke-opacity:1; 
stroke-linecap:round; stroke-linejoin:round;">
<text x="61900.000000" y="40200.000000"
textLength="840.944882" font-size="533.307087" lengthAdjust="spacingAndGlyphs"
text-anchor="start" opacity="0">SD</text>
<g class="stroked-text"><desc>SD</desc>
<path d="M62006 40161
L62063 40180
L62158 40180
L62196 40161
L62215 40142
L62234 40104
L62234 40066
L62215 40028
L62196 40009
L62158 39990
L62082 39971
L62044 39952
L62025 39933
L62006 39895
L62006 39857
L62025 39819
L62044 39800
L62082 39780
L62177 39780
L62234 39800
" />
<path d="M62406 40180
L62406 39780
L62501 39780
L62558 39800
L62596 39838
L62615 39876
L62634 39952
L62634 40009
L62615 40085
L62596 40123
L62558 40161
L62501 40180
L62406 40180
" />
</g></g>
<g style="fill:#840000; fill-opacity:0.0; 
stroke:#840000; stroke-width:60.000000; stroke-opacity:1; 
stroke-linecap:round; stroke-linejoin:round;">
<text x="60500.000000" y="39900.000000"
textLength="440.944882" font-size="533.307087" lengthAdjust="spacingAndGlyphs"
text-anchor="middle" opacity="0">6</text>
<g class="stroked-text"><desc>6</desc>
<path d="M60576 39480
L60500 39480
L60461 39500
L60442 39519
L60404 39576
L60385 39652
L60385 39804
L60404 39842
L60423 39861
L60461 39880
L60538 39880
L60576 39861
L60595 39842
L60614 39804
L60614 39709
L60595 39671
L60576 39652
L60538 39633
L60461 39633
L60423 39652
L60404 39671
L60385 39709
" />
</g></g>
<g style="fill:#008484; fill-opacity:0.0; 
stroke:#008484; stroke-width:60.000000; stroke-opacity:1; 
stroke-linecap:round; stroke-linejoin:round;">
<text x="64500.000000" y="31579.960630"
textLength="1607.637795" font-size="666.653543" lengthAdjust="spacingAndGlyphs"
text-anchor="middle" opacity="0">MK1</text>
<g class="stroked-text"><desc>MK1</desc>
<path d="M63845 31556
L63845 31056
L64011 31413
L64178 31056
L64178 31556
" />
<path d="M64416 31556
L64416 31056
" />
<path d="M64702 31556
L64488 31270
" />
<path d="M64702 31056
L64416 31341
" />
<path d="M65178 31556
L64892 31556
" />
<path d="M65035 31556
L65035 31056
L64988 31127
L64940 31175
L64892 31198
" />
</g><text x="64500.000000" y="32489.960630"
textLength="4274.291339" font-size="666.653543" lengthAdjust="spacingAndGlyphs"
text-anchor="middle" opacity="0">ICS-43434</text>
<g class="stroked-text"><desc>ICS-43434</desc>
<path d="M62511 32466
L62511 31966
" />
<path d="M63035 32418
L63011 32442
L62940 32466
L62892 32466
L62821 32442
L62773 32394
L62750 32347
L62726 32251
L62726 32180
L62750 32085
L62773 32037
L62821 31989
L62892 31966
L62940 31966
L63011 31989
L63035 32013
" />
<path d="M63226 32442
L63297 32466
L63416 32466
L63464 32442
L63488 32418
L63511 32370
L63511 32323
L63488 32275
L63464 32251
L63416 32228
L63321 32204
L63273 32180
L63250 32156
L63226 32108
L63226 32061
L63250 32013
L63273 31989
L63321 31966
L63440 31966
L63511 31989
" />
<path d="M63726 32275
L64107 32275
" />
<path d="M64559 32132
L64559 32466
" />
<path d="M64440 31942
L64321 32299
L64630 32299
" />
<path d="M64773 31966
L65083 31966
L64916 32156
L64988 32156
L65035 32180
L65059 32204
L65083 32251
L65083 32370
L65059 32418
L65035 32442
L64988 32466
L64845 32466
L64797 32442
L64773 32418
" />
<path d="M65511 32132
L65511 32466
" />
<path d="M65392 31942
L65273 32299
L65583 32299
" />
<path d="M65726 31966
L66035 31966
L65869 32156
L65940 32156
L65988 32180
L66011 32204
L66035 32251
L66035 32370
L66011 32418
L65988 32442
L65940 32466
L65797 32466
L65750 32442
L65726 32418
" />
<path d="M66464 32132
L66464 32466
" />
<path d="M66345 31942
L66226 32299
L66535 32299
" />
</g></g>
</g>
<g style="fill:#008484; fill-opacity:0.0; 
stroke:#008484; stroke-width:60.000000; stroke-opacity:1; 
stroke-linecap:round; stroke-linejoin:round;">
<g >
</g>
<g style="fill:#840000; fill-opacity:0.0; 
stroke:#840000; stroke-width:60.000000; stroke-opacity:1; 
stroke-linecap:round; stroke-linejoin:round;">
<path style="fill:#840000; fill-opacity:0.0; 
stroke:#840000; stroke-width:60.000000; stroke-opacity:1; 
stroke-linecap:round; stroke-linejoin:round;fill:none"
d="M 72200.000000,32500.000000
72500.000000,32000.000000
" /> 
<path style="fill:#840000; fill-opacity:0.0; 
stroke:#840000; stroke-width:60.000000; stroke-opacity:1; 
stroke-linecap:round; stroke-linejoin:round;fill:none"
d="M 72500.000000,33000.000000
72500.000000,32000.000000
" /> 
<path style="fill:#840000; fill-opacity:0.0; 
stroke:#840000; stroke-width:60.000000; stroke-opacity:1; 
stroke-linecap:round; stroke-linejoin:round;fill:none"
d="M 72500.000000,32000.000000
72800.000000,32500.000000
" /> 
</g>
<g style="fill:#008484; fill-opacity:0.0; 
stroke:#008484; stroke-width:60.000000; stroke-opacity:1; 
stroke-linecap:round; stroke-linejoin:round;">
<text x="72650.000000" y="31519.960630"
textLength="2298.110236" font-size="666.653543" lengthAdjust="spacingAndGlyphs"
text-anchor="middle" opacity="0">+3.3V</text>
<g class="stroked-text"><desc>+3.3V</desc>
<path d="M71650 31305
L72030 31305
" />
<path d="M71840 31496
L71840 31115
" />
<path d="M72221 30996
L72530 30996
L72364 31186
L72435 31186
L72483 31210
L72507 31234
L72530 31281
L72530 31400
L72507 31448
L72483 31472
L72435 31496
L72292 31496
L72245 31472
L72221 31448
" />
<path d="M72745 31448
L72769 31472
L72745 31496
L72721 31472
L72745 31448
L72745 31496
" />
<path d="M72935 30996
L73245 30996
L73078 31186
L73150 31186
L73197 31210
L73221 31234
L73245 31281
L73245 31400
L73221 31448
L73197 31472
L73150 31496
L73007 31496
L72959 31472
L72935 31448
" />
<path d="M73388 30996
L73554 31496
L73721 30996
" />
</g></g>
</g>
<g style="fill:#008484; fill-opacity:0.0; 
stroke:#008484; stroke-width:62.519685; stroke-opacity:1; 
stroke-linecap:round; stroke-linejoin:round;">
</g>
<g style="fill:#008484; fill-opacity:0.0; 
stroke:#008484; stroke-width:60.000000; stroke-opacity:1; 
stroke-linecap:round; stroke-linejoin:round;">
</g>
<g style="fill:#840000; fill-opacity:0.0; 
stroke:#840000; stroke-width:60.000000; stroke-opacity:1; 
stroke-linecap:round; stroke-linejoin:round;">
<text x="38875.000000" y="36785.748031"
textLength="1107.637795" font-size="666.653543" lengthAdjust="spacingAndGlyphs"
text-anchor="end" opacity="0">WS</text>
<g class="stroked-text"><desc>WS</desc>
<path d="M37868 36261
L37987 36761
L38083 36404
L38178 36761
L38297 36261
" />
<path d="M38464 36738
L38535 36761
L38654 36761
L38702 36738
L38725 36714
L38749 36666
L38749 36619
L38725 36571
L38702 36547
L38654 36523
L38559 36500
L38511 36476
L38487 36452
L38464 36404
L38464 36357
L38487 36309
L38511 36285
L38559 36261
L38678 36261
L38749 36285
" />
</g><path style="fill:#840000; fill-opacity:0.0; 
stroke:#840000; stroke-width:60.000000; stroke-opacity:1; 
stroke-linecap:round; stroke-linejoin:round;fill:none"
d="M 39000.000000,36500.000000
39000.000000,36062.362205
37577.204724,36062.362205
37202.204724,36500.000000
37577.204724,36937.637795
39000.000000,36937.637795
Z" /> 
</g>
<g style="fill:#840000; fill-opacity:0.0; 
stroke:#840000; stroke-width:62.519685; stroke-opacity:1; 
stroke-linecap:round; stroke-linejoin:round;">
</g>
<g style="fill:#840000; fill-opacity:0.0; 
stroke:#840000; stroke-width:60.000000; stroke-opacity:1; 
stroke-linecap:round; stroke-linejoin:round;">
<text x="38500.000000" y="38785.748031"
textLength="1538.700787" font-size="666.653543" lengthAdjust="spacingAndGlyphs"
text-anchor="end" opacity="0">SCK</text>
<g class="stroked-text"><desc>SCK</desc>
<path d="M37089 38738
L37160 38761
L37279 38761
L37327 38738
L37350 38714
L37374 38666
L37374 38619
L37350 38571
L37327 38547
L37279 38523
L37184 38500
L37136 38476
L37112 38452
L37089 38404
L37089 38357
L37112 38309
L37136 38285
L37184 38261
L37303 38261
L37374 38285
" />
<path d="M37874 38714
L37850 38738
L37779 38761
L37731 38761
L37660 38738
L37612 38690
L37589 38642
L37565 38547
L37565 38476
L37589 38380
L37612 38333
L37660 38285
L37731 38261
L37779 38261
L37850 38285
L37874 38309
" />
<path d="M38089 38761
L38089 38261
" />
<path d="M38374 38761
L38160 38476
" />
<path d="M38374 38261
L38089 38547
" />
</g><path style="fill:#840000; fill-opacity:0.0; 
stroke:#840000; stroke-width:60.000000; stroke-opacity:1; 
stroke-linecap:round; stroke-linejoin:round;fill:none"
d="M 39000.000000,38500.000000
38625.000000,38062.362205
36773.661417,38062.362205
36773.661417,38500.000000
36773.661417,38937.637795
38625.000000,38937.637795
Z" /> 
</g>
<g style="fill:#840000; fill-opacity:0.0; 
stroke:#840000; stroke-width:62.519685; stroke-opacity:1; 
stroke-linecap:round; stroke-linejoin:round;">
</g>
<g style="fill:#840000; fill-opacity:0.0; 
stroke:#840000; stroke-width:60.000000; stroke-opacity:1; 
stroke-linecap:round; stroke-linejoin:round;">
<text x="38875.000000" y="37785.748031"
textLength="967.283465" font-size="666.653543" lengthAdjust="spacingAndGlyphs"
text-anchor="end" opacity="0">LR</text>
<g class="stroked-text"><desc>LR</desc>
<path d="M38297 37761
L38059 37761
L38059 37261
" />
<path d="M38749 37761
L38583 37523
" />
<path d="M38464 37761
L38464 37261
L38654 37261
L38702 37285
L38725 37309
L38749 37357
L38749 37428
L38725 37476
L38702 37500
L38654 37523
L38464 37523
" />
</g><path style="fill:#840000; fill-opacity:0.0; 
stroke:#840000; stroke-width:60.000000; stroke-opacity:1; 
stroke-linecap:round; stroke-linejoin:round;fill:none"
d="M 39000.000000,37500.000000
39000.000000,37062.362205
37720.078740,37062.362205
37345.078740,37500.000000
37720.078740,37937.637795
39000.000000,37937.637795
Z" /> 
</g>
<g style="fill:#840000; fill-opacity:0.0; 
stroke:#840000; stroke-width:62.519685; stroke-opacity:1; 
stroke-linecap:round; stroke-linejoin:round;">
</g>
<g style="fill:#840000; fill-opacity:0.0; 
stroke:#840000; stroke-width:60.000000; stroke-opacity:1; 
stroke-linecap:round; stroke-linejoin:round;">
<text x="38500.000000" y="35785.748031"
textLength="1038.700787" font-size="666.653543" lengthAdjust="spacingAndGlyphs"
text-anchor="end" opacity="0">SD</text>
<g class="stroked-text"><desc>SD</desc>
<path d="M37589 35738
L37660 35761
L37779 35761
L37827 35738
L37850 35714
L37874 35666
L37874 35619
L37850 35571
L37827 35547
L37779 35523
L37684 35500
L37636 35476
L37612 35452
L37589 35404
L37589 35357
L37612 35309
L37636 35285
L37684 35261
L37803 35261
L37874 35285
" />
<path d="M38089 35761
L38089 35261
L38208 35261
L38279 35285
L38327 35333
L38350 35380
L38374 35476
L38374 35547
L38350 35642
L38327 35690
L38279 35738
L38208 35761
L38089 35761
" />
</g><path style="fill:#840000; fill-opacity:0.0; 
stroke:#840000; stroke-width:60.000000; stroke-opacity:1; 
stroke-linecap:round; stroke-linejoin:round;fill:none"
d="M 39000.000000,35500.000000
38625.000000,35062.362205
37273.661417,35062.362205
37273.661417,35500.000000
37273.661417,35937.637795
38625.000000,35937.637795
Z" /> 
</g>
<g style="fill:#840000; fill-opacity:0.0; 
stroke:#840000; stroke-width:62.519685; stroke-opacity:1; 
stroke-linecap:round; stroke-linejoin:round;">
</g>
<g style="fill:#840000; fill-opacity:0.0; 
stroke:#840000; stroke-width:60.000000; stroke-opacity:1; 
stroke-linecap:round; stroke-linejoin:round;">
<text x="56000.000000" y="39285.748031"
textLength="1538.700787" font-size="666.653543" lengthAdjust="spacingAndGlyphs"
text-anchor="end" opacity="0">SCK</text>
<g class="stroked-text"><desc>SCK</desc>
<path d="M54589 39238
L54660 39261
L54779 39261
L54827 39238
L54850 39214
L54874 39166
L54874 39119
L54850 39071
L54827 39047
L54779 39023
L54684 39000
L54636 38976
L54612 38952
L54589 38904
L54589 38857
L54612 38809
L54636 38785
L54684 38761
L54803 38761
L54874 38785
" />
<path d="M55374 39214
L55350 39238
L55279 39261
L55231 39261
L55160 39238
L55112 39190
L55089 39142
L55065 39047
L55065 38976
L55089 38880
L55112 38833
L55160 38785
L55231 38761
L55279 38761
L55350 38785
L55374 38809
" />
<path d="M55589 39261
L55589 38761
" />
<path d="M55874 39261
L55660 38976
" />
<path d="M55874 38761
L55589 39047
" />
</g><path style="fill:#840000; fill-opacity:0.0; 
stroke:#840000; stroke-width:60.000000; stroke-opacity:1; 
stroke-linecap:round; stroke-linejoin:round;fill:none"
d="M 56500.000000,39000.000000
56125.000000,38562.362205
54273.661417,38562.362205
54273.661417,39000.000000
54273.661417,39437.637795
56125.000000,39437.637795
Z" /> 
</g>
<g style="fill:#840000; fill-opacity:0.0; 
stroke:#840000; stroke-width:62.519685; stroke-opacity:1; 
stroke-linecap:round; stroke-linejoin:round;">
</g>
<g style="fill:#840000; fill-opacity:0.0; 
stroke:#840000; stroke-width:60.000000; stroke-opacity:1; 
stroke-linecap:round; stroke-linejoin:round;">
<text x="56375.000000" y="40285.748031"
textLength="1038.700787" font-size="666.653543" lengthAdjust="spacingAndGlyphs"
text-anchor="end" opacity="0">SD</text>
<g class="stroked-text"><desc>SD</desc>
<path d="M55464 40238
L55535 40261
L55654 40261
L55702 40238
L55725 40214
L55749 40166
L55749 40119
L55725 40071
L55702 40047
L55654 40023
L55559 40000
L55511 39976
L55487 39952
L55464 39904
L55464 39857
L55487 39809
L55511 39785
L55559 39761
L55678 39761
L55749 39785
" />
<path d="M55964 40261
L55964 39761
L56083 39761
L56154 39785
L56202 39833
L56225 39880
L56249 39976
L56249 40047
L56225 40142
L56202 40190
L56154 40238
L56083 40261
L55964 40261
" />
</g><path style="fill:#840000; fill-opacity:0.0; 
stroke:#840000; stroke-width:60.000000; stroke-opacity:1; 
stroke-linecap:round; stroke-linejoin:round;fill:none"
d="M 56500.000000,40000.000000
56500.000000,39562.362205
55148.661417,39562.362205
54773.661417,40000.000000
55148.661417,40437.637795
56500.000000,40437.637795
Z" /> 
</g>
<g style="fill:#840000; fill-opacity:0.0; 
stroke:#840000; stroke-width:62.519685; stroke-opacity:1; 
stroke-linecap:round; stroke-linejoin:round;">
</g>
<g style="fill:#840000; fill-opacity:0.0; 
stroke:#840000; stroke-width:60.000000; stroke-opacity:1; 
stroke-linecap:round; stroke-linejoin:round;">
<text x="56000.000000" y="38285.748031"
textLength="1110.157480" font-size="666.653543" lengthAdjust="spacingAndGlyphs"
text-anchor="end" opacity="0">WS</text>
<g class="stroked-text"><desc>WS</desc>
<path d="M54993 37761
L55112 38261
L55208 37904
L55303 38261
L55422 37761
" />
<path d="M55589 38238
L55660 38261
L55779 38261
L55827 38238
L55850 38214
L55874 38166
L55874 38119
L55850 38071
L55827 38047
L55779 38023
L55684 38000
L55636 37976
L55612 37952
L55589 37904
L55589 37857
L55612 37809
L55636 37785
L55684 37761
L55803 37761
L55874 37785
" />
</g><path style="fill:#840000; fill-opacity:0.0; 
stroke:#840000; stroke-width:60.000000; stroke-opacity:1; 
stroke-linecap:round; stroke-linejoin:round;fill:none"
d="M 56500.000000,38000.000000
56125.000000,37562.362205
54702.204724,37562.362205
54702.204724,38000.000000
54702.204724,38437.637795
56125.000000,38437.637795
Z" /> 
</g>
<g style="fill:#840000; fill-opacity:0.0; 
stroke:#840000; stroke-width:62.519685; stroke-opacity:1; 
stroke-linecap:round; stroke-linejoin:round;">
</g>
<g style="fill:#840000; fill-opacity:0.0; 
stroke:#840000; stroke-width:60.000000; stroke-opacity:1; 
stroke-linecap:round; stroke-linejoin:round;">
<text x="56000.000000" y="36285.748031"
textLength="967.283465" font-size="666.653543" lengthAdjust="spacingAndGlyphs"
text-anchor="end" opacity="0">LR</text>
<g class="stroked-text"><desc>LR</desc>
<path d="M55422 36261
L55184 36261
L55184 35761
" />
<path d="M55874 36261
L55708 36023
" />
<path d="M55589 36261
L55589 35761
L55779 35761
L55827 35785
L55850 35809
L55874 35857
L55874 35928
L55850 35976
L55827 36000
L55779 36023
L55589 36023
" />
</g><path style="fill:#840000; fill-opacity:0.0; 
stroke:#840000; stroke-width:60.000000; stroke-opacity:1; 
stroke-linecap:round; stroke-linejoin:round;fill:none"
d="M 56500.000000,36000.000000
56125.000000,35562.362205
54845.078740,35562.362205
54845.078740,36000.000000
54845.078740,36437.637795
56125.000000,36437.637795
Z" /> 
</g>
<g style="fill:#008400; fill-opacity:0.0; 
stroke:#008400; stroke-width:60.000000; stroke-opacity:1; 
stroke-linecap:round; stroke-linejoin:round;">
<path d="M35000 40500
L35000 42000
" />
<path d="M59500 39000
L56500 39000
" />
<path d="M59500 38000
L56500 38000
" />
<path d="M72500 33000
L72500 34000
" />
<path d="M72500 34000
L72500 36500
" />
<path d="M69500 34000
L72500 34000
" />
<path d="M58000 40000
L59500 40000
" />
<path d="M58000 42500
L58000 40000
" />
<path d="M58000 46500
L58000 45500
" />
<path d="M56500 40000
L58000 40000
" />
<path d="M39000 40500
L35000 40500
" />
<path d="M69500 42000
L72500 42000
" />
<path d="M47000 36500
L47000 37500
" />
<path d="M39000 39500
L35000 39500
" />
<path d="M35000 39500
L35000 38500
" />
<path d="M72500 42000
L72500 43000
" />
<path d="M72500 42000
L72500 39500
" />
<path d="M59500 36000
L56500 36000
" />
<path d="M47000 35500
L47000 36500
" />
</g>
<g style="fill:#008400; fill-opacity:1.0; 
stroke:#008400; stroke-width:60.000000; stroke-opacity:1; 
stroke-linecap:round; stroke-linejoin:round;">
<circle cx="58000.000000" cy="40000.000000" r="180.000000" /> 
<circle cx="72500.000000" cy="42000.000000" r="180.000000" /> 
<circle cx="72500.000000" cy="34000.000000" r="180.000000" /> 
<circle cx="47000.000000" cy="36500.000000" r="180.000000" /> 
</g> 
</svg>
