G04 #@! TF.GenerationSoftware,KiCad,Pcbnew,6.0.2-378541a8eb~116~ubuntu20.04.1*
G04 #@! TF.CreationDate,2022-03-16T12:21:31+01:00*
G04 #@! TF.ProjectId,ICS-43434-PCB,4943532d-3433-4343-9334-2d5043422e6b,rev?*
G04 #@! TF.SameCoordinates,Original*
G04 #@! TF.FileFunction,Soldermask,Top*
G04 #@! TF.FilePolarity,Negative*
%FSLAX46Y46*%
G04 Gerber Fmt 4.6, Leading zero omitted, Abs format (unit mm)*
G04 Created by KiCad (PCBNEW 6.0.2-378541a8eb~116~ubuntu20.04.1) date 2022-03-16 12:21:31*
%MOMM*%
%LPD*%
G01*
G04 APERTURE LIST*
G04 Aperture macros list*
%AMRoundRect*
0 Rectangle with rounded corners*
0 $1 Rounding radius*
0 $2 $3 $4 $5 $6 $7 $8 $9 X,Y pos of 4 corners*
0 Add a 4 corners polygon primitive as box body*
4,1,4,$2,$3,$4,$5,$6,$7,$8,$9,$2,$3,0*
0 Add four circle primitives for the rounded corners*
1,1,$1+$1,$2,$3*
1,1,$1+$1,$4,$5*
1,1,$1+$1,$6,$7*
1,1,$1+$1,$8,$9*
0 Add four rect primitives between the rounded corners*
20,1,$1+$1,$2,$3,$4,$5,0*
20,1,$1+$1,$4,$5,$6,$7,0*
20,1,$1+$1,$6,$7,$8,$9,0*
20,1,$1+$1,$8,$9,$2,$3,0*%
G04 Aperture macros list end*
%ADD10C,0.500000*%
%ADD11C,0.812000*%
%ADD12RoundRect,0.051000X0.300000X0.261000X-0.300000X0.261000X-0.300000X-0.261000X0.300000X-0.261000X0*%
%ADD13RoundRect,0.051000X0.050000X0.050000X-0.050000X0.050000X-0.050000X-0.050000X0.050000X-0.050000X0*%
%ADD14RoundRect,0.051000X0.300000X0.775000X-0.300000X0.775000X-0.300000X-0.775000X0.300000X-0.775000X0*%
%ADD15RoundRect,0.051000X0.600000X0.900000X-0.600000X0.900000X-0.600000X-0.900000X0.600000X-0.900000X0*%
%ADD16RoundRect,0.276000X0.250000X-0.225000X0.250000X0.225000X-0.250000X0.225000X-0.250000X-0.225000X0*%
%ADD17RoundRect,0.251000X0.275000X-0.200000X0.275000X0.200000X-0.275000X0.200000X-0.275000X-0.200000X0*%
G04 APERTURE END LIST*
D10*
X100665000Y-101287000D02*
G75*
G03*
X100665000Y-101287000I-665000J0D01*
G01*
X100665000Y-101287000D02*
G75*
G03*
X100665000Y-101287000I-665000J0D01*
G01*
D11*
X100000000Y-101287000D03*
D12*
X100900000Y-103361000D03*
X100900000Y-102539000D03*
D13*
X100015500Y-100617000D03*
D12*
X99100000Y-102539000D03*
X99100000Y-103361000D03*
X100000000Y-103361000D03*
D14*
X97500000Y-96368600D03*
X98500000Y-96368600D03*
X99500000Y-96368600D03*
X100500000Y-96368600D03*
X101500000Y-96368600D03*
X102500000Y-96368600D03*
D15*
X103800000Y-98893600D03*
X96200000Y-98893600D03*
D16*
X96500000Y-103075000D03*
X96500000Y-101525000D03*
D17*
X103500000Y-103125000D03*
X103500000Y-101475000D03*
G36*
X99449267Y-103083301D02*
G01*
X99500946Y-103126489D01*
X99569661Y-103135120D01*
X99632291Y-103105156D01*
X99650348Y-103084318D01*
X99652238Y-103083664D01*
X99653749Y-103084974D01*
X99653821Y-103086018D01*
X99651000Y-103100199D01*
X99651000Y-103621801D01*
X99653978Y-103636774D01*
X99653335Y-103638668D01*
X99651373Y-103639058D01*
X99650733Y-103638699D01*
X99599054Y-103595511D01*
X99530339Y-103586880D01*
X99467709Y-103616844D01*
X99449652Y-103637682D01*
X99447762Y-103638336D01*
X99446251Y-103637026D01*
X99446179Y-103635982D01*
X99449000Y-103621801D01*
X99449000Y-103100199D01*
X99446022Y-103085226D01*
X99446665Y-103083332D01*
X99448627Y-103082942D01*
X99449267Y-103083301D01*
G37*
G36*
X100349267Y-103083301D02*
G01*
X100400946Y-103126489D01*
X100469661Y-103135120D01*
X100532291Y-103105156D01*
X100550348Y-103084318D01*
X100552238Y-103083664D01*
X100553749Y-103084974D01*
X100553821Y-103086018D01*
X100551000Y-103100199D01*
X100551000Y-103621801D01*
X100553978Y-103636774D01*
X100553335Y-103638668D01*
X100551373Y-103639058D01*
X100550733Y-103638699D01*
X100499054Y-103595511D01*
X100430339Y-103586880D01*
X100367709Y-103616844D01*
X100349652Y-103637682D01*
X100347762Y-103638336D01*
X100346251Y-103637026D01*
X100346179Y-103635982D01*
X100349000Y-103621801D01*
X100349000Y-103100199D01*
X100346022Y-103085226D01*
X100346665Y-103083332D01*
X100348627Y-103082942D01*
X100349267Y-103083301D01*
G37*
G36*
X101216668Y-102846665D02*
G01*
X101217058Y-102848627D01*
X101216699Y-102849267D01*
X101173511Y-102900946D01*
X101164880Y-102969661D01*
X101194844Y-103032291D01*
X101215682Y-103050348D01*
X101216336Y-103052238D01*
X101215026Y-103053749D01*
X101213982Y-103053821D01*
X101199801Y-103051000D01*
X100600199Y-103051000D01*
X100585226Y-103053978D01*
X100583332Y-103053335D01*
X100582942Y-103051373D01*
X100583301Y-103050733D01*
X100626489Y-102999054D01*
X100635120Y-102930339D01*
X100605156Y-102867709D01*
X100584318Y-102849652D01*
X100583664Y-102847762D01*
X100584974Y-102846251D01*
X100586018Y-102846179D01*
X100600199Y-102849000D01*
X101199801Y-102849000D01*
X101214774Y-102846022D01*
X101216668Y-102846665D01*
G37*
G36*
X99416668Y-102846665D02*
G01*
X99417058Y-102848627D01*
X99416699Y-102849267D01*
X99373511Y-102900946D01*
X99364880Y-102969661D01*
X99394844Y-103032291D01*
X99415682Y-103050348D01*
X99416336Y-103052238D01*
X99415026Y-103053749D01*
X99413982Y-103053821D01*
X99399801Y-103051000D01*
X98800199Y-103051000D01*
X98785226Y-103053978D01*
X98783332Y-103053335D01*
X98782942Y-103051373D01*
X98783301Y-103050733D01*
X98826489Y-102999054D01*
X98835120Y-102930339D01*
X98805156Y-102867709D01*
X98784318Y-102849652D01*
X98783664Y-102847762D01*
X98784974Y-102846251D01*
X98786018Y-102846179D01*
X98800199Y-102849000D01*
X99399801Y-102849000D01*
X99414774Y-102846022D01*
X99416668Y-102846665D01*
G37*
G36*
X99935767Y-100704886D02*
G01*
X99946762Y-100712233D01*
X99965699Y-100716000D01*
X100065301Y-100716000D01*
X100084238Y-100712233D01*
X100095233Y-100704886D01*
X100097229Y-100704755D01*
X100098340Y-100706418D01*
X100098007Y-100707660D01*
X100088791Y-100721452D01*
X100089612Y-100722001D01*
X100090497Y-100723795D01*
X100090036Y-100724947D01*
X100073188Y-100745107D01*
X100064555Y-100813822D01*
X100094473Y-100876359D01*
X100127287Y-100899580D01*
X100128123Y-100901397D01*
X100126968Y-100903030D01*
X100125224Y-100902995D01*
X100124834Y-100902796D01*
X100000000Y-100883025D01*
X99886358Y-100901024D01*
X99884491Y-100900308D01*
X99884178Y-100898332D01*
X99884790Y-100897492D01*
X99937595Y-100854938D01*
X99959457Y-100789250D01*
X99938726Y-100716240D01*
X99932993Y-100707660D01*
X99932862Y-100705664D01*
X99934525Y-100704553D01*
X99935767Y-100704886D01*
G37*
M02*
