G04 #@! TF.GenerationSoftware,KiCad,Pcbnew,5.1.5+dfsg1-2build2*
G04 #@! TF.CreationDate,2021-02-05T18:22:43+01:00*
G04 #@! TF.ProjectId,DNMS,444e4d53-2e6b-4696-9361-645f70636258,0.9.0*
G04 #@! TF.SameCoordinates,Original*
G04 #@! TF.FileFunction,Copper,L2,Bot*
G04 #@! TF.FilePolarity,Positive*
%FSLAX46Y46*%
G04 Gerber Fmt 4.6, Leading zero omitted, Abs format (unit mm)*
G04 Created by KiCad (PCBNEW 5.1.5+dfsg1-2build2) date 2021-02-05 18:22:43*
%MOMM*%
%LPD*%
G04 APERTURE LIST*
%ADD10C,1.400000*%
%ADD11C,1.200000*%
%ADD12R,1.520000X1.520000*%
%ADD13C,1.520000*%
%ADD14R,1.700000X1.700000*%
%ADD15C,1.600000*%
%ADD16R,1.600000X1.600000*%
%ADD17O,1.700000X1.700000*%
%ADD18R,1.676400X1.676400*%
%ADD19C,1.676400*%
%ADD20O,1.600000X1.600000*%
%ADD21C,0.800000*%
%ADD22C,0.500000*%
%ADD23C,0.250000*%
%ADD24C,0.254000*%
G04 APERTURE END LIST*
D10*
X178362480Y-82362200D03*
X180902480Y-83382200D03*
X178362480Y-84402200D03*
X180902480Y-85422200D03*
X178362480Y-86442200D03*
X180902480Y-87462200D03*
D11*
X183202480Y-90912200D03*
X183202480Y-78912200D03*
D12*
X169636440Y-87568560D03*
D13*
X172176440Y-86298560D03*
X169636440Y-85028560D03*
X172176440Y-83758560D03*
X169636440Y-82488560D03*
X172176440Y-81218560D03*
D14*
X159029400Y-87477600D03*
D15*
X154662200Y-89770200D03*
X149662200Y-89770200D03*
X148412200Y-89770200D03*
X155912200Y-89770200D03*
X158927800Y-77960400D03*
X158927800Y-82960400D03*
X158927800Y-84210400D03*
X158927800Y-76710400D03*
X63549200Y-91827400D03*
X68549200Y-91827400D03*
X69799200Y-91827400D03*
X62299200Y-91827400D03*
D16*
X112242600Y-76809600D03*
D15*
X109702600Y-76809600D03*
X107162600Y-76809600D03*
X104622600Y-76809600D03*
X102082600Y-76809600D03*
X99542600Y-76809600D03*
X97002600Y-76809600D03*
X94462600Y-76809600D03*
X91922600Y-76809600D03*
X89382600Y-76809600D03*
X86842600Y-76809600D03*
X84302600Y-76809600D03*
X81762600Y-76809600D03*
X109702600Y-89509600D03*
X112242600Y-92049600D03*
X109702600Y-92049600D03*
X107162600Y-92049600D03*
X104622600Y-92049600D03*
X102082600Y-92049600D03*
X99542600Y-92049600D03*
X97002600Y-92049600D03*
X94462600Y-92049600D03*
X91922600Y-92049600D03*
X89382600Y-92049600D03*
X86842600Y-92049600D03*
X84302600Y-92049600D03*
X81762600Y-92049600D03*
X79222600Y-76809600D03*
X79222600Y-79349600D03*
X79222600Y-81889600D03*
X79222600Y-92049600D03*
X79222600Y-89509600D03*
X79222600Y-86969600D03*
X79222600Y-84429600D03*
D17*
X69342000Y-85090000D03*
X66802000Y-85090000D03*
X69342000Y-82550000D03*
X66802000Y-82550000D03*
X69342000Y-80010000D03*
D14*
X66802000Y-80010000D03*
D17*
X164014400Y-89363800D03*
X164014400Y-86823800D03*
X164014400Y-84283800D03*
D14*
X164014400Y-81743800D03*
D17*
X142773400Y-90244800D03*
D14*
X140233400Y-90244800D03*
D18*
X154586000Y-76808000D03*
D19*
X152046000Y-76808000D03*
X149506000Y-76808000D03*
X146966000Y-76808000D03*
X146966000Y-84428000D03*
X149506000Y-84428000D03*
X152046000Y-84428000D03*
X154586000Y-84428000D03*
D20*
X139854000Y-76808000D03*
D15*
X139854000Y-86968000D03*
D20*
X143410000Y-76808000D03*
D15*
X143410000Y-86968000D03*
D21*
X74295000Y-85775800D03*
X126517400Y-81407000D03*
X85521800Y-87858600D03*
X82448400Y-79019400D03*
X155168600Y-80264000D03*
X166651560Y-79918560D03*
D22*
X112402620Y-76808000D02*
X113926620Y-75284000D01*
X145442000Y-75284000D02*
X146966000Y-76808000D01*
X113926620Y-75284000D02*
X145442000Y-75284000D01*
X66802000Y-80010000D02*
X69342000Y-80010000D01*
X65452000Y-80010000D02*
X66802000Y-80010000D01*
X62299200Y-83162800D02*
X65452000Y-80010000D01*
X62299200Y-92227400D02*
X63549200Y-92227400D01*
X155912200Y-89770200D02*
X154662200Y-89770200D01*
X148499190Y-75274810D02*
X146966000Y-76808000D01*
X158927800Y-75579030D02*
X158623580Y-75274810D01*
X158623580Y-75274810D02*
X148499190Y-75274810D01*
X158927800Y-76710400D02*
X158927800Y-75579030D01*
X158927800Y-76710400D02*
X158927800Y-77960400D01*
X62299200Y-84962380D02*
X62299200Y-91827400D01*
X62299200Y-83162800D02*
X62299200Y-84962380D01*
X172176440Y-77383640D02*
X172176440Y-81218560D01*
X158927800Y-76710400D02*
X171503200Y-76710400D01*
X171503200Y-76710400D02*
X172176440Y-77383640D01*
X139854000Y-86968000D02*
X143410000Y-86968000D01*
X68549200Y-92227400D02*
X69799200Y-92227400D01*
X107162600Y-92049600D02*
X107162600Y-92067380D01*
X107162600Y-92067380D02*
X107154980Y-92075000D01*
X108585000Y-93472000D02*
X107162600Y-92049600D01*
X115216000Y-93472000D02*
X108585000Y-93472000D01*
X139854000Y-86968000D02*
X139054001Y-86168001D01*
X139054001Y-86168001D02*
X139054001Y-86145801D01*
X137896600Y-84988400D02*
X123699600Y-84988400D01*
X139054001Y-86145801D02*
X137896600Y-84988400D01*
X123699600Y-84988400D02*
X115216000Y-93472000D01*
X105713200Y-93499000D02*
X107162600Y-92049600D01*
X69799200Y-92958770D02*
X70339430Y-93499000D01*
X70339430Y-93499000D02*
X105713200Y-93499000D01*
X69799200Y-91827400D02*
X69799200Y-92958770D01*
X69342000Y-91370200D02*
X69799200Y-91827400D01*
X69342000Y-85090000D02*
X69342000Y-91370200D01*
X171981242Y-87568560D02*
X169636440Y-87568560D01*
X172176440Y-86298560D02*
X172176440Y-87373362D01*
X172176440Y-87373362D02*
X171981242Y-87568560D01*
X168376440Y-87568560D02*
X166824660Y-86016780D01*
X169636440Y-87568560D02*
X168376440Y-87568560D01*
X166824660Y-86016780D02*
X166824660Y-81927700D01*
X166640760Y-81743800D02*
X164014400Y-81743800D01*
X166824660Y-81927700D02*
X166640760Y-81743800D01*
X169636440Y-87568560D02*
X169636440Y-91102180D01*
X169636440Y-91102180D02*
X168175940Y-92562680D01*
X152454680Y-92562680D02*
X149662200Y-89770200D01*
X168175940Y-92562680D02*
X152454680Y-92562680D01*
X143248000Y-89770200D02*
X142773400Y-90244800D01*
X148412200Y-89770200D02*
X143248000Y-89770200D01*
X172176440Y-86298560D02*
X176128200Y-82346800D01*
X176143600Y-82362200D02*
X178362480Y-82362200D01*
X176128200Y-82346800D02*
X176143600Y-82362200D01*
X179882480Y-82362200D02*
X180902480Y-83382200D01*
X178362480Y-82362200D02*
X179882480Y-82362200D01*
D23*
X161302700Y-79918560D02*
X166651560Y-79918560D01*
X155168600Y-80264000D02*
X160957260Y-80264000D01*
X160957260Y-80264000D02*
X161302700Y-79918560D01*
X153901800Y-78663800D02*
X152046000Y-76808000D01*
X167690800Y-84709000D02*
X167690800Y-78663800D01*
X169636440Y-85028560D02*
X168010360Y-85028560D01*
X168010360Y-85028560D02*
X167690800Y-84709000D01*
X167690800Y-78663800D02*
X161129980Y-78663800D01*
X161129980Y-78663800D02*
X160342580Y-79451200D01*
X160342580Y-79451200D02*
X156326840Y-79451200D01*
X155539440Y-78663800D02*
X153901800Y-78663800D01*
X156326840Y-79451200D02*
X155539440Y-78663800D01*
X97067700Y-86904500D02*
X91922600Y-92049600D01*
X110961500Y-86904500D02*
X97067700Y-86904500D01*
X149506000Y-84428000D02*
X149506000Y-85613393D01*
X149506000Y-85613393D02*
X151053800Y-87161193D01*
X151053800Y-87161193D02*
X151067593Y-87161193D01*
X138722630Y-76808000D02*
X138013030Y-76098400D01*
X139854000Y-76808000D02*
X138722630Y-76808000D01*
X121742200Y-76098400D02*
X120726200Y-77114400D01*
X138013030Y-76098400D02*
X121742200Y-76098400D01*
X121058000Y-76808000D02*
X120726200Y-77114400D01*
X120726200Y-77114400D02*
X110961500Y-86904500D01*
X152171400Y-88278793D02*
X151053800Y-87161193D01*
X152171400Y-90497660D02*
X152171400Y-88278793D01*
X161519620Y-89363800D02*
X159364680Y-91518740D01*
X153162000Y-91518740D02*
X153162000Y-91488260D01*
X159364680Y-91518740D02*
X153162000Y-91518740D01*
X164014400Y-89363800D02*
X161519620Y-89363800D01*
X153162000Y-91488260D02*
X152171400Y-90497660D01*
X98933000Y-87737620D02*
X98933000Y-87731600D01*
X94622620Y-92048000D02*
X98933000Y-87737620D01*
X116078000Y-83972400D02*
X112312780Y-87737620D01*
X143410000Y-76808000D02*
X136245600Y-83972400D01*
X112312780Y-87737620D02*
X98933000Y-87737620D01*
X136245600Y-83972400D02*
X116078000Y-83972400D01*
X85572600Y-80619600D02*
X89382600Y-76809600D01*
X77647800Y-80619600D02*
X85572600Y-80619600D01*
X74472800Y-83794600D02*
X77647800Y-80619600D01*
X66802000Y-85090000D02*
X68097400Y-83794600D01*
X68097400Y-83794600D02*
X74472800Y-83794600D01*
D24*
G36*
X78542873Y-75537920D02*
G01*
X78307841Y-75694963D01*
X78107963Y-75894841D01*
X77950920Y-76129873D01*
X77842747Y-76391026D01*
X77787600Y-76668265D01*
X77787600Y-76950935D01*
X77842747Y-77228174D01*
X77950920Y-77489327D01*
X78107963Y-77724359D01*
X78307841Y-77924237D01*
X78540359Y-78079600D01*
X78307841Y-78234963D01*
X78107963Y-78434841D01*
X77950920Y-78669873D01*
X77842747Y-78931026D01*
X77787600Y-79208265D01*
X77787600Y-79490935D01*
X77842747Y-79768174D01*
X77880617Y-79859600D01*
X77685122Y-79859600D01*
X77647799Y-79855924D01*
X77610476Y-79859600D01*
X77610467Y-79859600D01*
X77498814Y-79870597D01*
X77372214Y-79909000D01*
X77355553Y-79914054D01*
X77223523Y-79984626D01*
X77139883Y-80053268D01*
X77107799Y-80079599D01*
X77084001Y-80108597D01*
X74157999Y-83034600D01*
X70748624Y-83034600D01*
X70769932Y-82983158D01*
X70827000Y-82696260D01*
X70827000Y-82403740D01*
X70769932Y-82116842D01*
X70657990Y-81846589D01*
X70495475Y-81603368D01*
X70288632Y-81396525D01*
X70106466Y-81274805D01*
X70223355Y-81205178D01*
X70439588Y-81010269D01*
X70613641Y-80776920D01*
X70738825Y-80514099D01*
X70783476Y-80366890D01*
X70662155Y-80137000D01*
X69469000Y-80137000D01*
X69469000Y-80157000D01*
X69215000Y-80157000D01*
X69215000Y-80137000D01*
X66929000Y-80137000D01*
X66929000Y-80157000D01*
X66675000Y-80157000D01*
X66675000Y-80137000D01*
X65475750Y-80137000D01*
X65317000Y-80295750D01*
X65313928Y-80860000D01*
X65326188Y-80984482D01*
X65362498Y-81104180D01*
X65421463Y-81214494D01*
X65500815Y-81311185D01*
X65597506Y-81390537D01*
X65707820Y-81449502D01*
X65780380Y-81471513D01*
X65648525Y-81603368D01*
X65486010Y-81846589D01*
X65374068Y-82116842D01*
X65317000Y-82403740D01*
X65317000Y-82696260D01*
X65374068Y-82983158D01*
X65486010Y-83253411D01*
X65648525Y-83496632D01*
X65855368Y-83703475D01*
X66029760Y-83820000D01*
X65855368Y-83936525D01*
X65648525Y-84143368D01*
X65486010Y-84386589D01*
X65374068Y-84656842D01*
X65317000Y-84943740D01*
X65317000Y-85236260D01*
X65374068Y-85523158D01*
X65486010Y-85793411D01*
X65648525Y-86036632D01*
X65855368Y-86243475D01*
X66098589Y-86405990D01*
X66368842Y-86517932D01*
X66655740Y-86575000D01*
X66948260Y-86575000D01*
X67235158Y-86517932D01*
X67505411Y-86405990D01*
X67748632Y-86243475D01*
X67955475Y-86036632D01*
X68072000Y-85862240D01*
X68188525Y-86036632D01*
X68395368Y-86243475D01*
X68457000Y-86284656D01*
X68457001Y-90392400D01*
X68407865Y-90392400D01*
X68130626Y-90447547D01*
X67869473Y-90555720D01*
X67634441Y-90712763D01*
X67434563Y-90912641D01*
X67277520Y-91147673D01*
X67169347Y-91408826D01*
X67114200Y-91686065D01*
X67114200Y-91968735D01*
X67169347Y-92245974D01*
X67277520Y-92507127D01*
X67434563Y-92742159D01*
X67634441Y-92942037D01*
X67869473Y-93099080D01*
X68130626Y-93207253D01*
X68407865Y-93262400D01*
X68690535Y-93262400D01*
X68950780Y-93210633D01*
X68977612Y-93299083D01*
X68999482Y-93340000D01*
X61518400Y-93340000D01*
X61518400Y-92930177D01*
X61557686Y-93064071D01*
X61813196Y-93184971D01*
X62087384Y-93253700D01*
X62369712Y-93267617D01*
X62649330Y-93226187D01*
X62915492Y-93131003D01*
X62931292Y-93122558D01*
X63063196Y-93184971D01*
X63337384Y-93253700D01*
X63619712Y-93267617D01*
X63899330Y-93226187D01*
X64165492Y-93131003D01*
X64290714Y-93064071D01*
X64362297Y-92820102D01*
X63696621Y-92154426D01*
X63725500Y-92039216D01*
X63735606Y-91834201D01*
X64541902Y-92640497D01*
X64785871Y-92568914D01*
X64906771Y-92313404D01*
X64975500Y-92039216D01*
X64989417Y-91756888D01*
X64947987Y-91477270D01*
X64852803Y-91211108D01*
X64785871Y-91085886D01*
X64541902Y-91014303D01*
X63736311Y-91819894D01*
X63739417Y-91756888D01*
X63700792Y-91496203D01*
X64362297Y-90834698D01*
X64290714Y-90590729D01*
X64035204Y-90469829D01*
X63761016Y-90401100D01*
X63478688Y-90387183D01*
X63199070Y-90428613D01*
X62932908Y-90523797D01*
X62917108Y-90532242D01*
X62785204Y-90469829D01*
X62511016Y-90401100D01*
X62228688Y-90387183D01*
X61949070Y-90428613D01*
X61682908Y-90523797D01*
X61557686Y-90590729D01*
X61518400Y-90724623D01*
X61518400Y-79160000D01*
X65313928Y-79160000D01*
X65317000Y-79724250D01*
X65475750Y-79883000D01*
X66675000Y-79883000D01*
X66675000Y-78683750D01*
X66929000Y-78683750D01*
X66929000Y-79883000D01*
X69215000Y-79883000D01*
X69215000Y-78689186D01*
X69469000Y-78689186D01*
X69469000Y-79883000D01*
X70662155Y-79883000D01*
X70783476Y-79653110D01*
X70738825Y-79505901D01*
X70613641Y-79243080D01*
X70439588Y-79009731D01*
X70223355Y-78814822D01*
X69973252Y-78665843D01*
X69698891Y-78568519D01*
X69469000Y-78689186D01*
X69215000Y-78689186D01*
X68985109Y-78568519D01*
X68710748Y-78665843D01*
X68460645Y-78814822D01*
X68264498Y-78991626D01*
X68241502Y-78915820D01*
X68182537Y-78805506D01*
X68103185Y-78708815D01*
X68006494Y-78629463D01*
X67896180Y-78570498D01*
X67776482Y-78534188D01*
X67652000Y-78521928D01*
X67087750Y-78525000D01*
X66929000Y-78683750D01*
X66675000Y-78683750D01*
X66516250Y-78525000D01*
X65952000Y-78521928D01*
X65827518Y-78534188D01*
X65707820Y-78570498D01*
X65597506Y-78629463D01*
X65500815Y-78708815D01*
X65421463Y-78805506D01*
X65362498Y-78915820D01*
X65326188Y-79035518D01*
X65313928Y-79160000D01*
X61518400Y-79160000D01*
X61518400Y-77728495D01*
X72658000Y-77728495D01*
X72658000Y-78119505D01*
X72734282Y-78503003D01*
X72883915Y-78864250D01*
X73101149Y-79189364D01*
X73377636Y-79465851D01*
X73702750Y-79683085D01*
X74063997Y-79832718D01*
X74447495Y-79909000D01*
X74838505Y-79909000D01*
X75222003Y-79832718D01*
X75583250Y-79683085D01*
X75908364Y-79465851D01*
X76184851Y-79189364D01*
X76402085Y-78864250D01*
X76551718Y-78503003D01*
X76628000Y-78119505D01*
X76628000Y-77728495D01*
X76551718Y-77344997D01*
X76402085Y-76983750D01*
X76184851Y-76658636D01*
X75908364Y-76382149D01*
X75583250Y-76164915D01*
X75222003Y-76015282D01*
X74838505Y-75939000D01*
X74447495Y-75939000D01*
X74063997Y-76015282D01*
X73702750Y-76164915D01*
X73377636Y-76382149D01*
X73101149Y-76658636D01*
X72883915Y-76983750D01*
X72734282Y-77344997D01*
X72658000Y-77728495D01*
X61518400Y-77728495D01*
X61518400Y-75459800D01*
X78731472Y-75459800D01*
X78542873Y-75537920D01*
G37*
X78542873Y-75537920D02*
X78307841Y-75694963D01*
X78107963Y-75894841D01*
X77950920Y-76129873D01*
X77842747Y-76391026D01*
X77787600Y-76668265D01*
X77787600Y-76950935D01*
X77842747Y-77228174D01*
X77950920Y-77489327D01*
X78107963Y-77724359D01*
X78307841Y-77924237D01*
X78540359Y-78079600D01*
X78307841Y-78234963D01*
X78107963Y-78434841D01*
X77950920Y-78669873D01*
X77842747Y-78931026D01*
X77787600Y-79208265D01*
X77787600Y-79490935D01*
X77842747Y-79768174D01*
X77880617Y-79859600D01*
X77685122Y-79859600D01*
X77647799Y-79855924D01*
X77610476Y-79859600D01*
X77610467Y-79859600D01*
X77498814Y-79870597D01*
X77372214Y-79909000D01*
X77355553Y-79914054D01*
X77223523Y-79984626D01*
X77139883Y-80053268D01*
X77107799Y-80079599D01*
X77084001Y-80108597D01*
X74157999Y-83034600D01*
X70748624Y-83034600D01*
X70769932Y-82983158D01*
X70827000Y-82696260D01*
X70827000Y-82403740D01*
X70769932Y-82116842D01*
X70657990Y-81846589D01*
X70495475Y-81603368D01*
X70288632Y-81396525D01*
X70106466Y-81274805D01*
X70223355Y-81205178D01*
X70439588Y-81010269D01*
X70613641Y-80776920D01*
X70738825Y-80514099D01*
X70783476Y-80366890D01*
X70662155Y-80137000D01*
X69469000Y-80137000D01*
X69469000Y-80157000D01*
X69215000Y-80157000D01*
X69215000Y-80137000D01*
X66929000Y-80137000D01*
X66929000Y-80157000D01*
X66675000Y-80157000D01*
X66675000Y-80137000D01*
X65475750Y-80137000D01*
X65317000Y-80295750D01*
X65313928Y-80860000D01*
X65326188Y-80984482D01*
X65362498Y-81104180D01*
X65421463Y-81214494D01*
X65500815Y-81311185D01*
X65597506Y-81390537D01*
X65707820Y-81449502D01*
X65780380Y-81471513D01*
X65648525Y-81603368D01*
X65486010Y-81846589D01*
X65374068Y-82116842D01*
X65317000Y-82403740D01*
X65317000Y-82696260D01*
X65374068Y-82983158D01*
X65486010Y-83253411D01*
X65648525Y-83496632D01*
X65855368Y-83703475D01*
X66029760Y-83820000D01*
X65855368Y-83936525D01*
X65648525Y-84143368D01*
X65486010Y-84386589D01*
X65374068Y-84656842D01*
X65317000Y-84943740D01*
X65317000Y-85236260D01*
X65374068Y-85523158D01*
X65486010Y-85793411D01*
X65648525Y-86036632D01*
X65855368Y-86243475D01*
X66098589Y-86405990D01*
X66368842Y-86517932D01*
X66655740Y-86575000D01*
X66948260Y-86575000D01*
X67235158Y-86517932D01*
X67505411Y-86405990D01*
X67748632Y-86243475D01*
X67955475Y-86036632D01*
X68072000Y-85862240D01*
X68188525Y-86036632D01*
X68395368Y-86243475D01*
X68457000Y-86284656D01*
X68457001Y-90392400D01*
X68407865Y-90392400D01*
X68130626Y-90447547D01*
X67869473Y-90555720D01*
X67634441Y-90712763D01*
X67434563Y-90912641D01*
X67277520Y-91147673D01*
X67169347Y-91408826D01*
X67114200Y-91686065D01*
X67114200Y-91968735D01*
X67169347Y-92245974D01*
X67277520Y-92507127D01*
X67434563Y-92742159D01*
X67634441Y-92942037D01*
X67869473Y-93099080D01*
X68130626Y-93207253D01*
X68407865Y-93262400D01*
X68690535Y-93262400D01*
X68950780Y-93210633D01*
X68977612Y-93299083D01*
X68999482Y-93340000D01*
X61518400Y-93340000D01*
X61518400Y-92930177D01*
X61557686Y-93064071D01*
X61813196Y-93184971D01*
X62087384Y-93253700D01*
X62369712Y-93267617D01*
X62649330Y-93226187D01*
X62915492Y-93131003D01*
X62931292Y-93122558D01*
X63063196Y-93184971D01*
X63337384Y-93253700D01*
X63619712Y-93267617D01*
X63899330Y-93226187D01*
X64165492Y-93131003D01*
X64290714Y-93064071D01*
X64362297Y-92820102D01*
X63696621Y-92154426D01*
X63725500Y-92039216D01*
X63735606Y-91834201D01*
X64541902Y-92640497D01*
X64785871Y-92568914D01*
X64906771Y-92313404D01*
X64975500Y-92039216D01*
X64989417Y-91756888D01*
X64947987Y-91477270D01*
X64852803Y-91211108D01*
X64785871Y-91085886D01*
X64541902Y-91014303D01*
X63736311Y-91819894D01*
X63739417Y-91756888D01*
X63700792Y-91496203D01*
X64362297Y-90834698D01*
X64290714Y-90590729D01*
X64035204Y-90469829D01*
X63761016Y-90401100D01*
X63478688Y-90387183D01*
X63199070Y-90428613D01*
X62932908Y-90523797D01*
X62917108Y-90532242D01*
X62785204Y-90469829D01*
X62511016Y-90401100D01*
X62228688Y-90387183D01*
X61949070Y-90428613D01*
X61682908Y-90523797D01*
X61557686Y-90590729D01*
X61518400Y-90724623D01*
X61518400Y-79160000D01*
X65313928Y-79160000D01*
X65317000Y-79724250D01*
X65475750Y-79883000D01*
X66675000Y-79883000D01*
X66675000Y-78683750D01*
X66929000Y-78683750D01*
X66929000Y-79883000D01*
X69215000Y-79883000D01*
X69215000Y-78689186D01*
X69469000Y-78689186D01*
X69469000Y-79883000D01*
X70662155Y-79883000D01*
X70783476Y-79653110D01*
X70738825Y-79505901D01*
X70613641Y-79243080D01*
X70439588Y-79009731D01*
X70223355Y-78814822D01*
X69973252Y-78665843D01*
X69698891Y-78568519D01*
X69469000Y-78689186D01*
X69215000Y-78689186D01*
X68985109Y-78568519D01*
X68710748Y-78665843D01*
X68460645Y-78814822D01*
X68264498Y-78991626D01*
X68241502Y-78915820D01*
X68182537Y-78805506D01*
X68103185Y-78708815D01*
X68006494Y-78629463D01*
X67896180Y-78570498D01*
X67776482Y-78534188D01*
X67652000Y-78521928D01*
X67087750Y-78525000D01*
X66929000Y-78683750D01*
X66675000Y-78683750D01*
X66516250Y-78525000D01*
X65952000Y-78521928D01*
X65827518Y-78534188D01*
X65707820Y-78570498D01*
X65597506Y-78629463D01*
X65500815Y-78708815D01*
X65421463Y-78805506D01*
X65362498Y-78915820D01*
X65326188Y-79035518D01*
X65313928Y-79160000D01*
X61518400Y-79160000D01*
X61518400Y-77728495D01*
X72658000Y-77728495D01*
X72658000Y-78119505D01*
X72734282Y-78503003D01*
X72883915Y-78864250D01*
X73101149Y-79189364D01*
X73377636Y-79465851D01*
X73702750Y-79683085D01*
X74063997Y-79832718D01*
X74447495Y-79909000D01*
X74838505Y-79909000D01*
X75222003Y-79832718D01*
X75583250Y-79683085D01*
X75908364Y-79465851D01*
X76184851Y-79189364D01*
X76402085Y-78864250D01*
X76551718Y-78503003D01*
X76628000Y-78119505D01*
X76628000Y-77728495D01*
X76551718Y-77344997D01*
X76402085Y-76983750D01*
X76184851Y-76658636D01*
X75908364Y-76382149D01*
X75583250Y-76164915D01*
X75222003Y-76015282D01*
X74838505Y-75939000D01*
X74447495Y-75939000D01*
X74063997Y-76015282D01*
X73702750Y-76164915D01*
X73377636Y-76382149D01*
X73101149Y-76658636D01*
X72883915Y-76983750D01*
X72734282Y-77344997D01*
X72658000Y-77728495D01*
X61518400Y-77728495D01*
X61518400Y-75459800D01*
X78731472Y-75459800D01*
X78542873Y-75537920D01*
G36*
X146336372Y-75468246D02*
G01*
X146201838Y-75540156D01*
X146125630Y-75788025D01*
X146966000Y-76628395D01*
X147806370Y-75788025D01*
X147730162Y-75540156D01*
X147561339Y-75459800D01*
X148911185Y-75459800D01*
X148808178Y-75502467D01*
X148566890Y-75663691D01*
X148361691Y-75868890D01*
X148238711Y-76052943D01*
X148233844Y-76043838D01*
X147985975Y-75967630D01*
X147145605Y-76808000D01*
X147985975Y-77648370D01*
X148233844Y-77572162D01*
X148238399Y-77562592D01*
X148361691Y-77747110D01*
X148566890Y-77952309D01*
X148808178Y-78113533D01*
X149076283Y-78224586D01*
X149360902Y-78281200D01*
X149651098Y-78281200D01*
X149935717Y-78224586D01*
X150203822Y-78113533D01*
X150445110Y-77952309D01*
X150650309Y-77747110D01*
X150776000Y-77559001D01*
X150901691Y-77747110D01*
X151106890Y-77952309D01*
X151348178Y-78113533D01*
X151616283Y-78224586D01*
X151900902Y-78281200D01*
X152191098Y-78281200D01*
X152402373Y-78239175D01*
X153338000Y-79174802D01*
X153361799Y-79203801D01*
X153390797Y-79227599D01*
X153477524Y-79298774D01*
X153609553Y-79369346D01*
X153752814Y-79412803D01*
X153901800Y-79427477D01*
X153939133Y-79423800D01*
X154563098Y-79423800D01*
X154508826Y-79460063D01*
X154364663Y-79604226D01*
X154251395Y-79773744D01*
X154173374Y-79962102D01*
X154133600Y-80162061D01*
X154133600Y-80365939D01*
X154173374Y-80565898D01*
X154251395Y-80754256D01*
X154364663Y-80923774D01*
X154508826Y-81067937D01*
X154678344Y-81181205D01*
X154866702Y-81259226D01*
X155066661Y-81299000D01*
X155270539Y-81299000D01*
X155470498Y-81259226D01*
X155658856Y-81181205D01*
X155828374Y-81067937D01*
X155872311Y-81024000D01*
X160919938Y-81024000D01*
X160957260Y-81027676D01*
X160994582Y-81024000D01*
X160994593Y-81024000D01*
X161106246Y-81013003D01*
X161249507Y-80969546D01*
X161381536Y-80898974D01*
X161497261Y-80804001D01*
X161521064Y-80774997D01*
X161617501Y-80678560D01*
X162566119Y-80678560D01*
X162538588Y-80769318D01*
X162526328Y-80893800D01*
X162526328Y-82593800D01*
X162538588Y-82718282D01*
X162574898Y-82837980D01*
X162633863Y-82948294D01*
X162713215Y-83044985D01*
X162809906Y-83124337D01*
X162920220Y-83183302D01*
X163000866Y-83207766D01*
X162916812Y-83283531D01*
X162742759Y-83516880D01*
X162617575Y-83779701D01*
X162572924Y-83926910D01*
X162694245Y-84156800D01*
X163887400Y-84156800D01*
X163887400Y-84136800D01*
X164141400Y-84136800D01*
X164141400Y-84156800D01*
X165334555Y-84156800D01*
X165455876Y-83926910D01*
X165411225Y-83779701D01*
X165286041Y-83516880D01*
X165111988Y-83283531D01*
X165027934Y-83207766D01*
X165108580Y-83183302D01*
X165218894Y-83124337D01*
X165315585Y-83044985D01*
X165394937Y-82948294D01*
X165453902Y-82837980D01*
X165490212Y-82718282D01*
X165499025Y-82628800D01*
X165939661Y-82628800D01*
X165939660Y-85973311D01*
X165935379Y-86016780D01*
X165939660Y-86060249D01*
X165939660Y-86060256D01*
X165949787Y-86163075D01*
X165952465Y-86190270D01*
X165958898Y-86211477D01*
X166003071Y-86357092D01*
X166085249Y-86510838D01*
X166195843Y-86645597D01*
X166229616Y-86673314D01*
X167719910Y-88163609D01*
X167747623Y-88197377D01*
X167781391Y-88225090D01*
X167781393Y-88225092D01*
X167806330Y-88245557D01*
X167882381Y-88307971D01*
X168036127Y-88390149D01*
X168202950Y-88440755D01*
X168249873Y-88445376D01*
X168250628Y-88453042D01*
X168286938Y-88572740D01*
X168345903Y-88683054D01*
X168425255Y-88779745D01*
X168521946Y-88859097D01*
X168632260Y-88918062D01*
X168751440Y-88954215D01*
X168751441Y-90735600D01*
X167809362Y-91677680D01*
X160280541Y-91677680D01*
X161834423Y-90123800D01*
X162736222Y-90123800D01*
X162860925Y-90310432D01*
X163067768Y-90517275D01*
X163310989Y-90679790D01*
X163581242Y-90791732D01*
X163868140Y-90848800D01*
X164160660Y-90848800D01*
X164447558Y-90791732D01*
X164717811Y-90679790D01*
X164961032Y-90517275D01*
X165167875Y-90310432D01*
X165330390Y-90067211D01*
X165442332Y-89796958D01*
X165499400Y-89510060D01*
X165499400Y-89217540D01*
X165442332Y-88930642D01*
X165330390Y-88660389D01*
X165167875Y-88417168D01*
X164961032Y-88210325D01*
X164786640Y-88093800D01*
X164961032Y-87977275D01*
X165167875Y-87770432D01*
X165330390Y-87527211D01*
X165442332Y-87256958D01*
X165499400Y-86970060D01*
X165499400Y-86677540D01*
X165442332Y-86390642D01*
X165330390Y-86120389D01*
X165167875Y-85877168D01*
X164961032Y-85670325D01*
X164778866Y-85548605D01*
X164895755Y-85478978D01*
X165111988Y-85284069D01*
X165286041Y-85050720D01*
X165411225Y-84787899D01*
X165455876Y-84640690D01*
X165334555Y-84410800D01*
X164141400Y-84410800D01*
X164141400Y-84430800D01*
X163887400Y-84430800D01*
X163887400Y-84410800D01*
X162694245Y-84410800D01*
X162572924Y-84640690D01*
X162617575Y-84787899D01*
X162742759Y-85050720D01*
X162916812Y-85284069D01*
X163133045Y-85478978D01*
X163249934Y-85548605D01*
X163067768Y-85670325D01*
X162860925Y-85877168D01*
X162698410Y-86120389D01*
X162586468Y-86390642D01*
X162529400Y-86677540D01*
X162529400Y-86970060D01*
X162586468Y-87256958D01*
X162698410Y-87527211D01*
X162860925Y-87770432D01*
X163067768Y-87977275D01*
X163242160Y-88093800D01*
X163067768Y-88210325D01*
X162860925Y-88417168D01*
X162736222Y-88603800D01*
X161556942Y-88603800D01*
X161519619Y-88600124D01*
X161482296Y-88603800D01*
X161482287Y-88603800D01*
X161370634Y-88614797D01*
X161227373Y-88658254D01*
X161095344Y-88728826D01*
X161095342Y-88728827D01*
X161095343Y-88728827D01*
X161008616Y-88800001D01*
X161008612Y-88800005D01*
X160979619Y-88823799D01*
X160955825Y-88852792D01*
X159049879Y-90758740D01*
X156962007Y-90758740D01*
X157021177Y-90699570D01*
X156904904Y-90583297D01*
X157148871Y-90511714D01*
X157269771Y-90256204D01*
X157338500Y-89982016D01*
X157352417Y-89699688D01*
X157310987Y-89420070D01*
X157215803Y-89153908D01*
X157148871Y-89028686D01*
X156904902Y-88957103D01*
X156099311Y-89762694D01*
X156102417Y-89699688D01*
X156063792Y-89439003D01*
X156725297Y-88777498D01*
X156653714Y-88533529D01*
X156398204Y-88412629D01*
X156124016Y-88343900D01*
X155841688Y-88329983D01*
X155562070Y-88371413D01*
X155295908Y-88466597D01*
X155280108Y-88475042D01*
X155148204Y-88412629D01*
X154874016Y-88343900D01*
X154591688Y-88329983D01*
X154312070Y-88371413D01*
X154045908Y-88466597D01*
X153920686Y-88533529D01*
X153849103Y-88777498D01*
X154514779Y-89443174D01*
X154485900Y-89558384D01*
X154475794Y-89763399D01*
X153669498Y-88957103D01*
X153425529Y-89028686D01*
X153304629Y-89284196D01*
X153235900Y-89558384D01*
X153221983Y-89840712D01*
X153263413Y-90120330D01*
X153358597Y-90386492D01*
X153425529Y-90511714D01*
X153669496Y-90583297D01*
X153553223Y-90699570D01*
X153612393Y-90758740D01*
X153507282Y-90758740D01*
X152931400Y-90182859D01*
X152931400Y-88316115D01*
X152935076Y-88278792D01*
X152931400Y-88241469D01*
X152931400Y-88241460D01*
X152920403Y-88129807D01*
X152876946Y-87986546D01*
X152806374Y-87854516D01*
X152735199Y-87767790D01*
X152711401Y-87738792D01*
X152682403Y-87714994D01*
X151694521Y-86727113D01*
X151612853Y-86627600D01*
X157541328Y-86627600D01*
X157541328Y-88327600D01*
X157553588Y-88452082D01*
X157589898Y-88571780D01*
X157648863Y-88682094D01*
X157728215Y-88778785D01*
X157824906Y-88858137D01*
X157935220Y-88917102D01*
X158054918Y-88953412D01*
X158179400Y-88965672D01*
X159879400Y-88965672D01*
X160003882Y-88953412D01*
X160123580Y-88917102D01*
X160233894Y-88858137D01*
X160330585Y-88778785D01*
X160409937Y-88682094D01*
X160468902Y-88571780D01*
X160505212Y-88452082D01*
X160517472Y-88327600D01*
X160517472Y-86627600D01*
X160505212Y-86503118D01*
X160468902Y-86383420D01*
X160409937Y-86273106D01*
X160330585Y-86176415D01*
X160233894Y-86097063D01*
X160123580Y-86038098D01*
X160003882Y-86001788D01*
X159879400Y-85989528D01*
X158179400Y-85989528D01*
X158054918Y-86001788D01*
X157935220Y-86038098D01*
X157824906Y-86097063D01*
X157728215Y-86176415D01*
X157648863Y-86273106D01*
X157589898Y-86383420D01*
X157553588Y-86503118D01*
X157541328Y-86627600D01*
X151612853Y-86627600D01*
X151607594Y-86621192D01*
X151501678Y-86534269D01*
X150492414Y-85525005D01*
X150650309Y-85367110D01*
X150776000Y-85179001D01*
X150901691Y-85367110D01*
X151106890Y-85572309D01*
X151348178Y-85733533D01*
X151616283Y-85844586D01*
X151900902Y-85901200D01*
X152191098Y-85901200D01*
X152475717Y-85844586D01*
X152743822Y-85733533D01*
X152985110Y-85572309D01*
X153190309Y-85367110D01*
X153316000Y-85179001D01*
X153441691Y-85367110D01*
X153646890Y-85572309D01*
X153888178Y-85733533D01*
X154156283Y-85844586D01*
X154440902Y-85901200D01*
X154731098Y-85901200D01*
X155015717Y-85844586D01*
X155283822Y-85733533D01*
X155525110Y-85572309D01*
X155730309Y-85367110D01*
X155891533Y-85125822D01*
X156002586Y-84857717D01*
X156059200Y-84573098D01*
X156059200Y-84282902D01*
X156002586Y-83998283D01*
X155891533Y-83730178D01*
X155730309Y-83488890D01*
X155525110Y-83283691D01*
X155283822Y-83122467D01*
X155015717Y-83011414D01*
X154731098Y-82954800D01*
X154440902Y-82954800D01*
X154156283Y-83011414D01*
X153888178Y-83122467D01*
X153646890Y-83283691D01*
X153441691Y-83488890D01*
X153316000Y-83676999D01*
X153190309Y-83488890D01*
X152985110Y-83283691D01*
X152743822Y-83122467D01*
X152475717Y-83011414D01*
X152191098Y-82954800D01*
X151900902Y-82954800D01*
X151616283Y-83011414D01*
X151348178Y-83122467D01*
X151106890Y-83283691D01*
X150901691Y-83488890D01*
X150776000Y-83676999D01*
X150650309Y-83488890D01*
X150445110Y-83283691D01*
X150203822Y-83122467D01*
X149935717Y-83011414D01*
X149651098Y-82954800D01*
X149360902Y-82954800D01*
X149076283Y-83011414D01*
X148808178Y-83122467D01*
X148566890Y-83283691D01*
X148361691Y-83488890D01*
X148236000Y-83676999D01*
X148110309Y-83488890D01*
X147905110Y-83283691D01*
X147663822Y-83122467D01*
X147395717Y-83011414D01*
X147111098Y-82954800D01*
X146820902Y-82954800D01*
X146536283Y-83011414D01*
X146268178Y-83122467D01*
X146026890Y-83283691D01*
X145821691Y-83488890D01*
X145660467Y-83730178D01*
X145549414Y-83998283D01*
X145492800Y-84282902D01*
X145492800Y-84573098D01*
X145549414Y-84857717D01*
X145660467Y-85125822D01*
X145821691Y-85367110D01*
X146026890Y-85572309D01*
X146268178Y-85733533D01*
X146536283Y-85844586D01*
X146820902Y-85901200D01*
X147111098Y-85901200D01*
X147395717Y-85844586D01*
X147663822Y-85733533D01*
X147905110Y-85572309D01*
X148110309Y-85367110D01*
X148236000Y-85179001D01*
X148361691Y-85367110D01*
X148566890Y-85572309D01*
X148750351Y-85694894D01*
X148756998Y-85762378D01*
X148800454Y-85905639D01*
X148871026Y-86037669D01*
X148940900Y-86122810D01*
X148966000Y-86153394D01*
X148994998Y-86177192D01*
X150490000Y-87672195D01*
X150513799Y-87701194D01*
X150542802Y-87724997D01*
X151411401Y-88593596D01*
X151411400Y-90267822D01*
X151090217Y-89946639D01*
X151097200Y-89911535D01*
X151097200Y-89628865D01*
X151042053Y-89351626D01*
X150933880Y-89090473D01*
X150776837Y-88855441D01*
X150576959Y-88655563D01*
X150341927Y-88498520D01*
X150080774Y-88390347D01*
X149803535Y-88335200D01*
X149520865Y-88335200D01*
X149243626Y-88390347D01*
X149037200Y-88475851D01*
X148830774Y-88390347D01*
X148553535Y-88335200D01*
X148270865Y-88335200D01*
X147993626Y-88390347D01*
X147732473Y-88498520D01*
X147497441Y-88655563D01*
X147297563Y-88855441D01*
X147277679Y-88885200D01*
X143371527Y-88885200D01*
X143206558Y-88816868D01*
X142919660Y-88759800D01*
X142627140Y-88759800D01*
X142340242Y-88816868D01*
X142069989Y-88928810D01*
X141826768Y-89091325D01*
X141694913Y-89223180D01*
X141672902Y-89150620D01*
X141613937Y-89040306D01*
X141534585Y-88943615D01*
X141437894Y-88864263D01*
X141327580Y-88805298D01*
X141207882Y-88768988D01*
X141083400Y-88756728D01*
X139383400Y-88756728D01*
X139258918Y-88768988D01*
X139139220Y-88805298D01*
X139028906Y-88864263D01*
X138932215Y-88943615D01*
X138852863Y-89040306D01*
X138793898Y-89150620D01*
X138757588Y-89270318D01*
X138745328Y-89394800D01*
X138745328Y-91094800D01*
X138757588Y-91219282D01*
X138793898Y-91338980D01*
X138852863Y-91449294D01*
X138932215Y-91545985D01*
X139028906Y-91625337D01*
X139139220Y-91684302D01*
X139258918Y-91720612D01*
X139383400Y-91732872D01*
X141083400Y-91732872D01*
X141207882Y-91720612D01*
X141327580Y-91684302D01*
X141437894Y-91625337D01*
X141534585Y-91545985D01*
X141613937Y-91449294D01*
X141672902Y-91338980D01*
X141694913Y-91266420D01*
X141826768Y-91398275D01*
X142069989Y-91560790D01*
X142340242Y-91672732D01*
X142627140Y-91729800D01*
X142919660Y-91729800D01*
X143206558Y-91672732D01*
X143476811Y-91560790D01*
X143720032Y-91398275D01*
X143926875Y-91191432D01*
X144089390Y-90948211D01*
X144201332Y-90677958D01*
X144205859Y-90655200D01*
X147277679Y-90655200D01*
X147297563Y-90684959D01*
X147497441Y-90884837D01*
X147732473Y-91041880D01*
X147993626Y-91150053D01*
X148270865Y-91205200D01*
X148553535Y-91205200D01*
X148830774Y-91150053D01*
X149037200Y-91064549D01*
X149243626Y-91150053D01*
X149520865Y-91205200D01*
X149803535Y-91205200D01*
X149838639Y-91198217D01*
X151798150Y-93157729D01*
X151825863Y-93191497D01*
X151859631Y-93219210D01*
X151859633Y-93219212D01*
X151901657Y-93253700D01*
X151960621Y-93302091D01*
X152031545Y-93340000D01*
X116599578Y-93340000D01*
X120235083Y-89704495D01*
X133041400Y-89704495D01*
X133041400Y-90095505D01*
X133117682Y-90479003D01*
X133267315Y-90840250D01*
X133484549Y-91165364D01*
X133761036Y-91441851D01*
X134086150Y-91659085D01*
X134447397Y-91808718D01*
X134830895Y-91885000D01*
X135221905Y-91885000D01*
X135605403Y-91808718D01*
X135966650Y-91659085D01*
X136291764Y-91441851D01*
X136568251Y-91165364D01*
X136785485Y-90840250D01*
X136935118Y-90479003D01*
X137011400Y-90095505D01*
X137011400Y-89704495D01*
X136935118Y-89320997D01*
X136785485Y-88959750D01*
X136568251Y-88634636D01*
X136291764Y-88358149D01*
X135966650Y-88140915D01*
X135605403Y-87991282D01*
X135221905Y-87915000D01*
X134830895Y-87915000D01*
X134447397Y-87991282D01*
X134086150Y-88140915D01*
X133761036Y-88358149D01*
X133484549Y-88634636D01*
X133267315Y-88959750D01*
X133117682Y-89320997D01*
X133041400Y-89704495D01*
X120235083Y-89704495D01*
X124066179Y-85873400D01*
X137530022Y-85873400D01*
X138309894Y-86653272D01*
X138314590Y-86662059D01*
X138424985Y-86796576D01*
X138419000Y-86826665D01*
X138419000Y-87109335D01*
X138474147Y-87386574D01*
X138582320Y-87647727D01*
X138739363Y-87882759D01*
X138939241Y-88082637D01*
X139174273Y-88239680D01*
X139435426Y-88347853D01*
X139712665Y-88403000D01*
X139995335Y-88403000D01*
X140272574Y-88347853D01*
X140533727Y-88239680D01*
X140768759Y-88082637D01*
X140968637Y-87882759D01*
X140988521Y-87853000D01*
X142275479Y-87853000D01*
X142295363Y-87882759D01*
X142495241Y-88082637D01*
X142730273Y-88239680D01*
X142991426Y-88347853D01*
X143268665Y-88403000D01*
X143551335Y-88403000D01*
X143828574Y-88347853D01*
X144089727Y-88239680D01*
X144324759Y-88082637D01*
X144524637Y-87882759D01*
X144681680Y-87647727D01*
X144789853Y-87386574D01*
X144845000Y-87109335D01*
X144845000Y-86826665D01*
X144789853Y-86549426D01*
X144681680Y-86288273D01*
X144524637Y-86053241D01*
X144324759Y-85853363D01*
X144089727Y-85696320D01*
X143828574Y-85588147D01*
X143551335Y-85533000D01*
X143268665Y-85533000D01*
X142991426Y-85588147D01*
X142730273Y-85696320D01*
X142495241Y-85853363D01*
X142295363Y-86053241D01*
X142275479Y-86083000D01*
X140988521Y-86083000D01*
X140968637Y-86053241D01*
X140768759Y-85853363D01*
X140533727Y-85696320D01*
X140272574Y-85588147D01*
X139995335Y-85533000D01*
X139712665Y-85533000D01*
X139698306Y-85535856D01*
X139682818Y-85516984D01*
X139649050Y-85489271D01*
X138553134Y-84393356D01*
X138525417Y-84359583D01*
X138390659Y-84248989D01*
X138236913Y-84166811D01*
X138070090Y-84116205D01*
X137940077Y-84103400D01*
X137940069Y-84103400D01*
X137896600Y-84099119D01*
X137853131Y-84103400D01*
X137189401Y-84103400D01*
X138473736Y-82819065D01*
X157492800Y-82819065D01*
X157492800Y-83101735D01*
X157547947Y-83378974D01*
X157633451Y-83585400D01*
X157547947Y-83791826D01*
X157492800Y-84069065D01*
X157492800Y-84351735D01*
X157547947Y-84628974D01*
X157656120Y-84890127D01*
X157813163Y-85125159D01*
X158013041Y-85325037D01*
X158248073Y-85482080D01*
X158509226Y-85590253D01*
X158786465Y-85645400D01*
X159069135Y-85645400D01*
X159346374Y-85590253D01*
X159607527Y-85482080D01*
X159842559Y-85325037D01*
X160042437Y-85125159D01*
X160199480Y-84890127D01*
X160307653Y-84628974D01*
X160362800Y-84351735D01*
X160362800Y-84069065D01*
X160307653Y-83791826D01*
X160222149Y-83585400D01*
X160307653Y-83378974D01*
X160362800Y-83101735D01*
X160362800Y-82819065D01*
X160307653Y-82541826D01*
X160199480Y-82280673D01*
X160042437Y-82045641D01*
X159842559Y-81845763D01*
X159607527Y-81688720D01*
X159346374Y-81580547D01*
X159069135Y-81525400D01*
X158786465Y-81525400D01*
X158509226Y-81580547D01*
X158248073Y-81688720D01*
X158013041Y-81845763D01*
X157813163Y-82045641D01*
X157656120Y-82280673D01*
X157547947Y-82541826D01*
X157492800Y-82819065D01*
X138473736Y-82819065D01*
X143086114Y-78206688D01*
X143268665Y-78243000D01*
X143551335Y-78243000D01*
X143828574Y-78187853D01*
X144089727Y-78079680D01*
X144324759Y-77922637D01*
X144419421Y-77827975D01*
X146125630Y-77827975D01*
X146201838Y-78075844D01*
X146463865Y-78200563D01*
X146745189Y-78271768D01*
X147034999Y-78286719D01*
X147322157Y-78244845D01*
X147595628Y-78147754D01*
X147730162Y-78075844D01*
X147806370Y-77827975D01*
X146966000Y-76987605D01*
X146125630Y-77827975D01*
X144419421Y-77827975D01*
X144524637Y-77722759D01*
X144681680Y-77487727D01*
X144789853Y-77226574D01*
X144845000Y-76949335D01*
X144845000Y-76876999D01*
X145487281Y-76876999D01*
X145529155Y-77164157D01*
X145626246Y-77437628D01*
X145698156Y-77572162D01*
X145946025Y-77648370D01*
X146786395Y-76808000D01*
X145946025Y-75967630D01*
X145698156Y-76043838D01*
X145573437Y-76305865D01*
X145502232Y-76587189D01*
X145487281Y-76876999D01*
X144845000Y-76876999D01*
X144845000Y-76666665D01*
X144789853Y-76389426D01*
X144681680Y-76128273D01*
X144524637Y-75893241D01*
X144324759Y-75693363D01*
X144089727Y-75536320D01*
X143904991Y-75459800D01*
X146360161Y-75459800D01*
X146336372Y-75468246D01*
G37*
X146336372Y-75468246D02*
X146201838Y-75540156D01*
X146125630Y-75788025D01*
X146966000Y-76628395D01*
X147806370Y-75788025D01*
X147730162Y-75540156D01*
X147561339Y-75459800D01*
X148911185Y-75459800D01*
X148808178Y-75502467D01*
X148566890Y-75663691D01*
X148361691Y-75868890D01*
X148238711Y-76052943D01*
X148233844Y-76043838D01*
X147985975Y-75967630D01*
X147145605Y-76808000D01*
X147985975Y-77648370D01*
X148233844Y-77572162D01*
X148238399Y-77562592D01*
X148361691Y-77747110D01*
X148566890Y-77952309D01*
X148808178Y-78113533D01*
X149076283Y-78224586D01*
X149360902Y-78281200D01*
X149651098Y-78281200D01*
X149935717Y-78224586D01*
X150203822Y-78113533D01*
X150445110Y-77952309D01*
X150650309Y-77747110D01*
X150776000Y-77559001D01*
X150901691Y-77747110D01*
X151106890Y-77952309D01*
X151348178Y-78113533D01*
X151616283Y-78224586D01*
X151900902Y-78281200D01*
X152191098Y-78281200D01*
X152402373Y-78239175D01*
X153338000Y-79174802D01*
X153361799Y-79203801D01*
X153390797Y-79227599D01*
X153477524Y-79298774D01*
X153609553Y-79369346D01*
X153752814Y-79412803D01*
X153901800Y-79427477D01*
X153939133Y-79423800D01*
X154563098Y-79423800D01*
X154508826Y-79460063D01*
X154364663Y-79604226D01*
X154251395Y-79773744D01*
X154173374Y-79962102D01*
X154133600Y-80162061D01*
X154133600Y-80365939D01*
X154173374Y-80565898D01*
X154251395Y-80754256D01*
X154364663Y-80923774D01*
X154508826Y-81067937D01*
X154678344Y-81181205D01*
X154866702Y-81259226D01*
X155066661Y-81299000D01*
X155270539Y-81299000D01*
X155470498Y-81259226D01*
X155658856Y-81181205D01*
X155828374Y-81067937D01*
X155872311Y-81024000D01*
X160919938Y-81024000D01*
X160957260Y-81027676D01*
X160994582Y-81024000D01*
X160994593Y-81024000D01*
X161106246Y-81013003D01*
X161249507Y-80969546D01*
X161381536Y-80898974D01*
X161497261Y-80804001D01*
X161521064Y-80774997D01*
X161617501Y-80678560D01*
X162566119Y-80678560D01*
X162538588Y-80769318D01*
X162526328Y-80893800D01*
X162526328Y-82593800D01*
X162538588Y-82718282D01*
X162574898Y-82837980D01*
X162633863Y-82948294D01*
X162713215Y-83044985D01*
X162809906Y-83124337D01*
X162920220Y-83183302D01*
X163000866Y-83207766D01*
X162916812Y-83283531D01*
X162742759Y-83516880D01*
X162617575Y-83779701D01*
X162572924Y-83926910D01*
X162694245Y-84156800D01*
X163887400Y-84156800D01*
X163887400Y-84136800D01*
X164141400Y-84136800D01*
X164141400Y-84156800D01*
X165334555Y-84156800D01*
X165455876Y-83926910D01*
X165411225Y-83779701D01*
X165286041Y-83516880D01*
X165111988Y-83283531D01*
X165027934Y-83207766D01*
X165108580Y-83183302D01*
X165218894Y-83124337D01*
X165315585Y-83044985D01*
X165394937Y-82948294D01*
X165453902Y-82837980D01*
X165490212Y-82718282D01*
X165499025Y-82628800D01*
X165939661Y-82628800D01*
X165939660Y-85973311D01*
X165935379Y-86016780D01*
X165939660Y-86060249D01*
X165939660Y-86060256D01*
X165949787Y-86163075D01*
X165952465Y-86190270D01*
X165958898Y-86211477D01*
X166003071Y-86357092D01*
X166085249Y-86510838D01*
X166195843Y-86645597D01*
X166229616Y-86673314D01*
X167719910Y-88163609D01*
X167747623Y-88197377D01*
X167781391Y-88225090D01*
X167781393Y-88225092D01*
X167806330Y-88245557D01*
X167882381Y-88307971D01*
X168036127Y-88390149D01*
X168202950Y-88440755D01*
X168249873Y-88445376D01*
X168250628Y-88453042D01*
X168286938Y-88572740D01*
X168345903Y-88683054D01*
X168425255Y-88779745D01*
X168521946Y-88859097D01*
X168632260Y-88918062D01*
X168751440Y-88954215D01*
X168751441Y-90735600D01*
X167809362Y-91677680D01*
X160280541Y-91677680D01*
X161834423Y-90123800D01*
X162736222Y-90123800D01*
X162860925Y-90310432D01*
X163067768Y-90517275D01*
X163310989Y-90679790D01*
X163581242Y-90791732D01*
X163868140Y-90848800D01*
X164160660Y-90848800D01*
X164447558Y-90791732D01*
X164717811Y-90679790D01*
X164961032Y-90517275D01*
X165167875Y-90310432D01*
X165330390Y-90067211D01*
X165442332Y-89796958D01*
X165499400Y-89510060D01*
X165499400Y-89217540D01*
X165442332Y-88930642D01*
X165330390Y-88660389D01*
X165167875Y-88417168D01*
X164961032Y-88210325D01*
X164786640Y-88093800D01*
X164961032Y-87977275D01*
X165167875Y-87770432D01*
X165330390Y-87527211D01*
X165442332Y-87256958D01*
X165499400Y-86970060D01*
X165499400Y-86677540D01*
X165442332Y-86390642D01*
X165330390Y-86120389D01*
X165167875Y-85877168D01*
X164961032Y-85670325D01*
X164778866Y-85548605D01*
X164895755Y-85478978D01*
X165111988Y-85284069D01*
X165286041Y-85050720D01*
X165411225Y-84787899D01*
X165455876Y-84640690D01*
X165334555Y-84410800D01*
X164141400Y-84410800D01*
X164141400Y-84430800D01*
X163887400Y-84430800D01*
X163887400Y-84410800D01*
X162694245Y-84410800D01*
X162572924Y-84640690D01*
X162617575Y-84787899D01*
X162742759Y-85050720D01*
X162916812Y-85284069D01*
X163133045Y-85478978D01*
X163249934Y-85548605D01*
X163067768Y-85670325D01*
X162860925Y-85877168D01*
X162698410Y-86120389D01*
X162586468Y-86390642D01*
X162529400Y-86677540D01*
X162529400Y-86970060D01*
X162586468Y-87256958D01*
X162698410Y-87527211D01*
X162860925Y-87770432D01*
X163067768Y-87977275D01*
X163242160Y-88093800D01*
X163067768Y-88210325D01*
X162860925Y-88417168D01*
X162736222Y-88603800D01*
X161556942Y-88603800D01*
X161519619Y-88600124D01*
X161482296Y-88603800D01*
X161482287Y-88603800D01*
X161370634Y-88614797D01*
X161227373Y-88658254D01*
X161095344Y-88728826D01*
X161095342Y-88728827D01*
X161095343Y-88728827D01*
X161008616Y-88800001D01*
X161008612Y-88800005D01*
X160979619Y-88823799D01*
X160955825Y-88852792D01*
X159049879Y-90758740D01*
X156962007Y-90758740D01*
X157021177Y-90699570D01*
X156904904Y-90583297D01*
X157148871Y-90511714D01*
X157269771Y-90256204D01*
X157338500Y-89982016D01*
X157352417Y-89699688D01*
X157310987Y-89420070D01*
X157215803Y-89153908D01*
X157148871Y-89028686D01*
X156904902Y-88957103D01*
X156099311Y-89762694D01*
X156102417Y-89699688D01*
X156063792Y-89439003D01*
X156725297Y-88777498D01*
X156653714Y-88533529D01*
X156398204Y-88412629D01*
X156124016Y-88343900D01*
X155841688Y-88329983D01*
X155562070Y-88371413D01*
X155295908Y-88466597D01*
X155280108Y-88475042D01*
X155148204Y-88412629D01*
X154874016Y-88343900D01*
X154591688Y-88329983D01*
X154312070Y-88371413D01*
X154045908Y-88466597D01*
X153920686Y-88533529D01*
X153849103Y-88777498D01*
X154514779Y-89443174D01*
X154485900Y-89558384D01*
X154475794Y-89763399D01*
X153669498Y-88957103D01*
X153425529Y-89028686D01*
X153304629Y-89284196D01*
X153235900Y-89558384D01*
X153221983Y-89840712D01*
X153263413Y-90120330D01*
X153358597Y-90386492D01*
X153425529Y-90511714D01*
X153669496Y-90583297D01*
X153553223Y-90699570D01*
X153612393Y-90758740D01*
X153507282Y-90758740D01*
X152931400Y-90182859D01*
X152931400Y-88316115D01*
X152935076Y-88278792D01*
X152931400Y-88241469D01*
X152931400Y-88241460D01*
X152920403Y-88129807D01*
X152876946Y-87986546D01*
X152806374Y-87854516D01*
X152735199Y-87767790D01*
X152711401Y-87738792D01*
X152682403Y-87714994D01*
X151694521Y-86727113D01*
X151612853Y-86627600D01*
X157541328Y-86627600D01*
X157541328Y-88327600D01*
X157553588Y-88452082D01*
X157589898Y-88571780D01*
X157648863Y-88682094D01*
X157728215Y-88778785D01*
X157824906Y-88858137D01*
X157935220Y-88917102D01*
X158054918Y-88953412D01*
X158179400Y-88965672D01*
X159879400Y-88965672D01*
X160003882Y-88953412D01*
X160123580Y-88917102D01*
X160233894Y-88858137D01*
X160330585Y-88778785D01*
X160409937Y-88682094D01*
X160468902Y-88571780D01*
X160505212Y-88452082D01*
X160517472Y-88327600D01*
X160517472Y-86627600D01*
X160505212Y-86503118D01*
X160468902Y-86383420D01*
X160409937Y-86273106D01*
X160330585Y-86176415D01*
X160233894Y-86097063D01*
X160123580Y-86038098D01*
X160003882Y-86001788D01*
X159879400Y-85989528D01*
X158179400Y-85989528D01*
X158054918Y-86001788D01*
X157935220Y-86038098D01*
X157824906Y-86097063D01*
X157728215Y-86176415D01*
X157648863Y-86273106D01*
X157589898Y-86383420D01*
X157553588Y-86503118D01*
X157541328Y-86627600D01*
X151612853Y-86627600D01*
X151607594Y-86621192D01*
X151501678Y-86534269D01*
X150492414Y-85525005D01*
X150650309Y-85367110D01*
X150776000Y-85179001D01*
X150901691Y-85367110D01*
X151106890Y-85572309D01*
X151348178Y-85733533D01*
X151616283Y-85844586D01*
X151900902Y-85901200D01*
X152191098Y-85901200D01*
X152475717Y-85844586D01*
X152743822Y-85733533D01*
X152985110Y-85572309D01*
X153190309Y-85367110D01*
X153316000Y-85179001D01*
X153441691Y-85367110D01*
X153646890Y-85572309D01*
X153888178Y-85733533D01*
X154156283Y-85844586D01*
X154440902Y-85901200D01*
X154731098Y-85901200D01*
X155015717Y-85844586D01*
X155283822Y-85733533D01*
X155525110Y-85572309D01*
X155730309Y-85367110D01*
X155891533Y-85125822D01*
X156002586Y-84857717D01*
X156059200Y-84573098D01*
X156059200Y-84282902D01*
X156002586Y-83998283D01*
X155891533Y-83730178D01*
X155730309Y-83488890D01*
X155525110Y-83283691D01*
X155283822Y-83122467D01*
X155015717Y-83011414D01*
X154731098Y-82954800D01*
X154440902Y-82954800D01*
X154156283Y-83011414D01*
X153888178Y-83122467D01*
X153646890Y-83283691D01*
X153441691Y-83488890D01*
X153316000Y-83676999D01*
X153190309Y-83488890D01*
X152985110Y-83283691D01*
X152743822Y-83122467D01*
X152475717Y-83011414D01*
X152191098Y-82954800D01*
X151900902Y-82954800D01*
X151616283Y-83011414D01*
X151348178Y-83122467D01*
X151106890Y-83283691D01*
X150901691Y-83488890D01*
X150776000Y-83676999D01*
X150650309Y-83488890D01*
X150445110Y-83283691D01*
X150203822Y-83122467D01*
X149935717Y-83011414D01*
X149651098Y-82954800D01*
X149360902Y-82954800D01*
X149076283Y-83011414D01*
X148808178Y-83122467D01*
X148566890Y-83283691D01*
X148361691Y-83488890D01*
X148236000Y-83676999D01*
X148110309Y-83488890D01*
X147905110Y-83283691D01*
X147663822Y-83122467D01*
X147395717Y-83011414D01*
X147111098Y-82954800D01*
X146820902Y-82954800D01*
X146536283Y-83011414D01*
X146268178Y-83122467D01*
X146026890Y-83283691D01*
X145821691Y-83488890D01*
X145660467Y-83730178D01*
X145549414Y-83998283D01*
X145492800Y-84282902D01*
X145492800Y-84573098D01*
X145549414Y-84857717D01*
X145660467Y-85125822D01*
X145821691Y-85367110D01*
X146026890Y-85572309D01*
X146268178Y-85733533D01*
X146536283Y-85844586D01*
X146820902Y-85901200D01*
X147111098Y-85901200D01*
X147395717Y-85844586D01*
X147663822Y-85733533D01*
X147905110Y-85572309D01*
X148110309Y-85367110D01*
X148236000Y-85179001D01*
X148361691Y-85367110D01*
X148566890Y-85572309D01*
X148750351Y-85694894D01*
X148756998Y-85762378D01*
X148800454Y-85905639D01*
X148871026Y-86037669D01*
X148940900Y-86122810D01*
X148966000Y-86153394D01*
X148994998Y-86177192D01*
X150490000Y-87672195D01*
X150513799Y-87701194D01*
X150542802Y-87724997D01*
X151411401Y-88593596D01*
X151411400Y-90267822D01*
X151090217Y-89946639D01*
X151097200Y-89911535D01*
X151097200Y-89628865D01*
X151042053Y-89351626D01*
X150933880Y-89090473D01*
X150776837Y-88855441D01*
X150576959Y-88655563D01*
X150341927Y-88498520D01*
X150080774Y-88390347D01*
X149803535Y-88335200D01*
X149520865Y-88335200D01*
X149243626Y-88390347D01*
X149037200Y-88475851D01*
X148830774Y-88390347D01*
X148553535Y-88335200D01*
X148270865Y-88335200D01*
X147993626Y-88390347D01*
X147732473Y-88498520D01*
X147497441Y-88655563D01*
X147297563Y-88855441D01*
X147277679Y-88885200D01*
X143371527Y-88885200D01*
X143206558Y-88816868D01*
X142919660Y-88759800D01*
X142627140Y-88759800D01*
X142340242Y-88816868D01*
X142069989Y-88928810D01*
X141826768Y-89091325D01*
X141694913Y-89223180D01*
X141672902Y-89150620D01*
X141613937Y-89040306D01*
X141534585Y-88943615D01*
X141437894Y-88864263D01*
X141327580Y-88805298D01*
X141207882Y-88768988D01*
X141083400Y-88756728D01*
X139383400Y-88756728D01*
X139258918Y-88768988D01*
X139139220Y-88805298D01*
X139028906Y-88864263D01*
X138932215Y-88943615D01*
X138852863Y-89040306D01*
X138793898Y-89150620D01*
X138757588Y-89270318D01*
X138745328Y-89394800D01*
X138745328Y-91094800D01*
X138757588Y-91219282D01*
X138793898Y-91338980D01*
X138852863Y-91449294D01*
X138932215Y-91545985D01*
X139028906Y-91625337D01*
X139139220Y-91684302D01*
X139258918Y-91720612D01*
X139383400Y-91732872D01*
X141083400Y-91732872D01*
X141207882Y-91720612D01*
X141327580Y-91684302D01*
X141437894Y-91625337D01*
X141534585Y-91545985D01*
X141613937Y-91449294D01*
X141672902Y-91338980D01*
X141694913Y-91266420D01*
X141826768Y-91398275D01*
X142069989Y-91560790D01*
X142340242Y-91672732D01*
X142627140Y-91729800D01*
X142919660Y-91729800D01*
X143206558Y-91672732D01*
X143476811Y-91560790D01*
X143720032Y-91398275D01*
X143926875Y-91191432D01*
X144089390Y-90948211D01*
X144201332Y-90677958D01*
X144205859Y-90655200D01*
X147277679Y-90655200D01*
X147297563Y-90684959D01*
X147497441Y-90884837D01*
X147732473Y-91041880D01*
X147993626Y-91150053D01*
X148270865Y-91205200D01*
X148553535Y-91205200D01*
X148830774Y-91150053D01*
X149037200Y-91064549D01*
X149243626Y-91150053D01*
X149520865Y-91205200D01*
X149803535Y-91205200D01*
X149838639Y-91198217D01*
X151798150Y-93157729D01*
X151825863Y-93191497D01*
X151859631Y-93219210D01*
X151859633Y-93219212D01*
X151901657Y-93253700D01*
X151960621Y-93302091D01*
X152031545Y-93340000D01*
X116599578Y-93340000D01*
X120235083Y-89704495D01*
X133041400Y-89704495D01*
X133041400Y-90095505D01*
X133117682Y-90479003D01*
X133267315Y-90840250D01*
X133484549Y-91165364D01*
X133761036Y-91441851D01*
X134086150Y-91659085D01*
X134447397Y-91808718D01*
X134830895Y-91885000D01*
X135221905Y-91885000D01*
X135605403Y-91808718D01*
X135966650Y-91659085D01*
X136291764Y-91441851D01*
X136568251Y-91165364D01*
X136785485Y-90840250D01*
X136935118Y-90479003D01*
X137011400Y-90095505D01*
X137011400Y-89704495D01*
X136935118Y-89320997D01*
X136785485Y-88959750D01*
X136568251Y-88634636D01*
X136291764Y-88358149D01*
X135966650Y-88140915D01*
X135605403Y-87991282D01*
X135221905Y-87915000D01*
X134830895Y-87915000D01*
X134447397Y-87991282D01*
X134086150Y-88140915D01*
X133761036Y-88358149D01*
X133484549Y-88634636D01*
X133267315Y-88959750D01*
X133117682Y-89320997D01*
X133041400Y-89704495D01*
X120235083Y-89704495D01*
X124066179Y-85873400D01*
X137530022Y-85873400D01*
X138309894Y-86653272D01*
X138314590Y-86662059D01*
X138424985Y-86796576D01*
X138419000Y-86826665D01*
X138419000Y-87109335D01*
X138474147Y-87386574D01*
X138582320Y-87647727D01*
X138739363Y-87882759D01*
X138939241Y-88082637D01*
X139174273Y-88239680D01*
X139435426Y-88347853D01*
X139712665Y-88403000D01*
X139995335Y-88403000D01*
X140272574Y-88347853D01*
X140533727Y-88239680D01*
X140768759Y-88082637D01*
X140968637Y-87882759D01*
X140988521Y-87853000D01*
X142275479Y-87853000D01*
X142295363Y-87882759D01*
X142495241Y-88082637D01*
X142730273Y-88239680D01*
X142991426Y-88347853D01*
X143268665Y-88403000D01*
X143551335Y-88403000D01*
X143828574Y-88347853D01*
X144089727Y-88239680D01*
X144324759Y-88082637D01*
X144524637Y-87882759D01*
X144681680Y-87647727D01*
X144789853Y-87386574D01*
X144845000Y-87109335D01*
X144845000Y-86826665D01*
X144789853Y-86549426D01*
X144681680Y-86288273D01*
X144524637Y-86053241D01*
X144324759Y-85853363D01*
X144089727Y-85696320D01*
X143828574Y-85588147D01*
X143551335Y-85533000D01*
X143268665Y-85533000D01*
X142991426Y-85588147D01*
X142730273Y-85696320D01*
X142495241Y-85853363D01*
X142295363Y-86053241D01*
X142275479Y-86083000D01*
X140988521Y-86083000D01*
X140968637Y-86053241D01*
X140768759Y-85853363D01*
X140533727Y-85696320D01*
X140272574Y-85588147D01*
X139995335Y-85533000D01*
X139712665Y-85533000D01*
X139698306Y-85535856D01*
X139682818Y-85516984D01*
X139649050Y-85489271D01*
X138553134Y-84393356D01*
X138525417Y-84359583D01*
X138390659Y-84248989D01*
X138236913Y-84166811D01*
X138070090Y-84116205D01*
X137940077Y-84103400D01*
X137940069Y-84103400D01*
X137896600Y-84099119D01*
X137853131Y-84103400D01*
X137189401Y-84103400D01*
X138473736Y-82819065D01*
X157492800Y-82819065D01*
X157492800Y-83101735D01*
X157547947Y-83378974D01*
X157633451Y-83585400D01*
X157547947Y-83791826D01*
X157492800Y-84069065D01*
X157492800Y-84351735D01*
X157547947Y-84628974D01*
X157656120Y-84890127D01*
X157813163Y-85125159D01*
X158013041Y-85325037D01*
X158248073Y-85482080D01*
X158509226Y-85590253D01*
X158786465Y-85645400D01*
X159069135Y-85645400D01*
X159346374Y-85590253D01*
X159607527Y-85482080D01*
X159842559Y-85325037D01*
X160042437Y-85125159D01*
X160199480Y-84890127D01*
X160307653Y-84628974D01*
X160362800Y-84351735D01*
X160362800Y-84069065D01*
X160307653Y-83791826D01*
X160222149Y-83585400D01*
X160307653Y-83378974D01*
X160362800Y-83101735D01*
X160362800Y-82819065D01*
X160307653Y-82541826D01*
X160199480Y-82280673D01*
X160042437Y-82045641D01*
X159842559Y-81845763D01*
X159607527Y-81688720D01*
X159346374Y-81580547D01*
X159069135Y-81525400D01*
X158786465Y-81525400D01*
X158509226Y-81580547D01*
X158248073Y-81688720D01*
X158013041Y-81845763D01*
X157813163Y-82045641D01*
X157656120Y-82280673D01*
X157547947Y-82541826D01*
X157492800Y-82819065D01*
X138473736Y-82819065D01*
X143086114Y-78206688D01*
X143268665Y-78243000D01*
X143551335Y-78243000D01*
X143828574Y-78187853D01*
X144089727Y-78079680D01*
X144324759Y-77922637D01*
X144419421Y-77827975D01*
X146125630Y-77827975D01*
X146201838Y-78075844D01*
X146463865Y-78200563D01*
X146745189Y-78271768D01*
X147034999Y-78286719D01*
X147322157Y-78244845D01*
X147595628Y-78147754D01*
X147730162Y-78075844D01*
X147806370Y-77827975D01*
X146966000Y-76987605D01*
X146125630Y-77827975D01*
X144419421Y-77827975D01*
X144524637Y-77722759D01*
X144681680Y-77487727D01*
X144789853Y-77226574D01*
X144845000Y-76949335D01*
X144845000Y-76876999D01*
X145487281Y-76876999D01*
X145529155Y-77164157D01*
X145626246Y-77437628D01*
X145698156Y-77572162D01*
X145946025Y-77648370D01*
X146786395Y-76808000D01*
X145946025Y-75967630D01*
X145698156Y-76043838D01*
X145573437Y-76305865D01*
X145502232Y-76587189D01*
X145487281Y-76876999D01*
X144845000Y-76876999D01*
X144845000Y-76666665D01*
X144789853Y-76389426D01*
X144681680Y-76128273D01*
X144524637Y-75893241D01*
X144324759Y-75693363D01*
X144089727Y-75536320D01*
X143904991Y-75459800D01*
X146360161Y-75459800D01*
X146336372Y-75468246D01*
G36*
X186301801Y-93340000D02*
G01*
X168599075Y-93340000D01*
X168669999Y-93302091D01*
X168804757Y-93191497D01*
X168832474Y-93157724D01*
X170231489Y-91758710D01*
X170265257Y-91730997D01*
X170313075Y-91672732D01*
X170375851Y-91596239D01*
X170406660Y-91538598D01*
X170458029Y-91442493D01*
X170508635Y-91275670D01*
X170521440Y-91145657D01*
X170521440Y-91145649D01*
X170525721Y-91102180D01*
X170521440Y-91058711D01*
X170521440Y-89255969D01*
X176266440Y-89255969D01*
X176266440Y-89701151D01*
X176353291Y-90137778D01*
X176523654Y-90549071D01*
X176770984Y-90919226D01*
X177085774Y-91234016D01*
X177455929Y-91481346D01*
X177867222Y-91651709D01*
X178303849Y-91738560D01*
X178749031Y-91738560D01*
X179185658Y-91651709D01*
X179596951Y-91481346D01*
X179967106Y-91234016D01*
X180281896Y-90919226D01*
X180367865Y-90790563D01*
X181967480Y-90790563D01*
X181967480Y-91033837D01*
X182014940Y-91272436D01*
X182108037Y-91497192D01*
X182243193Y-91699467D01*
X182415213Y-91871487D01*
X182617488Y-92006643D01*
X182842244Y-92099740D01*
X183080843Y-92147200D01*
X183324117Y-92147200D01*
X183562716Y-92099740D01*
X183787472Y-92006643D01*
X183989747Y-91871487D01*
X184161767Y-91699467D01*
X184296923Y-91497192D01*
X184390020Y-91272436D01*
X184437480Y-91033837D01*
X184437480Y-90790563D01*
X184390020Y-90551964D01*
X184296923Y-90327208D01*
X184161767Y-90124933D01*
X183989747Y-89952913D01*
X183787472Y-89817757D01*
X183562716Y-89724660D01*
X183324117Y-89677200D01*
X183080843Y-89677200D01*
X182842244Y-89724660D01*
X182617488Y-89817757D01*
X182415213Y-89952913D01*
X182243193Y-90124933D01*
X182108037Y-90327208D01*
X182014940Y-90551964D01*
X181967480Y-90790563D01*
X180367865Y-90790563D01*
X180529226Y-90549071D01*
X180699589Y-90137778D01*
X180786440Y-89701151D01*
X180786440Y-89255969D01*
X180699589Y-88819342D01*
X180684605Y-88783168D01*
X180714220Y-88790383D01*
X180976953Y-88801590D01*
X181236824Y-88761325D01*
X181483846Y-88671135D01*
X181584683Y-88617237D01*
X181644144Y-88383469D01*
X180902480Y-87641805D01*
X180888338Y-87655948D01*
X180708733Y-87476343D01*
X180722875Y-87462200D01*
X181082085Y-87462200D01*
X181823749Y-88203864D01*
X182057517Y-88144403D01*
X182168414Y-87905958D01*
X182230663Y-87650460D01*
X182241870Y-87387727D01*
X182201605Y-87127856D01*
X182111415Y-86880834D01*
X182057517Y-86779997D01*
X181823749Y-86720536D01*
X181082085Y-87462200D01*
X180722875Y-87462200D01*
X179981211Y-86720536D01*
X179747443Y-86779997D01*
X179636546Y-87018442D01*
X179574297Y-87273940D01*
X179566230Y-87463049D01*
X179334047Y-87366875D01*
X179400405Y-87300517D01*
X179283751Y-87183863D01*
X179517517Y-87124403D01*
X179628414Y-86885958D01*
X179690663Y-86630460D01*
X179701870Y-86367727D01*
X179661605Y-86107856D01*
X179571415Y-85860834D01*
X179517517Y-85759997D01*
X179283749Y-85700536D01*
X178542085Y-86442200D01*
X178556228Y-86456343D01*
X178376623Y-86635948D01*
X178362480Y-86621805D01*
X177620816Y-87363469D01*
X177630943Y-87403281D01*
X177455929Y-87475774D01*
X177085774Y-87723104D01*
X176770984Y-88037894D01*
X176523654Y-88408049D01*
X176353291Y-88819342D01*
X176266440Y-89255969D01*
X170521440Y-89255969D01*
X170521440Y-88954215D01*
X170640620Y-88918062D01*
X170750934Y-88859097D01*
X170847625Y-88779745D01*
X170926977Y-88683054D01*
X170985942Y-88572740D01*
X171022095Y-88453560D01*
X171937773Y-88453560D01*
X171981242Y-88457841D01*
X172024711Y-88453560D01*
X172024719Y-88453560D01*
X172154732Y-88440755D01*
X172321555Y-88390149D01*
X172475301Y-88307971D01*
X172610059Y-88197377D01*
X172637776Y-88163604D01*
X172771484Y-88029896D01*
X172805257Y-88002179D01*
X172915851Y-87867421D01*
X172998029Y-87713675D01*
X173048635Y-87546852D01*
X173061440Y-87416839D01*
X173061440Y-87416831D01*
X173064798Y-87382730D01*
X173065701Y-87382127D01*
X173260007Y-87187821D01*
X173412673Y-86959340D01*
X173517831Y-86705467D01*
X173555384Y-86516673D01*
X177023090Y-86516673D01*
X177063355Y-86776544D01*
X177153545Y-87023566D01*
X177207443Y-87124403D01*
X177441211Y-87183864D01*
X178182875Y-86442200D01*
X177441211Y-85700536D01*
X177207443Y-85759997D01*
X177096546Y-85998442D01*
X177034297Y-86253940D01*
X177023090Y-86516673D01*
X173555384Y-86516673D01*
X173571440Y-86435956D01*
X173571440Y-86161164D01*
X173570440Y-86156138D01*
X176479379Y-83247200D01*
X177359505Y-83247200D01*
X177494505Y-83382200D01*
X177325518Y-83551187D01*
X177179419Y-83769841D01*
X177078784Y-84012795D01*
X177027480Y-84270714D01*
X177027480Y-84533686D01*
X177078784Y-84791605D01*
X177179419Y-85034559D01*
X177325518Y-85253213D01*
X177511467Y-85439162D01*
X177622709Y-85513491D01*
X177620816Y-85520931D01*
X178362480Y-86262595D01*
X179104144Y-85520931D01*
X179102251Y-85513491D01*
X179213493Y-85439162D01*
X179399442Y-85253213D01*
X179545541Y-85034559D01*
X179646176Y-84791605D01*
X179697480Y-84533686D01*
X179697480Y-84270714D01*
X179646176Y-84012795D01*
X179545541Y-83769841D01*
X179399442Y-83551187D01*
X179230455Y-83382200D01*
X179365455Y-83247200D01*
X179515902Y-83247200D01*
X179567480Y-83298778D01*
X179567480Y-83513686D01*
X179618784Y-83771605D01*
X179719419Y-84014559D01*
X179865518Y-84233213D01*
X180034505Y-84402200D01*
X179865518Y-84571187D01*
X179719419Y-84789841D01*
X179618784Y-85032795D01*
X179567480Y-85290714D01*
X179567480Y-85553686D01*
X179618784Y-85811605D01*
X179719419Y-86054559D01*
X179865518Y-86273213D01*
X180051467Y-86459162D01*
X180162709Y-86533491D01*
X180160816Y-86540931D01*
X180902480Y-87282595D01*
X181644144Y-86540931D01*
X181642251Y-86533491D01*
X181753493Y-86459162D01*
X181939442Y-86273213D01*
X182085541Y-86054559D01*
X182186176Y-85811605D01*
X182237480Y-85553686D01*
X182237480Y-85290714D01*
X182186176Y-85032795D01*
X182085541Y-84789841D01*
X181939442Y-84571187D01*
X181770455Y-84402200D01*
X181939442Y-84233213D01*
X182085541Y-84014559D01*
X182186176Y-83771605D01*
X182237480Y-83513686D01*
X182237480Y-83250714D01*
X182186176Y-82992795D01*
X182085541Y-82749841D01*
X181939442Y-82531187D01*
X181753493Y-82345238D01*
X181534839Y-82199139D01*
X181291885Y-82098504D01*
X181033966Y-82047200D01*
X180819058Y-82047200D01*
X180539012Y-81767154D01*
X180511297Y-81733383D01*
X180376539Y-81622789D01*
X180222793Y-81540611D01*
X180055970Y-81490005D01*
X179925957Y-81477200D01*
X179925949Y-81477200D01*
X179882480Y-81472919D01*
X179839011Y-81477200D01*
X179365455Y-81477200D01*
X179323053Y-81434798D01*
X179596951Y-81321346D01*
X179967106Y-81074016D01*
X180281896Y-80759226D01*
X180529226Y-80389071D01*
X180699589Y-79977778D01*
X180786440Y-79541151D01*
X180786440Y-79095969D01*
X180725691Y-78790563D01*
X181967480Y-78790563D01*
X181967480Y-79033837D01*
X182014940Y-79272436D01*
X182108037Y-79497192D01*
X182243193Y-79699467D01*
X182415213Y-79871487D01*
X182617488Y-80006643D01*
X182842244Y-80099740D01*
X183080843Y-80147200D01*
X183324117Y-80147200D01*
X183562716Y-80099740D01*
X183787472Y-80006643D01*
X183989747Y-79871487D01*
X184161767Y-79699467D01*
X184296923Y-79497192D01*
X184390020Y-79272436D01*
X184437480Y-79033837D01*
X184437480Y-78790563D01*
X184390020Y-78551964D01*
X184296923Y-78327208D01*
X184161767Y-78124933D01*
X183989747Y-77952913D01*
X183787472Y-77817757D01*
X183562716Y-77724660D01*
X183324117Y-77677200D01*
X183080843Y-77677200D01*
X182842244Y-77724660D01*
X182617488Y-77817757D01*
X182415213Y-77952913D01*
X182243193Y-78124933D01*
X182108037Y-78327208D01*
X182014940Y-78551964D01*
X181967480Y-78790563D01*
X180725691Y-78790563D01*
X180699589Y-78659342D01*
X180529226Y-78248049D01*
X180281896Y-77877894D01*
X179967106Y-77563104D01*
X179596951Y-77315774D01*
X179185658Y-77145411D01*
X178749031Y-77058560D01*
X178303849Y-77058560D01*
X177867222Y-77145411D01*
X177455929Y-77315774D01*
X177085774Y-77563104D01*
X176770984Y-77877894D01*
X176523654Y-78248049D01*
X176353291Y-78659342D01*
X176266440Y-79095969D01*
X176266440Y-79541151D01*
X176353291Y-79977778D01*
X176523654Y-80389071D01*
X176770984Y-80759226D01*
X177085774Y-81074016D01*
X177455929Y-81321346D01*
X177497952Y-81338753D01*
X177359505Y-81477200D01*
X176310244Y-81477200D01*
X176301690Y-81474605D01*
X176128200Y-81457519D01*
X175954710Y-81474605D01*
X175787886Y-81525211D01*
X175634141Y-81607389D01*
X175533153Y-81690268D01*
X175533149Y-81690272D01*
X175499383Y-81717983D01*
X175471672Y-81751749D01*
X173571440Y-83651981D01*
X173571440Y-83621164D01*
X173517831Y-83351653D01*
X173412673Y-83097780D01*
X173260007Y-82869299D01*
X173065701Y-82674993D01*
X172837220Y-82522327D01*
X172760939Y-82490730D01*
X172778766Y-82484304D01*
X172894234Y-82422585D01*
X172960971Y-82182697D01*
X172176440Y-81398165D01*
X171391909Y-82182697D01*
X171458646Y-82422585D01*
X171598147Y-82488160D01*
X171515660Y-82522327D01*
X171287179Y-82674993D01*
X171092873Y-82869299D01*
X170940207Y-83097780D01*
X170835049Y-83351653D01*
X170781440Y-83621164D01*
X170781440Y-83895956D01*
X170835049Y-84165467D01*
X170940207Y-84419340D01*
X171092873Y-84647821D01*
X171287179Y-84842127D01*
X171515660Y-84994793D01*
X171597180Y-85028560D01*
X171515660Y-85062327D01*
X171287179Y-85214993D01*
X171092873Y-85409299D01*
X170940207Y-85637780D01*
X170835049Y-85891653D01*
X170781440Y-86161164D01*
X170781440Y-86303059D01*
X170750934Y-86278023D01*
X170640620Y-86219058D01*
X170520922Y-86182748D01*
X170432973Y-86174086D01*
X170525701Y-86112127D01*
X170720007Y-85917821D01*
X170872673Y-85689340D01*
X170977831Y-85435467D01*
X171031440Y-85165956D01*
X171031440Y-84891164D01*
X170977831Y-84621653D01*
X170872673Y-84367780D01*
X170720007Y-84139299D01*
X170525701Y-83944993D01*
X170297220Y-83792327D01*
X170220939Y-83760730D01*
X170238766Y-83754304D01*
X170354234Y-83692585D01*
X170420971Y-83452697D01*
X169636440Y-82668165D01*
X168851909Y-83452697D01*
X168918646Y-83692585D01*
X169058147Y-83758160D01*
X168975660Y-83792327D01*
X168747179Y-83944993D01*
X168552873Y-84139299D01*
X168466504Y-84268560D01*
X168450800Y-84268560D01*
X168450800Y-83211469D01*
X168672303Y-83273091D01*
X169456835Y-82488560D01*
X169816045Y-82488560D01*
X170600577Y-83273091D01*
X170840465Y-83206354D01*
X170957364Y-82957668D01*
X171023501Y-82690954D01*
X171036335Y-82416463D01*
X170995371Y-82144743D01*
X170902184Y-81886234D01*
X170840465Y-81770766D01*
X170600577Y-81704029D01*
X169816045Y-82488560D01*
X169456835Y-82488560D01*
X168672303Y-81704029D01*
X168450800Y-81765651D01*
X168450800Y-81524423D01*
X168851909Y-81524423D01*
X169636440Y-82308955D01*
X170420971Y-81524423D01*
X170355938Y-81290657D01*
X170776545Y-81290657D01*
X170817509Y-81562377D01*
X170910696Y-81820886D01*
X170972415Y-81936354D01*
X171212303Y-82003091D01*
X171996835Y-81218560D01*
X172356045Y-81218560D01*
X173140577Y-82003091D01*
X173380465Y-81936354D01*
X173497364Y-81687668D01*
X173563501Y-81420954D01*
X173576335Y-81146463D01*
X173535371Y-80874743D01*
X173442184Y-80616234D01*
X173380465Y-80500766D01*
X173140577Y-80434029D01*
X172356045Y-81218560D01*
X171996835Y-81218560D01*
X171212303Y-80434029D01*
X170972415Y-80500766D01*
X170855516Y-80749452D01*
X170789379Y-81016166D01*
X170776545Y-81290657D01*
X170355938Y-81290657D01*
X170354234Y-81284535D01*
X170105548Y-81167636D01*
X169838834Y-81101499D01*
X169564343Y-81088665D01*
X169292623Y-81129629D01*
X169034114Y-81222816D01*
X168918646Y-81284535D01*
X168851909Y-81524423D01*
X168450800Y-81524423D01*
X168450800Y-80254423D01*
X171391909Y-80254423D01*
X172176440Y-81038955D01*
X172960971Y-80254423D01*
X172894234Y-80014535D01*
X172645548Y-79897636D01*
X172378834Y-79831499D01*
X172104343Y-79818665D01*
X171832623Y-79859629D01*
X171574114Y-79952816D01*
X171458646Y-80014535D01*
X171391909Y-80254423D01*
X168450800Y-80254423D01*
X168450800Y-78701133D01*
X168454477Y-78663800D01*
X168439803Y-78514814D01*
X168396346Y-78371553D01*
X168325774Y-78239524D01*
X168230801Y-78123799D01*
X168115076Y-78028826D01*
X167983047Y-77958254D01*
X167839786Y-77914797D01*
X167728133Y-77903800D01*
X167690800Y-77900123D01*
X167653467Y-77903800D01*
X161167305Y-77903800D01*
X161129980Y-77900124D01*
X161092655Y-77903800D01*
X161092647Y-77903800D01*
X160980994Y-77914797D01*
X160837733Y-77958254D01*
X160705704Y-78028826D01*
X160589979Y-78123799D01*
X160566181Y-78152797D01*
X160289652Y-78429327D01*
X160354100Y-78172216D01*
X160368017Y-77889888D01*
X160326587Y-77610270D01*
X160231403Y-77344108D01*
X160222958Y-77328308D01*
X160285371Y-77196404D01*
X160354100Y-76922216D01*
X160368017Y-76639888D01*
X160326587Y-76360270D01*
X160231403Y-76094108D01*
X160164471Y-75968886D01*
X159920502Y-75897303D01*
X159254826Y-76562979D01*
X159139616Y-76534100D01*
X158934601Y-76523994D01*
X159740897Y-75717698D01*
X159669314Y-75473729D01*
X159639876Y-75459800D01*
X186301800Y-75459800D01*
X186301801Y-93340000D01*
G37*
X186301801Y-93340000D02*
X168599075Y-93340000D01*
X168669999Y-93302091D01*
X168804757Y-93191497D01*
X168832474Y-93157724D01*
X170231489Y-91758710D01*
X170265257Y-91730997D01*
X170313075Y-91672732D01*
X170375851Y-91596239D01*
X170406660Y-91538598D01*
X170458029Y-91442493D01*
X170508635Y-91275670D01*
X170521440Y-91145657D01*
X170521440Y-91145649D01*
X170525721Y-91102180D01*
X170521440Y-91058711D01*
X170521440Y-89255969D01*
X176266440Y-89255969D01*
X176266440Y-89701151D01*
X176353291Y-90137778D01*
X176523654Y-90549071D01*
X176770984Y-90919226D01*
X177085774Y-91234016D01*
X177455929Y-91481346D01*
X177867222Y-91651709D01*
X178303849Y-91738560D01*
X178749031Y-91738560D01*
X179185658Y-91651709D01*
X179596951Y-91481346D01*
X179967106Y-91234016D01*
X180281896Y-90919226D01*
X180367865Y-90790563D01*
X181967480Y-90790563D01*
X181967480Y-91033837D01*
X182014940Y-91272436D01*
X182108037Y-91497192D01*
X182243193Y-91699467D01*
X182415213Y-91871487D01*
X182617488Y-92006643D01*
X182842244Y-92099740D01*
X183080843Y-92147200D01*
X183324117Y-92147200D01*
X183562716Y-92099740D01*
X183787472Y-92006643D01*
X183989747Y-91871487D01*
X184161767Y-91699467D01*
X184296923Y-91497192D01*
X184390020Y-91272436D01*
X184437480Y-91033837D01*
X184437480Y-90790563D01*
X184390020Y-90551964D01*
X184296923Y-90327208D01*
X184161767Y-90124933D01*
X183989747Y-89952913D01*
X183787472Y-89817757D01*
X183562716Y-89724660D01*
X183324117Y-89677200D01*
X183080843Y-89677200D01*
X182842244Y-89724660D01*
X182617488Y-89817757D01*
X182415213Y-89952913D01*
X182243193Y-90124933D01*
X182108037Y-90327208D01*
X182014940Y-90551964D01*
X181967480Y-90790563D01*
X180367865Y-90790563D01*
X180529226Y-90549071D01*
X180699589Y-90137778D01*
X180786440Y-89701151D01*
X180786440Y-89255969D01*
X180699589Y-88819342D01*
X180684605Y-88783168D01*
X180714220Y-88790383D01*
X180976953Y-88801590D01*
X181236824Y-88761325D01*
X181483846Y-88671135D01*
X181584683Y-88617237D01*
X181644144Y-88383469D01*
X180902480Y-87641805D01*
X180888338Y-87655948D01*
X180708733Y-87476343D01*
X180722875Y-87462200D01*
X181082085Y-87462200D01*
X181823749Y-88203864D01*
X182057517Y-88144403D01*
X182168414Y-87905958D01*
X182230663Y-87650460D01*
X182241870Y-87387727D01*
X182201605Y-87127856D01*
X182111415Y-86880834D01*
X182057517Y-86779997D01*
X181823749Y-86720536D01*
X181082085Y-87462200D01*
X180722875Y-87462200D01*
X179981211Y-86720536D01*
X179747443Y-86779997D01*
X179636546Y-87018442D01*
X179574297Y-87273940D01*
X179566230Y-87463049D01*
X179334047Y-87366875D01*
X179400405Y-87300517D01*
X179283751Y-87183863D01*
X179517517Y-87124403D01*
X179628414Y-86885958D01*
X179690663Y-86630460D01*
X179701870Y-86367727D01*
X179661605Y-86107856D01*
X179571415Y-85860834D01*
X179517517Y-85759997D01*
X179283749Y-85700536D01*
X178542085Y-86442200D01*
X178556228Y-86456343D01*
X178376623Y-86635948D01*
X178362480Y-86621805D01*
X177620816Y-87363469D01*
X177630943Y-87403281D01*
X177455929Y-87475774D01*
X177085774Y-87723104D01*
X176770984Y-88037894D01*
X176523654Y-88408049D01*
X176353291Y-88819342D01*
X176266440Y-89255969D01*
X170521440Y-89255969D01*
X170521440Y-88954215D01*
X170640620Y-88918062D01*
X170750934Y-88859097D01*
X170847625Y-88779745D01*
X170926977Y-88683054D01*
X170985942Y-88572740D01*
X171022095Y-88453560D01*
X171937773Y-88453560D01*
X171981242Y-88457841D01*
X172024711Y-88453560D01*
X172024719Y-88453560D01*
X172154732Y-88440755D01*
X172321555Y-88390149D01*
X172475301Y-88307971D01*
X172610059Y-88197377D01*
X172637776Y-88163604D01*
X172771484Y-88029896D01*
X172805257Y-88002179D01*
X172915851Y-87867421D01*
X172998029Y-87713675D01*
X173048635Y-87546852D01*
X173061440Y-87416839D01*
X173061440Y-87416831D01*
X173064798Y-87382730D01*
X173065701Y-87382127D01*
X173260007Y-87187821D01*
X173412673Y-86959340D01*
X173517831Y-86705467D01*
X173555384Y-86516673D01*
X177023090Y-86516673D01*
X177063355Y-86776544D01*
X177153545Y-87023566D01*
X177207443Y-87124403D01*
X177441211Y-87183864D01*
X178182875Y-86442200D01*
X177441211Y-85700536D01*
X177207443Y-85759997D01*
X177096546Y-85998442D01*
X177034297Y-86253940D01*
X177023090Y-86516673D01*
X173555384Y-86516673D01*
X173571440Y-86435956D01*
X173571440Y-86161164D01*
X173570440Y-86156138D01*
X176479379Y-83247200D01*
X177359505Y-83247200D01*
X177494505Y-83382200D01*
X177325518Y-83551187D01*
X177179419Y-83769841D01*
X177078784Y-84012795D01*
X177027480Y-84270714D01*
X177027480Y-84533686D01*
X177078784Y-84791605D01*
X177179419Y-85034559D01*
X177325518Y-85253213D01*
X177511467Y-85439162D01*
X177622709Y-85513491D01*
X177620816Y-85520931D01*
X178362480Y-86262595D01*
X179104144Y-85520931D01*
X179102251Y-85513491D01*
X179213493Y-85439162D01*
X179399442Y-85253213D01*
X179545541Y-85034559D01*
X179646176Y-84791605D01*
X179697480Y-84533686D01*
X179697480Y-84270714D01*
X179646176Y-84012795D01*
X179545541Y-83769841D01*
X179399442Y-83551187D01*
X179230455Y-83382200D01*
X179365455Y-83247200D01*
X179515902Y-83247200D01*
X179567480Y-83298778D01*
X179567480Y-83513686D01*
X179618784Y-83771605D01*
X179719419Y-84014559D01*
X179865518Y-84233213D01*
X180034505Y-84402200D01*
X179865518Y-84571187D01*
X179719419Y-84789841D01*
X179618784Y-85032795D01*
X179567480Y-85290714D01*
X179567480Y-85553686D01*
X179618784Y-85811605D01*
X179719419Y-86054559D01*
X179865518Y-86273213D01*
X180051467Y-86459162D01*
X180162709Y-86533491D01*
X180160816Y-86540931D01*
X180902480Y-87282595D01*
X181644144Y-86540931D01*
X181642251Y-86533491D01*
X181753493Y-86459162D01*
X181939442Y-86273213D01*
X182085541Y-86054559D01*
X182186176Y-85811605D01*
X182237480Y-85553686D01*
X182237480Y-85290714D01*
X182186176Y-85032795D01*
X182085541Y-84789841D01*
X181939442Y-84571187D01*
X181770455Y-84402200D01*
X181939442Y-84233213D01*
X182085541Y-84014559D01*
X182186176Y-83771605D01*
X182237480Y-83513686D01*
X182237480Y-83250714D01*
X182186176Y-82992795D01*
X182085541Y-82749841D01*
X181939442Y-82531187D01*
X181753493Y-82345238D01*
X181534839Y-82199139D01*
X181291885Y-82098504D01*
X181033966Y-82047200D01*
X180819058Y-82047200D01*
X180539012Y-81767154D01*
X180511297Y-81733383D01*
X180376539Y-81622789D01*
X180222793Y-81540611D01*
X180055970Y-81490005D01*
X179925957Y-81477200D01*
X179925949Y-81477200D01*
X179882480Y-81472919D01*
X179839011Y-81477200D01*
X179365455Y-81477200D01*
X179323053Y-81434798D01*
X179596951Y-81321346D01*
X179967106Y-81074016D01*
X180281896Y-80759226D01*
X180529226Y-80389071D01*
X180699589Y-79977778D01*
X180786440Y-79541151D01*
X180786440Y-79095969D01*
X180725691Y-78790563D01*
X181967480Y-78790563D01*
X181967480Y-79033837D01*
X182014940Y-79272436D01*
X182108037Y-79497192D01*
X182243193Y-79699467D01*
X182415213Y-79871487D01*
X182617488Y-80006643D01*
X182842244Y-80099740D01*
X183080843Y-80147200D01*
X183324117Y-80147200D01*
X183562716Y-80099740D01*
X183787472Y-80006643D01*
X183989747Y-79871487D01*
X184161767Y-79699467D01*
X184296923Y-79497192D01*
X184390020Y-79272436D01*
X184437480Y-79033837D01*
X184437480Y-78790563D01*
X184390020Y-78551964D01*
X184296923Y-78327208D01*
X184161767Y-78124933D01*
X183989747Y-77952913D01*
X183787472Y-77817757D01*
X183562716Y-77724660D01*
X183324117Y-77677200D01*
X183080843Y-77677200D01*
X182842244Y-77724660D01*
X182617488Y-77817757D01*
X182415213Y-77952913D01*
X182243193Y-78124933D01*
X182108037Y-78327208D01*
X182014940Y-78551964D01*
X181967480Y-78790563D01*
X180725691Y-78790563D01*
X180699589Y-78659342D01*
X180529226Y-78248049D01*
X180281896Y-77877894D01*
X179967106Y-77563104D01*
X179596951Y-77315774D01*
X179185658Y-77145411D01*
X178749031Y-77058560D01*
X178303849Y-77058560D01*
X177867222Y-77145411D01*
X177455929Y-77315774D01*
X177085774Y-77563104D01*
X176770984Y-77877894D01*
X176523654Y-78248049D01*
X176353291Y-78659342D01*
X176266440Y-79095969D01*
X176266440Y-79541151D01*
X176353291Y-79977778D01*
X176523654Y-80389071D01*
X176770984Y-80759226D01*
X177085774Y-81074016D01*
X177455929Y-81321346D01*
X177497952Y-81338753D01*
X177359505Y-81477200D01*
X176310244Y-81477200D01*
X176301690Y-81474605D01*
X176128200Y-81457519D01*
X175954710Y-81474605D01*
X175787886Y-81525211D01*
X175634141Y-81607389D01*
X175533153Y-81690268D01*
X175533149Y-81690272D01*
X175499383Y-81717983D01*
X175471672Y-81751749D01*
X173571440Y-83651981D01*
X173571440Y-83621164D01*
X173517831Y-83351653D01*
X173412673Y-83097780D01*
X173260007Y-82869299D01*
X173065701Y-82674993D01*
X172837220Y-82522327D01*
X172760939Y-82490730D01*
X172778766Y-82484304D01*
X172894234Y-82422585D01*
X172960971Y-82182697D01*
X172176440Y-81398165D01*
X171391909Y-82182697D01*
X171458646Y-82422585D01*
X171598147Y-82488160D01*
X171515660Y-82522327D01*
X171287179Y-82674993D01*
X171092873Y-82869299D01*
X170940207Y-83097780D01*
X170835049Y-83351653D01*
X170781440Y-83621164D01*
X170781440Y-83895956D01*
X170835049Y-84165467D01*
X170940207Y-84419340D01*
X171092873Y-84647821D01*
X171287179Y-84842127D01*
X171515660Y-84994793D01*
X171597180Y-85028560D01*
X171515660Y-85062327D01*
X171287179Y-85214993D01*
X171092873Y-85409299D01*
X170940207Y-85637780D01*
X170835049Y-85891653D01*
X170781440Y-86161164D01*
X170781440Y-86303059D01*
X170750934Y-86278023D01*
X170640620Y-86219058D01*
X170520922Y-86182748D01*
X170432973Y-86174086D01*
X170525701Y-86112127D01*
X170720007Y-85917821D01*
X170872673Y-85689340D01*
X170977831Y-85435467D01*
X171031440Y-85165956D01*
X171031440Y-84891164D01*
X170977831Y-84621653D01*
X170872673Y-84367780D01*
X170720007Y-84139299D01*
X170525701Y-83944993D01*
X170297220Y-83792327D01*
X170220939Y-83760730D01*
X170238766Y-83754304D01*
X170354234Y-83692585D01*
X170420971Y-83452697D01*
X169636440Y-82668165D01*
X168851909Y-83452697D01*
X168918646Y-83692585D01*
X169058147Y-83758160D01*
X168975660Y-83792327D01*
X168747179Y-83944993D01*
X168552873Y-84139299D01*
X168466504Y-84268560D01*
X168450800Y-84268560D01*
X168450800Y-83211469D01*
X168672303Y-83273091D01*
X169456835Y-82488560D01*
X169816045Y-82488560D01*
X170600577Y-83273091D01*
X170840465Y-83206354D01*
X170957364Y-82957668D01*
X171023501Y-82690954D01*
X171036335Y-82416463D01*
X170995371Y-82144743D01*
X170902184Y-81886234D01*
X170840465Y-81770766D01*
X170600577Y-81704029D01*
X169816045Y-82488560D01*
X169456835Y-82488560D01*
X168672303Y-81704029D01*
X168450800Y-81765651D01*
X168450800Y-81524423D01*
X168851909Y-81524423D01*
X169636440Y-82308955D01*
X170420971Y-81524423D01*
X170355938Y-81290657D01*
X170776545Y-81290657D01*
X170817509Y-81562377D01*
X170910696Y-81820886D01*
X170972415Y-81936354D01*
X171212303Y-82003091D01*
X171996835Y-81218560D01*
X172356045Y-81218560D01*
X173140577Y-82003091D01*
X173380465Y-81936354D01*
X173497364Y-81687668D01*
X173563501Y-81420954D01*
X173576335Y-81146463D01*
X173535371Y-80874743D01*
X173442184Y-80616234D01*
X173380465Y-80500766D01*
X173140577Y-80434029D01*
X172356045Y-81218560D01*
X171996835Y-81218560D01*
X171212303Y-80434029D01*
X170972415Y-80500766D01*
X170855516Y-80749452D01*
X170789379Y-81016166D01*
X170776545Y-81290657D01*
X170355938Y-81290657D01*
X170354234Y-81284535D01*
X170105548Y-81167636D01*
X169838834Y-81101499D01*
X169564343Y-81088665D01*
X169292623Y-81129629D01*
X169034114Y-81222816D01*
X168918646Y-81284535D01*
X168851909Y-81524423D01*
X168450800Y-81524423D01*
X168450800Y-80254423D01*
X171391909Y-80254423D01*
X172176440Y-81038955D01*
X172960971Y-80254423D01*
X172894234Y-80014535D01*
X172645548Y-79897636D01*
X172378834Y-79831499D01*
X172104343Y-79818665D01*
X171832623Y-79859629D01*
X171574114Y-79952816D01*
X171458646Y-80014535D01*
X171391909Y-80254423D01*
X168450800Y-80254423D01*
X168450800Y-78701133D01*
X168454477Y-78663800D01*
X168439803Y-78514814D01*
X168396346Y-78371553D01*
X168325774Y-78239524D01*
X168230801Y-78123799D01*
X168115076Y-78028826D01*
X167983047Y-77958254D01*
X167839786Y-77914797D01*
X167728133Y-77903800D01*
X167690800Y-77900123D01*
X167653467Y-77903800D01*
X161167305Y-77903800D01*
X161129980Y-77900124D01*
X161092655Y-77903800D01*
X161092647Y-77903800D01*
X160980994Y-77914797D01*
X160837733Y-77958254D01*
X160705704Y-78028826D01*
X160589979Y-78123799D01*
X160566181Y-78152797D01*
X160289652Y-78429327D01*
X160354100Y-78172216D01*
X160368017Y-77889888D01*
X160326587Y-77610270D01*
X160231403Y-77344108D01*
X160222958Y-77328308D01*
X160285371Y-77196404D01*
X160354100Y-76922216D01*
X160368017Y-76639888D01*
X160326587Y-76360270D01*
X160231403Y-76094108D01*
X160164471Y-75968886D01*
X159920502Y-75897303D01*
X159254826Y-76562979D01*
X159139616Y-76534100D01*
X158934601Y-76523994D01*
X159740897Y-75717698D01*
X159669314Y-75473729D01*
X159639876Y-75459800D01*
X186301800Y-75459800D01*
X186301801Y-93340000D01*
G36*
X77787600Y-81748265D02*
G01*
X77787600Y-82030935D01*
X77842747Y-82308174D01*
X77950920Y-82569327D01*
X78107963Y-82804359D01*
X78307841Y-83004237D01*
X78540359Y-83159600D01*
X78307841Y-83314963D01*
X78107963Y-83514841D01*
X77950920Y-83749873D01*
X77842747Y-84011026D01*
X77787600Y-84288265D01*
X77787600Y-84570935D01*
X77842747Y-84848174D01*
X77950920Y-85109327D01*
X78107963Y-85344359D01*
X78307841Y-85544237D01*
X78540359Y-85699600D01*
X78307841Y-85854963D01*
X78107963Y-86054841D01*
X77950920Y-86289873D01*
X77842747Y-86551026D01*
X77787600Y-86828265D01*
X77787600Y-87110935D01*
X77842747Y-87388174D01*
X77950920Y-87649327D01*
X78107963Y-87884359D01*
X78307841Y-88084237D01*
X78540359Y-88239600D01*
X78307841Y-88394963D01*
X78107963Y-88594841D01*
X77950920Y-88829873D01*
X77842747Y-89091026D01*
X77787600Y-89368265D01*
X77787600Y-89650935D01*
X77842747Y-89928174D01*
X77950920Y-90189327D01*
X78107963Y-90424359D01*
X78307841Y-90624237D01*
X78540359Y-90779600D01*
X78307841Y-90934963D01*
X78107963Y-91134841D01*
X77950920Y-91369873D01*
X77842747Y-91631026D01*
X77787600Y-91908265D01*
X77787600Y-92190935D01*
X77842747Y-92468174D01*
X77903150Y-92614000D01*
X70999470Y-92614000D01*
X71070880Y-92507127D01*
X71179053Y-92245974D01*
X71234200Y-91968735D01*
X71234200Y-91686065D01*
X71179053Y-91408826D01*
X71070880Y-91147673D01*
X70913837Y-90912641D01*
X70713959Y-90712763D01*
X70478927Y-90555720D01*
X70227000Y-90451369D01*
X70227000Y-89904495D01*
X72658000Y-89904495D01*
X72658000Y-90295505D01*
X72734282Y-90679003D01*
X72883915Y-91040250D01*
X73101149Y-91365364D01*
X73377636Y-91641851D01*
X73702750Y-91859085D01*
X74063997Y-92008718D01*
X74447495Y-92085000D01*
X74838505Y-92085000D01*
X75222003Y-92008718D01*
X75583250Y-91859085D01*
X75908364Y-91641851D01*
X76184851Y-91365364D01*
X76402085Y-91040250D01*
X76551718Y-90679003D01*
X76628000Y-90295505D01*
X76628000Y-89904495D01*
X76551718Y-89520997D01*
X76402085Y-89159750D01*
X76184851Y-88834636D01*
X75908364Y-88558149D01*
X75583250Y-88340915D01*
X75222003Y-88191282D01*
X74838505Y-88115000D01*
X74447495Y-88115000D01*
X74063997Y-88191282D01*
X73702750Y-88340915D01*
X73377636Y-88558149D01*
X73101149Y-88834636D01*
X72883915Y-89159750D01*
X72734282Y-89520997D01*
X72658000Y-89904495D01*
X70227000Y-89904495D01*
X70227000Y-86284656D01*
X70288632Y-86243475D01*
X70495475Y-86036632D01*
X70657990Y-85793411D01*
X70769932Y-85523158D01*
X70827000Y-85236260D01*
X70827000Y-84943740D01*
X70769932Y-84656842D01*
X70727582Y-84554600D01*
X74435478Y-84554600D01*
X74472800Y-84558276D01*
X74510122Y-84554600D01*
X74510133Y-84554600D01*
X74621786Y-84543603D01*
X74765047Y-84500146D01*
X74897076Y-84429574D01*
X75012801Y-84334601D01*
X75036604Y-84305597D01*
X77835688Y-81506514D01*
X77787600Y-81748265D01*
G37*
X77787600Y-81748265D02*
X77787600Y-82030935D01*
X77842747Y-82308174D01*
X77950920Y-82569327D01*
X78107963Y-82804359D01*
X78307841Y-83004237D01*
X78540359Y-83159600D01*
X78307841Y-83314963D01*
X78107963Y-83514841D01*
X77950920Y-83749873D01*
X77842747Y-84011026D01*
X77787600Y-84288265D01*
X77787600Y-84570935D01*
X77842747Y-84848174D01*
X77950920Y-85109327D01*
X78107963Y-85344359D01*
X78307841Y-85544237D01*
X78540359Y-85699600D01*
X78307841Y-85854963D01*
X78107963Y-86054841D01*
X77950920Y-86289873D01*
X77842747Y-86551026D01*
X77787600Y-86828265D01*
X77787600Y-87110935D01*
X77842747Y-87388174D01*
X77950920Y-87649327D01*
X78107963Y-87884359D01*
X78307841Y-88084237D01*
X78540359Y-88239600D01*
X78307841Y-88394963D01*
X78107963Y-88594841D01*
X77950920Y-88829873D01*
X77842747Y-89091026D01*
X77787600Y-89368265D01*
X77787600Y-89650935D01*
X77842747Y-89928174D01*
X77950920Y-90189327D01*
X78107963Y-90424359D01*
X78307841Y-90624237D01*
X78540359Y-90779600D01*
X78307841Y-90934963D01*
X78107963Y-91134841D01*
X77950920Y-91369873D01*
X77842747Y-91631026D01*
X77787600Y-91908265D01*
X77787600Y-92190935D01*
X77842747Y-92468174D01*
X77903150Y-92614000D01*
X70999470Y-92614000D01*
X71070880Y-92507127D01*
X71179053Y-92245974D01*
X71234200Y-91968735D01*
X71234200Y-91686065D01*
X71179053Y-91408826D01*
X71070880Y-91147673D01*
X70913837Y-90912641D01*
X70713959Y-90712763D01*
X70478927Y-90555720D01*
X70227000Y-90451369D01*
X70227000Y-89904495D01*
X72658000Y-89904495D01*
X72658000Y-90295505D01*
X72734282Y-90679003D01*
X72883915Y-91040250D01*
X73101149Y-91365364D01*
X73377636Y-91641851D01*
X73702750Y-91859085D01*
X74063997Y-92008718D01*
X74447495Y-92085000D01*
X74838505Y-92085000D01*
X75222003Y-92008718D01*
X75583250Y-91859085D01*
X75908364Y-91641851D01*
X76184851Y-91365364D01*
X76402085Y-91040250D01*
X76551718Y-90679003D01*
X76628000Y-90295505D01*
X76628000Y-89904495D01*
X76551718Y-89520997D01*
X76402085Y-89159750D01*
X76184851Y-88834636D01*
X75908364Y-88558149D01*
X75583250Y-88340915D01*
X75222003Y-88191282D01*
X74838505Y-88115000D01*
X74447495Y-88115000D01*
X74063997Y-88191282D01*
X73702750Y-88340915D01*
X73377636Y-88558149D01*
X73101149Y-88834636D01*
X72883915Y-89159750D01*
X72734282Y-89520997D01*
X72658000Y-89904495D01*
X70227000Y-89904495D01*
X70227000Y-86284656D01*
X70288632Y-86243475D01*
X70495475Y-86036632D01*
X70657990Y-85793411D01*
X70769932Y-85523158D01*
X70827000Y-85236260D01*
X70827000Y-84943740D01*
X70769932Y-84656842D01*
X70727582Y-84554600D01*
X74435478Y-84554600D01*
X74472800Y-84558276D01*
X74510122Y-84554600D01*
X74510133Y-84554600D01*
X74621786Y-84543603D01*
X74765047Y-84500146D01*
X74897076Y-84429574D01*
X75012801Y-84334601D01*
X75036604Y-84305597D01*
X77835688Y-81506514D01*
X77787600Y-81748265D01*
G36*
X114849422Y-92587000D02*
G01*
X113573234Y-92587000D01*
X113622453Y-92468174D01*
X113677600Y-92190935D01*
X113677600Y-91908265D01*
X113622453Y-91631026D01*
X113514280Y-91369873D01*
X113357237Y-91134841D01*
X113157359Y-90934963D01*
X112922327Y-90777920D01*
X112661174Y-90669747D01*
X112383935Y-90614600D01*
X112101265Y-90614600D01*
X111824026Y-90669747D01*
X111562873Y-90777920D01*
X111327841Y-90934963D01*
X111127963Y-91134841D01*
X110971685Y-91368728D01*
X110939271Y-91308086D01*
X110695302Y-91236503D01*
X109882205Y-92049600D01*
X109896348Y-92063743D01*
X109716743Y-92243348D01*
X109702600Y-92229205D01*
X109688458Y-92243348D01*
X109508853Y-92063743D01*
X109522995Y-92049600D01*
X108709898Y-91236503D01*
X108465929Y-91308086D01*
X108435406Y-91372592D01*
X108434280Y-91369873D01*
X108277237Y-91134841D01*
X108077359Y-90934963D01*
X107842327Y-90777920D01*
X107581174Y-90669747D01*
X107303935Y-90614600D01*
X107021265Y-90614600D01*
X106744026Y-90669747D01*
X106482873Y-90777920D01*
X106247841Y-90934963D01*
X106047963Y-91134841D01*
X105892600Y-91367359D01*
X105737237Y-91134841D01*
X105537359Y-90934963D01*
X105302327Y-90777920D01*
X105041174Y-90669747D01*
X104763935Y-90614600D01*
X104481265Y-90614600D01*
X104204026Y-90669747D01*
X103942873Y-90777920D01*
X103707841Y-90934963D01*
X103507963Y-91134841D01*
X103352600Y-91367359D01*
X103197237Y-91134841D01*
X102997359Y-90934963D01*
X102762327Y-90777920D01*
X102501174Y-90669747D01*
X102223935Y-90614600D01*
X101941265Y-90614600D01*
X101664026Y-90669747D01*
X101402873Y-90777920D01*
X101167841Y-90934963D01*
X100967963Y-91134841D01*
X100812600Y-91367359D01*
X100657237Y-91134841D01*
X100457359Y-90934963D01*
X100222327Y-90777920D01*
X99961174Y-90669747D01*
X99683935Y-90614600D01*
X99401265Y-90614600D01*
X99124026Y-90669747D01*
X98862873Y-90777920D01*
X98627841Y-90934963D01*
X98427963Y-91134841D01*
X98272600Y-91367359D01*
X98117237Y-91134841D01*
X97917359Y-90934963D01*
X97682327Y-90777920D01*
X97421174Y-90669747D01*
X97143935Y-90614600D01*
X97130821Y-90614600D01*
X99247802Y-88497620D01*
X108685184Y-88497620D01*
X108587963Y-88594841D01*
X108430920Y-88829873D01*
X108322747Y-89091026D01*
X108267600Y-89368265D01*
X108267600Y-89650935D01*
X108322747Y-89928174D01*
X108430920Y-90189327D01*
X108587963Y-90424359D01*
X108787841Y-90624237D01*
X109021728Y-90780515D01*
X108961086Y-90812929D01*
X108889503Y-91056898D01*
X109702600Y-91869995D01*
X110515697Y-91056898D01*
X110444114Y-90812929D01*
X110379608Y-90782406D01*
X110382327Y-90781280D01*
X110617359Y-90624237D01*
X110817237Y-90424359D01*
X110974280Y-90189327D01*
X111082453Y-89928174D01*
X111137600Y-89650935D01*
X111137600Y-89368265D01*
X111082453Y-89091026D01*
X110974280Y-88829873D01*
X110817237Y-88594841D01*
X110720016Y-88497620D01*
X112275458Y-88497620D01*
X112312780Y-88501296D01*
X112350102Y-88497620D01*
X112350113Y-88497620D01*
X112461766Y-88486623D01*
X112605027Y-88443166D01*
X112737056Y-88372594D01*
X112852781Y-88277621D01*
X112876584Y-88248617D01*
X116392802Y-84732400D01*
X122704021Y-84732400D01*
X114849422Y-92587000D01*
G37*
X114849422Y-92587000D02*
X113573234Y-92587000D01*
X113622453Y-92468174D01*
X113677600Y-92190935D01*
X113677600Y-91908265D01*
X113622453Y-91631026D01*
X113514280Y-91369873D01*
X113357237Y-91134841D01*
X113157359Y-90934963D01*
X112922327Y-90777920D01*
X112661174Y-90669747D01*
X112383935Y-90614600D01*
X112101265Y-90614600D01*
X111824026Y-90669747D01*
X111562873Y-90777920D01*
X111327841Y-90934963D01*
X111127963Y-91134841D01*
X110971685Y-91368728D01*
X110939271Y-91308086D01*
X110695302Y-91236503D01*
X109882205Y-92049600D01*
X109896348Y-92063743D01*
X109716743Y-92243348D01*
X109702600Y-92229205D01*
X109688458Y-92243348D01*
X109508853Y-92063743D01*
X109522995Y-92049600D01*
X108709898Y-91236503D01*
X108465929Y-91308086D01*
X108435406Y-91372592D01*
X108434280Y-91369873D01*
X108277237Y-91134841D01*
X108077359Y-90934963D01*
X107842327Y-90777920D01*
X107581174Y-90669747D01*
X107303935Y-90614600D01*
X107021265Y-90614600D01*
X106744026Y-90669747D01*
X106482873Y-90777920D01*
X106247841Y-90934963D01*
X106047963Y-91134841D01*
X105892600Y-91367359D01*
X105737237Y-91134841D01*
X105537359Y-90934963D01*
X105302327Y-90777920D01*
X105041174Y-90669747D01*
X104763935Y-90614600D01*
X104481265Y-90614600D01*
X104204026Y-90669747D01*
X103942873Y-90777920D01*
X103707841Y-90934963D01*
X103507963Y-91134841D01*
X103352600Y-91367359D01*
X103197237Y-91134841D01*
X102997359Y-90934963D01*
X102762327Y-90777920D01*
X102501174Y-90669747D01*
X102223935Y-90614600D01*
X101941265Y-90614600D01*
X101664026Y-90669747D01*
X101402873Y-90777920D01*
X101167841Y-90934963D01*
X100967963Y-91134841D01*
X100812600Y-91367359D01*
X100657237Y-91134841D01*
X100457359Y-90934963D01*
X100222327Y-90777920D01*
X99961174Y-90669747D01*
X99683935Y-90614600D01*
X99401265Y-90614600D01*
X99124026Y-90669747D01*
X98862873Y-90777920D01*
X98627841Y-90934963D01*
X98427963Y-91134841D01*
X98272600Y-91367359D01*
X98117237Y-91134841D01*
X97917359Y-90934963D01*
X97682327Y-90777920D01*
X97421174Y-90669747D01*
X97143935Y-90614600D01*
X97130821Y-90614600D01*
X99247802Y-88497620D01*
X108685184Y-88497620D01*
X108587963Y-88594841D01*
X108430920Y-88829873D01*
X108322747Y-89091026D01*
X108267600Y-89368265D01*
X108267600Y-89650935D01*
X108322747Y-89928174D01*
X108430920Y-90189327D01*
X108587963Y-90424359D01*
X108787841Y-90624237D01*
X109021728Y-90780515D01*
X108961086Y-90812929D01*
X108889503Y-91056898D01*
X109702600Y-91869995D01*
X110515697Y-91056898D01*
X110444114Y-90812929D01*
X110379608Y-90782406D01*
X110382327Y-90781280D01*
X110617359Y-90624237D01*
X110817237Y-90424359D01*
X110974280Y-90189327D01*
X111082453Y-89928174D01*
X111137600Y-89650935D01*
X111137600Y-89368265D01*
X111082453Y-89091026D01*
X110974280Y-88829873D01*
X110817237Y-88594841D01*
X110720016Y-88497620D01*
X112275458Y-88497620D01*
X112312780Y-88501296D01*
X112350102Y-88497620D01*
X112350113Y-88497620D01*
X112461766Y-88486623D01*
X112605027Y-88443166D01*
X112737056Y-88372594D01*
X112852781Y-88277621D01*
X112876584Y-88248617D01*
X116392802Y-84732400D01*
X122704021Y-84732400D01*
X114849422Y-92587000D01*
G36*
X121317923Y-75463426D02*
G01*
X121270352Y-75502467D01*
X121202199Y-75558399D01*
X121178401Y-75587397D01*
X120214854Y-76550945D01*
X120214465Y-76551265D01*
X120199117Y-76566653D01*
X120183168Y-76581381D01*
X120173102Y-76592697D01*
X120162401Y-76603398D01*
X120162093Y-76603773D01*
X110646121Y-86144500D01*
X97105022Y-86144500D01*
X97067699Y-86140824D01*
X97030376Y-86144500D01*
X97030367Y-86144500D01*
X96918714Y-86155497D01*
X96775453Y-86198954D01*
X96643424Y-86269526D01*
X96527699Y-86364499D01*
X96503901Y-86393497D01*
X92246487Y-90650912D01*
X92063935Y-90614600D01*
X91781265Y-90614600D01*
X91504026Y-90669747D01*
X91242873Y-90777920D01*
X91007841Y-90934963D01*
X90807963Y-91134841D01*
X90652600Y-91367359D01*
X90497237Y-91134841D01*
X90297359Y-90934963D01*
X90062327Y-90777920D01*
X89801174Y-90669747D01*
X89523935Y-90614600D01*
X89241265Y-90614600D01*
X88964026Y-90669747D01*
X88702873Y-90777920D01*
X88467841Y-90934963D01*
X88267963Y-91134841D01*
X88112600Y-91367359D01*
X87957237Y-91134841D01*
X87757359Y-90934963D01*
X87522327Y-90777920D01*
X87261174Y-90669747D01*
X86983935Y-90614600D01*
X86701265Y-90614600D01*
X86424026Y-90669747D01*
X86162873Y-90777920D01*
X85927841Y-90934963D01*
X85727963Y-91134841D01*
X85572600Y-91367359D01*
X85417237Y-91134841D01*
X85217359Y-90934963D01*
X84982327Y-90777920D01*
X84721174Y-90669747D01*
X84443935Y-90614600D01*
X84161265Y-90614600D01*
X83884026Y-90669747D01*
X83622873Y-90777920D01*
X83387841Y-90934963D01*
X83187963Y-91134841D01*
X83032600Y-91367359D01*
X82877237Y-91134841D01*
X82677359Y-90934963D01*
X82442327Y-90777920D01*
X82181174Y-90669747D01*
X81903935Y-90614600D01*
X81621265Y-90614600D01*
X81344026Y-90669747D01*
X81082873Y-90777920D01*
X80847841Y-90934963D01*
X80647963Y-91134841D01*
X80492600Y-91367359D01*
X80337237Y-91134841D01*
X80137359Y-90934963D01*
X79904841Y-90779600D01*
X80137359Y-90624237D01*
X80337237Y-90424359D01*
X80494280Y-90189327D01*
X80602453Y-89928174D01*
X80657600Y-89650935D01*
X80657600Y-89368265D01*
X80602453Y-89091026D01*
X80494280Y-88829873D01*
X80337237Y-88594841D01*
X80137359Y-88394963D01*
X79904841Y-88239600D01*
X80137359Y-88084237D01*
X80337237Y-87884359D01*
X80494280Y-87649327D01*
X80602453Y-87388174D01*
X80657600Y-87110935D01*
X80657600Y-86828265D01*
X80602453Y-86551026D01*
X80494280Y-86289873D01*
X80337237Y-86054841D01*
X80137359Y-85854963D01*
X79904841Y-85699600D01*
X80137359Y-85544237D01*
X80337237Y-85344359D01*
X80494280Y-85109327D01*
X80602453Y-84848174D01*
X80657600Y-84570935D01*
X80657600Y-84288265D01*
X80602453Y-84011026D01*
X80494280Y-83749873D01*
X80337237Y-83514841D01*
X80137359Y-83314963D01*
X79904841Y-83159600D01*
X80137359Y-83004237D01*
X80337237Y-82804359D01*
X80494280Y-82569327D01*
X80602453Y-82308174D01*
X80657600Y-82030935D01*
X80657600Y-81748265D01*
X80602453Y-81471026D01*
X80564583Y-81379600D01*
X85535278Y-81379600D01*
X85572600Y-81383276D01*
X85609922Y-81379600D01*
X85609933Y-81379600D01*
X85721586Y-81368603D01*
X85864847Y-81325146D01*
X85996876Y-81254574D01*
X86112601Y-81159601D01*
X86136404Y-81130597D01*
X89058714Y-78208288D01*
X89241265Y-78244600D01*
X89523935Y-78244600D01*
X89801174Y-78189453D01*
X90062327Y-78081280D01*
X90297359Y-77924237D01*
X90497237Y-77724359D01*
X90652600Y-77491841D01*
X90807963Y-77724359D01*
X91007841Y-77924237D01*
X91242873Y-78081280D01*
X91504026Y-78189453D01*
X91781265Y-78244600D01*
X92063935Y-78244600D01*
X92341174Y-78189453D01*
X92602327Y-78081280D01*
X92837359Y-77924237D01*
X93037237Y-77724359D01*
X93192600Y-77491841D01*
X93347963Y-77724359D01*
X93547841Y-77924237D01*
X93782873Y-78081280D01*
X94044026Y-78189453D01*
X94321265Y-78244600D01*
X94603935Y-78244600D01*
X94881174Y-78189453D01*
X95142327Y-78081280D01*
X95377359Y-77924237D01*
X95577237Y-77724359D01*
X95732600Y-77491841D01*
X95887963Y-77724359D01*
X96087841Y-77924237D01*
X96322873Y-78081280D01*
X96584026Y-78189453D01*
X96861265Y-78244600D01*
X97143935Y-78244600D01*
X97421174Y-78189453D01*
X97682327Y-78081280D01*
X97917359Y-77924237D01*
X98117237Y-77724359D01*
X98272600Y-77491841D01*
X98427963Y-77724359D01*
X98627841Y-77924237D01*
X98862873Y-78081280D01*
X99124026Y-78189453D01*
X99401265Y-78244600D01*
X99683935Y-78244600D01*
X99961174Y-78189453D01*
X100222327Y-78081280D01*
X100457359Y-77924237D01*
X100657237Y-77724359D01*
X100812600Y-77491841D01*
X100967963Y-77724359D01*
X101167841Y-77924237D01*
X101402873Y-78081280D01*
X101664026Y-78189453D01*
X101941265Y-78244600D01*
X102223935Y-78244600D01*
X102501174Y-78189453D01*
X102762327Y-78081280D01*
X102997359Y-77924237D01*
X103197237Y-77724359D01*
X103352600Y-77491841D01*
X103507963Y-77724359D01*
X103707841Y-77924237D01*
X103942873Y-78081280D01*
X104204026Y-78189453D01*
X104481265Y-78244600D01*
X104763935Y-78244600D01*
X105041174Y-78189453D01*
X105302327Y-78081280D01*
X105537359Y-77924237D01*
X105737237Y-77724359D01*
X105892600Y-77491841D01*
X106047963Y-77724359D01*
X106247841Y-77924237D01*
X106482873Y-78081280D01*
X106744026Y-78189453D01*
X107021265Y-78244600D01*
X107303935Y-78244600D01*
X107581174Y-78189453D01*
X107842327Y-78081280D01*
X108077359Y-77924237D01*
X108277237Y-77724359D01*
X108432600Y-77491841D01*
X108587963Y-77724359D01*
X108787841Y-77924237D01*
X109022873Y-78081280D01*
X109284026Y-78189453D01*
X109561265Y-78244600D01*
X109843935Y-78244600D01*
X110121174Y-78189453D01*
X110382327Y-78081280D01*
X110617359Y-77924237D01*
X110815957Y-77725639D01*
X110816788Y-77734082D01*
X110853098Y-77853780D01*
X110912063Y-77964094D01*
X110991415Y-78060785D01*
X111088106Y-78140137D01*
X111198420Y-78199102D01*
X111318118Y-78235412D01*
X111442600Y-78247672D01*
X111956850Y-78244600D01*
X112115600Y-78085850D01*
X112115600Y-76936600D01*
X112369600Y-76936600D01*
X112369600Y-78085850D01*
X112528350Y-78244600D01*
X113042600Y-78247672D01*
X113167082Y-78235412D01*
X113286780Y-78199102D01*
X113397094Y-78140137D01*
X113493785Y-78060785D01*
X113573137Y-77964094D01*
X113632102Y-77853780D01*
X113668412Y-77734082D01*
X113680672Y-77609600D01*
X113677600Y-77095350D01*
X113518850Y-76936600D01*
X112369600Y-76936600D01*
X112115600Y-76936600D01*
X112095600Y-76936600D01*
X112095600Y-76682600D01*
X112115600Y-76682600D01*
X112115600Y-76662600D01*
X112369600Y-76662600D01*
X112369600Y-76682600D01*
X113518850Y-76682600D01*
X113677600Y-76523850D01*
X113680672Y-76009600D01*
X113668412Y-75885118D01*
X113632102Y-75765420D01*
X113573137Y-75655106D01*
X113493785Y-75558415D01*
X113397094Y-75479063D01*
X113361056Y-75459800D01*
X121324707Y-75459800D01*
X121317923Y-75463426D01*
G37*
X121317923Y-75463426D02*
X121270352Y-75502467D01*
X121202199Y-75558399D01*
X121178401Y-75587397D01*
X120214854Y-76550945D01*
X120214465Y-76551265D01*
X120199117Y-76566653D01*
X120183168Y-76581381D01*
X120173102Y-76592697D01*
X120162401Y-76603398D01*
X120162093Y-76603773D01*
X110646121Y-86144500D01*
X97105022Y-86144500D01*
X97067699Y-86140824D01*
X97030376Y-86144500D01*
X97030367Y-86144500D01*
X96918714Y-86155497D01*
X96775453Y-86198954D01*
X96643424Y-86269526D01*
X96527699Y-86364499D01*
X96503901Y-86393497D01*
X92246487Y-90650912D01*
X92063935Y-90614600D01*
X91781265Y-90614600D01*
X91504026Y-90669747D01*
X91242873Y-90777920D01*
X91007841Y-90934963D01*
X90807963Y-91134841D01*
X90652600Y-91367359D01*
X90497237Y-91134841D01*
X90297359Y-90934963D01*
X90062327Y-90777920D01*
X89801174Y-90669747D01*
X89523935Y-90614600D01*
X89241265Y-90614600D01*
X88964026Y-90669747D01*
X88702873Y-90777920D01*
X88467841Y-90934963D01*
X88267963Y-91134841D01*
X88112600Y-91367359D01*
X87957237Y-91134841D01*
X87757359Y-90934963D01*
X87522327Y-90777920D01*
X87261174Y-90669747D01*
X86983935Y-90614600D01*
X86701265Y-90614600D01*
X86424026Y-90669747D01*
X86162873Y-90777920D01*
X85927841Y-90934963D01*
X85727963Y-91134841D01*
X85572600Y-91367359D01*
X85417237Y-91134841D01*
X85217359Y-90934963D01*
X84982327Y-90777920D01*
X84721174Y-90669747D01*
X84443935Y-90614600D01*
X84161265Y-90614600D01*
X83884026Y-90669747D01*
X83622873Y-90777920D01*
X83387841Y-90934963D01*
X83187963Y-91134841D01*
X83032600Y-91367359D01*
X82877237Y-91134841D01*
X82677359Y-90934963D01*
X82442327Y-90777920D01*
X82181174Y-90669747D01*
X81903935Y-90614600D01*
X81621265Y-90614600D01*
X81344026Y-90669747D01*
X81082873Y-90777920D01*
X80847841Y-90934963D01*
X80647963Y-91134841D01*
X80492600Y-91367359D01*
X80337237Y-91134841D01*
X80137359Y-90934963D01*
X79904841Y-90779600D01*
X80137359Y-90624237D01*
X80337237Y-90424359D01*
X80494280Y-90189327D01*
X80602453Y-89928174D01*
X80657600Y-89650935D01*
X80657600Y-89368265D01*
X80602453Y-89091026D01*
X80494280Y-88829873D01*
X80337237Y-88594841D01*
X80137359Y-88394963D01*
X79904841Y-88239600D01*
X80137359Y-88084237D01*
X80337237Y-87884359D01*
X80494280Y-87649327D01*
X80602453Y-87388174D01*
X80657600Y-87110935D01*
X80657600Y-86828265D01*
X80602453Y-86551026D01*
X80494280Y-86289873D01*
X80337237Y-86054841D01*
X80137359Y-85854963D01*
X79904841Y-85699600D01*
X80137359Y-85544237D01*
X80337237Y-85344359D01*
X80494280Y-85109327D01*
X80602453Y-84848174D01*
X80657600Y-84570935D01*
X80657600Y-84288265D01*
X80602453Y-84011026D01*
X80494280Y-83749873D01*
X80337237Y-83514841D01*
X80137359Y-83314963D01*
X79904841Y-83159600D01*
X80137359Y-83004237D01*
X80337237Y-82804359D01*
X80494280Y-82569327D01*
X80602453Y-82308174D01*
X80657600Y-82030935D01*
X80657600Y-81748265D01*
X80602453Y-81471026D01*
X80564583Y-81379600D01*
X85535278Y-81379600D01*
X85572600Y-81383276D01*
X85609922Y-81379600D01*
X85609933Y-81379600D01*
X85721586Y-81368603D01*
X85864847Y-81325146D01*
X85996876Y-81254574D01*
X86112601Y-81159601D01*
X86136404Y-81130597D01*
X89058714Y-78208288D01*
X89241265Y-78244600D01*
X89523935Y-78244600D01*
X89801174Y-78189453D01*
X90062327Y-78081280D01*
X90297359Y-77924237D01*
X90497237Y-77724359D01*
X90652600Y-77491841D01*
X90807963Y-77724359D01*
X91007841Y-77924237D01*
X91242873Y-78081280D01*
X91504026Y-78189453D01*
X91781265Y-78244600D01*
X92063935Y-78244600D01*
X92341174Y-78189453D01*
X92602327Y-78081280D01*
X92837359Y-77924237D01*
X93037237Y-77724359D01*
X93192600Y-77491841D01*
X93347963Y-77724359D01*
X93547841Y-77924237D01*
X93782873Y-78081280D01*
X94044026Y-78189453D01*
X94321265Y-78244600D01*
X94603935Y-78244600D01*
X94881174Y-78189453D01*
X95142327Y-78081280D01*
X95377359Y-77924237D01*
X95577237Y-77724359D01*
X95732600Y-77491841D01*
X95887963Y-77724359D01*
X96087841Y-77924237D01*
X96322873Y-78081280D01*
X96584026Y-78189453D01*
X96861265Y-78244600D01*
X97143935Y-78244600D01*
X97421174Y-78189453D01*
X97682327Y-78081280D01*
X97917359Y-77924237D01*
X98117237Y-77724359D01*
X98272600Y-77491841D01*
X98427963Y-77724359D01*
X98627841Y-77924237D01*
X98862873Y-78081280D01*
X99124026Y-78189453D01*
X99401265Y-78244600D01*
X99683935Y-78244600D01*
X99961174Y-78189453D01*
X100222327Y-78081280D01*
X100457359Y-77924237D01*
X100657237Y-77724359D01*
X100812600Y-77491841D01*
X100967963Y-77724359D01*
X101167841Y-77924237D01*
X101402873Y-78081280D01*
X101664026Y-78189453D01*
X101941265Y-78244600D01*
X102223935Y-78244600D01*
X102501174Y-78189453D01*
X102762327Y-78081280D01*
X102997359Y-77924237D01*
X103197237Y-77724359D01*
X103352600Y-77491841D01*
X103507963Y-77724359D01*
X103707841Y-77924237D01*
X103942873Y-78081280D01*
X104204026Y-78189453D01*
X104481265Y-78244600D01*
X104763935Y-78244600D01*
X105041174Y-78189453D01*
X105302327Y-78081280D01*
X105537359Y-77924237D01*
X105737237Y-77724359D01*
X105892600Y-77491841D01*
X106047963Y-77724359D01*
X106247841Y-77924237D01*
X106482873Y-78081280D01*
X106744026Y-78189453D01*
X107021265Y-78244600D01*
X107303935Y-78244600D01*
X107581174Y-78189453D01*
X107842327Y-78081280D01*
X108077359Y-77924237D01*
X108277237Y-77724359D01*
X108432600Y-77491841D01*
X108587963Y-77724359D01*
X108787841Y-77924237D01*
X109022873Y-78081280D01*
X109284026Y-78189453D01*
X109561265Y-78244600D01*
X109843935Y-78244600D01*
X110121174Y-78189453D01*
X110382327Y-78081280D01*
X110617359Y-77924237D01*
X110815957Y-77725639D01*
X110816788Y-77734082D01*
X110853098Y-77853780D01*
X110912063Y-77964094D01*
X110991415Y-78060785D01*
X111088106Y-78140137D01*
X111198420Y-78199102D01*
X111318118Y-78235412D01*
X111442600Y-78247672D01*
X111956850Y-78244600D01*
X112115600Y-78085850D01*
X112115600Y-76936600D01*
X112369600Y-76936600D01*
X112369600Y-78085850D01*
X112528350Y-78244600D01*
X113042600Y-78247672D01*
X113167082Y-78235412D01*
X113286780Y-78199102D01*
X113397094Y-78140137D01*
X113493785Y-78060785D01*
X113573137Y-77964094D01*
X113632102Y-77853780D01*
X113668412Y-77734082D01*
X113680672Y-77609600D01*
X113677600Y-77095350D01*
X113518850Y-76936600D01*
X112369600Y-76936600D01*
X112115600Y-76936600D01*
X112095600Y-76936600D01*
X112095600Y-76682600D01*
X112115600Y-76682600D01*
X112115600Y-76662600D01*
X112369600Y-76662600D01*
X112369600Y-76682600D01*
X113518850Y-76682600D01*
X113677600Y-76523850D01*
X113680672Y-76009600D01*
X113668412Y-75885118D01*
X113632102Y-75765420D01*
X113573137Y-75655106D01*
X113493785Y-75558415D01*
X113397094Y-75479063D01*
X113361056Y-75459800D01*
X121324707Y-75459800D01*
X121317923Y-75463426D01*
G36*
X142730273Y-75536320D02*
G01*
X142495241Y-75693363D01*
X142295363Y-75893241D01*
X142138320Y-76128273D01*
X142030147Y-76389426D01*
X141975000Y-76666665D01*
X141975000Y-76949335D01*
X142011312Y-77131886D01*
X135930799Y-83212400D01*
X116115322Y-83212400D01*
X116077999Y-83208724D01*
X116040676Y-83212400D01*
X116040667Y-83212400D01*
X115929014Y-83223397D01*
X115785753Y-83266854D01*
X115653724Y-83337426D01*
X115537999Y-83432399D01*
X115514201Y-83461397D01*
X111997979Y-86977620D01*
X111961978Y-86977620D01*
X119765205Y-79154095D01*
X133041400Y-79154095D01*
X133041400Y-79545105D01*
X133117682Y-79928603D01*
X133267315Y-80289850D01*
X133484549Y-80614964D01*
X133761036Y-80891451D01*
X134086150Y-81108685D01*
X134447397Y-81258318D01*
X134830895Y-81334600D01*
X135221905Y-81334600D01*
X135605403Y-81258318D01*
X135966650Y-81108685D01*
X136291764Y-80891451D01*
X136568251Y-80614964D01*
X136785485Y-80289850D01*
X136935118Y-79928603D01*
X137011400Y-79545105D01*
X137011400Y-79154095D01*
X136935118Y-78770597D01*
X136785485Y-78409350D01*
X136568251Y-78084236D01*
X136291764Y-77807749D01*
X135966650Y-77590515D01*
X135605403Y-77440882D01*
X135221905Y-77364600D01*
X134830895Y-77364600D01*
X134447397Y-77440882D01*
X134086150Y-77590515D01*
X133761036Y-77807749D01*
X133484549Y-78084236D01*
X133267315Y-78409350D01*
X133117682Y-78770597D01*
X133041400Y-79154095D01*
X119765205Y-79154095D01*
X121253282Y-77662148D01*
X121601032Y-77341019D01*
X121675599Y-77257191D01*
X121700294Y-77215108D01*
X122057002Y-76858400D01*
X137698229Y-76858400D01*
X138158831Y-77319002D01*
X138182629Y-77348001D01*
X138211627Y-77371799D01*
X138298353Y-77442974D01*
X138385073Y-77489327D01*
X138430383Y-77513546D01*
X138573644Y-77557003D01*
X138632481Y-77562798D01*
X138739363Y-77722759D01*
X138939241Y-77922637D01*
X139174273Y-78079680D01*
X139435426Y-78187853D01*
X139712665Y-78243000D01*
X139995335Y-78243000D01*
X140272574Y-78187853D01*
X140533727Y-78079680D01*
X140768759Y-77922637D01*
X140968637Y-77722759D01*
X141125680Y-77487727D01*
X141233853Y-77226574D01*
X141289000Y-76949335D01*
X141289000Y-76666665D01*
X141233853Y-76389426D01*
X141125680Y-76128273D01*
X140968637Y-75893241D01*
X140768759Y-75693363D01*
X140533727Y-75536320D01*
X140348991Y-75459800D01*
X142915009Y-75459800D01*
X142730273Y-75536320D01*
G37*
X142730273Y-75536320D02*
X142495241Y-75693363D01*
X142295363Y-75893241D01*
X142138320Y-76128273D01*
X142030147Y-76389426D01*
X141975000Y-76666665D01*
X141975000Y-76949335D01*
X142011312Y-77131886D01*
X135930799Y-83212400D01*
X116115322Y-83212400D01*
X116077999Y-83208724D01*
X116040676Y-83212400D01*
X116040667Y-83212400D01*
X115929014Y-83223397D01*
X115785753Y-83266854D01*
X115653724Y-83337426D01*
X115537999Y-83432399D01*
X115514201Y-83461397D01*
X111997979Y-86977620D01*
X111961978Y-86977620D01*
X119765205Y-79154095D01*
X133041400Y-79154095D01*
X133041400Y-79545105D01*
X133117682Y-79928603D01*
X133267315Y-80289850D01*
X133484549Y-80614964D01*
X133761036Y-80891451D01*
X134086150Y-81108685D01*
X134447397Y-81258318D01*
X134830895Y-81334600D01*
X135221905Y-81334600D01*
X135605403Y-81258318D01*
X135966650Y-81108685D01*
X136291764Y-80891451D01*
X136568251Y-80614964D01*
X136785485Y-80289850D01*
X136935118Y-79928603D01*
X137011400Y-79545105D01*
X137011400Y-79154095D01*
X136935118Y-78770597D01*
X136785485Y-78409350D01*
X136568251Y-78084236D01*
X136291764Y-77807749D01*
X135966650Y-77590515D01*
X135605403Y-77440882D01*
X135221905Y-77364600D01*
X134830895Y-77364600D01*
X134447397Y-77440882D01*
X134086150Y-77590515D01*
X133761036Y-77807749D01*
X133484549Y-78084236D01*
X133267315Y-78409350D01*
X133117682Y-78770597D01*
X133041400Y-79154095D01*
X119765205Y-79154095D01*
X121253282Y-77662148D01*
X121601032Y-77341019D01*
X121675599Y-77257191D01*
X121700294Y-77215108D01*
X122057002Y-76858400D01*
X137698229Y-76858400D01*
X138158831Y-77319002D01*
X138182629Y-77348001D01*
X138211627Y-77371799D01*
X138298353Y-77442974D01*
X138385073Y-77489327D01*
X138430383Y-77513546D01*
X138573644Y-77557003D01*
X138632481Y-77562798D01*
X138739363Y-77722759D01*
X138939241Y-77922637D01*
X139174273Y-78079680D01*
X139435426Y-78187853D01*
X139712665Y-78243000D01*
X139995335Y-78243000D01*
X140272574Y-78187853D01*
X140533727Y-78079680D01*
X140768759Y-77922637D01*
X140968637Y-77722759D01*
X141125680Y-77487727D01*
X141233853Y-77226574D01*
X141289000Y-76949335D01*
X141289000Y-76666665D01*
X141233853Y-76389426D01*
X141125680Y-76128273D01*
X140968637Y-75893241D01*
X140768759Y-75693363D01*
X140533727Y-75536320D01*
X140348991Y-75459800D01*
X142915009Y-75459800D01*
X142730273Y-75536320D01*
G36*
X85727963Y-77724359D02*
G01*
X85927841Y-77924237D01*
X86162873Y-78081280D01*
X86424026Y-78189453D01*
X86701265Y-78244600D01*
X86872799Y-78244600D01*
X85257799Y-79859600D01*
X80564583Y-79859600D01*
X80602453Y-79768174D01*
X80657600Y-79490935D01*
X80657600Y-79208265D01*
X80602453Y-78931026D01*
X80494280Y-78669873D01*
X80337237Y-78434841D01*
X80137359Y-78234963D01*
X79904841Y-78079600D01*
X80137359Y-77924237D01*
X80337237Y-77724359D01*
X80492600Y-77491841D01*
X80647963Y-77724359D01*
X80847841Y-77924237D01*
X81082873Y-78081280D01*
X81344026Y-78189453D01*
X81621265Y-78244600D01*
X81903935Y-78244600D01*
X82181174Y-78189453D01*
X82442327Y-78081280D01*
X82677359Y-77924237D01*
X82877237Y-77724359D01*
X83032600Y-77491841D01*
X83187963Y-77724359D01*
X83387841Y-77924237D01*
X83622873Y-78081280D01*
X83884026Y-78189453D01*
X84161265Y-78244600D01*
X84443935Y-78244600D01*
X84721174Y-78189453D01*
X84982327Y-78081280D01*
X85217359Y-77924237D01*
X85417237Y-77724359D01*
X85572600Y-77491841D01*
X85727963Y-77724359D01*
G37*
X85727963Y-77724359D02*
X85927841Y-77924237D01*
X86162873Y-78081280D01*
X86424026Y-78189453D01*
X86701265Y-78244600D01*
X86872799Y-78244600D01*
X85257799Y-79859600D01*
X80564583Y-79859600D01*
X80602453Y-79768174D01*
X80657600Y-79490935D01*
X80657600Y-79208265D01*
X80602453Y-78931026D01*
X80494280Y-78669873D01*
X80337237Y-78434841D01*
X80137359Y-78234963D01*
X79904841Y-78079600D01*
X80137359Y-77924237D01*
X80337237Y-77724359D01*
X80492600Y-77491841D01*
X80647963Y-77724359D01*
X80847841Y-77924237D01*
X81082873Y-78081280D01*
X81344026Y-78189453D01*
X81621265Y-78244600D01*
X81903935Y-78244600D01*
X82181174Y-78189453D01*
X82442327Y-78081280D01*
X82677359Y-77924237D01*
X82877237Y-77724359D01*
X83032600Y-77491841D01*
X83187963Y-77724359D01*
X83387841Y-77924237D01*
X83622873Y-78081280D01*
X83884026Y-78189453D01*
X84161265Y-78244600D01*
X84443935Y-78244600D01*
X84721174Y-78189453D01*
X84982327Y-78081280D01*
X85217359Y-77924237D01*
X85417237Y-77724359D01*
X85572600Y-77491841D01*
X85727963Y-77724359D01*
M02*
