G04 #@! TF.GenerationSoftware,KiCad,Pcbnew,(5.1.4)-1*
G04 #@! TF.CreationDate,2019-11-19T17:41:37+01:00*
G04 #@! TF.ProjectId,DNMS,444e4d53-2e6b-4696-9361-645f70636258,0.9.0*
G04 #@! TF.SameCoordinates,Original*
G04 #@! TF.FileFunction,Copper,L2,Bot*
G04 #@! TF.FilePolarity,Positive*
%FSLAX46Y46*%
G04 Gerber Fmt 4.6, Leading zero omitted, Abs format (unit mm)*
G04 Created by KiCad (PCBNEW (5.1.4)-1) date 2019-11-19 17:41:37*
%MOMM*%
%LPD*%
G04 APERTURE LIST*
%ADD10O,1.700000X1.700000*%
%ADD11R,1.700000X1.700000*%
%ADD12C,1.530000*%
%ADD13C,1.524000*%
%ADD14O,1.100000X1.700000*%
%ADD15C,0.100000*%
%ADD16C,1.100000*%
%ADD17C,1.600000*%
%ADD18C,1.700000*%
%ADD19C,1.740000*%
%ADD20O,1.600000X1.600000*%
%ADD21C,0.500000*%
%ADD22C,0.250000*%
G04 APERTURE END LIST*
D10*
X58805600Y-79870300D03*
X56265600Y-79870300D03*
X58805600Y-77330300D03*
X56265600Y-77330300D03*
X58805600Y-74790300D03*
D11*
X56265600Y-74790300D03*
D12*
X126302800Y-66192400D03*
X123762800Y-66192400D03*
X121222800Y-66192400D03*
X118682800Y-66192400D03*
X116142800Y-66192400D03*
X113602800Y-66192400D03*
X111062800Y-66192400D03*
X108522800Y-66192400D03*
X105982800Y-66192400D03*
X103442800Y-66192400D03*
X100902800Y-66192400D03*
X98362800Y-66192400D03*
X95822800Y-66192400D03*
X93282800Y-66192400D03*
X90742800Y-66192400D03*
X88202800Y-66192400D03*
X93282800Y-81432400D03*
X95822800Y-81432400D03*
X98362800Y-81432400D03*
X100902800Y-81432400D03*
X103442800Y-81432400D03*
X105982800Y-81432400D03*
X108522800Y-81432400D03*
X111062800Y-81432400D03*
X113602800Y-81432400D03*
X116142800Y-81432400D03*
X118682800Y-81432400D03*
X121222800Y-81432400D03*
X123762800Y-81432400D03*
X126302800Y-81432400D03*
X85662800Y-66192400D03*
X83122800Y-66192400D03*
X80582800Y-66192400D03*
X78042800Y-66192400D03*
X75502800Y-66192400D03*
X72962800Y-66192400D03*
X70422800Y-66192400D03*
X67882800Y-66192400D03*
X90742800Y-81432400D03*
X88202800Y-81432400D03*
X85662800Y-81432400D03*
X67882800Y-81432400D03*
X70422800Y-81432400D03*
X72962800Y-81432400D03*
X75502800Y-81432400D03*
X78042800Y-81432400D03*
X80582800Y-81432400D03*
X83122800Y-81432400D03*
D13*
X123762800Y-78892400D03*
D14*
X111276880Y-60990480D03*
X112776880Y-60990480D03*
X114276880Y-60990480D03*
X115776880Y-60990480D03*
D15*
G36*
X117681029Y-60141259D02*
G01*
X117696726Y-60143587D01*
X117712119Y-60147443D01*
X117727060Y-60152789D01*
X117741405Y-60159573D01*
X117755016Y-60167731D01*
X117767761Y-60177184D01*
X117779519Y-60187841D01*
X117790176Y-60199599D01*
X117799629Y-60212344D01*
X117807787Y-60225955D01*
X117814571Y-60240300D01*
X117819917Y-60255241D01*
X117823773Y-60270634D01*
X117826101Y-60286331D01*
X117826880Y-60302180D01*
X117826880Y-61678780D01*
X117826101Y-61694629D01*
X117823773Y-61710326D01*
X117819917Y-61725719D01*
X117814571Y-61740660D01*
X117807787Y-61755005D01*
X117799629Y-61768616D01*
X117790176Y-61781361D01*
X117779519Y-61793119D01*
X117767761Y-61803776D01*
X117755016Y-61813229D01*
X117741405Y-61821387D01*
X117727060Y-61828171D01*
X117712119Y-61833517D01*
X117696726Y-61837373D01*
X117681029Y-61839701D01*
X117665180Y-61840480D01*
X116888580Y-61840480D01*
X116872731Y-61839701D01*
X116857034Y-61837373D01*
X116841641Y-61833517D01*
X116826700Y-61828171D01*
X116812355Y-61821387D01*
X116798744Y-61813229D01*
X116785999Y-61803776D01*
X116774241Y-61793119D01*
X116763584Y-61781361D01*
X116754131Y-61768616D01*
X116745973Y-61755005D01*
X116739189Y-61740660D01*
X116733843Y-61725719D01*
X116729987Y-61710326D01*
X116727659Y-61694629D01*
X116726880Y-61678780D01*
X116726880Y-60302180D01*
X116727659Y-60286331D01*
X116729987Y-60270634D01*
X116733843Y-60255241D01*
X116739189Y-60240300D01*
X116745973Y-60225955D01*
X116754131Y-60212344D01*
X116763584Y-60199599D01*
X116774241Y-60187841D01*
X116785999Y-60177184D01*
X116798744Y-60167731D01*
X116812355Y-60159573D01*
X116826700Y-60152789D01*
X116841641Y-60147443D01*
X116857034Y-60143587D01*
X116872731Y-60141259D01*
X116888580Y-60140480D01*
X117665180Y-60140480D01*
X117681029Y-60141259D01*
X117681029Y-60141259D01*
G37*
D16*
X117276880Y-60990480D03*
D17*
X131398020Y-88823800D03*
X126398020Y-88823800D03*
X129805440Y-62476380D03*
X124805440Y-62476380D03*
X55131480Y-68351400D03*
X60131480Y-68351400D03*
D18*
X149143720Y-87723980D03*
X151683720Y-87723980D03*
X154223720Y-87723980D03*
D19*
X156763720Y-87723980D03*
D18*
X159303720Y-87723980D03*
X161843720Y-87723980D03*
X164383720Y-87723980D03*
X166923720Y-87723980D03*
X169463720Y-87723980D03*
X172003720Y-87723980D03*
X174543720Y-87723980D03*
X177083720Y-87723980D03*
X179623720Y-87723980D03*
X182163720Y-87723980D03*
X184703720Y-87723980D03*
X184703720Y-59783980D03*
X182163720Y-59783980D03*
X179623720Y-59783980D03*
X177083720Y-59783980D03*
X174543720Y-59783980D03*
X172003720Y-59783980D03*
X169463720Y-59783980D03*
X166923720Y-59783980D03*
X164383720Y-59783980D03*
X161843720Y-59783980D03*
X159303720Y-59783980D03*
X156763720Y-59783980D03*
X154223720Y-59783980D03*
X151683720Y-59783980D03*
X149143720Y-59783980D03*
X151648160Y-85163660D03*
X156728160Y-85163660D03*
X154188160Y-85163660D03*
X174508160Y-85163660D03*
X171968160Y-85163660D03*
X166888160Y-85163660D03*
X169428160Y-85163660D03*
X184668160Y-85163660D03*
X164348160Y-85163660D03*
X159268160Y-85163660D03*
X161808160Y-85163660D03*
X177048160Y-85163660D03*
X182128160Y-85163660D03*
X179588160Y-85163660D03*
X149108160Y-85163660D03*
X184668160Y-62303660D03*
X182128160Y-62303660D03*
X179588160Y-62303660D03*
X177048160Y-62303660D03*
X174508160Y-62303660D03*
X171968160Y-62303660D03*
X169428160Y-62303660D03*
X166888160Y-62303660D03*
X164348160Y-62303660D03*
X161808160Y-62303660D03*
X159268160Y-62303660D03*
X156728160Y-62303660D03*
X154188160Y-62303660D03*
X151648160Y-62303660D03*
X149108160Y-62303660D03*
D20*
X133918960Y-85107780D03*
D17*
X123758960Y-85107780D03*
D20*
X136982200Y-76835000D03*
D17*
X136982200Y-86995000D03*
D10*
X132410200Y-57820560D03*
X129870200Y-57820560D03*
X127330200Y-57820560D03*
D11*
X124790200Y-57820560D03*
D10*
X115900200Y-88620600D03*
D11*
X118440200Y-88620600D03*
D21*
X172003720Y-62268100D02*
X171968160Y-62303660D01*
X172003720Y-59783980D02*
X172003720Y-62268100D01*
X182163720Y-62268100D02*
X182128160Y-62303660D01*
X182163720Y-59783980D02*
X182163720Y-62268100D01*
X182128160Y-87688420D02*
X182163720Y-87723980D01*
X182128160Y-85163660D02*
X182128160Y-87688420D01*
X164348160Y-87688420D02*
X164383720Y-87723980D01*
X164348160Y-85163660D02*
X164348160Y-87688420D01*
X55131480Y-73656180D02*
X56265600Y-74790300D01*
X55131480Y-68351400D02*
X55131480Y-73656180D01*
X56265600Y-74790300D02*
X58805600Y-74790300D01*
X111276880Y-66161860D02*
X111267240Y-66171500D01*
X111276880Y-60990480D02*
X112776880Y-60990480D01*
X127330200Y-60001140D02*
X127330200Y-57820560D01*
X129805440Y-62476380D02*
X127330200Y-60001140D01*
X132198019Y-89623799D02*
X163794541Y-89623799D01*
X131398020Y-88823800D02*
X132198019Y-89623799D01*
X164383720Y-89034620D02*
X164383720Y-87723980D01*
X163794541Y-89623799D02*
X164383720Y-89034620D01*
X130605439Y-63276379D02*
X129805440Y-62476380D01*
X132542179Y-63276379D02*
X130605439Y-63276379D01*
X134137400Y-64871600D02*
X132542179Y-63276379D01*
X134137400Y-81737200D02*
X134137400Y-64871600D01*
X131398020Y-88823800D02*
X131398020Y-84476580D01*
X131398020Y-84476580D02*
X134137400Y-81737200D01*
X126302800Y-65979020D02*
X126302800Y-66192400D01*
X126302800Y-64248000D02*
X126302800Y-66192400D01*
X126314200Y-64236600D02*
X126302800Y-64248000D01*
X126266000Y-64211200D02*
X126302800Y-64248000D01*
X111937800Y-64211200D02*
X126266000Y-64211200D01*
X111277400Y-63550800D02*
X111937800Y-64211200D01*
X111277400Y-62341000D02*
X111277400Y-63550800D01*
X111276880Y-60990480D02*
X111276880Y-62340480D01*
X111276880Y-62340480D02*
X111277400Y-62341000D01*
X54915600Y-74790300D02*
X56265600Y-74790300D01*
X90742800Y-83933000D02*
X89916000Y-84759800D01*
X89916000Y-84759800D02*
X55295800Y-84759800D01*
X55295800Y-84759800D02*
X53543200Y-83007200D01*
X53543200Y-83007200D02*
X53543200Y-76162700D01*
X90742800Y-81432400D02*
X90742800Y-83933000D01*
X53543200Y-76162700D02*
X54915600Y-74790300D01*
X174543720Y-62268100D02*
X174508160Y-62303660D01*
X174543720Y-59783980D02*
X174543720Y-62268100D01*
X184668160Y-87688420D02*
X184703720Y-87723980D01*
X184668160Y-85163660D02*
X184668160Y-87688420D01*
X161808160Y-87688420D02*
X161843720Y-87723980D01*
X161808160Y-85163660D02*
X161808160Y-87688420D01*
X124790200Y-62491620D02*
X124805440Y-62476380D01*
X124805440Y-57835800D02*
X124790200Y-57820560D01*
X124805440Y-62476380D02*
X124805440Y-57835800D01*
X187459620Y-62303660D02*
X184668160Y-62303660D01*
X154223720Y-57868820D02*
X154630120Y-57462420D01*
X154223720Y-59783980D02*
X154223720Y-57868820D01*
X154630120Y-57462420D02*
X187154820Y-57462420D01*
X187154820Y-57462420D02*
X187551060Y-57858660D01*
X187551060Y-57858660D02*
X187551060Y-62212220D01*
X187551060Y-62212220D02*
X187459620Y-62303660D01*
X187551060Y-89885520D02*
X187551060Y-62212220D01*
X186814460Y-90622120D02*
X187551060Y-89885520D01*
X127064970Y-90622120D02*
X186814460Y-90622120D01*
X126398020Y-88823800D02*
X126398020Y-89955170D01*
X126398020Y-89955170D02*
X127064970Y-90622120D01*
D22*
X156728160Y-87688420D02*
X156763720Y-87723980D01*
X156728160Y-85163660D02*
X156728160Y-87688420D01*
X159268160Y-87688420D02*
X159303720Y-87723980D01*
X159268160Y-85163660D02*
X159268160Y-87688420D01*
X146756120Y-82948780D02*
X158783020Y-82948780D01*
X159268160Y-83433920D02*
X159268160Y-85163660D01*
X158783020Y-82948780D02*
X159268160Y-83433920D01*
X159303720Y-62318900D02*
X159301180Y-62321440D01*
X159303720Y-59783980D02*
X159303720Y-62318900D01*
X149143720Y-62318900D02*
X149141180Y-62321440D01*
X149143720Y-59783980D02*
X149143720Y-62318900D01*
D21*
X126398020Y-81527620D02*
X126302800Y-81432400D01*
D22*
X115776880Y-58238520D02*
X115776880Y-60990480D01*
X114942360Y-57404000D02*
X115776880Y-58238520D01*
X108000800Y-57404000D02*
X114942360Y-57404000D01*
X107264200Y-58140600D02*
X108000800Y-57404000D01*
X115776880Y-60990480D02*
X115776880Y-60690480D01*
X107264200Y-80151000D02*
X105982800Y-81432400D01*
X107264200Y-58140600D02*
X107264200Y-80151000D01*
X136982200Y-76835000D02*
X137782199Y-76035001D01*
X137497820Y-63431420D02*
X137845800Y-63779400D01*
X137910570Y-74103230D02*
X146756120Y-82948780D01*
X137910570Y-75906630D02*
X137782199Y-76035001D01*
X137910570Y-74103230D02*
X137910570Y-75906630D01*
X137845800Y-75971400D02*
X136982200Y-76835000D01*
X137845800Y-63779400D02*
X137845800Y-75971400D01*
X135440420Y-63431420D02*
X137497820Y-63431420D01*
X135440420Y-63390780D02*
X129870200Y-57820560D01*
X135440420Y-63431420D02*
X135440420Y-63390780D01*
X90438000Y-78587600D02*
X93282800Y-81432400D01*
X56265600Y-79870300D02*
X57548300Y-78587600D01*
X57548300Y-78587600D02*
X90438000Y-78587600D01*
X93586300Y-77330300D02*
X58805600Y-77330300D01*
X100902800Y-66192400D02*
X100902800Y-70013800D01*
X100902800Y-70013800D02*
X93586300Y-77330300D01*
X151648160Y-87688420D02*
X151683720Y-87723980D01*
X151648160Y-85163660D02*
X151648160Y-87688420D01*
X154188160Y-87688420D02*
X154223720Y-87723980D01*
X154188160Y-85163660D02*
X154188160Y-87688420D01*
X174508160Y-87688420D02*
X174543720Y-87723980D01*
X174508160Y-85163660D02*
X174508160Y-87688420D01*
X171968160Y-87688420D02*
X172003720Y-87723980D01*
X171968160Y-85163660D02*
X171968160Y-87688420D01*
X166888160Y-87688420D02*
X166923720Y-87723980D01*
X166888160Y-85163660D02*
X166888160Y-87688420D01*
X169428160Y-87688420D02*
X169463720Y-87723980D01*
X169428160Y-85163660D02*
X169428160Y-87688420D01*
X177048160Y-87688420D02*
X177083720Y-87723980D01*
X177048160Y-85163660D02*
X177048160Y-87688420D01*
X179588160Y-87688420D02*
X179623720Y-87723980D01*
X179588160Y-85163660D02*
X179588160Y-87688420D01*
X149108160Y-87688420D02*
X149143720Y-87723980D01*
X149108160Y-85163660D02*
X149108160Y-87688420D01*
X179623720Y-62268100D02*
X179588160Y-62303660D01*
X179623720Y-59783980D02*
X179623720Y-62268100D01*
X177083720Y-62268100D02*
X177048160Y-62303660D01*
X177083720Y-59783980D02*
X177083720Y-62268100D01*
X169463720Y-62318900D02*
X169461180Y-62321440D01*
X169463720Y-59783980D02*
X169463720Y-62318900D01*
X166923720Y-62318900D02*
X166921180Y-62321440D01*
X166923720Y-59783980D02*
X166923720Y-62318900D01*
X164383720Y-62318900D02*
X164381180Y-62321440D01*
X164383720Y-59783980D02*
X164383720Y-62318900D01*
X161843720Y-62318900D02*
X161841180Y-62321440D01*
X161843720Y-59783980D02*
X161843720Y-62318900D01*
X156763720Y-62318900D02*
X156761180Y-62321440D01*
X156763720Y-59783980D02*
X156763720Y-62318900D01*
D21*
X129692400Y-78892400D02*
X123762800Y-78892400D01*
X115900200Y-86004400D02*
X115900200Y-88620600D01*
X130073400Y-83312000D02*
X118592600Y-83312000D01*
X118592600Y-83312000D02*
X115900200Y-86004400D01*
X130073400Y-83312000D02*
X130073400Y-78968600D01*
X129997200Y-78892400D02*
X129692400Y-78892400D01*
X130073400Y-78968600D02*
X129997200Y-78892400D01*
M02*
