G04 #@! TF.GenerationSoftware,KiCad,Pcbnew,(5.1.4)-1*
G04 #@! TF.CreationDate,2019-11-19T17:41:37+01:00*
G04 #@! TF.ProjectId,DNMS,444e4d53-2e6b-4696-9361-645f70636258,0.9.0*
G04 #@! TF.SameCoordinates,Original*
G04 #@! TF.FileFunction,Copper,L1,Top*
G04 #@! TF.FilePolarity,Positive*
%FSLAX46Y46*%
G04 Gerber Fmt 4.6, Leading zero omitted, Abs format (unit mm)*
G04 Created by KiCad (PCBNEW (5.1.4)-1) date 2019-11-19 17:41:37*
%MOMM*%
%LPD*%
G04 APERTURE LIST*
%ADD10O,1.700000X1.700000*%
%ADD11R,1.700000X1.700000*%
%ADD12C,1.530000*%
%ADD13C,1.524000*%
%ADD14O,1.100000X1.700000*%
%ADD15C,0.100000*%
%ADD16C,1.100000*%
%ADD17C,1.600000*%
%ADD18C,1.700000*%
%ADD19C,1.740000*%
%ADD20O,1.600000X1.600000*%
%ADD21C,0.500000*%
%ADD22C,0.250000*%
G04 APERTURE END LIST*
D10*
X58805600Y-79870300D03*
X56265600Y-79870300D03*
X58805600Y-77330300D03*
X56265600Y-77330300D03*
X58805600Y-74790300D03*
D11*
X56265600Y-74790300D03*
D12*
X126302800Y-66192400D03*
X123762800Y-66192400D03*
X121222800Y-66192400D03*
X118682800Y-66192400D03*
X116142800Y-66192400D03*
X113602800Y-66192400D03*
X111062800Y-66192400D03*
X108522800Y-66192400D03*
X105982800Y-66192400D03*
X103442800Y-66192400D03*
X100902800Y-66192400D03*
X98362800Y-66192400D03*
X95822800Y-66192400D03*
X93282800Y-66192400D03*
X90742800Y-66192400D03*
X88202800Y-66192400D03*
X93282800Y-81432400D03*
X95822800Y-81432400D03*
X98362800Y-81432400D03*
X100902800Y-81432400D03*
X103442800Y-81432400D03*
X105982800Y-81432400D03*
X108522800Y-81432400D03*
X111062800Y-81432400D03*
X113602800Y-81432400D03*
X116142800Y-81432400D03*
X118682800Y-81432400D03*
X121222800Y-81432400D03*
X123762800Y-81432400D03*
X126302800Y-81432400D03*
X85662800Y-66192400D03*
X83122800Y-66192400D03*
X80582800Y-66192400D03*
X78042800Y-66192400D03*
X75502800Y-66192400D03*
X72962800Y-66192400D03*
X70422800Y-66192400D03*
X67882800Y-66192400D03*
X90742800Y-81432400D03*
X88202800Y-81432400D03*
X85662800Y-81432400D03*
X67882800Y-81432400D03*
X70422800Y-81432400D03*
X72962800Y-81432400D03*
X75502800Y-81432400D03*
X78042800Y-81432400D03*
X80582800Y-81432400D03*
X83122800Y-81432400D03*
D13*
X123762800Y-78892400D03*
D14*
X111276880Y-60990480D03*
X112776880Y-60990480D03*
X114276880Y-60990480D03*
X115776880Y-60990480D03*
D15*
G36*
X117681029Y-60141259D02*
G01*
X117696726Y-60143587D01*
X117712119Y-60147443D01*
X117727060Y-60152789D01*
X117741405Y-60159573D01*
X117755016Y-60167731D01*
X117767761Y-60177184D01*
X117779519Y-60187841D01*
X117790176Y-60199599D01*
X117799629Y-60212344D01*
X117807787Y-60225955D01*
X117814571Y-60240300D01*
X117819917Y-60255241D01*
X117823773Y-60270634D01*
X117826101Y-60286331D01*
X117826880Y-60302180D01*
X117826880Y-61678780D01*
X117826101Y-61694629D01*
X117823773Y-61710326D01*
X117819917Y-61725719D01*
X117814571Y-61740660D01*
X117807787Y-61755005D01*
X117799629Y-61768616D01*
X117790176Y-61781361D01*
X117779519Y-61793119D01*
X117767761Y-61803776D01*
X117755016Y-61813229D01*
X117741405Y-61821387D01*
X117727060Y-61828171D01*
X117712119Y-61833517D01*
X117696726Y-61837373D01*
X117681029Y-61839701D01*
X117665180Y-61840480D01*
X116888580Y-61840480D01*
X116872731Y-61839701D01*
X116857034Y-61837373D01*
X116841641Y-61833517D01*
X116826700Y-61828171D01*
X116812355Y-61821387D01*
X116798744Y-61813229D01*
X116785999Y-61803776D01*
X116774241Y-61793119D01*
X116763584Y-61781361D01*
X116754131Y-61768616D01*
X116745973Y-61755005D01*
X116739189Y-61740660D01*
X116733843Y-61725719D01*
X116729987Y-61710326D01*
X116727659Y-61694629D01*
X116726880Y-61678780D01*
X116726880Y-60302180D01*
X116727659Y-60286331D01*
X116729987Y-60270634D01*
X116733843Y-60255241D01*
X116739189Y-60240300D01*
X116745973Y-60225955D01*
X116754131Y-60212344D01*
X116763584Y-60199599D01*
X116774241Y-60187841D01*
X116785999Y-60177184D01*
X116798744Y-60167731D01*
X116812355Y-60159573D01*
X116826700Y-60152789D01*
X116841641Y-60147443D01*
X116857034Y-60143587D01*
X116872731Y-60141259D01*
X116888580Y-60140480D01*
X117665180Y-60140480D01*
X117681029Y-60141259D01*
X117681029Y-60141259D01*
G37*
D16*
X117276880Y-60990480D03*
D17*
X131398020Y-88823800D03*
X126398020Y-88823800D03*
X129805440Y-62476380D03*
X124805440Y-62476380D03*
X55131480Y-68351400D03*
X60131480Y-68351400D03*
D18*
X149143720Y-87723980D03*
X151683720Y-87723980D03*
X154223720Y-87723980D03*
D19*
X156763720Y-87723980D03*
D18*
X159303720Y-87723980D03*
X161843720Y-87723980D03*
X164383720Y-87723980D03*
X166923720Y-87723980D03*
X169463720Y-87723980D03*
X172003720Y-87723980D03*
X174543720Y-87723980D03*
X177083720Y-87723980D03*
X179623720Y-87723980D03*
X182163720Y-87723980D03*
X184703720Y-87723980D03*
X184703720Y-59783980D03*
X182163720Y-59783980D03*
X179623720Y-59783980D03*
X177083720Y-59783980D03*
X174543720Y-59783980D03*
X172003720Y-59783980D03*
X169463720Y-59783980D03*
X166923720Y-59783980D03*
X164383720Y-59783980D03*
X161843720Y-59783980D03*
X159303720Y-59783980D03*
X156763720Y-59783980D03*
X154223720Y-59783980D03*
X151683720Y-59783980D03*
X149143720Y-59783980D03*
X151648160Y-85163660D03*
X156728160Y-85163660D03*
X154188160Y-85163660D03*
X174508160Y-85163660D03*
X171968160Y-85163660D03*
X166888160Y-85163660D03*
X169428160Y-85163660D03*
X184668160Y-85163660D03*
X164348160Y-85163660D03*
X159268160Y-85163660D03*
X161808160Y-85163660D03*
X177048160Y-85163660D03*
X182128160Y-85163660D03*
X179588160Y-85163660D03*
X149108160Y-85163660D03*
X184668160Y-62303660D03*
X182128160Y-62303660D03*
X179588160Y-62303660D03*
X177048160Y-62303660D03*
X174508160Y-62303660D03*
X171968160Y-62303660D03*
X169428160Y-62303660D03*
X166888160Y-62303660D03*
X164348160Y-62303660D03*
X161808160Y-62303660D03*
X159268160Y-62303660D03*
X156728160Y-62303660D03*
X154188160Y-62303660D03*
X151648160Y-62303660D03*
X149108160Y-62303660D03*
D20*
X133918960Y-85107780D03*
D17*
X123758960Y-85107780D03*
D20*
X136982200Y-76835000D03*
D17*
X136982200Y-86995000D03*
D10*
X132410200Y-57820560D03*
X129870200Y-57820560D03*
X127330200Y-57820560D03*
D11*
X124790200Y-57820560D03*
D10*
X115900200Y-88620600D03*
D11*
X118440200Y-88620600D03*
D21*
X126302800Y-65979020D02*
X126302800Y-66192400D01*
X131398020Y-90519240D02*
X131398020Y-88823800D01*
X130952270Y-90964990D02*
X131398020Y-90519240D01*
X127330200Y-59664600D02*
X127330200Y-57820560D01*
X112776880Y-57377720D02*
X112953800Y-57200800D01*
X112776880Y-60990480D02*
X112776880Y-57377720D01*
X112953800Y-57200800D02*
X120421400Y-57200800D01*
X120421400Y-57200800D02*
X122910600Y-59690000D01*
X122910600Y-59690000D02*
X127304800Y-59690000D01*
X127304800Y-59690000D02*
X127330200Y-59664600D01*
X90742800Y-82985580D02*
X98722210Y-90964990D01*
X90742800Y-81432400D02*
X90742800Y-82985580D01*
X98722210Y-90964990D02*
X130952270Y-90964990D01*
X125714760Y-86657180D02*
X123758960Y-84701380D01*
X161843720Y-88926061D02*
X161897060Y-88979401D01*
X161843720Y-87723980D02*
X161843720Y-88926061D01*
X161897060Y-89237820D02*
X160906460Y-90228420D01*
X161897060Y-88979401D02*
X161897060Y-89237820D01*
X136999980Y-88144150D02*
X136999980Y-90228420D01*
X136982200Y-88126370D02*
X136999980Y-88144150D01*
X136982200Y-86995000D02*
X136982200Y-88126370D01*
X160906460Y-90228420D02*
X136999980Y-90228420D01*
X125915420Y-86657180D02*
X125714760Y-86657180D01*
X129293620Y-86657180D02*
X125915420Y-86657180D01*
X133629400Y-86657180D02*
X129293620Y-86657180D01*
X135782250Y-86657180D02*
X133629400Y-86657180D01*
X135782250Y-86926420D02*
X135782250Y-86657180D01*
X135850830Y-86995000D02*
X135782250Y-86926420D01*
X136982200Y-86995000D02*
X135850830Y-86995000D01*
X127373380Y-62476380D02*
X124805440Y-62476380D01*
X131368800Y-66471800D02*
X127373380Y-62476380D01*
X131368800Y-81534000D02*
X131368800Y-66471800D01*
X129293620Y-86657180D02*
X129293620Y-83609180D01*
X129293620Y-83609180D02*
X131368800Y-81534000D01*
D22*
X156728160Y-83088480D02*
X156728160Y-85163660D01*
X156753560Y-83063080D02*
X156728160Y-83088480D01*
X135945880Y-83063080D02*
X156753560Y-83063080D01*
X149143720Y-62318900D02*
X149141180Y-62321440D01*
D21*
X60131480Y-68351400D02*
X60131480Y-65237360D01*
X60131480Y-65237360D02*
X60083220Y-65189100D01*
X58805600Y-82351880D02*
X58805600Y-79870300D01*
X58206160Y-82951320D02*
X58805600Y-82351880D01*
X126302800Y-82917000D02*
X126302800Y-81432400D01*
X126238000Y-82981800D02*
X126302800Y-82917000D01*
X125266650Y-88823800D02*
X124225250Y-87782400D01*
X126398020Y-88823800D02*
X125266650Y-88823800D01*
X124225250Y-87782400D02*
X121920000Y-87782400D01*
X121920000Y-87782400D02*
X121132600Y-86995000D01*
X121132600Y-86995000D02*
X121132600Y-83667600D01*
X121564400Y-83235800D02*
X121132600Y-83667600D01*
X126302800Y-82917000D02*
X125984000Y-83235800D01*
X125984000Y-83235800D02*
X121564400Y-83235800D01*
X119790200Y-88620600D02*
X118440200Y-88620600D01*
X121132600Y-87278200D02*
X119790200Y-88620600D01*
X121132600Y-86995000D02*
X121132600Y-87278200D01*
X120497600Y-64211200D02*
X117276880Y-60990480D01*
X127067799Y-80667401D02*
X127155399Y-80667401D01*
X126302800Y-81432400D02*
X127067799Y-80667401D01*
X127155399Y-80667401D02*
X129540000Y-78282800D01*
X129540000Y-78282800D02*
X129540000Y-66395600D01*
X129540000Y-66395600D02*
X127355600Y-64211200D01*
X127355600Y-64211200D02*
X120497600Y-64211200D01*
D22*
X134569200Y-82423000D02*
X134569200Y-63068200D01*
X135209280Y-83063080D02*
X134569200Y-82423000D01*
X135945880Y-83063080D02*
X135209280Y-83063080D01*
X132392420Y-60891420D02*
X134569200Y-63068200D01*
X134718959Y-84290001D02*
X135945880Y-83063080D01*
X134718959Y-84307781D02*
X134718959Y-84290001D01*
X133918960Y-85107780D02*
X134718959Y-84307781D01*
X115776880Y-59890480D02*
X115776880Y-60990480D01*
X116330420Y-59336940D02*
X115776880Y-59890480D01*
X119385080Y-59336940D02*
X116330420Y-59336940D01*
X120957340Y-60909200D02*
X119385080Y-59336940D01*
X132410200Y-57820560D02*
X132410200Y-60909200D01*
X132410200Y-60909200D02*
X120957340Y-60909200D01*
X120116600Y-58445400D02*
X122072400Y-60401200D01*
X115691920Y-58445400D02*
X120116600Y-58445400D01*
X114276880Y-59860440D02*
X115691920Y-58445400D01*
X114276880Y-60990480D02*
X114276880Y-59860440D01*
X122072400Y-60401200D02*
X129768600Y-60401200D01*
X129870200Y-60299600D02*
X129768600Y-60401200D01*
X129870200Y-57820560D02*
X129870200Y-60299600D01*
X112344200Y-77611000D02*
X108522800Y-81432400D01*
X112344200Y-65049400D02*
X112344200Y-77611000D01*
X114276880Y-60990480D02*
X114276880Y-63116720D01*
X114276880Y-63116720D02*
X112344200Y-65049400D01*
X117917801Y-82208799D02*
X117917801Y-82197399D01*
X115976400Y-84150200D02*
X117917801Y-82208799D01*
X99872800Y-84150200D02*
X115976400Y-84150200D01*
X57505600Y-76090300D02*
X57505600Y-76073000D01*
X56265600Y-77330300D02*
X57505600Y-76090300D01*
X57505600Y-76073000D02*
X97238198Y-76073000D01*
X97238198Y-76073000D02*
X99644200Y-78479002D01*
X99644200Y-78479002D02*
X99644200Y-83921600D01*
X117917801Y-82197399D02*
X118682800Y-81432400D01*
X99644200Y-83921600D02*
X99872800Y-84150200D01*
D21*
X90742800Y-65110527D02*
X89132273Y-63500000D01*
X90742800Y-66192400D02*
X90742800Y-65110527D01*
X61772320Y-63500000D02*
X60083220Y-65189100D01*
X89132273Y-63500000D02*
X61772320Y-63500000D01*
X60131480Y-69482770D02*
X58316450Y-71297800D01*
X60131480Y-68351400D02*
X60131480Y-69482770D01*
X58316450Y-71297800D02*
X52400200Y-71297800D01*
X52400200Y-71297800D02*
X52400200Y-82818760D01*
X52532760Y-82951320D02*
X52400200Y-82818760D01*
X58206160Y-82951320D02*
X52532760Y-82951320D01*
M02*
