G04 #@! TF.GenerationSoftware,KiCad,Pcbnew,(5.1.4)-1*
G04 #@! TF.CreationDate,2019-11-19T17:41:37+01:00*
G04 #@! TF.ProjectId,DNMS,444e4d53-2e6b-4696-9361-645f70636258,0.9.0*
G04 #@! TF.SameCoordinates,Original*
G04 #@! TF.FileFunction,Soldermask,Top*
G04 #@! TF.FilePolarity,Negative*
%FSLAX46Y46*%
G04 Gerber Fmt 4.6, Leading zero omitted, Abs format (unit mm)*
G04 Created by KiCad (PCBNEW (5.1.4)-1) date 2019-11-19 17:41:37*
%MOMM*%
%LPD*%
G04 APERTURE LIST*
%ADD10C,0.100000*%
G04 APERTURE END LIST*
D10*
G36*
X53912529Y-87024127D02*
G01*
X54016657Y-87044839D01*
X54098684Y-87078816D01*
X54271621Y-87150449D01*
X54271622Y-87150450D01*
X54501086Y-87303772D01*
X54696228Y-87498914D01*
X54721997Y-87537481D01*
X54849551Y-87728379D01*
X54885303Y-87814692D01*
X54953948Y-87980414D01*
X54955161Y-87983344D01*
X55009000Y-88254012D01*
X55009000Y-88529988D01*
X54999933Y-88575571D01*
X54955844Y-88797225D01*
X54955161Y-88800656D01*
X54849551Y-89055621D01*
X54815087Y-89107200D01*
X54696228Y-89285086D01*
X54501086Y-89480228D01*
X54354838Y-89577947D01*
X54271621Y-89633551D01*
X54172037Y-89674800D01*
X54016657Y-89739161D01*
X53926433Y-89757107D01*
X53745988Y-89793000D01*
X53470012Y-89793000D01*
X53289567Y-89757107D01*
X53199343Y-89739161D01*
X53043963Y-89674800D01*
X52944379Y-89633551D01*
X52861162Y-89577947D01*
X52714914Y-89480228D01*
X52519772Y-89285086D01*
X52400913Y-89107200D01*
X52366449Y-89055621D01*
X52260839Y-88800656D01*
X52260157Y-88797225D01*
X52216067Y-88575571D01*
X52207000Y-88529988D01*
X52207000Y-88254012D01*
X52260839Y-87983344D01*
X52262053Y-87980414D01*
X52330697Y-87814692D01*
X52366449Y-87728379D01*
X52494003Y-87537481D01*
X52519772Y-87498914D01*
X52714914Y-87303772D01*
X52944378Y-87150450D01*
X52944379Y-87150449D01*
X53117316Y-87078816D01*
X53199343Y-87044839D01*
X53303471Y-87024127D01*
X53470012Y-86991000D01*
X53745988Y-86991000D01*
X53912529Y-87024127D01*
X53912529Y-87024127D01*
G37*
G36*
X131646248Y-88005503D02*
G01*
X131801120Y-88069653D01*
X131940501Y-88162785D01*
X132059035Y-88281319D01*
X132152167Y-88420700D01*
X132216317Y-88575572D01*
X132249020Y-88739984D01*
X132249020Y-88907616D01*
X132216317Y-89072028D01*
X132152167Y-89226900D01*
X132059035Y-89366281D01*
X131940501Y-89484815D01*
X131801120Y-89577947D01*
X131646248Y-89642097D01*
X131481836Y-89674800D01*
X131314204Y-89674800D01*
X131149792Y-89642097D01*
X130994920Y-89577947D01*
X130855539Y-89484815D01*
X130737005Y-89366281D01*
X130643873Y-89226900D01*
X130579723Y-89072028D01*
X130547020Y-88907616D01*
X130547020Y-88739984D01*
X130579723Y-88575572D01*
X130643873Y-88420700D01*
X130737005Y-88281319D01*
X130855539Y-88162785D01*
X130994920Y-88069653D01*
X131149792Y-88005503D01*
X131314204Y-87972800D01*
X131481836Y-87972800D01*
X131646248Y-88005503D01*
X131646248Y-88005503D01*
G37*
G36*
X126646248Y-88005503D02*
G01*
X126801120Y-88069653D01*
X126940501Y-88162785D01*
X127059035Y-88281319D01*
X127152167Y-88420700D01*
X127216317Y-88575572D01*
X127249020Y-88739984D01*
X127249020Y-88907616D01*
X127216317Y-89072028D01*
X127152167Y-89226900D01*
X127059035Y-89366281D01*
X126940501Y-89484815D01*
X126801120Y-89577947D01*
X126646248Y-89642097D01*
X126481836Y-89674800D01*
X126314204Y-89674800D01*
X126149792Y-89642097D01*
X125994920Y-89577947D01*
X125855539Y-89484815D01*
X125737005Y-89366281D01*
X125643873Y-89226900D01*
X125579723Y-89072028D01*
X125547020Y-88907616D01*
X125547020Y-88739984D01*
X125579723Y-88575572D01*
X125643873Y-88420700D01*
X125737005Y-88281319D01*
X125855539Y-88162785D01*
X125994920Y-88069653D01*
X126149792Y-88005503D01*
X126314204Y-87972800D01*
X126481836Y-87972800D01*
X126646248Y-88005503D01*
X126646248Y-88005503D01*
G37*
G36*
X119341200Y-89521600D02*
G01*
X117539200Y-89521600D01*
X117539200Y-87719600D01*
X119341200Y-87719600D01*
X119341200Y-89521600D01*
X119341200Y-89521600D01*
G37*
G36*
X116010643Y-87726119D02*
G01*
X116076827Y-87732637D01*
X116246666Y-87784157D01*
X116403191Y-87867822D01*
X116438929Y-87897152D01*
X116540386Y-87980414D01*
X116613621Y-88069653D01*
X116652978Y-88117609D01*
X116652979Y-88117611D01*
X116725888Y-88254012D01*
X116736643Y-88274134D01*
X116788163Y-88443973D01*
X116805559Y-88620600D01*
X116788163Y-88797227D01*
X116736643Y-88967066D01*
X116652978Y-89123591D01*
X116623648Y-89159329D01*
X116540386Y-89260786D01*
X116438929Y-89344048D01*
X116403191Y-89373378D01*
X116246666Y-89457043D01*
X116076827Y-89508563D01*
X116010642Y-89515082D01*
X115944460Y-89521600D01*
X115855940Y-89521600D01*
X115789758Y-89515082D01*
X115723573Y-89508563D01*
X115553734Y-89457043D01*
X115397209Y-89373378D01*
X115361471Y-89344048D01*
X115260014Y-89260786D01*
X115176752Y-89159329D01*
X115147422Y-89123591D01*
X115063757Y-88967066D01*
X115012237Y-88797227D01*
X114994841Y-88620600D01*
X115012237Y-88443973D01*
X115063757Y-88274134D01*
X115074513Y-88254012D01*
X115147421Y-88117611D01*
X115147422Y-88117609D01*
X115186779Y-88069653D01*
X115260014Y-87980414D01*
X115361471Y-87897152D01*
X115397209Y-87867822D01*
X115553734Y-87784157D01*
X115723573Y-87732637D01*
X115789757Y-87726119D01*
X115855940Y-87719600D01*
X115944460Y-87719600D01*
X116010643Y-87726119D01*
X116010643Y-87726119D01*
G37*
G36*
X109620233Y-86341093D02*
G01*
X109710457Y-86359039D01*
X109816067Y-86402785D01*
X109965421Y-86464649D01*
X109965422Y-86464650D01*
X110194886Y-86617972D01*
X110390028Y-86813114D01*
X110465137Y-86925524D01*
X110543351Y-87042579D01*
X110648961Y-87297544D01*
X110702800Y-87568212D01*
X110702800Y-87844188D01*
X110675703Y-87980414D01*
X110648961Y-88114857D01*
X110630164Y-88160237D01*
X110543351Y-88369821D01*
X110543350Y-88369822D01*
X110390028Y-88599286D01*
X110194886Y-88794428D01*
X110041563Y-88896875D01*
X109965421Y-88947751D01*
X109816067Y-89009615D01*
X109710457Y-89053361D01*
X109620233Y-89071307D01*
X109439788Y-89107200D01*
X109163812Y-89107200D01*
X108983367Y-89071307D01*
X108893143Y-89053361D01*
X108787533Y-89009615D01*
X108638179Y-88947751D01*
X108562037Y-88896875D01*
X108408714Y-88794428D01*
X108213572Y-88599286D01*
X108060250Y-88369822D01*
X108060249Y-88369821D01*
X107973436Y-88160237D01*
X107954639Y-88114857D01*
X107927897Y-87980414D01*
X107900800Y-87844188D01*
X107900800Y-87568212D01*
X107954639Y-87297544D01*
X108060249Y-87042579D01*
X108138463Y-86925524D01*
X108213572Y-86813114D01*
X108408714Y-86617972D01*
X108638178Y-86464650D01*
X108638179Y-86464649D01*
X108787533Y-86402785D01*
X108893143Y-86359039D01*
X108983367Y-86341093D01*
X109163812Y-86305200D01*
X109439788Y-86305200D01*
X109620233Y-86341093D01*
X109620233Y-86341093D01*
G37*
G36*
X157032365Y-86838373D02*
G01*
X157199975Y-86907800D01*
X157199977Y-86907801D01*
X157350823Y-87008593D01*
X157479107Y-87136877D01*
X157488176Y-87150450D01*
X157579900Y-87287725D01*
X157649327Y-87455335D01*
X157684720Y-87633268D01*
X157684720Y-87814692D01*
X157649327Y-87992625D01*
X157583824Y-88150762D01*
X157579899Y-88160237D01*
X157479107Y-88311083D01*
X157350823Y-88439367D01*
X157199977Y-88540159D01*
X157199976Y-88540160D01*
X157199975Y-88540160D01*
X157032365Y-88609587D01*
X156854432Y-88644980D01*
X156673008Y-88644980D01*
X156495075Y-88609587D01*
X156327465Y-88540160D01*
X156327464Y-88540160D01*
X156327463Y-88540159D01*
X156176617Y-88439367D01*
X156048333Y-88311083D01*
X155947541Y-88160237D01*
X155943616Y-88150762D01*
X155878113Y-87992625D01*
X155842720Y-87814692D01*
X155842720Y-87633268D01*
X155878113Y-87455335D01*
X155947540Y-87287725D01*
X156039264Y-87150450D01*
X156048333Y-87136877D01*
X156176617Y-87008593D01*
X156327463Y-86907801D01*
X156327465Y-86907800D01*
X156495075Y-86838373D01*
X156673008Y-86802980D01*
X156854432Y-86802980D01*
X157032365Y-86838373D01*
X157032365Y-86838373D01*
G37*
G36*
X164497232Y-86827907D02*
G01*
X164646532Y-86857604D01*
X164810504Y-86925524D01*
X164958074Y-87024127D01*
X165083573Y-87149626D01*
X165182176Y-87297196D01*
X165250096Y-87461168D01*
X165271388Y-87568214D01*
X165284720Y-87635238D01*
X165284720Y-87812722D01*
X165284328Y-87814691D01*
X165250096Y-87986792D01*
X165182176Y-88150764D01*
X165083573Y-88298334D01*
X164958074Y-88423833D01*
X164810504Y-88522436D01*
X164646532Y-88590356D01*
X164497232Y-88620053D01*
X164472462Y-88624980D01*
X164294978Y-88624980D01*
X164270208Y-88620053D01*
X164120908Y-88590356D01*
X163956936Y-88522436D01*
X163809366Y-88423833D01*
X163683867Y-88298334D01*
X163585264Y-88150764D01*
X163517344Y-87986792D01*
X163483112Y-87814691D01*
X163482720Y-87812722D01*
X163482720Y-87635238D01*
X163496052Y-87568214D01*
X163517344Y-87461168D01*
X163585264Y-87297196D01*
X163683867Y-87149626D01*
X163809366Y-87024127D01*
X163956936Y-86925524D01*
X164120908Y-86857604D01*
X164270208Y-86827907D01*
X164294978Y-86822980D01*
X164472462Y-86822980D01*
X164497232Y-86827907D01*
X164497232Y-86827907D01*
G37*
G36*
X177197232Y-86827907D02*
G01*
X177346532Y-86857604D01*
X177510504Y-86925524D01*
X177658074Y-87024127D01*
X177783573Y-87149626D01*
X177882176Y-87297196D01*
X177950096Y-87461168D01*
X177971388Y-87568214D01*
X177984720Y-87635238D01*
X177984720Y-87812722D01*
X177984328Y-87814691D01*
X177950096Y-87986792D01*
X177882176Y-88150764D01*
X177783573Y-88298334D01*
X177658074Y-88423833D01*
X177510504Y-88522436D01*
X177346532Y-88590356D01*
X177197232Y-88620053D01*
X177172462Y-88624980D01*
X176994978Y-88624980D01*
X176970208Y-88620053D01*
X176820908Y-88590356D01*
X176656936Y-88522436D01*
X176509366Y-88423833D01*
X176383867Y-88298334D01*
X176285264Y-88150764D01*
X176217344Y-87986792D01*
X176183112Y-87814691D01*
X176182720Y-87812722D01*
X176182720Y-87635238D01*
X176196052Y-87568214D01*
X176217344Y-87461168D01*
X176285264Y-87297196D01*
X176383867Y-87149626D01*
X176509366Y-87024127D01*
X176656936Y-86925524D01*
X176820908Y-86857604D01*
X176970208Y-86827907D01*
X176994978Y-86822980D01*
X177172462Y-86822980D01*
X177197232Y-86827907D01*
X177197232Y-86827907D01*
G37*
G36*
X174657232Y-86827907D02*
G01*
X174806532Y-86857604D01*
X174970504Y-86925524D01*
X175118074Y-87024127D01*
X175243573Y-87149626D01*
X175342176Y-87297196D01*
X175410096Y-87461168D01*
X175431388Y-87568214D01*
X175444720Y-87635238D01*
X175444720Y-87812722D01*
X175444328Y-87814691D01*
X175410096Y-87986792D01*
X175342176Y-88150764D01*
X175243573Y-88298334D01*
X175118074Y-88423833D01*
X174970504Y-88522436D01*
X174806532Y-88590356D01*
X174657232Y-88620053D01*
X174632462Y-88624980D01*
X174454978Y-88624980D01*
X174430208Y-88620053D01*
X174280908Y-88590356D01*
X174116936Y-88522436D01*
X173969366Y-88423833D01*
X173843867Y-88298334D01*
X173745264Y-88150764D01*
X173677344Y-87986792D01*
X173643112Y-87814691D01*
X173642720Y-87812722D01*
X173642720Y-87635238D01*
X173656052Y-87568214D01*
X173677344Y-87461168D01*
X173745264Y-87297196D01*
X173843867Y-87149626D01*
X173969366Y-87024127D01*
X174116936Y-86925524D01*
X174280908Y-86857604D01*
X174430208Y-86827907D01*
X174454978Y-86822980D01*
X174632462Y-86822980D01*
X174657232Y-86827907D01*
X174657232Y-86827907D01*
G37*
G36*
X172117232Y-86827907D02*
G01*
X172266532Y-86857604D01*
X172430504Y-86925524D01*
X172578074Y-87024127D01*
X172703573Y-87149626D01*
X172802176Y-87297196D01*
X172870096Y-87461168D01*
X172891388Y-87568214D01*
X172904720Y-87635238D01*
X172904720Y-87812722D01*
X172904328Y-87814691D01*
X172870096Y-87986792D01*
X172802176Y-88150764D01*
X172703573Y-88298334D01*
X172578074Y-88423833D01*
X172430504Y-88522436D01*
X172266532Y-88590356D01*
X172117232Y-88620053D01*
X172092462Y-88624980D01*
X171914978Y-88624980D01*
X171890208Y-88620053D01*
X171740908Y-88590356D01*
X171576936Y-88522436D01*
X171429366Y-88423833D01*
X171303867Y-88298334D01*
X171205264Y-88150764D01*
X171137344Y-87986792D01*
X171103112Y-87814691D01*
X171102720Y-87812722D01*
X171102720Y-87635238D01*
X171116052Y-87568214D01*
X171137344Y-87461168D01*
X171205264Y-87297196D01*
X171303867Y-87149626D01*
X171429366Y-87024127D01*
X171576936Y-86925524D01*
X171740908Y-86857604D01*
X171890208Y-86827907D01*
X171914978Y-86822980D01*
X172092462Y-86822980D01*
X172117232Y-86827907D01*
X172117232Y-86827907D01*
G37*
G36*
X169577232Y-86827907D02*
G01*
X169726532Y-86857604D01*
X169890504Y-86925524D01*
X170038074Y-87024127D01*
X170163573Y-87149626D01*
X170262176Y-87297196D01*
X170330096Y-87461168D01*
X170351388Y-87568214D01*
X170364720Y-87635238D01*
X170364720Y-87812722D01*
X170364328Y-87814691D01*
X170330096Y-87986792D01*
X170262176Y-88150764D01*
X170163573Y-88298334D01*
X170038074Y-88423833D01*
X169890504Y-88522436D01*
X169726532Y-88590356D01*
X169577232Y-88620053D01*
X169552462Y-88624980D01*
X169374978Y-88624980D01*
X169350208Y-88620053D01*
X169200908Y-88590356D01*
X169036936Y-88522436D01*
X168889366Y-88423833D01*
X168763867Y-88298334D01*
X168665264Y-88150764D01*
X168597344Y-87986792D01*
X168563112Y-87814691D01*
X168562720Y-87812722D01*
X168562720Y-87635238D01*
X168576052Y-87568214D01*
X168597344Y-87461168D01*
X168665264Y-87297196D01*
X168763867Y-87149626D01*
X168889366Y-87024127D01*
X169036936Y-86925524D01*
X169200908Y-86857604D01*
X169350208Y-86827907D01*
X169374978Y-86822980D01*
X169552462Y-86822980D01*
X169577232Y-86827907D01*
X169577232Y-86827907D01*
G37*
G36*
X167037232Y-86827907D02*
G01*
X167186532Y-86857604D01*
X167350504Y-86925524D01*
X167498074Y-87024127D01*
X167623573Y-87149626D01*
X167722176Y-87297196D01*
X167790096Y-87461168D01*
X167811388Y-87568214D01*
X167824720Y-87635238D01*
X167824720Y-87812722D01*
X167824328Y-87814691D01*
X167790096Y-87986792D01*
X167722176Y-88150764D01*
X167623573Y-88298334D01*
X167498074Y-88423833D01*
X167350504Y-88522436D01*
X167186532Y-88590356D01*
X167037232Y-88620053D01*
X167012462Y-88624980D01*
X166834978Y-88624980D01*
X166810208Y-88620053D01*
X166660908Y-88590356D01*
X166496936Y-88522436D01*
X166349366Y-88423833D01*
X166223867Y-88298334D01*
X166125264Y-88150764D01*
X166057344Y-87986792D01*
X166023112Y-87814691D01*
X166022720Y-87812722D01*
X166022720Y-87635238D01*
X166036052Y-87568214D01*
X166057344Y-87461168D01*
X166125264Y-87297196D01*
X166223867Y-87149626D01*
X166349366Y-87024127D01*
X166496936Y-86925524D01*
X166660908Y-86857604D01*
X166810208Y-86827907D01*
X166834978Y-86822980D01*
X167012462Y-86822980D01*
X167037232Y-86827907D01*
X167037232Y-86827907D01*
G37*
G36*
X161957232Y-86827907D02*
G01*
X162106532Y-86857604D01*
X162270504Y-86925524D01*
X162418074Y-87024127D01*
X162543573Y-87149626D01*
X162642176Y-87297196D01*
X162710096Y-87461168D01*
X162731388Y-87568214D01*
X162744720Y-87635238D01*
X162744720Y-87812722D01*
X162744328Y-87814691D01*
X162710096Y-87986792D01*
X162642176Y-88150764D01*
X162543573Y-88298334D01*
X162418074Y-88423833D01*
X162270504Y-88522436D01*
X162106532Y-88590356D01*
X161957232Y-88620053D01*
X161932462Y-88624980D01*
X161754978Y-88624980D01*
X161730208Y-88620053D01*
X161580908Y-88590356D01*
X161416936Y-88522436D01*
X161269366Y-88423833D01*
X161143867Y-88298334D01*
X161045264Y-88150764D01*
X160977344Y-87986792D01*
X160943112Y-87814691D01*
X160942720Y-87812722D01*
X160942720Y-87635238D01*
X160956052Y-87568214D01*
X160977344Y-87461168D01*
X161045264Y-87297196D01*
X161143867Y-87149626D01*
X161269366Y-87024127D01*
X161416936Y-86925524D01*
X161580908Y-86857604D01*
X161730208Y-86827907D01*
X161754978Y-86822980D01*
X161932462Y-86822980D01*
X161957232Y-86827907D01*
X161957232Y-86827907D01*
G37*
G36*
X182277232Y-86827907D02*
G01*
X182426532Y-86857604D01*
X182590504Y-86925524D01*
X182738074Y-87024127D01*
X182863573Y-87149626D01*
X182962176Y-87297196D01*
X183030096Y-87461168D01*
X183051388Y-87568214D01*
X183064720Y-87635238D01*
X183064720Y-87812722D01*
X183064328Y-87814691D01*
X183030096Y-87986792D01*
X182962176Y-88150764D01*
X182863573Y-88298334D01*
X182738074Y-88423833D01*
X182590504Y-88522436D01*
X182426532Y-88590356D01*
X182277232Y-88620053D01*
X182252462Y-88624980D01*
X182074978Y-88624980D01*
X182050208Y-88620053D01*
X181900908Y-88590356D01*
X181736936Y-88522436D01*
X181589366Y-88423833D01*
X181463867Y-88298334D01*
X181365264Y-88150764D01*
X181297344Y-87986792D01*
X181263112Y-87814691D01*
X181262720Y-87812722D01*
X181262720Y-87635238D01*
X181276052Y-87568214D01*
X181297344Y-87461168D01*
X181365264Y-87297196D01*
X181463867Y-87149626D01*
X181589366Y-87024127D01*
X181736936Y-86925524D01*
X181900908Y-86857604D01*
X182050208Y-86827907D01*
X182074978Y-86822980D01*
X182252462Y-86822980D01*
X182277232Y-86827907D01*
X182277232Y-86827907D01*
G37*
G36*
X154337232Y-86827907D02*
G01*
X154486532Y-86857604D01*
X154650504Y-86925524D01*
X154798074Y-87024127D01*
X154923573Y-87149626D01*
X155022176Y-87297196D01*
X155090096Y-87461168D01*
X155111388Y-87568214D01*
X155124720Y-87635238D01*
X155124720Y-87812722D01*
X155124328Y-87814691D01*
X155090096Y-87986792D01*
X155022176Y-88150764D01*
X154923573Y-88298334D01*
X154798074Y-88423833D01*
X154650504Y-88522436D01*
X154486532Y-88590356D01*
X154337232Y-88620053D01*
X154312462Y-88624980D01*
X154134978Y-88624980D01*
X154110208Y-88620053D01*
X153960908Y-88590356D01*
X153796936Y-88522436D01*
X153649366Y-88423833D01*
X153523867Y-88298334D01*
X153425264Y-88150764D01*
X153357344Y-87986792D01*
X153323112Y-87814691D01*
X153322720Y-87812722D01*
X153322720Y-87635238D01*
X153336052Y-87568214D01*
X153357344Y-87461168D01*
X153425264Y-87297196D01*
X153523867Y-87149626D01*
X153649366Y-87024127D01*
X153796936Y-86925524D01*
X153960908Y-86857604D01*
X154110208Y-86827907D01*
X154134978Y-86822980D01*
X154312462Y-86822980D01*
X154337232Y-86827907D01*
X154337232Y-86827907D01*
G37*
G36*
X151797232Y-86827907D02*
G01*
X151946532Y-86857604D01*
X152110504Y-86925524D01*
X152258074Y-87024127D01*
X152383573Y-87149626D01*
X152482176Y-87297196D01*
X152550096Y-87461168D01*
X152571388Y-87568214D01*
X152584720Y-87635238D01*
X152584720Y-87812722D01*
X152584328Y-87814691D01*
X152550096Y-87986792D01*
X152482176Y-88150764D01*
X152383573Y-88298334D01*
X152258074Y-88423833D01*
X152110504Y-88522436D01*
X151946532Y-88590356D01*
X151797232Y-88620053D01*
X151772462Y-88624980D01*
X151594978Y-88624980D01*
X151570208Y-88620053D01*
X151420908Y-88590356D01*
X151256936Y-88522436D01*
X151109366Y-88423833D01*
X150983867Y-88298334D01*
X150885264Y-88150764D01*
X150817344Y-87986792D01*
X150783112Y-87814691D01*
X150782720Y-87812722D01*
X150782720Y-87635238D01*
X150796052Y-87568214D01*
X150817344Y-87461168D01*
X150885264Y-87297196D01*
X150983867Y-87149626D01*
X151109366Y-87024127D01*
X151256936Y-86925524D01*
X151420908Y-86857604D01*
X151570208Y-86827907D01*
X151594978Y-86822980D01*
X151772462Y-86822980D01*
X151797232Y-86827907D01*
X151797232Y-86827907D01*
G37*
G36*
X149257232Y-86827907D02*
G01*
X149406532Y-86857604D01*
X149570504Y-86925524D01*
X149718074Y-87024127D01*
X149843573Y-87149626D01*
X149942176Y-87297196D01*
X150010096Y-87461168D01*
X150031388Y-87568214D01*
X150044720Y-87635238D01*
X150044720Y-87812722D01*
X150044328Y-87814691D01*
X150010096Y-87986792D01*
X149942176Y-88150764D01*
X149843573Y-88298334D01*
X149718074Y-88423833D01*
X149570504Y-88522436D01*
X149406532Y-88590356D01*
X149257232Y-88620053D01*
X149232462Y-88624980D01*
X149054978Y-88624980D01*
X149030208Y-88620053D01*
X148880908Y-88590356D01*
X148716936Y-88522436D01*
X148569366Y-88423833D01*
X148443867Y-88298334D01*
X148345264Y-88150764D01*
X148277344Y-87986792D01*
X148243112Y-87814691D01*
X148242720Y-87812722D01*
X148242720Y-87635238D01*
X148256052Y-87568214D01*
X148277344Y-87461168D01*
X148345264Y-87297196D01*
X148443867Y-87149626D01*
X148569366Y-87024127D01*
X148716936Y-86925524D01*
X148880908Y-86857604D01*
X149030208Y-86827907D01*
X149054978Y-86822980D01*
X149232462Y-86822980D01*
X149257232Y-86827907D01*
X149257232Y-86827907D01*
G37*
G36*
X184817232Y-86827907D02*
G01*
X184966532Y-86857604D01*
X185130504Y-86925524D01*
X185278074Y-87024127D01*
X185403573Y-87149626D01*
X185502176Y-87297196D01*
X185570096Y-87461168D01*
X185591388Y-87568214D01*
X185604720Y-87635238D01*
X185604720Y-87812722D01*
X185604328Y-87814691D01*
X185570096Y-87986792D01*
X185502176Y-88150764D01*
X185403573Y-88298334D01*
X185278074Y-88423833D01*
X185130504Y-88522436D01*
X184966532Y-88590356D01*
X184817232Y-88620053D01*
X184792462Y-88624980D01*
X184614978Y-88624980D01*
X184590208Y-88620053D01*
X184440908Y-88590356D01*
X184276936Y-88522436D01*
X184129366Y-88423833D01*
X184003867Y-88298334D01*
X183905264Y-88150764D01*
X183837344Y-87986792D01*
X183803112Y-87814691D01*
X183802720Y-87812722D01*
X183802720Y-87635238D01*
X183816052Y-87568214D01*
X183837344Y-87461168D01*
X183905264Y-87297196D01*
X184003867Y-87149626D01*
X184129366Y-87024127D01*
X184276936Y-86925524D01*
X184440908Y-86857604D01*
X184590208Y-86827907D01*
X184614978Y-86822980D01*
X184792462Y-86822980D01*
X184817232Y-86827907D01*
X184817232Y-86827907D01*
G37*
G36*
X179737232Y-86827907D02*
G01*
X179886532Y-86857604D01*
X180050504Y-86925524D01*
X180198074Y-87024127D01*
X180323573Y-87149626D01*
X180422176Y-87297196D01*
X180490096Y-87461168D01*
X180511388Y-87568214D01*
X180524720Y-87635238D01*
X180524720Y-87812722D01*
X180524328Y-87814691D01*
X180490096Y-87986792D01*
X180422176Y-88150764D01*
X180323573Y-88298334D01*
X180198074Y-88423833D01*
X180050504Y-88522436D01*
X179886532Y-88590356D01*
X179737232Y-88620053D01*
X179712462Y-88624980D01*
X179534978Y-88624980D01*
X179510208Y-88620053D01*
X179360908Y-88590356D01*
X179196936Y-88522436D01*
X179049366Y-88423833D01*
X178923867Y-88298334D01*
X178825264Y-88150764D01*
X178757344Y-87986792D01*
X178723112Y-87814691D01*
X178722720Y-87812722D01*
X178722720Y-87635238D01*
X178736052Y-87568214D01*
X178757344Y-87461168D01*
X178825264Y-87297196D01*
X178923867Y-87149626D01*
X179049366Y-87024127D01*
X179196936Y-86925524D01*
X179360908Y-86857604D01*
X179510208Y-86827907D01*
X179534978Y-86822980D01*
X179712462Y-86822980D01*
X179737232Y-86827907D01*
X179737232Y-86827907D01*
G37*
G36*
X159417232Y-86827907D02*
G01*
X159566532Y-86857604D01*
X159730504Y-86925524D01*
X159878074Y-87024127D01*
X160003573Y-87149626D01*
X160102176Y-87297196D01*
X160170096Y-87461168D01*
X160191388Y-87568214D01*
X160204720Y-87635238D01*
X160204720Y-87812722D01*
X160204328Y-87814691D01*
X160170096Y-87986792D01*
X160102176Y-88150764D01*
X160003573Y-88298334D01*
X159878074Y-88423833D01*
X159730504Y-88522436D01*
X159566532Y-88590356D01*
X159417232Y-88620053D01*
X159392462Y-88624980D01*
X159214978Y-88624980D01*
X159190208Y-88620053D01*
X159040908Y-88590356D01*
X158876936Y-88522436D01*
X158729366Y-88423833D01*
X158603867Y-88298334D01*
X158505264Y-88150764D01*
X158437344Y-87986792D01*
X158403112Y-87814691D01*
X158402720Y-87812722D01*
X158402720Y-87635238D01*
X158416052Y-87568214D01*
X158437344Y-87461168D01*
X158505264Y-87297196D01*
X158603867Y-87149626D01*
X158729366Y-87024127D01*
X158876936Y-86925524D01*
X159040908Y-86857604D01*
X159190208Y-86827907D01*
X159214978Y-86822980D01*
X159392462Y-86822980D01*
X159417232Y-86827907D01*
X159417232Y-86827907D01*
G37*
G36*
X137230428Y-86176703D02*
G01*
X137385300Y-86240853D01*
X137524681Y-86333985D01*
X137643215Y-86452519D01*
X137736347Y-86591900D01*
X137800497Y-86746772D01*
X137833200Y-86911184D01*
X137833200Y-87078816D01*
X137800497Y-87243228D01*
X137736347Y-87398100D01*
X137643215Y-87537481D01*
X137524681Y-87656015D01*
X137385300Y-87749147D01*
X137230428Y-87813297D01*
X137066016Y-87846000D01*
X136898384Y-87846000D01*
X136733972Y-87813297D01*
X136579100Y-87749147D01*
X136439719Y-87656015D01*
X136321185Y-87537481D01*
X136228053Y-87398100D01*
X136163903Y-87243228D01*
X136131200Y-87078816D01*
X136131200Y-86911184D01*
X136163903Y-86746772D01*
X136228053Y-86591900D01*
X136321185Y-86452519D01*
X136439719Y-86333985D01*
X136579100Y-86240853D01*
X136733972Y-86176703D01*
X136898384Y-86144000D01*
X137066016Y-86144000D01*
X137230428Y-86176703D01*
X137230428Y-86176703D01*
G37*
G36*
X154301672Y-84267587D02*
G01*
X154450972Y-84297284D01*
X154614944Y-84365204D01*
X154762514Y-84463807D01*
X154888013Y-84589306D01*
X154986616Y-84736876D01*
X155054536Y-84900848D01*
X155089160Y-85074919D01*
X155089160Y-85252401D01*
X155054536Y-85426472D01*
X154986616Y-85590444D01*
X154888013Y-85738014D01*
X154762514Y-85863513D01*
X154614944Y-85962116D01*
X154450972Y-86030036D01*
X154301672Y-86059733D01*
X154276902Y-86064660D01*
X154099418Y-86064660D01*
X154074648Y-86059733D01*
X153925348Y-86030036D01*
X153761376Y-85962116D01*
X153613806Y-85863513D01*
X153488307Y-85738014D01*
X153389704Y-85590444D01*
X153321784Y-85426472D01*
X153287160Y-85252401D01*
X153287160Y-85074919D01*
X153321784Y-84900848D01*
X153389704Y-84736876D01*
X153488307Y-84589306D01*
X153613806Y-84463807D01*
X153761376Y-84365204D01*
X153925348Y-84297284D01*
X154074648Y-84267587D01*
X154099418Y-84262660D01*
X154276902Y-84262660D01*
X154301672Y-84267587D01*
X154301672Y-84267587D01*
G37*
G36*
X156841672Y-84267587D02*
G01*
X156990972Y-84297284D01*
X157154944Y-84365204D01*
X157302514Y-84463807D01*
X157428013Y-84589306D01*
X157526616Y-84736876D01*
X157594536Y-84900848D01*
X157629160Y-85074919D01*
X157629160Y-85252401D01*
X157594536Y-85426472D01*
X157526616Y-85590444D01*
X157428013Y-85738014D01*
X157302514Y-85863513D01*
X157154944Y-85962116D01*
X156990972Y-86030036D01*
X156841672Y-86059733D01*
X156816902Y-86064660D01*
X156639418Y-86064660D01*
X156614648Y-86059733D01*
X156465348Y-86030036D01*
X156301376Y-85962116D01*
X156153806Y-85863513D01*
X156028307Y-85738014D01*
X155929704Y-85590444D01*
X155861784Y-85426472D01*
X155827160Y-85252401D01*
X155827160Y-85074919D01*
X155861784Y-84900848D01*
X155929704Y-84736876D01*
X156028307Y-84589306D01*
X156153806Y-84463807D01*
X156301376Y-84365204D01*
X156465348Y-84297284D01*
X156614648Y-84267587D01*
X156639418Y-84262660D01*
X156816902Y-84262660D01*
X156841672Y-84267587D01*
X156841672Y-84267587D01*
G37*
G36*
X151761672Y-84267587D02*
G01*
X151910972Y-84297284D01*
X152074944Y-84365204D01*
X152222514Y-84463807D01*
X152348013Y-84589306D01*
X152446616Y-84736876D01*
X152514536Y-84900848D01*
X152549160Y-85074919D01*
X152549160Y-85252401D01*
X152514536Y-85426472D01*
X152446616Y-85590444D01*
X152348013Y-85738014D01*
X152222514Y-85863513D01*
X152074944Y-85962116D01*
X151910972Y-86030036D01*
X151761672Y-86059733D01*
X151736902Y-86064660D01*
X151559418Y-86064660D01*
X151534648Y-86059733D01*
X151385348Y-86030036D01*
X151221376Y-85962116D01*
X151073806Y-85863513D01*
X150948307Y-85738014D01*
X150849704Y-85590444D01*
X150781784Y-85426472D01*
X150747160Y-85252401D01*
X150747160Y-85074919D01*
X150781784Y-84900848D01*
X150849704Y-84736876D01*
X150948307Y-84589306D01*
X151073806Y-84463807D01*
X151221376Y-84365204D01*
X151385348Y-84297284D01*
X151534648Y-84267587D01*
X151559418Y-84262660D01*
X151736902Y-84262660D01*
X151761672Y-84267587D01*
X151761672Y-84267587D01*
G37*
G36*
X164461672Y-84267587D02*
G01*
X164610972Y-84297284D01*
X164774944Y-84365204D01*
X164922514Y-84463807D01*
X165048013Y-84589306D01*
X165146616Y-84736876D01*
X165214536Y-84900848D01*
X165249160Y-85074919D01*
X165249160Y-85252401D01*
X165214536Y-85426472D01*
X165146616Y-85590444D01*
X165048013Y-85738014D01*
X164922514Y-85863513D01*
X164774944Y-85962116D01*
X164610972Y-86030036D01*
X164461672Y-86059733D01*
X164436902Y-86064660D01*
X164259418Y-86064660D01*
X164234648Y-86059733D01*
X164085348Y-86030036D01*
X163921376Y-85962116D01*
X163773806Y-85863513D01*
X163648307Y-85738014D01*
X163549704Y-85590444D01*
X163481784Y-85426472D01*
X163447160Y-85252401D01*
X163447160Y-85074919D01*
X163481784Y-84900848D01*
X163549704Y-84736876D01*
X163648307Y-84589306D01*
X163773806Y-84463807D01*
X163921376Y-84365204D01*
X164085348Y-84297284D01*
X164234648Y-84267587D01*
X164259418Y-84262660D01*
X164436902Y-84262660D01*
X164461672Y-84267587D01*
X164461672Y-84267587D01*
G37*
G36*
X159381672Y-84267587D02*
G01*
X159530972Y-84297284D01*
X159694944Y-84365204D01*
X159842514Y-84463807D01*
X159968013Y-84589306D01*
X160066616Y-84736876D01*
X160134536Y-84900848D01*
X160169160Y-85074919D01*
X160169160Y-85252401D01*
X160134536Y-85426472D01*
X160066616Y-85590444D01*
X159968013Y-85738014D01*
X159842514Y-85863513D01*
X159694944Y-85962116D01*
X159530972Y-86030036D01*
X159381672Y-86059733D01*
X159356902Y-86064660D01*
X159179418Y-86064660D01*
X159154648Y-86059733D01*
X159005348Y-86030036D01*
X158841376Y-85962116D01*
X158693806Y-85863513D01*
X158568307Y-85738014D01*
X158469704Y-85590444D01*
X158401784Y-85426472D01*
X158367160Y-85252401D01*
X158367160Y-85074919D01*
X158401784Y-84900848D01*
X158469704Y-84736876D01*
X158568307Y-84589306D01*
X158693806Y-84463807D01*
X158841376Y-84365204D01*
X159005348Y-84297284D01*
X159154648Y-84267587D01*
X159179418Y-84262660D01*
X159356902Y-84262660D01*
X159381672Y-84267587D01*
X159381672Y-84267587D01*
G37*
G36*
X149221672Y-84267587D02*
G01*
X149370972Y-84297284D01*
X149534944Y-84365204D01*
X149682514Y-84463807D01*
X149808013Y-84589306D01*
X149906616Y-84736876D01*
X149974536Y-84900848D01*
X150009160Y-85074919D01*
X150009160Y-85252401D01*
X149974536Y-85426472D01*
X149906616Y-85590444D01*
X149808013Y-85738014D01*
X149682514Y-85863513D01*
X149534944Y-85962116D01*
X149370972Y-86030036D01*
X149221672Y-86059733D01*
X149196902Y-86064660D01*
X149019418Y-86064660D01*
X148994648Y-86059733D01*
X148845348Y-86030036D01*
X148681376Y-85962116D01*
X148533806Y-85863513D01*
X148408307Y-85738014D01*
X148309704Y-85590444D01*
X148241784Y-85426472D01*
X148207160Y-85252401D01*
X148207160Y-85074919D01*
X148241784Y-84900848D01*
X148309704Y-84736876D01*
X148408307Y-84589306D01*
X148533806Y-84463807D01*
X148681376Y-84365204D01*
X148845348Y-84297284D01*
X148994648Y-84267587D01*
X149019418Y-84262660D01*
X149196902Y-84262660D01*
X149221672Y-84267587D01*
X149221672Y-84267587D01*
G37*
G36*
X161921672Y-84267587D02*
G01*
X162070972Y-84297284D01*
X162234944Y-84365204D01*
X162382514Y-84463807D01*
X162508013Y-84589306D01*
X162606616Y-84736876D01*
X162674536Y-84900848D01*
X162709160Y-85074919D01*
X162709160Y-85252401D01*
X162674536Y-85426472D01*
X162606616Y-85590444D01*
X162508013Y-85738014D01*
X162382514Y-85863513D01*
X162234944Y-85962116D01*
X162070972Y-86030036D01*
X161921672Y-86059733D01*
X161896902Y-86064660D01*
X161719418Y-86064660D01*
X161694648Y-86059733D01*
X161545348Y-86030036D01*
X161381376Y-85962116D01*
X161233806Y-85863513D01*
X161108307Y-85738014D01*
X161009704Y-85590444D01*
X160941784Y-85426472D01*
X160907160Y-85252401D01*
X160907160Y-85074919D01*
X160941784Y-84900848D01*
X161009704Y-84736876D01*
X161108307Y-84589306D01*
X161233806Y-84463807D01*
X161381376Y-84365204D01*
X161545348Y-84297284D01*
X161694648Y-84267587D01*
X161719418Y-84262660D01*
X161896902Y-84262660D01*
X161921672Y-84267587D01*
X161921672Y-84267587D01*
G37*
G36*
X182241672Y-84267587D02*
G01*
X182390972Y-84297284D01*
X182554944Y-84365204D01*
X182702514Y-84463807D01*
X182828013Y-84589306D01*
X182926616Y-84736876D01*
X182994536Y-84900848D01*
X183029160Y-85074919D01*
X183029160Y-85252401D01*
X182994536Y-85426472D01*
X182926616Y-85590444D01*
X182828013Y-85738014D01*
X182702514Y-85863513D01*
X182554944Y-85962116D01*
X182390972Y-86030036D01*
X182241672Y-86059733D01*
X182216902Y-86064660D01*
X182039418Y-86064660D01*
X182014648Y-86059733D01*
X181865348Y-86030036D01*
X181701376Y-85962116D01*
X181553806Y-85863513D01*
X181428307Y-85738014D01*
X181329704Y-85590444D01*
X181261784Y-85426472D01*
X181227160Y-85252401D01*
X181227160Y-85074919D01*
X181261784Y-84900848D01*
X181329704Y-84736876D01*
X181428307Y-84589306D01*
X181553806Y-84463807D01*
X181701376Y-84365204D01*
X181865348Y-84297284D01*
X182014648Y-84267587D01*
X182039418Y-84262660D01*
X182216902Y-84262660D01*
X182241672Y-84267587D01*
X182241672Y-84267587D01*
G37*
G36*
X177161672Y-84267587D02*
G01*
X177310972Y-84297284D01*
X177474944Y-84365204D01*
X177622514Y-84463807D01*
X177748013Y-84589306D01*
X177846616Y-84736876D01*
X177914536Y-84900848D01*
X177949160Y-85074919D01*
X177949160Y-85252401D01*
X177914536Y-85426472D01*
X177846616Y-85590444D01*
X177748013Y-85738014D01*
X177622514Y-85863513D01*
X177474944Y-85962116D01*
X177310972Y-86030036D01*
X177161672Y-86059733D01*
X177136902Y-86064660D01*
X176959418Y-86064660D01*
X176934648Y-86059733D01*
X176785348Y-86030036D01*
X176621376Y-85962116D01*
X176473806Y-85863513D01*
X176348307Y-85738014D01*
X176249704Y-85590444D01*
X176181784Y-85426472D01*
X176147160Y-85252401D01*
X176147160Y-85074919D01*
X176181784Y-84900848D01*
X176249704Y-84736876D01*
X176348307Y-84589306D01*
X176473806Y-84463807D01*
X176621376Y-84365204D01*
X176785348Y-84297284D01*
X176934648Y-84267587D01*
X176959418Y-84262660D01*
X177136902Y-84262660D01*
X177161672Y-84267587D01*
X177161672Y-84267587D01*
G37*
G36*
X174621672Y-84267587D02*
G01*
X174770972Y-84297284D01*
X174934944Y-84365204D01*
X175082514Y-84463807D01*
X175208013Y-84589306D01*
X175306616Y-84736876D01*
X175374536Y-84900848D01*
X175409160Y-85074919D01*
X175409160Y-85252401D01*
X175374536Y-85426472D01*
X175306616Y-85590444D01*
X175208013Y-85738014D01*
X175082514Y-85863513D01*
X174934944Y-85962116D01*
X174770972Y-86030036D01*
X174621672Y-86059733D01*
X174596902Y-86064660D01*
X174419418Y-86064660D01*
X174394648Y-86059733D01*
X174245348Y-86030036D01*
X174081376Y-85962116D01*
X173933806Y-85863513D01*
X173808307Y-85738014D01*
X173709704Y-85590444D01*
X173641784Y-85426472D01*
X173607160Y-85252401D01*
X173607160Y-85074919D01*
X173641784Y-84900848D01*
X173709704Y-84736876D01*
X173808307Y-84589306D01*
X173933806Y-84463807D01*
X174081376Y-84365204D01*
X174245348Y-84297284D01*
X174394648Y-84267587D01*
X174419418Y-84262660D01*
X174596902Y-84262660D01*
X174621672Y-84267587D01*
X174621672Y-84267587D01*
G37*
G36*
X172081672Y-84267587D02*
G01*
X172230972Y-84297284D01*
X172394944Y-84365204D01*
X172542514Y-84463807D01*
X172668013Y-84589306D01*
X172766616Y-84736876D01*
X172834536Y-84900848D01*
X172869160Y-85074919D01*
X172869160Y-85252401D01*
X172834536Y-85426472D01*
X172766616Y-85590444D01*
X172668013Y-85738014D01*
X172542514Y-85863513D01*
X172394944Y-85962116D01*
X172230972Y-86030036D01*
X172081672Y-86059733D01*
X172056902Y-86064660D01*
X171879418Y-86064660D01*
X171854648Y-86059733D01*
X171705348Y-86030036D01*
X171541376Y-85962116D01*
X171393806Y-85863513D01*
X171268307Y-85738014D01*
X171169704Y-85590444D01*
X171101784Y-85426472D01*
X171067160Y-85252401D01*
X171067160Y-85074919D01*
X171101784Y-84900848D01*
X171169704Y-84736876D01*
X171268307Y-84589306D01*
X171393806Y-84463807D01*
X171541376Y-84365204D01*
X171705348Y-84297284D01*
X171854648Y-84267587D01*
X171879418Y-84262660D01*
X172056902Y-84262660D01*
X172081672Y-84267587D01*
X172081672Y-84267587D01*
G37*
G36*
X169541672Y-84267587D02*
G01*
X169690972Y-84297284D01*
X169854944Y-84365204D01*
X170002514Y-84463807D01*
X170128013Y-84589306D01*
X170226616Y-84736876D01*
X170294536Y-84900848D01*
X170329160Y-85074919D01*
X170329160Y-85252401D01*
X170294536Y-85426472D01*
X170226616Y-85590444D01*
X170128013Y-85738014D01*
X170002514Y-85863513D01*
X169854944Y-85962116D01*
X169690972Y-86030036D01*
X169541672Y-86059733D01*
X169516902Y-86064660D01*
X169339418Y-86064660D01*
X169314648Y-86059733D01*
X169165348Y-86030036D01*
X169001376Y-85962116D01*
X168853806Y-85863513D01*
X168728307Y-85738014D01*
X168629704Y-85590444D01*
X168561784Y-85426472D01*
X168527160Y-85252401D01*
X168527160Y-85074919D01*
X168561784Y-84900848D01*
X168629704Y-84736876D01*
X168728307Y-84589306D01*
X168853806Y-84463807D01*
X169001376Y-84365204D01*
X169165348Y-84297284D01*
X169314648Y-84267587D01*
X169339418Y-84262660D01*
X169516902Y-84262660D01*
X169541672Y-84267587D01*
X169541672Y-84267587D01*
G37*
G36*
X167001672Y-84267587D02*
G01*
X167150972Y-84297284D01*
X167314944Y-84365204D01*
X167462514Y-84463807D01*
X167588013Y-84589306D01*
X167686616Y-84736876D01*
X167754536Y-84900848D01*
X167789160Y-85074919D01*
X167789160Y-85252401D01*
X167754536Y-85426472D01*
X167686616Y-85590444D01*
X167588013Y-85738014D01*
X167462514Y-85863513D01*
X167314944Y-85962116D01*
X167150972Y-86030036D01*
X167001672Y-86059733D01*
X166976902Y-86064660D01*
X166799418Y-86064660D01*
X166774648Y-86059733D01*
X166625348Y-86030036D01*
X166461376Y-85962116D01*
X166313806Y-85863513D01*
X166188307Y-85738014D01*
X166089704Y-85590444D01*
X166021784Y-85426472D01*
X165987160Y-85252401D01*
X165987160Y-85074919D01*
X166021784Y-84900848D01*
X166089704Y-84736876D01*
X166188307Y-84589306D01*
X166313806Y-84463807D01*
X166461376Y-84365204D01*
X166625348Y-84297284D01*
X166774648Y-84267587D01*
X166799418Y-84262660D01*
X166976902Y-84262660D01*
X167001672Y-84267587D01*
X167001672Y-84267587D01*
G37*
G36*
X179701672Y-84267587D02*
G01*
X179850972Y-84297284D01*
X180014944Y-84365204D01*
X180162514Y-84463807D01*
X180288013Y-84589306D01*
X180386616Y-84736876D01*
X180454536Y-84900848D01*
X180489160Y-85074919D01*
X180489160Y-85252401D01*
X180454536Y-85426472D01*
X180386616Y-85590444D01*
X180288013Y-85738014D01*
X180162514Y-85863513D01*
X180014944Y-85962116D01*
X179850972Y-86030036D01*
X179701672Y-86059733D01*
X179676902Y-86064660D01*
X179499418Y-86064660D01*
X179474648Y-86059733D01*
X179325348Y-86030036D01*
X179161376Y-85962116D01*
X179013806Y-85863513D01*
X178888307Y-85738014D01*
X178789704Y-85590444D01*
X178721784Y-85426472D01*
X178687160Y-85252401D01*
X178687160Y-85074919D01*
X178721784Y-84900848D01*
X178789704Y-84736876D01*
X178888307Y-84589306D01*
X179013806Y-84463807D01*
X179161376Y-84365204D01*
X179325348Y-84297284D01*
X179474648Y-84267587D01*
X179499418Y-84262660D01*
X179676902Y-84262660D01*
X179701672Y-84267587D01*
X179701672Y-84267587D01*
G37*
G36*
X184781672Y-84267587D02*
G01*
X184930972Y-84297284D01*
X185094944Y-84365204D01*
X185242514Y-84463807D01*
X185368013Y-84589306D01*
X185466616Y-84736876D01*
X185534536Y-84900848D01*
X185569160Y-85074919D01*
X185569160Y-85252401D01*
X185534536Y-85426472D01*
X185466616Y-85590444D01*
X185368013Y-85738014D01*
X185242514Y-85863513D01*
X185094944Y-85962116D01*
X184930972Y-86030036D01*
X184781672Y-86059733D01*
X184756902Y-86064660D01*
X184579418Y-86064660D01*
X184554648Y-86059733D01*
X184405348Y-86030036D01*
X184241376Y-85962116D01*
X184093806Y-85863513D01*
X183968307Y-85738014D01*
X183869704Y-85590444D01*
X183801784Y-85426472D01*
X183767160Y-85252401D01*
X183767160Y-85074919D01*
X183801784Y-84900848D01*
X183869704Y-84736876D01*
X183968307Y-84589306D01*
X184093806Y-84463807D01*
X184241376Y-84365204D01*
X184405348Y-84297284D01*
X184554648Y-84267587D01*
X184579418Y-84262660D01*
X184756902Y-84262660D01*
X184781672Y-84267587D01*
X184781672Y-84267587D01*
G37*
G36*
X124007188Y-84289483D02*
G01*
X124162060Y-84353633D01*
X124301441Y-84446765D01*
X124419975Y-84565299D01*
X124513107Y-84704680D01*
X124577257Y-84859552D01*
X124609960Y-85023964D01*
X124609960Y-85191596D01*
X124577257Y-85356008D01*
X124513107Y-85510880D01*
X124419975Y-85650261D01*
X124301441Y-85768795D01*
X124162060Y-85861927D01*
X124007188Y-85926077D01*
X123842776Y-85958780D01*
X123675144Y-85958780D01*
X123510732Y-85926077D01*
X123355860Y-85861927D01*
X123216479Y-85768795D01*
X123097945Y-85650261D01*
X123004813Y-85510880D01*
X122940663Y-85356008D01*
X122907960Y-85191596D01*
X122907960Y-85023964D01*
X122940663Y-84859552D01*
X123004813Y-84704680D01*
X123097945Y-84565299D01*
X123216479Y-84446765D01*
X123355860Y-84353633D01*
X123510732Y-84289483D01*
X123675144Y-84256780D01*
X123842776Y-84256780D01*
X124007188Y-84289483D01*
X124007188Y-84289483D01*
G37*
G36*
X134085783Y-84269093D02*
G01*
X134246202Y-84317756D01*
X134313321Y-84353632D01*
X134394038Y-84396776D01*
X134523619Y-84503121D01*
X134629964Y-84632702D01*
X134629965Y-84632704D01*
X134708984Y-84780538D01*
X134757647Y-84940957D01*
X134774077Y-85107780D01*
X134757647Y-85274603D01*
X134708984Y-85435022D01*
X134668437Y-85510880D01*
X134629964Y-85582858D01*
X134523619Y-85712439D01*
X134394038Y-85818784D01*
X134394036Y-85818785D01*
X134246202Y-85897804D01*
X134085783Y-85946467D01*
X133960764Y-85958780D01*
X133877156Y-85958780D01*
X133752137Y-85946467D01*
X133591718Y-85897804D01*
X133443884Y-85818785D01*
X133443882Y-85818784D01*
X133314301Y-85712439D01*
X133207956Y-85582858D01*
X133169483Y-85510880D01*
X133128936Y-85435022D01*
X133080273Y-85274603D01*
X133063843Y-85107780D01*
X133080273Y-84940957D01*
X133128936Y-84780538D01*
X133207955Y-84632704D01*
X133207956Y-84632702D01*
X133314301Y-84503121D01*
X133443882Y-84396776D01*
X133524599Y-84353632D01*
X133591718Y-84317756D01*
X133752137Y-84269093D01*
X133877156Y-84256780D01*
X133960764Y-84256780D01*
X134085783Y-84269093D01*
X134085783Y-84269093D01*
G37*
G36*
X118920817Y-80647758D02*
G01*
X118995070Y-80678515D01*
X119069321Y-80709270D01*
X119069322Y-80709271D01*
X119202967Y-80798569D01*
X119316631Y-80912233D01*
X119383605Y-81012467D01*
X119405930Y-81045879D01*
X119467442Y-81194383D01*
X119498800Y-81352030D01*
X119498800Y-81512770D01*
X119467442Y-81670417D01*
X119405930Y-81818921D01*
X119405929Y-81818922D01*
X119316631Y-81952567D01*
X119202967Y-82066231D01*
X119102733Y-82133205D01*
X119069321Y-82155530D01*
X118995070Y-82186285D01*
X118920817Y-82217042D01*
X118763170Y-82248400D01*
X118602430Y-82248400D01*
X118444783Y-82217042D01*
X118370530Y-82186285D01*
X118296279Y-82155530D01*
X118262867Y-82133205D01*
X118162633Y-82066231D01*
X118048969Y-81952567D01*
X117959671Y-81818922D01*
X117959670Y-81818921D01*
X117898158Y-81670417D01*
X117866800Y-81512770D01*
X117866800Y-81352030D01*
X117898158Y-81194383D01*
X117959670Y-81045879D01*
X117981995Y-81012467D01*
X118048969Y-80912233D01*
X118162633Y-80798569D01*
X118296278Y-80709271D01*
X118296279Y-80709270D01*
X118370530Y-80678515D01*
X118444783Y-80647758D01*
X118602430Y-80616400D01*
X118763170Y-80616400D01*
X118920817Y-80647758D01*
X118920817Y-80647758D01*
G37*
G36*
X80820817Y-80647758D02*
G01*
X80895070Y-80678515D01*
X80969321Y-80709270D01*
X80969322Y-80709271D01*
X81102967Y-80798569D01*
X81216631Y-80912233D01*
X81283605Y-81012467D01*
X81305930Y-81045879D01*
X81367442Y-81194383D01*
X81398800Y-81352030D01*
X81398800Y-81512770D01*
X81367442Y-81670417D01*
X81305930Y-81818921D01*
X81305929Y-81818922D01*
X81216631Y-81952567D01*
X81102967Y-82066231D01*
X81002733Y-82133205D01*
X80969321Y-82155530D01*
X80895070Y-82186285D01*
X80820817Y-82217042D01*
X80663170Y-82248400D01*
X80502430Y-82248400D01*
X80344783Y-82217042D01*
X80270530Y-82186285D01*
X80196279Y-82155530D01*
X80162867Y-82133205D01*
X80062633Y-82066231D01*
X79948969Y-81952567D01*
X79859671Y-81818922D01*
X79859670Y-81818921D01*
X79798158Y-81670417D01*
X79766800Y-81512770D01*
X79766800Y-81352030D01*
X79798158Y-81194383D01*
X79859670Y-81045879D01*
X79881995Y-81012467D01*
X79948969Y-80912233D01*
X80062633Y-80798569D01*
X80196278Y-80709271D01*
X80196279Y-80709270D01*
X80270530Y-80678515D01*
X80344783Y-80647758D01*
X80502430Y-80616400D01*
X80663170Y-80616400D01*
X80820817Y-80647758D01*
X80820817Y-80647758D01*
G37*
G36*
X116380817Y-80647758D02*
G01*
X116455070Y-80678515D01*
X116529321Y-80709270D01*
X116529322Y-80709271D01*
X116662967Y-80798569D01*
X116776631Y-80912233D01*
X116843605Y-81012467D01*
X116865930Y-81045879D01*
X116927442Y-81194383D01*
X116958800Y-81352030D01*
X116958800Y-81512770D01*
X116927442Y-81670417D01*
X116865930Y-81818921D01*
X116865929Y-81818922D01*
X116776631Y-81952567D01*
X116662967Y-82066231D01*
X116562733Y-82133205D01*
X116529321Y-82155530D01*
X116455070Y-82186285D01*
X116380817Y-82217042D01*
X116223170Y-82248400D01*
X116062430Y-82248400D01*
X115904783Y-82217042D01*
X115830530Y-82186285D01*
X115756279Y-82155530D01*
X115722867Y-82133205D01*
X115622633Y-82066231D01*
X115508969Y-81952567D01*
X115419671Y-81818922D01*
X115419670Y-81818921D01*
X115358158Y-81670417D01*
X115326800Y-81512770D01*
X115326800Y-81352030D01*
X115358158Y-81194383D01*
X115419670Y-81045879D01*
X115441995Y-81012467D01*
X115508969Y-80912233D01*
X115622633Y-80798569D01*
X115756278Y-80709271D01*
X115756279Y-80709270D01*
X115830530Y-80678515D01*
X115904783Y-80647758D01*
X116062430Y-80616400D01*
X116223170Y-80616400D01*
X116380817Y-80647758D01*
X116380817Y-80647758D01*
G37*
G36*
X113840817Y-80647758D02*
G01*
X113915070Y-80678515D01*
X113989321Y-80709270D01*
X113989322Y-80709271D01*
X114122967Y-80798569D01*
X114236631Y-80912233D01*
X114303605Y-81012467D01*
X114325930Y-81045879D01*
X114387442Y-81194383D01*
X114418800Y-81352030D01*
X114418800Y-81512770D01*
X114387442Y-81670417D01*
X114325930Y-81818921D01*
X114325929Y-81818922D01*
X114236631Y-81952567D01*
X114122967Y-82066231D01*
X114022733Y-82133205D01*
X113989321Y-82155530D01*
X113915070Y-82186285D01*
X113840817Y-82217042D01*
X113683170Y-82248400D01*
X113522430Y-82248400D01*
X113364783Y-82217042D01*
X113290530Y-82186285D01*
X113216279Y-82155530D01*
X113182867Y-82133205D01*
X113082633Y-82066231D01*
X112968969Y-81952567D01*
X112879671Y-81818922D01*
X112879670Y-81818921D01*
X112818158Y-81670417D01*
X112786800Y-81512770D01*
X112786800Y-81352030D01*
X112818158Y-81194383D01*
X112879670Y-81045879D01*
X112901995Y-81012467D01*
X112968969Y-80912233D01*
X113082633Y-80798569D01*
X113216278Y-80709271D01*
X113216279Y-80709270D01*
X113290530Y-80678515D01*
X113364783Y-80647758D01*
X113522430Y-80616400D01*
X113683170Y-80616400D01*
X113840817Y-80647758D01*
X113840817Y-80647758D01*
G37*
G36*
X111300817Y-80647758D02*
G01*
X111375070Y-80678515D01*
X111449321Y-80709270D01*
X111449322Y-80709271D01*
X111582967Y-80798569D01*
X111696631Y-80912233D01*
X111763605Y-81012467D01*
X111785930Y-81045879D01*
X111847442Y-81194383D01*
X111878800Y-81352030D01*
X111878800Y-81512770D01*
X111847442Y-81670417D01*
X111785930Y-81818921D01*
X111785929Y-81818922D01*
X111696631Y-81952567D01*
X111582967Y-82066231D01*
X111482733Y-82133205D01*
X111449321Y-82155530D01*
X111375070Y-82186285D01*
X111300817Y-82217042D01*
X111143170Y-82248400D01*
X110982430Y-82248400D01*
X110824783Y-82217042D01*
X110750530Y-82186285D01*
X110676279Y-82155530D01*
X110642867Y-82133205D01*
X110542633Y-82066231D01*
X110428969Y-81952567D01*
X110339671Y-81818922D01*
X110339670Y-81818921D01*
X110278158Y-81670417D01*
X110246800Y-81512770D01*
X110246800Y-81352030D01*
X110278158Y-81194383D01*
X110339670Y-81045879D01*
X110361995Y-81012467D01*
X110428969Y-80912233D01*
X110542633Y-80798569D01*
X110676278Y-80709271D01*
X110676279Y-80709270D01*
X110750530Y-80678515D01*
X110824783Y-80647758D01*
X110982430Y-80616400D01*
X111143170Y-80616400D01*
X111300817Y-80647758D01*
X111300817Y-80647758D01*
G37*
G36*
X108760817Y-80647758D02*
G01*
X108835070Y-80678515D01*
X108909321Y-80709270D01*
X108909322Y-80709271D01*
X109042967Y-80798569D01*
X109156631Y-80912233D01*
X109223605Y-81012467D01*
X109245930Y-81045879D01*
X109307442Y-81194383D01*
X109338800Y-81352030D01*
X109338800Y-81512770D01*
X109307442Y-81670417D01*
X109245930Y-81818921D01*
X109245929Y-81818922D01*
X109156631Y-81952567D01*
X109042967Y-82066231D01*
X108942733Y-82133205D01*
X108909321Y-82155530D01*
X108835070Y-82186285D01*
X108760817Y-82217042D01*
X108603170Y-82248400D01*
X108442430Y-82248400D01*
X108284783Y-82217042D01*
X108210530Y-82186285D01*
X108136279Y-82155530D01*
X108102867Y-82133205D01*
X108002633Y-82066231D01*
X107888969Y-81952567D01*
X107799671Y-81818922D01*
X107799670Y-81818921D01*
X107738158Y-81670417D01*
X107706800Y-81512770D01*
X107706800Y-81352030D01*
X107738158Y-81194383D01*
X107799670Y-81045879D01*
X107821995Y-81012467D01*
X107888969Y-80912233D01*
X108002633Y-80798569D01*
X108136278Y-80709271D01*
X108136279Y-80709270D01*
X108210530Y-80678515D01*
X108284783Y-80647758D01*
X108442430Y-80616400D01*
X108603170Y-80616400D01*
X108760817Y-80647758D01*
X108760817Y-80647758D01*
G37*
G36*
X106220817Y-80647758D02*
G01*
X106295070Y-80678515D01*
X106369321Y-80709270D01*
X106369322Y-80709271D01*
X106502967Y-80798569D01*
X106616631Y-80912233D01*
X106683605Y-81012467D01*
X106705930Y-81045879D01*
X106767442Y-81194383D01*
X106798800Y-81352030D01*
X106798800Y-81512770D01*
X106767442Y-81670417D01*
X106705930Y-81818921D01*
X106705929Y-81818922D01*
X106616631Y-81952567D01*
X106502967Y-82066231D01*
X106402733Y-82133205D01*
X106369321Y-82155530D01*
X106295070Y-82186285D01*
X106220817Y-82217042D01*
X106063170Y-82248400D01*
X105902430Y-82248400D01*
X105744783Y-82217042D01*
X105670530Y-82186285D01*
X105596279Y-82155530D01*
X105562867Y-82133205D01*
X105462633Y-82066231D01*
X105348969Y-81952567D01*
X105259671Y-81818922D01*
X105259670Y-81818921D01*
X105198158Y-81670417D01*
X105166800Y-81512770D01*
X105166800Y-81352030D01*
X105198158Y-81194383D01*
X105259670Y-81045879D01*
X105281995Y-81012467D01*
X105348969Y-80912233D01*
X105462633Y-80798569D01*
X105596278Y-80709271D01*
X105596279Y-80709270D01*
X105670530Y-80678515D01*
X105744783Y-80647758D01*
X105902430Y-80616400D01*
X106063170Y-80616400D01*
X106220817Y-80647758D01*
X106220817Y-80647758D01*
G37*
G36*
X103680817Y-80647758D02*
G01*
X103755070Y-80678515D01*
X103829321Y-80709270D01*
X103829322Y-80709271D01*
X103962967Y-80798569D01*
X104076631Y-80912233D01*
X104143605Y-81012467D01*
X104165930Y-81045879D01*
X104227442Y-81194383D01*
X104258800Y-81352030D01*
X104258800Y-81512770D01*
X104227442Y-81670417D01*
X104165930Y-81818921D01*
X104165929Y-81818922D01*
X104076631Y-81952567D01*
X103962967Y-82066231D01*
X103862733Y-82133205D01*
X103829321Y-82155530D01*
X103755070Y-82186285D01*
X103680817Y-82217042D01*
X103523170Y-82248400D01*
X103362430Y-82248400D01*
X103204783Y-82217042D01*
X103130530Y-82186285D01*
X103056279Y-82155530D01*
X103022867Y-82133205D01*
X102922633Y-82066231D01*
X102808969Y-81952567D01*
X102719671Y-81818922D01*
X102719670Y-81818921D01*
X102658158Y-81670417D01*
X102626800Y-81512770D01*
X102626800Y-81352030D01*
X102658158Y-81194383D01*
X102719670Y-81045879D01*
X102741995Y-81012467D01*
X102808969Y-80912233D01*
X102922633Y-80798569D01*
X103056278Y-80709271D01*
X103056279Y-80709270D01*
X103130530Y-80678515D01*
X103204783Y-80647758D01*
X103362430Y-80616400D01*
X103523170Y-80616400D01*
X103680817Y-80647758D01*
X103680817Y-80647758D01*
G37*
G36*
X101140817Y-80647758D02*
G01*
X101215070Y-80678515D01*
X101289321Y-80709270D01*
X101289322Y-80709271D01*
X101422967Y-80798569D01*
X101536631Y-80912233D01*
X101603605Y-81012467D01*
X101625930Y-81045879D01*
X101687442Y-81194383D01*
X101718800Y-81352030D01*
X101718800Y-81512770D01*
X101687442Y-81670417D01*
X101625930Y-81818921D01*
X101625929Y-81818922D01*
X101536631Y-81952567D01*
X101422967Y-82066231D01*
X101322733Y-82133205D01*
X101289321Y-82155530D01*
X101215070Y-82186285D01*
X101140817Y-82217042D01*
X100983170Y-82248400D01*
X100822430Y-82248400D01*
X100664783Y-82217042D01*
X100590530Y-82186285D01*
X100516279Y-82155530D01*
X100482867Y-82133205D01*
X100382633Y-82066231D01*
X100268969Y-81952567D01*
X100179671Y-81818922D01*
X100179670Y-81818921D01*
X100118158Y-81670417D01*
X100086800Y-81512770D01*
X100086800Y-81352030D01*
X100118158Y-81194383D01*
X100179670Y-81045879D01*
X100201995Y-81012467D01*
X100268969Y-80912233D01*
X100382633Y-80798569D01*
X100516278Y-80709271D01*
X100516279Y-80709270D01*
X100590530Y-80678515D01*
X100664783Y-80647758D01*
X100822430Y-80616400D01*
X100983170Y-80616400D01*
X101140817Y-80647758D01*
X101140817Y-80647758D01*
G37*
G36*
X98600817Y-80647758D02*
G01*
X98675070Y-80678515D01*
X98749321Y-80709270D01*
X98749322Y-80709271D01*
X98882967Y-80798569D01*
X98996631Y-80912233D01*
X99063605Y-81012467D01*
X99085930Y-81045879D01*
X99147442Y-81194383D01*
X99178800Y-81352030D01*
X99178800Y-81512770D01*
X99147442Y-81670417D01*
X99085930Y-81818921D01*
X99085929Y-81818922D01*
X98996631Y-81952567D01*
X98882967Y-82066231D01*
X98782733Y-82133205D01*
X98749321Y-82155530D01*
X98675070Y-82186285D01*
X98600817Y-82217042D01*
X98443170Y-82248400D01*
X98282430Y-82248400D01*
X98124783Y-82217042D01*
X98050530Y-82186285D01*
X97976279Y-82155530D01*
X97942867Y-82133205D01*
X97842633Y-82066231D01*
X97728969Y-81952567D01*
X97639671Y-81818922D01*
X97639670Y-81818921D01*
X97578158Y-81670417D01*
X97546800Y-81512770D01*
X97546800Y-81352030D01*
X97578158Y-81194383D01*
X97639670Y-81045879D01*
X97661995Y-81012467D01*
X97728969Y-80912233D01*
X97842633Y-80798569D01*
X97976278Y-80709271D01*
X97976279Y-80709270D01*
X98050530Y-80678515D01*
X98124783Y-80647758D01*
X98282430Y-80616400D01*
X98443170Y-80616400D01*
X98600817Y-80647758D01*
X98600817Y-80647758D01*
G37*
G36*
X96060817Y-80647758D02*
G01*
X96135070Y-80678515D01*
X96209321Y-80709270D01*
X96209322Y-80709271D01*
X96342967Y-80798569D01*
X96456631Y-80912233D01*
X96523605Y-81012467D01*
X96545930Y-81045879D01*
X96607442Y-81194383D01*
X96638800Y-81352030D01*
X96638800Y-81512770D01*
X96607442Y-81670417D01*
X96545930Y-81818921D01*
X96545929Y-81818922D01*
X96456631Y-81952567D01*
X96342967Y-82066231D01*
X96242733Y-82133205D01*
X96209321Y-82155530D01*
X96135070Y-82186285D01*
X96060817Y-82217042D01*
X95903170Y-82248400D01*
X95742430Y-82248400D01*
X95584783Y-82217042D01*
X95510530Y-82186285D01*
X95436279Y-82155530D01*
X95402867Y-82133205D01*
X95302633Y-82066231D01*
X95188969Y-81952567D01*
X95099671Y-81818922D01*
X95099670Y-81818921D01*
X95038158Y-81670417D01*
X95006800Y-81512770D01*
X95006800Y-81352030D01*
X95038158Y-81194383D01*
X95099670Y-81045879D01*
X95121995Y-81012467D01*
X95188969Y-80912233D01*
X95302633Y-80798569D01*
X95436278Y-80709271D01*
X95436279Y-80709270D01*
X95510530Y-80678515D01*
X95584783Y-80647758D01*
X95742430Y-80616400D01*
X95903170Y-80616400D01*
X96060817Y-80647758D01*
X96060817Y-80647758D01*
G37*
G36*
X124000817Y-80647758D02*
G01*
X124075070Y-80678515D01*
X124149321Y-80709270D01*
X124149322Y-80709271D01*
X124282967Y-80798569D01*
X124396631Y-80912233D01*
X124463605Y-81012467D01*
X124485930Y-81045879D01*
X124547442Y-81194383D01*
X124578800Y-81352030D01*
X124578800Y-81512770D01*
X124547442Y-81670417D01*
X124485930Y-81818921D01*
X124485929Y-81818922D01*
X124396631Y-81952567D01*
X124282967Y-82066231D01*
X124182733Y-82133205D01*
X124149321Y-82155530D01*
X124075070Y-82186285D01*
X124000817Y-82217042D01*
X123843170Y-82248400D01*
X123682430Y-82248400D01*
X123524783Y-82217042D01*
X123450530Y-82186285D01*
X123376279Y-82155530D01*
X123342867Y-82133205D01*
X123242633Y-82066231D01*
X123128969Y-81952567D01*
X123039671Y-81818922D01*
X123039670Y-81818921D01*
X122978158Y-81670417D01*
X122946800Y-81512770D01*
X122946800Y-81352030D01*
X122978158Y-81194383D01*
X123039670Y-81045879D01*
X123061995Y-81012467D01*
X123128969Y-80912233D01*
X123242633Y-80798569D01*
X123376278Y-80709271D01*
X123376279Y-80709270D01*
X123450530Y-80678515D01*
X123524783Y-80647758D01*
X123682430Y-80616400D01*
X123843170Y-80616400D01*
X124000817Y-80647758D01*
X124000817Y-80647758D01*
G37*
G36*
X93520817Y-80647758D02*
G01*
X93595070Y-80678515D01*
X93669321Y-80709270D01*
X93669322Y-80709271D01*
X93802967Y-80798569D01*
X93916631Y-80912233D01*
X93983605Y-81012467D01*
X94005930Y-81045879D01*
X94067442Y-81194383D01*
X94098800Y-81352030D01*
X94098800Y-81512770D01*
X94067442Y-81670417D01*
X94005930Y-81818921D01*
X94005929Y-81818922D01*
X93916631Y-81952567D01*
X93802967Y-82066231D01*
X93702733Y-82133205D01*
X93669321Y-82155530D01*
X93595070Y-82186285D01*
X93520817Y-82217042D01*
X93363170Y-82248400D01*
X93202430Y-82248400D01*
X93044783Y-82217042D01*
X92970530Y-82186285D01*
X92896279Y-82155530D01*
X92862867Y-82133205D01*
X92762633Y-82066231D01*
X92648969Y-81952567D01*
X92559671Y-81818922D01*
X92559670Y-81818921D01*
X92498158Y-81670417D01*
X92466800Y-81512770D01*
X92466800Y-81352030D01*
X92498158Y-81194383D01*
X92559670Y-81045879D01*
X92581995Y-81012467D01*
X92648969Y-80912233D01*
X92762633Y-80798569D01*
X92896278Y-80709271D01*
X92896279Y-80709270D01*
X92970530Y-80678515D01*
X93044783Y-80647758D01*
X93202430Y-80616400D01*
X93363170Y-80616400D01*
X93520817Y-80647758D01*
X93520817Y-80647758D01*
G37*
G36*
X126540817Y-80647758D02*
G01*
X126615070Y-80678515D01*
X126689321Y-80709270D01*
X126689322Y-80709271D01*
X126822967Y-80798569D01*
X126936631Y-80912233D01*
X127003605Y-81012467D01*
X127025930Y-81045879D01*
X127087442Y-81194383D01*
X127118800Y-81352030D01*
X127118800Y-81512770D01*
X127087442Y-81670417D01*
X127025930Y-81818921D01*
X127025929Y-81818922D01*
X126936631Y-81952567D01*
X126822967Y-82066231D01*
X126722733Y-82133205D01*
X126689321Y-82155530D01*
X126615070Y-82186285D01*
X126540817Y-82217042D01*
X126383170Y-82248400D01*
X126222430Y-82248400D01*
X126064783Y-82217042D01*
X125990530Y-82186285D01*
X125916279Y-82155530D01*
X125882867Y-82133205D01*
X125782633Y-82066231D01*
X125668969Y-81952567D01*
X125579671Y-81818922D01*
X125579670Y-81818921D01*
X125518158Y-81670417D01*
X125486800Y-81512770D01*
X125486800Y-81352030D01*
X125518158Y-81194383D01*
X125579670Y-81045879D01*
X125601995Y-81012467D01*
X125668969Y-80912233D01*
X125782633Y-80798569D01*
X125916278Y-80709271D01*
X125916279Y-80709270D01*
X125990530Y-80678515D01*
X126064783Y-80647758D01*
X126222430Y-80616400D01*
X126383170Y-80616400D01*
X126540817Y-80647758D01*
X126540817Y-80647758D01*
G37*
G36*
X83360817Y-80647758D02*
G01*
X83435070Y-80678515D01*
X83509321Y-80709270D01*
X83509322Y-80709271D01*
X83642967Y-80798569D01*
X83756631Y-80912233D01*
X83823605Y-81012467D01*
X83845930Y-81045879D01*
X83907442Y-81194383D01*
X83938800Y-81352030D01*
X83938800Y-81512770D01*
X83907442Y-81670417D01*
X83845930Y-81818921D01*
X83845929Y-81818922D01*
X83756631Y-81952567D01*
X83642967Y-82066231D01*
X83542733Y-82133205D01*
X83509321Y-82155530D01*
X83435070Y-82186285D01*
X83360817Y-82217042D01*
X83203170Y-82248400D01*
X83042430Y-82248400D01*
X82884783Y-82217042D01*
X82810530Y-82186285D01*
X82736279Y-82155530D01*
X82702867Y-82133205D01*
X82602633Y-82066231D01*
X82488969Y-81952567D01*
X82399671Y-81818922D01*
X82399670Y-81818921D01*
X82338158Y-81670417D01*
X82306800Y-81512770D01*
X82306800Y-81352030D01*
X82338158Y-81194383D01*
X82399670Y-81045879D01*
X82421995Y-81012467D01*
X82488969Y-80912233D01*
X82602633Y-80798569D01*
X82736278Y-80709271D01*
X82736279Y-80709270D01*
X82810530Y-80678515D01*
X82884783Y-80647758D01*
X83042430Y-80616400D01*
X83203170Y-80616400D01*
X83360817Y-80647758D01*
X83360817Y-80647758D01*
G37*
G36*
X90980817Y-80647758D02*
G01*
X91055070Y-80678515D01*
X91129321Y-80709270D01*
X91129322Y-80709271D01*
X91262967Y-80798569D01*
X91376631Y-80912233D01*
X91443605Y-81012467D01*
X91465930Y-81045879D01*
X91527442Y-81194383D01*
X91558800Y-81352030D01*
X91558800Y-81512770D01*
X91527442Y-81670417D01*
X91465930Y-81818921D01*
X91465929Y-81818922D01*
X91376631Y-81952567D01*
X91262967Y-82066231D01*
X91162733Y-82133205D01*
X91129321Y-82155530D01*
X91055070Y-82186285D01*
X90980817Y-82217042D01*
X90823170Y-82248400D01*
X90662430Y-82248400D01*
X90504783Y-82217042D01*
X90430530Y-82186285D01*
X90356279Y-82155530D01*
X90322867Y-82133205D01*
X90222633Y-82066231D01*
X90108969Y-81952567D01*
X90019671Y-81818922D01*
X90019670Y-81818921D01*
X89958158Y-81670417D01*
X89926800Y-81512770D01*
X89926800Y-81352030D01*
X89958158Y-81194383D01*
X90019670Y-81045879D01*
X90041995Y-81012467D01*
X90108969Y-80912233D01*
X90222633Y-80798569D01*
X90356278Y-80709271D01*
X90356279Y-80709270D01*
X90430530Y-80678515D01*
X90504783Y-80647758D01*
X90662430Y-80616400D01*
X90823170Y-80616400D01*
X90980817Y-80647758D01*
X90980817Y-80647758D01*
G37*
G36*
X88440817Y-80647758D02*
G01*
X88515070Y-80678515D01*
X88589321Y-80709270D01*
X88589322Y-80709271D01*
X88722967Y-80798569D01*
X88836631Y-80912233D01*
X88903605Y-81012467D01*
X88925930Y-81045879D01*
X88987442Y-81194383D01*
X89018800Y-81352030D01*
X89018800Y-81512770D01*
X88987442Y-81670417D01*
X88925930Y-81818921D01*
X88925929Y-81818922D01*
X88836631Y-81952567D01*
X88722967Y-82066231D01*
X88622733Y-82133205D01*
X88589321Y-82155530D01*
X88515070Y-82186285D01*
X88440817Y-82217042D01*
X88283170Y-82248400D01*
X88122430Y-82248400D01*
X87964783Y-82217042D01*
X87890530Y-82186285D01*
X87816279Y-82155530D01*
X87782867Y-82133205D01*
X87682633Y-82066231D01*
X87568969Y-81952567D01*
X87479671Y-81818922D01*
X87479670Y-81818921D01*
X87418158Y-81670417D01*
X87386800Y-81512770D01*
X87386800Y-81352030D01*
X87418158Y-81194383D01*
X87479670Y-81045879D01*
X87501995Y-81012467D01*
X87568969Y-80912233D01*
X87682633Y-80798569D01*
X87816278Y-80709271D01*
X87816279Y-80709270D01*
X87890530Y-80678515D01*
X87964783Y-80647758D01*
X88122430Y-80616400D01*
X88283170Y-80616400D01*
X88440817Y-80647758D01*
X88440817Y-80647758D01*
G37*
G36*
X85900817Y-80647758D02*
G01*
X85975070Y-80678515D01*
X86049321Y-80709270D01*
X86049322Y-80709271D01*
X86182967Y-80798569D01*
X86296631Y-80912233D01*
X86363605Y-81012467D01*
X86385930Y-81045879D01*
X86447442Y-81194383D01*
X86478800Y-81352030D01*
X86478800Y-81512770D01*
X86447442Y-81670417D01*
X86385930Y-81818921D01*
X86385929Y-81818922D01*
X86296631Y-81952567D01*
X86182967Y-82066231D01*
X86082733Y-82133205D01*
X86049321Y-82155530D01*
X85975070Y-82186285D01*
X85900817Y-82217042D01*
X85743170Y-82248400D01*
X85582430Y-82248400D01*
X85424783Y-82217042D01*
X85350530Y-82186285D01*
X85276279Y-82155530D01*
X85242867Y-82133205D01*
X85142633Y-82066231D01*
X85028969Y-81952567D01*
X84939671Y-81818922D01*
X84939670Y-81818921D01*
X84878158Y-81670417D01*
X84846800Y-81512770D01*
X84846800Y-81352030D01*
X84878158Y-81194383D01*
X84939670Y-81045879D01*
X84961995Y-81012467D01*
X85028969Y-80912233D01*
X85142633Y-80798569D01*
X85276278Y-80709271D01*
X85276279Y-80709270D01*
X85350530Y-80678515D01*
X85424783Y-80647758D01*
X85582430Y-80616400D01*
X85743170Y-80616400D01*
X85900817Y-80647758D01*
X85900817Y-80647758D01*
G37*
G36*
X68120817Y-80647758D02*
G01*
X68195070Y-80678515D01*
X68269321Y-80709270D01*
X68269322Y-80709271D01*
X68402967Y-80798569D01*
X68516631Y-80912233D01*
X68583605Y-81012467D01*
X68605930Y-81045879D01*
X68667442Y-81194383D01*
X68698800Y-81352030D01*
X68698800Y-81512770D01*
X68667442Y-81670417D01*
X68605930Y-81818921D01*
X68605929Y-81818922D01*
X68516631Y-81952567D01*
X68402967Y-82066231D01*
X68302733Y-82133205D01*
X68269321Y-82155530D01*
X68195070Y-82186285D01*
X68120817Y-82217042D01*
X67963170Y-82248400D01*
X67802430Y-82248400D01*
X67644783Y-82217042D01*
X67570530Y-82186285D01*
X67496279Y-82155530D01*
X67462867Y-82133205D01*
X67362633Y-82066231D01*
X67248969Y-81952567D01*
X67159671Y-81818922D01*
X67159670Y-81818921D01*
X67098158Y-81670417D01*
X67066800Y-81512770D01*
X67066800Y-81352030D01*
X67098158Y-81194383D01*
X67159670Y-81045879D01*
X67181995Y-81012467D01*
X67248969Y-80912233D01*
X67362633Y-80798569D01*
X67496278Y-80709271D01*
X67496279Y-80709270D01*
X67570530Y-80678515D01*
X67644783Y-80647758D01*
X67802430Y-80616400D01*
X67963170Y-80616400D01*
X68120817Y-80647758D01*
X68120817Y-80647758D01*
G37*
G36*
X70660817Y-80647758D02*
G01*
X70735070Y-80678515D01*
X70809321Y-80709270D01*
X70809322Y-80709271D01*
X70942967Y-80798569D01*
X71056631Y-80912233D01*
X71123605Y-81012467D01*
X71145930Y-81045879D01*
X71207442Y-81194383D01*
X71238800Y-81352030D01*
X71238800Y-81512770D01*
X71207442Y-81670417D01*
X71145930Y-81818921D01*
X71145929Y-81818922D01*
X71056631Y-81952567D01*
X70942967Y-82066231D01*
X70842733Y-82133205D01*
X70809321Y-82155530D01*
X70735070Y-82186285D01*
X70660817Y-82217042D01*
X70503170Y-82248400D01*
X70342430Y-82248400D01*
X70184783Y-82217042D01*
X70110530Y-82186285D01*
X70036279Y-82155530D01*
X70002867Y-82133205D01*
X69902633Y-82066231D01*
X69788969Y-81952567D01*
X69699671Y-81818922D01*
X69699670Y-81818921D01*
X69638158Y-81670417D01*
X69606800Y-81512770D01*
X69606800Y-81352030D01*
X69638158Y-81194383D01*
X69699670Y-81045879D01*
X69721995Y-81012467D01*
X69788969Y-80912233D01*
X69902633Y-80798569D01*
X70036278Y-80709271D01*
X70036279Y-80709270D01*
X70110530Y-80678515D01*
X70184783Y-80647758D01*
X70342430Y-80616400D01*
X70503170Y-80616400D01*
X70660817Y-80647758D01*
X70660817Y-80647758D01*
G37*
G36*
X73200817Y-80647758D02*
G01*
X73275070Y-80678515D01*
X73349321Y-80709270D01*
X73349322Y-80709271D01*
X73482967Y-80798569D01*
X73596631Y-80912233D01*
X73663605Y-81012467D01*
X73685930Y-81045879D01*
X73747442Y-81194383D01*
X73778800Y-81352030D01*
X73778800Y-81512770D01*
X73747442Y-81670417D01*
X73685930Y-81818921D01*
X73685929Y-81818922D01*
X73596631Y-81952567D01*
X73482967Y-82066231D01*
X73382733Y-82133205D01*
X73349321Y-82155530D01*
X73275070Y-82186285D01*
X73200817Y-82217042D01*
X73043170Y-82248400D01*
X72882430Y-82248400D01*
X72724783Y-82217042D01*
X72650530Y-82186285D01*
X72576279Y-82155530D01*
X72542867Y-82133205D01*
X72442633Y-82066231D01*
X72328969Y-81952567D01*
X72239671Y-81818922D01*
X72239670Y-81818921D01*
X72178158Y-81670417D01*
X72146800Y-81512770D01*
X72146800Y-81352030D01*
X72178158Y-81194383D01*
X72239670Y-81045879D01*
X72261995Y-81012467D01*
X72328969Y-80912233D01*
X72442633Y-80798569D01*
X72576278Y-80709271D01*
X72576279Y-80709270D01*
X72650530Y-80678515D01*
X72724783Y-80647758D01*
X72882430Y-80616400D01*
X73043170Y-80616400D01*
X73200817Y-80647758D01*
X73200817Y-80647758D01*
G37*
G36*
X75740817Y-80647758D02*
G01*
X75815070Y-80678515D01*
X75889321Y-80709270D01*
X75889322Y-80709271D01*
X76022967Y-80798569D01*
X76136631Y-80912233D01*
X76203605Y-81012467D01*
X76225930Y-81045879D01*
X76287442Y-81194383D01*
X76318800Y-81352030D01*
X76318800Y-81512770D01*
X76287442Y-81670417D01*
X76225930Y-81818921D01*
X76225929Y-81818922D01*
X76136631Y-81952567D01*
X76022967Y-82066231D01*
X75922733Y-82133205D01*
X75889321Y-82155530D01*
X75815070Y-82186285D01*
X75740817Y-82217042D01*
X75583170Y-82248400D01*
X75422430Y-82248400D01*
X75264783Y-82217042D01*
X75190530Y-82186285D01*
X75116279Y-82155530D01*
X75082867Y-82133205D01*
X74982633Y-82066231D01*
X74868969Y-81952567D01*
X74779671Y-81818922D01*
X74779670Y-81818921D01*
X74718158Y-81670417D01*
X74686800Y-81512770D01*
X74686800Y-81352030D01*
X74718158Y-81194383D01*
X74779670Y-81045879D01*
X74801995Y-81012467D01*
X74868969Y-80912233D01*
X74982633Y-80798569D01*
X75116278Y-80709271D01*
X75116279Y-80709270D01*
X75190530Y-80678515D01*
X75264783Y-80647758D01*
X75422430Y-80616400D01*
X75583170Y-80616400D01*
X75740817Y-80647758D01*
X75740817Y-80647758D01*
G37*
G36*
X78280817Y-80647758D02*
G01*
X78355070Y-80678515D01*
X78429321Y-80709270D01*
X78429322Y-80709271D01*
X78562967Y-80798569D01*
X78676631Y-80912233D01*
X78743605Y-81012467D01*
X78765930Y-81045879D01*
X78827442Y-81194383D01*
X78858800Y-81352030D01*
X78858800Y-81512770D01*
X78827442Y-81670417D01*
X78765930Y-81818921D01*
X78765929Y-81818922D01*
X78676631Y-81952567D01*
X78562967Y-82066231D01*
X78462733Y-82133205D01*
X78429321Y-82155530D01*
X78355070Y-82186285D01*
X78280817Y-82217042D01*
X78123170Y-82248400D01*
X77962430Y-82248400D01*
X77804783Y-82217042D01*
X77730530Y-82186285D01*
X77656279Y-82155530D01*
X77622867Y-82133205D01*
X77522633Y-82066231D01*
X77408969Y-81952567D01*
X77319671Y-81818922D01*
X77319670Y-81818921D01*
X77258158Y-81670417D01*
X77226800Y-81512770D01*
X77226800Y-81352030D01*
X77258158Y-81194383D01*
X77319670Y-81045879D01*
X77341995Y-81012467D01*
X77408969Y-80912233D01*
X77522633Y-80798569D01*
X77656278Y-80709271D01*
X77656279Y-80709270D01*
X77730530Y-80678515D01*
X77804783Y-80647758D01*
X77962430Y-80616400D01*
X78123170Y-80616400D01*
X78280817Y-80647758D01*
X78280817Y-80647758D01*
G37*
G36*
X121460817Y-80647758D02*
G01*
X121535070Y-80678515D01*
X121609321Y-80709270D01*
X121609322Y-80709271D01*
X121742967Y-80798569D01*
X121856631Y-80912233D01*
X121923605Y-81012467D01*
X121945930Y-81045879D01*
X122007442Y-81194383D01*
X122038800Y-81352030D01*
X122038800Y-81512770D01*
X122007442Y-81670417D01*
X121945930Y-81818921D01*
X121945929Y-81818922D01*
X121856631Y-81952567D01*
X121742967Y-82066231D01*
X121642733Y-82133205D01*
X121609321Y-82155530D01*
X121535070Y-82186285D01*
X121460817Y-82217042D01*
X121303170Y-82248400D01*
X121142430Y-82248400D01*
X120984783Y-82217042D01*
X120910530Y-82186285D01*
X120836279Y-82155530D01*
X120802867Y-82133205D01*
X120702633Y-82066231D01*
X120588969Y-81952567D01*
X120499671Y-81818922D01*
X120499670Y-81818921D01*
X120438158Y-81670417D01*
X120406800Y-81512770D01*
X120406800Y-81352030D01*
X120438158Y-81194383D01*
X120499670Y-81045879D01*
X120521995Y-81012467D01*
X120588969Y-80912233D01*
X120702633Y-80798569D01*
X120836278Y-80709271D01*
X120836279Y-80709270D01*
X120910530Y-80678515D01*
X120984783Y-80647758D01*
X121142430Y-80616400D01*
X121303170Y-80616400D01*
X121460817Y-80647758D01*
X121460817Y-80647758D01*
G37*
G36*
X56376043Y-78975819D02*
G01*
X56442227Y-78982337D01*
X56612066Y-79033857D01*
X56768591Y-79117522D01*
X56804329Y-79146852D01*
X56905786Y-79230114D01*
X56989048Y-79331571D01*
X57018378Y-79367309D01*
X57102043Y-79523834D01*
X57153563Y-79693673D01*
X57170959Y-79870300D01*
X57153563Y-80046927D01*
X57102043Y-80216766D01*
X57018378Y-80373291D01*
X56989048Y-80409029D01*
X56905786Y-80510486D01*
X56804329Y-80593748D01*
X56768591Y-80623078D01*
X56612066Y-80706743D01*
X56442227Y-80758263D01*
X56376042Y-80764782D01*
X56309860Y-80771300D01*
X56221340Y-80771300D01*
X56155158Y-80764782D01*
X56088973Y-80758263D01*
X55919134Y-80706743D01*
X55762609Y-80623078D01*
X55726871Y-80593748D01*
X55625414Y-80510486D01*
X55542152Y-80409029D01*
X55512822Y-80373291D01*
X55429157Y-80216766D01*
X55377637Y-80046927D01*
X55360241Y-79870300D01*
X55377637Y-79693673D01*
X55429157Y-79523834D01*
X55512822Y-79367309D01*
X55542152Y-79331571D01*
X55625414Y-79230114D01*
X55726871Y-79146852D01*
X55762609Y-79117522D01*
X55919134Y-79033857D01*
X56088973Y-78982337D01*
X56155157Y-78975819D01*
X56221340Y-78969300D01*
X56309860Y-78969300D01*
X56376043Y-78975819D01*
X56376043Y-78975819D01*
G37*
G36*
X58916043Y-78975819D02*
G01*
X58982227Y-78982337D01*
X59152066Y-79033857D01*
X59308591Y-79117522D01*
X59344329Y-79146852D01*
X59445786Y-79230114D01*
X59529048Y-79331571D01*
X59558378Y-79367309D01*
X59642043Y-79523834D01*
X59693563Y-79693673D01*
X59710959Y-79870300D01*
X59693563Y-80046927D01*
X59642043Y-80216766D01*
X59558378Y-80373291D01*
X59529048Y-80409029D01*
X59445786Y-80510486D01*
X59344329Y-80593748D01*
X59308591Y-80623078D01*
X59152066Y-80706743D01*
X58982227Y-80758263D01*
X58916042Y-80764782D01*
X58849860Y-80771300D01*
X58761340Y-80771300D01*
X58695158Y-80764782D01*
X58628973Y-80758263D01*
X58459134Y-80706743D01*
X58302609Y-80623078D01*
X58266871Y-80593748D01*
X58165414Y-80510486D01*
X58082152Y-80409029D01*
X58052822Y-80373291D01*
X57969157Y-80216766D01*
X57917637Y-80046927D01*
X57900241Y-79870300D01*
X57917637Y-79693673D01*
X57969157Y-79523834D01*
X58052822Y-79367309D01*
X58082152Y-79331571D01*
X58165414Y-79230114D01*
X58266871Y-79146852D01*
X58302609Y-79117522D01*
X58459134Y-79033857D01*
X58628973Y-78982337D01*
X58695157Y-78975819D01*
X58761340Y-78969300D01*
X58849860Y-78969300D01*
X58916043Y-78975819D01*
X58916043Y-78975819D01*
G37*
G36*
X123999942Y-78110642D02*
G01*
X124147901Y-78171929D01*
X124281055Y-78260899D01*
X124394301Y-78374145D01*
X124483271Y-78507299D01*
X124544558Y-78655258D01*
X124575800Y-78812325D01*
X124575800Y-78972475D01*
X124544558Y-79129542D01*
X124483271Y-79277501D01*
X124394301Y-79410655D01*
X124281055Y-79523901D01*
X124147901Y-79612871D01*
X123999942Y-79674158D01*
X123842875Y-79705400D01*
X123682725Y-79705400D01*
X123525658Y-79674158D01*
X123377699Y-79612871D01*
X123244545Y-79523901D01*
X123131299Y-79410655D01*
X123042329Y-79277501D01*
X122981042Y-79129542D01*
X122949800Y-78972475D01*
X122949800Y-78812325D01*
X122981042Y-78655258D01*
X123042329Y-78507299D01*
X123131299Y-78374145D01*
X123244545Y-78260899D01*
X123377699Y-78171929D01*
X123525658Y-78110642D01*
X123682725Y-78079400D01*
X123842875Y-78079400D01*
X123999942Y-78110642D01*
X123999942Y-78110642D01*
G37*
G36*
X58916042Y-76435818D02*
G01*
X58982227Y-76442337D01*
X59152066Y-76493857D01*
X59308591Y-76577522D01*
X59344329Y-76606852D01*
X59445786Y-76690114D01*
X59529048Y-76791571D01*
X59558378Y-76827309D01*
X59642043Y-76983834D01*
X59693563Y-77153673D01*
X59710959Y-77330300D01*
X59693563Y-77506927D01*
X59642043Y-77676766D01*
X59558378Y-77833291D01*
X59529048Y-77869029D01*
X59445786Y-77970486D01*
X59344329Y-78053748D01*
X59308591Y-78083078D01*
X59152066Y-78166743D01*
X58982227Y-78218263D01*
X58916043Y-78224781D01*
X58849860Y-78231300D01*
X58761340Y-78231300D01*
X58695157Y-78224781D01*
X58628973Y-78218263D01*
X58459134Y-78166743D01*
X58302609Y-78083078D01*
X58266871Y-78053748D01*
X58165414Y-77970486D01*
X58082152Y-77869029D01*
X58052822Y-77833291D01*
X57969157Y-77676766D01*
X57917637Y-77506927D01*
X57900241Y-77330300D01*
X57917637Y-77153673D01*
X57969157Y-76983834D01*
X58052822Y-76827309D01*
X58082152Y-76791571D01*
X58165414Y-76690114D01*
X58266871Y-76606852D01*
X58302609Y-76577522D01*
X58459134Y-76493857D01*
X58628973Y-76442337D01*
X58695158Y-76435818D01*
X58761340Y-76429300D01*
X58849860Y-76429300D01*
X58916042Y-76435818D01*
X58916042Y-76435818D01*
G37*
G36*
X56376042Y-76435818D02*
G01*
X56442227Y-76442337D01*
X56612066Y-76493857D01*
X56768591Y-76577522D01*
X56804329Y-76606852D01*
X56905786Y-76690114D01*
X56989048Y-76791571D01*
X57018378Y-76827309D01*
X57102043Y-76983834D01*
X57153563Y-77153673D01*
X57170959Y-77330300D01*
X57153563Y-77506927D01*
X57102043Y-77676766D01*
X57018378Y-77833291D01*
X56989048Y-77869029D01*
X56905786Y-77970486D01*
X56804329Y-78053748D01*
X56768591Y-78083078D01*
X56612066Y-78166743D01*
X56442227Y-78218263D01*
X56376043Y-78224781D01*
X56309860Y-78231300D01*
X56221340Y-78231300D01*
X56155157Y-78224781D01*
X56088973Y-78218263D01*
X55919134Y-78166743D01*
X55762609Y-78083078D01*
X55726871Y-78053748D01*
X55625414Y-77970486D01*
X55542152Y-77869029D01*
X55512822Y-77833291D01*
X55429157Y-77676766D01*
X55377637Y-77506927D01*
X55360241Y-77330300D01*
X55377637Y-77153673D01*
X55429157Y-76983834D01*
X55512822Y-76827309D01*
X55542152Y-76791571D01*
X55625414Y-76690114D01*
X55726871Y-76606852D01*
X55762609Y-76577522D01*
X55919134Y-76493857D01*
X56088973Y-76442337D01*
X56155158Y-76435818D01*
X56221340Y-76429300D01*
X56309860Y-76429300D01*
X56376042Y-76435818D01*
X56376042Y-76435818D01*
G37*
G36*
X137149023Y-75996313D02*
G01*
X137309442Y-76044976D01*
X137442106Y-76115886D01*
X137457278Y-76123996D01*
X137586859Y-76230341D01*
X137693204Y-76359922D01*
X137693205Y-76359924D01*
X137772224Y-76507758D01*
X137820887Y-76668177D01*
X137837317Y-76835000D01*
X137820887Y-77001823D01*
X137772224Y-77162242D01*
X137701314Y-77294906D01*
X137693204Y-77310078D01*
X137586859Y-77439659D01*
X137457278Y-77546004D01*
X137457276Y-77546005D01*
X137309442Y-77625024D01*
X137149023Y-77673687D01*
X137024004Y-77686000D01*
X136940396Y-77686000D01*
X136815377Y-77673687D01*
X136654958Y-77625024D01*
X136507124Y-77546005D01*
X136507122Y-77546004D01*
X136377541Y-77439659D01*
X136271196Y-77310078D01*
X136263086Y-77294906D01*
X136192176Y-77162242D01*
X136143513Y-77001823D01*
X136127083Y-76835000D01*
X136143513Y-76668177D01*
X136192176Y-76507758D01*
X136271195Y-76359924D01*
X136271196Y-76359922D01*
X136377541Y-76230341D01*
X136507122Y-76123996D01*
X136522294Y-76115886D01*
X136654958Y-76044976D01*
X136815377Y-75996313D01*
X136940396Y-75984000D01*
X137024004Y-75984000D01*
X137149023Y-75996313D01*
X137149023Y-75996313D01*
G37*
G36*
X57166600Y-75691300D02*
G01*
X55364600Y-75691300D01*
X55364600Y-73889300D01*
X57166600Y-73889300D01*
X57166600Y-75691300D01*
X57166600Y-75691300D01*
G37*
G36*
X58916043Y-73895819D02*
G01*
X58982227Y-73902337D01*
X59152066Y-73953857D01*
X59308591Y-74037522D01*
X59344329Y-74066852D01*
X59445786Y-74150114D01*
X59529048Y-74251571D01*
X59558378Y-74287309D01*
X59642043Y-74443834D01*
X59693563Y-74613673D01*
X59710959Y-74790300D01*
X59693563Y-74966927D01*
X59642043Y-75136766D01*
X59558378Y-75293291D01*
X59529048Y-75329029D01*
X59445786Y-75430486D01*
X59344329Y-75513748D01*
X59308591Y-75543078D01*
X59152066Y-75626743D01*
X58982227Y-75678263D01*
X58916043Y-75684781D01*
X58849860Y-75691300D01*
X58761340Y-75691300D01*
X58695157Y-75684781D01*
X58628973Y-75678263D01*
X58459134Y-75626743D01*
X58302609Y-75543078D01*
X58266871Y-75513748D01*
X58165414Y-75430486D01*
X58082152Y-75329029D01*
X58052822Y-75293291D01*
X57969157Y-75136766D01*
X57917637Y-74966927D01*
X57900241Y-74790300D01*
X57917637Y-74613673D01*
X57969157Y-74443834D01*
X58052822Y-74287309D01*
X58082152Y-74251571D01*
X58165414Y-74150114D01*
X58266871Y-74066852D01*
X58302609Y-74037522D01*
X58459134Y-73953857D01*
X58628973Y-73902337D01*
X58695157Y-73895819D01*
X58761340Y-73889300D01*
X58849860Y-73889300D01*
X58916043Y-73895819D01*
X58916043Y-73895819D01*
G37*
G36*
X60379708Y-67533103D02*
G01*
X60534580Y-67597253D01*
X60673961Y-67690385D01*
X60792495Y-67808919D01*
X60885627Y-67948300D01*
X60949777Y-68103172D01*
X60982480Y-68267584D01*
X60982480Y-68435216D01*
X60949777Y-68599628D01*
X60885627Y-68754500D01*
X60792495Y-68893881D01*
X60673961Y-69012415D01*
X60534580Y-69105547D01*
X60379708Y-69169697D01*
X60215296Y-69202400D01*
X60047664Y-69202400D01*
X59883252Y-69169697D01*
X59728380Y-69105547D01*
X59588999Y-69012415D01*
X59470465Y-68893881D01*
X59377333Y-68754500D01*
X59313183Y-68599628D01*
X59280480Y-68435216D01*
X59280480Y-68267584D01*
X59313183Y-68103172D01*
X59377333Y-67948300D01*
X59470465Y-67808919D01*
X59588999Y-67690385D01*
X59728380Y-67597253D01*
X59883252Y-67533103D01*
X60047664Y-67500400D01*
X60215296Y-67500400D01*
X60379708Y-67533103D01*
X60379708Y-67533103D01*
G37*
G36*
X55379708Y-67533103D02*
G01*
X55534580Y-67597253D01*
X55673961Y-67690385D01*
X55792495Y-67808919D01*
X55885627Y-67948300D01*
X55949777Y-68103172D01*
X55982480Y-68267584D01*
X55982480Y-68435216D01*
X55949777Y-68599628D01*
X55885627Y-68754500D01*
X55792495Y-68893881D01*
X55673961Y-69012415D01*
X55534580Y-69105547D01*
X55379708Y-69169697D01*
X55215296Y-69202400D01*
X55047664Y-69202400D01*
X54883252Y-69169697D01*
X54728380Y-69105547D01*
X54588999Y-69012415D01*
X54470465Y-68893881D01*
X54377333Y-68754500D01*
X54313183Y-68599628D01*
X54280480Y-68435216D01*
X54280480Y-68267584D01*
X54313183Y-68103172D01*
X54377333Y-67948300D01*
X54470465Y-67808919D01*
X54588999Y-67690385D01*
X54728380Y-67597253D01*
X54883252Y-67533103D01*
X55047664Y-67500400D01*
X55215296Y-67500400D01*
X55379708Y-67533103D01*
X55379708Y-67533103D01*
G37*
G36*
X98600817Y-65407758D02*
G01*
X98749321Y-65469270D01*
X98749322Y-65469271D01*
X98882967Y-65558569D01*
X98996631Y-65672233D01*
X99063604Y-65772467D01*
X99085930Y-65805879D01*
X99116685Y-65880130D01*
X99147442Y-65954383D01*
X99178800Y-66112030D01*
X99178800Y-66272770D01*
X99147442Y-66430417D01*
X99116685Y-66504670D01*
X99085930Y-66578921D01*
X99085929Y-66578922D01*
X98996631Y-66712567D01*
X98882967Y-66826231D01*
X98782733Y-66893204D01*
X98749321Y-66915530D01*
X98675070Y-66946285D01*
X98600817Y-66977042D01*
X98443170Y-67008400D01*
X98282430Y-67008400D01*
X98124783Y-66977042D01*
X98050530Y-66946285D01*
X97976279Y-66915530D01*
X97942867Y-66893204D01*
X97842633Y-66826231D01*
X97728969Y-66712567D01*
X97639671Y-66578922D01*
X97639670Y-66578921D01*
X97608915Y-66504670D01*
X97578158Y-66430417D01*
X97546800Y-66272770D01*
X97546800Y-66112030D01*
X97578158Y-65954383D01*
X97608915Y-65880130D01*
X97639670Y-65805879D01*
X97661995Y-65772467D01*
X97728969Y-65672233D01*
X97842633Y-65558569D01*
X97976278Y-65469271D01*
X97976279Y-65469270D01*
X98124783Y-65407758D01*
X98282430Y-65376400D01*
X98443170Y-65376400D01*
X98600817Y-65407758D01*
X98600817Y-65407758D01*
G37*
G36*
X126540817Y-65407758D02*
G01*
X126689321Y-65469270D01*
X126689322Y-65469271D01*
X126822967Y-65558569D01*
X126936631Y-65672233D01*
X127003605Y-65772467D01*
X127025930Y-65805879D01*
X127056685Y-65880130D01*
X127087442Y-65954383D01*
X127118800Y-66112030D01*
X127118800Y-66272770D01*
X127087442Y-66430417D01*
X127025930Y-66578921D01*
X127025929Y-66578922D01*
X126936631Y-66712567D01*
X126822967Y-66826231D01*
X126722733Y-66893204D01*
X126689321Y-66915530D01*
X126615070Y-66946285D01*
X126540817Y-66977042D01*
X126383170Y-67008400D01*
X126222430Y-67008400D01*
X126064783Y-66977042D01*
X125990530Y-66946285D01*
X125916279Y-66915530D01*
X125882867Y-66893204D01*
X125782633Y-66826231D01*
X125668969Y-66712567D01*
X125579671Y-66578922D01*
X125579670Y-66578921D01*
X125548915Y-66504670D01*
X125518158Y-66430417D01*
X125486800Y-66272770D01*
X125486800Y-66112030D01*
X125518158Y-65954383D01*
X125548915Y-65880130D01*
X125579670Y-65805879D01*
X125601995Y-65772467D01*
X125668969Y-65672233D01*
X125782633Y-65558569D01*
X125916278Y-65469271D01*
X125916279Y-65469270D01*
X126064783Y-65407758D01*
X126222430Y-65376400D01*
X126383170Y-65376400D01*
X126540817Y-65407758D01*
X126540817Y-65407758D01*
G37*
G36*
X85900817Y-65407758D02*
G01*
X86049321Y-65469270D01*
X86049322Y-65469271D01*
X86182967Y-65558569D01*
X86296631Y-65672233D01*
X86363604Y-65772467D01*
X86385930Y-65805879D01*
X86416685Y-65880130D01*
X86447442Y-65954383D01*
X86478800Y-66112030D01*
X86478800Y-66272770D01*
X86447442Y-66430417D01*
X86416685Y-66504670D01*
X86385930Y-66578921D01*
X86385929Y-66578922D01*
X86296631Y-66712567D01*
X86182967Y-66826231D01*
X86082733Y-66893204D01*
X86049321Y-66915530D01*
X85975070Y-66946285D01*
X85900817Y-66977042D01*
X85743170Y-67008400D01*
X85582430Y-67008400D01*
X85424783Y-66977042D01*
X85350530Y-66946285D01*
X85276279Y-66915530D01*
X85242867Y-66893204D01*
X85142633Y-66826231D01*
X85028969Y-66712567D01*
X84939671Y-66578922D01*
X84939670Y-66578921D01*
X84908915Y-66504670D01*
X84878158Y-66430417D01*
X84846800Y-66272770D01*
X84846800Y-66112030D01*
X84878158Y-65954383D01*
X84908915Y-65880130D01*
X84939670Y-65805879D01*
X84961995Y-65772467D01*
X85028969Y-65672233D01*
X85142633Y-65558569D01*
X85276278Y-65469271D01*
X85276279Y-65469270D01*
X85424783Y-65407758D01*
X85582430Y-65376400D01*
X85743170Y-65376400D01*
X85900817Y-65407758D01*
X85900817Y-65407758D01*
G37*
G36*
X116380817Y-65407758D02*
G01*
X116529321Y-65469270D01*
X116529322Y-65469271D01*
X116662967Y-65558569D01*
X116776631Y-65672233D01*
X116843605Y-65772467D01*
X116865930Y-65805879D01*
X116896685Y-65880130D01*
X116927442Y-65954383D01*
X116958800Y-66112030D01*
X116958800Y-66272770D01*
X116927442Y-66430417D01*
X116865930Y-66578921D01*
X116865929Y-66578922D01*
X116776631Y-66712567D01*
X116662967Y-66826231D01*
X116562733Y-66893204D01*
X116529321Y-66915530D01*
X116455070Y-66946285D01*
X116380817Y-66977042D01*
X116223170Y-67008400D01*
X116062430Y-67008400D01*
X115904783Y-66977042D01*
X115830530Y-66946285D01*
X115756279Y-66915530D01*
X115722867Y-66893204D01*
X115622633Y-66826231D01*
X115508969Y-66712567D01*
X115419671Y-66578922D01*
X115419670Y-66578921D01*
X115388915Y-66504670D01*
X115358158Y-66430417D01*
X115326800Y-66272770D01*
X115326800Y-66112030D01*
X115358158Y-65954383D01*
X115388915Y-65880130D01*
X115419670Y-65805879D01*
X115441995Y-65772467D01*
X115508969Y-65672233D01*
X115622633Y-65558569D01*
X115756278Y-65469271D01*
X115756279Y-65469270D01*
X115904783Y-65407758D01*
X116062430Y-65376400D01*
X116223170Y-65376400D01*
X116380817Y-65407758D01*
X116380817Y-65407758D01*
G37*
G36*
X111300817Y-65407758D02*
G01*
X111449321Y-65469270D01*
X111449322Y-65469271D01*
X111582967Y-65558569D01*
X111696631Y-65672233D01*
X111763605Y-65772467D01*
X111785930Y-65805879D01*
X111816685Y-65880130D01*
X111847442Y-65954383D01*
X111878800Y-66112030D01*
X111878800Y-66272770D01*
X111847442Y-66430417D01*
X111785930Y-66578921D01*
X111785929Y-66578922D01*
X111696631Y-66712567D01*
X111582967Y-66826231D01*
X111482733Y-66893204D01*
X111449321Y-66915530D01*
X111375070Y-66946285D01*
X111300817Y-66977042D01*
X111143170Y-67008400D01*
X110982430Y-67008400D01*
X110824783Y-66977042D01*
X110750530Y-66946285D01*
X110676279Y-66915530D01*
X110642867Y-66893204D01*
X110542633Y-66826231D01*
X110428969Y-66712567D01*
X110339671Y-66578922D01*
X110339670Y-66578921D01*
X110308915Y-66504670D01*
X110278158Y-66430417D01*
X110246800Y-66272770D01*
X110246800Y-66112030D01*
X110278158Y-65954383D01*
X110308915Y-65880130D01*
X110339670Y-65805879D01*
X110361995Y-65772467D01*
X110428969Y-65672233D01*
X110542633Y-65558569D01*
X110676278Y-65469271D01*
X110676279Y-65469270D01*
X110824783Y-65407758D01*
X110982430Y-65376400D01*
X111143170Y-65376400D01*
X111300817Y-65407758D01*
X111300817Y-65407758D01*
G37*
G36*
X108760817Y-65407758D02*
G01*
X108909321Y-65469270D01*
X108909322Y-65469271D01*
X109042967Y-65558569D01*
X109156631Y-65672233D01*
X109223604Y-65772467D01*
X109245930Y-65805879D01*
X109276685Y-65880130D01*
X109307442Y-65954383D01*
X109338800Y-66112030D01*
X109338800Y-66272770D01*
X109307442Y-66430417D01*
X109245930Y-66578921D01*
X109245929Y-66578922D01*
X109156631Y-66712567D01*
X109042967Y-66826231D01*
X108942733Y-66893204D01*
X108909321Y-66915530D01*
X108835070Y-66946285D01*
X108760817Y-66977042D01*
X108603170Y-67008400D01*
X108442430Y-67008400D01*
X108284783Y-66977042D01*
X108210530Y-66946285D01*
X108136279Y-66915530D01*
X108102867Y-66893204D01*
X108002633Y-66826231D01*
X107888969Y-66712567D01*
X107799671Y-66578922D01*
X107799670Y-66578921D01*
X107768915Y-66504670D01*
X107738158Y-66430417D01*
X107706800Y-66272770D01*
X107706800Y-66112030D01*
X107738158Y-65954383D01*
X107768915Y-65880130D01*
X107799670Y-65805879D01*
X107821995Y-65772467D01*
X107888969Y-65672233D01*
X108002633Y-65558569D01*
X108136278Y-65469271D01*
X108136279Y-65469270D01*
X108284783Y-65407758D01*
X108442430Y-65376400D01*
X108603170Y-65376400D01*
X108760817Y-65407758D01*
X108760817Y-65407758D01*
G37*
G36*
X106220817Y-65407758D02*
G01*
X106369321Y-65469270D01*
X106369322Y-65469271D01*
X106502967Y-65558569D01*
X106616631Y-65672233D01*
X106683604Y-65772467D01*
X106705930Y-65805879D01*
X106736685Y-65880130D01*
X106767442Y-65954383D01*
X106798800Y-66112030D01*
X106798800Y-66272770D01*
X106767442Y-66430417D01*
X106705930Y-66578921D01*
X106705929Y-66578922D01*
X106616631Y-66712567D01*
X106502967Y-66826231D01*
X106402733Y-66893204D01*
X106369321Y-66915530D01*
X106295070Y-66946285D01*
X106220817Y-66977042D01*
X106063170Y-67008400D01*
X105902430Y-67008400D01*
X105744783Y-66977042D01*
X105670530Y-66946285D01*
X105596279Y-66915530D01*
X105562867Y-66893204D01*
X105462633Y-66826231D01*
X105348969Y-66712567D01*
X105259671Y-66578922D01*
X105259670Y-66578921D01*
X105228915Y-66504670D01*
X105198158Y-66430417D01*
X105166800Y-66272770D01*
X105166800Y-66112030D01*
X105198158Y-65954383D01*
X105228915Y-65880130D01*
X105259670Y-65805879D01*
X105281995Y-65772467D01*
X105348969Y-65672233D01*
X105462633Y-65558569D01*
X105596278Y-65469271D01*
X105596279Y-65469270D01*
X105744783Y-65407758D01*
X105902430Y-65376400D01*
X106063170Y-65376400D01*
X106220817Y-65407758D01*
X106220817Y-65407758D01*
G37*
G36*
X103680817Y-65407758D02*
G01*
X103829321Y-65469270D01*
X103829322Y-65469271D01*
X103962967Y-65558569D01*
X104076631Y-65672233D01*
X104143604Y-65772467D01*
X104165930Y-65805879D01*
X104196685Y-65880130D01*
X104227442Y-65954383D01*
X104258800Y-66112030D01*
X104258800Y-66272770D01*
X104227442Y-66430417D01*
X104196685Y-66504670D01*
X104165930Y-66578921D01*
X104165929Y-66578922D01*
X104076631Y-66712567D01*
X103962967Y-66826231D01*
X103862733Y-66893204D01*
X103829321Y-66915530D01*
X103755070Y-66946285D01*
X103680817Y-66977042D01*
X103523170Y-67008400D01*
X103362430Y-67008400D01*
X103204783Y-66977042D01*
X103130530Y-66946285D01*
X103056279Y-66915530D01*
X103022867Y-66893204D01*
X102922633Y-66826231D01*
X102808969Y-66712567D01*
X102719671Y-66578922D01*
X102719670Y-66578921D01*
X102688915Y-66504670D01*
X102658158Y-66430417D01*
X102626800Y-66272770D01*
X102626800Y-66112030D01*
X102658158Y-65954383D01*
X102688915Y-65880130D01*
X102719670Y-65805879D01*
X102741995Y-65772467D01*
X102808969Y-65672233D01*
X102922633Y-65558569D01*
X103056278Y-65469271D01*
X103056279Y-65469270D01*
X103204783Y-65407758D01*
X103362430Y-65376400D01*
X103523170Y-65376400D01*
X103680817Y-65407758D01*
X103680817Y-65407758D01*
G37*
G36*
X101140817Y-65407758D02*
G01*
X101289321Y-65469270D01*
X101289322Y-65469271D01*
X101422967Y-65558569D01*
X101536631Y-65672233D01*
X101603604Y-65772467D01*
X101625930Y-65805879D01*
X101656685Y-65880130D01*
X101687442Y-65954383D01*
X101718800Y-66112030D01*
X101718800Y-66272770D01*
X101687442Y-66430417D01*
X101656685Y-66504670D01*
X101625930Y-66578921D01*
X101625929Y-66578922D01*
X101536631Y-66712567D01*
X101422967Y-66826231D01*
X101322733Y-66893204D01*
X101289321Y-66915530D01*
X101215070Y-66946285D01*
X101140817Y-66977042D01*
X100983170Y-67008400D01*
X100822430Y-67008400D01*
X100664783Y-66977042D01*
X100590530Y-66946285D01*
X100516279Y-66915530D01*
X100482867Y-66893204D01*
X100382633Y-66826231D01*
X100268969Y-66712567D01*
X100179671Y-66578922D01*
X100179670Y-66578921D01*
X100148915Y-66504670D01*
X100118158Y-66430417D01*
X100086800Y-66272770D01*
X100086800Y-66112030D01*
X100118158Y-65954383D01*
X100148915Y-65880130D01*
X100179670Y-65805879D01*
X100201995Y-65772467D01*
X100268969Y-65672233D01*
X100382633Y-65558569D01*
X100516278Y-65469271D01*
X100516279Y-65469270D01*
X100664783Y-65407758D01*
X100822430Y-65376400D01*
X100983170Y-65376400D01*
X101140817Y-65407758D01*
X101140817Y-65407758D01*
G37*
G36*
X96060817Y-65407758D02*
G01*
X96209321Y-65469270D01*
X96209322Y-65469271D01*
X96342967Y-65558569D01*
X96456631Y-65672233D01*
X96523604Y-65772467D01*
X96545930Y-65805879D01*
X96576685Y-65880130D01*
X96607442Y-65954383D01*
X96638800Y-66112030D01*
X96638800Y-66272770D01*
X96607442Y-66430417D01*
X96576685Y-66504670D01*
X96545930Y-66578921D01*
X96545929Y-66578922D01*
X96456631Y-66712567D01*
X96342967Y-66826231D01*
X96242733Y-66893204D01*
X96209321Y-66915530D01*
X96135070Y-66946285D01*
X96060817Y-66977042D01*
X95903170Y-67008400D01*
X95742430Y-67008400D01*
X95584783Y-66977042D01*
X95510530Y-66946285D01*
X95436279Y-66915530D01*
X95402867Y-66893204D01*
X95302633Y-66826231D01*
X95188969Y-66712567D01*
X95099671Y-66578922D01*
X95099670Y-66578921D01*
X95068915Y-66504670D01*
X95038158Y-66430417D01*
X95006800Y-66272770D01*
X95006800Y-66112030D01*
X95038158Y-65954383D01*
X95068915Y-65880130D01*
X95099670Y-65805879D01*
X95121995Y-65772467D01*
X95188969Y-65672233D01*
X95302633Y-65558569D01*
X95436278Y-65469271D01*
X95436279Y-65469270D01*
X95584783Y-65407758D01*
X95742430Y-65376400D01*
X95903170Y-65376400D01*
X96060817Y-65407758D01*
X96060817Y-65407758D01*
G37*
G36*
X93520817Y-65407758D02*
G01*
X93669321Y-65469270D01*
X93669322Y-65469271D01*
X93802967Y-65558569D01*
X93916631Y-65672233D01*
X93983604Y-65772467D01*
X94005930Y-65805879D01*
X94036685Y-65880130D01*
X94067442Y-65954383D01*
X94098800Y-66112030D01*
X94098800Y-66272770D01*
X94067442Y-66430417D01*
X94036685Y-66504670D01*
X94005930Y-66578921D01*
X94005929Y-66578922D01*
X93916631Y-66712567D01*
X93802967Y-66826231D01*
X93702733Y-66893204D01*
X93669321Y-66915530D01*
X93595070Y-66946285D01*
X93520817Y-66977042D01*
X93363170Y-67008400D01*
X93202430Y-67008400D01*
X93044783Y-66977042D01*
X92970530Y-66946285D01*
X92896279Y-66915530D01*
X92862867Y-66893204D01*
X92762633Y-66826231D01*
X92648969Y-66712567D01*
X92559671Y-66578922D01*
X92559670Y-66578921D01*
X92528915Y-66504670D01*
X92498158Y-66430417D01*
X92466800Y-66272770D01*
X92466800Y-66112030D01*
X92498158Y-65954383D01*
X92528915Y-65880130D01*
X92559670Y-65805879D01*
X92581995Y-65772467D01*
X92648969Y-65672233D01*
X92762633Y-65558569D01*
X92896278Y-65469271D01*
X92896279Y-65469270D01*
X93044783Y-65407758D01*
X93202430Y-65376400D01*
X93363170Y-65376400D01*
X93520817Y-65407758D01*
X93520817Y-65407758D01*
G37*
G36*
X90980817Y-65407758D02*
G01*
X91129321Y-65469270D01*
X91129322Y-65469271D01*
X91262967Y-65558569D01*
X91376631Y-65672233D01*
X91443604Y-65772467D01*
X91465930Y-65805879D01*
X91496685Y-65880130D01*
X91527442Y-65954383D01*
X91558800Y-66112030D01*
X91558800Y-66272770D01*
X91527442Y-66430417D01*
X91496685Y-66504670D01*
X91465930Y-66578921D01*
X91465929Y-66578922D01*
X91376631Y-66712567D01*
X91262967Y-66826231D01*
X91162733Y-66893204D01*
X91129321Y-66915530D01*
X91055070Y-66946285D01*
X90980817Y-66977042D01*
X90823170Y-67008400D01*
X90662430Y-67008400D01*
X90504783Y-66977042D01*
X90430530Y-66946285D01*
X90356279Y-66915530D01*
X90322867Y-66893204D01*
X90222633Y-66826231D01*
X90108969Y-66712567D01*
X90019671Y-66578922D01*
X90019670Y-66578921D01*
X89988915Y-66504670D01*
X89958158Y-66430417D01*
X89926800Y-66272770D01*
X89926800Y-66112030D01*
X89958158Y-65954383D01*
X89988915Y-65880130D01*
X90019670Y-65805879D01*
X90041995Y-65772467D01*
X90108969Y-65672233D01*
X90222633Y-65558569D01*
X90356278Y-65469271D01*
X90356279Y-65469270D01*
X90504783Y-65407758D01*
X90662430Y-65376400D01*
X90823170Y-65376400D01*
X90980817Y-65407758D01*
X90980817Y-65407758D01*
G37*
G36*
X88440817Y-65407758D02*
G01*
X88589321Y-65469270D01*
X88589322Y-65469271D01*
X88722967Y-65558569D01*
X88836631Y-65672233D01*
X88903604Y-65772467D01*
X88925930Y-65805879D01*
X88956685Y-65880130D01*
X88987442Y-65954383D01*
X89018800Y-66112030D01*
X89018800Y-66272770D01*
X88987442Y-66430417D01*
X88956685Y-66504670D01*
X88925930Y-66578921D01*
X88925929Y-66578922D01*
X88836631Y-66712567D01*
X88722967Y-66826231D01*
X88622733Y-66893204D01*
X88589321Y-66915530D01*
X88515070Y-66946285D01*
X88440817Y-66977042D01*
X88283170Y-67008400D01*
X88122430Y-67008400D01*
X87964783Y-66977042D01*
X87890530Y-66946285D01*
X87816279Y-66915530D01*
X87782867Y-66893204D01*
X87682633Y-66826231D01*
X87568969Y-66712567D01*
X87479671Y-66578922D01*
X87479670Y-66578921D01*
X87448915Y-66504670D01*
X87418158Y-66430417D01*
X87386800Y-66272770D01*
X87386800Y-66112030D01*
X87418158Y-65954383D01*
X87448915Y-65880130D01*
X87479670Y-65805879D01*
X87501995Y-65772467D01*
X87568969Y-65672233D01*
X87682633Y-65558569D01*
X87816278Y-65469271D01*
X87816279Y-65469270D01*
X87964783Y-65407758D01*
X88122430Y-65376400D01*
X88283170Y-65376400D01*
X88440817Y-65407758D01*
X88440817Y-65407758D01*
G37*
G36*
X83360817Y-65407758D02*
G01*
X83509321Y-65469270D01*
X83509322Y-65469271D01*
X83642967Y-65558569D01*
X83756631Y-65672233D01*
X83823604Y-65772467D01*
X83845930Y-65805879D01*
X83876685Y-65880130D01*
X83907442Y-65954383D01*
X83938800Y-66112030D01*
X83938800Y-66272770D01*
X83907442Y-66430417D01*
X83876685Y-66504670D01*
X83845930Y-66578921D01*
X83845929Y-66578922D01*
X83756631Y-66712567D01*
X83642967Y-66826231D01*
X83542733Y-66893204D01*
X83509321Y-66915530D01*
X83435070Y-66946285D01*
X83360817Y-66977042D01*
X83203170Y-67008400D01*
X83042430Y-67008400D01*
X82884783Y-66977042D01*
X82810530Y-66946285D01*
X82736279Y-66915530D01*
X82702867Y-66893204D01*
X82602633Y-66826231D01*
X82488969Y-66712567D01*
X82399671Y-66578922D01*
X82399670Y-66578921D01*
X82368915Y-66504670D01*
X82338158Y-66430417D01*
X82306800Y-66272770D01*
X82306800Y-66112030D01*
X82338158Y-65954383D01*
X82368915Y-65880130D01*
X82399670Y-65805879D01*
X82421995Y-65772467D01*
X82488969Y-65672233D01*
X82602633Y-65558569D01*
X82736278Y-65469271D01*
X82736279Y-65469270D01*
X82884783Y-65407758D01*
X83042430Y-65376400D01*
X83203170Y-65376400D01*
X83360817Y-65407758D01*
X83360817Y-65407758D01*
G37*
G36*
X68120817Y-65407758D02*
G01*
X68269321Y-65469270D01*
X68269322Y-65469271D01*
X68402967Y-65558569D01*
X68516631Y-65672233D01*
X68583604Y-65772467D01*
X68605930Y-65805879D01*
X68636685Y-65880130D01*
X68667442Y-65954383D01*
X68698800Y-66112030D01*
X68698800Y-66272770D01*
X68667442Y-66430417D01*
X68636685Y-66504670D01*
X68605930Y-66578921D01*
X68605929Y-66578922D01*
X68516631Y-66712567D01*
X68402967Y-66826231D01*
X68302733Y-66893204D01*
X68269321Y-66915530D01*
X68195070Y-66946285D01*
X68120817Y-66977042D01*
X67963170Y-67008400D01*
X67802430Y-67008400D01*
X67644783Y-66977042D01*
X67570530Y-66946285D01*
X67496279Y-66915530D01*
X67462867Y-66893204D01*
X67362633Y-66826231D01*
X67248969Y-66712567D01*
X67159671Y-66578922D01*
X67159670Y-66578921D01*
X67128915Y-66504670D01*
X67098158Y-66430417D01*
X67066800Y-66272770D01*
X67066800Y-66112030D01*
X67098158Y-65954383D01*
X67128915Y-65880130D01*
X67159670Y-65805879D01*
X67181995Y-65772467D01*
X67248969Y-65672233D01*
X67362633Y-65558569D01*
X67496278Y-65469271D01*
X67496279Y-65469270D01*
X67644783Y-65407758D01*
X67802430Y-65376400D01*
X67963170Y-65376400D01*
X68120817Y-65407758D01*
X68120817Y-65407758D01*
G37*
G36*
X70660817Y-65407758D02*
G01*
X70809321Y-65469270D01*
X70809322Y-65469271D01*
X70942967Y-65558569D01*
X71056631Y-65672233D01*
X71123604Y-65772467D01*
X71145930Y-65805879D01*
X71176685Y-65880130D01*
X71207442Y-65954383D01*
X71238800Y-66112030D01*
X71238800Y-66272770D01*
X71207442Y-66430417D01*
X71176685Y-66504670D01*
X71145930Y-66578921D01*
X71145929Y-66578922D01*
X71056631Y-66712567D01*
X70942967Y-66826231D01*
X70842733Y-66893204D01*
X70809321Y-66915530D01*
X70735070Y-66946285D01*
X70660817Y-66977042D01*
X70503170Y-67008400D01*
X70342430Y-67008400D01*
X70184783Y-66977042D01*
X70110530Y-66946285D01*
X70036279Y-66915530D01*
X70002867Y-66893204D01*
X69902633Y-66826231D01*
X69788969Y-66712567D01*
X69699671Y-66578922D01*
X69699670Y-66578921D01*
X69668915Y-66504670D01*
X69638158Y-66430417D01*
X69606800Y-66272770D01*
X69606800Y-66112030D01*
X69638158Y-65954383D01*
X69668915Y-65880130D01*
X69699670Y-65805879D01*
X69721995Y-65772467D01*
X69788969Y-65672233D01*
X69902633Y-65558569D01*
X70036278Y-65469271D01*
X70036279Y-65469270D01*
X70184783Y-65407758D01*
X70342430Y-65376400D01*
X70503170Y-65376400D01*
X70660817Y-65407758D01*
X70660817Y-65407758D01*
G37*
G36*
X73200817Y-65407758D02*
G01*
X73349321Y-65469270D01*
X73349322Y-65469271D01*
X73482967Y-65558569D01*
X73596631Y-65672233D01*
X73663604Y-65772467D01*
X73685930Y-65805879D01*
X73716685Y-65880130D01*
X73747442Y-65954383D01*
X73778800Y-66112030D01*
X73778800Y-66272770D01*
X73747442Y-66430417D01*
X73716685Y-66504670D01*
X73685930Y-66578921D01*
X73685929Y-66578922D01*
X73596631Y-66712567D01*
X73482967Y-66826231D01*
X73382733Y-66893204D01*
X73349321Y-66915530D01*
X73275070Y-66946285D01*
X73200817Y-66977042D01*
X73043170Y-67008400D01*
X72882430Y-67008400D01*
X72724783Y-66977042D01*
X72650530Y-66946285D01*
X72576279Y-66915530D01*
X72542867Y-66893204D01*
X72442633Y-66826231D01*
X72328969Y-66712567D01*
X72239671Y-66578922D01*
X72239670Y-66578921D01*
X72208915Y-66504670D01*
X72178158Y-66430417D01*
X72146800Y-66272770D01*
X72146800Y-66112030D01*
X72178158Y-65954383D01*
X72208915Y-65880130D01*
X72239670Y-65805879D01*
X72261995Y-65772467D01*
X72328969Y-65672233D01*
X72442633Y-65558569D01*
X72576278Y-65469271D01*
X72576279Y-65469270D01*
X72724783Y-65407758D01*
X72882430Y-65376400D01*
X73043170Y-65376400D01*
X73200817Y-65407758D01*
X73200817Y-65407758D01*
G37*
G36*
X124000817Y-65407758D02*
G01*
X124149321Y-65469270D01*
X124149322Y-65469271D01*
X124282967Y-65558569D01*
X124396631Y-65672233D01*
X124463605Y-65772467D01*
X124485930Y-65805879D01*
X124516685Y-65880130D01*
X124547442Y-65954383D01*
X124578800Y-66112030D01*
X124578800Y-66272770D01*
X124547442Y-66430417D01*
X124485930Y-66578921D01*
X124485929Y-66578922D01*
X124396631Y-66712567D01*
X124282967Y-66826231D01*
X124182733Y-66893204D01*
X124149321Y-66915530D01*
X124075070Y-66946285D01*
X124000817Y-66977042D01*
X123843170Y-67008400D01*
X123682430Y-67008400D01*
X123524783Y-66977042D01*
X123450530Y-66946285D01*
X123376279Y-66915530D01*
X123342867Y-66893204D01*
X123242633Y-66826231D01*
X123128969Y-66712567D01*
X123039671Y-66578922D01*
X123039670Y-66578921D01*
X123008915Y-66504670D01*
X122978158Y-66430417D01*
X122946800Y-66272770D01*
X122946800Y-66112030D01*
X122978158Y-65954383D01*
X123008915Y-65880130D01*
X123039670Y-65805879D01*
X123061995Y-65772467D01*
X123128969Y-65672233D01*
X123242633Y-65558569D01*
X123376278Y-65469271D01*
X123376279Y-65469270D01*
X123524783Y-65407758D01*
X123682430Y-65376400D01*
X123843170Y-65376400D01*
X124000817Y-65407758D01*
X124000817Y-65407758D01*
G37*
G36*
X75740817Y-65407758D02*
G01*
X75889321Y-65469270D01*
X75889322Y-65469271D01*
X76022967Y-65558569D01*
X76136631Y-65672233D01*
X76203604Y-65772467D01*
X76225930Y-65805879D01*
X76256685Y-65880130D01*
X76287442Y-65954383D01*
X76318800Y-66112030D01*
X76318800Y-66272770D01*
X76287442Y-66430417D01*
X76256685Y-66504670D01*
X76225930Y-66578921D01*
X76225929Y-66578922D01*
X76136631Y-66712567D01*
X76022967Y-66826231D01*
X75922733Y-66893204D01*
X75889321Y-66915530D01*
X75815070Y-66946285D01*
X75740817Y-66977042D01*
X75583170Y-67008400D01*
X75422430Y-67008400D01*
X75264783Y-66977042D01*
X75190530Y-66946285D01*
X75116279Y-66915530D01*
X75082867Y-66893204D01*
X74982633Y-66826231D01*
X74868969Y-66712567D01*
X74779671Y-66578922D01*
X74779670Y-66578921D01*
X74748915Y-66504670D01*
X74718158Y-66430417D01*
X74686800Y-66272770D01*
X74686800Y-66112030D01*
X74718158Y-65954383D01*
X74748915Y-65880130D01*
X74779670Y-65805879D01*
X74801995Y-65772467D01*
X74868969Y-65672233D01*
X74982633Y-65558569D01*
X75116278Y-65469271D01*
X75116279Y-65469270D01*
X75264783Y-65407758D01*
X75422430Y-65376400D01*
X75583170Y-65376400D01*
X75740817Y-65407758D01*
X75740817Y-65407758D01*
G37*
G36*
X78280817Y-65407758D02*
G01*
X78429321Y-65469270D01*
X78429322Y-65469271D01*
X78562967Y-65558569D01*
X78676631Y-65672233D01*
X78743604Y-65772467D01*
X78765930Y-65805879D01*
X78796685Y-65880130D01*
X78827442Y-65954383D01*
X78858800Y-66112030D01*
X78858800Y-66272770D01*
X78827442Y-66430417D01*
X78796685Y-66504670D01*
X78765930Y-66578921D01*
X78765929Y-66578922D01*
X78676631Y-66712567D01*
X78562967Y-66826231D01*
X78462733Y-66893204D01*
X78429321Y-66915530D01*
X78355070Y-66946285D01*
X78280817Y-66977042D01*
X78123170Y-67008400D01*
X77962430Y-67008400D01*
X77804783Y-66977042D01*
X77730530Y-66946285D01*
X77656279Y-66915530D01*
X77622867Y-66893204D01*
X77522633Y-66826231D01*
X77408969Y-66712567D01*
X77319671Y-66578922D01*
X77319670Y-66578921D01*
X77288915Y-66504670D01*
X77258158Y-66430417D01*
X77226800Y-66272770D01*
X77226800Y-66112030D01*
X77258158Y-65954383D01*
X77288915Y-65880130D01*
X77319670Y-65805879D01*
X77341995Y-65772467D01*
X77408969Y-65672233D01*
X77522633Y-65558569D01*
X77656278Y-65469271D01*
X77656279Y-65469270D01*
X77804783Y-65407758D01*
X77962430Y-65376400D01*
X78123170Y-65376400D01*
X78280817Y-65407758D01*
X78280817Y-65407758D01*
G37*
G36*
X121460817Y-65407758D02*
G01*
X121609321Y-65469270D01*
X121609322Y-65469271D01*
X121742967Y-65558569D01*
X121856631Y-65672233D01*
X121923605Y-65772467D01*
X121945930Y-65805879D01*
X121976685Y-65880130D01*
X122007442Y-65954383D01*
X122038800Y-66112030D01*
X122038800Y-66272770D01*
X122007442Y-66430417D01*
X121945930Y-66578921D01*
X121945929Y-66578922D01*
X121856631Y-66712567D01*
X121742967Y-66826231D01*
X121642733Y-66893204D01*
X121609321Y-66915530D01*
X121535070Y-66946285D01*
X121460817Y-66977042D01*
X121303170Y-67008400D01*
X121142430Y-67008400D01*
X120984783Y-66977042D01*
X120910530Y-66946285D01*
X120836279Y-66915530D01*
X120802867Y-66893204D01*
X120702633Y-66826231D01*
X120588969Y-66712567D01*
X120499671Y-66578922D01*
X120499670Y-66578921D01*
X120468915Y-66504670D01*
X120438158Y-66430417D01*
X120406800Y-66272770D01*
X120406800Y-66112030D01*
X120438158Y-65954383D01*
X120468915Y-65880130D01*
X120499670Y-65805879D01*
X120521995Y-65772467D01*
X120588969Y-65672233D01*
X120702633Y-65558569D01*
X120836278Y-65469271D01*
X120836279Y-65469270D01*
X120984783Y-65407758D01*
X121142430Y-65376400D01*
X121303170Y-65376400D01*
X121460817Y-65407758D01*
X121460817Y-65407758D01*
G37*
G36*
X118920817Y-65407758D02*
G01*
X119069321Y-65469270D01*
X119069322Y-65469271D01*
X119202967Y-65558569D01*
X119316631Y-65672233D01*
X119383605Y-65772467D01*
X119405930Y-65805879D01*
X119436685Y-65880130D01*
X119467442Y-65954383D01*
X119498800Y-66112030D01*
X119498800Y-66272770D01*
X119467442Y-66430417D01*
X119405930Y-66578921D01*
X119405929Y-66578922D01*
X119316631Y-66712567D01*
X119202967Y-66826231D01*
X119102733Y-66893204D01*
X119069321Y-66915530D01*
X118995070Y-66946285D01*
X118920817Y-66977042D01*
X118763170Y-67008400D01*
X118602430Y-67008400D01*
X118444783Y-66977042D01*
X118370530Y-66946285D01*
X118296279Y-66915530D01*
X118262867Y-66893204D01*
X118162633Y-66826231D01*
X118048969Y-66712567D01*
X117959671Y-66578922D01*
X117959670Y-66578921D01*
X117928915Y-66504670D01*
X117898158Y-66430417D01*
X117866800Y-66272770D01*
X117866800Y-66112030D01*
X117898158Y-65954383D01*
X117928915Y-65880130D01*
X117959670Y-65805879D01*
X117981995Y-65772467D01*
X118048969Y-65672233D01*
X118162633Y-65558569D01*
X118296278Y-65469271D01*
X118296279Y-65469270D01*
X118444783Y-65407758D01*
X118602430Y-65376400D01*
X118763170Y-65376400D01*
X118920817Y-65407758D01*
X118920817Y-65407758D01*
G37*
G36*
X80820817Y-65407758D02*
G01*
X80969321Y-65469270D01*
X80969322Y-65469271D01*
X81102967Y-65558569D01*
X81216631Y-65672233D01*
X81283604Y-65772467D01*
X81305930Y-65805879D01*
X81336685Y-65880130D01*
X81367442Y-65954383D01*
X81398800Y-66112030D01*
X81398800Y-66272770D01*
X81367442Y-66430417D01*
X81336685Y-66504670D01*
X81305930Y-66578921D01*
X81305929Y-66578922D01*
X81216631Y-66712567D01*
X81102967Y-66826231D01*
X81002733Y-66893204D01*
X80969321Y-66915530D01*
X80895070Y-66946285D01*
X80820817Y-66977042D01*
X80663170Y-67008400D01*
X80502430Y-67008400D01*
X80344783Y-66977042D01*
X80270530Y-66946285D01*
X80196279Y-66915530D01*
X80162867Y-66893204D01*
X80062633Y-66826231D01*
X79948969Y-66712567D01*
X79859671Y-66578922D01*
X79859670Y-66578921D01*
X79828915Y-66504670D01*
X79798158Y-66430417D01*
X79766800Y-66272770D01*
X79766800Y-66112030D01*
X79798158Y-65954383D01*
X79828915Y-65880130D01*
X79859670Y-65805879D01*
X79881995Y-65772467D01*
X79948969Y-65672233D01*
X80062633Y-65558569D01*
X80196278Y-65469271D01*
X80196279Y-65469270D01*
X80344783Y-65407758D01*
X80502430Y-65376400D01*
X80663170Y-65376400D01*
X80820817Y-65407758D01*
X80820817Y-65407758D01*
G37*
G36*
X113840817Y-65407758D02*
G01*
X113989321Y-65469270D01*
X113989322Y-65469271D01*
X114122967Y-65558569D01*
X114236631Y-65672233D01*
X114303605Y-65772467D01*
X114325930Y-65805879D01*
X114356685Y-65880130D01*
X114387442Y-65954383D01*
X114418800Y-66112030D01*
X114418800Y-66272770D01*
X114387442Y-66430417D01*
X114325930Y-66578921D01*
X114325929Y-66578922D01*
X114236631Y-66712567D01*
X114122967Y-66826231D01*
X114022733Y-66893204D01*
X113989321Y-66915530D01*
X113915070Y-66946285D01*
X113840817Y-66977042D01*
X113683170Y-67008400D01*
X113522430Y-67008400D01*
X113364783Y-66977042D01*
X113290530Y-66946285D01*
X113216279Y-66915530D01*
X113182867Y-66893204D01*
X113082633Y-66826231D01*
X112968969Y-66712567D01*
X112879671Y-66578922D01*
X112879670Y-66578921D01*
X112848915Y-66504670D01*
X112818158Y-66430417D01*
X112786800Y-66272770D01*
X112786800Y-66112030D01*
X112818158Y-65954383D01*
X112848915Y-65880130D01*
X112879670Y-65805879D01*
X112901995Y-65772467D01*
X112968969Y-65672233D01*
X113082633Y-65558569D01*
X113216278Y-65469271D01*
X113216279Y-65469270D01*
X113364783Y-65407758D01*
X113522430Y-65376400D01*
X113683170Y-65376400D01*
X113840817Y-65407758D01*
X113840817Y-65407758D01*
G37*
G36*
X125053668Y-61658083D02*
G01*
X125208540Y-61722233D01*
X125347921Y-61815365D01*
X125466455Y-61933899D01*
X125559587Y-62073280D01*
X125623737Y-62228152D01*
X125656440Y-62392564D01*
X125656440Y-62560196D01*
X125623737Y-62724608D01*
X125559587Y-62879480D01*
X125466455Y-63018861D01*
X125347921Y-63137395D01*
X125208540Y-63230527D01*
X125053668Y-63294677D01*
X124889256Y-63327380D01*
X124721624Y-63327380D01*
X124557212Y-63294677D01*
X124402340Y-63230527D01*
X124262959Y-63137395D01*
X124144425Y-63018861D01*
X124051293Y-62879480D01*
X123987143Y-62724608D01*
X123954440Y-62560196D01*
X123954440Y-62392564D01*
X123987143Y-62228152D01*
X124051293Y-62073280D01*
X124144425Y-61933899D01*
X124262959Y-61815365D01*
X124402340Y-61722233D01*
X124557212Y-61658083D01*
X124721624Y-61625380D01*
X124889256Y-61625380D01*
X125053668Y-61658083D01*
X125053668Y-61658083D01*
G37*
G36*
X130053668Y-61658083D02*
G01*
X130208540Y-61722233D01*
X130347921Y-61815365D01*
X130466455Y-61933899D01*
X130559587Y-62073280D01*
X130623737Y-62228152D01*
X130656440Y-62392564D01*
X130656440Y-62560196D01*
X130623737Y-62724608D01*
X130559587Y-62879480D01*
X130466455Y-63018861D01*
X130347921Y-63137395D01*
X130208540Y-63230527D01*
X130053668Y-63294677D01*
X129889256Y-63327380D01*
X129721624Y-63327380D01*
X129557212Y-63294677D01*
X129402340Y-63230527D01*
X129262959Y-63137395D01*
X129144425Y-63018861D01*
X129051293Y-62879480D01*
X128987143Y-62724608D01*
X128954440Y-62560196D01*
X128954440Y-62392564D01*
X128987143Y-62228152D01*
X129051293Y-62073280D01*
X129144425Y-61933899D01*
X129262959Y-61815365D01*
X129402340Y-61722233D01*
X129557212Y-61658083D01*
X129721624Y-61625380D01*
X129889256Y-61625380D01*
X130053668Y-61658083D01*
X130053668Y-61658083D01*
G37*
G36*
X182241672Y-61407587D02*
G01*
X182390972Y-61437284D01*
X182554944Y-61505204D01*
X182702514Y-61603807D01*
X182828013Y-61729306D01*
X182926616Y-61876876D01*
X182994536Y-62040848D01*
X183024233Y-62190148D01*
X183029160Y-62214918D01*
X183029160Y-62392402D01*
X183024233Y-62417172D01*
X182994536Y-62566472D01*
X182926616Y-62730444D01*
X182828013Y-62878014D01*
X182702514Y-63003513D01*
X182554944Y-63102116D01*
X182390972Y-63170036D01*
X182241672Y-63199733D01*
X182216902Y-63204660D01*
X182039418Y-63204660D01*
X182014648Y-63199733D01*
X181865348Y-63170036D01*
X181701376Y-63102116D01*
X181553806Y-63003513D01*
X181428307Y-62878014D01*
X181329704Y-62730444D01*
X181261784Y-62566472D01*
X181232087Y-62417172D01*
X181227160Y-62392402D01*
X181227160Y-62214918D01*
X181232087Y-62190148D01*
X181261784Y-62040848D01*
X181329704Y-61876876D01*
X181428307Y-61729306D01*
X181553806Y-61603807D01*
X181701376Y-61505204D01*
X181865348Y-61437284D01*
X182014648Y-61407587D01*
X182039418Y-61402660D01*
X182216902Y-61402660D01*
X182241672Y-61407587D01*
X182241672Y-61407587D01*
G37*
G36*
X174621672Y-61407587D02*
G01*
X174770972Y-61437284D01*
X174934944Y-61505204D01*
X175082514Y-61603807D01*
X175208013Y-61729306D01*
X175306616Y-61876876D01*
X175374536Y-62040848D01*
X175404233Y-62190148D01*
X175409160Y-62214918D01*
X175409160Y-62392402D01*
X175404233Y-62417172D01*
X175374536Y-62566472D01*
X175306616Y-62730444D01*
X175208013Y-62878014D01*
X175082514Y-63003513D01*
X174934944Y-63102116D01*
X174770972Y-63170036D01*
X174621672Y-63199733D01*
X174596902Y-63204660D01*
X174419418Y-63204660D01*
X174394648Y-63199733D01*
X174245348Y-63170036D01*
X174081376Y-63102116D01*
X173933806Y-63003513D01*
X173808307Y-62878014D01*
X173709704Y-62730444D01*
X173641784Y-62566472D01*
X173612087Y-62417172D01*
X173607160Y-62392402D01*
X173607160Y-62214918D01*
X173612087Y-62190148D01*
X173641784Y-62040848D01*
X173709704Y-61876876D01*
X173808307Y-61729306D01*
X173933806Y-61603807D01*
X174081376Y-61505204D01*
X174245348Y-61437284D01*
X174394648Y-61407587D01*
X174419418Y-61402660D01*
X174596902Y-61402660D01*
X174621672Y-61407587D01*
X174621672Y-61407587D01*
G37*
G36*
X169541672Y-61407587D02*
G01*
X169690972Y-61437284D01*
X169854944Y-61505204D01*
X170002514Y-61603807D01*
X170128013Y-61729306D01*
X170226616Y-61876876D01*
X170294536Y-62040848D01*
X170324233Y-62190148D01*
X170329160Y-62214918D01*
X170329160Y-62392402D01*
X170324233Y-62417172D01*
X170294536Y-62566472D01*
X170226616Y-62730444D01*
X170128013Y-62878014D01*
X170002514Y-63003513D01*
X169854944Y-63102116D01*
X169690972Y-63170036D01*
X169541672Y-63199733D01*
X169516902Y-63204660D01*
X169339418Y-63204660D01*
X169314648Y-63199733D01*
X169165348Y-63170036D01*
X169001376Y-63102116D01*
X168853806Y-63003513D01*
X168728307Y-62878014D01*
X168629704Y-62730444D01*
X168561784Y-62566472D01*
X168532087Y-62417172D01*
X168527160Y-62392402D01*
X168527160Y-62214918D01*
X168532087Y-62190148D01*
X168561784Y-62040848D01*
X168629704Y-61876876D01*
X168728307Y-61729306D01*
X168853806Y-61603807D01*
X169001376Y-61505204D01*
X169165348Y-61437284D01*
X169314648Y-61407587D01*
X169339418Y-61402660D01*
X169516902Y-61402660D01*
X169541672Y-61407587D01*
X169541672Y-61407587D01*
G37*
G36*
X167001672Y-61407587D02*
G01*
X167150972Y-61437284D01*
X167314944Y-61505204D01*
X167462514Y-61603807D01*
X167588013Y-61729306D01*
X167686616Y-61876876D01*
X167754536Y-62040848D01*
X167784233Y-62190148D01*
X167789160Y-62214918D01*
X167789160Y-62392402D01*
X167784233Y-62417172D01*
X167754536Y-62566472D01*
X167686616Y-62730444D01*
X167588013Y-62878014D01*
X167462514Y-63003513D01*
X167314944Y-63102116D01*
X167150972Y-63170036D01*
X167001672Y-63199733D01*
X166976902Y-63204660D01*
X166799418Y-63204660D01*
X166774648Y-63199733D01*
X166625348Y-63170036D01*
X166461376Y-63102116D01*
X166313806Y-63003513D01*
X166188307Y-62878014D01*
X166089704Y-62730444D01*
X166021784Y-62566472D01*
X165992087Y-62417172D01*
X165987160Y-62392402D01*
X165987160Y-62214918D01*
X165992087Y-62190148D01*
X166021784Y-62040848D01*
X166089704Y-61876876D01*
X166188307Y-61729306D01*
X166313806Y-61603807D01*
X166461376Y-61505204D01*
X166625348Y-61437284D01*
X166774648Y-61407587D01*
X166799418Y-61402660D01*
X166976902Y-61402660D01*
X167001672Y-61407587D01*
X167001672Y-61407587D01*
G37*
G36*
X172081672Y-61407587D02*
G01*
X172230972Y-61437284D01*
X172394944Y-61505204D01*
X172542514Y-61603807D01*
X172668013Y-61729306D01*
X172766616Y-61876876D01*
X172834536Y-62040848D01*
X172864233Y-62190148D01*
X172869160Y-62214918D01*
X172869160Y-62392402D01*
X172864233Y-62417172D01*
X172834536Y-62566472D01*
X172766616Y-62730444D01*
X172668013Y-62878014D01*
X172542514Y-63003513D01*
X172394944Y-63102116D01*
X172230972Y-63170036D01*
X172081672Y-63199733D01*
X172056902Y-63204660D01*
X171879418Y-63204660D01*
X171854648Y-63199733D01*
X171705348Y-63170036D01*
X171541376Y-63102116D01*
X171393806Y-63003513D01*
X171268307Y-62878014D01*
X171169704Y-62730444D01*
X171101784Y-62566472D01*
X171072087Y-62417172D01*
X171067160Y-62392402D01*
X171067160Y-62214918D01*
X171072087Y-62190148D01*
X171101784Y-62040848D01*
X171169704Y-61876876D01*
X171268307Y-61729306D01*
X171393806Y-61603807D01*
X171541376Y-61505204D01*
X171705348Y-61437284D01*
X171854648Y-61407587D01*
X171879418Y-61402660D01*
X172056902Y-61402660D01*
X172081672Y-61407587D01*
X172081672Y-61407587D01*
G37*
G36*
X161921672Y-61407587D02*
G01*
X162070972Y-61437284D01*
X162234944Y-61505204D01*
X162382514Y-61603807D01*
X162508013Y-61729306D01*
X162606616Y-61876876D01*
X162674536Y-62040848D01*
X162704233Y-62190148D01*
X162709160Y-62214918D01*
X162709160Y-62392402D01*
X162704233Y-62417172D01*
X162674536Y-62566472D01*
X162606616Y-62730444D01*
X162508013Y-62878014D01*
X162382514Y-63003513D01*
X162234944Y-63102116D01*
X162070972Y-63170036D01*
X161921672Y-63199733D01*
X161896902Y-63204660D01*
X161719418Y-63204660D01*
X161694648Y-63199733D01*
X161545348Y-63170036D01*
X161381376Y-63102116D01*
X161233806Y-63003513D01*
X161108307Y-62878014D01*
X161009704Y-62730444D01*
X160941784Y-62566472D01*
X160912087Y-62417172D01*
X160907160Y-62392402D01*
X160907160Y-62214918D01*
X160912087Y-62190148D01*
X160941784Y-62040848D01*
X161009704Y-61876876D01*
X161108307Y-61729306D01*
X161233806Y-61603807D01*
X161381376Y-61505204D01*
X161545348Y-61437284D01*
X161694648Y-61407587D01*
X161719418Y-61402660D01*
X161896902Y-61402660D01*
X161921672Y-61407587D01*
X161921672Y-61407587D01*
G37*
G36*
X159381672Y-61407587D02*
G01*
X159530972Y-61437284D01*
X159694944Y-61505204D01*
X159842514Y-61603807D01*
X159968013Y-61729306D01*
X160066616Y-61876876D01*
X160134536Y-62040848D01*
X160164233Y-62190148D01*
X160169160Y-62214918D01*
X160169160Y-62392402D01*
X160164233Y-62417172D01*
X160134536Y-62566472D01*
X160066616Y-62730444D01*
X159968013Y-62878014D01*
X159842514Y-63003513D01*
X159694944Y-63102116D01*
X159530972Y-63170036D01*
X159381672Y-63199733D01*
X159356902Y-63204660D01*
X159179418Y-63204660D01*
X159154648Y-63199733D01*
X159005348Y-63170036D01*
X158841376Y-63102116D01*
X158693806Y-63003513D01*
X158568307Y-62878014D01*
X158469704Y-62730444D01*
X158401784Y-62566472D01*
X158372087Y-62417172D01*
X158367160Y-62392402D01*
X158367160Y-62214918D01*
X158372087Y-62190148D01*
X158401784Y-62040848D01*
X158469704Y-61876876D01*
X158568307Y-61729306D01*
X158693806Y-61603807D01*
X158841376Y-61505204D01*
X159005348Y-61437284D01*
X159154648Y-61407587D01*
X159179418Y-61402660D01*
X159356902Y-61402660D01*
X159381672Y-61407587D01*
X159381672Y-61407587D01*
G37*
G36*
X156841672Y-61407587D02*
G01*
X156990972Y-61437284D01*
X157154944Y-61505204D01*
X157302514Y-61603807D01*
X157428013Y-61729306D01*
X157526616Y-61876876D01*
X157594536Y-62040848D01*
X157624233Y-62190148D01*
X157629160Y-62214918D01*
X157629160Y-62392402D01*
X157624233Y-62417172D01*
X157594536Y-62566472D01*
X157526616Y-62730444D01*
X157428013Y-62878014D01*
X157302514Y-63003513D01*
X157154944Y-63102116D01*
X156990972Y-63170036D01*
X156841672Y-63199733D01*
X156816902Y-63204660D01*
X156639418Y-63204660D01*
X156614648Y-63199733D01*
X156465348Y-63170036D01*
X156301376Y-63102116D01*
X156153806Y-63003513D01*
X156028307Y-62878014D01*
X155929704Y-62730444D01*
X155861784Y-62566472D01*
X155832087Y-62417172D01*
X155827160Y-62392402D01*
X155827160Y-62214918D01*
X155832087Y-62190148D01*
X155861784Y-62040848D01*
X155929704Y-61876876D01*
X156028307Y-61729306D01*
X156153806Y-61603807D01*
X156301376Y-61505204D01*
X156465348Y-61437284D01*
X156614648Y-61407587D01*
X156639418Y-61402660D01*
X156816902Y-61402660D01*
X156841672Y-61407587D01*
X156841672Y-61407587D01*
G37*
G36*
X164461672Y-61407587D02*
G01*
X164610972Y-61437284D01*
X164774944Y-61505204D01*
X164922514Y-61603807D01*
X165048013Y-61729306D01*
X165146616Y-61876876D01*
X165214536Y-62040848D01*
X165244233Y-62190148D01*
X165249160Y-62214918D01*
X165249160Y-62392402D01*
X165244233Y-62417172D01*
X165214536Y-62566472D01*
X165146616Y-62730444D01*
X165048013Y-62878014D01*
X164922514Y-63003513D01*
X164774944Y-63102116D01*
X164610972Y-63170036D01*
X164461672Y-63199733D01*
X164436902Y-63204660D01*
X164259418Y-63204660D01*
X164234648Y-63199733D01*
X164085348Y-63170036D01*
X163921376Y-63102116D01*
X163773806Y-63003513D01*
X163648307Y-62878014D01*
X163549704Y-62730444D01*
X163481784Y-62566472D01*
X163452087Y-62417172D01*
X163447160Y-62392402D01*
X163447160Y-62214918D01*
X163452087Y-62190148D01*
X163481784Y-62040848D01*
X163549704Y-61876876D01*
X163648307Y-61729306D01*
X163773806Y-61603807D01*
X163921376Y-61505204D01*
X164085348Y-61437284D01*
X164234648Y-61407587D01*
X164259418Y-61402660D01*
X164436902Y-61402660D01*
X164461672Y-61407587D01*
X164461672Y-61407587D01*
G37*
G36*
X177161672Y-61407587D02*
G01*
X177310972Y-61437284D01*
X177474944Y-61505204D01*
X177622514Y-61603807D01*
X177748013Y-61729306D01*
X177846616Y-61876876D01*
X177914536Y-62040848D01*
X177944233Y-62190148D01*
X177949160Y-62214918D01*
X177949160Y-62392402D01*
X177944233Y-62417172D01*
X177914536Y-62566472D01*
X177846616Y-62730444D01*
X177748013Y-62878014D01*
X177622514Y-63003513D01*
X177474944Y-63102116D01*
X177310972Y-63170036D01*
X177161672Y-63199733D01*
X177136902Y-63204660D01*
X176959418Y-63204660D01*
X176934648Y-63199733D01*
X176785348Y-63170036D01*
X176621376Y-63102116D01*
X176473806Y-63003513D01*
X176348307Y-62878014D01*
X176249704Y-62730444D01*
X176181784Y-62566472D01*
X176152087Y-62417172D01*
X176147160Y-62392402D01*
X176147160Y-62214918D01*
X176152087Y-62190148D01*
X176181784Y-62040848D01*
X176249704Y-61876876D01*
X176348307Y-61729306D01*
X176473806Y-61603807D01*
X176621376Y-61505204D01*
X176785348Y-61437284D01*
X176934648Y-61407587D01*
X176959418Y-61402660D01*
X177136902Y-61402660D01*
X177161672Y-61407587D01*
X177161672Y-61407587D01*
G37*
G36*
X154301672Y-61407587D02*
G01*
X154450972Y-61437284D01*
X154614944Y-61505204D01*
X154762514Y-61603807D01*
X154888013Y-61729306D01*
X154986616Y-61876876D01*
X155054536Y-62040848D01*
X155084233Y-62190148D01*
X155089160Y-62214918D01*
X155089160Y-62392402D01*
X155084233Y-62417172D01*
X155054536Y-62566472D01*
X154986616Y-62730444D01*
X154888013Y-62878014D01*
X154762514Y-63003513D01*
X154614944Y-63102116D01*
X154450972Y-63170036D01*
X154301672Y-63199733D01*
X154276902Y-63204660D01*
X154099418Y-63204660D01*
X154074648Y-63199733D01*
X153925348Y-63170036D01*
X153761376Y-63102116D01*
X153613806Y-63003513D01*
X153488307Y-62878014D01*
X153389704Y-62730444D01*
X153321784Y-62566472D01*
X153292087Y-62417172D01*
X153287160Y-62392402D01*
X153287160Y-62214918D01*
X153292087Y-62190148D01*
X153321784Y-62040848D01*
X153389704Y-61876876D01*
X153488307Y-61729306D01*
X153613806Y-61603807D01*
X153761376Y-61505204D01*
X153925348Y-61437284D01*
X154074648Y-61407587D01*
X154099418Y-61402660D01*
X154276902Y-61402660D01*
X154301672Y-61407587D01*
X154301672Y-61407587D01*
G37*
G36*
X151761672Y-61407587D02*
G01*
X151910972Y-61437284D01*
X152074944Y-61505204D01*
X152222514Y-61603807D01*
X152348013Y-61729306D01*
X152446616Y-61876876D01*
X152514536Y-62040848D01*
X152544233Y-62190148D01*
X152549160Y-62214918D01*
X152549160Y-62392402D01*
X152544233Y-62417172D01*
X152514536Y-62566472D01*
X152446616Y-62730444D01*
X152348013Y-62878014D01*
X152222514Y-63003513D01*
X152074944Y-63102116D01*
X151910972Y-63170036D01*
X151761672Y-63199733D01*
X151736902Y-63204660D01*
X151559418Y-63204660D01*
X151534648Y-63199733D01*
X151385348Y-63170036D01*
X151221376Y-63102116D01*
X151073806Y-63003513D01*
X150948307Y-62878014D01*
X150849704Y-62730444D01*
X150781784Y-62566472D01*
X150752087Y-62417172D01*
X150747160Y-62392402D01*
X150747160Y-62214918D01*
X150752087Y-62190148D01*
X150781784Y-62040848D01*
X150849704Y-61876876D01*
X150948307Y-61729306D01*
X151073806Y-61603807D01*
X151221376Y-61505204D01*
X151385348Y-61437284D01*
X151534648Y-61407587D01*
X151559418Y-61402660D01*
X151736902Y-61402660D01*
X151761672Y-61407587D01*
X151761672Y-61407587D01*
G37*
G36*
X149221672Y-61407587D02*
G01*
X149370972Y-61437284D01*
X149534944Y-61505204D01*
X149682514Y-61603807D01*
X149808013Y-61729306D01*
X149906616Y-61876876D01*
X149974536Y-62040848D01*
X150004233Y-62190148D01*
X150009160Y-62214918D01*
X150009160Y-62392402D01*
X150004233Y-62417172D01*
X149974536Y-62566472D01*
X149906616Y-62730444D01*
X149808013Y-62878014D01*
X149682514Y-63003513D01*
X149534944Y-63102116D01*
X149370972Y-63170036D01*
X149221672Y-63199733D01*
X149196902Y-63204660D01*
X149019418Y-63204660D01*
X148994648Y-63199733D01*
X148845348Y-63170036D01*
X148681376Y-63102116D01*
X148533806Y-63003513D01*
X148408307Y-62878014D01*
X148309704Y-62730444D01*
X148241784Y-62566472D01*
X148212087Y-62417172D01*
X148207160Y-62392402D01*
X148207160Y-62214918D01*
X148212087Y-62190148D01*
X148241784Y-62040848D01*
X148309704Y-61876876D01*
X148408307Y-61729306D01*
X148533806Y-61603807D01*
X148681376Y-61505204D01*
X148845348Y-61437284D01*
X148994648Y-61407587D01*
X149019418Y-61402660D01*
X149196902Y-61402660D01*
X149221672Y-61407587D01*
X149221672Y-61407587D01*
G37*
G36*
X179701672Y-61407587D02*
G01*
X179850972Y-61437284D01*
X180014944Y-61505204D01*
X180162514Y-61603807D01*
X180288013Y-61729306D01*
X180386616Y-61876876D01*
X180454536Y-62040848D01*
X180484233Y-62190148D01*
X180489160Y-62214918D01*
X180489160Y-62392402D01*
X180484233Y-62417172D01*
X180454536Y-62566472D01*
X180386616Y-62730444D01*
X180288013Y-62878014D01*
X180162514Y-63003513D01*
X180014944Y-63102116D01*
X179850972Y-63170036D01*
X179701672Y-63199733D01*
X179676902Y-63204660D01*
X179499418Y-63204660D01*
X179474648Y-63199733D01*
X179325348Y-63170036D01*
X179161376Y-63102116D01*
X179013806Y-63003513D01*
X178888307Y-62878014D01*
X178789704Y-62730444D01*
X178721784Y-62566472D01*
X178692087Y-62417172D01*
X178687160Y-62392402D01*
X178687160Y-62214918D01*
X178692087Y-62190148D01*
X178721784Y-62040848D01*
X178789704Y-61876876D01*
X178888307Y-61729306D01*
X179013806Y-61603807D01*
X179161376Y-61505204D01*
X179325348Y-61437284D01*
X179474648Y-61407587D01*
X179499418Y-61402660D01*
X179676902Y-61402660D01*
X179701672Y-61407587D01*
X179701672Y-61407587D01*
G37*
G36*
X184781672Y-61407587D02*
G01*
X184930972Y-61437284D01*
X185094944Y-61505204D01*
X185242514Y-61603807D01*
X185368013Y-61729306D01*
X185466616Y-61876876D01*
X185534536Y-62040848D01*
X185564233Y-62190148D01*
X185569160Y-62214918D01*
X185569160Y-62392402D01*
X185564233Y-62417172D01*
X185534536Y-62566472D01*
X185466616Y-62730444D01*
X185368013Y-62878014D01*
X185242514Y-63003513D01*
X185094944Y-63102116D01*
X184930972Y-63170036D01*
X184781672Y-63199733D01*
X184756902Y-63204660D01*
X184579418Y-63204660D01*
X184554648Y-63199733D01*
X184405348Y-63170036D01*
X184241376Y-63102116D01*
X184093806Y-63003513D01*
X183968307Y-62878014D01*
X183869704Y-62730444D01*
X183801784Y-62566472D01*
X183772087Y-62417172D01*
X183767160Y-62392402D01*
X183767160Y-62214918D01*
X183772087Y-62190148D01*
X183801784Y-62040848D01*
X183869704Y-61876876D01*
X183968307Y-61729306D01*
X184093806Y-61603807D01*
X184241376Y-61505204D01*
X184405348Y-61437284D01*
X184554648Y-61407587D01*
X184579418Y-61402660D01*
X184756902Y-61402660D01*
X184781672Y-61407587D01*
X184781672Y-61407587D01*
G37*
G36*
X111394698Y-60098176D02*
G01*
X111507985Y-60132542D01*
X111612392Y-60188349D01*
X111703907Y-60263453D01*
X111779011Y-60354968D01*
X111834818Y-60459375D01*
X111869184Y-60572662D01*
X111877880Y-60660961D01*
X111877880Y-61319999D01*
X111869184Y-61408298D01*
X111834818Y-61521585D01*
X111779011Y-61625992D01*
X111779010Y-61625993D01*
X111703907Y-61717507D01*
X111628803Y-61779142D01*
X111612391Y-61792611D01*
X111507984Y-61848418D01*
X111394697Y-61882784D01*
X111276880Y-61894387D01*
X111159062Y-61882784D01*
X111045775Y-61848418D01*
X110941368Y-61792611D01*
X110888541Y-61749257D01*
X110849853Y-61717507D01*
X110774750Y-61625992D01*
X110774749Y-61625991D01*
X110718942Y-61521584D01*
X110684576Y-61408297D01*
X110675880Y-61319998D01*
X110675880Y-60660961D01*
X110684576Y-60572662D01*
X110718941Y-60459378D01*
X110774751Y-60354966D01*
X110849854Y-60263453D01*
X110941369Y-60188349D01*
X111045776Y-60132542D01*
X111159063Y-60098176D01*
X111276880Y-60086573D01*
X111394698Y-60098176D01*
X111394698Y-60098176D01*
G37*
G36*
X112894698Y-60098176D02*
G01*
X113007985Y-60132542D01*
X113112392Y-60188349D01*
X113203907Y-60263453D01*
X113279011Y-60354968D01*
X113334818Y-60459375D01*
X113369184Y-60572662D01*
X113377880Y-60660961D01*
X113377880Y-61319999D01*
X113369184Y-61408298D01*
X113334818Y-61521585D01*
X113279011Y-61625992D01*
X113279010Y-61625993D01*
X113203907Y-61717507D01*
X113128803Y-61779142D01*
X113112391Y-61792611D01*
X113007984Y-61848418D01*
X112894697Y-61882784D01*
X112776880Y-61894387D01*
X112659062Y-61882784D01*
X112545775Y-61848418D01*
X112441368Y-61792611D01*
X112388541Y-61749257D01*
X112349853Y-61717507D01*
X112274750Y-61625992D01*
X112274749Y-61625991D01*
X112218942Y-61521584D01*
X112184576Y-61408297D01*
X112175880Y-61319998D01*
X112175880Y-60660961D01*
X112184576Y-60572662D01*
X112218941Y-60459378D01*
X112274751Y-60354966D01*
X112349854Y-60263453D01*
X112441369Y-60188349D01*
X112545776Y-60132542D01*
X112659063Y-60098176D01*
X112776880Y-60086573D01*
X112894698Y-60098176D01*
X112894698Y-60098176D01*
G37*
G36*
X114394698Y-60098176D02*
G01*
X114507985Y-60132542D01*
X114612392Y-60188349D01*
X114703907Y-60263453D01*
X114779011Y-60354968D01*
X114834818Y-60459375D01*
X114869184Y-60572662D01*
X114877880Y-60660961D01*
X114877880Y-61319999D01*
X114869184Y-61408298D01*
X114834818Y-61521585D01*
X114779011Y-61625992D01*
X114779010Y-61625993D01*
X114703907Y-61717507D01*
X114628803Y-61779142D01*
X114612391Y-61792611D01*
X114507984Y-61848418D01*
X114394697Y-61882784D01*
X114276880Y-61894387D01*
X114159062Y-61882784D01*
X114045775Y-61848418D01*
X113941368Y-61792611D01*
X113888541Y-61749257D01*
X113849853Y-61717507D01*
X113774750Y-61625992D01*
X113774749Y-61625991D01*
X113718942Y-61521584D01*
X113684576Y-61408297D01*
X113675880Y-61319998D01*
X113675880Y-60660961D01*
X113684576Y-60572662D01*
X113718941Y-60459378D01*
X113774751Y-60354966D01*
X113849854Y-60263453D01*
X113941369Y-60188349D01*
X114045776Y-60132542D01*
X114159063Y-60098176D01*
X114276880Y-60086573D01*
X114394698Y-60098176D01*
X114394698Y-60098176D01*
G37*
G36*
X115894698Y-60098176D02*
G01*
X116007985Y-60132542D01*
X116112392Y-60188349D01*
X116203907Y-60263453D01*
X116279011Y-60354968D01*
X116334818Y-60459375D01*
X116369184Y-60572662D01*
X116377880Y-60660961D01*
X116377880Y-61319999D01*
X116369184Y-61408298D01*
X116334818Y-61521585D01*
X116279011Y-61625992D01*
X116279010Y-61625993D01*
X116203907Y-61717507D01*
X116128803Y-61779142D01*
X116112391Y-61792611D01*
X116007984Y-61848418D01*
X115894697Y-61882784D01*
X115776880Y-61894387D01*
X115659062Y-61882784D01*
X115545775Y-61848418D01*
X115441368Y-61792611D01*
X115388541Y-61749257D01*
X115349853Y-61717507D01*
X115274750Y-61625992D01*
X115274749Y-61625991D01*
X115218942Y-61521584D01*
X115184576Y-61408297D01*
X115175880Y-61319998D01*
X115175880Y-60660961D01*
X115184576Y-60572662D01*
X115218941Y-60459378D01*
X115274751Y-60354966D01*
X115349854Y-60263453D01*
X115441369Y-60188349D01*
X115545776Y-60132542D01*
X115659063Y-60098176D01*
X115776880Y-60086573D01*
X115894698Y-60098176D01*
X115894698Y-60098176D01*
G37*
G36*
X117806571Y-60091772D02*
G01*
X117823050Y-60096771D01*
X117838237Y-60104889D01*
X117851548Y-60115812D01*
X117862471Y-60129123D01*
X117870589Y-60144310D01*
X117875588Y-60160789D01*
X117877880Y-60184062D01*
X117877880Y-61796898D01*
X117875588Y-61820171D01*
X117870589Y-61836650D01*
X117862471Y-61851837D01*
X117851548Y-61865148D01*
X117838237Y-61876071D01*
X117823050Y-61884189D01*
X117806571Y-61889188D01*
X117783298Y-61891480D01*
X116770462Y-61891480D01*
X116747189Y-61889188D01*
X116730710Y-61884189D01*
X116715523Y-61876071D01*
X116702212Y-61865148D01*
X116691289Y-61851837D01*
X116683171Y-61836650D01*
X116678172Y-61820171D01*
X116675880Y-61796898D01*
X116675880Y-60184062D01*
X116678172Y-60160789D01*
X116683171Y-60144310D01*
X116691289Y-60129123D01*
X116702212Y-60115812D01*
X116715523Y-60104889D01*
X116730710Y-60096771D01*
X116747189Y-60091772D01*
X116770462Y-60089480D01*
X117783298Y-60089480D01*
X117806571Y-60091772D01*
X117806571Y-60091772D01*
G37*
G36*
X137199053Y-58434113D02*
G01*
X137289277Y-58452059D01*
X137394887Y-58495805D01*
X137544241Y-58557669D01*
X137620383Y-58608545D01*
X137773706Y-58710992D01*
X137968848Y-58906134D01*
X138021894Y-58985524D01*
X138122171Y-59135599D01*
X138152834Y-59209626D01*
X138213961Y-59357198D01*
X138227781Y-59390564D01*
X138267774Y-59591621D01*
X138281620Y-59661234D01*
X138281620Y-59937206D01*
X138235405Y-60169550D01*
X138227781Y-60207876D01*
X138122171Y-60462841D01*
X138071295Y-60538983D01*
X137968848Y-60692306D01*
X137773706Y-60887448D01*
X137620383Y-60989895D01*
X137544241Y-61040771D01*
X137394887Y-61102635D01*
X137289277Y-61146381D01*
X137199053Y-61164327D01*
X137018608Y-61200220D01*
X136742632Y-61200220D01*
X136562187Y-61164327D01*
X136471963Y-61146381D01*
X136366353Y-61102635D01*
X136216999Y-61040771D01*
X136140857Y-60989895D01*
X135987534Y-60887448D01*
X135792392Y-60692306D01*
X135689945Y-60538983D01*
X135639069Y-60462841D01*
X135533459Y-60207876D01*
X135525836Y-60169550D01*
X135479620Y-59937206D01*
X135479620Y-59661234D01*
X135493467Y-59591621D01*
X135533459Y-59390564D01*
X135547280Y-59357198D01*
X135608406Y-59209626D01*
X135639069Y-59135599D01*
X135739346Y-58985524D01*
X135792392Y-58906134D01*
X135987534Y-58710992D01*
X136140857Y-58608545D01*
X136216999Y-58557669D01*
X136366353Y-58495805D01*
X136471963Y-58452059D01*
X136562187Y-58434113D01*
X136742632Y-58398220D01*
X137018608Y-58398220D01*
X137199053Y-58434113D01*
X137199053Y-58434113D01*
G37*
G36*
X179737232Y-58887907D02*
G01*
X179886532Y-58917604D01*
X180050504Y-58985524D01*
X180198074Y-59084127D01*
X180323573Y-59209626D01*
X180422176Y-59357196D01*
X180490096Y-59521168D01*
X180524720Y-59695239D01*
X180524720Y-59872721D01*
X180490096Y-60046792D01*
X180422176Y-60210764D01*
X180323573Y-60358334D01*
X180198074Y-60483833D01*
X180050504Y-60582436D01*
X179886532Y-60650356D01*
X179737232Y-60680053D01*
X179712462Y-60684980D01*
X179534978Y-60684980D01*
X179510208Y-60680053D01*
X179360908Y-60650356D01*
X179196936Y-60582436D01*
X179049366Y-60483833D01*
X178923867Y-60358334D01*
X178825264Y-60210764D01*
X178757344Y-60046792D01*
X178722720Y-59872721D01*
X178722720Y-59695239D01*
X178757344Y-59521168D01*
X178825264Y-59357196D01*
X178923867Y-59209626D01*
X179049366Y-59084127D01*
X179196936Y-58985524D01*
X179360908Y-58917604D01*
X179510208Y-58887907D01*
X179534978Y-58882980D01*
X179712462Y-58882980D01*
X179737232Y-58887907D01*
X179737232Y-58887907D01*
G37*
G36*
X169577232Y-58887907D02*
G01*
X169726532Y-58917604D01*
X169890504Y-58985524D01*
X170038074Y-59084127D01*
X170163573Y-59209626D01*
X170262176Y-59357196D01*
X170330096Y-59521168D01*
X170364720Y-59695239D01*
X170364720Y-59872721D01*
X170330096Y-60046792D01*
X170262176Y-60210764D01*
X170163573Y-60358334D01*
X170038074Y-60483833D01*
X169890504Y-60582436D01*
X169726532Y-60650356D01*
X169577232Y-60680053D01*
X169552462Y-60684980D01*
X169374978Y-60684980D01*
X169350208Y-60680053D01*
X169200908Y-60650356D01*
X169036936Y-60582436D01*
X168889366Y-60483833D01*
X168763867Y-60358334D01*
X168665264Y-60210764D01*
X168597344Y-60046792D01*
X168562720Y-59872721D01*
X168562720Y-59695239D01*
X168597344Y-59521168D01*
X168665264Y-59357196D01*
X168763867Y-59209626D01*
X168889366Y-59084127D01*
X169036936Y-58985524D01*
X169200908Y-58917604D01*
X169350208Y-58887907D01*
X169374978Y-58882980D01*
X169552462Y-58882980D01*
X169577232Y-58887907D01*
X169577232Y-58887907D01*
G37*
G36*
X167037232Y-58887907D02*
G01*
X167186532Y-58917604D01*
X167350504Y-58985524D01*
X167498074Y-59084127D01*
X167623573Y-59209626D01*
X167722176Y-59357196D01*
X167790096Y-59521168D01*
X167824720Y-59695239D01*
X167824720Y-59872721D01*
X167790096Y-60046792D01*
X167722176Y-60210764D01*
X167623573Y-60358334D01*
X167498074Y-60483833D01*
X167350504Y-60582436D01*
X167186532Y-60650356D01*
X167037232Y-60680053D01*
X167012462Y-60684980D01*
X166834978Y-60684980D01*
X166810208Y-60680053D01*
X166660908Y-60650356D01*
X166496936Y-60582436D01*
X166349366Y-60483833D01*
X166223867Y-60358334D01*
X166125264Y-60210764D01*
X166057344Y-60046792D01*
X166022720Y-59872721D01*
X166022720Y-59695239D01*
X166057344Y-59521168D01*
X166125264Y-59357196D01*
X166223867Y-59209626D01*
X166349366Y-59084127D01*
X166496936Y-58985524D01*
X166660908Y-58917604D01*
X166810208Y-58887907D01*
X166834978Y-58882980D01*
X167012462Y-58882980D01*
X167037232Y-58887907D01*
X167037232Y-58887907D01*
G37*
G36*
X164497232Y-58887907D02*
G01*
X164646532Y-58917604D01*
X164810504Y-58985524D01*
X164958074Y-59084127D01*
X165083573Y-59209626D01*
X165182176Y-59357196D01*
X165250096Y-59521168D01*
X165284720Y-59695239D01*
X165284720Y-59872721D01*
X165250096Y-60046792D01*
X165182176Y-60210764D01*
X165083573Y-60358334D01*
X164958074Y-60483833D01*
X164810504Y-60582436D01*
X164646532Y-60650356D01*
X164497232Y-60680053D01*
X164472462Y-60684980D01*
X164294978Y-60684980D01*
X164270208Y-60680053D01*
X164120908Y-60650356D01*
X163956936Y-60582436D01*
X163809366Y-60483833D01*
X163683867Y-60358334D01*
X163585264Y-60210764D01*
X163517344Y-60046792D01*
X163482720Y-59872721D01*
X163482720Y-59695239D01*
X163517344Y-59521168D01*
X163585264Y-59357196D01*
X163683867Y-59209626D01*
X163809366Y-59084127D01*
X163956936Y-58985524D01*
X164120908Y-58917604D01*
X164270208Y-58887907D01*
X164294978Y-58882980D01*
X164472462Y-58882980D01*
X164497232Y-58887907D01*
X164497232Y-58887907D01*
G37*
G36*
X161957232Y-58887907D02*
G01*
X162106532Y-58917604D01*
X162270504Y-58985524D01*
X162418074Y-59084127D01*
X162543573Y-59209626D01*
X162642176Y-59357196D01*
X162710096Y-59521168D01*
X162744720Y-59695239D01*
X162744720Y-59872721D01*
X162710096Y-60046792D01*
X162642176Y-60210764D01*
X162543573Y-60358334D01*
X162418074Y-60483833D01*
X162270504Y-60582436D01*
X162106532Y-60650356D01*
X161957232Y-60680053D01*
X161932462Y-60684980D01*
X161754978Y-60684980D01*
X161730208Y-60680053D01*
X161580908Y-60650356D01*
X161416936Y-60582436D01*
X161269366Y-60483833D01*
X161143867Y-60358334D01*
X161045264Y-60210764D01*
X160977344Y-60046792D01*
X160942720Y-59872721D01*
X160942720Y-59695239D01*
X160977344Y-59521168D01*
X161045264Y-59357196D01*
X161143867Y-59209626D01*
X161269366Y-59084127D01*
X161416936Y-58985524D01*
X161580908Y-58917604D01*
X161730208Y-58887907D01*
X161754978Y-58882980D01*
X161932462Y-58882980D01*
X161957232Y-58887907D01*
X161957232Y-58887907D01*
G37*
G36*
X159417232Y-58887907D02*
G01*
X159566532Y-58917604D01*
X159730504Y-58985524D01*
X159878074Y-59084127D01*
X160003573Y-59209626D01*
X160102176Y-59357196D01*
X160170096Y-59521168D01*
X160204720Y-59695239D01*
X160204720Y-59872721D01*
X160170096Y-60046792D01*
X160102176Y-60210764D01*
X160003573Y-60358334D01*
X159878074Y-60483833D01*
X159730504Y-60582436D01*
X159566532Y-60650356D01*
X159417232Y-60680053D01*
X159392462Y-60684980D01*
X159214978Y-60684980D01*
X159190208Y-60680053D01*
X159040908Y-60650356D01*
X158876936Y-60582436D01*
X158729366Y-60483833D01*
X158603867Y-60358334D01*
X158505264Y-60210764D01*
X158437344Y-60046792D01*
X158402720Y-59872721D01*
X158402720Y-59695239D01*
X158437344Y-59521168D01*
X158505264Y-59357196D01*
X158603867Y-59209626D01*
X158729366Y-59084127D01*
X158876936Y-58985524D01*
X159040908Y-58917604D01*
X159190208Y-58887907D01*
X159214978Y-58882980D01*
X159392462Y-58882980D01*
X159417232Y-58887907D01*
X159417232Y-58887907D01*
G37*
G36*
X156877232Y-58887907D02*
G01*
X157026532Y-58917604D01*
X157190504Y-58985524D01*
X157338074Y-59084127D01*
X157463573Y-59209626D01*
X157562176Y-59357196D01*
X157630096Y-59521168D01*
X157664720Y-59695239D01*
X157664720Y-59872721D01*
X157630096Y-60046792D01*
X157562176Y-60210764D01*
X157463573Y-60358334D01*
X157338074Y-60483833D01*
X157190504Y-60582436D01*
X157026532Y-60650356D01*
X156877232Y-60680053D01*
X156852462Y-60684980D01*
X156674978Y-60684980D01*
X156650208Y-60680053D01*
X156500908Y-60650356D01*
X156336936Y-60582436D01*
X156189366Y-60483833D01*
X156063867Y-60358334D01*
X155965264Y-60210764D01*
X155897344Y-60046792D01*
X155862720Y-59872721D01*
X155862720Y-59695239D01*
X155897344Y-59521168D01*
X155965264Y-59357196D01*
X156063867Y-59209626D01*
X156189366Y-59084127D01*
X156336936Y-58985524D01*
X156500908Y-58917604D01*
X156650208Y-58887907D01*
X156674978Y-58882980D01*
X156852462Y-58882980D01*
X156877232Y-58887907D01*
X156877232Y-58887907D01*
G37*
G36*
X151797232Y-58887907D02*
G01*
X151946532Y-58917604D01*
X152110504Y-58985524D01*
X152258074Y-59084127D01*
X152383573Y-59209626D01*
X152482176Y-59357196D01*
X152550096Y-59521168D01*
X152584720Y-59695239D01*
X152584720Y-59872721D01*
X152550096Y-60046792D01*
X152482176Y-60210764D01*
X152383573Y-60358334D01*
X152258074Y-60483833D01*
X152110504Y-60582436D01*
X151946532Y-60650356D01*
X151797232Y-60680053D01*
X151772462Y-60684980D01*
X151594978Y-60684980D01*
X151570208Y-60680053D01*
X151420908Y-60650356D01*
X151256936Y-60582436D01*
X151109366Y-60483833D01*
X150983867Y-60358334D01*
X150885264Y-60210764D01*
X150817344Y-60046792D01*
X150782720Y-59872721D01*
X150782720Y-59695239D01*
X150817344Y-59521168D01*
X150885264Y-59357196D01*
X150983867Y-59209626D01*
X151109366Y-59084127D01*
X151256936Y-58985524D01*
X151420908Y-58917604D01*
X151570208Y-58887907D01*
X151594978Y-58882980D01*
X151772462Y-58882980D01*
X151797232Y-58887907D01*
X151797232Y-58887907D01*
G37*
G36*
X149257232Y-58887907D02*
G01*
X149406532Y-58917604D01*
X149570504Y-58985524D01*
X149718074Y-59084127D01*
X149843573Y-59209626D01*
X149942176Y-59357196D01*
X150010096Y-59521168D01*
X150044720Y-59695239D01*
X150044720Y-59872721D01*
X150010096Y-60046792D01*
X149942176Y-60210764D01*
X149843573Y-60358334D01*
X149718074Y-60483833D01*
X149570504Y-60582436D01*
X149406532Y-60650356D01*
X149257232Y-60680053D01*
X149232462Y-60684980D01*
X149054978Y-60684980D01*
X149030208Y-60680053D01*
X148880908Y-60650356D01*
X148716936Y-60582436D01*
X148569366Y-60483833D01*
X148443867Y-60358334D01*
X148345264Y-60210764D01*
X148277344Y-60046792D01*
X148242720Y-59872721D01*
X148242720Y-59695239D01*
X148277344Y-59521168D01*
X148345264Y-59357196D01*
X148443867Y-59209626D01*
X148569366Y-59084127D01*
X148716936Y-58985524D01*
X148880908Y-58917604D01*
X149030208Y-58887907D01*
X149054978Y-58882980D01*
X149232462Y-58882980D01*
X149257232Y-58887907D01*
X149257232Y-58887907D01*
G37*
G36*
X182277232Y-58887907D02*
G01*
X182426532Y-58917604D01*
X182590504Y-58985524D01*
X182738074Y-59084127D01*
X182863573Y-59209626D01*
X182962176Y-59357196D01*
X183030096Y-59521168D01*
X183064720Y-59695239D01*
X183064720Y-59872721D01*
X183030096Y-60046792D01*
X182962176Y-60210764D01*
X182863573Y-60358334D01*
X182738074Y-60483833D01*
X182590504Y-60582436D01*
X182426532Y-60650356D01*
X182277232Y-60680053D01*
X182252462Y-60684980D01*
X182074978Y-60684980D01*
X182050208Y-60680053D01*
X181900908Y-60650356D01*
X181736936Y-60582436D01*
X181589366Y-60483833D01*
X181463867Y-60358334D01*
X181365264Y-60210764D01*
X181297344Y-60046792D01*
X181262720Y-59872721D01*
X181262720Y-59695239D01*
X181297344Y-59521168D01*
X181365264Y-59357196D01*
X181463867Y-59209626D01*
X181589366Y-59084127D01*
X181736936Y-58985524D01*
X181900908Y-58917604D01*
X182050208Y-58887907D01*
X182074978Y-58882980D01*
X182252462Y-58882980D01*
X182277232Y-58887907D01*
X182277232Y-58887907D01*
G37*
G36*
X174657232Y-58887907D02*
G01*
X174806532Y-58917604D01*
X174970504Y-58985524D01*
X175118074Y-59084127D01*
X175243573Y-59209626D01*
X175342176Y-59357196D01*
X175410096Y-59521168D01*
X175444720Y-59695239D01*
X175444720Y-59872721D01*
X175410096Y-60046792D01*
X175342176Y-60210764D01*
X175243573Y-60358334D01*
X175118074Y-60483833D01*
X174970504Y-60582436D01*
X174806532Y-60650356D01*
X174657232Y-60680053D01*
X174632462Y-60684980D01*
X174454978Y-60684980D01*
X174430208Y-60680053D01*
X174280908Y-60650356D01*
X174116936Y-60582436D01*
X173969366Y-60483833D01*
X173843867Y-60358334D01*
X173745264Y-60210764D01*
X173677344Y-60046792D01*
X173642720Y-59872721D01*
X173642720Y-59695239D01*
X173677344Y-59521168D01*
X173745264Y-59357196D01*
X173843867Y-59209626D01*
X173969366Y-59084127D01*
X174116936Y-58985524D01*
X174280908Y-58917604D01*
X174430208Y-58887907D01*
X174454978Y-58882980D01*
X174632462Y-58882980D01*
X174657232Y-58887907D01*
X174657232Y-58887907D01*
G37*
G36*
X177197232Y-58887907D02*
G01*
X177346532Y-58917604D01*
X177510504Y-58985524D01*
X177658074Y-59084127D01*
X177783573Y-59209626D01*
X177882176Y-59357196D01*
X177950096Y-59521168D01*
X177984720Y-59695239D01*
X177984720Y-59872721D01*
X177950096Y-60046792D01*
X177882176Y-60210764D01*
X177783573Y-60358334D01*
X177658074Y-60483833D01*
X177510504Y-60582436D01*
X177346532Y-60650356D01*
X177197232Y-60680053D01*
X177172462Y-60684980D01*
X176994978Y-60684980D01*
X176970208Y-60680053D01*
X176820908Y-60650356D01*
X176656936Y-60582436D01*
X176509366Y-60483833D01*
X176383867Y-60358334D01*
X176285264Y-60210764D01*
X176217344Y-60046792D01*
X176182720Y-59872721D01*
X176182720Y-59695239D01*
X176217344Y-59521168D01*
X176285264Y-59357196D01*
X176383867Y-59209626D01*
X176509366Y-59084127D01*
X176656936Y-58985524D01*
X176820908Y-58917604D01*
X176970208Y-58887907D01*
X176994978Y-58882980D01*
X177172462Y-58882980D01*
X177197232Y-58887907D01*
X177197232Y-58887907D01*
G37*
G36*
X154337232Y-58887907D02*
G01*
X154486532Y-58917604D01*
X154650504Y-58985524D01*
X154798074Y-59084127D01*
X154923573Y-59209626D01*
X155022176Y-59357196D01*
X155090096Y-59521168D01*
X155124720Y-59695239D01*
X155124720Y-59872721D01*
X155090096Y-60046792D01*
X155022176Y-60210764D01*
X154923573Y-60358334D01*
X154798074Y-60483833D01*
X154650504Y-60582436D01*
X154486532Y-60650356D01*
X154337232Y-60680053D01*
X154312462Y-60684980D01*
X154134978Y-60684980D01*
X154110208Y-60680053D01*
X153960908Y-60650356D01*
X153796936Y-60582436D01*
X153649366Y-60483833D01*
X153523867Y-60358334D01*
X153425264Y-60210764D01*
X153357344Y-60046792D01*
X153322720Y-59872721D01*
X153322720Y-59695239D01*
X153357344Y-59521168D01*
X153425264Y-59357196D01*
X153523867Y-59209626D01*
X153649366Y-59084127D01*
X153796936Y-58985524D01*
X153960908Y-58917604D01*
X154110208Y-58887907D01*
X154134978Y-58882980D01*
X154312462Y-58882980D01*
X154337232Y-58887907D01*
X154337232Y-58887907D01*
G37*
G36*
X184817232Y-58887907D02*
G01*
X184966532Y-58917604D01*
X185130504Y-58985524D01*
X185278074Y-59084127D01*
X185403573Y-59209626D01*
X185502176Y-59357196D01*
X185570096Y-59521168D01*
X185604720Y-59695239D01*
X185604720Y-59872721D01*
X185570096Y-60046792D01*
X185502176Y-60210764D01*
X185403573Y-60358334D01*
X185278074Y-60483833D01*
X185130504Y-60582436D01*
X184966532Y-60650356D01*
X184817232Y-60680053D01*
X184792462Y-60684980D01*
X184614978Y-60684980D01*
X184590208Y-60680053D01*
X184440908Y-60650356D01*
X184276936Y-60582436D01*
X184129366Y-60483833D01*
X184003867Y-60358334D01*
X183905264Y-60210764D01*
X183837344Y-60046792D01*
X183802720Y-59872721D01*
X183802720Y-59695239D01*
X183837344Y-59521168D01*
X183905264Y-59357196D01*
X184003867Y-59209626D01*
X184129366Y-59084127D01*
X184276936Y-58985524D01*
X184440908Y-58917604D01*
X184590208Y-58887907D01*
X184614978Y-58882980D01*
X184792462Y-58882980D01*
X184817232Y-58887907D01*
X184817232Y-58887907D01*
G37*
G36*
X172117232Y-58887907D02*
G01*
X172266532Y-58917604D01*
X172430504Y-58985524D01*
X172578074Y-59084127D01*
X172703573Y-59209626D01*
X172802176Y-59357196D01*
X172870096Y-59521168D01*
X172904720Y-59695239D01*
X172904720Y-59872721D01*
X172870096Y-60046792D01*
X172802176Y-60210764D01*
X172703573Y-60358334D01*
X172578074Y-60483833D01*
X172430504Y-60582436D01*
X172266532Y-60650356D01*
X172117232Y-60680053D01*
X172092462Y-60684980D01*
X171914978Y-60684980D01*
X171890208Y-60680053D01*
X171740908Y-60650356D01*
X171576936Y-60582436D01*
X171429366Y-60483833D01*
X171303867Y-60358334D01*
X171205264Y-60210764D01*
X171137344Y-60046792D01*
X171102720Y-59872721D01*
X171102720Y-59695239D01*
X171137344Y-59521168D01*
X171205264Y-59357196D01*
X171303867Y-59209626D01*
X171429366Y-59084127D01*
X171576936Y-58985524D01*
X171740908Y-58917604D01*
X171890208Y-58887907D01*
X171914978Y-58882980D01*
X172092462Y-58882980D01*
X172117232Y-58887907D01*
X172117232Y-58887907D01*
G37*
G36*
X53926433Y-57562893D02*
G01*
X54016657Y-57580839D01*
X54122267Y-57624585D01*
X54271621Y-57686449D01*
X54271622Y-57686450D01*
X54501086Y-57839772D01*
X54696228Y-58034914D01*
X54784502Y-58167026D01*
X54849551Y-58264379D01*
X54874060Y-58323549D01*
X54955161Y-58519343D01*
X54965901Y-58573338D01*
X55009000Y-58790012D01*
X55009000Y-59065988D01*
X54973107Y-59246433D01*
X54955161Y-59336657D01*
X54932832Y-59390563D01*
X54849551Y-59591621D01*
X54849550Y-59591622D01*
X54696228Y-59821086D01*
X54501086Y-60016228D01*
X54352047Y-60115812D01*
X54271621Y-60169551D01*
X54172124Y-60210764D01*
X54016657Y-60275161D01*
X53926433Y-60293107D01*
X53745988Y-60329000D01*
X53470012Y-60329000D01*
X53289567Y-60293107D01*
X53199343Y-60275161D01*
X53043876Y-60210764D01*
X52944379Y-60169551D01*
X52863953Y-60115812D01*
X52714914Y-60016228D01*
X52519772Y-59821086D01*
X52366450Y-59591622D01*
X52366449Y-59591621D01*
X52283168Y-59390563D01*
X52260839Y-59336657D01*
X52242893Y-59246433D01*
X52207000Y-59065988D01*
X52207000Y-58790012D01*
X52250099Y-58573338D01*
X52260839Y-58519343D01*
X52341940Y-58323549D01*
X52366449Y-58264379D01*
X52431498Y-58167026D01*
X52519772Y-58034914D01*
X52714914Y-57839772D01*
X52944378Y-57686450D01*
X52944379Y-57686449D01*
X53093733Y-57624585D01*
X53199343Y-57580839D01*
X53289567Y-57562893D01*
X53470012Y-57527000D01*
X53745988Y-57527000D01*
X53926433Y-57562893D01*
X53926433Y-57562893D01*
G37*
G36*
X127440643Y-56926079D02*
G01*
X127506827Y-56932597D01*
X127676666Y-56984117D01*
X127833191Y-57067782D01*
X127868929Y-57097112D01*
X127970386Y-57180374D01*
X128053648Y-57281831D01*
X128082978Y-57317569D01*
X128166643Y-57474094D01*
X128218163Y-57643933D01*
X128235559Y-57820560D01*
X128218163Y-57997187D01*
X128166643Y-58167026D01*
X128082978Y-58323551D01*
X128053648Y-58359289D01*
X127970386Y-58460746D01*
X127868929Y-58544008D01*
X127833191Y-58573338D01*
X127676666Y-58657003D01*
X127506827Y-58708523D01*
X127440643Y-58715041D01*
X127374460Y-58721560D01*
X127285940Y-58721560D01*
X127219757Y-58715041D01*
X127153573Y-58708523D01*
X126983734Y-58657003D01*
X126827209Y-58573338D01*
X126791471Y-58544008D01*
X126690014Y-58460746D01*
X126606752Y-58359289D01*
X126577422Y-58323551D01*
X126493757Y-58167026D01*
X126442237Y-57997187D01*
X126424841Y-57820560D01*
X126442237Y-57643933D01*
X126493757Y-57474094D01*
X126577422Y-57317569D01*
X126606752Y-57281831D01*
X126690014Y-57180374D01*
X126791471Y-57097112D01*
X126827209Y-57067782D01*
X126983734Y-56984117D01*
X127153573Y-56932597D01*
X127219757Y-56926079D01*
X127285940Y-56919560D01*
X127374460Y-56919560D01*
X127440643Y-56926079D01*
X127440643Y-56926079D01*
G37*
G36*
X129980643Y-56926079D02*
G01*
X130046827Y-56932597D01*
X130216666Y-56984117D01*
X130373191Y-57067782D01*
X130408929Y-57097112D01*
X130510386Y-57180374D01*
X130593648Y-57281831D01*
X130622978Y-57317569D01*
X130706643Y-57474094D01*
X130758163Y-57643933D01*
X130775559Y-57820560D01*
X130758163Y-57997187D01*
X130706643Y-58167026D01*
X130622978Y-58323551D01*
X130593648Y-58359289D01*
X130510386Y-58460746D01*
X130408929Y-58544008D01*
X130373191Y-58573338D01*
X130216666Y-58657003D01*
X130046827Y-58708523D01*
X129980643Y-58715041D01*
X129914460Y-58721560D01*
X129825940Y-58721560D01*
X129759757Y-58715041D01*
X129693573Y-58708523D01*
X129523734Y-58657003D01*
X129367209Y-58573338D01*
X129331471Y-58544008D01*
X129230014Y-58460746D01*
X129146752Y-58359289D01*
X129117422Y-58323551D01*
X129033757Y-58167026D01*
X128982237Y-57997187D01*
X128964841Y-57820560D01*
X128982237Y-57643933D01*
X129033757Y-57474094D01*
X129117422Y-57317569D01*
X129146752Y-57281831D01*
X129230014Y-57180374D01*
X129331471Y-57097112D01*
X129367209Y-57067782D01*
X129523734Y-56984117D01*
X129693573Y-56932597D01*
X129759757Y-56926079D01*
X129825940Y-56919560D01*
X129914460Y-56919560D01*
X129980643Y-56926079D01*
X129980643Y-56926079D01*
G37*
G36*
X132520643Y-56926079D02*
G01*
X132586827Y-56932597D01*
X132756666Y-56984117D01*
X132913191Y-57067782D01*
X132948929Y-57097112D01*
X133050386Y-57180374D01*
X133133648Y-57281831D01*
X133162978Y-57317569D01*
X133246643Y-57474094D01*
X133298163Y-57643933D01*
X133315559Y-57820560D01*
X133298163Y-57997187D01*
X133246643Y-58167026D01*
X133162978Y-58323551D01*
X133133648Y-58359289D01*
X133050386Y-58460746D01*
X132948929Y-58544008D01*
X132913191Y-58573338D01*
X132756666Y-58657003D01*
X132586827Y-58708523D01*
X132520643Y-58715041D01*
X132454460Y-58721560D01*
X132365940Y-58721560D01*
X132299757Y-58715041D01*
X132233573Y-58708523D01*
X132063734Y-58657003D01*
X131907209Y-58573338D01*
X131871471Y-58544008D01*
X131770014Y-58460746D01*
X131686752Y-58359289D01*
X131657422Y-58323551D01*
X131573757Y-58167026D01*
X131522237Y-57997187D01*
X131504841Y-57820560D01*
X131522237Y-57643933D01*
X131573757Y-57474094D01*
X131657422Y-57317569D01*
X131686752Y-57281831D01*
X131770014Y-57180374D01*
X131871471Y-57097112D01*
X131907209Y-57067782D01*
X132063734Y-56984117D01*
X132233573Y-56932597D01*
X132299757Y-56926079D01*
X132365940Y-56919560D01*
X132454460Y-56919560D01*
X132520643Y-56926079D01*
X132520643Y-56926079D01*
G37*
G36*
X125691200Y-58721560D02*
G01*
X123889200Y-58721560D01*
X123889200Y-56919560D01*
X125691200Y-56919560D01*
X125691200Y-58721560D01*
X125691200Y-58721560D01*
G37*
M02*
