G04 #@! TF.GenerationSoftware,KiCad,Pcbnew,(5.1.4)-1*
G04 #@! TF.CreationDate,2019-11-19T17:41:37+01:00*
G04 #@! TF.ProjectId,DNMS,444e4d53-2e6b-4696-9361-645f70636258,0.9.0*
G04 #@! TF.SameCoordinates,Original*
G04 #@! TF.FileFunction,Legend,Top*
G04 #@! TF.FilePolarity,Positive*
%FSLAX46Y46*%
G04 Gerber Fmt 4.6, Leading zero omitted, Abs format (unit mm)*
G04 Created by KiCad (PCBNEW (5.1.4)-1) date 2019-11-19 17:41:37*
%MOMM*%
%LPD*%
G04 APERTURE LIST*
%ADD10C,0.150000*%
%ADD11C,0.300000*%
%ADD12C,0.750000*%
%ADD13C,0.120000*%
%ADD14C,0.127000*%
%ADD15C,0.152400*%
%ADD16C,0.010000*%
%ADD17C,0.200000*%
G04 APERTURE END LIST*
D10*
X61080965Y-77801101D02*
X61223822Y-77848720D01*
X61461918Y-77848720D01*
X61557156Y-77801101D01*
X61604775Y-77753482D01*
X61652394Y-77658244D01*
X61652394Y-77563006D01*
X61604775Y-77467768D01*
X61557156Y-77420149D01*
X61461918Y-77372530D01*
X61271441Y-77324911D01*
X61176203Y-77277292D01*
X61128584Y-77229673D01*
X61080965Y-77134435D01*
X61080965Y-77039197D01*
X61128584Y-76943959D01*
X61176203Y-76896340D01*
X61271441Y-76848720D01*
X61509537Y-76848720D01*
X61652394Y-76896340D01*
X62652394Y-77753482D02*
X62604775Y-77801101D01*
X62461918Y-77848720D01*
X62366680Y-77848720D01*
X62223822Y-77801101D01*
X62128584Y-77705863D01*
X62080965Y-77610625D01*
X62033346Y-77420149D01*
X62033346Y-77277292D01*
X62080965Y-77086816D01*
X62128584Y-76991578D01*
X62223822Y-76896340D01*
X62366680Y-76848720D01*
X62461918Y-76848720D01*
X62604775Y-76896340D01*
X62652394Y-76943959D01*
X63080965Y-77848720D02*
X63080965Y-76848720D01*
X63652394Y-77848720D02*
X63223822Y-77277292D01*
X63652394Y-76848720D02*
X63080965Y-77420149D01*
D11*
X147992451Y-78228451D02*
X148849594Y-78228451D01*
X148421022Y-79728451D02*
X148421022Y-78228451D01*
X149206737Y-78228451D02*
X150135308Y-78228451D01*
X149635308Y-78799880D01*
X149849594Y-78799880D01*
X149992451Y-78871308D01*
X150063880Y-78942737D01*
X150135308Y-79085594D01*
X150135308Y-79442737D01*
X150063880Y-79585594D01*
X149992451Y-79657022D01*
X149849594Y-79728451D01*
X149421022Y-79728451D01*
X149278165Y-79657022D01*
X149206737Y-79585594D01*
X150778165Y-79585594D02*
X150849594Y-79657022D01*
X150778165Y-79728451D01*
X150706737Y-79657022D01*
X150778165Y-79585594D01*
X150778165Y-79728451D01*
X152135308Y-78228451D02*
X151849594Y-78228451D01*
X151706737Y-78299880D01*
X151635308Y-78371308D01*
X151492451Y-78585594D01*
X151421022Y-78871308D01*
X151421022Y-79442737D01*
X151492451Y-79585594D01*
X151563880Y-79657022D01*
X151706737Y-79728451D01*
X151992451Y-79728451D01*
X152135308Y-79657022D01*
X152206737Y-79585594D01*
X152278165Y-79442737D01*
X152278165Y-79085594D01*
X152206737Y-78942737D01*
X152135308Y-78871308D01*
X151992451Y-78799880D01*
X151706737Y-78799880D01*
X151563880Y-78871308D01*
X151492451Y-78942737D01*
X151421022Y-79085594D01*
X152921022Y-79157022D02*
X154063880Y-79157022D01*
X153492451Y-79728451D02*
X153492451Y-78585594D01*
X154778165Y-79728451D02*
X154778165Y-78228451D01*
X155635308Y-79728451D01*
X155635308Y-78228451D01*
X156563880Y-79728451D02*
X156421022Y-79657022D01*
X156349594Y-79585594D01*
X156278165Y-79442737D01*
X156278165Y-79014165D01*
X156349594Y-78871308D01*
X156421022Y-78799880D01*
X156563880Y-78728451D01*
X156778165Y-78728451D01*
X156921022Y-78799880D01*
X156992451Y-78871308D01*
X157063880Y-79014165D01*
X157063880Y-79442737D01*
X156992451Y-79585594D01*
X156921022Y-79657022D01*
X156778165Y-79728451D01*
X156563880Y-79728451D01*
X158349594Y-79728451D02*
X158349594Y-78228451D01*
X158349594Y-79657022D02*
X158206737Y-79728451D01*
X157921022Y-79728451D01*
X157778165Y-79657022D01*
X157706737Y-79585594D01*
X157635308Y-79442737D01*
X157635308Y-79014165D01*
X157706737Y-78871308D01*
X157778165Y-78799880D01*
X157921022Y-78728451D01*
X158206737Y-78728451D01*
X158349594Y-78799880D01*
X159635308Y-79657022D02*
X159492451Y-79728451D01*
X159206737Y-79728451D01*
X159063880Y-79657022D01*
X158992451Y-79514165D01*
X158992451Y-78942737D01*
X159063880Y-78799880D01*
X159206737Y-78728451D01*
X159492451Y-78728451D01*
X159635308Y-78799880D01*
X159706737Y-78942737D01*
X159706737Y-79085594D01*
X158992451Y-79228451D01*
X160349594Y-79728451D02*
X160349594Y-78228451D01*
X160849594Y-79299880D01*
X161349594Y-78228451D01*
X161349594Y-79728451D01*
X162921022Y-79585594D02*
X162849594Y-79657022D01*
X162635308Y-79728451D01*
X162492451Y-79728451D01*
X162278165Y-79657022D01*
X162135308Y-79514165D01*
X162063880Y-79371308D01*
X161992451Y-79085594D01*
X161992451Y-78871308D01*
X162063880Y-78585594D01*
X162135308Y-78442737D01*
X162278165Y-78299880D01*
X162492451Y-78228451D01*
X162635308Y-78228451D01*
X162849594Y-78299880D01*
X162921022Y-78371308D01*
X163563880Y-78228451D02*
X163563880Y-79442737D01*
X163635308Y-79585594D01*
X163706737Y-79657022D01*
X163849594Y-79728451D01*
X164135308Y-79728451D01*
X164278165Y-79657022D01*
X164349594Y-79585594D01*
X164421022Y-79442737D01*
X164421022Y-78228451D01*
X166063880Y-78228451D02*
X166563880Y-79728451D01*
X167063880Y-78228451D01*
X168349594Y-79728451D02*
X167492451Y-79728451D01*
X167921022Y-79728451D02*
X167921022Y-78228451D01*
X167778165Y-78442737D01*
X167635308Y-78585594D01*
X167492451Y-78657022D01*
X168992451Y-79585594D02*
X169063880Y-79657022D01*
X168992451Y-79728451D01*
X168921022Y-79657022D01*
X168992451Y-79585594D01*
X168992451Y-79728451D01*
X169992451Y-78228451D02*
X170135308Y-78228451D01*
X170278165Y-78299880D01*
X170349594Y-78371308D01*
X170421022Y-78514165D01*
X170492451Y-78799880D01*
X170492451Y-79157022D01*
X170421022Y-79442737D01*
X170349594Y-79585594D01*
X170278165Y-79657022D01*
X170135308Y-79728451D01*
X169992451Y-79728451D01*
X169849594Y-79657022D01*
X169778165Y-79585594D01*
X169706737Y-79442737D01*
X169635308Y-79157022D01*
X169635308Y-78799880D01*
X169706737Y-78514165D01*
X169778165Y-78371308D01*
X169849594Y-78299880D01*
X169992451Y-78228451D01*
D12*
X149339493Y-72762144D02*
X149339493Y-67762144D01*
X150529969Y-67762144D01*
X151244255Y-68000240D01*
X151720445Y-68476430D01*
X151958540Y-68952620D01*
X152196636Y-69905001D01*
X152196636Y-70619287D01*
X151958540Y-71571668D01*
X151720445Y-72047859D01*
X151244255Y-72524049D01*
X150529969Y-72762144D01*
X149339493Y-72762144D01*
X154339493Y-72762144D02*
X154339493Y-67762144D01*
X157196636Y-72762144D01*
X157196636Y-67762144D01*
X159577588Y-72762144D02*
X159577588Y-67762144D01*
X161244255Y-71333573D01*
X162910921Y-67762144D01*
X162910921Y-72762144D01*
X165053779Y-72524049D02*
X165768064Y-72762144D01*
X166958540Y-72762144D01*
X167434731Y-72524049D01*
X167672826Y-72285954D01*
X167910921Y-71809763D01*
X167910921Y-71333573D01*
X167672826Y-70857382D01*
X167434731Y-70619287D01*
X166958540Y-70381192D01*
X166006160Y-70143097D01*
X165529969Y-69905001D01*
X165291874Y-69666906D01*
X165053779Y-69190716D01*
X165053779Y-68714525D01*
X165291874Y-68238335D01*
X165529969Y-68000240D01*
X166006160Y-67762144D01*
X167196636Y-67762144D01*
X167910921Y-68000240D01*
D10*
X52294725Y-80308081D02*
X52437582Y-80355700D01*
X52675678Y-80355700D01*
X52770916Y-80308081D01*
X52818535Y-80260462D01*
X52866154Y-80165224D01*
X52866154Y-80069986D01*
X52818535Y-79974748D01*
X52770916Y-79927129D01*
X52675678Y-79879510D01*
X52485201Y-79831891D01*
X52389963Y-79784272D01*
X52342344Y-79736653D01*
X52294725Y-79641415D01*
X52294725Y-79546177D01*
X52342344Y-79450939D01*
X52389963Y-79403320D01*
X52485201Y-79355700D01*
X52723297Y-79355700D01*
X52866154Y-79403320D01*
X53294725Y-80355700D02*
X53294725Y-79355700D01*
X53532820Y-79355700D01*
X53675678Y-79403320D01*
X53770916Y-79498558D01*
X53818535Y-79593796D01*
X53866154Y-79784272D01*
X53866154Y-79927129D01*
X53818535Y-80117605D01*
X53770916Y-80212843D01*
X53675678Y-80308081D01*
X53532820Y-80355700D01*
X53294725Y-80355700D01*
X52023278Y-76818240D02*
X52261373Y-77818240D01*
X52451849Y-77103955D01*
X52642325Y-77818240D01*
X52880420Y-76818240D01*
X53213754Y-77770621D02*
X53356611Y-77818240D01*
X53594706Y-77818240D01*
X53689944Y-77770621D01*
X53737563Y-77723002D01*
X53785182Y-77627764D01*
X53785182Y-77532526D01*
X53737563Y-77437288D01*
X53689944Y-77389669D01*
X53594706Y-77342050D01*
X53404230Y-77294431D01*
X53308992Y-77246812D01*
X53261373Y-77199193D01*
X53213754Y-77103955D01*
X53213754Y-77008717D01*
X53261373Y-76913479D01*
X53308992Y-76865860D01*
X53404230Y-76818240D01*
X53642325Y-76818240D01*
X53785182Y-76865860D01*
X61000089Y-79505560D02*
X61619137Y-79505560D01*
X61285803Y-79886513D01*
X61428660Y-79886513D01*
X61523899Y-79934132D01*
X61571518Y-79981751D01*
X61619137Y-80076989D01*
X61619137Y-80315084D01*
X61571518Y-80410322D01*
X61523899Y-80457941D01*
X61428660Y-80505560D01*
X61142946Y-80505560D01*
X61047708Y-80457941D01*
X61000089Y-80410322D01*
X62047708Y-80410322D02*
X62095327Y-80457941D01*
X62047708Y-80505560D01*
X62000089Y-80457941D01*
X62047708Y-80410322D01*
X62047708Y-80505560D01*
X62428660Y-79505560D02*
X63047708Y-79505560D01*
X62714375Y-79886513D01*
X62857232Y-79886513D01*
X62952470Y-79934132D01*
X63000089Y-79981751D01*
X63047708Y-80076989D01*
X63047708Y-80315084D01*
X63000089Y-80410322D01*
X62952470Y-80457941D01*
X62857232Y-80505560D01*
X62571518Y-80505560D01*
X62476280Y-80457941D01*
X62428660Y-80410322D01*
X63333422Y-79505560D02*
X63666756Y-80505560D01*
X64000089Y-79505560D01*
X64333422Y-80505560D02*
X64333422Y-79505560D01*
X64714375Y-79505560D01*
X64809613Y-79553180D01*
X64857232Y-79600799D01*
X64904851Y-79696037D01*
X64904851Y-79838894D01*
X64857232Y-79934132D01*
X64809613Y-79981751D01*
X64714375Y-80029370D01*
X64333422Y-80029370D01*
X52010554Y-75382380D02*
X51534363Y-75382380D01*
X51534363Y-74382380D01*
X53058173Y-74334761D02*
X52201030Y-75620476D01*
X53962935Y-75382380D02*
X53629601Y-74906190D01*
X53391506Y-75382380D02*
X53391506Y-74382380D01*
X53772459Y-74382380D01*
X53867697Y-74430000D01*
X53915316Y-74477619D01*
X53962935Y-74572857D01*
X53962935Y-74715714D01*
X53915316Y-74810952D01*
X53867697Y-74858571D01*
X53772459Y-74906190D01*
X53391506Y-74906190D01*
X61553975Y-74409680D02*
X61458737Y-74362060D01*
X61315880Y-74362060D01*
X61173022Y-74409680D01*
X61077784Y-74504918D01*
X61030165Y-74600156D01*
X60982546Y-74790632D01*
X60982546Y-74933489D01*
X61030165Y-75123965D01*
X61077784Y-75219203D01*
X61173022Y-75314441D01*
X61315880Y-75362060D01*
X61411118Y-75362060D01*
X61553975Y-75314441D01*
X61601594Y-75266822D01*
X61601594Y-74933489D01*
X61411118Y-74933489D01*
X62030165Y-75362060D02*
X62030165Y-74362060D01*
X62601594Y-75362060D01*
X62601594Y-74362060D01*
X63077784Y-75362060D02*
X63077784Y-74362060D01*
X63315880Y-74362060D01*
X63458737Y-74409680D01*
X63553975Y-74504918D01*
X63601594Y-74600156D01*
X63649213Y-74790632D01*
X63649213Y-74933489D01*
X63601594Y-75123965D01*
X63553975Y-75219203D01*
X63458737Y-75314441D01*
X63315880Y-75362060D01*
X63077784Y-75362060D01*
D13*
X54935600Y-73460300D02*
X56265600Y-73460300D01*
X54935600Y-74790300D02*
X54935600Y-73460300D01*
X57535600Y-73460300D02*
X60135600Y-73460300D01*
X57535600Y-76060300D02*
X57535600Y-73460300D01*
X54935600Y-76060300D02*
X57535600Y-76060300D01*
X60135600Y-73460300D02*
X60135600Y-81200300D01*
X54935600Y-76060300D02*
X54935600Y-81200300D01*
X54935600Y-81200300D02*
X60135600Y-81200300D01*
D14*
X128242800Y-64812400D02*
X65942800Y-64812400D01*
X65942800Y-64812400D02*
X65942800Y-82812400D01*
X65942800Y-82812400D02*
X128242800Y-82812400D01*
X128242800Y-82812400D02*
X128242800Y-64812400D01*
D15*
X121334220Y-63812400D02*
G75*
G03X121334220Y-63812400I-141420J0D01*
G01*
X125492800Y-77212400D02*
X125492800Y-77312400D01*
D16*
G36*
X179119599Y-69677645D02*
G01*
X179368201Y-69700483D01*
X179582559Y-69736500D01*
X179751354Y-69784021D01*
X179818336Y-69813228D01*
X179888261Y-69845941D01*
X179932499Y-69859957D01*
X179932856Y-69859964D01*
X179969884Y-69874985D01*
X180047875Y-69915056D01*
X180153097Y-69972971D01*
X180210039Y-70005450D01*
X180432042Y-70152894D01*
X180655085Y-70335506D01*
X180860571Y-70536229D01*
X181029900Y-70738009D01*
X181068527Y-70792711D01*
X181205394Y-70996007D01*
X181508979Y-70994587D01*
X181699886Y-71000351D01*
X181887670Y-71017777D01*
X182055501Y-71044443D01*
X182186548Y-71077929D01*
X182239297Y-71099641D01*
X182295696Y-71127289D01*
X182385260Y-71169330D01*
X182443424Y-71196055D01*
X182522779Y-71239408D01*
X182625632Y-71305470D01*
X182739765Y-71385095D01*
X182852958Y-71469135D01*
X182952993Y-71548441D01*
X183027651Y-71613867D01*
X183064713Y-71656263D01*
X183066690Y-71662679D01*
X183086330Y-71699799D01*
X183134395Y-71759324D01*
X183142190Y-71767857D01*
X183206908Y-71852727D01*
X183282693Y-71974289D01*
X183359537Y-72113660D01*
X183427434Y-72251959D01*
X183476375Y-72370303D01*
X183494138Y-72431910D01*
X183518817Y-72530293D01*
X183549500Y-72613141D01*
X183550128Y-72614424D01*
X183572223Y-72679025D01*
X183552633Y-72703254D01*
X183488374Y-72687646D01*
X183394342Y-72642362D01*
X183222520Y-72555074D01*
X183084153Y-72495893D01*
X182959984Y-72457520D01*
X182847996Y-72435300D01*
X182726815Y-72405852D01*
X182651479Y-72359559D01*
X182629410Y-72333174D01*
X182495652Y-72163333D01*
X182346411Y-72024176D01*
X182166046Y-71903470D01*
X181938913Y-71788977D01*
X181926663Y-71783471D01*
X181862830Y-71768823D01*
X181753488Y-71757313D01*
X181616607Y-71750487D01*
X181529788Y-71749285D01*
X181356415Y-71752783D01*
X181223181Y-71767040D01*
X181106928Y-71797696D01*
X180984500Y-71850393D01*
X180871041Y-71909762D01*
X180799758Y-71945702D01*
X180764706Y-71943092D01*
X180747334Y-71892460D01*
X180738845Y-71842257D01*
X180703870Y-71719381D01*
X180638313Y-71565834D01*
X180551859Y-71400047D01*
X180454195Y-71240446D01*
X180355009Y-71105460D01*
X180345822Y-71094543D01*
X180174823Y-70917646D01*
X179983247Y-70758412D01*
X179791155Y-70632706D01*
X179708668Y-70590745D01*
X179611310Y-70545709D01*
X179531809Y-70507628D01*
X179505413Y-70494278D01*
X179404976Y-70459472D01*
X179256730Y-70431925D01*
X179076117Y-70413254D01*
X178878575Y-70405076D01*
X178687544Y-70408588D01*
X178380218Y-70443303D01*
X178109099Y-70517307D01*
X177856608Y-70636133D01*
X177745065Y-70705248D01*
X177623612Y-70797798D01*
X177491311Y-70917682D01*
X177363184Y-71049329D01*
X177254251Y-71177166D01*
X177179533Y-71285623D01*
X177172361Y-71298952D01*
X177132709Y-71370555D01*
X177103424Y-71413502D01*
X177100899Y-71415910D01*
X177074642Y-71458051D01*
X177036730Y-71543322D01*
X176993835Y-71654055D01*
X176952627Y-71772581D01*
X176919777Y-71881231D01*
X176909111Y-71923910D01*
X176889536Y-72054646D01*
X176879841Y-72216739D01*
X176879238Y-72395647D01*
X176886942Y-72576824D01*
X176902167Y-72745726D01*
X176924126Y-72887811D01*
X176952035Y-72988534D01*
X176968302Y-73019285D01*
X176994564Y-73068462D01*
X177028533Y-73147991D01*
X177034004Y-73162160D01*
X177145216Y-73383474D01*
X177305404Y-73604251D01*
X177501513Y-73810363D01*
X177720489Y-73987684D01*
X177896864Y-74095920D01*
X177984995Y-74142002D01*
X178065179Y-74181800D01*
X178142624Y-74215774D01*
X178222538Y-74244386D01*
X178310128Y-74268096D01*
X178410600Y-74287364D01*
X178529164Y-74302652D01*
X178671026Y-74314419D01*
X178841393Y-74323126D01*
X179045474Y-74329235D01*
X179288475Y-74333205D01*
X179575604Y-74335497D01*
X179912069Y-74336572D01*
X180303076Y-74336890D01*
X180621324Y-74336910D01*
X182644667Y-74336910D01*
X182728678Y-74259051D01*
X182786932Y-74187591D01*
X182810354Y-74100472D01*
X182812690Y-74042335D01*
X182790148Y-73911120D01*
X182720239Y-73818920D01*
X182599532Y-73762197D01*
X182526583Y-73747131D01*
X182368639Y-73693600D01*
X182280877Y-73628190D01*
X182217161Y-73559125D01*
X182186981Y-73491806D01*
X182178762Y-73396994D01*
X182178746Y-73370244D01*
X182195599Y-73229584D01*
X182251056Y-73127460D01*
X182355730Y-73047564D01*
X182405299Y-73022146D01*
X182466664Y-72995882D01*
X182521022Y-72985009D01*
X182587584Y-72989946D01*
X182685560Y-73011112D01*
X182760005Y-73029875D01*
X183019199Y-73123462D01*
X183230493Y-73258281D01*
X183392602Y-73432694D01*
X183504239Y-73645063D01*
X183564119Y-73893748D01*
X183574690Y-74067793D01*
X183571407Y-74191484D01*
X183562666Y-74289187D01*
X183550128Y-74344839D01*
X183545382Y-74351275D01*
X183517710Y-74392932D01*
X183496557Y-74458254D01*
X183456532Y-74547170D01*
X183378182Y-74656325D01*
X183275602Y-74770120D01*
X183162885Y-74872953D01*
X183054127Y-74949225D01*
X183051792Y-74950538D01*
X182997087Y-74979867D01*
X182942317Y-75005058D01*
X182882421Y-75026428D01*
X182812336Y-75044288D01*
X182726999Y-75058953D01*
X182621349Y-75070736D01*
X182490321Y-75079951D01*
X182328854Y-75086911D01*
X182131884Y-75091931D01*
X181894351Y-75095323D01*
X181611190Y-75097402D01*
X181277339Y-75098480D01*
X180887737Y-75098873D01*
X180656763Y-75098910D01*
X178726212Y-75098910D01*
X178642201Y-75176768D01*
X178575487Y-75278383D01*
X178556622Y-75401811D01*
X178586586Y-75526021D01*
X178623131Y-75585655D01*
X178688072Y-75668215D01*
X180742443Y-75677250D01*
X182796815Y-75686285D01*
X182994516Y-75792747D01*
X183211956Y-75941422D01*
X183380976Y-76122252D01*
X183500300Y-76327143D01*
X183568652Y-76548000D01*
X183584756Y-76776728D01*
X183547335Y-77005231D01*
X183455113Y-77225416D01*
X183306813Y-77429187D01*
X183260115Y-77477310D01*
X183101519Y-77605543D01*
X182930651Y-77686760D01*
X182731282Y-77727042D01*
X182574849Y-77734160D01*
X182452751Y-77731846D01*
X182374355Y-77721148D01*
X182319921Y-77696429D01*
X182269710Y-77652051D01*
X182263005Y-77645110D01*
X182207759Y-77573181D01*
X182182704Y-77491840D01*
X182177690Y-77397050D01*
X182196676Y-77262444D01*
X182258041Y-77159863D01*
X182368389Y-77082511D01*
X182534326Y-77023591D01*
X182542815Y-77021366D01*
X182650646Y-76986689D01*
X182735749Y-76947178D01*
X182773002Y-76918384D01*
X182801353Y-76842666D01*
X182811610Y-76735944D01*
X182803050Y-76628294D01*
X182781610Y-76560662D01*
X182765366Y-76535029D01*
X182743008Y-76513052D01*
X182709857Y-76494450D01*
X182661234Y-76478942D01*
X182592460Y-76466250D01*
X182498856Y-76456092D01*
X182375743Y-76448188D01*
X182218441Y-76442258D01*
X182022273Y-76438023D01*
X181782558Y-76435201D01*
X181494619Y-76433513D01*
X181153775Y-76432679D01*
X180755348Y-76432418D01*
X180639747Y-76432410D01*
X180216358Y-76432309D01*
X179851480Y-76431714D01*
X179540122Y-76430181D01*
X179277296Y-76427268D01*
X179058012Y-76422531D01*
X178877280Y-76415528D01*
X178730110Y-76405817D01*
X178611515Y-76392954D01*
X178516503Y-76376497D01*
X178440085Y-76356003D01*
X178377272Y-76331030D01*
X178323074Y-76301135D01*
X178272502Y-76265875D01*
X178220566Y-76224808D01*
X178210861Y-76216906D01*
X178071199Y-76095464D01*
X177976135Y-75992447D01*
X177914996Y-75895014D01*
X177888578Y-75829160D01*
X177857016Y-75747267D01*
X177827516Y-75692023D01*
X177824104Y-75687872D01*
X177805915Y-75634713D01*
X177796894Y-75537063D01*
X177796423Y-75413173D01*
X177803883Y-75281292D01*
X177818655Y-75159673D01*
X177840120Y-75066565D01*
X177845674Y-75051730D01*
X177874439Y-74976175D01*
X177886291Y-74931030D01*
X177885362Y-74926344D01*
X177853428Y-74910446D01*
X177781543Y-74876855D01*
X177716815Y-74847212D01*
X177462181Y-74710697D01*
X177207691Y-74536649D01*
X176968771Y-74337908D01*
X176760845Y-74127313D01*
X176599337Y-73917705D01*
X176598375Y-73916223D01*
X176545046Y-73835703D01*
X176505713Y-73779496D01*
X176494415Y-73765410D01*
X176473367Y-73730509D01*
X176434365Y-73654671D01*
X176388105Y-73559035D01*
X176336727Y-73451139D01*
X176292320Y-73359758D01*
X176267277Y-73310062D01*
X176227950Y-73200300D01*
X176195599Y-73040425D01*
X176170827Y-72843503D01*
X176154241Y-72622601D01*
X176146444Y-72390784D01*
X176148042Y-72161120D01*
X176159640Y-71946673D01*
X176181842Y-71760512D01*
X176192817Y-71701650D01*
X176296716Y-71356733D01*
X176457665Y-71023677D01*
X176669359Y-70710024D01*
X176925493Y-70423320D01*
X177219765Y-70171107D01*
X177545868Y-69960930D01*
X177720949Y-69873020D01*
X177939342Y-69786443D01*
X178164294Y-69725895D01*
X178411630Y-69688521D01*
X178697171Y-69671467D01*
X178848071Y-69669659D01*
X179119599Y-69677645D01*
X179119599Y-69677645D01*
G37*
X179119599Y-69677645D02*
X179368201Y-69700483D01*
X179582559Y-69736500D01*
X179751354Y-69784021D01*
X179818336Y-69813228D01*
X179888261Y-69845941D01*
X179932499Y-69859957D01*
X179932856Y-69859964D01*
X179969884Y-69874985D01*
X180047875Y-69915056D01*
X180153097Y-69972971D01*
X180210039Y-70005450D01*
X180432042Y-70152894D01*
X180655085Y-70335506D01*
X180860571Y-70536229D01*
X181029900Y-70738009D01*
X181068527Y-70792711D01*
X181205394Y-70996007D01*
X181508979Y-70994587D01*
X181699886Y-71000351D01*
X181887670Y-71017777D01*
X182055501Y-71044443D01*
X182186548Y-71077929D01*
X182239297Y-71099641D01*
X182295696Y-71127289D01*
X182385260Y-71169330D01*
X182443424Y-71196055D01*
X182522779Y-71239408D01*
X182625632Y-71305470D01*
X182739765Y-71385095D01*
X182852958Y-71469135D01*
X182952993Y-71548441D01*
X183027651Y-71613867D01*
X183064713Y-71656263D01*
X183066690Y-71662679D01*
X183086330Y-71699799D01*
X183134395Y-71759324D01*
X183142190Y-71767857D01*
X183206908Y-71852727D01*
X183282693Y-71974289D01*
X183359537Y-72113660D01*
X183427434Y-72251959D01*
X183476375Y-72370303D01*
X183494138Y-72431910D01*
X183518817Y-72530293D01*
X183549500Y-72613141D01*
X183550128Y-72614424D01*
X183572223Y-72679025D01*
X183552633Y-72703254D01*
X183488374Y-72687646D01*
X183394342Y-72642362D01*
X183222520Y-72555074D01*
X183084153Y-72495893D01*
X182959984Y-72457520D01*
X182847996Y-72435300D01*
X182726815Y-72405852D01*
X182651479Y-72359559D01*
X182629410Y-72333174D01*
X182495652Y-72163333D01*
X182346411Y-72024176D01*
X182166046Y-71903470D01*
X181938913Y-71788977D01*
X181926663Y-71783471D01*
X181862830Y-71768823D01*
X181753488Y-71757313D01*
X181616607Y-71750487D01*
X181529788Y-71749285D01*
X181356415Y-71752783D01*
X181223181Y-71767040D01*
X181106928Y-71797696D01*
X180984500Y-71850393D01*
X180871041Y-71909762D01*
X180799758Y-71945702D01*
X180764706Y-71943092D01*
X180747334Y-71892460D01*
X180738845Y-71842257D01*
X180703870Y-71719381D01*
X180638313Y-71565834D01*
X180551859Y-71400047D01*
X180454195Y-71240446D01*
X180355009Y-71105460D01*
X180345822Y-71094543D01*
X180174823Y-70917646D01*
X179983247Y-70758412D01*
X179791155Y-70632706D01*
X179708668Y-70590745D01*
X179611310Y-70545709D01*
X179531809Y-70507628D01*
X179505413Y-70494278D01*
X179404976Y-70459472D01*
X179256730Y-70431925D01*
X179076117Y-70413254D01*
X178878575Y-70405076D01*
X178687544Y-70408588D01*
X178380218Y-70443303D01*
X178109099Y-70517307D01*
X177856608Y-70636133D01*
X177745065Y-70705248D01*
X177623612Y-70797798D01*
X177491311Y-70917682D01*
X177363184Y-71049329D01*
X177254251Y-71177166D01*
X177179533Y-71285623D01*
X177172361Y-71298952D01*
X177132709Y-71370555D01*
X177103424Y-71413502D01*
X177100899Y-71415910D01*
X177074642Y-71458051D01*
X177036730Y-71543322D01*
X176993835Y-71654055D01*
X176952627Y-71772581D01*
X176919777Y-71881231D01*
X176909111Y-71923910D01*
X176889536Y-72054646D01*
X176879841Y-72216739D01*
X176879238Y-72395647D01*
X176886942Y-72576824D01*
X176902167Y-72745726D01*
X176924126Y-72887811D01*
X176952035Y-72988534D01*
X176968302Y-73019285D01*
X176994564Y-73068462D01*
X177028533Y-73147991D01*
X177034004Y-73162160D01*
X177145216Y-73383474D01*
X177305404Y-73604251D01*
X177501513Y-73810363D01*
X177720489Y-73987684D01*
X177896864Y-74095920D01*
X177984995Y-74142002D01*
X178065179Y-74181800D01*
X178142624Y-74215774D01*
X178222538Y-74244386D01*
X178310128Y-74268096D01*
X178410600Y-74287364D01*
X178529164Y-74302652D01*
X178671026Y-74314419D01*
X178841393Y-74323126D01*
X179045474Y-74329235D01*
X179288475Y-74333205D01*
X179575604Y-74335497D01*
X179912069Y-74336572D01*
X180303076Y-74336890D01*
X180621324Y-74336910D01*
X182644667Y-74336910D01*
X182728678Y-74259051D01*
X182786932Y-74187591D01*
X182810354Y-74100472D01*
X182812690Y-74042335D01*
X182790148Y-73911120D01*
X182720239Y-73818920D01*
X182599532Y-73762197D01*
X182526583Y-73747131D01*
X182368639Y-73693600D01*
X182280877Y-73628190D01*
X182217161Y-73559125D01*
X182186981Y-73491806D01*
X182178762Y-73396994D01*
X182178746Y-73370244D01*
X182195599Y-73229584D01*
X182251056Y-73127460D01*
X182355730Y-73047564D01*
X182405299Y-73022146D01*
X182466664Y-72995882D01*
X182521022Y-72985009D01*
X182587584Y-72989946D01*
X182685560Y-73011112D01*
X182760005Y-73029875D01*
X183019199Y-73123462D01*
X183230493Y-73258281D01*
X183392602Y-73432694D01*
X183504239Y-73645063D01*
X183564119Y-73893748D01*
X183574690Y-74067793D01*
X183571407Y-74191484D01*
X183562666Y-74289187D01*
X183550128Y-74344839D01*
X183545382Y-74351275D01*
X183517710Y-74392932D01*
X183496557Y-74458254D01*
X183456532Y-74547170D01*
X183378182Y-74656325D01*
X183275602Y-74770120D01*
X183162885Y-74872953D01*
X183054127Y-74949225D01*
X183051792Y-74950538D01*
X182997087Y-74979867D01*
X182942317Y-75005058D01*
X182882421Y-75026428D01*
X182812336Y-75044288D01*
X182726999Y-75058953D01*
X182621349Y-75070736D01*
X182490321Y-75079951D01*
X182328854Y-75086911D01*
X182131884Y-75091931D01*
X181894351Y-75095323D01*
X181611190Y-75097402D01*
X181277339Y-75098480D01*
X180887737Y-75098873D01*
X180656763Y-75098910D01*
X178726212Y-75098910D01*
X178642201Y-75176768D01*
X178575487Y-75278383D01*
X178556622Y-75401811D01*
X178586586Y-75526021D01*
X178623131Y-75585655D01*
X178688072Y-75668215D01*
X180742443Y-75677250D01*
X182796815Y-75686285D01*
X182994516Y-75792747D01*
X183211956Y-75941422D01*
X183380976Y-76122252D01*
X183500300Y-76327143D01*
X183568652Y-76548000D01*
X183584756Y-76776728D01*
X183547335Y-77005231D01*
X183455113Y-77225416D01*
X183306813Y-77429187D01*
X183260115Y-77477310D01*
X183101519Y-77605543D01*
X182930651Y-77686760D01*
X182731282Y-77727042D01*
X182574849Y-77734160D01*
X182452751Y-77731846D01*
X182374355Y-77721148D01*
X182319921Y-77696429D01*
X182269710Y-77652051D01*
X182263005Y-77645110D01*
X182207759Y-77573181D01*
X182182704Y-77491840D01*
X182177690Y-77397050D01*
X182196676Y-77262444D01*
X182258041Y-77159863D01*
X182368389Y-77082511D01*
X182534326Y-77023591D01*
X182542815Y-77021366D01*
X182650646Y-76986689D01*
X182735749Y-76947178D01*
X182773002Y-76918384D01*
X182801353Y-76842666D01*
X182811610Y-76735944D01*
X182803050Y-76628294D01*
X182781610Y-76560662D01*
X182765366Y-76535029D01*
X182743008Y-76513052D01*
X182709857Y-76494450D01*
X182661234Y-76478942D01*
X182592460Y-76466250D01*
X182498856Y-76456092D01*
X182375743Y-76448188D01*
X182218441Y-76442258D01*
X182022273Y-76438023D01*
X181782558Y-76435201D01*
X181494619Y-76433513D01*
X181153775Y-76432679D01*
X180755348Y-76432418D01*
X180639747Y-76432410D01*
X180216358Y-76432309D01*
X179851480Y-76431714D01*
X179540122Y-76430181D01*
X179277296Y-76427268D01*
X179058012Y-76422531D01*
X178877280Y-76415528D01*
X178730110Y-76405817D01*
X178611515Y-76392954D01*
X178516503Y-76376497D01*
X178440085Y-76356003D01*
X178377272Y-76331030D01*
X178323074Y-76301135D01*
X178272502Y-76265875D01*
X178220566Y-76224808D01*
X178210861Y-76216906D01*
X178071199Y-76095464D01*
X177976135Y-75992447D01*
X177914996Y-75895014D01*
X177888578Y-75829160D01*
X177857016Y-75747267D01*
X177827516Y-75692023D01*
X177824104Y-75687872D01*
X177805915Y-75634713D01*
X177796894Y-75537063D01*
X177796423Y-75413173D01*
X177803883Y-75281292D01*
X177818655Y-75159673D01*
X177840120Y-75066565D01*
X177845674Y-75051730D01*
X177874439Y-74976175D01*
X177886291Y-74931030D01*
X177885362Y-74926344D01*
X177853428Y-74910446D01*
X177781543Y-74876855D01*
X177716815Y-74847212D01*
X177462181Y-74710697D01*
X177207691Y-74536649D01*
X176968771Y-74337908D01*
X176760845Y-74127313D01*
X176599337Y-73917705D01*
X176598375Y-73916223D01*
X176545046Y-73835703D01*
X176505713Y-73779496D01*
X176494415Y-73765410D01*
X176473367Y-73730509D01*
X176434365Y-73654671D01*
X176388105Y-73559035D01*
X176336727Y-73451139D01*
X176292320Y-73359758D01*
X176267277Y-73310062D01*
X176227950Y-73200300D01*
X176195599Y-73040425D01*
X176170827Y-72843503D01*
X176154241Y-72622601D01*
X176146444Y-72390784D01*
X176148042Y-72161120D01*
X176159640Y-71946673D01*
X176181842Y-71760512D01*
X176192817Y-71701650D01*
X176296716Y-71356733D01*
X176457665Y-71023677D01*
X176669359Y-70710024D01*
X176925493Y-70423320D01*
X177219765Y-70171107D01*
X177545868Y-69960930D01*
X177720949Y-69873020D01*
X177939342Y-69786443D01*
X178164294Y-69725895D01*
X178411630Y-69688521D01*
X178697171Y-69671467D01*
X178848071Y-69669659D01*
X179119599Y-69677645D01*
G36*
X184441069Y-73697600D02*
G01*
X184557123Y-73735872D01*
X184783054Y-73843987D01*
X184963180Y-73983389D01*
X185112156Y-74165960D01*
X185138693Y-74207388D01*
X185173122Y-74274531D01*
X185196020Y-74353448D01*
X185210456Y-74460444D01*
X185219500Y-74611828D01*
X185220726Y-74643256D01*
X185222706Y-74846661D01*
X185208672Y-75004207D01*
X185174405Y-75132432D01*
X185115687Y-75247871D01*
X185039725Y-75352910D01*
X184958917Y-75450625D01*
X184891778Y-75518564D01*
X184817175Y-75574252D01*
X184713974Y-75635215D01*
X184670065Y-75659464D01*
X184602384Y-75694422D01*
X184539475Y-75718895D01*
X184467606Y-75735071D01*
X184373046Y-75745136D01*
X184242066Y-75751279D01*
X184066815Y-75755567D01*
X183899899Y-75756889D01*
X183751418Y-75754216D01*
X183635117Y-75748073D01*
X183564743Y-75738985D01*
X183555262Y-75736035D01*
X183451733Y-75660247D01*
X183382287Y-75546516D01*
X183350707Y-75412706D01*
X183360779Y-75276680D01*
X183416288Y-75156304D01*
X183429053Y-75140367D01*
X183464622Y-75102348D01*
X183502496Y-75076324D01*
X183555609Y-75059245D01*
X183636898Y-75048063D01*
X183759299Y-75039726D01*
X183881491Y-75033712D01*
X184096693Y-75019592D01*
X184256299Y-74997401D01*
X184368096Y-74962942D01*
X184439871Y-74912015D01*
X184479408Y-74840423D01*
X184494494Y-74743967D01*
X184495440Y-74702679D01*
X184468441Y-74582693D01*
X184396554Y-74489604D01*
X184293441Y-74437982D01*
X184241766Y-74432160D01*
X184142227Y-74414258D01*
X184057760Y-74376610D01*
X183947132Y-74290476D01*
X183886220Y-74197664D01*
X183862955Y-74076839D01*
X183861496Y-74029659D01*
X183865129Y-73927820D01*
X183885883Y-73861836D01*
X183936056Y-73804246D01*
X183978799Y-73767721D01*
X184109515Y-73692815D01*
X184261387Y-73669563D01*
X184441069Y-73697600D01*
X184441069Y-73697600D01*
G37*
X184441069Y-73697600D02*
X184557123Y-73735872D01*
X184783054Y-73843987D01*
X184963180Y-73983389D01*
X185112156Y-74165960D01*
X185138693Y-74207388D01*
X185173122Y-74274531D01*
X185196020Y-74353448D01*
X185210456Y-74460444D01*
X185219500Y-74611828D01*
X185220726Y-74643256D01*
X185222706Y-74846661D01*
X185208672Y-75004207D01*
X185174405Y-75132432D01*
X185115687Y-75247871D01*
X185039725Y-75352910D01*
X184958917Y-75450625D01*
X184891778Y-75518564D01*
X184817175Y-75574252D01*
X184713974Y-75635215D01*
X184670065Y-75659464D01*
X184602384Y-75694422D01*
X184539475Y-75718895D01*
X184467606Y-75735071D01*
X184373046Y-75745136D01*
X184242066Y-75751279D01*
X184066815Y-75755567D01*
X183899899Y-75756889D01*
X183751418Y-75754216D01*
X183635117Y-75748073D01*
X183564743Y-75738985D01*
X183555262Y-75736035D01*
X183451733Y-75660247D01*
X183382287Y-75546516D01*
X183350707Y-75412706D01*
X183360779Y-75276680D01*
X183416288Y-75156304D01*
X183429053Y-75140367D01*
X183464622Y-75102348D01*
X183502496Y-75076324D01*
X183555609Y-75059245D01*
X183636898Y-75048063D01*
X183759299Y-75039726D01*
X183881491Y-75033712D01*
X184096693Y-75019592D01*
X184256299Y-74997401D01*
X184368096Y-74962942D01*
X184439871Y-74912015D01*
X184479408Y-74840423D01*
X184494494Y-74743967D01*
X184495440Y-74702679D01*
X184468441Y-74582693D01*
X184396554Y-74489604D01*
X184293441Y-74437982D01*
X184241766Y-74432160D01*
X184142227Y-74414258D01*
X184057760Y-74376610D01*
X183947132Y-74290476D01*
X183886220Y-74197664D01*
X183862955Y-74076839D01*
X183861496Y-74029659D01*
X183865129Y-73927820D01*
X183885883Y-73861836D01*
X183936056Y-73804246D01*
X183978799Y-73767721D01*
X184109515Y-73692815D01*
X184261387Y-73669563D01*
X184441069Y-73697600D01*
D13*
X54011480Y-69471400D02*
X54011480Y-67231400D01*
X61251480Y-69471400D02*
X61251480Y-67231400D01*
X61251480Y-67231400D02*
X54011480Y-67231400D01*
X61251480Y-69471400D02*
X54011480Y-69471400D01*
X119770200Y-87290600D02*
X119770200Y-88620600D01*
X118440200Y-87290600D02*
X119770200Y-87290600D01*
X117170200Y-87290600D02*
X117170200Y-89950600D01*
X117170200Y-89950600D02*
X114570200Y-89950600D01*
X117170200Y-87290600D02*
X114570200Y-87290600D01*
X114570200Y-87290600D02*
X114570200Y-89950600D01*
D10*
X57263226Y-71723000D02*
X57263226Y-72437286D01*
X57215607Y-72580143D01*
X57120369Y-72675381D01*
X56977512Y-72723000D01*
X56882274Y-72723000D01*
X58263226Y-72723000D02*
X57691798Y-72723000D01*
X57977512Y-72723000D02*
X57977512Y-71723000D01*
X57882274Y-71865858D01*
X57787036Y-71961096D01*
X57691798Y-72008715D01*
X129463895Y-73137780D02*
X129463895Y-73947304D01*
X129511514Y-74042542D01*
X129559133Y-74090161D01*
X129654371Y-74137780D01*
X129844847Y-74137780D01*
X129940085Y-74090161D01*
X129987704Y-74042542D01*
X130035323Y-73947304D01*
X130035323Y-73137780D01*
X130416276Y-73137780D02*
X131035323Y-73137780D01*
X130701990Y-73518733D01*
X130844847Y-73518733D01*
X130940085Y-73566352D01*
X130987704Y-73613971D01*
X131035323Y-73709209D01*
X131035323Y-73947304D01*
X130987704Y-74042542D01*
X130940085Y-74090161D01*
X130844847Y-74137780D01*
X130559133Y-74137780D01*
X130463895Y-74090161D01*
X130416276Y-74042542D01*
D17*
X86884257Y-72863971D02*
X87741400Y-72863971D01*
X87312828Y-74363971D02*
X87312828Y-72863971D01*
X88812828Y-74292542D02*
X88669971Y-74363971D01*
X88384257Y-74363971D01*
X88241400Y-74292542D01*
X88169971Y-74149685D01*
X88169971Y-73578257D01*
X88241400Y-73435400D01*
X88384257Y-73363971D01*
X88669971Y-73363971D01*
X88812828Y-73435400D01*
X88884257Y-73578257D01*
X88884257Y-73721114D01*
X88169971Y-73863971D01*
X90098542Y-74292542D02*
X89955685Y-74363971D01*
X89669971Y-74363971D01*
X89527114Y-74292542D01*
X89455685Y-74149685D01*
X89455685Y-73578257D01*
X89527114Y-73435400D01*
X89669971Y-73363971D01*
X89955685Y-73363971D01*
X90098542Y-73435400D01*
X90169971Y-73578257D01*
X90169971Y-73721114D01*
X89455685Y-73863971D01*
X90812828Y-73363971D02*
X90812828Y-74363971D01*
X90812828Y-73506828D02*
X90884257Y-73435400D01*
X91027114Y-73363971D01*
X91241400Y-73363971D01*
X91384257Y-73435400D01*
X91455685Y-73578257D01*
X91455685Y-74363971D01*
X92098542Y-74292542D02*
X92241400Y-74363971D01*
X92527114Y-74363971D01*
X92669971Y-74292542D01*
X92741400Y-74149685D01*
X92741400Y-74078257D01*
X92669971Y-73935400D01*
X92527114Y-73863971D01*
X92312828Y-73863971D01*
X92169971Y-73792542D01*
X92098542Y-73649685D01*
X92098542Y-73578257D01*
X92169971Y-73435400D01*
X92312828Y-73363971D01*
X92527114Y-73363971D01*
X92669971Y-73435400D01*
X93241400Y-73363971D02*
X93598542Y-74363971D01*
X93955685Y-73363971D02*
X93598542Y-74363971D01*
X93455685Y-74721114D01*
X93384257Y-74792542D01*
X93241400Y-74863971D01*
X94384257Y-72863971D02*
X95312828Y-72863971D01*
X94812828Y-73435400D01*
X95027114Y-73435400D01*
X95169971Y-73506828D01*
X95241400Y-73578257D01*
X95312828Y-73721114D01*
X95312828Y-74078257D01*
X95241400Y-74221114D01*
X95169971Y-74292542D01*
X95027114Y-74363971D01*
X94598542Y-74363971D01*
X94455685Y-74292542D01*
X94384257Y-74221114D01*
X95955685Y-74221114D02*
X96027114Y-74292542D01*
X95955685Y-74363971D01*
X95884257Y-74292542D01*
X95955685Y-74221114D01*
X95955685Y-74363971D01*
X97312828Y-72863971D02*
X97027114Y-72863971D01*
X96884257Y-72935400D01*
X96812828Y-73006828D01*
X96669971Y-73221114D01*
X96598542Y-73506828D01*
X96598542Y-74078257D01*
X96669971Y-74221114D01*
X96741400Y-74292542D01*
X96884257Y-74363971D01*
X97169971Y-74363971D01*
X97312828Y-74292542D01*
X97384257Y-74221114D01*
X97455685Y-74078257D01*
X97455685Y-73721114D01*
X97384257Y-73578257D01*
X97312828Y-73506828D01*
X97169971Y-73435400D01*
X96884257Y-73435400D01*
X96741400Y-73506828D01*
X96669971Y-73578257D01*
X96598542Y-73721114D01*
D10*
X54719713Y-66409842D02*
X54672094Y-66457461D01*
X54529237Y-66505080D01*
X54433999Y-66505080D01*
X54291141Y-66457461D01*
X54195903Y-66362223D01*
X54148284Y-66266985D01*
X54100665Y-66076509D01*
X54100665Y-65933652D01*
X54148284Y-65743176D01*
X54195903Y-65647938D01*
X54291141Y-65552700D01*
X54433999Y-65505080D01*
X54529237Y-65505080D01*
X54672094Y-65552700D01*
X54719713Y-65600319D01*
X55672094Y-66505080D02*
X55100665Y-66505080D01*
X55386380Y-66505080D02*
X55386380Y-65505080D01*
X55291141Y-65647938D01*
X55195903Y-65743176D01*
X55100665Y-65790795D01*
X57202100Y-66505080D02*
X56630672Y-66505080D01*
X56916386Y-66505080D02*
X56916386Y-65505080D01*
X56821148Y-65647938D01*
X56725910Y-65743176D01*
X56630672Y-65790795D01*
X57821148Y-65505080D02*
X57916386Y-65505080D01*
X58011624Y-65552700D01*
X58059243Y-65600319D01*
X58106862Y-65695557D01*
X58154481Y-65886033D01*
X58154481Y-66124128D01*
X58106862Y-66314604D01*
X58059243Y-66409842D01*
X58011624Y-66457461D01*
X57916386Y-66505080D01*
X57821148Y-66505080D01*
X57725910Y-66457461D01*
X57678291Y-66409842D01*
X57630672Y-66314604D01*
X57583053Y-66124128D01*
X57583053Y-65886033D01*
X57630672Y-65695557D01*
X57678291Y-65600319D01*
X57725910Y-65552700D01*
X57821148Y-65505080D01*
X58773529Y-65505080D02*
X58868767Y-65505080D01*
X58964005Y-65552700D01*
X59011624Y-65600319D01*
X59059243Y-65695557D01*
X59106862Y-65886033D01*
X59106862Y-66124128D01*
X59059243Y-66314604D01*
X59011624Y-66409842D01*
X58964005Y-66457461D01*
X58868767Y-66505080D01*
X58773529Y-66505080D01*
X58678291Y-66457461D01*
X58630672Y-66409842D01*
X58583053Y-66314604D01*
X58535434Y-66124128D01*
X58535434Y-65886033D01*
X58583053Y-65695557D01*
X58630672Y-65600319D01*
X58678291Y-65552700D01*
X58773529Y-65505080D01*
X59535434Y-65838414D02*
X59535434Y-66505080D01*
X59535434Y-65933652D02*
X59583053Y-65886033D01*
X59678291Y-65838414D01*
X59821148Y-65838414D01*
X59916386Y-65886033D01*
X59964005Y-65981271D01*
X59964005Y-66505080D01*
X60773529Y-65981271D02*
X60440196Y-65981271D01*
X60440196Y-66505080D02*
X60440196Y-65505080D01*
X60916386Y-65505080D01*
X121002466Y-88072980D02*
X121002466Y-88787266D01*
X120954847Y-88930123D01*
X120859609Y-89025361D01*
X120716752Y-89072980D01*
X120621514Y-89072980D01*
X121431038Y-88168219D02*
X121478657Y-88120600D01*
X121573895Y-88072980D01*
X121811990Y-88072980D01*
X121907228Y-88120600D01*
X121954847Y-88168219D01*
X122002466Y-88263457D01*
X122002466Y-88358695D01*
X121954847Y-88501552D01*
X121383419Y-89072980D01*
X122002466Y-89072980D01*
M02*
