M48
; DRILL file {KiCad (5.1.4)-1} date 19.11.2019 17:41:41
; FORMAT={-:-/ absolute / inch / decimal}
; #@! TF.CreationDate,2019-11-19T17:41:41+01:00
; #@! TF.GenerationSoftware,Kicad,Pcbnew,(5.1.4)-1
; #@! TF.FileFunction,Plated,1,2,PTH
FMAT,2
INCH
T1C0.0276
T2C0.0315
T3C0.0394
T4C0.0402
%
G90
G05
T1
X4.381Y-2.4012
X4.44Y-2.4012
X4.4991Y-2.4012
X4.5581Y-2.4012
X4.6172Y-2.4012
T2
X4.8724Y-3.3507
X5.2724Y-3.3507
X5.393Y-3.025
X5.393Y-3.425
X4.9136Y-2.4597
X5.1105Y-2.4597
X2.1705Y-2.691
X2.3674Y-2.691
X4.9763Y-3.497
X5.1732Y-3.497
T3
X5.8718Y-2.3537
X5.8718Y-3.4537
X5.9718Y-2.3537
X5.9718Y-3.4537
X6.0718Y-2.3537
X6.0718Y-3.4537
X6.1718Y-2.3537
X6.1718Y-3.4537
X6.2718Y-2.3537
X6.2718Y-3.4537
X6.3718Y-2.3537
X6.3718Y-3.4537
X6.4718Y-2.3537
X6.4718Y-3.4537
X6.5718Y-2.3537
X6.5718Y-3.4537
X6.6718Y-2.3537
X6.6718Y-3.4537
X6.7718Y-2.3537
X6.7718Y-3.4537
X6.8718Y-2.3537
X6.8718Y-3.4537
X6.9718Y-2.3537
X6.9718Y-3.4537
X7.0718Y-2.3537
X7.0718Y-3.4537
X7.1718Y-2.3537
X7.1718Y-3.4537
X7.2718Y-2.3537
X7.2718Y-3.4537
X5.8704Y-2.4529
X5.8704Y-3.3529
X5.9704Y-2.4529
X5.9704Y-3.3529
X6.0704Y-2.4529
X6.0704Y-3.3529
X6.1704Y-2.4529
X6.1704Y-3.3529
X6.2704Y-2.4529
X6.2704Y-3.3529
X6.3704Y-2.4529
X6.3704Y-3.3529
X6.4704Y-2.4529
X6.4704Y-3.3529
X6.5704Y-2.4529
X6.5704Y-3.3529
X6.6704Y-2.4529
X6.6704Y-3.3529
X6.7704Y-2.4529
X6.7704Y-3.3529
X6.8704Y-2.4529
X6.8704Y-3.3529
X6.9704Y-2.4529
X6.9704Y-3.3529
X7.0704Y-2.4529
X7.0704Y-3.3529
X7.1704Y-2.4529
X7.1704Y-3.3529
X7.2704Y-2.4529
X7.2704Y-3.3529
X4.913Y-2.2764
X5.013Y-2.2764
X5.113Y-2.2764
X5.213Y-2.2764
X2.2152Y-2.9445
X2.2152Y-3.0445
X2.2152Y-3.1445
X2.3152Y-2.9445
X2.3152Y-3.0445
X2.3152Y-3.1445
X4.563Y-3.489
X4.663Y-3.489
T4
X2.6726Y-2.606
X2.6726Y-3.206
X2.7726Y-2.606
X2.7726Y-3.206
X2.8726Y-2.606
X2.8726Y-3.206
X2.9726Y-2.606
X2.9726Y-3.206
X3.0726Y-2.606
X3.0726Y-3.206
X3.1726Y-2.606
X3.1726Y-3.206
X3.2726Y-2.606
X3.2726Y-3.206
X3.3726Y-2.606
X3.3726Y-3.206
X3.4726Y-2.606
X3.4726Y-3.206
X3.5726Y-2.606
X3.5726Y-3.206
X3.6726Y-2.606
X3.6726Y-3.206
X3.7726Y-2.606
X3.7726Y-3.206
X3.8726Y-2.606
X3.8726Y-3.206
X3.9726Y-2.606
X3.9726Y-3.206
X4.0726Y-2.606
X4.0726Y-3.206
X4.1726Y-2.606
X4.1726Y-3.206
X4.2726Y-2.606
X4.2726Y-3.206
X4.3726Y-2.606
X4.3726Y-3.206
X4.4726Y-2.606
X4.4726Y-3.206
X4.5726Y-2.606
X4.5726Y-3.206
X4.6726Y-2.606
X4.6726Y-3.206
X4.7726Y-2.606
X4.7726Y-3.206
X4.8726Y-2.606
X4.8726Y-3.106
X4.8726Y-3.206
X4.9726Y-2.606
X4.9726Y-3.206
T0
M30
