G04 #@! TF.GenerationSoftware,KiCad,Pcbnew,5.1.5+dfsg1-2build2*
G04 #@! TF.CreationDate,2021-04-27T21:08:24+02:00*
G04 #@! TF.ProjectId,ICS-43434-PCB,4943532d-3433-4343-9334-2d5043422e6b,rev?*
G04 #@! TF.SameCoordinates,Original*
G04 #@! TF.FileFunction,Copper,L2,Bot*
G04 #@! TF.FilePolarity,Positive*
%FSLAX46Y46*%
G04 Gerber Fmt 4.6, Leading zero omitted, Abs format (unit mm)*
G04 Created by KiCad (PCBNEW 5.1.5+dfsg1-2build2) date 2021-04-27 21:08:24*
%MOMM*%
%LPD*%
G04 APERTURE LIST*
%ADD10C,0.800000*%
%ADD11C,0.250000*%
%ADD12C,0.254000*%
G04 APERTURE END LIST*
D10*
X100000000Y-104927400D03*
X100000000Y-98780600D03*
X95123000Y-100304600D03*
X104876600Y-100304600D03*
D11*
X100000000Y-98780600D02*
X95529400Y-98780600D01*
X95529400Y-99898200D02*
X95123000Y-100304600D01*
X95529400Y-98780600D02*
X95529400Y-99898200D01*
X103352600Y-98780600D02*
X104876600Y-100304600D01*
X100000000Y-98780600D02*
X103352600Y-98780600D01*
X100253800Y-104927400D02*
X100000000Y-104927400D01*
X104876600Y-100304600D02*
X100253800Y-104927400D01*
D12*
G36*
X100666081Y-94798474D02*
G01*
X101535563Y-94985862D01*
X102360868Y-95317497D01*
X103118256Y-95783839D01*
X103785938Y-96371473D01*
X104344705Y-97063492D01*
X104778482Y-97839990D01*
X105074792Y-98678627D01*
X105225108Y-99555278D01*
X105225108Y-100444722D01*
X105074792Y-101321373D01*
X104778482Y-102160010D01*
X104344705Y-102936508D01*
X103785938Y-103628527D01*
X103118256Y-104216161D01*
X102360868Y-104682503D01*
X101535563Y-105014138D01*
X100666081Y-105201526D01*
X99777438Y-105239275D01*
X98895198Y-105126300D01*
X98044741Y-104865850D01*
X97250533Y-104465419D01*
X96535422Y-103936526D01*
X95919981Y-103294386D01*
X95421914Y-102557472D01*
X95055551Y-101746985D01*
X94918316Y-101219927D01*
X99319000Y-101219927D01*
X99319000Y-101354073D01*
X99345171Y-101485640D01*
X99396506Y-101609574D01*
X99471033Y-101721112D01*
X99565888Y-101815967D01*
X99677426Y-101890494D01*
X99801360Y-101941829D01*
X99932927Y-101968000D01*
X100067073Y-101968000D01*
X100198640Y-101941829D01*
X100322574Y-101890494D01*
X100434112Y-101815967D01*
X100528967Y-101721112D01*
X100603494Y-101609574D01*
X100654829Y-101485640D01*
X100681000Y-101354073D01*
X100681000Y-101219927D01*
X100654829Y-101088360D01*
X100603494Y-100964426D01*
X100528967Y-100852888D01*
X100434112Y-100758033D01*
X100322574Y-100683506D01*
X100198640Y-100632171D01*
X100067073Y-100606000D01*
X99932927Y-100606000D01*
X99801360Y-100632171D01*
X99677426Y-100683506D01*
X99565888Y-100758033D01*
X99471033Y-100852888D01*
X99396506Y-100964426D01*
X99345171Y-101088360D01*
X99319000Y-101219927D01*
X94918316Y-101219927D01*
X94831430Y-100886240D01*
X94756000Y-100000000D01*
X94831430Y-99113760D01*
X95055551Y-98253015D01*
X95421914Y-97442528D01*
X95919981Y-96705614D01*
X96535422Y-96063474D01*
X97250533Y-95534581D01*
X98044741Y-95134150D01*
X98895198Y-94873700D01*
X99777438Y-94760725D01*
X100666081Y-94798474D01*
G37*
X100666081Y-94798474D02*
X101535563Y-94985862D01*
X102360868Y-95317497D01*
X103118256Y-95783839D01*
X103785938Y-96371473D01*
X104344705Y-97063492D01*
X104778482Y-97839990D01*
X105074792Y-98678627D01*
X105225108Y-99555278D01*
X105225108Y-100444722D01*
X105074792Y-101321373D01*
X104778482Y-102160010D01*
X104344705Y-102936508D01*
X103785938Y-103628527D01*
X103118256Y-104216161D01*
X102360868Y-104682503D01*
X101535563Y-105014138D01*
X100666081Y-105201526D01*
X99777438Y-105239275D01*
X98895198Y-105126300D01*
X98044741Y-104865850D01*
X97250533Y-104465419D01*
X96535422Y-103936526D01*
X95919981Y-103294386D01*
X95421914Y-102557472D01*
X95055551Y-101746985D01*
X94918316Y-101219927D01*
X99319000Y-101219927D01*
X99319000Y-101354073D01*
X99345171Y-101485640D01*
X99396506Y-101609574D01*
X99471033Y-101721112D01*
X99565888Y-101815967D01*
X99677426Y-101890494D01*
X99801360Y-101941829D01*
X99932927Y-101968000D01*
X100067073Y-101968000D01*
X100198640Y-101941829D01*
X100322574Y-101890494D01*
X100434112Y-101815967D01*
X100528967Y-101721112D01*
X100603494Y-101609574D01*
X100654829Y-101485640D01*
X100681000Y-101354073D01*
X100681000Y-101219927D01*
X100654829Y-101088360D01*
X100603494Y-100964426D01*
X100528967Y-100852888D01*
X100434112Y-100758033D01*
X100322574Y-100683506D01*
X100198640Y-100632171D01*
X100067073Y-100606000D01*
X99932927Y-100606000D01*
X99801360Y-100632171D01*
X99677426Y-100683506D01*
X99565888Y-100758033D01*
X99471033Y-100852888D01*
X99396506Y-100964426D01*
X99345171Y-101088360D01*
X99319000Y-101219927D01*
X94918316Y-101219927D01*
X94831430Y-100886240D01*
X94756000Y-100000000D01*
X94831430Y-99113760D01*
X95055551Y-98253015D01*
X95421914Y-97442528D01*
X95919981Y-96705614D01*
X96535422Y-96063474D01*
X97250533Y-95534581D01*
X98044741Y-95134150D01*
X98895198Y-94873700D01*
X99777438Y-94760725D01*
X100666081Y-94798474D01*
M02*
