M48
; DRILL file {KiCad 7.0.10} date Di 20 Feb 2024 19:33:04 CET
; FORMAT={-:-/ absolute / inch / decimal}
; #@! TF.CreationDate,2024-02-20T19:33:04+01:00
; #@! TF.GenerationSoftware,Kicad,Pcbnew,7.0.10
; #@! TF.FileFunction,Plated,1,2,PTH
FMAT,2
INCH
; #@! TA.AperFunction,Plated,PTH,ViaDrill
T1C0.0157
; #@! TA.AperFunction,Plated,PTH,ComponentDrill
T2C0.0394
%
G90
G05
T1
X4.0Y-3.6
X4.1Y-3.85
X4.4Y-3.7383
X4.5909Y-3.7442
X4.9992Y-3.6359
X4.9992Y-3.7343
X5.4517Y-3.6611
X5.4517Y-3.7518
X5.7832Y-3.7518
X6.1126Y-3.8847
X6.1127Y-3.8107
X6.1543Y-3.7532
X6.2227Y-3.8457
X8.2739Y-3.7483
X8.3248Y-3.7159
X8.4021Y-3.5768
X8.5862Y-3.7432
X8.7087Y-3.7693
X8.7087Y-3.7693
X8.7157Y-3.6024
X8.748Y-3.9027
T2
X4.171Y-3.6211
X4.171Y-3.7211
X4.171Y-3.8211
X4.271Y-3.6211
X4.271Y-3.7211
X4.271Y-3.8211
M30
