G04 #@! TF.GenerationSoftware,KiCad,Pcbnew,6.0.10-86aedd382b~118~ubuntu22.04.1*
G04 #@! TF.CreationDate,2023-01-18T19:19:55+01:00*
G04 #@! TF.ProjectId,IM72D128-Tube-PCB,494d3732-4431-4323-982d-547562652d50,rev?*
G04 #@! TF.SameCoordinates,Original*
G04 #@! TF.FileFunction,Legend,Bot*
G04 #@! TF.FilePolarity,Positive*
%FSLAX46Y46*%
G04 Gerber Fmt 4.6, Leading zero omitted, Abs format (unit mm)*
G04 Created by KiCad (PCBNEW 6.0.10-86aedd382b~118~ubuntu22.04.1) date 2023-01-18 19:19:55*
%MOMM*%
%LPD*%
G01*
G04 APERTURE LIST*
%ADD10C,0.120000*%
%ADD11C,0.150000*%
G04 APERTURE END LIST*
D10*
X227400000Y-94500000D02*
X226000000Y-94500000D01*
D11*
X218550000Y-93202380D02*
X218550000Y-92535714D01*
X218550000Y-92726190D02*
X218502380Y-92630952D01*
X218454761Y-92583333D01*
X218359523Y-92535714D01*
X218264285Y-92535714D01*
X217930952Y-93202380D02*
X217930952Y-92535714D01*
X217930952Y-92202380D02*
X217978571Y-92250000D01*
X217930952Y-92297619D01*
X217883333Y-92250000D01*
X217930952Y-92202380D01*
X217930952Y-92297619D01*
X217026190Y-92535714D02*
X217026190Y-93345238D01*
X217073809Y-93440476D01*
X217121428Y-93488095D01*
X217216666Y-93535714D01*
X217359523Y-93535714D01*
X217454761Y-93488095D01*
X217026190Y-93154761D02*
X217121428Y-93202380D01*
X217311904Y-93202380D01*
X217407142Y-93154761D01*
X217454761Y-93107142D01*
X217502380Y-93011904D01*
X217502380Y-92726190D01*
X217454761Y-92630952D01*
X217407142Y-92583333D01*
X217311904Y-92535714D01*
X217121428Y-92535714D01*
X217026190Y-92583333D01*
X216550000Y-93202380D02*
X216550000Y-92202380D01*
X216121428Y-93202380D02*
X216121428Y-92678571D01*
X216169047Y-92583333D01*
X216264285Y-92535714D01*
X216407142Y-92535714D01*
X216502380Y-92583333D01*
X216550000Y-92630952D01*
X215788095Y-92535714D02*
X215407142Y-92535714D01*
X215645238Y-92202380D02*
X215645238Y-93059523D01*
X215597619Y-93154761D01*
X215502380Y-93202380D01*
X215407142Y-93202380D01*
X218420952Y-96172380D02*
X218516190Y-96124761D01*
X218563809Y-96029523D01*
X218563809Y-95172380D01*
X217659047Y-96124761D02*
X217754285Y-96172380D01*
X217944761Y-96172380D01*
X218040000Y-96124761D01*
X218087619Y-96029523D01*
X218087619Y-95648571D01*
X218040000Y-95553333D01*
X217944761Y-95505714D01*
X217754285Y-95505714D01*
X217659047Y-95553333D01*
X217611428Y-95648571D01*
X217611428Y-95743809D01*
X218087619Y-95839047D01*
X217325714Y-95505714D02*
X216944761Y-95505714D01*
X217182857Y-96172380D02*
X217182857Y-95315238D01*
X217135238Y-95220000D01*
X217040000Y-95172380D01*
X216944761Y-95172380D01*
X216754285Y-95505714D02*
X216373333Y-95505714D01*
X216611428Y-95172380D02*
X216611428Y-96029523D01*
X216563809Y-96124761D01*
X216468571Y-96172380D01*
X216373333Y-96172380D01*
X227070777Y-97221941D02*
X226927920Y-97269560D01*
X226689824Y-97269560D01*
X226594586Y-97221941D01*
X226546967Y-97174322D01*
X226499348Y-97079084D01*
X226499348Y-96983846D01*
X226546967Y-96888608D01*
X226594586Y-96840989D01*
X226689824Y-96793370D01*
X226880300Y-96745751D01*
X226975539Y-96698132D01*
X227023158Y-96650513D01*
X227070777Y-96555275D01*
X227070777Y-96460037D01*
X227023158Y-96364799D01*
X226975539Y-96317180D01*
X226880300Y-96269560D01*
X226642205Y-96269560D01*
X226499348Y-96317180D01*
X226070777Y-96745751D02*
X225737443Y-96745751D01*
X225594586Y-97269560D02*
X226070777Y-97269560D01*
X226070777Y-96269560D01*
X225594586Y-96269560D01*
X224689824Y-97269560D02*
X225166015Y-97269560D01*
X225166015Y-96269560D01*
X226543667Y-99318082D02*
X226591286Y-99365701D01*
X226734143Y-99413320D01*
X226829381Y-99413320D01*
X226972239Y-99365701D01*
X227067477Y-99270463D01*
X227115096Y-99175225D01*
X227162715Y-98984749D01*
X227162715Y-98841892D01*
X227115096Y-98651416D01*
X227067477Y-98556178D01*
X226972239Y-98460940D01*
X226829381Y-98413320D01*
X226734143Y-98413320D01*
X226591286Y-98460940D01*
X226543667Y-98508559D01*
X225638905Y-99413320D02*
X226115096Y-99413320D01*
X226115096Y-98413320D01*
X225115096Y-98413320D02*
X224924620Y-98413320D01*
X224829381Y-98460940D01*
X224734143Y-98556178D01*
X224686524Y-98746654D01*
X224686524Y-99079987D01*
X224734143Y-99270463D01*
X224829381Y-99365701D01*
X224924620Y-99413320D01*
X225115096Y-99413320D01*
X225210334Y-99365701D01*
X225305572Y-99270463D01*
X225353191Y-99079987D01*
X225353191Y-98746654D01*
X225305572Y-98556178D01*
X225210334Y-98460940D01*
X225115096Y-98413320D01*
X223686524Y-99318082D02*
X223734143Y-99365701D01*
X223877000Y-99413320D01*
X223972239Y-99413320D01*
X224115096Y-99365701D01*
X224210334Y-99270463D01*
X224257953Y-99175225D01*
X224305572Y-98984749D01*
X224305572Y-98841892D01*
X224257953Y-98651416D01*
X224210334Y-98556178D01*
X224115096Y-98460940D01*
X223972239Y-98413320D01*
X223877000Y-98413320D01*
X223734143Y-98460940D01*
X223686524Y-98508559D01*
X223257953Y-99413320D02*
X223257953Y-98413320D01*
X222686524Y-99413320D02*
X223115096Y-98841892D01*
X222686524Y-98413320D02*
X223257953Y-98984749D01*
X226983420Y-90975440D02*
X226983420Y-89975440D01*
X226745324Y-89975440D01*
X226602467Y-90023060D01*
X226507229Y-90118298D01*
X226459610Y-90213536D01*
X226411991Y-90404012D01*
X226411991Y-90546869D01*
X226459610Y-90737345D01*
X226507229Y-90832583D01*
X226602467Y-90927821D01*
X226745324Y-90975440D01*
X226983420Y-90975440D01*
X226031039Y-90689726D02*
X225554848Y-90689726D01*
X226126277Y-90975440D02*
X225792943Y-89975440D01*
X225459610Y-90975440D01*
X225269134Y-89975440D02*
X224697705Y-89975440D01*
X224983420Y-90975440D02*
X224983420Y-89975440D01*
X224411991Y-90689726D02*
X223935800Y-90689726D01*
X224507229Y-90975440D02*
X224173896Y-89975440D01*
X223840562Y-90975440D01*
X221273333Y-92352380D02*
X221273333Y-93066666D01*
X221320952Y-93209523D01*
X221416190Y-93304761D01*
X221559047Y-93352380D01*
X221654285Y-93352380D01*
X220797142Y-93352380D02*
X220797142Y-92352380D01*
X220416190Y-92352380D01*
X220320952Y-92400000D01*
X220273333Y-92447619D01*
X220225714Y-92542857D01*
X220225714Y-92685714D01*
X220273333Y-92780952D01*
X220320952Y-92828571D01*
X220416190Y-92876190D01*
X220797142Y-92876190D01*
X219273333Y-93352380D02*
X219844761Y-93352380D01*
X219559047Y-93352380D02*
X219559047Y-92352380D01*
X219654285Y-92495238D01*
X219749523Y-92590476D01*
X219844761Y-92638095D01*
X221413333Y-95152380D02*
X221413333Y-95866666D01*
X221460952Y-96009523D01*
X221556190Y-96104761D01*
X221699047Y-96152380D01*
X221794285Y-96152380D01*
X220937142Y-96152380D02*
X220937142Y-95152380D01*
X220556190Y-95152380D01*
X220460952Y-95200000D01*
X220413333Y-95247619D01*
X220365714Y-95342857D01*
X220365714Y-95485714D01*
X220413333Y-95580952D01*
X220460952Y-95628571D01*
X220556190Y-95676190D01*
X220937142Y-95676190D01*
X219984761Y-95247619D02*
X219937142Y-95200000D01*
X219841904Y-95152380D01*
X219603809Y-95152380D01*
X219508571Y-95200000D01*
X219460952Y-95247619D01*
X219413333Y-95342857D01*
X219413333Y-95438095D01*
X219460952Y-95580952D01*
X220032380Y-96152380D01*
X219413333Y-96152380D01*
D10*
X230150000Y-96250000D02*
X227750000Y-96250000D01*
X227750000Y-97650000D02*
X230150000Y-97650000D01*
X227750000Y-96250000D02*
X227750000Y-97650000D01*
X230150000Y-97650000D02*
X230150000Y-96250000D01*
X227750000Y-99650000D02*
X230150000Y-99650000D01*
X227750000Y-98250000D02*
X227750000Y-99650000D01*
X230150000Y-98250000D02*
X227750000Y-98250000D01*
X230150000Y-99650000D02*
X230150000Y-98250000D01*
X230150000Y-89750000D02*
X227750000Y-89750000D01*
X227750000Y-91150000D02*
X230150000Y-91150000D01*
X227750000Y-89750000D02*
X227750000Y-91150000D01*
X230150000Y-91150000D02*
X230150000Y-89750000D01*
X224900000Y-92020000D02*
X222100000Y-92020000D01*
X222100000Y-94020000D02*
X224900000Y-94020000D01*
X224900000Y-94020000D02*
X224900000Y-92020000D01*
X222100000Y-92020000D02*
X222100000Y-94020000D01*
X224900000Y-96770000D02*
X224900000Y-94770000D01*
X224900000Y-94770000D02*
X222100000Y-94770000D01*
X222100000Y-96770000D02*
X224900000Y-96770000D01*
X222100000Y-94770000D02*
X222100000Y-96770000D01*
M02*
