G04 #@! TF.GenerationSoftware,KiCad,Pcbnew,6.0.10-86aedd382b~118~ubuntu22.04.1*
G04 #@! TF.CreationDate,2023-01-18T19:19:55+01:00*
G04 #@! TF.ProjectId,IM72D128-Tube-PCB,494d3732-4431-4323-982d-547562652d50,rev?*
G04 #@! TF.SameCoordinates,Original*
G04 #@! TF.FileFunction,Legend,Top*
G04 #@! TF.FilePolarity,Positive*
%FSLAX46Y46*%
G04 Gerber Fmt 4.6, Leading zero omitted, Abs format (unit mm)*
G04 Created by KiCad (PCBNEW 6.0.10-86aedd382b~118~ubuntu22.04.1) date 2023-01-18 19:19:55*
%MOMM*%
%LPD*%
G01*
G04 APERTURE LIST*
%ADD10C,0.120000*%
%ADD11C,0.150000*%
%ADD12C,0.500000*%
%ADD13C,0.127000*%
%ADD14C,0.200000*%
G04 APERTURE END LIST*
D10*
X227400000Y-94500000D02*
X226000000Y-94500000D01*
D11*
X101779818Y-94110560D02*
X102017913Y-95110560D01*
X102208389Y-94396275D01*
X102398865Y-95110560D01*
X102636960Y-94110560D01*
X102970294Y-95062941D02*
X103113151Y-95110560D01*
X103351246Y-95110560D01*
X103446484Y-95062941D01*
X103494103Y-95015322D01*
X103541722Y-94920084D01*
X103541722Y-94824846D01*
X103494103Y-94729608D01*
X103446484Y-94681989D01*
X103351246Y-94634370D01*
X103160770Y-94586751D01*
X103065532Y-94539132D01*
X103017913Y-94491513D01*
X102970294Y-94396275D01*
X102970294Y-94301037D01*
X103017913Y-94205799D01*
X103065532Y-94158180D01*
X103160770Y-94110560D01*
X103398865Y-94110560D01*
X103541722Y-94158180D01*
X102593163Y-97716600D02*
X102116973Y-97716600D01*
X102116973Y-96716600D01*
X103497925Y-97716600D02*
X103164592Y-97240410D01*
X102926497Y-97716600D02*
X102926497Y-96716600D01*
X103307449Y-96716600D01*
X103402687Y-96764220D01*
X103450306Y-96811839D01*
X103497925Y-96907077D01*
X103497925Y-97049934D01*
X103450306Y-97145172D01*
X103402687Y-97192791D01*
X103307449Y-97240410D01*
X102926497Y-97240410D01*
X110417764Y-91611200D02*
X111036812Y-91611200D01*
X110703479Y-91992153D01*
X110846336Y-91992153D01*
X110941574Y-92039772D01*
X110989193Y-92087391D01*
X111036812Y-92182629D01*
X111036812Y-92420724D01*
X110989193Y-92515962D01*
X110941574Y-92563581D01*
X110846336Y-92611200D01*
X110560621Y-92611200D01*
X110465383Y-92563581D01*
X110417764Y-92515962D01*
X111322526Y-91611200D02*
X111655860Y-92611200D01*
X111989193Y-91611200D01*
X112227288Y-91611200D02*
X112846336Y-91611200D01*
X112513002Y-91992153D01*
X112655860Y-91992153D01*
X112751098Y-92039772D01*
X112798717Y-92087391D01*
X112846336Y-92182629D01*
X112846336Y-92420724D01*
X112798717Y-92515962D01*
X112751098Y-92563581D01*
X112655860Y-92611200D01*
X112370145Y-92611200D01*
X112274907Y-92563581D01*
X112227288Y-92515962D01*
X110304105Y-95202641D02*
X110446962Y-95250260D01*
X110685058Y-95250260D01*
X110780296Y-95202641D01*
X110827915Y-95155022D01*
X110875534Y-95059784D01*
X110875534Y-94964546D01*
X110827915Y-94869308D01*
X110780296Y-94821689D01*
X110685058Y-94774070D01*
X110494581Y-94726451D01*
X110399343Y-94678832D01*
X110351724Y-94631213D01*
X110304105Y-94535975D01*
X110304105Y-94440737D01*
X110351724Y-94345499D01*
X110399343Y-94297880D01*
X110494581Y-94250260D01*
X110732677Y-94250260D01*
X110875534Y-94297880D01*
X111875534Y-95155022D02*
X111827915Y-95202641D01*
X111685058Y-95250260D01*
X111589820Y-95250260D01*
X111446962Y-95202641D01*
X111351724Y-95107403D01*
X111304105Y-95012165D01*
X111256486Y-94821689D01*
X111256486Y-94678832D01*
X111304105Y-94488356D01*
X111351724Y-94393118D01*
X111446962Y-94297880D01*
X111589820Y-94250260D01*
X111685058Y-94250260D01*
X111827915Y-94297880D01*
X111875534Y-94345499D01*
X112304105Y-95250260D02*
X112304105Y-94250260D01*
X112875534Y-95250260D02*
X112446962Y-94678832D01*
X112875534Y-94250260D02*
X112304105Y-94821689D01*
X110926975Y-97300160D02*
X110831737Y-97252540D01*
X110688880Y-97252540D01*
X110546022Y-97300160D01*
X110450784Y-97395398D01*
X110403165Y-97490636D01*
X110355546Y-97681112D01*
X110355546Y-97823969D01*
X110403165Y-98014445D01*
X110450784Y-98109683D01*
X110546022Y-98204921D01*
X110688880Y-98252540D01*
X110784118Y-98252540D01*
X110926975Y-98204921D01*
X110974594Y-98157302D01*
X110974594Y-97823969D01*
X110784118Y-97823969D01*
X111403165Y-98252540D02*
X111403165Y-97252540D01*
X111974594Y-98252540D01*
X111974594Y-97252540D01*
X112450784Y-98252540D02*
X112450784Y-97252540D01*
X112688880Y-97252540D01*
X112831737Y-97300160D01*
X112926975Y-97395398D01*
X112974594Y-97490636D01*
X113022213Y-97681112D01*
X113022213Y-97823969D01*
X112974594Y-98014445D01*
X112926975Y-98109683D01*
X112831737Y-98204921D01*
X112688880Y-98252540D01*
X112450784Y-98252540D01*
D12*
X167580406Y-95999952D02*
X167580406Y-93499952D01*
X168175644Y-93499952D01*
X168532787Y-93619000D01*
X168770882Y-93857095D01*
X168889930Y-94095190D01*
X169008978Y-94571380D01*
X169008978Y-94928523D01*
X168889930Y-95404714D01*
X168770882Y-95642809D01*
X168532787Y-95880904D01*
X168175644Y-95999952D01*
X167580406Y-95999952D01*
X170080406Y-95999952D02*
X170080406Y-93499952D01*
X171508978Y-95999952D01*
X171508978Y-93499952D01*
X172699454Y-95999952D02*
X172699454Y-93499952D01*
X173532787Y-95285666D01*
X174366120Y-93499952D01*
X174366120Y-95999952D01*
X175437549Y-95880904D02*
X175794692Y-95999952D01*
X176389930Y-95999952D01*
X176628025Y-95880904D01*
X176747073Y-95761857D01*
X176866120Y-95523761D01*
X176866120Y-95285666D01*
X176747073Y-95047571D01*
X176628025Y-94928523D01*
X176389930Y-94809476D01*
X175913740Y-94690428D01*
X175675644Y-94571380D01*
X175556597Y-94452333D01*
X175437549Y-94214238D01*
X175437549Y-93976142D01*
X175556597Y-93738047D01*
X175675644Y-93619000D01*
X175913740Y-93499952D01*
X176508978Y-93499952D01*
X176866120Y-93619000D01*
D11*
X101898865Y-92423881D02*
X102041722Y-92471500D01*
X102279818Y-92471500D01*
X102375056Y-92423881D01*
X102422675Y-92376262D01*
X102470294Y-92281024D01*
X102470294Y-92185786D01*
X102422675Y-92090548D01*
X102375056Y-92042929D01*
X102279818Y-91995310D01*
X102089341Y-91947691D01*
X101994103Y-91900072D01*
X101946484Y-91852453D01*
X101898865Y-91757215D01*
X101898865Y-91661977D01*
X101946484Y-91566739D01*
X101994103Y-91519120D01*
X102089341Y-91471500D01*
X102327437Y-91471500D01*
X102470294Y-91519120D01*
X102898865Y-92471500D02*
X102898865Y-91471500D01*
X103136960Y-91471500D01*
X103279818Y-91519120D01*
X103375056Y-91614358D01*
X103422675Y-91709596D01*
X103470294Y-91900072D01*
X103470294Y-92042929D01*
X103422675Y-92233405D01*
X103375056Y-92328643D01*
X103279818Y-92423881D01*
X103136960Y-92471500D01*
X102898865Y-92471500D01*
X181140505Y-94699260D02*
X181140505Y-93699260D01*
X181616696Y-94699260D02*
X181616696Y-93699260D01*
X181950029Y-94413546D01*
X182283362Y-93699260D01*
X182283362Y-94699260D01*
X182664315Y-93699260D02*
X183330981Y-93699260D01*
X182902410Y-94699260D01*
X183664315Y-93794499D02*
X183711934Y-93746880D01*
X183807172Y-93699260D01*
X184045267Y-93699260D01*
X184140505Y-93746880D01*
X184188124Y-93794499D01*
X184235743Y-93889737D01*
X184235743Y-93984975D01*
X184188124Y-94127832D01*
X183616696Y-94699260D01*
X184235743Y-94699260D01*
X184664315Y-94699260D02*
X184664315Y-93699260D01*
X184902410Y-93699260D01*
X185045267Y-93746880D01*
X185140505Y-93842118D01*
X185188124Y-93937356D01*
X185235743Y-94127832D01*
X185235743Y-94270689D01*
X185188124Y-94461165D01*
X185140505Y-94556403D01*
X185045267Y-94651641D01*
X184902410Y-94699260D01*
X184664315Y-94699260D01*
X186188124Y-94699260D02*
X185616696Y-94699260D01*
X185902410Y-94699260D02*
X185902410Y-93699260D01*
X185807172Y-93842118D01*
X185711934Y-93937356D01*
X185616696Y-93984975D01*
X186569077Y-93794499D02*
X186616696Y-93746880D01*
X186711934Y-93699260D01*
X186950029Y-93699260D01*
X187045267Y-93746880D01*
X187092886Y-93794499D01*
X187140505Y-93889737D01*
X187140505Y-93984975D01*
X187092886Y-94127832D01*
X186521458Y-94699260D01*
X187140505Y-94699260D01*
X187711934Y-94127832D02*
X187616696Y-94080213D01*
X187569077Y-94032594D01*
X187521458Y-93937356D01*
X187521458Y-93889737D01*
X187569077Y-93794499D01*
X187616696Y-93746880D01*
X187711934Y-93699260D01*
X187902410Y-93699260D01*
X187997648Y-93746880D01*
X188045267Y-93794499D01*
X188092886Y-93889737D01*
X188092886Y-93937356D01*
X188045267Y-94032594D01*
X187997648Y-94080213D01*
X187902410Y-94127832D01*
X187711934Y-94127832D01*
X187616696Y-94175451D01*
X187569077Y-94223070D01*
X187521458Y-94318308D01*
X187521458Y-94508784D01*
X187569077Y-94604022D01*
X187616696Y-94651641D01*
X187711934Y-94699260D01*
X187902410Y-94699260D01*
X187997648Y-94651641D01*
X188045267Y-94604022D01*
X188092886Y-94508784D01*
X188092886Y-94318308D01*
X188045267Y-94223070D01*
X187997648Y-94175451D01*
X187902410Y-94127832D01*
X188521458Y-94318308D02*
X189283362Y-94318308D01*
X189616696Y-93699260D02*
X190188124Y-93699260D01*
X189902410Y-94699260D02*
X189902410Y-93699260D01*
X190950029Y-94032594D02*
X190950029Y-94699260D01*
X190521458Y-94032594D02*
X190521458Y-94556403D01*
X190569077Y-94651641D01*
X190664315Y-94699260D01*
X190807172Y-94699260D01*
X190902410Y-94651641D01*
X190950029Y-94604022D01*
X191426220Y-94699260D02*
X191426220Y-93699260D01*
X191426220Y-94080213D02*
X191521458Y-94032594D01*
X191711934Y-94032594D01*
X191807172Y-94080213D01*
X191854791Y-94127832D01*
X191902410Y-94223070D01*
X191902410Y-94508784D01*
X191854791Y-94604022D01*
X191807172Y-94651641D01*
X191711934Y-94699260D01*
X191521458Y-94699260D01*
X191426220Y-94651641D01*
X192711934Y-94651641D02*
X192616696Y-94699260D01*
X192426220Y-94699260D01*
X192330981Y-94651641D01*
X192283362Y-94556403D01*
X192283362Y-94175451D01*
X192330981Y-94080213D01*
X192426220Y-94032594D01*
X192616696Y-94032594D01*
X192711934Y-94080213D01*
X192759553Y-94175451D01*
X192759553Y-94270689D01*
X192283362Y-94365927D01*
X185497648Y-95642594D02*
X185735743Y-96309260D01*
X185973839Y-95642594D01*
X186878600Y-96309260D02*
X186307172Y-96309260D01*
X186592886Y-96309260D02*
X186592886Y-95309260D01*
X186497648Y-95452118D01*
X186402410Y-95547356D01*
X186307172Y-95594975D01*
X187307172Y-96214022D02*
X187354791Y-96261641D01*
X187307172Y-96309260D01*
X187259553Y-96261641D01*
X187307172Y-96214022D01*
X187307172Y-96309260D01*
X187973839Y-95309260D02*
X188069077Y-95309260D01*
X188164315Y-95356880D01*
X188211934Y-95404499D01*
X188259553Y-95499737D01*
X188307172Y-95690213D01*
X188307172Y-95928308D01*
X188259553Y-96118784D01*
X188211934Y-96214022D01*
X188164315Y-96261641D01*
X188069077Y-96309260D01*
X187973839Y-96309260D01*
X187878600Y-96261641D01*
X187830981Y-96214022D01*
X187783362Y-96118784D01*
X187735743Y-95928308D01*
X187735743Y-95690213D01*
X187783362Y-95499737D01*
X187830981Y-95404499D01*
X187878600Y-95356880D01*
X187973839Y-95309260D01*
X106880666Y-89099520D02*
X106880666Y-89813806D01*
X106833047Y-89956663D01*
X106737809Y-90051901D01*
X106594952Y-90099520D01*
X106499714Y-90099520D01*
X107880666Y-90099520D02*
X107309238Y-90099520D01*
X107594952Y-90099520D02*
X107594952Y-89099520D01*
X107499714Y-89242378D01*
X107404476Y-89337616D01*
X107309238Y-89385235D01*
X129393653Y-97293682D02*
X129346034Y-97341301D01*
X129203177Y-97388920D01*
X129107939Y-97388920D01*
X128965081Y-97341301D01*
X128869843Y-97246063D01*
X128822224Y-97150825D01*
X128774605Y-96960349D01*
X128774605Y-96817492D01*
X128822224Y-96627016D01*
X128869843Y-96531778D01*
X128965081Y-96436540D01*
X129107939Y-96388920D01*
X129203177Y-96388920D01*
X129346034Y-96436540D01*
X129393653Y-96484159D01*
X130346034Y-97388920D02*
X129774605Y-97388920D01*
X130060320Y-97388920D02*
X130060320Y-96388920D01*
X129965081Y-96531778D01*
X129869843Y-96627016D01*
X129774605Y-96674635D01*
X135664913Y-94906102D02*
X135617294Y-94953721D01*
X135474437Y-95001340D01*
X135379199Y-95001340D01*
X135236341Y-94953721D01*
X135141103Y-94858483D01*
X135093484Y-94763245D01*
X135045865Y-94572769D01*
X135045865Y-94429912D01*
X135093484Y-94239436D01*
X135141103Y-94144198D01*
X135236341Y-94048960D01*
X135379199Y-94001340D01*
X135474437Y-94001340D01*
X135617294Y-94048960D01*
X135664913Y-94096579D01*
X136045865Y-94096579D02*
X136093484Y-94048960D01*
X136188722Y-94001340D01*
X136426818Y-94001340D01*
X136522056Y-94048960D01*
X136569675Y-94096579D01*
X136617294Y-94191817D01*
X136617294Y-94287055D01*
X136569675Y-94429912D01*
X135998246Y-95001340D01*
X136617294Y-95001340D01*
X210000553Y-90451042D02*
X209952934Y-90498661D01*
X209810077Y-90546280D01*
X209714839Y-90546280D01*
X209571981Y-90498661D01*
X209476743Y-90403423D01*
X209429124Y-90308185D01*
X209381505Y-90117709D01*
X209381505Y-89974852D01*
X209429124Y-89784376D01*
X209476743Y-89689138D01*
X209571981Y-89593900D01*
X209714839Y-89546280D01*
X209810077Y-89546280D01*
X209952934Y-89593900D01*
X210000553Y-89641519D01*
X210333886Y-89546280D02*
X210952934Y-89546280D01*
X210619600Y-89927233D01*
X210762458Y-89927233D01*
X210857696Y-89974852D01*
X210905315Y-90022471D01*
X210952934Y-90117709D01*
X210952934Y-90355804D01*
X210905315Y-90451042D01*
X210857696Y-90498661D01*
X210762458Y-90546280D01*
X210476743Y-90546280D01*
X210381505Y-90498661D01*
X210333886Y-90451042D01*
X157742593Y-91474562D02*
X157694974Y-91522181D01*
X157552117Y-91569800D01*
X157456879Y-91569800D01*
X157314021Y-91522181D01*
X157218783Y-91426943D01*
X157171164Y-91331705D01*
X157123545Y-91141229D01*
X157123545Y-90998372D01*
X157171164Y-90807896D01*
X157218783Y-90712658D01*
X157314021Y-90617420D01*
X157456879Y-90569800D01*
X157552117Y-90569800D01*
X157694974Y-90617420D01*
X157742593Y-90665039D01*
X158599736Y-90903134D02*
X158599736Y-91569800D01*
X158361640Y-90522181D02*
X158123545Y-91236467D01*
X158742593Y-91236467D01*
X216627413Y-94207602D02*
X216579794Y-94255221D01*
X216436937Y-94302840D01*
X216341699Y-94302840D01*
X216198841Y-94255221D01*
X216103603Y-94159983D01*
X216055984Y-94064745D01*
X216008365Y-93874269D01*
X216008365Y-93731412D01*
X216055984Y-93540936D01*
X216103603Y-93445698D01*
X216198841Y-93350460D01*
X216341699Y-93302840D01*
X216436937Y-93302840D01*
X216579794Y-93350460D01*
X216627413Y-93398079D01*
X216960746Y-93302840D02*
X217627413Y-93302840D01*
X217198841Y-94302840D01*
X216627413Y-92654380D02*
X216294080Y-92178190D01*
X216055984Y-92654380D02*
X216055984Y-91654380D01*
X216436937Y-91654380D01*
X216532175Y-91702000D01*
X216579794Y-91749619D01*
X216627413Y-91844857D01*
X216627413Y-91987714D01*
X216579794Y-92082952D01*
X216532175Y-92130571D01*
X216436937Y-92178190D01*
X216055984Y-92178190D01*
X217579794Y-92654380D02*
X217008365Y-92654380D01*
X217294080Y-92654380D02*
X217294080Y-91654380D01*
X217198841Y-91797238D01*
X217103603Y-91892476D01*
X217008365Y-91940095D01*
X130665315Y-89218520D02*
X130665315Y-90028044D01*
X130712934Y-90123282D01*
X130760553Y-90170901D01*
X130855791Y-90218520D01*
X131046267Y-90218520D01*
X131141505Y-90170901D01*
X131189124Y-90123282D01*
X131236743Y-90028044D01*
X131236743Y-89218520D01*
X132236743Y-90218520D02*
X131665315Y-90218520D01*
X131951029Y-90218520D02*
X131951029Y-89218520D01*
X131855791Y-89361378D01*
X131760553Y-89456616D01*
X131665315Y-89504235D01*
X212877495Y-96998540D02*
X212877495Y-97808064D01*
X212925114Y-97903302D01*
X212972733Y-97950921D01*
X213067971Y-97998540D01*
X213258447Y-97998540D01*
X213353685Y-97950921D01*
X213401304Y-97903302D01*
X213448923Y-97808064D01*
X213448923Y-96998540D01*
X213877495Y-97093779D02*
X213925114Y-97046160D01*
X214020352Y-96998540D01*
X214258447Y-96998540D01*
X214353685Y-97046160D01*
X214401304Y-97093779D01*
X214448923Y-97189017D01*
X214448923Y-97284255D01*
X214401304Y-97427112D01*
X213829876Y-97998540D01*
X214448923Y-97998540D01*
X213071674Y-95600780D02*
X212500245Y-95600780D01*
X212785960Y-95600780D02*
X212785960Y-94600780D01*
X212690721Y-94743638D01*
X212595483Y-94838876D01*
X212500245Y-94886495D01*
X211813804Y-95274426D02*
X212289995Y-95274426D01*
X211718566Y-95560140D02*
X212051900Y-94560140D01*
X212385233Y-95560140D01*
X224378686Y-90927940D02*
X224712020Y-91927940D01*
X225045353Y-90927940D01*
X225378686Y-91927940D02*
X225378686Y-90927940D01*
X225616781Y-90927940D01*
X225759639Y-90975560D01*
X225854877Y-91070798D01*
X225902496Y-91166036D01*
X225950115Y-91356512D01*
X225950115Y-91499369D01*
X225902496Y-91689845D01*
X225854877Y-91785083D01*
X225759639Y-91880321D01*
X225616781Y-91927940D01*
X225378686Y-91927940D01*
X226378686Y-91927940D02*
X226378686Y-90927940D01*
X226616781Y-90927940D01*
X226759639Y-90975560D01*
X226854877Y-91070798D01*
X226902496Y-91166036D01*
X226950115Y-91356512D01*
X226950115Y-91499369D01*
X226902496Y-91689845D01*
X226854877Y-91785083D01*
X226759639Y-91880321D01*
X226616781Y-91927940D01*
X226378686Y-91927940D01*
X225013615Y-97117280D02*
X224918377Y-97069660D01*
X224775520Y-97069660D01*
X224632662Y-97117280D01*
X224537424Y-97212518D01*
X224489805Y-97307756D01*
X224442186Y-97498232D01*
X224442186Y-97641089D01*
X224489805Y-97831565D01*
X224537424Y-97926803D01*
X224632662Y-98022041D01*
X224775520Y-98069660D01*
X224870758Y-98069660D01*
X225013615Y-98022041D01*
X225061234Y-97974422D01*
X225061234Y-97641089D01*
X224870758Y-97641089D01*
X225489805Y-98069660D02*
X225489805Y-97069660D01*
X226061234Y-98069660D01*
X226061234Y-97069660D01*
X226537424Y-98069660D02*
X226537424Y-97069660D01*
X226775520Y-97069660D01*
X226918377Y-97117280D01*
X227013615Y-97212518D01*
X227061234Y-97307756D01*
X227108853Y-97498232D01*
X227108853Y-97641089D01*
X227061234Y-97831565D01*
X227013615Y-97926803D01*
X226918377Y-98022041D01*
X226775520Y-98069660D01*
X226537424Y-98069660D01*
X118613333Y-90487142D02*
X118565714Y-90534761D01*
X118422857Y-90582380D01*
X118327619Y-90582380D01*
X118184761Y-90534761D01*
X118089523Y-90439523D01*
X118041904Y-90344285D01*
X117994285Y-90153809D01*
X117994285Y-90010952D01*
X118041904Y-89820476D01*
X118089523Y-89725238D01*
X118184761Y-89630000D01*
X118327619Y-89582380D01*
X118422857Y-89582380D01*
X118565714Y-89630000D01*
X118613333Y-89677619D01*
X119470476Y-89582380D02*
X119280000Y-89582380D01*
X119184761Y-89630000D01*
X119137142Y-89677619D01*
X119041904Y-89820476D01*
X118994285Y-90010952D01*
X118994285Y-90391904D01*
X119041904Y-90487142D01*
X119089523Y-90534761D01*
X119184761Y-90582380D01*
X119375238Y-90582380D01*
X119470476Y-90534761D01*
X119518095Y-90487142D01*
X119565714Y-90391904D01*
X119565714Y-90153809D01*
X119518095Y-90058571D01*
X119470476Y-90010952D01*
X119375238Y-89963333D01*
X119184761Y-89963333D01*
X119089523Y-90010952D01*
X119041904Y-90058571D01*
X118994285Y-90153809D01*
X154663333Y-91397142D02*
X154615714Y-91444761D01*
X154472857Y-91492380D01*
X154377619Y-91492380D01*
X154234761Y-91444761D01*
X154139523Y-91349523D01*
X154091904Y-91254285D01*
X154044285Y-91063809D01*
X154044285Y-90920952D01*
X154091904Y-90730476D01*
X154139523Y-90635238D01*
X154234761Y-90540000D01*
X154377619Y-90492380D01*
X154472857Y-90492380D01*
X154615714Y-90540000D01*
X154663333Y-90587619D01*
X155568095Y-90492380D02*
X155091904Y-90492380D01*
X155044285Y-90968571D01*
X155091904Y-90920952D01*
X155187142Y-90873333D01*
X155425238Y-90873333D01*
X155520476Y-90920952D01*
X155568095Y-90968571D01*
X155615714Y-91063809D01*
X155615714Y-91301904D01*
X155568095Y-91397142D01*
X155520476Y-91444761D01*
X155425238Y-91492380D01*
X155187142Y-91492380D01*
X155091904Y-91444761D01*
X155044285Y-91397142D01*
X114618536Y-89583564D02*
X114618536Y-90231183D01*
X114656631Y-90307374D01*
X114694726Y-90345469D01*
X114770917Y-90383564D01*
X114923298Y-90383564D01*
X114999488Y-90345469D01*
X115037583Y-90307374D01*
X115075679Y-90231183D01*
X115075679Y-89583564D01*
X115837583Y-89583564D02*
X115456631Y-89583564D01*
X115418536Y-89964517D01*
X115456631Y-89926421D01*
X115532821Y-89888326D01*
X115723298Y-89888326D01*
X115799488Y-89926421D01*
X115837583Y-89964517D01*
X115875679Y-90040707D01*
X115875679Y-90231183D01*
X115837583Y-90307374D01*
X115799488Y-90345469D01*
X115723298Y-90383564D01*
X115532821Y-90383564D01*
X115456631Y-90345469D01*
X115418536Y-90307374D01*
X150534136Y-91399664D02*
X150534136Y-92047283D01*
X150572231Y-92123474D01*
X150610326Y-92161569D01*
X150686517Y-92199664D01*
X150838898Y-92199664D01*
X150915088Y-92161569D01*
X150953183Y-92123474D01*
X150991279Y-92047283D01*
X150991279Y-91399664D01*
X151715088Y-91666331D02*
X151715088Y-92199664D01*
X151524612Y-91361569D02*
X151334136Y-91932998D01*
X151829374Y-91932998D01*
X160922736Y-93774564D02*
X160922736Y-94422183D01*
X160960831Y-94498374D01*
X160998926Y-94536469D01*
X161075117Y-94574564D01*
X161227498Y-94574564D01*
X161303688Y-94536469D01*
X161341783Y-94498374D01*
X161379879Y-94422183D01*
X161379879Y-93774564D01*
X161684640Y-93774564D02*
X162179879Y-93774564D01*
X161913212Y-94079326D01*
X162027498Y-94079326D01*
X162103688Y-94117421D01*
X162141783Y-94155517D01*
X162179879Y-94231707D01*
X162179879Y-94422183D01*
X162141783Y-94498374D01*
X162103688Y-94536469D01*
X162027498Y-94574564D01*
X161798926Y-94574564D01*
X161722736Y-94536469D01*
X161684640Y-94498374D01*
D10*
X104614000Y-93247140D02*
X104614000Y-98387140D01*
X109814000Y-90647140D02*
X109814000Y-98387140D01*
X104614000Y-91977140D02*
X104614000Y-90647140D01*
X104614000Y-90647140D02*
X105944000Y-90647140D01*
X104614000Y-98387140D02*
X109814000Y-98387140D01*
X107214000Y-93247140D02*
X107214000Y-90647140D01*
X104614000Y-93247140D02*
X107214000Y-93247140D01*
X107214000Y-90647140D02*
X109814000Y-90647140D01*
X129700900Y-94996540D02*
X129419740Y-94996540D01*
X129700900Y-96016540D02*
X129419740Y-96016540D01*
X136267920Y-92056340D02*
X136267920Y-92337500D01*
X135247920Y-92056340D02*
X135247920Y-92337500D01*
X209644520Y-92122480D02*
X209644520Y-92403640D01*
X210664520Y-92122480D02*
X210664520Y-92403640D01*
X157478000Y-93316180D02*
X157478000Y-93597340D01*
X158498000Y-93316180D02*
X158498000Y-93597340D01*
X214062700Y-94284260D02*
X214343860Y-94284260D01*
X214062700Y-93264260D02*
X214343860Y-93264260D01*
X213971102Y-91593140D02*
X214445618Y-91593140D01*
X213971102Y-92638140D02*
X214445618Y-92638140D01*
X131437380Y-90781700D02*
X129637380Y-90781700D01*
X131437380Y-93901700D02*
X132237380Y-93901700D01*
X131437380Y-93901700D02*
X130637380Y-93901700D01*
X131437380Y-90781700D02*
X132237380Y-90781700D01*
X227750000Y-90700000D02*
X230150000Y-90700000D01*
X227750000Y-92100000D02*
X227750000Y-90700000D01*
X230150000Y-90700000D02*
X230150000Y-92100000D01*
X230150000Y-92100000D02*
X227750000Y-92100000D01*
X227750000Y-96900000D02*
X230150000Y-96900000D01*
X230150000Y-96900000D02*
X230150000Y-98300000D01*
X230150000Y-98300000D02*
X227750000Y-98300000D01*
X227750000Y-98300000D02*
X227750000Y-96900000D01*
X119295640Y-92223980D02*
X119295640Y-92505140D01*
X118275640Y-92223980D02*
X118275640Y-92505140D01*
X154303000Y-93255220D02*
X154303000Y-93536380D01*
X155323000Y-93255220D02*
X155323000Y-93536380D01*
D13*
X115618060Y-93979660D02*
X114958060Y-93979660D01*
X116088060Y-92194660D02*
X116088060Y-92864660D01*
X114958060Y-91079660D02*
X115618060Y-91079660D01*
D14*
X112978060Y-91479660D02*
G75*
G03*
X112978060Y-91479660I-100000J0D01*
G01*
D13*
X150873660Y-92895760D02*
X151533660Y-92895760D01*
X152003660Y-94010760D02*
X152003660Y-94680760D01*
X151533660Y-95795760D02*
X150873660Y-95795760D01*
D14*
X148893660Y-93295760D02*
G75*
G03*
X148893660Y-93295760I-100000J0D01*
G01*
D13*
X161922260Y-98170660D02*
X161262260Y-98170660D01*
X161262260Y-95270660D02*
X161922260Y-95270660D01*
X162392260Y-96385660D02*
X162392260Y-97055660D01*
D14*
X159282260Y-95670660D02*
G75*
G03*
X159282260Y-95670660I-100000J0D01*
G01*
M02*
