G04 #@! TF.GenerationSoftware,KiCad,Pcbnew,7.0.10*
G04 #@! TF.CreationDate,2024-02-20T19:33:16+01:00*
G04 #@! TF.ProjectId,IM72D128-Tube-PCB,494d3732-4431-4323-982d-547562652d50,rev?*
G04 #@! TF.SameCoordinates,Original*
G04 #@! TF.FileFunction,Copper,L2,Bot*
G04 #@! TF.FilePolarity,Positive*
%FSLAX46Y46*%
G04 Gerber Fmt 4.6, Leading zero omitted, Abs format (unit mm)*
G04 Created by KiCad (PCBNEW 7.0.10) date 2024-02-20 19:33:16*
%MOMM*%
%LPD*%
G01*
G04 APERTURE LIST*
G04 Aperture macros list*
%AMFreePoly0*
4,1,6,1.000000,0.000000,0.500000,-0.750000,-0.500000,-0.750000,-0.500000,0.750000,0.500000,0.750000,1.000000,0.000000,1.000000,0.000000,$1*%
%AMFreePoly1*
4,1,6,0.500000,-0.750000,-0.650000,-0.750000,-0.150000,0.000000,-0.650000,0.750000,0.500000,0.750000,0.500000,-0.750000,0.500000,-0.750000,$1*%
G04 Aperture macros list end*
G04 #@! TA.AperFunction,ComponentPad*
%ADD10R,1.700000X1.700000*%
G04 #@! TD*
G04 #@! TA.AperFunction,ComponentPad*
%ADD11O,1.700000X1.700000*%
G04 #@! TD*
G04 #@! TA.AperFunction,SMDPad,CuDef*
%ADD12R,2.000000X1.000000*%
G04 #@! TD*
G04 #@! TA.AperFunction,SMDPad,CuDef*
%ADD13FreePoly0,180.000000*%
G04 #@! TD*
G04 #@! TA.AperFunction,SMDPad,CuDef*
%ADD14FreePoly1,180.000000*%
G04 #@! TD*
G04 #@! TA.AperFunction,ViaPad*
%ADD15C,0.800000*%
G04 #@! TD*
G04 #@! TA.AperFunction,Conductor*
%ADD16C,0.500000*%
G04 #@! TD*
G04 #@! TA.AperFunction,Conductor*
%ADD17C,0.250000*%
G04 #@! TD*
G04 #@! TA.AperFunction,Conductor*
%ADD18C,0.100000*%
G04 #@! TD*
G04 APERTURE END LIST*
D10*
X105944000Y-91977140D03*
D11*
X108484000Y-91977140D03*
X105944000Y-94517140D03*
X108484000Y-94517140D03*
X105944000Y-97057140D03*
X108484000Y-97057140D03*
D12*
X228950000Y-96950000D03*
X228950000Y-98950000D03*
X228950000Y-90450000D03*
D13*
X224225000Y-93020000D03*
D14*
X222775000Y-93020000D03*
D13*
X224225000Y-95770000D03*
D14*
X222775000Y-95770000D03*
D15*
X138473180Y-95295760D03*
X221200000Y-95740000D03*
X156317950Y-95332550D03*
X126979680Y-92351280D03*
X104140000Y-97790000D03*
X158056580Y-97680780D03*
X138473180Y-92991940D03*
X222198920Y-99128300D03*
X101600000Y-91440000D03*
X146893240Y-95295760D03*
X126979680Y-94851280D03*
X221200000Y-95740000D03*
X210157060Y-95206820D03*
X116608860Y-95102680D03*
X221380000Y-91500000D03*
X213412799Y-90850000D03*
X155262580Y-96791780D03*
X155260040Y-98672040D03*
X111760000Y-94952820D03*
X211449920Y-94383860D03*
X218090500Y-95077299D03*
D16*
X126918720Y-92362020D02*
X126918720Y-92362020D01*
X138473180Y-95727520D02*
X138473180Y-99517480D01*
X156317950Y-95332550D02*
X157645100Y-96659700D01*
X158056580Y-97680780D02*
X158056580Y-97680780D01*
X222198920Y-99128300D02*
X222198920Y-99128300D01*
X138473180Y-92991940D02*
X138473180Y-95727520D01*
X222198920Y-99517480D02*
X222198920Y-99128300D01*
D17*
X222775000Y-95740000D02*
X222805000Y-95770000D01*
D16*
X156281160Y-95295760D02*
X156317950Y-95332550D01*
X210157060Y-99207320D02*
X210164680Y-99214940D01*
X126979680Y-92351280D02*
X126979680Y-94851280D01*
D17*
X221200000Y-95740000D02*
X222775000Y-95740000D01*
D16*
X146893240Y-95295760D02*
X156281160Y-95295760D01*
X210157060Y-95206820D02*
X210157060Y-99517480D01*
X138473180Y-99517480D02*
X173946820Y-99517480D01*
X157645100Y-96659700D02*
X157645100Y-97269300D01*
X157645100Y-97269300D02*
X158056580Y-97680780D01*
X210164680Y-99517480D02*
X219811600Y-99517480D01*
X108484000Y-97057140D02*
X108383000Y-97057140D01*
X220619320Y-99517480D02*
X222198920Y-99517480D01*
X174000160Y-99517480D02*
X210164680Y-99517480D01*
X219811600Y-99517480D02*
X220619320Y-99517480D01*
D17*
X116608860Y-95102680D02*
X116608860Y-95102680D01*
X106446320Y-89791540D02*
X115981480Y-89791540D01*
X116608860Y-90418920D02*
X116608860Y-95102680D01*
X105944000Y-91977140D02*
X105944000Y-90293860D01*
X115981480Y-89791540D02*
X116608860Y-90418920D01*
X105944000Y-90293860D02*
X106446320Y-89791540D01*
X221380000Y-91500000D02*
X221380000Y-91665000D01*
X221380000Y-91665000D02*
X222735000Y-93020000D01*
X228950000Y-90450000D02*
X226521680Y-90450000D01*
X226521680Y-90450000D02*
X226121680Y-90850000D01*
X226121680Y-90850000D02*
X213412799Y-90850000D01*
D18*
X155262580Y-98669500D02*
X155260040Y-98672040D01*
D17*
X155262580Y-96791780D02*
X155262580Y-98669500D01*
D18*
X111760000Y-94952820D02*
X111744760Y-94937580D01*
D17*
X116306600Y-97581720D02*
X114388900Y-97581720D01*
X208473040Y-94383860D02*
X204188060Y-90098880D01*
D18*
X125539500Y-90098880D02*
X125473460Y-90098880D01*
X123444000Y-97548700D02*
X123410980Y-97581720D01*
D17*
X114388900Y-97581720D02*
X111760000Y-94952820D01*
X125539500Y-95453200D02*
X123444000Y-97548700D01*
X211449920Y-94383860D02*
X208473040Y-94383860D01*
X204188060Y-90098880D02*
X125539500Y-90098880D01*
X123410980Y-97581720D02*
X116306600Y-97581720D01*
X125539500Y-90098880D02*
X125539500Y-95453200D01*
X226752640Y-98950000D02*
X228950000Y-98950000D01*
X218090500Y-95642984D02*
X220597516Y-98150000D01*
X220597516Y-98150000D02*
X225952640Y-98150000D01*
X225952640Y-98150000D02*
X226752640Y-98950000D01*
X218090500Y-95077299D02*
X218090500Y-95642984D01*
X225620000Y-95770000D02*
X224255000Y-95770000D01*
X224255000Y-95770000D02*
X224255000Y-93090000D01*
X226800000Y-96950000D02*
X225620000Y-95770000D01*
X228950000Y-96950000D02*
X226800000Y-96950000D01*
X224255000Y-93090000D02*
X224185000Y-93020000D01*
G04 #@! TA.AperFunction,Conductor*
G36*
X229916621Y-89045502D02*
G01*
X229963114Y-89099158D01*
X229974500Y-89151500D01*
X229974500Y-89523500D01*
X229954498Y-89591621D01*
X229900842Y-89638114D01*
X229848500Y-89649500D01*
X227905140Y-89649500D01*
X227905133Y-89649501D01*
X227880009Y-89652414D01*
X227880005Y-89652416D01*
X227777234Y-89697793D01*
X227697795Y-89777232D01*
X227697794Y-89777234D01*
X227652414Y-89880009D01*
X227649500Y-89905127D01*
X227649463Y-89905775D01*
X227649407Y-89905931D01*
X227649080Y-89908751D01*
X227648426Y-89908675D01*
X227625561Y-89972627D01*
X227569311Y-90015944D01*
X227523673Y-90024500D01*
X226589073Y-90024500D01*
X226454287Y-90024500D01*
X226431466Y-90031914D01*
X226412252Y-90036527D01*
X226388554Y-90040280D01*
X226367178Y-90051172D01*
X226348916Y-90058736D01*
X226326101Y-90066149D01*
X226326098Y-90066151D01*
X226306682Y-90080256D01*
X226289836Y-90090579D01*
X226268460Y-90101471D01*
X226256473Y-90113458D01*
X226244485Y-90125447D01*
X225982337Y-90387595D01*
X225920025Y-90421621D01*
X225893242Y-90424500D01*
X214035279Y-90424500D01*
X213967158Y-90404498D01*
X213946772Y-90387028D01*
X213946687Y-90387125D01*
X213832304Y-90285791D01*
X213813651Y-90269266D01*
X213813650Y-90269265D01*
X213663024Y-90190210D01*
X213663020Y-90190208D01*
X213497858Y-90149500D01*
X213497855Y-90149500D01*
X213327743Y-90149500D01*
X213327739Y-90149500D01*
X213162577Y-90190208D01*
X213162573Y-90190210D01*
X213011947Y-90269265D01*
X213011941Y-90269270D01*
X212884617Y-90382069D01*
X212884615Y-90382071D01*
X212787980Y-90522070D01*
X212787978Y-90522074D01*
X212727658Y-90681128D01*
X212707154Y-90849997D01*
X212707154Y-90850002D01*
X212727658Y-91018871D01*
X212787978Y-91177925D01*
X212787980Y-91177929D01*
X212884615Y-91317928D01*
X212884617Y-91317930D01*
X212942133Y-91368885D01*
X213011947Y-91430734D01*
X213162574Y-91509790D01*
X213162575Y-91509790D01*
X213162577Y-91509791D01*
X213319260Y-91548409D01*
X213327743Y-91550500D01*
X213327746Y-91550500D01*
X213497852Y-91550500D01*
X213497855Y-91550500D01*
X213663024Y-91509790D01*
X213813651Y-91430734D01*
X213940982Y-91317929D01*
X213940983Y-91317928D01*
X213946687Y-91312875D01*
X213947532Y-91313829D01*
X214001109Y-91280222D01*
X214035279Y-91275500D01*
X220559390Y-91275500D01*
X220627511Y-91295502D01*
X220674004Y-91349158D01*
X220684471Y-91416688D01*
X220674355Y-91499997D01*
X220674355Y-91500002D01*
X220694859Y-91668871D01*
X220755179Y-91827925D01*
X220755181Y-91827929D01*
X220851816Y-91967928D01*
X220851818Y-91967930D01*
X220897833Y-92008696D01*
X220979148Y-92080734D01*
X221129775Y-92159790D01*
X221129776Y-92159790D01*
X221129778Y-92159791D01*
X221197364Y-92176449D01*
X221285800Y-92198246D01*
X221344742Y-92231490D01*
X221932390Y-92819138D01*
X221966416Y-92881450D01*
X221969295Y-92908233D01*
X221969295Y-93770000D01*
X221969448Y-93773304D01*
X221970599Y-93798210D01*
X221993994Y-93880433D01*
X222001344Y-93906264D01*
X222069048Y-93995919D01*
X222164567Y-94055061D01*
X222275000Y-94075705D01*
X222275004Y-94075705D01*
X223424999Y-94075705D01*
X223425000Y-94075705D01*
X223518492Y-94061058D01*
X223518498Y-94061054D01*
X223528666Y-94057623D01*
X223529541Y-94060215D01*
X223583291Y-94048749D01*
X223603034Y-94053216D01*
X223603091Y-94052915D01*
X223614565Y-94055059D01*
X223614567Y-94055061D01*
X223725000Y-94075705D01*
X223725005Y-94075705D01*
X223726653Y-94076013D01*
X223789938Y-94108192D01*
X223825780Y-94169477D01*
X223829500Y-94199868D01*
X223829500Y-94589986D01*
X223809498Y-94658107D01*
X223755842Y-94704600D01*
X223718808Y-94715052D01*
X223687993Y-94718824D01*
X223651265Y-94723320D01*
X223549075Y-94769988D01*
X223549071Y-94769991D01*
X223470640Y-94850423D01*
X223470633Y-94850431D01*
X222970652Y-95600402D01*
X222959825Y-95617887D01*
X222922783Y-95723955D01*
X222922783Y-95723956D01*
X222926556Y-95836235D01*
X222970639Y-95939578D01*
X222970640Y-95939580D01*
X223470630Y-96689564D01*
X223470643Y-96689581D01*
X223502228Y-96726342D01*
X223519048Y-96745919D01*
X223614567Y-96805061D01*
X223725000Y-96825705D01*
X223725004Y-96825705D01*
X224724988Y-96825705D01*
X224725000Y-96825705D01*
X224753207Y-96824401D01*
X224861264Y-96793656D01*
X224950919Y-96725952D01*
X225010061Y-96630433D01*
X225030705Y-96520000D01*
X225030705Y-96321500D01*
X225050707Y-96253379D01*
X225104363Y-96206886D01*
X225156705Y-96195500D01*
X225391562Y-96195500D01*
X225459683Y-96215502D01*
X225480657Y-96232405D01*
X226451472Y-97203220D01*
X226546780Y-97298528D01*
X226568156Y-97309419D01*
X226585014Y-97319750D01*
X226604417Y-97333848D01*
X226604418Y-97333848D01*
X226604419Y-97333849D01*
X226627234Y-97341261D01*
X226645501Y-97348828D01*
X226666874Y-97359719D01*
X226690572Y-97363471D01*
X226709792Y-97368086D01*
X226732607Y-97375500D01*
X226766512Y-97375500D01*
X227523674Y-97375500D01*
X227591795Y-97395502D01*
X227638288Y-97449158D01*
X227648737Y-97491289D01*
X227649082Y-97491250D01*
X227649393Y-97493933D01*
X227649463Y-97494215D01*
X227649500Y-97494854D01*
X227652414Y-97519990D01*
X227652416Y-97519994D01*
X227697793Y-97622765D01*
X227777232Y-97702204D01*
X227777234Y-97702205D01*
X227777235Y-97702206D01*
X227880009Y-97747585D01*
X227905135Y-97750500D01*
X229848500Y-97750499D01*
X229916621Y-97770501D01*
X229963114Y-97824157D01*
X229974500Y-97876499D01*
X229974500Y-98023500D01*
X229954498Y-98091621D01*
X229900842Y-98138114D01*
X229848500Y-98149500D01*
X227905140Y-98149500D01*
X227905133Y-98149501D01*
X227880009Y-98152414D01*
X227880005Y-98152416D01*
X227777234Y-98197793D01*
X227697795Y-98277232D01*
X227697794Y-98277234D01*
X227652414Y-98380009D01*
X227649500Y-98405127D01*
X227649463Y-98405775D01*
X227649407Y-98405931D01*
X227649080Y-98408751D01*
X227648426Y-98408675D01*
X227625561Y-98472627D01*
X227569311Y-98515944D01*
X227523673Y-98524500D01*
X226981078Y-98524500D01*
X226912957Y-98504498D01*
X226891983Y-98487595D01*
X226229834Y-97825446D01*
X226205860Y-97801472D01*
X226205859Y-97801471D01*
X226205858Y-97801470D01*
X226184483Y-97790579D01*
X226167625Y-97780249D01*
X226154208Y-97770501D01*
X226148221Y-97766151D01*
X226148219Y-97766150D01*
X226148220Y-97766150D01*
X226125404Y-97758737D01*
X226107138Y-97751171D01*
X226095326Y-97745152D01*
X226085765Y-97740280D01*
X226062071Y-97736528D01*
X226042845Y-97731912D01*
X226020033Y-97724500D01*
X225986128Y-97724500D01*
X220825954Y-97724500D01*
X220757833Y-97704498D01*
X220736859Y-97687595D01*
X218683056Y-95633792D01*
X218649030Y-95571480D01*
X218654095Y-95500665D01*
X218668455Y-95473121D01*
X218687558Y-95445446D01*
X218715318Y-95405229D01*
X218775640Y-95246171D01*
X218796145Y-95077299D01*
X218793255Y-95053501D01*
X218775640Y-94908427D01*
X218715320Y-94749373D01*
X218715318Y-94749369D01*
X218618683Y-94609370D01*
X218618681Y-94609368D01*
X218491357Y-94496569D01*
X218491351Y-94496564D01*
X218340725Y-94417509D01*
X218340721Y-94417507D01*
X218175559Y-94376799D01*
X218175556Y-94376799D01*
X218005444Y-94376799D01*
X218005440Y-94376799D01*
X217840278Y-94417507D01*
X217840274Y-94417509D01*
X217689648Y-94496564D01*
X217689642Y-94496569D01*
X217562318Y-94609368D01*
X217562316Y-94609370D01*
X217465681Y-94749369D01*
X217465679Y-94749373D01*
X217405359Y-94908427D01*
X217384855Y-95077296D01*
X217384855Y-95077301D01*
X217405359Y-95246170D01*
X217465679Y-95405224D01*
X217465681Y-95405228D01*
X217561057Y-95543402D01*
X217562317Y-95545228D01*
X217622553Y-95598591D01*
X217660278Y-95658734D01*
X217665000Y-95692904D01*
X217665000Y-95710377D01*
X217672412Y-95733189D01*
X217677028Y-95752415D01*
X217680780Y-95776109D01*
X217691670Y-95797480D01*
X217699237Y-95815748D01*
X217706650Y-95838564D01*
X217720749Y-95857969D01*
X217731079Y-95874827D01*
X217741970Y-95896202D01*
X217741971Y-95896203D01*
X217741972Y-95896204D01*
X217765946Y-95920178D01*
X220248988Y-98403220D01*
X220344296Y-98498528D01*
X220365672Y-98509419D01*
X220382530Y-98519750D01*
X220401933Y-98533848D01*
X220401934Y-98533848D01*
X220401935Y-98533849D01*
X220424750Y-98541261D01*
X220443017Y-98548828D01*
X220464390Y-98559719D01*
X220488088Y-98563471D01*
X220507308Y-98568086D01*
X220530123Y-98575500D01*
X220564028Y-98575500D01*
X225724202Y-98575500D01*
X225792323Y-98595502D01*
X225813297Y-98612405D01*
X226404112Y-99203220D01*
X226499420Y-99298528D01*
X226520796Y-99309419D01*
X226537654Y-99319750D01*
X226557057Y-99333848D01*
X226557058Y-99333848D01*
X226557059Y-99333849D01*
X226579874Y-99341261D01*
X226598141Y-99348828D01*
X226619514Y-99359719D01*
X226643212Y-99363471D01*
X226662432Y-99368086D01*
X226685247Y-99375500D01*
X226719152Y-99375500D01*
X227523674Y-99375500D01*
X227591795Y-99395502D01*
X227638288Y-99449158D01*
X227648737Y-99491289D01*
X227649082Y-99491250D01*
X227649393Y-99493933D01*
X227649463Y-99494215D01*
X227649500Y-99494854D01*
X227652414Y-99519990D01*
X227652416Y-99519994D01*
X227697793Y-99622765D01*
X227777232Y-99702204D01*
X227777234Y-99702205D01*
X227777235Y-99702206D01*
X227847512Y-99733236D01*
X227901749Y-99779049D01*
X227922608Y-99846912D01*
X227903466Y-99915279D01*
X227850401Y-99962445D01*
X227796618Y-99974500D01*
X100151500Y-99974500D01*
X100083379Y-99954498D01*
X100036886Y-99900842D01*
X100025500Y-99848500D01*
X100025500Y-98672042D01*
X154554395Y-98672042D01*
X154574899Y-98840911D01*
X154635219Y-98999965D01*
X154635221Y-98999969D01*
X154635222Y-98999970D01*
X154731857Y-99139969D01*
X154859188Y-99252774D01*
X155009815Y-99331830D01*
X155009816Y-99331830D01*
X155009818Y-99331831D01*
X155138181Y-99363469D01*
X155174984Y-99372540D01*
X155174987Y-99372540D01*
X155345093Y-99372540D01*
X155345096Y-99372540D01*
X155510265Y-99331830D01*
X155660892Y-99252774D01*
X155788223Y-99139969D01*
X155884858Y-98999970D01*
X155945180Y-98840912D01*
X155965685Y-98672040D01*
X155950177Y-98544325D01*
X155945180Y-98503168D01*
X155884860Y-98344114D01*
X155884858Y-98344110D01*
X155788224Y-98204112D01*
X155781092Y-98197794D01*
X155730525Y-98152995D01*
X155692801Y-98092852D01*
X155688080Y-98058684D01*
X155688080Y-97407385D01*
X155708082Y-97339264D01*
X155730524Y-97313074D01*
X155790763Y-97259709D01*
X155887398Y-97119710D01*
X155947720Y-96960652D01*
X155961484Y-96847296D01*
X155968225Y-96791782D01*
X155968225Y-96791777D01*
X155947720Y-96622908D01*
X155887400Y-96463854D01*
X155887398Y-96463850D01*
X155790763Y-96323851D01*
X155790761Y-96323849D01*
X155663437Y-96211050D01*
X155663431Y-96211045D01*
X155512805Y-96131990D01*
X155512801Y-96131988D01*
X155347639Y-96091280D01*
X155347636Y-96091280D01*
X155177524Y-96091280D01*
X155177520Y-96091280D01*
X155012358Y-96131988D01*
X155012354Y-96131990D01*
X154861728Y-96211045D01*
X154861722Y-96211050D01*
X154734398Y-96323849D01*
X154734396Y-96323851D01*
X154637761Y-96463850D01*
X154637759Y-96463854D01*
X154577439Y-96622908D01*
X154556935Y-96791777D01*
X154556935Y-96791782D01*
X154577439Y-96960651D01*
X154637759Y-97119705D01*
X154637761Y-97119709D01*
X154649157Y-97136218D01*
X154734397Y-97259709D01*
X154794633Y-97313072D01*
X154832358Y-97373215D01*
X154837080Y-97407385D01*
X154837080Y-98054183D01*
X154817078Y-98122304D01*
X154794634Y-98148495D01*
X154731856Y-98204112D01*
X154635221Y-98344110D01*
X154635219Y-98344114D01*
X154574899Y-98503168D01*
X154554395Y-98672037D01*
X154554395Y-98672042D01*
X100025500Y-98672042D01*
X100025500Y-97057140D01*
X104788571Y-97057140D01*
X104808244Y-97269451D01*
X104866593Y-97474524D01*
X104866594Y-97474526D01*
X104866595Y-97474529D01*
X104961634Y-97665395D01*
X105082500Y-97825446D01*
X105090129Y-97835548D01*
X105247699Y-97979193D01*
X105247701Y-97979194D01*
X105428974Y-98091434D01*
X105428975Y-98091434D01*
X105428981Y-98091438D01*
X105627802Y-98168461D01*
X105837390Y-98207640D01*
X105837393Y-98207640D01*
X106050607Y-98207640D01*
X106050610Y-98207640D01*
X106260198Y-98168461D01*
X106459019Y-98091438D01*
X106640302Y-97979192D01*
X106797872Y-97835547D01*
X106926366Y-97665395D01*
X106987930Y-97541755D01*
X107036196Y-97489694D01*
X107104950Y-97471991D01*
X107172361Y-97494270D01*
X107216106Y-97547306D01*
X107285580Y-97705688D01*
X107408674Y-97894098D01*
X107561097Y-98059674D01*
X107738698Y-98197907D01*
X107738699Y-98197908D01*
X107936628Y-98305022D01*
X107936630Y-98305023D01*
X108149483Y-98378095D01*
X108149492Y-98378097D01*
X108230000Y-98391531D01*
X108230000Y-97490814D01*
X108341685Y-97541820D01*
X108448237Y-97557140D01*
X108519763Y-97557140D01*
X108626315Y-97541820D01*
X108738000Y-97490814D01*
X108738000Y-98391530D01*
X108818507Y-98378097D01*
X108818516Y-98378095D01*
X109031369Y-98305023D01*
X109031371Y-98305022D01*
X109229300Y-98197908D01*
X109229301Y-98197907D01*
X109406902Y-98059674D01*
X109559325Y-97894098D01*
X109682419Y-97705688D01*
X109772820Y-97499596D01*
X109772823Y-97499589D01*
X109820544Y-97311140D01*
X108915116Y-97311140D01*
X108943493Y-97266984D01*
X108984000Y-97129029D01*
X108984000Y-96985251D01*
X108943493Y-96847296D01*
X108915116Y-96803140D01*
X109820544Y-96803140D01*
X109820544Y-96803139D01*
X109772823Y-96614690D01*
X109772820Y-96614683D01*
X109682419Y-96408591D01*
X109559325Y-96220181D01*
X109406902Y-96054605D01*
X109229301Y-95916372D01*
X109229300Y-95916371D01*
X109031371Y-95809257D01*
X109031365Y-95809255D01*
X108987705Y-95794266D01*
X108929771Y-95753229D01*
X108903220Y-95687384D01*
X108916482Y-95617637D01*
X108965347Y-95566132D01*
X108983092Y-95557607D01*
X108999019Y-95551438D01*
X109180302Y-95439192D01*
X109337872Y-95295547D01*
X109466366Y-95125395D01*
X109552296Y-94952822D01*
X111054355Y-94952822D01*
X111074859Y-95121691D01*
X111135179Y-95280745D01*
X111135181Y-95280749D01*
X111231816Y-95420748D01*
X111231818Y-95420750D01*
X111344515Y-95520591D01*
X111359148Y-95533554D01*
X111509775Y-95612610D01*
X111509776Y-95612610D01*
X111509778Y-95612611D01*
X111605468Y-95636196D01*
X111674944Y-95653320D01*
X111674947Y-95653320D01*
X111806562Y-95653320D01*
X111874683Y-95673322D01*
X111895657Y-95690225D01*
X114040372Y-97834940D01*
X114135680Y-97930248D01*
X114157056Y-97941139D01*
X114173914Y-97951470D01*
X114193317Y-97965568D01*
X114193318Y-97965568D01*
X114193319Y-97965569D01*
X114216134Y-97972981D01*
X114234401Y-97980548D01*
X114255774Y-97991439D01*
X114279472Y-97995191D01*
X114298692Y-97999806D01*
X114321507Y-98007220D01*
X114321509Y-98007220D01*
X123444465Y-98007220D01*
X123444468Y-98007220D01*
X123544106Y-97991439D01*
X123664200Y-97930248D01*
X123759508Y-97834940D01*
X125864054Y-95730394D01*
X125888028Y-95706420D01*
X125898925Y-95685032D01*
X125909243Y-95668194D01*
X125923350Y-95648780D01*
X125929952Y-95628461D01*
X125930764Y-95625963D01*
X125938327Y-95607701D01*
X125949219Y-95586326D01*
X125952971Y-95562627D01*
X125957588Y-95543402D01*
X125964999Y-95520595D01*
X125965000Y-95520593D01*
X125965000Y-95500000D01*
X203694532Y-95500000D01*
X203714365Y-95726695D01*
X203773260Y-95946493D01*
X203773262Y-95946498D01*
X203869433Y-96152737D01*
X203999948Y-96339134D01*
X203999957Y-96339144D01*
X204160855Y-96500042D01*
X204160865Y-96500051D01*
X204347262Y-96630566D01*
X204347261Y-96630566D01*
X204420580Y-96664755D01*
X204553504Y-96726739D01*
X204773308Y-96785635D01*
X204943216Y-96800500D01*
X204943223Y-96800500D01*
X205056777Y-96800500D01*
X205056784Y-96800500D01*
X205226692Y-96785635D01*
X205446496Y-96726739D01*
X205652734Y-96630568D01*
X205665939Y-96621322D01*
X205839134Y-96500051D01*
X205839136Y-96500048D01*
X205839139Y-96500047D01*
X206000047Y-96339139D01*
X206010754Y-96323849D01*
X206130566Y-96152737D01*
X206130566Y-96152736D01*
X206130568Y-96152734D01*
X206226739Y-95946496D01*
X206285635Y-95726692D01*
X206305468Y-95500000D01*
X206285635Y-95273308D01*
X206285164Y-95271552D01*
X206247388Y-95130568D01*
X206226739Y-95053504D01*
X206130568Y-94847266D01*
X206130567Y-94847265D01*
X206130566Y-94847262D01*
X206000051Y-94660865D01*
X206000042Y-94660855D01*
X205839144Y-94499957D01*
X205839134Y-94499948D01*
X205652737Y-94369433D01*
X205652738Y-94369433D01*
X205446498Y-94273262D01*
X205446493Y-94273260D01*
X205226695Y-94214365D01*
X205175719Y-94209905D01*
X205056784Y-94199500D01*
X204943216Y-94199500D01*
X204835092Y-94208959D01*
X204773304Y-94214365D01*
X204553506Y-94273260D01*
X204553501Y-94273262D01*
X204347262Y-94369433D01*
X204160865Y-94499948D01*
X204160855Y-94499957D01*
X203999957Y-94660855D01*
X203999948Y-94660865D01*
X203869433Y-94847262D01*
X203773262Y-95053501D01*
X203773260Y-95053506D01*
X203714365Y-95273304D01*
X203694532Y-95500000D01*
X125965000Y-95500000D01*
X125965000Y-95385807D01*
X125965000Y-90650380D01*
X125985002Y-90582259D01*
X126038658Y-90535766D01*
X126091000Y-90524380D01*
X203959622Y-90524380D01*
X204027743Y-90544382D01*
X204048717Y-90561285D01*
X208124512Y-94637080D01*
X208219820Y-94732388D01*
X208224825Y-94734938D01*
X208241189Y-94743276D01*
X208258046Y-94753606D01*
X208277457Y-94767709D01*
X208277458Y-94767709D01*
X208277459Y-94767710D01*
X208300272Y-94775121D01*
X208318534Y-94782685D01*
X208339914Y-94793579D01*
X208363612Y-94797332D01*
X208382826Y-94801944D01*
X208405647Y-94809360D01*
X208439552Y-94809360D01*
X210827440Y-94809360D01*
X210895561Y-94829362D01*
X210915946Y-94846831D01*
X210916032Y-94846735D01*
X210921736Y-94851788D01*
X210921737Y-94851789D01*
X211049068Y-94964594D01*
X211199695Y-95043650D01*
X211199696Y-95043650D01*
X211199698Y-95043651D01*
X211336204Y-95077296D01*
X211364864Y-95084360D01*
X211364867Y-95084360D01*
X211534973Y-95084360D01*
X211534976Y-95084360D01*
X211700145Y-95043650D01*
X211850772Y-94964594D01*
X211978103Y-94851789D01*
X212074738Y-94711790D01*
X212135060Y-94552732D01*
X212143032Y-94487074D01*
X212155565Y-94383862D01*
X212155565Y-94383857D01*
X212135060Y-94214988D01*
X212074740Y-94055934D01*
X212074738Y-94055930D01*
X211978103Y-93915931D01*
X211978101Y-93915929D01*
X211850777Y-93803130D01*
X211850771Y-93803125D01*
X211700145Y-93724070D01*
X211700141Y-93724068D01*
X211534979Y-93683360D01*
X211534976Y-93683360D01*
X211364864Y-93683360D01*
X211364860Y-93683360D01*
X211199698Y-93724068D01*
X211199694Y-93724070D01*
X211049068Y-93803125D01*
X211049066Y-93803127D01*
X210916032Y-93920985D01*
X210915186Y-93920030D01*
X210861610Y-93953638D01*
X210827440Y-93958360D01*
X208701478Y-93958360D01*
X208633357Y-93938358D01*
X208612383Y-93921455D01*
X204465254Y-89774326D01*
X204441280Y-89750352D01*
X204441279Y-89750351D01*
X204441278Y-89750350D01*
X204419903Y-89739459D01*
X204403045Y-89729129D01*
X204399303Y-89726411D01*
X204383641Y-89715031D01*
X204383639Y-89715030D01*
X204383640Y-89715030D01*
X204360824Y-89707617D01*
X204342558Y-89700051D01*
X204334894Y-89696146D01*
X204321185Y-89689160D01*
X204297491Y-89685408D01*
X204278265Y-89680792D01*
X204255453Y-89673380D01*
X204221548Y-89673380D01*
X125582906Y-89673380D01*
X125563196Y-89671829D01*
X125539500Y-89668076D01*
X125506011Y-89673379D01*
X125506012Y-89673380D01*
X125406372Y-89689161D01*
X125286280Y-89750351D01*
X125190971Y-89845660D01*
X125140186Y-89945333D01*
X125129781Y-89965754D01*
X125111866Y-90078866D01*
X125108696Y-90098880D01*
X125112449Y-90122575D01*
X125114000Y-90142285D01*
X125114000Y-95224762D01*
X125093998Y-95292883D01*
X125077095Y-95313857D01*
X123271637Y-97119315D01*
X123209325Y-97153341D01*
X123182542Y-97156220D01*
X114617338Y-97156220D01*
X114549217Y-97136218D01*
X114528243Y-97119315D01*
X112497776Y-95088848D01*
X112463750Y-95026536D01*
X112461790Y-94984563D01*
X112464216Y-94964592D01*
X112465645Y-94952820D01*
X112463423Y-94934524D01*
X112445140Y-94783948D01*
X112384820Y-94624894D01*
X112384818Y-94624890D01*
X112288183Y-94484891D01*
X112288181Y-94484889D01*
X112160857Y-94372090D01*
X112160851Y-94372085D01*
X112010225Y-94293030D01*
X112010221Y-94293028D01*
X111845059Y-94252320D01*
X111845056Y-94252320D01*
X111674944Y-94252320D01*
X111674940Y-94252320D01*
X111509778Y-94293028D01*
X111509774Y-94293030D01*
X111359148Y-94372085D01*
X111359142Y-94372090D01*
X111231818Y-94484889D01*
X111231816Y-94484891D01*
X111135181Y-94624890D01*
X111135179Y-94624894D01*
X111074859Y-94783948D01*
X111054355Y-94952817D01*
X111054355Y-94952822D01*
X109552296Y-94952822D01*
X109561405Y-94934529D01*
X109619756Y-94729450D01*
X109639429Y-94517140D01*
X109619756Y-94304830D01*
X109561405Y-94099751D01*
X109466366Y-93908885D01*
X109337872Y-93738733D01*
X109321786Y-93724068D01*
X109180300Y-93595086D01*
X109180298Y-93595085D01*
X108999025Y-93482845D01*
X108999021Y-93482843D01*
X108999019Y-93482842D01*
X108800198Y-93405819D01*
X108613902Y-93370994D01*
X108550618Y-93338816D01*
X108514776Y-93277531D01*
X108517757Y-93206597D01*
X108558615Y-93148535D01*
X108613901Y-93123285D01*
X108800198Y-93088461D01*
X108999019Y-93011438D01*
X109180302Y-92899192D01*
X109337872Y-92755547D01*
X109466366Y-92585395D01*
X109561405Y-92394529D01*
X109619756Y-92189450D01*
X109639429Y-91977140D01*
X109619756Y-91764830D01*
X109561405Y-91559751D01*
X109466366Y-91368885D01*
X109337872Y-91198733D01*
X109337650Y-91198530D01*
X109180300Y-91055086D01*
X109180298Y-91055085D01*
X108999025Y-90942845D01*
X108999021Y-90942843D01*
X108999019Y-90942842D01*
X108876819Y-90895502D01*
X108800199Y-90865819D01*
X108747801Y-90856024D01*
X108590610Y-90826640D01*
X108377390Y-90826640D01*
X108252442Y-90849997D01*
X108167800Y-90865819D01*
X108013754Y-90925496D01*
X107968981Y-90942842D01*
X107968980Y-90942842D01*
X107968979Y-90942843D01*
X107968974Y-90942845D01*
X107787701Y-91055085D01*
X107787699Y-91055086D01*
X107630129Y-91198731D01*
X107591035Y-91250500D01*
X107501634Y-91368885D01*
X107436349Y-91499997D01*
X107406593Y-91559755D01*
X107348243Y-91764833D01*
X107345961Y-91789460D01*
X107319759Y-91855445D01*
X107262041Y-91896788D01*
X107191135Y-91900364D01*
X107129551Y-91865037D01*
X107096843Y-91802024D01*
X107094499Y-91777833D01*
X107094499Y-91082280D01*
X107094499Y-91082276D01*
X107091585Y-91057149D01*
X107046206Y-90954375D01*
X107046206Y-90954374D01*
X106966767Y-90874935D01*
X106966765Y-90874934D01*
X106863989Y-90829554D01*
X106863990Y-90829554D01*
X106838870Y-90826640D01*
X106838865Y-90826640D01*
X106495500Y-90826640D01*
X106427379Y-90806638D01*
X106380886Y-90752982D01*
X106369500Y-90700640D01*
X106369500Y-90522298D01*
X106389502Y-90454177D01*
X106406405Y-90433203D01*
X106585663Y-90253945D01*
X106647975Y-90219919D01*
X106674758Y-90217040D01*
X115753042Y-90217040D01*
X115821163Y-90237042D01*
X115842137Y-90253945D01*
X116146455Y-90558263D01*
X116180481Y-90620575D01*
X116183360Y-90647358D01*
X116183360Y-94487074D01*
X116163358Y-94555195D01*
X116140914Y-94581386D01*
X116080675Y-94634752D01*
X115984041Y-94774750D01*
X115984039Y-94774754D01*
X115923719Y-94933808D01*
X115903215Y-95102677D01*
X115903215Y-95102682D01*
X115923719Y-95271551D01*
X115984039Y-95430605D01*
X115984041Y-95430609D01*
X116080676Y-95570608D01*
X116080678Y-95570610D01*
X116190253Y-95667685D01*
X116208008Y-95683414D01*
X116358635Y-95762470D01*
X116358636Y-95762470D01*
X116358638Y-95762471D01*
X116487638Y-95794266D01*
X116523804Y-95803180D01*
X116523807Y-95803180D01*
X116693913Y-95803180D01*
X116693916Y-95803180D01*
X116859085Y-95762470D01*
X117009712Y-95683414D01*
X117137043Y-95570609D01*
X117233678Y-95430610D01*
X117294000Y-95271552D01*
X117311747Y-95125395D01*
X117314505Y-95102682D01*
X117314505Y-95102677D01*
X117294000Y-94933808D01*
X117233680Y-94774754D01*
X117233678Y-94774750D01*
X117137044Y-94634752D01*
X117125912Y-94624890D01*
X117076805Y-94581385D01*
X117039081Y-94521242D01*
X117034360Y-94487074D01*
X117034360Y-94000000D01*
X120694532Y-94000000D01*
X120714365Y-94226695D01*
X120773260Y-94446493D01*
X120773262Y-94446498D01*
X120869433Y-94652737D01*
X120999948Y-94839134D01*
X120999957Y-94839144D01*
X121160855Y-95000042D01*
X121160865Y-95000051D01*
X121347262Y-95130566D01*
X121347261Y-95130566D01*
X121420580Y-95164755D01*
X121553504Y-95226739D01*
X121773308Y-95285635D01*
X121943216Y-95300500D01*
X121943223Y-95300500D01*
X122056777Y-95300500D01*
X122056784Y-95300500D01*
X122226692Y-95285635D01*
X122446496Y-95226739D01*
X122652734Y-95130568D01*
X122660122Y-95125395D01*
X122839134Y-95000051D01*
X122839136Y-95000048D01*
X122839139Y-95000047D01*
X123000047Y-94839139D01*
X123020899Y-94809360D01*
X123130566Y-94652737D01*
X123130566Y-94652736D01*
X123130568Y-94652734D01*
X123226739Y-94446496D01*
X123285635Y-94226692D01*
X123305468Y-94000000D01*
X123285635Y-93773308D01*
X123226739Y-93553504D01*
X123130568Y-93347266D01*
X123130567Y-93347265D01*
X123130566Y-93347262D01*
X123000051Y-93160865D01*
X123000042Y-93160855D01*
X122839144Y-92999957D01*
X122839134Y-92999948D01*
X122652737Y-92869433D01*
X122652738Y-92869433D01*
X122446498Y-92773262D01*
X122446493Y-92773260D01*
X122226695Y-92714365D01*
X122175719Y-92709905D01*
X122056784Y-92699500D01*
X121943216Y-92699500D01*
X121835092Y-92708959D01*
X121773304Y-92714365D01*
X121553506Y-92773260D01*
X121553501Y-92773262D01*
X121347262Y-92869433D01*
X121160865Y-92999948D01*
X121160855Y-92999957D01*
X120999957Y-93160855D01*
X120999948Y-93160865D01*
X120869433Y-93347262D01*
X120773262Y-93553501D01*
X120773260Y-93553506D01*
X120714365Y-93773304D01*
X120694532Y-94000000D01*
X117034360Y-94000000D01*
X117034360Y-90351528D01*
X117034359Y-90351525D01*
X117026947Y-90328715D01*
X117022331Y-90309492D01*
X117018579Y-90285794D01*
X117007687Y-90264418D01*
X117000120Y-90246151D01*
X116992709Y-90223339D01*
X116978606Y-90203928D01*
X116968281Y-90187078D01*
X116957388Y-90165700D01*
X116862080Y-90070392D01*
X116258674Y-89466986D01*
X116234700Y-89443012D01*
X116234699Y-89443011D01*
X116234698Y-89443010D01*
X116213323Y-89432119D01*
X116196465Y-89421789D01*
X116192723Y-89419071D01*
X116177061Y-89407691D01*
X116177059Y-89407690D01*
X116177060Y-89407690D01*
X116154244Y-89400277D01*
X116135978Y-89392711D01*
X116128314Y-89388806D01*
X116114605Y-89381820D01*
X116090911Y-89378068D01*
X116071685Y-89373452D01*
X116048873Y-89366040D01*
X116014968Y-89366040D01*
X106513713Y-89366040D01*
X106378927Y-89366040D01*
X106378925Y-89366040D01*
X106356109Y-89373453D01*
X106336890Y-89378067D01*
X106313196Y-89381820D01*
X106313190Y-89381822D01*
X106291822Y-89392710D01*
X106273557Y-89400276D01*
X106250740Y-89407689D01*
X106250738Y-89407690D01*
X106231325Y-89421794D01*
X106214478Y-89432117D01*
X106193103Y-89443009D01*
X106193101Y-89443011D01*
X106193100Y-89443011D01*
X106193100Y-89443012D01*
X106169126Y-89466986D01*
X105690780Y-89945332D01*
X105663485Y-89972627D01*
X105595471Y-90040640D01*
X105595469Y-90040642D01*
X105584581Y-90062013D01*
X105574254Y-90078866D01*
X105560150Y-90098279D01*
X105560148Y-90098282D01*
X105552736Y-90121095D01*
X105545172Y-90139358D01*
X105534280Y-90160734D01*
X105530527Y-90184432D01*
X105525914Y-90203646D01*
X105518500Y-90226467D01*
X105518500Y-90226469D01*
X105518500Y-90700640D01*
X105498498Y-90768761D01*
X105444842Y-90815254D01*
X105392500Y-90826640D01*
X105049140Y-90826640D01*
X105049133Y-90826641D01*
X105024009Y-90829554D01*
X105024005Y-90829556D01*
X104921234Y-90874933D01*
X104841795Y-90954372D01*
X104841794Y-90954374D01*
X104796414Y-91057149D01*
X104793500Y-91082269D01*
X104793500Y-92871999D01*
X104793501Y-92872006D01*
X104796414Y-92897130D01*
X104796416Y-92897134D01*
X104841793Y-92999905D01*
X104921232Y-93079344D01*
X104921234Y-93079345D01*
X104921235Y-93079346D01*
X105024009Y-93124725D01*
X105049135Y-93127640D01*
X105756175Y-93127639D01*
X105824294Y-93147641D01*
X105870787Y-93201297D01*
X105880891Y-93271570D01*
X105851398Y-93336151D01*
X105791671Y-93374535D01*
X105779326Y-93377493D01*
X105627805Y-93405817D01*
X105471101Y-93466524D01*
X105428981Y-93482842D01*
X105428980Y-93482842D01*
X105428979Y-93482843D01*
X105428974Y-93482845D01*
X105247701Y-93595085D01*
X105247699Y-93595086D01*
X105090129Y-93738731D01*
X105041501Y-93803125D01*
X104961634Y-93908885D01*
X104888848Y-94055061D01*
X104866593Y-94099755D01*
X104808244Y-94304828D01*
X104788571Y-94517140D01*
X104808244Y-94729451D01*
X104866593Y-94934524D01*
X104866594Y-94934526D01*
X104866595Y-94934529D01*
X104961634Y-95125395D01*
X105072007Y-95271551D01*
X105090129Y-95295548D01*
X105247699Y-95439193D01*
X105247701Y-95439194D01*
X105428974Y-95551434D01*
X105428975Y-95551434D01*
X105428981Y-95551438D01*
X105627802Y-95628461D01*
X105814097Y-95663285D01*
X105877381Y-95695464D01*
X105913223Y-95756749D01*
X105910242Y-95827683D01*
X105869384Y-95885745D01*
X105814098Y-95910994D01*
X105701350Y-95932070D01*
X105627800Y-95945819D01*
X105473754Y-96005496D01*
X105428981Y-96022842D01*
X105428980Y-96022842D01*
X105428979Y-96022843D01*
X105428974Y-96022845D01*
X105247701Y-96135085D01*
X105247699Y-96135086D01*
X105090129Y-96278731D01*
X105056056Y-96323851D01*
X104961634Y-96448885D01*
X104923983Y-96524500D01*
X104866593Y-96639755D01*
X104808244Y-96844828D01*
X104788571Y-97057140D01*
X100025500Y-97057140D01*
X100025500Y-89151500D01*
X100045502Y-89083379D01*
X100099158Y-89036886D01*
X100151500Y-89025500D01*
X229848500Y-89025500D01*
X229916621Y-89045502D01*
G37*
G04 #@! TD.AperFunction*
M02*
