G04 #@! TF.GenerationSoftware,KiCad,Pcbnew,6.0.10-86aedd382b~118~ubuntu22.04.1*
G04 #@! TF.CreationDate,2023-01-18T19:19:55+01:00*
G04 #@! TF.ProjectId,IM72D128-Tube-PCB,494d3732-4431-4323-982d-547562652d50,rev?*
G04 #@! TF.SameCoordinates,Original*
G04 #@! TF.FileFunction,Copper,L1,Top*
G04 #@! TF.FilePolarity,Positive*
%FSLAX46Y46*%
G04 Gerber Fmt 4.6, Leading zero omitted, Abs format (unit mm)*
G04 Created by KiCad (PCBNEW 6.0.10-86aedd382b~118~ubuntu22.04.1) date 2023-01-18 19:19:55*
%MOMM*%
%LPD*%
G01*
G04 APERTURE LIST*
G04 Aperture macros list*
%AMRoundRect*
0 Rectangle with rounded corners*
0 $1 Rounding radius*
0 $2 $3 $4 $5 $6 $7 $8 $9 X,Y pos of 4 corners*
0 Add a 4 corners polygon primitive as box body*
4,1,4,$2,$3,$4,$5,$6,$7,$8,$9,$2,$3,0*
0 Add four circle primitives for the rounded corners*
1,1,$1+$1,$2,$3*
1,1,$1+$1,$4,$5*
1,1,$1+$1,$6,$7*
1,1,$1+$1,$8,$9*
0 Add four rect primitives between the rounded corners*
20,1,$1+$1,$2,$3,$4,$5,0*
20,1,$1+$1,$4,$5,$6,$7,0*
20,1,$1+$1,$6,$7,$8,$9,0*
20,1,$1+$1,$8,$9,$2,$3,0*%
G04 Aperture macros list end*
G04 #@! TA.AperFunction,ComponentPad*
%ADD10R,1.700000X1.700000*%
G04 #@! TD*
G04 #@! TA.AperFunction,ComponentPad*
%ADD11O,1.700000X1.700000*%
G04 #@! TD*
G04 #@! TA.AperFunction,SMDPad,CuDef*
%ADD12RoundRect,0.225000X0.225000X0.250000X-0.225000X0.250000X-0.225000X-0.250000X0.225000X-0.250000X0*%
G04 #@! TD*
G04 #@! TA.AperFunction,SMDPad,CuDef*
%ADD13RoundRect,0.225000X-0.250000X0.225000X-0.250000X-0.225000X0.250000X-0.225000X0.250000X0.225000X0*%
G04 #@! TD*
G04 #@! TA.AperFunction,SMDPad,CuDef*
%ADD14RoundRect,0.225000X-0.225000X-0.250000X0.225000X-0.250000X0.225000X0.250000X-0.225000X0.250000X0*%
G04 #@! TD*
G04 #@! TA.AperFunction,SMDPad,CuDef*
%ADD15RoundRect,0.200000X-0.200000X-0.275000X0.200000X-0.275000X0.200000X0.275000X-0.200000X0.275000X0*%
G04 #@! TD*
G04 #@! TA.AperFunction,SMDPad,CuDef*
%ADD16RoundRect,0.150000X-0.512500X-0.150000X0.512500X-0.150000X0.512500X0.150000X-0.512500X0.150000X0*%
G04 #@! TD*
G04 #@! TA.AperFunction,SMDPad,CuDef*
%ADD17C,0.304800*%
G04 #@! TD*
G04 #@! TA.AperFunction,SMDPad,CuDef*
%ADD18R,2.000000X1.000000*%
G04 #@! TD*
G04 #@! TA.AperFunction,SMDPad,CuDef*
%ADD19RoundRect,0.088500X-0.516500X-0.206500X0.516500X-0.206500X0.516500X0.206500X-0.516500X0.206500X0*%
G04 #@! TD*
G04 #@! TA.AperFunction,ViaPad*
%ADD20C,0.800000*%
G04 #@! TD*
G04 #@! TA.AperFunction,Conductor*
%ADD21C,0.500000*%
G04 #@! TD*
G04 #@! TA.AperFunction,Conductor*
%ADD22C,0.100000*%
G04 #@! TD*
G04 #@! TA.AperFunction,Conductor*
%ADD23C,0.250000*%
G04 #@! TD*
G04 #@! TA.AperFunction,Conductor*
%ADD24C,0.251000*%
G04 #@! TD*
G04 APERTURE END LIST*
D10*
X105944000Y-91977140D03*
D11*
X108484000Y-91977140D03*
X105944000Y-94517140D03*
X108484000Y-94517140D03*
X105944000Y-97057140D03*
X108484000Y-97057140D03*
D12*
X130335320Y-95506540D03*
X128785320Y-95506540D03*
D13*
X135757920Y-91421920D03*
X135757920Y-92971920D03*
X210154520Y-91488060D03*
X210154520Y-93038060D03*
X157988000Y-92681760D03*
X157988000Y-94231760D03*
D14*
X213428280Y-93774260D03*
X214978280Y-93774260D03*
D15*
X213383360Y-92115640D03*
X215033360Y-92115640D03*
D16*
X130299880Y-91391700D03*
X130299880Y-92341700D03*
X130299880Y-93291700D03*
X132574880Y-93291700D03*
X132574880Y-91391700D03*
D17*
X213490200Y-95154700D03*
X213890200Y-95154700D03*
X213490200Y-95554700D03*
X213890200Y-95554700D03*
X213490200Y-95954700D03*
X213890200Y-95954700D03*
X213490200Y-96354700D03*
X213890200Y-96354700D03*
D18*
X228950000Y-91400000D03*
X228950000Y-97600000D03*
D13*
X118785640Y-91589560D03*
X118785640Y-93139560D03*
X154813000Y-92620800D03*
X154813000Y-94170800D03*
D19*
X114033060Y-91579660D03*
X114033060Y-92529660D03*
X114033060Y-93479660D03*
X116543060Y-93479660D03*
X116543060Y-91579660D03*
X149948660Y-93395760D03*
X149948660Y-94345760D03*
X149948660Y-95295760D03*
X152458660Y-95295760D03*
X152458660Y-93395760D03*
X160337260Y-95770660D03*
X160337260Y-96720660D03*
X160337260Y-97670660D03*
X162847260Y-97670660D03*
X162847260Y-95770660D03*
D20*
X138473180Y-95295760D03*
X221200000Y-95740000D03*
X156317950Y-95332550D03*
X126979680Y-92351280D03*
X104140000Y-97790000D03*
X158056580Y-97680780D03*
X138473180Y-92991940D03*
X222198920Y-99128300D03*
X101600000Y-91440000D03*
X146893240Y-95295760D03*
X126979680Y-94851280D03*
X221200000Y-95740000D03*
X210157060Y-95206820D03*
X116608860Y-95102680D03*
X221380000Y-91500000D03*
X213412799Y-90850000D03*
X155262580Y-96791780D03*
X155260040Y-98672040D03*
X111760000Y-94952820D03*
X211449920Y-94383860D03*
X218090500Y-95077299D03*
D21*
X126904711Y-94921031D02*
X126918720Y-94907021D01*
X138473180Y-92991940D02*
X138473180Y-92991940D01*
X210157060Y-95206820D02*
X210157060Y-95206820D01*
X146893240Y-95295760D02*
X138473180Y-95295760D01*
D22*
X211783780Y-95952460D02*
X211783780Y-95954700D01*
D21*
X114038060Y-97046100D02*
X114035840Y-97048320D01*
X157927040Y-94183300D02*
X157988000Y-94244260D01*
D23*
X210154520Y-93050560D02*
X210629520Y-93050560D01*
D21*
X127000000Y-95437285D02*
X127000000Y-96951800D01*
X136240440Y-92991940D02*
X138473180Y-92991940D01*
X130327800Y-92351280D02*
X130337380Y-92341700D01*
D23*
X221200000Y-96573360D02*
X222226640Y-97600000D01*
D21*
X118818660Y-97048320D02*
X126894660Y-97057140D01*
D23*
X212356700Y-90100000D02*
X214962740Y-90100000D01*
D21*
X210154520Y-93050560D02*
X210154520Y-93488060D01*
X135757920Y-92984420D02*
X136232920Y-92984420D01*
X154813000Y-94183300D02*
X156301440Y-94188280D01*
X134406640Y-92329000D02*
X135062060Y-92984420D01*
X156317950Y-95332550D02*
X156317950Y-94204790D01*
X156317950Y-94204790D02*
X156301440Y-94188280D01*
X127490220Y-95506540D02*
X126904711Y-94921031D01*
X126979680Y-92351280D02*
X130327800Y-92351280D01*
X158056580Y-97680780D02*
X160332140Y-97680780D01*
X128772820Y-95981540D02*
X128772820Y-95506540D01*
X136232920Y-92984420D02*
X136240440Y-92991940D01*
X156301440Y-94188280D02*
X157927040Y-94183300D01*
X210157060Y-93490600D02*
X210157060Y-95206820D01*
D23*
X214990780Y-90100000D02*
X214990780Y-93774260D01*
D21*
X114038060Y-93479660D02*
X114038060Y-97046100D01*
X114035840Y-97048320D02*
X118818660Y-97048320D01*
X131367380Y-92341700D02*
X131380080Y-92329000D01*
D23*
X210629520Y-93050560D02*
X211861400Y-91818680D01*
X211861400Y-91818680D02*
X211861400Y-90454480D01*
D21*
X222226640Y-97600000D02*
X222198920Y-97627720D01*
X149953660Y-95295760D02*
X146893240Y-95295760D01*
X130317060Y-92362020D02*
X130337380Y-92341700D01*
X222198920Y-97627720D02*
X222198920Y-99128300D01*
X210154520Y-93488060D02*
X210157060Y-93490600D01*
X130337380Y-92341700D02*
X131367380Y-92341700D01*
X126979680Y-95416965D02*
X127000000Y-95437285D01*
D23*
X211489825Y-95954700D02*
X211783780Y-95954700D01*
X211861400Y-90454480D02*
X212356700Y-90100000D01*
D21*
X126979680Y-94851280D02*
X126979680Y-95416965D01*
X228950000Y-97600000D02*
X222226640Y-97600000D01*
X135062060Y-92984420D02*
X135757920Y-92984420D01*
D23*
X210157060Y-95206820D02*
X210722745Y-95206820D01*
D21*
X126894660Y-97057140D02*
X127000000Y-96951800D01*
X108484000Y-97057140D02*
X114035840Y-97048320D01*
X160332140Y-97680780D02*
X160342260Y-97670660D01*
X118785640Y-97015300D02*
X118818660Y-97048320D01*
D23*
X221200000Y-95740000D02*
X221200000Y-96573360D01*
X210722745Y-95206820D02*
X211489825Y-95954700D01*
D21*
X131380080Y-92329000D02*
X134406640Y-92329000D01*
D22*
X211783780Y-95952460D02*
X211786020Y-95954700D01*
D21*
X118785640Y-93152060D02*
X118785640Y-97015300D01*
D23*
X211786020Y-95954700D02*
X213490200Y-95954700D01*
D21*
X128772820Y-95506540D02*
X127490220Y-95506540D01*
X124876680Y-93291700D02*
X130337380Y-93291700D01*
X110464640Y-90040420D02*
X109377919Y-91127141D01*
X109377919Y-91127141D02*
X109333999Y-91127141D01*
X130337380Y-93291700D02*
X130337380Y-95496100D01*
X119903260Y-91577060D02*
X118785640Y-91577060D01*
D23*
X124856280Y-93271300D02*
X124876680Y-93291700D01*
D21*
X120088620Y-91391700D02*
X130337380Y-91391700D01*
X130323300Y-93277620D02*
X130337380Y-93291700D01*
X124805480Y-91442500D02*
X124856280Y-91391700D01*
X116540660Y-91577060D02*
X116538060Y-91579660D01*
X115798820Y-90040420D02*
X116538060Y-90779660D01*
X130337380Y-95496100D02*
X130347820Y-95506540D01*
X120088620Y-91391700D02*
X119903260Y-91577060D01*
X124856280Y-91391700D02*
X124856280Y-93271300D01*
X118785640Y-91577060D02*
X116540660Y-91577060D01*
X110464640Y-90040420D02*
X115798820Y-90040420D01*
X116538060Y-90779660D02*
X116538060Y-91579660D01*
X109333999Y-91127141D02*
X108484000Y-91977140D01*
D23*
X107442000Y-98612960D02*
X107229692Y-98400652D01*
X131056380Y-98612960D02*
X107442000Y-98612960D01*
X132671820Y-96997520D02*
X132542280Y-97119440D01*
X107243880Y-95750380D02*
X107243880Y-95737680D01*
X135315960Y-94345760D02*
X132542280Y-97119440D01*
X149953660Y-94345760D02*
X135315960Y-94345760D01*
X108484000Y-94517140D02*
X107634001Y-95367139D01*
X107634001Y-95367139D02*
X107627121Y-95367139D01*
X107627121Y-95367139D02*
X107243880Y-95750380D01*
X132542280Y-97119440D02*
X131056380Y-98612960D01*
X107229692Y-98400652D02*
X107243880Y-95750380D01*
X116608860Y-95102680D02*
X116608860Y-93550460D01*
X116608860Y-93550460D02*
X116538060Y-93479660D01*
X103008500Y-94517140D02*
X105944000Y-94517140D01*
X160342260Y-96720660D02*
X157553660Y-96720660D01*
X102290880Y-98798380D02*
X102720140Y-99227640D01*
X132816600Y-99227640D02*
X102720140Y-99227640D01*
X102290880Y-98534220D02*
X102290880Y-95234760D01*
X102290880Y-98534220D02*
X102290880Y-98798380D01*
X157553660Y-96720660D02*
X156606240Y-97708720D01*
X156606240Y-97708720D02*
X134335520Y-97708720D01*
X134335520Y-97708720D02*
X132816600Y-99227640D01*
X102290880Y-95234760D02*
X103008500Y-94517140D01*
X226300660Y-95676080D02*
X226300660Y-95676080D01*
D21*
X225856160Y-91400000D02*
X226300660Y-91400000D01*
X225846640Y-91409520D02*
X225846640Y-91387580D01*
X157927040Y-91442540D02*
X163083240Y-91442540D01*
D23*
X221380000Y-91500000D02*
X221380000Y-89540000D01*
D21*
X157988000Y-91503500D02*
X157988000Y-92669260D01*
X163083240Y-91442540D02*
X208828640Y-91442540D01*
X135740200Y-91391700D02*
X135757920Y-91409420D01*
X208828640Y-91442540D02*
X210154520Y-91442540D01*
D23*
X221380000Y-89540000D02*
X221340000Y-89500000D01*
D21*
X211696300Y-89500000D02*
X221340000Y-89500000D01*
X132537380Y-91391700D02*
X135740200Y-91391700D01*
X225846640Y-91409520D02*
X225856160Y-91400000D01*
X136266040Y-91442540D02*
X152493980Y-91442540D01*
D23*
X208828640Y-96326960D02*
X208933781Y-96432101D01*
D21*
X135757920Y-91409420D02*
X136232920Y-91409420D01*
D23*
X208828640Y-91442540D02*
X208828640Y-96326960D01*
D21*
X157927040Y-91442540D02*
X157988000Y-91503500D01*
X163083240Y-91442540D02*
X162842260Y-91683520D01*
X162842260Y-91683520D02*
X162842260Y-95770660D01*
X152493980Y-91442540D02*
X154109420Y-91442540D01*
D23*
X226300660Y-91400000D02*
X226300660Y-95676080D01*
D21*
X154813000Y-91503500D02*
X154813000Y-92608300D01*
X154109420Y-91442540D02*
X154873960Y-91442540D01*
X154873960Y-91442540D02*
X157927040Y-91442540D01*
X210154520Y-91038060D02*
X211696300Y-89500000D01*
D23*
X208933781Y-96432101D02*
X213661047Y-96432101D01*
D21*
X136232920Y-91409420D02*
X136266040Y-91442540D01*
X226300660Y-91400000D02*
X228950000Y-91400000D01*
X221340000Y-89500000D02*
X223890860Y-89500000D01*
D23*
X213661047Y-96432101D02*
X213890200Y-96432101D01*
D21*
X152453660Y-91482860D02*
X152493980Y-91442540D01*
X210154520Y-91475560D02*
X210154520Y-91038060D01*
X225846640Y-91387580D02*
X223934070Y-89500000D01*
X152453660Y-93395760D02*
X152453660Y-91482860D01*
X154873960Y-91442540D02*
X154813000Y-91503500D01*
D23*
X213412799Y-94925547D02*
X213412799Y-95077299D01*
X213412799Y-90850000D02*
X213412799Y-94925547D01*
X214796520Y-95954700D02*
X214800180Y-98191180D01*
X213890200Y-95954700D02*
X214796520Y-95954700D01*
X200731120Y-98191180D02*
X200068180Y-97678240D01*
X162842260Y-97670660D02*
X200068180Y-97678240D01*
D24*
X214800180Y-98191180D02*
X200731120Y-98191180D01*
D23*
X155260040Y-98672040D02*
X215887300Y-98672040D01*
D22*
X155262580Y-96791780D02*
X155262580Y-96791780D01*
D23*
X215887300Y-98672040D02*
X215887300Y-95590360D01*
X152453660Y-95295760D02*
X153766560Y-95295760D01*
D22*
X214788127Y-95552260D02*
X214785687Y-95554700D01*
D23*
X215887300Y-95552260D02*
X214788127Y-95552260D01*
D22*
X155260040Y-98672040D02*
X155260040Y-98672040D01*
D23*
X214785687Y-95554700D02*
X213890200Y-95554700D01*
X153766560Y-95295760D02*
X155262580Y-96791780D01*
D22*
X211449920Y-94383860D02*
X211449920Y-94383860D01*
X113338060Y-92529660D02*
X113332980Y-92524580D01*
D23*
X111760000Y-92539820D02*
X111760000Y-94952820D01*
X113332980Y-92524580D02*
X111744760Y-92524580D01*
X212620760Y-95554700D02*
X211449920Y-94383860D01*
D22*
X111744760Y-92524580D02*
X111760000Y-92539820D01*
X114038060Y-92529660D02*
X113338060Y-92529660D01*
D23*
X213490200Y-95554700D02*
X212620760Y-95554700D01*
X218090500Y-95077299D02*
X214119353Y-95077299D01*
X214119353Y-95077299D02*
X213967601Y-95077299D01*
G04 #@! TA.AperFunction,Conductor*
G36*
X110245161Y-89320502D02*
G01*
X110291654Y-89374158D01*
X110301758Y-89444432D01*
X110272264Y-89509012D01*
X110237746Y-89536912D01*
X110227365Y-89542619D01*
X110216727Y-89547831D01*
X110176785Y-89565115D01*
X110165099Y-89574578D01*
X110146515Y-89587065D01*
X110133332Y-89594313D01*
X110125218Y-89601317D01*
X110100682Y-89625853D01*
X110090881Y-89634678D01*
X110066248Y-89654626D01*
X110059570Y-89660034D01*
X110054596Y-89667033D01*
X110054595Y-89667034D01*
X110048674Y-89675366D01*
X110035064Y-89691471D01*
X109113480Y-90613056D01*
X109074426Y-90639597D01*
X109046144Y-90651836D01*
X109034458Y-90661299D01*
X109015874Y-90673786D01*
X109002691Y-90681034D01*
X108994577Y-90688038D01*
X108970041Y-90712574D01*
X108960240Y-90721399D01*
X108937284Y-90739989D01*
X108928929Y-90746755D01*
X108923956Y-90753753D01*
X108923951Y-90753758D01*
X108918031Y-90762089D01*
X108904420Y-90778195D01*
X108860753Y-90821862D01*
X108798441Y-90855888D01*
X108747077Y-90856346D01*
X108610442Y-90829168D01*
X108610440Y-90829168D01*
X108604775Y-90828041D01*
X108599000Y-90827965D01*
X108598996Y-90827965D01*
X108492976Y-90826577D01*
X108393346Y-90825273D01*
X108387649Y-90826252D01*
X108387648Y-90826252D01*
X108190650Y-90860102D01*
X108190649Y-90860102D01*
X108184953Y-90861081D01*
X107986575Y-90934267D01*
X107981614Y-90937219D01*
X107981613Y-90937219D01*
X107818863Y-91034045D01*
X107804856Y-91042378D01*
X107645881Y-91181795D01*
X107514976Y-91347848D01*
X107416523Y-91534976D01*
X107353820Y-91736913D01*
X107353141Y-91742650D01*
X107345627Y-91806135D01*
X107317756Y-91871432D01*
X107259008Y-91911296D01*
X107188034Y-91913070D01*
X107127367Y-91876191D01*
X107096269Y-91812367D01*
X107094500Y-91791325D01*
X107094500Y-91082494D01*
X107091382Y-91056294D01*
X107084006Y-91039687D01*
X107050663Y-90964622D01*
X107045939Y-90953987D01*
X107037531Y-90945593D01*
X106994294Y-90902432D01*
X106966713Y-90874899D01*
X106956076Y-90870196D01*
X106956074Y-90870195D01*
X106884709Y-90838645D01*
X106864327Y-90829634D01*
X106838646Y-90826640D01*
X105049354Y-90826640D01*
X105045650Y-90827081D01*
X105045647Y-90827081D01*
X105038254Y-90827961D01*
X105023154Y-90829758D01*
X105014514Y-90833596D01*
X105014513Y-90833596D01*
X104932117Y-90870195D01*
X104920847Y-90875201D01*
X104912628Y-90883434D01*
X104912627Y-90883435D01*
X104881142Y-90914975D01*
X104841759Y-90954427D01*
X104837056Y-90965064D01*
X104837055Y-90965066D01*
X104822236Y-90998587D01*
X104796494Y-91056813D01*
X104793500Y-91082494D01*
X104793500Y-92871786D01*
X104796618Y-92897986D01*
X104800456Y-92906626D01*
X104800456Y-92906627D01*
X104832981Y-92979852D01*
X104842061Y-93000293D01*
X104850294Y-93008512D01*
X104850295Y-93008513D01*
X104875821Y-93033994D01*
X104921287Y-93079381D01*
X104931924Y-93084084D01*
X104931926Y-93084085D01*
X104969382Y-93100644D01*
X105023673Y-93124646D01*
X105049354Y-93127640D01*
X105758988Y-93127640D01*
X105827109Y-93147642D01*
X105873602Y-93201298D01*
X105883706Y-93271572D01*
X105854212Y-93336152D01*
X105794486Y-93374536D01*
X105780327Y-93377820D01*
X105745529Y-93383799D01*
X105650650Y-93400102D01*
X105650649Y-93400102D01*
X105644953Y-93401081D01*
X105446575Y-93474267D01*
X105441614Y-93477219D01*
X105441613Y-93477219D01*
X105303891Y-93559155D01*
X105264856Y-93582378D01*
X105105881Y-93721795D01*
X104974976Y-93887848D01*
X104972284Y-93892964D01*
X104972283Y-93892966D01*
X104903181Y-94024307D01*
X104853762Y-94075280D01*
X104791673Y-94091640D01*
X102941107Y-94091640D01*
X102918290Y-94099054D01*
X102899071Y-94103668D01*
X102875374Y-94107421D01*
X102866537Y-94111924D01*
X102866536Y-94111924D01*
X102853998Y-94118312D01*
X102835737Y-94125876D01*
X102822353Y-94130225D01*
X102822350Y-94130227D01*
X102812919Y-94133291D01*
X102804896Y-94139120D01*
X102793509Y-94147393D01*
X102776663Y-94157717D01*
X102755280Y-94168612D01*
X101942352Y-94981540D01*
X101931457Y-95002923D01*
X101921133Y-95019769D01*
X101907031Y-95039179D01*
X101903967Y-95048610D01*
X101903965Y-95048613D01*
X101899616Y-95061997D01*
X101892052Y-95080258D01*
X101888230Y-95087760D01*
X101881161Y-95101634D01*
X101878080Y-95121086D01*
X101877408Y-95125330D01*
X101872794Y-95144550D01*
X101865380Y-95167367D01*
X101865380Y-98865773D01*
X101872794Y-98888590D01*
X101877408Y-98907809D01*
X101881161Y-98931506D01*
X101885664Y-98940343D01*
X101885664Y-98940344D01*
X101892052Y-98952882D01*
X101899616Y-98971143D01*
X101903965Y-98984527D01*
X101903967Y-98984530D01*
X101907031Y-98993961D01*
X101912860Y-99001984D01*
X101921133Y-99013371D01*
X101931457Y-99030217D01*
X101942352Y-99051600D01*
X102375157Y-99484405D01*
X102409183Y-99546717D01*
X102404118Y-99617532D01*
X102361571Y-99674368D01*
X102295051Y-99699179D01*
X102286062Y-99699500D01*
X100426500Y-99699500D01*
X100358379Y-99679498D01*
X100311886Y-99625842D01*
X100300500Y-99573500D01*
X100300500Y-89426500D01*
X100320502Y-89358379D01*
X100374158Y-89311886D01*
X100426500Y-89300500D01*
X110177040Y-89300500D01*
X110245161Y-89320502D01*
G37*
G04 #@! TD.AperFunction*
G04 #@! TA.AperFunction,Conductor*
G36*
X220896621Y-90070502D02*
G01*
X220943114Y-90124158D01*
X220954500Y-90176500D01*
X220954500Y-90884270D01*
X220934498Y-90952391D01*
X220911329Y-90979219D01*
X220899366Y-90989655D01*
X220855604Y-91027831D01*
X220835600Y-91056294D01*
X220772422Y-91146188D01*
X220758113Y-91166547D01*
X220696524Y-91324513D01*
X220695532Y-91332046D01*
X220695532Y-91332047D01*
X220675647Y-91483094D01*
X220674394Y-91492611D01*
X220692999Y-91661135D01*
X220716248Y-91724665D01*
X220741352Y-91793264D01*
X220751266Y-91820356D01*
X220755502Y-91826659D01*
X220755502Y-91826660D01*
X220766835Y-91843525D01*
X220845830Y-91961083D01*
X220851442Y-91966190D01*
X220851445Y-91966193D01*
X220965612Y-92070077D01*
X220965616Y-92070080D01*
X220971233Y-92075191D01*
X220977906Y-92078814D01*
X220977910Y-92078817D01*
X221113558Y-92152467D01*
X221113560Y-92152468D01*
X221120235Y-92156092D01*
X221127584Y-92158020D01*
X221276883Y-92197188D01*
X221276885Y-92197188D01*
X221284233Y-92199116D01*
X221370609Y-92200473D01*
X221446161Y-92201660D01*
X221446164Y-92201660D01*
X221453760Y-92201779D01*
X221461165Y-92200083D01*
X221461166Y-92200083D01*
X221547085Y-92180405D01*
X221619029Y-92163928D01*
X221770498Y-92087747D01*
X221862901Y-92008827D01*
X221893651Y-91982564D01*
X221893652Y-91982563D01*
X221899423Y-91977634D01*
X221998361Y-91839947D01*
X222003702Y-91826660D01*
X222058766Y-91689687D01*
X222058767Y-91689685D01*
X222061601Y-91682634D01*
X222073672Y-91597816D01*
X222084909Y-91518862D01*
X222084909Y-91518859D01*
X222085490Y-91514778D01*
X222085645Y-91500000D01*
X222083840Y-91485080D01*
X222077905Y-91436040D01*
X222065276Y-91331680D01*
X222005345Y-91173077D01*
X221938759Y-91076194D01*
X221913614Y-91039608D01*
X221913613Y-91039607D01*
X221909312Y-91033349D01*
X221847679Y-90978436D01*
X221810125Y-90918186D01*
X221805500Y-90884361D01*
X221805500Y-90176500D01*
X221825502Y-90108379D01*
X221879158Y-90061886D01*
X221931500Y-90050500D01*
X223656457Y-90050500D01*
X223724578Y-90070502D01*
X223744964Y-90086820D01*
X224031503Y-90369615D01*
X225354933Y-91675753D01*
X225370635Y-91697929D01*
X225371329Y-91697367D01*
X225371334Y-91697374D01*
X225371335Y-91697375D01*
X225376561Y-91703829D01*
X225377076Y-91704650D01*
X225380611Y-91712162D01*
X225391403Y-91724665D01*
X225422949Y-91761213D01*
X225425485Y-91764246D01*
X225460848Y-91807915D01*
X225460851Y-91807918D01*
X225466254Y-91814590D01*
X225473018Y-91819397D01*
X225473734Y-91820049D01*
X225479164Y-91826339D01*
X225486321Y-91831094D01*
X225533133Y-91862195D01*
X225536399Y-91864439D01*
X225582197Y-91896987D01*
X225582199Y-91896988D01*
X225589198Y-91901962D01*
X225597012Y-91904776D01*
X225597878Y-91905211D01*
X225604793Y-91909805D01*
X225624913Y-91916342D01*
X225666406Y-91929825D01*
X225670150Y-91931107D01*
X225723027Y-91950144D01*
X225723029Y-91950144D01*
X225731108Y-91953053D01*
X225739387Y-91953661D01*
X225740343Y-91953849D01*
X225748238Y-91956414D01*
X225756819Y-91956774D01*
X225765270Y-91958294D01*
X225764921Y-91960235D01*
X225821663Y-91979513D01*
X225865866Y-92035070D01*
X225875160Y-92082563D01*
X225875160Y-95632674D01*
X225873609Y-95652384D01*
X225869856Y-95676080D01*
X225871407Y-95685873D01*
X225875160Y-95709568D01*
X225888763Y-95795453D01*
X225890941Y-95809206D01*
X225952132Y-95929300D01*
X226047440Y-96024608D01*
X226167534Y-96085799D01*
X226177323Y-96087349D01*
X226177325Y-96087350D01*
X226290867Y-96105333D01*
X226300660Y-96106884D01*
X226334148Y-96101580D01*
X226351019Y-96098908D01*
X226362510Y-96097088D01*
X226423995Y-96087350D01*
X226423997Y-96087349D01*
X226433786Y-96085799D01*
X226553880Y-96024608D01*
X226649188Y-95929300D01*
X226710379Y-95809206D01*
X226712558Y-95795453D01*
X226726160Y-95709568D01*
X226729913Y-95685873D01*
X226731464Y-95676080D01*
X226727711Y-95652384D01*
X226726160Y-95632674D01*
X226726160Y-92076500D01*
X226746162Y-92008379D01*
X226799818Y-91961886D01*
X226852160Y-91950500D01*
X227561678Y-91950500D01*
X227629799Y-91970502D01*
X227676827Y-92025349D01*
X227698061Y-92073153D01*
X227706294Y-92081372D01*
X227706295Y-92081373D01*
X227726787Y-92101829D01*
X227777287Y-92152241D01*
X227787924Y-92156944D01*
X227787926Y-92156945D01*
X227840992Y-92180405D01*
X227879673Y-92197506D01*
X227905354Y-92200500D01*
X229573500Y-92200500D01*
X229641621Y-92220502D01*
X229688114Y-92274158D01*
X229699500Y-92326500D01*
X229699500Y-92523500D01*
X229679498Y-92591621D01*
X229625842Y-92638114D01*
X229573500Y-92649500D01*
X227552374Y-92649500D01*
X227540817Y-92648935D01*
X227529832Y-92645754D01*
X227492006Y-92649030D01*
X227481134Y-92649500D01*
X227472052Y-92649500D01*
X227466351Y-92650562D01*
X227466349Y-92650562D01*
X227465479Y-92650724D01*
X227453280Y-92652384D01*
X227429895Y-92654409D01*
X227429894Y-92654409D01*
X227418304Y-92655413D01*
X227407855Y-92660520D01*
X227404567Y-92661432D01*
X227401383Y-92662661D01*
X227389947Y-92664791D01*
X227360501Y-92682942D01*
X227360048Y-92683221D01*
X227349265Y-92689160D01*
X227317731Y-92704575D01*
X227309822Y-92713101D01*
X227307084Y-92715134D01*
X227304554Y-92717428D01*
X227294652Y-92723532D01*
X227287613Y-92732788D01*
X227287608Y-92732793D01*
X227273393Y-92751487D01*
X227265474Y-92760908D01*
X227260730Y-92766022D01*
X227241599Y-92786646D01*
X227237290Y-92797447D01*
X227235471Y-92800324D01*
X227233934Y-92803381D01*
X227226892Y-92812641D01*
X227223034Y-92825965D01*
X227217126Y-92846367D01*
X227213129Y-92858008D01*
X227200117Y-92890622D01*
X227199500Y-92896915D01*
X227199500Y-92899997D01*
X227199350Y-92903067D01*
X227199234Y-92903061D01*
X227198935Y-92909183D01*
X227195754Y-92920168D01*
X227196758Y-92931759D01*
X227199030Y-92957994D01*
X227199500Y-92968866D01*
X227199500Y-95997626D01*
X227198935Y-96009183D01*
X227195754Y-96020168D01*
X227199031Y-96058000D01*
X227199500Y-96068861D01*
X227199500Y-96077948D01*
X227200562Y-96083649D01*
X227200562Y-96083651D01*
X227200724Y-96084521D01*
X227202384Y-96096720D01*
X227202574Y-96098908D01*
X227205413Y-96131696D01*
X227210520Y-96142145D01*
X227211432Y-96145433D01*
X227212661Y-96148617D01*
X227214791Y-96160053D01*
X227232942Y-96189499D01*
X227233221Y-96189952D01*
X227239160Y-96200734D01*
X227254575Y-96232269D01*
X227263101Y-96240178D01*
X227265134Y-96242916D01*
X227267428Y-96245446D01*
X227273532Y-96255348D01*
X227282788Y-96262387D01*
X227282793Y-96262392D01*
X227301487Y-96276607D01*
X227310908Y-96284526D01*
X227336646Y-96308401D01*
X227347447Y-96312710D01*
X227350324Y-96314529D01*
X227353381Y-96316066D01*
X227362641Y-96323108D01*
X227391235Y-96331388D01*
X227396367Y-96332874D01*
X227408008Y-96336871D01*
X227440622Y-96349883D01*
X227446915Y-96350500D01*
X227449997Y-96350500D01*
X227453067Y-96350650D01*
X227453061Y-96350766D01*
X227459183Y-96351065D01*
X227470168Y-96354246D01*
X227507994Y-96350970D01*
X227518866Y-96350500D01*
X227813506Y-96350500D01*
X227881627Y-96370502D01*
X227928120Y-96424158D01*
X227938224Y-96494432D01*
X227908730Y-96559012D01*
X227842650Y-96599083D01*
X227832397Y-96601521D01*
X227711946Y-96646676D01*
X227696351Y-96655214D01*
X227594276Y-96731715D01*
X227581715Y-96744276D01*
X227505214Y-96846351D01*
X227496676Y-96861946D01*
X227451522Y-96982394D01*
X227447895Y-96997649D01*
X227442369Y-97048514D01*
X227442000Y-97055328D01*
X227442000Y-97327885D01*
X227446475Y-97343124D01*
X227447865Y-97344329D01*
X227455548Y-97346000D01*
X229078000Y-97346000D01*
X229146121Y-97366002D01*
X229192614Y-97419658D01*
X229204000Y-97472000D01*
X229204000Y-98589884D01*
X229208475Y-98605123D01*
X229209865Y-98606328D01*
X229217548Y-98607999D01*
X229573500Y-98607999D01*
X229641621Y-98628001D01*
X229688114Y-98681657D01*
X229699500Y-98733999D01*
X229699500Y-99573500D01*
X229679498Y-99641621D01*
X229625842Y-99688114D01*
X229573500Y-99699500D01*
X133250678Y-99699500D01*
X133182557Y-99679498D01*
X133136064Y-99625842D01*
X133125960Y-99555568D01*
X133155454Y-99490988D01*
X133161583Y-99484405D01*
X134474863Y-98171125D01*
X134537175Y-98137099D01*
X134563958Y-98134220D01*
X154539224Y-98134220D01*
X154607345Y-98154222D01*
X154653838Y-98207878D01*
X154663942Y-98278152D01*
X154645266Y-98325224D01*
X154646111Y-98325677D01*
X154642523Y-98332370D01*
X154638153Y-98338587D01*
X154576564Y-98496553D01*
X154575572Y-98504086D01*
X154575572Y-98504087D01*
X154556581Y-98648345D01*
X154554434Y-98664651D01*
X154573039Y-98833175D01*
X154605439Y-98921712D01*
X154612258Y-98940344D01*
X154631306Y-98992396D01*
X154635542Y-98998699D01*
X154635542Y-98998700D01*
X154650237Y-99020568D01*
X154725870Y-99133123D01*
X154731482Y-99138230D01*
X154731485Y-99138233D01*
X154845652Y-99242117D01*
X154845656Y-99242120D01*
X154851273Y-99247231D01*
X154857946Y-99250854D01*
X154857950Y-99250857D01*
X154993598Y-99324507D01*
X154993600Y-99324508D01*
X155000275Y-99328132D01*
X155007624Y-99330060D01*
X155156923Y-99369228D01*
X155156925Y-99369228D01*
X155164273Y-99371156D01*
X155250649Y-99372513D01*
X155326201Y-99373700D01*
X155326204Y-99373700D01*
X155333800Y-99373819D01*
X155341205Y-99372123D01*
X155341206Y-99372123D01*
X155401626Y-99358285D01*
X155499069Y-99335968D01*
X155650538Y-99259787D01*
X155779463Y-99149674D01*
X155783894Y-99143507D01*
X155788724Y-99138255D01*
X155849556Y-99101649D01*
X155881473Y-99097540D01*
X215843894Y-99097540D01*
X215863604Y-99099091D01*
X215887300Y-99102844D01*
X215910996Y-99099091D01*
X215920788Y-99097540D01*
X216010635Y-99083310D01*
X216010637Y-99083309D01*
X216020426Y-99081759D01*
X216140520Y-99020568D01*
X216235828Y-98925260D01*
X216297019Y-98805166D01*
X216300667Y-98782138D01*
X216316553Y-98681833D01*
X216318104Y-98672040D01*
X216314351Y-98648344D01*
X216312800Y-98628634D01*
X216312800Y-98144669D01*
X227442001Y-98144669D01*
X227442371Y-98151490D01*
X227447895Y-98202352D01*
X227451521Y-98217604D01*
X227496676Y-98338054D01*
X227505214Y-98353649D01*
X227581715Y-98455724D01*
X227594276Y-98468285D01*
X227696351Y-98544786D01*
X227711946Y-98553324D01*
X227832394Y-98598478D01*
X227847649Y-98602105D01*
X227898514Y-98607631D01*
X227905328Y-98608000D01*
X228677885Y-98608000D01*
X228693124Y-98603525D01*
X228694329Y-98602135D01*
X228696000Y-98594452D01*
X228696000Y-97872115D01*
X228691525Y-97856876D01*
X228690135Y-97855671D01*
X228682452Y-97854000D01*
X227460116Y-97854000D01*
X227444877Y-97858475D01*
X227443672Y-97859865D01*
X227442001Y-97867548D01*
X227442001Y-98144669D01*
X216312800Y-98144669D01*
X216312800Y-95628799D01*
X216332802Y-95560678D01*
X216386458Y-95514185D01*
X216438800Y-95502799D01*
X217469134Y-95502799D01*
X217537255Y-95522801D01*
X217555831Y-95538930D01*
X217556330Y-95538382D01*
X217676112Y-95647376D01*
X217676116Y-95647379D01*
X217681733Y-95652490D01*
X217688406Y-95656113D01*
X217688410Y-95656116D01*
X217824058Y-95729766D01*
X217824060Y-95729767D01*
X217830735Y-95733391D01*
X217838084Y-95735319D01*
X217987383Y-95774487D01*
X217987385Y-95774487D01*
X217994733Y-95776415D01*
X218081109Y-95777772D01*
X218156661Y-95778959D01*
X218156664Y-95778959D01*
X218164260Y-95779078D01*
X218171665Y-95777382D01*
X218171666Y-95777382D01*
X218244504Y-95760700D01*
X218329529Y-95741227D01*
X218480998Y-95665046D01*
X218562168Y-95595720D01*
X218604151Y-95559863D01*
X218604152Y-95559862D01*
X218609923Y-95554933D01*
X218708861Y-95417246D01*
X218711694Y-95410199D01*
X218769266Y-95266986D01*
X218769267Y-95266984D01*
X218772101Y-95259933D01*
X218784042Y-95176028D01*
X218795409Y-95096161D01*
X218795409Y-95096158D01*
X218795990Y-95092077D01*
X218796084Y-95083095D01*
X218796102Y-95081434D01*
X218796102Y-95081428D01*
X218796145Y-95077299D01*
X218793888Y-95058644D01*
X218790260Y-95028667D01*
X218775776Y-94908979D01*
X218715845Y-94750376D01*
X218694410Y-94719188D01*
X218624114Y-94616907D01*
X218624113Y-94616906D01*
X218619812Y-94610648D01*
X218608778Y-94600817D01*
X218498892Y-94502911D01*
X218498888Y-94502909D01*
X218493221Y-94497859D01*
X218472790Y-94487041D01*
X218398587Y-94447753D01*
X218343381Y-94418523D01*
X218178941Y-94377218D01*
X218171343Y-94377178D01*
X218171341Y-94377178D01*
X218094168Y-94376774D01*
X218009395Y-94376330D01*
X218002008Y-94378104D01*
X218002004Y-94378104D01*
X217879103Y-94407611D01*
X217844532Y-94415911D01*
X217837788Y-94419392D01*
X217837785Y-94419393D01*
X217703630Y-94488636D01*
X217693869Y-94493674D01*
X217688147Y-94498666D01*
X217688145Y-94498667D01*
X217571832Y-94600133D01*
X217566104Y-94605130D01*
X217562418Y-94610375D01*
X217502405Y-94647348D01*
X217469213Y-94651799D01*
X215903238Y-94651799D01*
X215835117Y-94631797D01*
X215788624Y-94578141D01*
X215778520Y-94507867D01*
X215795978Y-94459683D01*
X215868284Y-94342380D01*
X215874431Y-94329199D01*
X215923771Y-94180446D01*
X215926638Y-94167070D01*
X215935952Y-94076163D01*
X215936280Y-94069746D01*
X215936280Y-94046375D01*
X215931805Y-94031136D01*
X215930415Y-94029931D01*
X215922732Y-94028260D01*
X214850280Y-94028260D01*
X214782159Y-94008258D01*
X214735666Y-93954602D01*
X214724280Y-93902260D01*
X214724280Y-93502145D01*
X215232280Y-93502145D01*
X215236755Y-93517384D01*
X215238145Y-93518589D01*
X215245828Y-93520260D01*
X215918165Y-93520260D01*
X215933404Y-93515785D01*
X215934609Y-93514395D01*
X215936280Y-93506712D01*
X215936280Y-93478822D01*
X215935943Y-93472307D01*
X215926386Y-93380203D01*
X215923492Y-93366804D01*
X215873899Y-93218153D01*
X215867725Y-93204974D01*
X215785491Y-93072086D01*
X215776456Y-93060686D01*
X215759699Y-93043958D01*
X215725620Y-92981675D01*
X215730623Y-92910855D01*
X215759622Y-92865690D01*
X215789229Y-92836083D01*
X215798536Y-92824214D01*
X215879439Y-92690628D01*
X215885645Y-92676883D01*
X215932616Y-92526996D01*
X215935229Y-92513946D01*
X215941094Y-92450119D01*
X215941360Y-92444331D01*
X215941360Y-92387755D01*
X215936885Y-92372516D01*
X215935495Y-92371311D01*
X215927812Y-92369640D01*
X215305475Y-92369640D01*
X215290236Y-92374115D01*
X215289031Y-92375505D01*
X215287360Y-92383188D01*
X215287360Y-93035872D01*
X215267358Y-93103993D01*
X215256585Y-93118384D01*
X215233951Y-93144505D01*
X215232280Y-93152188D01*
X215232280Y-93502145D01*
X214724280Y-93502145D01*
X214724280Y-92854028D01*
X214744282Y-92785907D01*
X214755055Y-92771516D01*
X214777689Y-92745395D01*
X214779360Y-92737712D01*
X214779360Y-91843525D01*
X215287360Y-91843525D01*
X215291835Y-91858764D01*
X215293225Y-91859969D01*
X215300908Y-91861640D01*
X215923244Y-91861640D01*
X215938483Y-91857165D01*
X215939688Y-91855775D01*
X215941359Y-91848092D01*
X215941359Y-91786935D01*
X215941096Y-91781186D01*
X215935228Y-91717325D01*
X215932617Y-91704289D01*
X215885645Y-91554397D01*
X215879439Y-91540652D01*
X215798536Y-91407066D01*
X215789229Y-91395197D01*
X215678803Y-91284771D01*
X215666934Y-91275464D01*
X215533348Y-91194561D01*
X215519603Y-91188355D01*
X215369716Y-91141384D01*
X215356666Y-91138771D01*
X215301774Y-91133727D01*
X215290236Y-91137115D01*
X215289031Y-91138505D01*
X215287360Y-91146188D01*
X215287360Y-91843525D01*
X214779360Y-91843525D01*
X214779360Y-91150756D01*
X214774885Y-91135517D01*
X214773495Y-91134312D01*
X214769066Y-91133349D01*
X214710045Y-91138772D01*
X214697009Y-91141383D01*
X214547117Y-91188355D01*
X214533372Y-91194561D01*
X214399786Y-91275464D01*
X214387917Y-91284771D01*
X214277491Y-91395197D01*
X214268184Y-91407066D01*
X214193126Y-91531000D01*
X214140728Y-91578906D01*
X214070748Y-91590879D01*
X214005404Y-91563117D01*
X213984524Y-91541293D01*
X213946288Y-91490275D01*
X213940906Y-91483094D01*
X213941783Y-91482437D01*
X213911766Y-91427467D01*
X213916831Y-91356652D01*
X213932564Y-91327158D01*
X213986963Y-91251454D01*
X214031160Y-91189947D01*
X214039036Y-91170356D01*
X214091565Y-91039687D01*
X214091566Y-91039685D01*
X214094400Y-91032634D01*
X214107979Y-90937219D01*
X214117708Y-90868862D01*
X214117708Y-90868859D01*
X214118289Y-90864778D01*
X214118376Y-90856494D01*
X214118401Y-90854135D01*
X214118401Y-90854129D01*
X214118444Y-90850000D01*
X214117312Y-90840641D01*
X214108563Y-90768346D01*
X214098075Y-90681680D01*
X214038144Y-90523077D01*
X214008620Y-90480119D01*
X213946413Y-90389608D01*
X213946412Y-90389607D01*
X213942111Y-90383349D01*
X213926697Y-90369615D01*
X213815538Y-90270576D01*
X213777982Y-90210326D01*
X213778962Y-90139336D01*
X213818167Y-90080145D01*
X213883149Y-90051547D01*
X213899357Y-90050500D01*
X220828500Y-90050500D01*
X220896621Y-90070502D01*
G37*
G04 #@! TD.AperFunction*
G04 #@! TA.AperFunction,Conductor*
G36*
X210880226Y-89320502D02*
G01*
X210926719Y-89374158D01*
X210936823Y-89444432D01*
X210907329Y-89509012D01*
X210901099Y-89515697D01*
X210328593Y-90086821D01*
X209776087Y-90637994D01*
X209772386Y-90641539D01*
X209756339Y-90656295D01*
X209726364Y-90683859D01*
X209708560Y-90712574D01*
X209703651Y-90720492D01*
X209696834Y-90730397D01*
X209675939Y-90757855D01*
X209675934Y-90757863D01*
X209670738Y-90764692D01*
X209668680Y-90769871D01*
X209636495Y-90806723D01*
X209557870Y-90866404D01*
X209491518Y-90891656D01*
X209481692Y-90892040D01*
X163098233Y-90892040D01*
X163092957Y-90891929D01*
X163086443Y-90891656D01*
X163030946Y-90889330D01*
X163022583Y-90891292D01*
X163020579Y-90891481D01*
X163008723Y-90892040D01*
X157962823Y-90892040D01*
X157949653Y-90891350D01*
X157939424Y-90890275D01*
X157909586Y-90887139D01*
X157901121Y-90888571D01*
X157901112Y-90888571D01*
X157891040Y-90890275D01*
X157870027Y-90892040D01*
X154888953Y-90892040D01*
X154883677Y-90891929D01*
X154877163Y-90891656D01*
X154821666Y-90889330D01*
X154813303Y-90891292D01*
X154811299Y-90891481D01*
X154799443Y-90892040D01*
X152508973Y-90892040D01*
X152503697Y-90891929D01*
X152497183Y-90891656D01*
X152441686Y-90889330D01*
X152433323Y-90891292D01*
X152431319Y-90891481D01*
X152419463Y-90892040D01*
X136498828Y-90892040D01*
X136430707Y-90872038D01*
X136398466Y-90842220D01*
X136388190Y-90828682D01*
X136382998Y-90821842D01*
X136374725Y-90815562D01*
X136343716Y-90792025D01*
X136268315Y-90734792D01*
X136134448Y-90681791D01*
X136048749Y-90671420D01*
X135758112Y-90671420D01*
X135467092Y-90671421D01*
X135463335Y-90671876D01*
X135463329Y-90671876D01*
X135393794Y-90680290D01*
X135381392Y-90681791D01*
X135373869Y-90684769D01*
X135373867Y-90684770D01*
X135357733Y-90691158D01*
X135247525Y-90734792D01*
X135172844Y-90791479D01*
X135141116Y-90815562D01*
X135074763Y-90840816D01*
X135064936Y-90841200D01*
X133328122Y-90841200D01*
X133286374Y-90834083D01*
X133284988Y-90833596D01*
X133172749Y-90794181D01*
X133165103Y-90793458D01*
X133165102Y-90793458D01*
X133159132Y-90792894D01*
X133141214Y-90791200D01*
X132008546Y-90791200D01*
X131990628Y-90792894D01*
X131984658Y-90793458D01*
X131984657Y-90793458D01*
X131977011Y-90794181D01*
X131849196Y-90839066D01*
X131841626Y-90844658D01*
X131841623Y-90844659D01*
X131777475Y-90892040D01*
X131740230Y-90919550D01*
X131734638Y-90927121D01*
X131665339Y-91020943D01*
X131665338Y-91020946D01*
X131659746Y-91028516D01*
X131614861Y-91156331D01*
X131611880Y-91187866D01*
X131611880Y-91595534D01*
X131614861Y-91627069D01*
X131659746Y-91754884D01*
X131665338Y-91762454D01*
X131665339Y-91762457D01*
X131710716Y-91823892D01*
X131740230Y-91863850D01*
X131747801Y-91869442D01*
X131841623Y-91938741D01*
X131841626Y-91938742D01*
X131849196Y-91944334D01*
X131977011Y-91989219D01*
X131984657Y-91989942D01*
X131984658Y-91989942D01*
X131990628Y-91990506D01*
X132008546Y-91992200D01*
X133141214Y-91992200D01*
X133159132Y-91990506D01*
X133165102Y-91989942D01*
X133165103Y-91989942D01*
X133172749Y-91989219D01*
X133286375Y-91949317D01*
X133328122Y-91942200D01*
X134974659Y-91942200D01*
X135042780Y-91962202D01*
X135089273Y-92015858D01*
X135099377Y-92086132D01*
X135069883Y-92150712D01*
X135052922Y-92166947D01*
X135044346Y-92173744D01*
X134933934Y-92284349D01*
X134924922Y-92295760D01*
X134842916Y-92428800D01*
X134836769Y-92441981D01*
X134787429Y-92590734D01*
X134784562Y-92604110D01*
X134775248Y-92695017D01*
X134774991Y-92700046D01*
X134779395Y-92715044D01*
X134780785Y-92716249D01*
X134788468Y-92717920D01*
X136722805Y-92717920D01*
X136738044Y-92713445D01*
X136739249Y-92712055D01*
X136740920Y-92704372D01*
X136740920Y-92701482D01*
X136740583Y-92694967D01*
X136731026Y-92602863D01*
X136728132Y-92589464D01*
X136678539Y-92440813D01*
X136672365Y-92427634D01*
X136590132Y-92294747D01*
X136581096Y-92283346D01*
X136505832Y-92208213D01*
X136471753Y-92145930D01*
X136476756Y-92075110D01*
X136519253Y-92018238D01*
X136585752Y-91993369D01*
X136594850Y-91993040D01*
X151777160Y-91993040D01*
X151845281Y-92013042D01*
X151891774Y-92066698D01*
X151903160Y-92119040D01*
X151903160Y-92697901D01*
X151883158Y-92766022D01*
X151829502Y-92812515D01*
X151826302Y-92813761D01*
X151820454Y-92814687D01*
X151811621Y-92819188D01*
X151811617Y-92819189D01*
X151758278Y-92846367D01*
X151710661Y-92870629D01*
X151623529Y-92957761D01*
X151602082Y-92999853D01*
X151579310Y-93044547D01*
X151567587Y-93067554D01*
X151553160Y-93158644D01*
X151553160Y-93632876D01*
X151567587Y-93723966D01*
X151623529Y-93833759D01*
X151710661Y-93920891D01*
X151719493Y-93925391D01*
X151810763Y-93971895D01*
X151820454Y-93976833D01*
X151911544Y-93991260D01*
X153005776Y-93991260D01*
X153096866Y-93976833D01*
X153106558Y-93971895D01*
X153197827Y-93925391D01*
X153206659Y-93920891D01*
X153293791Y-93833759D01*
X153349733Y-93723966D01*
X153364160Y-93632876D01*
X153364160Y-93158644D01*
X153349733Y-93067554D01*
X153338011Y-93044547D01*
X153315238Y-92999853D01*
X153293791Y-92957761D01*
X153206659Y-92870629D01*
X153121269Y-92827121D01*
X153105702Y-92819189D01*
X153105701Y-92819189D01*
X153096866Y-92814687D01*
X153089908Y-92813585D01*
X153032620Y-92774413D01*
X153004982Y-92709017D01*
X153004160Y-92694652D01*
X153004160Y-92119040D01*
X153024162Y-92050919D01*
X153077818Y-92004426D01*
X153130160Y-91993040D01*
X153971835Y-91993040D01*
X154039956Y-92013042D01*
X154086449Y-92066698D01*
X154096553Y-92136972D01*
X154088987Y-92165423D01*
X154075099Y-92200500D01*
X154047871Y-92269272D01*
X154037500Y-92354971D01*
X154037501Y-92886628D01*
X154037956Y-92890385D01*
X154037956Y-92890391D01*
X154042962Y-92931759D01*
X154047871Y-92972328D01*
X154050849Y-92979851D01*
X154050850Y-92979853D01*
X154076231Y-93043958D01*
X154100872Y-93106195D01*
X154153194Y-93175125D01*
X154178446Y-93241478D01*
X154163818Y-93310951D01*
X154119133Y-93358448D01*
X154110827Y-93363588D01*
X154099426Y-93372624D01*
X153989014Y-93483229D01*
X153980002Y-93494640D01*
X153897996Y-93627680D01*
X153891849Y-93640861D01*
X153842509Y-93789614D01*
X153839642Y-93802990D01*
X153830328Y-93893897D01*
X153830071Y-93898926D01*
X153834475Y-93913924D01*
X153835865Y-93915129D01*
X153843548Y-93916800D01*
X155777885Y-93916800D01*
X155793124Y-93912325D01*
X155794329Y-93910935D01*
X155796000Y-93903252D01*
X155796000Y-93900362D01*
X155795663Y-93893847D01*
X155786106Y-93801743D01*
X155783212Y-93788344D01*
X155733619Y-93639693D01*
X155727445Y-93626514D01*
X155645212Y-93493627D01*
X155636176Y-93482226D01*
X155525571Y-93371814D01*
X155514160Y-93362802D01*
X155507127Y-93358467D01*
X155459634Y-93305695D01*
X155448210Y-93235624D01*
X155472881Y-93175027D01*
X155483341Y-93161247D01*
X155525128Y-93106195D01*
X155578129Y-92972328D01*
X155588500Y-92886629D01*
X155588499Y-92354972D01*
X155588044Y-92351206D01*
X155579101Y-92277305D01*
X155578129Y-92269272D01*
X155571426Y-92252340D01*
X155537013Y-92165423D01*
X155530534Y-92094723D01*
X155563307Y-92031743D01*
X155624927Y-91996479D01*
X155654165Y-91993040D01*
X157176379Y-91993040D01*
X157244500Y-92013042D01*
X157290993Y-92066698D01*
X157301097Y-92136972D01*
X157282832Y-92180659D01*
X157285283Y-92182040D01*
X157281070Y-92189517D01*
X157275872Y-92196365D01*
X157222871Y-92330232D01*
X157212500Y-92415931D01*
X157212501Y-92947588D01*
X157212956Y-92951345D01*
X157212956Y-92951351D01*
X157217942Y-92992551D01*
X157222871Y-93033288D01*
X157225849Y-93040811D01*
X157225850Y-93040813D01*
X157249028Y-93099355D01*
X157275872Y-93167155D01*
X157328194Y-93236085D01*
X157353446Y-93302438D01*
X157338818Y-93371911D01*
X157294133Y-93419408D01*
X157285827Y-93424548D01*
X157274426Y-93433584D01*
X157164014Y-93544189D01*
X157155002Y-93555600D01*
X157072996Y-93688640D01*
X157066849Y-93701821D01*
X157017509Y-93850574D01*
X157014642Y-93863950D01*
X157005328Y-93954857D01*
X157005071Y-93959886D01*
X157009475Y-93974884D01*
X157010865Y-93976089D01*
X157018548Y-93977760D01*
X158952885Y-93977760D01*
X158968124Y-93973285D01*
X158969329Y-93971895D01*
X158971000Y-93964212D01*
X158971000Y-93961322D01*
X158970663Y-93954807D01*
X158961106Y-93862703D01*
X158958212Y-93849304D01*
X158908619Y-93700653D01*
X158902445Y-93687474D01*
X158820212Y-93554587D01*
X158811176Y-93543186D01*
X158700571Y-93432774D01*
X158689160Y-93423762D01*
X158682127Y-93419427D01*
X158634634Y-93366655D01*
X158623210Y-93296584D01*
X158647881Y-93235987D01*
X158648472Y-93235209D01*
X158700128Y-93167155D01*
X158753129Y-93033288D01*
X158763500Y-92947589D01*
X158763499Y-92415932D01*
X158763044Y-92412166D01*
X158754101Y-92338265D01*
X158753129Y-92330232D01*
X158738208Y-92292544D01*
X158703292Y-92204357D01*
X158700128Y-92196365D01*
X158694930Y-92189517D01*
X158690717Y-92182040D01*
X158693619Y-92180405D01*
X158674004Y-92128859D01*
X158688637Y-92059387D01*
X158738506Y-92008854D01*
X158799621Y-91993040D01*
X162165760Y-91993040D01*
X162233881Y-92013042D01*
X162280374Y-92066698D01*
X162291760Y-92119040D01*
X162291760Y-95072801D01*
X162271758Y-95140922D01*
X162218102Y-95187415D01*
X162214902Y-95188661D01*
X162209054Y-95189587D01*
X162200221Y-95194088D01*
X162200217Y-95194089D01*
X162150334Y-95219506D01*
X162099261Y-95245529D01*
X162012129Y-95332661D01*
X161956187Y-95442454D01*
X161941760Y-95533544D01*
X161941760Y-96007776D01*
X161956187Y-96098866D01*
X162012129Y-96208659D01*
X162099261Y-96295791D01*
X162146923Y-96320076D01*
X162168754Y-96331199D01*
X162209054Y-96351733D01*
X162300144Y-96366160D01*
X163394376Y-96366160D01*
X163485466Y-96351733D01*
X163525767Y-96331199D01*
X163547597Y-96320076D01*
X163595259Y-96295791D01*
X163682391Y-96208659D01*
X163738333Y-96098866D01*
X163752760Y-96007776D01*
X163752760Y-95533544D01*
X163747447Y-95500000D01*
X203644341Y-95500000D01*
X203664937Y-95735408D01*
X203666361Y-95740722D01*
X203666361Y-95740723D01*
X203723713Y-95954764D01*
X203726097Y-95963663D01*
X203728419Y-95968643D01*
X203728420Y-95968645D01*
X203822294Y-96169956D01*
X203825965Y-96177829D01*
X203961505Y-96371401D01*
X204128599Y-96538495D01*
X204322171Y-96674035D01*
X204327149Y-96676356D01*
X204327152Y-96676358D01*
X204520783Y-96766650D01*
X204536337Y-96773903D01*
X204541645Y-96775325D01*
X204541647Y-96775326D01*
X204755183Y-96832542D01*
X204764592Y-96835063D01*
X204853665Y-96842856D01*
X204938310Y-96850262D01*
X204938317Y-96850262D01*
X204941034Y-96850500D01*
X205058966Y-96850500D01*
X205061683Y-96850262D01*
X205061690Y-96850262D01*
X205146335Y-96842856D01*
X205235408Y-96835063D01*
X205244817Y-96832542D01*
X205458353Y-96775326D01*
X205458355Y-96775325D01*
X205463663Y-96773903D01*
X205479217Y-96766650D01*
X205672848Y-96676358D01*
X205672851Y-96676356D01*
X205677829Y-96674035D01*
X205871401Y-96538495D01*
X206038495Y-96371401D01*
X206041655Y-96366889D01*
X206170878Y-96182339D01*
X206170881Y-96182334D01*
X206174035Y-96177830D01*
X206176358Y-96172848D01*
X206176361Y-96172843D01*
X206271580Y-95968645D01*
X206271581Y-95968644D01*
X206273903Y-95963663D01*
X206276288Y-95954764D01*
X206333639Y-95740723D01*
X206333639Y-95740722D01*
X206335063Y-95735408D01*
X206355659Y-95500000D01*
X206335063Y-95264592D01*
X206330263Y-95246675D01*
X206275326Y-95041647D01*
X206275325Y-95041645D01*
X206273903Y-95036337D01*
X206270918Y-95029936D01*
X206176358Y-94827152D01*
X206176356Y-94827149D01*
X206174035Y-94822171D01*
X206038495Y-94628599D01*
X205871401Y-94461505D01*
X205677829Y-94325965D01*
X205672851Y-94323644D01*
X205672848Y-94323642D01*
X205468645Y-94228420D01*
X205468643Y-94228419D01*
X205463663Y-94226097D01*
X205458355Y-94224675D01*
X205458353Y-94224674D01*
X205240723Y-94166361D01*
X205240722Y-94166361D01*
X205235408Y-94164937D01*
X205132318Y-94155918D01*
X205061690Y-94149738D01*
X205061683Y-94149738D01*
X205058966Y-94149500D01*
X204941034Y-94149500D01*
X204938317Y-94149738D01*
X204938310Y-94149738D01*
X204867682Y-94155918D01*
X204764592Y-94164937D01*
X204759278Y-94166361D01*
X204759277Y-94166361D01*
X204541647Y-94224674D01*
X204541645Y-94224675D01*
X204536337Y-94226097D01*
X204531357Y-94228419D01*
X204531355Y-94228420D01*
X204327152Y-94323642D01*
X204327149Y-94323644D01*
X204322171Y-94325965D01*
X204128599Y-94461505D01*
X203961505Y-94628599D01*
X203958348Y-94633107D01*
X203958346Y-94633110D01*
X203844244Y-94796065D01*
X203825965Y-94822170D01*
X203823642Y-94827152D01*
X203823639Y-94827157D01*
X203729082Y-95029936D01*
X203726097Y-95036337D01*
X203724675Y-95041645D01*
X203724674Y-95041647D01*
X203669738Y-95246675D01*
X203664937Y-95264592D01*
X203644341Y-95500000D01*
X163747447Y-95500000D01*
X163738333Y-95442454D01*
X163682391Y-95332661D01*
X163595259Y-95245529D01*
X163544186Y-95219506D01*
X163494302Y-95194089D01*
X163494301Y-95194089D01*
X163485466Y-95189587D01*
X163478508Y-95188485D01*
X163421220Y-95149313D01*
X163393582Y-95083917D01*
X163392760Y-95069552D01*
X163392760Y-92119040D01*
X163412762Y-92050919D01*
X163466418Y-92004426D01*
X163518760Y-91993040D01*
X208277140Y-91993040D01*
X208345261Y-92013042D01*
X208391754Y-92066698D01*
X208403140Y-92119040D01*
X208403140Y-96394353D01*
X208410554Y-96417170D01*
X208415168Y-96436389D01*
X208418921Y-96460086D01*
X208423424Y-96468923D01*
X208423424Y-96468924D01*
X208429812Y-96481462D01*
X208437376Y-96499723D01*
X208441725Y-96513107D01*
X208441727Y-96513110D01*
X208444791Y-96522541D01*
X208450620Y-96530564D01*
X208458893Y-96541951D01*
X208469217Y-96558797D01*
X208480112Y-96580180D01*
X208680561Y-96780629D01*
X208701937Y-96791520D01*
X208718792Y-96801850D01*
X208720568Y-96803140D01*
X208738200Y-96815951D01*
X208761018Y-96823365D01*
X208779279Y-96830928D01*
X208800655Y-96841820D01*
X208810446Y-96843371D01*
X208810453Y-96843373D01*
X208824350Y-96845574D01*
X208843569Y-96850188D01*
X208856954Y-96854537D01*
X208856961Y-96854538D01*
X208866388Y-96857601D01*
X213923688Y-96857601D01*
X213989838Y-96847124D01*
X214013535Y-96843371D01*
X214013537Y-96843370D01*
X214023326Y-96841820D01*
X214143420Y-96780629D01*
X214157399Y-96766650D01*
X214219711Y-96732624D01*
X214290526Y-96737689D01*
X214347362Y-96780236D01*
X214372173Y-96846756D01*
X214372494Y-96855531D01*
X214373761Y-97629609D01*
X214373776Y-97638974D01*
X214353885Y-97707127D01*
X214300306Y-97753708D01*
X214247776Y-97765180D01*
X200918919Y-97765180D01*
X200850798Y-97745178D01*
X200841814Y-97738833D01*
X200356320Y-97363189D01*
X200344312Y-97352614D01*
X200328482Y-97336778D01*
X200321471Y-97329764D01*
X200268782Y-97302904D01*
X200265445Y-97301139D01*
X200261545Y-97299001D01*
X200213617Y-97272728D01*
X200207206Y-97271513D01*
X200201390Y-97268548D01*
X200142985Y-97259286D01*
X200139264Y-97258638D01*
X200130465Y-97256970D01*
X200090932Y-97249478D01*
X200090929Y-97249478D01*
X200081189Y-97247632D01*
X200071352Y-97248887D01*
X200049141Y-97251720D01*
X200033171Y-97252733D01*
X172048827Y-97247034D01*
X163747238Y-97245344D01*
X163679122Y-97225328D01*
X163658169Y-97208439D01*
X163595259Y-97145529D01*
X163485466Y-97089587D01*
X163394376Y-97075160D01*
X162300144Y-97075160D01*
X162209054Y-97089587D01*
X162099261Y-97145529D01*
X162012129Y-97232661D01*
X162003560Y-97249478D01*
X161977404Y-97300814D01*
X161956187Y-97342454D01*
X161941760Y-97433544D01*
X161941760Y-97907776D01*
X161956187Y-97998866D01*
X161960688Y-98007699D01*
X161960689Y-98007703D01*
X161989036Y-98063338D01*
X162002140Y-98133115D01*
X161975439Y-98198899D01*
X161917411Y-98239805D01*
X161876769Y-98246540D01*
X161534977Y-98246540D01*
X161466856Y-98226538D01*
X161420363Y-98172882D01*
X161410259Y-98102608D01*
X161418568Y-98072322D01*
X161431746Y-98040508D01*
X161435984Y-98024690D01*
X161446789Y-97942620D01*
X161444577Y-97928439D01*
X161431419Y-97924660D01*
X159243483Y-97924660D01*
X159229712Y-97928704D01*
X159227683Y-97942243D01*
X159238536Y-98024691D01*
X159242774Y-98040506D01*
X159255952Y-98072322D01*
X159263541Y-98142912D01*
X159231761Y-98206399D01*
X159170703Y-98242626D01*
X159139543Y-98246540D01*
X156974453Y-98246540D01*
X156906332Y-98226538D01*
X156859839Y-98172882D01*
X156849735Y-98102608D01*
X156879229Y-98038028D01*
X156888356Y-98028773D01*
X156890187Y-98027383D01*
X156909373Y-98007374D01*
X156911224Y-98005484D01*
X156954768Y-97961940D01*
X156956509Y-97958524D01*
X156958518Y-97956121D01*
X156963381Y-97951050D01*
X157335079Y-97563407D01*
X157697965Y-97184955D01*
X157759549Y-97149629D01*
X157788911Y-97146160D01*
X159120007Y-97146160D01*
X159188128Y-97166162D01*
X159234621Y-97219818D01*
X159244725Y-97290092D01*
X159241714Y-97304771D01*
X159238536Y-97316633D01*
X159227731Y-97398700D01*
X159229943Y-97412881D01*
X159243101Y-97416660D01*
X161431037Y-97416660D01*
X161444808Y-97412616D01*
X161446837Y-97399077D01*
X161435984Y-97316629D01*
X161431746Y-97300814D01*
X161377962Y-97170965D01*
X161369773Y-97156783D01*
X161284215Y-97045281D01*
X161279665Y-97040731D01*
X161245639Y-96978419D01*
X161242760Y-96951636D01*
X161242760Y-96483544D01*
X161228333Y-96392454D01*
X161217979Y-96372132D01*
X161204962Y-96346585D01*
X161182684Y-96302862D01*
X161169580Y-96233086D01*
X161182684Y-96188457D01*
X161185802Y-96182339D01*
X161228333Y-96098866D01*
X161242760Y-96007776D01*
X161242760Y-95533544D01*
X161228333Y-95442454D01*
X161172391Y-95332661D01*
X161085259Y-95245529D01*
X161034186Y-95219506D01*
X160984300Y-95194088D01*
X160984299Y-95194088D01*
X160975466Y-95189587D01*
X160884376Y-95175160D01*
X159790144Y-95175160D01*
X159699054Y-95189587D01*
X159690221Y-95194088D01*
X159690220Y-95194088D01*
X159640334Y-95219506D01*
X159589261Y-95245529D01*
X159502129Y-95332661D01*
X159446187Y-95442454D01*
X159431760Y-95533544D01*
X159431760Y-96007776D01*
X159446187Y-96098866D01*
X159450688Y-96107699D01*
X159450688Y-96107700D01*
X159452858Y-96111959D01*
X159465961Y-96181735D01*
X159439260Y-96247520D01*
X159381232Y-96288425D01*
X159340590Y-96295160D01*
X157618904Y-96295160D01*
X157615776Y-96294947D01*
X157612106Y-96293839D01*
X157550516Y-96295132D01*
X157547871Y-96295160D01*
X157520172Y-96295160D01*
X157516531Y-96295737D01*
X157512743Y-96295925D01*
X157477350Y-96296668D01*
X157467982Y-96299931D01*
X157467981Y-96299931D01*
X157460204Y-96302640D01*
X157438467Y-96308101D01*
X157420534Y-96310941D01*
X157402606Y-96320076D01*
X157393972Y-96324475D01*
X157378222Y-96331194D01*
X157350064Y-96341001D01*
X157342168Y-96346996D01*
X157342165Y-96346997D01*
X157335606Y-96351977D01*
X157316619Y-96363889D01*
X157300440Y-96372132D01*
X157275412Y-96397160D01*
X157272651Y-96399767D01*
X157269714Y-96401997D01*
X157266282Y-96405576D01*
X157266280Y-96405578D01*
X157250551Y-96421982D01*
X157248700Y-96423872D01*
X157205132Y-96467440D01*
X157203390Y-96470859D01*
X157201385Y-96473257D01*
X156461934Y-97244427D01*
X156400351Y-97279751D01*
X156370989Y-97283220D01*
X156006493Y-97283220D01*
X155938372Y-97263218D01*
X155891879Y-97209562D01*
X155881775Y-97139288D01*
X155889586Y-97110223D01*
X155925389Y-97021159D01*
X155944181Y-96974414D01*
X155963191Y-96840843D01*
X155967489Y-96810642D01*
X155967489Y-96810639D01*
X155968070Y-96806558D01*
X155968225Y-96791780D01*
X155947856Y-96623460D01*
X155896858Y-96488498D01*
X155890609Y-96471960D01*
X155887925Y-96464857D01*
X155858157Y-96421544D01*
X155796194Y-96331388D01*
X155796193Y-96331387D01*
X155791892Y-96325129D01*
X155779995Y-96314529D01*
X155670972Y-96217392D01*
X155670968Y-96217390D01*
X155665301Y-96212340D01*
X155643255Y-96200667D01*
X155566548Y-96160053D01*
X155515461Y-96133004D01*
X155351021Y-96091699D01*
X155343423Y-96091659D01*
X155343421Y-96091659D01*
X155245796Y-96091148D01*
X155215067Y-96090987D01*
X155147052Y-96070629D01*
X155126632Y-96054084D01*
X154415972Y-95343424D01*
X154381946Y-95281112D01*
X154387011Y-95210297D01*
X154429558Y-95153461D01*
X154496078Y-95128650D01*
X154511489Y-95128493D01*
X154517505Y-95128800D01*
X154540885Y-95128800D01*
X154556124Y-95124325D01*
X154557329Y-95122935D01*
X154559000Y-95115252D01*
X154559000Y-95110685D01*
X155067000Y-95110685D01*
X155071475Y-95125924D01*
X155072865Y-95127129D01*
X155080548Y-95128800D01*
X155108438Y-95128800D01*
X155114953Y-95128463D01*
X155207057Y-95118906D01*
X155220456Y-95116012D01*
X155369107Y-95066419D01*
X155382286Y-95060245D01*
X155515173Y-94978012D01*
X155526574Y-94968976D01*
X155636986Y-94858371D01*
X155645998Y-94846960D01*
X155728004Y-94713920D01*
X155734151Y-94700739D01*
X155783491Y-94551986D01*
X155786358Y-94538610D01*
X155790089Y-94502198D01*
X157005000Y-94502198D01*
X157005337Y-94508713D01*
X157014894Y-94600817D01*
X157017788Y-94614216D01*
X157067381Y-94762867D01*
X157073555Y-94776046D01*
X157155788Y-94908933D01*
X157164824Y-94920334D01*
X157275429Y-95030746D01*
X157286840Y-95039758D01*
X157419880Y-95121764D01*
X157433061Y-95127911D01*
X157581814Y-95177251D01*
X157595190Y-95180118D01*
X157686097Y-95189432D01*
X157692513Y-95189760D01*
X157715885Y-95189760D01*
X157731124Y-95185285D01*
X157732329Y-95183895D01*
X157734000Y-95176212D01*
X157734000Y-95171645D01*
X158242000Y-95171645D01*
X158246475Y-95186884D01*
X158247865Y-95188089D01*
X158255548Y-95189760D01*
X158283438Y-95189760D01*
X158289953Y-95189423D01*
X158382057Y-95179866D01*
X158395456Y-95176972D01*
X158544107Y-95127379D01*
X158557286Y-95121205D01*
X158690173Y-95038972D01*
X158701574Y-95029936D01*
X158811986Y-94919331D01*
X158820998Y-94907920D01*
X158903004Y-94774880D01*
X158909151Y-94761699D01*
X158958491Y-94612946D01*
X158961358Y-94599570D01*
X158970672Y-94508663D01*
X158970929Y-94503634D01*
X158966525Y-94488636D01*
X158965135Y-94487431D01*
X158957452Y-94485760D01*
X158260115Y-94485760D01*
X158244876Y-94490235D01*
X158243671Y-94491625D01*
X158242000Y-94499308D01*
X158242000Y-95171645D01*
X157734000Y-95171645D01*
X157734000Y-94503875D01*
X157729525Y-94488636D01*
X157728135Y-94487431D01*
X157720452Y-94485760D01*
X157023115Y-94485760D01*
X157007876Y-94490235D01*
X157006671Y-94491625D01*
X157005000Y-94499308D01*
X157005000Y-94502198D01*
X155790089Y-94502198D01*
X155795672Y-94447703D01*
X155795929Y-94442674D01*
X155791525Y-94427676D01*
X155790135Y-94426471D01*
X155782452Y-94424800D01*
X155085115Y-94424800D01*
X155069876Y-94429275D01*
X155068671Y-94430665D01*
X155067000Y-94438348D01*
X155067000Y-95110685D01*
X154559000Y-95110685D01*
X154559000Y-94442915D01*
X154554525Y-94427676D01*
X154553135Y-94426471D01*
X154545452Y-94424800D01*
X153848115Y-94424800D01*
X153832876Y-94429275D01*
X153831671Y-94430665D01*
X153830000Y-94438348D01*
X153830000Y-94441238D01*
X153830337Y-94447753D01*
X153839894Y-94539857D01*
X153842789Y-94553259D01*
X153893207Y-94704385D01*
X153895791Y-94775334D01*
X153859607Y-94836418D01*
X153796143Y-94868242D01*
X153773683Y-94870260D01*
X153358480Y-94870260D01*
X153290359Y-94850258D01*
X153269385Y-94833355D01*
X153206659Y-94770629D01*
X153096866Y-94714687D01*
X153005776Y-94700260D01*
X151911544Y-94700260D01*
X151820454Y-94714687D01*
X151710661Y-94770629D01*
X151623529Y-94857761D01*
X151616839Y-94870891D01*
X151577942Y-94947232D01*
X151567587Y-94967554D01*
X151553160Y-95058644D01*
X151553160Y-95532876D01*
X151567587Y-95623966D01*
X151572088Y-95632799D01*
X151572088Y-95632800D01*
X151589151Y-95666288D01*
X151623529Y-95733759D01*
X151710661Y-95820891D01*
X151820454Y-95876833D01*
X151911544Y-95891260D01*
X153005776Y-95891260D01*
X153096866Y-95876833D01*
X153206659Y-95820891D01*
X153269385Y-95758165D01*
X153331697Y-95724139D01*
X153358480Y-95721260D01*
X153538122Y-95721260D01*
X153606243Y-95741262D01*
X153627217Y-95758165D01*
X154524260Y-96655208D01*
X154558286Y-96717520D01*
X154560087Y-96760747D01*
X154556974Y-96784391D01*
X154575579Y-96952915D01*
X154610692Y-97048866D01*
X154633846Y-97112136D01*
X154631160Y-97113119D01*
X154641796Y-97169821D01*
X154615082Y-97235600D01*
X154557046Y-97276494D01*
X154516428Y-97283220D01*
X134268127Y-97283220D01*
X134245310Y-97290634D01*
X134226091Y-97295248D01*
X134202394Y-97299001D01*
X134193557Y-97303504D01*
X134193556Y-97303504D01*
X134181018Y-97309892D01*
X134162757Y-97317456D01*
X134149373Y-97321805D01*
X134149370Y-97321807D01*
X134139939Y-97324871D01*
X134131916Y-97330700D01*
X134120529Y-97338973D01*
X134103683Y-97349297D01*
X134082300Y-97360192D01*
X132677257Y-98765235D01*
X132614945Y-98799261D01*
X132588162Y-98802140D01*
X131771474Y-98802140D01*
X131703353Y-98782138D01*
X131656860Y-98728482D01*
X131646756Y-98658208D01*
X131676250Y-98593628D01*
X131682151Y-98587273D01*
X132837510Y-97425988D01*
X132840477Y-97423102D01*
X132955422Y-97314918D01*
X132987829Y-97284417D01*
X133012982Y-97251915D01*
X133023533Y-97239935D01*
X134696125Y-95567343D01*
X148839083Y-95567343D01*
X148849936Y-95649791D01*
X148854174Y-95665606D01*
X148907958Y-95795455D01*
X148916147Y-95809637D01*
X149001703Y-95921136D01*
X149013282Y-95932716D01*
X149124786Y-96018275D01*
X149138967Y-96026462D01*
X149268811Y-96080245D01*
X149284631Y-96084484D01*
X149388979Y-96098222D01*
X149397187Y-96098760D01*
X149676545Y-96098760D01*
X149691784Y-96094285D01*
X149692989Y-96092895D01*
X149694660Y-96085212D01*
X149694660Y-96080644D01*
X150202660Y-96080644D01*
X150207135Y-96095883D01*
X150208525Y-96097088D01*
X150216208Y-96098759D01*
X150500131Y-96098759D01*
X150508343Y-96098221D01*
X150612690Y-96084484D01*
X150628506Y-96080246D01*
X150758355Y-96026462D01*
X150772537Y-96018273D01*
X150884036Y-95932717D01*
X150895616Y-95921138D01*
X150981175Y-95809634D01*
X150989362Y-95795453D01*
X151043146Y-95665608D01*
X151047384Y-95649790D01*
X151058189Y-95567720D01*
X151055977Y-95553539D01*
X151042819Y-95549760D01*
X150220775Y-95549760D01*
X150205536Y-95554235D01*
X150204331Y-95555625D01*
X150202660Y-95563308D01*
X150202660Y-96080644D01*
X149694660Y-96080644D01*
X149694660Y-95567875D01*
X149690185Y-95552636D01*
X149688795Y-95551431D01*
X149681112Y-95549760D01*
X148854883Y-95549760D01*
X148841112Y-95553804D01*
X148839083Y-95567343D01*
X134696125Y-95567343D01*
X135455303Y-94808165D01*
X135517615Y-94774139D01*
X135544398Y-94771260D01*
X148731407Y-94771260D01*
X148799528Y-94791262D01*
X148846021Y-94844918D01*
X148856125Y-94915192D01*
X148853114Y-94929871D01*
X148849936Y-94941733D01*
X148839131Y-95023800D01*
X148841343Y-95037981D01*
X148854501Y-95041760D01*
X151042437Y-95041760D01*
X151056208Y-95037716D01*
X151058237Y-95024177D01*
X151047384Y-94941729D01*
X151043146Y-94925914D01*
X150989362Y-94796065D01*
X150981173Y-94781883D01*
X150895615Y-94670381D01*
X150891065Y-94665831D01*
X150857039Y-94603519D01*
X150854160Y-94576736D01*
X150854160Y-94108644D01*
X150839733Y-94017554D01*
X150834997Y-94008258D01*
X150825121Y-93988877D01*
X150794084Y-93927962D01*
X150780980Y-93858186D01*
X150794084Y-93813557D01*
X150796166Y-93809472D01*
X150839733Y-93723966D01*
X150854160Y-93632876D01*
X150854160Y-93158644D01*
X150839733Y-93067554D01*
X150828011Y-93044547D01*
X150805238Y-92999853D01*
X150783791Y-92957761D01*
X150696659Y-92870629D01*
X150611269Y-92827121D01*
X150595700Y-92819188D01*
X150595699Y-92819188D01*
X150586866Y-92814687D01*
X150495776Y-92800260D01*
X149401544Y-92800260D01*
X149310454Y-92814687D01*
X149301621Y-92819188D01*
X149301620Y-92819188D01*
X149286051Y-92827121D01*
X149200661Y-92870629D01*
X149113529Y-92957761D01*
X149092082Y-92999853D01*
X149069310Y-93044547D01*
X149057587Y-93067554D01*
X149043160Y-93158644D01*
X149043160Y-93632876D01*
X149057587Y-93723966D01*
X149062088Y-93732799D01*
X149062088Y-93732800D01*
X149064258Y-93737059D01*
X149077361Y-93806835D01*
X149050660Y-93872620D01*
X148992632Y-93913525D01*
X148951990Y-93920260D01*
X136625408Y-93920260D01*
X136557287Y-93900258D01*
X136510794Y-93846602D01*
X136500690Y-93776328D01*
X136530184Y-93711748D01*
X136536235Y-93705242D01*
X136581906Y-93659492D01*
X136590918Y-93648080D01*
X136672924Y-93515040D01*
X136679071Y-93501859D01*
X136728411Y-93353106D01*
X136731278Y-93339730D01*
X136740592Y-93248823D01*
X136740849Y-93243794D01*
X136736445Y-93228796D01*
X136735055Y-93227591D01*
X136727372Y-93225920D01*
X134793035Y-93225920D01*
X134777796Y-93230395D01*
X134776591Y-93231785D01*
X134774920Y-93239468D01*
X134774920Y-93242358D01*
X134775257Y-93248873D01*
X134784814Y-93340977D01*
X134787708Y-93354376D01*
X134837301Y-93503027D01*
X134843475Y-93516206D01*
X134925708Y-93649093D01*
X134934744Y-93660494D01*
X135045349Y-93770906D01*
X135056760Y-93779918D01*
X135063170Y-93783869D01*
X135110663Y-93836641D01*
X135122087Y-93906713D01*
X135093813Y-93971837D01*
X135071351Y-93992845D01*
X135062740Y-93997232D01*
X132264875Y-96795097D01*
X132264632Y-96795322D01*
X132264257Y-96795596D01*
X132249806Y-96810122D01*
X132247028Y-96812914D01*
X132244073Y-96815788D01*
X132226271Y-96832542D01*
X132223240Y-96836459D01*
X132222586Y-96837179D01*
X132219094Y-96840843D01*
X132218683Y-96841289D01*
X132217726Y-96842246D01*
X132217448Y-96842629D01*
X132217241Y-96842854D01*
X130929600Y-98137099D01*
X130916439Y-98150327D01*
X130854214Y-98184512D01*
X130827116Y-98187460D01*
X109578635Y-98187460D01*
X109510514Y-98167458D01*
X109464021Y-98113802D01*
X109453917Y-98043528D01*
X109483411Y-97978948D01*
X109489694Y-97972210D01*
X109518057Y-97943945D01*
X109524730Y-97936105D01*
X109649003Y-97763160D01*
X109654313Y-97754323D01*
X109748670Y-97563407D01*
X109752469Y-97553812D01*
X109814377Y-97350050D01*
X109816555Y-97339977D01*
X109817986Y-97329102D01*
X109815775Y-97314918D01*
X109802617Y-97311140D01*
X108356000Y-97311140D01*
X108287879Y-97291138D01*
X108241386Y-97237482D01*
X108230000Y-97185140D01*
X108230000Y-96929140D01*
X108250002Y-96861019D01*
X108303658Y-96814526D01*
X108356000Y-96803140D01*
X109802344Y-96803140D01*
X109815875Y-96799167D01*
X109817180Y-96790087D01*
X109775214Y-96623015D01*
X109771894Y-96613264D01*
X109686972Y-96417954D01*
X109682105Y-96408879D01*
X109566426Y-96230066D01*
X109560136Y-96221897D01*
X109416806Y-96064380D01*
X109409273Y-96057355D01*
X109242139Y-95925362D01*
X109233552Y-95919657D01*
X109047117Y-95816739D01*
X109037705Y-95812509D01*
X108986178Y-95794262D01*
X108928642Y-95752668D01*
X108902726Y-95686570D01*
X108916660Y-95616954D01*
X108966672Y-95565555D01*
X108969872Y-95563763D01*
X109138442Y-95469359D01*
X109301012Y-95334152D01*
X109436219Y-95171582D01*
X109439043Y-95166539D01*
X109439046Y-95166535D01*
X109536713Y-94992138D01*
X109536714Y-94992136D01*
X109539537Y-94987095D01*
X109541393Y-94981628D01*
X109541395Y-94981623D01*
X109553680Y-94945431D01*
X111054394Y-94945431D01*
X111072999Y-95113955D01*
X111095883Y-95176488D01*
X111128446Y-95265469D01*
X111131266Y-95273176D01*
X111135502Y-95279479D01*
X111135502Y-95279480D01*
X111145548Y-95294430D01*
X111225830Y-95413903D01*
X111231442Y-95419010D01*
X111231445Y-95419013D01*
X111345612Y-95522897D01*
X111345616Y-95522900D01*
X111351233Y-95528011D01*
X111357906Y-95531634D01*
X111357910Y-95531637D01*
X111493558Y-95605287D01*
X111493560Y-95605288D01*
X111500235Y-95608912D01*
X111507584Y-95610840D01*
X111656883Y-95650008D01*
X111656885Y-95650008D01*
X111664233Y-95651936D01*
X111750609Y-95653293D01*
X111826161Y-95654480D01*
X111826164Y-95654480D01*
X111833760Y-95654599D01*
X111841165Y-95652903D01*
X111841166Y-95652903D01*
X111929491Y-95632674D01*
X111999029Y-95616748D01*
X112150498Y-95540567D01*
X112233871Y-95469359D01*
X112273651Y-95435384D01*
X112273652Y-95435383D01*
X112279423Y-95430454D01*
X112378361Y-95292767D01*
X112387133Y-95270946D01*
X112438766Y-95142507D01*
X112438767Y-95142505D01*
X112441601Y-95135454D01*
X112452305Y-95060245D01*
X112464909Y-94971682D01*
X112464909Y-94971679D01*
X112465490Y-94967598D01*
X112465645Y-94952820D01*
X112464762Y-94945519D01*
X112459627Y-94903089D01*
X112445276Y-94784500D01*
X112385345Y-94625897D01*
X112374865Y-94610648D01*
X112293614Y-94492428D01*
X112293613Y-94492427D01*
X112289312Y-94486169D01*
X112227679Y-94431256D01*
X112190125Y-94371006D01*
X112185500Y-94337181D01*
X112185500Y-93751243D01*
X112923483Y-93751243D01*
X112934336Y-93833691D01*
X112938574Y-93849506D01*
X112992358Y-93979355D01*
X113000547Y-93993537D01*
X113086103Y-94105036D01*
X113097682Y-94116616D01*
X113209186Y-94202175D01*
X113223367Y-94210362D01*
X113353211Y-94264145D01*
X113369031Y-94268384D01*
X113473379Y-94282122D01*
X113481587Y-94282660D01*
X113760945Y-94282660D01*
X113776184Y-94278185D01*
X113777389Y-94276795D01*
X113779060Y-94269112D01*
X113779060Y-94264544D01*
X114287060Y-94264544D01*
X114291535Y-94279783D01*
X114292925Y-94280988D01*
X114300608Y-94282659D01*
X114584531Y-94282659D01*
X114592743Y-94282121D01*
X114697090Y-94268384D01*
X114712906Y-94264146D01*
X114842755Y-94210362D01*
X114856937Y-94202173D01*
X114968436Y-94116617D01*
X114980016Y-94105038D01*
X115065575Y-93993534D01*
X115073762Y-93979353D01*
X115127546Y-93849508D01*
X115131784Y-93833690D01*
X115142589Y-93751620D01*
X115140377Y-93737439D01*
X115127219Y-93733660D01*
X114305175Y-93733660D01*
X114289936Y-93738135D01*
X114288731Y-93739525D01*
X114287060Y-93747208D01*
X114287060Y-94264544D01*
X113779060Y-94264544D01*
X113779060Y-93751775D01*
X113774585Y-93736536D01*
X113773195Y-93735331D01*
X113765512Y-93733660D01*
X112939283Y-93733660D01*
X112925512Y-93737704D01*
X112923483Y-93751243D01*
X112185500Y-93751243D01*
X112185500Y-93716776D01*
X115637560Y-93716776D01*
X115651987Y-93807866D01*
X115656488Y-93816699D01*
X115656488Y-93816700D01*
X115673748Y-93850574D01*
X115707929Y-93917659D01*
X115795061Y-94004791D01*
X115904854Y-94060733D01*
X115995944Y-94075160D01*
X116057360Y-94075160D01*
X116125481Y-94095162D01*
X116171974Y-94148818D01*
X116183360Y-94201160D01*
X116183360Y-94486950D01*
X116163358Y-94555071D01*
X116140189Y-94581899D01*
X116119287Y-94600133D01*
X116084464Y-94630511D01*
X116056443Y-94670381D01*
X115992264Y-94761699D01*
X115986973Y-94769227D01*
X115925384Y-94927193D01*
X115924392Y-94934726D01*
X115924392Y-94934727D01*
X115904525Y-95085639D01*
X115903254Y-95095291D01*
X115921859Y-95263815D01*
X115934916Y-95299495D01*
X115976784Y-95413903D01*
X115980126Y-95423036D01*
X115984362Y-95429339D01*
X115984362Y-95429340D01*
X115997434Y-95448793D01*
X116074690Y-95563763D01*
X116080302Y-95568870D01*
X116080305Y-95568873D01*
X116194472Y-95672757D01*
X116194476Y-95672760D01*
X116200093Y-95677871D01*
X116206766Y-95681494D01*
X116206770Y-95681497D01*
X116342418Y-95755147D01*
X116342420Y-95755148D01*
X116349095Y-95758772D01*
X116356444Y-95760700D01*
X116505743Y-95799868D01*
X116505745Y-95799868D01*
X116513093Y-95801796D01*
X116599469Y-95803153D01*
X116675021Y-95804340D01*
X116675024Y-95804340D01*
X116682620Y-95804459D01*
X116690025Y-95802763D01*
X116690026Y-95802763D01*
X116693493Y-95801969D01*
X127827320Y-95801969D01*
X127827657Y-95808493D01*
X127837214Y-95900597D01*
X127840108Y-95913996D01*
X127889701Y-96062647D01*
X127895875Y-96075826D01*
X127978108Y-96208713D01*
X127987144Y-96220114D01*
X128097749Y-96330526D01*
X128109160Y-96339538D01*
X128242200Y-96421544D01*
X128255381Y-96427691D01*
X128404134Y-96477031D01*
X128417510Y-96479898D01*
X128508417Y-96489212D01*
X128513446Y-96489469D01*
X128528444Y-96485065D01*
X128529649Y-96483675D01*
X128531320Y-96475992D01*
X128531320Y-95778655D01*
X128526845Y-95763416D01*
X128525455Y-95762211D01*
X128517772Y-95760540D01*
X127845435Y-95760540D01*
X127830196Y-95765015D01*
X127828991Y-95766405D01*
X127827320Y-95774088D01*
X127827320Y-95801969D01*
X116693493Y-95801969D01*
X116793441Y-95779078D01*
X116847889Y-95766608D01*
X116999358Y-95690427D01*
X117128283Y-95580314D01*
X117227221Y-95442627D01*
X117232562Y-95429340D01*
X117287626Y-95292367D01*
X117287627Y-95292365D01*
X117290461Y-95285314D01*
X117304298Y-95188089D01*
X117313769Y-95121542D01*
X117313769Y-95121539D01*
X117314350Y-95117458D01*
X117314505Y-95102680D01*
X117312700Y-95087760D01*
X117306914Y-95039952D01*
X117294136Y-94934360D01*
X117234205Y-94775757D01*
X117195326Y-94719188D01*
X117142474Y-94642288D01*
X117142473Y-94642287D01*
X117138172Y-94636029D01*
X117076539Y-94581116D01*
X117038985Y-94520866D01*
X117034360Y-94487041D01*
X117034360Y-94191615D01*
X117054362Y-94123494D01*
X117108018Y-94077001D01*
X117140649Y-94067166D01*
X117171474Y-94062284D01*
X117171475Y-94062284D01*
X117181266Y-94060733D01*
X117291059Y-94004791D01*
X117378191Y-93917659D01*
X117412372Y-93850574D01*
X117429632Y-93816700D01*
X117429632Y-93816699D01*
X117434133Y-93807866D01*
X117448560Y-93716776D01*
X117448560Y-93409998D01*
X117802640Y-93409998D01*
X117802977Y-93416513D01*
X117812534Y-93508617D01*
X117815428Y-93522016D01*
X117865021Y-93670667D01*
X117871195Y-93683846D01*
X117953428Y-93816733D01*
X117962464Y-93828134D01*
X118073069Y-93938546D01*
X118084480Y-93947558D01*
X118217520Y-94029564D01*
X118230701Y-94035711D01*
X118379454Y-94085051D01*
X118392830Y-94087918D01*
X118483737Y-94097232D01*
X118490153Y-94097560D01*
X118513525Y-94097560D01*
X118528764Y-94093085D01*
X118529969Y-94091695D01*
X118531640Y-94084012D01*
X118531640Y-94079445D01*
X119039640Y-94079445D01*
X119044115Y-94094684D01*
X119045505Y-94095889D01*
X119053188Y-94097560D01*
X119081078Y-94097560D01*
X119087593Y-94097223D01*
X119179697Y-94087666D01*
X119193096Y-94084772D01*
X119341747Y-94035179D01*
X119354926Y-94029005D01*
X119401798Y-94000000D01*
X120644341Y-94000000D01*
X120664937Y-94235408D01*
X120666361Y-94240722D01*
X120666361Y-94240723D01*
X120721821Y-94447703D01*
X120726097Y-94463663D01*
X120728419Y-94468643D01*
X120728420Y-94468645D01*
X120806798Y-94636725D01*
X120825965Y-94677829D01*
X120961505Y-94871401D01*
X121128599Y-95038495D01*
X121322171Y-95174035D01*
X121327149Y-95176356D01*
X121327152Y-95176358D01*
X121531308Y-95271558D01*
X121536337Y-95273903D01*
X121541645Y-95275325D01*
X121541647Y-95275326D01*
X121759277Y-95333639D01*
X121764592Y-95335063D01*
X121860157Y-95343424D01*
X121938310Y-95350262D01*
X121938317Y-95350262D01*
X121941034Y-95350500D01*
X122058966Y-95350500D01*
X122061683Y-95350262D01*
X122061690Y-95350262D01*
X122139843Y-95343424D01*
X122235408Y-95335063D01*
X122240723Y-95333639D01*
X122458353Y-95275326D01*
X122458355Y-95275325D01*
X122463663Y-95273903D01*
X122468692Y-95271558D01*
X122548324Y-95234425D01*
X127827320Y-95234425D01*
X127831795Y-95249664D01*
X127833185Y-95250869D01*
X127840868Y-95252540D01*
X128513205Y-95252540D01*
X128528444Y-95248065D01*
X128529649Y-95246675D01*
X128531320Y-95238992D01*
X128531320Y-94541655D01*
X128526845Y-94526416D01*
X128525455Y-94525211D01*
X128517772Y-94523540D01*
X128514882Y-94523540D01*
X128508367Y-94523877D01*
X128416263Y-94533434D01*
X128402864Y-94536328D01*
X128254213Y-94585921D01*
X128241034Y-94592095D01*
X128108147Y-94674328D01*
X128096746Y-94683364D01*
X127986334Y-94793969D01*
X127977322Y-94805380D01*
X127895316Y-94938420D01*
X127889169Y-94951601D01*
X127839829Y-95100354D01*
X127836962Y-95113730D01*
X127827648Y-95204637D01*
X127827320Y-95211054D01*
X127827320Y-95234425D01*
X122548324Y-95234425D01*
X122672848Y-95176358D01*
X122672851Y-95176356D01*
X122677829Y-95174035D01*
X122871401Y-95038495D01*
X123038495Y-94871401D01*
X123041655Y-94866889D01*
X123170878Y-94682339D01*
X123170881Y-94682334D01*
X123174035Y-94677830D01*
X123176358Y-94672848D01*
X123176361Y-94672843D01*
X123271580Y-94468645D01*
X123271581Y-94468644D01*
X123273903Y-94463663D01*
X123278180Y-94447703D01*
X123333639Y-94240723D01*
X123333639Y-94240722D01*
X123335063Y-94235408D01*
X123355659Y-94000000D01*
X123335063Y-93764592D01*
X123328498Y-93740091D01*
X123275326Y-93541647D01*
X123275325Y-93541645D01*
X123273903Y-93536337D01*
X123266406Y-93520260D01*
X123176358Y-93327152D01*
X123176356Y-93327149D01*
X123174035Y-93322171D01*
X123038495Y-93128599D01*
X122871401Y-92961505D01*
X122677829Y-92825965D01*
X122672851Y-92823644D01*
X122672848Y-92823642D01*
X122468645Y-92728420D01*
X122468643Y-92728419D01*
X122463663Y-92726097D01*
X122458355Y-92724675D01*
X122458353Y-92724674D01*
X122240723Y-92666361D01*
X122240722Y-92666361D01*
X122235408Y-92664937D01*
X122128734Y-92655604D01*
X122061690Y-92649738D01*
X122061683Y-92649738D01*
X122058966Y-92649500D01*
X121941034Y-92649500D01*
X121938317Y-92649738D01*
X121938310Y-92649738D01*
X121871266Y-92655604D01*
X121764592Y-92664937D01*
X121759278Y-92666361D01*
X121759277Y-92666361D01*
X121541647Y-92724674D01*
X121541645Y-92724675D01*
X121536337Y-92726097D01*
X121531357Y-92728419D01*
X121531355Y-92728420D01*
X121327152Y-92823642D01*
X121327149Y-92823644D01*
X121322171Y-92825965D01*
X121128599Y-92961505D01*
X120961505Y-93128599D01*
X120958348Y-93133107D01*
X120958346Y-93133110D01*
X120832150Y-93313337D01*
X120825965Y-93322170D01*
X120823642Y-93327152D01*
X120823639Y-93327157D01*
X120733594Y-93520260D01*
X120726097Y-93536337D01*
X120724675Y-93541645D01*
X120724674Y-93541647D01*
X120671502Y-93740091D01*
X120664937Y-93764592D01*
X120644341Y-94000000D01*
X119401798Y-94000000D01*
X119487813Y-93946772D01*
X119499214Y-93937736D01*
X119609626Y-93827131D01*
X119618638Y-93815720D01*
X119700644Y-93682680D01*
X119706791Y-93669499D01*
X119756131Y-93520746D01*
X119758998Y-93507370D01*
X119768312Y-93416463D01*
X119768569Y-93411434D01*
X119764165Y-93396436D01*
X119762775Y-93395231D01*
X119755092Y-93393560D01*
X119057755Y-93393560D01*
X119042516Y-93398035D01*
X119041311Y-93399425D01*
X119039640Y-93407108D01*
X119039640Y-94079445D01*
X118531640Y-94079445D01*
X118531640Y-93411675D01*
X118527165Y-93396436D01*
X118525775Y-93395231D01*
X118518092Y-93393560D01*
X117820755Y-93393560D01*
X117805516Y-93398035D01*
X117804311Y-93399425D01*
X117802640Y-93407108D01*
X117802640Y-93409998D01*
X117448560Y-93409998D01*
X117448560Y-93242544D01*
X117434133Y-93151454D01*
X117415243Y-93114379D01*
X117382691Y-93050493D01*
X117378191Y-93041661D01*
X117291059Y-92954529D01*
X117223621Y-92920168D01*
X117190100Y-92903088D01*
X117190099Y-92903088D01*
X117181266Y-92898587D01*
X117090176Y-92884160D01*
X115995944Y-92884160D01*
X115904854Y-92898587D01*
X115896021Y-92903088D01*
X115896020Y-92903088D01*
X115862499Y-92920168D01*
X115795061Y-92954529D01*
X115707929Y-93041661D01*
X115703429Y-93050493D01*
X115670878Y-93114379D01*
X115651987Y-93151454D01*
X115637560Y-93242544D01*
X115637560Y-93716776D01*
X112185500Y-93716776D01*
X112185500Y-93076080D01*
X112205502Y-93007959D01*
X112259158Y-92961466D01*
X112311500Y-92950080D01*
X112817168Y-92950080D01*
X112885289Y-92970082D01*
X112931782Y-93023738D01*
X112941886Y-93094012D01*
X112938875Y-93108690D01*
X112934336Y-93125630D01*
X112923531Y-93207700D01*
X112925743Y-93221881D01*
X112938901Y-93225660D01*
X115126837Y-93225660D01*
X115140608Y-93221616D01*
X115142637Y-93208077D01*
X115131784Y-93125629D01*
X115127546Y-93109814D01*
X115073762Y-92979965D01*
X115065573Y-92965783D01*
X114980015Y-92854281D01*
X114975465Y-92849731D01*
X114941439Y-92787419D01*
X114938560Y-92760636D01*
X114938560Y-92292544D01*
X114924133Y-92201454D01*
X114918113Y-92189638D01*
X114899173Y-92152467D01*
X114878484Y-92111862D01*
X114865380Y-92042086D01*
X114878484Y-91997457D01*
X114878983Y-91996479D01*
X114924133Y-91907866D01*
X114938560Y-91816776D01*
X114938560Y-91342544D01*
X114924133Y-91251454D01*
X114868191Y-91141661D01*
X114781059Y-91054529D01*
X114712412Y-91019552D01*
X114680100Y-91003088D01*
X114680099Y-91003088D01*
X114671266Y-90998587D01*
X114580176Y-90984160D01*
X113485944Y-90984160D01*
X113394854Y-90998587D01*
X113386021Y-91003088D01*
X113386020Y-91003088D01*
X113353708Y-91019552D01*
X113285061Y-91054529D01*
X113197929Y-91141661D01*
X113141987Y-91251454D01*
X113127560Y-91342544D01*
X113127560Y-91816776D01*
X113141987Y-91907866D01*
X113146488Y-91916700D01*
X113149553Y-91926133D01*
X113148084Y-91926610D01*
X113159173Y-91985652D01*
X113132474Y-92051437D01*
X113074448Y-92092344D01*
X113033802Y-92099080D01*
X111711272Y-92099080D01*
X111650909Y-92108640D01*
X111621425Y-92113310D01*
X111621423Y-92113311D01*
X111611634Y-92114861D01*
X111491540Y-92176052D01*
X111396232Y-92271360D01*
X111335041Y-92391454D01*
X111333491Y-92401243D01*
X111333490Y-92401245D01*
X111323806Y-92462387D01*
X111313956Y-92524580D01*
X111331202Y-92633464D01*
X111332949Y-92644497D01*
X111334500Y-92664208D01*
X111334500Y-94337090D01*
X111314498Y-94405211D01*
X111291329Y-94432039D01*
X111235604Y-94480651D01*
X111207220Y-94521037D01*
X111142626Y-94612946D01*
X111138113Y-94619367D01*
X111076524Y-94777333D01*
X111075532Y-94784866D01*
X111075532Y-94784867D01*
X111056787Y-94927257D01*
X111054394Y-94945431D01*
X109553680Y-94945431D01*
X109590685Y-94836418D01*
X109607504Y-94786870D01*
X109608843Y-94777640D01*
X109637314Y-94581280D01*
X109637314Y-94581278D01*
X109637846Y-94577610D01*
X109639429Y-94517140D01*
X109620081Y-94306580D01*
X109608114Y-94264146D01*
X109580134Y-94164937D01*
X109562686Y-94103071D01*
X109559969Y-94097560D01*
X109471719Y-93918609D01*
X109469165Y-93913430D01*
X109358023Y-93764592D01*
X109346104Y-93748631D01*
X109346103Y-93748630D01*
X109342651Y-93744007D01*
X109207799Y-93619351D01*
X109191622Y-93604397D01*
X109191620Y-93604395D01*
X109187381Y-93600477D01*
X109071037Y-93527069D01*
X109013434Y-93490724D01*
X109013433Y-93490724D01*
X109008554Y-93487645D01*
X108812160Y-93409292D01*
X108806503Y-93408167D01*
X108806497Y-93408165D01*
X108609234Y-93368928D01*
X108546324Y-93336021D01*
X108511192Y-93274326D01*
X108514992Y-93203431D01*
X108556517Y-93145845D01*
X108615734Y-93120653D01*
X108748015Y-93101473D01*
X108748019Y-93101472D01*
X108753730Y-93100644D01*
X108822523Y-93077292D01*
X108948483Y-93034535D01*
X108948488Y-93034533D01*
X108953955Y-93032677D01*
X108969917Y-93023738D01*
X109133395Y-92932186D01*
X109133399Y-92932183D01*
X109138442Y-92929359D01*
X109301012Y-92794152D01*
X109436219Y-92631582D01*
X109439043Y-92626539D01*
X109439046Y-92626535D01*
X109536713Y-92452138D01*
X109536714Y-92452136D01*
X109539537Y-92447095D01*
X109541393Y-92441628D01*
X109541395Y-92441623D01*
X109599191Y-92271360D01*
X109607504Y-92246870D01*
X109608635Y-92239074D01*
X109637314Y-92041280D01*
X109637314Y-92041278D01*
X109637846Y-92037610D01*
X109639429Y-91977140D01*
X109620081Y-91766580D01*
X109612912Y-91741160D01*
X109613672Y-91670169D01*
X109652693Y-91610858D01*
X109662275Y-91603960D01*
X109665774Y-91602446D01*
X109677460Y-91592983D01*
X109696045Y-91580495D01*
X109709227Y-91573248D01*
X109717341Y-91566244D01*
X109741877Y-91541708D01*
X109751678Y-91532883D01*
X109776311Y-91512935D01*
X109776312Y-91512934D01*
X109782989Y-91507527D01*
X109787962Y-91500529D01*
X109787967Y-91500524D01*
X109793887Y-91492193D01*
X109807498Y-91476087D01*
X110655760Y-90627825D01*
X110718072Y-90593799D01*
X110744855Y-90590920D01*
X115518605Y-90590920D01*
X115586726Y-90610922D01*
X115607700Y-90627825D01*
X115830987Y-90851112D01*
X115865013Y-90913424D01*
X115859948Y-90984239D01*
X115817401Y-91041075D01*
X115809122Y-91046230D01*
X115803894Y-91050028D01*
X115795061Y-91054529D01*
X115707929Y-91141661D01*
X115651987Y-91251454D01*
X115637560Y-91342544D01*
X115637560Y-91816776D01*
X115651987Y-91907866D01*
X115656488Y-91916699D01*
X115656488Y-91916700D01*
X115675892Y-91954783D01*
X115707929Y-92017659D01*
X115795061Y-92104791D01*
X115823658Y-92119362D01*
X115888333Y-92152315D01*
X115904854Y-92160733D01*
X115995944Y-92175160D01*
X117090176Y-92175160D01*
X117181266Y-92160733D01*
X117219420Y-92141293D01*
X117276622Y-92127560D01*
X117981701Y-92127560D01*
X118049822Y-92147562D01*
X118096315Y-92201218D01*
X118106419Y-92271492D01*
X118076925Y-92336072D01*
X118070874Y-92342578D01*
X117961654Y-92451989D01*
X117952642Y-92463400D01*
X117870636Y-92596440D01*
X117864489Y-92609621D01*
X117815149Y-92758374D01*
X117812282Y-92771750D01*
X117802968Y-92862657D01*
X117802711Y-92867686D01*
X117807115Y-92882684D01*
X117808505Y-92883889D01*
X117816188Y-92885560D01*
X119750525Y-92885560D01*
X119765764Y-92881085D01*
X119766969Y-92879695D01*
X119768640Y-92872012D01*
X119768640Y-92869122D01*
X119768303Y-92862607D01*
X119758746Y-92770503D01*
X119755852Y-92757104D01*
X119706259Y-92608453D01*
X119700085Y-92595274D01*
X119617852Y-92462387D01*
X119608816Y-92450986D01*
X119500374Y-92342733D01*
X119466295Y-92280451D01*
X119471298Y-92209630D01*
X119513795Y-92152758D01*
X119580294Y-92127889D01*
X119589392Y-92127560D01*
X119888267Y-92127560D01*
X119893544Y-92127671D01*
X119955554Y-92130270D01*
X119967108Y-92127560D01*
X119997922Y-92120333D01*
X120009593Y-92118170D01*
X120033748Y-92114861D01*
X120052692Y-92112266D01*
X120066490Y-92106295D01*
X120087759Y-92099261D01*
X120094035Y-92097789D01*
X120102396Y-92095828D01*
X120109921Y-92091691D01*
X120109924Y-92091690D01*
X120140528Y-92074865D01*
X120151173Y-92069649D01*
X120191115Y-92052365D01*
X120202801Y-92042902D01*
X120221386Y-92030414D01*
X120228778Y-92026350D01*
X120234568Y-92023167D01*
X120242682Y-92016163D01*
X120267218Y-91991627D01*
X120277017Y-91982803D01*
X120292480Y-91970281D01*
X120358008Y-91942955D01*
X120371776Y-91942200D01*
X124179780Y-91942200D01*
X124247901Y-91962202D01*
X124294394Y-92015858D01*
X124305780Y-92068200D01*
X124305780Y-93309085D01*
X124306362Y-93313330D01*
X124306362Y-93313337D01*
X124312882Y-93360929D01*
X124321074Y-93420732D01*
X124324486Y-93428616D01*
X124324486Y-93428617D01*
X124344241Y-93474267D01*
X124380975Y-93559155D01*
X124386382Y-93565832D01*
X124419003Y-93606115D01*
X124417772Y-93607112D01*
X124420093Y-93609116D01*
X124420393Y-93608840D01*
X124422780Y-93611437D01*
X124422792Y-93611447D01*
X124426202Y-93615156D01*
X124426624Y-93615763D01*
X124429718Y-93619347D01*
X124475894Y-93676370D01*
X124484046Y-93682163D01*
X124484144Y-93682233D01*
X124503896Y-93699647D01*
X124522479Y-93719856D01*
X124568889Y-93748631D01*
X124643367Y-93794810D01*
X124643370Y-93794811D01*
X124650666Y-93799335D01*
X124795505Y-93841415D01*
X124802483Y-93841927D01*
X124803888Y-93842031D01*
X124803899Y-93842031D01*
X124806195Y-93842200D01*
X129546638Y-93842200D01*
X129588386Y-93849317D01*
X129702011Y-93889219D01*
X129700920Y-93892327D01*
X129750083Y-93919249D01*
X129784033Y-93981602D01*
X129786880Y-94008237D01*
X129786880Y-94692179D01*
X129766878Y-94760300D01*
X129713222Y-94806793D01*
X129642948Y-94816897D01*
X129578368Y-94787403D01*
X129571862Y-94781352D01*
X129472892Y-94682554D01*
X129461480Y-94673542D01*
X129328440Y-94591536D01*
X129315259Y-94585389D01*
X129166506Y-94536049D01*
X129153130Y-94533182D01*
X129062223Y-94523868D01*
X129057194Y-94523611D01*
X129042196Y-94528015D01*
X129040991Y-94529405D01*
X129039320Y-94537088D01*
X129039320Y-96471425D01*
X129043795Y-96486664D01*
X129045185Y-96487869D01*
X129052868Y-96489540D01*
X129055758Y-96489540D01*
X129062273Y-96489203D01*
X129154377Y-96479646D01*
X129167776Y-96476752D01*
X129316427Y-96427159D01*
X129329606Y-96420985D01*
X129462493Y-96338752D01*
X129473894Y-96329716D01*
X129584306Y-96219111D01*
X129593318Y-96207700D01*
X129597653Y-96200667D01*
X129650425Y-96153174D01*
X129720496Y-96141750D01*
X129781093Y-96166421D01*
X129849925Y-96218668D01*
X129983792Y-96271669D01*
X130069491Y-96282040D01*
X130335144Y-96282040D01*
X130601148Y-96282039D01*
X130604905Y-96281584D01*
X130604911Y-96281584D01*
X130678815Y-96272641D01*
X130686848Y-96271669D01*
X130694371Y-96268691D01*
X130694373Y-96268690D01*
X130786362Y-96232269D01*
X130820715Y-96218668D01*
X130935398Y-96131618D01*
X131022448Y-96016935D01*
X131075449Y-95883068D01*
X131085820Y-95797369D01*
X131085819Y-95215712D01*
X131085256Y-95211054D01*
X131076421Y-95138045D01*
X131075449Y-95130012D01*
X131072184Y-95121764D01*
X131043221Y-95048613D01*
X131022448Y-94996145D01*
X130935398Y-94881462D01*
X130928559Y-94876271D01*
X130924785Y-94872497D01*
X130890759Y-94810185D01*
X130887880Y-94783402D01*
X130887880Y-93981981D01*
X130907882Y-93913860D01*
X130961538Y-93867367D01*
X130972131Y-93863098D01*
X130973256Y-93862703D01*
X131025564Y-93844334D01*
X131033134Y-93838742D01*
X131033137Y-93838741D01*
X131126959Y-93769442D01*
X131134530Y-93763850D01*
X131163163Y-93725084D01*
X131209421Y-93662457D01*
X131209422Y-93662454D01*
X131215014Y-93654884D01*
X131259899Y-93527069D01*
X131262880Y-93495534D01*
X131611880Y-93495534D01*
X131614861Y-93527069D01*
X131659746Y-93654884D01*
X131665338Y-93662454D01*
X131665339Y-93662457D01*
X131711597Y-93725084D01*
X131740230Y-93763850D01*
X131747801Y-93769442D01*
X131841623Y-93838741D01*
X131841626Y-93838742D01*
X131849196Y-93844334D01*
X131977011Y-93889219D01*
X131984657Y-93889942D01*
X131984658Y-93889942D01*
X131990628Y-93890506D01*
X132008546Y-93892200D01*
X133141214Y-93892200D01*
X133159132Y-93890506D01*
X133165102Y-93889942D01*
X133165103Y-93889942D01*
X133172749Y-93889219D01*
X133300564Y-93844334D01*
X133308134Y-93838742D01*
X133308137Y-93838741D01*
X133401959Y-93769442D01*
X133409530Y-93763850D01*
X133438163Y-93725084D01*
X133484421Y-93662457D01*
X133484422Y-93662454D01*
X133490014Y-93654884D01*
X133534899Y-93527069D01*
X133537880Y-93495534D01*
X133537880Y-93087866D01*
X133534899Y-93056331D01*
X133490014Y-92928516D01*
X133484422Y-92920946D01*
X133484421Y-92920943D01*
X133415122Y-92827121D01*
X133409530Y-92819550D01*
X133369136Y-92789714D01*
X133308137Y-92744659D01*
X133308134Y-92744658D01*
X133300564Y-92739066D01*
X133172749Y-92694181D01*
X133165103Y-92693458D01*
X133165102Y-92693458D01*
X133159132Y-92692894D01*
X133141214Y-92691200D01*
X132008546Y-92691200D01*
X131990628Y-92692894D01*
X131984658Y-92693458D01*
X131984657Y-92693458D01*
X131977011Y-92694181D01*
X131849196Y-92739066D01*
X131841626Y-92744658D01*
X131841623Y-92744659D01*
X131780624Y-92789714D01*
X131740230Y-92819550D01*
X131734638Y-92827121D01*
X131665339Y-92920943D01*
X131665338Y-92920946D01*
X131659746Y-92928516D01*
X131614861Y-93056331D01*
X131611880Y-93087866D01*
X131611880Y-93495534D01*
X131262880Y-93495534D01*
X131262880Y-93087866D01*
X131259899Y-93056331D01*
X131259395Y-93054897D01*
X131264149Y-92986718D01*
X131293188Y-92941445D01*
X131330829Y-92903804D01*
X131340469Y-92891378D01*
X131417028Y-92761921D01*
X131423273Y-92747490D01*
X131462319Y-92613095D01*
X131462279Y-92598994D01*
X131455010Y-92595700D01*
X129150502Y-92595700D01*
X129136971Y-92599673D01*
X129132386Y-92631564D01*
X129128078Y-92630945D01*
X129126007Y-92659383D01*
X129083388Y-92716165D01*
X129016836Y-92740890D01*
X129008008Y-92741200D01*
X125532780Y-92741200D01*
X125464659Y-92721198D01*
X125418166Y-92667542D01*
X125406780Y-92615200D01*
X125406780Y-92068200D01*
X125426782Y-92000079D01*
X125480438Y-91953586D01*
X125532780Y-91942200D01*
X129011435Y-91942200D01*
X129079556Y-91962202D01*
X129126049Y-92015858D01*
X129137434Y-92067843D01*
X129137481Y-92084406D01*
X129144750Y-92087700D01*
X131449258Y-92087700D01*
X131462789Y-92083727D01*
X131463924Y-92075829D01*
X131423273Y-91935910D01*
X131417028Y-91921479D01*
X131340469Y-91792022D01*
X131330829Y-91779596D01*
X131293188Y-91741955D01*
X131259162Y-91679643D01*
X131259208Y-91629036D01*
X131259899Y-91627069D01*
X131262880Y-91595534D01*
X131262880Y-91187866D01*
X131259899Y-91156331D01*
X131215014Y-91028516D01*
X131209422Y-91020946D01*
X131209421Y-91020943D01*
X131140122Y-90927121D01*
X131134530Y-90919550D01*
X131097285Y-90892040D01*
X131033137Y-90844659D01*
X131033134Y-90844658D01*
X131025564Y-90839066D01*
X130897749Y-90794181D01*
X130890103Y-90793458D01*
X130890102Y-90793458D01*
X130884132Y-90792894D01*
X130866214Y-90791200D01*
X129733546Y-90791200D01*
X129715628Y-90792894D01*
X129709658Y-90793458D01*
X129709657Y-90793458D01*
X129702011Y-90794181D01*
X129589773Y-90833596D01*
X129588386Y-90834083D01*
X129546638Y-90841200D01*
X124881572Y-90841200D01*
X124872344Y-90840862D01*
X124829954Y-90837749D01*
X124821389Y-90837120D01*
X124813250Y-90838761D01*
X124812280Y-90838838D01*
X124803986Y-90838490D01*
X124795624Y-90840451D01*
X124793618Y-90840641D01*
X124781760Y-90841200D01*
X120103613Y-90841200D01*
X120098337Y-90841089D01*
X120093930Y-90840904D01*
X120036326Y-90838490D01*
X120027961Y-90840452D01*
X119993958Y-90848427D01*
X119982287Y-90850590D01*
X119978477Y-90851112D01*
X119939188Y-90856494D01*
X119931304Y-90859906D01*
X119931303Y-90859906D01*
X119925390Y-90862465D01*
X119904121Y-90869499D01*
X119889484Y-90872932D01*
X119881959Y-90877069D01*
X119881956Y-90877070D01*
X119851352Y-90893895D01*
X119840707Y-90899111D01*
X119800765Y-90916395D01*
X119789079Y-90925858D01*
X119770495Y-90938345D01*
X119757312Y-90945593D01*
X119749198Y-90952597D01*
X119724662Y-90977133D01*
X119714863Y-90985957D01*
X119699400Y-90998479D01*
X119633872Y-91025805D01*
X119620104Y-91026560D01*
X119498338Y-91026560D01*
X119430217Y-91006558D01*
X119413380Y-90992989D01*
X119410718Y-90989482D01*
X119296035Y-90902432D01*
X119162168Y-90849431D01*
X119076469Y-90839060D01*
X118785832Y-90839060D01*
X118494812Y-90839061D01*
X118491055Y-90839516D01*
X118491049Y-90839516D01*
X118421514Y-90847930D01*
X118409112Y-90849431D01*
X118401589Y-90852409D01*
X118401587Y-90852410D01*
X118339303Y-90877070D01*
X118275245Y-90902432D01*
X118160562Y-90989482D01*
X118159294Y-90991153D01*
X118099725Y-91023681D01*
X118072942Y-91026560D01*
X117266417Y-91026560D01*
X117209215Y-91012827D01*
X117190105Y-91003090D01*
X117190101Y-91003089D01*
X117181266Y-90998587D01*
X117174308Y-90997485D01*
X117117020Y-90958313D01*
X117089382Y-90892917D01*
X117088560Y-90878552D01*
X117088560Y-90794653D01*
X117088671Y-90789377D01*
X117090910Y-90735951D01*
X117091270Y-90727366D01*
X117088897Y-90717248D01*
X117081333Y-90684998D01*
X117079170Y-90673327D01*
X117074578Y-90639806D01*
X117073266Y-90630228D01*
X117067295Y-90616430D01*
X117060261Y-90595161D01*
X117058790Y-90588888D01*
X117058789Y-90588886D01*
X117056828Y-90580524D01*
X117035865Y-90542394D01*
X117030643Y-90531733D01*
X117016776Y-90499687D01*
X117016775Y-90499686D01*
X117013365Y-90491805D01*
X117003902Y-90480119D01*
X116991411Y-90461531D01*
X116984166Y-90448352D01*
X116977163Y-90440238D01*
X116952627Y-90415702D01*
X116943802Y-90405901D01*
X116923854Y-90381268D01*
X116923853Y-90381267D01*
X116918446Y-90374590D01*
X116903115Y-90363694D01*
X116887009Y-90350084D01*
X116198690Y-89661766D01*
X116195037Y-89657956D01*
X116173632Y-89634678D01*
X116153021Y-89612264D01*
X116116018Y-89589321D01*
X116106268Y-89582620D01*
X116071603Y-89556308D01*
X116057624Y-89550774D01*
X116037618Y-89540711D01*
X116026129Y-89533588D01*
X115978772Y-89480694D01*
X115967530Y-89410593D01*
X115995972Y-89345542D01*
X116055068Y-89306195D01*
X116092522Y-89300500D01*
X210812105Y-89300500D01*
X210880226Y-89320502D01*
G37*
G04 #@! TD.AperFunction*
G04 #@! TA.AperFunction,Conductor*
G36*
X104860661Y-94962642D02*
G01*
X104906966Y-95015889D01*
X104933203Y-95072801D01*
X104943369Y-95094854D01*
X105065405Y-95267531D01*
X105093018Y-95294430D01*
X105211858Y-95410199D01*
X105216865Y-95415077D01*
X105221661Y-95418282D01*
X105221664Y-95418284D01*
X105320704Y-95484460D01*
X105392677Y-95532551D01*
X105397985Y-95534832D01*
X105397986Y-95534832D01*
X105581650Y-95613740D01*
X105581653Y-95613741D01*
X105586953Y-95616018D01*
X105592582Y-95617292D01*
X105592583Y-95617292D01*
X105787550Y-95661409D01*
X105787553Y-95661409D01*
X105793186Y-95662684D01*
X105798958Y-95662911D01*
X105804687Y-95663665D01*
X105804327Y-95666397D01*
X105860604Y-95685356D01*
X105904950Y-95740799D01*
X105912282Y-95811416D01*
X105880271Y-95874787D01*
X105819081Y-95910791D01*
X105809705Y-95912772D01*
X105775676Y-95918619D01*
X105650650Y-95940102D01*
X105650649Y-95940102D01*
X105644953Y-95941081D01*
X105446575Y-96014267D01*
X105441614Y-96017219D01*
X105441613Y-96017219D01*
X105289528Y-96107700D01*
X105264856Y-96122378D01*
X105105881Y-96261795D01*
X104974976Y-96427848D01*
X104972287Y-96432959D01*
X104972285Y-96432962D01*
X104922400Y-96527778D01*
X104876523Y-96614976D01*
X104813820Y-96816913D01*
X104788967Y-97026894D01*
X104802796Y-97237889D01*
X104804217Y-97243485D01*
X104804218Y-97243490D01*
X104847239Y-97412881D01*
X104854845Y-97442830D01*
X104857262Y-97448073D01*
X104906008Y-97553812D01*
X104943369Y-97634854D01*
X105065405Y-97807531D01*
X105069539Y-97811558D01*
X105204078Y-97942620D01*
X105216865Y-97955077D01*
X105221661Y-97958282D01*
X105221664Y-97958284D01*
X105323706Y-98026466D01*
X105392677Y-98072551D01*
X105397985Y-98074832D01*
X105397986Y-98074832D01*
X105581650Y-98153740D01*
X105581653Y-98153741D01*
X105586953Y-98156018D01*
X105592582Y-98157292D01*
X105592583Y-98157292D01*
X105787550Y-98201409D01*
X105787553Y-98201409D01*
X105793186Y-98202684D01*
X105798957Y-98202911D01*
X105798959Y-98202911D01*
X105860989Y-98205348D01*
X106004470Y-98210986D01*
X106010179Y-98210158D01*
X106010183Y-98210158D01*
X106208015Y-98181473D01*
X106208019Y-98181472D01*
X106213730Y-98180644D01*
X106291567Y-98154222D01*
X106408483Y-98114535D01*
X106408488Y-98114533D01*
X106413955Y-98112677D01*
X106429965Y-98103711D01*
X106593395Y-98012186D01*
X106593399Y-98012183D01*
X106598442Y-98009359D01*
X106602887Y-98005662D01*
X106607645Y-98002392D01*
X106609065Y-98004459D01*
X106664385Y-97980549D01*
X106734438Y-97992087D01*
X106787132Y-98039667D01*
X106805762Y-98106280D01*
X106805202Y-98210986D01*
X106804556Y-98331626D01*
X106804500Y-98332312D01*
X106804192Y-98333259D01*
X106804192Y-98399245D01*
X106804190Y-98399917D01*
X106804019Y-98431862D01*
X106804167Y-98432827D01*
X106804192Y-98433519D01*
X106804192Y-98468045D01*
X106807256Y-98477473D01*
X106807256Y-98477476D01*
X106811145Y-98489443D01*
X106815866Y-98509341D01*
X106819266Y-98531583D01*
X106823721Y-98540443D01*
X106830712Y-98554347D01*
X106837974Y-98572013D01*
X106845843Y-98596233D01*
X106851671Y-98604254D01*
X106856175Y-98613095D01*
X106854351Y-98614024D01*
X106873948Y-98668942D01*
X106857870Y-98738094D01*
X106806959Y-98787576D01*
X106748154Y-98802140D01*
X102948578Y-98802140D01*
X102880457Y-98782138D01*
X102859483Y-98765235D01*
X102753285Y-98659037D01*
X102719259Y-98596725D01*
X102716380Y-98569942D01*
X102716380Y-95463198D01*
X102736382Y-95395077D01*
X102753285Y-95374103D01*
X103147843Y-94979545D01*
X103210155Y-94945519D01*
X103236938Y-94942640D01*
X104792540Y-94942640D01*
X104860661Y-94962642D01*
G37*
G04 #@! TD.AperFunction*
G04 #@! TA.AperFunction,Conductor*
G36*
X212995644Y-90070502D02*
G01*
X213042137Y-90124158D01*
X213052241Y-90194432D01*
X213022747Y-90259012D01*
X213010355Y-90271446D01*
X212888403Y-90377831D01*
X212790912Y-90516547D01*
X212729323Y-90674513D01*
X212728331Y-90682046D01*
X212728331Y-90682047D01*
X212708316Y-90834083D01*
X212707193Y-90842611D01*
X212725798Y-91011135D01*
X212751912Y-91082494D01*
X212778933Y-91156331D01*
X212784065Y-91170356D01*
X212788298Y-91176656D01*
X212788303Y-91176665D01*
X212871064Y-91299827D01*
X212892456Y-91367524D01*
X212873852Y-91436040D01*
X212842047Y-91470928D01*
X212825814Y-91483094D01*
X212820432Y-91490275D01*
X212745216Y-91590634D01*
X212745214Y-91590637D01*
X212739834Y-91597816D01*
X212729449Y-91625519D01*
X212702406Y-91697658D01*
X212689509Y-91732060D01*
X212688656Y-91739910D01*
X212688656Y-91739911D01*
X212686363Y-91761019D01*
X212682860Y-91793263D01*
X212682861Y-92438016D01*
X212683230Y-92441410D01*
X212683230Y-92441416D01*
X212684379Y-92451989D01*
X212689509Y-92499220D01*
X212739834Y-92633464D01*
X212745214Y-92640643D01*
X212745216Y-92640646D01*
X212816641Y-92735947D01*
X212825814Y-92748186D01*
X212832995Y-92753568D01*
X212936864Y-92831414D01*
X212979379Y-92888274D01*
X212987299Y-92932240D01*
X212987299Y-92965873D01*
X212967297Y-93033994D01*
X212937479Y-93066235D01*
X212841550Y-93139050D01*
X212828202Y-93149182D01*
X212741152Y-93263865D01*
X212688151Y-93397732D01*
X212677780Y-93483431D01*
X212677781Y-94065088D01*
X212678236Y-94068845D01*
X212678236Y-94068851D01*
X212682377Y-94103071D01*
X212688151Y-94150788D01*
X212691129Y-94158311D01*
X212691130Y-94158313D01*
X212711738Y-94210362D01*
X212741152Y-94284655D01*
X212828202Y-94399338D01*
X212835042Y-94404530D01*
X212937479Y-94482285D01*
X212979646Y-94539403D01*
X212987299Y-94582647D01*
X212987299Y-95003200D01*
X212967297Y-95071321D01*
X212913641Y-95117814D01*
X212861299Y-95129200D01*
X212849198Y-95129200D01*
X212781077Y-95109198D01*
X212760103Y-95092295D01*
X212188845Y-94521037D01*
X212154819Y-94458725D01*
X212153197Y-94414189D01*
X212154829Y-94402723D01*
X212154829Y-94402717D01*
X212155410Y-94398638D01*
X212155565Y-94383860D01*
X212154869Y-94378104D01*
X212142623Y-94276913D01*
X212135196Y-94215540D01*
X212075265Y-94056937D01*
X212023651Y-93981839D01*
X211983534Y-93923468D01*
X211983533Y-93923467D01*
X211979232Y-93917209D01*
X211973039Y-93911691D01*
X211858312Y-93809472D01*
X211858308Y-93809470D01*
X211852641Y-93804420D01*
X211843038Y-93799335D01*
X211761718Y-93756279D01*
X211702801Y-93725084D01*
X211538361Y-93683779D01*
X211530763Y-93683739D01*
X211530761Y-93683739D01*
X211453588Y-93683335D01*
X211368815Y-93682891D01*
X211361428Y-93684665D01*
X211361424Y-93684665D01*
X211275718Y-93705242D01*
X211229252Y-93716398D01*
X211158344Y-93712852D01*
X211100610Y-93671533D01*
X211074379Y-93605559D01*
X211080244Y-93554212D01*
X211125011Y-93419246D01*
X211127878Y-93405870D01*
X211137192Y-93314963D01*
X211137449Y-93309934D01*
X211133045Y-93294936D01*
X211131655Y-93293731D01*
X211123972Y-93292060D01*
X210426635Y-93292060D01*
X210411396Y-93296535D01*
X210410191Y-93297925D01*
X210408520Y-93305608D01*
X210408520Y-93977945D01*
X210412995Y-93993184D01*
X210414385Y-93994389D01*
X210422068Y-93996060D01*
X210449958Y-93996060D01*
X210456473Y-93995723D01*
X210548577Y-93986166D01*
X210561976Y-93983272D01*
X210643037Y-93956228D01*
X210713986Y-93953644D01*
X210775070Y-93989827D01*
X210806895Y-94053292D01*
X210800306Y-94121522D01*
X210772978Y-94191615D01*
X210766444Y-94208373D01*
X210765452Y-94215906D01*
X210765452Y-94215907D01*
X210749487Y-94337181D01*
X210744314Y-94376471D01*
X210762919Y-94544995D01*
X210790235Y-94619639D01*
X210811530Y-94677829D01*
X210821186Y-94704216D01*
X210915750Y-94844943D01*
X210921362Y-94850050D01*
X210921365Y-94850053D01*
X211035532Y-94953937D01*
X211035536Y-94953940D01*
X211041153Y-94959051D01*
X211047826Y-94962674D01*
X211047830Y-94962677D01*
X211183478Y-95036327D01*
X211183480Y-95036328D01*
X211190155Y-95039952D01*
X211197504Y-95041880D01*
X211346803Y-95081048D01*
X211346805Y-95081048D01*
X211354153Y-95082976D01*
X211439092Y-95084310D01*
X211499342Y-95085257D01*
X211567140Y-95106326D01*
X211586458Y-95122146D01*
X212255818Y-95791506D01*
X212289844Y-95853818D01*
X212284779Y-95924633D01*
X212242232Y-95981469D01*
X212175712Y-96006280D01*
X212166723Y-96006601D01*
X209380140Y-96006601D01*
X209312019Y-95986599D01*
X209265526Y-95932943D01*
X209254140Y-95880601D01*
X209254140Y-93948788D01*
X209274142Y-93880667D01*
X209327798Y-93834174D01*
X209398072Y-93824070D01*
X209445710Y-93844519D01*
X209447129Y-93842217D01*
X209586400Y-93928064D01*
X209599581Y-93934211D01*
X209748334Y-93983551D01*
X209761710Y-93986418D01*
X209852617Y-93995732D01*
X209859033Y-93996060D01*
X209882405Y-93996060D01*
X209897644Y-93991585D01*
X209898849Y-93990195D01*
X209900520Y-93982512D01*
X209900520Y-92910060D01*
X209920522Y-92841939D01*
X209974178Y-92795446D01*
X210026520Y-92784060D01*
X211119405Y-92784060D01*
X211134644Y-92779585D01*
X211135849Y-92778195D01*
X211137520Y-92770512D01*
X211137520Y-92767622D01*
X211137183Y-92761107D01*
X211127626Y-92669003D01*
X211124732Y-92655604D01*
X211075139Y-92506953D01*
X211068965Y-92493774D01*
X210986732Y-92360887D01*
X210977696Y-92349486D01*
X210867091Y-92239074D01*
X210855680Y-92230062D01*
X210848647Y-92225727D01*
X210801154Y-92172955D01*
X210789730Y-92102884D01*
X210814401Y-92042287D01*
X210814554Y-92042086D01*
X210866648Y-91973455D01*
X210919649Y-91839588D01*
X210930020Y-91753889D01*
X210930019Y-91222232D01*
X210926219Y-91190829D01*
X210920621Y-91144562D01*
X210920620Y-91144559D01*
X210919649Y-91136532D01*
X210919533Y-91136240D01*
X210922024Y-91068818D01*
X210952539Y-91019552D01*
X211103594Y-90868862D01*
X211887049Y-90087297D01*
X211949403Y-90053347D01*
X211976037Y-90050500D01*
X212927523Y-90050500D01*
X212995644Y-90070502D01*
G37*
G04 #@! TD.AperFunction*
M02*
