G04 #@! TF.GenerationSoftware,KiCad,Pcbnew,7.0.10*
G04 #@! TF.CreationDate,2024-02-20T19:33:16+01:00*
G04 #@! TF.ProjectId,IM72D128-Tube-PCB,494d3732-4431-4323-982d-547562652d50,rev?*
G04 #@! TF.SameCoordinates,Original*
G04 #@! TF.FileFunction,Copper,L1,Top*
G04 #@! TF.FilePolarity,Positive*
%FSLAX46Y46*%
G04 Gerber Fmt 4.6, Leading zero omitted, Abs format (unit mm)*
G04 Created by KiCad (PCBNEW 7.0.10) date 2024-02-20 19:33:16*
%MOMM*%
%LPD*%
G01*
G04 APERTURE LIST*
G04 Aperture macros list*
%AMRoundRect*
0 Rectangle with rounded corners*
0 $1 Rounding radius*
0 $2 $3 $4 $5 $6 $7 $8 $9 X,Y pos of 4 corners*
0 Add a 4 corners polygon primitive as box body*
4,1,4,$2,$3,$4,$5,$6,$7,$8,$9,$2,$3,0*
0 Add four circle primitives for the rounded corners*
1,1,$1+$1,$2,$3*
1,1,$1+$1,$4,$5*
1,1,$1+$1,$6,$7*
1,1,$1+$1,$8,$9*
0 Add four rect primitives between the rounded corners*
20,1,$1+$1,$2,$3,$4,$5,0*
20,1,$1+$1,$4,$5,$6,$7,0*
20,1,$1+$1,$6,$7,$8,$9,0*
20,1,$1+$1,$8,$9,$2,$3,0*%
G04 Aperture macros list end*
G04 #@! TA.AperFunction,ComponentPad*
%ADD10R,1.700000X1.700000*%
G04 #@! TD*
G04 #@! TA.AperFunction,ComponentPad*
%ADD11O,1.700000X1.700000*%
G04 #@! TD*
G04 #@! TA.AperFunction,SMDPad,CuDef*
%ADD12RoundRect,0.225000X0.225000X0.250000X-0.225000X0.250000X-0.225000X-0.250000X0.225000X-0.250000X0*%
G04 #@! TD*
G04 #@! TA.AperFunction,SMDPad,CuDef*
%ADD13RoundRect,0.225000X-0.250000X0.225000X-0.250000X-0.225000X0.250000X-0.225000X0.250000X0.225000X0*%
G04 #@! TD*
G04 #@! TA.AperFunction,SMDPad,CuDef*
%ADD14RoundRect,0.225000X-0.225000X-0.250000X0.225000X-0.250000X0.225000X0.250000X-0.225000X0.250000X0*%
G04 #@! TD*
G04 #@! TA.AperFunction,SMDPad,CuDef*
%ADD15RoundRect,0.200000X-0.200000X-0.275000X0.200000X-0.275000X0.200000X0.275000X-0.200000X0.275000X0*%
G04 #@! TD*
G04 #@! TA.AperFunction,SMDPad,CuDef*
%ADD16RoundRect,0.150000X-0.512500X-0.150000X0.512500X-0.150000X0.512500X0.150000X-0.512500X0.150000X0*%
G04 #@! TD*
G04 #@! TA.AperFunction,SMDPad,CuDef*
%ADD17C,0.304800*%
G04 #@! TD*
G04 #@! TA.AperFunction,SMDPad,CuDef*
%ADD18R,2.000000X1.000000*%
G04 #@! TD*
G04 #@! TA.AperFunction,SMDPad,CuDef*
%ADD19RoundRect,0.088500X-0.516500X-0.206500X0.516500X-0.206500X0.516500X0.206500X-0.516500X0.206500X0*%
G04 #@! TD*
G04 #@! TA.AperFunction,ViaPad*
%ADD20C,0.800000*%
G04 #@! TD*
G04 #@! TA.AperFunction,Conductor*
%ADD21C,0.500000*%
G04 #@! TD*
G04 #@! TA.AperFunction,Conductor*
%ADD22C,0.100000*%
G04 #@! TD*
G04 #@! TA.AperFunction,Conductor*
%ADD23C,0.250000*%
G04 #@! TD*
G04 #@! TA.AperFunction,Conductor*
%ADD24C,0.251000*%
G04 #@! TD*
G04 APERTURE END LIST*
D10*
X105944000Y-91977140D03*
D11*
X108484000Y-91977140D03*
X105944000Y-94517140D03*
X108484000Y-94517140D03*
X105944000Y-97057140D03*
X108484000Y-97057140D03*
D12*
X130335320Y-95506540D03*
X128785320Y-95506540D03*
D13*
X135757920Y-91421920D03*
X135757920Y-92971920D03*
X210154520Y-91488060D03*
X210154520Y-93038060D03*
X157988000Y-92681760D03*
X157988000Y-94231760D03*
D14*
X213428280Y-93774260D03*
X214978280Y-93774260D03*
D15*
X213383360Y-92115640D03*
X215033360Y-92115640D03*
D16*
X130299880Y-91391700D03*
X130299880Y-92341700D03*
X130299880Y-93291700D03*
X132574880Y-93291700D03*
X132574880Y-91391700D03*
D17*
X213490200Y-95154700D03*
X213890200Y-95154700D03*
X213490200Y-95554700D03*
X213890200Y-95554700D03*
X213490200Y-95954700D03*
X213890200Y-95954700D03*
X213490200Y-96354700D03*
X213890200Y-96354700D03*
D18*
X228950000Y-91400000D03*
X228950000Y-97600000D03*
D13*
X118785640Y-91589560D03*
X118785640Y-93139560D03*
X154813000Y-92620800D03*
X154813000Y-94170800D03*
D19*
X114033060Y-91579660D03*
X114033060Y-92529660D03*
X114033060Y-93479660D03*
X116543060Y-93479660D03*
X116543060Y-91579660D03*
X149948660Y-93395760D03*
X149948660Y-94345760D03*
X149948660Y-95295760D03*
X152458660Y-95295760D03*
X152458660Y-93395760D03*
X160337260Y-95770660D03*
X160337260Y-96720660D03*
X160337260Y-97670660D03*
X162847260Y-97670660D03*
X162847260Y-95770660D03*
D20*
X138473180Y-95295760D03*
X221200000Y-95740000D03*
X156317950Y-95332550D03*
X126979680Y-92351280D03*
X104140000Y-97790000D03*
X158056580Y-97680780D03*
X138473180Y-92991940D03*
X222198920Y-99128300D03*
X101600000Y-91440000D03*
X146893240Y-95295760D03*
X126979680Y-94851280D03*
X221200000Y-95740000D03*
X210157060Y-95206820D03*
X116608860Y-95102680D03*
X221380000Y-91500000D03*
X213412799Y-90850000D03*
X155262580Y-96791780D03*
X155260040Y-98672040D03*
X111760000Y-94952820D03*
X211449920Y-94383860D03*
X218090500Y-95077299D03*
D21*
X126904711Y-94921031D02*
X126918720Y-94907021D01*
X138473180Y-92991940D02*
X138473180Y-92991940D01*
X210157060Y-95206820D02*
X210157060Y-95206820D01*
X146893240Y-95295760D02*
X138473180Y-95295760D01*
D22*
X211783780Y-95952460D02*
X211783780Y-95954700D01*
D21*
X114038060Y-97046100D02*
X114035840Y-97048320D01*
X157927040Y-94183300D02*
X157988000Y-94244260D01*
D23*
X210154520Y-93050560D02*
X210629520Y-93050560D01*
D21*
X127000000Y-95437285D02*
X127000000Y-96951800D01*
X136240440Y-92991940D02*
X138473180Y-92991940D01*
X130327800Y-92351280D02*
X130337380Y-92341700D01*
D23*
X221200000Y-96573360D02*
X222226640Y-97600000D01*
D21*
X118818660Y-97048320D02*
X126894660Y-97057140D01*
D23*
X212356700Y-90100000D02*
X214962740Y-90100000D01*
D21*
X210154520Y-93050560D02*
X210154520Y-93488060D01*
X135757920Y-92984420D02*
X136232920Y-92984420D01*
X154813000Y-94183300D02*
X156301440Y-94188280D01*
X134406640Y-92329000D02*
X135062060Y-92984420D01*
X156317950Y-95332550D02*
X156317950Y-94204790D01*
X156317950Y-94204790D02*
X156301440Y-94188280D01*
X127490220Y-95506540D02*
X126904711Y-94921031D01*
X126979680Y-92351280D02*
X130327800Y-92351280D01*
X158056580Y-97680780D02*
X160332140Y-97680780D01*
X128772820Y-95981540D02*
X128772820Y-95506540D01*
X136232920Y-92984420D02*
X136240440Y-92991940D01*
X156301440Y-94188280D02*
X157927040Y-94183300D01*
X210157060Y-93490600D02*
X210157060Y-95206820D01*
D23*
X214990780Y-90100000D02*
X214990780Y-93774260D01*
D21*
X114038060Y-93479660D02*
X114038060Y-97046100D01*
X114035840Y-97048320D02*
X118818660Y-97048320D01*
X131367380Y-92341700D02*
X131380080Y-92329000D01*
D23*
X210629520Y-93050560D02*
X211861400Y-91818680D01*
X211861400Y-91818680D02*
X211861400Y-90454480D01*
D21*
X222226640Y-97600000D02*
X222198920Y-97627720D01*
X149953660Y-95295760D02*
X146893240Y-95295760D01*
X130317060Y-92362020D02*
X130337380Y-92341700D01*
X222198920Y-97627720D02*
X222198920Y-99128300D01*
X210154520Y-93488060D02*
X210157060Y-93490600D01*
X130337380Y-92341700D02*
X131367380Y-92341700D01*
X126979680Y-95416965D02*
X127000000Y-95437285D01*
D23*
X211489825Y-95954700D02*
X211783780Y-95954700D01*
X211861400Y-90454480D02*
X212356700Y-90100000D01*
D21*
X126979680Y-94851280D02*
X126979680Y-95416965D01*
X228950000Y-97600000D02*
X222226640Y-97600000D01*
X135062060Y-92984420D02*
X135757920Y-92984420D01*
D23*
X210157060Y-95206820D02*
X210722745Y-95206820D01*
D21*
X126894660Y-97057140D02*
X127000000Y-96951800D01*
X108484000Y-97057140D02*
X114035840Y-97048320D01*
X160332140Y-97680780D02*
X160342260Y-97670660D01*
X118785640Y-97015300D02*
X118818660Y-97048320D01*
D23*
X221200000Y-95740000D02*
X221200000Y-96573360D01*
X210722745Y-95206820D02*
X211489825Y-95954700D01*
D21*
X131380080Y-92329000D02*
X134406640Y-92329000D01*
D22*
X211783780Y-95952460D02*
X211786020Y-95954700D01*
D21*
X118785640Y-93152060D02*
X118785640Y-97015300D01*
D23*
X211786020Y-95954700D02*
X213490200Y-95954700D01*
D21*
X128772820Y-95506540D02*
X127490220Y-95506540D01*
X124876680Y-93291700D02*
X130337380Y-93291700D01*
X110464640Y-90040420D02*
X109377919Y-91127141D01*
X109377919Y-91127141D02*
X109333999Y-91127141D01*
X130337380Y-93291700D02*
X130337380Y-95496100D01*
X119903260Y-91577060D02*
X118785640Y-91577060D01*
D23*
X124856280Y-93271300D02*
X124876680Y-93291700D01*
D21*
X120088620Y-91391700D02*
X130337380Y-91391700D01*
X130323300Y-93277620D02*
X130337380Y-93291700D01*
X124805480Y-91442500D02*
X124856280Y-91391700D01*
X116540660Y-91577060D02*
X116538060Y-91579660D01*
X115798820Y-90040420D02*
X116538060Y-90779660D01*
X130337380Y-95496100D02*
X130347820Y-95506540D01*
X120088620Y-91391700D02*
X119903260Y-91577060D01*
X124856280Y-91391700D02*
X124856280Y-93271300D01*
X118785640Y-91577060D02*
X116540660Y-91577060D01*
X110464640Y-90040420D02*
X115798820Y-90040420D01*
X116538060Y-90779660D02*
X116538060Y-91579660D01*
X109333999Y-91127141D02*
X108484000Y-91977140D01*
D23*
X107442000Y-98612960D02*
X107229692Y-98400652D01*
X131056380Y-98612960D02*
X107442000Y-98612960D01*
X132671820Y-96997520D02*
X132542280Y-97119440D01*
X107243880Y-95750380D02*
X107243880Y-95737680D01*
X135315960Y-94345760D02*
X132542280Y-97119440D01*
X149953660Y-94345760D02*
X135315960Y-94345760D01*
X108484000Y-94517140D02*
X107634001Y-95367139D01*
X107634001Y-95367139D02*
X107627121Y-95367139D01*
X107627121Y-95367139D02*
X107243880Y-95750380D01*
X132542280Y-97119440D02*
X131056380Y-98612960D01*
X107229692Y-98400652D02*
X107243880Y-95750380D01*
X116608860Y-95102680D02*
X116608860Y-93550460D01*
X116608860Y-93550460D02*
X116538060Y-93479660D01*
X103008500Y-94517140D02*
X105944000Y-94517140D01*
X160342260Y-96720660D02*
X157553660Y-96720660D01*
X102290880Y-98798380D02*
X102720140Y-99227640D01*
X132816600Y-99227640D02*
X102720140Y-99227640D01*
X102290880Y-98534220D02*
X102290880Y-95234760D01*
X102290880Y-98534220D02*
X102290880Y-98798380D01*
X157553660Y-96720660D02*
X156606240Y-97708720D01*
X156606240Y-97708720D02*
X134335520Y-97708720D01*
X134335520Y-97708720D02*
X132816600Y-99227640D01*
X102290880Y-95234760D02*
X103008500Y-94517140D01*
X226300660Y-95676080D02*
X226300660Y-95676080D01*
D21*
X225856160Y-91400000D02*
X226300660Y-91400000D01*
X225846640Y-91409520D02*
X225846640Y-91387580D01*
X157927040Y-91442540D02*
X163083240Y-91442540D01*
D23*
X221380000Y-91500000D02*
X221380000Y-89540000D01*
D21*
X157988000Y-91503500D02*
X157988000Y-92669260D01*
X163083240Y-91442540D02*
X208828640Y-91442540D01*
X135740200Y-91391700D02*
X135757920Y-91409420D01*
X208828640Y-91442540D02*
X210154520Y-91442540D01*
D23*
X221380000Y-89540000D02*
X221340000Y-89500000D01*
D21*
X211696300Y-89500000D02*
X221340000Y-89500000D01*
X132537380Y-91391700D02*
X135740200Y-91391700D01*
X225846640Y-91409520D02*
X225856160Y-91400000D01*
X136266040Y-91442540D02*
X152493980Y-91442540D01*
D23*
X208828640Y-96326960D02*
X208933781Y-96432101D01*
D21*
X135757920Y-91409420D02*
X136232920Y-91409420D01*
D23*
X208828640Y-91442540D02*
X208828640Y-96326960D01*
D21*
X157927040Y-91442540D02*
X157988000Y-91503500D01*
X163083240Y-91442540D02*
X162842260Y-91683520D01*
X162842260Y-91683520D02*
X162842260Y-95770660D01*
X152493980Y-91442540D02*
X154109420Y-91442540D01*
D23*
X226300660Y-91400000D02*
X226300660Y-95676080D01*
D21*
X154813000Y-91503500D02*
X154813000Y-92608300D01*
X154109420Y-91442540D02*
X154873960Y-91442540D01*
X154873960Y-91442540D02*
X157927040Y-91442540D01*
X210154520Y-91038060D02*
X211696300Y-89500000D01*
D23*
X208933781Y-96432101D02*
X213661047Y-96432101D01*
D21*
X136232920Y-91409420D02*
X136266040Y-91442540D01*
X226300660Y-91400000D02*
X228950000Y-91400000D01*
X221340000Y-89500000D02*
X223890860Y-89500000D01*
D23*
X213661047Y-96432101D02*
X213890200Y-96432101D01*
D21*
X152453660Y-91482860D02*
X152493980Y-91442540D01*
X210154520Y-91475560D02*
X210154520Y-91038060D01*
X225846640Y-91387580D02*
X223934070Y-89500000D01*
X152453660Y-93395760D02*
X152453660Y-91482860D01*
X154873960Y-91442540D02*
X154813000Y-91503500D01*
D23*
X213412799Y-94925547D02*
X213412799Y-95077299D01*
X213412799Y-90850000D02*
X213412799Y-94925547D01*
X214796520Y-95954700D02*
X214800180Y-98191180D01*
X213890200Y-95954700D02*
X214796520Y-95954700D01*
X200731120Y-98191180D02*
X200068180Y-97678240D01*
X162842260Y-97670660D02*
X200068180Y-97678240D01*
D24*
X214800180Y-98191180D02*
X200731120Y-98191180D01*
D23*
X155260040Y-98672040D02*
X215887300Y-98672040D01*
D22*
X155262580Y-96791780D02*
X155262580Y-96791780D01*
D23*
X215887300Y-98672040D02*
X215887300Y-95590360D01*
X152453660Y-95295760D02*
X153766560Y-95295760D01*
D22*
X214788127Y-95552260D02*
X214785687Y-95554700D01*
D23*
X215887300Y-95552260D02*
X214788127Y-95552260D01*
D22*
X155260040Y-98672040D02*
X155260040Y-98672040D01*
D23*
X214785687Y-95554700D02*
X213890200Y-95554700D01*
X153766560Y-95295760D02*
X155262580Y-96791780D01*
D22*
X211449920Y-94383860D02*
X211449920Y-94383860D01*
X113338060Y-92529660D02*
X113332980Y-92524580D01*
D23*
X111760000Y-92539820D02*
X111760000Y-94952820D01*
X113332980Y-92524580D02*
X111744760Y-92524580D01*
X212620760Y-95554700D02*
X211449920Y-94383860D01*
D22*
X111744760Y-92524580D02*
X111760000Y-92539820D01*
X114038060Y-92529660D02*
X113338060Y-92529660D01*
D23*
X213490200Y-95554700D02*
X212620760Y-95554700D01*
X218090500Y-95077299D02*
X214119353Y-95077299D01*
X214119353Y-95077299D02*
X213967601Y-95077299D01*
G04 #@! TA.AperFunction,Conductor*
G36*
X211155890Y-89045502D02*
G01*
X211202383Y-89099158D01*
X211212487Y-89169432D01*
X211182993Y-89234012D01*
X211176762Y-89240697D01*
X210931802Y-89485067D01*
X209773619Y-90640454D01*
X209770635Y-90643334D01*
X209723477Y-90687378D01*
X209723476Y-90687380D01*
X209702392Y-90722048D01*
X209695048Y-90732824D01*
X209670490Y-90765128D01*
X209667655Y-90770157D01*
X209634036Y-90808664D01*
X209557852Y-90866437D01*
X209491488Y-90891661D01*
X209481718Y-90892040D01*
X163094801Y-90892040D01*
X163090500Y-90891967D01*
X163081541Y-90891661D01*
X163026414Y-90889778D01*
X163026413Y-90889778D01*
X163026410Y-90889778D01*
X163017842Y-90890659D01*
X163017789Y-90890143D01*
X163002001Y-90892040D01*
X157961721Y-90892040D01*
X157948834Y-90891379D01*
X157908069Y-90887187D01*
X157890551Y-90890208D01*
X157869144Y-90892040D01*
X154885521Y-90892040D01*
X154881220Y-90891967D01*
X154872261Y-90891661D01*
X154817134Y-90889778D01*
X154817133Y-90889778D01*
X154817130Y-90889778D01*
X154808562Y-90890659D01*
X154808509Y-90890143D01*
X154792721Y-90892040D01*
X152505541Y-90892040D01*
X152501240Y-90891967D01*
X152492281Y-90891661D01*
X152437154Y-90889778D01*
X152437153Y-90889778D01*
X152437150Y-90889778D01*
X152428582Y-90890659D01*
X152428529Y-90890143D01*
X152412741Y-90892040D01*
X136498814Y-90892040D01*
X136430693Y-90872038D01*
X136398417Y-90842175D01*
X136396239Y-90839303D01*
X136382998Y-90821842D01*
X136382996Y-90821841D01*
X136382996Y-90821840D01*
X136267898Y-90734558D01*
X136267894Y-90734555D01*
X136133510Y-90681560D01*
X136133511Y-90681560D01*
X136049066Y-90671420D01*
X136049064Y-90671420D01*
X135466776Y-90671420D01*
X135466773Y-90671420D01*
X135382329Y-90681560D01*
X135247945Y-90734555D01*
X135247941Y-90734558D01*
X135141077Y-90815597D01*
X135074713Y-90840821D01*
X135064943Y-90841200D01*
X133328224Y-90841200D01*
X133286609Y-90834129D01*
X133172084Y-90794055D01*
X133172080Y-90794054D01*
X133141646Y-90791200D01*
X132008114Y-90791200D01*
X132008113Y-90791200D01*
X131977679Y-90794054D01*
X131977675Y-90794055D01*
X131849498Y-90838906D01*
X131849494Y-90838908D01*
X131740229Y-90919549D01*
X131659588Y-91028814D01*
X131659586Y-91028818D01*
X131614735Y-91156995D01*
X131614734Y-91156999D01*
X131611880Y-91187433D01*
X131611880Y-91595966D01*
X131614734Y-91626400D01*
X131614735Y-91626404D01*
X131659586Y-91754581D01*
X131659588Y-91754585D01*
X131740229Y-91863850D01*
X131849494Y-91944491D01*
X131849498Y-91944493D01*
X131931066Y-91973035D01*
X131977681Y-91989346D01*
X132008114Y-91992200D01*
X132008116Y-91992200D01*
X133141644Y-91992200D01*
X133141646Y-91992200D01*
X133172079Y-91989346D01*
X133218682Y-91973039D01*
X133286609Y-91949271D01*
X133328224Y-91942200D01*
X134973298Y-91942200D01*
X135041419Y-91962202D01*
X135087912Y-92015858D01*
X135098016Y-92086132D01*
X135068522Y-92150712D01*
X135051444Y-92167039D01*
X135050187Y-92168032D01*
X134929034Y-92289185D01*
X134929029Y-92289191D01*
X134839072Y-92435035D01*
X134785177Y-92597678D01*
X134785175Y-92597690D01*
X134774920Y-92698067D01*
X134774920Y-92717920D01*
X136740920Y-92717920D01*
X136740920Y-92698067D01*
X136730664Y-92597690D01*
X136730662Y-92597678D01*
X136676767Y-92435035D01*
X136586810Y-92289191D01*
X136586805Y-92289185D01*
X136505755Y-92208135D01*
X136471729Y-92145823D01*
X136476794Y-92075008D01*
X136519341Y-92018172D01*
X136585861Y-91993361D01*
X136594850Y-91993040D01*
X151777160Y-91993040D01*
X151845281Y-92013042D01*
X151891774Y-92066698D01*
X151903160Y-92119040D01*
X151903160Y-92696269D01*
X151883158Y-92764390D01*
X151829502Y-92810883D01*
X151822794Y-92813494D01*
X151710661Y-92870628D01*
X151623528Y-92957761D01*
X151567586Y-93067555D01*
X151553160Y-93158645D01*
X151553160Y-93632874D01*
X151567586Y-93723964D01*
X151613235Y-93813557D01*
X151623529Y-93833759D01*
X151710661Y-93920891D01*
X151820454Y-93976833D01*
X151911544Y-93991260D01*
X151911546Y-93991260D01*
X153005774Y-93991260D01*
X153005776Y-93991260D01*
X153096866Y-93976833D01*
X153206659Y-93920891D01*
X153293791Y-93833759D01*
X153349733Y-93723966D01*
X153364160Y-93632876D01*
X153364160Y-93158644D01*
X153349733Y-93067554D01*
X153293791Y-92957761D01*
X153206659Y-92870629D01*
X153206658Y-92870628D01*
X153096863Y-92814685D01*
X153091220Y-92812852D01*
X153032616Y-92772777D01*
X153004981Y-92707379D01*
X153004160Y-92693020D01*
X153004160Y-92119040D01*
X153024162Y-92050919D01*
X153077818Y-92004426D01*
X153130160Y-91993040D01*
X153971812Y-91993040D01*
X154039933Y-92013042D01*
X154086426Y-92066698D01*
X154096530Y-92136972D01*
X154089028Y-92165259D01*
X154076281Y-92197585D01*
X154047640Y-92270210D01*
X154037500Y-92354653D01*
X154037500Y-92886946D01*
X154047640Y-92971390D01*
X154100635Y-93105774D01*
X154100638Y-93105778D01*
X154153203Y-93175095D01*
X154178427Y-93241460D01*
X154163767Y-93310926D01*
X154118956Y-93358468D01*
X154105273Y-93366907D01*
X154105265Y-93366914D01*
X153984114Y-93488065D01*
X153984109Y-93488071D01*
X153894152Y-93633915D01*
X153840257Y-93796558D01*
X153840255Y-93796570D01*
X153830000Y-93896947D01*
X153830000Y-93916800D01*
X155796000Y-93916800D01*
X155796000Y-93896947D01*
X155785744Y-93796570D01*
X155785742Y-93796558D01*
X155731847Y-93633915D01*
X155641890Y-93488071D01*
X155641885Y-93488065D01*
X155520734Y-93366914D01*
X155520725Y-93366907D01*
X155507045Y-93358469D01*
X155459567Y-93305683D01*
X155448165Y-93235608D01*
X155472797Y-93175094D01*
X155483588Y-93160865D01*
X155525364Y-93105775D01*
X155578359Y-92971390D01*
X155588500Y-92886944D01*
X155588500Y-92354656D01*
X155578359Y-92270210D01*
X155536972Y-92165262D01*
X155530590Y-92094556D01*
X155563448Y-92031620D01*
X155625115Y-91996440D01*
X155654188Y-91993040D01*
X157176460Y-91993040D01*
X157244581Y-92013042D01*
X157291074Y-92066698D01*
X157301178Y-92136972D01*
X157279426Y-92189026D01*
X157279861Y-92189271D01*
X157277770Y-92192988D01*
X157276858Y-92195173D01*
X157275637Y-92196782D01*
X157275635Y-92196785D01*
X157222640Y-92331169D01*
X157212500Y-92415613D01*
X157212500Y-92947906D01*
X157222640Y-93032350D01*
X157275635Y-93166734D01*
X157275638Y-93166738D01*
X157328203Y-93236055D01*
X157353427Y-93302420D01*
X157338767Y-93371886D01*
X157293956Y-93419428D01*
X157280273Y-93427867D01*
X157280265Y-93427874D01*
X157159114Y-93549025D01*
X157159109Y-93549031D01*
X157069152Y-93694875D01*
X157015257Y-93857518D01*
X157015255Y-93857530D01*
X157005000Y-93957907D01*
X157005000Y-93977760D01*
X158971000Y-93977760D01*
X158971000Y-93957907D01*
X158960744Y-93857530D01*
X158960742Y-93857518D01*
X158906847Y-93694875D01*
X158816890Y-93549031D01*
X158816885Y-93549025D01*
X158695734Y-93427874D01*
X158695725Y-93427867D01*
X158682045Y-93419429D01*
X158634567Y-93366643D01*
X158623165Y-93296568D01*
X158647797Y-93236054D01*
X158648136Y-93235608D01*
X158700364Y-93166735D01*
X158753359Y-93032350D01*
X158763500Y-92947904D01*
X158763500Y-92415616D01*
X158753359Y-92331170D01*
X158736804Y-92289191D01*
X158700364Y-92196785D01*
X158700362Y-92196782D01*
X158699142Y-92195173D01*
X158698483Y-92193441D01*
X158696139Y-92189271D01*
X158696765Y-92188918D01*
X158673919Y-92128808D01*
X158688580Y-92059342D01*
X158738470Y-92008829D01*
X158799540Y-91993040D01*
X162165760Y-91993040D01*
X162233881Y-92013042D01*
X162280374Y-92066698D01*
X162291760Y-92119040D01*
X162291760Y-95071169D01*
X162271758Y-95139290D01*
X162218102Y-95185783D01*
X162211394Y-95188394D01*
X162099261Y-95245528D01*
X162012128Y-95332661D01*
X161956186Y-95442455D01*
X161949534Y-95484460D01*
X161943462Y-95522801D01*
X161941760Y-95533545D01*
X161941760Y-96007774D01*
X161956186Y-96098864D01*
X162001835Y-96188457D01*
X162012129Y-96208659D01*
X162099261Y-96295791D01*
X162209054Y-96351733D01*
X162300144Y-96366160D01*
X162300146Y-96366160D01*
X163394374Y-96366160D01*
X163394376Y-96366160D01*
X163485466Y-96351733D01*
X163595259Y-96295791D01*
X163682391Y-96208659D01*
X163738333Y-96098866D01*
X163752760Y-96007776D01*
X163752760Y-95533544D01*
X163747447Y-95500000D01*
X203694532Y-95500000D01*
X203714365Y-95726695D01*
X203773260Y-95946493D01*
X203773262Y-95946498D01*
X203869433Y-96152737D01*
X203999948Y-96339134D01*
X203999957Y-96339144D01*
X204160855Y-96500042D01*
X204160865Y-96500051D01*
X204347262Y-96630566D01*
X204347261Y-96630566D01*
X204366967Y-96639755D01*
X204553504Y-96726739D01*
X204747337Y-96778676D01*
X204754621Y-96780628D01*
X204773308Y-96785635D01*
X204943216Y-96800500D01*
X204943223Y-96800500D01*
X205056777Y-96800500D01*
X205056784Y-96800500D01*
X205226692Y-96785635D01*
X205446496Y-96726739D01*
X205652734Y-96630568D01*
X205663674Y-96622908D01*
X205839134Y-96500051D01*
X205839136Y-96500048D01*
X205839139Y-96500047D01*
X206000047Y-96339139D01*
X206002645Y-96335430D01*
X206130566Y-96152737D01*
X206130566Y-96152736D01*
X206130568Y-96152734D01*
X206226739Y-95946496D01*
X206285635Y-95726692D01*
X206305468Y-95500000D01*
X206285635Y-95273308D01*
X206285164Y-95271552D01*
X206270117Y-95215393D01*
X206226739Y-95053504D01*
X206130568Y-94847266D01*
X206130567Y-94847265D01*
X206130566Y-94847262D01*
X206000051Y-94660865D01*
X206000042Y-94660855D01*
X205839144Y-94499957D01*
X205839134Y-94499948D01*
X205652737Y-94369433D01*
X205652738Y-94369433D01*
X205446498Y-94273262D01*
X205446493Y-94273260D01*
X205226695Y-94214365D01*
X205175719Y-94209905D01*
X205056784Y-94199500D01*
X204943216Y-94199500D01*
X204835092Y-94208959D01*
X204773304Y-94214365D01*
X204553506Y-94273260D01*
X204553501Y-94273262D01*
X204347262Y-94369433D01*
X204160865Y-94499948D01*
X204160855Y-94499957D01*
X203999957Y-94660855D01*
X203999948Y-94660865D01*
X203869433Y-94847262D01*
X203773262Y-95053501D01*
X203773260Y-95053506D01*
X203714365Y-95273304D01*
X203694532Y-95500000D01*
X163747447Y-95500000D01*
X163738333Y-95442454D01*
X163682391Y-95332661D01*
X163595259Y-95245529D01*
X163595258Y-95245528D01*
X163485463Y-95189585D01*
X163479820Y-95187752D01*
X163421216Y-95147677D01*
X163393581Y-95082279D01*
X163392760Y-95067920D01*
X163392760Y-92119040D01*
X163412762Y-92050919D01*
X163466418Y-92004426D01*
X163518760Y-91993040D01*
X208277140Y-91993040D01*
X208345261Y-92013042D01*
X208391754Y-92066698D01*
X208403140Y-92119040D01*
X208403140Y-96394353D01*
X208410552Y-96417165D01*
X208415168Y-96436391D01*
X208418920Y-96460085D01*
X208429810Y-96481456D01*
X208437377Y-96499724D01*
X208444790Y-96522540D01*
X208458889Y-96541945D01*
X208469219Y-96558803D01*
X208480110Y-96580178D01*
X208480111Y-96580179D01*
X208480112Y-96580180D01*
X208504086Y-96604154D01*
X208585253Y-96685321D01*
X208680561Y-96780629D01*
X208690384Y-96785634D01*
X208701930Y-96791517D01*
X208718787Y-96801847D01*
X208738198Y-96815950D01*
X208738199Y-96815950D01*
X208738200Y-96815951D01*
X208761013Y-96823362D01*
X208779275Y-96830926D01*
X208800655Y-96841820D01*
X208824353Y-96845573D01*
X208843567Y-96850185D01*
X208866388Y-96857601D01*
X208866389Y-96857601D01*
X213923685Y-96857601D01*
X213923688Y-96857601D01*
X214023326Y-96841820D01*
X214143420Y-96780629D01*
X214157399Y-96766649D01*
X214219707Y-96732625D01*
X214290523Y-96737688D01*
X214347359Y-96780234D01*
X214372172Y-96846753D01*
X214372493Y-96855539D01*
X214373153Y-97258640D01*
X214373547Y-97499596D01*
X214373776Y-97638974D01*
X214353885Y-97707127D01*
X214300306Y-97753708D01*
X214247776Y-97765180D01*
X200918919Y-97765180D01*
X200850798Y-97745178D01*
X200841814Y-97738833D01*
X200800836Y-97707127D01*
X200587189Y-97541820D01*
X200356319Y-97363187D01*
X200344312Y-97352613D01*
X200321473Y-97329766D01*
X200321469Y-97329762D01*
X200268781Y-97302902D01*
X200265444Y-97301137D01*
X200213619Y-97272729D01*
X200213618Y-97272728D01*
X200213617Y-97272728D01*
X200213615Y-97272727D01*
X200207572Y-97270560D01*
X200207534Y-97270543D01*
X200207496Y-97270534D01*
X200201393Y-97268549D01*
X200201390Y-97268548D01*
X200201386Y-97268547D01*
X200201385Y-97268547D01*
X200143001Y-97259287D01*
X200139280Y-97258640D01*
X200081191Y-97247632D01*
X200081183Y-97247632D01*
X200049143Y-97251719D01*
X200033175Y-97252732D01*
X163747238Y-97245343D01*
X163679122Y-97225327D01*
X163658169Y-97208439D01*
X163633057Y-97183327D01*
X163595259Y-97145529D01*
X163595257Y-97145528D01*
X163595258Y-97145528D01*
X163485464Y-97089586D01*
X163423228Y-97079729D01*
X163394376Y-97075160D01*
X162300144Y-97075160D01*
X162275236Y-97079104D01*
X162209055Y-97089586D01*
X162099261Y-97145528D01*
X162012128Y-97232661D01*
X161956186Y-97342455D01*
X161941760Y-97433545D01*
X161941760Y-97907774D01*
X161956186Y-97998864D01*
X161956186Y-97998865D01*
X161956187Y-97998866D01*
X161989037Y-98063338D01*
X162002141Y-98133114D01*
X161975441Y-98198898D01*
X161917414Y-98239805D01*
X161876770Y-98246540D01*
X161534977Y-98246540D01*
X161466856Y-98226538D01*
X161420363Y-98172882D01*
X161410259Y-98102608D01*
X161418568Y-98072323D01*
X161434905Y-98032878D01*
X161449153Y-97924660D01*
X159225368Y-97924660D01*
X159239613Y-98032876D01*
X159239615Y-98032881D01*
X159255952Y-98072323D01*
X159263541Y-98142913D01*
X159231761Y-98206400D01*
X159170702Y-98242626D01*
X159139543Y-98246540D01*
X156975038Y-98246540D01*
X156906917Y-98226538D01*
X156860424Y-98172882D01*
X156850320Y-98102608D01*
X156879814Y-98038028D01*
X156886767Y-98030977D01*
X156886754Y-98030964D01*
X156894144Y-98023255D01*
X156909424Y-98007319D01*
X156911134Y-98005572D01*
X156954768Y-97961940D01*
X156954770Y-97961934D01*
X156955434Y-97961022D01*
X156966427Y-97947870D01*
X157544696Y-97344798D01*
X157697966Y-97184954D01*
X157759550Y-97149629D01*
X157788912Y-97146160D01*
X159118891Y-97146160D01*
X159187012Y-97166162D01*
X159233505Y-97219818D01*
X159243609Y-97290092D01*
X159240598Y-97304770D01*
X159239613Y-97308442D01*
X159225366Y-97416659D01*
X159225367Y-97416660D01*
X161449151Y-97416660D01*
X161434906Y-97308443D01*
X161434904Y-97308439D01*
X161374803Y-97163336D01*
X161274162Y-97032179D01*
X161275335Y-97031278D01*
X161245639Y-96976894D01*
X161242760Y-96950111D01*
X161242760Y-96483545D01*
X161239045Y-96460085D01*
X161228333Y-96392454D01*
X161182683Y-96302861D01*
X161169580Y-96233086D01*
X161182684Y-96188457D01*
X161228333Y-96098866D01*
X161242760Y-96007776D01*
X161242760Y-95533544D01*
X161228333Y-95442454D01*
X161172391Y-95332661D01*
X161085259Y-95245529D01*
X161085258Y-95245528D01*
X160979567Y-95191677D01*
X160975466Y-95189587D01*
X160975465Y-95189586D01*
X160975464Y-95189586D01*
X160911791Y-95179502D01*
X160884376Y-95175160D01*
X159790144Y-95175160D01*
X159765236Y-95179104D01*
X159699055Y-95189586D01*
X159589261Y-95245528D01*
X159502128Y-95332661D01*
X159446186Y-95442455D01*
X159439534Y-95484460D01*
X159433462Y-95522801D01*
X159431760Y-95533545D01*
X159431760Y-96007774D01*
X159446186Y-96098865D01*
X159452858Y-96111959D01*
X159465961Y-96181736D01*
X159439260Y-96247520D01*
X159381232Y-96288425D01*
X159340590Y-96295160D01*
X157630341Y-96295160D01*
X157613252Y-96293996D01*
X157612106Y-96293839D01*
X157612105Y-96293839D01*
X157550515Y-96295132D01*
X157547871Y-96295160D01*
X157520171Y-96295160D01*
X157515243Y-96295548D01*
X157515225Y-96295323D01*
X157507156Y-96296042D01*
X157477349Y-96296667D01*
X157460191Y-96302643D01*
X157438471Y-96308099D01*
X157420535Y-96310940D01*
X157420534Y-96310940D01*
X157393965Y-96324477D01*
X157378215Y-96331195D01*
X157350063Y-96341000D01*
X157350062Y-96341001D01*
X157335594Y-96351984D01*
X157316623Y-96363885D01*
X157300439Y-96372132D01*
X157279349Y-96393221D01*
X157273253Y-96398545D01*
X157273401Y-96398711D01*
X157269713Y-96401996D01*
X157250526Y-96422006D01*
X157248679Y-96423892D01*
X157205128Y-96467443D01*
X157204445Y-96468384D01*
X157193462Y-96481518D01*
X156461935Y-97244425D01*
X156400351Y-97279751D01*
X156370989Y-97283220D01*
X156007930Y-97283220D01*
X155939809Y-97263218D01*
X155893316Y-97209562D01*
X155883212Y-97139288D01*
X155890118Y-97112540D01*
X155947720Y-96960651D01*
X155968225Y-96791782D01*
X155968225Y-96791777D01*
X155947720Y-96622908D01*
X155887400Y-96463854D01*
X155887398Y-96463850D01*
X155790763Y-96323851D01*
X155790761Y-96323849D01*
X155663437Y-96211050D01*
X155663431Y-96211045D01*
X155512805Y-96131990D01*
X155512801Y-96131988D01*
X155347639Y-96091280D01*
X155347636Y-96091280D01*
X155216018Y-96091280D01*
X155147897Y-96071278D01*
X155126923Y-96054375D01*
X154416152Y-95343604D01*
X154382126Y-95281292D01*
X154387191Y-95210477D01*
X154429738Y-95153641D01*
X154496258Y-95128830D01*
X154511670Y-95128673D01*
X154514158Y-95128800D01*
X154559000Y-95128800D01*
X154559000Y-94424800D01*
X155067000Y-94424800D01*
X155067000Y-95128800D01*
X155111853Y-95128800D01*
X155111852Y-95128799D01*
X155212229Y-95118544D01*
X155212241Y-95118542D01*
X155374884Y-95064647D01*
X155520728Y-94974690D01*
X155520734Y-94974685D01*
X155641885Y-94853534D01*
X155641890Y-94853528D01*
X155731847Y-94707684D01*
X155785742Y-94545041D01*
X155785744Y-94545029D01*
X155791799Y-94485760D01*
X157005000Y-94485760D01*
X157005000Y-94505612D01*
X157015255Y-94605989D01*
X157015257Y-94606001D01*
X157069152Y-94768644D01*
X157159109Y-94914488D01*
X157159114Y-94914494D01*
X157280265Y-95035645D01*
X157280271Y-95035650D01*
X157426115Y-95125607D01*
X157588758Y-95179502D01*
X157588770Y-95179504D01*
X157689147Y-95189759D01*
X157689147Y-95189760D01*
X157734000Y-95189760D01*
X157734000Y-94485760D01*
X158242000Y-94485760D01*
X158242000Y-95189760D01*
X158286853Y-95189760D01*
X158286852Y-95189759D01*
X158387229Y-95179504D01*
X158387241Y-95179502D01*
X158549884Y-95125607D01*
X158695728Y-95035650D01*
X158695734Y-95035645D01*
X158816885Y-94914494D01*
X158816890Y-94914488D01*
X158906847Y-94768644D01*
X158960742Y-94606001D01*
X158960744Y-94605989D01*
X158970999Y-94505612D01*
X158971000Y-94505612D01*
X158971000Y-94485760D01*
X158242000Y-94485760D01*
X157734000Y-94485760D01*
X157005000Y-94485760D01*
X155791799Y-94485760D01*
X155795999Y-94444652D01*
X155796000Y-94444652D01*
X155796000Y-94424800D01*
X155067000Y-94424800D01*
X154559000Y-94424800D01*
X153830000Y-94424800D01*
X153830000Y-94444652D01*
X153840255Y-94545029D01*
X153840256Y-94545032D01*
X153893140Y-94704627D01*
X153895580Y-94775582D01*
X153859272Y-94836592D01*
X153795743Y-94868287D01*
X153773535Y-94870260D01*
X153358481Y-94870260D01*
X153290360Y-94850258D01*
X153269386Y-94833356D01*
X153242934Y-94806904D01*
X153206659Y-94770629D01*
X153206657Y-94770628D01*
X153206658Y-94770628D01*
X153096864Y-94714686D01*
X153033349Y-94704627D01*
X153005776Y-94700260D01*
X151911544Y-94700260D01*
X151886636Y-94704204D01*
X151820455Y-94714686D01*
X151710661Y-94770628D01*
X151623528Y-94857761D01*
X151567586Y-94967555D01*
X151558189Y-95026890D01*
X151553160Y-95058644D01*
X151553160Y-95532876D01*
X151555834Y-95549760D01*
X151567586Y-95623964D01*
X151619929Y-95726695D01*
X151623529Y-95733759D01*
X151710661Y-95820891D01*
X151820454Y-95876833D01*
X151911544Y-95891260D01*
X151911546Y-95891260D01*
X153005774Y-95891260D01*
X153005776Y-95891260D01*
X153096866Y-95876833D01*
X153206659Y-95820891D01*
X153269386Y-95758164D01*
X153331699Y-95724139D01*
X153358481Y-95721260D01*
X153538122Y-95721260D01*
X153606243Y-95741262D01*
X153627217Y-95758165D01*
X154524803Y-96655751D01*
X154558829Y-96718063D01*
X154560789Y-96760032D01*
X154556935Y-96791775D01*
X154556935Y-96791782D01*
X154577439Y-96960651D01*
X154635042Y-97112540D01*
X154640496Y-97183327D01*
X154606813Y-97245825D01*
X154544688Y-97280192D01*
X154517230Y-97283220D01*
X134402913Y-97283220D01*
X134268127Y-97283220D01*
X134245306Y-97290634D01*
X134226092Y-97295247D01*
X134202394Y-97299000D01*
X134181018Y-97309892D01*
X134162756Y-97317456D01*
X134139941Y-97324869D01*
X134139938Y-97324871D01*
X134120522Y-97338976D01*
X134103676Y-97349299D01*
X134082300Y-97360191D01*
X134070313Y-97372178D01*
X134058325Y-97384167D01*
X132677257Y-98765235D01*
X132614945Y-98799261D01*
X132588162Y-98802140D01*
X131771474Y-98802140D01*
X131703353Y-98782138D01*
X131656860Y-98728482D01*
X131646756Y-98658208D01*
X131676250Y-98593628D01*
X131682151Y-98587273D01*
X132063357Y-98204111D01*
X132837555Y-97425941D01*
X132840398Y-97423175D01*
X132987829Y-97284417D01*
X133012986Y-97251907D01*
X133023522Y-97239944D01*
X134713707Y-95549760D01*
X148836768Y-95549760D01*
X148851013Y-95657976D01*
X148851015Y-95657980D01*
X148911116Y-95803083D01*
X149006730Y-95927689D01*
X149131336Y-96023303D01*
X149276441Y-96083405D01*
X149393067Y-96098759D01*
X149694660Y-96098759D01*
X149694660Y-95549760D01*
X150202660Y-95549760D01*
X150202660Y-96098759D01*
X150504254Y-96098759D01*
X150504262Y-96098758D01*
X150620876Y-96083406D01*
X150620880Y-96083404D01*
X150765983Y-96023303D01*
X150890589Y-95927689D01*
X150986203Y-95803083D01*
X151046305Y-95657978D01*
X151060553Y-95549760D01*
X150202660Y-95549760D01*
X149694660Y-95549760D01*
X148836768Y-95549760D01*
X134713707Y-95549760D01*
X135455303Y-94808165D01*
X135517615Y-94774139D01*
X135544398Y-94771260D01*
X148730291Y-94771260D01*
X148798412Y-94791262D01*
X148844905Y-94844918D01*
X148855009Y-94915192D01*
X148851998Y-94929870D01*
X148851013Y-94933542D01*
X148836766Y-95041759D01*
X148836767Y-95041760D01*
X151060551Y-95041760D01*
X151046306Y-94933543D01*
X151046304Y-94933539D01*
X150986203Y-94788436D01*
X150885562Y-94657279D01*
X150886735Y-94656378D01*
X150857039Y-94601994D01*
X150854160Y-94575211D01*
X150854160Y-94108645D01*
X150852752Y-94099751D01*
X150839733Y-94017554D01*
X150794083Y-93927961D01*
X150780980Y-93858186D01*
X150794084Y-93813557D01*
X150796985Y-93807864D01*
X150839733Y-93723966D01*
X150854160Y-93632876D01*
X150854160Y-93158644D01*
X150839733Y-93067554D01*
X150783791Y-92957761D01*
X150696659Y-92870629D01*
X150696658Y-92870628D01*
X150586864Y-92814686D01*
X150524628Y-92804829D01*
X150495776Y-92800260D01*
X149401544Y-92800260D01*
X149376636Y-92804204D01*
X149310455Y-92814686D01*
X149200661Y-92870628D01*
X149113528Y-92957761D01*
X149057586Y-93067555D01*
X149043160Y-93158645D01*
X149043160Y-93632874D01*
X149057586Y-93723965D01*
X149064258Y-93737059D01*
X149077361Y-93806836D01*
X149050660Y-93872620D01*
X148992632Y-93913525D01*
X148951990Y-93920260D01*
X136625390Y-93920260D01*
X136557269Y-93900258D01*
X136510776Y-93846602D01*
X136500672Y-93776328D01*
X136530166Y-93711748D01*
X136536295Y-93705165D01*
X136586805Y-93654654D01*
X136586810Y-93654648D01*
X136676767Y-93508804D01*
X136730662Y-93346161D01*
X136730664Y-93346149D01*
X136740919Y-93245772D01*
X136740920Y-93245772D01*
X136740920Y-93225920D01*
X134774920Y-93225920D01*
X134774920Y-93245772D01*
X134785175Y-93346149D01*
X134785177Y-93346161D01*
X134839072Y-93508804D01*
X134929029Y-93654648D01*
X134929034Y-93654654D01*
X135050185Y-93775805D01*
X135050197Y-93775814D01*
X135061812Y-93782979D01*
X135109290Y-93835765D01*
X135120693Y-93905840D01*
X135092400Y-93970955D01*
X135069732Y-93992151D01*
X135062742Y-93997229D01*
X135055181Y-94004791D01*
X135038766Y-94021206D01*
X132268456Y-96791514D01*
X132266678Y-96793163D01*
X132264258Y-96795595D01*
X132264257Y-96795596D01*
X132256752Y-96803140D01*
X132247049Y-96812892D01*
X132244090Y-96815769D01*
X132226273Y-96832538D01*
X132222945Y-96836205D01*
X132222931Y-96836192D01*
X132220878Y-96838523D01*
X132220897Y-96838539D01*
X132220073Y-96839502D01*
X132218855Y-96840820D01*
X132216685Y-96843286D01*
X132215321Y-96844650D01*
X132213660Y-96846451D01*
X130916438Y-98150327D01*
X130854213Y-98184512D01*
X130827115Y-98187460D01*
X109576519Y-98187460D01*
X109508398Y-98167458D01*
X109461905Y-98113802D01*
X109451801Y-98043528D01*
X109481295Y-97978948D01*
X109483817Y-97976123D01*
X109559325Y-97894098D01*
X109682419Y-97705688D01*
X109772820Y-97499596D01*
X109772823Y-97499589D01*
X109820544Y-97311140D01*
X108915116Y-97311140D01*
X108943493Y-97266984D01*
X108984000Y-97129029D01*
X108984000Y-96985251D01*
X108943493Y-96847296D01*
X108915116Y-96803140D01*
X109820544Y-96803140D01*
X109820544Y-96803139D01*
X109772823Y-96614690D01*
X109772820Y-96614683D01*
X109682419Y-96408591D01*
X109559325Y-96220181D01*
X109406902Y-96054605D01*
X109229301Y-95916372D01*
X109229300Y-95916371D01*
X109031371Y-95809257D01*
X109031365Y-95809255D01*
X108987705Y-95794266D01*
X108929771Y-95753229D01*
X108903220Y-95687384D01*
X108916482Y-95617637D01*
X108965347Y-95566132D01*
X108983092Y-95557607D01*
X108999019Y-95551438D01*
X109180302Y-95439192D01*
X109337872Y-95295547D01*
X109466366Y-95125395D01*
X109552296Y-94952822D01*
X111054355Y-94952822D01*
X111074859Y-95121691D01*
X111135179Y-95280745D01*
X111135181Y-95280749D01*
X111231816Y-95420748D01*
X111231818Y-95420750D01*
X111359137Y-95533545D01*
X111359148Y-95533554D01*
X111509775Y-95612610D01*
X111509776Y-95612610D01*
X111509778Y-95612611D01*
X111631414Y-95642591D01*
X111674944Y-95653320D01*
X111674947Y-95653320D01*
X111845053Y-95653320D01*
X111845056Y-95653320D01*
X112010225Y-95612610D01*
X112160852Y-95533554D01*
X112288183Y-95420749D01*
X112384818Y-95280750D01*
X112445140Y-95121692D01*
X112452795Y-95058645D01*
X112465645Y-94952822D01*
X112465645Y-94952817D01*
X112445140Y-94783948D01*
X112384820Y-94624894D01*
X112384818Y-94624890D01*
X112288184Y-94484892D01*
X112259695Y-94459653D01*
X112227945Y-94431525D01*
X112190221Y-94371382D01*
X112185500Y-94337214D01*
X112185500Y-93733660D01*
X112921168Y-93733660D01*
X112935413Y-93841876D01*
X112935415Y-93841880D01*
X112995516Y-93986983D01*
X113091130Y-94111589D01*
X113215736Y-94207203D01*
X113360841Y-94267305D01*
X113477467Y-94282659D01*
X113779060Y-94282659D01*
X113779060Y-93733660D01*
X114287060Y-93733660D01*
X114287060Y-94282659D01*
X114588654Y-94282659D01*
X114588662Y-94282658D01*
X114705276Y-94267306D01*
X114705280Y-94267304D01*
X114850383Y-94207203D01*
X114974989Y-94111589D01*
X115070603Y-93986983D01*
X115130705Y-93841878D01*
X115144953Y-93733660D01*
X114287060Y-93733660D01*
X113779060Y-93733660D01*
X112921168Y-93733660D01*
X112185500Y-93733660D01*
X112185500Y-93716776D01*
X115637560Y-93716776D01*
X115641037Y-93738731D01*
X115651986Y-93807864D01*
X115707048Y-93915931D01*
X115707929Y-93917659D01*
X115795061Y-94004791D01*
X115904854Y-94060733D01*
X115995944Y-94075160D01*
X116057360Y-94075160D01*
X116125481Y-94095162D01*
X116171974Y-94148818D01*
X116183360Y-94201160D01*
X116183360Y-94487074D01*
X116163358Y-94555195D01*
X116140914Y-94581386D01*
X116080675Y-94634752D01*
X115984041Y-94774750D01*
X115984039Y-94774754D01*
X115923719Y-94933808D01*
X115903215Y-95102677D01*
X115903215Y-95102682D01*
X115923719Y-95271551D01*
X115984039Y-95430605D01*
X115984041Y-95430609D01*
X116080676Y-95570608D01*
X116080678Y-95570610D01*
X116199729Y-95676080D01*
X116208008Y-95683414D01*
X116358635Y-95762470D01*
X116358636Y-95762470D01*
X116358638Y-95762471D01*
X116501514Y-95797686D01*
X116523804Y-95803180D01*
X116523807Y-95803180D01*
X116693913Y-95803180D01*
X116693916Y-95803180D01*
X116859085Y-95762470D01*
X116862762Y-95760540D01*
X127827320Y-95760540D01*
X127827320Y-95805392D01*
X127837575Y-95905769D01*
X127837577Y-95905781D01*
X127891472Y-96068424D01*
X127981429Y-96214268D01*
X127981434Y-96214274D01*
X128102585Y-96335425D01*
X128102591Y-96335430D01*
X128248435Y-96425387D01*
X128411078Y-96479282D01*
X128411090Y-96479284D01*
X128511467Y-96489539D01*
X128511467Y-96489540D01*
X128531320Y-96489540D01*
X128531320Y-95760540D01*
X127827320Y-95760540D01*
X116862762Y-95760540D01*
X117009712Y-95683414D01*
X117137043Y-95570609D01*
X117233678Y-95430610D01*
X117294000Y-95271552D01*
X117302534Y-95201272D01*
X117314505Y-95102682D01*
X117314505Y-95102677D01*
X117294000Y-94933808D01*
X117233680Y-94774754D01*
X117233678Y-94774750D01*
X117137044Y-94634752D01*
X117136963Y-94634680D01*
X117076805Y-94581385D01*
X117039081Y-94521242D01*
X117034360Y-94487074D01*
X117034360Y-94191614D01*
X117054362Y-94123493D01*
X117108018Y-94077000D01*
X117140648Y-94067166D01*
X117181266Y-94060733D01*
X117291059Y-94004791D01*
X117378191Y-93917659D01*
X117434133Y-93807866D01*
X117448560Y-93716776D01*
X117448560Y-93393560D01*
X117802640Y-93393560D01*
X117802640Y-93413412D01*
X117812895Y-93513789D01*
X117812897Y-93513801D01*
X117866792Y-93676444D01*
X117956749Y-93822288D01*
X117956754Y-93822294D01*
X118077905Y-93943445D01*
X118077911Y-93943450D01*
X118223755Y-94033407D01*
X118386398Y-94087302D01*
X118386410Y-94087304D01*
X118486787Y-94097559D01*
X118486787Y-94097560D01*
X118531640Y-94097560D01*
X118531640Y-93393560D01*
X119039640Y-93393560D01*
X119039640Y-94097560D01*
X119084493Y-94097560D01*
X119084492Y-94097559D01*
X119184869Y-94087304D01*
X119184881Y-94087302D01*
X119347524Y-94033407D01*
X119401686Y-94000000D01*
X120694532Y-94000000D01*
X120714365Y-94226695D01*
X120773260Y-94446493D01*
X120773262Y-94446498D01*
X120869433Y-94652737D01*
X120999948Y-94839134D01*
X120999957Y-94839144D01*
X121160855Y-95000042D01*
X121160865Y-95000051D01*
X121347262Y-95130566D01*
X121347261Y-95130566D01*
X121383956Y-95147677D01*
X121553504Y-95226739D01*
X121773308Y-95285635D01*
X121943216Y-95300500D01*
X121943223Y-95300500D01*
X122056777Y-95300500D01*
X122056784Y-95300500D01*
X122226692Y-95285635D01*
X122350205Y-95252540D01*
X127827320Y-95252540D01*
X128531320Y-95252540D01*
X128531320Y-94523540D01*
X128511467Y-94523540D01*
X128411090Y-94533795D01*
X128411078Y-94533797D01*
X128248435Y-94587692D01*
X128102591Y-94677649D01*
X128102585Y-94677654D01*
X127981434Y-94798805D01*
X127981429Y-94798811D01*
X127891472Y-94944655D01*
X127837577Y-95107298D01*
X127837575Y-95107310D01*
X127827320Y-95207687D01*
X127827320Y-95252540D01*
X122350205Y-95252540D01*
X122446496Y-95226739D01*
X122652734Y-95130568D01*
X122655259Y-95128800D01*
X122839134Y-95000051D01*
X122839136Y-95000048D01*
X122839139Y-95000047D01*
X123000047Y-94839139D01*
X123001831Y-94836592D01*
X123130566Y-94652737D01*
X123130566Y-94652736D01*
X123130568Y-94652734D01*
X123226739Y-94446496D01*
X123285635Y-94226692D01*
X123305468Y-94000000D01*
X123285635Y-93773308D01*
X123226739Y-93553504D01*
X123130568Y-93347266D01*
X123130567Y-93347265D01*
X123130566Y-93347262D01*
X123000051Y-93160865D01*
X123000042Y-93160855D01*
X122839144Y-92999957D01*
X122839134Y-92999948D01*
X122652737Y-92869433D01*
X122652738Y-92869433D01*
X122446498Y-92773262D01*
X122446493Y-92773260D01*
X122226695Y-92714365D01*
X122175719Y-92709905D01*
X122056784Y-92699500D01*
X121943216Y-92699500D01*
X121835092Y-92708959D01*
X121773304Y-92714365D01*
X121553506Y-92773260D01*
X121553501Y-92773262D01*
X121347262Y-92869433D01*
X121160865Y-92999948D01*
X121160855Y-92999957D01*
X120999957Y-93160855D01*
X120999948Y-93160865D01*
X120869433Y-93347262D01*
X120773262Y-93553501D01*
X120773260Y-93553506D01*
X120714365Y-93773304D01*
X120694532Y-94000000D01*
X119401686Y-94000000D01*
X119493368Y-93943450D01*
X119493374Y-93943445D01*
X119614525Y-93822294D01*
X119614530Y-93822288D01*
X119704487Y-93676444D01*
X119758382Y-93513801D01*
X119758384Y-93513789D01*
X119768639Y-93413412D01*
X119768640Y-93413412D01*
X119768640Y-93393560D01*
X119039640Y-93393560D01*
X118531640Y-93393560D01*
X117802640Y-93393560D01*
X117448560Y-93393560D01*
X117448560Y-93242544D01*
X117434133Y-93151454D01*
X117378191Y-93041661D01*
X117291059Y-92954529D01*
X117291058Y-92954528D01*
X117181264Y-92898586D01*
X117107766Y-92886946D01*
X117090176Y-92884160D01*
X115995944Y-92884160D01*
X115978354Y-92886946D01*
X115904855Y-92898586D01*
X115795061Y-92954528D01*
X115707928Y-93041661D01*
X115651986Y-93151455D01*
X115640234Y-93225659D01*
X115637560Y-93242544D01*
X115637560Y-93716776D01*
X112185500Y-93716776D01*
X112185500Y-93076080D01*
X112205502Y-93007959D01*
X112259158Y-92961466D01*
X112311500Y-92950080D01*
X112816166Y-92950080D01*
X112884287Y-92970082D01*
X112930780Y-93023738D01*
X112940884Y-93094012D01*
X112936702Y-93109238D01*
X112937551Y-93109466D01*
X112935414Y-93117440D01*
X112921166Y-93225659D01*
X112921167Y-93225660D01*
X115144951Y-93225660D01*
X115130706Y-93117443D01*
X115130704Y-93117439D01*
X115070603Y-92972336D01*
X114969962Y-92841179D01*
X114971135Y-92840278D01*
X114941439Y-92785894D01*
X114938560Y-92759111D01*
X114938560Y-92292545D01*
X114936628Y-92280343D01*
X114924133Y-92201454D01*
X114878483Y-92111861D01*
X114865380Y-92042086D01*
X114878484Y-91997457D01*
X114924133Y-91907866D01*
X114938560Y-91816776D01*
X114938560Y-91342544D01*
X114924133Y-91251454D01*
X114868191Y-91141661D01*
X114781059Y-91054529D01*
X114781058Y-91054528D01*
X114671264Y-90998586D01*
X114607717Y-90988522D01*
X114580176Y-90984160D01*
X113485944Y-90984160D01*
X113470829Y-90986554D01*
X113394855Y-90998586D01*
X113285061Y-91054528D01*
X113197928Y-91141661D01*
X113141986Y-91251455D01*
X113130465Y-91324202D01*
X113127560Y-91342544D01*
X113127560Y-91816776D01*
X113132129Y-91845628D01*
X113141986Y-91907864D01*
X113146069Y-91915877D01*
X113159173Y-91985654D01*
X113132473Y-92051438D01*
X113074445Y-92092345D01*
X113033802Y-92099080D01*
X111711272Y-92099080D01*
X111611634Y-92114861D01*
X111611632Y-92114861D01*
X111611632Y-92114862D01*
X111491540Y-92176051D01*
X111396231Y-92271360D01*
X111346156Y-92369640D01*
X111335041Y-92391454D01*
X111318147Y-92498120D01*
X111313956Y-92524580D01*
X111332949Y-92644498D01*
X111334500Y-92664208D01*
X111334500Y-94337214D01*
X111314498Y-94405335D01*
X111292054Y-94431526D01*
X111231815Y-94484892D01*
X111135181Y-94624890D01*
X111135179Y-94624894D01*
X111074859Y-94783948D01*
X111054355Y-94952817D01*
X111054355Y-94952822D01*
X109552296Y-94952822D01*
X109561405Y-94934529D01*
X109619756Y-94729450D01*
X109639429Y-94517140D01*
X109619756Y-94304830D01*
X109561405Y-94099751D01*
X109466366Y-93908885D01*
X109337872Y-93738733D01*
X109321786Y-93724068D01*
X109180300Y-93595086D01*
X109180298Y-93595085D01*
X108999025Y-93482845D01*
X108999021Y-93482843D01*
X108999019Y-93482842D01*
X108800198Y-93405819D01*
X108613902Y-93370994D01*
X108550618Y-93338816D01*
X108514776Y-93277531D01*
X108517757Y-93206597D01*
X108558615Y-93148535D01*
X108613901Y-93123285D01*
X108800198Y-93088461D01*
X108999019Y-93011438D01*
X109180302Y-92899192D01*
X109337872Y-92755547D01*
X109466366Y-92585395D01*
X109561405Y-92394529D01*
X109619756Y-92189450D01*
X109639429Y-91977140D01*
X109619756Y-91764830D01*
X109613414Y-91742540D01*
X109614008Y-91671551D01*
X109652890Y-91612148D01*
X109663469Y-91604499D01*
X109666635Y-91601922D01*
X109666639Y-91601921D01*
X109680425Y-91590704D01*
X109698183Y-91578618D01*
X109713678Y-91569907D01*
X109742669Y-91540914D01*
X109752228Y-91532288D01*
X109784027Y-91506419D01*
X109794277Y-91491897D01*
X109808114Y-91475469D01*
X110655761Y-90627824D01*
X110718073Y-90593799D01*
X110744856Y-90590920D01*
X115518604Y-90590920D01*
X115586725Y-90610922D01*
X115607699Y-90627825D01*
X115830986Y-90851112D01*
X115865012Y-90913424D01*
X115859947Y-90984239D01*
X115817400Y-91041075D01*
X115799097Y-91052472D01*
X115795065Y-91054526D01*
X115795059Y-91054530D01*
X115707928Y-91141661D01*
X115651986Y-91251455D01*
X115640465Y-91324202D01*
X115637560Y-91342544D01*
X115637560Y-91816776D01*
X115642129Y-91845628D01*
X115651986Y-91907864D01*
X115705576Y-92013042D01*
X115707929Y-92017659D01*
X115795061Y-92104791D01*
X115904854Y-92160733D01*
X115995944Y-92175160D01*
X115995946Y-92175160D01*
X117090174Y-92175160D01*
X117090176Y-92175160D01*
X117181266Y-92160733D01*
X117219419Y-92141292D01*
X117276622Y-92127560D01*
X117981830Y-92127560D01*
X118049951Y-92147562D01*
X118096444Y-92201218D01*
X118106548Y-92271492D01*
X118077054Y-92336072D01*
X118070925Y-92342655D01*
X117956754Y-92456825D01*
X117956749Y-92456831D01*
X117866792Y-92602675D01*
X117812897Y-92765318D01*
X117812895Y-92765330D01*
X117802640Y-92865707D01*
X117802640Y-92885560D01*
X119768640Y-92885560D01*
X119768640Y-92865707D01*
X119758384Y-92765330D01*
X119758382Y-92765318D01*
X119704487Y-92602675D01*
X119614530Y-92456831D01*
X119614525Y-92456825D01*
X119500355Y-92342655D01*
X119466329Y-92280343D01*
X119471394Y-92209528D01*
X119513941Y-92152692D01*
X119580461Y-92127881D01*
X119589450Y-92127560D01*
X119891699Y-92127560D01*
X119896000Y-92127633D01*
X119960086Y-92129822D01*
X119999895Y-92120119D01*
X120012571Y-92117710D01*
X120053180Y-92112130D01*
X120069485Y-92105046D01*
X120089850Y-92098198D01*
X120107112Y-92093993D01*
X120142837Y-92073905D01*
X120154393Y-92068166D01*
X120157773Y-92066698D01*
X120191980Y-92051840D01*
X120205766Y-92040623D01*
X120223524Y-92028537D01*
X120239019Y-92019826D01*
X120268010Y-91990833D01*
X120277574Y-91982202D01*
X120292017Y-91970454D01*
X120357485Y-91942985D01*
X120371526Y-91942200D01*
X124179780Y-91942200D01*
X124247901Y-91962202D01*
X124294394Y-92015858D01*
X124305780Y-92068200D01*
X124305780Y-93308971D01*
X124321208Y-93421215D01*
X124321209Y-93421219D01*
X124321210Y-93421220D01*
X124381500Y-93560020D01*
X124410028Y-93595085D01*
X124412428Y-93598035D01*
X124417279Y-93605427D01*
X124417737Y-93605104D01*
X124422706Y-93612144D01*
X124429071Y-93618959D01*
X124434727Y-93625445D01*
X124476217Y-93676444D01*
X124477002Y-93677408D01*
X124485958Y-93683730D01*
X124505379Y-93700665D01*
X124525998Y-93722743D01*
X124526001Y-93722745D01*
X124647401Y-93796570D01*
X124655298Y-93801372D01*
X124698787Y-93813557D01*
X124801013Y-93842200D01*
X124801015Y-93842200D01*
X129546536Y-93842200D01*
X129588148Y-93849269D01*
X129702497Y-93889281D01*
X129760187Y-93930659D01*
X129786349Y-93996659D01*
X129786880Y-94008210D01*
X129786880Y-94692290D01*
X129766878Y-94760411D01*
X129713222Y-94806904D01*
X129642948Y-94817008D01*
X129578368Y-94787514D01*
X129571785Y-94781385D01*
X129468054Y-94677654D01*
X129468048Y-94677649D01*
X129322204Y-94587692D01*
X129159561Y-94533797D01*
X129159549Y-94533795D01*
X129059172Y-94523540D01*
X129039320Y-94523540D01*
X129039320Y-96489540D01*
X129059173Y-96489540D01*
X129059172Y-96489539D01*
X129159549Y-96479284D01*
X129159561Y-96479282D01*
X129322204Y-96425387D01*
X129468048Y-96335430D01*
X129468054Y-96335425D01*
X129589205Y-96214274D01*
X129589208Y-96214270D01*
X129597647Y-96200589D01*
X129650432Y-96153109D01*
X129720507Y-96141705D01*
X129781024Y-96166336D01*
X129850341Y-96218901D01*
X129850345Y-96218904D01*
X129984729Y-96271899D01*
X129984728Y-96271899D01*
X130007777Y-96274666D01*
X130069176Y-96282040D01*
X130069179Y-96282040D01*
X130601461Y-96282040D01*
X130601464Y-96282040D01*
X130685910Y-96271899D01*
X130820295Y-96218904D01*
X130935398Y-96131618D01*
X131022684Y-96016515D01*
X131075679Y-95882130D01*
X131085820Y-95797684D01*
X131085820Y-95215396D01*
X131075679Y-95130950D01*
X131075528Y-95130568D01*
X131022684Y-94996565D01*
X131022681Y-94996561D01*
X130935396Y-94881459D01*
X130929305Y-94875368D01*
X130930812Y-94873860D01*
X130895551Y-94826137D01*
X130887880Y-94782845D01*
X130887880Y-93981966D01*
X130907882Y-93913845D01*
X130961538Y-93867352D01*
X130972246Y-93863043D01*
X131025262Y-93844493D01*
X131039808Y-93833758D01*
X131134530Y-93763850D01*
X131215171Y-93654585D01*
X131215173Y-93654581D01*
X131222405Y-93633915D01*
X131260026Y-93526399D01*
X131262880Y-93495966D01*
X131611880Y-93495966D01*
X131614734Y-93526400D01*
X131614735Y-93526404D01*
X131659586Y-93654581D01*
X131659588Y-93654585D01*
X131740229Y-93763850D01*
X131849494Y-93844491D01*
X131849498Y-93844493D01*
X131953140Y-93880759D01*
X131977681Y-93889346D01*
X132008114Y-93892200D01*
X132008116Y-93892200D01*
X133141644Y-93892200D01*
X133141646Y-93892200D01*
X133172079Y-93889346D01*
X133300262Y-93844493D01*
X133314808Y-93833758D01*
X133409530Y-93763850D01*
X133490171Y-93654585D01*
X133490173Y-93654581D01*
X133497405Y-93633915D01*
X133535026Y-93526399D01*
X133537880Y-93495966D01*
X133537880Y-93087434D01*
X133535026Y-93057001D01*
X133519081Y-93011434D01*
X133490173Y-92928818D01*
X133490171Y-92928814D01*
X133409530Y-92819549D01*
X133300265Y-92738908D01*
X133300261Y-92738906D01*
X133172084Y-92694055D01*
X133172080Y-92694054D01*
X133141646Y-92691200D01*
X132008114Y-92691200D01*
X132008113Y-92691200D01*
X131977679Y-92694054D01*
X131977675Y-92694055D01*
X131849498Y-92738906D01*
X131849494Y-92738908D01*
X131740229Y-92819549D01*
X131659588Y-92928814D01*
X131659586Y-92928818D01*
X131614735Y-93056995D01*
X131614734Y-93056999D01*
X131611880Y-93087433D01*
X131611880Y-93495966D01*
X131262880Y-93495966D01*
X131262880Y-93087434D01*
X131260026Y-93057001D01*
X131260023Y-93056995D01*
X131259954Y-93056672D01*
X131259971Y-93056422D01*
X131259310Y-93049368D01*
X131260477Y-93049258D01*
X131264952Y-92985851D01*
X131293955Y-92940676D01*
X131336433Y-92898199D01*
X131421061Y-92755101D01*
X131467373Y-92595700D01*
X129132387Y-92595700D01*
X129127776Y-92601840D01*
X129127636Y-92651044D01*
X129089082Y-92710660D01*
X129024417Y-92739968D01*
X129006842Y-92741200D01*
X125532780Y-92741200D01*
X125464659Y-92721198D01*
X125418166Y-92667542D01*
X125406780Y-92615200D01*
X125406780Y-92068200D01*
X125426782Y-92000079D01*
X125480438Y-91953586D01*
X125532780Y-91942200D01*
X129006842Y-91942200D01*
X129074963Y-91962202D01*
X129121456Y-92015858D01*
X129131560Y-92086132D01*
X129131481Y-92086494D01*
X129132387Y-92087700D01*
X131467372Y-92087700D01*
X131421061Y-91928298D01*
X131336432Y-91785200D01*
X131293954Y-91742722D01*
X131259929Y-91680411D01*
X131259950Y-91634092D01*
X131259310Y-91634032D01*
X131259953Y-91627167D01*
X131259954Y-91626724D01*
X131260022Y-91626410D01*
X131260026Y-91626399D01*
X131262880Y-91595966D01*
X131262880Y-91187434D01*
X131260026Y-91157001D01*
X131215173Y-91028818D01*
X131215171Y-91028814D01*
X131134530Y-90919549D01*
X131025265Y-90838908D01*
X131025261Y-90838906D01*
X130897084Y-90794055D01*
X130897080Y-90794054D01*
X130866646Y-90791200D01*
X129733114Y-90791200D01*
X129733113Y-90791200D01*
X129702679Y-90794054D01*
X129702675Y-90794055D01*
X129588151Y-90834129D01*
X129546536Y-90841200D01*
X124879398Y-90841200D01*
X124870800Y-90840906D01*
X124818357Y-90837318D01*
X124809758Y-90837907D01*
X124809722Y-90837394D01*
X124807976Y-90837544D01*
X124808029Y-90838056D01*
X124790883Y-90839819D01*
X124790829Y-90839303D01*
X124775041Y-90841200D01*
X120100199Y-90841200D01*
X120095897Y-90841127D01*
X120086940Y-90840821D01*
X120031794Y-90838937D01*
X120031793Y-90838937D01*
X119991963Y-90848642D01*
X119979296Y-90851049D01*
X119938706Y-90856628D01*
X119938692Y-90856632D01*
X119922394Y-90863711D01*
X119902039Y-90870556D01*
X119884771Y-90874764D01*
X119884766Y-90874766D01*
X119849033Y-90894857D01*
X119837484Y-90900594D01*
X119799898Y-90916920D01*
X119786108Y-90928139D01*
X119768354Y-90940222D01*
X119752860Y-90948934D01*
X119723876Y-90977917D01*
X119714305Y-90986554D01*
X119699875Y-90998295D01*
X119634412Y-91025773D01*
X119620353Y-91026560D01*
X119499987Y-91026560D01*
X119431866Y-91006558D01*
X119410899Y-90989663D01*
X119410723Y-90989487D01*
X119410720Y-90989484D01*
X119410718Y-90989482D01*
X119295615Y-90902196D01*
X119295614Y-90902195D01*
X119161230Y-90849200D01*
X119161231Y-90849200D01*
X119076786Y-90839060D01*
X119076784Y-90839060D01*
X118494496Y-90839060D01*
X118494493Y-90839060D01*
X118410049Y-90849200D01*
X118275665Y-90902195D01*
X118196280Y-90962395D01*
X118160562Y-90989482D01*
X118160561Y-90989483D01*
X118160556Y-90989487D01*
X118160381Y-90989663D01*
X118160180Y-90989772D01*
X118153696Y-90994690D01*
X118152957Y-90993715D01*
X118098066Y-91023683D01*
X118071293Y-91026560D01*
X117266416Y-91026560D01*
X117209213Y-91012827D01*
X117196910Y-91006558D01*
X117181263Y-90998585D01*
X117175620Y-90996752D01*
X117117016Y-90956677D01*
X117089381Y-90891279D01*
X117088560Y-90876920D01*
X117088560Y-90791220D01*
X117088633Y-90786919D01*
X117089170Y-90771193D01*
X117090822Y-90722834D01*
X117081116Y-90683009D01*
X117078710Y-90670346D01*
X117073130Y-90629740D01*
X117066048Y-90613438D01*
X117059197Y-90593063D01*
X117057991Y-90588114D01*
X117054993Y-90575808D01*
X117034898Y-90540069D01*
X117029174Y-90528545D01*
X117012840Y-90490940D01*
X117001621Y-90477151D01*
X116989534Y-90459391D01*
X116980825Y-90443901D01*
X116951844Y-90414920D01*
X116943208Y-90405351D01*
X116924269Y-90382072D01*
X116917338Y-90373552D01*
X116902816Y-90363301D01*
X116886382Y-90349458D01*
X116196246Y-89659321D01*
X116193256Y-89656227D01*
X116149503Y-89609378D01*
X116149501Y-89609377D01*
X116149500Y-89609376D01*
X116114484Y-89588082D01*
X116103824Y-89580827D01*
X116098591Y-89576859D01*
X116071162Y-89556059D01*
X116071159Y-89556057D01*
X116071158Y-89556057D01*
X116054626Y-89549537D01*
X116035388Y-89539982D01*
X116020203Y-89530748D01*
X116020200Y-89530747D01*
X115980738Y-89519690D01*
X115968513Y-89515579D01*
X115930386Y-89500544D01*
X115914300Y-89498890D01*
X115912693Y-89498724D01*
X115891604Y-89494716D01*
X115874485Y-89489920D01*
X115874482Y-89489920D01*
X115833501Y-89489920D01*
X115820614Y-89489259D01*
X115779849Y-89485067D01*
X115762331Y-89488088D01*
X115740924Y-89489920D01*
X110476231Y-89489920D01*
X110471930Y-89489847D01*
X110454715Y-89489259D01*
X110407814Y-89487657D01*
X110407813Y-89487657D01*
X110367983Y-89497362D01*
X110355316Y-89499769D01*
X110314726Y-89505348D01*
X110314712Y-89505352D01*
X110298414Y-89512431D01*
X110278059Y-89519276D01*
X110260791Y-89523484D01*
X110260786Y-89523486D01*
X110225053Y-89543577D01*
X110213504Y-89549314D01*
X110175918Y-89565640D01*
X110162128Y-89576859D01*
X110144374Y-89588942D01*
X110128880Y-89597654D01*
X110099896Y-89626637D01*
X110090323Y-89635276D01*
X110058533Y-89661140D01*
X110058532Y-89661141D01*
X110048278Y-89675667D01*
X110034439Y-89692094D01*
X109113296Y-90613237D01*
X109074403Y-90639709D01*
X109045280Y-90652359D01*
X109045279Y-90652360D01*
X109031485Y-90663582D01*
X109013732Y-90675665D01*
X108998237Y-90684377D01*
X108969260Y-90713354D01*
X108959687Y-90721993D01*
X108927892Y-90747861D01*
X108927890Y-90747863D01*
X108917638Y-90762386D01*
X108903799Y-90778813D01*
X108861143Y-90821469D01*
X108798831Y-90855495D01*
X108748896Y-90856229D01*
X108590610Y-90826640D01*
X108377390Y-90826640D01*
X108252442Y-90849997D01*
X108167800Y-90865819D01*
X108029105Y-90919550D01*
X107968981Y-90942842D01*
X107968980Y-90942842D01*
X107968979Y-90942843D01*
X107968974Y-90942845D01*
X107787701Y-91055085D01*
X107787699Y-91055086D01*
X107630129Y-91198731D01*
X107590314Y-91251455D01*
X107501634Y-91368885D01*
X107433151Y-91506419D01*
X107406593Y-91559755D01*
X107348243Y-91764833D01*
X107345961Y-91789460D01*
X107319759Y-91855445D01*
X107262041Y-91896788D01*
X107191135Y-91900364D01*
X107129551Y-91865037D01*
X107096843Y-91802024D01*
X107094499Y-91777833D01*
X107094499Y-91082280D01*
X107094499Y-91082276D01*
X107091585Y-91057149D01*
X107069247Y-91006558D01*
X107046206Y-90954374D01*
X106966767Y-90874935D01*
X106966765Y-90874934D01*
X106863989Y-90829554D01*
X106863990Y-90829554D01*
X106838868Y-90826640D01*
X105049140Y-90826640D01*
X105049133Y-90826641D01*
X105024009Y-90829554D01*
X105024005Y-90829556D01*
X104921234Y-90874933D01*
X104841795Y-90954372D01*
X104841794Y-90954374D01*
X104796414Y-91057149D01*
X104793500Y-91082269D01*
X104793500Y-92871999D01*
X104793501Y-92872006D01*
X104796414Y-92897130D01*
X104796416Y-92897134D01*
X104841793Y-92999905D01*
X104921232Y-93079344D01*
X104921234Y-93079345D01*
X104921235Y-93079346D01*
X105024009Y-93124725D01*
X105049135Y-93127640D01*
X105756175Y-93127639D01*
X105824294Y-93147641D01*
X105870787Y-93201297D01*
X105880891Y-93271570D01*
X105851398Y-93336151D01*
X105791671Y-93374535D01*
X105779326Y-93377493D01*
X105627805Y-93405817D01*
X105471101Y-93466524D01*
X105428981Y-93482842D01*
X105428980Y-93482842D01*
X105428979Y-93482843D01*
X105428974Y-93482845D01*
X105247701Y-93595085D01*
X105247699Y-93595086D01*
X105090129Y-93738731D01*
X104961633Y-93908886D01*
X104930727Y-93970955D01*
X104907524Y-94017555D01*
X104905409Y-94021802D01*
X104857140Y-94073866D01*
X104792618Y-94091640D01*
X103075893Y-94091640D01*
X102941107Y-94091640D01*
X102918286Y-94099054D01*
X102899072Y-94103667D01*
X102875374Y-94107420D01*
X102853998Y-94118312D01*
X102835735Y-94125876D01*
X102812922Y-94133288D01*
X102812919Y-94133290D01*
X102793506Y-94147394D01*
X102776653Y-94157721D01*
X102755282Y-94168609D01*
X102755281Y-94168610D01*
X102743294Y-94180597D01*
X102731306Y-94192586D01*
X102037660Y-94886232D01*
X102011981Y-94911911D01*
X101942351Y-94981540D01*
X101942349Y-94981542D01*
X101931461Y-95002913D01*
X101921134Y-95019766D01*
X101907030Y-95039179D01*
X101907028Y-95039182D01*
X101899616Y-95061995D01*
X101892052Y-95080258D01*
X101881160Y-95101634D01*
X101877407Y-95125332D01*
X101872794Y-95144546D01*
X101865380Y-95167367D01*
X101865380Y-95167369D01*
X101865380Y-98865773D01*
X101872792Y-98888585D01*
X101877408Y-98907811D01*
X101881160Y-98931505D01*
X101892050Y-98952876D01*
X101899617Y-98971144D01*
X101907030Y-98993960D01*
X101921129Y-99013365D01*
X101931459Y-99030223D01*
X101942350Y-99051598D01*
X101942351Y-99051599D01*
X101942352Y-99051600D01*
X101966326Y-99075574D01*
X102371612Y-99480860D01*
X102466920Y-99576168D01*
X102488298Y-99587061D01*
X102505148Y-99597386D01*
X102524559Y-99611489D01*
X102547371Y-99618900D01*
X102565638Y-99626467D01*
X102587014Y-99637359D01*
X102610712Y-99641111D01*
X102629932Y-99645726D01*
X102652747Y-99653140D01*
X102652749Y-99653140D01*
X132883994Y-99653140D01*
X132906802Y-99645728D01*
X132926028Y-99641111D01*
X132949726Y-99637359D01*
X132971100Y-99626467D01*
X132989373Y-99618899D01*
X133012179Y-99611490D01*
X133012179Y-99611489D01*
X133012181Y-99611489D01*
X133031581Y-99597392D01*
X133048448Y-99587057D01*
X133056375Y-99583017D01*
X133069820Y-99576168D01*
X133165128Y-99480860D01*
X134474863Y-98171125D01*
X134537175Y-98137099D01*
X134563958Y-98134220D01*
X154540026Y-98134220D01*
X154608147Y-98154222D01*
X154654640Y-98207878D01*
X154664744Y-98278152D01*
X154643722Y-98331796D01*
X154635221Y-98344110D01*
X154635219Y-98344114D01*
X154574899Y-98503168D01*
X154554395Y-98672037D01*
X154554395Y-98672042D01*
X154574899Y-98840911D01*
X154635219Y-98999965D01*
X154635221Y-98999969D01*
X154706231Y-99102843D01*
X154731857Y-99139969D01*
X154859188Y-99252774D01*
X155009815Y-99331830D01*
X155009816Y-99331830D01*
X155009818Y-99331831D01*
X155166501Y-99370449D01*
X155174984Y-99372540D01*
X155174987Y-99372540D01*
X155345093Y-99372540D01*
X155345096Y-99372540D01*
X155510265Y-99331830D01*
X155660892Y-99252774D01*
X155788223Y-99139969D01*
X155788224Y-99139968D01*
X155793928Y-99134915D01*
X155794773Y-99135869D01*
X155848350Y-99102262D01*
X155882520Y-99097540D01*
X215843894Y-99097540D01*
X215863604Y-99099091D01*
X215865965Y-99099464D01*
X215887300Y-99102844D01*
X216020426Y-99081759D01*
X216140520Y-99020568D01*
X216235828Y-98925260D01*
X216297019Y-98805166D01*
X216312800Y-98705528D01*
X216318104Y-98672040D01*
X216314350Y-98648343D01*
X216312800Y-98628634D01*
X216312800Y-97854000D01*
X227442000Y-97854000D01*
X227442000Y-98148597D01*
X227448505Y-98209093D01*
X227499555Y-98345964D01*
X227499555Y-98345965D01*
X227587095Y-98462904D01*
X227704034Y-98550444D01*
X227840906Y-98601494D01*
X227901402Y-98607999D01*
X227901415Y-98608000D01*
X228696000Y-98608000D01*
X228696000Y-97854000D01*
X227442000Y-97854000D01*
X216312800Y-97854000D01*
X216312800Y-97346000D01*
X227442000Y-97346000D01*
X228696000Y-97346000D01*
X228696000Y-96592000D01*
X227901402Y-96592000D01*
X227840906Y-96598505D01*
X227704035Y-96649555D01*
X227704034Y-96649555D01*
X227587095Y-96737095D01*
X227499555Y-96854034D01*
X227499555Y-96854035D01*
X227448505Y-96990906D01*
X227442000Y-97051402D01*
X227442000Y-97346000D01*
X216312800Y-97346000D01*
X216312800Y-95628799D01*
X216332802Y-95560678D01*
X216386458Y-95514185D01*
X216438800Y-95502799D01*
X217468020Y-95502799D01*
X217536141Y-95522801D01*
X217556526Y-95540270D01*
X217556612Y-95540174D01*
X217585913Y-95566132D01*
X217689648Y-95658033D01*
X217840275Y-95737089D01*
X217840276Y-95737089D01*
X217840278Y-95737090D01*
X217943247Y-95762469D01*
X218005444Y-95777799D01*
X218005447Y-95777799D01*
X218175553Y-95777799D01*
X218175556Y-95777799D01*
X218340725Y-95737089D01*
X218491352Y-95658033D01*
X218618683Y-95545228D01*
X218715318Y-95405229D01*
X218775640Y-95246171D01*
X218786875Y-95153641D01*
X218796145Y-95077301D01*
X218796145Y-95077296D01*
X218775640Y-94908427D01*
X218715320Y-94749373D01*
X218715318Y-94749369D01*
X218618683Y-94609370D01*
X218618681Y-94609368D01*
X218491357Y-94496569D01*
X218491351Y-94496564D01*
X218340725Y-94417509D01*
X218340721Y-94417507D01*
X218175559Y-94376799D01*
X218175556Y-94376799D01*
X218005444Y-94376799D01*
X218005440Y-94376799D01*
X217840278Y-94417507D01*
X217840274Y-94417509D01*
X217689648Y-94496564D01*
X217689646Y-94496566D01*
X217556612Y-94614424D01*
X217555766Y-94613469D01*
X217502190Y-94647077D01*
X217468020Y-94651799D01*
X215903189Y-94651799D01*
X215835068Y-94631797D01*
X215788575Y-94578141D01*
X215778471Y-94507867D01*
X215795948Y-94459653D01*
X215872125Y-94336148D01*
X215872126Y-94336145D01*
X215926022Y-94173501D01*
X215926024Y-94173489D01*
X215936279Y-94073112D01*
X215936280Y-94073112D01*
X215936280Y-94028260D01*
X214850280Y-94028260D01*
X214782159Y-94008258D01*
X214735666Y-93954602D01*
X214724280Y-93902260D01*
X214724280Y-93520260D01*
X215232280Y-93520260D01*
X215936280Y-93520260D01*
X215936280Y-93475407D01*
X215926024Y-93375030D01*
X215926022Y-93375018D01*
X215872127Y-93212375D01*
X215782170Y-93066531D01*
X215759547Y-93043909D01*
X215725521Y-92981597D01*
X215730585Y-92910782D01*
X215759547Y-92865715D01*
X215794777Y-92830485D01*
X215794781Y-92830480D01*
X215883726Y-92683346D01*
X215934878Y-92519193D01*
X215934878Y-92519192D01*
X215941360Y-92447862D01*
X215941360Y-92369640D01*
X215287360Y-92369640D01*
X215287360Y-93034369D01*
X215267358Y-93102490D01*
X215250455Y-93123464D01*
X215232280Y-93141639D01*
X215232280Y-93520260D01*
X214724280Y-93520260D01*
X214724280Y-92855531D01*
X214744282Y-92787410D01*
X214761185Y-92766436D01*
X214779360Y-92748261D01*
X214779360Y-91132640D01*
X215287360Y-91132640D01*
X215287360Y-91861640D01*
X215941359Y-91861640D01*
X215941359Y-91783418D01*
X215934878Y-91712086D01*
X215883726Y-91547933D01*
X215794781Y-91400799D01*
X215794773Y-91400789D01*
X215673210Y-91279226D01*
X215673200Y-91279218D01*
X215526066Y-91190273D01*
X215361912Y-91139121D01*
X215290583Y-91132640D01*
X215287360Y-91132640D01*
X214779360Y-91132640D01*
X214776128Y-91132641D01*
X214704806Y-91139121D01*
X214540653Y-91190273D01*
X214393519Y-91279218D01*
X214393509Y-91279226D01*
X214271946Y-91400789D01*
X214271936Y-91400802D01*
X214193213Y-91531027D01*
X214140855Y-91578975D01*
X214070885Y-91591005D01*
X214005518Y-91563296D01*
X213984518Y-91541352D01*
X213953562Y-91500000D01*
X213940906Y-91483094D01*
X213940905Y-91483093D01*
X213935506Y-91475881D01*
X213938580Y-91473579D01*
X213913202Y-91427104D01*
X213918267Y-91356289D01*
X213937283Y-91324637D01*
X213936652Y-91324202D01*
X213986866Y-91251455D01*
X214037617Y-91177930D01*
X214097939Y-91018872D01*
X214112997Y-90894857D01*
X214118444Y-90850002D01*
X214118444Y-90849997D01*
X214097939Y-90681128D01*
X214037619Y-90522074D01*
X214037617Y-90522070D01*
X213940983Y-90382072D01*
X213815396Y-90270812D01*
X213777671Y-90210668D01*
X213778451Y-90139676D01*
X213817489Y-90080375D01*
X213882389Y-90051593D01*
X213898950Y-90050500D01*
X220828500Y-90050500D01*
X220896621Y-90070502D01*
X220943114Y-90124158D01*
X220954500Y-90176500D01*
X220954500Y-90884394D01*
X220934498Y-90952515D01*
X220912054Y-90978705D01*
X220905808Y-90984239D01*
X220851815Y-91032072D01*
X220755181Y-91172070D01*
X220755179Y-91172074D01*
X220694859Y-91331128D01*
X220674355Y-91499997D01*
X220674355Y-91500002D01*
X220694859Y-91668871D01*
X220755179Y-91827925D01*
X220755181Y-91827929D01*
X220851816Y-91967928D01*
X220851818Y-91967930D01*
X220974368Y-92076500D01*
X220979148Y-92080734D01*
X221129775Y-92159790D01*
X221129776Y-92159790D01*
X221129778Y-92159791D01*
X221264466Y-92192988D01*
X221294944Y-92200500D01*
X221294947Y-92200500D01*
X221465053Y-92200500D01*
X221465056Y-92200500D01*
X221630225Y-92159790D01*
X221780852Y-92080734D01*
X221908183Y-91967929D01*
X222004818Y-91827930D01*
X222007251Y-91821516D01*
X222050544Y-91707359D01*
X222065140Y-91668872D01*
X222073708Y-91598309D01*
X222085645Y-91500002D01*
X222085645Y-91499997D01*
X222065140Y-91331128D01*
X222004820Y-91172074D01*
X222004818Y-91172070D01*
X221908184Y-91032072D01*
X221904511Y-91028818D01*
X221847945Y-90978705D01*
X221810221Y-90918562D01*
X221805500Y-90884394D01*
X221805500Y-90176500D01*
X221825502Y-90108379D01*
X221879158Y-90061886D01*
X221931500Y-90050500D01*
X223656458Y-90050500D01*
X223724579Y-90070502D01*
X223744965Y-90086820D01*
X225247686Y-91569906D01*
X225351997Y-91672854D01*
X225371152Y-91697075D01*
X225376340Y-91705608D01*
X225375899Y-91705875D01*
X225376837Y-91707359D01*
X225377267Y-91707078D01*
X225381992Y-91714282D01*
X225424138Y-91762616D01*
X225426901Y-91765896D01*
X225456294Y-91802024D01*
X225467364Y-91815630D01*
X225473666Y-91821516D01*
X225473310Y-91821896D01*
X225474607Y-91823066D01*
X225474949Y-91822675D01*
X225481447Y-91828341D01*
X225535052Y-91863500D01*
X225538609Y-91865920D01*
X225590993Y-91902897D01*
X225590994Y-91902897D01*
X225590995Y-91902898D01*
X225598648Y-91906863D01*
X225598409Y-91907324D01*
X225599982Y-91908105D01*
X225600206Y-91907636D01*
X225607987Y-91911337D01*
X225669121Y-91930739D01*
X225673113Y-91932081D01*
X225733584Y-91953574D01*
X225733588Y-91953574D01*
X225742021Y-91955327D01*
X225741915Y-91955835D01*
X225743638Y-91956163D01*
X225743727Y-91955651D01*
X225752217Y-91957114D01*
X225752224Y-91957116D01*
X225753458Y-91957158D01*
X225754533Y-91957514D01*
X225760716Y-91958580D01*
X225760556Y-91959507D01*
X225820854Y-91979470D01*
X225865491Y-92034679D01*
X225875160Y-92083084D01*
X225875160Y-95632674D01*
X225873609Y-95652384D01*
X225869856Y-95676080D01*
X225875160Y-95709568D01*
X225890941Y-95809207D01*
X225951311Y-95927689D01*
X225952132Y-95929300D01*
X226047440Y-96024608D01*
X226167534Y-96085799D01*
X226300660Y-96106884D01*
X226433786Y-96085799D01*
X226553880Y-96024608D01*
X226649188Y-95929300D01*
X226710379Y-95809206D01*
X226726160Y-95709568D01*
X226731464Y-95676080D01*
X226727710Y-95652383D01*
X226726160Y-95632674D01*
X226726160Y-92076500D01*
X226746162Y-92008379D01*
X226799818Y-91961886D01*
X226852160Y-91950500D01*
X227561707Y-91950500D01*
X227629828Y-91970502D01*
X227676321Y-92024158D01*
X227676971Y-92025606D01*
X227697793Y-92072765D01*
X227777232Y-92152204D01*
X227777234Y-92152205D01*
X227777235Y-92152206D01*
X227880009Y-92197585D01*
X227905135Y-92200500D01*
X229848500Y-92200499D01*
X229916621Y-92220501D01*
X229963114Y-92274157D01*
X229974500Y-92326499D01*
X229974500Y-92798500D01*
X229954498Y-92866621D01*
X229900842Y-92913114D01*
X229848500Y-92924500D01*
X227530136Y-92924500D01*
X227519574Y-92922399D01*
X227499998Y-92922399D01*
X227494931Y-92924498D01*
X227494928Y-92924500D01*
X227480482Y-92930483D01*
X227472399Y-92949999D01*
X227472399Y-92969575D01*
X227474500Y-92980136D01*
X227474500Y-96019867D01*
X227472398Y-96030435D01*
X227472399Y-96049999D01*
X227474498Y-96055067D01*
X227474499Y-96055072D01*
X227474500Y-96055072D01*
X227480483Y-96069517D01*
X227500000Y-96077601D01*
X227519575Y-96077601D01*
X227530137Y-96075500D01*
X229848500Y-96075500D01*
X229916621Y-96095502D01*
X229963114Y-96149158D01*
X229974500Y-96201500D01*
X229974500Y-96466000D01*
X229954498Y-96534121D01*
X229900842Y-96580614D01*
X229848500Y-96592000D01*
X229204000Y-96592000D01*
X229204000Y-98608000D01*
X229848500Y-98608000D01*
X229916621Y-98628002D01*
X229963114Y-98681658D01*
X229974500Y-98734000D01*
X229974500Y-99848500D01*
X229954498Y-99916621D01*
X229900842Y-99963114D01*
X229848500Y-99974500D01*
X100151500Y-99974500D01*
X100083379Y-99954498D01*
X100036886Y-99900842D01*
X100025500Y-99848500D01*
X100025500Y-89151500D01*
X100045502Y-89083379D01*
X100099158Y-89036886D01*
X100151500Y-89025500D01*
X211087769Y-89025500D01*
X211155890Y-89045502D01*
G37*
G04 #@! TD.AperFunction*
G04 #@! TA.AperFunction,Conductor*
G36*
X104860739Y-94962642D02*
G01*
X104905408Y-95012477D01*
X104961634Y-95125395D01*
X105090128Y-95295547D01*
X105090129Y-95295548D01*
X105247699Y-95439193D01*
X105247701Y-95439194D01*
X105428974Y-95551434D01*
X105428975Y-95551434D01*
X105428981Y-95551438D01*
X105627802Y-95628461D01*
X105814097Y-95663285D01*
X105877381Y-95695464D01*
X105913223Y-95756749D01*
X105910242Y-95827683D01*
X105869384Y-95885745D01*
X105814098Y-95910994D01*
X105701350Y-95932070D01*
X105627800Y-95945819D01*
X105519332Y-95987840D01*
X105428981Y-96022842D01*
X105428980Y-96022842D01*
X105428979Y-96022843D01*
X105428974Y-96022845D01*
X105247701Y-96135085D01*
X105247699Y-96135086D01*
X105090129Y-96278731D01*
X105019596Y-96372132D01*
X104961634Y-96448885D01*
X104890372Y-96592000D01*
X104866593Y-96639755D01*
X104808244Y-96844828D01*
X104788571Y-97057140D01*
X104808244Y-97269451D01*
X104866593Y-97474524D01*
X104866594Y-97474526D01*
X104866595Y-97474529D01*
X104961634Y-97665395D01*
X105036989Y-97765180D01*
X105090129Y-97835548D01*
X105247699Y-97979193D01*
X105247701Y-97979194D01*
X105428974Y-98091434D01*
X105428975Y-98091434D01*
X105428981Y-98091438D01*
X105627802Y-98168461D01*
X105837390Y-98207640D01*
X105837393Y-98207640D01*
X106050607Y-98207640D01*
X106050610Y-98207640D01*
X106260198Y-98168461D01*
X106459019Y-98091438D01*
X106613447Y-97995819D01*
X106681893Y-97976965D01*
X106749668Y-97998108D01*
X106795254Y-98052537D01*
X106805775Y-98103622D01*
X106804609Y-98321386D01*
X106804192Y-98326531D01*
X106804192Y-98399242D01*
X106804190Y-98399918D01*
X106804008Y-98433817D01*
X106804192Y-98438837D01*
X106804192Y-98468045D01*
X106811146Y-98489449D01*
X106815863Y-98509334D01*
X106819266Y-98531583D01*
X106819266Y-98531584D01*
X106819267Y-98531585D01*
X106830710Y-98554344D01*
X106837967Y-98571996D01*
X106845843Y-98596233D01*
X106849665Y-98601494D01*
X106850092Y-98602081D01*
X106873949Y-98668949D01*
X106857867Y-98738101D01*
X106806952Y-98787580D01*
X106748154Y-98802140D01*
X102948578Y-98802140D01*
X102880457Y-98782138D01*
X102859483Y-98765235D01*
X102753285Y-98659037D01*
X102719259Y-98596725D01*
X102716380Y-98569942D01*
X102716380Y-95463198D01*
X102736382Y-95395077D01*
X102753285Y-95374103D01*
X103147843Y-94979545D01*
X103210155Y-94945519D01*
X103236938Y-94942640D01*
X104792618Y-94942640D01*
X104860739Y-94962642D01*
G37*
G04 #@! TD.AperFunction*
G04 #@! TA.AperFunction,Conductor*
G36*
X212994769Y-90070502D02*
G01*
X213041262Y-90124158D01*
X213051366Y-90194432D01*
X213021872Y-90259012D01*
X213010202Y-90270812D01*
X212884614Y-90382072D01*
X212787980Y-90522070D01*
X212787978Y-90522074D01*
X212727658Y-90681128D01*
X212707154Y-90849997D01*
X212707154Y-90850002D01*
X212727658Y-91018871D01*
X212787978Y-91177925D01*
X212787980Y-91177929D01*
X212870873Y-91298019D01*
X212893109Y-91365443D01*
X212875362Y-91434186D01*
X212842688Y-91470462D01*
X212825813Y-91483094D01*
X212739563Y-91598310D01*
X212739561Y-91598313D01*
X212689269Y-91733155D01*
X212682860Y-91792761D01*
X212682860Y-92438504D01*
X212682862Y-92438525D01*
X212689268Y-92498120D01*
X212689268Y-92498121D01*
X212739561Y-92632966D01*
X212739563Y-92632969D01*
X212739564Y-92632971D01*
X212762656Y-92663818D01*
X212825813Y-92748186D01*
X212913054Y-92813494D01*
X212935744Y-92830480D01*
X212936808Y-92831276D01*
X212979355Y-92888112D01*
X212987299Y-92932144D01*
X212987299Y-92965951D01*
X212967297Y-93034072D01*
X212937433Y-93066348D01*
X212828201Y-93149181D01*
X212740918Y-93264281D01*
X212740915Y-93264285D01*
X212687920Y-93398669D01*
X212677780Y-93483113D01*
X212677780Y-94065406D01*
X212687920Y-94149850D01*
X212740915Y-94284234D01*
X212740918Y-94284238D01*
X212828201Y-94399338D01*
X212937433Y-94482171D01*
X212979626Y-94539269D01*
X212987299Y-94582568D01*
X212987299Y-95003200D01*
X212967297Y-95071321D01*
X212913641Y-95117814D01*
X212861299Y-95129200D01*
X212849198Y-95129200D01*
X212781077Y-95109198D01*
X212760103Y-95092295D01*
X212187696Y-94519888D01*
X212153670Y-94457576D01*
X212151710Y-94415603D01*
X212152128Y-94412166D01*
X212155565Y-94383860D01*
X212153813Y-94369433D01*
X212135060Y-94214988D01*
X212074740Y-94055934D01*
X212074738Y-94055930D01*
X211978103Y-93915931D01*
X211978101Y-93915929D01*
X211850777Y-93803130D01*
X211850771Y-93803125D01*
X211700145Y-93724070D01*
X211700141Y-93724068D01*
X211534979Y-93683360D01*
X211534976Y-93683360D01*
X211364864Y-93683360D01*
X211364861Y-93683360D01*
X211364858Y-93683361D01*
X211229842Y-93716638D01*
X211158914Y-93713519D01*
X211100932Y-93672548D01*
X211074305Y-93606734D01*
X211080086Y-93554665D01*
X211127262Y-93412298D01*
X211127264Y-93412289D01*
X211137519Y-93311912D01*
X211137520Y-93311912D01*
X211137520Y-93292060D01*
X210408520Y-93292060D01*
X210408520Y-93996060D01*
X210453373Y-93996060D01*
X210453372Y-93996059D01*
X210553749Y-93985804D01*
X210553758Y-93985802D01*
X210643185Y-93956169D01*
X210714140Y-93953728D01*
X210775150Y-93990035D01*
X210806846Y-94053564D01*
X210800631Y-94120452D01*
X210764779Y-94214986D01*
X210764779Y-94214987D01*
X210744275Y-94383857D01*
X210744275Y-94383862D01*
X210764779Y-94552731D01*
X210825099Y-94711785D01*
X210825101Y-94711789D01*
X210921736Y-94851788D01*
X210921738Y-94851790D01*
X211046864Y-94962642D01*
X211049068Y-94964594D01*
X211199695Y-95043650D01*
X211199696Y-95043650D01*
X211199698Y-95043651D01*
X211284884Y-95064647D01*
X211364864Y-95084360D01*
X211364867Y-95084360D01*
X211496482Y-95084360D01*
X211564603Y-95104362D01*
X211585577Y-95121265D01*
X212255818Y-95791506D01*
X212289844Y-95853818D01*
X212284779Y-95924633D01*
X212242232Y-95981469D01*
X212175712Y-96006280D01*
X212166723Y-96006601D01*
X209380140Y-96006601D01*
X209312019Y-95986599D01*
X209265526Y-95932943D01*
X209254140Y-95880601D01*
X209254140Y-93948880D01*
X209274142Y-93880759D01*
X209327798Y-93834266D01*
X209398072Y-93824162D01*
X209446287Y-93841639D01*
X209592635Y-93931907D01*
X209755278Y-93985802D01*
X209755290Y-93985804D01*
X209855667Y-93996059D01*
X209855667Y-93996060D01*
X209900520Y-93996060D01*
X209900520Y-92910060D01*
X209920522Y-92841939D01*
X209974178Y-92795446D01*
X210026520Y-92784060D01*
X211137520Y-92784060D01*
X211137520Y-92764207D01*
X211127264Y-92663830D01*
X211127262Y-92663818D01*
X211073367Y-92501175D01*
X210983410Y-92355331D01*
X210983405Y-92355325D01*
X210862254Y-92234174D01*
X210862245Y-92234167D01*
X210848565Y-92225729D01*
X210801087Y-92172943D01*
X210789685Y-92102868D01*
X210814317Y-92042354D01*
X210814521Y-92042086D01*
X210866884Y-91973035D01*
X210919879Y-91838650D01*
X210930020Y-91754204D01*
X210930020Y-91221916D01*
X210919879Y-91137470D01*
X210918916Y-91129449D01*
X210920576Y-91129249D01*
X210922908Y-91067852D01*
X210953380Y-91018712D01*
X211887049Y-90087297D01*
X211949403Y-90053347D01*
X211976037Y-90050500D01*
X212926648Y-90050500D01*
X212994769Y-90070502D01*
G37*
G04 #@! TD.AperFunction*
M02*
