G04 #@! TF.GenerationSoftware,KiCad,Pcbnew,7.0.10*
G04 #@! TF.CreationDate,2024-02-20T19:33:16+01:00*
G04 #@! TF.ProjectId,IM72D128-Tube-PCB,494d3732-4431-4323-982d-547562652d50,rev?*
G04 #@! TF.SameCoordinates,Original*
G04 #@! TF.FileFunction,Paste,Top*
G04 #@! TF.FilePolarity,Positive*
%FSLAX46Y46*%
G04 Gerber Fmt 4.6, Leading zero omitted, Abs format (unit mm)*
G04 Created by KiCad (PCBNEW 7.0.10) date 2024-02-20 19:33:16*
%MOMM*%
%LPD*%
G01*
G04 APERTURE LIST*
G04 Aperture macros list*
%AMRoundRect*
0 Rectangle with rounded corners*
0 $1 Rounding radius*
0 $2 $3 $4 $5 $6 $7 $8 $9 X,Y pos of 4 corners*
0 Add a 4 corners polygon primitive as box body*
4,1,4,$2,$3,$4,$5,$6,$7,$8,$9,$2,$3,0*
0 Add four circle primitives for the rounded corners*
1,1,$1+$1,$2,$3*
1,1,$1+$1,$4,$5*
1,1,$1+$1,$6,$7*
1,1,$1+$1,$8,$9*
0 Add four rect primitives between the rounded corners*
20,1,$1+$1,$2,$3,$4,$5,0*
20,1,$1+$1,$4,$5,$6,$7,0*
20,1,$1+$1,$6,$7,$8,$9,0*
20,1,$1+$1,$8,$9,$2,$3,0*%
G04 Aperture macros list end*
%ADD10RoundRect,0.225000X0.225000X0.250000X-0.225000X0.250000X-0.225000X-0.250000X0.225000X-0.250000X0*%
%ADD11RoundRect,0.225000X-0.250000X0.225000X-0.250000X-0.225000X0.250000X-0.225000X0.250000X0.225000X0*%
%ADD12RoundRect,0.225000X-0.225000X-0.250000X0.225000X-0.250000X0.225000X0.250000X-0.225000X0.250000X0*%
%ADD13RoundRect,0.200000X-0.200000X-0.275000X0.200000X-0.275000X0.200000X0.275000X-0.200000X0.275000X0*%
%ADD14RoundRect,0.150000X-0.512500X-0.150000X0.512500X-0.150000X0.512500X0.150000X-0.512500X0.150000X0*%
%ADD15C,0.304800*%
%ADD16RoundRect,0.088500X-0.516500X-0.206500X0.516500X-0.206500X0.516500X0.206500X-0.516500X0.206500X0*%
G04 APERTURE END LIST*
D10*
X130335320Y-95506540D03*
X128785320Y-95506540D03*
D11*
X135757920Y-91421920D03*
X135757920Y-92971920D03*
X210154520Y-91488060D03*
X210154520Y-93038060D03*
X157988000Y-92681760D03*
X157988000Y-94231760D03*
D12*
X213428280Y-93774260D03*
X214978280Y-93774260D03*
D13*
X213383360Y-92115640D03*
X215033360Y-92115640D03*
D14*
X130299880Y-91391700D03*
X130299880Y-92341700D03*
X130299880Y-93291700D03*
X132574880Y-93291700D03*
X132574880Y-91391700D03*
D15*
X213490200Y-95154700D03*
X213890200Y-95154700D03*
X213490200Y-95554700D03*
X213890200Y-95554700D03*
X213490200Y-95954700D03*
X213890200Y-95954700D03*
X213490200Y-96354700D03*
X213890200Y-96354700D03*
D11*
X118785640Y-91589560D03*
X118785640Y-93139560D03*
X154813000Y-92620800D03*
X154813000Y-94170800D03*
D16*
X114033060Y-91579660D03*
X114033060Y-92529660D03*
X114033060Y-93479660D03*
X116543060Y-93479660D03*
X116543060Y-91579660D03*
X149948660Y-93395760D03*
X149948660Y-94345760D03*
X149948660Y-95295760D03*
X152458660Y-95295760D03*
X152458660Y-93395760D03*
X160337260Y-95770660D03*
X160337260Y-96720660D03*
X160337260Y-97670660D03*
X162847260Y-97670660D03*
X162847260Y-95770660D03*
M02*
