G04 #@! TF.GenerationSoftware,KiCad,Pcbnew,6.0.10-86aedd382b~118~ubuntu22.04.1*
G04 #@! TF.CreationDate,2023-01-18T19:19:55+01:00*
G04 #@! TF.ProjectId,IM72D128-Tube-PCB,494d3732-4431-4323-982d-547562652d50,rev?*
G04 #@! TF.SameCoordinates,Original*
G04 #@! TF.FileFunction,Soldermask,Bot*
G04 #@! TF.FilePolarity,Negative*
%FSLAX46Y46*%
G04 Gerber Fmt 4.6, Leading zero omitted, Abs format (unit mm)*
G04 Created by KiCad (PCBNEW 6.0.10-86aedd382b~118~ubuntu22.04.1) date 2023-01-18 19:19:55*
%MOMM*%
%LPD*%
G01*
G04 APERTURE LIST*
G04 Aperture macros list*
%AMRoundRect*
0 Rectangle with rounded corners*
0 $1 Rounding radius*
0 $2 $3 $4 $5 $6 $7 $8 $9 X,Y pos of 4 corners*
0 Add a 4 corners polygon primitive as box body*
4,1,4,$2,$3,$4,$5,$6,$7,$8,$9,$2,$3,0*
0 Add four circle primitives for the rounded corners*
1,1,$1+$1,$2,$3*
1,1,$1+$1,$4,$5*
1,1,$1+$1,$6,$7*
1,1,$1+$1,$8,$9*
0 Add four rect primitives between the rounded corners*
20,1,$1+$1,$2,$3,$4,$5,0*
20,1,$1+$1,$4,$5,$6,$7,0*
20,1,$1+$1,$6,$7,$8,$9,0*
20,1,$1+$1,$8,$9,$2,$3,0*%
%AMFreePoly0*
4,1,16,0.536062,0.786062,0.542435,0.778290,1.042435,0.028290,1.050010,-0.010002,1.042435,-0.028290,0.542435,-0.778290,0.510002,-0.800010,0.500000,-0.801000,-0.500000,-0.801000,-0.536062,-0.786062,-0.551000,-0.750000,-0.551000,0.750000,-0.536062,0.786062,-0.500000,0.801000,0.500000,0.801000,0.536062,0.786062,0.536062,0.786062,$1*%
%AMFreePoly1*
4,1,16,0.536062,0.786062,0.551000,0.750000,0.551000,-0.750000,0.536062,-0.786062,0.500000,-0.801000,-0.650000,-0.801000,-0.686062,-0.786062,-0.701000,-0.750000,-0.692435,-0.721710,-0.211295,0.000000,-0.692435,0.721710,-0.700010,0.760002,-0.678290,0.792435,-0.650000,0.801000,0.500000,0.801000,0.536062,0.786062,0.536062,0.786062,$1*%
G04 Aperture macros list end*
%ADD10RoundRect,0.051000X-0.850000X-0.850000X0.850000X-0.850000X0.850000X0.850000X-0.850000X0.850000X0*%
%ADD11O,1.802000X1.802000*%
%ADD12C,2.202000*%
%ADD13RoundRect,0.051000X1.000000X-0.500000X1.000000X0.500000X-1.000000X0.500000X-1.000000X-0.500000X0*%
%ADD14FreePoly0,180.000000*%
%ADD15FreePoly1,180.000000*%
G04 APERTURE END LIST*
D10*
X105944000Y-91977140D03*
D11*
X108484000Y-91977140D03*
X105944000Y-94517140D03*
X108484000Y-94517140D03*
X105944000Y-97057140D03*
X108484000Y-97057140D03*
D12*
X122000000Y-94000000D03*
X205000000Y-95500000D03*
D13*
X228950000Y-96950000D03*
X228950000Y-98950000D03*
X228950000Y-90450000D03*
D14*
X224225000Y-93020000D03*
D15*
X222775000Y-93020000D03*
D14*
X224225000Y-95770000D03*
D15*
X222775000Y-95770000D03*
G36*
X223677664Y-95001440D02*
G01*
X223677397Y-95003068D01*
X223184339Y-95742655D01*
X223176990Y-95760397D01*
X223176970Y-95779501D01*
X223184340Y-95797347D01*
X223679798Y-96540534D01*
X223679927Y-96542529D01*
X223678263Y-96543639D01*
X223676850Y-96543177D01*
X223676113Y-96542560D01*
X223675850Y-96542294D01*
X223674452Y-96540589D01*
X223674021Y-96540660D01*
X223673442Y-96540321D01*
X223623309Y-96498329D01*
X223554600Y-96489621D01*
X223492030Y-96519471D01*
X223483062Y-96532115D01*
X223482844Y-96532374D01*
X223471196Y-96543998D01*
X223469263Y-96544513D01*
X223467851Y-96543098D01*
X223467936Y-96541815D01*
X223473010Y-96529602D01*
X223473030Y-96510499D01*
X223465660Y-96492653D01*
X222984631Y-95771109D01*
X222984502Y-95769114D01*
X222984631Y-95768891D01*
X223465717Y-95047263D01*
X223470213Y-95038838D01*
X223473960Y-95020000D01*
X223470702Y-95003619D01*
X223471345Y-95001725D01*
X223473307Y-95001335D01*
X223473947Y-95001694D01*
X223523919Y-95043455D01*
X223592635Y-95052086D01*
X223655265Y-95022121D01*
X223671421Y-95003455D01*
X223671518Y-95003351D01*
X223674318Y-95000546D01*
X223676249Y-95000027D01*
X223677664Y-95001440D01*
G37*
G36*
X223677664Y-92251440D02*
G01*
X223677397Y-92253068D01*
X223184339Y-92992655D01*
X223176990Y-93010397D01*
X223176970Y-93029501D01*
X223184340Y-93047347D01*
X223679798Y-93790534D01*
X223679927Y-93792529D01*
X223678263Y-93793639D01*
X223676850Y-93793177D01*
X223676113Y-93792560D01*
X223675850Y-93792294D01*
X223674452Y-93790589D01*
X223674021Y-93790660D01*
X223673442Y-93790321D01*
X223623309Y-93748329D01*
X223554600Y-93739621D01*
X223492030Y-93769471D01*
X223483062Y-93782115D01*
X223482844Y-93782374D01*
X223471196Y-93793998D01*
X223469263Y-93794513D01*
X223467851Y-93793098D01*
X223467936Y-93791815D01*
X223473010Y-93779602D01*
X223473030Y-93760499D01*
X223465660Y-93742653D01*
X222984631Y-93021109D01*
X222984502Y-93019114D01*
X222984631Y-93018891D01*
X223465717Y-92297263D01*
X223470213Y-92288838D01*
X223473960Y-92270000D01*
X223470702Y-92253619D01*
X223471345Y-92251725D01*
X223473307Y-92251335D01*
X223473947Y-92251694D01*
X223523919Y-92293455D01*
X223592635Y-92302086D01*
X223655265Y-92272121D01*
X223671421Y-92253455D01*
X223671518Y-92253351D01*
X223674318Y-92250546D01*
X223676249Y-92250027D01*
X223677664Y-92251440D01*
G37*
M02*
