G04 #@! TF.GenerationSoftware,KiCad,Pcbnew,5.1.5+dfsg1-2build2*
G04 #@! TF.CreationDate,2021-06-01T14:02:20+02:00*
G04 #@! TF.ProjectId,DNMS-RPI-HAT-V1.0,444e4d53-2d52-4504-992d-4841542d5631,1.0*
G04 #@! TF.SameCoordinates,Original*
G04 #@! TF.FileFunction,Legend,Top*
G04 #@! TF.FilePolarity,Positive*
%FSLAX46Y46*%
G04 Gerber Fmt 4.6, Leading zero omitted, Abs format (unit mm)*
G04 Created by KiCad (PCBNEW 5.1.5+dfsg1-2build2) date 2021-06-01 14:02:20*
%MOMM*%
%LPD*%
G04 APERTURE LIST*
%ADD10C,0.300000*%
%ADD11C,0.150000*%
%ADD12C,0.120000*%
%ADD13C,0.100000*%
%ADD14C,0.200000*%
%ADD15C,0.152400*%
%ADD16C,0.254000*%
%ADD17C,0.015000*%
G04 APERTURE END LIST*
D10*
X176671251Y-109464208D02*
X175171251Y-109464208D01*
X175171251Y-109107065D01*
X175242680Y-108892780D01*
X175385537Y-108749922D01*
X175528394Y-108678494D01*
X175814108Y-108607065D01*
X176028394Y-108607065D01*
X176314108Y-108678494D01*
X176456965Y-108749922D01*
X176599822Y-108892780D01*
X176671251Y-109107065D01*
X176671251Y-109464208D01*
X176671251Y-107964208D02*
X175171251Y-107964208D01*
X176671251Y-107107065D01*
X175171251Y-107107065D01*
X176671251Y-106392780D02*
X175171251Y-106392780D01*
X176242680Y-105892780D01*
X175171251Y-105392780D01*
X176671251Y-105392780D01*
X176599822Y-104749922D02*
X176671251Y-104535637D01*
X176671251Y-104178494D01*
X176599822Y-104035637D01*
X176528394Y-103964208D01*
X176385537Y-103892780D01*
X176242680Y-103892780D01*
X176099822Y-103964208D01*
X176028394Y-104035637D01*
X175956965Y-104178494D01*
X175885537Y-104464208D01*
X175814108Y-104607065D01*
X175742680Y-104678494D01*
X175599822Y-104749922D01*
X175456965Y-104749922D01*
X175314108Y-104678494D01*
X175242680Y-104607065D01*
X175171251Y-104464208D01*
X175171251Y-104107065D01*
X175242680Y-103892780D01*
X179221251Y-112142780D02*
X178506965Y-112642780D01*
X179221251Y-112999922D02*
X177721251Y-112999922D01*
X177721251Y-112428494D01*
X177792680Y-112285637D01*
X177864108Y-112214208D01*
X178006965Y-112142780D01*
X178221251Y-112142780D01*
X178364108Y-112214208D01*
X178435537Y-112285637D01*
X178506965Y-112428494D01*
X178506965Y-112999922D01*
X179221251Y-110857065D02*
X178435537Y-110857065D01*
X178292680Y-110928494D01*
X178221251Y-111071351D01*
X178221251Y-111357065D01*
X178292680Y-111499922D01*
X179149822Y-110857065D02*
X179221251Y-110999922D01*
X179221251Y-111357065D01*
X179149822Y-111499922D01*
X179006965Y-111571351D01*
X178864108Y-111571351D01*
X178721251Y-111499922D01*
X178649822Y-111357065D01*
X178649822Y-110999922D01*
X178578394Y-110857065D01*
X179149822Y-110214208D02*
X179221251Y-110071351D01*
X179221251Y-109785637D01*
X179149822Y-109642780D01*
X179006965Y-109571351D01*
X178935537Y-109571351D01*
X178792680Y-109642780D01*
X178721251Y-109785637D01*
X178721251Y-109999922D01*
X178649822Y-110142780D01*
X178506965Y-110214208D01*
X178435537Y-110214208D01*
X178292680Y-110142780D01*
X178221251Y-109999922D01*
X178221251Y-109785637D01*
X178292680Y-109642780D01*
X178221251Y-108928494D02*
X179721251Y-108928494D01*
X178292680Y-108928494D02*
X178221251Y-108785637D01*
X178221251Y-108499922D01*
X178292680Y-108357065D01*
X178364108Y-108285637D01*
X178506965Y-108214208D01*
X178935537Y-108214208D01*
X179078394Y-108285637D01*
X179149822Y-108357065D01*
X179221251Y-108499922D01*
X179221251Y-108785637D01*
X179149822Y-108928494D01*
X179221251Y-107571351D02*
X177721251Y-107571351D01*
X178292680Y-107571351D02*
X178221251Y-107428494D01*
X178221251Y-107142780D01*
X178292680Y-106999922D01*
X178364108Y-106928494D01*
X178506965Y-106857065D01*
X178935537Y-106857065D01*
X179078394Y-106928494D01*
X179149822Y-106999922D01*
X179221251Y-107142780D01*
X179221251Y-107428494D01*
X179149822Y-107571351D01*
X179149822Y-105642780D02*
X179221251Y-105785637D01*
X179221251Y-106071351D01*
X179149822Y-106214208D01*
X179006965Y-106285637D01*
X178435537Y-106285637D01*
X178292680Y-106214208D01*
X178221251Y-106071351D01*
X178221251Y-105785637D01*
X178292680Y-105642780D01*
X178435537Y-105571351D01*
X178578394Y-105571351D01*
X178721251Y-106285637D01*
X179221251Y-104928494D02*
X178221251Y-104928494D01*
X178506965Y-104928494D02*
X178364108Y-104857065D01*
X178292680Y-104785637D01*
X178221251Y-104642780D01*
X178221251Y-104499922D01*
X179221251Y-103999922D02*
X178221251Y-103999922D01*
X178506965Y-103999922D02*
X178364108Y-103928494D01*
X178292680Y-103857065D01*
X178221251Y-103714208D01*
X178221251Y-103571351D01*
X178221251Y-103214208D02*
X179221251Y-102857065D01*
X178221251Y-102499922D02*
X179221251Y-102857065D01*
X179578394Y-102999922D01*
X179649822Y-103071351D01*
X179721251Y-103214208D01*
X179221251Y-100785637D02*
X177721251Y-100785637D01*
X177721251Y-100214208D01*
X177792680Y-100071351D01*
X177864108Y-99999922D01*
X178006965Y-99928494D01*
X178221251Y-99928494D01*
X178364108Y-99999922D01*
X178435537Y-100071351D01*
X178506965Y-100214208D01*
X178506965Y-100785637D01*
X179221251Y-99285637D02*
X178221251Y-99285637D01*
X177721251Y-99285637D02*
X177792680Y-99357065D01*
X177864108Y-99285637D01*
X177792680Y-99214208D01*
X177721251Y-99285637D01*
X177864108Y-99285637D01*
X181771251Y-110785637D02*
X180271251Y-110785637D01*
X180985537Y-110785637D02*
X180985537Y-109928494D01*
X181771251Y-109928494D02*
X180271251Y-109928494D01*
X181342680Y-109285637D02*
X181342680Y-108571351D01*
X181771251Y-109428494D02*
X180271251Y-108928494D01*
X181771251Y-108428494D01*
X180271251Y-108142780D02*
X180271251Y-107285637D01*
X181771251Y-107714208D02*
X180271251Y-107714208D01*
X180271251Y-105857065D02*
X181771251Y-105357065D01*
X180271251Y-104857065D01*
X181771251Y-103571351D02*
X181771251Y-104428494D01*
X181771251Y-103999922D02*
X180271251Y-103999922D01*
X180485537Y-104142780D01*
X180628394Y-104285637D01*
X180699822Y-104428494D01*
X181628394Y-102928494D02*
X181699822Y-102857065D01*
X181771251Y-102928494D01*
X181699822Y-102999922D01*
X181628394Y-102928494D01*
X181771251Y-102928494D01*
X180271251Y-101928494D02*
X180271251Y-101785637D01*
X180342680Y-101642780D01*
X180414108Y-101571351D01*
X180556965Y-101499922D01*
X180842680Y-101428494D01*
X181199822Y-101428494D01*
X181485537Y-101499922D01*
X181628394Y-101571351D01*
X181699822Y-101642780D01*
X181771251Y-101785637D01*
X181771251Y-101928494D01*
X181699822Y-102071351D01*
X181628394Y-102142780D01*
X181485537Y-102214208D01*
X181199822Y-102285637D01*
X180842680Y-102285637D01*
X180556965Y-102214208D01*
X180414108Y-102142780D01*
X180342680Y-102071351D01*
X180271251Y-101928494D01*
D11*
X129096595Y-110308760D02*
X129001357Y-110261140D01*
X128858500Y-110261140D01*
X128715642Y-110308760D01*
X128620404Y-110403998D01*
X128572785Y-110499236D01*
X128525166Y-110689712D01*
X128525166Y-110832569D01*
X128572785Y-111023045D01*
X128620404Y-111118283D01*
X128715642Y-111213521D01*
X128858500Y-111261140D01*
X128953738Y-111261140D01*
X129096595Y-111213521D01*
X129144214Y-111165902D01*
X129144214Y-110832569D01*
X128953738Y-110832569D01*
X129572785Y-111261140D02*
X129572785Y-110261140D01*
X130144214Y-111261140D01*
X130144214Y-110261140D01*
X130620404Y-111261140D02*
X130620404Y-110261140D01*
X130858500Y-110261140D01*
X131001357Y-110308760D01*
X131096595Y-110403998D01*
X131144214Y-110499236D01*
X131191833Y-110689712D01*
X131191833Y-110832569D01*
X131144214Y-111023045D01*
X131096595Y-111118283D01*
X131001357Y-111213521D01*
X130858500Y-111261140D01*
X130620404Y-111261140D01*
X129144855Y-107552860D02*
X129049617Y-107505240D01*
X128906760Y-107505240D01*
X128763902Y-107552860D01*
X128668664Y-107648098D01*
X128621045Y-107743336D01*
X128573426Y-107933812D01*
X128573426Y-108076669D01*
X128621045Y-108267145D01*
X128668664Y-108362383D01*
X128763902Y-108457621D01*
X128906760Y-108505240D01*
X129001998Y-108505240D01*
X129144855Y-108457621D01*
X129192474Y-108410002D01*
X129192474Y-108076669D01*
X129001998Y-108076669D01*
X129621045Y-108505240D02*
X129621045Y-107505240D01*
X130192474Y-108505240D01*
X130192474Y-107505240D01*
X130668664Y-108505240D02*
X130668664Y-107505240D01*
X130906760Y-107505240D01*
X131049617Y-107552860D01*
X131144855Y-107648098D01*
X131192474Y-107743336D01*
X131240093Y-107933812D01*
X131240093Y-108076669D01*
X131192474Y-108267145D01*
X131144855Y-108362383D01*
X131049617Y-108457621D01*
X130906760Y-108505240D01*
X130668664Y-108505240D01*
X128544845Y-105312508D02*
X129306750Y-105312508D01*
X128925798Y-105693460D02*
X128925798Y-104931556D01*
X130259131Y-104693460D02*
X129782940Y-104693460D01*
X129735321Y-105169651D01*
X129782940Y-105122032D01*
X129878179Y-105074413D01*
X130116274Y-105074413D01*
X130211512Y-105122032D01*
X130259131Y-105169651D01*
X130306750Y-105264889D01*
X130306750Y-105502984D01*
X130259131Y-105598222D01*
X130211512Y-105645841D01*
X130116274Y-105693460D01*
X129878179Y-105693460D01*
X129782940Y-105645841D01*
X129735321Y-105598222D01*
X130592464Y-104693460D02*
X130925798Y-105693460D01*
X131259131Y-104693460D01*
X144111864Y-118434860D02*
X144730912Y-118434860D01*
X144397579Y-118815813D01*
X144540436Y-118815813D01*
X144635674Y-118863432D01*
X144683293Y-118911051D01*
X144730912Y-119006289D01*
X144730912Y-119244384D01*
X144683293Y-119339622D01*
X144635674Y-119387241D01*
X144540436Y-119434860D01*
X144254721Y-119434860D01*
X144159483Y-119387241D01*
X144111864Y-119339622D01*
X145016626Y-118434860D02*
X145349960Y-119434860D01*
X145683293Y-118434860D01*
X145921388Y-118434860D02*
X146540436Y-118434860D01*
X146207102Y-118815813D01*
X146349960Y-118815813D01*
X146445198Y-118863432D01*
X146492817Y-118911051D01*
X146540436Y-119006289D01*
X146540436Y-119244384D01*
X146492817Y-119339622D01*
X146445198Y-119387241D01*
X146349960Y-119434860D01*
X146064245Y-119434860D01*
X145969007Y-119387241D01*
X145921388Y-119339622D01*
X144400095Y-115917080D02*
X144304857Y-115869460D01*
X144162000Y-115869460D01*
X144019142Y-115917080D01*
X143923904Y-116012318D01*
X143876285Y-116107556D01*
X143828666Y-116298032D01*
X143828666Y-116440889D01*
X143876285Y-116631365D01*
X143923904Y-116726603D01*
X144019142Y-116821841D01*
X144162000Y-116869460D01*
X144257238Y-116869460D01*
X144400095Y-116821841D01*
X144447714Y-116774222D01*
X144447714Y-116440889D01*
X144257238Y-116440889D01*
X144876285Y-116869460D02*
X144876285Y-115869460D01*
X145447714Y-116869460D01*
X145447714Y-115869460D01*
X145923904Y-116869460D02*
X145923904Y-115869460D01*
X146162000Y-115869460D01*
X146304857Y-115917080D01*
X146400095Y-116012318D01*
X146447714Y-116107556D01*
X146495333Y-116298032D01*
X146495333Y-116440889D01*
X146447714Y-116631365D01*
X146400095Y-116726603D01*
X146304857Y-116821841D01*
X146162000Y-116869460D01*
X145923904Y-116869460D01*
X143923263Y-114253901D02*
X144066120Y-114301520D01*
X144304216Y-114301520D01*
X144399454Y-114253901D01*
X144447073Y-114206282D01*
X144494692Y-114111044D01*
X144494692Y-114015806D01*
X144447073Y-113920568D01*
X144399454Y-113872949D01*
X144304216Y-113825330D01*
X144113740Y-113777711D01*
X144018501Y-113730092D01*
X143970882Y-113682473D01*
X143923263Y-113587235D01*
X143923263Y-113491997D01*
X143970882Y-113396759D01*
X144018501Y-113349140D01*
X144113740Y-113301520D01*
X144351835Y-113301520D01*
X144494692Y-113349140D01*
X145494692Y-114206282D02*
X145447073Y-114253901D01*
X145304216Y-114301520D01*
X145208978Y-114301520D01*
X145066120Y-114253901D01*
X144970882Y-114158663D01*
X144923263Y-114063425D01*
X144875644Y-113872949D01*
X144875644Y-113730092D01*
X144923263Y-113539616D01*
X144970882Y-113444378D01*
X145066120Y-113349140D01*
X145208978Y-113301520D01*
X145304216Y-113301520D01*
X145447073Y-113349140D01*
X145494692Y-113396759D01*
X146399454Y-114301520D02*
X145923263Y-114301520D01*
X145923263Y-113301520D01*
X143947714Y-111879001D02*
X144090571Y-111926620D01*
X144328666Y-111926620D01*
X144423904Y-111879001D01*
X144471523Y-111831382D01*
X144519142Y-111736144D01*
X144519142Y-111640906D01*
X144471523Y-111545668D01*
X144423904Y-111498049D01*
X144328666Y-111450430D01*
X144138190Y-111402811D01*
X144042952Y-111355192D01*
X143995333Y-111307573D01*
X143947714Y-111212335D01*
X143947714Y-111117097D01*
X143995333Y-111021859D01*
X144042952Y-110974240D01*
X144138190Y-110926620D01*
X144376285Y-110926620D01*
X144519142Y-110974240D01*
X144947714Y-111926620D02*
X144947714Y-110926620D01*
X145185809Y-110926620D01*
X145328666Y-110974240D01*
X145423904Y-111069478D01*
X145471523Y-111164716D01*
X145519142Y-111355192D01*
X145519142Y-111498049D01*
X145471523Y-111688525D01*
X145423904Y-111783763D01*
X145328666Y-111879001D01*
X145185809Y-111926620D01*
X144947714Y-111926620D01*
X145900095Y-111640906D02*
X146376285Y-111640906D01*
X145804857Y-111926620D02*
X146138190Y-110926620D01*
X146471523Y-111926620D01*
D10*
X126342451Y-98703511D02*
X125485308Y-98703511D01*
X125913880Y-98703511D02*
X125913880Y-97203511D01*
X125771022Y-97417797D01*
X125628165Y-97560654D01*
X125485308Y-97632082D01*
D12*
X160436560Y-99423840D02*
X173636560Y-99423840D01*
X173636560Y-99423840D02*
X173636560Y-108443840D01*
D13*
X173636560Y-117303840D02*
X173636560Y-117423840D01*
D12*
X173636560Y-117423840D02*
X173636560Y-110643840D01*
D13*
X173636560Y-117413840D02*
X173636560Y-117423840D01*
D12*
X173636560Y-117423840D02*
X160436560Y-117423840D01*
X160436560Y-117423840D02*
X160436560Y-110643840D01*
D13*
X160436560Y-108373840D02*
X160436560Y-108443840D01*
D12*
X160436560Y-108443840D02*
X160436560Y-99423840D01*
X159966560Y-101423840D02*
X159966560Y-99893840D01*
D13*
X160561500Y-112072560D02*
X160561500Y-107072560D01*
X160561500Y-107072560D02*
X172561500Y-107072560D01*
X172561500Y-107072560D02*
X172561500Y-112072560D01*
X160561500Y-116072560D02*
X160561500Y-120072560D01*
X160561500Y-120072560D02*
X172561500Y-120072560D01*
X172561500Y-120072560D02*
X172561500Y-116072560D01*
D14*
X169061500Y-106572560D02*
X169061500Y-106572560D01*
X169261500Y-106572560D02*
X169261500Y-106572560D01*
X169261500Y-106572560D02*
G75*
G03X169061500Y-106572560I-100000J0D01*
G01*
X169061500Y-106572560D02*
G75*
G03X169261500Y-106572560I100000J0D01*
G01*
D12*
X155784280Y-109908860D02*
X155784280Y-110678860D01*
X155784280Y-117988860D02*
X155784280Y-117218860D01*
X154414280Y-110678860D02*
X154414280Y-117218860D01*
X157154280Y-110678860D02*
X154414280Y-110678860D01*
X157154280Y-117218860D02*
X157154280Y-110678860D01*
X154414280Y-117218860D02*
X157154280Y-117218860D01*
X152456880Y-109908860D02*
X152456880Y-110678860D01*
X152456880Y-117988860D02*
X152456880Y-117218860D01*
X151086880Y-110678860D02*
X151086880Y-117218860D01*
X153826880Y-110678860D02*
X151086880Y-110678860D01*
X153826880Y-117218860D02*
X153826880Y-110678860D01*
X151086880Y-117218860D02*
X153826880Y-117218860D01*
X121064424Y-105944718D02*
G75*
G02X120919180Y-105261400I1534756J683318D01*
G01*
X123282222Y-106796826D02*
G75*
G02X121915180Y-106796400I-683042J1535426D01*
G01*
X124134606Y-104578358D02*
G75*
G02X124134180Y-105945400I-1535426J-683042D01*
G01*
X121916138Y-103725974D02*
G75*
G02X123283180Y-103726400I683042J-1535426D01*
G01*
X120918927Y-105290205D02*
G75*
G02X121064180Y-104577400I1680253J28805D01*
G01*
X124279180Y-110341400D02*
G75*
G03X124279180Y-110341400I-1680000J0D01*
G01*
X118499180Y-102661400D02*
X118499180Y-112941400D01*
X119999180Y-102661400D02*
X119999180Y-112941400D01*
X124900180Y-102661400D02*
X124900180Y-112941400D01*
X127860180Y-102661400D02*
X127860180Y-112941400D01*
X117939180Y-102661400D02*
X117939180Y-112941400D01*
X127860180Y-102661400D02*
X117939180Y-102661400D01*
X127860180Y-112941400D02*
X117939180Y-112941400D01*
X123668180Y-111616400D02*
X123622180Y-111569400D01*
X121360180Y-109307400D02*
X121325180Y-109272400D01*
X123874180Y-111411400D02*
X123838180Y-111376400D01*
X121576180Y-109114400D02*
X121530180Y-109067400D01*
X118439180Y-102421400D02*
X117699180Y-102421400D01*
X117699180Y-102421400D02*
X117699180Y-102921400D01*
D15*
X150244540Y-106112300D02*
X150244540Y-99965500D01*
X140440140Y-99965500D02*
X140440140Y-102734100D01*
X140440140Y-102734100D02*
X140440140Y-103343700D01*
X140440140Y-103343700D02*
X140440140Y-105553500D01*
X140440140Y-102734100D02*
G75*
G02X140440140Y-103343700I0J-304800D01*
G01*
D12*
X149352040Y-120351240D02*
X148022040Y-120351240D01*
X149352040Y-119021240D02*
X149352040Y-120351240D01*
X149352040Y-117751240D02*
X146692040Y-117751240D01*
X146692040Y-117751240D02*
X146692040Y-110071240D01*
X149352040Y-117751240D02*
X149352040Y-110071240D01*
X149352040Y-110071240D02*
X146692040Y-110071240D01*
X143642120Y-120351240D02*
X142312120Y-120351240D01*
X143642120Y-119021240D02*
X143642120Y-120351240D01*
X143642120Y-117751240D02*
X140982120Y-117751240D01*
X140982120Y-117751240D02*
X140982120Y-110071240D01*
X143642120Y-117751240D02*
X143642120Y-110071240D01*
X143642120Y-110071240D02*
X140982120Y-110071240D01*
X136881320Y-113915760D02*
X137181320Y-114515760D01*
X137481320Y-113915760D02*
X136881320Y-113915760D01*
X137181320Y-114515760D02*
X137481320Y-113915760D01*
X132031320Y-116555760D02*
X131871320Y-116555760D01*
X129681320Y-117605760D02*
X130001320Y-117605760D01*
X133521320Y-116575760D02*
X133361320Y-116575760D01*
X131861320Y-117605760D02*
X132181320Y-117605760D01*
X132181320Y-117605760D02*
X132501320Y-117605760D01*
X135001320Y-116595760D02*
X134841320Y-116595760D01*
X134361320Y-117605760D02*
X134681320Y-117605760D01*
X134681320Y-117605760D02*
X135001320Y-117605760D01*
X136481320Y-116595760D02*
X136301320Y-116595760D01*
X136861320Y-117605760D02*
X137181320Y-117605760D01*
X137181320Y-117605760D02*
X137501320Y-117605760D01*
X138571320Y-117605760D02*
X129621320Y-117605760D01*
X130271320Y-120705760D02*
X130281320Y-116635760D01*
X138071320Y-116685760D02*
X138711320Y-116685760D01*
X138041320Y-120685760D02*
X138041320Y-116615760D01*
X130281320Y-114475760D02*
X130281320Y-116675760D01*
X129631320Y-114435760D02*
X130281320Y-114435760D01*
X129621320Y-120705760D02*
X129611320Y-114435760D01*
X138741320Y-120705760D02*
X129621320Y-120705760D01*
X138731320Y-114415760D02*
X138731320Y-120705760D01*
X138021320Y-114405760D02*
X138731320Y-114405760D01*
X138021320Y-116655760D02*
X138021320Y-114455760D01*
X118175720Y-99368740D02*
X127415720Y-99368740D01*
X118175720Y-101608740D02*
X127415720Y-101608740D01*
X118175720Y-99368740D02*
X118175720Y-99823740D01*
X118175720Y-101153740D02*
X118175720Y-101608740D01*
X127415720Y-99368740D02*
X127415720Y-99823740D01*
X127415720Y-101153740D02*
X127415720Y-101608740D01*
X138330720Y-101608740D02*
X129090720Y-101608740D01*
X138330720Y-99368740D02*
X129090720Y-99368740D01*
X138330720Y-101608740D02*
X138330720Y-101153740D01*
X138330720Y-99823740D02*
X138330720Y-99368740D01*
X129090720Y-101608740D02*
X129090720Y-101153740D01*
X129090720Y-99823740D02*
X129090720Y-99368740D01*
D16*
X158614686Y-102937783D02*
X158614686Y-103844926D01*
X158554210Y-104026355D01*
X158433258Y-104147307D01*
X158251829Y-104207783D01*
X158130877Y-104207783D01*
X159158972Y-103058736D02*
X159219448Y-102998260D01*
X159340400Y-102937783D01*
X159642781Y-102937783D01*
X159763734Y-102998260D01*
X159824210Y-103058736D01*
X159884686Y-103179688D01*
X159884686Y-103300640D01*
X159824210Y-103482069D01*
X159098496Y-104207783D01*
X159884686Y-104207783D01*
X174817346Y-113392423D02*
X174817346Y-114299566D01*
X174756870Y-114480995D01*
X174635918Y-114601947D01*
X174454489Y-114662423D01*
X174333537Y-114662423D01*
X175301156Y-113392423D02*
X176087346Y-113392423D01*
X175664013Y-113876233D01*
X175845441Y-113876233D01*
X175966394Y-113936709D01*
X176026870Y-113997185D01*
X176087346Y-114118138D01*
X176087346Y-114420519D01*
X176026870Y-114541471D01*
X175966394Y-114601947D01*
X175845441Y-114662423D01*
X175482584Y-114662423D01*
X175361632Y-114601947D01*
X175301156Y-114541471D01*
X166005481Y-116562343D02*
X165582148Y-115957581D01*
X165279767Y-116562343D02*
X165279767Y-115292343D01*
X165763577Y-115292343D01*
X165884529Y-115352820D01*
X165945005Y-115413296D01*
X166005481Y-115534248D01*
X166005481Y-115715677D01*
X165945005Y-115836629D01*
X165884529Y-115897105D01*
X165763577Y-115957581D01*
X165279767Y-115957581D01*
X166912624Y-115292343D02*
X166912624Y-116199486D01*
X166852148Y-116380915D01*
X166731196Y-116501867D01*
X166549767Y-116562343D01*
X166428815Y-116562343D01*
X168182624Y-116562343D02*
X167456910Y-116562343D01*
X167819767Y-116562343D02*
X167819767Y-115292343D01*
X167698815Y-115473772D01*
X167577862Y-115594724D01*
X167456910Y-115655200D01*
X168666434Y-115413296D02*
X168726910Y-115352820D01*
X168847862Y-115292343D01*
X169150243Y-115292343D01*
X169271196Y-115352820D01*
X169331672Y-115413296D01*
X169392148Y-115534248D01*
X169392148Y-115655200D01*
X169331672Y-115836629D01*
X168605958Y-116562343D01*
X169392148Y-116562343D01*
D10*
X156874320Y-97726751D02*
X156874320Y-98798180D01*
X156802891Y-99012465D01*
X156660034Y-99155322D01*
X156445748Y-99226751D01*
X156302891Y-99226751D01*
X158374320Y-99226751D02*
X157517177Y-99226751D01*
X157945748Y-99226751D02*
X157945748Y-97726751D01*
X157802891Y-97941037D01*
X157660034Y-98083894D01*
X157517177Y-98155322D01*
D11*
X155640473Y-114467280D02*
X155307140Y-113991090D01*
X155069044Y-114467280D02*
X155069044Y-113467280D01*
X155449997Y-113467280D01*
X155545235Y-113514900D01*
X155592854Y-113562519D01*
X155640473Y-113657757D01*
X155640473Y-113800614D01*
X155592854Y-113895852D01*
X155545235Y-113943471D01*
X155449997Y-113991090D01*
X155069044Y-113991090D01*
X156021425Y-113562519D02*
X156069044Y-113514900D01*
X156164282Y-113467280D01*
X156402378Y-113467280D01*
X156497616Y-113514900D01*
X156545235Y-113562519D01*
X156592854Y-113657757D01*
X156592854Y-113752995D01*
X156545235Y-113895852D01*
X155973806Y-114467280D01*
X156592854Y-114467280D01*
X152208933Y-114535860D02*
X151875600Y-114059670D01*
X151637504Y-114535860D02*
X151637504Y-113535860D01*
X152018457Y-113535860D01*
X152113695Y-113583480D01*
X152161314Y-113631099D01*
X152208933Y-113726337D01*
X152208933Y-113869194D01*
X152161314Y-113964432D01*
X152113695Y-114012051D01*
X152018457Y-114059670D01*
X151637504Y-114059670D01*
X153161314Y-114535860D02*
X152589885Y-114535860D01*
X152875600Y-114535860D02*
X152875600Y-113535860D01*
X152780361Y-113678718D01*
X152685123Y-113773956D01*
X152589885Y-113821575D01*
X118501566Y-113540280D02*
X118501566Y-114254566D01*
X118453947Y-114397423D01*
X118358709Y-114492661D01*
X118215852Y-114540280D01*
X118120614Y-114540280D01*
X119120614Y-113968852D02*
X119025376Y-113921233D01*
X118977757Y-113873614D01*
X118930138Y-113778376D01*
X118930138Y-113730757D01*
X118977757Y-113635519D01*
X119025376Y-113587900D01*
X119120614Y-113540280D01*
X119311090Y-113540280D01*
X119406328Y-113587900D01*
X119453947Y-113635519D01*
X119501566Y-113730757D01*
X119501566Y-113778376D01*
X119453947Y-113873614D01*
X119406328Y-113921233D01*
X119311090Y-113968852D01*
X119120614Y-113968852D01*
X119025376Y-114016471D01*
X118977757Y-114064090D01*
X118930138Y-114159328D01*
X118930138Y-114349804D01*
X118977757Y-114445042D01*
X119025376Y-114492661D01*
X119120614Y-114540280D01*
X119311090Y-114540280D01*
X119406328Y-114492661D01*
X119453947Y-114445042D01*
X119501566Y-114349804D01*
X119501566Y-114159328D01*
X119453947Y-114064090D01*
X119406328Y-114016471D01*
X119311090Y-113968852D01*
D17*
X143411959Y-106965344D02*
X144221929Y-106965344D01*
X144317219Y-106917699D01*
X144364864Y-106870054D01*
X144412510Y-106774763D01*
X144412510Y-106584182D01*
X144364864Y-106488891D01*
X144317219Y-106441246D01*
X144221929Y-106393601D01*
X143411959Y-106393601D01*
X143507249Y-105964793D02*
X143459604Y-105917148D01*
X143411959Y-105821857D01*
X143411959Y-105583631D01*
X143459604Y-105488340D01*
X143507249Y-105440695D01*
X143602540Y-105393050D01*
X143697830Y-105393050D01*
X143840766Y-105440695D01*
X144412510Y-106012438D01*
X144412510Y-105393050D01*
D11*
X149956214Y-105383580D02*
X149384785Y-105383580D01*
X149670500Y-105383580D02*
X149670500Y-104383580D01*
X149575261Y-104526438D01*
X149480023Y-104621676D01*
X149384785Y-104669295D01*
X144542335Y-100852980D02*
X144542335Y-101662504D01*
X144589954Y-101757742D01*
X144637573Y-101805361D01*
X144732811Y-101852980D01*
X144923287Y-101852980D01*
X145018525Y-101805361D01*
X145066144Y-101757742D01*
X145113763Y-101662504D01*
X145113763Y-100852980D01*
X146113763Y-101852980D02*
X145542335Y-101852980D01*
X145828049Y-101852980D02*
X145828049Y-100852980D01*
X145732811Y-100995838D01*
X145637573Y-101091076D01*
X145542335Y-101138695D01*
X152932120Y-106326157D02*
X151932120Y-106326157D01*
X151932120Y-105945204D01*
X151979740Y-105849966D01*
X152027359Y-105802347D01*
X152122597Y-105754728D01*
X152265454Y-105754728D01*
X152360692Y-105802347D01*
X152408311Y-105849966D01*
X152455930Y-105945204D01*
X152455930Y-106326157D01*
X152360692Y-105183300D02*
X152313073Y-105278538D01*
X152265454Y-105326157D01*
X152170216Y-105373776D01*
X152122597Y-105373776D01*
X152027359Y-105326157D01*
X151979740Y-105278538D01*
X151932120Y-105183300D01*
X151932120Y-104992823D01*
X151979740Y-104897585D01*
X152027359Y-104849966D01*
X152122597Y-104802347D01*
X152170216Y-104802347D01*
X152265454Y-104849966D01*
X152313073Y-104897585D01*
X152360692Y-104992823D01*
X152360692Y-105183300D01*
X152408311Y-105278538D01*
X152455930Y-105326157D01*
X152551168Y-105373776D01*
X152741644Y-105373776D01*
X152836882Y-105326157D01*
X152884501Y-105278538D01*
X152932120Y-105183300D01*
X152932120Y-104992823D01*
X152884501Y-104897585D01*
X152836882Y-104849966D01*
X152741644Y-104802347D01*
X152551168Y-104802347D01*
X152455930Y-104849966D01*
X152408311Y-104897585D01*
X152360692Y-104992823D01*
X152027359Y-104421395D02*
X151979740Y-104373776D01*
X151932120Y-104278538D01*
X151932120Y-104040442D01*
X151979740Y-103945204D01*
X152027359Y-103897585D01*
X152122597Y-103849966D01*
X152217835Y-103849966D01*
X152360692Y-103897585D01*
X152932120Y-104469014D01*
X152932120Y-103849966D01*
X152408311Y-103088061D02*
X152455930Y-102945204D01*
X152503549Y-102897585D01*
X152598787Y-102849966D01*
X152741644Y-102849966D01*
X152836882Y-102897585D01*
X152884501Y-102945204D01*
X152932120Y-103040442D01*
X152932120Y-103421395D01*
X151932120Y-103421395D01*
X151932120Y-103088061D01*
X151979740Y-102992823D01*
X152027359Y-102945204D01*
X152122597Y-102897585D01*
X152217835Y-102897585D01*
X152313073Y-102945204D01*
X152360692Y-102992823D01*
X152408311Y-103088061D01*
X152408311Y-103421395D01*
X151932120Y-102516633D02*
X151932120Y-101849966D01*
X152932120Y-102278538D01*
X152932120Y-100945204D02*
X152932120Y-101516633D01*
X152932120Y-101230919D02*
X151932120Y-101230919D01*
X152074978Y-101326157D01*
X152170216Y-101421395D01*
X152217835Y-101516633D01*
X151932120Y-100040442D02*
X151932120Y-100516633D01*
X152408311Y-100564252D01*
X152360692Y-100516633D01*
X152313073Y-100421395D01*
X152313073Y-100183300D01*
X152360692Y-100088061D01*
X152408311Y-100040442D01*
X152503549Y-99992823D01*
X152741644Y-99992823D01*
X152836882Y-100040442D01*
X152884501Y-100088061D01*
X152932120Y-100183300D01*
X152932120Y-100421395D01*
X152884501Y-100516633D01*
X152836882Y-100564252D01*
X152932120Y-99564252D02*
X151932120Y-99564252D01*
X151932120Y-99183300D01*
X151979740Y-99088061D01*
X152027359Y-99040442D01*
X152122597Y-98992823D01*
X152265454Y-98992823D01*
X152360692Y-99040442D01*
X152408311Y-99088061D01*
X152455930Y-99183300D01*
X152455930Y-99564252D01*
X147630286Y-108787940D02*
X147630286Y-109502226D01*
X147582667Y-109645083D01*
X147487429Y-109740321D01*
X147344572Y-109787940D01*
X147249334Y-109787940D01*
X148011239Y-108787940D02*
X148677905Y-108787940D01*
X148249334Y-109787940D01*
X141927986Y-108787940D02*
X141927986Y-109502226D01*
X141880367Y-109645083D01*
X141785129Y-109740321D01*
X141642272Y-109787940D01*
X141547034Y-109787940D01*
X142832748Y-108787940D02*
X142642272Y-108787940D01*
X142547034Y-108835560D01*
X142499415Y-108883179D01*
X142404177Y-109026036D01*
X142356558Y-109216512D01*
X142356558Y-109597464D01*
X142404177Y-109692702D01*
X142451796Y-109740321D01*
X142547034Y-109787940D01*
X142737510Y-109787940D01*
X142832748Y-109740321D01*
X142880367Y-109692702D01*
X142927986Y-109597464D01*
X142927986Y-109359369D01*
X142880367Y-109264131D01*
X142832748Y-109216512D01*
X142737510Y-109168893D01*
X142547034Y-109168893D01*
X142451796Y-109216512D01*
X142404177Y-109264131D01*
X142356558Y-109359369D01*
X130287166Y-112638580D02*
X130287166Y-113352866D01*
X130239547Y-113495723D01*
X130144309Y-113590961D01*
X130001452Y-113638580D01*
X129906214Y-113638580D01*
X131191928Y-112971914D02*
X131191928Y-113638580D01*
X130953833Y-112590961D02*
X130715738Y-113305247D01*
X131334785Y-113305247D01*
X122729693Y-100985582D02*
X122682074Y-101033201D01*
X122539217Y-101080820D01*
X122443979Y-101080820D01*
X122301121Y-101033201D01*
X122205883Y-100937963D01*
X122158264Y-100842725D01*
X122110645Y-100652249D01*
X122110645Y-100509392D01*
X122158264Y-100318916D01*
X122205883Y-100223678D01*
X122301121Y-100128440D01*
X122443979Y-100080820D01*
X122539217Y-100080820D01*
X122682074Y-100128440D01*
X122729693Y-100176059D01*
X123110645Y-100176059D02*
X123158264Y-100128440D01*
X123253502Y-100080820D01*
X123491598Y-100080820D01*
X123586836Y-100128440D01*
X123634455Y-100176059D01*
X123682074Y-100271297D01*
X123682074Y-100366535D01*
X123634455Y-100509392D01*
X123063026Y-101080820D01*
X123682074Y-101080820D01*
X133202113Y-100962722D02*
X133154494Y-101010341D01*
X133011637Y-101057960D01*
X132916399Y-101057960D01*
X132773541Y-101010341D01*
X132678303Y-100915103D01*
X132630684Y-100819865D01*
X132583065Y-100629389D01*
X132583065Y-100486532D01*
X132630684Y-100296056D01*
X132678303Y-100200818D01*
X132773541Y-100105580D01*
X132916399Y-100057960D01*
X133011637Y-100057960D01*
X133154494Y-100105580D01*
X133202113Y-100153199D01*
X134154494Y-101057960D02*
X133583065Y-101057960D01*
X133868780Y-101057960D02*
X133868780Y-100057960D01*
X133773541Y-100200818D01*
X133678303Y-100296056D01*
X133583065Y-100343675D01*
M02*
