G04 #@! TF.GenerationSoftware,KiCad,Pcbnew,7.0.10*
G04 #@! TF.CreationDate,2024-01-16T16:56:01+01:00*
G04 #@! TF.ProjectId,DNMS-RPI-HAT-V1.0,444e4d53-2d52-4504-992d-4841542d5631,1.0*
G04 #@! TF.SameCoordinates,Original*
G04 #@! TF.FileFunction,Legend,Top*
G04 #@! TF.FilePolarity,Positive*
%FSLAX46Y46*%
G04 Gerber Fmt 4.6, Leading zero omitted, Abs format (unit mm)*
G04 Created by KiCad (PCBNEW 7.0.10) date 2024-01-16 16:56:01*
%MOMM*%
%LPD*%
G01*
G04 APERTURE LIST*
%ADD10C,0.150000*%
%ADD11C,0.300000*%
%ADD12C,0.050000*%
%ADD13C,0.254000*%
%ADD14C,0.015000*%
%ADD15C,0.152400*%
%ADD16C,0.100000*%
%ADD17C,0.120000*%
%ADD18C,0.200000*%
%ADD19C,1.400000*%
%ADD20C,1.200000*%
G04 APERTURE END LIST*
D10*
X143923264Y-114256340D02*
X144066121Y-114303959D01*
X144066121Y-114303959D02*
X144304216Y-114303959D01*
X144304216Y-114303959D02*
X144399454Y-114256340D01*
X144399454Y-114256340D02*
X144447073Y-114208720D01*
X144447073Y-114208720D02*
X144494692Y-114113482D01*
X144494692Y-114113482D02*
X144494692Y-114018244D01*
X144494692Y-114018244D02*
X144447073Y-113923006D01*
X144447073Y-113923006D02*
X144399454Y-113875387D01*
X144399454Y-113875387D02*
X144304216Y-113827768D01*
X144304216Y-113827768D02*
X144113740Y-113780149D01*
X144113740Y-113780149D02*
X144018502Y-113732530D01*
X144018502Y-113732530D02*
X143970883Y-113684911D01*
X143970883Y-113684911D02*
X143923264Y-113589673D01*
X143923264Y-113589673D02*
X143923264Y-113494435D01*
X143923264Y-113494435D02*
X143970883Y-113399197D01*
X143970883Y-113399197D02*
X144018502Y-113351578D01*
X144018502Y-113351578D02*
X144113740Y-113303959D01*
X144113740Y-113303959D02*
X144351835Y-113303959D01*
X144351835Y-113303959D02*
X144494692Y-113351578D01*
X145494692Y-114208720D02*
X145447073Y-114256340D01*
X145447073Y-114256340D02*
X145304216Y-114303959D01*
X145304216Y-114303959D02*
X145208978Y-114303959D01*
X145208978Y-114303959D02*
X145066121Y-114256340D01*
X145066121Y-114256340D02*
X144970883Y-114161101D01*
X144970883Y-114161101D02*
X144923264Y-114065863D01*
X144923264Y-114065863D02*
X144875645Y-113875387D01*
X144875645Y-113875387D02*
X144875645Y-113732530D01*
X144875645Y-113732530D02*
X144923264Y-113542054D01*
X144923264Y-113542054D02*
X144970883Y-113446816D01*
X144970883Y-113446816D02*
X145066121Y-113351578D01*
X145066121Y-113351578D02*
X145208978Y-113303959D01*
X145208978Y-113303959D02*
X145304216Y-113303959D01*
X145304216Y-113303959D02*
X145447073Y-113351578D01*
X145447073Y-113351578D02*
X145494692Y-113399197D01*
X146399454Y-114303959D02*
X145923264Y-114303959D01*
X145923264Y-114303959D02*
X145923264Y-113303959D01*
X144400095Y-115919518D02*
X144304857Y-115871899D01*
X144304857Y-115871899D02*
X144162000Y-115871899D01*
X144162000Y-115871899D02*
X144019143Y-115919518D01*
X144019143Y-115919518D02*
X143923905Y-116014756D01*
X143923905Y-116014756D02*
X143876286Y-116109994D01*
X143876286Y-116109994D02*
X143828667Y-116300470D01*
X143828667Y-116300470D02*
X143828667Y-116443327D01*
X143828667Y-116443327D02*
X143876286Y-116633803D01*
X143876286Y-116633803D02*
X143923905Y-116729041D01*
X143923905Y-116729041D02*
X144019143Y-116824280D01*
X144019143Y-116824280D02*
X144162000Y-116871899D01*
X144162000Y-116871899D02*
X144257238Y-116871899D01*
X144257238Y-116871899D02*
X144400095Y-116824280D01*
X144400095Y-116824280D02*
X144447714Y-116776660D01*
X144447714Y-116776660D02*
X144447714Y-116443327D01*
X144447714Y-116443327D02*
X144257238Y-116443327D01*
X144876286Y-116871899D02*
X144876286Y-115871899D01*
X144876286Y-115871899D02*
X145447714Y-116871899D01*
X145447714Y-116871899D02*
X145447714Y-115871899D01*
X145923905Y-116871899D02*
X145923905Y-115871899D01*
X145923905Y-115871899D02*
X146162000Y-115871899D01*
X146162000Y-115871899D02*
X146304857Y-115919518D01*
X146304857Y-115919518D02*
X146400095Y-116014756D01*
X146400095Y-116014756D02*
X146447714Y-116109994D01*
X146447714Y-116109994D02*
X146495333Y-116300470D01*
X146495333Y-116300470D02*
X146495333Y-116443327D01*
X146495333Y-116443327D02*
X146447714Y-116633803D01*
X146447714Y-116633803D02*
X146400095Y-116729041D01*
X146400095Y-116729041D02*
X146304857Y-116824280D01*
X146304857Y-116824280D02*
X146162000Y-116871899D01*
X146162000Y-116871899D02*
X145923905Y-116871899D01*
X144111865Y-118437299D02*
X144730912Y-118437299D01*
X144730912Y-118437299D02*
X144397579Y-118818251D01*
X144397579Y-118818251D02*
X144540436Y-118818251D01*
X144540436Y-118818251D02*
X144635674Y-118865870D01*
X144635674Y-118865870D02*
X144683293Y-118913489D01*
X144683293Y-118913489D02*
X144730912Y-119008727D01*
X144730912Y-119008727D02*
X144730912Y-119246822D01*
X144730912Y-119246822D02*
X144683293Y-119342060D01*
X144683293Y-119342060D02*
X144635674Y-119389680D01*
X144635674Y-119389680D02*
X144540436Y-119437299D01*
X144540436Y-119437299D02*
X144254722Y-119437299D01*
X144254722Y-119437299D02*
X144159484Y-119389680D01*
X144159484Y-119389680D02*
X144111865Y-119342060D01*
X145016627Y-118437299D02*
X145349960Y-119437299D01*
X145349960Y-119437299D02*
X145683293Y-118437299D01*
X145921389Y-118437299D02*
X146540436Y-118437299D01*
X146540436Y-118437299D02*
X146207103Y-118818251D01*
X146207103Y-118818251D02*
X146349960Y-118818251D01*
X146349960Y-118818251D02*
X146445198Y-118865870D01*
X146445198Y-118865870D02*
X146492817Y-118913489D01*
X146492817Y-118913489D02*
X146540436Y-119008727D01*
X146540436Y-119008727D02*
X146540436Y-119246822D01*
X146540436Y-119246822D02*
X146492817Y-119342060D01*
X146492817Y-119342060D02*
X146445198Y-119389680D01*
X146445198Y-119389680D02*
X146349960Y-119437299D01*
X146349960Y-119437299D02*
X146064246Y-119437299D01*
X146064246Y-119437299D02*
X145969008Y-119389680D01*
X145969008Y-119389680D02*
X145921389Y-119342060D01*
X128544846Y-105314946D02*
X129306751Y-105314946D01*
X128925798Y-105695899D02*
X128925798Y-104933994D01*
X130259131Y-104695899D02*
X129782941Y-104695899D01*
X129782941Y-104695899D02*
X129735322Y-105172089D01*
X129735322Y-105172089D02*
X129782941Y-105124470D01*
X129782941Y-105124470D02*
X129878179Y-105076851D01*
X129878179Y-105076851D02*
X130116274Y-105076851D01*
X130116274Y-105076851D02*
X130211512Y-105124470D01*
X130211512Y-105124470D02*
X130259131Y-105172089D01*
X130259131Y-105172089D02*
X130306750Y-105267327D01*
X130306750Y-105267327D02*
X130306750Y-105505422D01*
X130306750Y-105505422D02*
X130259131Y-105600660D01*
X130259131Y-105600660D02*
X130211512Y-105648280D01*
X130211512Y-105648280D02*
X130116274Y-105695899D01*
X130116274Y-105695899D02*
X129878179Y-105695899D01*
X129878179Y-105695899D02*
X129782941Y-105648280D01*
X129782941Y-105648280D02*
X129735322Y-105600660D01*
X130592465Y-104695899D02*
X130925798Y-105695899D01*
X130925798Y-105695899D02*
X131259131Y-104695899D01*
X129144855Y-107555298D02*
X129049617Y-107507679D01*
X129049617Y-107507679D02*
X128906760Y-107507679D01*
X128906760Y-107507679D02*
X128763903Y-107555298D01*
X128763903Y-107555298D02*
X128668665Y-107650536D01*
X128668665Y-107650536D02*
X128621046Y-107745774D01*
X128621046Y-107745774D02*
X128573427Y-107936250D01*
X128573427Y-107936250D02*
X128573427Y-108079107D01*
X128573427Y-108079107D02*
X128621046Y-108269583D01*
X128621046Y-108269583D02*
X128668665Y-108364821D01*
X128668665Y-108364821D02*
X128763903Y-108460060D01*
X128763903Y-108460060D02*
X128906760Y-108507679D01*
X128906760Y-108507679D02*
X129001998Y-108507679D01*
X129001998Y-108507679D02*
X129144855Y-108460060D01*
X129144855Y-108460060D02*
X129192474Y-108412440D01*
X129192474Y-108412440D02*
X129192474Y-108079107D01*
X129192474Y-108079107D02*
X129001998Y-108079107D01*
X129621046Y-108507679D02*
X129621046Y-107507679D01*
X129621046Y-107507679D02*
X130192474Y-108507679D01*
X130192474Y-108507679D02*
X130192474Y-107507679D01*
X130668665Y-108507679D02*
X130668665Y-107507679D01*
X130668665Y-107507679D02*
X130906760Y-107507679D01*
X130906760Y-107507679D02*
X131049617Y-107555298D01*
X131049617Y-107555298D02*
X131144855Y-107650536D01*
X131144855Y-107650536D02*
X131192474Y-107745774D01*
X131192474Y-107745774D02*
X131240093Y-107936250D01*
X131240093Y-107936250D02*
X131240093Y-108079107D01*
X131240093Y-108079107D02*
X131192474Y-108269583D01*
X131192474Y-108269583D02*
X131144855Y-108364821D01*
X131144855Y-108364821D02*
X131049617Y-108460060D01*
X131049617Y-108460060D02*
X130906760Y-108507679D01*
X130906760Y-108507679D02*
X130668665Y-108507679D01*
X129096595Y-110311198D02*
X129001357Y-110263579D01*
X129001357Y-110263579D02*
X128858500Y-110263579D01*
X128858500Y-110263579D02*
X128715643Y-110311198D01*
X128715643Y-110311198D02*
X128620405Y-110406436D01*
X128620405Y-110406436D02*
X128572786Y-110501674D01*
X128572786Y-110501674D02*
X128525167Y-110692150D01*
X128525167Y-110692150D02*
X128525167Y-110835007D01*
X128525167Y-110835007D02*
X128572786Y-111025483D01*
X128572786Y-111025483D02*
X128620405Y-111120721D01*
X128620405Y-111120721D02*
X128715643Y-111215960D01*
X128715643Y-111215960D02*
X128858500Y-111263579D01*
X128858500Y-111263579D02*
X128953738Y-111263579D01*
X128953738Y-111263579D02*
X129096595Y-111215960D01*
X129096595Y-111215960D02*
X129144214Y-111168340D01*
X129144214Y-111168340D02*
X129144214Y-110835007D01*
X129144214Y-110835007D02*
X128953738Y-110835007D01*
X129572786Y-111263579D02*
X129572786Y-110263579D01*
X129572786Y-110263579D02*
X130144214Y-111263579D01*
X130144214Y-111263579D02*
X130144214Y-110263579D01*
X130620405Y-111263579D02*
X130620405Y-110263579D01*
X130620405Y-110263579D02*
X130858500Y-110263579D01*
X130858500Y-110263579D02*
X131001357Y-110311198D01*
X131001357Y-110311198D02*
X131096595Y-110406436D01*
X131096595Y-110406436D02*
X131144214Y-110501674D01*
X131144214Y-110501674D02*
X131191833Y-110692150D01*
X131191833Y-110692150D02*
X131191833Y-110835007D01*
X131191833Y-110835007D02*
X131144214Y-111025483D01*
X131144214Y-111025483D02*
X131096595Y-111120721D01*
X131096595Y-111120721D02*
X131001357Y-111215960D01*
X131001357Y-111215960D02*
X130858500Y-111263579D01*
X130858500Y-111263579D02*
X130620405Y-111263579D01*
D11*
X126342452Y-98703268D02*
X125485309Y-98703268D01*
X125913880Y-98703268D02*
X125913880Y-97203268D01*
X125913880Y-97203268D02*
X125771023Y-97417554D01*
X125771023Y-97417554D02*
X125628166Y-97560411D01*
X125628166Y-97560411D02*
X125485309Y-97631840D01*
X176806008Y-109464208D02*
X175306008Y-109464208D01*
X175306008Y-109464208D02*
X175306008Y-109107065D01*
X175306008Y-109107065D02*
X175377437Y-108892779D01*
X175377437Y-108892779D02*
X175520294Y-108749922D01*
X175520294Y-108749922D02*
X175663151Y-108678493D01*
X175663151Y-108678493D02*
X175948865Y-108607065D01*
X175948865Y-108607065D02*
X176163151Y-108607065D01*
X176163151Y-108607065D02*
X176448865Y-108678493D01*
X176448865Y-108678493D02*
X176591722Y-108749922D01*
X176591722Y-108749922D02*
X176734580Y-108892779D01*
X176734580Y-108892779D02*
X176806008Y-109107065D01*
X176806008Y-109107065D02*
X176806008Y-109464208D01*
X176806008Y-107964208D02*
X175306008Y-107964208D01*
X175306008Y-107964208D02*
X176806008Y-107107065D01*
X176806008Y-107107065D02*
X175306008Y-107107065D01*
X176806008Y-106392779D02*
X175306008Y-106392779D01*
X175306008Y-106392779D02*
X176377437Y-105892779D01*
X176377437Y-105892779D02*
X175306008Y-105392779D01*
X175306008Y-105392779D02*
X176806008Y-105392779D01*
X176734580Y-104749921D02*
X176806008Y-104535636D01*
X176806008Y-104535636D02*
X176806008Y-104178493D01*
X176806008Y-104178493D02*
X176734580Y-104035636D01*
X176734580Y-104035636D02*
X176663151Y-103964207D01*
X176663151Y-103964207D02*
X176520294Y-103892778D01*
X176520294Y-103892778D02*
X176377437Y-103892778D01*
X176377437Y-103892778D02*
X176234580Y-103964207D01*
X176234580Y-103964207D02*
X176163151Y-104035636D01*
X176163151Y-104035636D02*
X176091722Y-104178493D01*
X176091722Y-104178493D02*
X176020294Y-104464207D01*
X176020294Y-104464207D02*
X175948865Y-104607064D01*
X175948865Y-104607064D02*
X175877437Y-104678493D01*
X175877437Y-104678493D02*
X175734580Y-104749921D01*
X175734580Y-104749921D02*
X175591722Y-104749921D01*
X175591722Y-104749921D02*
X175448865Y-104678493D01*
X175448865Y-104678493D02*
X175377437Y-104607064D01*
X175377437Y-104607064D02*
X175306008Y-104464207D01*
X175306008Y-104464207D02*
X175306008Y-104107064D01*
X175306008Y-104107064D02*
X175377437Y-103892778D01*
X179221008Y-112142779D02*
X178506722Y-112642779D01*
X179221008Y-112999922D02*
X177721008Y-112999922D01*
X177721008Y-112999922D02*
X177721008Y-112428493D01*
X177721008Y-112428493D02*
X177792437Y-112285636D01*
X177792437Y-112285636D02*
X177863865Y-112214207D01*
X177863865Y-112214207D02*
X178006722Y-112142779D01*
X178006722Y-112142779D02*
X178221008Y-112142779D01*
X178221008Y-112142779D02*
X178363865Y-112214207D01*
X178363865Y-112214207D02*
X178435294Y-112285636D01*
X178435294Y-112285636D02*
X178506722Y-112428493D01*
X178506722Y-112428493D02*
X178506722Y-112999922D01*
X179221008Y-110857065D02*
X178435294Y-110857065D01*
X178435294Y-110857065D02*
X178292437Y-110928493D01*
X178292437Y-110928493D02*
X178221008Y-111071350D01*
X178221008Y-111071350D02*
X178221008Y-111357065D01*
X178221008Y-111357065D02*
X178292437Y-111499922D01*
X179149580Y-110857065D02*
X179221008Y-110999922D01*
X179221008Y-110999922D02*
X179221008Y-111357065D01*
X179221008Y-111357065D02*
X179149580Y-111499922D01*
X179149580Y-111499922D02*
X179006722Y-111571350D01*
X179006722Y-111571350D02*
X178863865Y-111571350D01*
X178863865Y-111571350D02*
X178721008Y-111499922D01*
X178721008Y-111499922D02*
X178649580Y-111357065D01*
X178649580Y-111357065D02*
X178649580Y-110999922D01*
X178649580Y-110999922D02*
X178578151Y-110857065D01*
X179149580Y-110214207D02*
X179221008Y-110071350D01*
X179221008Y-110071350D02*
X179221008Y-109785636D01*
X179221008Y-109785636D02*
X179149580Y-109642779D01*
X179149580Y-109642779D02*
X179006722Y-109571350D01*
X179006722Y-109571350D02*
X178935294Y-109571350D01*
X178935294Y-109571350D02*
X178792437Y-109642779D01*
X178792437Y-109642779D02*
X178721008Y-109785636D01*
X178721008Y-109785636D02*
X178721008Y-109999922D01*
X178721008Y-109999922D02*
X178649580Y-110142779D01*
X178649580Y-110142779D02*
X178506722Y-110214207D01*
X178506722Y-110214207D02*
X178435294Y-110214207D01*
X178435294Y-110214207D02*
X178292437Y-110142779D01*
X178292437Y-110142779D02*
X178221008Y-109999922D01*
X178221008Y-109999922D02*
X178221008Y-109785636D01*
X178221008Y-109785636D02*
X178292437Y-109642779D01*
X178221008Y-108928493D02*
X179721008Y-108928493D01*
X178292437Y-108928493D02*
X178221008Y-108785636D01*
X178221008Y-108785636D02*
X178221008Y-108499921D01*
X178221008Y-108499921D02*
X178292437Y-108357064D01*
X178292437Y-108357064D02*
X178363865Y-108285636D01*
X178363865Y-108285636D02*
X178506722Y-108214207D01*
X178506722Y-108214207D02*
X178935294Y-108214207D01*
X178935294Y-108214207D02*
X179078151Y-108285636D01*
X179078151Y-108285636D02*
X179149580Y-108357064D01*
X179149580Y-108357064D02*
X179221008Y-108499921D01*
X179221008Y-108499921D02*
X179221008Y-108785636D01*
X179221008Y-108785636D02*
X179149580Y-108928493D01*
X179221008Y-107571350D02*
X177721008Y-107571350D01*
X178292437Y-107571350D02*
X178221008Y-107428493D01*
X178221008Y-107428493D02*
X178221008Y-107142778D01*
X178221008Y-107142778D02*
X178292437Y-106999921D01*
X178292437Y-106999921D02*
X178363865Y-106928493D01*
X178363865Y-106928493D02*
X178506722Y-106857064D01*
X178506722Y-106857064D02*
X178935294Y-106857064D01*
X178935294Y-106857064D02*
X179078151Y-106928493D01*
X179078151Y-106928493D02*
X179149580Y-106999921D01*
X179149580Y-106999921D02*
X179221008Y-107142778D01*
X179221008Y-107142778D02*
X179221008Y-107428493D01*
X179221008Y-107428493D02*
X179149580Y-107571350D01*
X179149580Y-105642778D02*
X179221008Y-105785635D01*
X179221008Y-105785635D02*
X179221008Y-106071350D01*
X179221008Y-106071350D02*
X179149580Y-106214207D01*
X179149580Y-106214207D02*
X179006722Y-106285635D01*
X179006722Y-106285635D02*
X178435294Y-106285635D01*
X178435294Y-106285635D02*
X178292437Y-106214207D01*
X178292437Y-106214207D02*
X178221008Y-106071350D01*
X178221008Y-106071350D02*
X178221008Y-105785635D01*
X178221008Y-105785635D02*
X178292437Y-105642778D01*
X178292437Y-105642778D02*
X178435294Y-105571350D01*
X178435294Y-105571350D02*
X178578151Y-105571350D01*
X178578151Y-105571350D02*
X178721008Y-106285635D01*
X179221008Y-104928493D02*
X178221008Y-104928493D01*
X178506722Y-104928493D02*
X178363865Y-104857064D01*
X178363865Y-104857064D02*
X178292437Y-104785636D01*
X178292437Y-104785636D02*
X178221008Y-104642778D01*
X178221008Y-104642778D02*
X178221008Y-104499921D01*
X179221008Y-103999922D02*
X178221008Y-103999922D01*
X178506722Y-103999922D02*
X178363865Y-103928493D01*
X178363865Y-103928493D02*
X178292437Y-103857065D01*
X178292437Y-103857065D02*
X178221008Y-103714207D01*
X178221008Y-103714207D02*
X178221008Y-103571350D01*
X178221008Y-103214208D02*
X179221008Y-102857065D01*
X178221008Y-102499922D02*
X179221008Y-102857065D01*
X179221008Y-102857065D02*
X179578151Y-102999922D01*
X179578151Y-102999922D02*
X179649580Y-103071351D01*
X179649580Y-103071351D02*
X179721008Y-103214208D01*
X179221008Y-100785637D02*
X177721008Y-100785637D01*
X177721008Y-100785637D02*
X177721008Y-100214208D01*
X177721008Y-100214208D02*
X177792437Y-100071351D01*
X177792437Y-100071351D02*
X177863865Y-99999922D01*
X177863865Y-99999922D02*
X178006722Y-99928494D01*
X178006722Y-99928494D02*
X178221008Y-99928494D01*
X178221008Y-99928494D02*
X178363865Y-99999922D01*
X178363865Y-99999922D02*
X178435294Y-100071351D01*
X178435294Y-100071351D02*
X178506722Y-100214208D01*
X178506722Y-100214208D02*
X178506722Y-100785637D01*
X179221008Y-99285637D02*
X178221008Y-99285637D01*
X177721008Y-99285637D02*
X177792437Y-99357065D01*
X177792437Y-99357065D02*
X177863865Y-99285637D01*
X177863865Y-99285637D02*
X177792437Y-99214208D01*
X177792437Y-99214208D02*
X177721008Y-99285637D01*
X177721008Y-99285637D02*
X177863865Y-99285637D01*
X181636008Y-110785636D02*
X180136008Y-110785636D01*
X180850294Y-110785636D02*
X180850294Y-109928493D01*
X181636008Y-109928493D02*
X180136008Y-109928493D01*
X181207437Y-109285635D02*
X181207437Y-108571350D01*
X181636008Y-109428492D02*
X180136008Y-108928492D01*
X180136008Y-108928492D02*
X181636008Y-108428492D01*
X180136008Y-108142778D02*
X180136008Y-107285636D01*
X181636008Y-107714207D02*
X180136008Y-107714207D01*
X180136008Y-105857064D02*
X181636008Y-105357064D01*
X181636008Y-105357064D02*
X180136008Y-104857064D01*
X181636008Y-103571350D02*
X181636008Y-104428493D01*
X181636008Y-103999922D02*
X180136008Y-103999922D01*
X180136008Y-103999922D02*
X180350294Y-104142779D01*
X180350294Y-104142779D02*
X180493151Y-104285636D01*
X180493151Y-104285636D02*
X180564580Y-104428493D01*
X181493151Y-102928494D02*
X181564580Y-102857065D01*
X181564580Y-102857065D02*
X181636008Y-102928494D01*
X181636008Y-102928494D02*
X181564580Y-102999922D01*
X181564580Y-102999922D02*
X181493151Y-102928494D01*
X181493151Y-102928494D02*
X181636008Y-102928494D01*
X180136008Y-101928493D02*
X180136008Y-101785636D01*
X180136008Y-101785636D02*
X180207437Y-101642779D01*
X180207437Y-101642779D02*
X180278865Y-101571351D01*
X180278865Y-101571351D02*
X180421722Y-101499922D01*
X180421722Y-101499922D02*
X180707437Y-101428493D01*
X180707437Y-101428493D02*
X181064580Y-101428493D01*
X181064580Y-101428493D02*
X181350294Y-101499922D01*
X181350294Y-101499922D02*
X181493151Y-101571351D01*
X181493151Y-101571351D02*
X181564580Y-101642779D01*
X181564580Y-101642779D02*
X181636008Y-101785636D01*
X181636008Y-101785636D02*
X181636008Y-101928493D01*
X181636008Y-101928493D02*
X181564580Y-102071351D01*
X181564580Y-102071351D02*
X181493151Y-102142779D01*
X181493151Y-102142779D02*
X181350294Y-102214208D01*
X181350294Y-102214208D02*
X181064580Y-102285636D01*
X181064580Y-102285636D02*
X180707437Y-102285636D01*
X180707437Y-102285636D02*
X180421722Y-102214208D01*
X180421722Y-102214208D02*
X180278865Y-102142779D01*
X180278865Y-102142779D02*
X180207437Y-102071351D01*
X180207437Y-102071351D02*
X180136008Y-101928493D01*
D10*
X143947714Y-111881440D02*
X144090571Y-111929059D01*
X144090571Y-111929059D02*
X144328666Y-111929059D01*
X144328666Y-111929059D02*
X144423904Y-111881440D01*
X144423904Y-111881440D02*
X144471523Y-111833820D01*
X144471523Y-111833820D02*
X144519142Y-111738582D01*
X144519142Y-111738582D02*
X144519142Y-111643344D01*
X144519142Y-111643344D02*
X144471523Y-111548106D01*
X144471523Y-111548106D02*
X144423904Y-111500487D01*
X144423904Y-111500487D02*
X144328666Y-111452868D01*
X144328666Y-111452868D02*
X144138190Y-111405249D01*
X144138190Y-111405249D02*
X144042952Y-111357630D01*
X144042952Y-111357630D02*
X143995333Y-111310011D01*
X143995333Y-111310011D02*
X143947714Y-111214773D01*
X143947714Y-111214773D02*
X143947714Y-111119535D01*
X143947714Y-111119535D02*
X143995333Y-111024297D01*
X143995333Y-111024297D02*
X144042952Y-110976678D01*
X144042952Y-110976678D02*
X144138190Y-110929059D01*
X144138190Y-110929059D02*
X144376285Y-110929059D01*
X144376285Y-110929059D02*
X144519142Y-110976678D01*
X144947714Y-111929059D02*
X144947714Y-110929059D01*
X144947714Y-110929059D02*
X145185809Y-110929059D01*
X145185809Y-110929059D02*
X145328666Y-110976678D01*
X145328666Y-110976678D02*
X145423904Y-111071916D01*
X145423904Y-111071916D02*
X145471523Y-111167154D01*
X145471523Y-111167154D02*
X145519142Y-111357630D01*
X145519142Y-111357630D02*
X145519142Y-111500487D01*
X145519142Y-111500487D02*
X145471523Y-111690963D01*
X145471523Y-111690963D02*
X145423904Y-111786201D01*
X145423904Y-111786201D02*
X145328666Y-111881440D01*
X145328666Y-111881440D02*
X145185809Y-111929059D01*
X145185809Y-111929059D02*
X144947714Y-111929059D01*
X145900095Y-111643344D02*
X146376285Y-111643344D01*
X145804857Y-111929059D02*
X146138190Y-110929059D01*
X146138190Y-110929059D02*
X146471523Y-111929059D01*
D12*
X136427529Y-104849178D02*
X137755609Y-104849178D01*
X137755609Y-104849178D02*
X137911854Y-104771055D01*
X137911854Y-104771055D02*
X137989977Y-104692933D01*
X137989977Y-104692933D02*
X138068099Y-104536688D01*
X138068099Y-104536688D02*
X138068099Y-104224199D01*
X138068099Y-104224199D02*
X137989977Y-104067954D01*
X137989977Y-104067954D02*
X137911854Y-103989831D01*
X137911854Y-103989831D02*
X137755609Y-103911709D01*
X137755609Y-103911709D02*
X136427529Y-103911709D01*
X138068099Y-102271139D02*
X138068099Y-103208608D01*
X138068099Y-102739874D02*
X136427529Y-102739874D01*
X136427529Y-102739874D02*
X136661896Y-102896118D01*
X136661896Y-102896118D02*
X136818141Y-103052363D01*
X136818141Y-103052363D02*
X136896263Y-103208608D01*
X153953033Y-110867504D02*
X152310983Y-110867504D01*
X152310983Y-110867504D02*
X152310983Y-110241961D01*
X152310983Y-110241961D02*
X152389176Y-110085576D01*
X152389176Y-110085576D02*
X152467369Y-110007383D01*
X152467369Y-110007383D02*
X152623755Y-109929190D01*
X152623755Y-109929190D02*
X152858333Y-109929190D01*
X152858333Y-109929190D02*
X153014719Y-110007383D01*
X153014719Y-110007383D02*
X153092912Y-110085576D01*
X153092912Y-110085576D02*
X153171105Y-110241961D01*
X153171105Y-110241961D02*
X153171105Y-110867504D01*
X153014719Y-108990876D02*
X152936526Y-109147261D01*
X152936526Y-109147261D02*
X152858333Y-109225454D01*
X152858333Y-109225454D02*
X152701948Y-109303647D01*
X152701948Y-109303647D02*
X152623755Y-109303647D01*
X152623755Y-109303647D02*
X152467369Y-109225454D01*
X152467369Y-109225454D02*
X152389176Y-109147261D01*
X152389176Y-109147261D02*
X152310983Y-108990876D01*
X152310983Y-108990876D02*
X152310983Y-108678104D01*
X152310983Y-108678104D02*
X152389176Y-108521719D01*
X152389176Y-108521719D02*
X152467369Y-108443526D01*
X152467369Y-108443526D02*
X152623755Y-108365333D01*
X152623755Y-108365333D02*
X152701948Y-108365333D01*
X152701948Y-108365333D02*
X152858333Y-108443526D01*
X152858333Y-108443526D02*
X152936526Y-108521719D01*
X152936526Y-108521719D02*
X153014719Y-108678104D01*
X153014719Y-108678104D02*
X153014719Y-108990876D01*
X153014719Y-108990876D02*
X153092912Y-109147261D01*
X153092912Y-109147261D02*
X153171105Y-109225454D01*
X153171105Y-109225454D02*
X153327491Y-109303647D01*
X153327491Y-109303647D02*
X153640262Y-109303647D01*
X153640262Y-109303647D02*
X153796648Y-109225454D01*
X153796648Y-109225454D02*
X153874841Y-109147261D01*
X153874841Y-109147261D02*
X153953033Y-108990876D01*
X153953033Y-108990876D02*
X153953033Y-108678104D01*
X153953033Y-108678104D02*
X153874841Y-108521719D01*
X153874841Y-108521719D02*
X153796648Y-108443526D01*
X153796648Y-108443526D02*
X153640262Y-108365333D01*
X153640262Y-108365333D02*
X153327491Y-108365333D01*
X153327491Y-108365333D02*
X153171105Y-108443526D01*
X153171105Y-108443526D02*
X153092912Y-108521719D01*
X153092912Y-108521719D02*
X153014719Y-108678104D01*
X152467369Y-107739790D02*
X152389176Y-107661597D01*
X152389176Y-107661597D02*
X152310983Y-107505212D01*
X152310983Y-107505212D02*
X152310983Y-107114247D01*
X152310983Y-107114247D02*
X152389176Y-106957862D01*
X152389176Y-106957862D02*
X152467369Y-106879669D01*
X152467369Y-106879669D02*
X152623755Y-106801476D01*
X152623755Y-106801476D02*
X152780141Y-106801476D01*
X152780141Y-106801476D02*
X153014719Y-106879669D01*
X153014719Y-106879669D02*
X153953033Y-107817983D01*
X153953033Y-107817983D02*
X153953033Y-106801476D01*
X153092912Y-105550390D02*
X153171105Y-105315812D01*
X153171105Y-105315812D02*
X153249298Y-105237619D01*
X153249298Y-105237619D02*
X153405683Y-105159426D01*
X153405683Y-105159426D02*
X153640262Y-105159426D01*
X153640262Y-105159426D02*
X153796648Y-105237619D01*
X153796648Y-105237619D02*
X153874841Y-105315812D01*
X153874841Y-105315812D02*
X153953033Y-105472197D01*
X153953033Y-105472197D02*
X153953033Y-106097740D01*
X153953033Y-106097740D02*
X152310983Y-106097740D01*
X152310983Y-106097740D02*
X152310983Y-105550390D01*
X152310983Y-105550390D02*
X152389176Y-105394005D01*
X152389176Y-105394005D02*
X152467369Y-105315812D01*
X152467369Y-105315812D02*
X152623755Y-105237619D01*
X152623755Y-105237619D02*
X152780141Y-105237619D01*
X152780141Y-105237619D02*
X152936526Y-105315812D01*
X152936526Y-105315812D02*
X153014719Y-105394005D01*
X153014719Y-105394005D02*
X153092912Y-105550390D01*
X153092912Y-105550390D02*
X153092912Y-106097740D01*
X152310983Y-104612076D02*
X152310983Y-103517376D01*
X152310983Y-103517376D02*
X153953033Y-104221112D01*
X153953033Y-102031712D02*
X153953033Y-102970026D01*
X153953033Y-102500869D02*
X152310983Y-102500869D01*
X152310983Y-102500869D02*
X152545562Y-102657255D01*
X152545562Y-102657255D02*
X152701948Y-102813640D01*
X152701948Y-102813640D02*
X152780141Y-102970026D01*
X152310983Y-100546048D02*
X152310983Y-101327976D01*
X152310983Y-101327976D02*
X153092912Y-101406169D01*
X153092912Y-101406169D02*
X153014719Y-101327976D01*
X153014719Y-101327976D02*
X152936526Y-101171591D01*
X152936526Y-101171591D02*
X152936526Y-100780626D01*
X152936526Y-100780626D02*
X153014719Y-100624241D01*
X153014719Y-100624241D02*
X153092912Y-100546048D01*
X153092912Y-100546048D02*
X153249298Y-100467855D01*
X153249298Y-100467855D02*
X153640262Y-100467855D01*
X153640262Y-100467855D02*
X153796648Y-100546048D01*
X153796648Y-100546048D02*
X153874841Y-100624241D01*
X153874841Y-100624241D02*
X153953033Y-100780626D01*
X153953033Y-100780626D02*
X153953033Y-101171591D01*
X153953033Y-101171591D02*
X153874841Y-101327976D01*
X153874841Y-101327976D02*
X153796648Y-101406169D01*
X153953033Y-99764119D02*
X152310983Y-99764119D01*
X152310983Y-99764119D02*
X152310983Y-99138576D01*
X152310983Y-99138576D02*
X152389176Y-98982191D01*
X152389176Y-98982191D02*
X152467369Y-98903998D01*
X152467369Y-98903998D02*
X152623755Y-98825805D01*
X152623755Y-98825805D02*
X152858333Y-98825805D01*
X152858333Y-98825805D02*
X153014719Y-98903998D01*
X153014719Y-98903998D02*
X153092912Y-98982191D01*
X153092912Y-98982191D02*
X153171105Y-99138576D01*
X153171105Y-99138576D02*
X153171105Y-99764119D01*
X153953033Y-98122069D02*
X152310983Y-98122069D01*
X152310983Y-98122069D02*
X153953033Y-97183755D01*
X153953033Y-97183755D02*
X152310983Y-97183755D01*
X153874841Y-96323633D02*
X153953033Y-96323633D01*
X153953033Y-96323633D02*
X154109419Y-96401826D01*
X154109419Y-96401826D02*
X154187612Y-96480019D01*
X153953033Y-94759776D02*
X153953033Y-95698090D01*
X153953033Y-95228933D02*
X152310983Y-95228933D01*
X152310983Y-95228933D02*
X152545562Y-95385319D01*
X152545562Y-95385319D02*
X152701948Y-95541704D01*
X152701948Y-95541704D02*
X152780141Y-95698090D01*
X153953033Y-93195919D02*
X153953033Y-94134233D01*
X153953033Y-93665076D02*
X152310983Y-93665076D01*
X152310983Y-93665076D02*
X152545562Y-93821462D01*
X152545562Y-93821462D02*
X152701948Y-93977847D01*
X152701948Y-93977847D02*
X152780141Y-94134233D01*
X152467369Y-92570376D02*
X152389176Y-92492183D01*
X152389176Y-92492183D02*
X152310983Y-92335798D01*
X152310983Y-92335798D02*
X152310983Y-91944833D01*
X152310983Y-91944833D02*
X152389176Y-91788448D01*
X152389176Y-91788448D02*
X152467369Y-91710255D01*
X152467369Y-91710255D02*
X152623755Y-91632062D01*
X152623755Y-91632062D02*
X152780141Y-91632062D01*
X152780141Y-91632062D02*
X153014719Y-91710255D01*
X153014719Y-91710255D02*
X153953033Y-92648569D01*
X153953033Y-92648569D02*
X153953033Y-91632062D01*
D13*
X166618227Y-107728158D02*
X166618227Y-108635301D01*
X166618227Y-108635301D02*
X166557750Y-108816729D01*
X166557750Y-108816729D02*
X166436798Y-108937682D01*
X166436798Y-108937682D02*
X166255369Y-108998158D01*
X166255369Y-108998158D02*
X166134417Y-108998158D01*
X167162512Y-107849110D02*
X167222988Y-107788634D01*
X167222988Y-107788634D02*
X167343941Y-107728158D01*
X167343941Y-107728158D02*
X167646322Y-107728158D01*
X167646322Y-107728158D02*
X167767274Y-107788634D01*
X167767274Y-107788634D02*
X167827750Y-107849110D01*
X167827750Y-107849110D02*
X167888227Y-107970062D01*
X167888227Y-107970062D02*
X167888227Y-108091015D01*
X167888227Y-108091015D02*
X167827750Y-108272443D01*
X167827750Y-108272443D02*
X167102036Y-108998158D01*
X167102036Y-108998158D02*
X167888227Y-108998158D01*
D10*
X133202113Y-100965160D02*
X133154494Y-101012780D01*
X133154494Y-101012780D02*
X133011637Y-101060399D01*
X133011637Y-101060399D02*
X132916399Y-101060399D01*
X132916399Y-101060399D02*
X132773542Y-101012780D01*
X132773542Y-101012780D02*
X132678304Y-100917541D01*
X132678304Y-100917541D02*
X132630685Y-100822303D01*
X132630685Y-100822303D02*
X132583066Y-100631827D01*
X132583066Y-100631827D02*
X132583066Y-100488970D01*
X132583066Y-100488970D02*
X132630685Y-100298494D01*
X132630685Y-100298494D02*
X132678304Y-100203256D01*
X132678304Y-100203256D02*
X132773542Y-100108018D01*
X132773542Y-100108018D02*
X132916399Y-100060399D01*
X132916399Y-100060399D02*
X133011637Y-100060399D01*
X133011637Y-100060399D02*
X133154494Y-100108018D01*
X133154494Y-100108018D02*
X133202113Y-100155637D01*
X134154494Y-101060399D02*
X133583066Y-101060399D01*
X133868780Y-101060399D02*
X133868780Y-100060399D01*
X133868780Y-100060399D02*
X133773542Y-100203256D01*
X133773542Y-100203256D02*
X133678304Y-100298494D01*
X133678304Y-100298494D02*
X133583066Y-100346113D01*
X122729693Y-100988020D02*
X122682074Y-101035640D01*
X122682074Y-101035640D02*
X122539217Y-101083259D01*
X122539217Y-101083259D02*
X122443979Y-101083259D01*
X122443979Y-101083259D02*
X122301122Y-101035640D01*
X122301122Y-101035640D02*
X122205884Y-100940401D01*
X122205884Y-100940401D02*
X122158265Y-100845163D01*
X122158265Y-100845163D02*
X122110646Y-100654687D01*
X122110646Y-100654687D02*
X122110646Y-100511830D01*
X122110646Y-100511830D02*
X122158265Y-100321354D01*
X122158265Y-100321354D02*
X122205884Y-100226116D01*
X122205884Y-100226116D02*
X122301122Y-100130878D01*
X122301122Y-100130878D02*
X122443979Y-100083259D01*
X122443979Y-100083259D02*
X122539217Y-100083259D01*
X122539217Y-100083259D02*
X122682074Y-100130878D01*
X122682074Y-100130878D02*
X122729693Y-100178497D01*
X123110646Y-100178497D02*
X123158265Y-100130878D01*
X123158265Y-100130878D02*
X123253503Y-100083259D01*
X123253503Y-100083259D02*
X123491598Y-100083259D01*
X123491598Y-100083259D02*
X123586836Y-100130878D01*
X123586836Y-100130878D02*
X123634455Y-100178497D01*
X123634455Y-100178497D02*
X123682074Y-100273735D01*
X123682074Y-100273735D02*
X123682074Y-100368973D01*
X123682074Y-100368973D02*
X123634455Y-100511830D01*
X123634455Y-100511830D02*
X123063027Y-101083259D01*
X123063027Y-101083259D02*
X123682074Y-101083259D01*
D13*
X174817347Y-113392218D02*
X174817347Y-114299361D01*
X174817347Y-114299361D02*
X174756870Y-114480789D01*
X174756870Y-114480789D02*
X174635918Y-114601742D01*
X174635918Y-114601742D02*
X174454489Y-114662218D01*
X174454489Y-114662218D02*
X174333537Y-114662218D01*
X175301156Y-113392218D02*
X176087347Y-113392218D01*
X176087347Y-113392218D02*
X175664013Y-113876027D01*
X175664013Y-113876027D02*
X175845442Y-113876027D01*
X175845442Y-113876027D02*
X175966394Y-113936503D01*
X175966394Y-113936503D02*
X176026870Y-113996980D01*
X176026870Y-113996980D02*
X176087347Y-114117932D01*
X176087347Y-114117932D02*
X176087347Y-114420313D01*
X176087347Y-114420313D02*
X176026870Y-114541265D01*
X176026870Y-114541265D02*
X175966394Y-114601742D01*
X175966394Y-114601742D02*
X175845442Y-114662218D01*
X175845442Y-114662218D02*
X175482585Y-114662218D01*
X175482585Y-114662218D02*
X175361632Y-114601742D01*
X175361632Y-114601742D02*
X175301156Y-114541265D01*
X166005482Y-116562138D02*
X165582148Y-115957376D01*
X165279767Y-116562138D02*
X165279767Y-115292138D01*
X165279767Y-115292138D02*
X165763577Y-115292138D01*
X165763577Y-115292138D02*
X165884529Y-115352614D01*
X165884529Y-115352614D02*
X165945006Y-115413090D01*
X165945006Y-115413090D02*
X166005482Y-115534042D01*
X166005482Y-115534042D02*
X166005482Y-115715471D01*
X166005482Y-115715471D02*
X165945006Y-115836423D01*
X165945006Y-115836423D02*
X165884529Y-115896900D01*
X165884529Y-115896900D02*
X165763577Y-115957376D01*
X165763577Y-115957376D02*
X165279767Y-115957376D01*
X166912625Y-115292138D02*
X166912625Y-116199281D01*
X166912625Y-116199281D02*
X166852148Y-116380709D01*
X166852148Y-116380709D02*
X166731196Y-116501662D01*
X166731196Y-116501662D02*
X166549767Y-116562138D01*
X166549767Y-116562138D02*
X166428815Y-116562138D01*
X168182625Y-116562138D02*
X167456910Y-116562138D01*
X167819767Y-116562138D02*
X167819767Y-115292138D01*
X167819767Y-115292138D02*
X167698815Y-115473566D01*
X167698815Y-115473566D02*
X167577863Y-115594519D01*
X167577863Y-115594519D02*
X167456910Y-115654995D01*
X168666434Y-115413090D02*
X168726910Y-115352614D01*
X168726910Y-115352614D02*
X168847863Y-115292138D01*
X168847863Y-115292138D02*
X169150244Y-115292138D01*
X169150244Y-115292138D02*
X169271196Y-115352614D01*
X169271196Y-115352614D02*
X169331672Y-115413090D01*
X169331672Y-115413090D02*
X169392149Y-115534042D01*
X169392149Y-115534042D02*
X169392149Y-115654995D01*
X169392149Y-115654995D02*
X169331672Y-115836423D01*
X169331672Y-115836423D02*
X168605958Y-116562138D01*
X168605958Y-116562138D02*
X169392149Y-116562138D01*
D10*
X130287166Y-112641019D02*
X130287166Y-113355304D01*
X130287166Y-113355304D02*
X130239547Y-113498161D01*
X130239547Y-113498161D02*
X130144309Y-113593400D01*
X130144309Y-113593400D02*
X130001452Y-113641019D01*
X130001452Y-113641019D02*
X129906214Y-113641019D01*
X131191928Y-112974352D02*
X131191928Y-113641019D01*
X130953833Y-112593400D02*
X130715738Y-113307685D01*
X130715738Y-113307685D02*
X131334785Y-113307685D01*
X141927986Y-108790379D02*
X141927986Y-109504664D01*
X141927986Y-109504664D02*
X141880367Y-109647521D01*
X141880367Y-109647521D02*
X141785129Y-109742760D01*
X141785129Y-109742760D02*
X141642272Y-109790379D01*
X141642272Y-109790379D02*
X141547034Y-109790379D01*
X142832748Y-108790379D02*
X142642272Y-108790379D01*
X142642272Y-108790379D02*
X142547034Y-108837998D01*
X142547034Y-108837998D02*
X142499415Y-108885617D01*
X142499415Y-108885617D02*
X142404177Y-109028474D01*
X142404177Y-109028474D02*
X142356558Y-109218950D01*
X142356558Y-109218950D02*
X142356558Y-109599902D01*
X142356558Y-109599902D02*
X142404177Y-109695140D01*
X142404177Y-109695140D02*
X142451796Y-109742760D01*
X142451796Y-109742760D02*
X142547034Y-109790379D01*
X142547034Y-109790379D02*
X142737510Y-109790379D01*
X142737510Y-109790379D02*
X142832748Y-109742760D01*
X142832748Y-109742760D02*
X142880367Y-109695140D01*
X142880367Y-109695140D02*
X142927986Y-109599902D01*
X142927986Y-109599902D02*
X142927986Y-109361807D01*
X142927986Y-109361807D02*
X142880367Y-109266569D01*
X142880367Y-109266569D02*
X142832748Y-109218950D01*
X142832748Y-109218950D02*
X142737510Y-109171331D01*
X142737510Y-109171331D02*
X142547034Y-109171331D01*
X142547034Y-109171331D02*
X142451796Y-109218950D01*
X142451796Y-109218950D02*
X142404177Y-109266569D01*
X142404177Y-109266569D02*
X142356558Y-109361807D01*
X147630286Y-108790379D02*
X147630286Y-109504664D01*
X147630286Y-109504664D02*
X147582667Y-109647521D01*
X147582667Y-109647521D02*
X147487429Y-109742760D01*
X147487429Y-109742760D02*
X147344572Y-109790379D01*
X147344572Y-109790379D02*
X147249334Y-109790379D01*
X148011239Y-108790379D02*
X148677905Y-108790379D01*
X148677905Y-108790379D02*
X148249334Y-109790379D01*
D14*
X143421423Y-106965344D02*
X144231393Y-106965344D01*
X144231393Y-106965344D02*
X144326683Y-106917699D01*
X144326683Y-106917699D02*
X144374329Y-106870054D01*
X144374329Y-106870054D02*
X144421974Y-106774763D01*
X144421974Y-106774763D02*
X144421974Y-106584182D01*
X144421974Y-106584182D02*
X144374329Y-106488891D01*
X144374329Y-106488891D02*
X144326683Y-106441246D01*
X144326683Y-106441246D02*
X144231393Y-106393601D01*
X144231393Y-106393601D02*
X143421423Y-106393601D01*
X143516713Y-105964793D02*
X143469068Y-105917148D01*
X143469068Y-105917148D02*
X143421423Y-105821858D01*
X143421423Y-105821858D02*
X143421423Y-105583631D01*
X143421423Y-105583631D02*
X143469068Y-105488341D01*
X143469068Y-105488341D02*
X143516713Y-105440695D01*
X143516713Y-105440695D02*
X143612004Y-105393050D01*
X143612004Y-105393050D02*
X143707295Y-105393050D01*
X143707295Y-105393050D02*
X143850230Y-105440695D01*
X143850230Y-105440695D02*
X144421974Y-106012439D01*
X144421974Y-106012439D02*
X144421974Y-105393050D01*
D10*
X149956214Y-105386019D02*
X149384786Y-105386019D01*
X149670500Y-105386019D02*
X149670500Y-104386019D01*
X149670500Y-104386019D02*
X149575262Y-104528876D01*
X149575262Y-104528876D02*
X149480024Y-104624114D01*
X149480024Y-104624114D02*
X149384786Y-104671733D01*
X118501566Y-113542719D02*
X118501566Y-114257004D01*
X118501566Y-114257004D02*
X118453947Y-114399861D01*
X118453947Y-114399861D02*
X118358709Y-114495100D01*
X118358709Y-114495100D02*
X118215852Y-114542719D01*
X118215852Y-114542719D02*
X118120614Y-114542719D01*
X119120614Y-113971290D02*
X119025376Y-113923671D01*
X119025376Y-113923671D02*
X118977757Y-113876052D01*
X118977757Y-113876052D02*
X118930138Y-113780814D01*
X118930138Y-113780814D02*
X118930138Y-113733195D01*
X118930138Y-113733195D02*
X118977757Y-113637957D01*
X118977757Y-113637957D02*
X119025376Y-113590338D01*
X119025376Y-113590338D02*
X119120614Y-113542719D01*
X119120614Y-113542719D02*
X119311090Y-113542719D01*
X119311090Y-113542719D02*
X119406328Y-113590338D01*
X119406328Y-113590338D02*
X119453947Y-113637957D01*
X119453947Y-113637957D02*
X119501566Y-113733195D01*
X119501566Y-113733195D02*
X119501566Y-113780814D01*
X119501566Y-113780814D02*
X119453947Y-113876052D01*
X119453947Y-113876052D02*
X119406328Y-113923671D01*
X119406328Y-113923671D02*
X119311090Y-113971290D01*
X119311090Y-113971290D02*
X119120614Y-113971290D01*
X119120614Y-113971290D02*
X119025376Y-114018909D01*
X119025376Y-114018909D02*
X118977757Y-114066528D01*
X118977757Y-114066528D02*
X118930138Y-114161766D01*
X118930138Y-114161766D02*
X118930138Y-114352242D01*
X118930138Y-114352242D02*
X118977757Y-114447480D01*
X118977757Y-114447480D02*
X119025376Y-114495100D01*
X119025376Y-114495100D02*
X119120614Y-114542719D01*
X119120614Y-114542719D02*
X119311090Y-114542719D01*
X119311090Y-114542719D02*
X119406328Y-114495100D01*
X119406328Y-114495100D02*
X119453947Y-114447480D01*
X119453947Y-114447480D02*
X119501566Y-114352242D01*
X119501566Y-114352242D02*
X119501566Y-114161766D01*
X119501566Y-114161766D02*
X119453947Y-114066528D01*
X119453947Y-114066528D02*
X119406328Y-114018909D01*
X119406328Y-114018909D02*
X119311090Y-113971290D01*
X152208933Y-114538299D02*
X151875600Y-114062108D01*
X151637505Y-114538299D02*
X151637505Y-113538299D01*
X151637505Y-113538299D02*
X152018457Y-113538299D01*
X152018457Y-113538299D02*
X152113695Y-113585918D01*
X152113695Y-113585918D02*
X152161314Y-113633537D01*
X152161314Y-113633537D02*
X152208933Y-113728775D01*
X152208933Y-113728775D02*
X152208933Y-113871632D01*
X152208933Y-113871632D02*
X152161314Y-113966870D01*
X152161314Y-113966870D02*
X152113695Y-114014489D01*
X152113695Y-114014489D02*
X152018457Y-114062108D01*
X152018457Y-114062108D02*
X151637505Y-114062108D01*
X153161314Y-114538299D02*
X152589886Y-114538299D01*
X152875600Y-114538299D02*
X152875600Y-113538299D01*
X152875600Y-113538299D02*
X152780362Y-113681156D01*
X152780362Y-113681156D02*
X152685124Y-113776394D01*
X152685124Y-113776394D02*
X152589886Y-113824013D01*
X155640473Y-114469719D02*
X155307140Y-113993528D01*
X155069045Y-114469719D02*
X155069045Y-113469719D01*
X155069045Y-113469719D02*
X155449997Y-113469719D01*
X155449997Y-113469719D02*
X155545235Y-113517338D01*
X155545235Y-113517338D02*
X155592854Y-113564957D01*
X155592854Y-113564957D02*
X155640473Y-113660195D01*
X155640473Y-113660195D02*
X155640473Y-113803052D01*
X155640473Y-113803052D02*
X155592854Y-113898290D01*
X155592854Y-113898290D02*
X155545235Y-113945909D01*
X155545235Y-113945909D02*
X155449997Y-113993528D01*
X155449997Y-113993528D02*
X155069045Y-113993528D01*
X156021426Y-113564957D02*
X156069045Y-113517338D01*
X156069045Y-113517338D02*
X156164283Y-113469719D01*
X156164283Y-113469719D02*
X156402378Y-113469719D01*
X156402378Y-113469719D02*
X156497616Y-113517338D01*
X156497616Y-113517338D02*
X156545235Y-113564957D01*
X156545235Y-113564957D02*
X156592854Y-113660195D01*
X156592854Y-113660195D02*
X156592854Y-113755433D01*
X156592854Y-113755433D02*
X156545235Y-113898290D01*
X156545235Y-113898290D02*
X155973807Y-114469719D01*
X155973807Y-114469719D02*
X156592854Y-114469719D01*
D11*
X156874320Y-97726508D02*
X156874320Y-98797937D01*
X156874320Y-98797937D02*
X156802891Y-99012222D01*
X156802891Y-99012222D02*
X156660034Y-99155080D01*
X156660034Y-99155080D02*
X156445748Y-99226508D01*
X156445748Y-99226508D02*
X156302891Y-99226508D01*
X158374320Y-99226508D02*
X157517177Y-99226508D01*
X157945748Y-99226508D02*
X157945748Y-97726508D01*
X157945748Y-97726508D02*
X157802891Y-97940794D01*
X157802891Y-97940794D02*
X157660034Y-98083651D01*
X157660034Y-98083651D02*
X157517177Y-98155080D01*
D15*
X150244540Y-106112300D02*
X150244540Y-99965500D01*
X140440140Y-103343700D02*
X140440140Y-105553500D01*
X140440140Y-102734100D02*
X140440140Y-103343700D01*
X140440140Y-99965500D02*
X140440140Y-102734100D01*
X140440140Y-103343700D02*
G75*
G03*
X140440140Y-102734100I0J304800D01*
G01*
D16*
X160441560Y-99423840D02*
X173641560Y-99423840D01*
X160441560Y-107543840D02*
X160441560Y-99423840D01*
X160441560Y-111543840D02*
X160441560Y-117423840D01*
X160441560Y-117423840D02*
X173641560Y-117423840D01*
X173641560Y-99423840D02*
X173641560Y-107543840D01*
X173641560Y-117423840D02*
X173641560Y-111543840D01*
D17*
X138330720Y-101608740D02*
X138330720Y-101153740D01*
X138330720Y-101608740D02*
X129090720Y-101608740D01*
X138330720Y-99823740D02*
X138330720Y-99368740D01*
X138330720Y-99368740D02*
X129090720Y-99368740D01*
X129090720Y-101608740D02*
X129090720Y-101153740D01*
X129090720Y-99823740D02*
X129090720Y-99368740D01*
X118175720Y-99368740D02*
X118175720Y-99823740D01*
X118175720Y-99368740D02*
X127415720Y-99368740D01*
X118175720Y-101153740D02*
X118175720Y-101608740D01*
X118175720Y-101608740D02*
X127415720Y-101608740D01*
X127415720Y-99368740D02*
X127415720Y-99823740D01*
X127415720Y-101153740D02*
X127415720Y-101608740D01*
D16*
X160561500Y-107072560D02*
X172561500Y-107072560D01*
X160561500Y-112072560D02*
X160561500Y-107072560D01*
X160561500Y-116072560D02*
X160561500Y-120072560D01*
X160561500Y-120072560D02*
X172561500Y-120072560D01*
D18*
X169061500Y-106572560D02*
X169061500Y-106572560D01*
X169261500Y-106572560D02*
X169261500Y-106572560D01*
D16*
X172561500Y-107072560D02*
X172561500Y-112072560D01*
X172561500Y-120072560D02*
X172561500Y-116072560D01*
D18*
X169261500Y-106572560D02*
G75*
G03*
X169061500Y-106572560I-100000J0D01*
G01*
X169061500Y-106572560D02*
G75*
G03*
X169261500Y-106572560I100000J0D01*
G01*
D17*
X138741320Y-120705760D02*
X129621320Y-120705760D01*
X138731320Y-114415760D02*
X138731320Y-120705760D01*
X138571320Y-117605760D02*
X129621320Y-117605760D01*
X138071320Y-116685760D02*
X138711320Y-116685760D01*
X138041320Y-120685760D02*
X138041320Y-116615760D01*
X138021320Y-116655760D02*
X138021320Y-114455760D01*
X138021320Y-114405760D02*
X138731320Y-114405760D01*
X137481320Y-113915760D02*
X136881320Y-113915760D01*
X137181320Y-117605760D02*
X137501320Y-117605760D01*
X137181320Y-114515760D02*
X137481320Y-113915760D01*
X136881320Y-113915760D02*
X137181320Y-114515760D01*
X136861320Y-117605760D02*
X137181320Y-117605760D01*
X136481320Y-116595760D02*
X136301320Y-116595760D01*
X135001320Y-116595760D02*
X134841320Y-116595760D01*
X134681320Y-117605760D02*
X135001320Y-117605760D01*
X134361320Y-117605760D02*
X134681320Y-117605760D01*
X133521320Y-116575760D02*
X133361320Y-116575760D01*
X132181320Y-117605760D02*
X132501320Y-117605760D01*
X132031320Y-116555760D02*
X131871320Y-116555760D01*
X131861320Y-117605760D02*
X132181320Y-117605760D01*
X130281320Y-114475760D02*
X130281320Y-116675760D01*
X130271320Y-120705760D02*
X130281320Y-116635760D01*
X129681320Y-117605760D02*
X130001320Y-117605760D01*
X129631320Y-114435760D02*
X130281320Y-114435760D01*
X129621320Y-120705760D02*
X129611320Y-114435760D01*
X143642120Y-120351240D02*
X142312120Y-120351240D01*
X143642120Y-119021240D02*
X143642120Y-120351240D01*
X143642120Y-117751240D02*
X143642120Y-110071240D01*
X143642120Y-117751240D02*
X140982120Y-117751240D01*
X143642120Y-110071240D02*
X140982120Y-110071240D01*
X140982120Y-117751240D02*
X140982120Y-110071240D01*
X149352040Y-120351240D02*
X148022040Y-120351240D01*
X149352040Y-119021240D02*
X149352040Y-120351240D01*
X149352040Y-117751240D02*
X149352040Y-110071240D01*
X149352040Y-117751240D02*
X146692040Y-117751240D01*
X149352040Y-110071240D02*
X146692040Y-110071240D01*
X146692040Y-117751240D02*
X146692040Y-110071240D01*
X118439180Y-102421400D02*
X117699180Y-102421400D01*
X117699180Y-102421400D02*
X117699180Y-102921400D01*
X127860180Y-102661400D02*
X117939180Y-102661400D01*
X127860180Y-102661400D02*
X127860180Y-112941400D01*
X124900180Y-102661400D02*
X124900180Y-112941400D01*
X119999180Y-102661400D02*
X119999180Y-112941400D01*
X118499180Y-102661400D02*
X118499180Y-112941400D01*
X117939180Y-102661400D02*
X117939180Y-112941400D01*
X121576180Y-109114400D02*
X121530180Y-109067400D01*
X121360180Y-109307400D02*
X121325180Y-109272400D01*
X123874180Y-111411400D02*
X123838180Y-111376400D01*
X123668180Y-111616400D02*
X123622180Y-111569400D01*
X127860180Y-112941400D02*
X117939180Y-112941400D01*
X123283179Y-103726401D02*
G75*
G03*
X121916138Y-103725974I-684000J-1534992D01*
G01*
X124134179Y-105945399D02*
G75*
G03*
X124134606Y-104578358I-1534992J684000D01*
G01*
X121064181Y-104577400D02*
G75*
G03*
X120918928Y-105290205I1535000J-683999D01*
G01*
X120919181Y-105261400D02*
G75*
G03*
X121064425Y-105944718I1679999J0D01*
G01*
X121915180Y-106796400D02*
G75*
G03*
X123282222Y-106796826I684000J1535000D01*
G01*
X124279180Y-110341400D02*
G75*
G03*
X120919180Y-110341400I-1680000J0D01*
G01*
X120919180Y-110341400D02*
G75*
G03*
X124279180Y-110341400I1680000J0D01*
G01*
X152456880Y-117988860D02*
X152456880Y-117218860D01*
X151086880Y-117218860D02*
X153826880Y-117218860D01*
X153826880Y-117218860D02*
X153826880Y-110678860D01*
X151086880Y-110678860D02*
X151086880Y-117218860D01*
X153826880Y-110678860D02*
X151086880Y-110678860D01*
X152456880Y-109908860D02*
X152456880Y-110678860D01*
X155784280Y-117988860D02*
X155784280Y-117218860D01*
X154414280Y-117218860D02*
X157154280Y-117218860D01*
X157154280Y-117218860D02*
X157154280Y-110678860D01*
X154414280Y-110678860D02*
X154414280Y-117218860D01*
X157154280Y-110678860D02*
X154414280Y-110678860D01*
X155784280Y-109908860D02*
X155784280Y-110678860D01*
D19*
X169111500Y-109232560D03*
X168091500Y-111772560D03*
X167071500Y-109232560D03*
X166051500Y-111772560D03*
X165031500Y-109232560D03*
X164011500Y-111772560D03*
D20*
X160561500Y-114072560D03*
X172561500Y-114072560D03*
M02*
