G04 #@! TF.GenerationSoftware,KiCad,Pcbnew,7.0.10*
G04 #@! TF.CreationDate,2024-01-16T16:56:01+01:00*
G04 #@! TF.ProjectId,DNMS-RPI-HAT-V1.0,444e4d53-2d52-4504-992d-4841542d5631,1.0*
G04 #@! TF.SameCoordinates,Original*
G04 #@! TF.FileFunction,Copper,L1,Top*
G04 #@! TF.FilePolarity,Positive*
%FSLAX46Y46*%
G04 Gerber Fmt 4.6, Leading zero omitted, Abs format (unit mm)*
G04 Created by KiCad (PCBNEW 7.0.10) date 2024-01-16 16:56:01*
%MOMM*%
%LPD*%
G01*
G04 APERTURE LIST*
G04 Aperture macros list*
%AMRoundRect*
0 Rectangle with rounded corners*
0 $1 Rounding radius*
0 $2 $3 $4 $5 $6 $7 $8 $9 X,Y pos of 4 corners*
0 Add a 4 corners polygon primitive as box body*
4,1,4,$2,$3,$4,$5,$6,$7,$8,$9,$2,$3,0*
0 Add four circle primitives for the rounded corners*
1,1,$1+$1,$2,$3*
1,1,$1+$1,$4,$5*
1,1,$1+$1,$6,$7*
1,1,$1+$1,$8,$9*
0 Add four rect primitives between the rounded corners*
20,1,$1+$1,$2,$3,$4,$5,0*
20,1,$1+$1,$4,$5,$6,$7,0*
20,1,$1+$1,$6,$7,$8,$9,0*
20,1,$1+$1,$8,$9,$2,$3,0*%
G04 Aperture macros list end*
G04 #@! TA.AperFunction,ComponentPad*
%ADD10R,1.676400X1.676400*%
G04 #@! TD*
G04 #@! TA.AperFunction,ComponentPad*
%ADD11C,1.676400*%
G04 #@! TD*
G04 #@! TA.AperFunction,ComponentPad*
%ADD12C,1.303000*%
G04 #@! TD*
G04 #@! TA.AperFunction,ComponentPad*
%ADD13C,1.600000*%
G04 #@! TD*
G04 #@! TA.AperFunction,ComponentPad*
%ADD14C,1.400000*%
G04 #@! TD*
G04 #@! TA.AperFunction,ComponentPad*
%ADD15C,1.200000*%
G04 #@! TD*
G04 #@! TA.AperFunction,ComponentPad*
%ADD16RoundRect,0.161700X0.388300X0.688300X-0.388300X0.688300X-0.388300X-0.688300X0.388300X-0.688300X0*%
G04 #@! TD*
G04 #@! TA.AperFunction,ComponentPad*
%ADD17O,1.100000X1.700000*%
G04 #@! TD*
G04 #@! TA.AperFunction,ComponentPad*
%ADD18R,1.700000X1.700000*%
G04 #@! TD*
G04 #@! TA.AperFunction,ComponentPad*
%ADD19O,1.700000X1.700000*%
G04 #@! TD*
G04 #@! TA.AperFunction,SMDPad,CuDef*
%ADD20R,2.200000X0.600000*%
G04 #@! TD*
G04 #@! TA.AperFunction,ComponentPad*
%ADD21R,2.600000X2.200000*%
G04 #@! TD*
G04 #@! TA.AperFunction,ComponentPad*
%ADD22C,1.900000*%
G04 #@! TD*
G04 #@! TA.AperFunction,ComponentPad*
%ADD23C,2.600000*%
G04 #@! TD*
G04 #@! TA.AperFunction,SMDPad,CuDef*
%ADD24R,0.500000X1.000000*%
G04 #@! TD*
G04 #@! TA.AperFunction,ComponentPad*
%ADD25O,1.600000X1.600000*%
G04 #@! TD*
G04 #@! TA.AperFunction,ViaPad*
%ADD26C,0.800000*%
G04 #@! TD*
G04 #@! TA.AperFunction,Conductor*
%ADD27C,0.500000*%
G04 #@! TD*
G04 #@! TA.AperFunction,Conductor*
%ADD28C,0.250000*%
G04 #@! TD*
G04 APERTURE END LIST*
D10*
X141532340Y-106848900D03*
D11*
X144072340Y-106848900D03*
X146612340Y-106848900D03*
X149152340Y-106848900D03*
X149152340Y-99228900D03*
X146612340Y-99228900D03*
X144072340Y-99228900D03*
X141532340Y-99228900D03*
D12*
X163866560Y-100653840D03*
X165136560Y-103193840D03*
X166406560Y-100653840D03*
X167676560Y-103193840D03*
X168946560Y-100653840D03*
X170216560Y-103193840D03*
D13*
X137460720Y-100488740D03*
X136210720Y-100488740D03*
X131210720Y-100488740D03*
X129960720Y-100488740D03*
X119045720Y-100488740D03*
X120295720Y-100488740D03*
X125295720Y-100488740D03*
X126545720Y-100488740D03*
D14*
X169111500Y-109232560D03*
X168091500Y-111772560D03*
X167071500Y-109232560D03*
X166051500Y-111772560D03*
X165031500Y-109232560D03*
X164011500Y-111772560D03*
D15*
X160561500Y-114072560D03*
X172561500Y-114072560D03*
D16*
X137181320Y-116015760D03*
D17*
X135681320Y-116015760D03*
X134181320Y-116015760D03*
X132681320Y-116015760D03*
X131181320Y-116015760D03*
D18*
X142312120Y-119021240D03*
D19*
X142312120Y-116481240D03*
X142312120Y-113941240D03*
X142312120Y-111401240D03*
D18*
X148022040Y-119021240D03*
D19*
X148022040Y-116481240D03*
X148022040Y-113941240D03*
X148022040Y-111401240D03*
D20*
X147830580Y-104804200D03*
X147830580Y-103534200D03*
X147830580Y-102264200D03*
X147830580Y-100994200D03*
X142630580Y-100994200D03*
X142630580Y-102264200D03*
X142630580Y-103534200D03*
X142630580Y-104804200D03*
D21*
X122599180Y-105261400D03*
D22*
X122599180Y-107801400D03*
D23*
X122599180Y-110341400D03*
D24*
X122599180Y-109021400D03*
D13*
X152456880Y-119028860D03*
D25*
X152456880Y-108868860D03*
D13*
X155784280Y-119028860D03*
D25*
X155784280Y-108868860D03*
D18*
X125924200Y-95838000D03*
D19*
X125924200Y-93298000D03*
X128464200Y-95838000D03*
X128464200Y-93298000D03*
X131004200Y-95838000D03*
X131004200Y-93298000D03*
X133544200Y-95838000D03*
X133544200Y-93298000D03*
X136084200Y-95838000D03*
X136084200Y-93298000D03*
X138624200Y-95838000D03*
X138624200Y-93298000D03*
X141164200Y-95838000D03*
X141164200Y-93298000D03*
X143704200Y-95838000D03*
X143704200Y-93298000D03*
X146244200Y-95838000D03*
X146244200Y-93298000D03*
X148784200Y-95838000D03*
X148784200Y-93298000D03*
X151324200Y-95838000D03*
X151324200Y-93298000D03*
X153864200Y-95838000D03*
X153864200Y-93298000D03*
X156404200Y-95838000D03*
X156404200Y-93298000D03*
X158944200Y-95838000D03*
X158944200Y-93298000D03*
X161484200Y-95838000D03*
X161484200Y-93298000D03*
X164024200Y-95838000D03*
X164024200Y-93298000D03*
X166564200Y-95838000D03*
X166564200Y-93298000D03*
X169104200Y-95838000D03*
X169104200Y-93298000D03*
X171644200Y-95838000D03*
X171644200Y-93298000D03*
X174184200Y-95838000D03*
X174184200Y-93298000D03*
D26*
X137460720Y-104755940D03*
X151346900Y-101019600D03*
X145212800Y-102965240D03*
X132987780Y-102619800D03*
X132954760Y-111469820D03*
X139253960Y-103508800D03*
D27*
X141030580Y-104804200D02*
X137534380Y-104804200D01*
X135370300Y-98418640D02*
X136210720Y-99259060D01*
X136210720Y-99259060D02*
X136210720Y-100488740D01*
X138748500Y-99228900D02*
X141532340Y-99228900D01*
X137460720Y-100488740D02*
X138260719Y-99688741D01*
X125924200Y-97188000D02*
X127154840Y-98418640D01*
X138288659Y-99688741D02*
X138748500Y-99228900D01*
X125924200Y-95838000D02*
X125924200Y-97188000D01*
X155776660Y-119021240D02*
X155784280Y-119028860D01*
X142630580Y-104804200D02*
X141030580Y-104804200D01*
X138260719Y-99688741D02*
X138288659Y-99688741D01*
X127154840Y-98418640D02*
X135370300Y-98418640D01*
X142312120Y-119021240D02*
X155776660Y-119021240D01*
X123299181Y-108161399D02*
X122939182Y-107801400D01*
X124382001Y-92347649D02*
X124382001Y-93267261D01*
X125136640Y-91593010D02*
X124382001Y-92347649D01*
X122599180Y-110341400D02*
X122839182Y-110341400D01*
X168946560Y-100689400D02*
X168946560Y-100653840D01*
X143514201Y-116481240D02*
X148022040Y-116481240D01*
X125136640Y-91593010D02*
X129299210Y-91593010D01*
X122599180Y-110341400D02*
X128273540Y-116015760D01*
X138649440Y-118624340D02*
X140792540Y-116481240D01*
X169276760Y-104238166D02*
X169276760Y-104987300D01*
X125295720Y-107253700D02*
X125295720Y-100488740D01*
X170216560Y-103193840D02*
X170216560Y-103298366D01*
X124405120Y-99598140D02*
X125295720Y-100488740D01*
X124748020Y-107801400D02*
X125295720Y-107253700D01*
X170216560Y-103298366D02*
X169276760Y-104238166D01*
X126545720Y-100488740D02*
X131210720Y-100488740D01*
X140792540Y-116481240D02*
X142312120Y-116481240D01*
X165031500Y-109232560D02*
X165031500Y-109253360D01*
X122599180Y-107801400D02*
X124748020Y-107801400D01*
X124405120Y-92893078D02*
X124384800Y-93270060D01*
X129299210Y-91593010D02*
X131004200Y-93298000D01*
X124382001Y-93267261D02*
X124384800Y-93270060D01*
X132769340Y-118624340D02*
X138649440Y-118624340D01*
X124405120Y-98979980D02*
X124405120Y-99598140D01*
X122839182Y-110341400D02*
X123299181Y-109881401D01*
X151321500Y-100994200D02*
X151346900Y-101019600D01*
X142312120Y-116481240D02*
X143514201Y-116481240D01*
X169276760Y-104987300D02*
X165031500Y-109232560D01*
X122939182Y-107801400D02*
X122599180Y-107801400D01*
X124384800Y-93270060D02*
X124405120Y-98979980D01*
X132681320Y-116015760D02*
X132681320Y-118536320D01*
X147830580Y-100994200D02*
X151321500Y-100994200D01*
X125295720Y-100488740D02*
X126545720Y-100488740D01*
X128273540Y-116015760D02*
X132681320Y-116015760D01*
X123299181Y-109881401D02*
X123299181Y-108161399D01*
X132681320Y-118536320D02*
X132769340Y-118624340D01*
D28*
X145212800Y-102399555D02*
X145348155Y-102264200D01*
X145348155Y-102264200D02*
X146480580Y-102264200D01*
X145212800Y-102965240D02*
X145212800Y-102399555D01*
X142312120Y-113941240D02*
X143514201Y-113941240D01*
X143514201Y-113941240D02*
X148022040Y-113941240D01*
X146480580Y-102264200D02*
X147830580Y-102264200D01*
X132954760Y-111669820D02*
X132954760Y-111669820D01*
X142630580Y-102264200D02*
X143980580Y-102264200D01*
X132954760Y-111469820D02*
X135723360Y-111469820D01*
X146612340Y-99632440D02*
X146612340Y-99228900D01*
X137831560Y-102264200D02*
X137460720Y-102635040D01*
X135723360Y-111469820D02*
X142243540Y-111469820D01*
X142017480Y-111306600D02*
X142312120Y-111601240D01*
X137460720Y-102635040D02*
X133005560Y-102635040D01*
X142630580Y-102264200D02*
X137831560Y-102264200D01*
X135681320Y-111711860D02*
X135723360Y-111669820D01*
X142243540Y-111669820D02*
X142312120Y-111601240D01*
X143514201Y-111401240D02*
X148022040Y-111401240D01*
X142312120Y-111401240D02*
X143514201Y-111401240D01*
X135681320Y-111511860D02*
X135723360Y-111469820D01*
X135681320Y-116015760D02*
X135681320Y-111711860D01*
X143980580Y-102264200D02*
X146612340Y-99632440D01*
X135681320Y-111711860D02*
X135681320Y-111511860D01*
X139253960Y-103508800D02*
X135967200Y-103508800D01*
X142630580Y-103534200D02*
X141280580Y-103534200D01*
X156587479Y-109668859D02*
X158984680Y-112066060D01*
X155784280Y-108868860D02*
X156584279Y-108068861D01*
X166051500Y-113150100D02*
X166051500Y-111772560D01*
X159050720Y-105568740D02*
X167133000Y-105568740D01*
X156584279Y-109668859D02*
X156587479Y-109668859D01*
X135967200Y-103508800D02*
X135987520Y-103529120D01*
X167133000Y-105568740D02*
X167676560Y-105025180D01*
X155784280Y-108868860D02*
X155784280Y-110387120D01*
X165352460Y-113849140D02*
X166051500Y-113150100D01*
X155784280Y-108868860D02*
X156584279Y-109668859D01*
X163305220Y-113849140D02*
X165352460Y-113849140D01*
X136373600Y-109051080D02*
X135987520Y-108665000D01*
X149386020Y-109051080D02*
X136373600Y-109051080D01*
X154989260Y-111182140D02*
X151517080Y-111182140D01*
X135987520Y-103529120D02*
X135987520Y-108665000D01*
X161522140Y-112066060D02*
X163305220Y-113849140D01*
X151517080Y-111182140D02*
X149386020Y-109051080D01*
X141255180Y-103508800D02*
X139253960Y-103508800D01*
X156584279Y-108068861D02*
X156584279Y-108035181D01*
X141280580Y-103534200D02*
X141255180Y-103508800D01*
X167676560Y-105025180D02*
X167676560Y-103193840D01*
X156584279Y-108035181D02*
X159050720Y-105568740D01*
X155784280Y-110387120D02*
X154989260Y-111182140D01*
X158984680Y-112066060D02*
X161522140Y-112066060D01*
X147830580Y-103534200D02*
X151120840Y-103534200D01*
X144913079Y-106010701D02*
X145730960Y-105192820D01*
X145730960Y-105192820D02*
X145730960Y-104283820D01*
X146480580Y-103534200D02*
X147830580Y-103534200D01*
X144072340Y-106848900D02*
X144910539Y-106010701D01*
X145730960Y-104283820D02*
X146480580Y-103534200D01*
X151120840Y-103534200D02*
X152456880Y-104870240D01*
X144910539Y-106010701D02*
X144913079Y-106010701D01*
X152456880Y-104870240D02*
X152456880Y-108868860D01*
G04 #@! TA.AperFunction,Conductor*
G36*
X146813123Y-114594742D02*
G01*
X146850485Y-114631825D01*
X146946315Y-114778505D01*
X146946319Y-114778510D01*
X147098802Y-114944148D01*
X147121670Y-114961947D01*
X147276464Y-115082429D01*
X147310245Y-115100710D01*
X147360636Y-115150722D01*
X147375989Y-115220039D01*
X147351429Y-115286652D01*
X147310249Y-115322336D01*
X147276744Y-115340468D01*
X147276738Y-115340472D01*
X147099137Y-115478705D01*
X146946714Y-115644281D01*
X146823620Y-115832691D01*
X146733219Y-116038783D01*
X146733216Y-116038790D01*
X146685495Y-116227239D01*
X146685496Y-116227240D01*
X147590924Y-116227240D01*
X147562547Y-116271396D01*
X147522040Y-116409351D01*
X147522040Y-116553129D01*
X147562547Y-116691084D01*
X147590924Y-116735240D01*
X146685495Y-116735240D01*
X146733216Y-116923689D01*
X146733219Y-116923696D01*
X146823620Y-117129788D01*
X146946714Y-117318198D01*
X147090021Y-117473872D01*
X147121441Y-117537537D01*
X147113454Y-117608083D01*
X147068595Y-117663112D01*
X147041353Y-117677264D01*
X146925835Y-117720351D01*
X146925832Y-117720352D01*
X146808778Y-117807978D01*
X146721152Y-117925032D01*
X146721150Y-117925037D01*
X146670051Y-118062035D01*
X146670049Y-118062043D01*
X146663540Y-118122590D01*
X146663540Y-118136740D01*
X146643538Y-118204861D01*
X146589882Y-118251354D01*
X146537540Y-118262740D01*
X143796620Y-118262740D01*
X143728499Y-118242738D01*
X143682006Y-118189082D01*
X143670620Y-118136740D01*
X143670620Y-118122607D01*
X143670619Y-118122590D01*
X143664110Y-118062043D01*
X143664108Y-118062035D01*
X143613009Y-117925037D01*
X143613007Y-117925032D01*
X143525381Y-117807978D01*
X143408327Y-117720352D01*
X143408324Y-117720351D01*
X143292806Y-117677264D01*
X143235971Y-117634717D01*
X143211161Y-117568197D01*
X143226253Y-117498823D01*
X143244139Y-117473872D01*
X143387443Y-117318201D01*
X143510539Y-117129788D01*
X143600940Y-116923696D01*
X143600943Y-116923689D01*
X143648664Y-116735240D01*
X142743236Y-116735240D01*
X142771613Y-116691084D01*
X142812120Y-116553129D01*
X142812120Y-116409351D01*
X142771613Y-116271396D01*
X142743236Y-116227240D01*
X143648664Y-116227240D01*
X143648664Y-116227239D01*
X143600943Y-116038790D01*
X143600940Y-116038783D01*
X143510539Y-115832691D01*
X143387445Y-115644281D01*
X143235022Y-115478705D01*
X143057421Y-115340472D01*
X143057420Y-115340471D01*
X143023911Y-115322337D01*
X142973521Y-115272323D01*
X142958170Y-115203006D01*
X142982732Y-115136393D01*
X143023910Y-115100712D01*
X143057696Y-115082429D01*
X143235360Y-114944146D01*
X143387842Y-114778508D01*
X143434309Y-114707385D01*
X143483675Y-114631825D01*
X143537678Y-114585736D01*
X143589158Y-114574740D01*
X146745002Y-114574740D01*
X146813123Y-114594742D01*
G37*
G04 #@! TD.AperFunction*
G04 #@! TA.AperFunction,Conductor*
G36*
X165048331Y-112450180D02*
G01*
X165062449Y-112467005D01*
X165122199Y-112552336D01*
X165122202Y-112552340D01*
X165271718Y-112701856D01*
X165271721Y-112701858D01*
X165271724Y-112701861D01*
X165344055Y-112752507D01*
X165388383Y-112807963D01*
X165395692Y-112878582D01*
X165363662Y-112941943D01*
X165360880Y-112944815D01*
X165126958Y-113178736D01*
X165064648Y-113212760D01*
X165037865Y-113215640D01*
X164250269Y-113215640D01*
X164182148Y-113195638D01*
X164135655Y-113141982D01*
X164125551Y-113071708D01*
X164155045Y-113007128D01*
X164214771Y-112968744D01*
X164217658Y-112967933D01*
X164426235Y-112912044D01*
X164426245Y-112912040D01*
X164617802Y-112822717D01*
X164617805Y-112822715D01*
X164667586Y-112787858D01*
X164667586Y-112787856D01*
X164094815Y-112215085D01*
X164145638Y-112207425D01*
X164267857Y-112148567D01*
X164367298Y-112056300D01*
X164435125Y-111938820D01*
X164454050Y-111855899D01*
X165048331Y-112450180D01*
G37*
G04 #@! TD.AperFunction*
G04 #@! TA.AperFunction,Conductor*
G36*
X148620854Y-107037790D02*
G01*
X148691525Y-107174179D01*
X148796372Y-107286443D01*
X148927620Y-107366257D01*
X148979622Y-107380827D01*
X148397022Y-107963426D01*
X148397022Y-107963427D01*
X148476670Y-108019197D01*
X148476669Y-108019197D01*
X148690150Y-108118744D01*
X148690155Y-108118746D01*
X148880965Y-108169873D01*
X148941588Y-108206825D01*
X148972609Y-108270685D01*
X148964181Y-108341180D01*
X148918978Y-108395927D01*
X148851353Y-108417544D01*
X148848354Y-108417580D01*
X146918260Y-108417580D01*
X146850139Y-108397578D01*
X146803646Y-108343922D01*
X146793542Y-108273648D01*
X146823036Y-108209068D01*
X146882762Y-108170684D01*
X146885649Y-108169873D01*
X146950654Y-108152455D01*
X147074698Y-108119218D01*
X147288262Y-108019631D01*
X147310790Y-108003857D01*
X147481284Y-107884477D01*
X147481286Y-107884474D01*
X147481289Y-107884473D01*
X147647913Y-107717849D01*
X147779433Y-107530017D01*
X147834887Y-107485691D01*
X147905506Y-107478382D01*
X147968867Y-107510412D01*
X147985857Y-107530019D01*
X148037811Y-107604216D01*
X148037812Y-107604216D01*
X148617995Y-107024032D01*
X148620854Y-107037790D01*
G37*
G04 #@! TD.AperFunction*
G04 #@! TA.AperFunction,Conductor*
G36*
X148338283Y-105632702D02*
G01*
X148384776Y-105686358D01*
X148392218Y-105729567D01*
X148978026Y-106315376D01*
X148859267Y-106366961D01*
X148740109Y-106463903D01*
X148651525Y-106589398D01*
X148620611Y-106676381D01*
X148037811Y-106093582D01*
X147985857Y-106167780D01*
X147930400Y-106212108D01*
X147859780Y-106219417D01*
X147796420Y-106187386D01*
X147779431Y-106167780D01*
X147647913Y-105979951D01*
X147647910Y-105979948D01*
X147647908Y-105979945D01*
X147495758Y-105827795D01*
X147461732Y-105765483D01*
X147466797Y-105694668D01*
X147509344Y-105637832D01*
X147575864Y-105613021D01*
X147584853Y-105612700D01*
X148270162Y-105612700D01*
X148338283Y-105632702D01*
G37*
G04 #@! TD.AperFunction*
G04 #@! TA.AperFunction,Conductor*
G36*
X179535525Y-91143697D02*
G01*
X179852377Y-91161492D01*
X179866415Y-91163074D01*
X180175790Y-91215638D01*
X180189552Y-91218779D01*
X180491105Y-91305655D01*
X180504436Y-91310320D01*
X180794366Y-91430413D01*
X180807076Y-91436534D01*
X181081733Y-91588331D01*
X181093692Y-91595845D01*
X181349626Y-91777440D01*
X181360673Y-91786250D01*
X181594657Y-91995351D01*
X181604648Y-92005342D01*
X181813749Y-92239326D01*
X181822559Y-92250373D01*
X182004154Y-92506307D01*
X182011671Y-92518271D01*
X182086002Y-92652764D01*
X182163458Y-92792909D01*
X182169589Y-92805640D01*
X182289678Y-93095560D01*
X182294345Y-93108897D01*
X182381218Y-93410439D01*
X182384362Y-93424215D01*
X182436925Y-93733585D01*
X182438507Y-93747625D01*
X182456302Y-94064474D01*
X182456500Y-94071539D01*
X182456500Y-118064460D01*
X182456302Y-118071525D01*
X182438507Y-118388374D01*
X182436925Y-118402414D01*
X182384362Y-118711784D01*
X182381218Y-118725560D01*
X182294345Y-119027102D01*
X182289678Y-119040439D01*
X182169589Y-119330359D01*
X182163458Y-119343090D01*
X182011671Y-119617728D01*
X182004154Y-119629692D01*
X181822559Y-119885626D01*
X181813749Y-119896673D01*
X181604648Y-120130657D01*
X181594657Y-120140648D01*
X181360673Y-120349749D01*
X181349626Y-120358559D01*
X181093692Y-120540154D01*
X181081728Y-120547671D01*
X180807090Y-120699458D01*
X180794359Y-120705589D01*
X180504439Y-120825678D01*
X180491102Y-120830345D01*
X180189560Y-120917218D01*
X180175784Y-120920362D01*
X179866414Y-120972925D01*
X179852374Y-120974507D01*
X179535526Y-120992302D01*
X179528461Y-120992500D01*
X120535539Y-120992500D01*
X120528474Y-120992302D01*
X120211625Y-120974507D01*
X120197585Y-120972925D01*
X119888215Y-120920362D01*
X119874439Y-120917218D01*
X119572897Y-120830345D01*
X119559560Y-120825678D01*
X119269640Y-120705589D01*
X119256916Y-120699461D01*
X119008351Y-120562085D01*
X118982271Y-120547671D01*
X118970307Y-120540154D01*
X118714373Y-120358559D01*
X118703326Y-120349749D01*
X118469342Y-120140648D01*
X118459351Y-120130657D01*
X118250250Y-119896673D01*
X118241440Y-119885626D01*
X118059845Y-119629692D01*
X118052328Y-119617728D01*
X118043477Y-119601713D01*
X117900534Y-119343076D01*
X117894413Y-119330366D01*
X117774320Y-119040436D01*
X117769654Y-119027102D01*
X117766823Y-119017274D01*
X117682779Y-118725552D01*
X117679637Y-118711784D01*
X117676738Y-118694723D01*
X117627074Y-118402414D01*
X117625492Y-118388374D01*
X117618436Y-118262740D01*
X117607698Y-118071525D01*
X117607500Y-118064460D01*
X117607500Y-117656689D01*
X117927701Y-117656689D01*
X117958045Y-118009970D01*
X118028459Y-118357481D01*
X118028461Y-118357485D01*
X118138034Y-118694720D01*
X118285340Y-119017274D01*
X118468440Y-119320911D01*
X118468442Y-119320914D01*
X118468443Y-119320915D01*
X118684971Y-119601713D01*
X118932095Y-119855997D01*
X119206595Y-120080455D01*
X119504891Y-120272159D01*
X119823096Y-120428609D01*
X119823104Y-120428612D01*
X119823109Y-120428614D01*
X120157050Y-120547764D01*
X120157051Y-120547764D01*
X120157061Y-120547768D01*
X120502432Y-120628080D01*
X120854707Y-120668500D01*
X120854710Y-120668500D01*
X121120564Y-120668500D01*
X121120576Y-120668500D01*
X121386008Y-120653322D01*
X121735400Y-120592857D01*
X122075623Y-120492959D01*
X122402241Y-120354929D01*
X122710995Y-120180568D01*
X122997861Y-119972147D01*
X123259099Y-119732385D01*
X123491304Y-119464407D01*
X123691448Y-119171706D01*
X123856921Y-118858098D01*
X123985568Y-118527672D01*
X124075710Y-118184736D01*
X124096021Y-118043469D01*
X124126172Y-117833769D01*
X124126172Y-117833765D01*
X124126173Y-117833759D01*
X124136299Y-117479317D01*
X124105955Y-117126032D01*
X124073512Y-116965920D01*
X124035540Y-116778518D01*
X124035538Y-116778514D01*
X124035537Y-116778508D01*
X123925964Y-116441277D01*
X123847635Y-116269760D01*
X130123320Y-116269760D01*
X130123320Y-116367739D01*
X130138627Y-116523157D01*
X130199126Y-116722598D01*
X130297367Y-116906394D01*
X130429581Y-117067498D01*
X130590685Y-117199712D01*
X130774481Y-117297953D01*
X130927320Y-117344315D01*
X130927320Y-116269760D01*
X130123320Y-116269760D01*
X123847635Y-116269760D01*
X123778664Y-116118734D01*
X123769096Y-116102868D01*
X123734238Y-116045062D01*
X130827692Y-116045062D01*
X130856367Y-116158298D01*
X130920256Y-116256087D01*
X131012435Y-116327832D01*
X131122915Y-116365760D01*
X131210325Y-116365760D01*
X131296536Y-116351374D01*
X131399267Y-116295779D01*
X131423219Y-116269760D01*
X131435320Y-116269760D01*
X131435320Y-117344315D01*
X131588158Y-117297953D01*
X131771954Y-117199712D01*
X131851387Y-117134524D01*
X131916734Y-117106771D01*
X131986712Y-117118753D01*
X132011253Y-117134524D01*
X132090685Y-117199712D01*
X132274481Y-117297953D01*
X132427320Y-117344315D01*
X132427320Y-116269760D01*
X131435320Y-116269760D01*
X131423219Y-116269760D01*
X131478380Y-116209839D01*
X131525302Y-116102868D01*
X131534948Y-115986458D01*
X131506273Y-115873222D01*
X131442384Y-115775433D01*
X131424817Y-115761760D01*
X131435320Y-115761760D01*
X132427320Y-115761760D01*
X132427320Y-114687203D01*
X132274480Y-114733566D01*
X132090683Y-114831808D01*
X132090681Y-114831810D01*
X132011253Y-114896994D01*
X131945905Y-114924747D01*
X131875927Y-114912765D01*
X131851387Y-114896994D01*
X131771958Y-114831810D01*
X131771956Y-114831808D01*
X131588159Y-114733566D01*
X131435320Y-114687203D01*
X131435320Y-115761760D01*
X131424817Y-115761760D01*
X131350205Y-115703688D01*
X131239725Y-115665760D01*
X131152315Y-115665760D01*
X131066104Y-115680146D01*
X130963373Y-115735741D01*
X130884260Y-115821681D01*
X130837338Y-115928652D01*
X130827692Y-116045062D01*
X123734238Y-116045062D01*
X123595559Y-115815088D01*
X123595557Y-115815085D01*
X123554437Y-115761760D01*
X130123320Y-115761760D01*
X130927320Y-115761760D01*
X130927320Y-114687203D01*
X130774480Y-114733566D01*
X130590685Y-114831807D01*
X130429581Y-114964021D01*
X130297367Y-115125125D01*
X130199126Y-115308921D01*
X130138627Y-115508362D01*
X130123320Y-115663780D01*
X130123320Y-115761760D01*
X123554437Y-115761760D01*
X123379029Y-115534287D01*
X123131905Y-115280003D01*
X122857405Y-115055545D01*
X122714991Y-114964021D01*
X122559109Y-114863841D01*
X122559100Y-114863836D01*
X122240908Y-114707393D01*
X122240890Y-114707385D01*
X121906949Y-114588235D01*
X121906950Y-114588235D01*
X121906942Y-114588233D01*
X121906939Y-114588232D01*
X121641925Y-114526606D01*
X121561569Y-114507920D01*
X121473499Y-114497815D01*
X121209293Y-114467500D01*
X120943424Y-114467500D01*
X120677992Y-114482678D01*
X120328600Y-114543143D01*
X119988382Y-114643039D01*
X119988380Y-114643039D01*
X119825638Y-114711815D01*
X119661759Y-114781071D01*
X119661755Y-114781072D01*
X119661753Y-114781074D01*
X119353010Y-114955428D01*
X119353001Y-114955434D01*
X119066142Y-115163850D01*
X118804902Y-115403613D01*
X118804900Y-115403615D01*
X118572696Y-115671592D01*
X118572692Y-115671597D01*
X118372557Y-115964285D01*
X118372554Y-115964289D01*
X118207076Y-116277908D01*
X118078434Y-116608321D01*
X118078430Y-116608332D01*
X117988291Y-116951255D01*
X117988289Y-116951265D01*
X117937827Y-117302230D01*
X117937827Y-117302234D01*
X117935623Y-117379382D01*
X117929090Y-117608083D01*
X117927701Y-117656689D01*
X117607500Y-117656689D01*
X117607500Y-110341400D01*
X120786110Y-110341400D01*
X120806360Y-110611627D01*
X120866660Y-110875813D01*
X120866661Y-110875816D01*
X120965660Y-111128064D01*
X121101148Y-111362735D01*
X121153272Y-111428096D01*
X121153273Y-111428096D01*
X121995245Y-110586124D01*
X122006368Y-110620356D01*
X122094366Y-110759019D01*
X122214083Y-110871440D01*
X122352340Y-110947448D01*
X121511635Y-111788152D01*
X121511635Y-111788153D01*
X121692649Y-111911567D01*
X121692650Y-111911568D01*
X121936782Y-112029135D01*
X122195727Y-112109011D01*
X122195735Y-112109012D01*
X122463693Y-112149400D01*
X122734667Y-112149400D01*
X123002624Y-112109012D01*
X123002632Y-112109011D01*
X123261577Y-112029135D01*
X123505709Y-111911568D01*
X123505710Y-111911567D01*
X123686724Y-111788153D01*
X123368391Y-111469820D01*
X132041256Y-111469820D01*
X132061217Y-111659747D01*
X132078605Y-111713260D01*
X132120233Y-111841376D01*
X132148601Y-111890511D01*
X132215718Y-112006761D01*
X132215725Y-112006771D01*
X132343504Y-112148684D01*
X132382447Y-112176978D01*
X132498008Y-112260938D01*
X132672472Y-112338614D01*
X132859273Y-112378320D01*
X133050247Y-112378320D01*
X133237048Y-112338614D01*
X133411512Y-112260938D01*
X133566013Y-112148686D01*
X133569323Y-112145010D01*
X133629769Y-112107770D01*
X133662960Y-112103320D01*
X134921820Y-112103320D01*
X134989941Y-112123322D01*
X135036434Y-112176978D01*
X135047820Y-112229320D01*
X135047820Y-114791151D01*
X135027818Y-114859272D01*
X134974162Y-114905765D01*
X134903888Y-114915869D01*
X134841887Y-114888551D01*
X134804483Y-114857855D01*
X134772237Y-114831391D01*
X134588351Y-114733101D01*
X134388822Y-114672575D01*
X134388821Y-114672574D01*
X134388815Y-114672573D01*
X134181323Y-114652138D01*
X134181317Y-114652138D01*
X133973824Y-114672573D01*
X133774288Y-114733101D01*
X133590402Y-114831391D01*
X133510858Y-114896671D01*
X133445510Y-114924424D01*
X133375532Y-114912442D01*
X133350992Y-114896671D01*
X133271954Y-114831807D01*
X133088159Y-114733566D01*
X132935320Y-114687203D01*
X132935320Y-115769934D01*
X132850205Y-115703688D01*
X132739725Y-115665760D01*
X132652315Y-115665760D01*
X132566104Y-115680146D01*
X132463373Y-115735741D01*
X132384260Y-115821681D01*
X132337338Y-115928652D01*
X132327692Y-116045062D01*
X132356367Y-116158298D01*
X132420256Y-116256087D01*
X132512435Y-116327832D01*
X132622915Y-116365760D01*
X132710325Y-116365760D01*
X132796536Y-116351374D01*
X132899267Y-116295779D01*
X132935320Y-116256614D01*
X132935320Y-117344315D01*
X133088158Y-117297953D01*
X133271957Y-117199710D01*
X133350990Y-117134849D01*
X133416337Y-117107094D01*
X133486316Y-117119075D01*
X133510855Y-117134845D01*
X133590403Y-117200129D01*
X133774289Y-117298419D01*
X133973818Y-117358945D01*
X133973822Y-117358945D01*
X133973824Y-117358946D01*
X134181317Y-117379382D01*
X134181320Y-117379382D01*
X134181323Y-117379382D01*
X134388815Y-117358946D01*
X134388816Y-117358945D01*
X134388822Y-117358945D01*
X134588351Y-117298419D01*
X134772237Y-117200129D01*
X134851387Y-117135171D01*
X134916733Y-117107418D01*
X134986711Y-117119399D01*
X135011250Y-117135169D01*
X135090403Y-117200129D01*
X135274289Y-117298419D01*
X135473818Y-117358945D01*
X135473822Y-117358945D01*
X135473824Y-117358946D01*
X135681317Y-117379382D01*
X135681320Y-117379382D01*
X135681323Y-117379382D01*
X135888815Y-117358946D01*
X135888816Y-117358945D01*
X135888822Y-117358945D01*
X136088351Y-117298419D01*
X136235029Y-117220017D01*
X136304531Y-117205546D01*
X136370827Y-117230949D01*
X136372126Y-117231953D01*
X136376658Y-117235503D01*
X136376660Y-117235505D01*
X136515941Y-117319704D01*
X136671326Y-117368123D01*
X136738858Y-117374260D01*
X136738861Y-117374260D01*
X137623779Y-117374260D01*
X137623782Y-117374260D01*
X137691314Y-117368123D01*
X137846699Y-117319704D01*
X137985980Y-117235505D01*
X138101065Y-117120420D01*
X138185264Y-116981139D01*
X138233683Y-116825754D01*
X138239820Y-116758222D01*
X138239820Y-115273298D01*
X138233683Y-115205766D01*
X138185264Y-115050381D01*
X138101065Y-114911100D01*
X138101064Y-114911099D01*
X138101060Y-114911094D01*
X137985985Y-114796019D01*
X137985980Y-114796015D01*
X137948754Y-114773511D01*
X137846699Y-114711816D01*
X137846698Y-114711815D01*
X137846697Y-114711815D01*
X137846692Y-114711813D01*
X137691311Y-114663396D01*
X137642190Y-114658932D01*
X137623782Y-114657260D01*
X136738858Y-114657260D01*
X136721983Y-114658793D01*
X136671328Y-114663396D01*
X136515947Y-114711813D01*
X136515943Y-114711814D01*
X136506001Y-114717825D01*
X136437356Y-114735946D01*
X136369811Y-114714079D01*
X136324811Y-114659165D01*
X136314820Y-114609994D01*
X136314820Y-112229320D01*
X136334822Y-112161199D01*
X136388478Y-112114706D01*
X136440820Y-112103320D01*
X141079887Y-112103320D01*
X141148008Y-112123322D01*
X141185369Y-112160403D01*
X141236398Y-112238508D01*
X141365836Y-112379114D01*
X141388882Y-112404148D01*
X141412850Y-112422803D01*
X141566544Y-112542429D01*
X141599800Y-112560426D01*
X141650191Y-112610440D01*
X141665543Y-112679756D01*
X141640982Y-112746369D01*
X141599800Y-112782053D01*
X141566546Y-112800050D01*
X141566544Y-112800051D01*
X141388882Y-112938331D01*
X141236399Y-113103969D01*
X141236395Y-113103974D01*
X141113261Y-113292446D01*
X141022823Y-113498626D01*
X141022822Y-113498627D01*
X140967557Y-113716864D01*
X140967556Y-113716870D01*
X140967556Y-113716872D01*
X140948964Y-113941240D01*
X140965284Y-114138193D01*
X140967557Y-114165615D01*
X141022822Y-114383852D01*
X141022823Y-114383853D01*
X141022824Y-114383856D01*
X141085443Y-114526613D01*
X141113261Y-114590033D01*
X141236395Y-114778505D01*
X141236399Y-114778510D01*
X141388882Y-114944148D01*
X141411750Y-114961947D01*
X141566544Y-115082429D01*
X141600325Y-115100710D01*
X141650716Y-115150722D01*
X141666069Y-115220039D01*
X141641509Y-115286652D01*
X141600329Y-115322336D01*
X141566824Y-115340468D01*
X141566818Y-115340472D01*
X141389217Y-115478705D01*
X141236794Y-115644281D01*
X141113700Y-115832691D01*
X141023299Y-116038783D01*
X141023296Y-116038790D01*
X140975575Y-116227239D01*
X140975576Y-116227240D01*
X141881004Y-116227240D01*
X141852627Y-116271396D01*
X141812120Y-116409351D01*
X141812120Y-116553129D01*
X141852627Y-116691084D01*
X141881004Y-116735240D01*
X140975575Y-116735240D01*
X141023296Y-116923689D01*
X141023299Y-116923696D01*
X141113700Y-117129788D01*
X141236794Y-117318198D01*
X141380101Y-117473872D01*
X141411521Y-117537537D01*
X141403534Y-117608083D01*
X141358675Y-117663112D01*
X141331433Y-117677264D01*
X141215915Y-117720351D01*
X141215912Y-117720352D01*
X141098858Y-117807978D01*
X141011232Y-117925032D01*
X141011230Y-117925037D01*
X140960131Y-118062035D01*
X140960129Y-118062043D01*
X140953620Y-118122590D01*
X140953620Y-119919889D01*
X140960129Y-119980436D01*
X140960131Y-119980444D01*
X141011230Y-120117442D01*
X141011232Y-120117447D01*
X141098858Y-120234501D01*
X141215912Y-120322127D01*
X141215914Y-120322128D01*
X141215916Y-120322129D01*
X141274995Y-120344164D01*
X141352915Y-120373228D01*
X141352923Y-120373230D01*
X141413470Y-120379739D01*
X141413475Y-120379739D01*
X141413482Y-120379740D01*
X141413488Y-120379740D01*
X143210752Y-120379740D01*
X143210758Y-120379740D01*
X143210765Y-120379739D01*
X143210769Y-120379739D01*
X143271316Y-120373230D01*
X143271319Y-120373229D01*
X143271321Y-120373229D01*
X143408324Y-120322129D01*
X143525381Y-120234501D01*
X143576374Y-120166383D01*
X143613007Y-120117447D01*
X143613007Y-120117446D01*
X143613009Y-120117444D01*
X143664109Y-119980441D01*
X143665001Y-119972149D01*
X143670619Y-119919889D01*
X143670620Y-119919872D01*
X143670620Y-119905740D01*
X143690622Y-119837619D01*
X143744278Y-119791126D01*
X143796620Y-119779740D01*
X146537540Y-119779740D01*
X146605661Y-119799742D01*
X146652154Y-119853398D01*
X146663540Y-119905740D01*
X146663540Y-119919889D01*
X146670049Y-119980436D01*
X146670051Y-119980444D01*
X146721150Y-120117442D01*
X146721152Y-120117447D01*
X146808778Y-120234501D01*
X146925832Y-120322127D01*
X146925834Y-120322128D01*
X146925836Y-120322129D01*
X146984915Y-120344164D01*
X147062835Y-120373228D01*
X147062843Y-120373230D01*
X147123390Y-120379739D01*
X147123395Y-120379739D01*
X147123402Y-120379740D01*
X147123408Y-120379740D01*
X148920672Y-120379740D01*
X148920678Y-120379740D01*
X148920685Y-120379739D01*
X148920689Y-120379739D01*
X148981236Y-120373230D01*
X148981239Y-120373229D01*
X148981241Y-120373229D01*
X149118244Y-120322129D01*
X149235301Y-120234501D01*
X149286294Y-120166383D01*
X149322927Y-120117447D01*
X149322927Y-120117446D01*
X149322929Y-120117444D01*
X149374029Y-119980441D01*
X149374921Y-119972149D01*
X149380539Y-119919889D01*
X149380540Y-119919872D01*
X149380540Y-119905740D01*
X149400542Y-119837619D01*
X149454198Y-119791126D01*
X149506540Y-119779740D01*
X151319677Y-119779740D01*
X151387798Y-119799742D01*
X151422889Y-119833468D01*
X151450682Y-119873160D01*
X151612580Y-120035058D01*
X151800131Y-120166383D01*
X152007637Y-120263144D01*
X152228793Y-120322403D01*
X152456880Y-120342358D01*
X152684967Y-120322403D01*
X152906123Y-120263144D01*
X153113629Y-120166383D01*
X153301180Y-120035058D01*
X153463078Y-119873160D01*
X153490871Y-119833468D01*
X153546329Y-119789140D01*
X153594083Y-119779740D01*
X154647077Y-119779740D01*
X154715198Y-119799742D01*
X154750289Y-119833468D01*
X154778082Y-119873160D01*
X154939980Y-120035058D01*
X155127531Y-120166383D01*
X155335037Y-120263144D01*
X155556193Y-120322403D01*
X155784280Y-120342358D01*
X156012367Y-120322403D01*
X156233523Y-120263144D01*
X156441029Y-120166383D01*
X156628580Y-120035058D01*
X156790478Y-119873160D01*
X156921803Y-119685609D01*
X157018564Y-119478103D01*
X157077823Y-119256947D01*
X157097778Y-119028860D01*
X157077823Y-118800773D01*
X157018564Y-118579617D01*
X156921803Y-118372111D01*
X156790478Y-118184560D01*
X156628580Y-118022662D01*
X156489157Y-117925037D01*
X156441029Y-117891337D01*
X156233526Y-117794577D01*
X156233520Y-117794575D01*
X156140051Y-117769530D01*
X156012367Y-117735317D01*
X155784280Y-117715362D01*
X155556193Y-117735317D01*
X155335039Y-117794575D01*
X155335033Y-117794577D01*
X155127530Y-117891337D01*
X154939983Y-118022659D01*
X154939977Y-118022664D01*
X154778084Y-118184557D01*
X154778079Y-118184563D01*
X154760961Y-118209011D01*
X154705504Y-118253339D01*
X154657748Y-118262740D01*
X153583412Y-118262740D01*
X153515291Y-118242738D01*
X153480199Y-118209011D01*
X153463080Y-118184563D01*
X153463075Y-118184557D01*
X153301182Y-118022664D01*
X153301176Y-118022659D01*
X153113629Y-117891337D01*
X152906126Y-117794577D01*
X152906120Y-117794575D01*
X152812651Y-117769530D01*
X152684967Y-117735317D01*
X152456880Y-117715362D01*
X152228793Y-117735317D01*
X152007639Y-117794575D01*
X152007633Y-117794577D01*
X151800130Y-117891337D01*
X151612583Y-118022659D01*
X151612577Y-118022664D01*
X151450684Y-118184557D01*
X151450679Y-118184563D01*
X151433561Y-118209011D01*
X151378104Y-118253339D01*
X151330348Y-118262740D01*
X149506540Y-118262740D01*
X149438419Y-118242738D01*
X149391926Y-118189082D01*
X149380540Y-118136740D01*
X149380540Y-118122607D01*
X149380539Y-118122590D01*
X149374030Y-118062043D01*
X149374028Y-118062035D01*
X149322929Y-117925037D01*
X149322927Y-117925032D01*
X149235301Y-117807978D01*
X149118247Y-117720352D01*
X149118244Y-117720351D01*
X149002726Y-117677264D01*
X148975242Y-117656689D01*
X175927701Y-117656689D01*
X175958045Y-118009970D01*
X176028459Y-118357481D01*
X176028461Y-118357485D01*
X176138034Y-118694720D01*
X176285340Y-119017274D01*
X176468440Y-119320911D01*
X176468442Y-119320914D01*
X176468443Y-119320915D01*
X176684971Y-119601713D01*
X176932095Y-119855997D01*
X177206595Y-120080455D01*
X177504891Y-120272159D01*
X177823096Y-120428609D01*
X177823104Y-120428612D01*
X177823109Y-120428614D01*
X178157050Y-120547764D01*
X178157051Y-120547764D01*
X178157061Y-120547768D01*
X178502432Y-120628080D01*
X178854707Y-120668500D01*
X178854710Y-120668500D01*
X179120564Y-120668500D01*
X179120576Y-120668500D01*
X179386008Y-120653322D01*
X179735400Y-120592857D01*
X180075623Y-120492959D01*
X180402241Y-120354929D01*
X180710995Y-120180568D01*
X180997861Y-119972147D01*
X181259099Y-119732385D01*
X181491304Y-119464407D01*
X181691448Y-119171706D01*
X181856921Y-118858098D01*
X181985568Y-118527672D01*
X182075710Y-118184736D01*
X182096021Y-118043469D01*
X182126172Y-117833769D01*
X182126172Y-117833765D01*
X182126173Y-117833759D01*
X182136299Y-117479317D01*
X182105955Y-117126032D01*
X182073512Y-116965920D01*
X182035540Y-116778518D01*
X182035538Y-116778514D01*
X182035537Y-116778508D01*
X181925964Y-116441277D01*
X181778664Y-116118734D01*
X181769096Y-116102868D01*
X181595559Y-115815088D01*
X181595557Y-115815085D01*
X181379029Y-115534287D01*
X181131905Y-115280003D01*
X180857405Y-115055545D01*
X180714991Y-114964021D01*
X180559109Y-114863841D01*
X180559100Y-114863836D01*
X180240908Y-114707393D01*
X180240890Y-114707385D01*
X179906949Y-114588235D01*
X179906950Y-114588235D01*
X179906942Y-114588233D01*
X179906939Y-114588232D01*
X179641925Y-114526606D01*
X179561569Y-114507920D01*
X179473499Y-114497815D01*
X179209293Y-114467500D01*
X178943424Y-114467500D01*
X178677992Y-114482678D01*
X178328600Y-114543143D01*
X177988382Y-114643039D01*
X177988380Y-114643039D01*
X177825638Y-114711815D01*
X177661759Y-114781071D01*
X177661755Y-114781072D01*
X177661753Y-114781074D01*
X177353010Y-114955428D01*
X177353001Y-114955434D01*
X177066142Y-115163850D01*
X176804902Y-115403613D01*
X176804900Y-115403615D01*
X176572696Y-115671592D01*
X176572692Y-115671597D01*
X176372557Y-115964285D01*
X176372554Y-115964289D01*
X176207076Y-116277908D01*
X176078434Y-116608321D01*
X176078430Y-116608332D01*
X175988291Y-116951255D01*
X175988289Y-116951265D01*
X175937827Y-117302230D01*
X175937827Y-117302234D01*
X175935623Y-117379382D01*
X175929090Y-117608083D01*
X175927701Y-117656689D01*
X148975242Y-117656689D01*
X148945891Y-117634717D01*
X148921081Y-117568197D01*
X148936173Y-117498823D01*
X148954059Y-117473872D01*
X149097363Y-117318201D01*
X149220459Y-117129788D01*
X149310860Y-116923696D01*
X149310863Y-116923689D01*
X149358584Y-116735240D01*
X148453156Y-116735240D01*
X148481533Y-116691084D01*
X148522040Y-116553129D01*
X148522040Y-116409351D01*
X148481533Y-116271396D01*
X148453156Y-116227240D01*
X149358584Y-116227240D01*
X149358584Y-116227239D01*
X149310863Y-116038790D01*
X149310860Y-116038783D01*
X149220459Y-115832691D01*
X149097365Y-115644281D01*
X148944942Y-115478705D01*
X148767341Y-115340472D01*
X148767340Y-115340471D01*
X148733831Y-115322337D01*
X148683441Y-115272323D01*
X148668090Y-115203006D01*
X148692652Y-115136393D01*
X148733830Y-115100712D01*
X148767616Y-115082429D01*
X148945280Y-114944146D01*
X149097762Y-114778508D01*
X149220900Y-114590031D01*
X149311336Y-114383856D01*
X149366604Y-114165608D01*
X149385196Y-113941240D01*
X149366604Y-113716872D01*
X149311336Y-113498624D01*
X149220900Y-113292449D01*
X149180184Y-113230128D01*
X149097764Y-113103974D01*
X149097760Y-113103969D01*
X148945277Y-112938331D01*
X148816277Y-112837926D01*
X148767616Y-112800051D01*
X148734359Y-112782053D01*
X148683969Y-112732042D01*
X148668616Y-112662725D01*
X148693176Y-112596112D01*
X148734360Y-112560426D01*
X148749235Y-112552376D01*
X148767616Y-112542429D01*
X148945280Y-112404146D01*
X149097762Y-112238508D01*
X149220900Y-112050031D01*
X149311336Y-111843856D01*
X149366604Y-111625608D01*
X149385196Y-111401240D01*
X149366604Y-111176872D01*
X149322511Y-111002753D01*
X149311337Y-110958627D01*
X149311336Y-110958626D01*
X149311336Y-110958624D01*
X149220900Y-110752449D01*
X149164505Y-110666130D01*
X149097764Y-110563974D01*
X149097760Y-110563969D01*
X148971440Y-110426751D01*
X148945280Y-110398334D01*
X148945279Y-110398333D01*
X148945277Y-110398331D01*
X148863422Y-110334621D01*
X148767616Y-110260051D01*
X148569614Y-110152898D01*
X148569612Y-110152897D01*
X148569611Y-110152896D01*
X148356679Y-110079797D01*
X148356670Y-110079795D01*
X148304994Y-110071172D01*
X148134609Y-110042740D01*
X147909471Y-110042740D01*
X147761251Y-110067473D01*
X147687409Y-110079795D01*
X147687400Y-110079797D01*
X147474468Y-110152896D01*
X147474466Y-110152898D01*
X147298999Y-110247856D01*
X147276466Y-110260050D01*
X147276464Y-110260051D01*
X147098802Y-110398331D01*
X146946319Y-110563969D01*
X146946315Y-110563974D01*
X146850485Y-110710655D01*
X146796482Y-110756744D01*
X146745002Y-110767740D01*
X143589158Y-110767740D01*
X143521037Y-110747738D01*
X143483675Y-110710655D01*
X143387844Y-110563974D01*
X143387840Y-110563969D01*
X143261520Y-110426751D01*
X143235360Y-110398334D01*
X143235359Y-110398333D01*
X143235357Y-110398331D01*
X143153502Y-110334621D01*
X143057696Y-110260051D01*
X142859694Y-110152898D01*
X142859692Y-110152897D01*
X142859691Y-110152896D01*
X142646759Y-110079797D01*
X142646750Y-110079795D01*
X142595074Y-110071172D01*
X142424689Y-110042740D01*
X142199551Y-110042740D01*
X142051331Y-110067473D01*
X141977489Y-110079795D01*
X141977480Y-110079797D01*
X141764548Y-110152896D01*
X141764546Y-110152898D01*
X141589079Y-110247856D01*
X141566546Y-110260050D01*
X141566544Y-110260051D01*
X141388882Y-110398331D01*
X141236399Y-110563969D01*
X141236395Y-110563974D01*
X141113261Y-110752446D01*
X141109539Y-110760933D01*
X141063858Y-110815282D01*
X140996045Y-110836306D01*
X140994151Y-110836320D01*
X135807214Y-110836320D01*
X135791372Y-110834570D01*
X135791345Y-110834864D01*
X135783452Y-110834117D01*
X135715362Y-110836258D01*
X135711404Y-110836320D01*
X133662960Y-110836320D01*
X133594839Y-110816318D01*
X133569323Y-110794630D01*
X133566012Y-110790953D01*
X133411512Y-110678702D01*
X133237048Y-110601026D01*
X133050247Y-110561320D01*
X132859273Y-110561320D01*
X132672471Y-110601026D01*
X132498007Y-110678702D01*
X132343504Y-110790955D01*
X132215725Y-110932868D01*
X132215718Y-110932878D01*
X132120236Y-111098258D01*
X132120233Y-111098265D01*
X132061217Y-111279892D01*
X132041256Y-111469820D01*
X123368391Y-111469820D01*
X122842662Y-110944091D01*
X122914809Y-110915526D01*
X123047672Y-110818995D01*
X123152355Y-110692455D01*
X123202621Y-110585632D01*
X124045086Y-111428097D01*
X124045087Y-111428096D01*
X124097205Y-111362743D01*
X124097211Y-111362735D01*
X124232699Y-111128064D01*
X124331698Y-110875816D01*
X124331699Y-110875813D01*
X124391999Y-110611627D01*
X124412249Y-110341400D01*
X124391999Y-110071172D01*
X124331699Y-109806986D01*
X124331698Y-109806983D01*
X124232699Y-109554735D01*
X124097211Y-109320064D01*
X124045086Y-109254702D01*
X124045085Y-109254702D01*
X123565412Y-109734376D01*
X123503100Y-109768402D01*
X123432285Y-109763337D01*
X123375449Y-109720790D01*
X123350638Y-109654270D01*
X123351039Y-109631813D01*
X123357679Y-109570049D01*
X123357680Y-109570032D01*
X123357680Y-109275880D01*
X123377682Y-109207759D01*
X123394585Y-109186785D01*
X123686723Y-108894646D01*
X123681585Y-108839844D01*
X123695140Y-108770153D01*
X123714334Y-108742742D01*
X123753692Y-108699987D01*
X123885847Y-108497709D01*
X123982906Y-108276437D01*
X123982909Y-108276430D01*
X124042221Y-108042213D01*
X124042223Y-108042204D01*
X124062176Y-107801400D01*
X124042223Y-107560595D01*
X124042221Y-107560586D01*
X123982909Y-107326369D01*
X123982906Y-107326362D01*
X123885848Y-107105093D01*
X123858848Y-107063766D01*
X123838335Y-106995797D01*
X123857824Y-106927528D01*
X123911128Y-106880633D01*
X123950862Y-106869572D01*
X123982151Y-106866208D01*
X124008375Y-106863390D01*
X124008378Y-106863389D01*
X124008381Y-106863389D01*
X124145384Y-106812289D01*
X124262441Y-106724661D01*
X124350069Y-106607604D01*
X124401169Y-106470601D01*
X124401890Y-106463903D01*
X124407679Y-106410049D01*
X124407680Y-106410032D01*
X124407680Y-104112767D01*
X124407679Y-104112750D01*
X124401170Y-104052203D01*
X124401168Y-104052195D01*
X124350069Y-103915197D01*
X124350067Y-103915192D01*
X124262441Y-103798138D01*
X124145387Y-103710512D01*
X124145382Y-103710510D01*
X124008384Y-103659411D01*
X124008376Y-103659409D01*
X123947829Y-103652900D01*
X123947818Y-103652900D01*
X121250542Y-103652900D01*
X121250530Y-103652900D01*
X121189983Y-103659409D01*
X121189975Y-103659411D01*
X121052977Y-103710510D01*
X121052972Y-103710512D01*
X120935918Y-103798138D01*
X120848292Y-103915192D01*
X120848290Y-103915197D01*
X120797191Y-104052195D01*
X120797189Y-104052203D01*
X120790680Y-104112750D01*
X120790680Y-106410049D01*
X120797189Y-106470596D01*
X120797191Y-106470604D01*
X120848290Y-106607602D01*
X120848292Y-106607607D01*
X120935918Y-106724661D01*
X121052972Y-106812287D01*
X121052974Y-106812288D01*
X121052976Y-106812289D01*
X121112055Y-106834324D01*
X121189975Y-106863388D01*
X121189978Y-106863388D01*
X121189979Y-106863389D01*
X121189984Y-106863390D01*
X121224150Y-106867062D01*
X121247495Y-106869572D01*
X121313087Y-106896740D01*
X121353579Y-106955057D01*
X121356115Y-107026008D01*
X121339512Y-107063764D01*
X121312512Y-107105091D01*
X121215453Y-107326362D01*
X121215450Y-107326369D01*
X121156138Y-107560586D01*
X121156136Y-107560595D01*
X121136183Y-107801400D01*
X121156136Y-108042204D01*
X121156138Y-108042213D01*
X121215450Y-108276430D01*
X121215453Y-108276437D01*
X121312512Y-108497709D01*
X121444667Y-108699987D01*
X121484025Y-108742742D01*
X121515445Y-108806407D01*
X121516773Y-108839841D01*
X121511634Y-108894644D01*
X121803775Y-109186784D01*
X121837800Y-109249097D01*
X121840680Y-109275880D01*
X121840680Y-109570032D01*
X121840681Y-109570052D01*
X121847320Y-109631814D01*
X121834713Y-109701683D01*
X121786334Y-109753644D01*
X121717542Y-109771201D01*
X121650179Y-109748779D01*
X121632947Y-109734376D01*
X121153273Y-109254702D01*
X121153271Y-109254702D01*
X121101148Y-109320064D01*
X120965660Y-109554735D01*
X120866661Y-109806983D01*
X120866660Y-109806986D01*
X120806360Y-110071172D01*
X120786110Y-110341400D01*
X117607500Y-110341400D01*
X117607500Y-101068991D01*
X117627502Y-101000870D01*
X117681158Y-100954377D01*
X117751432Y-100944273D01*
X117816012Y-100973767D01*
X117847695Y-101015741D01*
X117908197Y-101145489D01*
X118000288Y-101277009D01*
X118039522Y-101333040D01*
X118201420Y-101494938D01*
X118388971Y-101626263D01*
X118596477Y-101723024D01*
X118817633Y-101782283D01*
X119045720Y-101802238D01*
X119273807Y-101782283D01*
X119494963Y-101723024D01*
X119617470Y-101665897D01*
X119687661Y-101655236D01*
X119723968Y-101665897D01*
X119846477Y-101723024D01*
X120067633Y-101782283D01*
X120295720Y-101802238D01*
X120523807Y-101782283D01*
X120744963Y-101723024D01*
X120952469Y-101626263D01*
X121140020Y-101494938D01*
X121301918Y-101333040D01*
X121433243Y-101145489D01*
X121530004Y-100937983D01*
X121589263Y-100716827D01*
X121609218Y-100488740D01*
X123982724Y-100488740D01*
X124002671Y-100716742D01*
X124061906Y-100937808D01*
X124061908Y-100937813D01*
X124158633Y-101145241D01*
X124208619Y-101216628D01*
X124896992Y-100528256D01*
X124910555Y-100613888D01*
X124968079Y-100726785D01*
X125057675Y-100816381D01*
X125170572Y-100873905D01*
X125256200Y-100887466D01*
X124567830Y-101575837D01*
X124567830Y-101575840D01*
X124639218Y-101625826D01*
X124846646Y-101722551D01*
X124846651Y-101722553D01*
X125067719Y-101781788D01*
X125067715Y-101781788D01*
X125295720Y-101801735D01*
X125523722Y-101781788D01*
X125744788Y-101722553D01*
X125744798Y-101722549D01*
X125867469Y-101665347D01*
X125937661Y-101654685D01*
X125973971Y-101665347D01*
X126096641Y-101722549D01*
X126096651Y-101722553D01*
X126317719Y-101781788D01*
X126317715Y-101781788D01*
X126545720Y-101801735D01*
X126773722Y-101781788D01*
X126994788Y-101722553D01*
X126994793Y-101722551D01*
X127202217Y-101625828D01*
X127273608Y-101575839D01*
X127273608Y-101575837D01*
X126585238Y-100887467D01*
X126670868Y-100873905D01*
X126783765Y-100816381D01*
X126873361Y-100726785D01*
X126930885Y-100613888D01*
X126944447Y-100528258D01*
X127632817Y-101216628D01*
X127632819Y-101216628D01*
X127682808Y-101145237D01*
X127779531Y-100937813D01*
X127779533Y-100937808D01*
X127838768Y-100716742D01*
X127858715Y-100488740D01*
X127838768Y-100260737D01*
X127779533Y-100039671D01*
X127779531Y-100039666D01*
X127682806Y-99832238D01*
X127632820Y-99760850D01*
X127632818Y-99760850D01*
X126944447Y-100449221D01*
X126930885Y-100363592D01*
X126873361Y-100250695D01*
X126783765Y-100161099D01*
X126670868Y-100103575D01*
X126585236Y-100090012D01*
X127273608Y-99401639D01*
X127273244Y-99397474D01*
X127236012Y-99350896D01*
X127228703Y-99280277D01*
X127260733Y-99216917D01*
X127321935Y-99180931D01*
X127352611Y-99177140D01*
X129153828Y-99177140D01*
X129221949Y-99197142D01*
X129268442Y-99250798D01*
X129278546Y-99321072D01*
X129249052Y-99385652D01*
X129232958Y-99400166D01*
X129232829Y-99401639D01*
X129921203Y-100090012D01*
X129835572Y-100103575D01*
X129722675Y-100161099D01*
X129633079Y-100250695D01*
X129575555Y-100363592D01*
X129561992Y-100449221D01*
X128873620Y-99760849D01*
X128823633Y-99832240D01*
X128726908Y-100039666D01*
X128726906Y-100039671D01*
X128667671Y-100260737D01*
X128647724Y-100488740D01*
X128667671Y-100716742D01*
X128726906Y-100937808D01*
X128726908Y-100937813D01*
X128823633Y-101145241D01*
X128873619Y-101216628D01*
X129561992Y-100528256D01*
X129575555Y-100613888D01*
X129633079Y-100726785D01*
X129722675Y-100816381D01*
X129835572Y-100873905D01*
X129921200Y-100887466D01*
X129232830Y-101575837D01*
X129232830Y-101575840D01*
X129304218Y-101625826D01*
X129511646Y-101722551D01*
X129511651Y-101722553D01*
X129732719Y-101781788D01*
X129732715Y-101781788D01*
X129960720Y-101801735D01*
X130188722Y-101781788D01*
X130409788Y-101722553D01*
X130409798Y-101722549D01*
X130532469Y-101665347D01*
X130602661Y-101654685D01*
X130638971Y-101665347D01*
X130761641Y-101722549D01*
X130761651Y-101722553D01*
X130982719Y-101781788D01*
X130982715Y-101781788D01*
X131210720Y-101801735D01*
X131438722Y-101781788D01*
X131659788Y-101722553D01*
X131659793Y-101722551D01*
X131867217Y-101625828D01*
X131938608Y-101575839D01*
X131938608Y-101575837D01*
X131250238Y-100887467D01*
X131335868Y-100873905D01*
X131448765Y-100816381D01*
X131538361Y-100726785D01*
X131595885Y-100613888D01*
X131609447Y-100528258D01*
X132297817Y-101216628D01*
X132297819Y-101216628D01*
X132347808Y-101145237D01*
X132444531Y-100937813D01*
X132444533Y-100937808D01*
X132503768Y-100716742D01*
X132523715Y-100488740D01*
X132503768Y-100260737D01*
X132444533Y-100039671D01*
X132444531Y-100039666D01*
X132347806Y-99832238D01*
X132297820Y-99760850D01*
X132297818Y-99760850D01*
X131609447Y-100449221D01*
X131595885Y-100363592D01*
X131538361Y-100250695D01*
X131448765Y-100161099D01*
X131335868Y-100103575D01*
X131250236Y-100090012D01*
X131938608Y-99401639D01*
X131938244Y-99397474D01*
X131901012Y-99350896D01*
X131893703Y-99280277D01*
X131925733Y-99216917D01*
X131986935Y-99180931D01*
X132017611Y-99177140D01*
X135003929Y-99177140D01*
X135072050Y-99197142D01*
X135093024Y-99214045D01*
X135274874Y-99395895D01*
X135308900Y-99458207D01*
X135303835Y-99529022D01*
X135274876Y-99574084D01*
X135204521Y-99644440D01*
X135073197Y-99831990D01*
X134976437Y-100039493D01*
X134976435Y-100039499D01*
X134938651Y-100180510D01*
X134917177Y-100260653D01*
X134897222Y-100488740D01*
X134917177Y-100716827D01*
X134938400Y-100796032D01*
X134976435Y-100937980D01*
X134976437Y-100937986D01*
X135073197Y-101145489D01*
X135165288Y-101277009D01*
X135204522Y-101333040D01*
X135366420Y-101494938D01*
X135553971Y-101626263D01*
X135761477Y-101723024D01*
X135876458Y-101753833D01*
X135937081Y-101790785D01*
X135968102Y-101854645D01*
X135959674Y-101925140D01*
X135914471Y-101979887D01*
X135846845Y-102001504D01*
X135843847Y-102001540D01*
X133709702Y-102001540D01*
X133641581Y-101981538D01*
X133616065Y-101959850D01*
X133599032Y-101940933D01*
X133444532Y-101828682D01*
X133270068Y-101751006D01*
X133083267Y-101711300D01*
X132892293Y-101711300D01*
X132705491Y-101751006D01*
X132531027Y-101828682D01*
X132376524Y-101940935D01*
X132248745Y-102082848D01*
X132248738Y-102082858D01*
X132153256Y-102248238D01*
X132153253Y-102248245D01*
X132094237Y-102429872D01*
X132074276Y-102619800D01*
X132094237Y-102809727D01*
X132107394Y-102850218D01*
X132153253Y-102991356D01*
X132168413Y-103017613D01*
X132248738Y-103156741D01*
X132248745Y-103156751D01*
X132376524Y-103298664D01*
X132427957Y-103336032D01*
X132531028Y-103410918D01*
X132705492Y-103488594D01*
X132892293Y-103528300D01*
X133083267Y-103528300D01*
X133270068Y-103488594D01*
X133444532Y-103410918D01*
X133592567Y-103303364D01*
X133604375Y-103294785D01*
X133605648Y-103296537D01*
X133660549Y-103270188D01*
X133680858Y-103268540D01*
X135214497Y-103268540D01*
X135282618Y-103288542D01*
X135329111Y-103342198D01*
X135339215Y-103412472D01*
X135337462Y-103422028D01*
X135331498Y-103448707D01*
X135330752Y-103456600D01*
X135330459Y-103456572D01*
X135330128Y-103460775D01*
X135330423Y-103460794D01*
X135329925Y-103468706D01*
X135334199Y-103536653D01*
X135334386Y-103540604D01*
X135336526Y-103608688D01*
X135337767Y-103616518D01*
X135337477Y-103616563D01*
X135338202Y-103620717D01*
X135338490Y-103620663D01*
X135339974Y-103628445D01*
X135339975Y-103628450D01*
X135345062Y-103644106D01*
X135347853Y-103652695D01*
X135354020Y-103691631D01*
X135354020Y-108581146D01*
X135352271Y-108596988D01*
X135352564Y-108597016D01*
X135351818Y-108604907D01*
X135353958Y-108672984D01*
X135354020Y-108676943D01*
X135354020Y-108704851D01*
X135354021Y-108704869D01*
X135354527Y-108708877D01*
X135355457Y-108720696D01*
X135356846Y-108764888D01*
X135356847Y-108764893D01*
X135362497Y-108784339D01*
X135366506Y-108803697D01*
X135369045Y-108823793D01*
X135369046Y-108823800D01*
X135385320Y-108864903D01*
X135389164Y-108876129D01*
X135401502Y-108918593D01*
X135411814Y-108936031D01*
X135420508Y-108953779D01*
X135427964Y-108972609D01*
X135427970Y-108972620D01*
X135453952Y-109008381D01*
X135460469Y-109018301D01*
X135482978Y-109056362D01*
X135482979Y-109056363D01*
X135482981Y-109056366D01*
X135497299Y-109070684D01*
X135510137Y-109085714D01*
X135522046Y-109102104D01*
X135522050Y-109102109D01*
X135556118Y-109130292D01*
X135564898Y-109138282D01*
X135866353Y-109439737D01*
X135876320Y-109452177D01*
X135876547Y-109451990D01*
X135881599Y-109458097D01*
X135931266Y-109504737D01*
X135934110Y-109507494D01*
X135953830Y-109527214D01*
X135957016Y-109529685D01*
X135966047Y-109537398D01*
X135998278Y-109567665D01*
X135998282Y-109567668D01*
X136016030Y-109577425D01*
X136032557Y-109588281D01*
X136048560Y-109600694D01*
X136089139Y-109618254D01*
X136099787Y-109623471D01*
X136138534Y-109644772D01*
X136138536Y-109644773D01*
X136138540Y-109644775D01*
X136158162Y-109649813D01*
X136176863Y-109656215D01*
X136189414Y-109661647D01*
X136195452Y-109664260D01*
X136195453Y-109664260D01*
X136195455Y-109664261D01*
X136239130Y-109671178D01*
X136250741Y-109673582D01*
X136293570Y-109684580D01*
X136313824Y-109684580D01*
X136333534Y-109686131D01*
X136335741Y-109686480D01*
X136353543Y-109689300D01*
X136397561Y-109685138D01*
X136409419Y-109684580D01*
X149071426Y-109684580D01*
X149139547Y-109704582D01*
X149160520Y-109721484D01*
X150099949Y-110660914D01*
X151009835Y-111570800D01*
X151019800Y-111583237D01*
X151020027Y-111583050D01*
X151025079Y-111589157D01*
X151025080Y-111589158D01*
X151051045Y-111613541D01*
X151074730Y-111635782D01*
X151077574Y-111638539D01*
X151097303Y-111658269D01*
X151097304Y-111658270D01*
X151097308Y-111658273D01*
X151097310Y-111658275D01*
X151100515Y-111660761D01*
X151109522Y-111668454D01*
X151141759Y-111698726D01*
X151159508Y-111708483D01*
X151176033Y-111719338D01*
X151192039Y-111731754D01*
X151232622Y-111749315D01*
X151243273Y-111754533D01*
X151282020Y-111775835D01*
X151282028Y-111775837D01*
X151301638Y-111780872D01*
X151320347Y-111787277D01*
X151338935Y-111795321D01*
X151382610Y-111802238D01*
X151394221Y-111804642D01*
X151437050Y-111815640D01*
X151457304Y-111815640D01*
X151477014Y-111817191D01*
X151479221Y-111817540D01*
X151497023Y-111820360D01*
X151541041Y-111816198D01*
X151552899Y-111815640D01*
X154905407Y-111815640D01*
X154921248Y-111817389D01*
X154921276Y-111817096D01*
X154929162Y-111817840D01*
X154929169Y-111817842D01*
X154997246Y-111815702D01*
X155001205Y-111815640D01*
X155029111Y-111815640D01*
X155029116Y-111815640D01*
X155033127Y-111815132D01*
X155044959Y-111814201D01*
X155089149Y-111812813D01*
X155108607Y-111807159D01*
X155127954Y-111803153D01*
X155148057Y-111800614D01*
X155189170Y-111784335D01*
X155200390Y-111780493D01*
X155227704Y-111772559D01*
X155242851Y-111768159D01*
X155242855Y-111768157D01*
X155260286Y-111757848D01*
X155278040Y-111749149D01*
X155296877Y-111741692D01*
X155332652Y-111715698D01*
X155342558Y-111709191D01*
X155380622Y-111686682D01*
X155394945Y-111672358D01*
X155409984Y-111659514D01*
X155410634Y-111659042D01*
X155426367Y-111647612D01*
X155454563Y-111613526D01*
X155462532Y-111604770D01*
X156172937Y-110894365D01*
X156185377Y-110884402D01*
X156185188Y-110884174D01*
X156191292Y-110879123D01*
X156191298Y-110879120D01*
X156237942Y-110829447D01*
X156240632Y-110826671D01*
X156260415Y-110806890D01*
X156262894Y-110803693D01*
X156270591Y-110794679D01*
X156300866Y-110762441D01*
X156310626Y-110744685D01*
X156321475Y-110728170D01*
X156333894Y-110712161D01*
X156351459Y-110671566D01*
X156356664Y-110660941D01*
X156377975Y-110622180D01*
X156377977Y-110622169D01*
X156380895Y-110614804D01*
X156382519Y-110615447D01*
X156413864Y-110562765D01*
X156477389Y-110531061D01*
X156547970Y-110538735D01*
X156588707Y-110565991D01*
X158477433Y-112454717D01*
X158487400Y-112467157D01*
X158487627Y-112466970D01*
X158492679Y-112473077D01*
X158542346Y-112519717D01*
X158545190Y-112522474D01*
X158564906Y-112542191D01*
X158568103Y-112544671D01*
X158577124Y-112552376D01*
X158609359Y-112582646D01*
X158609360Y-112582646D01*
X158609362Y-112582648D01*
X158627109Y-112592404D01*
X158643639Y-112603262D01*
X158659639Y-112615673D01*
X158700216Y-112633232D01*
X158710867Y-112638450D01*
X158749620Y-112659755D01*
X158769242Y-112664793D01*
X158787943Y-112671195D01*
X158800494Y-112676627D01*
X158806532Y-112679240D01*
X158806533Y-112679240D01*
X158806535Y-112679241D01*
X158850210Y-112686158D01*
X158861821Y-112688562D01*
X158904650Y-112699560D01*
X158924904Y-112699560D01*
X158944614Y-112701111D01*
X158946821Y-112701460D01*
X158964623Y-112704280D01*
X159008641Y-112700118D01*
X159020499Y-112699560D01*
X159215529Y-112699560D01*
X159283650Y-112719562D01*
X159330143Y-112773218D01*
X159340247Y-112843492D01*
X159310753Y-112908072D01*
X159309622Y-112909359D01*
X159241610Y-112985676D01*
X159198741Y-113033778D01*
X159198739Y-113033781D01*
X159056144Y-113253975D01*
X159056140Y-113253982D01*
X158948831Y-113493355D01*
X158879316Y-113746314D01*
X158879314Y-113746321D01*
X158849229Y-114006925D01*
X158849229Y-114006927D01*
X158859278Y-114269076D01*
X158909223Y-114526606D01*
X158909224Y-114526609D01*
X158909225Y-114526613D01*
X158958352Y-114663397D01*
X158997900Y-114773512D01*
X158997904Y-114773520D01*
X159123223Y-115003977D01*
X159282256Y-115212609D01*
X159282260Y-115212614D01*
X159471281Y-115394528D01*
X159685855Y-115545457D01*
X159920954Y-115661861D01*
X160171067Y-115741014D01*
X160274413Y-115756976D01*
X160430320Y-115781059D01*
X160430329Y-115781059D01*
X160430331Y-115781060D01*
X160430332Y-115781060D01*
X160626993Y-115781060D01*
X160823060Y-115766007D01*
X160823061Y-115766006D01*
X160823069Y-115766006D01*
X161078507Y-115706231D01*
X161321826Y-115608165D01*
X161547325Y-115474105D01*
X161749716Y-115307194D01*
X161924257Y-115111344D01*
X162066855Y-114891146D01*
X162174170Y-114651761D01*
X162243685Y-114398800D01*
X162273771Y-114138193D01*
X162269160Y-114017909D01*
X162286538Y-113949073D01*
X162338374Y-113900559D01*
X162408209Y-113887770D01*
X162473872Y-113914768D01*
X162484159Y-113923984D01*
X162698367Y-114138192D01*
X162797978Y-114237803D01*
X162807940Y-114250237D01*
X162808167Y-114250050D01*
X162813219Y-114256157D01*
X162813220Y-114256158D01*
X162839185Y-114280541D01*
X162862870Y-114302782D01*
X162865714Y-114305539D01*
X162885443Y-114325269D01*
X162885444Y-114325270D01*
X162885448Y-114325273D01*
X162885450Y-114325275D01*
X162888655Y-114327761D01*
X162897662Y-114335454D01*
X162929899Y-114365726D01*
X162947648Y-114375483D01*
X162964173Y-114386338D01*
X162980179Y-114398754D01*
X163020762Y-114416315D01*
X163031413Y-114421533D01*
X163070160Y-114442835D01*
X163070168Y-114442837D01*
X163089778Y-114447872D01*
X163108487Y-114454277D01*
X163127075Y-114462321D01*
X163170750Y-114469238D01*
X163182361Y-114471642D01*
X163225190Y-114482640D01*
X163245444Y-114482640D01*
X163265154Y-114484191D01*
X163267361Y-114484540D01*
X163285163Y-114487360D01*
X163329181Y-114483198D01*
X163341039Y-114482640D01*
X165268607Y-114482640D01*
X165284448Y-114484389D01*
X165284476Y-114484096D01*
X165292362Y-114484840D01*
X165292369Y-114484842D01*
X165360446Y-114482702D01*
X165364405Y-114482640D01*
X165392311Y-114482640D01*
X165392316Y-114482640D01*
X165396327Y-114482132D01*
X165408159Y-114481201D01*
X165452349Y-114479813D01*
X165471807Y-114474159D01*
X165491154Y-114470153D01*
X165511257Y-114467614D01*
X165552370Y-114451335D01*
X165563590Y-114447493D01*
X165588373Y-114440294D01*
X165606051Y-114435159D01*
X165606055Y-114435157D01*
X165623486Y-114424848D01*
X165641240Y-114416149D01*
X165660077Y-114408692D01*
X165695852Y-114382698D01*
X165705758Y-114376191D01*
X165743822Y-114353682D01*
X165758145Y-114339358D01*
X165773184Y-114326514D01*
X165789567Y-114314612D01*
X165817763Y-114280526D01*
X165825732Y-114271770D01*
X166090575Y-114006927D01*
X170849229Y-114006927D01*
X170859278Y-114269076D01*
X170909223Y-114526606D01*
X170909224Y-114526609D01*
X170909225Y-114526613D01*
X170958352Y-114663397D01*
X170997900Y-114773512D01*
X170997904Y-114773520D01*
X171123223Y-115003977D01*
X171282256Y-115212609D01*
X171282260Y-115212614D01*
X171471281Y-115394528D01*
X171685855Y-115545457D01*
X171920954Y-115661861D01*
X172171067Y-115741014D01*
X172274413Y-115756976D01*
X172430320Y-115781059D01*
X172430329Y-115781059D01*
X172430331Y-115781060D01*
X172430332Y-115781060D01*
X172626993Y-115781060D01*
X172823060Y-115766007D01*
X172823061Y-115766006D01*
X172823069Y-115766006D01*
X173078507Y-115706231D01*
X173321826Y-115608165D01*
X173547325Y-115474105D01*
X173749716Y-115307194D01*
X173924257Y-115111344D01*
X174066855Y-114891146D01*
X174174170Y-114651761D01*
X174243685Y-114398800D01*
X174273771Y-114138193D01*
X174263722Y-113876047D01*
X174213775Y-113618507D01*
X174125100Y-113371609D01*
X174121805Y-113365550D01*
X173999776Y-113141142D01*
X173840743Y-112932510D01*
X173840740Y-112932506D01*
X173651719Y-112750592D01*
X173437145Y-112599663D01*
X173202046Y-112483259D01*
X172951933Y-112404106D01*
X172951931Y-112404105D01*
X172951929Y-112404105D01*
X172692679Y-112364060D01*
X172692669Y-112364060D01*
X172496010Y-112364060D01*
X172496007Y-112364060D01*
X172299939Y-112379112D01*
X172299901Y-112379121D01*
X172044493Y-112438889D01*
X172044490Y-112438889D01*
X172044486Y-112438891D01*
X171801179Y-112536952D01*
X171801169Y-112536957D01*
X171575679Y-112671011D01*
X171575673Y-112671016D01*
X171373290Y-112837919D01*
X171373284Y-112837925D01*
X171198741Y-113033778D01*
X171198739Y-113033781D01*
X171056144Y-113253975D01*
X171056140Y-113253982D01*
X170948831Y-113493355D01*
X170879316Y-113746314D01*
X170879314Y-113746321D01*
X170849229Y-114006925D01*
X170849229Y-114006927D01*
X166090575Y-114006927D01*
X166440157Y-113657345D01*
X166452597Y-113647382D01*
X166452408Y-113647154D01*
X166458512Y-113642103D01*
X166458518Y-113642100D01*
X166505162Y-113592427D01*
X166507852Y-113589651D01*
X166527635Y-113569870D01*
X166530114Y-113566673D01*
X166537811Y-113557659D01*
X166568086Y-113525421D01*
X166577846Y-113507665D01*
X166588695Y-113491150D01*
X166601114Y-113475141D01*
X166618679Y-113434546D01*
X166623884Y-113423921D01*
X166645195Y-113385160D01*
X166650233Y-113365534D01*
X166656637Y-113346832D01*
X166664680Y-113328247D01*
X166664679Y-113328247D01*
X166664681Y-113328245D01*
X166671596Y-113284581D01*
X166674004Y-113272952D01*
X166678877Y-113253975D01*
X166685000Y-113230130D01*
X166685000Y-113209875D01*
X166686551Y-113190163D01*
X166688361Y-113178735D01*
X166689720Y-113170157D01*
X166685559Y-113126136D01*
X166685000Y-113114279D01*
X166685000Y-112869875D01*
X166705002Y-112801754D01*
X166738726Y-112766664D01*
X166831276Y-112701861D01*
X166980801Y-112552336D01*
X166980803Y-112552332D01*
X166982404Y-112550732D01*
X167044716Y-112516707D01*
X167115532Y-112521771D01*
X167160595Y-112550732D01*
X167162199Y-112552336D01*
X167311724Y-112701861D01*
X167311728Y-112701864D01*
X167311732Y-112701867D01*
X167484938Y-112823147D01*
X167484941Y-112823148D01*
X167484942Y-112823149D01*
X167676590Y-112912516D01*
X167880845Y-112967246D01*
X168091500Y-112985676D01*
X168302155Y-112967246D01*
X168506410Y-112912516D01*
X168698058Y-112823149D01*
X168871276Y-112701861D01*
X169020801Y-112552336D01*
X169142089Y-112379118D01*
X169231456Y-112187470D01*
X169286186Y-111983215D01*
X169304616Y-111772560D01*
X169286186Y-111561905D01*
X169231456Y-111357650D01*
X169142089Y-111166002D01*
X169142088Y-111166001D01*
X169142087Y-111165998D01*
X169020807Y-110992792D01*
X169020804Y-110992788D01*
X169020801Y-110992784D01*
X168871276Y-110843259D01*
X168871272Y-110843256D01*
X168871267Y-110843252D01*
X168698061Y-110721972D01*
X168506412Y-110632605D01*
X168506408Y-110632603D01*
X168388559Y-110601026D01*
X168302155Y-110577874D01*
X168091500Y-110559444D01*
X167880845Y-110577874D01*
X167844913Y-110587502D01*
X167676591Y-110632603D01*
X167676587Y-110632605D01*
X167484938Y-110721972D01*
X167311732Y-110843252D01*
X167311721Y-110843261D01*
X167160595Y-110994388D01*
X167098283Y-111028414D01*
X167027468Y-111023349D01*
X166982405Y-110994388D01*
X166831278Y-110843261D01*
X166831267Y-110843252D01*
X166658061Y-110721972D01*
X166466412Y-110632605D01*
X166466408Y-110632603D01*
X166348559Y-110601026D01*
X166262155Y-110577874D01*
X166051500Y-110559444D01*
X165840845Y-110577874D01*
X165804913Y-110587502D01*
X165636591Y-110632603D01*
X165636587Y-110632605D01*
X165444938Y-110721972D01*
X165271732Y-110843252D01*
X165271727Y-110843256D01*
X165122201Y-110992781D01*
X165122199Y-110992783D01*
X165062450Y-111078112D01*
X165048334Y-111094935D01*
X164456344Y-111686924D01*
X164455173Y-111671295D01*
X164405613Y-111545019D01*
X164321035Y-111438961D01*
X164208953Y-111362544D01*
X164096876Y-111327973D01*
X164667586Y-110757260D01*
X164617809Y-110722406D01*
X164426241Y-110633077D01*
X164426235Y-110633075D01*
X164222067Y-110578368D01*
X164011499Y-110559946D01*
X163814235Y-110577204D01*
X163744630Y-110563214D01*
X163693638Y-110513815D01*
X163677448Y-110444689D01*
X163692665Y-110391300D01*
X163717530Y-110345765D01*
X163813783Y-110087702D01*
X163836474Y-109983390D01*
X163870498Y-109921081D01*
X163932810Y-109887056D01*
X163970575Y-109884655D01*
X164016200Y-109888646D01*
X164586655Y-109318192D01*
X164587827Y-109333825D01*
X164637387Y-109460101D01*
X164721965Y-109566159D01*
X164834047Y-109642576D01*
X164946122Y-109677146D01*
X164375412Y-110247856D01*
X164375412Y-110247858D01*
X164425190Y-110282713D01*
X164616758Y-110372042D01*
X164616764Y-110372044D01*
X164820932Y-110426751D01*
X165031500Y-110445173D01*
X165242067Y-110426751D01*
X165446235Y-110372044D01*
X165446245Y-110372040D01*
X165637802Y-110282717D01*
X165637805Y-110282715D01*
X165687586Y-110247858D01*
X165687586Y-110247857D01*
X165114815Y-109675085D01*
X165165638Y-109667425D01*
X165287857Y-109608567D01*
X165387298Y-109516300D01*
X165455125Y-109398820D01*
X165474050Y-109315899D01*
X166068331Y-109910180D01*
X166082449Y-109927005D01*
X166139353Y-110008272D01*
X166142199Y-110012336D01*
X166291724Y-110161861D01*
X166291727Y-110161863D01*
X166291732Y-110161867D01*
X166464938Y-110283147D01*
X166464941Y-110283148D01*
X166464942Y-110283149D01*
X166656590Y-110372516D01*
X166860845Y-110427246D01*
X167071500Y-110445676D01*
X167282155Y-110427246D01*
X167486410Y-110372516D01*
X167678058Y-110283149D01*
X167851276Y-110161861D01*
X168000801Y-110012336D01*
X168000801Y-110012335D01*
X168002405Y-110010732D01*
X168064717Y-109976706D01*
X168135532Y-109981771D01*
X168180595Y-110010732D01*
X168182198Y-110012335D01*
X168182199Y-110012336D01*
X168331724Y-110161861D01*
X168331727Y-110161863D01*
X168331732Y-110161867D01*
X168504938Y-110283147D01*
X168504941Y-110283148D01*
X168504942Y-110283149D01*
X168696590Y-110372516D01*
X168900845Y-110427246D01*
X169111500Y-110445676D01*
X169322155Y-110427246D01*
X169526410Y-110372516D01*
X169718058Y-110283149D01*
X169891276Y-110161861D01*
X170040801Y-110012336D01*
X170040807Y-110012326D01*
X170044211Y-110008272D01*
X170103322Y-109968947D01*
X170174310Y-109967823D01*
X170234636Y-110005256D01*
X170263850Y-110062481D01*
X170269335Y-110087695D01*
X170269337Y-110087702D01*
X170297199Y-110162402D01*
X170365590Y-110345766D01*
X170430242Y-110464166D01*
X170497589Y-110587503D01*
X170659438Y-110803708D01*
X170662648Y-110807996D01*
X170662656Y-110808005D01*
X170857394Y-111002743D01*
X170857403Y-111002751D01*
X170857405Y-111002753D01*
X171077897Y-111167811D01*
X171319635Y-111299810D01*
X171577698Y-111396063D01*
X171846833Y-111454609D01*
X172052798Y-111469340D01*
X172052805Y-111469340D01*
X172190315Y-111469340D01*
X172190322Y-111469340D01*
X172396287Y-111454609D01*
X172665422Y-111396063D01*
X172923485Y-111299810D01*
X173165223Y-111167811D01*
X173385715Y-111002753D01*
X173580473Y-110807995D01*
X173745531Y-110587503D01*
X173877530Y-110345765D01*
X173973783Y-110087702D01*
X174032329Y-109818567D01*
X174051978Y-109543840D01*
X174032329Y-109269113D01*
X173973783Y-108999978D01*
X173877530Y-108741915D01*
X173745531Y-108500177D01*
X173580473Y-108279685D01*
X173580471Y-108279683D01*
X173580463Y-108279674D01*
X173385725Y-108084936D01*
X173385716Y-108084928D01*
X173385715Y-108084927D01*
X173165223Y-107919869D01*
X172951628Y-107803237D01*
X172923486Y-107787870D01*
X172843870Y-107758175D01*
X172665422Y-107691617D01*
X172440950Y-107642786D01*
X172396283Y-107633070D01*
X172275216Y-107624411D01*
X172190322Y-107618340D01*
X172052798Y-107618340D01*
X171972624Y-107624074D01*
X171846836Y-107633070D01*
X171771465Y-107649466D01*
X171577698Y-107691617D01*
X171471205Y-107731337D01*
X171319633Y-107787870D01*
X171077897Y-107919869D01*
X170857403Y-108084928D01*
X170857394Y-108084936D01*
X170662656Y-108279674D01*
X170662648Y-108279683D01*
X170497587Y-108500179D01*
X170404427Y-108670788D01*
X170354225Y-108720990D01*
X170284851Y-108736081D01*
X170218331Y-108711270D01*
X170179645Y-108663651D01*
X170162089Y-108626001D01*
X170162087Y-108625998D01*
X170040807Y-108452792D01*
X170040804Y-108452788D01*
X170040801Y-108452784D01*
X169891276Y-108303259D01*
X169891272Y-108303256D01*
X169891267Y-108303252D01*
X169718061Y-108181972D01*
X169526412Y-108092605D01*
X169526408Y-108092603D01*
X169431613Y-108067203D01*
X169322155Y-108037874D01*
X169111500Y-108019444D01*
X168900845Y-108037874D01*
X168884652Y-108042213D01*
X168696591Y-108092603D01*
X168696587Y-108092605D01*
X168504938Y-108181972D01*
X168331732Y-108303252D01*
X168331721Y-108303261D01*
X168180595Y-108454388D01*
X168118283Y-108488414D01*
X168047468Y-108483349D01*
X168002405Y-108454388D01*
X167851278Y-108303261D01*
X167851267Y-108303252D01*
X167678061Y-108181972D01*
X167486412Y-108092605D01*
X167486408Y-108092603D01*
X167391613Y-108067203D01*
X167282155Y-108037874D01*
X167071500Y-108019444D01*
X166860845Y-108037874D01*
X166844652Y-108042213D01*
X166656591Y-108092603D01*
X166656587Y-108092605D01*
X166464938Y-108181972D01*
X166291732Y-108303252D01*
X166291727Y-108303256D01*
X166142201Y-108452781D01*
X166142199Y-108452783D01*
X166082450Y-108538112D01*
X166068334Y-108554935D01*
X165476344Y-109146924D01*
X165475173Y-109131295D01*
X165425613Y-109005019D01*
X165341035Y-108898961D01*
X165228953Y-108822544D01*
X165116875Y-108787972D01*
X165687586Y-108217260D01*
X165687586Y-108217259D01*
X165637813Y-108182408D01*
X165637812Y-108182407D01*
X165446241Y-108093077D01*
X165446235Y-108093075D01*
X165242067Y-108038368D01*
X165031500Y-108019946D01*
X164820932Y-108038368D01*
X164616764Y-108093075D01*
X164616758Y-108093077D01*
X164425191Y-108182406D01*
X164375411Y-108217261D01*
X164948184Y-108790034D01*
X164897362Y-108797695D01*
X164775143Y-108856553D01*
X164675702Y-108948820D01*
X164607875Y-109066300D01*
X164588949Y-109149219D01*
X164016201Y-108576471D01*
X163981345Y-108626252D01*
X163981344Y-108626254D01*
X163936068Y-108723348D01*
X163889151Y-108776632D01*
X163820874Y-108796093D01*
X163752914Y-108775551D01*
X163711288Y-108730484D01*
X163585531Y-108500177D01*
X163420473Y-108279685D01*
X163420471Y-108279683D01*
X163420463Y-108279674D01*
X163225725Y-108084936D01*
X163225716Y-108084928D01*
X163225715Y-108084927D01*
X163005223Y-107919869D01*
X162791628Y-107803237D01*
X162763486Y-107787870D01*
X162683870Y-107758175D01*
X162505422Y-107691617D01*
X162280950Y-107642786D01*
X162236283Y-107633070D01*
X162115216Y-107624411D01*
X162030322Y-107618340D01*
X161892798Y-107618340D01*
X161812624Y-107624074D01*
X161686836Y-107633070D01*
X161611465Y-107649466D01*
X161417698Y-107691617D01*
X161311205Y-107731337D01*
X161159633Y-107787870D01*
X160917897Y-107919869D01*
X160697403Y-108084928D01*
X160697394Y-108084936D01*
X160502656Y-108279674D01*
X160502648Y-108279683D01*
X160337589Y-108500177D01*
X160205590Y-108741913D01*
X160177342Y-108817650D01*
X160109337Y-108999978D01*
X160087120Y-109102109D01*
X160050790Y-109269116D01*
X160031142Y-109543840D01*
X160050790Y-109818563D01*
X160060506Y-109863230D01*
X160109337Y-110087702D01*
X160173620Y-110260050D01*
X160205590Y-110345766D01*
X160270242Y-110464166D01*
X160337589Y-110587503D01*
X160499438Y-110803708D01*
X160502648Y-110807996D01*
X160502656Y-110808005D01*
X160697394Y-111002743D01*
X160697403Y-111002751D01*
X160697405Y-111002753D01*
X160917897Y-111167811D01*
X160917899Y-111167812D01*
X160969471Y-111195973D01*
X161019673Y-111246175D01*
X161034764Y-111315549D01*
X161009953Y-111382069D01*
X160953117Y-111424616D01*
X160909085Y-111432560D01*
X159299275Y-111432560D01*
X159231154Y-111412558D01*
X159210180Y-111395655D01*
X157094723Y-109280198D01*
X157077436Y-109258622D01*
X157076887Y-109257757D01*
X157057271Y-109189524D01*
X157061562Y-109157630D01*
X157077823Y-109096947D01*
X157097778Y-108868860D01*
X157077823Y-108640773D01*
X157060106Y-108574652D01*
X157061796Y-108503679D01*
X157089961Y-108455792D01*
X157100865Y-108444182D01*
X157110625Y-108426425D01*
X157121472Y-108409912D01*
X157133892Y-108393902D01*
X157133894Y-108393896D01*
X157133897Y-108393893D01*
X157137928Y-108387078D01*
X157138383Y-108387347D01*
X157160368Y-108354994D01*
X159276219Y-106239145D01*
X159338531Y-106205119D01*
X159365314Y-106202240D01*
X167049147Y-106202240D01*
X167064988Y-106203989D01*
X167065016Y-106203696D01*
X167072902Y-106204440D01*
X167072909Y-106204442D01*
X167140986Y-106202302D01*
X167144945Y-106202240D01*
X167172851Y-106202240D01*
X167172856Y-106202240D01*
X167176867Y-106201732D01*
X167188699Y-106200801D01*
X167232889Y-106199413D01*
X167252347Y-106193759D01*
X167271694Y-106189753D01*
X167291797Y-106187214D01*
X167332910Y-106170935D01*
X167344130Y-106167093D01*
X167368913Y-106159894D01*
X167386591Y-106154759D01*
X167386595Y-106154757D01*
X167404026Y-106144448D01*
X167421780Y-106135749D01*
X167440617Y-106128292D01*
X167476392Y-106102298D01*
X167486298Y-106095791D01*
X167524362Y-106073282D01*
X167538685Y-106058958D01*
X167553724Y-106046114D01*
X167570107Y-106034212D01*
X167598299Y-106000132D01*
X167606267Y-105991375D01*
X168065223Y-105532420D01*
X168077657Y-105522461D01*
X168077469Y-105522234D01*
X168083574Y-105517183D01*
X168083575Y-105517181D01*
X168083578Y-105517180D01*
X168130221Y-105467508D01*
X168132912Y-105464731D01*
X168152695Y-105444950D01*
X168155174Y-105441753D01*
X168162871Y-105432739D01*
X168193146Y-105400501D01*
X168202906Y-105382745D01*
X168213755Y-105366230D01*
X168226174Y-105350221D01*
X168243739Y-105309626D01*
X168248944Y-105299001D01*
X168270255Y-105260240D01*
X168275293Y-105240614D01*
X168281697Y-105221912D01*
X168285380Y-105213401D01*
X168289741Y-105203325D01*
X168296656Y-105159661D01*
X168299064Y-105148032D01*
X168300637Y-105141907D01*
X168310060Y-105105210D01*
X168310060Y-105084955D01*
X168311611Y-105065243D01*
X168314780Y-105045237D01*
X168311238Y-105007768D01*
X168310619Y-105001216D01*
X168310060Y-104989359D01*
X168310060Y-104236131D01*
X168330062Y-104168010D01*
X168369730Y-104129004D01*
X168378611Y-104123506D01*
X168537483Y-103978675D01*
X168667037Y-103807118D01*
X168762862Y-103614676D01*
X168821694Y-103407903D01*
X168821694Y-103407895D01*
X168822765Y-103402176D01*
X168824944Y-103402583D01*
X168847537Y-103345660D01*
X168905246Y-103304306D01*
X168976152Y-103300717D01*
X169037742Y-103336032D01*
X169070462Y-103399039D01*
X169071071Y-103403274D01*
X169071918Y-103407803D01*
X169130725Y-103614489D01*
X169226511Y-103806854D01*
X169234179Y-103817008D01*
X169234180Y-103817008D01*
X169833262Y-103217926D01*
X169832622Y-103225654D01*
X169863755Y-103348595D01*
X169933119Y-103454765D01*
X170033199Y-103532661D01*
X170153149Y-103573840D01*
X170195770Y-103573840D01*
X169596145Y-104173463D01*
X169697506Y-104236224D01*
X169697516Y-104236229D01*
X169897881Y-104313852D01*
X170109120Y-104353340D01*
X170324000Y-104353340D01*
X170535238Y-104313852D01*
X170735602Y-104236230D01*
X170735611Y-104236225D01*
X170836974Y-104173463D01*
X170237351Y-103573840D01*
X170248046Y-103573840D01*
X170341652Y-103558220D01*
X170453188Y-103497860D01*
X170539082Y-103404554D01*
X170590025Y-103288414D01*
X170596171Y-103214242D01*
X171198938Y-103817009D01*
X171206609Y-103806854D01*
X171302394Y-103614489D01*
X171361199Y-103407811D01*
X171381026Y-103193840D01*
X171361199Y-102979868D01*
X171302394Y-102773190D01*
X171206607Y-102580824D01*
X171198939Y-102570670D01*
X170599857Y-103169751D01*
X170600498Y-103162026D01*
X170569365Y-103039085D01*
X170500001Y-102932915D01*
X170399921Y-102855019D01*
X170279971Y-102813840D01*
X170237350Y-102813840D01*
X170836973Y-102214215D01*
X170735613Y-102151455D01*
X170735603Y-102151450D01*
X170535238Y-102073827D01*
X170324000Y-102034340D01*
X170109120Y-102034340D01*
X169897881Y-102073827D01*
X169697518Y-102151449D01*
X169697511Y-102151452D01*
X169596144Y-102214215D01*
X170195769Y-102813840D01*
X170185074Y-102813840D01*
X170091468Y-102829460D01*
X169979932Y-102889820D01*
X169894038Y-102983126D01*
X169843095Y-103099266D01*
X169836948Y-103173437D01*
X169234181Y-102570670D01*
X169234180Y-102570670D01*
X169226510Y-102580827D01*
X169130725Y-102773190D01*
X169071918Y-102979876D01*
X169070849Y-102985597D01*
X169068651Y-102985186D01*
X169046058Y-103042053D01*
X168988335Y-103083387D01*
X168917427Y-103086952D01*
X168855849Y-103051615D01*
X168823151Y-102988597D01*
X168822514Y-102984161D01*
X168821694Y-102979780D01*
X168821694Y-102979777D01*
X168762862Y-102773004D01*
X168667037Y-102580562D01*
X168624450Y-102524168D01*
X168537484Y-102409005D01*
X168378612Y-102264174D01*
X168195838Y-102151005D01*
X168195833Y-102151003D01*
X168195832Y-102151002D01*
X168195827Y-102151000D01*
X167995376Y-102073344D01*
X167995373Y-102073343D01*
X167995370Y-102073342D01*
X167995369Y-102073342D01*
X167784050Y-102033840D01*
X167569070Y-102033840D01*
X167357751Y-102073342D01*
X167357746Y-102073343D01*
X167357743Y-102073344D01*
X167157292Y-102151000D01*
X167157281Y-102151005D01*
X166974507Y-102264174D01*
X166815635Y-102409005D01*
X166686084Y-102580560D01*
X166590258Y-102773003D01*
X166590255Y-102773011D01*
X166531425Y-102979778D01*
X166530414Y-102985189D01*
X166498235Y-103048474D01*
X166436949Y-103084315D01*
X166366015Y-103081334D01*
X166307954Y-103040475D01*
X166282706Y-102985189D01*
X166281694Y-102979778D01*
X166280234Y-102974648D01*
X166222862Y-102773004D01*
X166127037Y-102580562D01*
X166084450Y-102524168D01*
X165997484Y-102409005D01*
X165838612Y-102264174D01*
X165655838Y-102151005D01*
X165655833Y-102151003D01*
X165655832Y-102151002D01*
X165655827Y-102151000D01*
X165455376Y-102073344D01*
X165455373Y-102073343D01*
X165455370Y-102073342D01*
X165455369Y-102073342D01*
X165244050Y-102033840D01*
X165029070Y-102033840D01*
X164817751Y-102073342D01*
X164817746Y-102073343D01*
X164817743Y-102073344D01*
X164617292Y-102151000D01*
X164617281Y-102151005D01*
X164434507Y-102264174D01*
X164275635Y-102409005D01*
X164146084Y-102580560D01*
X164050258Y-102773003D01*
X164050255Y-102773011D01*
X163991425Y-102979778D01*
X163971590Y-103193835D01*
X163971590Y-103193844D01*
X163991425Y-103407901D01*
X164050255Y-103614668D01*
X164050258Y-103614676D01*
X164146083Y-103807118D01*
X164166409Y-103834034D01*
X164275635Y-103978674D01*
X164434507Y-104123505D01*
X164617281Y-104236674D01*
X164617283Y-104236674D01*
X164617288Y-104236678D01*
X164817751Y-104314338D01*
X165029070Y-104353840D01*
X165029072Y-104353840D01*
X165244048Y-104353840D01*
X165244050Y-104353840D01*
X165455369Y-104314338D01*
X165655832Y-104236678D01*
X165838611Y-104123506D01*
X165997483Y-103978675D01*
X166127037Y-103807118D01*
X166222862Y-103614676D01*
X166281694Y-103407903D01*
X166281695Y-103407891D01*
X166282705Y-103402492D01*
X166314884Y-103339206D01*
X166376169Y-103303364D01*
X166447103Y-103306345D01*
X166505165Y-103347202D01*
X166530415Y-103402492D01*
X166531427Y-103407908D01*
X166590255Y-103614668D01*
X166590258Y-103614676D01*
X166686083Y-103807118D01*
X166706409Y-103834034D01*
X166815638Y-103978677D01*
X166974503Y-104123501D01*
X166974504Y-104123501D01*
X166974509Y-104123506D01*
X166983388Y-104129003D01*
X167030775Y-104181865D01*
X167043060Y-104236131D01*
X167043060Y-104710585D01*
X167023058Y-104778706D01*
X167006155Y-104799680D01*
X166907500Y-104898335D01*
X166845188Y-104932361D01*
X166818405Y-104935240D01*
X159134573Y-104935240D01*
X159118731Y-104933490D01*
X159118704Y-104933784D01*
X159110812Y-104933038D01*
X159110811Y-104933038D01*
X159087080Y-104933784D01*
X159042734Y-104935178D01*
X159038775Y-104935240D01*
X159010864Y-104935240D01*
X159010861Y-104935240D01*
X159010846Y-104935241D01*
X159006841Y-104935747D01*
X158995024Y-104936677D01*
X158950832Y-104938066D01*
X158950830Y-104938067D01*
X158931375Y-104943718D01*
X158912022Y-104947726D01*
X158891930Y-104950264D01*
X158891923Y-104950266D01*
X158850816Y-104966541D01*
X158839591Y-104970384D01*
X158808932Y-104979292D01*
X158797127Y-104982722D01*
X158797125Y-104982722D01*
X158797122Y-104982724D01*
X158779683Y-104993037D01*
X158761938Y-105001730D01*
X158743099Y-105009189D01*
X158707347Y-105035166D01*
X158697424Y-105041684D01*
X158659360Y-105064194D01*
X158645027Y-105078527D01*
X158630001Y-105091360D01*
X158613615Y-105103265D01*
X158585431Y-105137333D01*
X158577443Y-105146110D01*
X156195615Y-107527938D01*
X156183180Y-107537902D01*
X156183368Y-107538129D01*
X156177256Y-107543185D01*
X156171617Y-107549190D01*
X156110403Y-107585153D01*
X156047161Y-107584640D01*
X156012368Y-107575317D01*
X155784280Y-107555362D01*
X155556193Y-107575317D01*
X155335039Y-107634575D01*
X155335033Y-107634577D01*
X155127530Y-107731337D01*
X154939983Y-107862659D01*
X154939977Y-107862664D01*
X154778084Y-108024557D01*
X154778079Y-108024563D01*
X154646757Y-108212110D01*
X154549997Y-108419613D01*
X154549995Y-108419619D01*
X154502469Y-108596988D01*
X154490737Y-108640773D01*
X154470782Y-108868860D01*
X154490737Y-109096947D01*
X154492119Y-109102104D01*
X154549995Y-109318100D01*
X154549997Y-109318106D01*
X154646757Y-109525609D01*
X154773640Y-109706817D01*
X154778082Y-109713160D01*
X154939980Y-109875058D01*
X154957115Y-109887056D01*
X155087799Y-109978563D01*
X155132127Y-110034020D01*
X155139436Y-110104640D01*
X155107405Y-110168000D01*
X155104624Y-110170871D01*
X154763758Y-110511736D01*
X154701448Y-110545760D01*
X154674665Y-110548640D01*
X151831674Y-110548640D01*
X151763553Y-110528638D01*
X151742579Y-110511735D01*
X150822614Y-109591770D01*
X149893264Y-108662419D01*
X149883299Y-108649981D01*
X149883072Y-108650170D01*
X149878021Y-108644064D01*
X149878020Y-108644062D01*
X149828367Y-108597435D01*
X149825524Y-108594679D01*
X149805797Y-108574951D01*
X149805791Y-108574946D01*
X149802587Y-108572460D01*
X149793576Y-108564763D01*
X149761345Y-108534497D01*
X149761339Y-108534493D01*
X149743583Y-108524731D01*
X149727067Y-108513882D01*
X149711061Y-108501466D01*
X149670484Y-108483907D01*
X149659827Y-108478685D01*
X149621083Y-108457386D01*
X149621080Y-108457385D01*
X149601456Y-108452346D01*
X149582756Y-108445944D01*
X149578684Y-108444182D01*
X149564165Y-108437899D01*
X149564163Y-108437898D01*
X149564161Y-108437898D01*
X149520494Y-108430981D01*
X149508875Y-108428575D01*
X149466050Y-108417580D01*
X149456326Y-108417580D01*
X149388205Y-108397578D01*
X149341712Y-108343922D01*
X149331608Y-108273648D01*
X149361102Y-108209068D01*
X149420828Y-108170684D01*
X149423715Y-108169873D01*
X149614524Y-108118746D01*
X149614529Y-108118744D01*
X149828010Y-108019197D01*
X149828011Y-108019196D01*
X149907656Y-107963427D01*
X149907656Y-107963425D01*
X149326653Y-107382422D01*
X149445413Y-107330839D01*
X149564571Y-107233897D01*
X149653155Y-107108402D01*
X149684068Y-107021419D01*
X150266865Y-107604216D01*
X150266867Y-107604216D01*
X150322636Y-107524571D01*
X150322637Y-107524570D01*
X150422184Y-107311089D01*
X150422186Y-107311084D01*
X150483151Y-107083556D01*
X150503681Y-106848900D01*
X150483151Y-106614243D01*
X150422186Y-106386715D01*
X150422184Y-106386710D01*
X150322637Y-106173229D01*
X150266866Y-106093582D01*
X149686684Y-106673764D01*
X149683826Y-106660010D01*
X149613155Y-106523621D01*
X149508308Y-106411357D01*
X149377060Y-106331543D01*
X149325055Y-106316972D01*
X149907656Y-105734372D01*
X149907656Y-105734370D01*
X149828011Y-105678603D01*
X149828009Y-105678602D01*
X149614529Y-105579055D01*
X149614524Y-105579053D01*
X149457061Y-105536862D01*
X149396438Y-105499910D01*
X149365417Y-105436050D01*
X149373845Y-105365555D01*
X149379086Y-105354767D01*
X149381464Y-105350409D01*
X149381469Y-105350404D01*
X149432569Y-105213401D01*
X149433653Y-105203325D01*
X149439079Y-105152849D01*
X149439080Y-105152832D01*
X149439080Y-104455567D01*
X149439079Y-104455550D01*
X149432570Y-104395003D01*
X149432568Y-104394995D01*
X149411210Y-104337733D01*
X149406144Y-104266917D01*
X149440169Y-104204605D01*
X149502481Y-104170580D01*
X149529265Y-104167700D01*
X150806246Y-104167700D01*
X150874367Y-104187702D01*
X150895341Y-104204605D01*
X151786475Y-105095739D01*
X151820501Y-105158051D01*
X151823380Y-105184834D01*
X151823380Y-107649466D01*
X151803378Y-107717587D01*
X151769651Y-107752679D01*
X151612583Y-107862659D01*
X151612577Y-107862664D01*
X151450684Y-108024557D01*
X151450679Y-108024563D01*
X151319357Y-108212110D01*
X151222597Y-108419613D01*
X151222595Y-108419619D01*
X151175069Y-108596988D01*
X151163337Y-108640773D01*
X151143382Y-108868860D01*
X151163337Y-109096947D01*
X151164719Y-109102104D01*
X151222595Y-109318100D01*
X151222597Y-109318106D01*
X151319357Y-109525609D01*
X151446240Y-109706817D01*
X151450682Y-109713160D01*
X151612580Y-109875058D01*
X151800131Y-110006383D01*
X152007637Y-110103144D01*
X152228793Y-110162403D01*
X152456880Y-110182358D01*
X152684967Y-110162403D01*
X152906123Y-110103144D01*
X153113629Y-110006383D01*
X153301180Y-109875058D01*
X153463078Y-109713160D01*
X153594403Y-109525609D01*
X153691164Y-109318103D01*
X153750423Y-109096947D01*
X153770378Y-108868860D01*
X153750423Y-108640773D01*
X153691164Y-108419617D01*
X153594403Y-108212111D01*
X153463078Y-108024560D01*
X153301180Y-107862662D01*
X153213689Y-107801400D01*
X153144109Y-107752679D01*
X153099781Y-107697222D01*
X153090380Y-107649466D01*
X153090380Y-104954093D01*
X153092129Y-104938251D01*
X153091836Y-104938224D01*
X153092582Y-104930331D01*
X153090442Y-104862240D01*
X153090380Y-104858282D01*
X153090380Y-104830390D01*
X153090380Y-104830384D01*
X153089873Y-104826375D01*
X153088942Y-104814546D01*
X153087816Y-104778706D01*
X153087554Y-104770351D01*
X153081897Y-104750882D01*
X153077892Y-104731538D01*
X153075354Y-104711443D01*
X153059076Y-104670332D01*
X153055236Y-104659117D01*
X153042898Y-104616647D01*
X153032586Y-104599210D01*
X153023890Y-104581461D01*
X153016432Y-104562623D01*
X152990432Y-104526838D01*
X152983939Y-104516954D01*
X152961422Y-104478878D01*
X152947094Y-104464550D01*
X152934264Y-104449529D01*
X152922352Y-104433133D01*
X152922349Y-104433131D01*
X152922349Y-104433130D01*
X152888274Y-104404940D01*
X152879496Y-104396952D01*
X151628084Y-103145539D01*
X151618119Y-103133101D01*
X151617892Y-103133290D01*
X151612841Y-103127184D01*
X151612840Y-103127182D01*
X151610515Y-103124999D01*
X151566203Y-103083387D01*
X151563187Y-103080555D01*
X151560344Y-103077799D01*
X151540617Y-103058071D01*
X151540611Y-103058066D01*
X151537407Y-103055580D01*
X151528396Y-103047883D01*
X151496165Y-103017617D01*
X151496159Y-103017613D01*
X151478403Y-103007851D01*
X151461887Y-102997002D01*
X151445881Y-102984586D01*
X151405304Y-102967027D01*
X151394647Y-102961805D01*
X151355903Y-102940506D01*
X151355900Y-102940505D01*
X151336276Y-102935466D01*
X151317576Y-102929064D01*
X151298985Y-102921019D01*
X151298983Y-102921018D01*
X151298981Y-102921018D01*
X151255314Y-102914101D01*
X151243695Y-102911695D01*
X151200870Y-102900700D01*
X151180616Y-102900700D01*
X151160906Y-102899149D01*
X151140897Y-102895980D01*
X151106834Y-102899200D01*
X151096879Y-102900141D01*
X151085021Y-102900700D01*
X149529265Y-102900700D01*
X149461144Y-102880698D01*
X149414651Y-102827042D01*
X149404547Y-102756768D01*
X149411210Y-102730667D01*
X149432568Y-102673404D01*
X149432570Y-102673396D01*
X149439079Y-102612849D01*
X149439080Y-102612832D01*
X149439080Y-101915567D01*
X149439079Y-101915550D01*
X149432570Y-101855003D01*
X149432568Y-101854995D01*
X149381470Y-101717998D01*
X149381469Y-101717997D01*
X149381469Y-101717996D01*
X149371209Y-101704291D01*
X149346399Y-101637772D01*
X149361490Y-101568398D01*
X149371210Y-101553274D01*
X149381025Y-101540162D01*
X149432074Y-101403293D01*
X149438579Y-101342797D01*
X149438580Y-101342785D01*
X149438580Y-101248200D01*
X147702580Y-101248200D01*
X147634459Y-101228198D01*
X147587966Y-101174542D01*
X147576580Y-101122200D01*
X147576580Y-100221372D01*
X147596582Y-100153251D01*
X147613481Y-100132280D01*
X147647913Y-100097849D01*
X147779127Y-99910453D01*
X147834583Y-99866126D01*
X147905203Y-99858817D01*
X147968563Y-99890847D01*
X147985550Y-99910450D01*
X148020188Y-99959919D01*
X148079255Y-100044277D01*
X148101942Y-100111552D01*
X148084656Y-100180412D01*
X148084580Y-100180510D01*
X148084580Y-100740200D01*
X149438580Y-100740200D01*
X149438580Y-100653844D01*
X162701590Y-100653844D01*
X162721425Y-100867901D01*
X162780255Y-101074668D01*
X162780258Y-101074676D01*
X162876083Y-101267118D01*
X162897376Y-101295314D01*
X163005635Y-101438674D01*
X163164507Y-101583505D01*
X163347281Y-101696674D01*
X163347283Y-101696674D01*
X163347288Y-101696678D01*
X163547751Y-101774338D01*
X163759070Y-101813840D01*
X163759072Y-101813840D01*
X163974048Y-101813840D01*
X163974050Y-101813840D01*
X164185369Y-101774338D01*
X164385832Y-101696678D01*
X164568611Y-101583506D01*
X164727483Y-101438675D01*
X164739934Y-101422188D01*
X164754203Y-101403292D01*
X164857037Y-101267118D01*
X164952862Y-101074676D01*
X165011694Y-100867903D01*
X165011695Y-100867891D01*
X165012705Y-100862492D01*
X165044884Y-100799206D01*
X165106169Y-100763364D01*
X165177103Y-100766345D01*
X165235165Y-100807202D01*
X165260415Y-100862492D01*
X165261427Y-100867908D01*
X165320255Y-101074668D01*
X165320258Y-101074676D01*
X165416083Y-101267118D01*
X165437376Y-101295314D01*
X165545635Y-101438674D01*
X165704507Y-101583505D01*
X165887281Y-101696674D01*
X165887283Y-101696674D01*
X165887288Y-101696678D01*
X166087751Y-101774338D01*
X166299070Y-101813840D01*
X166299072Y-101813840D01*
X166514048Y-101813840D01*
X166514050Y-101813840D01*
X166725369Y-101774338D01*
X166925832Y-101696678D01*
X167108611Y-101583506D01*
X167267483Y-101438675D01*
X167279934Y-101422188D01*
X167294203Y-101403292D01*
X167397037Y-101267118D01*
X167492862Y-101074676D01*
X167551694Y-100867903D01*
X167551694Y-100867895D01*
X167552765Y-100862176D01*
X167554944Y-100862583D01*
X167577537Y-100805660D01*
X167635246Y-100764306D01*
X167706152Y-100760717D01*
X167767742Y-100796032D01*
X167800462Y-100859039D01*
X167801071Y-100863274D01*
X167801918Y-100867803D01*
X167860725Y-101074489D01*
X167956511Y-101266854D01*
X167964179Y-101277008D01*
X167964180Y-101277008D01*
X168563262Y-100677926D01*
X168562622Y-100685654D01*
X168593755Y-100808595D01*
X168663119Y-100914765D01*
X168763199Y-100992661D01*
X168883149Y-101033840D01*
X168925770Y-101033840D01*
X168326145Y-101633463D01*
X168427506Y-101696224D01*
X168427516Y-101696229D01*
X168627881Y-101773852D01*
X168839120Y-101813340D01*
X169054000Y-101813340D01*
X169265238Y-101773852D01*
X169465602Y-101696230D01*
X169465611Y-101696225D01*
X169566974Y-101633463D01*
X168967351Y-101033840D01*
X168978046Y-101033840D01*
X169071652Y-101018220D01*
X169183188Y-100957860D01*
X169269082Y-100864554D01*
X169320025Y-100748414D01*
X169326171Y-100674242D01*
X169928938Y-101277009D01*
X169936609Y-101266854D01*
X170032394Y-101074489D01*
X170091199Y-100867811D01*
X170111026Y-100653840D01*
X170091199Y-100439868D01*
X170032394Y-100233190D01*
X169936607Y-100040824D01*
X169928939Y-100030670D01*
X169329857Y-100629751D01*
X169330498Y-100622026D01*
X169299365Y-100499085D01*
X169230001Y-100392915D01*
X169129921Y-100315019D01*
X169009971Y-100273840D01*
X168967350Y-100273840D01*
X169566973Y-99674215D01*
X169465613Y-99611455D01*
X169465603Y-99611450D01*
X169265238Y-99533827D01*
X169054000Y-99494340D01*
X168839120Y-99494340D01*
X168627881Y-99533827D01*
X168427518Y-99611449D01*
X168427511Y-99611452D01*
X168326144Y-99674215D01*
X168925769Y-100273840D01*
X168915074Y-100273840D01*
X168821468Y-100289460D01*
X168709932Y-100349820D01*
X168624038Y-100443126D01*
X168573095Y-100559266D01*
X168566948Y-100633437D01*
X167964181Y-100030670D01*
X167964180Y-100030670D01*
X167956510Y-100040827D01*
X167860725Y-100233190D01*
X167801918Y-100439876D01*
X167800849Y-100445597D01*
X167798651Y-100445186D01*
X167776058Y-100502053D01*
X167718335Y-100543387D01*
X167647427Y-100546952D01*
X167585849Y-100511615D01*
X167553151Y-100448597D01*
X167552514Y-100444161D01*
X167551694Y-100439780D01*
X167551694Y-100439777D01*
X167492862Y-100233004D01*
X167397037Y-100040562D01*
X167298785Y-99910455D01*
X167267484Y-99869005D01*
X167108612Y-99724174D01*
X166925838Y-99611005D01*
X166925833Y-99611003D01*
X166925832Y-99611002D01*
X166925827Y-99611000D01*
X166725376Y-99533344D01*
X166725373Y-99533343D01*
X166725370Y-99533342D01*
X166725369Y-99533342D01*
X166514050Y-99493840D01*
X166299070Y-99493840D01*
X166087751Y-99533342D01*
X166087746Y-99533343D01*
X166087743Y-99533344D01*
X165887292Y-99611000D01*
X165887281Y-99611005D01*
X165704507Y-99724174D01*
X165545635Y-99869005D01*
X165416084Y-100040560D01*
X165320258Y-100233003D01*
X165320255Y-100233011D01*
X165261425Y-100439778D01*
X165260414Y-100445189D01*
X165228235Y-100508474D01*
X165166949Y-100544315D01*
X165096015Y-100541334D01*
X165037954Y-100500475D01*
X165012706Y-100445189D01*
X165011694Y-100439778D01*
X164998360Y-100392915D01*
X164952862Y-100233004D01*
X164857037Y-100040562D01*
X164758785Y-99910455D01*
X164727484Y-99869005D01*
X164568612Y-99724174D01*
X164385838Y-99611005D01*
X164385833Y-99611003D01*
X164385832Y-99611002D01*
X164385827Y-99611000D01*
X164185376Y-99533344D01*
X164185373Y-99533343D01*
X164185370Y-99533342D01*
X164185369Y-99533342D01*
X163974050Y-99493840D01*
X163759070Y-99493840D01*
X163547751Y-99533342D01*
X163547746Y-99533343D01*
X163547743Y-99533344D01*
X163347292Y-99611000D01*
X163347281Y-99611005D01*
X163164507Y-99724174D01*
X163005635Y-99869005D01*
X162876084Y-100040560D01*
X162780258Y-100233003D01*
X162780255Y-100233011D01*
X162721425Y-100439778D01*
X162701590Y-100653835D01*
X162701590Y-100653844D01*
X149438580Y-100653844D01*
X149438580Y-100643091D01*
X149458582Y-100574970D01*
X149512238Y-100528477D01*
X149531963Y-100521386D01*
X149614698Y-100499218D01*
X149828262Y-100399631D01*
X149837854Y-100392915D01*
X150021284Y-100264477D01*
X150021286Y-100264474D01*
X150021289Y-100264473D01*
X150187913Y-100097849D01*
X150194292Y-100088740D01*
X150323069Y-99904825D01*
X150323069Y-99904824D01*
X150323071Y-99904822D01*
X150422658Y-99691258D01*
X150483646Y-99463645D01*
X150504184Y-99228900D01*
X150483646Y-98994155D01*
X150422658Y-98766542D01*
X150323071Y-98552978D01*
X150323070Y-98552977D01*
X150323069Y-98552974D01*
X150187917Y-98359955D01*
X150187908Y-98359945D01*
X150021294Y-98193331D01*
X150021284Y-98193322D01*
X149828265Y-98058170D01*
X149828266Y-98058170D01*
X149614700Y-97958583D01*
X149614696Y-97958581D01*
X149387088Y-97897594D01*
X149152340Y-97877056D01*
X148917591Y-97897594D01*
X148689983Y-97958581D01*
X148689979Y-97958583D01*
X148476414Y-98058170D01*
X148283395Y-98193322D01*
X148283385Y-98193331D01*
X148116771Y-98359945D01*
X148116762Y-98359955D01*
X147985553Y-98547344D01*
X147930096Y-98591673D01*
X147859477Y-98598982D01*
X147796116Y-98566952D01*
X147779127Y-98547344D01*
X147647917Y-98359955D01*
X147647908Y-98359945D01*
X147481294Y-98193331D01*
X147481284Y-98193322D01*
X147288265Y-98058170D01*
X147288266Y-98058170D01*
X147074700Y-97958583D01*
X147074696Y-97958581D01*
X146847088Y-97897594D01*
X146612340Y-97877056D01*
X146377591Y-97897594D01*
X146149983Y-97958581D01*
X146149979Y-97958583D01*
X145936414Y-98058170D01*
X145743395Y-98193322D01*
X145743385Y-98193331D01*
X145576771Y-98359945D01*
X145576762Y-98359955D01*
X145445553Y-98547344D01*
X145390096Y-98591673D01*
X145319477Y-98598982D01*
X145256116Y-98566952D01*
X145239127Y-98547344D01*
X145107917Y-98359955D01*
X145107908Y-98359945D01*
X144941294Y-98193331D01*
X144941284Y-98193322D01*
X144748265Y-98058170D01*
X144748266Y-98058170D01*
X144534700Y-97958583D01*
X144534696Y-97958581D01*
X144307088Y-97897594D01*
X144072340Y-97877056D01*
X143837591Y-97897594D01*
X143609983Y-97958581D01*
X143609979Y-97958583D01*
X143396414Y-98058170D01*
X143203395Y-98193322D01*
X143203385Y-98193331D01*
X143036771Y-98359945D01*
X143036762Y-98359955D01*
X142905553Y-98547344D01*
X142850096Y-98591673D01*
X142779477Y-98598982D01*
X142716116Y-98566952D01*
X142699127Y-98547344D01*
X142567917Y-98359955D01*
X142567908Y-98359945D01*
X142401294Y-98193331D01*
X142401284Y-98193322D01*
X142208265Y-98058170D01*
X142208266Y-98058170D01*
X141994700Y-97958583D01*
X141994696Y-97958581D01*
X141767088Y-97897594D01*
X141532340Y-97877056D01*
X141297591Y-97897594D01*
X141069983Y-97958581D01*
X141069979Y-97958583D01*
X140856414Y-98058170D01*
X140663395Y-98193322D01*
X140663392Y-98193325D01*
X140496765Y-98359953D01*
X140496764Y-98359955D01*
X140457050Y-98416671D01*
X140401596Y-98460999D01*
X140353839Y-98470400D01*
X138812941Y-98470400D01*
X138794681Y-98469070D01*
X138770712Y-98465559D01*
X138770711Y-98465559D01*
X138730581Y-98469070D01*
X138720854Y-98469921D01*
X138709873Y-98470400D01*
X138704314Y-98470400D01*
X138673209Y-98474035D01*
X138669567Y-98474407D01*
X138594077Y-98481012D01*
X138586886Y-98482497D01*
X138586872Y-98482432D01*
X138579514Y-98484063D01*
X138579530Y-98484128D01*
X138572391Y-98485820D01*
X138572388Y-98485820D01*
X138572387Y-98485821D01*
X138542656Y-98496641D01*
X138501154Y-98511746D01*
X138497698Y-98512947D01*
X138425759Y-98536786D01*
X138419113Y-98539886D01*
X138419085Y-98539826D01*
X138412298Y-98543112D01*
X138412327Y-98543170D01*
X138405770Y-98546462D01*
X138342427Y-98588124D01*
X138339338Y-98590092D01*
X138274849Y-98629869D01*
X138269096Y-98634419D01*
X138269055Y-98634367D01*
X138263204Y-98639133D01*
X138263246Y-98639183D01*
X138257628Y-98643896D01*
X138205587Y-98699056D01*
X138203034Y-98701683D01*
X137870395Y-99034322D01*
X137847448Y-99052467D01*
X137787068Y-99089710D01*
X137781315Y-99094260D01*
X137781274Y-99094208D01*
X137775423Y-99098974D01*
X137775465Y-99099024D01*
X137769846Y-99103738D01*
X137725819Y-99150403D01*
X137664522Y-99186224D01*
X137623192Y-99189455D01*
X137460721Y-99175242D01*
X137460720Y-99175242D01*
X137395694Y-99180931D01*
X137232631Y-99195197D01*
X137117668Y-99226001D01*
X137046692Y-99224311D01*
X136987896Y-99184516D01*
X136959949Y-99119252D01*
X136959540Y-99115302D01*
X136958607Y-99104633D01*
X136958606Y-99104629D01*
X136957123Y-99097447D01*
X136957189Y-99097433D01*
X136955559Y-99090079D01*
X136955493Y-99090095D01*
X136953799Y-99082950D01*
X136953799Y-99082947D01*
X136927857Y-99011672D01*
X136926683Y-99008294D01*
X136902835Y-98936324D01*
X136899734Y-98929675D01*
X136899796Y-98929646D01*
X136896507Y-98922853D01*
X136896447Y-98922884D01*
X136893153Y-98916324D01*
X136876144Y-98890464D01*
X136851461Y-98852935D01*
X136849551Y-98849936D01*
X136809749Y-98785409D01*
X136809746Y-98785406D01*
X136805203Y-98779661D01*
X136805256Y-98779618D01*
X136800485Y-98773761D01*
X136800435Y-98773804D01*
X136795722Y-98768187D01*
X136795721Y-98768186D01*
X136740529Y-98716115D01*
X136737933Y-98713593D01*
X135952205Y-97927864D01*
X135940235Y-97914013D01*
X135925768Y-97894581D01*
X135887429Y-97862410D01*
X135879327Y-97854985D01*
X135875406Y-97851064D01*
X135850828Y-97831629D01*
X135847991Y-97829318D01*
X135789935Y-97780604D01*
X135783806Y-97776573D01*
X135783841Y-97776518D01*
X135777487Y-97772469D01*
X135777453Y-97772526D01*
X135771206Y-97768673D01*
X135702505Y-97736636D01*
X135699209Y-97735041D01*
X135690985Y-97730911D01*
X135631488Y-97701031D01*
X135631486Y-97701030D01*
X135631483Y-97701029D01*
X135624589Y-97698520D01*
X135624611Y-97698457D01*
X135617489Y-97695981D01*
X135617469Y-97696044D01*
X135610511Y-97693738D01*
X135536242Y-97678402D01*
X135532667Y-97677609D01*
X135458956Y-97660140D01*
X135451667Y-97659288D01*
X135451674Y-97659220D01*
X135444177Y-97658454D01*
X135444172Y-97658521D01*
X135436859Y-97657881D01*
X135436858Y-97657881D01*
X135390839Y-97659220D01*
X135361041Y-97660087D01*
X135357377Y-97660140D01*
X127521211Y-97660140D01*
X127453090Y-97640138D01*
X127432116Y-97623235D01*
X127081687Y-97272806D01*
X127047661Y-97210494D01*
X127052726Y-97139679D01*
X127095273Y-97082843D01*
X127137461Y-97051261D01*
X127225086Y-96934208D01*
X127225085Y-96934208D01*
X127225089Y-96934204D01*
X127269199Y-96815939D01*
X127311745Y-96759107D01*
X127378266Y-96734296D01*
X127447640Y-96749388D01*
X127479953Y-96774635D01*
X127500729Y-96797204D01*
X127540962Y-96840908D01*
X127595531Y-96883381D01*
X127718624Y-96979189D01*
X127916626Y-97086342D01*
X127916627Y-97086342D01*
X127916628Y-97086343D01*
X128028427Y-97124723D01*
X128129565Y-97159444D01*
X128351631Y-97196500D01*
X128351635Y-97196500D01*
X128576765Y-97196500D01*
X128576769Y-97196500D01*
X128798835Y-97159444D01*
X129011774Y-97086342D01*
X129209776Y-96979189D01*
X129387440Y-96840906D01*
X129539922Y-96675268D01*
X129628718Y-96539354D01*
X129682720Y-96493268D01*
X129753068Y-96483692D01*
X129817425Y-96513669D01*
X129839680Y-96539353D01*
X129872807Y-96590058D01*
X129928475Y-96675265D01*
X129928479Y-96675270D01*
X130080962Y-96840908D01*
X130135531Y-96883381D01*
X130258624Y-96979189D01*
X130456626Y-97086342D01*
X130456627Y-97086342D01*
X130456628Y-97086343D01*
X130568427Y-97124723D01*
X130669565Y-97159444D01*
X130891631Y-97196500D01*
X130891635Y-97196500D01*
X131116765Y-97196500D01*
X131116769Y-97196500D01*
X131338835Y-97159444D01*
X131551774Y-97086342D01*
X131749776Y-96979189D01*
X131927440Y-96840906D01*
X132079922Y-96675268D01*
X132168718Y-96539354D01*
X132222720Y-96493268D01*
X132293068Y-96483692D01*
X132357425Y-96513669D01*
X132379680Y-96539353D01*
X132412807Y-96590058D01*
X132468475Y-96675265D01*
X132468479Y-96675270D01*
X132620962Y-96840908D01*
X132675531Y-96883381D01*
X132798624Y-96979189D01*
X132996626Y-97086342D01*
X132996627Y-97086342D01*
X132996628Y-97086343D01*
X133108427Y-97124723D01*
X133209565Y-97159444D01*
X133431631Y-97196500D01*
X133431635Y-97196500D01*
X133656765Y-97196500D01*
X133656769Y-97196500D01*
X133878835Y-97159444D01*
X134091774Y-97086342D01*
X134289776Y-96979189D01*
X134467440Y-96840906D01*
X134619922Y-96675268D01*
X134708718Y-96539354D01*
X134762720Y-96493268D01*
X134833068Y-96483692D01*
X134897425Y-96513669D01*
X134919680Y-96539353D01*
X134952807Y-96590058D01*
X135008475Y-96675265D01*
X135008479Y-96675270D01*
X135160962Y-96840908D01*
X135215531Y-96883381D01*
X135338624Y-96979189D01*
X135536626Y-97086342D01*
X135536627Y-97086342D01*
X135536628Y-97086343D01*
X135648427Y-97124723D01*
X135749565Y-97159444D01*
X135971631Y-97196500D01*
X135971635Y-97196500D01*
X136196765Y-97196500D01*
X136196769Y-97196500D01*
X136418835Y-97159444D01*
X136631774Y-97086342D01*
X136829776Y-96979189D01*
X137007440Y-96840906D01*
X137159922Y-96675268D01*
X137248718Y-96539354D01*
X137302720Y-96493268D01*
X137373068Y-96483692D01*
X137437425Y-96513669D01*
X137459680Y-96539353D01*
X137492807Y-96590058D01*
X137548475Y-96675265D01*
X137548479Y-96675270D01*
X137700962Y-96840908D01*
X137755531Y-96883381D01*
X137878624Y-96979189D01*
X138076626Y-97086342D01*
X138076627Y-97086342D01*
X138076628Y-97086343D01*
X138188427Y-97124723D01*
X138289565Y-97159444D01*
X138511631Y-97196500D01*
X138511635Y-97196500D01*
X138736765Y-97196500D01*
X138736769Y-97196500D01*
X138958835Y-97159444D01*
X139171774Y-97086342D01*
X139369776Y-96979189D01*
X139547440Y-96840906D01*
X139699922Y-96675268D01*
X139788718Y-96539354D01*
X139842720Y-96493268D01*
X139913068Y-96483692D01*
X139977425Y-96513669D01*
X139999680Y-96539353D01*
X140032807Y-96590058D01*
X140088475Y-96675265D01*
X140088479Y-96675270D01*
X140240962Y-96840908D01*
X140295531Y-96883381D01*
X140418624Y-96979189D01*
X140616626Y-97086342D01*
X140616627Y-97086342D01*
X140616628Y-97086343D01*
X140728427Y-97124723D01*
X140829565Y-97159444D01*
X141051631Y-97196500D01*
X141051635Y-97196500D01*
X141276765Y-97196500D01*
X141276769Y-97196500D01*
X141498835Y-97159444D01*
X141711774Y-97086342D01*
X141909776Y-96979189D01*
X142087440Y-96840906D01*
X142239922Y-96675268D01*
X142328718Y-96539354D01*
X142382720Y-96493268D01*
X142453068Y-96483692D01*
X142517425Y-96513669D01*
X142539680Y-96539353D01*
X142572807Y-96590058D01*
X142628475Y-96675265D01*
X142628479Y-96675270D01*
X142780962Y-96840908D01*
X142835531Y-96883381D01*
X142958624Y-96979189D01*
X143156626Y-97086342D01*
X143156627Y-97086342D01*
X143156628Y-97086343D01*
X143268427Y-97124723D01*
X143369565Y-97159444D01*
X143591631Y-97196500D01*
X143591635Y-97196500D01*
X143816765Y-97196500D01*
X143816769Y-97196500D01*
X144038835Y-97159444D01*
X144251774Y-97086342D01*
X144449776Y-96979189D01*
X144627440Y-96840906D01*
X144779922Y-96675268D01*
X144868718Y-96539354D01*
X144922720Y-96493268D01*
X144993068Y-96483692D01*
X145057425Y-96513669D01*
X145079680Y-96539353D01*
X145112807Y-96590058D01*
X145168475Y-96675265D01*
X145168479Y-96675270D01*
X145320962Y-96840908D01*
X145375531Y-96883381D01*
X145498624Y-96979189D01*
X145696626Y-97086342D01*
X145696627Y-97086342D01*
X145696628Y-97086343D01*
X145808427Y-97124723D01*
X145909565Y-97159444D01*
X146131631Y-97196500D01*
X146131635Y-97196500D01*
X146356765Y-97196500D01*
X146356769Y-97196500D01*
X146578835Y-97159444D01*
X146791774Y-97086342D01*
X146989776Y-96979189D01*
X147167440Y-96840906D01*
X147319922Y-96675268D01*
X147408718Y-96539354D01*
X147462720Y-96493268D01*
X147533068Y-96483692D01*
X147597425Y-96513669D01*
X147619680Y-96539353D01*
X147652807Y-96590058D01*
X147708475Y-96675265D01*
X147708479Y-96675270D01*
X147860962Y-96840908D01*
X147915531Y-96883381D01*
X148038624Y-96979189D01*
X148236626Y-97086342D01*
X148236627Y-97086342D01*
X148236628Y-97086343D01*
X148348427Y-97124723D01*
X148449565Y-97159444D01*
X148671631Y-97196500D01*
X148671635Y-97196500D01*
X148896765Y-97196500D01*
X148896769Y-97196500D01*
X149118835Y-97159444D01*
X149331774Y-97086342D01*
X149529776Y-96979189D01*
X149707440Y-96840906D01*
X149859922Y-96675268D01*
X149948718Y-96539354D01*
X150002720Y-96493268D01*
X150073068Y-96483692D01*
X150137425Y-96513669D01*
X150159680Y-96539353D01*
X150192807Y-96590058D01*
X150248475Y-96675265D01*
X150248479Y-96675270D01*
X150400962Y-96840908D01*
X150455531Y-96883381D01*
X150578624Y-96979189D01*
X150776626Y-97086342D01*
X150776627Y-97086342D01*
X150776628Y-97086343D01*
X150888427Y-97124723D01*
X150989565Y-97159444D01*
X151211631Y-97196500D01*
X151211635Y-97196500D01*
X151436765Y-97196500D01*
X151436769Y-97196500D01*
X151658835Y-97159444D01*
X151871774Y-97086342D01*
X152069776Y-96979189D01*
X152247440Y-96840906D01*
X152399922Y-96675268D01*
X152488718Y-96539354D01*
X152542720Y-96493268D01*
X152613068Y-96483692D01*
X152677425Y-96513669D01*
X152699680Y-96539353D01*
X152732807Y-96590058D01*
X152788475Y-96675265D01*
X152788479Y-96675270D01*
X152940962Y-96840908D01*
X152995531Y-96883381D01*
X153118624Y-96979189D01*
X153316626Y-97086342D01*
X153316627Y-97086342D01*
X153316628Y-97086343D01*
X153428427Y-97124723D01*
X153529565Y-97159444D01*
X153751631Y-97196500D01*
X153751635Y-97196500D01*
X153976765Y-97196500D01*
X153976769Y-97196500D01*
X154198835Y-97159444D01*
X154411774Y-97086342D01*
X154609776Y-96979189D01*
X154787440Y-96840906D01*
X154939922Y-96675268D01*
X155028718Y-96539354D01*
X155082720Y-96493268D01*
X155153068Y-96483692D01*
X155217425Y-96513669D01*
X155239680Y-96539353D01*
X155272807Y-96590058D01*
X155328475Y-96675265D01*
X155328479Y-96675270D01*
X155480962Y-96840908D01*
X155535531Y-96883381D01*
X155658624Y-96979189D01*
X155856626Y-97086342D01*
X155856627Y-97086342D01*
X155856628Y-97086343D01*
X155968427Y-97124723D01*
X156069565Y-97159444D01*
X156291631Y-97196500D01*
X156291635Y-97196500D01*
X156516765Y-97196500D01*
X156516769Y-97196500D01*
X156738835Y-97159444D01*
X156951774Y-97086342D01*
X157149776Y-96979189D01*
X157327440Y-96840906D01*
X157479922Y-96675268D01*
X157568718Y-96539354D01*
X157622720Y-96493268D01*
X157693068Y-96483692D01*
X157757425Y-96513669D01*
X157779680Y-96539353D01*
X157812807Y-96590058D01*
X157868475Y-96675265D01*
X157868479Y-96675270D01*
X158020962Y-96840908D01*
X158075531Y-96883381D01*
X158198624Y-96979189D01*
X158396626Y-97086342D01*
X158396627Y-97086342D01*
X158396628Y-97086343D01*
X158508427Y-97124723D01*
X158609565Y-97159444D01*
X158831631Y-97196500D01*
X158831635Y-97196500D01*
X159056765Y-97196500D01*
X159056769Y-97196500D01*
X159278835Y-97159444D01*
X159491774Y-97086342D01*
X159689776Y-96979189D01*
X159867440Y-96840906D01*
X160019922Y-96675268D01*
X160108718Y-96539354D01*
X160162720Y-96493268D01*
X160233068Y-96483692D01*
X160297425Y-96513669D01*
X160319680Y-96539353D01*
X160352807Y-96590058D01*
X160408475Y-96675265D01*
X160408479Y-96675270D01*
X160560962Y-96840908D01*
X160615531Y-96883381D01*
X160738624Y-96979189D01*
X160936626Y-97086342D01*
X160936627Y-97086342D01*
X160936628Y-97086343D01*
X161048427Y-97124723D01*
X161149565Y-97159444D01*
X161371631Y-97196500D01*
X161371635Y-97196500D01*
X161596765Y-97196500D01*
X161596769Y-97196500D01*
X161818835Y-97159444D01*
X162031774Y-97086342D01*
X162229776Y-96979189D01*
X162407440Y-96840906D01*
X162559922Y-96675268D01*
X162648718Y-96539354D01*
X162702720Y-96493268D01*
X162773068Y-96483692D01*
X162837425Y-96513669D01*
X162859680Y-96539353D01*
X162892807Y-96590058D01*
X162948475Y-96675265D01*
X162948479Y-96675270D01*
X163100962Y-96840908D01*
X163155531Y-96883381D01*
X163278624Y-96979189D01*
X163476626Y-97086342D01*
X163476627Y-97086342D01*
X163476628Y-97086343D01*
X163588427Y-97124723D01*
X163689565Y-97159444D01*
X163911631Y-97196500D01*
X163911635Y-97196500D01*
X164136765Y-97196500D01*
X164136769Y-97196500D01*
X164358835Y-97159444D01*
X164571774Y-97086342D01*
X164769776Y-96979189D01*
X164947440Y-96840906D01*
X165099922Y-96675268D01*
X165188718Y-96539354D01*
X165242720Y-96493268D01*
X165313068Y-96483692D01*
X165377425Y-96513669D01*
X165399680Y-96539353D01*
X165432807Y-96590058D01*
X165488475Y-96675265D01*
X165488479Y-96675270D01*
X165640962Y-96840908D01*
X165695531Y-96883381D01*
X165818624Y-96979189D01*
X166016626Y-97086342D01*
X166016627Y-97086342D01*
X166016628Y-97086343D01*
X166128427Y-97124723D01*
X166229565Y-97159444D01*
X166451631Y-97196500D01*
X166451635Y-97196500D01*
X166676765Y-97196500D01*
X166676769Y-97196500D01*
X166898835Y-97159444D01*
X167111774Y-97086342D01*
X167309776Y-96979189D01*
X167487440Y-96840906D01*
X167639922Y-96675268D01*
X167728718Y-96539354D01*
X167782720Y-96493268D01*
X167853068Y-96483692D01*
X167917425Y-96513669D01*
X167939680Y-96539353D01*
X167972807Y-96590058D01*
X168028475Y-96675265D01*
X168028479Y-96675270D01*
X168180962Y-96840908D01*
X168235531Y-96883381D01*
X168358624Y-96979189D01*
X168556626Y-97086342D01*
X168556627Y-97086342D01*
X168556628Y-97086343D01*
X168668427Y-97124723D01*
X168769565Y-97159444D01*
X168991631Y-97196500D01*
X168991635Y-97196500D01*
X169216765Y-97196500D01*
X169216769Y-97196500D01*
X169438835Y-97159444D01*
X169651774Y-97086342D01*
X169849776Y-96979189D01*
X170027440Y-96840906D01*
X170179922Y-96675268D01*
X170268718Y-96539354D01*
X170322720Y-96493268D01*
X170393068Y-96483692D01*
X170457425Y-96513669D01*
X170479680Y-96539353D01*
X170512807Y-96590058D01*
X170568475Y-96675265D01*
X170568479Y-96675270D01*
X170720962Y-96840908D01*
X170775531Y-96883381D01*
X170898624Y-96979189D01*
X171096626Y-97086342D01*
X171096627Y-97086342D01*
X171096628Y-97086343D01*
X171208427Y-97124723D01*
X171309565Y-97159444D01*
X171531631Y-97196500D01*
X171531635Y-97196500D01*
X171756765Y-97196500D01*
X171756769Y-97196500D01*
X171978835Y-97159444D01*
X172191774Y-97086342D01*
X172389776Y-96979189D01*
X172567440Y-96840906D01*
X172719922Y-96675268D01*
X172808718Y-96539354D01*
X172862720Y-96493268D01*
X172933068Y-96483692D01*
X172997425Y-96513669D01*
X173019680Y-96539353D01*
X173052807Y-96590058D01*
X173108475Y-96675265D01*
X173108479Y-96675270D01*
X173260962Y-96840908D01*
X173315531Y-96883381D01*
X173438624Y-96979189D01*
X173636626Y-97086342D01*
X173636627Y-97086342D01*
X173636628Y-97086343D01*
X173748427Y-97124723D01*
X173849565Y-97159444D01*
X174071631Y-97196500D01*
X174071635Y-97196500D01*
X174296765Y-97196500D01*
X174296769Y-97196500D01*
X174518835Y-97159444D01*
X174731774Y-97086342D01*
X174929776Y-96979189D01*
X175107440Y-96840906D01*
X175259922Y-96675268D01*
X175383060Y-96486791D01*
X175473496Y-96280616D01*
X175528764Y-96062368D01*
X175547356Y-95838000D01*
X175528764Y-95613632D01*
X175528762Y-95613624D01*
X175473497Y-95395387D01*
X175473496Y-95395386D01*
X175473496Y-95395384D01*
X175383060Y-95189209D01*
X175365700Y-95162637D01*
X175259924Y-95000734D01*
X175259920Y-95000729D01*
X175107437Y-94835091D01*
X174987567Y-94741792D01*
X174929776Y-94696811D01*
X174896519Y-94678813D01*
X174874227Y-94656689D01*
X175927701Y-94656689D01*
X175958045Y-95009970D01*
X176028459Y-95357481D01*
X176028461Y-95357485D01*
X176138034Y-95694720D01*
X176285340Y-96017274D01*
X176468440Y-96320911D01*
X176468442Y-96320914D01*
X176468443Y-96320915D01*
X176684971Y-96601713D01*
X176932095Y-96855997D01*
X177206595Y-97080455D01*
X177504891Y-97272159D01*
X177823096Y-97428609D01*
X177823104Y-97428612D01*
X177823109Y-97428614D01*
X178071915Y-97517388D01*
X178109314Y-97530732D01*
X178157050Y-97547764D01*
X178157051Y-97547764D01*
X178157061Y-97547768D01*
X178502432Y-97628080D01*
X178854707Y-97668500D01*
X178854710Y-97668500D01*
X179120564Y-97668500D01*
X179120576Y-97668500D01*
X179386008Y-97653322D01*
X179735400Y-97592857D01*
X180075623Y-97492959D01*
X180402241Y-97354929D01*
X180710995Y-97180568D01*
X180997861Y-96972147D01*
X181259099Y-96732385D01*
X181491304Y-96464407D01*
X181691448Y-96171706D01*
X181856921Y-95858098D01*
X181985568Y-95527672D01*
X182075710Y-95184736D01*
X182116453Y-94901363D01*
X182126172Y-94833769D01*
X182126172Y-94833765D01*
X182126173Y-94833759D01*
X182136299Y-94479317D01*
X182105955Y-94126032D01*
X182075082Y-93973669D01*
X182035540Y-93778518D01*
X182035538Y-93778514D01*
X182035537Y-93778508D01*
X181925964Y-93441277D01*
X181778664Y-93118734D01*
X181685553Y-92964327D01*
X181595559Y-92815088D01*
X181592710Y-92811393D01*
X181379029Y-92534287D01*
X181131905Y-92280003D01*
X180857405Y-92055545D01*
X180848957Y-92050116D01*
X180559109Y-91863841D01*
X180559100Y-91863836D01*
X180240908Y-91707393D01*
X180240890Y-91707385D01*
X179906949Y-91588235D01*
X179906950Y-91588235D01*
X179906942Y-91588233D01*
X179906939Y-91588232D01*
X179680620Y-91535604D01*
X179561569Y-91507920D01*
X179473499Y-91497815D01*
X179209293Y-91467500D01*
X178943424Y-91467500D01*
X178677992Y-91482678D01*
X178328600Y-91543143D01*
X177988382Y-91643039D01*
X177988380Y-91643039D01*
X177836102Y-91707393D01*
X177661759Y-91781071D01*
X177661755Y-91781072D01*
X177661753Y-91781074D01*
X177353010Y-91955428D01*
X177353001Y-91955434D01*
X177066142Y-92163850D01*
X176804902Y-92403613D01*
X176804900Y-92403615D01*
X176572696Y-92671592D01*
X176572692Y-92671597D01*
X176372557Y-92964285D01*
X176372554Y-92964289D01*
X176207076Y-93277908D01*
X176078434Y-93608321D01*
X176078430Y-93608332D01*
X175988291Y-93951255D01*
X175988289Y-93951265D01*
X175937827Y-94302230D01*
X175937827Y-94302234D01*
X175927701Y-94656689D01*
X174874227Y-94656689D01*
X174846129Y-94628802D01*
X174830776Y-94559485D01*
X174855336Y-94492872D01*
X174896520Y-94457186D01*
X174897047Y-94456901D01*
X174929776Y-94439189D01*
X175107440Y-94300906D01*
X175259922Y-94135268D01*
X175260127Y-94134955D01*
X175321824Y-94040520D01*
X175383060Y-93946791D01*
X175473496Y-93740616D01*
X175528764Y-93522368D01*
X175547356Y-93298000D01*
X175528764Y-93073632D01*
X175473496Y-92855384D01*
X175383060Y-92649209D01*
X175365797Y-92622786D01*
X175259924Y-92460734D01*
X175259920Y-92460729D01*
X175143770Y-92334559D01*
X175107440Y-92295094D01*
X175107439Y-92295093D01*
X175107437Y-92295091D01*
X174938823Y-92163853D01*
X174929776Y-92156811D01*
X174731774Y-92049658D01*
X174731772Y-92049657D01*
X174731771Y-92049656D01*
X174518839Y-91976557D01*
X174518830Y-91976555D01*
X174441229Y-91963606D01*
X174296769Y-91939500D01*
X174071631Y-91939500D01*
X173927171Y-91963606D01*
X173849569Y-91976555D01*
X173849560Y-91976557D01*
X173636628Y-92049656D01*
X173636626Y-92049658D01*
X173438626Y-92156810D01*
X173438624Y-92156811D01*
X173260962Y-92295091D01*
X173108479Y-92460729D01*
X173019683Y-92596643D01*
X172965679Y-92642731D01*
X172895331Y-92652306D01*
X172830974Y-92622329D01*
X172808717Y-92596643D01*
X172719920Y-92460729D01*
X172603770Y-92334559D01*
X172567440Y-92295094D01*
X172567439Y-92295093D01*
X172567437Y-92295091D01*
X172398823Y-92163853D01*
X172389776Y-92156811D01*
X172191774Y-92049658D01*
X172191772Y-92049657D01*
X172191771Y-92049656D01*
X171978839Y-91976557D01*
X171978830Y-91976555D01*
X171901229Y-91963606D01*
X171756769Y-91939500D01*
X171531631Y-91939500D01*
X171387171Y-91963606D01*
X171309569Y-91976555D01*
X171309560Y-91976557D01*
X171096628Y-92049656D01*
X171096626Y-92049658D01*
X170898626Y-92156810D01*
X170898624Y-92156811D01*
X170720962Y-92295091D01*
X170568479Y-92460729D01*
X170479683Y-92596643D01*
X170425679Y-92642731D01*
X170355331Y-92652306D01*
X170290974Y-92622329D01*
X170268717Y-92596643D01*
X170179920Y-92460729D01*
X170063770Y-92334559D01*
X170027440Y-92295094D01*
X170027439Y-92295093D01*
X170027437Y-92295091D01*
X169858823Y-92163853D01*
X169849776Y-92156811D01*
X169651774Y-92049658D01*
X169651772Y-92049657D01*
X169651771Y-92049656D01*
X169438839Y-91976557D01*
X169438830Y-91976555D01*
X169361229Y-91963606D01*
X169216769Y-91939500D01*
X168991631Y-91939500D01*
X168847171Y-91963606D01*
X168769569Y-91976555D01*
X168769560Y-91976557D01*
X168556628Y-92049656D01*
X168556626Y-92049658D01*
X168358626Y-92156810D01*
X168358624Y-92156811D01*
X168180962Y-92295091D01*
X168028479Y-92460729D01*
X167939683Y-92596643D01*
X167885679Y-92642731D01*
X167815331Y-92652306D01*
X167750974Y-92622329D01*
X167728717Y-92596643D01*
X167639920Y-92460729D01*
X167523770Y-92334559D01*
X167487440Y-92295094D01*
X167487439Y-92295093D01*
X167487437Y-92295091D01*
X167318823Y-92163853D01*
X167309776Y-92156811D01*
X167111774Y-92049658D01*
X167111772Y-92049657D01*
X167111771Y-92049656D01*
X166898839Y-91976557D01*
X166898830Y-91976555D01*
X166821229Y-91963606D01*
X166676769Y-91939500D01*
X166451631Y-91939500D01*
X166307171Y-91963606D01*
X166229569Y-91976555D01*
X166229560Y-91976557D01*
X166016628Y-92049656D01*
X166016626Y-92049658D01*
X165818626Y-92156810D01*
X165818624Y-92156811D01*
X165640962Y-92295091D01*
X165488479Y-92460729D01*
X165399683Y-92596643D01*
X165345679Y-92642731D01*
X165275331Y-92652306D01*
X165210974Y-92622329D01*
X165188717Y-92596643D01*
X165099920Y-92460729D01*
X164983770Y-92334559D01*
X164947440Y-92295094D01*
X164947439Y-92295093D01*
X164947437Y-92295091D01*
X164778823Y-92163853D01*
X164769776Y-92156811D01*
X164571774Y-92049658D01*
X164571772Y-92049657D01*
X164571771Y-92049656D01*
X164358839Y-91976557D01*
X164358830Y-91976555D01*
X164281229Y-91963606D01*
X164136769Y-91939500D01*
X163911631Y-91939500D01*
X163767171Y-91963606D01*
X163689569Y-91976555D01*
X163689560Y-91976557D01*
X163476628Y-92049656D01*
X163476626Y-92049658D01*
X163278626Y-92156810D01*
X163278624Y-92156811D01*
X163100962Y-92295091D01*
X162948479Y-92460729D01*
X162859683Y-92596643D01*
X162805679Y-92642731D01*
X162735331Y-92652306D01*
X162670974Y-92622329D01*
X162648717Y-92596643D01*
X162559920Y-92460729D01*
X162443770Y-92334559D01*
X162407440Y-92295094D01*
X162407439Y-92295093D01*
X162407437Y-92295091D01*
X162238823Y-92163853D01*
X162229776Y-92156811D01*
X162031774Y-92049658D01*
X162031772Y-92049657D01*
X162031771Y-92049656D01*
X161818839Y-91976557D01*
X161818830Y-91976555D01*
X161741229Y-91963606D01*
X161596769Y-91939500D01*
X161371631Y-91939500D01*
X161227171Y-91963606D01*
X161149569Y-91976555D01*
X161149560Y-91976557D01*
X160936628Y-92049656D01*
X160936626Y-92049658D01*
X160738626Y-92156810D01*
X160738624Y-92156811D01*
X160560962Y-92295091D01*
X160408479Y-92460729D01*
X160319683Y-92596643D01*
X160265679Y-92642731D01*
X160195331Y-92652306D01*
X160130974Y-92622329D01*
X160108717Y-92596643D01*
X160019920Y-92460729D01*
X159903770Y-92334559D01*
X159867440Y-92295094D01*
X159867439Y-92295093D01*
X159867437Y-92295091D01*
X159698823Y-92163853D01*
X159689776Y-92156811D01*
X159491774Y-92049658D01*
X159491772Y-92049657D01*
X159491771Y-92049656D01*
X159278839Y-91976557D01*
X159278830Y-91976555D01*
X159201229Y-91963606D01*
X159056769Y-91939500D01*
X158831631Y-91939500D01*
X158687171Y-91963606D01*
X158609569Y-91976555D01*
X158609560Y-91976557D01*
X158396628Y-92049656D01*
X158396626Y-92049658D01*
X158198626Y-92156810D01*
X158198624Y-92156811D01*
X158020962Y-92295091D01*
X157868479Y-92460729D01*
X157779683Y-92596643D01*
X157725679Y-92642731D01*
X157655331Y-92652306D01*
X157590974Y-92622329D01*
X157568717Y-92596643D01*
X157479920Y-92460729D01*
X157363770Y-92334559D01*
X157327440Y-92295094D01*
X157327439Y-92295093D01*
X157327437Y-92295091D01*
X157158823Y-92163853D01*
X157149776Y-92156811D01*
X156951774Y-92049658D01*
X156951772Y-92049657D01*
X156951771Y-92049656D01*
X156738839Y-91976557D01*
X156738830Y-91976555D01*
X156661229Y-91963606D01*
X156516769Y-91939500D01*
X156291631Y-91939500D01*
X156147171Y-91963606D01*
X156069569Y-91976555D01*
X156069560Y-91976557D01*
X155856628Y-92049656D01*
X155856626Y-92049658D01*
X155658626Y-92156810D01*
X155658624Y-92156811D01*
X155480962Y-92295091D01*
X155328479Y-92460729D01*
X155239683Y-92596643D01*
X155185679Y-92642731D01*
X155115331Y-92652306D01*
X155050974Y-92622329D01*
X155028717Y-92596643D01*
X154939920Y-92460729D01*
X154823770Y-92334559D01*
X154787440Y-92295094D01*
X154787439Y-92295093D01*
X154787437Y-92295091D01*
X154618823Y-92163853D01*
X154609776Y-92156811D01*
X154411774Y-92049658D01*
X154411772Y-92049657D01*
X154411771Y-92049656D01*
X154198839Y-91976557D01*
X154198830Y-91976555D01*
X154121229Y-91963606D01*
X153976769Y-91939500D01*
X153751631Y-91939500D01*
X153607171Y-91963606D01*
X153529569Y-91976555D01*
X153529560Y-91976557D01*
X153316628Y-92049656D01*
X153316626Y-92049658D01*
X153118626Y-92156810D01*
X153118624Y-92156811D01*
X152940962Y-92295091D01*
X152788479Y-92460729D01*
X152699683Y-92596643D01*
X152645679Y-92642731D01*
X152575331Y-92652306D01*
X152510974Y-92622329D01*
X152488717Y-92596643D01*
X152399920Y-92460729D01*
X152283770Y-92334559D01*
X152247440Y-92295094D01*
X152247439Y-92295093D01*
X152247437Y-92295091D01*
X152078823Y-92163853D01*
X152069776Y-92156811D01*
X151871774Y-92049658D01*
X151871772Y-92049657D01*
X151871771Y-92049656D01*
X151658839Y-91976557D01*
X151658830Y-91976555D01*
X151581229Y-91963606D01*
X151436769Y-91939500D01*
X151211631Y-91939500D01*
X151067171Y-91963606D01*
X150989569Y-91976555D01*
X150989560Y-91976557D01*
X150776628Y-92049656D01*
X150776626Y-92049658D01*
X150578626Y-92156810D01*
X150578624Y-92156811D01*
X150400962Y-92295091D01*
X150248479Y-92460729D01*
X150159683Y-92596643D01*
X150105679Y-92642731D01*
X150035331Y-92652306D01*
X149970974Y-92622329D01*
X149948717Y-92596643D01*
X149859920Y-92460729D01*
X149743770Y-92334559D01*
X149707440Y-92295094D01*
X149707439Y-92295093D01*
X149707437Y-92295091D01*
X149538823Y-92163853D01*
X149529776Y-92156811D01*
X149331774Y-92049658D01*
X149331772Y-92049657D01*
X149331771Y-92049656D01*
X149118839Y-91976557D01*
X149118830Y-91976555D01*
X149041229Y-91963606D01*
X148896769Y-91939500D01*
X148671631Y-91939500D01*
X148527171Y-91963606D01*
X148449569Y-91976555D01*
X148449560Y-91976557D01*
X148236628Y-92049656D01*
X148236626Y-92049658D01*
X148038626Y-92156810D01*
X148038624Y-92156811D01*
X147860962Y-92295091D01*
X147708479Y-92460729D01*
X147619683Y-92596643D01*
X147565679Y-92642731D01*
X147495331Y-92652306D01*
X147430974Y-92622329D01*
X147408717Y-92596643D01*
X147319920Y-92460729D01*
X147203770Y-92334559D01*
X147167440Y-92295094D01*
X147167439Y-92295093D01*
X147167437Y-92295091D01*
X146998823Y-92163853D01*
X146989776Y-92156811D01*
X146791774Y-92049658D01*
X146791772Y-92049657D01*
X146791771Y-92049656D01*
X146578839Y-91976557D01*
X146578830Y-91976555D01*
X146501229Y-91963606D01*
X146356769Y-91939500D01*
X146131631Y-91939500D01*
X145987171Y-91963606D01*
X145909569Y-91976555D01*
X145909560Y-91976557D01*
X145696628Y-92049656D01*
X145696626Y-92049658D01*
X145498626Y-92156810D01*
X145498624Y-92156811D01*
X145320962Y-92295091D01*
X145168479Y-92460729D01*
X145079683Y-92596643D01*
X145025679Y-92642731D01*
X144955331Y-92652306D01*
X144890974Y-92622329D01*
X144868717Y-92596643D01*
X144779920Y-92460729D01*
X144663770Y-92334559D01*
X144627440Y-92295094D01*
X144627439Y-92295093D01*
X144627437Y-92295091D01*
X144458823Y-92163853D01*
X144449776Y-92156811D01*
X144251774Y-92049658D01*
X144251772Y-92049657D01*
X144251771Y-92049656D01*
X144038839Y-91976557D01*
X144038830Y-91976555D01*
X143961229Y-91963606D01*
X143816769Y-91939500D01*
X143591631Y-91939500D01*
X143447171Y-91963606D01*
X143369569Y-91976555D01*
X143369560Y-91976557D01*
X143156628Y-92049656D01*
X143156626Y-92049658D01*
X142958626Y-92156810D01*
X142958624Y-92156811D01*
X142780962Y-92295091D01*
X142628479Y-92460729D01*
X142539683Y-92596643D01*
X142485679Y-92642731D01*
X142415331Y-92652306D01*
X142350974Y-92622329D01*
X142328717Y-92596643D01*
X142239920Y-92460729D01*
X142123770Y-92334559D01*
X142087440Y-92295094D01*
X142087439Y-92295093D01*
X142087437Y-92295091D01*
X141918823Y-92163853D01*
X141909776Y-92156811D01*
X141711774Y-92049658D01*
X141711772Y-92049657D01*
X141711771Y-92049656D01*
X141498839Y-91976557D01*
X141498830Y-91976555D01*
X141421229Y-91963606D01*
X141276769Y-91939500D01*
X141051631Y-91939500D01*
X140907171Y-91963606D01*
X140829569Y-91976555D01*
X140829560Y-91976557D01*
X140616628Y-92049656D01*
X140616626Y-92049658D01*
X140418626Y-92156810D01*
X140418624Y-92156811D01*
X140240962Y-92295091D01*
X140088479Y-92460729D01*
X139999683Y-92596643D01*
X139945679Y-92642731D01*
X139875331Y-92652306D01*
X139810974Y-92622329D01*
X139788717Y-92596643D01*
X139699920Y-92460729D01*
X139583770Y-92334559D01*
X139547440Y-92295094D01*
X139547439Y-92295093D01*
X139547437Y-92295091D01*
X139378823Y-92163853D01*
X139369776Y-92156811D01*
X139171774Y-92049658D01*
X139171772Y-92049657D01*
X139171771Y-92049656D01*
X138958839Y-91976557D01*
X138958830Y-91976555D01*
X138881229Y-91963606D01*
X138736769Y-91939500D01*
X138511631Y-91939500D01*
X138367171Y-91963606D01*
X138289569Y-91976555D01*
X138289560Y-91976557D01*
X138076628Y-92049656D01*
X138076626Y-92049658D01*
X137878626Y-92156810D01*
X137878624Y-92156811D01*
X137700962Y-92295091D01*
X137548479Y-92460729D01*
X137459683Y-92596643D01*
X137405679Y-92642731D01*
X137335331Y-92652306D01*
X137270974Y-92622329D01*
X137248717Y-92596643D01*
X137159920Y-92460729D01*
X137043770Y-92334559D01*
X137007440Y-92295094D01*
X137007439Y-92295093D01*
X137007437Y-92295091D01*
X136838823Y-92163853D01*
X136829776Y-92156811D01*
X136631774Y-92049658D01*
X136631772Y-92049657D01*
X136631771Y-92049656D01*
X136418839Y-91976557D01*
X136418830Y-91976555D01*
X136341229Y-91963606D01*
X136196769Y-91939500D01*
X135971631Y-91939500D01*
X135827171Y-91963606D01*
X135749569Y-91976555D01*
X135749560Y-91976557D01*
X135536628Y-92049656D01*
X135536626Y-92049658D01*
X135338626Y-92156810D01*
X135338624Y-92156811D01*
X135160962Y-92295091D01*
X135008479Y-92460729D01*
X134919683Y-92596643D01*
X134865679Y-92642731D01*
X134795331Y-92652306D01*
X134730974Y-92622329D01*
X134708717Y-92596643D01*
X134619920Y-92460729D01*
X134503770Y-92334559D01*
X134467440Y-92295094D01*
X134467439Y-92295093D01*
X134467437Y-92295091D01*
X134298823Y-92163853D01*
X134289776Y-92156811D01*
X134091774Y-92049658D01*
X134091772Y-92049657D01*
X134091771Y-92049656D01*
X133878839Y-91976557D01*
X133878830Y-91976555D01*
X133801229Y-91963606D01*
X133656769Y-91939500D01*
X133431631Y-91939500D01*
X133287171Y-91963606D01*
X133209569Y-91976555D01*
X133209560Y-91976557D01*
X132996628Y-92049656D01*
X132996626Y-92049658D01*
X132798626Y-92156810D01*
X132798624Y-92156811D01*
X132620962Y-92295091D01*
X132468479Y-92460729D01*
X132379383Y-92597101D01*
X132325379Y-92643189D01*
X132255031Y-92652764D01*
X132190674Y-92622786D01*
X132168417Y-92597100D01*
X132079527Y-92461044D01*
X131927102Y-92295465D01*
X131749501Y-92157232D01*
X131749500Y-92157231D01*
X131551571Y-92050117D01*
X131551569Y-92050116D01*
X131338712Y-91977043D01*
X131338701Y-91977040D01*
X131258200Y-91963606D01*
X131258200Y-92864325D01*
X131146515Y-92813320D01*
X131039963Y-92798000D01*
X130968437Y-92798000D01*
X130861885Y-92813320D01*
X130750200Y-92864325D01*
X130750200Y-91963607D01*
X130750199Y-91963606D01*
X130669698Y-91977040D01*
X130669687Y-91977043D01*
X130456830Y-92050116D01*
X130456828Y-92050117D01*
X130258899Y-92157231D01*
X130258898Y-92157232D01*
X130081297Y-92295465D01*
X129928870Y-92461045D01*
X129839980Y-92597101D01*
X129785976Y-92643189D01*
X129715628Y-92652764D01*
X129651271Y-92622786D01*
X129629016Y-92597101D01*
X129569698Y-92506307D01*
X129539924Y-92460734D01*
X129539920Y-92460729D01*
X129423770Y-92334559D01*
X129387440Y-92295094D01*
X129387439Y-92295093D01*
X129387437Y-92295091D01*
X129218823Y-92163853D01*
X129209776Y-92156811D01*
X129011774Y-92049658D01*
X129011772Y-92049657D01*
X129011771Y-92049656D01*
X128798839Y-91976557D01*
X128798830Y-91976555D01*
X128721229Y-91963606D01*
X128576769Y-91939500D01*
X128351631Y-91939500D01*
X128207171Y-91963606D01*
X128129569Y-91976555D01*
X128129560Y-91976557D01*
X127916628Y-92049656D01*
X127916626Y-92049658D01*
X127718626Y-92156810D01*
X127718624Y-92156811D01*
X127540962Y-92295091D01*
X127388479Y-92460729D01*
X127299683Y-92596643D01*
X127245679Y-92642731D01*
X127175331Y-92652306D01*
X127110974Y-92622329D01*
X127088717Y-92596643D01*
X126999920Y-92460729D01*
X126883770Y-92334559D01*
X126847440Y-92295094D01*
X126847439Y-92295093D01*
X126847437Y-92295091D01*
X126678823Y-92163853D01*
X126669776Y-92156811D01*
X126471774Y-92049658D01*
X126471772Y-92049657D01*
X126471771Y-92049656D01*
X126258839Y-91976557D01*
X126258830Y-91976555D01*
X126181229Y-91963606D01*
X126036769Y-91939500D01*
X125811631Y-91939500D01*
X125667171Y-91963606D01*
X125589569Y-91976555D01*
X125589560Y-91976557D01*
X125376628Y-92049656D01*
X125376626Y-92049658D01*
X125178626Y-92156810D01*
X125178624Y-92156811D01*
X125000962Y-92295091D01*
X124848479Y-92460729D01*
X124848475Y-92460734D01*
X124725341Y-92649206D01*
X124634903Y-92855386D01*
X124634902Y-92855387D01*
X124579637Y-93073624D01*
X124579636Y-93073630D01*
X124579636Y-93073632D01*
X124561044Y-93298000D01*
X124578432Y-93507844D01*
X124579637Y-93522375D01*
X124634902Y-93740612D01*
X124634903Y-93740613D01*
X124634904Y-93740616D01*
X124653355Y-93782680D01*
X124725341Y-93946793D01*
X124848475Y-94135265D01*
X124848480Y-94135270D01*
X124991675Y-94290820D01*
X125023096Y-94354485D01*
X125015109Y-94425031D01*
X124970251Y-94480060D01*
X124943007Y-94494213D01*
X124827997Y-94537110D01*
X124827992Y-94537112D01*
X124710938Y-94624738D01*
X124623312Y-94741792D01*
X124623310Y-94741797D01*
X124572211Y-94878795D01*
X124572209Y-94878803D01*
X124565700Y-94939350D01*
X124565700Y-96736649D01*
X124572209Y-96797196D01*
X124572211Y-96797204D01*
X124623310Y-96934202D01*
X124623312Y-96934207D01*
X124710938Y-97051261D01*
X124827992Y-97138887D01*
X124827994Y-97138888D01*
X124827996Y-97138889D01*
X124880896Y-97158620D01*
X124964995Y-97189988D01*
X124965003Y-97189990D01*
X125025550Y-97196499D01*
X125025555Y-97196499D01*
X125025562Y-97196500D01*
X125048088Y-97196500D01*
X125116209Y-97216502D01*
X125162702Y-97270158D01*
X125173608Y-97311517D01*
X125176311Y-97342418D01*
X125177796Y-97349606D01*
X125177731Y-97349619D01*
X125179365Y-97356989D01*
X125179429Y-97356975D01*
X125181121Y-97364116D01*
X125207046Y-97435342D01*
X125208249Y-97438804D01*
X125232084Y-97510735D01*
X125235187Y-97517388D01*
X125235126Y-97517416D01*
X125238411Y-97524202D01*
X125238470Y-97524173D01*
X125241763Y-97530730D01*
X125283432Y-97594084D01*
X125285371Y-97597127D01*
X125323671Y-97659220D01*
X125325172Y-97661654D01*
X125329722Y-97667408D01*
X125329668Y-97667450D01*
X125334428Y-97673292D01*
X125334479Y-97673250D01*
X125339197Y-97678872D01*
X125394355Y-97730911D01*
X125396984Y-97733465D01*
X126572932Y-98909413D01*
X126584905Y-98923267D01*
X126599372Y-98942700D01*
X126612789Y-98953958D01*
X126652116Y-99013067D01*
X126653243Y-99084055D01*
X126615813Y-99144383D01*
X126551708Y-99174897D01*
X126542781Y-99176001D01*
X126317717Y-99195691D01*
X126096651Y-99254926D01*
X126096645Y-99254928D01*
X125973970Y-99312133D01*
X125903778Y-99322794D01*
X125867470Y-99312133D01*
X125744794Y-99254928D01*
X125744788Y-99254926D01*
X125523720Y-99195691D01*
X125523724Y-99195691D01*
X125295720Y-99175744D01*
X125067717Y-99195691D01*
X124846651Y-99254926D01*
X124846646Y-99254928D01*
X124639220Y-99351653D01*
X124567829Y-99401639D01*
X125256203Y-100090012D01*
X125170572Y-100103575D01*
X125057675Y-100161099D01*
X124968079Y-100250695D01*
X124910555Y-100363592D01*
X124896992Y-100449221D01*
X124208620Y-99760849D01*
X124158633Y-99832240D01*
X124061908Y-100039666D01*
X124061906Y-100039671D01*
X124002671Y-100260737D01*
X123982724Y-100488740D01*
X121609218Y-100488740D01*
X121589263Y-100260653D01*
X121530004Y-100039497D01*
X121433243Y-99831991D01*
X121301918Y-99644440D01*
X121140020Y-99482542D01*
X121113032Y-99463645D01*
X120952469Y-99351217D01*
X120744966Y-99254457D01*
X120744960Y-99254455D01*
X120632461Y-99224311D01*
X120523807Y-99195197D01*
X120295720Y-99175242D01*
X120067633Y-99195197D01*
X119846479Y-99254455D01*
X119846469Y-99254459D01*
X119723969Y-99311581D01*
X119653778Y-99322242D01*
X119617471Y-99311581D01*
X119494970Y-99254459D01*
X119494966Y-99254457D01*
X119494963Y-99254456D01*
X119494961Y-99254455D01*
X119494960Y-99254455D01*
X119382461Y-99224311D01*
X119273807Y-99195197D01*
X119045720Y-99175242D01*
X118817633Y-99195197D01*
X118596479Y-99254455D01*
X118596473Y-99254457D01*
X118388970Y-99351217D01*
X118201423Y-99482539D01*
X118201417Y-99482544D01*
X118039524Y-99644437D01*
X118039519Y-99644443D01*
X117908197Y-99831990D01*
X117847695Y-99961738D01*
X117800778Y-100015023D01*
X117732500Y-100034484D01*
X117664541Y-100013942D01*
X117618475Y-99959919D01*
X117607500Y-99908488D01*
X117607500Y-94656689D01*
X117927701Y-94656689D01*
X117958045Y-95009970D01*
X118028459Y-95357481D01*
X118028461Y-95357485D01*
X118138034Y-95694720D01*
X118285340Y-96017274D01*
X118468440Y-96320911D01*
X118468442Y-96320914D01*
X118468443Y-96320915D01*
X118684971Y-96601713D01*
X118932095Y-96855997D01*
X119206595Y-97080455D01*
X119504891Y-97272159D01*
X119823096Y-97428609D01*
X119823104Y-97428612D01*
X119823109Y-97428614D01*
X120071915Y-97517388D01*
X120109314Y-97530732D01*
X120157050Y-97547764D01*
X120157051Y-97547764D01*
X120157061Y-97547768D01*
X120502432Y-97628080D01*
X120854707Y-97668500D01*
X120854710Y-97668500D01*
X121120564Y-97668500D01*
X121120576Y-97668500D01*
X121386008Y-97653322D01*
X121735400Y-97592857D01*
X122075623Y-97492959D01*
X122402241Y-97354929D01*
X122710995Y-97180568D01*
X122997861Y-96972147D01*
X123259099Y-96732385D01*
X123491304Y-96464407D01*
X123691448Y-96171706D01*
X123856921Y-95858098D01*
X123985568Y-95527672D01*
X124075710Y-95184736D01*
X124116453Y-94901363D01*
X124126172Y-94833769D01*
X124126172Y-94833765D01*
X124126173Y-94833759D01*
X124136299Y-94479317D01*
X124105955Y-94126032D01*
X124075082Y-93973669D01*
X124035540Y-93778518D01*
X124035538Y-93778514D01*
X124035537Y-93778508D01*
X123925964Y-93441277D01*
X123778664Y-93118734D01*
X123685553Y-92964327D01*
X123595559Y-92815088D01*
X123592710Y-92811393D01*
X123379029Y-92534287D01*
X123131905Y-92280003D01*
X122857405Y-92055545D01*
X122848957Y-92050116D01*
X122559109Y-91863841D01*
X122559100Y-91863836D01*
X122240908Y-91707393D01*
X122240890Y-91707385D01*
X121906949Y-91588235D01*
X121906950Y-91588235D01*
X121906942Y-91588233D01*
X121906939Y-91588232D01*
X121680620Y-91535604D01*
X121561569Y-91507920D01*
X121473499Y-91497815D01*
X121209293Y-91467500D01*
X120943424Y-91467500D01*
X120677992Y-91482678D01*
X120328600Y-91543143D01*
X119988382Y-91643039D01*
X119988380Y-91643039D01*
X119836102Y-91707393D01*
X119661759Y-91781071D01*
X119661755Y-91781072D01*
X119661753Y-91781074D01*
X119353010Y-91955428D01*
X119353001Y-91955434D01*
X119066142Y-92163850D01*
X118804902Y-92403613D01*
X118804900Y-92403615D01*
X118572696Y-92671592D01*
X118572692Y-92671597D01*
X118372557Y-92964285D01*
X118372554Y-92964289D01*
X118207076Y-93277908D01*
X118078434Y-93608321D01*
X118078430Y-93608332D01*
X117988291Y-93951255D01*
X117988289Y-93951265D01*
X117937827Y-94302230D01*
X117937827Y-94302234D01*
X117927701Y-94656689D01*
X117607500Y-94656689D01*
X117607500Y-94071539D01*
X117607698Y-94064474D01*
X117623415Y-93784606D01*
X117625492Y-93747620D01*
X117627074Y-93733585D01*
X117657926Y-93552000D01*
X117679639Y-93424205D01*
X117682778Y-93410451D01*
X117769656Y-93108888D01*
X117774317Y-93095568D01*
X117894416Y-92805626D01*
X117900530Y-92792930D01*
X118052335Y-92518258D01*
X118059845Y-92506307D01*
X118241446Y-92250365D01*
X118250244Y-92239333D01*
X118459351Y-92005341D01*
X118469342Y-91995351D01*
X118489832Y-91977040D01*
X118703333Y-91786244D01*
X118714365Y-91777446D01*
X118970313Y-91595841D01*
X118982258Y-91588335D01*
X119256930Y-91436530D01*
X119269626Y-91430416D01*
X119559568Y-91310317D01*
X119572888Y-91305656D01*
X119874451Y-91218778D01*
X119888205Y-91215639D01*
X120197586Y-91163073D01*
X120211620Y-91161492D01*
X120528474Y-91143697D01*
X120535539Y-91143500D01*
X120556531Y-91143500D01*
X179507469Y-91143500D01*
X179528461Y-91143500D01*
X179535525Y-91143697D01*
G37*
G04 #@! TD.AperFunction*
M02*
