G04 #@! TF.GenerationSoftware,KiCad,Pcbnew,5.1.5+dfsg1-2build2*
G04 #@! TF.CreationDate,2021-06-01T14:02:20+02:00*
G04 #@! TF.ProjectId,DNMS-RPI-HAT-V1.0,444e4d53-2d52-4504-992d-4841542d5631,1.0*
G04 #@! TF.SameCoordinates,Original*
G04 #@! TF.FileFunction,Soldermask,Bot*
G04 #@! TF.FilePolarity,Negative*
%FSLAX46Y46*%
G04 Gerber Fmt 4.6, Leading zero omitted, Abs format (unit mm)*
G04 Created by KiCad (PCBNEW 5.1.5+dfsg1-2build2) date 2021-06-01 14:02:20*
%MOMM*%
%LPD*%
G04 APERTURE LIST*
%ADD10C,0.100000*%
G04 APERTURE END LIST*
D10*
G36*
X148923040Y-119922240D02*
G01*
X147121040Y-119922240D01*
X147121040Y-118120240D01*
X148923040Y-118120240D01*
X148923040Y-119922240D01*
G37*
G36*
X143213120Y-119922240D02*
G01*
X141411120Y-119922240D01*
X141411120Y-118120240D01*
X143213120Y-118120240D01*
X143213120Y-119922240D01*
G37*
G36*
X152705108Y-118210563D02*
G01*
X152859980Y-118274713D01*
X152999361Y-118367845D01*
X153117895Y-118486379D01*
X153211027Y-118625760D01*
X153275177Y-118780632D01*
X153307880Y-118945044D01*
X153307880Y-119112676D01*
X153275177Y-119277088D01*
X153211027Y-119431960D01*
X153117895Y-119571341D01*
X152999361Y-119689875D01*
X152859980Y-119783007D01*
X152705108Y-119847157D01*
X152540696Y-119879860D01*
X152373064Y-119879860D01*
X152208652Y-119847157D01*
X152053780Y-119783007D01*
X151914399Y-119689875D01*
X151795865Y-119571341D01*
X151702733Y-119431960D01*
X151638583Y-119277088D01*
X151605880Y-119112676D01*
X151605880Y-118945044D01*
X151638583Y-118780632D01*
X151702733Y-118625760D01*
X151795865Y-118486379D01*
X151914399Y-118367845D01*
X152053780Y-118274713D01*
X152208652Y-118210563D01*
X152373064Y-118177860D01*
X152540696Y-118177860D01*
X152705108Y-118210563D01*
G37*
G36*
X156032508Y-118210563D02*
G01*
X156187380Y-118274713D01*
X156326761Y-118367845D01*
X156445295Y-118486379D01*
X156538427Y-118625760D01*
X156602577Y-118780632D01*
X156635280Y-118945044D01*
X156635280Y-119112676D01*
X156602577Y-119277088D01*
X156538427Y-119431960D01*
X156445295Y-119571341D01*
X156326761Y-119689875D01*
X156187380Y-119783007D01*
X156032508Y-119847157D01*
X155868096Y-119879860D01*
X155700464Y-119879860D01*
X155536052Y-119847157D01*
X155381180Y-119783007D01*
X155241799Y-119689875D01*
X155123265Y-119571341D01*
X155030133Y-119431960D01*
X154965983Y-119277088D01*
X154933280Y-119112676D01*
X154933280Y-118945044D01*
X154965983Y-118780632D01*
X155030133Y-118625760D01*
X155123265Y-118486379D01*
X155241799Y-118367845D01*
X155381180Y-118274713D01*
X155536052Y-118210563D01*
X155700464Y-118177860D01*
X155868096Y-118177860D01*
X156032508Y-118210563D01*
G37*
G36*
X121350433Y-116202893D02*
G01*
X121440657Y-116220839D01*
X121546267Y-116264585D01*
X121695621Y-116326449D01*
X121723802Y-116345279D01*
X121925086Y-116479772D01*
X122120228Y-116674914D01*
X122215761Y-116817890D01*
X122273551Y-116904379D01*
X122379161Y-117159344D01*
X122433000Y-117430012D01*
X122433000Y-117705988D01*
X122379161Y-117976656D01*
X122273551Y-118231621D01*
X122244758Y-118274713D01*
X122120228Y-118461086D01*
X121925086Y-118656228D01*
X121771763Y-118758675D01*
X121695621Y-118809551D01*
X121546267Y-118871415D01*
X121440657Y-118915161D01*
X121350433Y-118933107D01*
X121169988Y-118969000D01*
X120894012Y-118969000D01*
X120713567Y-118933107D01*
X120623343Y-118915161D01*
X120517733Y-118871415D01*
X120368379Y-118809551D01*
X120292237Y-118758675D01*
X120138914Y-118656228D01*
X119943772Y-118461086D01*
X119819242Y-118274713D01*
X119790449Y-118231621D01*
X119684839Y-117976656D01*
X119631000Y-117705988D01*
X119631000Y-117430012D01*
X119684839Y-117159344D01*
X119790449Y-116904379D01*
X119848239Y-116817890D01*
X119943772Y-116674914D01*
X120138914Y-116479772D01*
X120340198Y-116345279D01*
X120368379Y-116326449D01*
X120517733Y-116264585D01*
X120623343Y-116220839D01*
X120713567Y-116202893D01*
X120894012Y-116167000D01*
X121169988Y-116167000D01*
X121350433Y-116202893D01*
G37*
G36*
X179350433Y-116202893D02*
G01*
X179440657Y-116220839D01*
X179546267Y-116264585D01*
X179695621Y-116326449D01*
X179723802Y-116345279D01*
X179925086Y-116479772D01*
X180120228Y-116674914D01*
X180215761Y-116817890D01*
X180273551Y-116904379D01*
X180379161Y-117159344D01*
X180433000Y-117430012D01*
X180433000Y-117705988D01*
X180379161Y-117976656D01*
X180273551Y-118231621D01*
X180244758Y-118274713D01*
X180120228Y-118461086D01*
X179925086Y-118656228D01*
X179771763Y-118758675D01*
X179695621Y-118809551D01*
X179546267Y-118871415D01*
X179440657Y-118915161D01*
X179350433Y-118933107D01*
X179169988Y-118969000D01*
X178894012Y-118969000D01*
X178713567Y-118933107D01*
X178623343Y-118915161D01*
X178517733Y-118871415D01*
X178368379Y-118809551D01*
X178292237Y-118758675D01*
X178138914Y-118656228D01*
X177943772Y-118461086D01*
X177819242Y-118274713D01*
X177790449Y-118231621D01*
X177684839Y-117976656D01*
X177631000Y-117705988D01*
X177631000Y-117430012D01*
X177684839Y-117159344D01*
X177790449Y-116904379D01*
X177848239Y-116817890D01*
X177943772Y-116674914D01*
X178138914Y-116479772D01*
X178340198Y-116345279D01*
X178368379Y-116326449D01*
X178517733Y-116264585D01*
X178623343Y-116220839D01*
X178713567Y-116202893D01*
X178894012Y-116167000D01*
X179169988Y-116167000D01*
X179350433Y-116202893D01*
G37*
G36*
X142425632Y-115585167D02*
G01*
X142574932Y-115614864D01*
X142738904Y-115682784D01*
X142886474Y-115781387D01*
X143011973Y-115906886D01*
X143110576Y-116054456D01*
X143178496Y-116218428D01*
X143213120Y-116392499D01*
X143213120Y-116569981D01*
X143178496Y-116744052D01*
X143110576Y-116908024D01*
X143011973Y-117055594D01*
X142886474Y-117181093D01*
X142738904Y-117279696D01*
X142574932Y-117347616D01*
X142425632Y-117377313D01*
X142400862Y-117382240D01*
X142223378Y-117382240D01*
X142198608Y-117377313D01*
X142049308Y-117347616D01*
X141885336Y-117279696D01*
X141737766Y-117181093D01*
X141612267Y-117055594D01*
X141513664Y-116908024D01*
X141445744Y-116744052D01*
X141411120Y-116569981D01*
X141411120Y-116392499D01*
X141445744Y-116218428D01*
X141513664Y-116054456D01*
X141612267Y-115906886D01*
X141737766Y-115781387D01*
X141885336Y-115682784D01*
X142049308Y-115614864D01*
X142198608Y-115585167D01*
X142223378Y-115580240D01*
X142400862Y-115580240D01*
X142425632Y-115585167D01*
G37*
G36*
X148135552Y-115585167D02*
G01*
X148284852Y-115614864D01*
X148448824Y-115682784D01*
X148596394Y-115781387D01*
X148721893Y-115906886D01*
X148820496Y-116054456D01*
X148888416Y-116218428D01*
X148923040Y-116392499D01*
X148923040Y-116569981D01*
X148888416Y-116744052D01*
X148820496Y-116908024D01*
X148721893Y-117055594D01*
X148596394Y-117181093D01*
X148448824Y-117279696D01*
X148284852Y-117347616D01*
X148135552Y-117377313D01*
X148110782Y-117382240D01*
X147933298Y-117382240D01*
X147908528Y-117377313D01*
X147759228Y-117347616D01*
X147595256Y-117279696D01*
X147447686Y-117181093D01*
X147322187Y-117055594D01*
X147223584Y-116908024D01*
X147155664Y-116744052D01*
X147121040Y-116569981D01*
X147121040Y-116392499D01*
X147155664Y-116218428D01*
X147223584Y-116054456D01*
X147322187Y-115906886D01*
X147447686Y-115781387D01*
X147595256Y-115682784D01*
X147759228Y-115614864D01*
X147908528Y-115585167D01*
X147933298Y-115580240D01*
X148110782Y-115580240D01*
X148135552Y-115585167D01*
G37*
G36*
X135799138Y-115123456D02*
G01*
X135912425Y-115157822D01*
X136016832Y-115213629D01*
X136108347Y-115288733D01*
X136183451Y-115380248D01*
X136239258Y-115484655D01*
X136273624Y-115597942D01*
X136282320Y-115686241D01*
X136282320Y-116345279D01*
X136273624Y-116433578D01*
X136239258Y-116546865D01*
X136183451Y-116651272D01*
X136183450Y-116651273D01*
X136108347Y-116742787D01*
X136033243Y-116804422D01*
X136016831Y-116817891D01*
X135912424Y-116873698D01*
X135799137Y-116908064D01*
X135681320Y-116919667D01*
X135563502Y-116908064D01*
X135450215Y-116873698D01*
X135345808Y-116817891D01*
X135292981Y-116774537D01*
X135254293Y-116742787D01*
X135179190Y-116651272D01*
X135179189Y-116651271D01*
X135123382Y-116546864D01*
X135089016Y-116433577D01*
X135080320Y-116345278D01*
X135080320Y-115686241D01*
X135089016Y-115597942D01*
X135123381Y-115484658D01*
X135179191Y-115380246D01*
X135254294Y-115288733D01*
X135345809Y-115213629D01*
X135450216Y-115157822D01*
X135563503Y-115123456D01*
X135681320Y-115111853D01*
X135799138Y-115123456D01*
G37*
G36*
X134299138Y-115123456D02*
G01*
X134412425Y-115157822D01*
X134516832Y-115213629D01*
X134608347Y-115288733D01*
X134683451Y-115380248D01*
X134739258Y-115484655D01*
X134773624Y-115597942D01*
X134782320Y-115686241D01*
X134782320Y-116345279D01*
X134773624Y-116433578D01*
X134739258Y-116546865D01*
X134683451Y-116651272D01*
X134683450Y-116651273D01*
X134608347Y-116742787D01*
X134533243Y-116804422D01*
X134516831Y-116817891D01*
X134412424Y-116873698D01*
X134299137Y-116908064D01*
X134181320Y-116919667D01*
X134063502Y-116908064D01*
X133950215Y-116873698D01*
X133845808Y-116817891D01*
X133792981Y-116774537D01*
X133754293Y-116742787D01*
X133679190Y-116651272D01*
X133679189Y-116651271D01*
X133623382Y-116546864D01*
X133589016Y-116433577D01*
X133580320Y-116345278D01*
X133580320Y-115686241D01*
X133589016Y-115597942D01*
X133623381Y-115484658D01*
X133679191Y-115380246D01*
X133754294Y-115288733D01*
X133845809Y-115213629D01*
X133950216Y-115157822D01*
X134063503Y-115123456D01*
X134181320Y-115111853D01*
X134299138Y-115123456D01*
G37*
G36*
X132799138Y-115123456D02*
G01*
X132912425Y-115157822D01*
X133016832Y-115213629D01*
X133108347Y-115288733D01*
X133183451Y-115380248D01*
X133239258Y-115484655D01*
X133273624Y-115597942D01*
X133282320Y-115686241D01*
X133282320Y-116345279D01*
X133273624Y-116433578D01*
X133239258Y-116546865D01*
X133183451Y-116651272D01*
X133183450Y-116651273D01*
X133108347Y-116742787D01*
X133033243Y-116804422D01*
X133016831Y-116817891D01*
X132912424Y-116873698D01*
X132799137Y-116908064D01*
X132681320Y-116919667D01*
X132563502Y-116908064D01*
X132450215Y-116873698D01*
X132345808Y-116817891D01*
X132292981Y-116774537D01*
X132254293Y-116742787D01*
X132179190Y-116651272D01*
X132179189Y-116651271D01*
X132123382Y-116546864D01*
X132089016Y-116433577D01*
X132080320Y-116345278D01*
X132080320Y-115686241D01*
X132089016Y-115597942D01*
X132123381Y-115484658D01*
X132179191Y-115380246D01*
X132254294Y-115288733D01*
X132345809Y-115213629D01*
X132450216Y-115157822D01*
X132563503Y-115123456D01*
X132681320Y-115111853D01*
X132799138Y-115123456D01*
G37*
G36*
X131299138Y-115123456D02*
G01*
X131412425Y-115157822D01*
X131516832Y-115213629D01*
X131608347Y-115288733D01*
X131683451Y-115380248D01*
X131739258Y-115484655D01*
X131773624Y-115597942D01*
X131782320Y-115686241D01*
X131782320Y-116345279D01*
X131773624Y-116433578D01*
X131739258Y-116546865D01*
X131683451Y-116651272D01*
X131683450Y-116651273D01*
X131608347Y-116742787D01*
X131533243Y-116804422D01*
X131516831Y-116817891D01*
X131412424Y-116873698D01*
X131299137Y-116908064D01*
X131181320Y-116919667D01*
X131063502Y-116908064D01*
X130950215Y-116873698D01*
X130845808Y-116817891D01*
X130792981Y-116774537D01*
X130754293Y-116742787D01*
X130679190Y-116651272D01*
X130679189Y-116651271D01*
X130623382Y-116546864D01*
X130589016Y-116433577D01*
X130580320Y-116345278D01*
X130580320Y-115686241D01*
X130589016Y-115597942D01*
X130623381Y-115484658D01*
X130679191Y-115380246D01*
X130754294Y-115288733D01*
X130845809Y-115213629D01*
X130950216Y-115157822D01*
X131063503Y-115123456D01*
X131181320Y-115111853D01*
X131299138Y-115123456D01*
G37*
G36*
X137711011Y-115117052D02*
G01*
X137727490Y-115122051D01*
X137742677Y-115130169D01*
X137755988Y-115141092D01*
X137766911Y-115154403D01*
X137775029Y-115169590D01*
X137780028Y-115186069D01*
X137782320Y-115209342D01*
X137782320Y-116822178D01*
X137780028Y-116845451D01*
X137775029Y-116861930D01*
X137766911Y-116877117D01*
X137755988Y-116890428D01*
X137742677Y-116901351D01*
X137727490Y-116909469D01*
X137711011Y-116914468D01*
X137687738Y-116916760D01*
X136674902Y-116916760D01*
X136651629Y-116914468D01*
X136635150Y-116909469D01*
X136619963Y-116901351D01*
X136606652Y-116890428D01*
X136595729Y-116877117D01*
X136587611Y-116861930D01*
X136582612Y-116845451D01*
X136580320Y-116822178D01*
X136580320Y-115209342D01*
X136582612Y-115186069D01*
X136587611Y-115169590D01*
X136595729Y-115154403D01*
X136606652Y-115141092D01*
X136619963Y-115130169D01*
X136635150Y-115122051D01*
X136651629Y-115117052D01*
X136674902Y-115114760D01*
X137687738Y-115114760D01*
X137711011Y-115117052D01*
G37*
G36*
X148135552Y-113045167D02*
G01*
X148284852Y-113074864D01*
X148448824Y-113142784D01*
X148596394Y-113241387D01*
X148721893Y-113366886D01*
X148820496Y-113514456D01*
X148888416Y-113678428D01*
X148923040Y-113852499D01*
X148923040Y-114029981D01*
X148888416Y-114204052D01*
X148820496Y-114368024D01*
X148721893Y-114515594D01*
X148596394Y-114641093D01*
X148448824Y-114739696D01*
X148284852Y-114807616D01*
X148135552Y-114837313D01*
X148110782Y-114842240D01*
X147933298Y-114842240D01*
X147908528Y-114837313D01*
X147759228Y-114807616D01*
X147595256Y-114739696D01*
X147447686Y-114641093D01*
X147322187Y-114515594D01*
X147223584Y-114368024D01*
X147155664Y-114204052D01*
X147121040Y-114029981D01*
X147121040Y-113852499D01*
X147155664Y-113678428D01*
X147223584Y-113514456D01*
X147322187Y-113366886D01*
X147447686Y-113241387D01*
X147595256Y-113142784D01*
X147759228Y-113074864D01*
X147908528Y-113045167D01*
X147933298Y-113040240D01*
X148110782Y-113040240D01*
X148135552Y-113045167D01*
G37*
G36*
X142425632Y-113045167D02*
G01*
X142574932Y-113074864D01*
X142738904Y-113142784D01*
X142886474Y-113241387D01*
X143011973Y-113366886D01*
X143110576Y-113514456D01*
X143178496Y-113678428D01*
X143213120Y-113852499D01*
X143213120Y-114029981D01*
X143178496Y-114204052D01*
X143110576Y-114368024D01*
X143011973Y-114515594D01*
X142886474Y-114641093D01*
X142738904Y-114739696D01*
X142574932Y-114807616D01*
X142425632Y-114837313D01*
X142400862Y-114842240D01*
X142223378Y-114842240D01*
X142198608Y-114837313D01*
X142049308Y-114807616D01*
X141885336Y-114739696D01*
X141737766Y-114641093D01*
X141612267Y-114515594D01*
X141513664Y-114368024D01*
X141445744Y-114204052D01*
X141411120Y-114029981D01*
X141411120Y-113852499D01*
X141445744Y-113678428D01*
X141513664Y-113514456D01*
X141612267Y-113366886D01*
X141737766Y-113241387D01*
X141885336Y-113142784D01*
X142049308Y-113074864D01*
X142198608Y-113045167D01*
X142223378Y-113040240D01*
X142400862Y-113040240D01*
X142425632Y-113045167D01*
G37*
G36*
X172751390Y-113446577D02*
G01*
X172869864Y-113495651D01*
X172976488Y-113566895D01*
X173067165Y-113657572D01*
X173081101Y-113678428D01*
X173138410Y-113764198D01*
X173187483Y-113882670D01*
X173212500Y-114008441D01*
X173212500Y-114136679D01*
X173187483Y-114262450D01*
X173143753Y-114368024D01*
X173138409Y-114380924D01*
X173067165Y-114487548D01*
X172976488Y-114578225D01*
X172869864Y-114649469D01*
X172869863Y-114649470D01*
X172869862Y-114649470D01*
X172751390Y-114698543D01*
X172625619Y-114723560D01*
X172497381Y-114723560D01*
X172371610Y-114698543D01*
X172253138Y-114649470D01*
X172253137Y-114649470D01*
X172253136Y-114649469D01*
X172146512Y-114578225D01*
X172055835Y-114487548D01*
X171984591Y-114380924D01*
X171979248Y-114368024D01*
X171935517Y-114262450D01*
X171910500Y-114136679D01*
X171910500Y-114008441D01*
X171935517Y-113882670D01*
X171984590Y-113764198D01*
X172041900Y-113678428D01*
X172055835Y-113657572D01*
X172146512Y-113566895D01*
X172253136Y-113495651D01*
X172371610Y-113446577D01*
X172497381Y-113421560D01*
X172625619Y-113421560D01*
X172751390Y-113446577D01*
G37*
G36*
X160751390Y-113446577D02*
G01*
X160869864Y-113495651D01*
X160976488Y-113566895D01*
X161067165Y-113657572D01*
X161081101Y-113678428D01*
X161138410Y-113764198D01*
X161187483Y-113882670D01*
X161212500Y-114008441D01*
X161212500Y-114136679D01*
X161187483Y-114262450D01*
X161143753Y-114368024D01*
X161138409Y-114380924D01*
X161067165Y-114487548D01*
X160976488Y-114578225D01*
X160869864Y-114649469D01*
X160869863Y-114649470D01*
X160869862Y-114649470D01*
X160751390Y-114698543D01*
X160625619Y-114723560D01*
X160497381Y-114723560D01*
X160371610Y-114698543D01*
X160253138Y-114649470D01*
X160253137Y-114649470D01*
X160253136Y-114649469D01*
X160146512Y-114578225D01*
X160055835Y-114487548D01*
X159984591Y-114380924D01*
X159979248Y-114368024D01*
X159935517Y-114262450D01*
X159910500Y-114136679D01*
X159910500Y-114008441D01*
X159935517Y-113882670D01*
X159984590Y-113764198D01*
X160041900Y-113678428D01*
X160055835Y-113657572D01*
X160146512Y-113566895D01*
X160253136Y-113495651D01*
X160371610Y-113446577D01*
X160497381Y-113421560D01*
X160625619Y-113421560D01*
X160751390Y-113446577D01*
G37*
G36*
X164123334Y-111029092D02*
G01*
X164230559Y-111050420D01*
X164367232Y-111107032D01*
X164490235Y-111189220D01*
X164594840Y-111293825D01*
X164677028Y-111416828D01*
X164677029Y-111416830D01*
X164727485Y-111538641D01*
X164733640Y-111553501D01*
X164762500Y-111698593D01*
X164762500Y-111846527D01*
X164733640Y-111991619D01*
X164677028Y-112128292D01*
X164594840Y-112251295D01*
X164490235Y-112355900D01*
X164367232Y-112438088D01*
X164367231Y-112438089D01*
X164367230Y-112438089D01*
X164230559Y-112494700D01*
X164085468Y-112523560D01*
X163937532Y-112523560D01*
X163792441Y-112494700D01*
X163655770Y-112438089D01*
X163655769Y-112438089D01*
X163655768Y-112438088D01*
X163532765Y-112355900D01*
X163428160Y-112251295D01*
X163345972Y-112128292D01*
X163289360Y-111991619D01*
X163260500Y-111846527D01*
X163260500Y-111698593D01*
X163289360Y-111553501D01*
X163295515Y-111538641D01*
X163345971Y-111416830D01*
X163345972Y-111416828D01*
X163428160Y-111293825D01*
X163532765Y-111189220D01*
X163655768Y-111107032D01*
X163792441Y-111050420D01*
X163899666Y-111029092D01*
X163937532Y-111021560D01*
X164085468Y-111021560D01*
X164123334Y-111029092D01*
G37*
G36*
X168203334Y-111029092D02*
G01*
X168310559Y-111050420D01*
X168447232Y-111107032D01*
X168570235Y-111189220D01*
X168674840Y-111293825D01*
X168757028Y-111416828D01*
X168757029Y-111416830D01*
X168807485Y-111538641D01*
X168813640Y-111553501D01*
X168842500Y-111698593D01*
X168842500Y-111846527D01*
X168813640Y-111991619D01*
X168757028Y-112128292D01*
X168674840Y-112251295D01*
X168570235Y-112355900D01*
X168447232Y-112438088D01*
X168447231Y-112438089D01*
X168447230Y-112438089D01*
X168310559Y-112494700D01*
X168165468Y-112523560D01*
X168017532Y-112523560D01*
X167872441Y-112494700D01*
X167735770Y-112438089D01*
X167735769Y-112438089D01*
X167735768Y-112438088D01*
X167612765Y-112355900D01*
X167508160Y-112251295D01*
X167425972Y-112128292D01*
X167369360Y-111991619D01*
X167340500Y-111846527D01*
X167340500Y-111698593D01*
X167369360Y-111553501D01*
X167375515Y-111538641D01*
X167425971Y-111416830D01*
X167425972Y-111416828D01*
X167508160Y-111293825D01*
X167612765Y-111189220D01*
X167735768Y-111107032D01*
X167872441Y-111050420D01*
X167979666Y-111029092D01*
X168017532Y-111021560D01*
X168165468Y-111021560D01*
X168203334Y-111029092D01*
G37*
G36*
X166163334Y-111029092D02*
G01*
X166270559Y-111050420D01*
X166407232Y-111107032D01*
X166530235Y-111189220D01*
X166634840Y-111293825D01*
X166717028Y-111416828D01*
X166717029Y-111416830D01*
X166767485Y-111538641D01*
X166773640Y-111553501D01*
X166802500Y-111698593D01*
X166802500Y-111846527D01*
X166773640Y-111991619D01*
X166717028Y-112128292D01*
X166634840Y-112251295D01*
X166530235Y-112355900D01*
X166407232Y-112438088D01*
X166407231Y-112438089D01*
X166407230Y-112438089D01*
X166270559Y-112494700D01*
X166125468Y-112523560D01*
X165977532Y-112523560D01*
X165832441Y-112494700D01*
X165695770Y-112438089D01*
X165695769Y-112438089D01*
X165695768Y-112438088D01*
X165572765Y-112355900D01*
X165468160Y-112251295D01*
X165385972Y-112128292D01*
X165329360Y-111991619D01*
X165300500Y-111846527D01*
X165300500Y-111698593D01*
X165329360Y-111553501D01*
X165335515Y-111538641D01*
X165385971Y-111416830D01*
X165385972Y-111416828D01*
X165468160Y-111293825D01*
X165572765Y-111189220D01*
X165695768Y-111107032D01*
X165832441Y-111050420D01*
X165939666Y-111029092D01*
X165977532Y-111021560D01*
X166125468Y-111021560D01*
X166163334Y-111029092D01*
G37*
G36*
X142425632Y-110505167D02*
G01*
X142574932Y-110534864D01*
X142738904Y-110602784D01*
X142886474Y-110701387D01*
X143011973Y-110826886D01*
X143110576Y-110974456D01*
X143178496Y-111138428D01*
X143213120Y-111312499D01*
X143213120Y-111489981D01*
X143178496Y-111664052D01*
X143110576Y-111828024D01*
X143011973Y-111975594D01*
X142886474Y-112101093D01*
X142738904Y-112199696D01*
X142574932Y-112267616D01*
X142425632Y-112297313D01*
X142400862Y-112302240D01*
X142223378Y-112302240D01*
X142198608Y-112297313D01*
X142049308Y-112267616D01*
X141885336Y-112199696D01*
X141737766Y-112101093D01*
X141612267Y-111975594D01*
X141513664Y-111828024D01*
X141445744Y-111664052D01*
X141411120Y-111489981D01*
X141411120Y-111312499D01*
X141445744Y-111138428D01*
X141513664Y-110974456D01*
X141612267Y-110826886D01*
X141737766Y-110701387D01*
X141885336Y-110602784D01*
X142049308Y-110534864D01*
X142198608Y-110505167D01*
X142223378Y-110500240D01*
X142400862Y-110500240D01*
X142425632Y-110505167D01*
G37*
G36*
X148135552Y-110505167D02*
G01*
X148284852Y-110534864D01*
X148448824Y-110602784D01*
X148596394Y-110701387D01*
X148721893Y-110826886D01*
X148820496Y-110974456D01*
X148888416Y-111138428D01*
X148923040Y-111312499D01*
X148923040Y-111489981D01*
X148888416Y-111664052D01*
X148820496Y-111828024D01*
X148721893Y-111975594D01*
X148596394Y-112101093D01*
X148448824Y-112199696D01*
X148284852Y-112267616D01*
X148135552Y-112297313D01*
X148110782Y-112302240D01*
X147933298Y-112302240D01*
X147908528Y-112297313D01*
X147759228Y-112267616D01*
X147595256Y-112199696D01*
X147447686Y-112101093D01*
X147322187Y-111975594D01*
X147223584Y-111828024D01*
X147155664Y-111664052D01*
X147121040Y-111489981D01*
X147121040Y-111312499D01*
X147155664Y-111138428D01*
X147223584Y-110974456D01*
X147322187Y-110826886D01*
X147447686Y-110701387D01*
X147595256Y-110602784D01*
X147759228Y-110534864D01*
X147908528Y-110505167D01*
X147933298Y-110500240D01*
X148110782Y-110500240D01*
X148135552Y-110505167D01*
G37*
G36*
X122794465Y-106819634D02*
G01*
X122891161Y-106838868D01*
X123073331Y-106914326D01*
X123237280Y-107023873D01*
X123376707Y-107163300D01*
X123486254Y-107327249D01*
X123561712Y-107509419D01*
X123567713Y-107539589D01*
X123600180Y-107702809D01*
X123600180Y-107899991D01*
X123561712Y-108093381D01*
X123486254Y-108275551D01*
X123376707Y-108439500D01*
X123237280Y-108578927D01*
X123174865Y-108620631D01*
X123073330Y-108688475D01*
X123021264Y-108710041D01*
X122977340Y-108728235D01*
X122955734Y-108739784D01*
X122936792Y-108755329D01*
X122921246Y-108774271D01*
X122909695Y-108795882D01*
X122902582Y-108819331D01*
X122900180Y-108843717D01*
X122900180Y-108921221D01*
X122902582Y-108945607D01*
X122909695Y-108969056D01*
X122921246Y-108990667D01*
X122936791Y-109009609D01*
X122955733Y-109025154D01*
X122977344Y-109036705D01*
X122986148Y-109039376D01*
X122993249Y-109042318D01*
X122993252Y-109042318D01*
X123239119Y-109144159D01*
X123350508Y-109218587D01*
X123460391Y-109292009D01*
X123648571Y-109480189D01*
X123796422Y-109701463D01*
X123898262Y-109947328D01*
X123950180Y-110208337D01*
X123950180Y-110474463D01*
X123898262Y-110735472D01*
X123796422Y-110981337D01*
X123657519Y-111189220D01*
X123648570Y-111202612D01*
X123460392Y-111390790D01*
X123239119Y-111538641D01*
X123239118Y-111538642D01*
X123239117Y-111538642D01*
X122993252Y-111640482D01*
X122732243Y-111692400D01*
X122466117Y-111692400D01*
X122205108Y-111640482D01*
X121959243Y-111538642D01*
X121959242Y-111538642D01*
X121959241Y-111538641D01*
X121737968Y-111390790D01*
X121549790Y-111202612D01*
X121540842Y-111189220D01*
X121401938Y-110981337D01*
X121300098Y-110735472D01*
X121248180Y-110474463D01*
X121248180Y-110208337D01*
X121300098Y-109947328D01*
X121401938Y-109701463D01*
X121549789Y-109480189D01*
X121737969Y-109292009D01*
X121847852Y-109218587D01*
X121959241Y-109144159D01*
X121959243Y-109144158D01*
X122212212Y-109039375D01*
X122221019Y-109036704D01*
X122242630Y-109025152D01*
X122261571Y-109009606D01*
X122277116Y-108990664D01*
X122288666Y-108969053D01*
X122295779Y-108945604D01*
X122298180Y-108921221D01*
X122298180Y-108843717D01*
X122295778Y-108819331D01*
X122288665Y-108795882D01*
X122277114Y-108774271D01*
X122261569Y-108755329D01*
X122242627Y-108739784D01*
X122221020Y-108728235D01*
X122177096Y-108710041D01*
X122125030Y-108688475D01*
X122023495Y-108620631D01*
X121961080Y-108578927D01*
X121821653Y-108439500D01*
X121712106Y-108275551D01*
X121636648Y-108093381D01*
X121617414Y-107996685D01*
X121598180Y-107899991D01*
X121598180Y-107702809D01*
X121630647Y-107539589D01*
X121636648Y-107509419D01*
X121712106Y-107327249D01*
X121821653Y-107163300D01*
X121961080Y-107023873D01*
X122125029Y-106914326D01*
X122307199Y-106838868D01*
X122403895Y-106819634D01*
X122500589Y-106800400D01*
X122697771Y-106800400D01*
X122794465Y-106819634D01*
G37*
G36*
X162283260Y-107899990D02*
G01*
X162445431Y-107932248D01*
X162750443Y-108058588D01*
X163024947Y-108242006D01*
X163258394Y-108475453D01*
X163441812Y-108749957D01*
X163568152Y-109054969D01*
X163585893Y-109144158D01*
X163632560Y-109378767D01*
X163632560Y-109708913D01*
X163568152Y-110032711D01*
X163441812Y-110337723D01*
X163258394Y-110612227D01*
X163024947Y-110845674D01*
X162750443Y-111029092D01*
X162445431Y-111155432D01*
X162121633Y-111219840D01*
X161791487Y-111219840D01*
X161467689Y-111155432D01*
X161162677Y-111029092D01*
X160888173Y-110845674D01*
X160654726Y-110612227D01*
X160471308Y-110337723D01*
X160344968Y-110032711D01*
X160280560Y-109708913D01*
X160280560Y-109378767D01*
X160327227Y-109144158D01*
X160344968Y-109054969D01*
X160471308Y-108749957D01*
X160654726Y-108475453D01*
X160888173Y-108242006D01*
X161162677Y-108058588D01*
X161467689Y-107932248D01*
X161629860Y-107899990D01*
X161791487Y-107867840D01*
X162121633Y-107867840D01*
X162283260Y-107899990D01*
G37*
G36*
X172443260Y-107899990D02*
G01*
X172605431Y-107932248D01*
X172910443Y-108058588D01*
X173184947Y-108242006D01*
X173418394Y-108475453D01*
X173601812Y-108749957D01*
X173728152Y-109054969D01*
X173745893Y-109144158D01*
X173792560Y-109378767D01*
X173792560Y-109708913D01*
X173728152Y-110032711D01*
X173601812Y-110337723D01*
X173418394Y-110612227D01*
X173184947Y-110845674D01*
X172910443Y-111029092D01*
X172605431Y-111155432D01*
X172281633Y-111219840D01*
X171951487Y-111219840D01*
X171627689Y-111155432D01*
X171322677Y-111029092D01*
X171048173Y-110845674D01*
X170814726Y-110612227D01*
X170631308Y-110337723D01*
X170504968Y-110032711D01*
X170440560Y-109708913D01*
X170440560Y-109378767D01*
X170487227Y-109144158D01*
X170504968Y-109054969D01*
X170631308Y-108749957D01*
X170814726Y-108475453D01*
X171048173Y-108242006D01*
X171322677Y-108058588D01*
X171627689Y-107932248D01*
X171789860Y-107899990D01*
X171951487Y-107867840D01*
X172281633Y-107867840D01*
X172443260Y-107899990D01*
G37*
G36*
X165250559Y-108510420D02*
G01*
X165387232Y-108567032D01*
X165510235Y-108649220D01*
X165614840Y-108753825D01*
X165697028Y-108876828D01*
X165753640Y-109013501D01*
X165782500Y-109158593D01*
X165782500Y-109306527D01*
X165753640Y-109451619D01*
X165697028Y-109588292D01*
X165614840Y-109711295D01*
X165510235Y-109815900D01*
X165387232Y-109898088D01*
X165387231Y-109898089D01*
X165387230Y-109898089D01*
X165250559Y-109954700D01*
X165105468Y-109983560D01*
X164957532Y-109983560D01*
X164812441Y-109954700D01*
X164675770Y-109898089D01*
X164675769Y-109898089D01*
X164675768Y-109898088D01*
X164552765Y-109815900D01*
X164448160Y-109711295D01*
X164365972Y-109588292D01*
X164309360Y-109451619D01*
X164280500Y-109306527D01*
X164280500Y-109158593D01*
X164309360Y-109013501D01*
X164365972Y-108876828D01*
X164448160Y-108753825D01*
X164552765Y-108649220D01*
X164675768Y-108567032D01*
X164812441Y-108510420D01*
X164957532Y-108481560D01*
X165105468Y-108481560D01*
X165250559Y-108510420D01*
G37*
G36*
X167290559Y-108510420D02*
G01*
X167427232Y-108567032D01*
X167550235Y-108649220D01*
X167654840Y-108753825D01*
X167737028Y-108876828D01*
X167793640Y-109013501D01*
X167822500Y-109158593D01*
X167822500Y-109306527D01*
X167793640Y-109451619D01*
X167737028Y-109588292D01*
X167654840Y-109711295D01*
X167550235Y-109815900D01*
X167427232Y-109898088D01*
X167427231Y-109898089D01*
X167427230Y-109898089D01*
X167290559Y-109954700D01*
X167145468Y-109983560D01*
X166997532Y-109983560D01*
X166852441Y-109954700D01*
X166715770Y-109898089D01*
X166715769Y-109898089D01*
X166715768Y-109898088D01*
X166592765Y-109815900D01*
X166488160Y-109711295D01*
X166405972Y-109588292D01*
X166349360Y-109451619D01*
X166320500Y-109306527D01*
X166320500Y-109158593D01*
X166349360Y-109013501D01*
X166405972Y-108876828D01*
X166488160Y-108753825D01*
X166592765Y-108649220D01*
X166715768Y-108567032D01*
X166852441Y-108510420D01*
X166997532Y-108481560D01*
X167145468Y-108481560D01*
X167290559Y-108510420D01*
G37*
G36*
X169330559Y-108510420D02*
G01*
X169467232Y-108567032D01*
X169590235Y-108649220D01*
X169694840Y-108753825D01*
X169777028Y-108876828D01*
X169833640Y-109013501D01*
X169862500Y-109158593D01*
X169862500Y-109306527D01*
X169833640Y-109451619D01*
X169777028Y-109588292D01*
X169694840Y-109711295D01*
X169590235Y-109815900D01*
X169467232Y-109898088D01*
X169467231Y-109898089D01*
X169467230Y-109898089D01*
X169330559Y-109954700D01*
X169185468Y-109983560D01*
X169037532Y-109983560D01*
X168892441Y-109954700D01*
X168755770Y-109898089D01*
X168755769Y-109898089D01*
X168755768Y-109898088D01*
X168632765Y-109815900D01*
X168528160Y-109711295D01*
X168445972Y-109588292D01*
X168389360Y-109451619D01*
X168360500Y-109306527D01*
X168360500Y-109158593D01*
X168389360Y-109013501D01*
X168445972Y-108876828D01*
X168528160Y-108753825D01*
X168632765Y-108649220D01*
X168755768Y-108567032D01*
X168892441Y-108510420D01*
X169037532Y-108481560D01*
X169185468Y-108481560D01*
X169330559Y-108510420D01*
G37*
G36*
X156032508Y-108050563D02*
G01*
X156187380Y-108114713D01*
X156326761Y-108207845D01*
X156445295Y-108326379D01*
X156538427Y-108465760D01*
X156602577Y-108620632D01*
X156635280Y-108785044D01*
X156635280Y-108952676D01*
X156602577Y-109117088D01*
X156538427Y-109271960D01*
X156445295Y-109411341D01*
X156326761Y-109529875D01*
X156187380Y-109623007D01*
X156032508Y-109687157D01*
X155868096Y-109719860D01*
X155700464Y-109719860D01*
X155536052Y-109687157D01*
X155381180Y-109623007D01*
X155241799Y-109529875D01*
X155123265Y-109411341D01*
X155030133Y-109271960D01*
X154965983Y-109117088D01*
X154933280Y-108952676D01*
X154933280Y-108785044D01*
X154965983Y-108620632D01*
X155030133Y-108465760D01*
X155123265Y-108326379D01*
X155241799Y-108207845D01*
X155381180Y-108114713D01*
X155536052Y-108050563D01*
X155700464Y-108017860D01*
X155868096Y-108017860D01*
X156032508Y-108050563D01*
G37*
G36*
X152705108Y-108050563D02*
G01*
X152859980Y-108114713D01*
X152999361Y-108207845D01*
X153117895Y-108326379D01*
X153211027Y-108465760D01*
X153275177Y-108620632D01*
X153307880Y-108785044D01*
X153307880Y-108952676D01*
X153275177Y-109117088D01*
X153211027Y-109271960D01*
X153117895Y-109411341D01*
X152999361Y-109529875D01*
X152859980Y-109623007D01*
X152705108Y-109687157D01*
X152540696Y-109719860D01*
X152373064Y-109719860D01*
X152208652Y-109687157D01*
X152053780Y-109623007D01*
X151914399Y-109529875D01*
X151795865Y-109411341D01*
X151702733Y-109271960D01*
X151638583Y-109117088D01*
X151605880Y-108952676D01*
X151605880Y-108785044D01*
X151638583Y-108620632D01*
X151702733Y-108465760D01*
X151795865Y-108326379D01*
X151914399Y-108207845D01*
X152053780Y-108114713D01*
X152208652Y-108050563D01*
X152373064Y-108017860D01*
X152540696Y-108017860D01*
X152705108Y-108050563D01*
G37*
G36*
X142421540Y-107738100D02*
G01*
X140643140Y-107738100D01*
X140643140Y-105959700D01*
X142421540Y-105959700D01*
X142421540Y-107738100D01*
G37*
G36*
X149411709Y-105993871D02*
G01*
X149573535Y-106060902D01*
X149719169Y-106158211D01*
X149843029Y-106282071D01*
X149940338Y-106427705D01*
X150007369Y-106589531D01*
X150041540Y-106761320D01*
X150041540Y-106936480D01*
X150007369Y-107108269D01*
X149940338Y-107270095D01*
X149843029Y-107415729D01*
X149719169Y-107539589D01*
X149573535Y-107636898D01*
X149411709Y-107703929D01*
X149239920Y-107738100D01*
X149064760Y-107738100D01*
X148892971Y-107703929D01*
X148731145Y-107636898D01*
X148585511Y-107539589D01*
X148461651Y-107415729D01*
X148364342Y-107270095D01*
X148297311Y-107108269D01*
X148263140Y-106936480D01*
X148263140Y-106761320D01*
X148297311Y-106589531D01*
X148364342Y-106427705D01*
X148461651Y-106282071D01*
X148585511Y-106158211D01*
X148731145Y-106060902D01*
X148892971Y-105993871D01*
X149064760Y-105959700D01*
X149239920Y-105959700D01*
X149411709Y-105993871D01*
G37*
G36*
X146871709Y-105993871D02*
G01*
X147033535Y-106060902D01*
X147179169Y-106158211D01*
X147303029Y-106282071D01*
X147400338Y-106427705D01*
X147467369Y-106589531D01*
X147501540Y-106761320D01*
X147501540Y-106936480D01*
X147467369Y-107108269D01*
X147400338Y-107270095D01*
X147303029Y-107415729D01*
X147179169Y-107539589D01*
X147033535Y-107636898D01*
X146871709Y-107703929D01*
X146699920Y-107738100D01*
X146524760Y-107738100D01*
X146352971Y-107703929D01*
X146191145Y-107636898D01*
X146045511Y-107539589D01*
X145921651Y-107415729D01*
X145824342Y-107270095D01*
X145757311Y-107108269D01*
X145723140Y-106936480D01*
X145723140Y-106761320D01*
X145757311Y-106589531D01*
X145824342Y-106427705D01*
X145921651Y-106282071D01*
X146045511Y-106158211D01*
X146191145Y-106060902D01*
X146352971Y-105993871D01*
X146524760Y-105959700D01*
X146699920Y-105959700D01*
X146871709Y-105993871D01*
G37*
G36*
X144331709Y-105993871D02*
G01*
X144493535Y-106060902D01*
X144639169Y-106158211D01*
X144763029Y-106282071D01*
X144860338Y-106427705D01*
X144927369Y-106589531D01*
X144961540Y-106761320D01*
X144961540Y-106936480D01*
X144927369Y-107108269D01*
X144860338Y-107270095D01*
X144763029Y-107415729D01*
X144639169Y-107539589D01*
X144493535Y-107636898D01*
X144331709Y-107703929D01*
X144159920Y-107738100D01*
X143984760Y-107738100D01*
X143812971Y-107703929D01*
X143651145Y-107636898D01*
X143505511Y-107539589D01*
X143381651Y-107415729D01*
X143284342Y-107270095D01*
X143217311Y-107108269D01*
X143183140Y-106936480D01*
X143183140Y-106761320D01*
X143217311Y-106589531D01*
X143284342Y-106427705D01*
X143381651Y-106282071D01*
X143505511Y-106158211D01*
X143651145Y-106060902D01*
X143812971Y-105993871D01*
X143984760Y-105959700D01*
X144159920Y-105959700D01*
X144331709Y-105993871D01*
G37*
G36*
X123950180Y-106412400D02*
G01*
X121248180Y-106412400D01*
X121248180Y-104110400D01*
X123950180Y-104110400D01*
X123950180Y-106412400D01*
G37*
G36*
X165373120Y-102414006D02*
G01*
X165520713Y-102475141D01*
X165653542Y-102563895D01*
X165766505Y-102676858D01*
X165855259Y-102809687D01*
X165916394Y-102957280D01*
X165947560Y-103113963D01*
X165947560Y-103273717D01*
X165916394Y-103430400D01*
X165855259Y-103577993D01*
X165766505Y-103710822D01*
X165653542Y-103823785D01*
X165520713Y-103912539D01*
X165520712Y-103912540D01*
X165520711Y-103912540D01*
X165373120Y-103973674D01*
X165216438Y-104004840D01*
X165056682Y-104004840D01*
X164900000Y-103973674D01*
X164752409Y-103912540D01*
X164752408Y-103912540D01*
X164752407Y-103912539D01*
X164619578Y-103823785D01*
X164506615Y-103710822D01*
X164417861Y-103577993D01*
X164356726Y-103430400D01*
X164325560Y-103273717D01*
X164325560Y-103113963D01*
X164356726Y-102957280D01*
X164417861Y-102809687D01*
X164506615Y-102676858D01*
X164619578Y-102563895D01*
X164752407Y-102475141D01*
X164900000Y-102414006D01*
X165056682Y-102382840D01*
X165216438Y-102382840D01*
X165373120Y-102414006D01*
G37*
G36*
X170453120Y-102414006D02*
G01*
X170600713Y-102475141D01*
X170733542Y-102563895D01*
X170846505Y-102676858D01*
X170935259Y-102809687D01*
X170996394Y-102957280D01*
X171027560Y-103113963D01*
X171027560Y-103273717D01*
X170996394Y-103430400D01*
X170935259Y-103577993D01*
X170846505Y-103710822D01*
X170733542Y-103823785D01*
X170600713Y-103912539D01*
X170600712Y-103912540D01*
X170600711Y-103912540D01*
X170453120Y-103973674D01*
X170296438Y-104004840D01*
X170136682Y-104004840D01*
X169980000Y-103973674D01*
X169832409Y-103912540D01*
X169832408Y-103912540D01*
X169832407Y-103912539D01*
X169699578Y-103823785D01*
X169586615Y-103710822D01*
X169497861Y-103577993D01*
X169436726Y-103430400D01*
X169405560Y-103273717D01*
X169405560Y-103113963D01*
X169436726Y-102957280D01*
X169497861Y-102809687D01*
X169586615Y-102676858D01*
X169699578Y-102563895D01*
X169832407Y-102475141D01*
X169980000Y-102414006D01*
X170136682Y-102382840D01*
X170296438Y-102382840D01*
X170453120Y-102414006D01*
G37*
G36*
X167913120Y-102414006D02*
G01*
X168060713Y-102475141D01*
X168193542Y-102563895D01*
X168306505Y-102676858D01*
X168395259Y-102809687D01*
X168456394Y-102957280D01*
X168487560Y-103113963D01*
X168487560Y-103273717D01*
X168456394Y-103430400D01*
X168395259Y-103577993D01*
X168306505Y-103710822D01*
X168193542Y-103823785D01*
X168060713Y-103912539D01*
X168060712Y-103912540D01*
X168060711Y-103912540D01*
X167913120Y-103973674D01*
X167756438Y-104004840D01*
X167596682Y-104004840D01*
X167440000Y-103973674D01*
X167292409Y-103912540D01*
X167292408Y-103912540D01*
X167292407Y-103912539D01*
X167159578Y-103823785D01*
X167046615Y-103710822D01*
X166957861Y-103577993D01*
X166896726Y-103430400D01*
X166865560Y-103273717D01*
X166865560Y-103113963D01*
X166896726Y-102957280D01*
X166957861Y-102809687D01*
X167046615Y-102676858D01*
X167159578Y-102563895D01*
X167292407Y-102475141D01*
X167440000Y-102414006D01*
X167596682Y-102382840D01*
X167756438Y-102382840D01*
X167913120Y-102414006D01*
G37*
G36*
X169105005Y-99858468D02*
G01*
X169183120Y-99874006D01*
X169330713Y-99935141D01*
X169453070Y-100016898D01*
X169463542Y-100023895D01*
X169576505Y-100136858D01*
X169665260Y-100269689D01*
X169726394Y-100417280D01*
X169757560Y-100573962D01*
X169757560Y-100733718D01*
X169726394Y-100890400D01*
X169668065Y-101031220D01*
X169665259Y-101037993D01*
X169576505Y-101170822D01*
X169463542Y-101283785D01*
X169330713Y-101372539D01*
X169330712Y-101372540D01*
X169330711Y-101372540D01*
X169183120Y-101433674D01*
X169026438Y-101464840D01*
X168866682Y-101464840D01*
X168710000Y-101433674D01*
X168562409Y-101372540D01*
X168562408Y-101372540D01*
X168562407Y-101372539D01*
X168429578Y-101283785D01*
X168316615Y-101170822D01*
X168227861Y-101037993D01*
X168225056Y-101031220D01*
X168166726Y-100890400D01*
X168135560Y-100733718D01*
X168135560Y-100573962D01*
X168166726Y-100417280D01*
X168227860Y-100269689D01*
X168316615Y-100136858D01*
X168429578Y-100023895D01*
X168440050Y-100016898D01*
X168562407Y-99935141D01*
X168710000Y-99874006D01*
X168788115Y-99858468D01*
X168866682Y-99842840D01*
X169026438Y-99842840D01*
X169105005Y-99858468D01*
G37*
G36*
X166565005Y-99858468D02*
G01*
X166643120Y-99874006D01*
X166790713Y-99935141D01*
X166913070Y-100016898D01*
X166923542Y-100023895D01*
X167036505Y-100136858D01*
X167125260Y-100269689D01*
X167186394Y-100417280D01*
X167217560Y-100573962D01*
X167217560Y-100733718D01*
X167186394Y-100890400D01*
X167128065Y-101031220D01*
X167125259Y-101037993D01*
X167036505Y-101170822D01*
X166923542Y-101283785D01*
X166790713Y-101372539D01*
X166790712Y-101372540D01*
X166790711Y-101372540D01*
X166643120Y-101433674D01*
X166486438Y-101464840D01*
X166326682Y-101464840D01*
X166170000Y-101433674D01*
X166022409Y-101372540D01*
X166022408Y-101372540D01*
X166022407Y-101372539D01*
X165889578Y-101283785D01*
X165776615Y-101170822D01*
X165687861Y-101037993D01*
X165685056Y-101031220D01*
X165626726Y-100890400D01*
X165595560Y-100733718D01*
X165595560Y-100573962D01*
X165626726Y-100417280D01*
X165687860Y-100269689D01*
X165776615Y-100136858D01*
X165889578Y-100023895D01*
X165900050Y-100016898D01*
X166022407Y-99935141D01*
X166170000Y-99874006D01*
X166248115Y-99858468D01*
X166326682Y-99842840D01*
X166486438Y-99842840D01*
X166565005Y-99858468D01*
G37*
G36*
X164677560Y-101464840D02*
G01*
X163055560Y-101464840D01*
X163055560Y-99842840D01*
X164677560Y-99842840D01*
X164677560Y-101464840D01*
G37*
G36*
X136458948Y-99670443D02*
G01*
X136613820Y-99734593D01*
X136753201Y-99827725D01*
X136753205Y-99827729D01*
X136760100Y-99832336D01*
X136766274Y-99837402D01*
X136787885Y-99848953D01*
X136811334Y-99856066D01*
X136835720Y-99858468D01*
X136860106Y-99856066D01*
X136883555Y-99848953D01*
X136905166Y-99837402D01*
X136911340Y-99832336D01*
X136918235Y-99827729D01*
X136918239Y-99827725D01*
X137057620Y-99734593D01*
X137212492Y-99670443D01*
X137376904Y-99637740D01*
X137544536Y-99637740D01*
X137708948Y-99670443D01*
X137863820Y-99734593D01*
X138003201Y-99827725D01*
X138121735Y-99946259D01*
X138214867Y-100085640D01*
X138279017Y-100240512D01*
X138311720Y-100404924D01*
X138311720Y-100572556D01*
X138279017Y-100736968D01*
X138214867Y-100891840D01*
X138121735Y-101031221D01*
X138003201Y-101149755D01*
X137863820Y-101242887D01*
X137708948Y-101307037D01*
X137544536Y-101339740D01*
X137376904Y-101339740D01*
X137212492Y-101307037D01*
X137057620Y-101242887D01*
X136918239Y-101149755D01*
X136918235Y-101149751D01*
X136911340Y-101145144D01*
X136905166Y-101140078D01*
X136883555Y-101128527D01*
X136860106Y-101121414D01*
X136835720Y-101119012D01*
X136811334Y-101121414D01*
X136787885Y-101128527D01*
X136766274Y-101140078D01*
X136760100Y-101145144D01*
X136753205Y-101149751D01*
X136753201Y-101149755D01*
X136613820Y-101242887D01*
X136458948Y-101307037D01*
X136294536Y-101339740D01*
X136126904Y-101339740D01*
X135962492Y-101307037D01*
X135807620Y-101242887D01*
X135668239Y-101149755D01*
X135549705Y-101031221D01*
X135456573Y-100891840D01*
X135392423Y-100736968D01*
X135359720Y-100572556D01*
X135359720Y-100404924D01*
X135392423Y-100240512D01*
X135456573Y-100085640D01*
X135549705Y-99946259D01*
X135668239Y-99827725D01*
X135807620Y-99734593D01*
X135962492Y-99670443D01*
X136126904Y-99637740D01*
X136294536Y-99637740D01*
X136458948Y-99670443D01*
G37*
G36*
X130208948Y-99670443D02*
G01*
X130363820Y-99734593D01*
X130503201Y-99827725D01*
X130503205Y-99827729D01*
X130510100Y-99832336D01*
X130516274Y-99837402D01*
X130537885Y-99848953D01*
X130561334Y-99856066D01*
X130585720Y-99858468D01*
X130610106Y-99856066D01*
X130633555Y-99848953D01*
X130655166Y-99837402D01*
X130661340Y-99832336D01*
X130668235Y-99827729D01*
X130668239Y-99827725D01*
X130807620Y-99734593D01*
X130962492Y-99670443D01*
X131126904Y-99637740D01*
X131294536Y-99637740D01*
X131458948Y-99670443D01*
X131613820Y-99734593D01*
X131753201Y-99827725D01*
X131871735Y-99946259D01*
X131964867Y-100085640D01*
X132029017Y-100240512D01*
X132061720Y-100404924D01*
X132061720Y-100572556D01*
X132029017Y-100736968D01*
X131964867Y-100891840D01*
X131871735Y-101031221D01*
X131753201Y-101149755D01*
X131613820Y-101242887D01*
X131458948Y-101307037D01*
X131294536Y-101339740D01*
X131126904Y-101339740D01*
X130962492Y-101307037D01*
X130807620Y-101242887D01*
X130668239Y-101149755D01*
X130668235Y-101149751D01*
X130661340Y-101145144D01*
X130655166Y-101140078D01*
X130633555Y-101128527D01*
X130610106Y-101121414D01*
X130585720Y-101119012D01*
X130561334Y-101121414D01*
X130537885Y-101128527D01*
X130516274Y-101140078D01*
X130510100Y-101145144D01*
X130503205Y-101149751D01*
X130503201Y-101149755D01*
X130363820Y-101242887D01*
X130208948Y-101307037D01*
X130044536Y-101339740D01*
X129876904Y-101339740D01*
X129712492Y-101307037D01*
X129557620Y-101242887D01*
X129418239Y-101149755D01*
X129299705Y-101031221D01*
X129206573Y-100891840D01*
X129142423Y-100736968D01*
X129109720Y-100572556D01*
X129109720Y-100404924D01*
X129142423Y-100240512D01*
X129206573Y-100085640D01*
X129299705Y-99946259D01*
X129418239Y-99827725D01*
X129557620Y-99734593D01*
X129712492Y-99670443D01*
X129876904Y-99637740D01*
X130044536Y-99637740D01*
X130208948Y-99670443D01*
G37*
G36*
X119293948Y-99670443D02*
G01*
X119448820Y-99734593D01*
X119588201Y-99827725D01*
X119588205Y-99827729D01*
X119595100Y-99832336D01*
X119601274Y-99837402D01*
X119622885Y-99848953D01*
X119646334Y-99856066D01*
X119670720Y-99858468D01*
X119695106Y-99856066D01*
X119718555Y-99848953D01*
X119740166Y-99837402D01*
X119746340Y-99832336D01*
X119753235Y-99827729D01*
X119753239Y-99827725D01*
X119892620Y-99734593D01*
X120047492Y-99670443D01*
X120211904Y-99637740D01*
X120379536Y-99637740D01*
X120543948Y-99670443D01*
X120698820Y-99734593D01*
X120838201Y-99827725D01*
X120956735Y-99946259D01*
X121049867Y-100085640D01*
X121114017Y-100240512D01*
X121146720Y-100404924D01*
X121146720Y-100572556D01*
X121114017Y-100736968D01*
X121049867Y-100891840D01*
X120956735Y-101031221D01*
X120838201Y-101149755D01*
X120698820Y-101242887D01*
X120543948Y-101307037D01*
X120379536Y-101339740D01*
X120211904Y-101339740D01*
X120047492Y-101307037D01*
X119892620Y-101242887D01*
X119753239Y-101149755D01*
X119753235Y-101149751D01*
X119746340Y-101145144D01*
X119740166Y-101140078D01*
X119718555Y-101128527D01*
X119695106Y-101121414D01*
X119670720Y-101119012D01*
X119646334Y-101121414D01*
X119622885Y-101128527D01*
X119601274Y-101140078D01*
X119595100Y-101145144D01*
X119588205Y-101149751D01*
X119588201Y-101149755D01*
X119448820Y-101242887D01*
X119293948Y-101307037D01*
X119129536Y-101339740D01*
X118961904Y-101339740D01*
X118797492Y-101307037D01*
X118642620Y-101242887D01*
X118503239Y-101149755D01*
X118384705Y-101031221D01*
X118291573Y-100891840D01*
X118227423Y-100736968D01*
X118194720Y-100572556D01*
X118194720Y-100404924D01*
X118227423Y-100240512D01*
X118291573Y-100085640D01*
X118384705Y-99946259D01*
X118503239Y-99827725D01*
X118642620Y-99734593D01*
X118797492Y-99670443D01*
X118961904Y-99637740D01*
X119129536Y-99637740D01*
X119293948Y-99670443D01*
G37*
G36*
X125543948Y-99670443D02*
G01*
X125698820Y-99734593D01*
X125838201Y-99827725D01*
X125838205Y-99827729D01*
X125845100Y-99832336D01*
X125851274Y-99837402D01*
X125872885Y-99848953D01*
X125896334Y-99856066D01*
X125920720Y-99858468D01*
X125945106Y-99856066D01*
X125968555Y-99848953D01*
X125990166Y-99837402D01*
X125996340Y-99832336D01*
X126003235Y-99827729D01*
X126003239Y-99827725D01*
X126142620Y-99734593D01*
X126297492Y-99670443D01*
X126461904Y-99637740D01*
X126629536Y-99637740D01*
X126793948Y-99670443D01*
X126948820Y-99734593D01*
X127088201Y-99827725D01*
X127206735Y-99946259D01*
X127299867Y-100085640D01*
X127364017Y-100240512D01*
X127396720Y-100404924D01*
X127396720Y-100572556D01*
X127364017Y-100736968D01*
X127299867Y-100891840D01*
X127206735Y-101031221D01*
X127088201Y-101149755D01*
X126948820Y-101242887D01*
X126793948Y-101307037D01*
X126629536Y-101339740D01*
X126461904Y-101339740D01*
X126297492Y-101307037D01*
X126142620Y-101242887D01*
X126003239Y-101149755D01*
X126003235Y-101149751D01*
X125996340Y-101145144D01*
X125990166Y-101140078D01*
X125968555Y-101128527D01*
X125945106Y-101121414D01*
X125920720Y-101119012D01*
X125896334Y-101121414D01*
X125872885Y-101128527D01*
X125851274Y-101140078D01*
X125845100Y-101145144D01*
X125838205Y-101149751D01*
X125838201Y-101149755D01*
X125698820Y-101242887D01*
X125543948Y-101307037D01*
X125379536Y-101339740D01*
X125211904Y-101339740D01*
X125047492Y-101307037D01*
X124892620Y-101242887D01*
X124753239Y-101149755D01*
X124634705Y-101031221D01*
X124541573Y-100891840D01*
X124477423Y-100736968D01*
X124444720Y-100572556D01*
X124444720Y-100404924D01*
X124477423Y-100240512D01*
X124541573Y-100085640D01*
X124634705Y-99946259D01*
X124753239Y-99827725D01*
X124892620Y-99734593D01*
X125047492Y-99670443D01*
X125211904Y-99637740D01*
X125379536Y-99637740D01*
X125543948Y-99670443D01*
G37*
G36*
X149411709Y-98373871D02*
G01*
X149573535Y-98440902D01*
X149719169Y-98538211D01*
X149843029Y-98662071D01*
X149940338Y-98807705D01*
X150007369Y-98969531D01*
X150041540Y-99141320D01*
X150041540Y-99316480D01*
X150007369Y-99488269D01*
X149940338Y-99650095D01*
X149843029Y-99795729D01*
X149719169Y-99919589D01*
X149573535Y-100016898D01*
X149411709Y-100083929D01*
X149239920Y-100118100D01*
X149064760Y-100118100D01*
X148892971Y-100083929D01*
X148731145Y-100016898D01*
X148585511Y-99919589D01*
X148461651Y-99795729D01*
X148364342Y-99650095D01*
X148297311Y-99488269D01*
X148263140Y-99316480D01*
X148263140Y-99141320D01*
X148297311Y-98969531D01*
X148364342Y-98807705D01*
X148461651Y-98662071D01*
X148585511Y-98538211D01*
X148731145Y-98440902D01*
X148892971Y-98373871D01*
X149064760Y-98339700D01*
X149239920Y-98339700D01*
X149411709Y-98373871D01*
G37*
G36*
X146871709Y-98373871D02*
G01*
X147033535Y-98440902D01*
X147179169Y-98538211D01*
X147303029Y-98662071D01*
X147400338Y-98807705D01*
X147467369Y-98969531D01*
X147501540Y-99141320D01*
X147501540Y-99316480D01*
X147467369Y-99488269D01*
X147400338Y-99650095D01*
X147303029Y-99795729D01*
X147179169Y-99919589D01*
X147033535Y-100016898D01*
X146871709Y-100083929D01*
X146699920Y-100118100D01*
X146524760Y-100118100D01*
X146352971Y-100083929D01*
X146191145Y-100016898D01*
X146045511Y-99919589D01*
X145921651Y-99795729D01*
X145824342Y-99650095D01*
X145757311Y-99488269D01*
X145723140Y-99316480D01*
X145723140Y-99141320D01*
X145757311Y-98969531D01*
X145824342Y-98807705D01*
X145921651Y-98662071D01*
X146045511Y-98538211D01*
X146191145Y-98440902D01*
X146352971Y-98373871D01*
X146524760Y-98339700D01*
X146699920Y-98339700D01*
X146871709Y-98373871D01*
G37*
G36*
X144331709Y-98373871D02*
G01*
X144493535Y-98440902D01*
X144639169Y-98538211D01*
X144763029Y-98662071D01*
X144860338Y-98807705D01*
X144927369Y-98969531D01*
X144961540Y-99141320D01*
X144961540Y-99316480D01*
X144927369Y-99488269D01*
X144860338Y-99650095D01*
X144763029Y-99795729D01*
X144639169Y-99919589D01*
X144493535Y-100016898D01*
X144331709Y-100083929D01*
X144159920Y-100118100D01*
X143984760Y-100118100D01*
X143812971Y-100083929D01*
X143651145Y-100016898D01*
X143505511Y-99919589D01*
X143381651Y-99795729D01*
X143284342Y-99650095D01*
X143217311Y-99488269D01*
X143183140Y-99316480D01*
X143183140Y-99141320D01*
X143217311Y-98969531D01*
X143284342Y-98807705D01*
X143381651Y-98662071D01*
X143505511Y-98538211D01*
X143651145Y-98440902D01*
X143812971Y-98373871D01*
X143984760Y-98339700D01*
X144159920Y-98339700D01*
X144331709Y-98373871D01*
G37*
G36*
X141791709Y-98373871D02*
G01*
X141953535Y-98440902D01*
X142099169Y-98538211D01*
X142223029Y-98662071D01*
X142320338Y-98807705D01*
X142387369Y-98969531D01*
X142421540Y-99141320D01*
X142421540Y-99316480D01*
X142387369Y-99488269D01*
X142320338Y-99650095D01*
X142223029Y-99795729D01*
X142099169Y-99919589D01*
X141953535Y-100016898D01*
X141791709Y-100083929D01*
X141619920Y-100118100D01*
X141444760Y-100118100D01*
X141272971Y-100083929D01*
X141111145Y-100016898D01*
X140965511Y-99919589D01*
X140841651Y-99795729D01*
X140744342Y-99650095D01*
X140677311Y-99488269D01*
X140643140Y-99316480D01*
X140643140Y-99141320D01*
X140677311Y-98969531D01*
X140744342Y-98807705D01*
X140841651Y-98662071D01*
X140965511Y-98538211D01*
X141111145Y-98440902D01*
X141272971Y-98373871D01*
X141444760Y-98339700D01*
X141619920Y-98339700D01*
X141791709Y-98373871D01*
G37*
G36*
X161597712Y-94941927D02*
G01*
X161747012Y-94971624D01*
X161910984Y-95039544D01*
X162058554Y-95138147D01*
X162184053Y-95263646D01*
X162282656Y-95411216D01*
X162350576Y-95575188D01*
X162385200Y-95749259D01*
X162385200Y-95926741D01*
X162350576Y-96100812D01*
X162282656Y-96264784D01*
X162184053Y-96412354D01*
X162058554Y-96537853D01*
X161910984Y-96636456D01*
X161747012Y-96704376D01*
X161597712Y-96734073D01*
X161572942Y-96739000D01*
X161395458Y-96739000D01*
X161370688Y-96734073D01*
X161221388Y-96704376D01*
X161057416Y-96636456D01*
X160909846Y-96537853D01*
X160784347Y-96412354D01*
X160685744Y-96264784D01*
X160617824Y-96100812D01*
X160583200Y-95926741D01*
X160583200Y-95749259D01*
X160617824Y-95575188D01*
X160685744Y-95411216D01*
X160784347Y-95263646D01*
X160909846Y-95138147D01*
X161057416Y-95039544D01*
X161221388Y-94971624D01*
X161370688Y-94941927D01*
X161395458Y-94937000D01*
X161572942Y-94937000D01*
X161597712Y-94941927D01*
G37*
G36*
X171757712Y-94941927D02*
G01*
X171907012Y-94971624D01*
X172070984Y-95039544D01*
X172218554Y-95138147D01*
X172344053Y-95263646D01*
X172442656Y-95411216D01*
X172510576Y-95575188D01*
X172545200Y-95749259D01*
X172545200Y-95926741D01*
X172510576Y-96100812D01*
X172442656Y-96264784D01*
X172344053Y-96412354D01*
X172218554Y-96537853D01*
X172070984Y-96636456D01*
X171907012Y-96704376D01*
X171757712Y-96734073D01*
X171732942Y-96739000D01*
X171555458Y-96739000D01*
X171530688Y-96734073D01*
X171381388Y-96704376D01*
X171217416Y-96636456D01*
X171069846Y-96537853D01*
X170944347Y-96412354D01*
X170845744Y-96264784D01*
X170777824Y-96100812D01*
X170743200Y-95926741D01*
X170743200Y-95749259D01*
X170777824Y-95575188D01*
X170845744Y-95411216D01*
X170944347Y-95263646D01*
X171069846Y-95138147D01*
X171217416Y-95039544D01*
X171381388Y-94971624D01*
X171530688Y-94941927D01*
X171555458Y-94937000D01*
X171732942Y-94937000D01*
X171757712Y-94941927D01*
G37*
G36*
X169217712Y-94941927D02*
G01*
X169367012Y-94971624D01*
X169530984Y-95039544D01*
X169678554Y-95138147D01*
X169804053Y-95263646D01*
X169902656Y-95411216D01*
X169970576Y-95575188D01*
X170005200Y-95749259D01*
X170005200Y-95926741D01*
X169970576Y-96100812D01*
X169902656Y-96264784D01*
X169804053Y-96412354D01*
X169678554Y-96537853D01*
X169530984Y-96636456D01*
X169367012Y-96704376D01*
X169217712Y-96734073D01*
X169192942Y-96739000D01*
X169015458Y-96739000D01*
X168990688Y-96734073D01*
X168841388Y-96704376D01*
X168677416Y-96636456D01*
X168529846Y-96537853D01*
X168404347Y-96412354D01*
X168305744Y-96264784D01*
X168237824Y-96100812D01*
X168203200Y-95926741D01*
X168203200Y-95749259D01*
X168237824Y-95575188D01*
X168305744Y-95411216D01*
X168404347Y-95263646D01*
X168529846Y-95138147D01*
X168677416Y-95039544D01*
X168841388Y-94971624D01*
X168990688Y-94941927D01*
X169015458Y-94937000D01*
X169192942Y-94937000D01*
X169217712Y-94941927D01*
G37*
G36*
X166677712Y-94941927D02*
G01*
X166827012Y-94971624D01*
X166990984Y-95039544D01*
X167138554Y-95138147D01*
X167264053Y-95263646D01*
X167362656Y-95411216D01*
X167430576Y-95575188D01*
X167465200Y-95749259D01*
X167465200Y-95926741D01*
X167430576Y-96100812D01*
X167362656Y-96264784D01*
X167264053Y-96412354D01*
X167138554Y-96537853D01*
X166990984Y-96636456D01*
X166827012Y-96704376D01*
X166677712Y-96734073D01*
X166652942Y-96739000D01*
X166475458Y-96739000D01*
X166450688Y-96734073D01*
X166301388Y-96704376D01*
X166137416Y-96636456D01*
X165989846Y-96537853D01*
X165864347Y-96412354D01*
X165765744Y-96264784D01*
X165697824Y-96100812D01*
X165663200Y-95926741D01*
X165663200Y-95749259D01*
X165697824Y-95575188D01*
X165765744Y-95411216D01*
X165864347Y-95263646D01*
X165989846Y-95138147D01*
X166137416Y-95039544D01*
X166301388Y-94971624D01*
X166450688Y-94941927D01*
X166475458Y-94937000D01*
X166652942Y-94937000D01*
X166677712Y-94941927D01*
G37*
G36*
X164137712Y-94941927D02*
G01*
X164287012Y-94971624D01*
X164450984Y-95039544D01*
X164598554Y-95138147D01*
X164724053Y-95263646D01*
X164822656Y-95411216D01*
X164890576Y-95575188D01*
X164925200Y-95749259D01*
X164925200Y-95926741D01*
X164890576Y-96100812D01*
X164822656Y-96264784D01*
X164724053Y-96412354D01*
X164598554Y-96537853D01*
X164450984Y-96636456D01*
X164287012Y-96704376D01*
X164137712Y-96734073D01*
X164112942Y-96739000D01*
X163935458Y-96739000D01*
X163910688Y-96734073D01*
X163761388Y-96704376D01*
X163597416Y-96636456D01*
X163449846Y-96537853D01*
X163324347Y-96412354D01*
X163225744Y-96264784D01*
X163157824Y-96100812D01*
X163123200Y-95926741D01*
X163123200Y-95749259D01*
X163157824Y-95575188D01*
X163225744Y-95411216D01*
X163324347Y-95263646D01*
X163449846Y-95138147D01*
X163597416Y-95039544D01*
X163761388Y-94971624D01*
X163910688Y-94941927D01*
X163935458Y-94937000D01*
X164112942Y-94937000D01*
X164137712Y-94941927D01*
G37*
G36*
X159057712Y-94941927D02*
G01*
X159207012Y-94971624D01*
X159370984Y-95039544D01*
X159518554Y-95138147D01*
X159644053Y-95263646D01*
X159742656Y-95411216D01*
X159810576Y-95575188D01*
X159845200Y-95749259D01*
X159845200Y-95926741D01*
X159810576Y-96100812D01*
X159742656Y-96264784D01*
X159644053Y-96412354D01*
X159518554Y-96537853D01*
X159370984Y-96636456D01*
X159207012Y-96704376D01*
X159057712Y-96734073D01*
X159032942Y-96739000D01*
X158855458Y-96739000D01*
X158830688Y-96734073D01*
X158681388Y-96704376D01*
X158517416Y-96636456D01*
X158369846Y-96537853D01*
X158244347Y-96412354D01*
X158145744Y-96264784D01*
X158077824Y-96100812D01*
X158043200Y-95926741D01*
X158043200Y-95749259D01*
X158077824Y-95575188D01*
X158145744Y-95411216D01*
X158244347Y-95263646D01*
X158369846Y-95138147D01*
X158517416Y-95039544D01*
X158681388Y-94971624D01*
X158830688Y-94941927D01*
X158855458Y-94937000D01*
X159032942Y-94937000D01*
X159057712Y-94941927D01*
G37*
G36*
X156517712Y-94941927D02*
G01*
X156667012Y-94971624D01*
X156830984Y-95039544D01*
X156978554Y-95138147D01*
X157104053Y-95263646D01*
X157202656Y-95411216D01*
X157270576Y-95575188D01*
X157305200Y-95749259D01*
X157305200Y-95926741D01*
X157270576Y-96100812D01*
X157202656Y-96264784D01*
X157104053Y-96412354D01*
X156978554Y-96537853D01*
X156830984Y-96636456D01*
X156667012Y-96704376D01*
X156517712Y-96734073D01*
X156492942Y-96739000D01*
X156315458Y-96739000D01*
X156290688Y-96734073D01*
X156141388Y-96704376D01*
X155977416Y-96636456D01*
X155829846Y-96537853D01*
X155704347Y-96412354D01*
X155605744Y-96264784D01*
X155537824Y-96100812D01*
X155503200Y-95926741D01*
X155503200Y-95749259D01*
X155537824Y-95575188D01*
X155605744Y-95411216D01*
X155704347Y-95263646D01*
X155829846Y-95138147D01*
X155977416Y-95039544D01*
X156141388Y-94971624D01*
X156290688Y-94941927D01*
X156315458Y-94937000D01*
X156492942Y-94937000D01*
X156517712Y-94941927D01*
G37*
G36*
X153977712Y-94941927D02*
G01*
X154127012Y-94971624D01*
X154290984Y-95039544D01*
X154438554Y-95138147D01*
X154564053Y-95263646D01*
X154662656Y-95411216D01*
X154730576Y-95575188D01*
X154765200Y-95749259D01*
X154765200Y-95926741D01*
X154730576Y-96100812D01*
X154662656Y-96264784D01*
X154564053Y-96412354D01*
X154438554Y-96537853D01*
X154290984Y-96636456D01*
X154127012Y-96704376D01*
X153977712Y-96734073D01*
X153952942Y-96739000D01*
X153775458Y-96739000D01*
X153750688Y-96734073D01*
X153601388Y-96704376D01*
X153437416Y-96636456D01*
X153289846Y-96537853D01*
X153164347Y-96412354D01*
X153065744Y-96264784D01*
X152997824Y-96100812D01*
X152963200Y-95926741D01*
X152963200Y-95749259D01*
X152997824Y-95575188D01*
X153065744Y-95411216D01*
X153164347Y-95263646D01*
X153289846Y-95138147D01*
X153437416Y-95039544D01*
X153601388Y-94971624D01*
X153750688Y-94941927D01*
X153775458Y-94937000D01*
X153952942Y-94937000D01*
X153977712Y-94941927D01*
G37*
G36*
X151437712Y-94941927D02*
G01*
X151587012Y-94971624D01*
X151750984Y-95039544D01*
X151898554Y-95138147D01*
X152024053Y-95263646D01*
X152122656Y-95411216D01*
X152190576Y-95575188D01*
X152225200Y-95749259D01*
X152225200Y-95926741D01*
X152190576Y-96100812D01*
X152122656Y-96264784D01*
X152024053Y-96412354D01*
X151898554Y-96537853D01*
X151750984Y-96636456D01*
X151587012Y-96704376D01*
X151437712Y-96734073D01*
X151412942Y-96739000D01*
X151235458Y-96739000D01*
X151210688Y-96734073D01*
X151061388Y-96704376D01*
X150897416Y-96636456D01*
X150749846Y-96537853D01*
X150624347Y-96412354D01*
X150525744Y-96264784D01*
X150457824Y-96100812D01*
X150423200Y-95926741D01*
X150423200Y-95749259D01*
X150457824Y-95575188D01*
X150525744Y-95411216D01*
X150624347Y-95263646D01*
X150749846Y-95138147D01*
X150897416Y-95039544D01*
X151061388Y-94971624D01*
X151210688Y-94941927D01*
X151235458Y-94937000D01*
X151412942Y-94937000D01*
X151437712Y-94941927D01*
G37*
G36*
X148897712Y-94941927D02*
G01*
X149047012Y-94971624D01*
X149210984Y-95039544D01*
X149358554Y-95138147D01*
X149484053Y-95263646D01*
X149582656Y-95411216D01*
X149650576Y-95575188D01*
X149685200Y-95749259D01*
X149685200Y-95926741D01*
X149650576Y-96100812D01*
X149582656Y-96264784D01*
X149484053Y-96412354D01*
X149358554Y-96537853D01*
X149210984Y-96636456D01*
X149047012Y-96704376D01*
X148897712Y-96734073D01*
X148872942Y-96739000D01*
X148695458Y-96739000D01*
X148670688Y-96734073D01*
X148521388Y-96704376D01*
X148357416Y-96636456D01*
X148209846Y-96537853D01*
X148084347Y-96412354D01*
X147985744Y-96264784D01*
X147917824Y-96100812D01*
X147883200Y-95926741D01*
X147883200Y-95749259D01*
X147917824Y-95575188D01*
X147985744Y-95411216D01*
X148084347Y-95263646D01*
X148209846Y-95138147D01*
X148357416Y-95039544D01*
X148521388Y-94971624D01*
X148670688Y-94941927D01*
X148695458Y-94937000D01*
X148872942Y-94937000D01*
X148897712Y-94941927D01*
G37*
G36*
X143817712Y-94941927D02*
G01*
X143967012Y-94971624D01*
X144130984Y-95039544D01*
X144278554Y-95138147D01*
X144404053Y-95263646D01*
X144502656Y-95411216D01*
X144570576Y-95575188D01*
X144605200Y-95749259D01*
X144605200Y-95926741D01*
X144570576Y-96100812D01*
X144502656Y-96264784D01*
X144404053Y-96412354D01*
X144278554Y-96537853D01*
X144130984Y-96636456D01*
X143967012Y-96704376D01*
X143817712Y-96734073D01*
X143792942Y-96739000D01*
X143615458Y-96739000D01*
X143590688Y-96734073D01*
X143441388Y-96704376D01*
X143277416Y-96636456D01*
X143129846Y-96537853D01*
X143004347Y-96412354D01*
X142905744Y-96264784D01*
X142837824Y-96100812D01*
X142803200Y-95926741D01*
X142803200Y-95749259D01*
X142837824Y-95575188D01*
X142905744Y-95411216D01*
X143004347Y-95263646D01*
X143129846Y-95138147D01*
X143277416Y-95039544D01*
X143441388Y-94971624D01*
X143590688Y-94941927D01*
X143615458Y-94937000D01*
X143792942Y-94937000D01*
X143817712Y-94941927D01*
G37*
G36*
X146357712Y-94941927D02*
G01*
X146507012Y-94971624D01*
X146670984Y-95039544D01*
X146818554Y-95138147D01*
X146944053Y-95263646D01*
X147042656Y-95411216D01*
X147110576Y-95575188D01*
X147145200Y-95749259D01*
X147145200Y-95926741D01*
X147110576Y-96100812D01*
X147042656Y-96264784D01*
X146944053Y-96412354D01*
X146818554Y-96537853D01*
X146670984Y-96636456D01*
X146507012Y-96704376D01*
X146357712Y-96734073D01*
X146332942Y-96739000D01*
X146155458Y-96739000D01*
X146130688Y-96734073D01*
X145981388Y-96704376D01*
X145817416Y-96636456D01*
X145669846Y-96537853D01*
X145544347Y-96412354D01*
X145445744Y-96264784D01*
X145377824Y-96100812D01*
X145343200Y-95926741D01*
X145343200Y-95749259D01*
X145377824Y-95575188D01*
X145445744Y-95411216D01*
X145544347Y-95263646D01*
X145669846Y-95138147D01*
X145817416Y-95039544D01*
X145981388Y-94971624D01*
X146130688Y-94941927D01*
X146155458Y-94937000D01*
X146332942Y-94937000D01*
X146357712Y-94941927D01*
G37*
G36*
X126825200Y-96739000D02*
G01*
X125023200Y-96739000D01*
X125023200Y-94937000D01*
X126825200Y-94937000D01*
X126825200Y-96739000D01*
G37*
G36*
X128577712Y-94941927D02*
G01*
X128727012Y-94971624D01*
X128890984Y-95039544D01*
X129038554Y-95138147D01*
X129164053Y-95263646D01*
X129262656Y-95411216D01*
X129330576Y-95575188D01*
X129365200Y-95749259D01*
X129365200Y-95926741D01*
X129330576Y-96100812D01*
X129262656Y-96264784D01*
X129164053Y-96412354D01*
X129038554Y-96537853D01*
X128890984Y-96636456D01*
X128727012Y-96704376D01*
X128577712Y-96734073D01*
X128552942Y-96739000D01*
X128375458Y-96739000D01*
X128350688Y-96734073D01*
X128201388Y-96704376D01*
X128037416Y-96636456D01*
X127889846Y-96537853D01*
X127764347Y-96412354D01*
X127665744Y-96264784D01*
X127597824Y-96100812D01*
X127563200Y-95926741D01*
X127563200Y-95749259D01*
X127597824Y-95575188D01*
X127665744Y-95411216D01*
X127764347Y-95263646D01*
X127889846Y-95138147D01*
X128037416Y-95039544D01*
X128201388Y-94971624D01*
X128350688Y-94941927D01*
X128375458Y-94937000D01*
X128552942Y-94937000D01*
X128577712Y-94941927D01*
G37*
G36*
X133657712Y-94941927D02*
G01*
X133807012Y-94971624D01*
X133970984Y-95039544D01*
X134118554Y-95138147D01*
X134244053Y-95263646D01*
X134342656Y-95411216D01*
X134410576Y-95575188D01*
X134445200Y-95749259D01*
X134445200Y-95926741D01*
X134410576Y-96100812D01*
X134342656Y-96264784D01*
X134244053Y-96412354D01*
X134118554Y-96537853D01*
X133970984Y-96636456D01*
X133807012Y-96704376D01*
X133657712Y-96734073D01*
X133632942Y-96739000D01*
X133455458Y-96739000D01*
X133430688Y-96734073D01*
X133281388Y-96704376D01*
X133117416Y-96636456D01*
X132969846Y-96537853D01*
X132844347Y-96412354D01*
X132745744Y-96264784D01*
X132677824Y-96100812D01*
X132643200Y-95926741D01*
X132643200Y-95749259D01*
X132677824Y-95575188D01*
X132745744Y-95411216D01*
X132844347Y-95263646D01*
X132969846Y-95138147D01*
X133117416Y-95039544D01*
X133281388Y-94971624D01*
X133430688Y-94941927D01*
X133455458Y-94937000D01*
X133632942Y-94937000D01*
X133657712Y-94941927D01*
G37*
G36*
X136197712Y-94941927D02*
G01*
X136347012Y-94971624D01*
X136510984Y-95039544D01*
X136658554Y-95138147D01*
X136784053Y-95263646D01*
X136882656Y-95411216D01*
X136950576Y-95575188D01*
X136985200Y-95749259D01*
X136985200Y-95926741D01*
X136950576Y-96100812D01*
X136882656Y-96264784D01*
X136784053Y-96412354D01*
X136658554Y-96537853D01*
X136510984Y-96636456D01*
X136347012Y-96704376D01*
X136197712Y-96734073D01*
X136172942Y-96739000D01*
X135995458Y-96739000D01*
X135970688Y-96734073D01*
X135821388Y-96704376D01*
X135657416Y-96636456D01*
X135509846Y-96537853D01*
X135384347Y-96412354D01*
X135285744Y-96264784D01*
X135217824Y-96100812D01*
X135183200Y-95926741D01*
X135183200Y-95749259D01*
X135217824Y-95575188D01*
X135285744Y-95411216D01*
X135384347Y-95263646D01*
X135509846Y-95138147D01*
X135657416Y-95039544D01*
X135821388Y-94971624D01*
X135970688Y-94941927D01*
X135995458Y-94937000D01*
X136172942Y-94937000D01*
X136197712Y-94941927D01*
G37*
G36*
X138737712Y-94941927D02*
G01*
X138887012Y-94971624D01*
X139050984Y-95039544D01*
X139198554Y-95138147D01*
X139324053Y-95263646D01*
X139422656Y-95411216D01*
X139490576Y-95575188D01*
X139525200Y-95749259D01*
X139525200Y-95926741D01*
X139490576Y-96100812D01*
X139422656Y-96264784D01*
X139324053Y-96412354D01*
X139198554Y-96537853D01*
X139050984Y-96636456D01*
X138887012Y-96704376D01*
X138737712Y-96734073D01*
X138712942Y-96739000D01*
X138535458Y-96739000D01*
X138510688Y-96734073D01*
X138361388Y-96704376D01*
X138197416Y-96636456D01*
X138049846Y-96537853D01*
X137924347Y-96412354D01*
X137825744Y-96264784D01*
X137757824Y-96100812D01*
X137723200Y-95926741D01*
X137723200Y-95749259D01*
X137757824Y-95575188D01*
X137825744Y-95411216D01*
X137924347Y-95263646D01*
X138049846Y-95138147D01*
X138197416Y-95039544D01*
X138361388Y-94971624D01*
X138510688Y-94941927D01*
X138535458Y-94937000D01*
X138712942Y-94937000D01*
X138737712Y-94941927D01*
G37*
G36*
X141277712Y-94941927D02*
G01*
X141427012Y-94971624D01*
X141590984Y-95039544D01*
X141738554Y-95138147D01*
X141864053Y-95263646D01*
X141962656Y-95411216D01*
X142030576Y-95575188D01*
X142065200Y-95749259D01*
X142065200Y-95926741D01*
X142030576Y-96100812D01*
X141962656Y-96264784D01*
X141864053Y-96412354D01*
X141738554Y-96537853D01*
X141590984Y-96636456D01*
X141427012Y-96704376D01*
X141277712Y-96734073D01*
X141252942Y-96739000D01*
X141075458Y-96739000D01*
X141050688Y-96734073D01*
X140901388Y-96704376D01*
X140737416Y-96636456D01*
X140589846Y-96537853D01*
X140464347Y-96412354D01*
X140365744Y-96264784D01*
X140297824Y-96100812D01*
X140263200Y-95926741D01*
X140263200Y-95749259D01*
X140297824Y-95575188D01*
X140365744Y-95411216D01*
X140464347Y-95263646D01*
X140589846Y-95138147D01*
X140737416Y-95039544D01*
X140901388Y-94971624D01*
X141050688Y-94941927D01*
X141075458Y-94937000D01*
X141252942Y-94937000D01*
X141277712Y-94941927D01*
G37*
G36*
X131117712Y-94941927D02*
G01*
X131267012Y-94971624D01*
X131430984Y-95039544D01*
X131578554Y-95138147D01*
X131704053Y-95263646D01*
X131802656Y-95411216D01*
X131870576Y-95575188D01*
X131905200Y-95749259D01*
X131905200Y-95926741D01*
X131870576Y-96100812D01*
X131802656Y-96264784D01*
X131704053Y-96412354D01*
X131578554Y-96537853D01*
X131430984Y-96636456D01*
X131267012Y-96704376D01*
X131117712Y-96734073D01*
X131092942Y-96739000D01*
X130915458Y-96739000D01*
X130890688Y-96734073D01*
X130741388Y-96704376D01*
X130577416Y-96636456D01*
X130429846Y-96537853D01*
X130304347Y-96412354D01*
X130205744Y-96264784D01*
X130137824Y-96100812D01*
X130103200Y-95926741D01*
X130103200Y-95749259D01*
X130137824Y-95575188D01*
X130205744Y-95411216D01*
X130304347Y-95263646D01*
X130429846Y-95138147D01*
X130577416Y-95039544D01*
X130741388Y-94971624D01*
X130890688Y-94941927D01*
X130915458Y-94937000D01*
X131092942Y-94937000D01*
X131117712Y-94941927D01*
G37*
G36*
X174297712Y-94941927D02*
G01*
X174447012Y-94971624D01*
X174610984Y-95039544D01*
X174758554Y-95138147D01*
X174884053Y-95263646D01*
X174982656Y-95411216D01*
X175050576Y-95575188D01*
X175085200Y-95749259D01*
X175085200Y-95926741D01*
X175050576Y-96100812D01*
X174982656Y-96264784D01*
X174884053Y-96412354D01*
X174758554Y-96537853D01*
X174610984Y-96636456D01*
X174447012Y-96704376D01*
X174297712Y-96734073D01*
X174272942Y-96739000D01*
X174095458Y-96739000D01*
X174070688Y-96734073D01*
X173921388Y-96704376D01*
X173757416Y-96636456D01*
X173609846Y-96537853D01*
X173484347Y-96412354D01*
X173385744Y-96264784D01*
X173317824Y-96100812D01*
X173283200Y-95926741D01*
X173283200Y-95749259D01*
X173317824Y-95575188D01*
X173385744Y-95411216D01*
X173484347Y-95263646D01*
X173609846Y-95138147D01*
X173757416Y-95039544D01*
X173921388Y-94971624D01*
X174070688Y-94941927D01*
X174095458Y-94937000D01*
X174272942Y-94937000D01*
X174297712Y-94941927D01*
G37*
G36*
X179350433Y-93202893D02*
G01*
X179440657Y-93220839D01*
X179546267Y-93264585D01*
X179695621Y-93326449D01*
X179695622Y-93326450D01*
X179925086Y-93479772D01*
X180120228Y-93674914D01*
X180222675Y-93828237D01*
X180273551Y-93904379D01*
X180379161Y-94159344D01*
X180433000Y-94430012D01*
X180433000Y-94705988D01*
X180379161Y-94976656D01*
X180273551Y-95231621D01*
X180252152Y-95263647D01*
X180120228Y-95461086D01*
X179925086Y-95656228D01*
X179785856Y-95749258D01*
X179695621Y-95809551D01*
X179546267Y-95871415D01*
X179440657Y-95915161D01*
X179350433Y-95933107D01*
X179169988Y-95969000D01*
X178894012Y-95969000D01*
X178713567Y-95933107D01*
X178623343Y-95915161D01*
X178517733Y-95871415D01*
X178368379Y-95809551D01*
X178278144Y-95749258D01*
X178138914Y-95656228D01*
X177943772Y-95461086D01*
X177811848Y-95263647D01*
X177790449Y-95231621D01*
X177684839Y-94976656D01*
X177631000Y-94705988D01*
X177631000Y-94430012D01*
X177684839Y-94159344D01*
X177790449Y-93904379D01*
X177841325Y-93828237D01*
X177943772Y-93674914D01*
X178138914Y-93479772D01*
X178368378Y-93326450D01*
X178368379Y-93326449D01*
X178517733Y-93264585D01*
X178623343Y-93220839D01*
X178713567Y-93202893D01*
X178894012Y-93167000D01*
X179169988Y-93167000D01*
X179350433Y-93202893D01*
G37*
G36*
X121350433Y-93202893D02*
G01*
X121440657Y-93220839D01*
X121546267Y-93264585D01*
X121695621Y-93326449D01*
X121695622Y-93326450D01*
X121925086Y-93479772D01*
X122120228Y-93674914D01*
X122222675Y-93828237D01*
X122273551Y-93904379D01*
X122379161Y-94159344D01*
X122433000Y-94430012D01*
X122433000Y-94705988D01*
X122379161Y-94976656D01*
X122273551Y-95231621D01*
X122252152Y-95263647D01*
X122120228Y-95461086D01*
X121925086Y-95656228D01*
X121785856Y-95749258D01*
X121695621Y-95809551D01*
X121546267Y-95871415D01*
X121440657Y-95915161D01*
X121350433Y-95933107D01*
X121169988Y-95969000D01*
X120894012Y-95969000D01*
X120713567Y-95933107D01*
X120623343Y-95915161D01*
X120517733Y-95871415D01*
X120368379Y-95809551D01*
X120278144Y-95749258D01*
X120138914Y-95656228D01*
X119943772Y-95461086D01*
X119811848Y-95263647D01*
X119790449Y-95231621D01*
X119684839Y-94976656D01*
X119631000Y-94705988D01*
X119631000Y-94430012D01*
X119684839Y-94159344D01*
X119790449Y-93904379D01*
X119841325Y-93828237D01*
X119943772Y-93674914D01*
X120138914Y-93479772D01*
X120368378Y-93326450D01*
X120368379Y-93326449D01*
X120517733Y-93264585D01*
X120623343Y-93220839D01*
X120713567Y-93202893D01*
X120894012Y-93167000D01*
X121169988Y-93167000D01*
X121350433Y-93202893D01*
G37*
G36*
X141277712Y-92401927D02*
G01*
X141427012Y-92431624D01*
X141590984Y-92499544D01*
X141738554Y-92598147D01*
X141864053Y-92723646D01*
X141962656Y-92871216D01*
X142030576Y-93035188D01*
X142065200Y-93209259D01*
X142065200Y-93386741D01*
X142030576Y-93560812D01*
X141962656Y-93724784D01*
X141864053Y-93872354D01*
X141738554Y-93997853D01*
X141590984Y-94096456D01*
X141427012Y-94164376D01*
X141277712Y-94194073D01*
X141252942Y-94199000D01*
X141075458Y-94199000D01*
X141050688Y-94194073D01*
X140901388Y-94164376D01*
X140737416Y-94096456D01*
X140589846Y-93997853D01*
X140464347Y-93872354D01*
X140365744Y-93724784D01*
X140297824Y-93560812D01*
X140263200Y-93386741D01*
X140263200Y-93209259D01*
X140297824Y-93035188D01*
X140365744Y-92871216D01*
X140464347Y-92723646D01*
X140589846Y-92598147D01*
X140737416Y-92499544D01*
X140901388Y-92431624D01*
X141050688Y-92401927D01*
X141075458Y-92397000D01*
X141252942Y-92397000D01*
X141277712Y-92401927D01*
G37*
G36*
X159057712Y-92401927D02*
G01*
X159207012Y-92431624D01*
X159370984Y-92499544D01*
X159518554Y-92598147D01*
X159644053Y-92723646D01*
X159742656Y-92871216D01*
X159810576Y-93035188D01*
X159845200Y-93209259D01*
X159845200Y-93386741D01*
X159810576Y-93560812D01*
X159742656Y-93724784D01*
X159644053Y-93872354D01*
X159518554Y-93997853D01*
X159370984Y-94096456D01*
X159207012Y-94164376D01*
X159057712Y-94194073D01*
X159032942Y-94199000D01*
X158855458Y-94199000D01*
X158830688Y-94194073D01*
X158681388Y-94164376D01*
X158517416Y-94096456D01*
X158369846Y-93997853D01*
X158244347Y-93872354D01*
X158145744Y-93724784D01*
X158077824Y-93560812D01*
X158043200Y-93386741D01*
X158043200Y-93209259D01*
X158077824Y-93035188D01*
X158145744Y-92871216D01*
X158244347Y-92723646D01*
X158369846Y-92598147D01*
X158517416Y-92499544D01*
X158681388Y-92431624D01*
X158830688Y-92401927D01*
X158855458Y-92397000D01*
X159032942Y-92397000D01*
X159057712Y-92401927D01*
G37*
G36*
X153977712Y-92401927D02*
G01*
X154127012Y-92431624D01*
X154290984Y-92499544D01*
X154438554Y-92598147D01*
X154564053Y-92723646D01*
X154662656Y-92871216D01*
X154730576Y-93035188D01*
X154765200Y-93209259D01*
X154765200Y-93386741D01*
X154730576Y-93560812D01*
X154662656Y-93724784D01*
X154564053Y-93872354D01*
X154438554Y-93997853D01*
X154290984Y-94096456D01*
X154127012Y-94164376D01*
X153977712Y-94194073D01*
X153952942Y-94199000D01*
X153775458Y-94199000D01*
X153750688Y-94194073D01*
X153601388Y-94164376D01*
X153437416Y-94096456D01*
X153289846Y-93997853D01*
X153164347Y-93872354D01*
X153065744Y-93724784D01*
X152997824Y-93560812D01*
X152963200Y-93386741D01*
X152963200Y-93209259D01*
X152997824Y-93035188D01*
X153065744Y-92871216D01*
X153164347Y-92723646D01*
X153289846Y-92598147D01*
X153437416Y-92499544D01*
X153601388Y-92431624D01*
X153750688Y-92401927D01*
X153775458Y-92397000D01*
X153952942Y-92397000D01*
X153977712Y-92401927D01*
G37*
G36*
X161597712Y-92401927D02*
G01*
X161747012Y-92431624D01*
X161910984Y-92499544D01*
X162058554Y-92598147D01*
X162184053Y-92723646D01*
X162282656Y-92871216D01*
X162350576Y-93035188D01*
X162385200Y-93209259D01*
X162385200Y-93386741D01*
X162350576Y-93560812D01*
X162282656Y-93724784D01*
X162184053Y-93872354D01*
X162058554Y-93997853D01*
X161910984Y-94096456D01*
X161747012Y-94164376D01*
X161597712Y-94194073D01*
X161572942Y-94199000D01*
X161395458Y-94199000D01*
X161370688Y-94194073D01*
X161221388Y-94164376D01*
X161057416Y-94096456D01*
X160909846Y-93997853D01*
X160784347Y-93872354D01*
X160685744Y-93724784D01*
X160617824Y-93560812D01*
X160583200Y-93386741D01*
X160583200Y-93209259D01*
X160617824Y-93035188D01*
X160685744Y-92871216D01*
X160784347Y-92723646D01*
X160909846Y-92598147D01*
X161057416Y-92499544D01*
X161221388Y-92431624D01*
X161370688Y-92401927D01*
X161395458Y-92397000D01*
X161572942Y-92397000D01*
X161597712Y-92401927D01*
G37*
G36*
X151437712Y-92401927D02*
G01*
X151587012Y-92431624D01*
X151750984Y-92499544D01*
X151898554Y-92598147D01*
X152024053Y-92723646D01*
X152122656Y-92871216D01*
X152190576Y-93035188D01*
X152225200Y-93209259D01*
X152225200Y-93386741D01*
X152190576Y-93560812D01*
X152122656Y-93724784D01*
X152024053Y-93872354D01*
X151898554Y-93997853D01*
X151750984Y-94096456D01*
X151587012Y-94164376D01*
X151437712Y-94194073D01*
X151412942Y-94199000D01*
X151235458Y-94199000D01*
X151210688Y-94194073D01*
X151061388Y-94164376D01*
X150897416Y-94096456D01*
X150749846Y-93997853D01*
X150624347Y-93872354D01*
X150525744Y-93724784D01*
X150457824Y-93560812D01*
X150423200Y-93386741D01*
X150423200Y-93209259D01*
X150457824Y-93035188D01*
X150525744Y-92871216D01*
X150624347Y-92723646D01*
X150749846Y-92598147D01*
X150897416Y-92499544D01*
X151061388Y-92431624D01*
X151210688Y-92401927D01*
X151235458Y-92397000D01*
X151412942Y-92397000D01*
X151437712Y-92401927D01*
G37*
G36*
X164137712Y-92401927D02*
G01*
X164287012Y-92431624D01*
X164450984Y-92499544D01*
X164598554Y-92598147D01*
X164724053Y-92723646D01*
X164822656Y-92871216D01*
X164890576Y-93035188D01*
X164925200Y-93209259D01*
X164925200Y-93386741D01*
X164890576Y-93560812D01*
X164822656Y-93724784D01*
X164724053Y-93872354D01*
X164598554Y-93997853D01*
X164450984Y-94096456D01*
X164287012Y-94164376D01*
X164137712Y-94194073D01*
X164112942Y-94199000D01*
X163935458Y-94199000D01*
X163910688Y-94194073D01*
X163761388Y-94164376D01*
X163597416Y-94096456D01*
X163449846Y-93997853D01*
X163324347Y-93872354D01*
X163225744Y-93724784D01*
X163157824Y-93560812D01*
X163123200Y-93386741D01*
X163123200Y-93209259D01*
X163157824Y-93035188D01*
X163225744Y-92871216D01*
X163324347Y-92723646D01*
X163449846Y-92598147D01*
X163597416Y-92499544D01*
X163761388Y-92431624D01*
X163910688Y-92401927D01*
X163935458Y-92397000D01*
X164112942Y-92397000D01*
X164137712Y-92401927D01*
G37*
G36*
X148897712Y-92401927D02*
G01*
X149047012Y-92431624D01*
X149210984Y-92499544D01*
X149358554Y-92598147D01*
X149484053Y-92723646D01*
X149582656Y-92871216D01*
X149650576Y-93035188D01*
X149685200Y-93209259D01*
X149685200Y-93386741D01*
X149650576Y-93560812D01*
X149582656Y-93724784D01*
X149484053Y-93872354D01*
X149358554Y-93997853D01*
X149210984Y-94096456D01*
X149047012Y-94164376D01*
X148897712Y-94194073D01*
X148872942Y-94199000D01*
X148695458Y-94199000D01*
X148670688Y-94194073D01*
X148521388Y-94164376D01*
X148357416Y-94096456D01*
X148209846Y-93997853D01*
X148084347Y-93872354D01*
X147985744Y-93724784D01*
X147917824Y-93560812D01*
X147883200Y-93386741D01*
X147883200Y-93209259D01*
X147917824Y-93035188D01*
X147985744Y-92871216D01*
X148084347Y-92723646D01*
X148209846Y-92598147D01*
X148357416Y-92499544D01*
X148521388Y-92431624D01*
X148670688Y-92401927D01*
X148695458Y-92397000D01*
X148872942Y-92397000D01*
X148897712Y-92401927D01*
G37*
G36*
X166677712Y-92401927D02*
G01*
X166827012Y-92431624D01*
X166990984Y-92499544D01*
X167138554Y-92598147D01*
X167264053Y-92723646D01*
X167362656Y-92871216D01*
X167430576Y-93035188D01*
X167465200Y-93209259D01*
X167465200Y-93386741D01*
X167430576Y-93560812D01*
X167362656Y-93724784D01*
X167264053Y-93872354D01*
X167138554Y-93997853D01*
X166990984Y-94096456D01*
X166827012Y-94164376D01*
X166677712Y-94194073D01*
X166652942Y-94199000D01*
X166475458Y-94199000D01*
X166450688Y-94194073D01*
X166301388Y-94164376D01*
X166137416Y-94096456D01*
X165989846Y-93997853D01*
X165864347Y-93872354D01*
X165765744Y-93724784D01*
X165697824Y-93560812D01*
X165663200Y-93386741D01*
X165663200Y-93209259D01*
X165697824Y-93035188D01*
X165765744Y-92871216D01*
X165864347Y-92723646D01*
X165989846Y-92598147D01*
X166137416Y-92499544D01*
X166301388Y-92431624D01*
X166450688Y-92401927D01*
X166475458Y-92397000D01*
X166652942Y-92397000D01*
X166677712Y-92401927D01*
G37*
G36*
X146357712Y-92401927D02*
G01*
X146507012Y-92431624D01*
X146670984Y-92499544D01*
X146818554Y-92598147D01*
X146944053Y-92723646D01*
X147042656Y-92871216D01*
X147110576Y-93035188D01*
X147145200Y-93209259D01*
X147145200Y-93386741D01*
X147110576Y-93560812D01*
X147042656Y-93724784D01*
X146944053Y-93872354D01*
X146818554Y-93997853D01*
X146670984Y-94096456D01*
X146507012Y-94164376D01*
X146357712Y-94194073D01*
X146332942Y-94199000D01*
X146155458Y-94199000D01*
X146130688Y-94194073D01*
X145981388Y-94164376D01*
X145817416Y-94096456D01*
X145669846Y-93997853D01*
X145544347Y-93872354D01*
X145445744Y-93724784D01*
X145377824Y-93560812D01*
X145343200Y-93386741D01*
X145343200Y-93209259D01*
X145377824Y-93035188D01*
X145445744Y-92871216D01*
X145544347Y-92723646D01*
X145669846Y-92598147D01*
X145817416Y-92499544D01*
X145981388Y-92431624D01*
X146130688Y-92401927D01*
X146155458Y-92397000D01*
X146332942Y-92397000D01*
X146357712Y-92401927D01*
G37*
G36*
X156517712Y-92401927D02*
G01*
X156667012Y-92431624D01*
X156830984Y-92499544D01*
X156978554Y-92598147D01*
X157104053Y-92723646D01*
X157202656Y-92871216D01*
X157270576Y-93035188D01*
X157305200Y-93209259D01*
X157305200Y-93386741D01*
X157270576Y-93560812D01*
X157202656Y-93724784D01*
X157104053Y-93872354D01*
X156978554Y-93997853D01*
X156830984Y-94096456D01*
X156667012Y-94164376D01*
X156517712Y-94194073D01*
X156492942Y-94199000D01*
X156315458Y-94199000D01*
X156290688Y-94194073D01*
X156141388Y-94164376D01*
X155977416Y-94096456D01*
X155829846Y-93997853D01*
X155704347Y-93872354D01*
X155605744Y-93724784D01*
X155537824Y-93560812D01*
X155503200Y-93386741D01*
X155503200Y-93209259D01*
X155537824Y-93035188D01*
X155605744Y-92871216D01*
X155704347Y-92723646D01*
X155829846Y-92598147D01*
X155977416Y-92499544D01*
X156141388Y-92431624D01*
X156290688Y-92401927D01*
X156315458Y-92397000D01*
X156492942Y-92397000D01*
X156517712Y-92401927D01*
G37*
G36*
X169217712Y-92401927D02*
G01*
X169367012Y-92431624D01*
X169530984Y-92499544D01*
X169678554Y-92598147D01*
X169804053Y-92723646D01*
X169902656Y-92871216D01*
X169970576Y-93035188D01*
X170005200Y-93209259D01*
X170005200Y-93386741D01*
X169970576Y-93560812D01*
X169902656Y-93724784D01*
X169804053Y-93872354D01*
X169678554Y-93997853D01*
X169530984Y-94096456D01*
X169367012Y-94164376D01*
X169217712Y-94194073D01*
X169192942Y-94199000D01*
X169015458Y-94199000D01*
X168990688Y-94194073D01*
X168841388Y-94164376D01*
X168677416Y-94096456D01*
X168529846Y-93997853D01*
X168404347Y-93872354D01*
X168305744Y-93724784D01*
X168237824Y-93560812D01*
X168203200Y-93386741D01*
X168203200Y-93209259D01*
X168237824Y-93035188D01*
X168305744Y-92871216D01*
X168404347Y-92723646D01*
X168529846Y-92598147D01*
X168677416Y-92499544D01*
X168841388Y-92431624D01*
X168990688Y-92401927D01*
X169015458Y-92397000D01*
X169192942Y-92397000D01*
X169217712Y-92401927D01*
G37*
G36*
X128577712Y-92401927D02*
G01*
X128727012Y-92431624D01*
X128890984Y-92499544D01*
X129038554Y-92598147D01*
X129164053Y-92723646D01*
X129262656Y-92871216D01*
X129330576Y-93035188D01*
X129365200Y-93209259D01*
X129365200Y-93386741D01*
X129330576Y-93560812D01*
X129262656Y-93724784D01*
X129164053Y-93872354D01*
X129038554Y-93997853D01*
X128890984Y-94096456D01*
X128727012Y-94164376D01*
X128577712Y-94194073D01*
X128552942Y-94199000D01*
X128375458Y-94199000D01*
X128350688Y-94194073D01*
X128201388Y-94164376D01*
X128037416Y-94096456D01*
X127889846Y-93997853D01*
X127764347Y-93872354D01*
X127665744Y-93724784D01*
X127597824Y-93560812D01*
X127563200Y-93386741D01*
X127563200Y-93209259D01*
X127597824Y-93035188D01*
X127665744Y-92871216D01*
X127764347Y-92723646D01*
X127889846Y-92598147D01*
X128037416Y-92499544D01*
X128201388Y-92431624D01*
X128350688Y-92401927D01*
X128375458Y-92397000D01*
X128552942Y-92397000D01*
X128577712Y-92401927D01*
G37*
G36*
X171757712Y-92401927D02*
G01*
X171907012Y-92431624D01*
X172070984Y-92499544D01*
X172218554Y-92598147D01*
X172344053Y-92723646D01*
X172442656Y-92871216D01*
X172510576Y-93035188D01*
X172545200Y-93209259D01*
X172545200Y-93386741D01*
X172510576Y-93560812D01*
X172442656Y-93724784D01*
X172344053Y-93872354D01*
X172218554Y-93997853D01*
X172070984Y-94096456D01*
X171907012Y-94164376D01*
X171757712Y-94194073D01*
X171732942Y-94199000D01*
X171555458Y-94199000D01*
X171530688Y-94194073D01*
X171381388Y-94164376D01*
X171217416Y-94096456D01*
X171069846Y-93997853D01*
X170944347Y-93872354D01*
X170845744Y-93724784D01*
X170777824Y-93560812D01*
X170743200Y-93386741D01*
X170743200Y-93209259D01*
X170777824Y-93035188D01*
X170845744Y-92871216D01*
X170944347Y-92723646D01*
X171069846Y-92598147D01*
X171217416Y-92499544D01*
X171381388Y-92431624D01*
X171530688Y-92401927D01*
X171555458Y-92397000D01*
X171732942Y-92397000D01*
X171757712Y-92401927D01*
G37*
G36*
X131117712Y-92401927D02*
G01*
X131267012Y-92431624D01*
X131430984Y-92499544D01*
X131578554Y-92598147D01*
X131704053Y-92723646D01*
X131802656Y-92871216D01*
X131870576Y-93035188D01*
X131905200Y-93209259D01*
X131905200Y-93386741D01*
X131870576Y-93560812D01*
X131802656Y-93724784D01*
X131704053Y-93872354D01*
X131578554Y-93997853D01*
X131430984Y-94096456D01*
X131267012Y-94164376D01*
X131117712Y-94194073D01*
X131092942Y-94199000D01*
X130915458Y-94199000D01*
X130890688Y-94194073D01*
X130741388Y-94164376D01*
X130577416Y-94096456D01*
X130429846Y-93997853D01*
X130304347Y-93872354D01*
X130205744Y-93724784D01*
X130137824Y-93560812D01*
X130103200Y-93386741D01*
X130103200Y-93209259D01*
X130137824Y-93035188D01*
X130205744Y-92871216D01*
X130304347Y-92723646D01*
X130429846Y-92598147D01*
X130577416Y-92499544D01*
X130741388Y-92431624D01*
X130890688Y-92401927D01*
X130915458Y-92397000D01*
X131092942Y-92397000D01*
X131117712Y-92401927D01*
G37*
G36*
X174297712Y-92401927D02*
G01*
X174447012Y-92431624D01*
X174610984Y-92499544D01*
X174758554Y-92598147D01*
X174884053Y-92723646D01*
X174982656Y-92871216D01*
X175050576Y-93035188D01*
X175085200Y-93209259D01*
X175085200Y-93386741D01*
X175050576Y-93560812D01*
X174982656Y-93724784D01*
X174884053Y-93872354D01*
X174758554Y-93997853D01*
X174610984Y-94096456D01*
X174447012Y-94164376D01*
X174297712Y-94194073D01*
X174272942Y-94199000D01*
X174095458Y-94199000D01*
X174070688Y-94194073D01*
X173921388Y-94164376D01*
X173757416Y-94096456D01*
X173609846Y-93997853D01*
X173484347Y-93872354D01*
X173385744Y-93724784D01*
X173317824Y-93560812D01*
X173283200Y-93386741D01*
X173283200Y-93209259D01*
X173317824Y-93035188D01*
X173385744Y-92871216D01*
X173484347Y-92723646D01*
X173609846Y-92598147D01*
X173757416Y-92499544D01*
X173921388Y-92431624D01*
X174070688Y-92401927D01*
X174095458Y-92397000D01*
X174272942Y-92397000D01*
X174297712Y-92401927D01*
G37*
G36*
X133657712Y-92401927D02*
G01*
X133807012Y-92431624D01*
X133970984Y-92499544D01*
X134118554Y-92598147D01*
X134244053Y-92723646D01*
X134342656Y-92871216D01*
X134410576Y-93035188D01*
X134445200Y-93209259D01*
X134445200Y-93386741D01*
X134410576Y-93560812D01*
X134342656Y-93724784D01*
X134244053Y-93872354D01*
X134118554Y-93997853D01*
X133970984Y-94096456D01*
X133807012Y-94164376D01*
X133657712Y-94194073D01*
X133632942Y-94199000D01*
X133455458Y-94199000D01*
X133430688Y-94194073D01*
X133281388Y-94164376D01*
X133117416Y-94096456D01*
X132969846Y-93997853D01*
X132844347Y-93872354D01*
X132745744Y-93724784D01*
X132677824Y-93560812D01*
X132643200Y-93386741D01*
X132643200Y-93209259D01*
X132677824Y-93035188D01*
X132745744Y-92871216D01*
X132844347Y-92723646D01*
X132969846Y-92598147D01*
X133117416Y-92499544D01*
X133281388Y-92431624D01*
X133430688Y-92401927D01*
X133455458Y-92397000D01*
X133632942Y-92397000D01*
X133657712Y-92401927D01*
G37*
G36*
X136197712Y-92401927D02*
G01*
X136347012Y-92431624D01*
X136510984Y-92499544D01*
X136658554Y-92598147D01*
X136784053Y-92723646D01*
X136882656Y-92871216D01*
X136950576Y-93035188D01*
X136985200Y-93209259D01*
X136985200Y-93386741D01*
X136950576Y-93560812D01*
X136882656Y-93724784D01*
X136784053Y-93872354D01*
X136658554Y-93997853D01*
X136510984Y-94096456D01*
X136347012Y-94164376D01*
X136197712Y-94194073D01*
X136172942Y-94199000D01*
X135995458Y-94199000D01*
X135970688Y-94194073D01*
X135821388Y-94164376D01*
X135657416Y-94096456D01*
X135509846Y-93997853D01*
X135384347Y-93872354D01*
X135285744Y-93724784D01*
X135217824Y-93560812D01*
X135183200Y-93386741D01*
X135183200Y-93209259D01*
X135217824Y-93035188D01*
X135285744Y-92871216D01*
X135384347Y-92723646D01*
X135509846Y-92598147D01*
X135657416Y-92499544D01*
X135821388Y-92431624D01*
X135970688Y-92401927D01*
X135995458Y-92397000D01*
X136172942Y-92397000D01*
X136197712Y-92401927D01*
G37*
G36*
X143817712Y-92401927D02*
G01*
X143967012Y-92431624D01*
X144130984Y-92499544D01*
X144278554Y-92598147D01*
X144404053Y-92723646D01*
X144502656Y-92871216D01*
X144570576Y-93035188D01*
X144605200Y-93209259D01*
X144605200Y-93386741D01*
X144570576Y-93560812D01*
X144502656Y-93724784D01*
X144404053Y-93872354D01*
X144278554Y-93997853D01*
X144130984Y-94096456D01*
X143967012Y-94164376D01*
X143817712Y-94194073D01*
X143792942Y-94199000D01*
X143615458Y-94199000D01*
X143590688Y-94194073D01*
X143441388Y-94164376D01*
X143277416Y-94096456D01*
X143129846Y-93997853D01*
X143004347Y-93872354D01*
X142905744Y-93724784D01*
X142837824Y-93560812D01*
X142803200Y-93386741D01*
X142803200Y-93209259D01*
X142837824Y-93035188D01*
X142905744Y-92871216D01*
X143004347Y-92723646D01*
X143129846Y-92598147D01*
X143277416Y-92499544D01*
X143441388Y-92431624D01*
X143590688Y-92401927D01*
X143615458Y-92397000D01*
X143792942Y-92397000D01*
X143817712Y-92401927D01*
G37*
G36*
X138737712Y-92401927D02*
G01*
X138887012Y-92431624D01*
X139050984Y-92499544D01*
X139198554Y-92598147D01*
X139324053Y-92723646D01*
X139422656Y-92871216D01*
X139490576Y-93035188D01*
X139525200Y-93209259D01*
X139525200Y-93386741D01*
X139490576Y-93560812D01*
X139422656Y-93724784D01*
X139324053Y-93872354D01*
X139198554Y-93997853D01*
X139050984Y-94096456D01*
X138887012Y-94164376D01*
X138737712Y-94194073D01*
X138712942Y-94199000D01*
X138535458Y-94199000D01*
X138510688Y-94194073D01*
X138361388Y-94164376D01*
X138197416Y-94096456D01*
X138049846Y-93997853D01*
X137924347Y-93872354D01*
X137825744Y-93724784D01*
X137757824Y-93560812D01*
X137723200Y-93386741D01*
X137723200Y-93209259D01*
X137757824Y-93035188D01*
X137825744Y-92871216D01*
X137924347Y-92723646D01*
X138049846Y-92598147D01*
X138197416Y-92499544D01*
X138361388Y-92431624D01*
X138510688Y-92401927D01*
X138535458Y-92397000D01*
X138712942Y-92397000D01*
X138737712Y-92401927D01*
G37*
G36*
X126037712Y-92401927D02*
G01*
X126187012Y-92431624D01*
X126350984Y-92499544D01*
X126498554Y-92598147D01*
X126624053Y-92723646D01*
X126722656Y-92871216D01*
X126790576Y-93035188D01*
X126825200Y-93209259D01*
X126825200Y-93386741D01*
X126790576Y-93560812D01*
X126722656Y-93724784D01*
X126624053Y-93872354D01*
X126498554Y-93997853D01*
X126350984Y-94096456D01*
X126187012Y-94164376D01*
X126037712Y-94194073D01*
X126012942Y-94199000D01*
X125835458Y-94199000D01*
X125810688Y-94194073D01*
X125661388Y-94164376D01*
X125497416Y-94096456D01*
X125349846Y-93997853D01*
X125224347Y-93872354D01*
X125125744Y-93724784D01*
X125057824Y-93560812D01*
X125023200Y-93386741D01*
X125023200Y-93209259D01*
X125057824Y-93035188D01*
X125125744Y-92871216D01*
X125224347Y-92723646D01*
X125349846Y-92598147D01*
X125497416Y-92499544D01*
X125661388Y-92431624D01*
X125810688Y-92401927D01*
X125835458Y-92397000D01*
X126012942Y-92397000D01*
X126037712Y-92401927D01*
G37*
M02*
