M48
; DRILL file {KiCad 5.1.5+dfsg1-2build2} date Di 01 Jun 2021 14:02:23 CEST
; FORMAT={-:-/ absolute / inch / decimal}
; #@! TF.CreationDate,2021-06-01T14:02:23+02:00
; #@! TF.GenerationSoftware,Kicad,Pcbnew,5.1.5+dfsg1-2build2
; #@! TF.FileFunction,Plated,1,2,PTH
FMAT,2
INCH
T1C0.0157
T2C0.0276
T3C0.0299
T4C0.0315
T5C0.0354
T6C0.0394
T7C0.0440
T8C0.0512
T9C0.0945
%
G90
G05
T1
X5.2344Y-4.3886
X5.2357Y-4.0401
X5.4118Y-4.1242
X5.4824Y-4.0751
X5.717Y-4.0537
X5.9585Y-3.9771
T2
X5.1646Y-4.5675
X5.2237Y-4.5675
X5.2827Y-4.5675
X5.3418Y-4.5675
X5.4008Y-4.5675
T3
X6.4514Y-3.9627
X6.5014Y-4.0627
X6.5514Y-3.9627
X6.6014Y-4.0627
X6.6514Y-3.9627
X6.7014Y-4.0627
T4
X6.1332Y-4.2862
X6.1332Y-4.6862
X5.1166Y-3.9562
X5.1658Y-3.9562
X5.3626Y-3.9562
X5.4118Y-3.9562
X6.0022Y-4.2862
X6.0022Y-4.6862
X4.6868Y-3.9562
X4.7361Y-3.9562
X4.9329Y-3.9562
X4.9821Y-3.9562
T5
X6.4571Y-4.4005
X6.4973Y-4.3005
X6.5375Y-4.4005
X6.5776Y-4.3005
X6.6178Y-4.4005
X6.6579Y-4.3005
T6
X5.6028Y-4.3859
X5.6028Y-4.4859
X5.6028Y-4.5859
X5.6028Y-4.6859
X4.9576Y-3.6731
X4.9576Y-3.7731
X5.0576Y-3.6731
X5.0576Y-3.7731
X5.1576Y-3.6731
X5.1576Y-3.7731
X5.2576Y-3.6731
X5.2576Y-3.7731
X5.3576Y-3.6731
X5.3576Y-3.7731
X5.4576Y-3.6731
X5.4576Y-3.7731
X5.5576Y-3.6731
X5.5576Y-3.7731
X5.6576Y-3.6731
X5.6576Y-3.7731
X5.7576Y-3.6731
X5.7576Y-3.7731
X5.8576Y-3.6731
X5.8576Y-3.7731
X5.9576Y-3.6731
X5.9576Y-3.7731
X6.0576Y-3.6731
X6.0576Y-3.7731
X6.1576Y-3.6731
X6.1576Y-3.7731
X6.2576Y-3.6731
X6.2576Y-3.7731
X6.3576Y-3.6731
X6.3576Y-3.7731
X6.4576Y-3.6731
X6.4576Y-3.7731
X6.5576Y-3.6731
X6.5576Y-3.7731
X6.6576Y-3.6731
X6.6576Y-3.7731
X6.7576Y-3.6731
X6.7576Y-3.7731
X6.8576Y-3.6731
X6.8576Y-3.7731
X5.8276Y-4.3859
X5.8276Y-4.4859
X5.8276Y-4.5859
X5.8276Y-4.6859
T7
X5.5721Y-3.9066
X5.5721Y-4.2066
X5.6721Y-3.9066
X5.6721Y-4.2066
X5.7721Y-3.9066
X5.7721Y-4.2066
X5.8721Y-3.9066
X5.8721Y-4.2066
T8
X4.8267Y-4.1441
X4.8267Y-4.2441
X4.8267Y-4.3441
T9
X6.3213Y-4.491
X6.7938Y-4.491
T0
M30
