%TF.GenerationSoftware,KiCad,Pcbnew,7.0.10*%
%TF.CreationDate,2024-01-16T16:55:50+01:00*%
%TF.ProjectId,DNMS-RPI-HAT-V1.0,444e4d53-2d52-4504-992d-4841542d5631,1.0*%
%TF.SameCoordinates,Original*%
%TF.FileFunction,Drillmap*%
%TF.FilePolarity,Positive*%
%FSLAX45Y45*%
G04 Gerber Fmt 4.5, Leading zero omitted, Abs format (unit mm)*
G04 Created by KiCad (PCBNEW 7.0.10) date 2024-01-16 16:55:50*
%MOMM*%
%LPD*%
G01*
G04 APERTURE LIST*
%ADD10C,0.150000*%
%ADD11C,0.200000*%
%ADD12C,0.270000*%
%ADD13C,0.335000*%
G04 APERTURE END LIST*
D10*
X12103200Y-12106800D02*
X17903200Y-12106800D01*
X18253200Y-9406800D02*
G75*
G03*
X17953200Y-9106800I-300000J0D01*
G01*
X17953200Y-12106800D02*
G75*
G03*
X18253200Y-11806800I0J300000D01*
G01*
X11753200Y-11806800D02*
G75*
G03*
X12053200Y-12106800I300000J0D01*
G01*
X12053200Y-9106800D02*
G75*
G03*
X11753200Y-9406800I0J-300000D01*
G01*
X11753200Y-11806800D02*
X11753200Y-9406800D01*
X12053200Y-9106800D02*
X17953200Y-9106800D01*
X18253200Y-9406800D02*
X18253200Y-11806800D01*
X17903200Y-12106800D02*
X17953200Y-12106800D01*
X12103200Y-12106800D02*
X12053200Y-12106800D01*
D11*
D12*
X11968200Y-9321800D02*
X12238200Y-9591800D01*
X12238200Y-9321800D02*
X11968200Y-9591800D01*
X11968200Y-11621800D02*
X12238200Y-11891800D01*
X12238200Y-11621800D02*
X11968200Y-11891800D01*
X17768200Y-9321800D02*
X18038200Y-9591800D01*
X18038200Y-9321800D02*
X17768200Y-9591800D01*
X17768200Y-11621800D02*
X18038200Y-11891800D01*
X18038200Y-11621800D02*
X17768200Y-11891800D01*
D13*
X16363656Y-10954384D02*
G75*
G03*
X16028656Y-10954384I-167500J0D01*
G01*
X16028656Y-10954384D02*
G75*
G03*
X16363656Y-10954384I167500J0D01*
G01*
X17379656Y-10954384D02*
G75*
G03*
X17044656Y-10954384I-167500J0D01*
G01*
X17044656Y-10954384D02*
G75*
G03*
X17379656Y-10954384I167500J0D01*
G01*
D11*
X12006477Y-12425784D02*
X12006477Y-12225784D01*
X12006477Y-12225784D02*
X12054096Y-12225784D01*
X12054096Y-12225784D02*
X12082667Y-12235308D01*
X12082667Y-12235308D02*
X12101715Y-12254355D01*
X12101715Y-12254355D02*
X12111239Y-12273403D01*
X12111239Y-12273403D02*
X12120762Y-12311498D01*
X12120762Y-12311498D02*
X12120762Y-12340069D01*
X12120762Y-12340069D02*
X12111239Y-12378165D01*
X12111239Y-12378165D02*
X12101715Y-12397212D01*
X12101715Y-12397212D02*
X12082667Y-12416260D01*
X12082667Y-12416260D02*
X12054096Y-12425784D01*
X12054096Y-12425784D02*
X12006477Y-12425784D01*
X12206477Y-12425784D02*
X12206477Y-12292450D01*
X12206477Y-12330546D02*
X12216001Y-12311498D01*
X12216001Y-12311498D02*
X12225524Y-12301974D01*
X12225524Y-12301974D02*
X12244572Y-12292450D01*
X12244572Y-12292450D02*
X12263620Y-12292450D01*
X12330286Y-12425784D02*
X12330286Y-12292450D01*
X12330286Y-12225784D02*
X12320762Y-12235308D01*
X12320762Y-12235308D02*
X12330286Y-12244831D01*
X12330286Y-12244831D02*
X12339810Y-12235308D01*
X12339810Y-12235308D02*
X12330286Y-12225784D01*
X12330286Y-12225784D02*
X12330286Y-12244831D01*
X12454096Y-12425784D02*
X12435048Y-12416260D01*
X12435048Y-12416260D02*
X12425524Y-12397212D01*
X12425524Y-12397212D02*
X12425524Y-12225784D01*
X12558858Y-12425784D02*
X12539810Y-12416260D01*
X12539810Y-12416260D02*
X12530286Y-12397212D01*
X12530286Y-12397212D02*
X12530286Y-12225784D01*
X12787429Y-12425784D02*
X12787429Y-12225784D01*
X12787429Y-12225784D02*
X12854096Y-12368641D01*
X12854096Y-12368641D02*
X12920762Y-12225784D01*
X12920762Y-12225784D02*
X12920762Y-12425784D01*
X13101715Y-12425784D02*
X13101715Y-12321022D01*
X13101715Y-12321022D02*
X13092191Y-12301974D01*
X13092191Y-12301974D02*
X13073143Y-12292450D01*
X13073143Y-12292450D02*
X13035048Y-12292450D01*
X13035048Y-12292450D02*
X13016001Y-12301974D01*
X13101715Y-12416260D02*
X13082667Y-12425784D01*
X13082667Y-12425784D02*
X13035048Y-12425784D01*
X13035048Y-12425784D02*
X13016001Y-12416260D01*
X13016001Y-12416260D02*
X13006477Y-12397212D01*
X13006477Y-12397212D02*
X13006477Y-12378165D01*
X13006477Y-12378165D02*
X13016001Y-12359117D01*
X13016001Y-12359117D02*
X13035048Y-12349593D01*
X13035048Y-12349593D02*
X13082667Y-12349593D01*
X13082667Y-12349593D02*
X13101715Y-12340069D01*
X13196953Y-12292450D02*
X13196953Y-12492450D01*
X13196953Y-12301974D02*
X13216001Y-12292450D01*
X13216001Y-12292450D02*
X13254096Y-12292450D01*
X13254096Y-12292450D02*
X13273143Y-12301974D01*
X13273143Y-12301974D02*
X13282667Y-12311498D01*
X13282667Y-12311498D02*
X13292191Y-12330546D01*
X13292191Y-12330546D02*
X13292191Y-12387688D01*
X13292191Y-12387688D02*
X13282667Y-12406736D01*
X13282667Y-12406736D02*
X13273143Y-12416260D01*
X13273143Y-12416260D02*
X13254096Y-12425784D01*
X13254096Y-12425784D02*
X13216001Y-12425784D01*
X13216001Y-12425784D02*
X13196953Y-12416260D01*
X13377905Y-12406736D02*
X13387429Y-12416260D01*
X13387429Y-12416260D02*
X13377905Y-12425784D01*
X13377905Y-12425784D02*
X13368382Y-12416260D01*
X13368382Y-12416260D02*
X13377905Y-12406736D01*
X13377905Y-12406736D02*
X13377905Y-12425784D01*
X13377905Y-12301974D02*
X13387429Y-12311498D01*
X13387429Y-12311498D02*
X13377905Y-12321022D01*
X13377905Y-12321022D02*
X13368382Y-12311498D01*
X13368382Y-12311498D02*
X13377905Y-12301974D01*
X13377905Y-12301974D02*
X13377905Y-12321022D01*
X11545700Y-12654300D02*
X11745700Y-12854300D01*
X11745700Y-12654300D02*
X11545700Y-12854300D01*
X11996953Y-12664831D02*
X12006477Y-12655308D01*
X12006477Y-12655308D02*
X12025524Y-12645784D01*
X12025524Y-12645784D02*
X12073143Y-12645784D01*
X12073143Y-12645784D02*
X12092191Y-12655308D01*
X12092191Y-12655308D02*
X12101715Y-12664831D01*
X12101715Y-12664831D02*
X12111239Y-12683879D01*
X12111239Y-12683879D02*
X12111239Y-12702927D01*
X12111239Y-12702927D02*
X12101715Y-12731498D01*
X12101715Y-12731498D02*
X11987429Y-12845784D01*
X11987429Y-12845784D02*
X12111239Y-12845784D01*
X12196953Y-12826736D02*
X12206477Y-12836260D01*
X12206477Y-12836260D02*
X12196953Y-12845784D01*
X12196953Y-12845784D02*
X12187429Y-12836260D01*
X12187429Y-12836260D02*
X12196953Y-12826736D01*
X12196953Y-12826736D02*
X12196953Y-12845784D01*
X12273143Y-12645784D02*
X12406477Y-12645784D01*
X12406477Y-12645784D02*
X12320762Y-12845784D01*
X12520762Y-12645784D02*
X12539810Y-12645784D01*
X12539810Y-12645784D02*
X12558858Y-12655308D01*
X12558858Y-12655308D02*
X12568382Y-12664831D01*
X12568382Y-12664831D02*
X12577905Y-12683879D01*
X12577905Y-12683879D02*
X12587429Y-12721974D01*
X12587429Y-12721974D02*
X12587429Y-12769593D01*
X12587429Y-12769593D02*
X12577905Y-12807688D01*
X12577905Y-12807688D02*
X12568382Y-12826736D01*
X12568382Y-12826736D02*
X12558858Y-12836260D01*
X12558858Y-12836260D02*
X12539810Y-12845784D01*
X12539810Y-12845784D02*
X12520762Y-12845784D01*
X12520762Y-12845784D02*
X12501715Y-12836260D01*
X12501715Y-12836260D02*
X12492191Y-12826736D01*
X12492191Y-12826736D02*
X12482667Y-12807688D01*
X12482667Y-12807688D02*
X12473143Y-12769593D01*
X12473143Y-12769593D02*
X12473143Y-12721974D01*
X12473143Y-12721974D02*
X12482667Y-12683879D01*
X12482667Y-12683879D02*
X12492191Y-12664831D01*
X12492191Y-12664831D02*
X12501715Y-12655308D01*
X12501715Y-12655308D02*
X12520762Y-12645784D01*
X12711239Y-12645784D02*
X12730286Y-12645784D01*
X12730286Y-12645784D02*
X12749334Y-12655308D01*
X12749334Y-12655308D02*
X12758858Y-12664831D01*
X12758858Y-12664831D02*
X12768382Y-12683879D01*
X12768382Y-12683879D02*
X12777905Y-12721974D01*
X12777905Y-12721974D02*
X12777905Y-12769593D01*
X12777905Y-12769593D02*
X12768382Y-12807688D01*
X12768382Y-12807688D02*
X12758858Y-12826736D01*
X12758858Y-12826736D02*
X12749334Y-12836260D01*
X12749334Y-12836260D02*
X12730286Y-12845784D01*
X12730286Y-12845784D02*
X12711239Y-12845784D01*
X12711239Y-12845784D02*
X12692191Y-12836260D01*
X12692191Y-12836260D02*
X12682667Y-12826736D01*
X12682667Y-12826736D02*
X12673143Y-12807688D01*
X12673143Y-12807688D02*
X12663620Y-12769593D01*
X12663620Y-12769593D02*
X12663620Y-12721974D01*
X12663620Y-12721974D02*
X12673143Y-12683879D01*
X12673143Y-12683879D02*
X12682667Y-12664831D01*
X12682667Y-12664831D02*
X12692191Y-12655308D01*
X12692191Y-12655308D02*
X12711239Y-12645784D01*
X12863620Y-12845784D02*
X12863620Y-12712450D01*
X12863620Y-12731498D02*
X12873143Y-12721974D01*
X12873143Y-12721974D02*
X12892191Y-12712450D01*
X12892191Y-12712450D02*
X12920763Y-12712450D01*
X12920763Y-12712450D02*
X12939810Y-12721974D01*
X12939810Y-12721974D02*
X12949334Y-12741022D01*
X12949334Y-12741022D02*
X12949334Y-12845784D01*
X12949334Y-12741022D02*
X12958858Y-12721974D01*
X12958858Y-12721974D02*
X12977905Y-12712450D01*
X12977905Y-12712450D02*
X13006477Y-12712450D01*
X13006477Y-12712450D02*
X13025524Y-12721974D01*
X13025524Y-12721974D02*
X13035048Y-12741022D01*
X13035048Y-12741022D02*
X13035048Y-12845784D01*
X13130286Y-12845784D02*
X13130286Y-12712450D01*
X13130286Y-12731498D02*
X13139810Y-12721974D01*
X13139810Y-12721974D02*
X13158858Y-12712450D01*
X13158858Y-12712450D02*
X13187429Y-12712450D01*
X13187429Y-12712450D02*
X13206477Y-12721974D01*
X13206477Y-12721974D02*
X13216001Y-12741022D01*
X13216001Y-12741022D02*
X13216001Y-12845784D01*
X13216001Y-12741022D02*
X13225524Y-12721974D01*
X13225524Y-12721974D02*
X13244572Y-12712450D01*
X13244572Y-12712450D02*
X13273143Y-12712450D01*
X13273143Y-12712450D02*
X13292191Y-12721974D01*
X13292191Y-12721974D02*
X13301715Y-12741022D01*
X13301715Y-12741022D02*
X13301715Y-12845784D01*
X13692191Y-12636260D02*
X13520763Y-12893403D01*
X13949334Y-12645784D02*
X13968382Y-12645784D01*
X13968382Y-12645784D02*
X13987429Y-12655308D01*
X13987429Y-12655308D02*
X13996953Y-12664831D01*
X13996953Y-12664831D02*
X14006477Y-12683879D01*
X14006477Y-12683879D02*
X14016001Y-12721974D01*
X14016001Y-12721974D02*
X14016001Y-12769593D01*
X14016001Y-12769593D02*
X14006477Y-12807688D01*
X14006477Y-12807688D02*
X13996953Y-12826736D01*
X13996953Y-12826736D02*
X13987429Y-12836260D01*
X13987429Y-12836260D02*
X13968382Y-12845784D01*
X13968382Y-12845784D02*
X13949334Y-12845784D01*
X13949334Y-12845784D02*
X13930286Y-12836260D01*
X13930286Y-12836260D02*
X13920763Y-12826736D01*
X13920763Y-12826736D02*
X13911239Y-12807688D01*
X13911239Y-12807688D02*
X13901715Y-12769593D01*
X13901715Y-12769593D02*
X13901715Y-12721974D01*
X13901715Y-12721974D02*
X13911239Y-12683879D01*
X13911239Y-12683879D02*
X13920763Y-12664831D01*
X13920763Y-12664831D02*
X13930286Y-12655308D01*
X13930286Y-12655308D02*
X13949334Y-12645784D01*
X14101715Y-12826736D02*
X14111239Y-12836260D01*
X14111239Y-12836260D02*
X14101715Y-12845784D01*
X14101715Y-12845784D02*
X14092191Y-12836260D01*
X14092191Y-12836260D02*
X14101715Y-12826736D01*
X14101715Y-12826736D02*
X14101715Y-12845784D01*
X14301715Y-12845784D02*
X14187429Y-12845784D01*
X14244572Y-12845784D02*
X14244572Y-12645784D01*
X14244572Y-12645784D02*
X14225525Y-12674355D01*
X14225525Y-12674355D02*
X14206477Y-12693403D01*
X14206477Y-12693403D02*
X14187429Y-12702927D01*
X14425525Y-12645784D02*
X14444572Y-12645784D01*
X14444572Y-12645784D02*
X14463620Y-12655308D01*
X14463620Y-12655308D02*
X14473144Y-12664831D01*
X14473144Y-12664831D02*
X14482667Y-12683879D01*
X14482667Y-12683879D02*
X14492191Y-12721974D01*
X14492191Y-12721974D02*
X14492191Y-12769593D01*
X14492191Y-12769593D02*
X14482667Y-12807688D01*
X14482667Y-12807688D02*
X14473144Y-12826736D01*
X14473144Y-12826736D02*
X14463620Y-12836260D01*
X14463620Y-12836260D02*
X14444572Y-12845784D01*
X14444572Y-12845784D02*
X14425525Y-12845784D01*
X14425525Y-12845784D02*
X14406477Y-12836260D01*
X14406477Y-12836260D02*
X14396953Y-12826736D01*
X14396953Y-12826736D02*
X14387429Y-12807688D01*
X14387429Y-12807688D02*
X14377906Y-12769593D01*
X14377906Y-12769593D02*
X14377906Y-12721974D01*
X14377906Y-12721974D02*
X14387429Y-12683879D01*
X14387429Y-12683879D02*
X14396953Y-12664831D01*
X14396953Y-12664831D02*
X14406477Y-12655308D01*
X14406477Y-12655308D02*
X14425525Y-12645784D01*
X14663620Y-12645784D02*
X14625525Y-12645784D01*
X14625525Y-12645784D02*
X14606477Y-12655308D01*
X14606477Y-12655308D02*
X14596953Y-12664831D01*
X14596953Y-12664831D02*
X14577906Y-12693403D01*
X14577906Y-12693403D02*
X14568382Y-12731498D01*
X14568382Y-12731498D02*
X14568382Y-12807688D01*
X14568382Y-12807688D02*
X14577906Y-12826736D01*
X14577906Y-12826736D02*
X14587429Y-12836260D01*
X14587429Y-12836260D02*
X14606477Y-12845784D01*
X14606477Y-12845784D02*
X14644572Y-12845784D01*
X14644572Y-12845784D02*
X14663620Y-12836260D01*
X14663620Y-12836260D02*
X14673144Y-12826736D01*
X14673144Y-12826736D02*
X14682667Y-12807688D01*
X14682667Y-12807688D02*
X14682667Y-12760069D01*
X14682667Y-12760069D02*
X14673144Y-12741022D01*
X14673144Y-12741022D02*
X14663620Y-12731498D01*
X14663620Y-12731498D02*
X14644572Y-12721974D01*
X14644572Y-12721974D02*
X14606477Y-12721974D01*
X14606477Y-12721974D02*
X14587429Y-12731498D01*
X14587429Y-12731498D02*
X14577906Y-12741022D01*
X14577906Y-12741022D02*
X14568382Y-12760069D01*
X14749334Y-12645784D02*
X14873144Y-12645784D01*
X14873144Y-12645784D02*
X14806477Y-12721974D01*
X14806477Y-12721974D02*
X14835048Y-12721974D01*
X14835048Y-12721974D02*
X14854096Y-12731498D01*
X14854096Y-12731498D02*
X14863620Y-12741022D01*
X14863620Y-12741022D02*
X14873144Y-12760069D01*
X14873144Y-12760069D02*
X14873144Y-12807688D01*
X14873144Y-12807688D02*
X14863620Y-12826736D01*
X14863620Y-12826736D02*
X14854096Y-12836260D01*
X14854096Y-12836260D02*
X14835048Y-12845784D01*
X14835048Y-12845784D02*
X14777906Y-12845784D01*
X14777906Y-12845784D02*
X14758858Y-12836260D01*
X14758858Y-12836260D02*
X14749334Y-12826736D01*
X14949334Y-12645784D02*
X14949334Y-12683879D01*
X15025525Y-12645784D02*
X15025525Y-12683879D01*
X15320763Y-12921974D02*
X15311239Y-12912450D01*
X15311239Y-12912450D02*
X15292191Y-12883879D01*
X15292191Y-12883879D02*
X15282668Y-12864831D01*
X15282668Y-12864831D02*
X15273144Y-12836260D01*
X15273144Y-12836260D02*
X15263620Y-12788641D01*
X15263620Y-12788641D02*
X15263620Y-12750546D01*
X15263620Y-12750546D02*
X15273144Y-12702927D01*
X15273144Y-12702927D02*
X15282668Y-12674355D01*
X15282668Y-12674355D02*
X15292191Y-12655308D01*
X15292191Y-12655308D02*
X15311239Y-12626736D01*
X15311239Y-12626736D02*
X15320763Y-12617212D01*
X15482668Y-12712450D02*
X15482668Y-12845784D01*
X15435048Y-12636260D02*
X15387429Y-12779117D01*
X15387429Y-12779117D02*
X15511239Y-12779117D01*
X15739810Y-12845784D02*
X15739810Y-12645784D01*
X15825525Y-12845784D02*
X15825525Y-12741022D01*
X15825525Y-12741022D02*
X15816001Y-12721974D01*
X15816001Y-12721974D02*
X15796953Y-12712450D01*
X15796953Y-12712450D02*
X15768382Y-12712450D01*
X15768382Y-12712450D02*
X15749334Y-12721974D01*
X15749334Y-12721974D02*
X15739810Y-12731498D01*
X15949334Y-12845784D02*
X15930287Y-12836260D01*
X15930287Y-12836260D02*
X15920763Y-12826736D01*
X15920763Y-12826736D02*
X15911239Y-12807688D01*
X15911239Y-12807688D02*
X15911239Y-12750546D01*
X15911239Y-12750546D02*
X15920763Y-12731498D01*
X15920763Y-12731498D02*
X15930287Y-12721974D01*
X15930287Y-12721974D02*
X15949334Y-12712450D01*
X15949334Y-12712450D02*
X15977906Y-12712450D01*
X15977906Y-12712450D02*
X15996953Y-12721974D01*
X15996953Y-12721974D02*
X16006477Y-12731498D01*
X16006477Y-12731498D02*
X16016001Y-12750546D01*
X16016001Y-12750546D02*
X16016001Y-12807688D01*
X16016001Y-12807688D02*
X16006477Y-12826736D01*
X16006477Y-12826736D02*
X15996953Y-12836260D01*
X15996953Y-12836260D02*
X15977906Y-12845784D01*
X15977906Y-12845784D02*
X15949334Y-12845784D01*
X16130287Y-12845784D02*
X16111239Y-12836260D01*
X16111239Y-12836260D02*
X16101715Y-12817212D01*
X16101715Y-12817212D02*
X16101715Y-12645784D01*
X16282668Y-12836260D02*
X16263620Y-12845784D01*
X16263620Y-12845784D02*
X16225525Y-12845784D01*
X16225525Y-12845784D02*
X16206477Y-12836260D01*
X16206477Y-12836260D02*
X16196953Y-12817212D01*
X16196953Y-12817212D02*
X16196953Y-12741022D01*
X16196953Y-12741022D02*
X16206477Y-12721974D01*
X16206477Y-12721974D02*
X16225525Y-12712450D01*
X16225525Y-12712450D02*
X16263620Y-12712450D01*
X16263620Y-12712450D02*
X16282668Y-12721974D01*
X16282668Y-12721974D02*
X16292191Y-12741022D01*
X16292191Y-12741022D02*
X16292191Y-12760069D01*
X16292191Y-12760069D02*
X16196953Y-12779117D01*
X16368382Y-12836260D02*
X16387430Y-12845784D01*
X16387430Y-12845784D02*
X16425525Y-12845784D01*
X16425525Y-12845784D02*
X16444572Y-12836260D01*
X16444572Y-12836260D02*
X16454096Y-12817212D01*
X16454096Y-12817212D02*
X16454096Y-12807688D01*
X16454096Y-12807688D02*
X16444572Y-12788641D01*
X16444572Y-12788641D02*
X16425525Y-12779117D01*
X16425525Y-12779117D02*
X16396953Y-12779117D01*
X16396953Y-12779117D02*
X16377906Y-12769593D01*
X16377906Y-12769593D02*
X16368382Y-12750546D01*
X16368382Y-12750546D02*
X16368382Y-12741022D01*
X16368382Y-12741022D02*
X16377906Y-12721974D01*
X16377906Y-12721974D02*
X16396953Y-12712450D01*
X16396953Y-12712450D02*
X16425525Y-12712450D01*
X16425525Y-12712450D02*
X16444572Y-12721974D01*
X16520763Y-12921974D02*
X16530287Y-12912450D01*
X16530287Y-12912450D02*
X16549334Y-12883879D01*
X16549334Y-12883879D02*
X16558858Y-12864831D01*
X16558858Y-12864831D02*
X16568382Y-12836260D01*
X16568382Y-12836260D02*
X16577906Y-12788641D01*
X16577906Y-12788641D02*
X16577906Y-12750546D01*
X16577906Y-12750546D02*
X16568382Y-12702927D01*
X16568382Y-12702927D02*
X16558858Y-12674355D01*
X16558858Y-12674355D02*
X16549334Y-12655308D01*
X16549334Y-12655308D02*
X16530287Y-12626736D01*
X16530287Y-12626736D02*
X16520763Y-12617212D01*
X16882668Y-12921974D02*
X16873144Y-12912450D01*
X16873144Y-12912450D02*
X16854096Y-12883879D01*
X16854096Y-12883879D02*
X16844573Y-12864831D01*
X16844573Y-12864831D02*
X16835049Y-12836260D01*
X16835049Y-12836260D02*
X16825525Y-12788641D01*
X16825525Y-12788641D02*
X16825525Y-12750546D01*
X16825525Y-12750546D02*
X16835049Y-12702927D01*
X16835049Y-12702927D02*
X16844573Y-12674355D01*
X16844573Y-12674355D02*
X16854096Y-12655308D01*
X16854096Y-12655308D02*
X16873144Y-12626736D01*
X16873144Y-12626736D02*
X16882668Y-12617212D01*
X16958858Y-12712450D02*
X16958858Y-12845784D01*
X16958858Y-12731498D02*
X16968382Y-12721974D01*
X16968382Y-12721974D02*
X16987430Y-12712450D01*
X16987430Y-12712450D02*
X17016001Y-12712450D01*
X17016001Y-12712450D02*
X17035049Y-12721974D01*
X17035049Y-12721974D02*
X17044573Y-12741022D01*
X17044573Y-12741022D02*
X17044573Y-12845784D01*
X17168382Y-12845784D02*
X17149334Y-12836260D01*
X17149334Y-12836260D02*
X17139811Y-12826736D01*
X17139811Y-12826736D02*
X17130287Y-12807688D01*
X17130287Y-12807688D02*
X17130287Y-12750546D01*
X17130287Y-12750546D02*
X17139811Y-12731498D01*
X17139811Y-12731498D02*
X17149334Y-12721974D01*
X17149334Y-12721974D02*
X17168382Y-12712450D01*
X17168382Y-12712450D02*
X17196954Y-12712450D01*
X17196954Y-12712450D02*
X17216001Y-12721974D01*
X17216001Y-12721974D02*
X17225525Y-12731498D01*
X17225525Y-12731498D02*
X17235049Y-12750546D01*
X17235049Y-12750546D02*
X17235049Y-12807688D01*
X17235049Y-12807688D02*
X17225525Y-12826736D01*
X17225525Y-12826736D02*
X17216001Y-12836260D01*
X17216001Y-12836260D02*
X17196954Y-12845784D01*
X17196954Y-12845784D02*
X17168382Y-12845784D01*
X17292192Y-12712450D02*
X17368382Y-12712450D01*
X17320763Y-12645784D02*
X17320763Y-12817212D01*
X17320763Y-12817212D02*
X17330287Y-12836260D01*
X17330287Y-12836260D02*
X17349334Y-12845784D01*
X17349334Y-12845784D02*
X17368382Y-12845784D01*
X17587430Y-12712450D02*
X17587430Y-12912450D01*
X17587430Y-12721974D02*
X17606477Y-12712450D01*
X17606477Y-12712450D02*
X17644573Y-12712450D01*
X17644573Y-12712450D02*
X17663620Y-12721974D01*
X17663620Y-12721974D02*
X17673144Y-12731498D01*
X17673144Y-12731498D02*
X17682668Y-12750546D01*
X17682668Y-12750546D02*
X17682668Y-12807688D01*
X17682668Y-12807688D02*
X17673144Y-12826736D01*
X17673144Y-12826736D02*
X17663620Y-12836260D01*
X17663620Y-12836260D02*
X17644573Y-12845784D01*
X17644573Y-12845784D02*
X17606477Y-12845784D01*
X17606477Y-12845784D02*
X17587430Y-12836260D01*
X17796954Y-12845784D02*
X17777906Y-12836260D01*
X17777906Y-12836260D02*
X17768382Y-12817212D01*
X17768382Y-12817212D02*
X17768382Y-12645784D01*
X17958858Y-12845784D02*
X17958858Y-12741022D01*
X17958858Y-12741022D02*
X17949335Y-12721974D01*
X17949335Y-12721974D02*
X17930287Y-12712450D01*
X17930287Y-12712450D02*
X17892192Y-12712450D01*
X17892192Y-12712450D02*
X17873144Y-12721974D01*
X17958858Y-12836260D02*
X17939811Y-12845784D01*
X17939811Y-12845784D02*
X17892192Y-12845784D01*
X17892192Y-12845784D02*
X17873144Y-12836260D01*
X17873144Y-12836260D02*
X17863620Y-12817212D01*
X17863620Y-12817212D02*
X17863620Y-12798165D01*
X17863620Y-12798165D02*
X17873144Y-12779117D01*
X17873144Y-12779117D02*
X17892192Y-12769593D01*
X17892192Y-12769593D02*
X17939811Y-12769593D01*
X17939811Y-12769593D02*
X17958858Y-12760069D01*
X18025525Y-12712450D02*
X18101715Y-12712450D01*
X18054096Y-12645784D02*
X18054096Y-12817212D01*
X18054096Y-12817212D02*
X18063620Y-12836260D01*
X18063620Y-12836260D02*
X18082668Y-12845784D01*
X18082668Y-12845784D02*
X18101715Y-12845784D01*
X18244573Y-12836260D02*
X18225525Y-12845784D01*
X18225525Y-12845784D02*
X18187430Y-12845784D01*
X18187430Y-12845784D02*
X18168382Y-12836260D01*
X18168382Y-12836260D02*
X18158858Y-12817212D01*
X18158858Y-12817212D02*
X18158858Y-12741022D01*
X18158858Y-12741022D02*
X18168382Y-12721974D01*
X18168382Y-12721974D02*
X18187430Y-12712450D01*
X18187430Y-12712450D02*
X18225525Y-12712450D01*
X18225525Y-12712450D02*
X18244573Y-12721974D01*
X18244573Y-12721974D02*
X18254096Y-12741022D01*
X18254096Y-12741022D02*
X18254096Y-12760069D01*
X18254096Y-12760069D02*
X18158858Y-12779117D01*
X18425525Y-12845784D02*
X18425525Y-12645784D01*
X18425525Y-12836260D02*
X18406477Y-12845784D01*
X18406477Y-12845784D02*
X18368382Y-12845784D01*
X18368382Y-12845784D02*
X18349335Y-12836260D01*
X18349335Y-12836260D02*
X18339811Y-12826736D01*
X18339811Y-12826736D02*
X18330287Y-12807688D01*
X18330287Y-12807688D02*
X18330287Y-12750546D01*
X18330287Y-12750546D02*
X18339811Y-12731498D01*
X18339811Y-12731498D02*
X18349335Y-12721974D01*
X18349335Y-12721974D02*
X18368382Y-12712450D01*
X18368382Y-12712450D02*
X18406477Y-12712450D01*
X18406477Y-12712450D02*
X18425525Y-12721974D01*
X18501716Y-12921974D02*
X18511239Y-12912450D01*
X18511239Y-12912450D02*
X18530287Y-12883879D01*
X18530287Y-12883879D02*
X18539811Y-12864831D01*
X18539811Y-12864831D02*
X18549335Y-12836260D01*
X18549335Y-12836260D02*
X18558858Y-12788641D01*
X18558858Y-12788641D02*
X18558858Y-12750546D01*
X18558858Y-12750546D02*
X18549335Y-12702927D01*
X18549335Y-12702927D02*
X18539811Y-12674355D01*
X18539811Y-12674355D02*
X18530287Y-12655308D01*
X18530287Y-12655308D02*
X18511239Y-12626736D01*
X18511239Y-12626736D02*
X18501716Y-12617212D01*
X11745700Y-13074300D02*
G75*
G03*
X11545700Y-13074300I-100000J0D01*
G01*
X11545700Y-13074300D02*
G75*
G03*
X11745700Y-13074300I100000J0D01*
G01*
X11987429Y-12965784D02*
X12111239Y-12965784D01*
X12111239Y-12965784D02*
X12044572Y-13041974D01*
X12044572Y-13041974D02*
X12073143Y-13041974D01*
X12073143Y-13041974D02*
X12092191Y-13051498D01*
X12092191Y-13051498D02*
X12101715Y-13061022D01*
X12101715Y-13061022D02*
X12111239Y-13080069D01*
X12111239Y-13080069D02*
X12111239Y-13127688D01*
X12111239Y-13127688D02*
X12101715Y-13146736D01*
X12101715Y-13146736D02*
X12092191Y-13156260D01*
X12092191Y-13156260D02*
X12073143Y-13165784D01*
X12073143Y-13165784D02*
X12016001Y-13165784D01*
X12016001Y-13165784D02*
X11996953Y-13156260D01*
X11996953Y-13156260D02*
X11987429Y-13146736D01*
X12196953Y-13146736D02*
X12206477Y-13156260D01*
X12206477Y-13156260D02*
X12196953Y-13165784D01*
X12196953Y-13165784D02*
X12187429Y-13156260D01*
X12187429Y-13156260D02*
X12196953Y-13146736D01*
X12196953Y-13146736D02*
X12196953Y-13165784D01*
X12273143Y-12965784D02*
X12396953Y-12965784D01*
X12396953Y-12965784D02*
X12330286Y-13041974D01*
X12330286Y-13041974D02*
X12358858Y-13041974D01*
X12358858Y-13041974D02*
X12377905Y-13051498D01*
X12377905Y-13051498D02*
X12387429Y-13061022D01*
X12387429Y-13061022D02*
X12396953Y-13080069D01*
X12396953Y-13080069D02*
X12396953Y-13127688D01*
X12396953Y-13127688D02*
X12387429Y-13146736D01*
X12387429Y-13146736D02*
X12377905Y-13156260D01*
X12377905Y-13156260D02*
X12358858Y-13165784D01*
X12358858Y-13165784D02*
X12301715Y-13165784D01*
X12301715Y-13165784D02*
X12282667Y-13156260D01*
X12282667Y-13156260D02*
X12273143Y-13146736D01*
X12577905Y-12965784D02*
X12482667Y-12965784D01*
X12482667Y-12965784D02*
X12473143Y-13061022D01*
X12473143Y-13061022D02*
X12482667Y-13051498D01*
X12482667Y-13051498D02*
X12501715Y-13041974D01*
X12501715Y-13041974D02*
X12549334Y-13041974D01*
X12549334Y-13041974D02*
X12568382Y-13051498D01*
X12568382Y-13051498D02*
X12577905Y-13061022D01*
X12577905Y-13061022D02*
X12587429Y-13080069D01*
X12587429Y-13080069D02*
X12587429Y-13127688D01*
X12587429Y-13127688D02*
X12577905Y-13146736D01*
X12577905Y-13146736D02*
X12568382Y-13156260D01*
X12568382Y-13156260D02*
X12549334Y-13165784D01*
X12549334Y-13165784D02*
X12501715Y-13165784D01*
X12501715Y-13165784D02*
X12482667Y-13156260D01*
X12482667Y-13156260D02*
X12473143Y-13146736D01*
X12711239Y-12965784D02*
X12730286Y-12965784D01*
X12730286Y-12965784D02*
X12749334Y-12975308D01*
X12749334Y-12975308D02*
X12758858Y-12984831D01*
X12758858Y-12984831D02*
X12768382Y-13003879D01*
X12768382Y-13003879D02*
X12777905Y-13041974D01*
X12777905Y-13041974D02*
X12777905Y-13089593D01*
X12777905Y-13089593D02*
X12768382Y-13127688D01*
X12768382Y-13127688D02*
X12758858Y-13146736D01*
X12758858Y-13146736D02*
X12749334Y-13156260D01*
X12749334Y-13156260D02*
X12730286Y-13165784D01*
X12730286Y-13165784D02*
X12711239Y-13165784D01*
X12711239Y-13165784D02*
X12692191Y-13156260D01*
X12692191Y-13156260D02*
X12682667Y-13146736D01*
X12682667Y-13146736D02*
X12673143Y-13127688D01*
X12673143Y-13127688D02*
X12663620Y-13089593D01*
X12663620Y-13089593D02*
X12663620Y-13041974D01*
X12663620Y-13041974D02*
X12673143Y-13003879D01*
X12673143Y-13003879D02*
X12682667Y-12984831D01*
X12682667Y-12984831D02*
X12692191Y-12975308D01*
X12692191Y-12975308D02*
X12711239Y-12965784D01*
X12863620Y-13165784D02*
X12863620Y-13032450D01*
X12863620Y-13051498D02*
X12873143Y-13041974D01*
X12873143Y-13041974D02*
X12892191Y-13032450D01*
X12892191Y-13032450D02*
X12920763Y-13032450D01*
X12920763Y-13032450D02*
X12939810Y-13041974D01*
X12939810Y-13041974D02*
X12949334Y-13061022D01*
X12949334Y-13061022D02*
X12949334Y-13165784D01*
X12949334Y-13061022D02*
X12958858Y-13041974D01*
X12958858Y-13041974D02*
X12977905Y-13032450D01*
X12977905Y-13032450D02*
X13006477Y-13032450D01*
X13006477Y-13032450D02*
X13025524Y-13041974D01*
X13025524Y-13041974D02*
X13035048Y-13061022D01*
X13035048Y-13061022D02*
X13035048Y-13165784D01*
X13130286Y-13165784D02*
X13130286Y-13032450D01*
X13130286Y-13051498D02*
X13139810Y-13041974D01*
X13139810Y-13041974D02*
X13158858Y-13032450D01*
X13158858Y-13032450D02*
X13187429Y-13032450D01*
X13187429Y-13032450D02*
X13206477Y-13041974D01*
X13206477Y-13041974D02*
X13216001Y-13061022D01*
X13216001Y-13061022D02*
X13216001Y-13165784D01*
X13216001Y-13061022D02*
X13225524Y-13041974D01*
X13225524Y-13041974D02*
X13244572Y-13032450D01*
X13244572Y-13032450D02*
X13273143Y-13032450D01*
X13273143Y-13032450D02*
X13292191Y-13041974D01*
X13292191Y-13041974D02*
X13301715Y-13061022D01*
X13301715Y-13061022D02*
X13301715Y-13165784D01*
X13692191Y-12956260D02*
X13520763Y-13213403D01*
X13949334Y-12965784D02*
X13968382Y-12965784D01*
X13968382Y-12965784D02*
X13987429Y-12975308D01*
X13987429Y-12975308D02*
X13996953Y-12984831D01*
X13996953Y-12984831D02*
X14006477Y-13003879D01*
X14006477Y-13003879D02*
X14016001Y-13041974D01*
X14016001Y-13041974D02*
X14016001Y-13089593D01*
X14016001Y-13089593D02*
X14006477Y-13127688D01*
X14006477Y-13127688D02*
X13996953Y-13146736D01*
X13996953Y-13146736D02*
X13987429Y-13156260D01*
X13987429Y-13156260D02*
X13968382Y-13165784D01*
X13968382Y-13165784D02*
X13949334Y-13165784D01*
X13949334Y-13165784D02*
X13930286Y-13156260D01*
X13930286Y-13156260D02*
X13920763Y-13146736D01*
X13920763Y-13146736D02*
X13911239Y-13127688D01*
X13911239Y-13127688D02*
X13901715Y-13089593D01*
X13901715Y-13089593D02*
X13901715Y-13041974D01*
X13901715Y-13041974D02*
X13911239Y-13003879D01*
X13911239Y-13003879D02*
X13920763Y-12984831D01*
X13920763Y-12984831D02*
X13930286Y-12975308D01*
X13930286Y-12975308D02*
X13949334Y-12965784D01*
X14101715Y-13146736D02*
X14111239Y-13156260D01*
X14111239Y-13156260D02*
X14101715Y-13165784D01*
X14101715Y-13165784D02*
X14092191Y-13156260D01*
X14092191Y-13156260D02*
X14101715Y-13146736D01*
X14101715Y-13146736D02*
X14101715Y-13165784D01*
X14301715Y-13165784D02*
X14187429Y-13165784D01*
X14244572Y-13165784D02*
X14244572Y-12965784D01*
X14244572Y-12965784D02*
X14225525Y-12994355D01*
X14225525Y-12994355D02*
X14206477Y-13013403D01*
X14206477Y-13013403D02*
X14187429Y-13022927D01*
X14368382Y-12965784D02*
X14492191Y-12965784D01*
X14492191Y-12965784D02*
X14425525Y-13041974D01*
X14425525Y-13041974D02*
X14454096Y-13041974D01*
X14454096Y-13041974D02*
X14473144Y-13051498D01*
X14473144Y-13051498D02*
X14482667Y-13061022D01*
X14482667Y-13061022D02*
X14492191Y-13080069D01*
X14492191Y-13080069D02*
X14492191Y-13127688D01*
X14492191Y-13127688D02*
X14482667Y-13146736D01*
X14482667Y-13146736D02*
X14473144Y-13156260D01*
X14473144Y-13156260D02*
X14454096Y-13165784D01*
X14454096Y-13165784D02*
X14396953Y-13165784D01*
X14396953Y-13165784D02*
X14377906Y-13156260D01*
X14377906Y-13156260D02*
X14368382Y-13146736D01*
X14682667Y-13165784D02*
X14568382Y-13165784D01*
X14625525Y-13165784D02*
X14625525Y-12965784D01*
X14625525Y-12965784D02*
X14606477Y-12994355D01*
X14606477Y-12994355D02*
X14587429Y-13013403D01*
X14587429Y-13013403D02*
X14568382Y-13022927D01*
X14777906Y-13165784D02*
X14816001Y-13165784D01*
X14816001Y-13165784D02*
X14835048Y-13156260D01*
X14835048Y-13156260D02*
X14844572Y-13146736D01*
X14844572Y-13146736D02*
X14863620Y-13118165D01*
X14863620Y-13118165D02*
X14873144Y-13080069D01*
X14873144Y-13080069D02*
X14873144Y-13003879D01*
X14873144Y-13003879D02*
X14863620Y-12984831D01*
X14863620Y-12984831D02*
X14854096Y-12975308D01*
X14854096Y-12975308D02*
X14835048Y-12965784D01*
X14835048Y-12965784D02*
X14796953Y-12965784D01*
X14796953Y-12965784D02*
X14777906Y-12975308D01*
X14777906Y-12975308D02*
X14768382Y-12984831D01*
X14768382Y-12984831D02*
X14758858Y-13003879D01*
X14758858Y-13003879D02*
X14758858Y-13051498D01*
X14758858Y-13051498D02*
X14768382Y-13070546D01*
X14768382Y-13070546D02*
X14777906Y-13080069D01*
X14777906Y-13080069D02*
X14796953Y-13089593D01*
X14796953Y-13089593D02*
X14835048Y-13089593D01*
X14835048Y-13089593D02*
X14854096Y-13080069D01*
X14854096Y-13080069D02*
X14863620Y-13070546D01*
X14863620Y-13070546D02*
X14873144Y-13051498D01*
X14949334Y-12965784D02*
X14949334Y-13003879D01*
X15025525Y-12965784D02*
X15025525Y-13003879D01*
X15320763Y-13241974D02*
X15311239Y-13232450D01*
X15311239Y-13232450D02*
X15292191Y-13203879D01*
X15292191Y-13203879D02*
X15282668Y-13184831D01*
X15282668Y-13184831D02*
X15273144Y-13156260D01*
X15273144Y-13156260D02*
X15263620Y-13108641D01*
X15263620Y-13108641D02*
X15263620Y-13070546D01*
X15263620Y-13070546D02*
X15273144Y-13022927D01*
X15273144Y-13022927D02*
X15282668Y-12994355D01*
X15282668Y-12994355D02*
X15292191Y-12975308D01*
X15292191Y-12975308D02*
X15311239Y-12946736D01*
X15311239Y-12946736D02*
X15320763Y-12937212D01*
X15387429Y-12984831D02*
X15396953Y-12975308D01*
X15396953Y-12975308D02*
X15416001Y-12965784D01*
X15416001Y-12965784D02*
X15463620Y-12965784D01*
X15463620Y-12965784D02*
X15482668Y-12975308D01*
X15482668Y-12975308D02*
X15492191Y-12984831D01*
X15492191Y-12984831D02*
X15501715Y-13003879D01*
X15501715Y-13003879D02*
X15501715Y-13022927D01*
X15501715Y-13022927D02*
X15492191Y-13051498D01*
X15492191Y-13051498D02*
X15377906Y-13165784D01*
X15377906Y-13165784D02*
X15501715Y-13165784D01*
X15739810Y-13165784D02*
X15739810Y-12965784D01*
X15825525Y-13165784D02*
X15825525Y-13061022D01*
X15825525Y-13061022D02*
X15816001Y-13041974D01*
X15816001Y-13041974D02*
X15796953Y-13032450D01*
X15796953Y-13032450D02*
X15768382Y-13032450D01*
X15768382Y-13032450D02*
X15749334Y-13041974D01*
X15749334Y-13041974D02*
X15739810Y-13051498D01*
X15949334Y-13165784D02*
X15930287Y-13156260D01*
X15930287Y-13156260D02*
X15920763Y-13146736D01*
X15920763Y-13146736D02*
X15911239Y-13127688D01*
X15911239Y-13127688D02*
X15911239Y-13070546D01*
X15911239Y-13070546D02*
X15920763Y-13051498D01*
X15920763Y-13051498D02*
X15930287Y-13041974D01*
X15930287Y-13041974D02*
X15949334Y-13032450D01*
X15949334Y-13032450D02*
X15977906Y-13032450D01*
X15977906Y-13032450D02*
X15996953Y-13041974D01*
X15996953Y-13041974D02*
X16006477Y-13051498D01*
X16006477Y-13051498D02*
X16016001Y-13070546D01*
X16016001Y-13070546D02*
X16016001Y-13127688D01*
X16016001Y-13127688D02*
X16006477Y-13146736D01*
X16006477Y-13146736D02*
X15996953Y-13156260D01*
X15996953Y-13156260D02*
X15977906Y-13165784D01*
X15977906Y-13165784D02*
X15949334Y-13165784D01*
X16130287Y-13165784D02*
X16111239Y-13156260D01*
X16111239Y-13156260D02*
X16101715Y-13137212D01*
X16101715Y-13137212D02*
X16101715Y-12965784D01*
X16282668Y-13156260D02*
X16263620Y-13165784D01*
X16263620Y-13165784D02*
X16225525Y-13165784D01*
X16225525Y-13165784D02*
X16206477Y-13156260D01*
X16206477Y-13156260D02*
X16196953Y-13137212D01*
X16196953Y-13137212D02*
X16196953Y-13061022D01*
X16196953Y-13061022D02*
X16206477Y-13041974D01*
X16206477Y-13041974D02*
X16225525Y-13032450D01*
X16225525Y-13032450D02*
X16263620Y-13032450D01*
X16263620Y-13032450D02*
X16282668Y-13041974D01*
X16282668Y-13041974D02*
X16292191Y-13061022D01*
X16292191Y-13061022D02*
X16292191Y-13080069D01*
X16292191Y-13080069D02*
X16196953Y-13099117D01*
X16368382Y-13156260D02*
X16387430Y-13165784D01*
X16387430Y-13165784D02*
X16425525Y-13165784D01*
X16425525Y-13165784D02*
X16444572Y-13156260D01*
X16444572Y-13156260D02*
X16454096Y-13137212D01*
X16454096Y-13137212D02*
X16454096Y-13127688D01*
X16454096Y-13127688D02*
X16444572Y-13108641D01*
X16444572Y-13108641D02*
X16425525Y-13099117D01*
X16425525Y-13099117D02*
X16396953Y-13099117D01*
X16396953Y-13099117D02*
X16377906Y-13089593D01*
X16377906Y-13089593D02*
X16368382Y-13070546D01*
X16368382Y-13070546D02*
X16368382Y-13061022D01*
X16368382Y-13061022D02*
X16377906Y-13041974D01*
X16377906Y-13041974D02*
X16396953Y-13032450D01*
X16396953Y-13032450D02*
X16425525Y-13032450D01*
X16425525Y-13032450D02*
X16444572Y-13041974D01*
X16520763Y-13241974D02*
X16530287Y-13232450D01*
X16530287Y-13232450D02*
X16549334Y-13203879D01*
X16549334Y-13203879D02*
X16558858Y-13184831D01*
X16558858Y-13184831D02*
X16568382Y-13156260D01*
X16568382Y-13156260D02*
X16577906Y-13108641D01*
X16577906Y-13108641D02*
X16577906Y-13070546D01*
X16577906Y-13070546D02*
X16568382Y-13022927D01*
X16568382Y-13022927D02*
X16558858Y-12994355D01*
X16558858Y-12994355D02*
X16549334Y-12975308D01*
X16549334Y-12975308D02*
X16530287Y-12946736D01*
X16530287Y-12946736D02*
X16520763Y-12937212D01*
X16882668Y-13241974D02*
X16873144Y-13232450D01*
X16873144Y-13232450D02*
X16854096Y-13203879D01*
X16854096Y-13203879D02*
X16844573Y-13184831D01*
X16844573Y-13184831D02*
X16835049Y-13156260D01*
X16835049Y-13156260D02*
X16825525Y-13108641D01*
X16825525Y-13108641D02*
X16825525Y-13070546D01*
X16825525Y-13070546D02*
X16835049Y-13022927D01*
X16835049Y-13022927D02*
X16844573Y-12994355D01*
X16844573Y-12994355D02*
X16854096Y-12975308D01*
X16854096Y-12975308D02*
X16873144Y-12946736D01*
X16873144Y-12946736D02*
X16882668Y-12937212D01*
X16958858Y-13032450D02*
X16958858Y-13165784D01*
X16958858Y-13051498D02*
X16968382Y-13041974D01*
X16968382Y-13041974D02*
X16987430Y-13032450D01*
X16987430Y-13032450D02*
X17016001Y-13032450D01*
X17016001Y-13032450D02*
X17035049Y-13041974D01*
X17035049Y-13041974D02*
X17044573Y-13061022D01*
X17044573Y-13061022D02*
X17044573Y-13165784D01*
X17168382Y-13165784D02*
X17149334Y-13156260D01*
X17149334Y-13156260D02*
X17139811Y-13146736D01*
X17139811Y-13146736D02*
X17130287Y-13127688D01*
X17130287Y-13127688D02*
X17130287Y-13070546D01*
X17130287Y-13070546D02*
X17139811Y-13051498D01*
X17139811Y-13051498D02*
X17149334Y-13041974D01*
X17149334Y-13041974D02*
X17168382Y-13032450D01*
X17168382Y-13032450D02*
X17196954Y-13032450D01*
X17196954Y-13032450D02*
X17216001Y-13041974D01*
X17216001Y-13041974D02*
X17225525Y-13051498D01*
X17225525Y-13051498D02*
X17235049Y-13070546D01*
X17235049Y-13070546D02*
X17235049Y-13127688D01*
X17235049Y-13127688D02*
X17225525Y-13146736D01*
X17225525Y-13146736D02*
X17216001Y-13156260D01*
X17216001Y-13156260D02*
X17196954Y-13165784D01*
X17196954Y-13165784D02*
X17168382Y-13165784D01*
X17292192Y-13032450D02*
X17368382Y-13032450D01*
X17320763Y-12965784D02*
X17320763Y-13137212D01*
X17320763Y-13137212D02*
X17330287Y-13156260D01*
X17330287Y-13156260D02*
X17349334Y-13165784D01*
X17349334Y-13165784D02*
X17368382Y-13165784D01*
X17587430Y-13032450D02*
X17587430Y-13232450D01*
X17587430Y-13041974D02*
X17606477Y-13032450D01*
X17606477Y-13032450D02*
X17644573Y-13032450D01*
X17644573Y-13032450D02*
X17663620Y-13041974D01*
X17663620Y-13041974D02*
X17673144Y-13051498D01*
X17673144Y-13051498D02*
X17682668Y-13070546D01*
X17682668Y-13070546D02*
X17682668Y-13127688D01*
X17682668Y-13127688D02*
X17673144Y-13146736D01*
X17673144Y-13146736D02*
X17663620Y-13156260D01*
X17663620Y-13156260D02*
X17644573Y-13165784D01*
X17644573Y-13165784D02*
X17606477Y-13165784D01*
X17606477Y-13165784D02*
X17587430Y-13156260D01*
X17796954Y-13165784D02*
X17777906Y-13156260D01*
X17777906Y-13156260D02*
X17768382Y-13137212D01*
X17768382Y-13137212D02*
X17768382Y-12965784D01*
X17958858Y-13165784D02*
X17958858Y-13061022D01*
X17958858Y-13061022D02*
X17949335Y-13041974D01*
X17949335Y-13041974D02*
X17930287Y-13032450D01*
X17930287Y-13032450D02*
X17892192Y-13032450D01*
X17892192Y-13032450D02*
X17873144Y-13041974D01*
X17958858Y-13156260D02*
X17939811Y-13165784D01*
X17939811Y-13165784D02*
X17892192Y-13165784D01*
X17892192Y-13165784D02*
X17873144Y-13156260D01*
X17873144Y-13156260D02*
X17863620Y-13137212D01*
X17863620Y-13137212D02*
X17863620Y-13118165D01*
X17863620Y-13118165D02*
X17873144Y-13099117D01*
X17873144Y-13099117D02*
X17892192Y-13089593D01*
X17892192Y-13089593D02*
X17939811Y-13089593D01*
X17939811Y-13089593D02*
X17958858Y-13080069D01*
X18025525Y-13032450D02*
X18101715Y-13032450D01*
X18054096Y-12965784D02*
X18054096Y-13137212D01*
X18054096Y-13137212D02*
X18063620Y-13156260D01*
X18063620Y-13156260D02*
X18082668Y-13165784D01*
X18082668Y-13165784D02*
X18101715Y-13165784D01*
X18244573Y-13156260D02*
X18225525Y-13165784D01*
X18225525Y-13165784D02*
X18187430Y-13165784D01*
X18187430Y-13165784D02*
X18168382Y-13156260D01*
X18168382Y-13156260D02*
X18158858Y-13137212D01*
X18158858Y-13137212D02*
X18158858Y-13061022D01*
X18158858Y-13061022D02*
X18168382Y-13041974D01*
X18168382Y-13041974D02*
X18187430Y-13032450D01*
X18187430Y-13032450D02*
X18225525Y-13032450D01*
X18225525Y-13032450D02*
X18244573Y-13041974D01*
X18244573Y-13041974D02*
X18254096Y-13061022D01*
X18254096Y-13061022D02*
X18254096Y-13080069D01*
X18254096Y-13080069D02*
X18158858Y-13099117D01*
X18425525Y-13165784D02*
X18425525Y-12965784D01*
X18425525Y-13156260D02*
X18406477Y-13165784D01*
X18406477Y-13165784D02*
X18368382Y-13165784D01*
X18368382Y-13165784D02*
X18349335Y-13156260D01*
X18349335Y-13156260D02*
X18339811Y-13146736D01*
X18339811Y-13146736D02*
X18330287Y-13127688D01*
X18330287Y-13127688D02*
X18330287Y-13070546D01*
X18330287Y-13070546D02*
X18339811Y-13051498D01*
X18339811Y-13051498D02*
X18349335Y-13041974D01*
X18349335Y-13041974D02*
X18368382Y-13032450D01*
X18368382Y-13032450D02*
X18406477Y-13032450D01*
X18406477Y-13032450D02*
X18425525Y-13041974D01*
X18501716Y-13241974D02*
X18511239Y-13232450D01*
X18511239Y-13232450D02*
X18530287Y-13203879D01*
X18530287Y-13203879D02*
X18539811Y-13184831D01*
X18539811Y-13184831D02*
X18549335Y-13156260D01*
X18549335Y-13156260D02*
X18558858Y-13108641D01*
X18558858Y-13108641D02*
X18558858Y-13070546D01*
X18558858Y-13070546D02*
X18549335Y-13022927D01*
X18549335Y-13022927D02*
X18539811Y-12994355D01*
X18539811Y-12994355D02*
X18530287Y-12975308D01*
X18530287Y-12975308D02*
X18511239Y-12946736D01*
X18511239Y-12946736D02*
X18501716Y-12937212D01*
M02*
