G04 #@! TF.GenerationSoftware,KiCad,Pcbnew,(5.1.5)-3*
G04 #@! TF.CreationDate,2020-12-19T15:02:51+01:00*
G04 #@! TF.ProjectId,DNMS,444e4d53-2e6b-4696-9361-645f70636258,0.9.0*
G04 #@! TF.SameCoordinates,Original*
G04 #@! TF.FileFunction,Copper,L2,Bot*
G04 #@! TF.FilePolarity,Positive*
%FSLAX46Y46*%
G04 Gerber Fmt 4.6, Leading zero omitted, Abs format (unit mm)*
G04 Created by KiCad (PCBNEW (5.1.5)-3) date 2020-12-19 15:02:51*
%MOMM*%
%LPD*%
G04 APERTURE LIST*
%ADD10C,1.700000*%
%ADD11C,1.740000*%
%ADD12O,1.700000X1.700000*%
%ADD13R,1.700000X1.700000*%
%ADD14C,1.600000*%
%ADD15O,1.100000X1.700000*%
%ADD16C,0.100000*%
%ADD17R,1.600000X1.600000*%
%ADD18O,1.600000X1.600000*%
%ADD19C,0.800000*%
%ADD20C,0.500000*%
%ADD21C,0.250000*%
%ADD22C,0.254000*%
G04 APERTURE END LIST*
D10*
X149143720Y-87723980D03*
X151683720Y-87723980D03*
X154223720Y-87723980D03*
D11*
X156763720Y-87723980D03*
D10*
X159303720Y-87723980D03*
X161843720Y-87723980D03*
X164383720Y-87723980D03*
X166923720Y-87723980D03*
X169463720Y-87723980D03*
X172003720Y-87723980D03*
X174543720Y-87723980D03*
X177083720Y-87723980D03*
X179623720Y-87723980D03*
X182163720Y-87723980D03*
X184703720Y-87723980D03*
X184703720Y-59783980D03*
X182163720Y-59783980D03*
X179623720Y-59783980D03*
X177083720Y-59783980D03*
X174543720Y-59783980D03*
X172003720Y-59783980D03*
X169463720Y-59783980D03*
X166923720Y-59783980D03*
X164383720Y-59783980D03*
X161843720Y-59783980D03*
X159303720Y-59783980D03*
X156763720Y-59783980D03*
X154223720Y-59783980D03*
X151683720Y-59783980D03*
X149143720Y-59783980D03*
X151648160Y-85163660D03*
X156728160Y-85163660D03*
X154188160Y-85163660D03*
X174508160Y-85163660D03*
X171968160Y-85163660D03*
X166888160Y-85163660D03*
X169428160Y-85163660D03*
X184668160Y-85163660D03*
X164348160Y-85163660D03*
X159268160Y-85163660D03*
X161808160Y-85163660D03*
X177048160Y-85163660D03*
X182128160Y-85163660D03*
X179588160Y-85163660D03*
X149108160Y-85163660D03*
X184668160Y-62303660D03*
X182128160Y-62303660D03*
X179588160Y-62303660D03*
X177048160Y-62303660D03*
X174508160Y-62303660D03*
X171968160Y-62303660D03*
X169428160Y-62303660D03*
X166888160Y-62303660D03*
X164348160Y-62303660D03*
X161808160Y-62303660D03*
X159268160Y-62303660D03*
X156728160Y-62303660D03*
X154188160Y-62303660D03*
X151648160Y-62303660D03*
X149108160Y-62303660D03*
D12*
X70205600Y-79870300D03*
X67665600Y-79870300D03*
X70205600Y-77330300D03*
X67665600Y-77330300D03*
X70205600Y-74790300D03*
D13*
X67665600Y-74790300D03*
D14*
X132648020Y-87823800D03*
X127648020Y-87823800D03*
X126398020Y-87823800D03*
X133898020Y-87823800D03*
X132055440Y-69976380D03*
X127055440Y-69976380D03*
X125805440Y-69976380D03*
X133305440Y-69976380D03*
X65281480Y-68351400D03*
X70281480Y-68351400D03*
X71531480Y-68351400D03*
X64031480Y-68351400D03*
D15*
X115276880Y-65990480D03*
X116776880Y-65990480D03*
X118276880Y-65990480D03*
X119776880Y-65990480D03*
G04 #@! TA.AperFunction,ComponentPad*
D16*
G36*
X121681029Y-65141259D02*
G01*
X121696726Y-65143587D01*
X121712119Y-65147443D01*
X121727060Y-65152789D01*
X121741405Y-65159573D01*
X121755016Y-65167731D01*
X121767761Y-65177184D01*
X121779519Y-65187841D01*
X121790176Y-65199599D01*
X121799629Y-65212344D01*
X121807787Y-65225955D01*
X121814571Y-65240300D01*
X121819917Y-65255241D01*
X121823773Y-65270634D01*
X121826101Y-65286331D01*
X121826880Y-65302180D01*
X121826880Y-66678780D01*
X121826101Y-66694629D01*
X121823773Y-66710326D01*
X121819917Y-66725719D01*
X121814571Y-66740660D01*
X121807787Y-66755005D01*
X121799629Y-66768616D01*
X121790176Y-66781361D01*
X121779519Y-66793119D01*
X121767761Y-66803776D01*
X121755016Y-66813229D01*
X121741405Y-66821387D01*
X121727060Y-66828171D01*
X121712119Y-66833517D01*
X121696726Y-66837373D01*
X121681029Y-66839701D01*
X121665180Y-66840480D01*
X120888580Y-66840480D01*
X120872731Y-66839701D01*
X120857034Y-66837373D01*
X120841641Y-66833517D01*
X120826700Y-66828171D01*
X120812355Y-66821387D01*
X120798744Y-66813229D01*
X120785999Y-66803776D01*
X120774241Y-66793119D01*
X120763584Y-66781361D01*
X120754131Y-66768616D01*
X120745973Y-66755005D01*
X120739189Y-66740660D01*
X120733843Y-66725719D01*
X120729987Y-66710326D01*
X120727659Y-66694629D01*
X120726880Y-66678780D01*
X120726880Y-65302180D01*
X120727659Y-65286331D01*
X120729987Y-65270634D01*
X120733843Y-65255241D01*
X120739189Y-65240300D01*
X120745973Y-65225955D01*
X120754131Y-65212344D01*
X120763584Y-65199599D01*
X120774241Y-65187841D01*
X120785999Y-65177184D01*
X120798744Y-65167731D01*
X120812355Y-65159573D01*
X120826700Y-65152789D01*
X120841641Y-65147443D01*
X120857034Y-65143587D01*
X120872731Y-65141259D01*
X120888580Y-65140480D01*
X121665180Y-65140480D01*
X121681029Y-65141259D01*
G37*
G04 #@! TD.AperFunction*
D17*
X111267240Y-66171500D03*
D14*
X108727240Y-66171500D03*
X106187240Y-66171500D03*
X103647240Y-66171500D03*
X101107240Y-66171500D03*
X98567240Y-66171500D03*
X96027240Y-66171500D03*
X93487240Y-66171500D03*
X90947240Y-66171500D03*
X88407240Y-66171500D03*
X85867240Y-66171500D03*
X83327240Y-66171500D03*
X80787240Y-66171500D03*
X108727240Y-78871500D03*
X111267240Y-81411500D03*
X108727240Y-81411500D03*
X106187240Y-81411500D03*
X103647240Y-81411500D03*
X101107240Y-81411500D03*
X98567240Y-81411500D03*
X96027240Y-81411500D03*
X93487240Y-81411500D03*
X90947240Y-81411500D03*
X88407240Y-81411500D03*
X85867240Y-81411500D03*
X83327240Y-81411500D03*
X80787240Y-81411500D03*
X78247240Y-66171500D03*
X78247240Y-68711500D03*
X78247240Y-71251500D03*
X78247240Y-81411500D03*
X78247240Y-78871500D03*
X78247240Y-76331500D03*
X78247240Y-73791500D03*
D18*
X133950200Y-84107780D03*
D14*
X123790200Y-84107780D03*
D18*
X135950200Y-72977260D03*
D14*
X125790200Y-72977260D03*
D12*
X133410200Y-66320560D03*
X130870200Y-66320560D03*
X128330200Y-66320560D03*
D13*
X125790200Y-66320560D03*
D12*
X111252000Y-85833960D03*
D13*
X113792000Y-85833960D03*
D19*
X141607540Y-86024720D03*
X193421000Y-59949080D03*
X101429820Y-77602080D03*
X94554620Y-71251500D03*
X100444300Y-71297800D03*
D20*
X172003720Y-62268100D02*
X171968160Y-62303660D01*
X172003720Y-59783980D02*
X172003720Y-62268100D01*
X182163720Y-62268100D02*
X182128160Y-62303660D01*
X182163720Y-59783980D02*
X182163720Y-62268100D01*
X182128160Y-87688420D02*
X182163720Y-87723980D01*
X182128160Y-85163660D02*
X182128160Y-87688420D01*
X164348160Y-87688420D02*
X164383720Y-87723980D01*
X164348160Y-85163660D02*
X164348160Y-87688420D01*
X67665600Y-74790300D02*
X70205600Y-74790300D01*
X77248440Y-74790300D02*
X78247240Y-73791500D01*
X70205600Y-74790300D02*
X77248440Y-74790300D01*
X111276880Y-66161860D02*
X111267240Y-66171500D01*
X111276880Y-61990480D02*
X111276880Y-66161860D01*
X132055440Y-69976380D02*
X132055440Y-71107750D01*
X67665600Y-70735520D02*
X65281480Y-68351400D01*
X67665600Y-74790300D02*
X67665600Y-70735520D01*
X111276880Y-61990480D02*
X110226880Y-61990480D01*
X182128160Y-62303660D02*
X182128160Y-63505741D01*
X164348160Y-85163660D02*
X164348160Y-82984340D01*
X164348160Y-82984340D02*
X164683440Y-82649060D01*
X164683440Y-82649060D02*
X181978300Y-82649060D01*
X131986020Y-69976380D02*
X132055440Y-69976380D01*
X128330200Y-66320560D02*
X131986020Y-69976380D01*
X69184520Y-61986160D02*
X65278000Y-65892680D01*
X110172500Y-61986160D02*
X69184520Y-61986160D01*
X65281480Y-66087320D02*
X65278000Y-65892680D01*
X65278000Y-65892680D02*
X65281480Y-68351400D01*
X132055440Y-69976380D02*
X133305440Y-69976380D01*
X171968160Y-62303660D02*
X171968160Y-63505741D01*
X173557539Y-65095120D02*
X182148480Y-65095120D01*
X182128160Y-62303660D02*
X182148480Y-65095120D01*
X171968160Y-63505741D02*
X173557539Y-65095120D01*
X182148480Y-65095120D02*
X182128160Y-85163660D01*
X132648020Y-87823800D02*
X133898020Y-87823800D01*
X164383720Y-88926061D02*
X164079581Y-89230200D01*
X164383720Y-87723980D02*
X164383720Y-88926061D01*
X65281480Y-68351400D02*
X64031480Y-68351400D01*
X130111500Y-87823800D02*
X132648020Y-87823800D01*
X130070860Y-82019140D02*
X130070860Y-87783160D01*
X130070860Y-87783160D02*
X130111500Y-87823800D01*
X132055440Y-71107750D02*
X132055440Y-80034560D01*
X132055440Y-80034560D02*
X130070860Y-82019140D01*
X115020850Y-66171500D02*
X115201870Y-65990480D01*
X111267240Y-66171500D02*
X115020850Y-66171500D01*
X127480201Y-65470561D02*
X127480201Y-63345201D01*
X128330200Y-66320560D02*
X127480201Y-65470561D01*
X127480201Y-63345201D02*
X123649740Y-59514740D01*
X113687860Y-59514740D02*
X111379000Y-61823600D01*
X123649740Y-59514740D02*
X113687860Y-59514740D01*
X111276880Y-61990480D02*
X111379000Y-61823600D01*
X115276880Y-65990480D02*
X116776880Y-65990480D01*
X133898020Y-88955170D02*
X133898020Y-87823800D01*
X134173050Y-89230200D02*
X133898020Y-88955170D01*
X141607540Y-86024720D02*
X141607540Y-89195670D01*
X134205980Y-89230200D02*
X134173050Y-89230200D01*
X141541500Y-89261710D02*
X134237490Y-89261710D01*
X134237490Y-89261710D02*
X134205980Y-89230200D01*
X141541500Y-89261710D02*
X142238970Y-89261710D01*
X141935200Y-89261710D02*
X142238970Y-89261710D01*
X142238970Y-89261710D02*
X164079581Y-89261710D01*
X174543720Y-62268100D02*
X174508160Y-62303660D01*
X174543720Y-59783980D02*
X174543720Y-62268100D01*
X184668160Y-87688420D02*
X184703720Y-87723980D01*
X184668160Y-85163660D02*
X184668160Y-87688420D01*
X161808160Y-87688420D02*
X161843720Y-87723980D01*
X161808160Y-85163660D02*
X161808160Y-87688420D01*
X125790200Y-69961140D02*
X125805440Y-69976380D01*
X125790200Y-66320560D02*
X125790200Y-69961140D01*
X125805440Y-72962020D02*
X125790200Y-72977260D01*
X125805440Y-69976380D02*
X125805440Y-72962020D01*
X125805440Y-69976380D02*
X127055440Y-69976380D01*
X125790200Y-82107780D02*
X123790200Y-84107780D01*
X125790200Y-72977260D02*
X125790200Y-82107780D01*
X117276880Y-75401860D02*
X111267240Y-81411500D01*
X187459620Y-62303660D02*
X184668160Y-62303660D01*
X187551060Y-62212220D02*
X187459620Y-62303660D01*
X186778900Y-89961720D02*
X167182800Y-89961720D01*
X167147240Y-89961720D02*
X127985520Y-89961720D01*
X154266140Y-57545480D02*
X187313060Y-57545480D01*
X187551060Y-57783480D02*
X187313060Y-57545480D01*
X187551060Y-62212220D02*
X187551060Y-57783480D01*
X154223720Y-57587900D02*
X154223720Y-59783980D01*
X154266140Y-57545480D02*
X154223720Y-57587900D01*
X111267240Y-85818720D02*
X111252000Y-85833960D01*
X111267240Y-81411500D02*
X111267240Y-85818720D01*
X111828580Y-89690700D02*
X126219460Y-89690700D01*
X111252000Y-85833960D02*
X111252000Y-89114120D01*
X111252000Y-89114120D02*
X111828580Y-89690700D01*
X126398020Y-87823800D02*
X127648020Y-87823800D01*
X126398020Y-89512140D02*
X126398020Y-87823800D01*
X126219460Y-89690700D02*
X126398020Y-89512140D01*
X187551060Y-62212220D02*
X187551060Y-89964990D01*
X187551060Y-89964990D02*
X186799220Y-89964990D01*
X127648020Y-89624220D02*
X127648020Y-87823800D01*
X127985520Y-89961720D02*
X127648020Y-89624220D01*
X121276880Y-71401860D02*
X117276880Y-75401860D01*
X121276880Y-65990480D02*
X121276880Y-71401860D01*
D21*
X156728160Y-87688420D02*
X156763720Y-87723980D01*
X156728160Y-85163660D02*
X156728160Y-87688420D01*
X119776880Y-67972300D02*
X119776880Y-65990480D01*
X101036120Y-68295520D02*
X119453660Y-68295520D01*
X90947240Y-81411500D02*
X90947240Y-78384400D01*
X119453660Y-68295520D02*
X119776880Y-67972300D01*
X90947240Y-78384400D02*
X101036120Y-68295520D01*
X159268160Y-87688420D02*
X159303720Y-87723980D01*
X159268160Y-85163660D02*
X159268160Y-87688420D01*
X159268160Y-83433920D02*
X159268160Y-85163660D01*
X158783020Y-82948780D02*
X159268160Y-83433920D01*
X146756120Y-82948780D02*
X146781520Y-82933540D01*
X146781520Y-82933540D02*
X158783020Y-82948780D01*
X135950200Y-69727840D02*
X135950200Y-72977260D01*
X134239000Y-68016640D02*
X135950200Y-69727840D01*
X130870200Y-66320560D02*
X130870200Y-67522641D01*
X131364199Y-68016640D02*
X134239000Y-68016640D01*
X130870200Y-67522641D02*
X131364199Y-68016640D01*
X145906480Y-82933540D02*
X135950200Y-72977260D01*
X146781520Y-82933540D02*
X145906480Y-82933540D01*
X96027240Y-83400900D02*
X96027240Y-81411500D01*
X64508380Y-77797660D02*
X64508380Y-77401420D01*
X64579500Y-77330300D02*
X67665600Y-77330300D01*
X64508380Y-77401420D02*
X64579500Y-77330300D01*
X64508380Y-77797660D02*
X64508380Y-83372960D01*
X96027240Y-83400900D02*
X64508380Y-83372960D01*
X159303720Y-62318900D02*
X159301180Y-62321440D01*
X159303720Y-59783980D02*
X159303720Y-62318900D01*
X149143720Y-62318900D02*
X149141180Y-62321440D01*
X149143720Y-59783980D02*
X149143720Y-62318900D01*
D20*
X75347140Y-68351400D02*
X78247240Y-71251500D01*
X71531480Y-68351400D02*
X75347140Y-68351400D01*
X71531480Y-68351400D02*
X70281480Y-68351400D01*
X78247240Y-71251500D02*
X94554620Y-71251500D01*
X94554620Y-71251500D02*
X94656220Y-71251500D01*
X106187240Y-77040740D02*
X106187240Y-81411500D01*
X100444300Y-71297800D02*
X106187240Y-77040740D01*
D21*
X151648160Y-87688420D02*
X151683720Y-87723980D01*
X151648160Y-85163660D02*
X151648160Y-87688420D01*
X154188160Y-87688420D02*
X154223720Y-87723980D01*
X154188160Y-85163660D02*
X154188160Y-87688420D01*
X174508160Y-87688420D02*
X174543720Y-87723980D01*
X174508160Y-85163660D02*
X174508160Y-87688420D01*
X171968160Y-87688420D02*
X172003720Y-87723980D01*
X171968160Y-85163660D02*
X171968160Y-87688420D01*
X166888160Y-87688420D02*
X166923720Y-87723980D01*
X166888160Y-85163660D02*
X166888160Y-87688420D01*
X169428160Y-87688420D02*
X169463720Y-87723980D01*
X169428160Y-85163660D02*
X169428160Y-87688420D01*
X177048160Y-87688420D02*
X177083720Y-87723980D01*
X177048160Y-85163660D02*
X177048160Y-87688420D01*
X179588160Y-87688420D02*
X179623720Y-87723980D01*
X179588160Y-85163660D02*
X179588160Y-87688420D01*
X149108160Y-87688420D02*
X149143720Y-87723980D01*
X149108160Y-85163660D02*
X149108160Y-87688420D01*
X179623720Y-62268100D02*
X179588160Y-62303660D01*
X179623720Y-59783980D02*
X179623720Y-62268100D01*
X177083720Y-62268100D02*
X177048160Y-62303660D01*
X177083720Y-59783980D02*
X177083720Y-62268100D01*
X169463720Y-62318900D02*
X169461180Y-62321440D01*
X169463720Y-59783980D02*
X169463720Y-62318900D01*
X166923720Y-62318900D02*
X166921180Y-62321440D01*
X166923720Y-59783980D02*
X166923720Y-62318900D01*
X164383720Y-62318900D02*
X164381180Y-62321440D01*
X164383720Y-59783980D02*
X164383720Y-62318900D01*
X161843720Y-62318900D02*
X161841180Y-62321440D01*
X161843720Y-59783980D02*
X161843720Y-62318900D01*
X156763720Y-62318900D02*
X156761180Y-62321440D01*
X156763720Y-59783980D02*
X156763720Y-62318900D01*
D22*
G36*
X153338720Y-57544424D02*
G01*
X153338720Y-57544431D01*
X153334439Y-57587900D01*
X153338720Y-57631369D01*
X153338720Y-58589324D01*
X153277088Y-58630505D01*
X153070245Y-58837348D01*
X152953720Y-59011740D01*
X152837195Y-58837348D01*
X152630352Y-58630505D01*
X152387131Y-58467990D01*
X152116878Y-58356048D01*
X151829980Y-58298980D01*
X151537460Y-58298980D01*
X151250562Y-58356048D01*
X150980309Y-58467990D01*
X150737088Y-58630505D01*
X150530245Y-58837348D01*
X150413720Y-59011740D01*
X150297195Y-58837348D01*
X150090352Y-58630505D01*
X149847131Y-58467990D01*
X149576878Y-58356048D01*
X149289980Y-58298980D01*
X148997460Y-58298980D01*
X148710562Y-58356048D01*
X148440309Y-58467990D01*
X148197088Y-58630505D01*
X147990245Y-58837348D01*
X147827730Y-59080569D01*
X147715788Y-59350822D01*
X147658720Y-59637720D01*
X147658720Y-59930240D01*
X147715788Y-60217138D01*
X147827730Y-60487391D01*
X147990245Y-60730612D01*
X148197088Y-60937455D01*
X148338495Y-61031940D01*
X148161528Y-61150185D01*
X147954685Y-61357028D01*
X147792170Y-61600249D01*
X147680228Y-61870502D01*
X147623160Y-62157400D01*
X147623160Y-62449920D01*
X147680228Y-62736818D01*
X147792170Y-63007071D01*
X147954685Y-63250292D01*
X148161528Y-63457135D01*
X148404749Y-63619650D01*
X148675002Y-63731592D01*
X148961900Y-63788660D01*
X149254420Y-63788660D01*
X149541318Y-63731592D01*
X149811571Y-63619650D01*
X150054792Y-63457135D01*
X150261635Y-63250292D01*
X150378160Y-63075900D01*
X150494685Y-63250292D01*
X150701528Y-63457135D01*
X150944749Y-63619650D01*
X151215002Y-63731592D01*
X151501900Y-63788660D01*
X151794420Y-63788660D01*
X152081318Y-63731592D01*
X152351571Y-63619650D01*
X152594792Y-63457135D01*
X152801635Y-63250292D01*
X152918160Y-63075900D01*
X153034685Y-63250292D01*
X153241528Y-63457135D01*
X153484749Y-63619650D01*
X153755002Y-63731592D01*
X154041900Y-63788660D01*
X154334420Y-63788660D01*
X154621318Y-63731592D01*
X154891571Y-63619650D01*
X155134792Y-63457135D01*
X155341635Y-63250292D01*
X155458160Y-63075900D01*
X155574685Y-63250292D01*
X155781528Y-63457135D01*
X156024749Y-63619650D01*
X156295002Y-63731592D01*
X156581900Y-63788660D01*
X156874420Y-63788660D01*
X157161318Y-63731592D01*
X157431571Y-63619650D01*
X157674792Y-63457135D01*
X157881635Y-63250292D01*
X157998160Y-63075900D01*
X158114685Y-63250292D01*
X158321528Y-63457135D01*
X158564749Y-63619650D01*
X158835002Y-63731592D01*
X159121900Y-63788660D01*
X159414420Y-63788660D01*
X159701318Y-63731592D01*
X159971571Y-63619650D01*
X160214792Y-63457135D01*
X160421635Y-63250292D01*
X160538160Y-63075900D01*
X160654685Y-63250292D01*
X160861528Y-63457135D01*
X161104749Y-63619650D01*
X161375002Y-63731592D01*
X161661900Y-63788660D01*
X161954420Y-63788660D01*
X162241318Y-63731592D01*
X162511571Y-63619650D01*
X162754792Y-63457135D01*
X162961635Y-63250292D01*
X163078160Y-63075900D01*
X163194685Y-63250292D01*
X163401528Y-63457135D01*
X163644749Y-63619650D01*
X163915002Y-63731592D01*
X164201900Y-63788660D01*
X164494420Y-63788660D01*
X164781318Y-63731592D01*
X165051571Y-63619650D01*
X165294792Y-63457135D01*
X165501635Y-63250292D01*
X165618160Y-63075900D01*
X165734685Y-63250292D01*
X165941528Y-63457135D01*
X166184749Y-63619650D01*
X166455002Y-63731592D01*
X166741900Y-63788660D01*
X167034420Y-63788660D01*
X167321318Y-63731592D01*
X167591571Y-63619650D01*
X167834792Y-63457135D01*
X168041635Y-63250292D01*
X168158160Y-63075900D01*
X168274685Y-63250292D01*
X168481528Y-63457135D01*
X168724749Y-63619650D01*
X168995002Y-63731592D01*
X169281900Y-63788660D01*
X169574420Y-63788660D01*
X169861318Y-63731592D01*
X170131571Y-63619650D01*
X170374792Y-63457135D01*
X170499870Y-63332057D01*
X171119368Y-63332057D01*
X171197003Y-63581132D01*
X171461043Y-63707031D01*
X171744571Y-63778999D01*
X172036691Y-63794271D01*
X172326179Y-63752259D01*
X172601907Y-63654579D01*
X172739317Y-63581132D01*
X172816952Y-63332057D01*
X171968160Y-62483265D01*
X171119368Y-63332057D01*
X170499870Y-63332057D01*
X170581635Y-63250292D01*
X170697471Y-63076931D01*
X170939763Y-63152452D01*
X171788555Y-62303660D01*
X170939763Y-61454868D01*
X170697471Y-61530389D01*
X170581635Y-61357028D01*
X170499870Y-61275263D01*
X171119368Y-61275263D01*
X171968160Y-62124055D01*
X172816952Y-61275263D01*
X172753817Y-61072709D01*
X172774877Y-61061452D01*
X172852512Y-60812377D01*
X172003720Y-59963585D01*
X171154928Y-60812377D01*
X171218063Y-61014931D01*
X171197003Y-61026188D01*
X171119368Y-61275263D01*
X170499870Y-61275263D01*
X170374792Y-61150185D01*
X170233385Y-61055700D01*
X170410352Y-60937455D01*
X170617195Y-60730612D01*
X170733031Y-60557251D01*
X170975323Y-60632772D01*
X171824115Y-59783980D01*
X170975323Y-58935188D01*
X170733031Y-59010709D01*
X170617195Y-58837348D01*
X170410352Y-58630505D01*
X170167131Y-58467990D01*
X170076573Y-58430480D01*
X171377259Y-58430480D01*
X171369973Y-58433061D01*
X171232563Y-58506508D01*
X171154928Y-58755583D01*
X172003720Y-59604375D01*
X172852512Y-58755583D01*
X172774877Y-58506508D01*
X172615428Y-58430480D01*
X173930867Y-58430480D01*
X173840309Y-58467990D01*
X173597088Y-58630505D01*
X173390245Y-58837348D01*
X173274409Y-59010709D01*
X173032117Y-58935188D01*
X172183325Y-59783980D01*
X173032117Y-60632772D01*
X173274409Y-60557251D01*
X173390245Y-60730612D01*
X173597088Y-60937455D01*
X173658720Y-60978636D01*
X173658721Y-61085243D01*
X173561528Y-61150185D01*
X173354685Y-61357028D01*
X173238849Y-61530389D01*
X172996557Y-61454868D01*
X172147765Y-62303660D01*
X172996557Y-63152452D01*
X173238849Y-63076931D01*
X173354685Y-63250292D01*
X173561528Y-63457135D01*
X173804749Y-63619650D01*
X174075002Y-63731592D01*
X174361900Y-63788660D01*
X174654420Y-63788660D01*
X174941318Y-63731592D01*
X175211571Y-63619650D01*
X175454792Y-63457135D01*
X175661635Y-63250292D01*
X175778160Y-63075900D01*
X175894685Y-63250292D01*
X176101528Y-63457135D01*
X176344749Y-63619650D01*
X176615002Y-63731592D01*
X176901900Y-63788660D01*
X177194420Y-63788660D01*
X177481318Y-63731592D01*
X177751571Y-63619650D01*
X177994792Y-63457135D01*
X178201635Y-63250292D01*
X178318160Y-63075900D01*
X178434685Y-63250292D01*
X178641528Y-63457135D01*
X178884749Y-63619650D01*
X179155002Y-63731592D01*
X179441900Y-63788660D01*
X179734420Y-63788660D01*
X180021318Y-63731592D01*
X180291571Y-63619650D01*
X180534792Y-63457135D01*
X180659870Y-63332057D01*
X181279368Y-63332057D01*
X181357003Y-63581132D01*
X181621043Y-63707031D01*
X181904571Y-63778999D01*
X182196691Y-63794271D01*
X182486179Y-63752259D01*
X182761907Y-63654579D01*
X182899317Y-63581132D01*
X182976952Y-63332057D01*
X182128160Y-62483265D01*
X181279368Y-63332057D01*
X180659870Y-63332057D01*
X180741635Y-63250292D01*
X180857471Y-63076931D01*
X181099763Y-63152452D01*
X181948555Y-62303660D01*
X181099763Y-61454868D01*
X180857471Y-61530389D01*
X180741635Y-61357028D01*
X180659870Y-61275263D01*
X181279368Y-61275263D01*
X182128160Y-62124055D01*
X182976952Y-61275263D01*
X182913817Y-61072709D01*
X182934877Y-61061452D01*
X183012512Y-60812377D01*
X182163720Y-59963585D01*
X181314928Y-60812377D01*
X181378063Y-61014931D01*
X181357003Y-61026188D01*
X181279368Y-61275263D01*
X180659870Y-61275263D01*
X180534792Y-61150185D01*
X180393385Y-61055700D01*
X180570352Y-60937455D01*
X180777195Y-60730612D01*
X180893031Y-60557251D01*
X181135323Y-60632772D01*
X181984115Y-59783980D01*
X181135323Y-58935188D01*
X180893031Y-59010709D01*
X180777195Y-58837348D01*
X180570352Y-58630505D01*
X180327131Y-58467990D01*
X180236573Y-58430480D01*
X181537259Y-58430480D01*
X181529973Y-58433061D01*
X181392563Y-58506508D01*
X181314928Y-58755583D01*
X182163720Y-59604375D01*
X183012512Y-58755583D01*
X182934877Y-58506508D01*
X182775428Y-58430480D01*
X184090867Y-58430480D01*
X184000309Y-58467990D01*
X183757088Y-58630505D01*
X183550245Y-58837348D01*
X183434409Y-59010709D01*
X183192117Y-58935188D01*
X182343325Y-59783980D01*
X183192117Y-60632772D01*
X183434409Y-60557251D01*
X183550245Y-60730612D01*
X183757088Y-60937455D01*
X183898495Y-61031940D01*
X183721528Y-61150185D01*
X183514685Y-61357028D01*
X183398849Y-61530389D01*
X183156557Y-61454868D01*
X182307765Y-62303660D01*
X183156557Y-63152452D01*
X183398849Y-63076931D01*
X183514685Y-63250292D01*
X183721528Y-63457135D01*
X183964749Y-63619650D01*
X184235002Y-63731592D01*
X184521900Y-63788660D01*
X184814420Y-63788660D01*
X185101318Y-63731592D01*
X185371571Y-63619650D01*
X185614792Y-63457135D01*
X185821635Y-63250292D01*
X185862816Y-63188660D01*
X186666060Y-63188660D01*
X186666061Y-89076720D01*
X185318408Y-89076720D01*
X185407131Y-89039970D01*
X185650352Y-88877455D01*
X185857195Y-88670612D01*
X186019710Y-88427391D01*
X186131652Y-88157138D01*
X186188720Y-87870240D01*
X186188720Y-87577720D01*
X186131652Y-87290822D01*
X186019710Y-87020569D01*
X185857195Y-86777348D01*
X185650352Y-86570505D01*
X185553160Y-86505563D01*
X185553160Y-86358316D01*
X185614792Y-86317135D01*
X185821635Y-86110292D01*
X185984150Y-85867071D01*
X186096092Y-85596818D01*
X186153160Y-85309920D01*
X186153160Y-85017400D01*
X186096092Y-84730502D01*
X185984150Y-84460249D01*
X185821635Y-84217028D01*
X185614792Y-84010185D01*
X185371571Y-83847670D01*
X185101318Y-83735728D01*
X184814420Y-83678660D01*
X184521900Y-83678660D01*
X184235002Y-83735728D01*
X183964749Y-83847670D01*
X183721528Y-84010185D01*
X183514685Y-84217028D01*
X183398849Y-84390389D01*
X183156557Y-84314868D01*
X182307765Y-85163660D01*
X183156557Y-86012452D01*
X183398849Y-85936931D01*
X183514685Y-86110292D01*
X183721528Y-86317135D01*
X183783160Y-86358316D01*
X183783161Y-86553084D01*
X183757088Y-86570505D01*
X183550245Y-86777348D01*
X183434409Y-86950709D01*
X183192117Y-86875188D01*
X182343325Y-87723980D01*
X183192117Y-88572772D01*
X183434409Y-88497251D01*
X183550245Y-88670612D01*
X183757088Y-88877455D01*
X184000309Y-89039970D01*
X184089032Y-89076720D01*
X182792327Y-89076720D01*
X182797467Y-89074899D01*
X182934877Y-89001452D01*
X183012512Y-88752377D01*
X182163720Y-87903585D01*
X181314928Y-88752377D01*
X181392563Y-89001452D01*
X181550418Y-89076720D01*
X180238408Y-89076720D01*
X180327131Y-89039970D01*
X180570352Y-88877455D01*
X180777195Y-88670612D01*
X180893031Y-88497251D01*
X181135323Y-88572772D01*
X181984115Y-87723980D01*
X181135323Y-86875188D01*
X180893031Y-86950709D01*
X180777195Y-86777348D01*
X180570352Y-86570505D01*
X180362974Y-86431940D01*
X180534792Y-86317135D01*
X180659870Y-86192057D01*
X181279368Y-86192057D01*
X181357003Y-86441132D01*
X181389421Y-86456589D01*
X181314928Y-86695583D01*
X182163720Y-87544375D01*
X183012512Y-86695583D01*
X182934877Y-86446508D01*
X182902459Y-86431051D01*
X182976952Y-86192057D01*
X182128160Y-85343265D01*
X181279368Y-86192057D01*
X180659870Y-86192057D01*
X180741635Y-86110292D01*
X180857471Y-85936931D01*
X181099763Y-86012452D01*
X181948555Y-85163660D01*
X181099763Y-84314868D01*
X180857471Y-84390389D01*
X180741635Y-84217028D01*
X180659870Y-84135263D01*
X181279368Y-84135263D01*
X182128160Y-84984055D01*
X182976952Y-84135263D01*
X182899317Y-83886188D01*
X182635277Y-83760289D01*
X182351749Y-83688321D01*
X182059629Y-83673049D01*
X181770141Y-83715061D01*
X181494413Y-83812741D01*
X181357003Y-83886188D01*
X181279368Y-84135263D01*
X180659870Y-84135263D01*
X180534792Y-84010185D01*
X180291571Y-83847670D01*
X180021318Y-83735728D01*
X179734420Y-83678660D01*
X179441900Y-83678660D01*
X179155002Y-83735728D01*
X178884749Y-83847670D01*
X178641528Y-84010185D01*
X178434685Y-84217028D01*
X178318160Y-84391420D01*
X178201635Y-84217028D01*
X177994792Y-84010185D01*
X177751571Y-83847670D01*
X177481318Y-83735728D01*
X177194420Y-83678660D01*
X176901900Y-83678660D01*
X176615002Y-83735728D01*
X176344749Y-83847670D01*
X176101528Y-84010185D01*
X175894685Y-84217028D01*
X175778160Y-84391420D01*
X175661635Y-84217028D01*
X175454792Y-84010185D01*
X175211571Y-83847670D01*
X174941318Y-83735728D01*
X174654420Y-83678660D01*
X174361900Y-83678660D01*
X174075002Y-83735728D01*
X173804749Y-83847670D01*
X173561528Y-84010185D01*
X173354685Y-84217028D01*
X173238160Y-84391420D01*
X173121635Y-84217028D01*
X172914792Y-84010185D01*
X172671571Y-83847670D01*
X172401318Y-83735728D01*
X172114420Y-83678660D01*
X171821900Y-83678660D01*
X171535002Y-83735728D01*
X171264749Y-83847670D01*
X171021528Y-84010185D01*
X170814685Y-84217028D01*
X170698160Y-84391420D01*
X170581635Y-84217028D01*
X170374792Y-84010185D01*
X170131571Y-83847670D01*
X169861318Y-83735728D01*
X169574420Y-83678660D01*
X169281900Y-83678660D01*
X168995002Y-83735728D01*
X168724749Y-83847670D01*
X168481528Y-84010185D01*
X168274685Y-84217028D01*
X168158160Y-84391420D01*
X168041635Y-84217028D01*
X167834792Y-84010185D01*
X167591571Y-83847670D01*
X167321318Y-83735728D01*
X167034420Y-83678660D01*
X166741900Y-83678660D01*
X166455002Y-83735728D01*
X166184749Y-83847670D01*
X165941528Y-84010185D01*
X165734685Y-84217028D01*
X165618849Y-84390389D01*
X165376557Y-84314868D01*
X164527765Y-85163660D01*
X165376557Y-86012452D01*
X165618849Y-85936931D01*
X165734685Y-86110292D01*
X165941528Y-86317135D01*
X166128161Y-86441839D01*
X166128161Y-86469562D01*
X165977088Y-86570505D01*
X165770245Y-86777348D01*
X165654409Y-86950709D01*
X165412117Y-86875188D01*
X164563325Y-87723980D01*
X165412117Y-88572772D01*
X165654409Y-88497251D01*
X165770245Y-88670612D01*
X165977088Y-88877455D01*
X166220309Y-89039970D01*
X166309032Y-89076720D01*
X165012327Y-89076720D01*
X165017467Y-89074899D01*
X165154877Y-89001452D01*
X165232512Y-88752377D01*
X164383720Y-87903585D01*
X163534928Y-88752377D01*
X163612563Y-89001452D01*
X163770418Y-89076720D01*
X162458408Y-89076720D01*
X162547131Y-89039970D01*
X162790352Y-88877455D01*
X162997195Y-88670612D01*
X163113031Y-88497251D01*
X163355323Y-88572772D01*
X164204115Y-87723980D01*
X163355323Y-86875188D01*
X163113031Y-86950709D01*
X162997195Y-86777348D01*
X162790352Y-86570505D01*
X162693160Y-86505563D01*
X162693160Y-86358316D01*
X162754792Y-86317135D01*
X162879870Y-86192057D01*
X163499368Y-86192057D01*
X163577003Y-86441132D01*
X163609421Y-86456589D01*
X163534928Y-86695583D01*
X164383720Y-87544375D01*
X165232512Y-86695583D01*
X165154877Y-86446508D01*
X165122459Y-86431051D01*
X165196952Y-86192057D01*
X164348160Y-85343265D01*
X163499368Y-86192057D01*
X162879870Y-86192057D01*
X162961635Y-86110292D01*
X163077471Y-85936931D01*
X163319763Y-86012452D01*
X164168555Y-85163660D01*
X163319763Y-84314868D01*
X163077471Y-84390389D01*
X162961635Y-84217028D01*
X162879870Y-84135263D01*
X163499368Y-84135263D01*
X164348160Y-84984055D01*
X165196952Y-84135263D01*
X165119317Y-83886188D01*
X164855277Y-83760289D01*
X164571749Y-83688321D01*
X164279629Y-83673049D01*
X163990141Y-83715061D01*
X163714413Y-83812741D01*
X163577003Y-83886188D01*
X163499368Y-84135263D01*
X162879870Y-84135263D01*
X162754792Y-84010185D01*
X162511571Y-83847670D01*
X162241318Y-83735728D01*
X161954420Y-83678660D01*
X161661900Y-83678660D01*
X161375002Y-83735728D01*
X161104749Y-83847670D01*
X160861528Y-84010185D01*
X160654685Y-84217028D01*
X160538160Y-84391420D01*
X160421635Y-84217028D01*
X160214792Y-84010185D01*
X160028160Y-83885482D01*
X160028160Y-83471253D01*
X160031837Y-83433920D01*
X160017163Y-83284934D01*
X159973706Y-83141673D01*
X159903134Y-83009644D01*
X159852644Y-82948122D01*
X159808161Y-82893919D01*
X159779158Y-82870117D01*
X159347161Y-82438120D01*
X159323706Y-82409466D01*
X159294365Y-82385324D01*
X159294022Y-82384981D01*
X159265381Y-82361476D01*
X159208102Y-82314346D01*
X159207675Y-82314117D01*
X159207296Y-82313806D01*
X159141608Y-82278695D01*
X159076163Y-82243606D01*
X159075695Y-82243463D01*
X159075266Y-82243234D01*
X159004512Y-82221772D01*
X158932957Y-82199967D01*
X158932467Y-82199918D01*
X158932005Y-82199778D01*
X158858255Y-82192514D01*
X158821318Y-82188829D01*
X158820834Y-82188828D01*
X158783020Y-82185104D01*
X158746169Y-82188734D01*
X146837881Y-82173612D01*
X146818642Y-82170767D01*
X146763176Y-82173517D01*
X146745153Y-82173494D01*
X146744680Y-82173540D01*
X146221282Y-82173540D01*
X137348888Y-73301147D01*
X137385200Y-73118595D01*
X137385200Y-72835925D01*
X137330053Y-72558686D01*
X137221880Y-72297533D01*
X137064837Y-72062501D01*
X136864959Y-71862623D01*
X136710200Y-71759217D01*
X136710200Y-69765162D01*
X136713876Y-69727839D01*
X136710200Y-69690516D01*
X136710200Y-69690507D01*
X136699203Y-69578854D01*
X136655746Y-69435593D01*
X136585174Y-69303564D01*
X136490201Y-69187839D01*
X136461204Y-69164042D01*
X134802804Y-67505643D01*
X134779001Y-67476639D01*
X134663276Y-67381666D01*
X134531247Y-67311094D01*
X134522443Y-67308424D01*
X134563675Y-67267192D01*
X134726190Y-67023971D01*
X134838132Y-66753718D01*
X134895200Y-66466820D01*
X134895200Y-66174300D01*
X134838132Y-65887402D01*
X134726190Y-65617149D01*
X134563675Y-65373928D01*
X134356832Y-65167085D01*
X134113611Y-65004570D01*
X133843358Y-64892628D01*
X133556460Y-64835560D01*
X133263940Y-64835560D01*
X132977042Y-64892628D01*
X132706789Y-65004570D01*
X132463568Y-65167085D01*
X132256725Y-65373928D01*
X132140200Y-65548320D01*
X132023675Y-65373928D01*
X131816832Y-65167085D01*
X131573611Y-65004570D01*
X131303358Y-64892628D01*
X131016460Y-64835560D01*
X130723940Y-64835560D01*
X130437042Y-64892628D01*
X130166789Y-65004570D01*
X129923568Y-65167085D01*
X129716725Y-65373928D01*
X129595005Y-65556094D01*
X129525378Y-65439205D01*
X129330469Y-65222972D01*
X129097120Y-65048919D01*
X128834299Y-64923735D01*
X128687090Y-64879084D01*
X128457200Y-65000405D01*
X128457200Y-66193560D01*
X128477200Y-66193560D01*
X128477200Y-66447560D01*
X128457200Y-66447560D01*
X128457200Y-67640715D01*
X128687090Y-67762036D01*
X128834299Y-67717385D01*
X129097120Y-67592201D01*
X129330469Y-67418148D01*
X129525378Y-67201915D01*
X129595005Y-67085026D01*
X129716725Y-67267192D01*
X129923568Y-67474035D01*
X130114288Y-67601470D01*
X130121198Y-67671627D01*
X130134380Y-67715083D01*
X130164654Y-67814887D01*
X130235226Y-67946917D01*
X130287890Y-68011087D01*
X130330200Y-68062642D01*
X130359198Y-68086440D01*
X130800395Y-68527637D01*
X130824198Y-68556641D01*
X130885895Y-68607274D01*
X130939922Y-68651614D01*
X131033308Y-68701530D01*
X131071952Y-68722186D01*
X131215213Y-68765643D01*
X131303758Y-68774364D01*
X131242343Y-68983678D01*
X131908019Y-69649354D01*
X131879140Y-69764564D01*
X131869034Y-69969579D01*
X131062738Y-69163283D01*
X130818769Y-69234866D01*
X130697869Y-69490376D01*
X130629140Y-69764564D01*
X130615223Y-70046892D01*
X130656653Y-70326510D01*
X130751837Y-70592672D01*
X130818769Y-70717894D01*
X131062738Y-70789477D01*
X131868329Y-69983886D01*
X131865223Y-70046892D01*
X131903848Y-70307577D01*
X131242343Y-70969082D01*
X131313926Y-71213051D01*
X131569436Y-71333951D01*
X131843624Y-71402680D01*
X132125952Y-71416597D01*
X132405570Y-71375167D01*
X132671732Y-71279983D01*
X132687532Y-71271538D01*
X132819436Y-71333951D01*
X133093624Y-71402680D01*
X133375952Y-71416597D01*
X133655570Y-71375167D01*
X133921732Y-71279983D01*
X134046954Y-71213051D01*
X134118537Y-70969082D01*
X133452861Y-70303406D01*
X133481740Y-70188196D01*
X133491846Y-69983181D01*
X134298142Y-70789477D01*
X134542111Y-70717894D01*
X134663011Y-70462384D01*
X134731740Y-70188196D01*
X134745657Y-69905868D01*
X134704227Y-69626250D01*
X134665491Y-69517932D01*
X135190200Y-70042642D01*
X135190201Y-71759216D01*
X135035441Y-71862623D01*
X134835563Y-72062501D01*
X134678520Y-72297533D01*
X134570347Y-72558686D01*
X134515200Y-72835925D01*
X134515200Y-73118595D01*
X134570347Y-73395834D01*
X134678520Y-73656987D01*
X134835563Y-73892019D01*
X135035441Y-74091897D01*
X135270473Y-74248940D01*
X135531626Y-74357113D01*
X135808865Y-74412260D01*
X136091535Y-74412260D01*
X136274087Y-74375948D01*
X145342681Y-83444543D01*
X145366479Y-83473541D01*
X145482204Y-83568514D01*
X145614233Y-83639086D01*
X145757494Y-83682543D01*
X145869147Y-83693540D01*
X145869156Y-83693540D01*
X145906479Y-83697216D01*
X145943802Y-83693540D01*
X146597176Y-83693540D01*
X146718998Y-83711553D01*
X146868520Y-83704140D01*
X146910106Y-83693703D01*
X148873739Y-83696196D01*
X148675002Y-83735728D01*
X148404749Y-83847670D01*
X148161528Y-84010185D01*
X147954685Y-84217028D01*
X147792170Y-84460249D01*
X147680228Y-84730502D01*
X147623160Y-85017400D01*
X147623160Y-85309920D01*
X147680228Y-85596818D01*
X147792170Y-85867071D01*
X147954685Y-86110292D01*
X148161528Y-86317135D01*
X148348161Y-86441839D01*
X148348161Y-86469562D01*
X148197088Y-86570505D01*
X147990245Y-86777348D01*
X147827730Y-87020569D01*
X147715788Y-87290822D01*
X147658720Y-87577720D01*
X147658720Y-87870240D01*
X147715788Y-88157138D01*
X147827730Y-88427391D01*
X147990245Y-88670612D01*
X148197088Y-88877455D01*
X148440309Y-89039970D01*
X148529032Y-89076720D01*
X134609134Y-89076720D01*
X134639534Y-89060471D01*
X134711117Y-88816502D01*
X134045441Y-88150826D01*
X134074320Y-88035616D01*
X134084426Y-87830601D01*
X134890722Y-88636897D01*
X135134691Y-88565314D01*
X135255591Y-88309804D01*
X135324320Y-88035616D01*
X135338237Y-87753288D01*
X135296807Y-87473670D01*
X135201623Y-87207508D01*
X135134691Y-87082286D01*
X134890722Y-87010703D01*
X134085131Y-87816294D01*
X134088237Y-87753288D01*
X134049612Y-87492603D01*
X134711117Y-86831098D01*
X134639534Y-86587129D01*
X134384024Y-86466229D01*
X134109836Y-86397500D01*
X133827508Y-86383583D01*
X133547890Y-86425013D01*
X133281728Y-86520197D01*
X133265928Y-86528642D01*
X133134024Y-86466229D01*
X132859836Y-86397500D01*
X132577508Y-86383583D01*
X132297890Y-86425013D01*
X132031728Y-86520197D01*
X131906506Y-86587129D01*
X131834923Y-86831098D01*
X132500599Y-87496774D01*
X132471720Y-87611984D01*
X132461614Y-87816999D01*
X131655318Y-87010703D01*
X131411349Y-87082286D01*
X131290449Y-87337796D01*
X131221720Y-87611984D01*
X131207803Y-87894312D01*
X131249233Y-88173930D01*
X131344417Y-88440092D01*
X131411349Y-88565314D01*
X131655318Y-88636897D01*
X132460909Y-87831306D01*
X132457803Y-87894312D01*
X132496428Y-88154997D01*
X131834923Y-88816502D01*
X131906506Y-89060471D01*
X131940847Y-89076720D01*
X128533020Y-89076720D01*
X128533020Y-88958321D01*
X128562779Y-88938437D01*
X128762657Y-88738559D01*
X128919700Y-88503527D01*
X129027873Y-88242374D01*
X129083020Y-87965135D01*
X129083020Y-87682465D01*
X129027873Y-87405226D01*
X128919700Y-87144073D01*
X128762657Y-86909041D01*
X128562779Y-86709163D01*
X128327747Y-86552120D01*
X128066594Y-86443947D01*
X127789355Y-86388800D01*
X127506685Y-86388800D01*
X127229446Y-86443947D01*
X127023020Y-86529451D01*
X126816594Y-86443947D01*
X126539355Y-86388800D01*
X126256685Y-86388800D01*
X125979446Y-86443947D01*
X125718293Y-86552120D01*
X125483261Y-86709163D01*
X125283383Y-86909041D01*
X125126340Y-87144073D01*
X125018167Y-87405226D01*
X124963020Y-87682465D01*
X124963020Y-87965135D01*
X125018167Y-88242374D01*
X125126340Y-88503527D01*
X125283383Y-88738559D01*
X125350524Y-88805700D01*
X112195158Y-88805700D01*
X112137000Y-88747542D01*
X112137000Y-87028616D01*
X112198632Y-86987435D01*
X112330487Y-86855580D01*
X112352498Y-86928140D01*
X112411463Y-87038454D01*
X112490815Y-87135145D01*
X112587506Y-87214497D01*
X112697820Y-87273462D01*
X112817518Y-87309772D01*
X112942000Y-87322032D01*
X114642000Y-87322032D01*
X114766482Y-87309772D01*
X114886180Y-87273462D01*
X114996494Y-87214497D01*
X115093185Y-87135145D01*
X115172537Y-87038454D01*
X115231502Y-86928140D01*
X115267812Y-86808442D01*
X115280072Y-86683960D01*
X115280072Y-85804495D01*
X117015000Y-85804495D01*
X117015000Y-86195505D01*
X117091282Y-86579003D01*
X117240915Y-86940250D01*
X117458149Y-87265364D01*
X117734636Y-87541851D01*
X118059750Y-87759085D01*
X118420997Y-87908718D01*
X118804495Y-87985000D01*
X119195505Y-87985000D01*
X119579003Y-87908718D01*
X119940250Y-87759085D01*
X120265364Y-87541851D01*
X120541851Y-87265364D01*
X120759085Y-86940250D01*
X120908718Y-86579003D01*
X120985000Y-86195505D01*
X120985000Y-85804495D01*
X120908718Y-85420997D01*
X120759085Y-85059750D01*
X120541851Y-84734636D01*
X120265364Y-84458149D01*
X119940250Y-84240915D01*
X119579003Y-84091282D01*
X119195505Y-84015000D01*
X118804495Y-84015000D01*
X118420997Y-84091282D01*
X118059750Y-84240915D01*
X117734636Y-84458149D01*
X117458149Y-84734636D01*
X117240915Y-85059750D01*
X117091282Y-85420997D01*
X117015000Y-85804495D01*
X115280072Y-85804495D01*
X115280072Y-84983960D01*
X115267812Y-84859478D01*
X115231502Y-84739780D01*
X115172537Y-84629466D01*
X115093185Y-84532775D01*
X114996494Y-84453423D01*
X114886180Y-84394458D01*
X114766482Y-84358148D01*
X114642000Y-84345888D01*
X112942000Y-84345888D01*
X112817518Y-84358148D01*
X112697820Y-84394458D01*
X112587506Y-84453423D01*
X112490815Y-84532775D01*
X112411463Y-84629466D01*
X112352498Y-84739780D01*
X112330487Y-84812340D01*
X112198632Y-84680485D01*
X112152240Y-84649487D01*
X112152240Y-83966445D01*
X122355200Y-83966445D01*
X122355200Y-84249115D01*
X122410347Y-84526354D01*
X122518520Y-84787507D01*
X122675563Y-85022539D01*
X122875441Y-85222417D01*
X123110473Y-85379460D01*
X123371626Y-85487633D01*
X123648865Y-85542780D01*
X123931535Y-85542780D01*
X124208774Y-85487633D01*
X124469927Y-85379460D01*
X124704959Y-85222417D01*
X124904837Y-85022539D01*
X125061880Y-84787507D01*
X125170053Y-84526354D01*
X125225200Y-84249115D01*
X125225200Y-83966445D01*
X132515200Y-83966445D01*
X132515200Y-84249115D01*
X132570347Y-84526354D01*
X132678520Y-84787507D01*
X132835563Y-85022539D01*
X133035441Y-85222417D01*
X133270473Y-85379460D01*
X133531626Y-85487633D01*
X133808865Y-85542780D01*
X134091535Y-85542780D01*
X134368774Y-85487633D01*
X134629927Y-85379460D01*
X134864959Y-85222417D01*
X135064837Y-85022539D01*
X135221880Y-84787507D01*
X135330053Y-84526354D01*
X135385200Y-84249115D01*
X135385200Y-83966445D01*
X135330053Y-83689206D01*
X135221880Y-83428053D01*
X135064837Y-83193021D01*
X134864959Y-82993143D01*
X134629927Y-82836100D01*
X134368774Y-82727927D01*
X134091535Y-82672780D01*
X133808865Y-82672780D01*
X133531626Y-82727927D01*
X133270473Y-82836100D01*
X133035441Y-82993143D01*
X132835563Y-83193021D01*
X132678520Y-83428053D01*
X132570347Y-83689206D01*
X132515200Y-83966445D01*
X125225200Y-83966445D01*
X125218217Y-83931341D01*
X126385249Y-82764310D01*
X126419017Y-82736597D01*
X126452652Y-82695614D01*
X126529610Y-82601840D01*
X126570074Y-82526137D01*
X126611789Y-82448093D01*
X126662395Y-82281270D01*
X126675200Y-82151257D01*
X126675200Y-82151247D01*
X126679481Y-82107781D01*
X126675200Y-82064315D01*
X126675200Y-74111781D01*
X126704959Y-74091897D01*
X126904837Y-73892019D01*
X127061880Y-73656987D01*
X127170053Y-73395834D01*
X127225200Y-73118595D01*
X127225200Y-72835925D01*
X127170053Y-72558686D01*
X127061880Y-72297533D01*
X126904837Y-72062501D01*
X126704959Y-71862623D01*
X126690440Y-71852922D01*
X126690440Y-71366890D01*
X126914105Y-71411380D01*
X127196775Y-71411380D01*
X127474014Y-71356233D01*
X127735167Y-71248060D01*
X127970199Y-71091017D01*
X128170077Y-70891139D01*
X128327120Y-70656107D01*
X128435293Y-70394954D01*
X128490440Y-70117715D01*
X128490440Y-69835045D01*
X128435293Y-69557806D01*
X128327120Y-69296653D01*
X128170077Y-69061621D01*
X127970199Y-68861743D01*
X127735167Y-68704700D01*
X127474014Y-68596527D01*
X127196775Y-68541380D01*
X126914105Y-68541380D01*
X126675200Y-68588902D01*
X126675200Y-67805185D01*
X126764682Y-67796372D01*
X126884380Y-67760062D01*
X126994694Y-67701097D01*
X127091385Y-67621745D01*
X127170737Y-67525054D01*
X127229702Y-67414740D01*
X127254166Y-67334094D01*
X127329931Y-67418148D01*
X127563280Y-67592201D01*
X127826101Y-67717385D01*
X127973310Y-67762036D01*
X128203200Y-67640715D01*
X128203200Y-66447560D01*
X128183200Y-66447560D01*
X128183200Y-66193560D01*
X128203200Y-66193560D01*
X128203200Y-65000405D01*
X127973310Y-64879084D01*
X127826101Y-64923735D01*
X127563280Y-65048919D01*
X127329931Y-65222972D01*
X127254166Y-65307026D01*
X127229702Y-65226380D01*
X127170737Y-65116066D01*
X127091385Y-65019375D01*
X126994694Y-64940023D01*
X126884380Y-64881058D01*
X126764682Y-64844748D01*
X126640200Y-64832488D01*
X124940200Y-64832488D01*
X124815718Y-64844748D01*
X124696020Y-64881058D01*
X124585706Y-64940023D01*
X124489015Y-65019375D01*
X124409663Y-65116066D01*
X124350698Y-65226380D01*
X124314388Y-65346078D01*
X124302128Y-65470560D01*
X124302128Y-67170560D01*
X124314388Y-67295042D01*
X124350698Y-67414740D01*
X124409663Y-67525054D01*
X124489015Y-67621745D01*
X124585706Y-67701097D01*
X124696020Y-67760062D01*
X124815718Y-67796372D01*
X124905200Y-67805185D01*
X124905201Y-68852041D01*
X124890681Y-68861743D01*
X124690803Y-69061621D01*
X124533760Y-69296653D01*
X124425587Y-69557806D01*
X124370440Y-69835045D01*
X124370440Y-70117715D01*
X124425587Y-70394954D01*
X124533760Y-70656107D01*
X124690803Y-70891139D01*
X124890681Y-71091017D01*
X124920440Y-71110902D01*
X124920441Y-71832555D01*
X124875441Y-71862623D01*
X124675563Y-72062501D01*
X124518520Y-72297533D01*
X124410347Y-72558686D01*
X124355200Y-72835925D01*
X124355200Y-73118595D01*
X124410347Y-73395834D01*
X124518520Y-73656987D01*
X124675563Y-73892019D01*
X124875441Y-74091897D01*
X124905200Y-74111781D01*
X124905201Y-81741200D01*
X123966639Y-82679763D01*
X123931535Y-82672780D01*
X123648865Y-82672780D01*
X123371626Y-82727927D01*
X123110473Y-82836100D01*
X122875441Y-82993143D01*
X122675563Y-83193021D01*
X122518520Y-83428053D01*
X122410347Y-83689206D01*
X122355200Y-83966445D01*
X112152240Y-83966445D01*
X112152240Y-82546021D01*
X112181999Y-82526137D01*
X112381877Y-82326259D01*
X112538920Y-82091227D01*
X112647093Y-81830074D01*
X112702240Y-81552835D01*
X112702240Y-81270165D01*
X112695257Y-81235061D01*
X117933412Y-75996907D01*
X121871929Y-72058390D01*
X121905697Y-72030677D01*
X121938333Y-71990911D01*
X122016290Y-71895920D01*
X122016291Y-71895919D01*
X122098469Y-71742173D01*
X122149075Y-71575350D01*
X122161880Y-71445337D01*
X122161880Y-71445327D01*
X122166161Y-71401861D01*
X122161880Y-71358395D01*
X122161880Y-67300787D01*
X122230704Y-67244304D01*
X122330166Y-67123110D01*
X122404073Y-66984839D01*
X122449585Y-66834808D01*
X122464952Y-66678780D01*
X122464952Y-65302180D01*
X122449585Y-65146152D01*
X122404073Y-64996121D01*
X122330166Y-64857850D01*
X122230704Y-64736656D01*
X122109510Y-64637194D01*
X121971239Y-64563287D01*
X121821208Y-64517775D01*
X121665180Y-64502408D01*
X120888580Y-64502408D01*
X120732552Y-64517775D01*
X120582521Y-64563287D01*
X120444250Y-64637194D01*
X120395293Y-64677372D01*
X120232554Y-64590386D01*
X120009180Y-64522627D01*
X119776880Y-64499747D01*
X119544581Y-64522627D01*
X119321207Y-64590386D01*
X119115345Y-64700422D01*
X119026880Y-64773023D01*
X118938416Y-64700422D01*
X118732554Y-64590386D01*
X118509180Y-64522627D01*
X118276880Y-64499747D01*
X118044581Y-64522627D01*
X117821207Y-64590386D01*
X117615345Y-64700422D01*
X117531548Y-64769193D01*
X117524999Y-64762755D01*
X117329634Y-64634630D01*
X117113027Y-64547081D01*
X117086624Y-64546677D01*
X116903880Y-64672119D01*
X116903880Y-65863480D01*
X116923880Y-65863480D01*
X116923880Y-66117480D01*
X116903880Y-66117480D01*
X116903880Y-67308841D01*
X117086624Y-67434283D01*
X117113027Y-67433879D01*
X117329634Y-67346330D01*
X117524999Y-67218205D01*
X117531548Y-67211768D01*
X117615344Y-67280538D01*
X117821206Y-67390574D01*
X118044580Y-67458333D01*
X118276880Y-67481213D01*
X118509179Y-67458333D01*
X118732553Y-67390574D01*
X118938415Y-67280538D01*
X119016880Y-67216143D01*
X119016880Y-67535520D01*
X112359093Y-67535520D01*
X112421734Y-67502037D01*
X112518425Y-67422685D01*
X112597777Y-67325994D01*
X112656742Y-67215680D01*
X112693052Y-67095982D01*
X112705312Y-66971500D01*
X112702240Y-66457250D01*
X112543490Y-66298500D01*
X111394240Y-66298500D01*
X111394240Y-66318500D01*
X111140240Y-66318500D01*
X111140240Y-66298500D01*
X111120240Y-66298500D01*
X111120240Y-66117480D01*
X114091880Y-66117480D01*
X114091880Y-66417480D01*
X114139426Y-66646222D01*
X114230684Y-66861293D01*
X114362146Y-67054428D01*
X114528761Y-67218205D01*
X114724126Y-67346330D01*
X114940733Y-67433879D01*
X114967136Y-67434283D01*
X115149880Y-67308841D01*
X115149880Y-66117480D01*
X115403880Y-66117480D01*
X115403880Y-67308841D01*
X115586624Y-67434283D01*
X115613027Y-67433879D01*
X115829634Y-67346330D01*
X116024999Y-67218205D01*
X116026880Y-67216356D01*
X116028761Y-67218205D01*
X116224126Y-67346330D01*
X116440733Y-67433879D01*
X116467136Y-67434283D01*
X116649880Y-67308841D01*
X116649880Y-66117480D01*
X115403880Y-66117480D01*
X115149880Y-66117480D01*
X114091880Y-66117480D01*
X111120240Y-66117480D01*
X111120240Y-66044500D01*
X111140240Y-66044500D01*
X111140240Y-64895250D01*
X111394240Y-64895250D01*
X111394240Y-66044500D01*
X112543490Y-66044500D01*
X112702240Y-65885750D01*
X112704165Y-65563480D01*
X114091880Y-65563480D01*
X114091880Y-65863480D01*
X115149880Y-65863480D01*
X115149880Y-64672119D01*
X115403880Y-64672119D01*
X115403880Y-65863480D01*
X116649880Y-65863480D01*
X116649880Y-64672119D01*
X116467136Y-64546677D01*
X116440733Y-64547081D01*
X116224126Y-64634630D01*
X116028761Y-64762755D01*
X116026880Y-64764604D01*
X116024999Y-64762755D01*
X115829634Y-64634630D01*
X115613027Y-64547081D01*
X115586624Y-64546677D01*
X115403880Y-64672119D01*
X115149880Y-64672119D01*
X114967136Y-64546677D01*
X114940733Y-64547081D01*
X114724126Y-64634630D01*
X114528761Y-64762755D01*
X114362146Y-64926532D01*
X114230684Y-65119667D01*
X114139426Y-65334738D01*
X114091880Y-65563480D01*
X112704165Y-65563480D01*
X112705312Y-65371500D01*
X112693052Y-65247018D01*
X112656742Y-65127320D01*
X112597777Y-65017006D01*
X112518425Y-64920315D01*
X112421734Y-64840963D01*
X112311420Y-64781998D01*
X112191722Y-64745688D01*
X112067240Y-64733428D01*
X111552990Y-64736500D01*
X111394240Y-64895250D01*
X111140240Y-64895250D01*
X110981490Y-64736500D01*
X110467240Y-64733428D01*
X110342758Y-64745688D01*
X110223060Y-64781998D01*
X110112746Y-64840963D01*
X110016055Y-64920315D01*
X109936703Y-65017006D01*
X109877738Y-65127320D01*
X109841428Y-65247018D01*
X109840597Y-65255461D01*
X109641999Y-65056863D01*
X109406967Y-64899820D01*
X109145814Y-64791647D01*
X108868575Y-64736500D01*
X108585905Y-64736500D01*
X108308666Y-64791647D01*
X108047513Y-64899820D01*
X107812481Y-65056863D01*
X107612603Y-65256741D01*
X107457240Y-65489259D01*
X107301877Y-65256741D01*
X107101999Y-65056863D01*
X106866967Y-64899820D01*
X106605814Y-64791647D01*
X106328575Y-64736500D01*
X106045905Y-64736500D01*
X105768666Y-64791647D01*
X105507513Y-64899820D01*
X105272481Y-65056863D01*
X105072603Y-65256741D01*
X104917240Y-65489259D01*
X104761877Y-65256741D01*
X104561999Y-65056863D01*
X104326967Y-64899820D01*
X104065814Y-64791647D01*
X103788575Y-64736500D01*
X103505905Y-64736500D01*
X103228666Y-64791647D01*
X102967513Y-64899820D01*
X102732481Y-65056863D01*
X102532603Y-65256741D01*
X102377240Y-65489259D01*
X102221877Y-65256741D01*
X102021999Y-65056863D01*
X101786967Y-64899820D01*
X101525814Y-64791647D01*
X101248575Y-64736500D01*
X100965905Y-64736500D01*
X100688666Y-64791647D01*
X100427513Y-64899820D01*
X100192481Y-65056863D01*
X99992603Y-65256741D01*
X99837240Y-65489259D01*
X99681877Y-65256741D01*
X99481999Y-65056863D01*
X99246967Y-64899820D01*
X98985814Y-64791647D01*
X98708575Y-64736500D01*
X98425905Y-64736500D01*
X98148666Y-64791647D01*
X97887513Y-64899820D01*
X97652481Y-65056863D01*
X97452603Y-65256741D01*
X97297240Y-65489259D01*
X97141877Y-65256741D01*
X96941999Y-65056863D01*
X96706967Y-64899820D01*
X96445814Y-64791647D01*
X96168575Y-64736500D01*
X95885905Y-64736500D01*
X95608666Y-64791647D01*
X95347513Y-64899820D01*
X95112481Y-65056863D01*
X94912603Y-65256741D01*
X94757240Y-65489259D01*
X94601877Y-65256741D01*
X94401999Y-65056863D01*
X94166967Y-64899820D01*
X93905814Y-64791647D01*
X93628575Y-64736500D01*
X93345905Y-64736500D01*
X93068666Y-64791647D01*
X92807513Y-64899820D01*
X92572481Y-65056863D01*
X92372603Y-65256741D01*
X92217240Y-65489259D01*
X92061877Y-65256741D01*
X91861999Y-65056863D01*
X91626967Y-64899820D01*
X91365814Y-64791647D01*
X91088575Y-64736500D01*
X90805905Y-64736500D01*
X90528666Y-64791647D01*
X90267513Y-64899820D01*
X90032481Y-65056863D01*
X89832603Y-65256741D01*
X89677240Y-65489259D01*
X89521877Y-65256741D01*
X89321999Y-65056863D01*
X89086967Y-64899820D01*
X88825814Y-64791647D01*
X88548575Y-64736500D01*
X88265905Y-64736500D01*
X87988666Y-64791647D01*
X87727513Y-64899820D01*
X87492481Y-65056863D01*
X87292603Y-65256741D01*
X87137240Y-65489259D01*
X86981877Y-65256741D01*
X86781999Y-65056863D01*
X86546967Y-64899820D01*
X86285814Y-64791647D01*
X86008575Y-64736500D01*
X85725905Y-64736500D01*
X85448666Y-64791647D01*
X85187513Y-64899820D01*
X84952481Y-65056863D01*
X84752603Y-65256741D01*
X84597240Y-65489259D01*
X84441877Y-65256741D01*
X84241999Y-65056863D01*
X84006967Y-64899820D01*
X83745814Y-64791647D01*
X83468575Y-64736500D01*
X83185905Y-64736500D01*
X82908666Y-64791647D01*
X82647513Y-64899820D01*
X82412481Y-65056863D01*
X82212603Y-65256741D01*
X82057240Y-65489259D01*
X81901877Y-65256741D01*
X81701999Y-65056863D01*
X81466967Y-64899820D01*
X81205814Y-64791647D01*
X80928575Y-64736500D01*
X80645905Y-64736500D01*
X80368666Y-64791647D01*
X80107513Y-64899820D01*
X79872481Y-65056863D01*
X79672603Y-65256741D01*
X79517240Y-65489259D01*
X79361877Y-65256741D01*
X79161999Y-65056863D01*
X78926967Y-64899820D01*
X78665814Y-64791647D01*
X78388575Y-64736500D01*
X78105905Y-64736500D01*
X77828666Y-64791647D01*
X77567513Y-64899820D01*
X77332481Y-65056863D01*
X77132603Y-65256741D01*
X76975560Y-65491773D01*
X76867387Y-65752926D01*
X76812240Y-66030165D01*
X76812240Y-66312835D01*
X76867387Y-66590074D01*
X76975560Y-66851227D01*
X77132603Y-67086259D01*
X77332481Y-67286137D01*
X77564999Y-67441500D01*
X77332481Y-67596863D01*
X77132603Y-67796741D01*
X76975560Y-68031773D01*
X76867387Y-68292926D01*
X76813110Y-68565792D01*
X76003674Y-67756356D01*
X75975957Y-67722583D01*
X75841199Y-67611989D01*
X75687453Y-67529811D01*
X75520630Y-67479205D01*
X75390617Y-67466400D01*
X75390609Y-67466400D01*
X75347140Y-67462119D01*
X75303671Y-67466400D01*
X72666001Y-67466400D01*
X72646117Y-67436641D01*
X72446239Y-67236763D01*
X72211207Y-67079720D01*
X71950054Y-66971547D01*
X71672815Y-66916400D01*
X71390145Y-66916400D01*
X71112906Y-66971547D01*
X70906480Y-67057051D01*
X70700054Y-66971547D01*
X70422815Y-66916400D01*
X70140145Y-66916400D01*
X69862906Y-66971547D01*
X69601753Y-67079720D01*
X69366721Y-67236763D01*
X69166843Y-67436641D01*
X69009800Y-67671673D01*
X68901627Y-67932826D01*
X68846480Y-68210065D01*
X68846480Y-68492735D01*
X68901627Y-68769974D01*
X69009800Y-69031127D01*
X69166843Y-69266159D01*
X69366721Y-69466037D01*
X69601753Y-69623080D01*
X69862906Y-69731253D01*
X70140145Y-69786400D01*
X70422815Y-69786400D01*
X70700054Y-69731253D01*
X70906480Y-69645749D01*
X71112906Y-69731253D01*
X71390145Y-69786400D01*
X71672815Y-69786400D01*
X71950054Y-69731253D01*
X72211207Y-69623080D01*
X72446239Y-69466037D01*
X72646117Y-69266159D01*
X72666001Y-69236400D01*
X74980562Y-69236400D01*
X76819223Y-71075061D01*
X76812240Y-71110165D01*
X76812240Y-71392835D01*
X76867387Y-71670074D01*
X76975560Y-71931227D01*
X77132603Y-72166259D01*
X77332481Y-72366137D01*
X77566368Y-72522415D01*
X77505726Y-72554829D01*
X77434143Y-72798798D01*
X78247240Y-73611895D01*
X79060337Y-72798798D01*
X78988754Y-72554829D01*
X78924248Y-72524306D01*
X78926967Y-72523180D01*
X79161999Y-72366137D01*
X79361877Y-72166259D01*
X79381761Y-72136500D01*
X94016166Y-72136500D01*
X94064364Y-72168705D01*
X94252722Y-72246726D01*
X94452681Y-72286500D01*
X94656559Y-72286500D01*
X94856518Y-72246726D01*
X95044876Y-72168705D01*
X95214394Y-72055437D01*
X95358557Y-71911274D01*
X95471825Y-71741756D01*
X95549846Y-71553398D01*
X95589620Y-71353439D01*
X95589620Y-71149561D01*
X95549846Y-70949602D01*
X95471825Y-70761244D01*
X95358557Y-70591726D01*
X95214394Y-70447563D01*
X95044876Y-70334295D01*
X94856518Y-70256274D01*
X94656559Y-70216500D01*
X94452681Y-70216500D01*
X94252722Y-70256274D01*
X94064364Y-70334295D01*
X94016166Y-70366500D01*
X79381761Y-70366500D01*
X79361877Y-70336741D01*
X79161999Y-70136863D01*
X78929481Y-69981500D01*
X79161999Y-69826137D01*
X79361877Y-69626259D01*
X79518920Y-69391227D01*
X79627093Y-69130074D01*
X79682240Y-68852835D01*
X79682240Y-68570165D01*
X79627093Y-68292926D01*
X79518920Y-68031773D01*
X79361877Y-67796741D01*
X79161999Y-67596863D01*
X78929481Y-67441500D01*
X79161999Y-67286137D01*
X79361877Y-67086259D01*
X79517240Y-66853741D01*
X79672603Y-67086259D01*
X79872481Y-67286137D01*
X80107513Y-67443180D01*
X80368666Y-67551353D01*
X80645905Y-67606500D01*
X80928575Y-67606500D01*
X81205814Y-67551353D01*
X81466967Y-67443180D01*
X81701999Y-67286137D01*
X81901877Y-67086259D01*
X82057240Y-66853741D01*
X82212603Y-67086259D01*
X82412481Y-67286137D01*
X82647513Y-67443180D01*
X82908666Y-67551353D01*
X83185905Y-67606500D01*
X83468575Y-67606500D01*
X83745814Y-67551353D01*
X84006967Y-67443180D01*
X84241999Y-67286137D01*
X84441877Y-67086259D01*
X84597240Y-66853741D01*
X84752603Y-67086259D01*
X84952481Y-67286137D01*
X85187513Y-67443180D01*
X85448666Y-67551353D01*
X85725905Y-67606500D01*
X86008575Y-67606500D01*
X86285814Y-67551353D01*
X86546967Y-67443180D01*
X86781999Y-67286137D01*
X86981877Y-67086259D01*
X87137240Y-66853741D01*
X87292603Y-67086259D01*
X87492481Y-67286137D01*
X87727513Y-67443180D01*
X87988666Y-67551353D01*
X88265905Y-67606500D01*
X88548575Y-67606500D01*
X88825814Y-67551353D01*
X89086967Y-67443180D01*
X89321999Y-67286137D01*
X89521877Y-67086259D01*
X89677240Y-66853741D01*
X89832603Y-67086259D01*
X90032481Y-67286137D01*
X90267513Y-67443180D01*
X90528666Y-67551353D01*
X90805905Y-67606500D01*
X91088575Y-67606500D01*
X91365814Y-67551353D01*
X91626967Y-67443180D01*
X91861999Y-67286137D01*
X92061877Y-67086259D01*
X92217240Y-66853741D01*
X92372603Y-67086259D01*
X92572481Y-67286137D01*
X92807513Y-67443180D01*
X93068666Y-67551353D01*
X93345905Y-67606500D01*
X93628575Y-67606500D01*
X93905814Y-67551353D01*
X94166967Y-67443180D01*
X94401999Y-67286137D01*
X94601877Y-67086259D01*
X94757240Y-66853741D01*
X94912603Y-67086259D01*
X95112481Y-67286137D01*
X95347513Y-67443180D01*
X95608666Y-67551353D01*
X95885905Y-67606500D01*
X96168575Y-67606500D01*
X96445814Y-67551353D01*
X96706967Y-67443180D01*
X96941999Y-67286137D01*
X97141877Y-67086259D01*
X97297240Y-66853741D01*
X97452603Y-67086259D01*
X97652481Y-67286137D01*
X97887513Y-67443180D01*
X98148666Y-67551353D01*
X98425905Y-67606500D01*
X98708575Y-67606500D01*
X98985814Y-67551353D01*
X99246967Y-67443180D01*
X99481999Y-67286137D01*
X99681877Y-67086259D01*
X99837240Y-66853741D01*
X99992603Y-67086259D01*
X100192481Y-67286137D01*
X100427513Y-67443180D01*
X100688666Y-67551353D01*
X100798904Y-67573281D01*
X100743873Y-67589974D01*
X100611843Y-67660546D01*
X100588073Y-67680054D01*
X100496119Y-67755519D01*
X100472321Y-67784517D01*
X90436238Y-77820601D01*
X90407240Y-77844399D01*
X90383442Y-77873397D01*
X90383441Y-77873398D01*
X90312266Y-77960124D01*
X90241694Y-78092154D01*
X90219568Y-78165096D01*
X90202327Y-78221936D01*
X90198238Y-78235415D01*
X90183564Y-78384400D01*
X90187241Y-78421732D01*
X90187240Y-80193456D01*
X90032481Y-80296863D01*
X89832603Y-80496741D01*
X89677240Y-80729259D01*
X89521877Y-80496741D01*
X89321999Y-80296863D01*
X89086967Y-80139820D01*
X88825814Y-80031647D01*
X88548575Y-79976500D01*
X88265905Y-79976500D01*
X87988666Y-80031647D01*
X87727513Y-80139820D01*
X87492481Y-80296863D01*
X87292603Y-80496741D01*
X87137240Y-80729259D01*
X86981877Y-80496741D01*
X86781999Y-80296863D01*
X86546967Y-80139820D01*
X86285814Y-80031647D01*
X86008575Y-79976500D01*
X85725905Y-79976500D01*
X85448666Y-80031647D01*
X85187513Y-80139820D01*
X84952481Y-80296863D01*
X84752603Y-80496741D01*
X84597240Y-80729259D01*
X84441877Y-80496741D01*
X84241999Y-80296863D01*
X84006967Y-80139820D01*
X83745814Y-80031647D01*
X83468575Y-79976500D01*
X83185905Y-79976500D01*
X82908666Y-80031647D01*
X82647513Y-80139820D01*
X82412481Y-80296863D01*
X82212603Y-80496741D01*
X82057240Y-80729259D01*
X81901877Y-80496741D01*
X81701999Y-80296863D01*
X81466967Y-80139820D01*
X81205814Y-80031647D01*
X80928575Y-79976500D01*
X80645905Y-79976500D01*
X80368666Y-80031647D01*
X80107513Y-80139820D01*
X79872481Y-80296863D01*
X79672603Y-80496741D01*
X79517240Y-80729259D01*
X79361877Y-80496741D01*
X79161999Y-80296863D01*
X78929481Y-80141500D01*
X79161999Y-79986137D01*
X79361877Y-79786259D01*
X79518920Y-79551227D01*
X79627093Y-79290074D01*
X79682240Y-79012835D01*
X79682240Y-78730165D01*
X79627093Y-78452926D01*
X79518920Y-78191773D01*
X79361877Y-77956741D01*
X79161999Y-77756863D01*
X78929481Y-77601500D01*
X79161999Y-77446137D01*
X79361877Y-77246259D01*
X79518920Y-77011227D01*
X79627093Y-76750074D01*
X79682240Y-76472835D01*
X79682240Y-76190165D01*
X79627093Y-75912926D01*
X79518920Y-75651773D01*
X79361877Y-75416741D01*
X79161999Y-75216863D01*
X78928112Y-75060585D01*
X78988754Y-75028171D01*
X79060337Y-74784202D01*
X78247240Y-73971105D01*
X77434143Y-74784202D01*
X77505726Y-75028171D01*
X77570232Y-75058694D01*
X77567513Y-75059820D01*
X77332481Y-75216863D01*
X77132603Y-75416741D01*
X76975560Y-75651773D01*
X76867387Y-75912926D01*
X76812240Y-76190165D01*
X76812240Y-76472835D01*
X76867387Y-76750074D01*
X76975560Y-77011227D01*
X77132603Y-77246259D01*
X77332481Y-77446137D01*
X77564999Y-77601500D01*
X77332481Y-77756863D01*
X77132603Y-77956741D01*
X76975560Y-78191773D01*
X76867387Y-78452926D01*
X76812240Y-78730165D01*
X76812240Y-79012835D01*
X76867387Y-79290074D01*
X76975560Y-79551227D01*
X77132603Y-79786259D01*
X77332481Y-79986137D01*
X77564999Y-80141500D01*
X77332481Y-80296863D01*
X77132603Y-80496741D01*
X76975560Y-80731773D01*
X76867387Y-80992926D01*
X76812240Y-81270165D01*
X76812240Y-81552835D01*
X76867387Y-81830074D01*
X76975560Y-82091227D01*
X77132603Y-82326259D01*
X77332481Y-82526137D01*
X77479630Y-82624459D01*
X65268380Y-82613634D01*
X65268380Y-78090300D01*
X66387422Y-78090300D01*
X66512125Y-78276932D01*
X66718968Y-78483775D01*
X66893360Y-78600300D01*
X66718968Y-78716825D01*
X66512125Y-78923668D01*
X66349610Y-79166889D01*
X66237668Y-79437142D01*
X66180600Y-79724040D01*
X66180600Y-80016560D01*
X66237668Y-80303458D01*
X66349610Y-80573711D01*
X66512125Y-80816932D01*
X66718968Y-81023775D01*
X66962189Y-81186290D01*
X67232442Y-81298232D01*
X67519340Y-81355300D01*
X67811860Y-81355300D01*
X68098758Y-81298232D01*
X68369011Y-81186290D01*
X68612232Y-81023775D01*
X68819075Y-80816932D01*
X68935600Y-80642540D01*
X69052125Y-80816932D01*
X69258968Y-81023775D01*
X69502189Y-81186290D01*
X69772442Y-81298232D01*
X70059340Y-81355300D01*
X70351860Y-81355300D01*
X70638758Y-81298232D01*
X70909011Y-81186290D01*
X71152232Y-81023775D01*
X71359075Y-80816932D01*
X71521590Y-80573711D01*
X71633532Y-80303458D01*
X71690600Y-80016560D01*
X71690600Y-79724040D01*
X71633532Y-79437142D01*
X71521590Y-79166889D01*
X71359075Y-78923668D01*
X71152232Y-78716825D01*
X70977840Y-78600300D01*
X71152232Y-78483775D01*
X71359075Y-78276932D01*
X71521590Y-78033711D01*
X71633532Y-77763458D01*
X71690600Y-77476560D01*
X71690600Y-77184040D01*
X71633532Y-76897142D01*
X71521590Y-76626889D01*
X71359075Y-76383668D01*
X71152232Y-76176825D01*
X70970066Y-76055105D01*
X71086955Y-75985478D01*
X71303188Y-75790569D01*
X71477241Y-75557220D01*
X71602425Y-75294399D01*
X71647076Y-75147190D01*
X71525755Y-74917300D01*
X70332600Y-74917300D01*
X70332600Y-74937300D01*
X70078600Y-74937300D01*
X70078600Y-74917300D01*
X67792600Y-74917300D01*
X67792600Y-74937300D01*
X67538600Y-74937300D01*
X67538600Y-74917300D01*
X66339350Y-74917300D01*
X66180600Y-75076050D01*
X66177528Y-75640300D01*
X66189788Y-75764782D01*
X66226098Y-75884480D01*
X66285063Y-75994794D01*
X66364415Y-76091485D01*
X66461106Y-76170837D01*
X66571420Y-76229802D01*
X66643980Y-76251813D01*
X66512125Y-76383668D01*
X66387422Y-76570300D01*
X64616823Y-76570300D01*
X64579500Y-76566624D01*
X64542178Y-76570300D01*
X64542167Y-76570300D01*
X64430514Y-76581297D01*
X64287253Y-76624754D01*
X64155224Y-76695326D01*
X64039499Y-76790299D01*
X64015696Y-76819303D01*
X63997382Y-76837617D01*
X63968379Y-76861419D01*
X63873406Y-76977144D01*
X63802834Y-77109173D01*
X63759377Y-77252434D01*
X63748380Y-77364087D01*
X63748380Y-77364098D01*
X63744704Y-77401420D01*
X63748380Y-77438742D01*
X63748380Y-77760328D01*
X63748381Y-83335287D01*
X63744704Y-83372284D01*
X63748381Y-83409958D01*
X63748381Y-83410293D01*
X63751981Y-83446841D01*
X63759246Y-83521281D01*
X63759345Y-83521607D01*
X63759378Y-83521946D01*
X63781007Y-83593248D01*
X63802576Y-83664581D01*
X63802736Y-83664881D01*
X63802835Y-83665207D01*
X63838056Y-83731100D01*
X63873031Y-83796672D01*
X63873245Y-83796934D01*
X63873407Y-83797236D01*
X63920732Y-83854901D01*
X63967901Y-83912482D01*
X63968165Y-83912699D01*
X63968380Y-83912961D01*
X64026010Y-83960257D01*
X64083542Y-84007557D01*
X64083840Y-84007717D01*
X64084105Y-84007934D01*
X64150163Y-84043243D01*
X64215508Y-84078246D01*
X64215832Y-84078345D01*
X64216134Y-84078506D01*
X64287993Y-84100304D01*
X64358731Y-84121830D01*
X64359066Y-84121863D01*
X64359395Y-84121963D01*
X64434255Y-84129336D01*
X64470374Y-84132926D01*
X64470705Y-84132926D01*
X64508380Y-84136637D01*
X64545383Y-84132992D01*
X95989563Y-84160866D01*
X96027240Y-84164577D01*
X96102338Y-84157180D01*
X96175561Y-84150034D01*
X96175883Y-84149937D01*
X96176225Y-84149903D01*
X96248247Y-84128056D01*
X96318861Y-84106704D01*
X96319158Y-84106545D01*
X96319486Y-84106446D01*
X96385790Y-84071005D01*
X96450952Y-84036249D01*
X96451212Y-84036036D01*
X96451515Y-84035874D01*
X96509858Y-83987993D01*
X96566761Y-83941379D01*
X96566974Y-83941121D01*
X96567241Y-83940901D01*
X96615265Y-83882383D01*
X96661837Y-83825738D01*
X96661995Y-83825443D01*
X96662214Y-83825176D01*
X96697774Y-83758649D01*
X96732526Y-83693772D01*
X96732624Y-83693450D01*
X96732786Y-83693147D01*
X96754679Y-83620973D01*
X96776110Y-83550549D01*
X96776143Y-83550215D01*
X96776243Y-83549886D01*
X96783632Y-83474864D01*
X96790916Y-83401576D01*
X96787240Y-83363912D01*
X96787240Y-82629543D01*
X96941999Y-82526137D01*
X97141877Y-82326259D01*
X97297240Y-82093741D01*
X97452603Y-82326259D01*
X97652481Y-82526137D01*
X97887513Y-82683180D01*
X98148666Y-82791353D01*
X98425905Y-82846500D01*
X98708575Y-82846500D01*
X98985814Y-82791353D01*
X99246967Y-82683180D01*
X99481999Y-82526137D01*
X99681877Y-82326259D01*
X99837240Y-82093741D01*
X99992603Y-82326259D01*
X100192481Y-82526137D01*
X100427513Y-82683180D01*
X100688666Y-82791353D01*
X100965905Y-82846500D01*
X101248575Y-82846500D01*
X101525814Y-82791353D01*
X101786967Y-82683180D01*
X102021999Y-82526137D01*
X102221877Y-82326259D01*
X102377240Y-82093741D01*
X102532603Y-82326259D01*
X102732481Y-82526137D01*
X102967513Y-82683180D01*
X103228666Y-82791353D01*
X103505905Y-82846500D01*
X103788575Y-82846500D01*
X104065814Y-82791353D01*
X104326967Y-82683180D01*
X104561999Y-82526137D01*
X104761877Y-82326259D01*
X104917240Y-82093741D01*
X105072603Y-82326259D01*
X105272481Y-82526137D01*
X105507513Y-82683180D01*
X105768666Y-82791353D01*
X106045905Y-82846500D01*
X106328575Y-82846500D01*
X106605814Y-82791353D01*
X106866967Y-82683180D01*
X107101999Y-82526137D01*
X107223934Y-82404202D01*
X107914143Y-82404202D01*
X107985726Y-82648171D01*
X108241236Y-82769071D01*
X108515424Y-82837800D01*
X108797752Y-82851717D01*
X109077370Y-82810287D01*
X109343532Y-82715103D01*
X109468754Y-82648171D01*
X109540337Y-82404202D01*
X108727240Y-81591105D01*
X107914143Y-82404202D01*
X107223934Y-82404202D01*
X107301877Y-82326259D01*
X107458155Y-82092372D01*
X107490569Y-82153014D01*
X107734538Y-82224597D01*
X108547635Y-81411500D01*
X107734538Y-80598403D01*
X107490569Y-80669986D01*
X107460046Y-80734492D01*
X107458920Y-80731773D01*
X107301877Y-80496741D01*
X107101999Y-80296863D01*
X107072240Y-80276979D01*
X107072240Y-78730165D01*
X107292240Y-78730165D01*
X107292240Y-79012835D01*
X107347387Y-79290074D01*
X107455560Y-79551227D01*
X107612603Y-79786259D01*
X107812481Y-79986137D01*
X108046368Y-80142415D01*
X107985726Y-80174829D01*
X107914143Y-80418798D01*
X108727240Y-81231895D01*
X109540337Y-80418798D01*
X109468754Y-80174829D01*
X109404248Y-80144306D01*
X109406967Y-80143180D01*
X109641999Y-79986137D01*
X109841877Y-79786259D01*
X109998920Y-79551227D01*
X110107093Y-79290074D01*
X110162240Y-79012835D01*
X110162240Y-78730165D01*
X110107093Y-78452926D01*
X109998920Y-78191773D01*
X109841877Y-77956741D01*
X109641999Y-77756863D01*
X109406967Y-77599820D01*
X109145814Y-77491647D01*
X108868575Y-77436500D01*
X108585905Y-77436500D01*
X108308666Y-77491647D01*
X108047513Y-77599820D01*
X107812481Y-77756863D01*
X107612603Y-77956741D01*
X107455560Y-78191773D01*
X107347387Y-78452926D01*
X107292240Y-78730165D01*
X107072240Y-78730165D01*
X107072240Y-77084209D01*
X107076521Y-77040740D01*
X107072240Y-76997271D01*
X107072240Y-76997263D01*
X107059435Y-76867250D01*
X107028856Y-76766446D01*
X107008829Y-76700426D01*
X106926651Y-76546681D01*
X106843772Y-76445693D01*
X106843770Y-76445691D01*
X106816057Y-76411923D01*
X106782291Y-76384212D01*
X101450835Y-71052757D01*
X101439526Y-70995902D01*
X101361505Y-70807544D01*
X101248237Y-70638026D01*
X101104074Y-70493863D01*
X100934556Y-70380595D01*
X100746198Y-70302574D01*
X100546239Y-70262800D01*
X100342361Y-70262800D01*
X100142402Y-70302574D01*
X100076620Y-70329822D01*
X101350922Y-69055520D01*
X119416338Y-69055520D01*
X119453660Y-69059196D01*
X119490982Y-69055520D01*
X119490993Y-69055520D01*
X119602646Y-69044523D01*
X119745907Y-69001066D01*
X119877936Y-68930494D01*
X119993661Y-68835521D01*
X120017464Y-68806517D01*
X120287878Y-68536103D01*
X120316881Y-68512301D01*
X120391880Y-68420914D01*
X120391881Y-71035280D01*
X116681833Y-74745328D01*
X111443679Y-79983483D01*
X111408575Y-79976500D01*
X111125905Y-79976500D01*
X110848666Y-80031647D01*
X110587513Y-80139820D01*
X110352481Y-80296863D01*
X110152603Y-80496741D01*
X109996325Y-80730628D01*
X109963911Y-80669986D01*
X109719942Y-80598403D01*
X108906845Y-81411500D01*
X109719942Y-82224597D01*
X109963911Y-82153014D01*
X109994434Y-82088508D01*
X109995560Y-82091227D01*
X110152603Y-82326259D01*
X110352481Y-82526137D01*
X110382240Y-82546021D01*
X110382241Y-84629120D01*
X110305368Y-84680485D01*
X110098525Y-84887328D01*
X109936010Y-85130549D01*
X109824068Y-85400802D01*
X109767000Y-85687700D01*
X109767000Y-85980220D01*
X109824068Y-86267118D01*
X109936010Y-86537371D01*
X110098525Y-86780592D01*
X110305368Y-86987435D01*
X110367000Y-87028616D01*
X110367001Y-89070641D01*
X110362719Y-89114120D01*
X110379805Y-89287610D01*
X110430412Y-89454433D01*
X110512590Y-89608179D01*
X110595468Y-89709166D01*
X110595471Y-89709169D01*
X110623184Y-89742937D01*
X110656952Y-89770650D01*
X110666302Y-89780000D01*
X63532279Y-89780000D01*
X63135455Y-89741091D01*
X62784794Y-89635220D01*
X62461377Y-89463257D01*
X62177518Y-89231748D01*
X61944035Y-88949514D01*
X61769816Y-88627304D01*
X61661498Y-88277385D01*
X61620000Y-87882557D01*
X61620000Y-87196495D01*
X62023000Y-87196495D01*
X62023000Y-87587505D01*
X62099282Y-87971003D01*
X62248915Y-88332250D01*
X62466149Y-88657364D01*
X62742636Y-88933851D01*
X63067750Y-89151085D01*
X63428997Y-89300718D01*
X63812495Y-89377000D01*
X64203505Y-89377000D01*
X64587003Y-89300718D01*
X64948250Y-89151085D01*
X65273364Y-88933851D01*
X65549851Y-88657364D01*
X65767085Y-88332250D01*
X65916718Y-87971003D01*
X65993000Y-87587505D01*
X65993000Y-87196495D01*
X65916718Y-86812997D01*
X65767085Y-86451750D01*
X65549851Y-86126636D01*
X65273364Y-85850149D01*
X64948250Y-85632915D01*
X64587003Y-85483282D01*
X64203505Y-85407000D01*
X63812495Y-85407000D01*
X63428997Y-85483282D01*
X63067750Y-85632915D01*
X62742636Y-85850149D01*
X62466149Y-86126636D01*
X62248915Y-86451750D01*
X62099282Y-86812997D01*
X62023000Y-87196495D01*
X61620000Y-87196495D01*
X61620000Y-73940300D01*
X66177528Y-73940300D01*
X66180600Y-74504550D01*
X66339350Y-74663300D01*
X67538600Y-74663300D01*
X67538600Y-73464050D01*
X67792600Y-73464050D01*
X67792600Y-74663300D01*
X70078600Y-74663300D01*
X70078600Y-73469486D01*
X70332600Y-73469486D01*
X70332600Y-74663300D01*
X71525755Y-74663300D01*
X71647076Y-74433410D01*
X71602425Y-74286201D01*
X71477241Y-74023380D01*
X71356879Y-73862012D01*
X76807023Y-73862012D01*
X76848453Y-74141630D01*
X76943637Y-74407792D01*
X77010569Y-74533014D01*
X77254538Y-74604597D01*
X78067635Y-73791500D01*
X78426845Y-73791500D01*
X79239942Y-74604597D01*
X79483911Y-74533014D01*
X79604811Y-74277504D01*
X79673540Y-74003316D01*
X79687457Y-73720988D01*
X79646027Y-73441370D01*
X79550843Y-73175208D01*
X79483911Y-73049986D01*
X79239942Y-72978403D01*
X78426845Y-73791500D01*
X78067635Y-73791500D01*
X77254538Y-72978403D01*
X77010569Y-73049986D01*
X76889669Y-73305496D01*
X76820940Y-73579684D01*
X76807023Y-73862012D01*
X71356879Y-73862012D01*
X71303188Y-73790031D01*
X71086955Y-73595122D01*
X70836852Y-73446143D01*
X70562491Y-73348819D01*
X70332600Y-73469486D01*
X70078600Y-73469486D01*
X69848709Y-73348819D01*
X69574348Y-73446143D01*
X69324245Y-73595122D01*
X69128098Y-73771926D01*
X69105102Y-73696120D01*
X69046137Y-73585806D01*
X68966785Y-73489115D01*
X68870094Y-73409763D01*
X68759780Y-73350798D01*
X68640082Y-73314488D01*
X68515600Y-73302228D01*
X67951350Y-73305300D01*
X67792600Y-73464050D01*
X67538600Y-73464050D01*
X67379850Y-73305300D01*
X66815600Y-73302228D01*
X66691118Y-73314488D01*
X66571420Y-73350798D01*
X66461106Y-73409763D01*
X66364415Y-73489115D01*
X66285063Y-73585806D01*
X66226098Y-73696120D01*
X66189788Y-73815818D01*
X66177528Y-73940300D01*
X61620000Y-73940300D01*
X61620000Y-68421912D01*
X62591263Y-68421912D01*
X62632693Y-68701530D01*
X62727877Y-68967692D01*
X62794809Y-69092914D01*
X63038778Y-69164497D01*
X63844369Y-68358906D01*
X63841263Y-68421912D01*
X63879888Y-68682597D01*
X63218383Y-69344102D01*
X63289966Y-69588071D01*
X63545476Y-69708971D01*
X63819664Y-69777700D01*
X64101992Y-69791617D01*
X64381610Y-69750187D01*
X64647772Y-69655003D01*
X64663572Y-69646558D01*
X64795476Y-69708971D01*
X65069664Y-69777700D01*
X65351992Y-69791617D01*
X65631610Y-69750187D01*
X65897772Y-69655003D01*
X66022994Y-69588071D01*
X66094577Y-69344102D01*
X65428901Y-68678426D01*
X65457780Y-68563216D01*
X65467886Y-68358201D01*
X66274182Y-69164497D01*
X66518151Y-69092914D01*
X66639051Y-68837404D01*
X66707780Y-68563216D01*
X66721697Y-68280888D01*
X66680267Y-68001270D01*
X66585083Y-67735108D01*
X66518151Y-67609886D01*
X66274182Y-67538303D01*
X65468591Y-68343894D01*
X65471697Y-68280888D01*
X65433072Y-68020203D01*
X66094577Y-67358698D01*
X66022994Y-67114729D01*
X65767484Y-66993829D01*
X65493296Y-66925100D01*
X65210968Y-66911183D01*
X64931350Y-66952613D01*
X64665188Y-67047797D01*
X64649388Y-67056242D01*
X64517484Y-66993829D01*
X64243296Y-66925100D01*
X63960968Y-66911183D01*
X63681350Y-66952613D01*
X63415188Y-67047797D01*
X63289966Y-67114729D01*
X63218383Y-67358698D01*
X63884059Y-68024374D01*
X63855180Y-68139584D01*
X63845074Y-68344599D01*
X63038778Y-67538303D01*
X62794809Y-67609886D01*
X62673909Y-67865396D01*
X62605180Y-68139584D01*
X62591263Y-68421912D01*
X61620000Y-68421912D01*
X61620000Y-59732495D01*
X62023000Y-59732495D01*
X62023000Y-60123505D01*
X62099282Y-60507003D01*
X62248915Y-60868250D01*
X62466149Y-61193364D01*
X62742636Y-61469851D01*
X63067750Y-61687085D01*
X63428997Y-61836718D01*
X63812495Y-61913000D01*
X64203505Y-61913000D01*
X64587003Y-61836718D01*
X64948250Y-61687085D01*
X65273364Y-61469851D01*
X65549851Y-61193364D01*
X65767085Y-60868250D01*
X65916718Y-60507003D01*
X65993000Y-60123505D01*
X65993000Y-59732495D01*
X135023000Y-59732495D01*
X135023000Y-60123505D01*
X135099282Y-60507003D01*
X135248915Y-60868250D01*
X135466149Y-61193364D01*
X135742636Y-61469851D01*
X136067750Y-61687085D01*
X136428997Y-61836718D01*
X136812495Y-61913000D01*
X137203505Y-61913000D01*
X137587003Y-61836718D01*
X137948250Y-61687085D01*
X138273364Y-61469851D01*
X138549851Y-61193364D01*
X138767085Y-60868250D01*
X138916718Y-60507003D01*
X138993000Y-60123505D01*
X138993000Y-59732495D01*
X138916718Y-59348997D01*
X138767085Y-58987750D01*
X138549851Y-58662636D01*
X138273364Y-58386149D01*
X137948250Y-58168915D01*
X137587003Y-58019282D01*
X137203505Y-57943000D01*
X136812495Y-57943000D01*
X136428997Y-58019282D01*
X136067750Y-58168915D01*
X135742636Y-58386149D01*
X135466149Y-58662636D01*
X135248915Y-58987750D01*
X135099282Y-59348997D01*
X135023000Y-59732495D01*
X65993000Y-59732495D01*
X65916718Y-59348997D01*
X65767085Y-58987750D01*
X65549851Y-58662636D01*
X65273364Y-58386149D01*
X64948250Y-58168915D01*
X64587003Y-58019282D01*
X64203505Y-57943000D01*
X63812495Y-57943000D01*
X63428997Y-58019282D01*
X63067750Y-58168915D01*
X62742636Y-58386149D01*
X62466149Y-58662636D01*
X62248915Y-58987750D01*
X62099282Y-59348997D01*
X62023000Y-59732495D01*
X61620000Y-59732495D01*
X61620000Y-59452279D01*
X61658909Y-59055455D01*
X61764780Y-58704792D01*
X61936744Y-58381375D01*
X62168254Y-58097516D01*
X62450486Y-57864035D01*
X62772695Y-57689817D01*
X63122614Y-57581498D01*
X63517443Y-57540000D01*
X153339156Y-57540000D01*
X153338720Y-57544424D01*
G37*
X153338720Y-57544424D02*
X153338720Y-57544431D01*
X153334439Y-57587900D01*
X153338720Y-57631369D01*
X153338720Y-58589324D01*
X153277088Y-58630505D01*
X153070245Y-58837348D01*
X152953720Y-59011740D01*
X152837195Y-58837348D01*
X152630352Y-58630505D01*
X152387131Y-58467990D01*
X152116878Y-58356048D01*
X151829980Y-58298980D01*
X151537460Y-58298980D01*
X151250562Y-58356048D01*
X150980309Y-58467990D01*
X150737088Y-58630505D01*
X150530245Y-58837348D01*
X150413720Y-59011740D01*
X150297195Y-58837348D01*
X150090352Y-58630505D01*
X149847131Y-58467990D01*
X149576878Y-58356048D01*
X149289980Y-58298980D01*
X148997460Y-58298980D01*
X148710562Y-58356048D01*
X148440309Y-58467990D01*
X148197088Y-58630505D01*
X147990245Y-58837348D01*
X147827730Y-59080569D01*
X147715788Y-59350822D01*
X147658720Y-59637720D01*
X147658720Y-59930240D01*
X147715788Y-60217138D01*
X147827730Y-60487391D01*
X147990245Y-60730612D01*
X148197088Y-60937455D01*
X148338495Y-61031940D01*
X148161528Y-61150185D01*
X147954685Y-61357028D01*
X147792170Y-61600249D01*
X147680228Y-61870502D01*
X147623160Y-62157400D01*
X147623160Y-62449920D01*
X147680228Y-62736818D01*
X147792170Y-63007071D01*
X147954685Y-63250292D01*
X148161528Y-63457135D01*
X148404749Y-63619650D01*
X148675002Y-63731592D01*
X148961900Y-63788660D01*
X149254420Y-63788660D01*
X149541318Y-63731592D01*
X149811571Y-63619650D01*
X150054792Y-63457135D01*
X150261635Y-63250292D01*
X150378160Y-63075900D01*
X150494685Y-63250292D01*
X150701528Y-63457135D01*
X150944749Y-63619650D01*
X151215002Y-63731592D01*
X151501900Y-63788660D01*
X151794420Y-63788660D01*
X152081318Y-63731592D01*
X152351571Y-63619650D01*
X152594792Y-63457135D01*
X152801635Y-63250292D01*
X152918160Y-63075900D01*
X153034685Y-63250292D01*
X153241528Y-63457135D01*
X153484749Y-63619650D01*
X153755002Y-63731592D01*
X154041900Y-63788660D01*
X154334420Y-63788660D01*
X154621318Y-63731592D01*
X154891571Y-63619650D01*
X155134792Y-63457135D01*
X155341635Y-63250292D01*
X155458160Y-63075900D01*
X155574685Y-63250292D01*
X155781528Y-63457135D01*
X156024749Y-63619650D01*
X156295002Y-63731592D01*
X156581900Y-63788660D01*
X156874420Y-63788660D01*
X157161318Y-63731592D01*
X157431571Y-63619650D01*
X157674792Y-63457135D01*
X157881635Y-63250292D01*
X157998160Y-63075900D01*
X158114685Y-63250292D01*
X158321528Y-63457135D01*
X158564749Y-63619650D01*
X158835002Y-63731592D01*
X159121900Y-63788660D01*
X159414420Y-63788660D01*
X159701318Y-63731592D01*
X159971571Y-63619650D01*
X160214792Y-63457135D01*
X160421635Y-63250292D01*
X160538160Y-63075900D01*
X160654685Y-63250292D01*
X160861528Y-63457135D01*
X161104749Y-63619650D01*
X161375002Y-63731592D01*
X161661900Y-63788660D01*
X161954420Y-63788660D01*
X162241318Y-63731592D01*
X162511571Y-63619650D01*
X162754792Y-63457135D01*
X162961635Y-63250292D01*
X163078160Y-63075900D01*
X163194685Y-63250292D01*
X163401528Y-63457135D01*
X163644749Y-63619650D01*
X163915002Y-63731592D01*
X164201900Y-63788660D01*
X164494420Y-63788660D01*
X164781318Y-63731592D01*
X165051571Y-63619650D01*
X165294792Y-63457135D01*
X165501635Y-63250292D01*
X165618160Y-63075900D01*
X165734685Y-63250292D01*
X165941528Y-63457135D01*
X166184749Y-63619650D01*
X166455002Y-63731592D01*
X166741900Y-63788660D01*
X167034420Y-63788660D01*
X167321318Y-63731592D01*
X167591571Y-63619650D01*
X167834792Y-63457135D01*
X168041635Y-63250292D01*
X168158160Y-63075900D01*
X168274685Y-63250292D01*
X168481528Y-63457135D01*
X168724749Y-63619650D01*
X168995002Y-63731592D01*
X169281900Y-63788660D01*
X169574420Y-63788660D01*
X169861318Y-63731592D01*
X170131571Y-63619650D01*
X170374792Y-63457135D01*
X170499870Y-63332057D01*
X171119368Y-63332057D01*
X171197003Y-63581132D01*
X171461043Y-63707031D01*
X171744571Y-63778999D01*
X172036691Y-63794271D01*
X172326179Y-63752259D01*
X172601907Y-63654579D01*
X172739317Y-63581132D01*
X172816952Y-63332057D01*
X171968160Y-62483265D01*
X171119368Y-63332057D01*
X170499870Y-63332057D01*
X170581635Y-63250292D01*
X170697471Y-63076931D01*
X170939763Y-63152452D01*
X171788555Y-62303660D01*
X170939763Y-61454868D01*
X170697471Y-61530389D01*
X170581635Y-61357028D01*
X170499870Y-61275263D01*
X171119368Y-61275263D01*
X171968160Y-62124055D01*
X172816952Y-61275263D01*
X172753817Y-61072709D01*
X172774877Y-61061452D01*
X172852512Y-60812377D01*
X172003720Y-59963585D01*
X171154928Y-60812377D01*
X171218063Y-61014931D01*
X171197003Y-61026188D01*
X171119368Y-61275263D01*
X170499870Y-61275263D01*
X170374792Y-61150185D01*
X170233385Y-61055700D01*
X170410352Y-60937455D01*
X170617195Y-60730612D01*
X170733031Y-60557251D01*
X170975323Y-60632772D01*
X171824115Y-59783980D01*
X170975323Y-58935188D01*
X170733031Y-59010709D01*
X170617195Y-58837348D01*
X170410352Y-58630505D01*
X170167131Y-58467990D01*
X170076573Y-58430480D01*
X171377259Y-58430480D01*
X171369973Y-58433061D01*
X171232563Y-58506508D01*
X171154928Y-58755583D01*
X172003720Y-59604375D01*
X172852512Y-58755583D01*
X172774877Y-58506508D01*
X172615428Y-58430480D01*
X173930867Y-58430480D01*
X173840309Y-58467990D01*
X173597088Y-58630505D01*
X173390245Y-58837348D01*
X173274409Y-59010709D01*
X173032117Y-58935188D01*
X172183325Y-59783980D01*
X173032117Y-60632772D01*
X173274409Y-60557251D01*
X173390245Y-60730612D01*
X173597088Y-60937455D01*
X173658720Y-60978636D01*
X173658721Y-61085243D01*
X173561528Y-61150185D01*
X173354685Y-61357028D01*
X173238849Y-61530389D01*
X172996557Y-61454868D01*
X172147765Y-62303660D01*
X172996557Y-63152452D01*
X173238849Y-63076931D01*
X173354685Y-63250292D01*
X173561528Y-63457135D01*
X173804749Y-63619650D01*
X174075002Y-63731592D01*
X174361900Y-63788660D01*
X174654420Y-63788660D01*
X174941318Y-63731592D01*
X175211571Y-63619650D01*
X175454792Y-63457135D01*
X175661635Y-63250292D01*
X175778160Y-63075900D01*
X175894685Y-63250292D01*
X176101528Y-63457135D01*
X176344749Y-63619650D01*
X176615002Y-63731592D01*
X176901900Y-63788660D01*
X177194420Y-63788660D01*
X177481318Y-63731592D01*
X177751571Y-63619650D01*
X177994792Y-63457135D01*
X178201635Y-63250292D01*
X178318160Y-63075900D01*
X178434685Y-63250292D01*
X178641528Y-63457135D01*
X178884749Y-63619650D01*
X179155002Y-63731592D01*
X179441900Y-63788660D01*
X179734420Y-63788660D01*
X180021318Y-63731592D01*
X180291571Y-63619650D01*
X180534792Y-63457135D01*
X180659870Y-63332057D01*
X181279368Y-63332057D01*
X181357003Y-63581132D01*
X181621043Y-63707031D01*
X181904571Y-63778999D01*
X182196691Y-63794271D01*
X182486179Y-63752259D01*
X182761907Y-63654579D01*
X182899317Y-63581132D01*
X182976952Y-63332057D01*
X182128160Y-62483265D01*
X181279368Y-63332057D01*
X180659870Y-63332057D01*
X180741635Y-63250292D01*
X180857471Y-63076931D01*
X181099763Y-63152452D01*
X181948555Y-62303660D01*
X181099763Y-61454868D01*
X180857471Y-61530389D01*
X180741635Y-61357028D01*
X180659870Y-61275263D01*
X181279368Y-61275263D01*
X182128160Y-62124055D01*
X182976952Y-61275263D01*
X182913817Y-61072709D01*
X182934877Y-61061452D01*
X183012512Y-60812377D01*
X182163720Y-59963585D01*
X181314928Y-60812377D01*
X181378063Y-61014931D01*
X181357003Y-61026188D01*
X181279368Y-61275263D01*
X180659870Y-61275263D01*
X180534792Y-61150185D01*
X180393385Y-61055700D01*
X180570352Y-60937455D01*
X180777195Y-60730612D01*
X180893031Y-60557251D01*
X181135323Y-60632772D01*
X181984115Y-59783980D01*
X181135323Y-58935188D01*
X180893031Y-59010709D01*
X180777195Y-58837348D01*
X180570352Y-58630505D01*
X180327131Y-58467990D01*
X180236573Y-58430480D01*
X181537259Y-58430480D01*
X181529973Y-58433061D01*
X181392563Y-58506508D01*
X181314928Y-58755583D01*
X182163720Y-59604375D01*
X183012512Y-58755583D01*
X182934877Y-58506508D01*
X182775428Y-58430480D01*
X184090867Y-58430480D01*
X184000309Y-58467990D01*
X183757088Y-58630505D01*
X183550245Y-58837348D01*
X183434409Y-59010709D01*
X183192117Y-58935188D01*
X182343325Y-59783980D01*
X183192117Y-60632772D01*
X183434409Y-60557251D01*
X183550245Y-60730612D01*
X183757088Y-60937455D01*
X183898495Y-61031940D01*
X183721528Y-61150185D01*
X183514685Y-61357028D01*
X183398849Y-61530389D01*
X183156557Y-61454868D01*
X182307765Y-62303660D01*
X183156557Y-63152452D01*
X183398849Y-63076931D01*
X183514685Y-63250292D01*
X183721528Y-63457135D01*
X183964749Y-63619650D01*
X184235002Y-63731592D01*
X184521900Y-63788660D01*
X184814420Y-63788660D01*
X185101318Y-63731592D01*
X185371571Y-63619650D01*
X185614792Y-63457135D01*
X185821635Y-63250292D01*
X185862816Y-63188660D01*
X186666060Y-63188660D01*
X186666061Y-89076720D01*
X185318408Y-89076720D01*
X185407131Y-89039970D01*
X185650352Y-88877455D01*
X185857195Y-88670612D01*
X186019710Y-88427391D01*
X186131652Y-88157138D01*
X186188720Y-87870240D01*
X186188720Y-87577720D01*
X186131652Y-87290822D01*
X186019710Y-87020569D01*
X185857195Y-86777348D01*
X185650352Y-86570505D01*
X185553160Y-86505563D01*
X185553160Y-86358316D01*
X185614792Y-86317135D01*
X185821635Y-86110292D01*
X185984150Y-85867071D01*
X186096092Y-85596818D01*
X186153160Y-85309920D01*
X186153160Y-85017400D01*
X186096092Y-84730502D01*
X185984150Y-84460249D01*
X185821635Y-84217028D01*
X185614792Y-84010185D01*
X185371571Y-83847670D01*
X185101318Y-83735728D01*
X184814420Y-83678660D01*
X184521900Y-83678660D01*
X184235002Y-83735728D01*
X183964749Y-83847670D01*
X183721528Y-84010185D01*
X183514685Y-84217028D01*
X183398849Y-84390389D01*
X183156557Y-84314868D01*
X182307765Y-85163660D01*
X183156557Y-86012452D01*
X183398849Y-85936931D01*
X183514685Y-86110292D01*
X183721528Y-86317135D01*
X183783160Y-86358316D01*
X183783161Y-86553084D01*
X183757088Y-86570505D01*
X183550245Y-86777348D01*
X183434409Y-86950709D01*
X183192117Y-86875188D01*
X182343325Y-87723980D01*
X183192117Y-88572772D01*
X183434409Y-88497251D01*
X183550245Y-88670612D01*
X183757088Y-88877455D01*
X184000309Y-89039970D01*
X184089032Y-89076720D01*
X182792327Y-89076720D01*
X182797467Y-89074899D01*
X182934877Y-89001452D01*
X183012512Y-88752377D01*
X182163720Y-87903585D01*
X181314928Y-88752377D01*
X181392563Y-89001452D01*
X181550418Y-89076720D01*
X180238408Y-89076720D01*
X180327131Y-89039970D01*
X180570352Y-88877455D01*
X180777195Y-88670612D01*
X180893031Y-88497251D01*
X181135323Y-88572772D01*
X181984115Y-87723980D01*
X181135323Y-86875188D01*
X180893031Y-86950709D01*
X180777195Y-86777348D01*
X180570352Y-86570505D01*
X180362974Y-86431940D01*
X180534792Y-86317135D01*
X180659870Y-86192057D01*
X181279368Y-86192057D01*
X181357003Y-86441132D01*
X181389421Y-86456589D01*
X181314928Y-86695583D01*
X182163720Y-87544375D01*
X183012512Y-86695583D01*
X182934877Y-86446508D01*
X182902459Y-86431051D01*
X182976952Y-86192057D01*
X182128160Y-85343265D01*
X181279368Y-86192057D01*
X180659870Y-86192057D01*
X180741635Y-86110292D01*
X180857471Y-85936931D01*
X181099763Y-86012452D01*
X181948555Y-85163660D01*
X181099763Y-84314868D01*
X180857471Y-84390389D01*
X180741635Y-84217028D01*
X180659870Y-84135263D01*
X181279368Y-84135263D01*
X182128160Y-84984055D01*
X182976952Y-84135263D01*
X182899317Y-83886188D01*
X182635277Y-83760289D01*
X182351749Y-83688321D01*
X182059629Y-83673049D01*
X181770141Y-83715061D01*
X181494413Y-83812741D01*
X181357003Y-83886188D01*
X181279368Y-84135263D01*
X180659870Y-84135263D01*
X180534792Y-84010185D01*
X180291571Y-83847670D01*
X180021318Y-83735728D01*
X179734420Y-83678660D01*
X179441900Y-83678660D01*
X179155002Y-83735728D01*
X178884749Y-83847670D01*
X178641528Y-84010185D01*
X178434685Y-84217028D01*
X178318160Y-84391420D01*
X178201635Y-84217028D01*
X177994792Y-84010185D01*
X177751571Y-83847670D01*
X177481318Y-83735728D01*
X177194420Y-83678660D01*
X176901900Y-83678660D01*
X176615002Y-83735728D01*
X176344749Y-83847670D01*
X176101528Y-84010185D01*
X175894685Y-84217028D01*
X175778160Y-84391420D01*
X175661635Y-84217028D01*
X175454792Y-84010185D01*
X175211571Y-83847670D01*
X174941318Y-83735728D01*
X174654420Y-83678660D01*
X174361900Y-83678660D01*
X174075002Y-83735728D01*
X173804749Y-83847670D01*
X173561528Y-84010185D01*
X173354685Y-84217028D01*
X173238160Y-84391420D01*
X173121635Y-84217028D01*
X172914792Y-84010185D01*
X172671571Y-83847670D01*
X172401318Y-83735728D01*
X172114420Y-83678660D01*
X171821900Y-83678660D01*
X171535002Y-83735728D01*
X171264749Y-83847670D01*
X171021528Y-84010185D01*
X170814685Y-84217028D01*
X170698160Y-84391420D01*
X170581635Y-84217028D01*
X170374792Y-84010185D01*
X170131571Y-83847670D01*
X169861318Y-83735728D01*
X169574420Y-83678660D01*
X169281900Y-83678660D01*
X168995002Y-83735728D01*
X168724749Y-83847670D01*
X168481528Y-84010185D01*
X168274685Y-84217028D01*
X168158160Y-84391420D01*
X168041635Y-84217028D01*
X167834792Y-84010185D01*
X167591571Y-83847670D01*
X167321318Y-83735728D01*
X167034420Y-83678660D01*
X166741900Y-83678660D01*
X166455002Y-83735728D01*
X166184749Y-83847670D01*
X165941528Y-84010185D01*
X165734685Y-84217028D01*
X165618849Y-84390389D01*
X165376557Y-84314868D01*
X164527765Y-85163660D01*
X165376557Y-86012452D01*
X165618849Y-85936931D01*
X165734685Y-86110292D01*
X165941528Y-86317135D01*
X166128161Y-86441839D01*
X166128161Y-86469562D01*
X165977088Y-86570505D01*
X165770245Y-86777348D01*
X165654409Y-86950709D01*
X165412117Y-86875188D01*
X164563325Y-87723980D01*
X165412117Y-88572772D01*
X165654409Y-88497251D01*
X165770245Y-88670612D01*
X165977088Y-88877455D01*
X166220309Y-89039970D01*
X166309032Y-89076720D01*
X165012327Y-89076720D01*
X165017467Y-89074899D01*
X165154877Y-89001452D01*
X165232512Y-88752377D01*
X164383720Y-87903585D01*
X163534928Y-88752377D01*
X163612563Y-89001452D01*
X163770418Y-89076720D01*
X162458408Y-89076720D01*
X162547131Y-89039970D01*
X162790352Y-88877455D01*
X162997195Y-88670612D01*
X163113031Y-88497251D01*
X163355323Y-88572772D01*
X164204115Y-87723980D01*
X163355323Y-86875188D01*
X163113031Y-86950709D01*
X162997195Y-86777348D01*
X162790352Y-86570505D01*
X162693160Y-86505563D01*
X162693160Y-86358316D01*
X162754792Y-86317135D01*
X162879870Y-86192057D01*
X163499368Y-86192057D01*
X163577003Y-86441132D01*
X163609421Y-86456589D01*
X163534928Y-86695583D01*
X164383720Y-87544375D01*
X165232512Y-86695583D01*
X165154877Y-86446508D01*
X165122459Y-86431051D01*
X165196952Y-86192057D01*
X164348160Y-85343265D01*
X163499368Y-86192057D01*
X162879870Y-86192057D01*
X162961635Y-86110292D01*
X163077471Y-85936931D01*
X163319763Y-86012452D01*
X164168555Y-85163660D01*
X163319763Y-84314868D01*
X163077471Y-84390389D01*
X162961635Y-84217028D01*
X162879870Y-84135263D01*
X163499368Y-84135263D01*
X164348160Y-84984055D01*
X165196952Y-84135263D01*
X165119317Y-83886188D01*
X164855277Y-83760289D01*
X164571749Y-83688321D01*
X164279629Y-83673049D01*
X163990141Y-83715061D01*
X163714413Y-83812741D01*
X163577003Y-83886188D01*
X163499368Y-84135263D01*
X162879870Y-84135263D01*
X162754792Y-84010185D01*
X162511571Y-83847670D01*
X162241318Y-83735728D01*
X161954420Y-83678660D01*
X161661900Y-83678660D01*
X161375002Y-83735728D01*
X161104749Y-83847670D01*
X160861528Y-84010185D01*
X160654685Y-84217028D01*
X160538160Y-84391420D01*
X160421635Y-84217028D01*
X160214792Y-84010185D01*
X160028160Y-83885482D01*
X160028160Y-83471253D01*
X160031837Y-83433920D01*
X160017163Y-83284934D01*
X159973706Y-83141673D01*
X159903134Y-83009644D01*
X159852644Y-82948122D01*
X159808161Y-82893919D01*
X159779158Y-82870117D01*
X159347161Y-82438120D01*
X159323706Y-82409466D01*
X159294365Y-82385324D01*
X159294022Y-82384981D01*
X159265381Y-82361476D01*
X159208102Y-82314346D01*
X159207675Y-82314117D01*
X159207296Y-82313806D01*
X159141608Y-82278695D01*
X159076163Y-82243606D01*
X159075695Y-82243463D01*
X159075266Y-82243234D01*
X159004512Y-82221772D01*
X158932957Y-82199967D01*
X158932467Y-82199918D01*
X158932005Y-82199778D01*
X158858255Y-82192514D01*
X158821318Y-82188829D01*
X158820834Y-82188828D01*
X158783020Y-82185104D01*
X158746169Y-82188734D01*
X146837881Y-82173612D01*
X146818642Y-82170767D01*
X146763176Y-82173517D01*
X146745153Y-82173494D01*
X146744680Y-82173540D01*
X146221282Y-82173540D01*
X137348888Y-73301147D01*
X137385200Y-73118595D01*
X137385200Y-72835925D01*
X137330053Y-72558686D01*
X137221880Y-72297533D01*
X137064837Y-72062501D01*
X136864959Y-71862623D01*
X136710200Y-71759217D01*
X136710200Y-69765162D01*
X136713876Y-69727839D01*
X136710200Y-69690516D01*
X136710200Y-69690507D01*
X136699203Y-69578854D01*
X136655746Y-69435593D01*
X136585174Y-69303564D01*
X136490201Y-69187839D01*
X136461204Y-69164042D01*
X134802804Y-67505643D01*
X134779001Y-67476639D01*
X134663276Y-67381666D01*
X134531247Y-67311094D01*
X134522443Y-67308424D01*
X134563675Y-67267192D01*
X134726190Y-67023971D01*
X134838132Y-66753718D01*
X134895200Y-66466820D01*
X134895200Y-66174300D01*
X134838132Y-65887402D01*
X134726190Y-65617149D01*
X134563675Y-65373928D01*
X134356832Y-65167085D01*
X134113611Y-65004570D01*
X133843358Y-64892628D01*
X133556460Y-64835560D01*
X133263940Y-64835560D01*
X132977042Y-64892628D01*
X132706789Y-65004570D01*
X132463568Y-65167085D01*
X132256725Y-65373928D01*
X132140200Y-65548320D01*
X132023675Y-65373928D01*
X131816832Y-65167085D01*
X131573611Y-65004570D01*
X131303358Y-64892628D01*
X131016460Y-64835560D01*
X130723940Y-64835560D01*
X130437042Y-64892628D01*
X130166789Y-65004570D01*
X129923568Y-65167085D01*
X129716725Y-65373928D01*
X129595005Y-65556094D01*
X129525378Y-65439205D01*
X129330469Y-65222972D01*
X129097120Y-65048919D01*
X128834299Y-64923735D01*
X128687090Y-64879084D01*
X128457200Y-65000405D01*
X128457200Y-66193560D01*
X128477200Y-66193560D01*
X128477200Y-66447560D01*
X128457200Y-66447560D01*
X128457200Y-67640715D01*
X128687090Y-67762036D01*
X128834299Y-67717385D01*
X129097120Y-67592201D01*
X129330469Y-67418148D01*
X129525378Y-67201915D01*
X129595005Y-67085026D01*
X129716725Y-67267192D01*
X129923568Y-67474035D01*
X130114288Y-67601470D01*
X130121198Y-67671627D01*
X130134380Y-67715083D01*
X130164654Y-67814887D01*
X130235226Y-67946917D01*
X130287890Y-68011087D01*
X130330200Y-68062642D01*
X130359198Y-68086440D01*
X130800395Y-68527637D01*
X130824198Y-68556641D01*
X130885895Y-68607274D01*
X130939922Y-68651614D01*
X131033308Y-68701530D01*
X131071952Y-68722186D01*
X131215213Y-68765643D01*
X131303758Y-68774364D01*
X131242343Y-68983678D01*
X131908019Y-69649354D01*
X131879140Y-69764564D01*
X131869034Y-69969579D01*
X131062738Y-69163283D01*
X130818769Y-69234866D01*
X130697869Y-69490376D01*
X130629140Y-69764564D01*
X130615223Y-70046892D01*
X130656653Y-70326510D01*
X130751837Y-70592672D01*
X130818769Y-70717894D01*
X131062738Y-70789477D01*
X131868329Y-69983886D01*
X131865223Y-70046892D01*
X131903848Y-70307577D01*
X131242343Y-70969082D01*
X131313926Y-71213051D01*
X131569436Y-71333951D01*
X131843624Y-71402680D01*
X132125952Y-71416597D01*
X132405570Y-71375167D01*
X132671732Y-71279983D01*
X132687532Y-71271538D01*
X132819436Y-71333951D01*
X133093624Y-71402680D01*
X133375952Y-71416597D01*
X133655570Y-71375167D01*
X133921732Y-71279983D01*
X134046954Y-71213051D01*
X134118537Y-70969082D01*
X133452861Y-70303406D01*
X133481740Y-70188196D01*
X133491846Y-69983181D01*
X134298142Y-70789477D01*
X134542111Y-70717894D01*
X134663011Y-70462384D01*
X134731740Y-70188196D01*
X134745657Y-69905868D01*
X134704227Y-69626250D01*
X134665491Y-69517932D01*
X135190200Y-70042642D01*
X135190201Y-71759216D01*
X135035441Y-71862623D01*
X134835563Y-72062501D01*
X134678520Y-72297533D01*
X134570347Y-72558686D01*
X134515200Y-72835925D01*
X134515200Y-73118595D01*
X134570347Y-73395834D01*
X134678520Y-73656987D01*
X134835563Y-73892019D01*
X135035441Y-74091897D01*
X135270473Y-74248940D01*
X135531626Y-74357113D01*
X135808865Y-74412260D01*
X136091535Y-74412260D01*
X136274087Y-74375948D01*
X145342681Y-83444543D01*
X145366479Y-83473541D01*
X145482204Y-83568514D01*
X145614233Y-83639086D01*
X145757494Y-83682543D01*
X145869147Y-83693540D01*
X145869156Y-83693540D01*
X145906479Y-83697216D01*
X145943802Y-83693540D01*
X146597176Y-83693540D01*
X146718998Y-83711553D01*
X146868520Y-83704140D01*
X146910106Y-83693703D01*
X148873739Y-83696196D01*
X148675002Y-83735728D01*
X148404749Y-83847670D01*
X148161528Y-84010185D01*
X147954685Y-84217028D01*
X147792170Y-84460249D01*
X147680228Y-84730502D01*
X147623160Y-85017400D01*
X147623160Y-85309920D01*
X147680228Y-85596818D01*
X147792170Y-85867071D01*
X147954685Y-86110292D01*
X148161528Y-86317135D01*
X148348161Y-86441839D01*
X148348161Y-86469562D01*
X148197088Y-86570505D01*
X147990245Y-86777348D01*
X147827730Y-87020569D01*
X147715788Y-87290822D01*
X147658720Y-87577720D01*
X147658720Y-87870240D01*
X147715788Y-88157138D01*
X147827730Y-88427391D01*
X147990245Y-88670612D01*
X148197088Y-88877455D01*
X148440309Y-89039970D01*
X148529032Y-89076720D01*
X134609134Y-89076720D01*
X134639534Y-89060471D01*
X134711117Y-88816502D01*
X134045441Y-88150826D01*
X134074320Y-88035616D01*
X134084426Y-87830601D01*
X134890722Y-88636897D01*
X135134691Y-88565314D01*
X135255591Y-88309804D01*
X135324320Y-88035616D01*
X135338237Y-87753288D01*
X135296807Y-87473670D01*
X135201623Y-87207508D01*
X135134691Y-87082286D01*
X134890722Y-87010703D01*
X134085131Y-87816294D01*
X134088237Y-87753288D01*
X134049612Y-87492603D01*
X134711117Y-86831098D01*
X134639534Y-86587129D01*
X134384024Y-86466229D01*
X134109836Y-86397500D01*
X133827508Y-86383583D01*
X133547890Y-86425013D01*
X133281728Y-86520197D01*
X133265928Y-86528642D01*
X133134024Y-86466229D01*
X132859836Y-86397500D01*
X132577508Y-86383583D01*
X132297890Y-86425013D01*
X132031728Y-86520197D01*
X131906506Y-86587129D01*
X131834923Y-86831098D01*
X132500599Y-87496774D01*
X132471720Y-87611984D01*
X132461614Y-87816999D01*
X131655318Y-87010703D01*
X131411349Y-87082286D01*
X131290449Y-87337796D01*
X131221720Y-87611984D01*
X131207803Y-87894312D01*
X131249233Y-88173930D01*
X131344417Y-88440092D01*
X131411349Y-88565314D01*
X131655318Y-88636897D01*
X132460909Y-87831306D01*
X132457803Y-87894312D01*
X132496428Y-88154997D01*
X131834923Y-88816502D01*
X131906506Y-89060471D01*
X131940847Y-89076720D01*
X128533020Y-89076720D01*
X128533020Y-88958321D01*
X128562779Y-88938437D01*
X128762657Y-88738559D01*
X128919700Y-88503527D01*
X129027873Y-88242374D01*
X129083020Y-87965135D01*
X129083020Y-87682465D01*
X129027873Y-87405226D01*
X128919700Y-87144073D01*
X128762657Y-86909041D01*
X128562779Y-86709163D01*
X128327747Y-86552120D01*
X128066594Y-86443947D01*
X127789355Y-86388800D01*
X127506685Y-86388800D01*
X127229446Y-86443947D01*
X127023020Y-86529451D01*
X126816594Y-86443947D01*
X126539355Y-86388800D01*
X126256685Y-86388800D01*
X125979446Y-86443947D01*
X125718293Y-86552120D01*
X125483261Y-86709163D01*
X125283383Y-86909041D01*
X125126340Y-87144073D01*
X125018167Y-87405226D01*
X124963020Y-87682465D01*
X124963020Y-87965135D01*
X125018167Y-88242374D01*
X125126340Y-88503527D01*
X125283383Y-88738559D01*
X125350524Y-88805700D01*
X112195158Y-88805700D01*
X112137000Y-88747542D01*
X112137000Y-87028616D01*
X112198632Y-86987435D01*
X112330487Y-86855580D01*
X112352498Y-86928140D01*
X112411463Y-87038454D01*
X112490815Y-87135145D01*
X112587506Y-87214497D01*
X112697820Y-87273462D01*
X112817518Y-87309772D01*
X112942000Y-87322032D01*
X114642000Y-87322032D01*
X114766482Y-87309772D01*
X114886180Y-87273462D01*
X114996494Y-87214497D01*
X115093185Y-87135145D01*
X115172537Y-87038454D01*
X115231502Y-86928140D01*
X115267812Y-86808442D01*
X115280072Y-86683960D01*
X115280072Y-85804495D01*
X117015000Y-85804495D01*
X117015000Y-86195505D01*
X117091282Y-86579003D01*
X117240915Y-86940250D01*
X117458149Y-87265364D01*
X117734636Y-87541851D01*
X118059750Y-87759085D01*
X118420997Y-87908718D01*
X118804495Y-87985000D01*
X119195505Y-87985000D01*
X119579003Y-87908718D01*
X119940250Y-87759085D01*
X120265364Y-87541851D01*
X120541851Y-87265364D01*
X120759085Y-86940250D01*
X120908718Y-86579003D01*
X120985000Y-86195505D01*
X120985000Y-85804495D01*
X120908718Y-85420997D01*
X120759085Y-85059750D01*
X120541851Y-84734636D01*
X120265364Y-84458149D01*
X119940250Y-84240915D01*
X119579003Y-84091282D01*
X119195505Y-84015000D01*
X118804495Y-84015000D01*
X118420997Y-84091282D01*
X118059750Y-84240915D01*
X117734636Y-84458149D01*
X117458149Y-84734636D01*
X117240915Y-85059750D01*
X117091282Y-85420997D01*
X117015000Y-85804495D01*
X115280072Y-85804495D01*
X115280072Y-84983960D01*
X115267812Y-84859478D01*
X115231502Y-84739780D01*
X115172537Y-84629466D01*
X115093185Y-84532775D01*
X114996494Y-84453423D01*
X114886180Y-84394458D01*
X114766482Y-84358148D01*
X114642000Y-84345888D01*
X112942000Y-84345888D01*
X112817518Y-84358148D01*
X112697820Y-84394458D01*
X112587506Y-84453423D01*
X112490815Y-84532775D01*
X112411463Y-84629466D01*
X112352498Y-84739780D01*
X112330487Y-84812340D01*
X112198632Y-84680485D01*
X112152240Y-84649487D01*
X112152240Y-83966445D01*
X122355200Y-83966445D01*
X122355200Y-84249115D01*
X122410347Y-84526354D01*
X122518520Y-84787507D01*
X122675563Y-85022539D01*
X122875441Y-85222417D01*
X123110473Y-85379460D01*
X123371626Y-85487633D01*
X123648865Y-85542780D01*
X123931535Y-85542780D01*
X124208774Y-85487633D01*
X124469927Y-85379460D01*
X124704959Y-85222417D01*
X124904837Y-85022539D01*
X125061880Y-84787507D01*
X125170053Y-84526354D01*
X125225200Y-84249115D01*
X125225200Y-83966445D01*
X132515200Y-83966445D01*
X132515200Y-84249115D01*
X132570347Y-84526354D01*
X132678520Y-84787507D01*
X132835563Y-85022539D01*
X133035441Y-85222417D01*
X133270473Y-85379460D01*
X133531626Y-85487633D01*
X133808865Y-85542780D01*
X134091535Y-85542780D01*
X134368774Y-85487633D01*
X134629927Y-85379460D01*
X134864959Y-85222417D01*
X135064837Y-85022539D01*
X135221880Y-84787507D01*
X135330053Y-84526354D01*
X135385200Y-84249115D01*
X135385200Y-83966445D01*
X135330053Y-83689206D01*
X135221880Y-83428053D01*
X135064837Y-83193021D01*
X134864959Y-82993143D01*
X134629927Y-82836100D01*
X134368774Y-82727927D01*
X134091535Y-82672780D01*
X133808865Y-82672780D01*
X133531626Y-82727927D01*
X133270473Y-82836100D01*
X133035441Y-82993143D01*
X132835563Y-83193021D01*
X132678520Y-83428053D01*
X132570347Y-83689206D01*
X132515200Y-83966445D01*
X125225200Y-83966445D01*
X125218217Y-83931341D01*
X126385249Y-82764310D01*
X126419017Y-82736597D01*
X126452652Y-82695614D01*
X126529610Y-82601840D01*
X126570074Y-82526137D01*
X126611789Y-82448093D01*
X126662395Y-82281270D01*
X126675200Y-82151257D01*
X126675200Y-82151247D01*
X126679481Y-82107781D01*
X126675200Y-82064315D01*
X126675200Y-74111781D01*
X126704959Y-74091897D01*
X126904837Y-73892019D01*
X127061880Y-73656987D01*
X127170053Y-73395834D01*
X127225200Y-73118595D01*
X127225200Y-72835925D01*
X127170053Y-72558686D01*
X127061880Y-72297533D01*
X126904837Y-72062501D01*
X126704959Y-71862623D01*
X126690440Y-71852922D01*
X126690440Y-71366890D01*
X126914105Y-71411380D01*
X127196775Y-71411380D01*
X127474014Y-71356233D01*
X127735167Y-71248060D01*
X127970199Y-71091017D01*
X128170077Y-70891139D01*
X128327120Y-70656107D01*
X128435293Y-70394954D01*
X128490440Y-70117715D01*
X128490440Y-69835045D01*
X128435293Y-69557806D01*
X128327120Y-69296653D01*
X128170077Y-69061621D01*
X127970199Y-68861743D01*
X127735167Y-68704700D01*
X127474014Y-68596527D01*
X127196775Y-68541380D01*
X126914105Y-68541380D01*
X126675200Y-68588902D01*
X126675200Y-67805185D01*
X126764682Y-67796372D01*
X126884380Y-67760062D01*
X126994694Y-67701097D01*
X127091385Y-67621745D01*
X127170737Y-67525054D01*
X127229702Y-67414740D01*
X127254166Y-67334094D01*
X127329931Y-67418148D01*
X127563280Y-67592201D01*
X127826101Y-67717385D01*
X127973310Y-67762036D01*
X128203200Y-67640715D01*
X128203200Y-66447560D01*
X128183200Y-66447560D01*
X128183200Y-66193560D01*
X128203200Y-66193560D01*
X128203200Y-65000405D01*
X127973310Y-64879084D01*
X127826101Y-64923735D01*
X127563280Y-65048919D01*
X127329931Y-65222972D01*
X127254166Y-65307026D01*
X127229702Y-65226380D01*
X127170737Y-65116066D01*
X127091385Y-65019375D01*
X126994694Y-64940023D01*
X126884380Y-64881058D01*
X126764682Y-64844748D01*
X126640200Y-64832488D01*
X124940200Y-64832488D01*
X124815718Y-64844748D01*
X124696020Y-64881058D01*
X124585706Y-64940023D01*
X124489015Y-65019375D01*
X124409663Y-65116066D01*
X124350698Y-65226380D01*
X124314388Y-65346078D01*
X124302128Y-65470560D01*
X124302128Y-67170560D01*
X124314388Y-67295042D01*
X124350698Y-67414740D01*
X124409663Y-67525054D01*
X124489015Y-67621745D01*
X124585706Y-67701097D01*
X124696020Y-67760062D01*
X124815718Y-67796372D01*
X124905200Y-67805185D01*
X124905201Y-68852041D01*
X124890681Y-68861743D01*
X124690803Y-69061621D01*
X124533760Y-69296653D01*
X124425587Y-69557806D01*
X124370440Y-69835045D01*
X124370440Y-70117715D01*
X124425587Y-70394954D01*
X124533760Y-70656107D01*
X124690803Y-70891139D01*
X124890681Y-71091017D01*
X124920440Y-71110902D01*
X124920441Y-71832555D01*
X124875441Y-71862623D01*
X124675563Y-72062501D01*
X124518520Y-72297533D01*
X124410347Y-72558686D01*
X124355200Y-72835925D01*
X124355200Y-73118595D01*
X124410347Y-73395834D01*
X124518520Y-73656987D01*
X124675563Y-73892019D01*
X124875441Y-74091897D01*
X124905200Y-74111781D01*
X124905201Y-81741200D01*
X123966639Y-82679763D01*
X123931535Y-82672780D01*
X123648865Y-82672780D01*
X123371626Y-82727927D01*
X123110473Y-82836100D01*
X122875441Y-82993143D01*
X122675563Y-83193021D01*
X122518520Y-83428053D01*
X122410347Y-83689206D01*
X122355200Y-83966445D01*
X112152240Y-83966445D01*
X112152240Y-82546021D01*
X112181999Y-82526137D01*
X112381877Y-82326259D01*
X112538920Y-82091227D01*
X112647093Y-81830074D01*
X112702240Y-81552835D01*
X112702240Y-81270165D01*
X112695257Y-81235061D01*
X117933412Y-75996907D01*
X121871929Y-72058390D01*
X121905697Y-72030677D01*
X121938333Y-71990911D01*
X122016290Y-71895920D01*
X122016291Y-71895919D01*
X122098469Y-71742173D01*
X122149075Y-71575350D01*
X122161880Y-71445337D01*
X122161880Y-71445327D01*
X122166161Y-71401861D01*
X122161880Y-71358395D01*
X122161880Y-67300787D01*
X122230704Y-67244304D01*
X122330166Y-67123110D01*
X122404073Y-66984839D01*
X122449585Y-66834808D01*
X122464952Y-66678780D01*
X122464952Y-65302180D01*
X122449585Y-65146152D01*
X122404073Y-64996121D01*
X122330166Y-64857850D01*
X122230704Y-64736656D01*
X122109510Y-64637194D01*
X121971239Y-64563287D01*
X121821208Y-64517775D01*
X121665180Y-64502408D01*
X120888580Y-64502408D01*
X120732552Y-64517775D01*
X120582521Y-64563287D01*
X120444250Y-64637194D01*
X120395293Y-64677372D01*
X120232554Y-64590386D01*
X120009180Y-64522627D01*
X119776880Y-64499747D01*
X119544581Y-64522627D01*
X119321207Y-64590386D01*
X119115345Y-64700422D01*
X119026880Y-64773023D01*
X118938416Y-64700422D01*
X118732554Y-64590386D01*
X118509180Y-64522627D01*
X118276880Y-64499747D01*
X118044581Y-64522627D01*
X117821207Y-64590386D01*
X117615345Y-64700422D01*
X117531548Y-64769193D01*
X117524999Y-64762755D01*
X117329634Y-64634630D01*
X117113027Y-64547081D01*
X117086624Y-64546677D01*
X116903880Y-64672119D01*
X116903880Y-65863480D01*
X116923880Y-65863480D01*
X116923880Y-66117480D01*
X116903880Y-66117480D01*
X116903880Y-67308841D01*
X117086624Y-67434283D01*
X117113027Y-67433879D01*
X117329634Y-67346330D01*
X117524999Y-67218205D01*
X117531548Y-67211768D01*
X117615344Y-67280538D01*
X117821206Y-67390574D01*
X118044580Y-67458333D01*
X118276880Y-67481213D01*
X118509179Y-67458333D01*
X118732553Y-67390574D01*
X118938415Y-67280538D01*
X119016880Y-67216143D01*
X119016880Y-67535520D01*
X112359093Y-67535520D01*
X112421734Y-67502037D01*
X112518425Y-67422685D01*
X112597777Y-67325994D01*
X112656742Y-67215680D01*
X112693052Y-67095982D01*
X112705312Y-66971500D01*
X112702240Y-66457250D01*
X112543490Y-66298500D01*
X111394240Y-66298500D01*
X111394240Y-66318500D01*
X111140240Y-66318500D01*
X111140240Y-66298500D01*
X111120240Y-66298500D01*
X111120240Y-66117480D01*
X114091880Y-66117480D01*
X114091880Y-66417480D01*
X114139426Y-66646222D01*
X114230684Y-66861293D01*
X114362146Y-67054428D01*
X114528761Y-67218205D01*
X114724126Y-67346330D01*
X114940733Y-67433879D01*
X114967136Y-67434283D01*
X115149880Y-67308841D01*
X115149880Y-66117480D01*
X115403880Y-66117480D01*
X115403880Y-67308841D01*
X115586624Y-67434283D01*
X115613027Y-67433879D01*
X115829634Y-67346330D01*
X116024999Y-67218205D01*
X116026880Y-67216356D01*
X116028761Y-67218205D01*
X116224126Y-67346330D01*
X116440733Y-67433879D01*
X116467136Y-67434283D01*
X116649880Y-67308841D01*
X116649880Y-66117480D01*
X115403880Y-66117480D01*
X115149880Y-66117480D01*
X114091880Y-66117480D01*
X111120240Y-66117480D01*
X111120240Y-66044500D01*
X111140240Y-66044500D01*
X111140240Y-64895250D01*
X111394240Y-64895250D01*
X111394240Y-66044500D01*
X112543490Y-66044500D01*
X112702240Y-65885750D01*
X112704165Y-65563480D01*
X114091880Y-65563480D01*
X114091880Y-65863480D01*
X115149880Y-65863480D01*
X115149880Y-64672119D01*
X115403880Y-64672119D01*
X115403880Y-65863480D01*
X116649880Y-65863480D01*
X116649880Y-64672119D01*
X116467136Y-64546677D01*
X116440733Y-64547081D01*
X116224126Y-64634630D01*
X116028761Y-64762755D01*
X116026880Y-64764604D01*
X116024999Y-64762755D01*
X115829634Y-64634630D01*
X115613027Y-64547081D01*
X115586624Y-64546677D01*
X115403880Y-64672119D01*
X115149880Y-64672119D01*
X114967136Y-64546677D01*
X114940733Y-64547081D01*
X114724126Y-64634630D01*
X114528761Y-64762755D01*
X114362146Y-64926532D01*
X114230684Y-65119667D01*
X114139426Y-65334738D01*
X114091880Y-65563480D01*
X112704165Y-65563480D01*
X112705312Y-65371500D01*
X112693052Y-65247018D01*
X112656742Y-65127320D01*
X112597777Y-65017006D01*
X112518425Y-64920315D01*
X112421734Y-64840963D01*
X112311420Y-64781998D01*
X112191722Y-64745688D01*
X112067240Y-64733428D01*
X111552990Y-64736500D01*
X111394240Y-64895250D01*
X111140240Y-64895250D01*
X110981490Y-64736500D01*
X110467240Y-64733428D01*
X110342758Y-64745688D01*
X110223060Y-64781998D01*
X110112746Y-64840963D01*
X110016055Y-64920315D01*
X109936703Y-65017006D01*
X109877738Y-65127320D01*
X109841428Y-65247018D01*
X109840597Y-65255461D01*
X109641999Y-65056863D01*
X109406967Y-64899820D01*
X109145814Y-64791647D01*
X108868575Y-64736500D01*
X108585905Y-64736500D01*
X108308666Y-64791647D01*
X108047513Y-64899820D01*
X107812481Y-65056863D01*
X107612603Y-65256741D01*
X107457240Y-65489259D01*
X107301877Y-65256741D01*
X107101999Y-65056863D01*
X106866967Y-64899820D01*
X106605814Y-64791647D01*
X106328575Y-64736500D01*
X106045905Y-64736500D01*
X105768666Y-64791647D01*
X105507513Y-64899820D01*
X105272481Y-65056863D01*
X105072603Y-65256741D01*
X104917240Y-65489259D01*
X104761877Y-65256741D01*
X104561999Y-65056863D01*
X104326967Y-64899820D01*
X104065814Y-64791647D01*
X103788575Y-64736500D01*
X103505905Y-64736500D01*
X103228666Y-64791647D01*
X102967513Y-64899820D01*
X102732481Y-65056863D01*
X102532603Y-65256741D01*
X102377240Y-65489259D01*
X102221877Y-65256741D01*
X102021999Y-65056863D01*
X101786967Y-64899820D01*
X101525814Y-64791647D01*
X101248575Y-64736500D01*
X100965905Y-64736500D01*
X100688666Y-64791647D01*
X100427513Y-64899820D01*
X100192481Y-65056863D01*
X99992603Y-65256741D01*
X99837240Y-65489259D01*
X99681877Y-65256741D01*
X99481999Y-65056863D01*
X99246967Y-64899820D01*
X98985814Y-64791647D01*
X98708575Y-64736500D01*
X98425905Y-64736500D01*
X98148666Y-64791647D01*
X97887513Y-64899820D01*
X97652481Y-65056863D01*
X97452603Y-65256741D01*
X97297240Y-65489259D01*
X97141877Y-65256741D01*
X96941999Y-65056863D01*
X96706967Y-64899820D01*
X96445814Y-64791647D01*
X96168575Y-64736500D01*
X95885905Y-64736500D01*
X95608666Y-64791647D01*
X95347513Y-64899820D01*
X95112481Y-65056863D01*
X94912603Y-65256741D01*
X94757240Y-65489259D01*
X94601877Y-65256741D01*
X94401999Y-65056863D01*
X94166967Y-64899820D01*
X93905814Y-64791647D01*
X93628575Y-64736500D01*
X93345905Y-64736500D01*
X93068666Y-64791647D01*
X92807513Y-64899820D01*
X92572481Y-65056863D01*
X92372603Y-65256741D01*
X92217240Y-65489259D01*
X92061877Y-65256741D01*
X91861999Y-65056863D01*
X91626967Y-64899820D01*
X91365814Y-64791647D01*
X91088575Y-64736500D01*
X90805905Y-64736500D01*
X90528666Y-64791647D01*
X90267513Y-64899820D01*
X90032481Y-65056863D01*
X89832603Y-65256741D01*
X89677240Y-65489259D01*
X89521877Y-65256741D01*
X89321999Y-65056863D01*
X89086967Y-64899820D01*
X88825814Y-64791647D01*
X88548575Y-64736500D01*
X88265905Y-64736500D01*
X87988666Y-64791647D01*
X87727513Y-64899820D01*
X87492481Y-65056863D01*
X87292603Y-65256741D01*
X87137240Y-65489259D01*
X86981877Y-65256741D01*
X86781999Y-65056863D01*
X86546967Y-64899820D01*
X86285814Y-64791647D01*
X86008575Y-64736500D01*
X85725905Y-64736500D01*
X85448666Y-64791647D01*
X85187513Y-64899820D01*
X84952481Y-65056863D01*
X84752603Y-65256741D01*
X84597240Y-65489259D01*
X84441877Y-65256741D01*
X84241999Y-65056863D01*
X84006967Y-64899820D01*
X83745814Y-64791647D01*
X83468575Y-64736500D01*
X83185905Y-64736500D01*
X82908666Y-64791647D01*
X82647513Y-64899820D01*
X82412481Y-65056863D01*
X82212603Y-65256741D01*
X82057240Y-65489259D01*
X81901877Y-65256741D01*
X81701999Y-65056863D01*
X81466967Y-64899820D01*
X81205814Y-64791647D01*
X80928575Y-64736500D01*
X80645905Y-64736500D01*
X80368666Y-64791647D01*
X80107513Y-64899820D01*
X79872481Y-65056863D01*
X79672603Y-65256741D01*
X79517240Y-65489259D01*
X79361877Y-65256741D01*
X79161999Y-65056863D01*
X78926967Y-64899820D01*
X78665814Y-64791647D01*
X78388575Y-64736500D01*
X78105905Y-64736500D01*
X77828666Y-64791647D01*
X77567513Y-64899820D01*
X77332481Y-65056863D01*
X77132603Y-65256741D01*
X76975560Y-65491773D01*
X76867387Y-65752926D01*
X76812240Y-66030165D01*
X76812240Y-66312835D01*
X76867387Y-66590074D01*
X76975560Y-66851227D01*
X77132603Y-67086259D01*
X77332481Y-67286137D01*
X77564999Y-67441500D01*
X77332481Y-67596863D01*
X77132603Y-67796741D01*
X76975560Y-68031773D01*
X76867387Y-68292926D01*
X76813110Y-68565792D01*
X76003674Y-67756356D01*
X75975957Y-67722583D01*
X75841199Y-67611989D01*
X75687453Y-67529811D01*
X75520630Y-67479205D01*
X75390617Y-67466400D01*
X75390609Y-67466400D01*
X75347140Y-67462119D01*
X75303671Y-67466400D01*
X72666001Y-67466400D01*
X72646117Y-67436641D01*
X72446239Y-67236763D01*
X72211207Y-67079720D01*
X71950054Y-66971547D01*
X71672815Y-66916400D01*
X71390145Y-66916400D01*
X71112906Y-66971547D01*
X70906480Y-67057051D01*
X70700054Y-66971547D01*
X70422815Y-66916400D01*
X70140145Y-66916400D01*
X69862906Y-66971547D01*
X69601753Y-67079720D01*
X69366721Y-67236763D01*
X69166843Y-67436641D01*
X69009800Y-67671673D01*
X68901627Y-67932826D01*
X68846480Y-68210065D01*
X68846480Y-68492735D01*
X68901627Y-68769974D01*
X69009800Y-69031127D01*
X69166843Y-69266159D01*
X69366721Y-69466037D01*
X69601753Y-69623080D01*
X69862906Y-69731253D01*
X70140145Y-69786400D01*
X70422815Y-69786400D01*
X70700054Y-69731253D01*
X70906480Y-69645749D01*
X71112906Y-69731253D01*
X71390145Y-69786400D01*
X71672815Y-69786400D01*
X71950054Y-69731253D01*
X72211207Y-69623080D01*
X72446239Y-69466037D01*
X72646117Y-69266159D01*
X72666001Y-69236400D01*
X74980562Y-69236400D01*
X76819223Y-71075061D01*
X76812240Y-71110165D01*
X76812240Y-71392835D01*
X76867387Y-71670074D01*
X76975560Y-71931227D01*
X77132603Y-72166259D01*
X77332481Y-72366137D01*
X77566368Y-72522415D01*
X77505726Y-72554829D01*
X77434143Y-72798798D01*
X78247240Y-73611895D01*
X79060337Y-72798798D01*
X78988754Y-72554829D01*
X78924248Y-72524306D01*
X78926967Y-72523180D01*
X79161999Y-72366137D01*
X79361877Y-72166259D01*
X79381761Y-72136500D01*
X94016166Y-72136500D01*
X94064364Y-72168705D01*
X94252722Y-72246726D01*
X94452681Y-72286500D01*
X94656559Y-72286500D01*
X94856518Y-72246726D01*
X95044876Y-72168705D01*
X95214394Y-72055437D01*
X95358557Y-71911274D01*
X95471825Y-71741756D01*
X95549846Y-71553398D01*
X95589620Y-71353439D01*
X95589620Y-71149561D01*
X95549846Y-70949602D01*
X95471825Y-70761244D01*
X95358557Y-70591726D01*
X95214394Y-70447563D01*
X95044876Y-70334295D01*
X94856518Y-70256274D01*
X94656559Y-70216500D01*
X94452681Y-70216500D01*
X94252722Y-70256274D01*
X94064364Y-70334295D01*
X94016166Y-70366500D01*
X79381761Y-70366500D01*
X79361877Y-70336741D01*
X79161999Y-70136863D01*
X78929481Y-69981500D01*
X79161999Y-69826137D01*
X79361877Y-69626259D01*
X79518920Y-69391227D01*
X79627093Y-69130074D01*
X79682240Y-68852835D01*
X79682240Y-68570165D01*
X79627093Y-68292926D01*
X79518920Y-68031773D01*
X79361877Y-67796741D01*
X79161999Y-67596863D01*
X78929481Y-67441500D01*
X79161999Y-67286137D01*
X79361877Y-67086259D01*
X79517240Y-66853741D01*
X79672603Y-67086259D01*
X79872481Y-67286137D01*
X80107513Y-67443180D01*
X80368666Y-67551353D01*
X80645905Y-67606500D01*
X80928575Y-67606500D01*
X81205814Y-67551353D01*
X81466967Y-67443180D01*
X81701999Y-67286137D01*
X81901877Y-67086259D01*
X82057240Y-66853741D01*
X82212603Y-67086259D01*
X82412481Y-67286137D01*
X82647513Y-67443180D01*
X82908666Y-67551353D01*
X83185905Y-67606500D01*
X83468575Y-67606500D01*
X83745814Y-67551353D01*
X84006967Y-67443180D01*
X84241999Y-67286137D01*
X84441877Y-67086259D01*
X84597240Y-66853741D01*
X84752603Y-67086259D01*
X84952481Y-67286137D01*
X85187513Y-67443180D01*
X85448666Y-67551353D01*
X85725905Y-67606500D01*
X86008575Y-67606500D01*
X86285814Y-67551353D01*
X86546967Y-67443180D01*
X86781999Y-67286137D01*
X86981877Y-67086259D01*
X87137240Y-66853741D01*
X87292603Y-67086259D01*
X87492481Y-67286137D01*
X87727513Y-67443180D01*
X87988666Y-67551353D01*
X88265905Y-67606500D01*
X88548575Y-67606500D01*
X88825814Y-67551353D01*
X89086967Y-67443180D01*
X89321999Y-67286137D01*
X89521877Y-67086259D01*
X89677240Y-66853741D01*
X89832603Y-67086259D01*
X90032481Y-67286137D01*
X90267513Y-67443180D01*
X90528666Y-67551353D01*
X90805905Y-67606500D01*
X91088575Y-67606500D01*
X91365814Y-67551353D01*
X91626967Y-67443180D01*
X91861999Y-67286137D01*
X92061877Y-67086259D01*
X92217240Y-66853741D01*
X92372603Y-67086259D01*
X92572481Y-67286137D01*
X92807513Y-67443180D01*
X93068666Y-67551353D01*
X93345905Y-67606500D01*
X93628575Y-67606500D01*
X93905814Y-67551353D01*
X94166967Y-67443180D01*
X94401999Y-67286137D01*
X94601877Y-67086259D01*
X94757240Y-66853741D01*
X94912603Y-67086259D01*
X95112481Y-67286137D01*
X95347513Y-67443180D01*
X95608666Y-67551353D01*
X95885905Y-67606500D01*
X96168575Y-67606500D01*
X96445814Y-67551353D01*
X96706967Y-67443180D01*
X96941999Y-67286137D01*
X97141877Y-67086259D01*
X97297240Y-66853741D01*
X97452603Y-67086259D01*
X97652481Y-67286137D01*
X97887513Y-67443180D01*
X98148666Y-67551353D01*
X98425905Y-67606500D01*
X98708575Y-67606500D01*
X98985814Y-67551353D01*
X99246967Y-67443180D01*
X99481999Y-67286137D01*
X99681877Y-67086259D01*
X99837240Y-66853741D01*
X99992603Y-67086259D01*
X100192481Y-67286137D01*
X100427513Y-67443180D01*
X100688666Y-67551353D01*
X100798904Y-67573281D01*
X100743873Y-67589974D01*
X100611843Y-67660546D01*
X100588073Y-67680054D01*
X100496119Y-67755519D01*
X100472321Y-67784517D01*
X90436238Y-77820601D01*
X90407240Y-77844399D01*
X90383442Y-77873397D01*
X90383441Y-77873398D01*
X90312266Y-77960124D01*
X90241694Y-78092154D01*
X90219568Y-78165096D01*
X90202327Y-78221936D01*
X90198238Y-78235415D01*
X90183564Y-78384400D01*
X90187241Y-78421732D01*
X90187240Y-80193456D01*
X90032481Y-80296863D01*
X89832603Y-80496741D01*
X89677240Y-80729259D01*
X89521877Y-80496741D01*
X89321999Y-80296863D01*
X89086967Y-80139820D01*
X88825814Y-80031647D01*
X88548575Y-79976500D01*
X88265905Y-79976500D01*
X87988666Y-80031647D01*
X87727513Y-80139820D01*
X87492481Y-80296863D01*
X87292603Y-80496741D01*
X87137240Y-80729259D01*
X86981877Y-80496741D01*
X86781999Y-80296863D01*
X86546967Y-80139820D01*
X86285814Y-80031647D01*
X86008575Y-79976500D01*
X85725905Y-79976500D01*
X85448666Y-80031647D01*
X85187513Y-80139820D01*
X84952481Y-80296863D01*
X84752603Y-80496741D01*
X84597240Y-80729259D01*
X84441877Y-80496741D01*
X84241999Y-80296863D01*
X84006967Y-80139820D01*
X83745814Y-80031647D01*
X83468575Y-79976500D01*
X83185905Y-79976500D01*
X82908666Y-80031647D01*
X82647513Y-80139820D01*
X82412481Y-80296863D01*
X82212603Y-80496741D01*
X82057240Y-80729259D01*
X81901877Y-80496741D01*
X81701999Y-80296863D01*
X81466967Y-80139820D01*
X81205814Y-80031647D01*
X80928575Y-79976500D01*
X80645905Y-79976500D01*
X80368666Y-80031647D01*
X80107513Y-80139820D01*
X79872481Y-80296863D01*
X79672603Y-80496741D01*
X79517240Y-80729259D01*
X79361877Y-80496741D01*
X79161999Y-80296863D01*
X78929481Y-80141500D01*
X79161999Y-79986137D01*
X79361877Y-79786259D01*
X79518920Y-79551227D01*
X79627093Y-79290074D01*
X79682240Y-79012835D01*
X79682240Y-78730165D01*
X79627093Y-78452926D01*
X79518920Y-78191773D01*
X79361877Y-77956741D01*
X79161999Y-77756863D01*
X78929481Y-77601500D01*
X79161999Y-77446137D01*
X79361877Y-77246259D01*
X79518920Y-77011227D01*
X79627093Y-76750074D01*
X79682240Y-76472835D01*
X79682240Y-76190165D01*
X79627093Y-75912926D01*
X79518920Y-75651773D01*
X79361877Y-75416741D01*
X79161999Y-75216863D01*
X78928112Y-75060585D01*
X78988754Y-75028171D01*
X79060337Y-74784202D01*
X78247240Y-73971105D01*
X77434143Y-74784202D01*
X77505726Y-75028171D01*
X77570232Y-75058694D01*
X77567513Y-75059820D01*
X77332481Y-75216863D01*
X77132603Y-75416741D01*
X76975560Y-75651773D01*
X76867387Y-75912926D01*
X76812240Y-76190165D01*
X76812240Y-76472835D01*
X76867387Y-76750074D01*
X76975560Y-77011227D01*
X77132603Y-77246259D01*
X77332481Y-77446137D01*
X77564999Y-77601500D01*
X77332481Y-77756863D01*
X77132603Y-77956741D01*
X76975560Y-78191773D01*
X76867387Y-78452926D01*
X76812240Y-78730165D01*
X76812240Y-79012835D01*
X76867387Y-79290074D01*
X76975560Y-79551227D01*
X77132603Y-79786259D01*
X77332481Y-79986137D01*
X77564999Y-80141500D01*
X77332481Y-80296863D01*
X77132603Y-80496741D01*
X76975560Y-80731773D01*
X76867387Y-80992926D01*
X76812240Y-81270165D01*
X76812240Y-81552835D01*
X76867387Y-81830074D01*
X76975560Y-82091227D01*
X77132603Y-82326259D01*
X77332481Y-82526137D01*
X77479630Y-82624459D01*
X65268380Y-82613634D01*
X65268380Y-78090300D01*
X66387422Y-78090300D01*
X66512125Y-78276932D01*
X66718968Y-78483775D01*
X66893360Y-78600300D01*
X66718968Y-78716825D01*
X66512125Y-78923668D01*
X66349610Y-79166889D01*
X66237668Y-79437142D01*
X66180600Y-79724040D01*
X66180600Y-80016560D01*
X66237668Y-80303458D01*
X66349610Y-80573711D01*
X66512125Y-80816932D01*
X66718968Y-81023775D01*
X66962189Y-81186290D01*
X67232442Y-81298232D01*
X67519340Y-81355300D01*
X67811860Y-81355300D01*
X68098758Y-81298232D01*
X68369011Y-81186290D01*
X68612232Y-81023775D01*
X68819075Y-80816932D01*
X68935600Y-80642540D01*
X69052125Y-80816932D01*
X69258968Y-81023775D01*
X69502189Y-81186290D01*
X69772442Y-81298232D01*
X70059340Y-81355300D01*
X70351860Y-81355300D01*
X70638758Y-81298232D01*
X70909011Y-81186290D01*
X71152232Y-81023775D01*
X71359075Y-80816932D01*
X71521590Y-80573711D01*
X71633532Y-80303458D01*
X71690600Y-80016560D01*
X71690600Y-79724040D01*
X71633532Y-79437142D01*
X71521590Y-79166889D01*
X71359075Y-78923668D01*
X71152232Y-78716825D01*
X70977840Y-78600300D01*
X71152232Y-78483775D01*
X71359075Y-78276932D01*
X71521590Y-78033711D01*
X71633532Y-77763458D01*
X71690600Y-77476560D01*
X71690600Y-77184040D01*
X71633532Y-76897142D01*
X71521590Y-76626889D01*
X71359075Y-76383668D01*
X71152232Y-76176825D01*
X70970066Y-76055105D01*
X71086955Y-75985478D01*
X71303188Y-75790569D01*
X71477241Y-75557220D01*
X71602425Y-75294399D01*
X71647076Y-75147190D01*
X71525755Y-74917300D01*
X70332600Y-74917300D01*
X70332600Y-74937300D01*
X70078600Y-74937300D01*
X70078600Y-74917300D01*
X67792600Y-74917300D01*
X67792600Y-74937300D01*
X67538600Y-74937300D01*
X67538600Y-74917300D01*
X66339350Y-74917300D01*
X66180600Y-75076050D01*
X66177528Y-75640300D01*
X66189788Y-75764782D01*
X66226098Y-75884480D01*
X66285063Y-75994794D01*
X66364415Y-76091485D01*
X66461106Y-76170837D01*
X66571420Y-76229802D01*
X66643980Y-76251813D01*
X66512125Y-76383668D01*
X66387422Y-76570300D01*
X64616823Y-76570300D01*
X64579500Y-76566624D01*
X64542178Y-76570300D01*
X64542167Y-76570300D01*
X64430514Y-76581297D01*
X64287253Y-76624754D01*
X64155224Y-76695326D01*
X64039499Y-76790299D01*
X64015696Y-76819303D01*
X63997382Y-76837617D01*
X63968379Y-76861419D01*
X63873406Y-76977144D01*
X63802834Y-77109173D01*
X63759377Y-77252434D01*
X63748380Y-77364087D01*
X63748380Y-77364098D01*
X63744704Y-77401420D01*
X63748380Y-77438742D01*
X63748380Y-77760328D01*
X63748381Y-83335287D01*
X63744704Y-83372284D01*
X63748381Y-83409958D01*
X63748381Y-83410293D01*
X63751981Y-83446841D01*
X63759246Y-83521281D01*
X63759345Y-83521607D01*
X63759378Y-83521946D01*
X63781007Y-83593248D01*
X63802576Y-83664581D01*
X63802736Y-83664881D01*
X63802835Y-83665207D01*
X63838056Y-83731100D01*
X63873031Y-83796672D01*
X63873245Y-83796934D01*
X63873407Y-83797236D01*
X63920732Y-83854901D01*
X63967901Y-83912482D01*
X63968165Y-83912699D01*
X63968380Y-83912961D01*
X64026010Y-83960257D01*
X64083542Y-84007557D01*
X64083840Y-84007717D01*
X64084105Y-84007934D01*
X64150163Y-84043243D01*
X64215508Y-84078246D01*
X64215832Y-84078345D01*
X64216134Y-84078506D01*
X64287993Y-84100304D01*
X64358731Y-84121830D01*
X64359066Y-84121863D01*
X64359395Y-84121963D01*
X64434255Y-84129336D01*
X64470374Y-84132926D01*
X64470705Y-84132926D01*
X64508380Y-84136637D01*
X64545383Y-84132992D01*
X95989563Y-84160866D01*
X96027240Y-84164577D01*
X96102338Y-84157180D01*
X96175561Y-84150034D01*
X96175883Y-84149937D01*
X96176225Y-84149903D01*
X96248247Y-84128056D01*
X96318861Y-84106704D01*
X96319158Y-84106545D01*
X96319486Y-84106446D01*
X96385790Y-84071005D01*
X96450952Y-84036249D01*
X96451212Y-84036036D01*
X96451515Y-84035874D01*
X96509858Y-83987993D01*
X96566761Y-83941379D01*
X96566974Y-83941121D01*
X96567241Y-83940901D01*
X96615265Y-83882383D01*
X96661837Y-83825738D01*
X96661995Y-83825443D01*
X96662214Y-83825176D01*
X96697774Y-83758649D01*
X96732526Y-83693772D01*
X96732624Y-83693450D01*
X96732786Y-83693147D01*
X96754679Y-83620973D01*
X96776110Y-83550549D01*
X96776143Y-83550215D01*
X96776243Y-83549886D01*
X96783632Y-83474864D01*
X96790916Y-83401576D01*
X96787240Y-83363912D01*
X96787240Y-82629543D01*
X96941999Y-82526137D01*
X97141877Y-82326259D01*
X97297240Y-82093741D01*
X97452603Y-82326259D01*
X97652481Y-82526137D01*
X97887513Y-82683180D01*
X98148666Y-82791353D01*
X98425905Y-82846500D01*
X98708575Y-82846500D01*
X98985814Y-82791353D01*
X99246967Y-82683180D01*
X99481999Y-82526137D01*
X99681877Y-82326259D01*
X99837240Y-82093741D01*
X99992603Y-82326259D01*
X100192481Y-82526137D01*
X100427513Y-82683180D01*
X100688666Y-82791353D01*
X100965905Y-82846500D01*
X101248575Y-82846500D01*
X101525814Y-82791353D01*
X101786967Y-82683180D01*
X102021999Y-82526137D01*
X102221877Y-82326259D01*
X102377240Y-82093741D01*
X102532603Y-82326259D01*
X102732481Y-82526137D01*
X102967513Y-82683180D01*
X103228666Y-82791353D01*
X103505905Y-82846500D01*
X103788575Y-82846500D01*
X104065814Y-82791353D01*
X104326967Y-82683180D01*
X104561999Y-82526137D01*
X104761877Y-82326259D01*
X104917240Y-82093741D01*
X105072603Y-82326259D01*
X105272481Y-82526137D01*
X105507513Y-82683180D01*
X105768666Y-82791353D01*
X106045905Y-82846500D01*
X106328575Y-82846500D01*
X106605814Y-82791353D01*
X106866967Y-82683180D01*
X107101999Y-82526137D01*
X107223934Y-82404202D01*
X107914143Y-82404202D01*
X107985726Y-82648171D01*
X108241236Y-82769071D01*
X108515424Y-82837800D01*
X108797752Y-82851717D01*
X109077370Y-82810287D01*
X109343532Y-82715103D01*
X109468754Y-82648171D01*
X109540337Y-82404202D01*
X108727240Y-81591105D01*
X107914143Y-82404202D01*
X107223934Y-82404202D01*
X107301877Y-82326259D01*
X107458155Y-82092372D01*
X107490569Y-82153014D01*
X107734538Y-82224597D01*
X108547635Y-81411500D01*
X107734538Y-80598403D01*
X107490569Y-80669986D01*
X107460046Y-80734492D01*
X107458920Y-80731773D01*
X107301877Y-80496741D01*
X107101999Y-80296863D01*
X107072240Y-80276979D01*
X107072240Y-78730165D01*
X107292240Y-78730165D01*
X107292240Y-79012835D01*
X107347387Y-79290074D01*
X107455560Y-79551227D01*
X107612603Y-79786259D01*
X107812481Y-79986137D01*
X108046368Y-80142415D01*
X107985726Y-80174829D01*
X107914143Y-80418798D01*
X108727240Y-81231895D01*
X109540337Y-80418798D01*
X109468754Y-80174829D01*
X109404248Y-80144306D01*
X109406967Y-80143180D01*
X109641999Y-79986137D01*
X109841877Y-79786259D01*
X109998920Y-79551227D01*
X110107093Y-79290074D01*
X110162240Y-79012835D01*
X110162240Y-78730165D01*
X110107093Y-78452926D01*
X109998920Y-78191773D01*
X109841877Y-77956741D01*
X109641999Y-77756863D01*
X109406967Y-77599820D01*
X109145814Y-77491647D01*
X108868575Y-77436500D01*
X108585905Y-77436500D01*
X108308666Y-77491647D01*
X108047513Y-77599820D01*
X107812481Y-77756863D01*
X107612603Y-77956741D01*
X107455560Y-78191773D01*
X107347387Y-78452926D01*
X107292240Y-78730165D01*
X107072240Y-78730165D01*
X107072240Y-77084209D01*
X107076521Y-77040740D01*
X107072240Y-76997271D01*
X107072240Y-76997263D01*
X107059435Y-76867250D01*
X107028856Y-76766446D01*
X107008829Y-76700426D01*
X106926651Y-76546681D01*
X106843772Y-76445693D01*
X106843770Y-76445691D01*
X106816057Y-76411923D01*
X106782291Y-76384212D01*
X101450835Y-71052757D01*
X101439526Y-70995902D01*
X101361505Y-70807544D01*
X101248237Y-70638026D01*
X101104074Y-70493863D01*
X100934556Y-70380595D01*
X100746198Y-70302574D01*
X100546239Y-70262800D01*
X100342361Y-70262800D01*
X100142402Y-70302574D01*
X100076620Y-70329822D01*
X101350922Y-69055520D01*
X119416338Y-69055520D01*
X119453660Y-69059196D01*
X119490982Y-69055520D01*
X119490993Y-69055520D01*
X119602646Y-69044523D01*
X119745907Y-69001066D01*
X119877936Y-68930494D01*
X119993661Y-68835521D01*
X120017464Y-68806517D01*
X120287878Y-68536103D01*
X120316881Y-68512301D01*
X120391880Y-68420914D01*
X120391881Y-71035280D01*
X116681833Y-74745328D01*
X111443679Y-79983483D01*
X111408575Y-79976500D01*
X111125905Y-79976500D01*
X110848666Y-80031647D01*
X110587513Y-80139820D01*
X110352481Y-80296863D01*
X110152603Y-80496741D01*
X109996325Y-80730628D01*
X109963911Y-80669986D01*
X109719942Y-80598403D01*
X108906845Y-81411500D01*
X109719942Y-82224597D01*
X109963911Y-82153014D01*
X109994434Y-82088508D01*
X109995560Y-82091227D01*
X110152603Y-82326259D01*
X110352481Y-82526137D01*
X110382240Y-82546021D01*
X110382241Y-84629120D01*
X110305368Y-84680485D01*
X110098525Y-84887328D01*
X109936010Y-85130549D01*
X109824068Y-85400802D01*
X109767000Y-85687700D01*
X109767000Y-85980220D01*
X109824068Y-86267118D01*
X109936010Y-86537371D01*
X110098525Y-86780592D01*
X110305368Y-86987435D01*
X110367000Y-87028616D01*
X110367001Y-89070641D01*
X110362719Y-89114120D01*
X110379805Y-89287610D01*
X110430412Y-89454433D01*
X110512590Y-89608179D01*
X110595468Y-89709166D01*
X110595471Y-89709169D01*
X110623184Y-89742937D01*
X110656952Y-89770650D01*
X110666302Y-89780000D01*
X63532279Y-89780000D01*
X63135455Y-89741091D01*
X62784794Y-89635220D01*
X62461377Y-89463257D01*
X62177518Y-89231748D01*
X61944035Y-88949514D01*
X61769816Y-88627304D01*
X61661498Y-88277385D01*
X61620000Y-87882557D01*
X61620000Y-87196495D01*
X62023000Y-87196495D01*
X62023000Y-87587505D01*
X62099282Y-87971003D01*
X62248915Y-88332250D01*
X62466149Y-88657364D01*
X62742636Y-88933851D01*
X63067750Y-89151085D01*
X63428997Y-89300718D01*
X63812495Y-89377000D01*
X64203505Y-89377000D01*
X64587003Y-89300718D01*
X64948250Y-89151085D01*
X65273364Y-88933851D01*
X65549851Y-88657364D01*
X65767085Y-88332250D01*
X65916718Y-87971003D01*
X65993000Y-87587505D01*
X65993000Y-87196495D01*
X65916718Y-86812997D01*
X65767085Y-86451750D01*
X65549851Y-86126636D01*
X65273364Y-85850149D01*
X64948250Y-85632915D01*
X64587003Y-85483282D01*
X64203505Y-85407000D01*
X63812495Y-85407000D01*
X63428997Y-85483282D01*
X63067750Y-85632915D01*
X62742636Y-85850149D01*
X62466149Y-86126636D01*
X62248915Y-86451750D01*
X62099282Y-86812997D01*
X62023000Y-87196495D01*
X61620000Y-87196495D01*
X61620000Y-73940300D01*
X66177528Y-73940300D01*
X66180600Y-74504550D01*
X66339350Y-74663300D01*
X67538600Y-74663300D01*
X67538600Y-73464050D01*
X67792600Y-73464050D01*
X67792600Y-74663300D01*
X70078600Y-74663300D01*
X70078600Y-73469486D01*
X70332600Y-73469486D01*
X70332600Y-74663300D01*
X71525755Y-74663300D01*
X71647076Y-74433410D01*
X71602425Y-74286201D01*
X71477241Y-74023380D01*
X71356879Y-73862012D01*
X76807023Y-73862012D01*
X76848453Y-74141630D01*
X76943637Y-74407792D01*
X77010569Y-74533014D01*
X77254538Y-74604597D01*
X78067635Y-73791500D01*
X78426845Y-73791500D01*
X79239942Y-74604597D01*
X79483911Y-74533014D01*
X79604811Y-74277504D01*
X79673540Y-74003316D01*
X79687457Y-73720988D01*
X79646027Y-73441370D01*
X79550843Y-73175208D01*
X79483911Y-73049986D01*
X79239942Y-72978403D01*
X78426845Y-73791500D01*
X78067635Y-73791500D01*
X77254538Y-72978403D01*
X77010569Y-73049986D01*
X76889669Y-73305496D01*
X76820940Y-73579684D01*
X76807023Y-73862012D01*
X71356879Y-73862012D01*
X71303188Y-73790031D01*
X71086955Y-73595122D01*
X70836852Y-73446143D01*
X70562491Y-73348819D01*
X70332600Y-73469486D01*
X70078600Y-73469486D01*
X69848709Y-73348819D01*
X69574348Y-73446143D01*
X69324245Y-73595122D01*
X69128098Y-73771926D01*
X69105102Y-73696120D01*
X69046137Y-73585806D01*
X68966785Y-73489115D01*
X68870094Y-73409763D01*
X68759780Y-73350798D01*
X68640082Y-73314488D01*
X68515600Y-73302228D01*
X67951350Y-73305300D01*
X67792600Y-73464050D01*
X67538600Y-73464050D01*
X67379850Y-73305300D01*
X66815600Y-73302228D01*
X66691118Y-73314488D01*
X66571420Y-73350798D01*
X66461106Y-73409763D01*
X66364415Y-73489115D01*
X66285063Y-73585806D01*
X66226098Y-73696120D01*
X66189788Y-73815818D01*
X66177528Y-73940300D01*
X61620000Y-73940300D01*
X61620000Y-68421912D01*
X62591263Y-68421912D01*
X62632693Y-68701530D01*
X62727877Y-68967692D01*
X62794809Y-69092914D01*
X63038778Y-69164497D01*
X63844369Y-68358906D01*
X63841263Y-68421912D01*
X63879888Y-68682597D01*
X63218383Y-69344102D01*
X63289966Y-69588071D01*
X63545476Y-69708971D01*
X63819664Y-69777700D01*
X64101992Y-69791617D01*
X64381610Y-69750187D01*
X64647772Y-69655003D01*
X64663572Y-69646558D01*
X64795476Y-69708971D01*
X65069664Y-69777700D01*
X65351992Y-69791617D01*
X65631610Y-69750187D01*
X65897772Y-69655003D01*
X66022994Y-69588071D01*
X66094577Y-69344102D01*
X65428901Y-68678426D01*
X65457780Y-68563216D01*
X65467886Y-68358201D01*
X66274182Y-69164497D01*
X66518151Y-69092914D01*
X66639051Y-68837404D01*
X66707780Y-68563216D01*
X66721697Y-68280888D01*
X66680267Y-68001270D01*
X66585083Y-67735108D01*
X66518151Y-67609886D01*
X66274182Y-67538303D01*
X65468591Y-68343894D01*
X65471697Y-68280888D01*
X65433072Y-68020203D01*
X66094577Y-67358698D01*
X66022994Y-67114729D01*
X65767484Y-66993829D01*
X65493296Y-66925100D01*
X65210968Y-66911183D01*
X64931350Y-66952613D01*
X64665188Y-67047797D01*
X64649388Y-67056242D01*
X64517484Y-66993829D01*
X64243296Y-66925100D01*
X63960968Y-66911183D01*
X63681350Y-66952613D01*
X63415188Y-67047797D01*
X63289966Y-67114729D01*
X63218383Y-67358698D01*
X63884059Y-68024374D01*
X63855180Y-68139584D01*
X63845074Y-68344599D01*
X63038778Y-67538303D01*
X62794809Y-67609886D01*
X62673909Y-67865396D01*
X62605180Y-68139584D01*
X62591263Y-68421912D01*
X61620000Y-68421912D01*
X61620000Y-59732495D01*
X62023000Y-59732495D01*
X62023000Y-60123505D01*
X62099282Y-60507003D01*
X62248915Y-60868250D01*
X62466149Y-61193364D01*
X62742636Y-61469851D01*
X63067750Y-61687085D01*
X63428997Y-61836718D01*
X63812495Y-61913000D01*
X64203505Y-61913000D01*
X64587003Y-61836718D01*
X64948250Y-61687085D01*
X65273364Y-61469851D01*
X65549851Y-61193364D01*
X65767085Y-60868250D01*
X65916718Y-60507003D01*
X65993000Y-60123505D01*
X65993000Y-59732495D01*
X135023000Y-59732495D01*
X135023000Y-60123505D01*
X135099282Y-60507003D01*
X135248915Y-60868250D01*
X135466149Y-61193364D01*
X135742636Y-61469851D01*
X136067750Y-61687085D01*
X136428997Y-61836718D01*
X136812495Y-61913000D01*
X137203505Y-61913000D01*
X137587003Y-61836718D01*
X137948250Y-61687085D01*
X138273364Y-61469851D01*
X138549851Y-61193364D01*
X138767085Y-60868250D01*
X138916718Y-60507003D01*
X138993000Y-60123505D01*
X138993000Y-59732495D01*
X138916718Y-59348997D01*
X138767085Y-58987750D01*
X138549851Y-58662636D01*
X138273364Y-58386149D01*
X137948250Y-58168915D01*
X137587003Y-58019282D01*
X137203505Y-57943000D01*
X136812495Y-57943000D01*
X136428997Y-58019282D01*
X136067750Y-58168915D01*
X135742636Y-58386149D01*
X135466149Y-58662636D01*
X135248915Y-58987750D01*
X135099282Y-59348997D01*
X135023000Y-59732495D01*
X65993000Y-59732495D01*
X65916718Y-59348997D01*
X65767085Y-58987750D01*
X65549851Y-58662636D01*
X65273364Y-58386149D01*
X64948250Y-58168915D01*
X64587003Y-58019282D01*
X64203505Y-57943000D01*
X63812495Y-57943000D01*
X63428997Y-58019282D01*
X63067750Y-58168915D01*
X62742636Y-58386149D01*
X62466149Y-58662636D01*
X62248915Y-58987750D01*
X62099282Y-59348997D01*
X62023000Y-59732495D01*
X61620000Y-59732495D01*
X61620000Y-59452279D01*
X61658909Y-59055455D01*
X61764780Y-58704792D01*
X61936744Y-58381375D01*
X62168254Y-58097516D01*
X62450486Y-57864035D01*
X62772695Y-57689817D01*
X63122614Y-57581498D01*
X63517443Y-57540000D01*
X153339156Y-57540000D01*
X153338720Y-57544424D01*
G36*
X195944545Y-57578909D02*
G01*
X196295208Y-57684780D01*
X196618625Y-57856744D01*
X196902484Y-58088254D01*
X197135965Y-58370486D01*
X197310183Y-58692695D01*
X197418502Y-59042614D01*
X197460000Y-59437443D01*
X197460001Y-87867711D01*
X197421091Y-88264545D01*
X197315220Y-88615206D01*
X197143257Y-88938623D01*
X196911748Y-89222482D01*
X196629514Y-89455965D01*
X196307304Y-89630184D01*
X195957385Y-89738502D01*
X195562557Y-89780000D01*
X188436060Y-89780000D01*
X188436060Y-62255689D01*
X188440341Y-62212220D01*
X188436060Y-62168751D01*
X188436060Y-57826949D01*
X188440341Y-57783480D01*
X188436060Y-57740011D01*
X188436060Y-57740003D01*
X188423255Y-57609990D01*
X188402023Y-57540000D01*
X195547721Y-57540000D01*
X195944545Y-57578909D01*
G37*
X195944545Y-57578909D02*
X196295208Y-57684780D01*
X196618625Y-57856744D01*
X196902484Y-58088254D01*
X197135965Y-58370486D01*
X197310183Y-58692695D01*
X197418502Y-59042614D01*
X197460000Y-59437443D01*
X197460001Y-87867711D01*
X197421091Y-88264545D01*
X197315220Y-88615206D01*
X197143257Y-88938623D01*
X196911748Y-89222482D01*
X196629514Y-89455965D01*
X196307304Y-89630184D01*
X195957385Y-89738502D01*
X195562557Y-89780000D01*
X188436060Y-89780000D01*
X188436060Y-62255689D01*
X188440341Y-62212220D01*
X188436060Y-62168751D01*
X188436060Y-57826949D01*
X188440341Y-57783480D01*
X188436060Y-57740011D01*
X188436060Y-57740003D01*
X188423255Y-57609990D01*
X188402023Y-57540000D01*
X195547721Y-57540000D01*
X195944545Y-57578909D01*
G36*
X99449074Y-70995902D02*
G01*
X99409300Y-71195861D01*
X99409300Y-71399739D01*
X99449074Y-71599698D01*
X99527095Y-71788056D01*
X99640363Y-71957574D01*
X99784526Y-72101737D01*
X99954044Y-72215005D01*
X100142402Y-72293026D01*
X100199257Y-72304335D01*
X105302240Y-77407319D01*
X105302241Y-80276978D01*
X105272481Y-80296863D01*
X105072603Y-80496741D01*
X104917240Y-80729259D01*
X104761877Y-80496741D01*
X104561999Y-80296863D01*
X104326967Y-80139820D01*
X104065814Y-80031647D01*
X103788575Y-79976500D01*
X103505905Y-79976500D01*
X103228666Y-80031647D01*
X102967513Y-80139820D01*
X102732481Y-80296863D01*
X102532603Y-80496741D01*
X102377240Y-80729259D01*
X102221877Y-80496741D01*
X102021999Y-80296863D01*
X101786967Y-80139820D01*
X101525814Y-80031647D01*
X101248575Y-79976500D01*
X100965905Y-79976500D01*
X100688666Y-80031647D01*
X100427513Y-80139820D01*
X100192481Y-80296863D01*
X99992603Y-80496741D01*
X99837240Y-80729259D01*
X99681877Y-80496741D01*
X99481999Y-80296863D01*
X99246967Y-80139820D01*
X98985814Y-80031647D01*
X98708575Y-79976500D01*
X98425905Y-79976500D01*
X98148666Y-80031647D01*
X97887513Y-80139820D01*
X97652481Y-80296863D01*
X97452603Y-80496741D01*
X97297240Y-80729259D01*
X97141877Y-80496741D01*
X96941999Y-80296863D01*
X96706967Y-80139820D01*
X96445814Y-80031647D01*
X96168575Y-79976500D01*
X95885905Y-79976500D01*
X95608666Y-80031647D01*
X95347513Y-80139820D01*
X95112481Y-80296863D01*
X94912603Y-80496741D01*
X94757240Y-80729259D01*
X94601877Y-80496741D01*
X94401999Y-80296863D01*
X94166967Y-80139820D01*
X93905814Y-80031647D01*
X93628575Y-79976500D01*
X93345905Y-79976500D01*
X93068666Y-80031647D01*
X92807513Y-80139820D01*
X92572481Y-80296863D01*
X92372603Y-80496741D01*
X92217240Y-80729259D01*
X92061877Y-80496741D01*
X91861999Y-80296863D01*
X91707240Y-80193457D01*
X91707240Y-78699201D01*
X99476322Y-70930120D01*
X99449074Y-70995902D01*
G37*
X99449074Y-70995902D02*
X99409300Y-71195861D01*
X99409300Y-71399739D01*
X99449074Y-71599698D01*
X99527095Y-71788056D01*
X99640363Y-71957574D01*
X99784526Y-72101737D01*
X99954044Y-72215005D01*
X100142402Y-72293026D01*
X100199257Y-72304335D01*
X105302240Y-77407319D01*
X105302241Y-80276978D01*
X105272481Y-80296863D01*
X105072603Y-80496741D01*
X104917240Y-80729259D01*
X104761877Y-80496741D01*
X104561999Y-80296863D01*
X104326967Y-80139820D01*
X104065814Y-80031647D01*
X103788575Y-79976500D01*
X103505905Y-79976500D01*
X103228666Y-80031647D01*
X102967513Y-80139820D01*
X102732481Y-80296863D01*
X102532603Y-80496741D01*
X102377240Y-80729259D01*
X102221877Y-80496741D01*
X102021999Y-80296863D01*
X101786967Y-80139820D01*
X101525814Y-80031647D01*
X101248575Y-79976500D01*
X100965905Y-79976500D01*
X100688666Y-80031647D01*
X100427513Y-80139820D01*
X100192481Y-80296863D01*
X99992603Y-80496741D01*
X99837240Y-80729259D01*
X99681877Y-80496741D01*
X99481999Y-80296863D01*
X99246967Y-80139820D01*
X98985814Y-80031647D01*
X98708575Y-79976500D01*
X98425905Y-79976500D01*
X98148666Y-80031647D01*
X97887513Y-80139820D01*
X97652481Y-80296863D01*
X97452603Y-80496741D01*
X97297240Y-80729259D01*
X97141877Y-80496741D01*
X96941999Y-80296863D01*
X96706967Y-80139820D01*
X96445814Y-80031647D01*
X96168575Y-79976500D01*
X95885905Y-79976500D01*
X95608666Y-80031647D01*
X95347513Y-80139820D01*
X95112481Y-80296863D01*
X94912603Y-80496741D01*
X94757240Y-80729259D01*
X94601877Y-80496741D01*
X94401999Y-80296863D01*
X94166967Y-80139820D01*
X93905814Y-80031647D01*
X93628575Y-79976500D01*
X93345905Y-79976500D01*
X93068666Y-80031647D01*
X92807513Y-80139820D01*
X92572481Y-80296863D01*
X92372603Y-80496741D01*
X92217240Y-80729259D01*
X92061877Y-80496741D01*
X91861999Y-80296863D01*
X91707240Y-80193457D01*
X91707240Y-78699201D01*
X99476322Y-70930120D01*
X99449074Y-70995902D01*
M02*
