M48
; DRILL file {KiCad (5.1.5)-3} date 19.12.2020 15:02:54
; FORMAT={-:-/ absolute / inch / decimal}
; #@! TF.CreationDate,2020-12-19T15:02:54+01:00
; #@! TF.GenerationSoftware,Kicad,Pcbnew,(5.1.5)-3
; #@! TF.FileFunction,Plated,1,2,PTH
FMAT,2
INCH
T1C0.0157
T2C0.0276
T3C0.0315
T4C0.0394
T5C0.0433
%
G90
G05
T1
X3.7226Y-2.8052
X3.9545Y-2.807
X3.9933Y-3.0552
X5.5751Y-3.3868
X7.615Y-2.3602
T2
X4.5385Y-2.5981
X4.5975Y-2.5981
X4.6566Y-2.5981
X4.7156Y-2.5981
X4.7747Y-2.5981
T3
X4.8736Y-3.3113
X5.2736Y-3.3113
X4.9763Y-3.4576
X5.0255Y-3.4576
X5.2224Y-3.4576
X5.2716Y-3.4576
X4.9524Y-2.8731
X5.3524Y-2.8731
X2.5209Y-2.691
X2.5701Y-2.691
X2.767Y-2.691
X2.8162Y-2.691
X4.953Y-2.755
X5.0022Y-2.755
X5.199Y-2.755
X5.2482Y-2.755
T4
X5.8704Y-2.4529
X5.8704Y-3.3529
X5.9704Y-2.4529
X5.9704Y-3.3529
X6.0704Y-2.4529
X6.0704Y-3.3529
X6.1704Y-2.4529
X6.1704Y-3.3529
X6.2704Y-2.4529
X6.2704Y-3.3529
X6.3704Y-2.4529
X6.3704Y-3.3529
X6.4704Y-2.4529
X6.4704Y-3.3529
X6.5704Y-2.4529
X6.5704Y-3.3529
X6.6704Y-2.4529
X6.6704Y-3.3529
X6.7704Y-2.4529
X6.7704Y-3.3529
X6.8704Y-2.4529
X6.8704Y-3.3529
X6.9704Y-2.4529
X6.9704Y-3.3529
X7.0704Y-2.4529
X7.0704Y-3.3529
X7.1704Y-2.4529
X7.1704Y-3.3529
X7.2704Y-2.4529
X7.2704Y-3.3529
X4.38Y-3.3793
X4.48Y-3.3793
X2.664Y-2.9445
X2.664Y-3.0445
X2.664Y-3.1445
X2.764Y-2.9445
X2.764Y-3.0445
X2.764Y-3.1445
X4.9524Y-2.611
X5.0524Y-2.611
X5.1524Y-2.611
X5.2524Y-2.611
X5.8718Y-2.3537
X5.8718Y-3.4537
X5.9718Y-2.3537
X5.9718Y-3.4537
X6.0718Y-2.3537
X6.0718Y-3.4537
X6.1718Y-2.3537
X6.1718Y-3.4537
X6.2718Y-2.3537
X6.2718Y-3.4537
X6.3718Y-2.3537
X6.3718Y-3.4537
X6.4718Y-2.3537
X6.4718Y-3.4537
X6.5718Y-2.3537
X6.5718Y-3.4537
X6.6718Y-2.3537
X6.6718Y-3.4537
X6.7718Y-2.3537
X6.7718Y-3.4537
X6.8718Y-2.3537
X6.8718Y-3.4537
X6.9718Y-2.3537
X6.9718Y-3.4537
X7.0718Y-2.3537
X7.0718Y-3.4537
X7.1718Y-2.3537
X7.1718Y-3.4537
X7.2718Y-2.3537
X7.2718Y-3.4537
T5
X3.0806Y-2.6052
X3.0806Y-2.7052
X3.0806Y-2.8052
X3.0806Y-2.9052
X3.0806Y-3.0052
X3.0806Y-3.1052
X3.0806Y-3.2052
X3.1806Y-2.6052
X3.1806Y-3.2052
X3.2806Y-2.6052
X3.2806Y-3.2052
X3.3806Y-2.6052
X3.3806Y-3.2052
X3.4806Y-2.6052
X3.4806Y-3.2052
X3.5806Y-2.6052
X3.5806Y-3.2052
X3.6806Y-2.6052
X3.6806Y-3.2052
X3.7806Y-2.6052
X3.7806Y-3.2052
X3.8806Y-2.6052
X3.8806Y-3.2052
X3.9806Y-2.6052
X3.9806Y-3.2052
X4.0806Y-2.6052
X4.0806Y-3.2052
X4.1806Y-2.6052
X4.1806Y-3.2052
X4.2806Y-2.6052
X4.2806Y-3.1052
X4.2806Y-3.2052
X4.3806Y-2.6052
X4.3806Y-3.2052
T0
M30
