G04 #@! TF.GenerationSoftware,KiCad,Pcbnew,(5.1.5)-3*
G04 #@! TF.CreationDate,2020-12-19T15:02:51+01:00*
G04 #@! TF.ProjectId,DNMS,444e4d53-2e6b-4696-9361-645f70636258,0.9.0*
G04 #@! TF.SameCoordinates,Original*
G04 #@! TF.FileFunction,Copper,L1,Top*
G04 #@! TF.FilePolarity,Positive*
%FSLAX46Y46*%
G04 Gerber Fmt 4.6, Leading zero omitted, Abs format (unit mm)*
G04 Created by KiCad (PCBNEW (5.1.5)-3) date 2020-12-19 15:02:51*
%MOMM*%
%LPD*%
G04 APERTURE LIST*
%ADD10C,1.700000*%
%ADD11C,1.740000*%
%ADD12O,1.700000X1.700000*%
%ADD13R,1.700000X1.700000*%
%ADD14C,1.600000*%
%ADD15O,1.100000X1.700000*%
%ADD16C,0.100000*%
%ADD17R,1.600000X1.600000*%
%ADD18O,1.600000X1.600000*%
%ADD19C,0.800000*%
%ADD20C,0.500000*%
%ADD21C,0.250000*%
%ADD22C,0.254000*%
G04 APERTURE END LIST*
D10*
X149143720Y-87723980D03*
X151683720Y-87723980D03*
X154223720Y-87723980D03*
D11*
X156763720Y-87723980D03*
D10*
X159303720Y-87723980D03*
X161843720Y-87723980D03*
X164383720Y-87723980D03*
X166923720Y-87723980D03*
X169463720Y-87723980D03*
X172003720Y-87723980D03*
X174543720Y-87723980D03*
X177083720Y-87723980D03*
X179623720Y-87723980D03*
X182163720Y-87723980D03*
X184703720Y-87723980D03*
X184703720Y-59783980D03*
X182163720Y-59783980D03*
X179623720Y-59783980D03*
X177083720Y-59783980D03*
X174543720Y-59783980D03*
X172003720Y-59783980D03*
X169463720Y-59783980D03*
X166923720Y-59783980D03*
X164383720Y-59783980D03*
X161843720Y-59783980D03*
X159303720Y-59783980D03*
X156763720Y-59783980D03*
X154223720Y-59783980D03*
X151683720Y-59783980D03*
X149143720Y-59783980D03*
X151648160Y-85163660D03*
X156728160Y-85163660D03*
X154188160Y-85163660D03*
X174508160Y-85163660D03*
X171968160Y-85163660D03*
X166888160Y-85163660D03*
X169428160Y-85163660D03*
X184668160Y-85163660D03*
X164348160Y-85163660D03*
X159268160Y-85163660D03*
X161808160Y-85163660D03*
X177048160Y-85163660D03*
X182128160Y-85163660D03*
X179588160Y-85163660D03*
X149108160Y-85163660D03*
X184668160Y-62303660D03*
X182128160Y-62303660D03*
X179588160Y-62303660D03*
X177048160Y-62303660D03*
X174508160Y-62303660D03*
X171968160Y-62303660D03*
X169428160Y-62303660D03*
X166888160Y-62303660D03*
X164348160Y-62303660D03*
X161808160Y-62303660D03*
X159268160Y-62303660D03*
X156728160Y-62303660D03*
X154188160Y-62303660D03*
X151648160Y-62303660D03*
X149108160Y-62303660D03*
D12*
X70205600Y-79870300D03*
X67665600Y-79870300D03*
X70205600Y-77330300D03*
X67665600Y-77330300D03*
X70205600Y-74790300D03*
D13*
X67665600Y-74790300D03*
D14*
X132648020Y-87823800D03*
X127648020Y-87823800D03*
X126398020Y-87823800D03*
X133898020Y-87823800D03*
X132055440Y-69976380D03*
X127055440Y-69976380D03*
X125805440Y-69976380D03*
X133305440Y-69976380D03*
X65281480Y-68351400D03*
X70281480Y-68351400D03*
X71531480Y-68351400D03*
X64031480Y-68351400D03*
D15*
X115276880Y-65990480D03*
X116776880Y-65990480D03*
X118276880Y-65990480D03*
X119776880Y-65990480D03*
G04 #@! TA.AperFunction,ComponentPad*
D16*
G36*
X121681029Y-65141259D02*
G01*
X121696726Y-65143587D01*
X121712119Y-65147443D01*
X121727060Y-65152789D01*
X121741405Y-65159573D01*
X121755016Y-65167731D01*
X121767761Y-65177184D01*
X121779519Y-65187841D01*
X121790176Y-65199599D01*
X121799629Y-65212344D01*
X121807787Y-65225955D01*
X121814571Y-65240300D01*
X121819917Y-65255241D01*
X121823773Y-65270634D01*
X121826101Y-65286331D01*
X121826880Y-65302180D01*
X121826880Y-66678780D01*
X121826101Y-66694629D01*
X121823773Y-66710326D01*
X121819917Y-66725719D01*
X121814571Y-66740660D01*
X121807787Y-66755005D01*
X121799629Y-66768616D01*
X121790176Y-66781361D01*
X121779519Y-66793119D01*
X121767761Y-66803776D01*
X121755016Y-66813229D01*
X121741405Y-66821387D01*
X121727060Y-66828171D01*
X121712119Y-66833517D01*
X121696726Y-66837373D01*
X121681029Y-66839701D01*
X121665180Y-66840480D01*
X120888580Y-66840480D01*
X120872731Y-66839701D01*
X120857034Y-66837373D01*
X120841641Y-66833517D01*
X120826700Y-66828171D01*
X120812355Y-66821387D01*
X120798744Y-66813229D01*
X120785999Y-66803776D01*
X120774241Y-66793119D01*
X120763584Y-66781361D01*
X120754131Y-66768616D01*
X120745973Y-66755005D01*
X120739189Y-66740660D01*
X120733843Y-66725719D01*
X120729987Y-66710326D01*
X120727659Y-66694629D01*
X120726880Y-66678780D01*
X120726880Y-65302180D01*
X120727659Y-65286331D01*
X120729987Y-65270634D01*
X120733843Y-65255241D01*
X120739189Y-65240300D01*
X120745973Y-65225955D01*
X120754131Y-65212344D01*
X120763584Y-65199599D01*
X120774241Y-65187841D01*
X120785999Y-65177184D01*
X120798744Y-65167731D01*
X120812355Y-65159573D01*
X120826700Y-65152789D01*
X120841641Y-65147443D01*
X120857034Y-65143587D01*
X120872731Y-65141259D01*
X120888580Y-65140480D01*
X121665180Y-65140480D01*
X121681029Y-65141259D01*
G37*
G04 #@! TD.AperFunction*
D17*
X111267240Y-66171500D03*
D14*
X108727240Y-66171500D03*
X106187240Y-66171500D03*
X103647240Y-66171500D03*
X101107240Y-66171500D03*
X98567240Y-66171500D03*
X96027240Y-66171500D03*
X93487240Y-66171500D03*
X90947240Y-66171500D03*
X88407240Y-66171500D03*
X85867240Y-66171500D03*
X83327240Y-66171500D03*
X80787240Y-66171500D03*
X108727240Y-78871500D03*
X111267240Y-81411500D03*
X108727240Y-81411500D03*
X106187240Y-81411500D03*
X103647240Y-81411500D03*
X101107240Y-81411500D03*
X98567240Y-81411500D03*
X96027240Y-81411500D03*
X93487240Y-81411500D03*
X90947240Y-81411500D03*
X88407240Y-81411500D03*
X85867240Y-81411500D03*
X83327240Y-81411500D03*
X80787240Y-81411500D03*
X78247240Y-66171500D03*
X78247240Y-68711500D03*
X78247240Y-71251500D03*
X78247240Y-81411500D03*
X78247240Y-78871500D03*
X78247240Y-76331500D03*
X78247240Y-73791500D03*
D18*
X133950200Y-84107780D03*
D14*
X123790200Y-84107780D03*
D18*
X135950200Y-72977260D03*
D14*
X125790200Y-72977260D03*
D12*
X133410200Y-66320560D03*
X130870200Y-66320560D03*
X128330200Y-66320560D03*
D13*
X125790200Y-66320560D03*
D12*
X111252000Y-85833960D03*
D13*
X113792000Y-85833960D03*
D19*
X141607540Y-86024720D03*
X193421000Y-59949080D03*
X101429820Y-77602080D03*
X94554620Y-71251500D03*
X100444300Y-71297800D03*
D20*
X132648020Y-88955170D02*
X132648020Y-87823800D01*
X131932810Y-89670380D02*
X132648020Y-88955170D01*
X108724700Y-89517980D02*
X108877100Y-89670380D01*
X108727240Y-81411500D02*
X108727240Y-82542870D01*
X108877100Y-89670380D02*
X131932810Y-89670380D01*
X108727240Y-82542870D02*
X108724700Y-82545410D01*
X108724700Y-82545410D02*
X108724700Y-89517980D01*
X161843720Y-87723980D02*
X161843720Y-88926061D01*
X160906460Y-89428420D02*
X138907520Y-89397940D01*
X135354060Y-86063580D02*
X125354080Y-86025480D01*
X161808160Y-85163660D02*
X161808160Y-82671920D01*
X161808160Y-82671920D02*
X161881820Y-82598260D01*
X183601360Y-82598260D02*
X184769760Y-83766660D01*
X184769760Y-83766660D02*
X184668160Y-85163660D01*
X174490380Y-63523521D02*
X174490380Y-82598260D01*
X174508160Y-63505741D02*
X174490380Y-63523521D01*
X161881820Y-82598260D02*
X174490380Y-82598260D01*
X174508160Y-62303660D02*
X174508160Y-63505741D01*
X174490380Y-82598260D02*
X183601360Y-82598260D01*
X123790200Y-85239150D02*
X123802140Y-85251090D01*
X125354080Y-86025480D02*
X123824240Y-86025480D01*
X123802140Y-85251090D02*
X123802140Y-86047580D01*
X123790200Y-84107780D02*
X123790200Y-85239150D01*
X135573160Y-86063580D02*
X138907520Y-89397940D01*
X135354060Y-86063580D02*
X135573160Y-86063580D01*
X161341361Y-89428420D02*
X161843720Y-88926061D01*
X160906460Y-89428420D02*
X161341361Y-89428420D01*
D21*
X156728160Y-85163660D02*
X156728160Y-83088480D01*
X156728160Y-83088480D02*
X156753560Y-83063080D01*
X133950200Y-83976410D02*
X133949440Y-83975650D01*
X133950200Y-85107780D02*
X133950200Y-83976410D01*
X156753560Y-83063080D02*
X137345420Y-83101180D01*
X133982460Y-83101180D02*
X133949440Y-83068160D01*
X137345420Y-83101180D02*
X133982460Y-83101180D01*
X133949440Y-83975650D02*
X133949440Y-83068160D01*
X119776880Y-67090480D02*
X119766080Y-67101280D01*
X119776880Y-65990480D02*
X119776880Y-67090480D01*
X134646681Y-66354960D02*
X138010900Y-66354960D01*
X134612281Y-66320560D02*
X134646681Y-66354960D01*
X133410200Y-66320560D02*
X134612281Y-66320560D01*
X138010900Y-66354960D02*
X138145420Y-83101180D01*
X132647481Y-68285360D02*
X132133340Y-68285360D01*
X133410200Y-67522641D02*
X132647481Y-68285360D01*
X125123960Y-68303520D02*
X132133340Y-68285360D01*
X133410200Y-66320560D02*
X133410200Y-67522641D01*
X132133340Y-68285360D02*
X132302000Y-68303520D01*
X119776880Y-67948180D02*
X120134380Y-68305680D01*
X119776880Y-67090480D02*
X119776880Y-67948180D01*
X120134380Y-68305680D02*
X125121420Y-68306060D01*
D20*
X130870200Y-66320560D02*
X130870200Y-66347100D01*
X130870200Y-66347100D02*
X130818640Y-66398660D01*
D21*
X130818640Y-66398660D02*
X130870200Y-66522641D01*
X118276880Y-67602860D02*
X118276880Y-65990480D01*
X94287239Y-80611501D02*
X94287239Y-80601921D01*
X117668040Y-68211700D02*
X118276880Y-67602860D01*
X93487240Y-81411500D02*
X94287239Y-80611501D01*
X106677460Y-68211700D02*
X117668040Y-68211700D01*
X94287239Y-80601921D02*
X106677460Y-68211700D01*
X119159360Y-64008000D02*
X130352800Y-64008000D01*
X130870200Y-64525400D02*
X130870200Y-66320560D01*
X130352800Y-64008000D02*
X130870200Y-64525400D01*
X118276880Y-65990480D02*
X118276880Y-64890480D01*
X118276880Y-64890480D02*
X119159360Y-64008000D01*
X88331040Y-64378840D02*
X88407240Y-64455040D01*
X67665600Y-79870300D02*
X65001140Y-79870300D01*
X65001140Y-79870300D02*
X64937640Y-79806800D01*
X64937640Y-79806800D02*
X64937640Y-71988680D01*
X64937640Y-71988680D02*
X65595500Y-71330820D01*
X65595500Y-71330820D02*
X73512680Y-71330820D01*
X73512680Y-71330820D02*
X74528680Y-70314820D01*
X74528680Y-70314820D02*
X74528680Y-64226440D01*
X74528680Y-64226440D02*
X74579480Y-64175640D01*
X74579480Y-64175640D02*
X88331040Y-64175640D01*
X88407240Y-64251840D02*
X88407240Y-65163700D01*
X88331040Y-64175640D02*
X88407240Y-64251840D01*
X88407240Y-64455040D02*
X88407240Y-65163700D01*
X88407240Y-65163700D02*
X88407240Y-66171500D01*
X98567240Y-83195160D02*
X98567240Y-81411500D01*
X98379280Y-83383120D02*
X98567240Y-83195160D01*
X74681080Y-83383120D02*
X98379280Y-83383120D01*
X70205600Y-77330300D02*
X71407681Y-77330300D01*
X71473721Y-77396340D02*
X73769220Y-77396340D01*
X73769220Y-77396340D02*
X74427080Y-78054200D01*
X74427080Y-78054200D02*
X74427080Y-83129120D01*
X71407681Y-77330300D02*
X71473721Y-77396340D01*
X74427080Y-83129120D02*
X74681080Y-83383120D01*
X149143720Y-62318900D02*
X149141180Y-62321440D01*
D20*
X70205600Y-82351880D02*
X70205600Y-79870300D01*
X69606160Y-82951320D02*
X70205600Y-82351880D01*
X62100460Y-81226660D02*
X63947040Y-83073240D01*
X62100460Y-65349120D02*
X62100460Y-81226660D01*
X62260480Y-65189100D02*
X62100460Y-65349120D01*
X71531480Y-68351400D02*
X71531480Y-65237360D01*
X63947040Y-83073240D02*
X69606160Y-82951320D01*
X71531480Y-65237360D02*
X71483220Y-65189100D01*
X71483220Y-65189100D02*
X62260480Y-65189100D01*
X95120305Y-71251500D02*
X95166605Y-71297800D01*
X94554620Y-71251500D02*
X95120305Y-71251500D01*
X95166605Y-71297800D02*
X100444300Y-71297800D01*
X100444300Y-71297800D02*
X100596700Y-71297800D01*
X108727240Y-78871500D02*
X112810980Y-78871500D01*
X112810980Y-78871500D02*
X113792000Y-79852520D01*
X113792000Y-79852520D02*
X113792000Y-86833960D01*
D22*
G36*
X137300129Y-72486444D02*
G01*
X137221880Y-72297533D01*
X137064837Y-72062501D01*
X136864959Y-71862623D01*
X136629927Y-71705580D01*
X136368774Y-71597407D01*
X136091535Y-71542260D01*
X135808865Y-71542260D01*
X135531626Y-71597407D01*
X135270473Y-71705580D01*
X135035441Y-71862623D01*
X134835563Y-72062501D01*
X134678520Y-72297533D01*
X134570347Y-72558686D01*
X134515200Y-72835925D01*
X134515200Y-73118595D01*
X134570347Y-73395834D01*
X134678520Y-73656987D01*
X134835563Y-73892019D01*
X135035441Y-74091897D01*
X135270473Y-74248940D01*
X135531626Y-74357113D01*
X135808865Y-74412260D01*
X136091535Y-74412260D01*
X136368774Y-74357113D01*
X136629927Y-74248940D01*
X136864959Y-74091897D01*
X137064837Y-73892019D01*
X137221880Y-73656987D01*
X137307865Y-73449402D01*
X137379291Y-82341112D01*
X137344802Y-82341180D01*
X134171027Y-82341180D01*
X134098426Y-82319157D01*
X133949440Y-82304483D01*
X133800455Y-82319157D01*
X133673941Y-82357534D01*
X133657194Y-82362614D01*
X133525164Y-82433186D01*
X133409439Y-82528159D01*
X133314466Y-82643884D01*
X133243894Y-82775914D01*
X133214712Y-82872118D01*
X133214240Y-82873673D01*
X133035441Y-82993143D01*
X132835563Y-83193021D01*
X132678520Y-83428053D01*
X132570347Y-83689206D01*
X132515200Y-83966445D01*
X132515200Y-84249115D01*
X132570347Y-84526354D01*
X132678520Y-84787507D01*
X132835563Y-85022539D01*
X132982563Y-85169539D01*
X125399241Y-85140646D01*
X125397557Y-85140480D01*
X125355707Y-85140480D01*
X125313976Y-85140321D01*
X125312296Y-85140480D01*
X124786896Y-85140480D01*
X124904837Y-85022539D01*
X125061880Y-84787507D01*
X125170053Y-84526354D01*
X125225200Y-84249115D01*
X125225200Y-83966445D01*
X125170053Y-83689206D01*
X125061880Y-83428053D01*
X124904837Y-83193021D01*
X124704959Y-82993143D01*
X124469927Y-82836100D01*
X124208774Y-82727927D01*
X123931535Y-82672780D01*
X123648865Y-82672780D01*
X123371626Y-82727927D01*
X123110473Y-82836100D01*
X122875441Y-82993143D01*
X122675563Y-83193021D01*
X122518520Y-83428053D01*
X122410347Y-83689206D01*
X122355200Y-83966445D01*
X122355200Y-84249115D01*
X122410347Y-84526354D01*
X122518520Y-84787507D01*
X122675563Y-85022539D01*
X122875441Y-85222417D01*
X122900950Y-85239461D01*
X122917140Y-85403857D01*
X122917140Y-86091057D01*
X122929946Y-86221070D01*
X122980552Y-86387893D01*
X123062730Y-86541639D01*
X123173324Y-86676397D01*
X123308082Y-86786991D01*
X123461828Y-86869169D01*
X123628651Y-86919775D01*
X123802140Y-86936862D01*
X123975630Y-86919775D01*
X124006271Y-86910480D01*
X125282421Y-86910480D01*
X125126340Y-87144073D01*
X125018167Y-87405226D01*
X124963020Y-87682465D01*
X124963020Y-87965135D01*
X125018167Y-88242374D01*
X125126340Y-88503527D01*
X125283383Y-88738559D01*
X125483261Y-88938437D01*
X125718293Y-89095480D01*
X125979446Y-89203653D01*
X126256685Y-89258800D01*
X126539355Y-89258800D01*
X126816594Y-89203653D01*
X127023020Y-89118149D01*
X127229446Y-89203653D01*
X127506685Y-89258800D01*
X127789355Y-89258800D01*
X128066594Y-89203653D01*
X128327747Y-89095480D01*
X128562779Y-88938437D01*
X128762657Y-88738559D01*
X128919700Y-88503527D01*
X129027873Y-88242374D01*
X129083020Y-87965135D01*
X129083020Y-87682465D01*
X129027873Y-87405226D01*
X128919700Y-87144073D01*
X128772324Y-86923509D01*
X131578815Y-86934202D01*
X131655316Y-87010703D01*
X131411349Y-87082286D01*
X131290449Y-87337796D01*
X131221720Y-87611984D01*
X131207803Y-87894312D01*
X131249233Y-88173930D01*
X131344417Y-88440092D01*
X131411349Y-88565314D01*
X131655318Y-88636897D01*
X132460909Y-87831306D01*
X132457803Y-87894312D01*
X132496428Y-88154997D01*
X131834923Y-88816502D01*
X131906506Y-89060471D01*
X132162016Y-89181371D01*
X132436204Y-89250100D01*
X132718532Y-89264017D01*
X132998150Y-89222587D01*
X133264312Y-89127403D01*
X133280112Y-89118958D01*
X133412016Y-89181371D01*
X133686204Y-89250100D01*
X133968532Y-89264017D01*
X134248150Y-89222587D01*
X134514312Y-89127403D01*
X134639534Y-89060471D01*
X134711117Y-88816502D01*
X134045441Y-88150826D01*
X134074320Y-88035616D01*
X134084426Y-87830601D01*
X134890722Y-88636897D01*
X135134691Y-88565314D01*
X135255591Y-88309804D01*
X135324320Y-88035616D01*
X135338237Y-87753288D01*
X135296807Y-87473670D01*
X135201623Y-87207508D01*
X135134691Y-87082286D01*
X134890724Y-87010703D01*
X134954364Y-86947063D01*
X135206024Y-86948022D01*
X138038001Y-89780000D01*
X63532279Y-89780000D01*
X63135455Y-89741091D01*
X62784794Y-89635220D01*
X62461377Y-89463257D01*
X62177518Y-89231748D01*
X61944035Y-88949514D01*
X61769816Y-88627304D01*
X61661498Y-88277385D01*
X61620000Y-87882557D01*
X61620000Y-87196495D01*
X62023000Y-87196495D01*
X62023000Y-87587505D01*
X62099282Y-87971003D01*
X62248915Y-88332250D01*
X62466149Y-88657364D01*
X62742636Y-88933851D01*
X63067750Y-89151085D01*
X63428997Y-89300718D01*
X63812495Y-89377000D01*
X64203505Y-89377000D01*
X64587003Y-89300718D01*
X64948250Y-89151085D01*
X65273364Y-88933851D01*
X65549851Y-88657364D01*
X65767085Y-88332250D01*
X65916718Y-87971003D01*
X65993000Y-87587505D01*
X65993000Y-87196495D01*
X65916718Y-86812997D01*
X65767085Y-86451750D01*
X65549851Y-86126636D01*
X65273364Y-85850149D01*
X64948250Y-85632915D01*
X64587003Y-85483282D01*
X64203505Y-85407000D01*
X63812495Y-85407000D01*
X63428997Y-85483282D01*
X63067750Y-85632915D01*
X62742636Y-85850149D01*
X62466149Y-86126636D01*
X62248915Y-86451750D01*
X62099282Y-86812997D01*
X62023000Y-87196495D01*
X61620000Y-87196495D01*
X61620000Y-81997778D01*
X63297268Y-83675047D01*
X63331913Y-83715455D01*
X63392944Y-83763380D01*
X63452980Y-83812650D01*
X63461463Y-83817184D01*
X63469022Y-83823120D01*
X63538246Y-83858225D01*
X63606726Y-83894828D01*
X63615928Y-83897619D01*
X63624503Y-83901968D01*
X63699259Y-83922898D01*
X63773549Y-83945434D01*
X63783117Y-83946376D01*
X63792377Y-83948969D01*
X63869810Y-83954915D01*
X63947039Y-83962521D01*
X64000008Y-83957304D01*
X69572202Y-83837257D01*
X69606160Y-83840601D01*
X69659135Y-83835384D01*
X69668688Y-83835178D01*
X69702388Y-83831124D01*
X69779650Y-83823515D01*
X69788855Y-83820723D01*
X69798395Y-83819575D01*
X69872174Y-83795447D01*
X69946473Y-83772908D01*
X69954950Y-83768377D01*
X69964090Y-83765388D01*
X70031754Y-83727325D01*
X70100219Y-83690730D01*
X70107652Y-83684630D01*
X70116030Y-83679917D01*
X70174960Y-83629391D01*
X70201206Y-83607852D01*
X70207960Y-83601098D01*
X70248375Y-83566447D01*
X70269451Y-83539607D01*
X70800650Y-83008409D01*
X70834417Y-82980697D01*
X70884908Y-82919175D01*
X70940269Y-82851717D01*
X70945011Y-82845939D01*
X71027189Y-82692193D01*
X71077795Y-82525370D01*
X71090600Y-82395357D01*
X71090600Y-82395347D01*
X71094881Y-82351881D01*
X71090600Y-82308415D01*
X71090600Y-81064956D01*
X71152232Y-81023775D01*
X71359075Y-80816932D01*
X71521590Y-80573711D01*
X71633532Y-80303458D01*
X71690600Y-80016560D01*
X71690600Y-79724040D01*
X71633532Y-79437142D01*
X71521590Y-79166889D01*
X71359075Y-78923668D01*
X71152232Y-78716825D01*
X70977840Y-78600300D01*
X71152232Y-78483775D01*
X71359075Y-78276932D01*
X71439451Y-78156641D01*
X71473721Y-78160016D01*
X71511046Y-78156340D01*
X73454419Y-78156340D01*
X73667080Y-78369002D01*
X73667081Y-83091788D01*
X73663404Y-83129120D01*
X73667081Y-83166453D01*
X73678078Y-83278106D01*
X73684943Y-83300737D01*
X73721534Y-83421366D01*
X73792106Y-83553396D01*
X73860575Y-83636825D01*
X73887080Y-83669121D01*
X73916078Y-83692919D01*
X74117276Y-83894117D01*
X74141079Y-83923121D01*
X74256804Y-84018094D01*
X74388833Y-84088666D01*
X74532094Y-84132123D01*
X74643747Y-84143120D01*
X74643756Y-84143120D01*
X74681079Y-84146796D01*
X74718402Y-84143120D01*
X98341958Y-84143120D01*
X98379280Y-84146796D01*
X98416602Y-84143120D01*
X98416613Y-84143120D01*
X98528266Y-84132123D01*
X98671527Y-84088666D01*
X98803556Y-84018094D01*
X98919281Y-83923121D01*
X98943084Y-83894117D01*
X99078238Y-83758963D01*
X99107241Y-83735161D01*
X99202214Y-83619436D01*
X99272786Y-83487407D01*
X99316243Y-83344146D01*
X99327240Y-83232493D01*
X99327240Y-83232492D01*
X99330917Y-83195160D01*
X99327240Y-83157827D01*
X99327240Y-82629543D01*
X99481999Y-82526137D01*
X99681877Y-82326259D01*
X99837240Y-82093741D01*
X99992603Y-82326259D01*
X100192481Y-82526137D01*
X100427513Y-82683180D01*
X100688666Y-82791353D01*
X100965905Y-82846500D01*
X101248575Y-82846500D01*
X101525814Y-82791353D01*
X101786967Y-82683180D01*
X102021999Y-82526137D01*
X102221877Y-82326259D01*
X102377240Y-82093741D01*
X102532603Y-82326259D01*
X102732481Y-82526137D01*
X102967513Y-82683180D01*
X103228666Y-82791353D01*
X103505905Y-82846500D01*
X103788575Y-82846500D01*
X104065814Y-82791353D01*
X104326967Y-82683180D01*
X104561999Y-82526137D01*
X104761877Y-82326259D01*
X104917240Y-82093741D01*
X105072603Y-82326259D01*
X105272481Y-82526137D01*
X105507513Y-82683180D01*
X105768666Y-82791353D01*
X106045905Y-82846500D01*
X106328575Y-82846500D01*
X106605814Y-82791353D01*
X106866967Y-82683180D01*
X107101999Y-82526137D01*
X107223934Y-82404202D01*
X107914143Y-82404202D01*
X107985726Y-82648171D01*
X108241236Y-82769071D01*
X108515424Y-82837800D01*
X108797752Y-82851717D01*
X109077370Y-82810287D01*
X109343532Y-82715103D01*
X109468754Y-82648171D01*
X109540337Y-82404202D01*
X108727240Y-81591105D01*
X107914143Y-82404202D01*
X107223934Y-82404202D01*
X107301877Y-82326259D01*
X107458155Y-82092372D01*
X107490569Y-82153014D01*
X107734538Y-82224597D01*
X108547635Y-81411500D01*
X108906845Y-81411500D01*
X109719942Y-82224597D01*
X109963911Y-82153014D01*
X109994434Y-82088508D01*
X109995560Y-82091227D01*
X110152603Y-82326259D01*
X110352481Y-82526137D01*
X110587513Y-82683180D01*
X110848666Y-82791353D01*
X111125905Y-82846500D01*
X111408575Y-82846500D01*
X111685814Y-82791353D01*
X111946967Y-82683180D01*
X112181999Y-82526137D01*
X112381877Y-82326259D01*
X112538920Y-82091227D01*
X112647093Y-81830074D01*
X112702240Y-81552835D01*
X112702240Y-81270165D01*
X112647093Y-80992926D01*
X112538920Y-80731773D01*
X112381877Y-80496741D01*
X112181999Y-80296863D01*
X111946967Y-80139820D01*
X111685814Y-80031647D01*
X111408575Y-79976500D01*
X111125905Y-79976500D01*
X110848666Y-80031647D01*
X110587513Y-80139820D01*
X110352481Y-80296863D01*
X110152603Y-80496741D01*
X109996325Y-80730628D01*
X109963911Y-80669986D01*
X109719942Y-80598403D01*
X108906845Y-81411500D01*
X108547635Y-81411500D01*
X107734538Y-80598403D01*
X107490569Y-80669986D01*
X107460046Y-80734492D01*
X107458920Y-80731773D01*
X107301877Y-80496741D01*
X107101999Y-80296863D01*
X106866967Y-80139820D01*
X106605814Y-80031647D01*
X106328575Y-79976500D01*
X106045905Y-79976500D01*
X105768666Y-80031647D01*
X105507513Y-80139820D01*
X105272481Y-80296863D01*
X105072603Y-80496741D01*
X104917240Y-80729259D01*
X104761877Y-80496741D01*
X104561999Y-80296863D01*
X104326967Y-80139820D01*
X104065814Y-80031647D01*
X103788575Y-79976500D01*
X103505905Y-79976500D01*
X103228666Y-80031647D01*
X102967513Y-80139820D01*
X102732481Y-80296863D01*
X102532603Y-80496741D01*
X102377240Y-80729259D01*
X102221877Y-80496741D01*
X102021999Y-80296863D01*
X101786967Y-80139820D01*
X101525814Y-80031647D01*
X101248575Y-79976500D01*
X100965905Y-79976500D01*
X100688666Y-80031647D01*
X100427513Y-80139820D01*
X100192481Y-80296863D01*
X99992603Y-80496741D01*
X99837240Y-80729259D01*
X99681877Y-80496741D01*
X99481999Y-80296863D01*
X99246967Y-80139820D01*
X98985814Y-80031647D01*
X98708575Y-79976500D01*
X98425905Y-79976500D01*
X98148666Y-80031647D01*
X97887513Y-80139820D01*
X97652481Y-80296863D01*
X97452603Y-80496741D01*
X97297240Y-80729259D01*
X97141877Y-80496741D01*
X96941999Y-80296863D01*
X96706967Y-80139820D01*
X96445814Y-80031647D01*
X96168575Y-79976500D01*
X95987461Y-79976500D01*
X97233796Y-78730165D01*
X107292240Y-78730165D01*
X107292240Y-79012835D01*
X107347387Y-79290074D01*
X107455560Y-79551227D01*
X107612603Y-79786259D01*
X107812481Y-79986137D01*
X108046368Y-80142415D01*
X107985726Y-80174829D01*
X107914143Y-80418798D01*
X108727240Y-81231895D01*
X109540337Y-80418798D01*
X109468754Y-80174829D01*
X109404248Y-80144306D01*
X109406967Y-80143180D01*
X109641999Y-79986137D01*
X109841877Y-79786259D01*
X109861761Y-79756500D01*
X112444402Y-79756500D01*
X112907000Y-80219099D01*
X112907001Y-84349335D01*
X112817518Y-84358148D01*
X112697820Y-84394458D01*
X112587506Y-84453423D01*
X112490815Y-84532775D01*
X112411463Y-84629466D01*
X112352498Y-84739780D01*
X112330487Y-84812340D01*
X112198632Y-84680485D01*
X111955411Y-84517970D01*
X111685158Y-84406028D01*
X111398260Y-84348960D01*
X111105740Y-84348960D01*
X110818842Y-84406028D01*
X110548589Y-84517970D01*
X110305368Y-84680485D01*
X110098525Y-84887328D01*
X109936010Y-85130549D01*
X109824068Y-85400802D01*
X109767000Y-85687700D01*
X109767000Y-85980220D01*
X109824068Y-86267118D01*
X109936010Y-86537371D01*
X110098525Y-86780592D01*
X110305368Y-86987435D01*
X110548589Y-87149950D01*
X110818842Y-87261892D01*
X111105740Y-87318960D01*
X111398260Y-87318960D01*
X111685158Y-87261892D01*
X111955411Y-87149950D01*
X112198632Y-86987435D01*
X112330487Y-86855580D01*
X112352498Y-86928140D01*
X112411463Y-87038454D01*
X112490815Y-87135145D01*
X112587506Y-87214497D01*
X112697820Y-87273462D01*
X112817518Y-87309772D01*
X112942000Y-87322032D01*
X113049390Y-87322032D01*
X113052590Y-87328019D01*
X113163184Y-87462777D01*
X113297942Y-87573371D01*
X113451688Y-87655549D01*
X113618511Y-87706155D01*
X113792000Y-87723242D01*
X113965490Y-87706155D01*
X114132313Y-87655549D01*
X114286059Y-87573371D01*
X114420817Y-87462777D01*
X114531411Y-87328019D01*
X114534611Y-87322032D01*
X114642000Y-87322032D01*
X114766482Y-87309772D01*
X114886180Y-87273462D01*
X114996494Y-87214497D01*
X115093185Y-87135145D01*
X115172537Y-87038454D01*
X115231502Y-86928140D01*
X115267812Y-86808442D01*
X115280072Y-86683960D01*
X115280072Y-85804495D01*
X117015000Y-85804495D01*
X117015000Y-86195505D01*
X117091282Y-86579003D01*
X117240915Y-86940250D01*
X117458149Y-87265364D01*
X117734636Y-87541851D01*
X118059750Y-87759085D01*
X118420997Y-87908718D01*
X118804495Y-87985000D01*
X119195505Y-87985000D01*
X119579003Y-87908718D01*
X119940250Y-87759085D01*
X120265364Y-87541851D01*
X120541851Y-87265364D01*
X120759085Y-86940250D01*
X120908718Y-86579003D01*
X120985000Y-86195505D01*
X120985000Y-85804495D01*
X120908718Y-85420997D01*
X120759085Y-85059750D01*
X120541851Y-84734636D01*
X120265364Y-84458149D01*
X119940250Y-84240915D01*
X119579003Y-84091282D01*
X119195505Y-84015000D01*
X118804495Y-84015000D01*
X118420997Y-84091282D01*
X118059750Y-84240915D01*
X117734636Y-84458149D01*
X117458149Y-84734636D01*
X117240915Y-85059750D01*
X117091282Y-85420997D01*
X117015000Y-85804495D01*
X115280072Y-85804495D01*
X115280072Y-84983960D01*
X115267812Y-84859478D01*
X115231502Y-84739780D01*
X115172537Y-84629466D01*
X115093185Y-84532775D01*
X114996494Y-84453423D01*
X114886180Y-84394458D01*
X114766482Y-84358148D01*
X114677000Y-84349335D01*
X114677000Y-79895989D01*
X114681281Y-79852520D01*
X114677000Y-79809051D01*
X114677000Y-79809043D01*
X114664195Y-79679030D01*
X114613589Y-79512207D01*
X114531411Y-79358461D01*
X114475287Y-79290074D01*
X114448532Y-79257473D01*
X114448530Y-79257471D01*
X114420817Y-79223703D01*
X114387050Y-79195991D01*
X113467514Y-78276456D01*
X113439797Y-78242683D01*
X113305039Y-78132089D01*
X113151293Y-78049911D01*
X112984470Y-77999305D01*
X112854457Y-77986500D01*
X112854449Y-77986500D01*
X112810980Y-77982219D01*
X112767511Y-77986500D01*
X109861761Y-77986500D01*
X109841877Y-77956741D01*
X109641999Y-77756863D01*
X109406967Y-77599820D01*
X109145814Y-77491647D01*
X108868575Y-77436500D01*
X108585905Y-77436500D01*
X108308666Y-77491647D01*
X108047513Y-77599820D01*
X107812481Y-77756863D01*
X107612603Y-77956741D01*
X107455560Y-78191773D01*
X107347387Y-78452926D01*
X107292240Y-78730165D01*
X97233796Y-78730165D01*
X103128036Y-72835925D01*
X124355200Y-72835925D01*
X124355200Y-73118595D01*
X124410347Y-73395834D01*
X124518520Y-73656987D01*
X124675563Y-73892019D01*
X124875441Y-74091897D01*
X125110473Y-74248940D01*
X125371626Y-74357113D01*
X125648865Y-74412260D01*
X125931535Y-74412260D01*
X126208774Y-74357113D01*
X126469927Y-74248940D01*
X126704959Y-74091897D01*
X126904837Y-73892019D01*
X127061880Y-73656987D01*
X127170053Y-73395834D01*
X127225200Y-73118595D01*
X127225200Y-72835925D01*
X127170053Y-72558686D01*
X127061880Y-72297533D01*
X126904837Y-72062501D01*
X126704959Y-71862623D01*
X126469927Y-71705580D01*
X126208774Y-71597407D01*
X125931535Y-71542260D01*
X125648865Y-71542260D01*
X125371626Y-71597407D01*
X125110473Y-71705580D01*
X124875441Y-71862623D01*
X124675563Y-72062501D01*
X124518520Y-72297533D01*
X124410347Y-72558686D01*
X124355200Y-72835925D01*
X103128036Y-72835925D01*
X106992262Y-68971700D01*
X117630718Y-68971700D01*
X117668040Y-68975376D01*
X117705362Y-68971700D01*
X117705373Y-68971700D01*
X117817026Y-68960703D01*
X117960287Y-68917246D01*
X118092316Y-68846674D01*
X118208041Y-68751701D01*
X118231843Y-68722698D01*
X118787884Y-68166658D01*
X118816881Y-68142861D01*
X118911854Y-68027136D01*
X118982426Y-67895107D01*
X119016880Y-67781525D01*
X119016880Y-67910858D01*
X119013204Y-67948180D01*
X119016880Y-67985502D01*
X119016880Y-67985513D01*
X119024485Y-68062715D01*
X119027878Y-68097165D01*
X119071334Y-68240426D01*
X119141906Y-68372456D01*
X119213081Y-68459182D01*
X119236880Y-68488181D01*
X119265878Y-68511979D01*
X119570560Y-68816661D01*
X119594338Y-68845639D01*
X119623357Y-68869458D01*
X119623378Y-68869479D01*
X119652811Y-68893634D01*
X119710056Y-68940621D01*
X119710082Y-68940635D01*
X119710104Y-68940653D01*
X119775065Y-68975376D01*
X119842080Y-69011203D01*
X119842107Y-69011211D01*
X119842133Y-69011225D01*
X119913321Y-69032819D01*
X119985337Y-69054671D01*
X119985366Y-69054674D01*
X119985393Y-69054682D01*
X120053228Y-69061363D01*
X120096990Y-69065677D01*
X120097026Y-69065677D01*
X120134379Y-69069356D01*
X120171674Y-69065683D01*
X124687860Y-69066026D01*
X124533760Y-69296653D01*
X124425587Y-69557806D01*
X124370440Y-69835045D01*
X124370440Y-70117715D01*
X124425587Y-70394954D01*
X124533760Y-70656107D01*
X124690803Y-70891139D01*
X124890681Y-71091017D01*
X125125713Y-71248060D01*
X125386866Y-71356233D01*
X125664105Y-71411380D01*
X125946775Y-71411380D01*
X126224014Y-71356233D01*
X126430440Y-71270729D01*
X126636866Y-71356233D01*
X126914105Y-71411380D01*
X127196775Y-71411380D01*
X127474014Y-71356233D01*
X127735167Y-71248060D01*
X127970199Y-71091017D01*
X128170077Y-70891139D01*
X128327120Y-70656107D01*
X128435293Y-70394954D01*
X128490440Y-70117715D01*
X128490440Y-69835045D01*
X128435293Y-69557806D01*
X128327120Y-69296653D01*
X128170077Y-69061621D01*
X128164102Y-69055646D01*
X130947886Y-69048433D01*
X131062736Y-69163283D01*
X130818769Y-69234866D01*
X130697869Y-69490376D01*
X130629140Y-69764564D01*
X130615223Y-70046892D01*
X130656653Y-70326510D01*
X130751837Y-70592672D01*
X130818769Y-70717894D01*
X131062738Y-70789477D01*
X131868329Y-69983886D01*
X131865223Y-70046892D01*
X131903848Y-70307577D01*
X131242343Y-70969082D01*
X131313926Y-71213051D01*
X131569436Y-71333951D01*
X131843624Y-71402680D01*
X132125952Y-71416597D01*
X132405570Y-71375167D01*
X132671732Y-71279983D01*
X132687532Y-71271538D01*
X132819436Y-71333951D01*
X133093624Y-71402680D01*
X133375952Y-71416597D01*
X133655570Y-71375167D01*
X133921732Y-71279983D01*
X134046954Y-71213051D01*
X134118537Y-70969082D01*
X133452861Y-70303406D01*
X133481740Y-70188196D01*
X133491846Y-69983181D01*
X134298142Y-70789477D01*
X134542111Y-70717894D01*
X134663011Y-70462384D01*
X134731740Y-70188196D01*
X134745657Y-69905868D01*
X134704227Y-69626250D01*
X134609043Y-69360088D01*
X134542111Y-69234866D01*
X134298142Y-69163283D01*
X133492551Y-69968874D01*
X133495657Y-69905868D01*
X133457032Y-69645183D01*
X134118537Y-68983678D01*
X134046954Y-68739709D01*
X133791444Y-68618809D01*
X133517256Y-68550080D01*
X133460367Y-68547276D01*
X133921202Y-68086440D01*
X133950201Y-68062642D01*
X134045174Y-67946917D01*
X134115746Y-67814888D01*
X134159203Y-67671627D01*
X134166113Y-67601469D01*
X134356832Y-67474035D01*
X134563675Y-67267192D01*
X134664082Y-67116922D01*
X134684004Y-67114960D01*
X137256981Y-67114960D01*
X137300129Y-72486444D01*
G37*
X137300129Y-72486444D02*
X137221880Y-72297533D01*
X137064837Y-72062501D01*
X136864959Y-71862623D01*
X136629927Y-71705580D01*
X136368774Y-71597407D01*
X136091535Y-71542260D01*
X135808865Y-71542260D01*
X135531626Y-71597407D01*
X135270473Y-71705580D01*
X135035441Y-71862623D01*
X134835563Y-72062501D01*
X134678520Y-72297533D01*
X134570347Y-72558686D01*
X134515200Y-72835925D01*
X134515200Y-73118595D01*
X134570347Y-73395834D01*
X134678520Y-73656987D01*
X134835563Y-73892019D01*
X135035441Y-74091897D01*
X135270473Y-74248940D01*
X135531626Y-74357113D01*
X135808865Y-74412260D01*
X136091535Y-74412260D01*
X136368774Y-74357113D01*
X136629927Y-74248940D01*
X136864959Y-74091897D01*
X137064837Y-73892019D01*
X137221880Y-73656987D01*
X137307865Y-73449402D01*
X137379291Y-82341112D01*
X137344802Y-82341180D01*
X134171027Y-82341180D01*
X134098426Y-82319157D01*
X133949440Y-82304483D01*
X133800455Y-82319157D01*
X133673941Y-82357534D01*
X133657194Y-82362614D01*
X133525164Y-82433186D01*
X133409439Y-82528159D01*
X133314466Y-82643884D01*
X133243894Y-82775914D01*
X133214712Y-82872118D01*
X133214240Y-82873673D01*
X133035441Y-82993143D01*
X132835563Y-83193021D01*
X132678520Y-83428053D01*
X132570347Y-83689206D01*
X132515200Y-83966445D01*
X132515200Y-84249115D01*
X132570347Y-84526354D01*
X132678520Y-84787507D01*
X132835563Y-85022539D01*
X132982563Y-85169539D01*
X125399241Y-85140646D01*
X125397557Y-85140480D01*
X125355707Y-85140480D01*
X125313976Y-85140321D01*
X125312296Y-85140480D01*
X124786896Y-85140480D01*
X124904837Y-85022539D01*
X125061880Y-84787507D01*
X125170053Y-84526354D01*
X125225200Y-84249115D01*
X125225200Y-83966445D01*
X125170053Y-83689206D01*
X125061880Y-83428053D01*
X124904837Y-83193021D01*
X124704959Y-82993143D01*
X124469927Y-82836100D01*
X124208774Y-82727927D01*
X123931535Y-82672780D01*
X123648865Y-82672780D01*
X123371626Y-82727927D01*
X123110473Y-82836100D01*
X122875441Y-82993143D01*
X122675563Y-83193021D01*
X122518520Y-83428053D01*
X122410347Y-83689206D01*
X122355200Y-83966445D01*
X122355200Y-84249115D01*
X122410347Y-84526354D01*
X122518520Y-84787507D01*
X122675563Y-85022539D01*
X122875441Y-85222417D01*
X122900950Y-85239461D01*
X122917140Y-85403857D01*
X122917140Y-86091057D01*
X122929946Y-86221070D01*
X122980552Y-86387893D01*
X123062730Y-86541639D01*
X123173324Y-86676397D01*
X123308082Y-86786991D01*
X123461828Y-86869169D01*
X123628651Y-86919775D01*
X123802140Y-86936862D01*
X123975630Y-86919775D01*
X124006271Y-86910480D01*
X125282421Y-86910480D01*
X125126340Y-87144073D01*
X125018167Y-87405226D01*
X124963020Y-87682465D01*
X124963020Y-87965135D01*
X125018167Y-88242374D01*
X125126340Y-88503527D01*
X125283383Y-88738559D01*
X125483261Y-88938437D01*
X125718293Y-89095480D01*
X125979446Y-89203653D01*
X126256685Y-89258800D01*
X126539355Y-89258800D01*
X126816594Y-89203653D01*
X127023020Y-89118149D01*
X127229446Y-89203653D01*
X127506685Y-89258800D01*
X127789355Y-89258800D01*
X128066594Y-89203653D01*
X128327747Y-89095480D01*
X128562779Y-88938437D01*
X128762657Y-88738559D01*
X128919700Y-88503527D01*
X129027873Y-88242374D01*
X129083020Y-87965135D01*
X129083020Y-87682465D01*
X129027873Y-87405226D01*
X128919700Y-87144073D01*
X128772324Y-86923509D01*
X131578815Y-86934202D01*
X131655316Y-87010703D01*
X131411349Y-87082286D01*
X131290449Y-87337796D01*
X131221720Y-87611984D01*
X131207803Y-87894312D01*
X131249233Y-88173930D01*
X131344417Y-88440092D01*
X131411349Y-88565314D01*
X131655318Y-88636897D01*
X132460909Y-87831306D01*
X132457803Y-87894312D01*
X132496428Y-88154997D01*
X131834923Y-88816502D01*
X131906506Y-89060471D01*
X132162016Y-89181371D01*
X132436204Y-89250100D01*
X132718532Y-89264017D01*
X132998150Y-89222587D01*
X133264312Y-89127403D01*
X133280112Y-89118958D01*
X133412016Y-89181371D01*
X133686204Y-89250100D01*
X133968532Y-89264017D01*
X134248150Y-89222587D01*
X134514312Y-89127403D01*
X134639534Y-89060471D01*
X134711117Y-88816502D01*
X134045441Y-88150826D01*
X134074320Y-88035616D01*
X134084426Y-87830601D01*
X134890722Y-88636897D01*
X135134691Y-88565314D01*
X135255591Y-88309804D01*
X135324320Y-88035616D01*
X135338237Y-87753288D01*
X135296807Y-87473670D01*
X135201623Y-87207508D01*
X135134691Y-87082286D01*
X134890724Y-87010703D01*
X134954364Y-86947063D01*
X135206024Y-86948022D01*
X138038001Y-89780000D01*
X63532279Y-89780000D01*
X63135455Y-89741091D01*
X62784794Y-89635220D01*
X62461377Y-89463257D01*
X62177518Y-89231748D01*
X61944035Y-88949514D01*
X61769816Y-88627304D01*
X61661498Y-88277385D01*
X61620000Y-87882557D01*
X61620000Y-87196495D01*
X62023000Y-87196495D01*
X62023000Y-87587505D01*
X62099282Y-87971003D01*
X62248915Y-88332250D01*
X62466149Y-88657364D01*
X62742636Y-88933851D01*
X63067750Y-89151085D01*
X63428997Y-89300718D01*
X63812495Y-89377000D01*
X64203505Y-89377000D01*
X64587003Y-89300718D01*
X64948250Y-89151085D01*
X65273364Y-88933851D01*
X65549851Y-88657364D01*
X65767085Y-88332250D01*
X65916718Y-87971003D01*
X65993000Y-87587505D01*
X65993000Y-87196495D01*
X65916718Y-86812997D01*
X65767085Y-86451750D01*
X65549851Y-86126636D01*
X65273364Y-85850149D01*
X64948250Y-85632915D01*
X64587003Y-85483282D01*
X64203505Y-85407000D01*
X63812495Y-85407000D01*
X63428997Y-85483282D01*
X63067750Y-85632915D01*
X62742636Y-85850149D01*
X62466149Y-86126636D01*
X62248915Y-86451750D01*
X62099282Y-86812997D01*
X62023000Y-87196495D01*
X61620000Y-87196495D01*
X61620000Y-81997778D01*
X63297268Y-83675047D01*
X63331913Y-83715455D01*
X63392944Y-83763380D01*
X63452980Y-83812650D01*
X63461463Y-83817184D01*
X63469022Y-83823120D01*
X63538246Y-83858225D01*
X63606726Y-83894828D01*
X63615928Y-83897619D01*
X63624503Y-83901968D01*
X63699259Y-83922898D01*
X63773549Y-83945434D01*
X63783117Y-83946376D01*
X63792377Y-83948969D01*
X63869810Y-83954915D01*
X63947039Y-83962521D01*
X64000008Y-83957304D01*
X69572202Y-83837257D01*
X69606160Y-83840601D01*
X69659135Y-83835384D01*
X69668688Y-83835178D01*
X69702388Y-83831124D01*
X69779650Y-83823515D01*
X69788855Y-83820723D01*
X69798395Y-83819575D01*
X69872174Y-83795447D01*
X69946473Y-83772908D01*
X69954950Y-83768377D01*
X69964090Y-83765388D01*
X70031754Y-83727325D01*
X70100219Y-83690730D01*
X70107652Y-83684630D01*
X70116030Y-83679917D01*
X70174960Y-83629391D01*
X70201206Y-83607852D01*
X70207960Y-83601098D01*
X70248375Y-83566447D01*
X70269451Y-83539607D01*
X70800650Y-83008409D01*
X70834417Y-82980697D01*
X70884908Y-82919175D01*
X70940269Y-82851717D01*
X70945011Y-82845939D01*
X71027189Y-82692193D01*
X71077795Y-82525370D01*
X71090600Y-82395357D01*
X71090600Y-82395347D01*
X71094881Y-82351881D01*
X71090600Y-82308415D01*
X71090600Y-81064956D01*
X71152232Y-81023775D01*
X71359075Y-80816932D01*
X71521590Y-80573711D01*
X71633532Y-80303458D01*
X71690600Y-80016560D01*
X71690600Y-79724040D01*
X71633532Y-79437142D01*
X71521590Y-79166889D01*
X71359075Y-78923668D01*
X71152232Y-78716825D01*
X70977840Y-78600300D01*
X71152232Y-78483775D01*
X71359075Y-78276932D01*
X71439451Y-78156641D01*
X71473721Y-78160016D01*
X71511046Y-78156340D01*
X73454419Y-78156340D01*
X73667080Y-78369002D01*
X73667081Y-83091788D01*
X73663404Y-83129120D01*
X73667081Y-83166453D01*
X73678078Y-83278106D01*
X73684943Y-83300737D01*
X73721534Y-83421366D01*
X73792106Y-83553396D01*
X73860575Y-83636825D01*
X73887080Y-83669121D01*
X73916078Y-83692919D01*
X74117276Y-83894117D01*
X74141079Y-83923121D01*
X74256804Y-84018094D01*
X74388833Y-84088666D01*
X74532094Y-84132123D01*
X74643747Y-84143120D01*
X74643756Y-84143120D01*
X74681079Y-84146796D01*
X74718402Y-84143120D01*
X98341958Y-84143120D01*
X98379280Y-84146796D01*
X98416602Y-84143120D01*
X98416613Y-84143120D01*
X98528266Y-84132123D01*
X98671527Y-84088666D01*
X98803556Y-84018094D01*
X98919281Y-83923121D01*
X98943084Y-83894117D01*
X99078238Y-83758963D01*
X99107241Y-83735161D01*
X99202214Y-83619436D01*
X99272786Y-83487407D01*
X99316243Y-83344146D01*
X99327240Y-83232493D01*
X99327240Y-83232492D01*
X99330917Y-83195160D01*
X99327240Y-83157827D01*
X99327240Y-82629543D01*
X99481999Y-82526137D01*
X99681877Y-82326259D01*
X99837240Y-82093741D01*
X99992603Y-82326259D01*
X100192481Y-82526137D01*
X100427513Y-82683180D01*
X100688666Y-82791353D01*
X100965905Y-82846500D01*
X101248575Y-82846500D01*
X101525814Y-82791353D01*
X101786967Y-82683180D01*
X102021999Y-82526137D01*
X102221877Y-82326259D01*
X102377240Y-82093741D01*
X102532603Y-82326259D01*
X102732481Y-82526137D01*
X102967513Y-82683180D01*
X103228666Y-82791353D01*
X103505905Y-82846500D01*
X103788575Y-82846500D01*
X104065814Y-82791353D01*
X104326967Y-82683180D01*
X104561999Y-82526137D01*
X104761877Y-82326259D01*
X104917240Y-82093741D01*
X105072603Y-82326259D01*
X105272481Y-82526137D01*
X105507513Y-82683180D01*
X105768666Y-82791353D01*
X106045905Y-82846500D01*
X106328575Y-82846500D01*
X106605814Y-82791353D01*
X106866967Y-82683180D01*
X107101999Y-82526137D01*
X107223934Y-82404202D01*
X107914143Y-82404202D01*
X107985726Y-82648171D01*
X108241236Y-82769071D01*
X108515424Y-82837800D01*
X108797752Y-82851717D01*
X109077370Y-82810287D01*
X109343532Y-82715103D01*
X109468754Y-82648171D01*
X109540337Y-82404202D01*
X108727240Y-81591105D01*
X107914143Y-82404202D01*
X107223934Y-82404202D01*
X107301877Y-82326259D01*
X107458155Y-82092372D01*
X107490569Y-82153014D01*
X107734538Y-82224597D01*
X108547635Y-81411500D01*
X108906845Y-81411500D01*
X109719942Y-82224597D01*
X109963911Y-82153014D01*
X109994434Y-82088508D01*
X109995560Y-82091227D01*
X110152603Y-82326259D01*
X110352481Y-82526137D01*
X110587513Y-82683180D01*
X110848666Y-82791353D01*
X111125905Y-82846500D01*
X111408575Y-82846500D01*
X111685814Y-82791353D01*
X111946967Y-82683180D01*
X112181999Y-82526137D01*
X112381877Y-82326259D01*
X112538920Y-82091227D01*
X112647093Y-81830074D01*
X112702240Y-81552835D01*
X112702240Y-81270165D01*
X112647093Y-80992926D01*
X112538920Y-80731773D01*
X112381877Y-80496741D01*
X112181999Y-80296863D01*
X111946967Y-80139820D01*
X111685814Y-80031647D01*
X111408575Y-79976500D01*
X111125905Y-79976500D01*
X110848666Y-80031647D01*
X110587513Y-80139820D01*
X110352481Y-80296863D01*
X110152603Y-80496741D01*
X109996325Y-80730628D01*
X109963911Y-80669986D01*
X109719942Y-80598403D01*
X108906845Y-81411500D01*
X108547635Y-81411500D01*
X107734538Y-80598403D01*
X107490569Y-80669986D01*
X107460046Y-80734492D01*
X107458920Y-80731773D01*
X107301877Y-80496741D01*
X107101999Y-80296863D01*
X106866967Y-80139820D01*
X106605814Y-80031647D01*
X106328575Y-79976500D01*
X106045905Y-79976500D01*
X105768666Y-80031647D01*
X105507513Y-80139820D01*
X105272481Y-80296863D01*
X105072603Y-80496741D01*
X104917240Y-80729259D01*
X104761877Y-80496741D01*
X104561999Y-80296863D01*
X104326967Y-80139820D01*
X104065814Y-80031647D01*
X103788575Y-79976500D01*
X103505905Y-79976500D01*
X103228666Y-80031647D01*
X102967513Y-80139820D01*
X102732481Y-80296863D01*
X102532603Y-80496741D01*
X102377240Y-80729259D01*
X102221877Y-80496741D01*
X102021999Y-80296863D01*
X101786967Y-80139820D01*
X101525814Y-80031647D01*
X101248575Y-79976500D01*
X100965905Y-79976500D01*
X100688666Y-80031647D01*
X100427513Y-80139820D01*
X100192481Y-80296863D01*
X99992603Y-80496741D01*
X99837240Y-80729259D01*
X99681877Y-80496741D01*
X99481999Y-80296863D01*
X99246967Y-80139820D01*
X98985814Y-80031647D01*
X98708575Y-79976500D01*
X98425905Y-79976500D01*
X98148666Y-80031647D01*
X97887513Y-80139820D01*
X97652481Y-80296863D01*
X97452603Y-80496741D01*
X97297240Y-80729259D01*
X97141877Y-80496741D01*
X96941999Y-80296863D01*
X96706967Y-80139820D01*
X96445814Y-80031647D01*
X96168575Y-79976500D01*
X95987461Y-79976500D01*
X97233796Y-78730165D01*
X107292240Y-78730165D01*
X107292240Y-79012835D01*
X107347387Y-79290074D01*
X107455560Y-79551227D01*
X107612603Y-79786259D01*
X107812481Y-79986137D01*
X108046368Y-80142415D01*
X107985726Y-80174829D01*
X107914143Y-80418798D01*
X108727240Y-81231895D01*
X109540337Y-80418798D01*
X109468754Y-80174829D01*
X109404248Y-80144306D01*
X109406967Y-80143180D01*
X109641999Y-79986137D01*
X109841877Y-79786259D01*
X109861761Y-79756500D01*
X112444402Y-79756500D01*
X112907000Y-80219099D01*
X112907001Y-84349335D01*
X112817518Y-84358148D01*
X112697820Y-84394458D01*
X112587506Y-84453423D01*
X112490815Y-84532775D01*
X112411463Y-84629466D01*
X112352498Y-84739780D01*
X112330487Y-84812340D01*
X112198632Y-84680485D01*
X111955411Y-84517970D01*
X111685158Y-84406028D01*
X111398260Y-84348960D01*
X111105740Y-84348960D01*
X110818842Y-84406028D01*
X110548589Y-84517970D01*
X110305368Y-84680485D01*
X110098525Y-84887328D01*
X109936010Y-85130549D01*
X109824068Y-85400802D01*
X109767000Y-85687700D01*
X109767000Y-85980220D01*
X109824068Y-86267118D01*
X109936010Y-86537371D01*
X110098525Y-86780592D01*
X110305368Y-86987435D01*
X110548589Y-87149950D01*
X110818842Y-87261892D01*
X111105740Y-87318960D01*
X111398260Y-87318960D01*
X111685158Y-87261892D01*
X111955411Y-87149950D01*
X112198632Y-86987435D01*
X112330487Y-86855580D01*
X112352498Y-86928140D01*
X112411463Y-87038454D01*
X112490815Y-87135145D01*
X112587506Y-87214497D01*
X112697820Y-87273462D01*
X112817518Y-87309772D01*
X112942000Y-87322032D01*
X113049390Y-87322032D01*
X113052590Y-87328019D01*
X113163184Y-87462777D01*
X113297942Y-87573371D01*
X113451688Y-87655549D01*
X113618511Y-87706155D01*
X113792000Y-87723242D01*
X113965490Y-87706155D01*
X114132313Y-87655549D01*
X114286059Y-87573371D01*
X114420817Y-87462777D01*
X114531411Y-87328019D01*
X114534611Y-87322032D01*
X114642000Y-87322032D01*
X114766482Y-87309772D01*
X114886180Y-87273462D01*
X114996494Y-87214497D01*
X115093185Y-87135145D01*
X115172537Y-87038454D01*
X115231502Y-86928140D01*
X115267812Y-86808442D01*
X115280072Y-86683960D01*
X115280072Y-85804495D01*
X117015000Y-85804495D01*
X117015000Y-86195505D01*
X117091282Y-86579003D01*
X117240915Y-86940250D01*
X117458149Y-87265364D01*
X117734636Y-87541851D01*
X118059750Y-87759085D01*
X118420997Y-87908718D01*
X118804495Y-87985000D01*
X119195505Y-87985000D01*
X119579003Y-87908718D01*
X119940250Y-87759085D01*
X120265364Y-87541851D01*
X120541851Y-87265364D01*
X120759085Y-86940250D01*
X120908718Y-86579003D01*
X120985000Y-86195505D01*
X120985000Y-85804495D01*
X120908718Y-85420997D01*
X120759085Y-85059750D01*
X120541851Y-84734636D01*
X120265364Y-84458149D01*
X119940250Y-84240915D01*
X119579003Y-84091282D01*
X119195505Y-84015000D01*
X118804495Y-84015000D01*
X118420997Y-84091282D01*
X118059750Y-84240915D01*
X117734636Y-84458149D01*
X117458149Y-84734636D01*
X117240915Y-85059750D01*
X117091282Y-85420997D01*
X117015000Y-85804495D01*
X115280072Y-85804495D01*
X115280072Y-84983960D01*
X115267812Y-84859478D01*
X115231502Y-84739780D01*
X115172537Y-84629466D01*
X115093185Y-84532775D01*
X114996494Y-84453423D01*
X114886180Y-84394458D01*
X114766482Y-84358148D01*
X114677000Y-84349335D01*
X114677000Y-79895989D01*
X114681281Y-79852520D01*
X114677000Y-79809051D01*
X114677000Y-79809043D01*
X114664195Y-79679030D01*
X114613589Y-79512207D01*
X114531411Y-79358461D01*
X114475287Y-79290074D01*
X114448532Y-79257473D01*
X114448530Y-79257471D01*
X114420817Y-79223703D01*
X114387050Y-79195991D01*
X113467514Y-78276456D01*
X113439797Y-78242683D01*
X113305039Y-78132089D01*
X113151293Y-78049911D01*
X112984470Y-77999305D01*
X112854457Y-77986500D01*
X112854449Y-77986500D01*
X112810980Y-77982219D01*
X112767511Y-77986500D01*
X109861761Y-77986500D01*
X109841877Y-77956741D01*
X109641999Y-77756863D01*
X109406967Y-77599820D01*
X109145814Y-77491647D01*
X108868575Y-77436500D01*
X108585905Y-77436500D01*
X108308666Y-77491647D01*
X108047513Y-77599820D01*
X107812481Y-77756863D01*
X107612603Y-77956741D01*
X107455560Y-78191773D01*
X107347387Y-78452926D01*
X107292240Y-78730165D01*
X97233796Y-78730165D01*
X103128036Y-72835925D01*
X124355200Y-72835925D01*
X124355200Y-73118595D01*
X124410347Y-73395834D01*
X124518520Y-73656987D01*
X124675563Y-73892019D01*
X124875441Y-74091897D01*
X125110473Y-74248940D01*
X125371626Y-74357113D01*
X125648865Y-74412260D01*
X125931535Y-74412260D01*
X126208774Y-74357113D01*
X126469927Y-74248940D01*
X126704959Y-74091897D01*
X126904837Y-73892019D01*
X127061880Y-73656987D01*
X127170053Y-73395834D01*
X127225200Y-73118595D01*
X127225200Y-72835925D01*
X127170053Y-72558686D01*
X127061880Y-72297533D01*
X126904837Y-72062501D01*
X126704959Y-71862623D01*
X126469927Y-71705580D01*
X126208774Y-71597407D01*
X125931535Y-71542260D01*
X125648865Y-71542260D01*
X125371626Y-71597407D01*
X125110473Y-71705580D01*
X124875441Y-71862623D01*
X124675563Y-72062501D01*
X124518520Y-72297533D01*
X124410347Y-72558686D01*
X124355200Y-72835925D01*
X103128036Y-72835925D01*
X106992262Y-68971700D01*
X117630718Y-68971700D01*
X117668040Y-68975376D01*
X117705362Y-68971700D01*
X117705373Y-68971700D01*
X117817026Y-68960703D01*
X117960287Y-68917246D01*
X118092316Y-68846674D01*
X118208041Y-68751701D01*
X118231843Y-68722698D01*
X118787884Y-68166658D01*
X118816881Y-68142861D01*
X118911854Y-68027136D01*
X118982426Y-67895107D01*
X119016880Y-67781525D01*
X119016880Y-67910858D01*
X119013204Y-67948180D01*
X119016880Y-67985502D01*
X119016880Y-67985513D01*
X119024485Y-68062715D01*
X119027878Y-68097165D01*
X119071334Y-68240426D01*
X119141906Y-68372456D01*
X119213081Y-68459182D01*
X119236880Y-68488181D01*
X119265878Y-68511979D01*
X119570560Y-68816661D01*
X119594338Y-68845639D01*
X119623357Y-68869458D01*
X119623378Y-68869479D01*
X119652811Y-68893634D01*
X119710056Y-68940621D01*
X119710082Y-68940635D01*
X119710104Y-68940653D01*
X119775065Y-68975376D01*
X119842080Y-69011203D01*
X119842107Y-69011211D01*
X119842133Y-69011225D01*
X119913321Y-69032819D01*
X119985337Y-69054671D01*
X119985366Y-69054674D01*
X119985393Y-69054682D01*
X120053228Y-69061363D01*
X120096990Y-69065677D01*
X120097026Y-69065677D01*
X120134379Y-69069356D01*
X120171674Y-69065683D01*
X124687860Y-69066026D01*
X124533760Y-69296653D01*
X124425587Y-69557806D01*
X124370440Y-69835045D01*
X124370440Y-70117715D01*
X124425587Y-70394954D01*
X124533760Y-70656107D01*
X124690803Y-70891139D01*
X124890681Y-71091017D01*
X125125713Y-71248060D01*
X125386866Y-71356233D01*
X125664105Y-71411380D01*
X125946775Y-71411380D01*
X126224014Y-71356233D01*
X126430440Y-71270729D01*
X126636866Y-71356233D01*
X126914105Y-71411380D01*
X127196775Y-71411380D01*
X127474014Y-71356233D01*
X127735167Y-71248060D01*
X127970199Y-71091017D01*
X128170077Y-70891139D01*
X128327120Y-70656107D01*
X128435293Y-70394954D01*
X128490440Y-70117715D01*
X128490440Y-69835045D01*
X128435293Y-69557806D01*
X128327120Y-69296653D01*
X128170077Y-69061621D01*
X128164102Y-69055646D01*
X130947886Y-69048433D01*
X131062736Y-69163283D01*
X130818769Y-69234866D01*
X130697869Y-69490376D01*
X130629140Y-69764564D01*
X130615223Y-70046892D01*
X130656653Y-70326510D01*
X130751837Y-70592672D01*
X130818769Y-70717894D01*
X131062738Y-70789477D01*
X131868329Y-69983886D01*
X131865223Y-70046892D01*
X131903848Y-70307577D01*
X131242343Y-70969082D01*
X131313926Y-71213051D01*
X131569436Y-71333951D01*
X131843624Y-71402680D01*
X132125952Y-71416597D01*
X132405570Y-71375167D01*
X132671732Y-71279983D01*
X132687532Y-71271538D01*
X132819436Y-71333951D01*
X133093624Y-71402680D01*
X133375952Y-71416597D01*
X133655570Y-71375167D01*
X133921732Y-71279983D01*
X134046954Y-71213051D01*
X134118537Y-70969082D01*
X133452861Y-70303406D01*
X133481740Y-70188196D01*
X133491846Y-69983181D01*
X134298142Y-70789477D01*
X134542111Y-70717894D01*
X134663011Y-70462384D01*
X134731740Y-70188196D01*
X134745657Y-69905868D01*
X134704227Y-69626250D01*
X134609043Y-69360088D01*
X134542111Y-69234866D01*
X134298142Y-69163283D01*
X133492551Y-69968874D01*
X133495657Y-69905868D01*
X133457032Y-69645183D01*
X134118537Y-68983678D01*
X134046954Y-68739709D01*
X133791444Y-68618809D01*
X133517256Y-68550080D01*
X133460367Y-68547276D01*
X133921202Y-68086440D01*
X133950201Y-68062642D01*
X134045174Y-67946917D01*
X134115746Y-67814888D01*
X134159203Y-67671627D01*
X134166113Y-67601469D01*
X134356832Y-67474035D01*
X134563675Y-67267192D01*
X134664082Y-67116922D01*
X134684004Y-67114960D01*
X137256981Y-67114960D01*
X137300129Y-72486444D01*
G36*
X195944545Y-57578909D02*
G01*
X196295208Y-57684780D01*
X196618625Y-57856744D01*
X196902484Y-58088254D01*
X197135965Y-58370486D01*
X197310183Y-58692695D01*
X197418502Y-59042614D01*
X197460000Y-59437443D01*
X197460001Y-87867711D01*
X197421091Y-88264545D01*
X197315220Y-88615206D01*
X197143257Y-88938623D01*
X196911748Y-89222482D01*
X196629514Y-89455965D01*
X196307304Y-89630184D01*
X195957385Y-89738502D01*
X195562557Y-89780000D01*
X162241359Y-89780000D01*
X162438764Y-89582595D01*
X162472537Y-89554878D01*
X162583131Y-89420120D01*
X162665309Y-89266374D01*
X162715915Y-89099551D01*
X162728720Y-88969538D01*
X162728720Y-88969530D01*
X162733001Y-88926061D01*
X162732051Y-88916411D01*
X162790352Y-88877455D01*
X162915430Y-88752377D01*
X163534928Y-88752377D01*
X163612563Y-89001452D01*
X163876603Y-89127351D01*
X164160131Y-89199319D01*
X164452251Y-89214591D01*
X164741739Y-89172579D01*
X165017467Y-89074899D01*
X165154877Y-89001452D01*
X165232512Y-88752377D01*
X164383720Y-87903585D01*
X163534928Y-88752377D01*
X162915430Y-88752377D01*
X162997195Y-88670612D01*
X163113031Y-88497251D01*
X163355323Y-88572772D01*
X164204115Y-87723980D01*
X163355323Y-86875188D01*
X163113031Y-86950709D01*
X162997195Y-86777348D01*
X162790352Y-86570505D01*
X162582974Y-86431940D01*
X162754792Y-86317135D01*
X162879870Y-86192057D01*
X163499368Y-86192057D01*
X163577003Y-86441132D01*
X163609421Y-86456589D01*
X163534928Y-86695583D01*
X164383720Y-87544375D01*
X165232512Y-86695583D01*
X165154877Y-86446508D01*
X165122459Y-86431051D01*
X165196952Y-86192057D01*
X164348160Y-85343265D01*
X163499368Y-86192057D01*
X162879870Y-86192057D01*
X162961635Y-86110292D01*
X163077471Y-85936931D01*
X163319763Y-86012452D01*
X164168555Y-85163660D01*
X164527765Y-85163660D01*
X165376557Y-86012452D01*
X165618849Y-85936931D01*
X165734685Y-86110292D01*
X165941528Y-86317135D01*
X166148906Y-86455700D01*
X165977088Y-86570505D01*
X165770245Y-86777348D01*
X165654409Y-86950709D01*
X165412117Y-86875188D01*
X164563325Y-87723980D01*
X165412117Y-88572772D01*
X165654409Y-88497251D01*
X165770245Y-88670612D01*
X165977088Y-88877455D01*
X166220309Y-89039970D01*
X166490562Y-89151912D01*
X166777460Y-89208980D01*
X167069980Y-89208980D01*
X167356878Y-89151912D01*
X167627131Y-89039970D01*
X167870352Y-88877455D01*
X168077195Y-88670612D01*
X168193720Y-88496220D01*
X168310245Y-88670612D01*
X168517088Y-88877455D01*
X168760309Y-89039970D01*
X169030562Y-89151912D01*
X169317460Y-89208980D01*
X169609980Y-89208980D01*
X169896878Y-89151912D01*
X170167131Y-89039970D01*
X170410352Y-88877455D01*
X170617195Y-88670612D01*
X170733720Y-88496220D01*
X170850245Y-88670612D01*
X171057088Y-88877455D01*
X171300309Y-89039970D01*
X171570562Y-89151912D01*
X171857460Y-89208980D01*
X172149980Y-89208980D01*
X172436878Y-89151912D01*
X172707131Y-89039970D01*
X172950352Y-88877455D01*
X173157195Y-88670612D01*
X173273720Y-88496220D01*
X173390245Y-88670612D01*
X173597088Y-88877455D01*
X173840309Y-89039970D01*
X174110562Y-89151912D01*
X174397460Y-89208980D01*
X174689980Y-89208980D01*
X174976878Y-89151912D01*
X175247131Y-89039970D01*
X175490352Y-88877455D01*
X175697195Y-88670612D01*
X175813720Y-88496220D01*
X175930245Y-88670612D01*
X176137088Y-88877455D01*
X176380309Y-89039970D01*
X176650562Y-89151912D01*
X176937460Y-89208980D01*
X177229980Y-89208980D01*
X177516878Y-89151912D01*
X177787131Y-89039970D01*
X178030352Y-88877455D01*
X178237195Y-88670612D01*
X178353720Y-88496220D01*
X178470245Y-88670612D01*
X178677088Y-88877455D01*
X178920309Y-89039970D01*
X179190562Y-89151912D01*
X179477460Y-89208980D01*
X179769980Y-89208980D01*
X180056878Y-89151912D01*
X180327131Y-89039970D01*
X180570352Y-88877455D01*
X180695430Y-88752377D01*
X181314928Y-88752377D01*
X181392563Y-89001452D01*
X181656603Y-89127351D01*
X181940131Y-89199319D01*
X182232251Y-89214591D01*
X182521739Y-89172579D01*
X182797467Y-89074899D01*
X182934877Y-89001452D01*
X183012512Y-88752377D01*
X182163720Y-87903585D01*
X181314928Y-88752377D01*
X180695430Y-88752377D01*
X180777195Y-88670612D01*
X180893031Y-88497251D01*
X181135323Y-88572772D01*
X181984115Y-87723980D01*
X181135323Y-86875188D01*
X180893031Y-86950709D01*
X180777195Y-86777348D01*
X180570352Y-86570505D01*
X180362974Y-86431940D01*
X180534792Y-86317135D01*
X180659870Y-86192057D01*
X181279368Y-86192057D01*
X181357003Y-86441132D01*
X181389421Y-86456589D01*
X181314928Y-86695583D01*
X182163720Y-87544375D01*
X183012512Y-86695583D01*
X182934877Y-86446508D01*
X182902459Y-86431051D01*
X182976952Y-86192057D01*
X182128160Y-85343265D01*
X181279368Y-86192057D01*
X180659870Y-86192057D01*
X180741635Y-86110292D01*
X180857471Y-85936931D01*
X181099763Y-86012452D01*
X181948555Y-85163660D01*
X181099763Y-84314868D01*
X180857471Y-84390389D01*
X180741635Y-84217028D01*
X180659870Y-84135263D01*
X181279368Y-84135263D01*
X182128160Y-84984055D01*
X182976952Y-84135263D01*
X182899317Y-83886188D01*
X182635277Y-83760289D01*
X182351749Y-83688321D01*
X182059629Y-83673049D01*
X181770141Y-83715061D01*
X181494413Y-83812741D01*
X181357003Y-83886188D01*
X181279368Y-84135263D01*
X180659870Y-84135263D01*
X180534792Y-84010185D01*
X180291571Y-83847670D01*
X180021318Y-83735728D01*
X179734420Y-83678660D01*
X179441900Y-83678660D01*
X179155002Y-83735728D01*
X178884749Y-83847670D01*
X178641528Y-84010185D01*
X178434685Y-84217028D01*
X178318160Y-84391420D01*
X178201635Y-84217028D01*
X177994792Y-84010185D01*
X177751571Y-83847670D01*
X177481318Y-83735728D01*
X177194420Y-83678660D01*
X176901900Y-83678660D01*
X176615002Y-83735728D01*
X176344749Y-83847670D01*
X176101528Y-84010185D01*
X175894685Y-84217028D01*
X175778160Y-84391420D01*
X175661635Y-84217028D01*
X175454792Y-84010185D01*
X175211571Y-83847670D01*
X174941318Y-83735728D01*
X174654420Y-83678660D01*
X174361900Y-83678660D01*
X174075002Y-83735728D01*
X173804749Y-83847670D01*
X173561528Y-84010185D01*
X173354685Y-84217028D01*
X173238160Y-84391420D01*
X173121635Y-84217028D01*
X172914792Y-84010185D01*
X172671571Y-83847670D01*
X172401318Y-83735728D01*
X172114420Y-83678660D01*
X171821900Y-83678660D01*
X171535002Y-83735728D01*
X171264749Y-83847670D01*
X171021528Y-84010185D01*
X170814685Y-84217028D01*
X170698160Y-84391420D01*
X170581635Y-84217028D01*
X170374792Y-84010185D01*
X170131571Y-83847670D01*
X169861318Y-83735728D01*
X169574420Y-83678660D01*
X169281900Y-83678660D01*
X168995002Y-83735728D01*
X168724749Y-83847670D01*
X168481528Y-84010185D01*
X168274685Y-84217028D01*
X168158160Y-84391420D01*
X168041635Y-84217028D01*
X167834792Y-84010185D01*
X167591571Y-83847670D01*
X167321318Y-83735728D01*
X167034420Y-83678660D01*
X166741900Y-83678660D01*
X166455002Y-83735728D01*
X166184749Y-83847670D01*
X165941528Y-84010185D01*
X165734685Y-84217028D01*
X165618849Y-84390389D01*
X165376557Y-84314868D01*
X164527765Y-85163660D01*
X164168555Y-85163660D01*
X163319763Y-84314868D01*
X163077471Y-84390389D01*
X162961635Y-84217028D01*
X162879870Y-84135263D01*
X163499368Y-84135263D01*
X164348160Y-84984055D01*
X165196952Y-84135263D01*
X165119317Y-83886188D01*
X164855277Y-83760289D01*
X164571749Y-83688321D01*
X164279629Y-83673049D01*
X163990141Y-83715061D01*
X163714413Y-83812741D01*
X163577003Y-83886188D01*
X163499368Y-84135263D01*
X162879870Y-84135263D01*
X162754792Y-84010185D01*
X162693160Y-83969004D01*
X162693160Y-83483260D01*
X174446904Y-83483260D01*
X174490380Y-83487542D01*
X174533857Y-83483260D01*
X183234782Y-83483260D01*
X183745613Y-83994092D01*
X183721528Y-84010185D01*
X183514685Y-84217028D01*
X183398849Y-84390389D01*
X183156557Y-84314868D01*
X182307765Y-85163660D01*
X183156557Y-86012452D01*
X183398849Y-85936931D01*
X183514685Y-86110292D01*
X183721528Y-86317135D01*
X183928906Y-86455700D01*
X183757088Y-86570505D01*
X183550245Y-86777348D01*
X183434409Y-86950709D01*
X183192117Y-86875188D01*
X182343325Y-87723980D01*
X183192117Y-88572772D01*
X183434409Y-88497251D01*
X183550245Y-88670612D01*
X183757088Y-88877455D01*
X184000309Y-89039970D01*
X184270562Y-89151912D01*
X184557460Y-89208980D01*
X184849980Y-89208980D01*
X185136878Y-89151912D01*
X185407131Y-89039970D01*
X185650352Y-88877455D01*
X185857195Y-88670612D01*
X186019710Y-88427391D01*
X186131652Y-88157138D01*
X186188720Y-87870240D01*
X186188720Y-87577720D01*
X186131652Y-87290822D01*
X186019710Y-87020569D01*
X185857195Y-86777348D01*
X185650352Y-86570505D01*
X185442974Y-86431940D01*
X185614792Y-86317135D01*
X185821635Y-86110292D01*
X185984150Y-85867071D01*
X186096092Y-85596818D01*
X186153160Y-85309920D01*
X186153160Y-85017400D01*
X186096092Y-84730502D01*
X185984150Y-84460249D01*
X185821635Y-84217028D01*
X185637719Y-84033112D01*
X185651610Y-83842112D01*
X185659041Y-83766659D01*
X185653648Y-83711906D01*
X185652241Y-83656892D01*
X185645123Y-83625349D01*
X185641954Y-83593169D01*
X185625980Y-83540511D01*
X185613869Y-83486838D01*
X185600735Y-83457289D01*
X185591348Y-83426346D01*
X185565413Y-83377824D01*
X185543060Y-83327536D01*
X185524412Y-83301116D01*
X185509170Y-83272600D01*
X185474259Y-83230061D01*
X185442532Y-83185111D01*
X185387560Y-83132881D01*
X184257894Y-82003216D01*
X184230177Y-81969443D01*
X184095419Y-81858849D01*
X183941673Y-81776671D01*
X183774850Y-81726065D01*
X183644837Y-81713260D01*
X183644829Y-81713260D01*
X183601360Y-81708979D01*
X183557891Y-81713260D01*
X175375380Y-81713260D01*
X175375380Y-63695631D01*
X175380355Y-63679231D01*
X175393160Y-63549218D01*
X175393160Y-63549210D01*
X175397441Y-63505741D01*
X175396491Y-63496091D01*
X175454792Y-63457135D01*
X175661635Y-63250292D01*
X175778160Y-63075900D01*
X175894685Y-63250292D01*
X176101528Y-63457135D01*
X176344749Y-63619650D01*
X176615002Y-63731592D01*
X176901900Y-63788660D01*
X177194420Y-63788660D01*
X177481318Y-63731592D01*
X177751571Y-63619650D01*
X177994792Y-63457135D01*
X178201635Y-63250292D01*
X178318160Y-63075900D01*
X178434685Y-63250292D01*
X178641528Y-63457135D01*
X178884749Y-63619650D01*
X179155002Y-63731592D01*
X179441900Y-63788660D01*
X179734420Y-63788660D01*
X180021318Y-63731592D01*
X180291571Y-63619650D01*
X180534792Y-63457135D01*
X180659870Y-63332057D01*
X181279368Y-63332057D01*
X181357003Y-63581132D01*
X181621043Y-63707031D01*
X181904571Y-63778999D01*
X182196691Y-63794271D01*
X182486179Y-63752259D01*
X182761907Y-63654579D01*
X182899317Y-63581132D01*
X182976952Y-63332057D01*
X182128160Y-62483265D01*
X181279368Y-63332057D01*
X180659870Y-63332057D01*
X180741635Y-63250292D01*
X180857471Y-63076931D01*
X181099763Y-63152452D01*
X181948555Y-62303660D01*
X182307765Y-62303660D01*
X183156557Y-63152452D01*
X183398849Y-63076931D01*
X183514685Y-63250292D01*
X183721528Y-63457135D01*
X183964749Y-63619650D01*
X184235002Y-63731592D01*
X184521900Y-63788660D01*
X184814420Y-63788660D01*
X185101318Y-63731592D01*
X185371571Y-63619650D01*
X185614792Y-63457135D01*
X185821635Y-63250292D01*
X185984150Y-63007071D01*
X186096092Y-62736818D01*
X186153160Y-62449920D01*
X186153160Y-62157400D01*
X186096092Y-61870502D01*
X185984150Y-61600249D01*
X185821635Y-61357028D01*
X185614792Y-61150185D01*
X185473385Y-61055700D01*
X185650352Y-60937455D01*
X185857195Y-60730612D01*
X186019710Y-60487391D01*
X186131652Y-60217138D01*
X186188720Y-59930240D01*
X186188720Y-59637720D01*
X186131652Y-59350822D01*
X186019710Y-59080569D01*
X185857195Y-58837348D01*
X185650352Y-58630505D01*
X185407131Y-58467990D01*
X185136878Y-58356048D01*
X184849980Y-58298980D01*
X184557460Y-58298980D01*
X184270562Y-58356048D01*
X184000309Y-58467990D01*
X183757088Y-58630505D01*
X183550245Y-58837348D01*
X183434409Y-59010709D01*
X183192117Y-58935188D01*
X182343325Y-59783980D01*
X183192117Y-60632772D01*
X183434409Y-60557251D01*
X183550245Y-60730612D01*
X183757088Y-60937455D01*
X183898495Y-61031940D01*
X183721528Y-61150185D01*
X183514685Y-61357028D01*
X183398849Y-61530389D01*
X183156557Y-61454868D01*
X182307765Y-62303660D01*
X181948555Y-62303660D01*
X181099763Y-61454868D01*
X180857471Y-61530389D01*
X180741635Y-61357028D01*
X180659870Y-61275263D01*
X181279368Y-61275263D01*
X182128160Y-62124055D01*
X182976952Y-61275263D01*
X182913817Y-61072709D01*
X182934877Y-61061452D01*
X183012512Y-60812377D01*
X182163720Y-59963585D01*
X181314928Y-60812377D01*
X181378063Y-61014931D01*
X181357003Y-61026188D01*
X181279368Y-61275263D01*
X180659870Y-61275263D01*
X180534792Y-61150185D01*
X180393385Y-61055700D01*
X180570352Y-60937455D01*
X180777195Y-60730612D01*
X180893031Y-60557251D01*
X181135323Y-60632772D01*
X181984115Y-59783980D01*
X181135323Y-58935188D01*
X180893031Y-59010709D01*
X180777195Y-58837348D01*
X180695430Y-58755583D01*
X181314928Y-58755583D01*
X182163720Y-59604375D01*
X183012512Y-58755583D01*
X182934877Y-58506508D01*
X182670837Y-58380609D01*
X182387309Y-58308641D01*
X182095189Y-58293369D01*
X181805701Y-58335381D01*
X181529973Y-58433061D01*
X181392563Y-58506508D01*
X181314928Y-58755583D01*
X180695430Y-58755583D01*
X180570352Y-58630505D01*
X180327131Y-58467990D01*
X180056878Y-58356048D01*
X179769980Y-58298980D01*
X179477460Y-58298980D01*
X179190562Y-58356048D01*
X178920309Y-58467990D01*
X178677088Y-58630505D01*
X178470245Y-58837348D01*
X178353720Y-59011740D01*
X178237195Y-58837348D01*
X178030352Y-58630505D01*
X177787131Y-58467990D01*
X177516878Y-58356048D01*
X177229980Y-58298980D01*
X176937460Y-58298980D01*
X176650562Y-58356048D01*
X176380309Y-58467990D01*
X176137088Y-58630505D01*
X175930245Y-58837348D01*
X175813720Y-59011740D01*
X175697195Y-58837348D01*
X175490352Y-58630505D01*
X175247131Y-58467990D01*
X174976878Y-58356048D01*
X174689980Y-58298980D01*
X174397460Y-58298980D01*
X174110562Y-58356048D01*
X173840309Y-58467990D01*
X173597088Y-58630505D01*
X173390245Y-58837348D01*
X173274409Y-59010709D01*
X173032117Y-58935188D01*
X172183325Y-59783980D01*
X173032117Y-60632772D01*
X173274409Y-60557251D01*
X173390245Y-60730612D01*
X173597088Y-60937455D01*
X173738495Y-61031940D01*
X173561528Y-61150185D01*
X173354685Y-61357028D01*
X173238849Y-61530389D01*
X172996557Y-61454868D01*
X172147765Y-62303660D01*
X172996557Y-63152452D01*
X173238849Y-63076931D01*
X173354685Y-63250292D01*
X173561528Y-63457135D01*
X173604790Y-63486042D01*
X173601099Y-63523521D01*
X173605380Y-63566990D01*
X173605381Y-81713260D01*
X161925289Y-81713260D01*
X161881820Y-81708979D01*
X161838351Y-81713260D01*
X161838343Y-81713260D01*
X161708330Y-81726065D01*
X161541507Y-81776671D01*
X161387761Y-81858849D01*
X161253003Y-81969443D01*
X161225286Y-82003216D01*
X161213112Y-82015390D01*
X161179344Y-82043103D01*
X161151631Y-82076871D01*
X161151628Y-82076874D01*
X161068750Y-82177861D01*
X160986572Y-82331607D01*
X160935965Y-82498430D01*
X160918879Y-82671920D01*
X160923161Y-82715399D01*
X160923160Y-83969004D01*
X160861528Y-84010185D01*
X160654685Y-84217028D01*
X160538160Y-84391420D01*
X160421635Y-84217028D01*
X160214792Y-84010185D01*
X159971571Y-83847670D01*
X159701318Y-83735728D01*
X159414420Y-83678660D01*
X159121900Y-83678660D01*
X158835002Y-83735728D01*
X158564749Y-83847670D01*
X158321528Y-84010185D01*
X158114685Y-84217028D01*
X157998160Y-84391420D01*
X157881635Y-84217028D01*
X157674792Y-84010185D01*
X157488160Y-83885482D01*
X157488160Y-83259545D01*
X157502562Y-83212066D01*
X157502636Y-83211316D01*
X157502853Y-83210595D01*
X157509980Y-83136751D01*
X157517236Y-83063081D01*
X157517162Y-83062333D01*
X157517235Y-83061581D01*
X157509812Y-82987701D01*
X157502562Y-82914095D01*
X157502343Y-82913374D01*
X157502268Y-82912624D01*
X157480660Y-82841891D01*
X157459106Y-82770834D01*
X157458749Y-82770166D01*
X157458530Y-82769449D01*
X157423669Y-82704536D01*
X157388534Y-82638804D01*
X157388053Y-82638217D01*
X157387699Y-82637559D01*
X157340871Y-82580726D01*
X157293561Y-82523079D01*
X157292976Y-82522599D01*
X157292499Y-82522020D01*
X157235422Y-82475365D01*
X157177836Y-82428106D01*
X157177167Y-82427749D01*
X157176588Y-82427275D01*
X157111480Y-82392637D01*
X157045806Y-82357534D01*
X157045083Y-82357315D01*
X157044420Y-82356962D01*
X156973363Y-82335559D01*
X156902545Y-82314078D01*
X156901800Y-82314005D01*
X156901074Y-82313786D01*
X156827085Y-82306646D01*
X156753559Y-82299404D01*
X156715484Y-82303154D01*
X138899315Y-82338128D01*
X138771199Y-66389253D01*
X138774577Y-66354960D01*
X138770600Y-66314576D01*
X138770575Y-66311524D01*
X138766947Y-66277489D01*
X138759903Y-66205974D01*
X138759008Y-66203025D01*
X138758682Y-66199963D01*
X138737312Y-66131499D01*
X138716446Y-66062713D01*
X138714991Y-66059991D01*
X138714075Y-66057056D01*
X138679775Y-65994107D01*
X138645874Y-65930684D01*
X138643917Y-65928299D01*
X138642445Y-65925598D01*
X138596520Y-65870546D01*
X138550901Y-65814959D01*
X138548516Y-65813002D01*
X138546545Y-65810639D01*
X138490760Y-65765603D01*
X138435176Y-65719986D01*
X138432454Y-65718531D01*
X138430061Y-65716599D01*
X138366563Y-65683311D01*
X138303147Y-65649414D01*
X138300195Y-65648519D01*
X138297470Y-65647090D01*
X138228683Y-65626826D01*
X138159886Y-65605957D01*
X138156816Y-65605655D01*
X138153864Y-65604785D01*
X138082419Y-65598327D01*
X138048233Y-65594960D01*
X138045169Y-65594960D01*
X138004766Y-65591308D01*
X137970510Y-65594960D01*
X134838418Y-65594960D01*
X134761267Y-65571557D01*
X134691109Y-65564647D01*
X134563675Y-65373928D01*
X134356832Y-65167085D01*
X134113611Y-65004570D01*
X133843358Y-64892628D01*
X133556460Y-64835560D01*
X133263940Y-64835560D01*
X132977042Y-64892628D01*
X132706789Y-65004570D01*
X132463568Y-65167085D01*
X132256725Y-65373928D01*
X132140200Y-65548320D01*
X132023675Y-65373928D01*
X131816832Y-65167085D01*
X131630200Y-65042382D01*
X131630200Y-64562722D01*
X131633876Y-64525399D01*
X131630200Y-64488076D01*
X131630200Y-64488067D01*
X131619203Y-64376414D01*
X131575746Y-64233153D01*
X131538138Y-64162794D01*
X131505174Y-64101123D01*
X131433999Y-64014397D01*
X131410201Y-63985399D01*
X131381203Y-63961602D01*
X130916603Y-63497002D01*
X130892801Y-63467999D01*
X130777076Y-63373026D01*
X130645047Y-63302454D01*
X130501786Y-63258997D01*
X130390133Y-63248000D01*
X130390122Y-63248000D01*
X130352800Y-63244324D01*
X130315478Y-63248000D01*
X119196682Y-63248000D01*
X119159359Y-63244324D01*
X119122036Y-63248000D01*
X119122027Y-63248000D01*
X119010374Y-63258997D01*
X118867113Y-63302454D01*
X118735084Y-63373026D01*
X118619359Y-63467999D01*
X118595561Y-63496997D01*
X117765878Y-64326681D01*
X117736880Y-64350479D01*
X117713082Y-64379477D01*
X117713081Y-64379478D01*
X117641906Y-64466204D01*
X117571334Y-64598234D01*
X117548922Y-64672119D01*
X117527878Y-64741494D01*
X117525784Y-64762755D01*
X117525715Y-64763459D01*
X117524999Y-64762755D01*
X117329634Y-64634630D01*
X117113027Y-64547081D01*
X117086624Y-64546677D01*
X116903880Y-64672119D01*
X116903880Y-65863480D01*
X116923880Y-65863480D01*
X116923880Y-66117480D01*
X116903880Y-66117480D01*
X116903880Y-66137480D01*
X116649880Y-66137480D01*
X116649880Y-66117480D01*
X115403880Y-66117480D01*
X115403880Y-66137480D01*
X115149880Y-66137480D01*
X115149880Y-66117480D01*
X114091880Y-66117480D01*
X114091880Y-66417480D01*
X114139426Y-66646222D01*
X114230684Y-66861293D01*
X114362146Y-67054428D01*
X114528761Y-67218205D01*
X114724126Y-67346330D01*
X114940733Y-67433879D01*
X114967136Y-67434283D01*
X115149878Y-67308842D01*
X115149878Y-67451700D01*
X112483070Y-67451700D01*
X112518425Y-67422685D01*
X112597777Y-67325994D01*
X112656742Y-67215680D01*
X112693052Y-67095982D01*
X112705312Y-66971500D01*
X112702240Y-66457250D01*
X112543490Y-66298500D01*
X111394240Y-66298500D01*
X111394240Y-66318500D01*
X111140240Y-66318500D01*
X111140240Y-66298500D01*
X111120240Y-66298500D01*
X111120240Y-66044500D01*
X111140240Y-66044500D01*
X111140240Y-64895250D01*
X111394240Y-64895250D01*
X111394240Y-66044500D01*
X112543490Y-66044500D01*
X112702240Y-65885750D01*
X112704165Y-65563480D01*
X114091880Y-65563480D01*
X114091880Y-65863480D01*
X115149880Y-65863480D01*
X115149880Y-64672119D01*
X115403880Y-64672119D01*
X115403880Y-65863480D01*
X116649880Y-65863480D01*
X116649880Y-64672119D01*
X116467136Y-64546677D01*
X116440733Y-64547081D01*
X116224126Y-64634630D01*
X116028761Y-64762755D01*
X116026880Y-64764604D01*
X116024999Y-64762755D01*
X115829634Y-64634630D01*
X115613027Y-64547081D01*
X115586624Y-64546677D01*
X115403880Y-64672119D01*
X115149880Y-64672119D01*
X114967136Y-64546677D01*
X114940733Y-64547081D01*
X114724126Y-64634630D01*
X114528761Y-64762755D01*
X114362146Y-64926532D01*
X114230684Y-65119667D01*
X114139426Y-65334738D01*
X114091880Y-65563480D01*
X112704165Y-65563480D01*
X112705312Y-65371500D01*
X112693052Y-65247018D01*
X112656742Y-65127320D01*
X112597777Y-65017006D01*
X112518425Y-64920315D01*
X112421734Y-64840963D01*
X112311420Y-64781998D01*
X112191722Y-64745688D01*
X112067240Y-64733428D01*
X111552990Y-64736500D01*
X111394240Y-64895250D01*
X111140240Y-64895250D01*
X110981490Y-64736500D01*
X110467240Y-64733428D01*
X110342758Y-64745688D01*
X110223060Y-64781998D01*
X110112746Y-64840963D01*
X110016055Y-64920315D01*
X109936703Y-65017006D01*
X109877738Y-65127320D01*
X109841428Y-65247018D01*
X109840597Y-65255461D01*
X109641999Y-65056863D01*
X109406967Y-64899820D01*
X109145814Y-64791647D01*
X108868575Y-64736500D01*
X108585905Y-64736500D01*
X108308666Y-64791647D01*
X108047513Y-64899820D01*
X107812481Y-65056863D01*
X107612603Y-65256741D01*
X107457240Y-65489259D01*
X107301877Y-65256741D01*
X107101999Y-65056863D01*
X106866967Y-64899820D01*
X106605814Y-64791647D01*
X106328575Y-64736500D01*
X106045905Y-64736500D01*
X105768666Y-64791647D01*
X105507513Y-64899820D01*
X105272481Y-65056863D01*
X105072603Y-65256741D01*
X104917240Y-65489259D01*
X104761877Y-65256741D01*
X104561999Y-65056863D01*
X104326967Y-64899820D01*
X104065814Y-64791647D01*
X103788575Y-64736500D01*
X103505905Y-64736500D01*
X103228666Y-64791647D01*
X102967513Y-64899820D01*
X102732481Y-65056863D01*
X102532603Y-65256741D01*
X102377240Y-65489259D01*
X102221877Y-65256741D01*
X102021999Y-65056863D01*
X101786967Y-64899820D01*
X101525814Y-64791647D01*
X101248575Y-64736500D01*
X100965905Y-64736500D01*
X100688666Y-64791647D01*
X100427513Y-64899820D01*
X100192481Y-65056863D01*
X99992603Y-65256741D01*
X99837240Y-65489259D01*
X99681877Y-65256741D01*
X99481999Y-65056863D01*
X99246967Y-64899820D01*
X98985814Y-64791647D01*
X98708575Y-64736500D01*
X98425905Y-64736500D01*
X98148666Y-64791647D01*
X97887513Y-64899820D01*
X97652481Y-65056863D01*
X97452603Y-65256741D01*
X97297240Y-65489259D01*
X97141877Y-65256741D01*
X96941999Y-65056863D01*
X96706967Y-64899820D01*
X96445814Y-64791647D01*
X96168575Y-64736500D01*
X95885905Y-64736500D01*
X95608666Y-64791647D01*
X95347513Y-64899820D01*
X95112481Y-65056863D01*
X94912603Y-65256741D01*
X94757240Y-65489259D01*
X94601877Y-65256741D01*
X94401999Y-65056863D01*
X94166967Y-64899820D01*
X93905814Y-64791647D01*
X93628575Y-64736500D01*
X93345905Y-64736500D01*
X93068666Y-64791647D01*
X92807513Y-64899820D01*
X92572481Y-65056863D01*
X92372603Y-65256741D01*
X92217240Y-65489259D01*
X92061877Y-65256741D01*
X91861999Y-65056863D01*
X91626967Y-64899820D01*
X91365814Y-64791647D01*
X91088575Y-64736500D01*
X90805905Y-64736500D01*
X90528666Y-64791647D01*
X90267513Y-64899820D01*
X90032481Y-65056863D01*
X89832603Y-65256741D01*
X89677240Y-65489259D01*
X89521877Y-65256741D01*
X89321999Y-65056863D01*
X89167240Y-64953457D01*
X89167240Y-64492362D01*
X89170916Y-64455039D01*
X89167240Y-64417717D01*
X89167240Y-64289162D01*
X89170916Y-64251839D01*
X89167240Y-64214517D01*
X89167240Y-64214507D01*
X89156243Y-64102854D01*
X89112786Y-63959593D01*
X89042214Y-63827564D01*
X88947241Y-63711839D01*
X88918238Y-63688037D01*
X88894844Y-63664643D01*
X88871041Y-63635639D01*
X88755316Y-63540666D01*
X88623287Y-63470094D01*
X88480026Y-63426637D01*
X88368373Y-63415640D01*
X88368362Y-63415640D01*
X88331040Y-63411964D01*
X88293718Y-63415640D01*
X74616802Y-63415640D01*
X74579479Y-63411964D01*
X74542157Y-63415640D01*
X74542147Y-63415640D01*
X74430494Y-63426637D01*
X74287233Y-63470094D01*
X74155204Y-63540666D01*
X74039479Y-63635639D01*
X74016579Y-63663543D01*
X73988680Y-63686439D01*
X73964882Y-63715437D01*
X73964881Y-63715438D01*
X73893706Y-63802164D01*
X73823134Y-63934194D01*
X73800746Y-64008000D01*
X73779678Y-64077454D01*
X73771845Y-64156985D01*
X73765004Y-64226440D01*
X73768681Y-64263772D01*
X73768680Y-70000018D01*
X73197879Y-70570820D01*
X65632833Y-70570820D01*
X65595500Y-70567143D01*
X65558167Y-70570820D01*
X65446514Y-70581817D01*
X65303253Y-70625274D01*
X65171224Y-70695846D01*
X65055499Y-70790819D01*
X65031700Y-70819818D01*
X64426638Y-71424881D01*
X64397640Y-71448679D01*
X64373842Y-71477677D01*
X64373841Y-71477678D01*
X64302666Y-71564404D01*
X64232094Y-71696434D01*
X64188638Y-71839695D01*
X64173964Y-71988680D01*
X64177641Y-72026012D01*
X64177640Y-79769478D01*
X64173964Y-79806800D01*
X64177640Y-79844122D01*
X64177640Y-79844132D01*
X64188637Y-79955785D01*
X64229629Y-80090919D01*
X64232094Y-80099046D01*
X64302666Y-80231076D01*
X64342511Y-80279626D01*
X64397639Y-80346801D01*
X64426643Y-80370604D01*
X64437336Y-80381297D01*
X64461139Y-80410301D01*
X64576864Y-80505274D01*
X64708893Y-80575846D01*
X64852154Y-80619303D01*
X64963807Y-80630300D01*
X65001140Y-80633977D01*
X65038473Y-80630300D01*
X66387422Y-80630300D01*
X66512125Y-80816932D01*
X66718968Y-81023775D01*
X66962189Y-81186290D01*
X67232442Y-81298232D01*
X67519340Y-81355300D01*
X67811860Y-81355300D01*
X68098758Y-81298232D01*
X68369011Y-81186290D01*
X68612232Y-81023775D01*
X68819075Y-80816932D01*
X68935600Y-80642540D01*
X69052125Y-80816932D01*
X69258968Y-81023775D01*
X69320601Y-81064957D01*
X69320600Y-81985301D01*
X69231720Y-82074182D01*
X64305687Y-82180308D01*
X62985460Y-80860082D01*
X62985460Y-69148853D01*
X63038778Y-69164497D01*
X63844369Y-68358906D01*
X63841263Y-68421912D01*
X63879888Y-68682597D01*
X63218383Y-69344102D01*
X63289966Y-69588071D01*
X63545476Y-69708971D01*
X63819664Y-69777700D01*
X64101992Y-69791617D01*
X64381610Y-69750187D01*
X64647772Y-69655003D01*
X64663572Y-69646558D01*
X64795476Y-69708971D01*
X65069664Y-69777700D01*
X65351992Y-69791617D01*
X65631610Y-69750187D01*
X65897772Y-69655003D01*
X66022994Y-69588071D01*
X66094577Y-69344102D01*
X65428901Y-68678426D01*
X65457780Y-68563216D01*
X65467886Y-68358201D01*
X66274182Y-69164497D01*
X66518151Y-69092914D01*
X66639051Y-68837404D01*
X66707780Y-68563216D01*
X66721697Y-68280888D01*
X66680267Y-68001270D01*
X66585083Y-67735108D01*
X66518151Y-67609886D01*
X66274182Y-67538303D01*
X65468591Y-68343894D01*
X65471697Y-68280888D01*
X65433072Y-68020203D01*
X66094577Y-67358698D01*
X66022994Y-67114729D01*
X65767484Y-66993829D01*
X65493296Y-66925100D01*
X65210968Y-66911183D01*
X64931350Y-66952613D01*
X64665188Y-67047797D01*
X64649388Y-67056242D01*
X64517484Y-66993829D01*
X64243296Y-66925100D01*
X63960968Y-66911183D01*
X63681350Y-66952613D01*
X63415188Y-67047797D01*
X63289966Y-67114729D01*
X63218383Y-67358698D01*
X63884059Y-68024374D01*
X63855180Y-68139584D01*
X63845074Y-68344599D01*
X63038778Y-67538303D01*
X62985460Y-67553947D01*
X62985460Y-66074100D01*
X70646481Y-66074100D01*
X70646480Y-66960890D01*
X70422815Y-66916400D01*
X70140145Y-66916400D01*
X69862906Y-66971547D01*
X69601753Y-67079720D01*
X69366721Y-67236763D01*
X69166843Y-67436641D01*
X69009800Y-67671673D01*
X68901627Y-67932826D01*
X68846480Y-68210065D01*
X68846480Y-68492735D01*
X68901627Y-68769974D01*
X69009800Y-69031127D01*
X69166843Y-69266159D01*
X69366721Y-69466037D01*
X69601753Y-69623080D01*
X69862906Y-69731253D01*
X70140145Y-69786400D01*
X70422815Y-69786400D01*
X70700054Y-69731253D01*
X70906480Y-69645749D01*
X71112906Y-69731253D01*
X71390145Y-69786400D01*
X71672815Y-69786400D01*
X71950054Y-69731253D01*
X72211207Y-69623080D01*
X72446239Y-69466037D01*
X72646117Y-69266159D01*
X72803160Y-69031127D01*
X72911333Y-68769974D01*
X72966480Y-68492735D01*
X72966480Y-68210065D01*
X72911333Y-67932826D01*
X72803160Y-67671673D01*
X72646117Y-67436641D01*
X72446239Y-67236763D01*
X72416480Y-67216879D01*
X72416480Y-65280829D01*
X72420761Y-65237360D01*
X72416480Y-65193891D01*
X72416480Y-65193883D01*
X72403675Y-65063870D01*
X72353069Y-64897047D01*
X72270891Y-64743301D01*
X72160297Y-64608543D01*
X72133791Y-64586789D01*
X72112037Y-64560283D01*
X71977279Y-64449689D01*
X71823533Y-64367511D01*
X71656710Y-64316905D01*
X71526697Y-64304100D01*
X71526689Y-64304100D01*
X71483220Y-64299819D01*
X71439751Y-64304100D01*
X62303945Y-64304100D01*
X62260479Y-64299819D01*
X62217013Y-64304100D01*
X62217003Y-64304100D01*
X62086990Y-64316905D01*
X61920167Y-64367511D01*
X61766421Y-64449689D01*
X61631663Y-64560283D01*
X61620000Y-64574494D01*
X61620000Y-62157400D01*
X147623160Y-62157400D01*
X147623160Y-62449920D01*
X147680228Y-62736818D01*
X147792170Y-63007071D01*
X147954685Y-63250292D01*
X148161528Y-63457135D01*
X148404749Y-63619650D01*
X148675002Y-63731592D01*
X148961900Y-63788660D01*
X149254420Y-63788660D01*
X149541318Y-63731592D01*
X149811571Y-63619650D01*
X150054792Y-63457135D01*
X150261635Y-63250292D01*
X150378160Y-63075900D01*
X150494685Y-63250292D01*
X150701528Y-63457135D01*
X150944749Y-63619650D01*
X151215002Y-63731592D01*
X151501900Y-63788660D01*
X151794420Y-63788660D01*
X152081318Y-63731592D01*
X152351571Y-63619650D01*
X152594792Y-63457135D01*
X152801635Y-63250292D01*
X152918160Y-63075900D01*
X153034685Y-63250292D01*
X153241528Y-63457135D01*
X153484749Y-63619650D01*
X153755002Y-63731592D01*
X154041900Y-63788660D01*
X154334420Y-63788660D01*
X154621318Y-63731592D01*
X154891571Y-63619650D01*
X155134792Y-63457135D01*
X155341635Y-63250292D01*
X155458160Y-63075900D01*
X155574685Y-63250292D01*
X155781528Y-63457135D01*
X156024749Y-63619650D01*
X156295002Y-63731592D01*
X156581900Y-63788660D01*
X156874420Y-63788660D01*
X157161318Y-63731592D01*
X157431571Y-63619650D01*
X157674792Y-63457135D01*
X157881635Y-63250292D01*
X157998160Y-63075900D01*
X158114685Y-63250292D01*
X158321528Y-63457135D01*
X158564749Y-63619650D01*
X158835002Y-63731592D01*
X159121900Y-63788660D01*
X159414420Y-63788660D01*
X159701318Y-63731592D01*
X159971571Y-63619650D01*
X160214792Y-63457135D01*
X160421635Y-63250292D01*
X160538160Y-63075900D01*
X160654685Y-63250292D01*
X160861528Y-63457135D01*
X161104749Y-63619650D01*
X161375002Y-63731592D01*
X161661900Y-63788660D01*
X161954420Y-63788660D01*
X162241318Y-63731592D01*
X162511571Y-63619650D01*
X162754792Y-63457135D01*
X162961635Y-63250292D01*
X163078160Y-63075900D01*
X163194685Y-63250292D01*
X163401528Y-63457135D01*
X163644749Y-63619650D01*
X163915002Y-63731592D01*
X164201900Y-63788660D01*
X164494420Y-63788660D01*
X164781318Y-63731592D01*
X165051571Y-63619650D01*
X165294792Y-63457135D01*
X165501635Y-63250292D01*
X165618160Y-63075900D01*
X165734685Y-63250292D01*
X165941528Y-63457135D01*
X166184749Y-63619650D01*
X166455002Y-63731592D01*
X166741900Y-63788660D01*
X167034420Y-63788660D01*
X167321318Y-63731592D01*
X167591571Y-63619650D01*
X167834792Y-63457135D01*
X168041635Y-63250292D01*
X168158160Y-63075900D01*
X168274685Y-63250292D01*
X168481528Y-63457135D01*
X168724749Y-63619650D01*
X168995002Y-63731592D01*
X169281900Y-63788660D01*
X169574420Y-63788660D01*
X169861318Y-63731592D01*
X170131571Y-63619650D01*
X170374792Y-63457135D01*
X170499870Y-63332057D01*
X171119368Y-63332057D01*
X171197003Y-63581132D01*
X171461043Y-63707031D01*
X171744571Y-63778999D01*
X172036691Y-63794271D01*
X172326179Y-63752259D01*
X172601907Y-63654579D01*
X172739317Y-63581132D01*
X172816952Y-63332057D01*
X171968160Y-62483265D01*
X171119368Y-63332057D01*
X170499870Y-63332057D01*
X170581635Y-63250292D01*
X170697471Y-63076931D01*
X170939763Y-63152452D01*
X171788555Y-62303660D01*
X170939763Y-61454868D01*
X170697471Y-61530389D01*
X170581635Y-61357028D01*
X170499870Y-61275263D01*
X171119368Y-61275263D01*
X171968160Y-62124055D01*
X172816952Y-61275263D01*
X172753817Y-61072709D01*
X172774877Y-61061452D01*
X172852512Y-60812377D01*
X172003720Y-59963585D01*
X171154928Y-60812377D01*
X171218063Y-61014931D01*
X171197003Y-61026188D01*
X171119368Y-61275263D01*
X170499870Y-61275263D01*
X170374792Y-61150185D01*
X170233385Y-61055700D01*
X170410352Y-60937455D01*
X170617195Y-60730612D01*
X170733031Y-60557251D01*
X170975323Y-60632772D01*
X171824115Y-59783980D01*
X170975323Y-58935188D01*
X170733031Y-59010709D01*
X170617195Y-58837348D01*
X170535430Y-58755583D01*
X171154928Y-58755583D01*
X172003720Y-59604375D01*
X172852512Y-58755583D01*
X172774877Y-58506508D01*
X172510837Y-58380609D01*
X172227309Y-58308641D01*
X171935189Y-58293369D01*
X171645701Y-58335381D01*
X171369973Y-58433061D01*
X171232563Y-58506508D01*
X171154928Y-58755583D01*
X170535430Y-58755583D01*
X170410352Y-58630505D01*
X170167131Y-58467990D01*
X169896878Y-58356048D01*
X169609980Y-58298980D01*
X169317460Y-58298980D01*
X169030562Y-58356048D01*
X168760309Y-58467990D01*
X168517088Y-58630505D01*
X168310245Y-58837348D01*
X168193720Y-59011740D01*
X168077195Y-58837348D01*
X167870352Y-58630505D01*
X167627131Y-58467990D01*
X167356878Y-58356048D01*
X167069980Y-58298980D01*
X166777460Y-58298980D01*
X166490562Y-58356048D01*
X166220309Y-58467990D01*
X165977088Y-58630505D01*
X165770245Y-58837348D01*
X165653720Y-59011740D01*
X165537195Y-58837348D01*
X165330352Y-58630505D01*
X165087131Y-58467990D01*
X164816878Y-58356048D01*
X164529980Y-58298980D01*
X164237460Y-58298980D01*
X163950562Y-58356048D01*
X163680309Y-58467990D01*
X163437088Y-58630505D01*
X163230245Y-58837348D01*
X163113720Y-59011740D01*
X162997195Y-58837348D01*
X162790352Y-58630505D01*
X162547131Y-58467990D01*
X162276878Y-58356048D01*
X161989980Y-58298980D01*
X161697460Y-58298980D01*
X161410562Y-58356048D01*
X161140309Y-58467990D01*
X160897088Y-58630505D01*
X160690245Y-58837348D01*
X160573720Y-59011740D01*
X160457195Y-58837348D01*
X160250352Y-58630505D01*
X160007131Y-58467990D01*
X159736878Y-58356048D01*
X159449980Y-58298980D01*
X159157460Y-58298980D01*
X158870562Y-58356048D01*
X158600309Y-58467990D01*
X158357088Y-58630505D01*
X158150245Y-58837348D01*
X158033720Y-59011740D01*
X157917195Y-58837348D01*
X157710352Y-58630505D01*
X157467131Y-58467990D01*
X157196878Y-58356048D01*
X156909980Y-58298980D01*
X156617460Y-58298980D01*
X156330562Y-58356048D01*
X156060309Y-58467990D01*
X155817088Y-58630505D01*
X155610245Y-58837348D01*
X155493720Y-59011740D01*
X155377195Y-58837348D01*
X155170352Y-58630505D01*
X154927131Y-58467990D01*
X154656878Y-58356048D01*
X154369980Y-58298980D01*
X154077460Y-58298980D01*
X153790562Y-58356048D01*
X153520309Y-58467990D01*
X153277088Y-58630505D01*
X153070245Y-58837348D01*
X152953720Y-59011740D01*
X152837195Y-58837348D01*
X152630352Y-58630505D01*
X152387131Y-58467990D01*
X152116878Y-58356048D01*
X151829980Y-58298980D01*
X151537460Y-58298980D01*
X151250562Y-58356048D01*
X150980309Y-58467990D01*
X150737088Y-58630505D01*
X150530245Y-58837348D01*
X150413720Y-59011740D01*
X150297195Y-58837348D01*
X150090352Y-58630505D01*
X149847131Y-58467990D01*
X149576878Y-58356048D01*
X149289980Y-58298980D01*
X148997460Y-58298980D01*
X148710562Y-58356048D01*
X148440309Y-58467990D01*
X148197088Y-58630505D01*
X147990245Y-58837348D01*
X147827730Y-59080569D01*
X147715788Y-59350822D01*
X147658720Y-59637720D01*
X147658720Y-59930240D01*
X147715788Y-60217138D01*
X147827730Y-60487391D01*
X147990245Y-60730612D01*
X148197088Y-60937455D01*
X148338495Y-61031940D01*
X148161528Y-61150185D01*
X147954685Y-61357028D01*
X147792170Y-61600249D01*
X147680228Y-61870502D01*
X147623160Y-62157400D01*
X61620000Y-62157400D01*
X61620000Y-59732495D01*
X62023000Y-59732495D01*
X62023000Y-60123505D01*
X62099282Y-60507003D01*
X62248915Y-60868250D01*
X62466149Y-61193364D01*
X62742636Y-61469851D01*
X63067750Y-61687085D01*
X63428997Y-61836718D01*
X63812495Y-61913000D01*
X64203505Y-61913000D01*
X64587003Y-61836718D01*
X64948250Y-61687085D01*
X65273364Y-61469851D01*
X65549851Y-61193364D01*
X65767085Y-60868250D01*
X65916718Y-60507003D01*
X65993000Y-60123505D01*
X65993000Y-59732495D01*
X135023000Y-59732495D01*
X135023000Y-60123505D01*
X135099282Y-60507003D01*
X135248915Y-60868250D01*
X135466149Y-61193364D01*
X135742636Y-61469851D01*
X136067750Y-61687085D01*
X136428997Y-61836718D01*
X136812495Y-61913000D01*
X137203505Y-61913000D01*
X137587003Y-61836718D01*
X137948250Y-61687085D01*
X138273364Y-61469851D01*
X138549851Y-61193364D01*
X138767085Y-60868250D01*
X138916718Y-60507003D01*
X138993000Y-60123505D01*
X138993000Y-59732495D01*
X138916718Y-59348997D01*
X138767085Y-58987750D01*
X138549851Y-58662636D01*
X138273364Y-58386149D01*
X137948250Y-58168915D01*
X137587003Y-58019282D01*
X137203505Y-57943000D01*
X136812495Y-57943000D01*
X136428997Y-58019282D01*
X136067750Y-58168915D01*
X135742636Y-58386149D01*
X135466149Y-58662636D01*
X135248915Y-58987750D01*
X135099282Y-59348997D01*
X135023000Y-59732495D01*
X65993000Y-59732495D01*
X65916718Y-59348997D01*
X65767085Y-58987750D01*
X65549851Y-58662636D01*
X65273364Y-58386149D01*
X64948250Y-58168915D01*
X64587003Y-58019282D01*
X64203505Y-57943000D01*
X63812495Y-57943000D01*
X63428997Y-58019282D01*
X63067750Y-58168915D01*
X62742636Y-58386149D01*
X62466149Y-58662636D01*
X62248915Y-58987750D01*
X62099282Y-59348997D01*
X62023000Y-59732495D01*
X61620000Y-59732495D01*
X61620000Y-59452279D01*
X61658909Y-59055455D01*
X61764780Y-58704792D01*
X61936744Y-58381375D01*
X62168254Y-58097516D01*
X62450486Y-57864035D01*
X62772695Y-57689817D01*
X63122614Y-57581498D01*
X63517443Y-57540000D01*
X195547721Y-57540000D01*
X195944545Y-57578909D01*
G37*
X195944545Y-57578909D02*
X196295208Y-57684780D01*
X196618625Y-57856744D01*
X196902484Y-58088254D01*
X197135965Y-58370486D01*
X197310183Y-58692695D01*
X197418502Y-59042614D01*
X197460000Y-59437443D01*
X197460001Y-87867711D01*
X197421091Y-88264545D01*
X197315220Y-88615206D01*
X197143257Y-88938623D01*
X196911748Y-89222482D01*
X196629514Y-89455965D01*
X196307304Y-89630184D01*
X195957385Y-89738502D01*
X195562557Y-89780000D01*
X162241359Y-89780000D01*
X162438764Y-89582595D01*
X162472537Y-89554878D01*
X162583131Y-89420120D01*
X162665309Y-89266374D01*
X162715915Y-89099551D01*
X162728720Y-88969538D01*
X162728720Y-88969530D01*
X162733001Y-88926061D01*
X162732051Y-88916411D01*
X162790352Y-88877455D01*
X162915430Y-88752377D01*
X163534928Y-88752377D01*
X163612563Y-89001452D01*
X163876603Y-89127351D01*
X164160131Y-89199319D01*
X164452251Y-89214591D01*
X164741739Y-89172579D01*
X165017467Y-89074899D01*
X165154877Y-89001452D01*
X165232512Y-88752377D01*
X164383720Y-87903585D01*
X163534928Y-88752377D01*
X162915430Y-88752377D01*
X162997195Y-88670612D01*
X163113031Y-88497251D01*
X163355323Y-88572772D01*
X164204115Y-87723980D01*
X163355323Y-86875188D01*
X163113031Y-86950709D01*
X162997195Y-86777348D01*
X162790352Y-86570505D01*
X162582974Y-86431940D01*
X162754792Y-86317135D01*
X162879870Y-86192057D01*
X163499368Y-86192057D01*
X163577003Y-86441132D01*
X163609421Y-86456589D01*
X163534928Y-86695583D01*
X164383720Y-87544375D01*
X165232512Y-86695583D01*
X165154877Y-86446508D01*
X165122459Y-86431051D01*
X165196952Y-86192057D01*
X164348160Y-85343265D01*
X163499368Y-86192057D01*
X162879870Y-86192057D01*
X162961635Y-86110292D01*
X163077471Y-85936931D01*
X163319763Y-86012452D01*
X164168555Y-85163660D01*
X164527765Y-85163660D01*
X165376557Y-86012452D01*
X165618849Y-85936931D01*
X165734685Y-86110292D01*
X165941528Y-86317135D01*
X166148906Y-86455700D01*
X165977088Y-86570505D01*
X165770245Y-86777348D01*
X165654409Y-86950709D01*
X165412117Y-86875188D01*
X164563325Y-87723980D01*
X165412117Y-88572772D01*
X165654409Y-88497251D01*
X165770245Y-88670612D01*
X165977088Y-88877455D01*
X166220309Y-89039970D01*
X166490562Y-89151912D01*
X166777460Y-89208980D01*
X167069980Y-89208980D01*
X167356878Y-89151912D01*
X167627131Y-89039970D01*
X167870352Y-88877455D01*
X168077195Y-88670612D01*
X168193720Y-88496220D01*
X168310245Y-88670612D01*
X168517088Y-88877455D01*
X168760309Y-89039970D01*
X169030562Y-89151912D01*
X169317460Y-89208980D01*
X169609980Y-89208980D01*
X169896878Y-89151912D01*
X170167131Y-89039970D01*
X170410352Y-88877455D01*
X170617195Y-88670612D01*
X170733720Y-88496220D01*
X170850245Y-88670612D01*
X171057088Y-88877455D01*
X171300309Y-89039970D01*
X171570562Y-89151912D01*
X171857460Y-89208980D01*
X172149980Y-89208980D01*
X172436878Y-89151912D01*
X172707131Y-89039970D01*
X172950352Y-88877455D01*
X173157195Y-88670612D01*
X173273720Y-88496220D01*
X173390245Y-88670612D01*
X173597088Y-88877455D01*
X173840309Y-89039970D01*
X174110562Y-89151912D01*
X174397460Y-89208980D01*
X174689980Y-89208980D01*
X174976878Y-89151912D01*
X175247131Y-89039970D01*
X175490352Y-88877455D01*
X175697195Y-88670612D01*
X175813720Y-88496220D01*
X175930245Y-88670612D01*
X176137088Y-88877455D01*
X176380309Y-89039970D01*
X176650562Y-89151912D01*
X176937460Y-89208980D01*
X177229980Y-89208980D01*
X177516878Y-89151912D01*
X177787131Y-89039970D01*
X178030352Y-88877455D01*
X178237195Y-88670612D01*
X178353720Y-88496220D01*
X178470245Y-88670612D01*
X178677088Y-88877455D01*
X178920309Y-89039970D01*
X179190562Y-89151912D01*
X179477460Y-89208980D01*
X179769980Y-89208980D01*
X180056878Y-89151912D01*
X180327131Y-89039970D01*
X180570352Y-88877455D01*
X180695430Y-88752377D01*
X181314928Y-88752377D01*
X181392563Y-89001452D01*
X181656603Y-89127351D01*
X181940131Y-89199319D01*
X182232251Y-89214591D01*
X182521739Y-89172579D01*
X182797467Y-89074899D01*
X182934877Y-89001452D01*
X183012512Y-88752377D01*
X182163720Y-87903585D01*
X181314928Y-88752377D01*
X180695430Y-88752377D01*
X180777195Y-88670612D01*
X180893031Y-88497251D01*
X181135323Y-88572772D01*
X181984115Y-87723980D01*
X181135323Y-86875188D01*
X180893031Y-86950709D01*
X180777195Y-86777348D01*
X180570352Y-86570505D01*
X180362974Y-86431940D01*
X180534792Y-86317135D01*
X180659870Y-86192057D01*
X181279368Y-86192057D01*
X181357003Y-86441132D01*
X181389421Y-86456589D01*
X181314928Y-86695583D01*
X182163720Y-87544375D01*
X183012512Y-86695583D01*
X182934877Y-86446508D01*
X182902459Y-86431051D01*
X182976952Y-86192057D01*
X182128160Y-85343265D01*
X181279368Y-86192057D01*
X180659870Y-86192057D01*
X180741635Y-86110292D01*
X180857471Y-85936931D01*
X181099763Y-86012452D01*
X181948555Y-85163660D01*
X181099763Y-84314868D01*
X180857471Y-84390389D01*
X180741635Y-84217028D01*
X180659870Y-84135263D01*
X181279368Y-84135263D01*
X182128160Y-84984055D01*
X182976952Y-84135263D01*
X182899317Y-83886188D01*
X182635277Y-83760289D01*
X182351749Y-83688321D01*
X182059629Y-83673049D01*
X181770141Y-83715061D01*
X181494413Y-83812741D01*
X181357003Y-83886188D01*
X181279368Y-84135263D01*
X180659870Y-84135263D01*
X180534792Y-84010185D01*
X180291571Y-83847670D01*
X180021318Y-83735728D01*
X179734420Y-83678660D01*
X179441900Y-83678660D01*
X179155002Y-83735728D01*
X178884749Y-83847670D01*
X178641528Y-84010185D01*
X178434685Y-84217028D01*
X178318160Y-84391420D01*
X178201635Y-84217028D01*
X177994792Y-84010185D01*
X177751571Y-83847670D01*
X177481318Y-83735728D01*
X177194420Y-83678660D01*
X176901900Y-83678660D01*
X176615002Y-83735728D01*
X176344749Y-83847670D01*
X176101528Y-84010185D01*
X175894685Y-84217028D01*
X175778160Y-84391420D01*
X175661635Y-84217028D01*
X175454792Y-84010185D01*
X175211571Y-83847670D01*
X174941318Y-83735728D01*
X174654420Y-83678660D01*
X174361900Y-83678660D01*
X174075002Y-83735728D01*
X173804749Y-83847670D01*
X173561528Y-84010185D01*
X173354685Y-84217028D01*
X173238160Y-84391420D01*
X173121635Y-84217028D01*
X172914792Y-84010185D01*
X172671571Y-83847670D01*
X172401318Y-83735728D01*
X172114420Y-83678660D01*
X171821900Y-83678660D01*
X171535002Y-83735728D01*
X171264749Y-83847670D01*
X171021528Y-84010185D01*
X170814685Y-84217028D01*
X170698160Y-84391420D01*
X170581635Y-84217028D01*
X170374792Y-84010185D01*
X170131571Y-83847670D01*
X169861318Y-83735728D01*
X169574420Y-83678660D01*
X169281900Y-83678660D01*
X168995002Y-83735728D01*
X168724749Y-83847670D01*
X168481528Y-84010185D01*
X168274685Y-84217028D01*
X168158160Y-84391420D01*
X168041635Y-84217028D01*
X167834792Y-84010185D01*
X167591571Y-83847670D01*
X167321318Y-83735728D01*
X167034420Y-83678660D01*
X166741900Y-83678660D01*
X166455002Y-83735728D01*
X166184749Y-83847670D01*
X165941528Y-84010185D01*
X165734685Y-84217028D01*
X165618849Y-84390389D01*
X165376557Y-84314868D01*
X164527765Y-85163660D01*
X164168555Y-85163660D01*
X163319763Y-84314868D01*
X163077471Y-84390389D01*
X162961635Y-84217028D01*
X162879870Y-84135263D01*
X163499368Y-84135263D01*
X164348160Y-84984055D01*
X165196952Y-84135263D01*
X165119317Y-83886188D01*
X164855277Y-83760289D01*
X164571749Y-83688321D01*
X164279629Y-83673049D01*
X163990141Y-83715061D01*
X163714413Y-83812741D01*
X163577003Y-83886188D01*
X163499368Y-84135263D01*
X162879870Y-84135263D01*
X162754792Y-84010185D01*
X162693160Y-83969004D01*
X162693160Y-83483260D01*
X174446904Y-83483260D01*
X174490380Y-83487542D01*
X174533857Y-83483260D01*
X183234782Y-83483260D01*
X183745613Y-83994092D01*
X183721528Y-84010185D01*
X183514685Y-84217028D01*
X183398849Y-84390389D01*
X183156557Y-84314868D01*
X182307765Y-85163660D01*
X183156557Y-86012452D01*
X183398849Y-85936931D01*
X183514685Y-86110292D01*
X183721528Y-86317135D01*
X183928906Y-86455700D01*
X183757088Y-86570505D01*
X183550245Y-86777348D01*
X183434409Y-86950709D01*
X183192117Y-86875188D01*
X182343325Y-87723980D01*
X183192117Y-88572772D01*
X183434409Y-88497251D01*
X183550245Y-88670612D01*
X183757088Y-88877455D01*
X184000309Y-89039970D01*
X184270562Y-89151912D01*
X184557460Y-89208980D01*
X184849980Y-89208980D01*
X185136878Y-89151912D01*
X185407131Y-89039970D01*
X185650352Y-88877455D01*
X185857195Y-88670612D01*
X186019710Y-88427391D01*
X186131652Y-88157138D01*
X186188720Y-87870240D01*
X186188720Y-87577720D01*
X186131652Y-87290822D01*
X186019710Y-87020569D01*
X185857195Y-86777348D01*
X185650352Y-86570505D01*
X185442974Y-86431940D01*
X185614792Y-86317135D01*
X185821635Y-86110292D01*
X185984150Y-85867071D01*
X186096092Y-85596818D01*
X186153160Y-85309920D01*
X186153160Y-85017400D01*
X186096092Y-84730502D01*
X185984150Y-84460249D01*
X185821635Y-84217028D01*
X185637719Y-84033112D01*
X185651610Y-83842112D01*
X185659041Y-83766659D01*
X185653648Y-83711906D01*
X185652241Y-83656892D01*
X185645123Y-83625349D01*
X185641954Y-83593169D01*
X185625980Y-83540511D01*
X185613869Y-83486838D01*
X185600735Y-83457289D01*
X185591348Y-83426346D01*
X185565413Y-83377824D01*
X185543060Y-83327536D01*
X185524412Y-83301116D01*
X185509170Y-83272600D01*
X185474259Y-83230061D01*
X185442532Y-83185111D01*
X185387560Y-83132881D01*
X184257894Y-82003216D01*
X184230177Y-81969443D01*
X184095419Y-81858849D01*
X183941673Y-81776671D01*
X183774850Y-81726065D01*
X183644837Y-81713260D01*
X183644829Y-81713260D01*
X183601360Y-81708979D01*
X183557891Y-81713260D01*
X175375380Y-81713260D01*
X175375380Y-63695631D01*
X175380355Y-63679231D01*
X175393160Y-63549218D01*
X175393160Y-63549210D01*
X175397441Y-63505741D01*
X175396491Y-63496091D01*
X175454792Y-63457135D01*
X175661635Y-63250292D01*
X175778160Y-63075900D01*
X175894685Y-63250292D01*
X176101528Y-63457135D01*
X176344749Y-63619650D01*
X176615002Y-63731592D01*
X176901900Y-63788660D01*
X177194420Y-63788660D01*
X177481318Y-63731592D01*
X177751571Y-63619650D01*
X177994792Y-63457135D01*
X178201635Y-63250292D01*
X178318160Y-63075900D01*
X178434685Y-63250292D01*
X178641528Y-63457135D01*
X178884749Y-63619650D01*
X179155002Y-63731592D01*
X179441900Y-63788660D01*
X179734420Y-63788660D01*
X180021318Y-63731592D01*
X180291571Y-63619650D01*
X180534792Y-63457135D01*
X180659870Y-63332057D01*
X181279368Y-63332057D01*
X181357003Y-63581132D01*
X181621043Y-63707031D01*
X181904571Y-63778999D01*
X182196691Y-63794271D01*
X182486179Y-63752259D01*
X182761907Y-63654579D01*
X182899317Y-63581132D01*
X182976952Y-63332057D01*
X182128160Y-62483265D01*
X181279368Y-63332057D01*
X180659870Y-63332057D01*
X180741635Y-63250292D01*
X180857471Y-63076931D01*
X181099763Y-63152452D01*
X181948555Y-62303660D01*
X182307765Y-62303660D01*
X183156557Y-63152452D01*
X183398849Y-63076931D01*
X183514685Y-63250292D01*
X183721528Y-63457135D01*
X183964749Y-63619650D01*
X184235002Y-63731592D01*
X184521900Y-63788660D01*
X184814420Y-63788660D01*
X185101318Y-63731592D01*
X185371571Y-63619650D01*
X185614792Y-63457135D01*
X185821635Y-63250292D01*
X185984150Y-63007071D01*
X186096092Y-62736818D01*
X186153160Y-62449920D01*
X186153160Y-62157400D01*
X186096092Y-61870502D01*
X185984150Y-61600249D01*
X185821635Y-61357028D01*
X185614792Y-61150185D01*
X185473385Y-61055700D01*
X185650352Y-60937455D01*
X185857195Y-60730612D01*
X186019710Y-60487391D01*
X186131652Y-60217138D01*
X186188720Y-59930240D01*
X186188720Y-59637720D01*
X186131652Y-59350822D01*
X186019710Y-59080569D01*
X185857195Y-58837348D01*
X185650352Y-58630505D01*
X185407131Y-58467990D01*
X185136878Y-58356048D01*
X184849980Y-58298980D01*
X184557460Y-58298980D01*
X184270562Y-58356048D01*
X184000309Y-58467990D01*
X183757088Y-58630505D01*
X183550245Y-58837348D01*
X183434409Y-59010709D01*
X183192117Y-58935188D01*
X182343325Y-59783980D01*
X183192117Y-60632772D01*
X183434409Y-60557251D01*
X183550245Y-60730612D01*
X183757088Y-60937455D01*
X183898495Y-61031940D01*
X183721528Y-61150185D01*
X183514685Y-61357028D01*
X183398849Y-61530389D01*
X183156557Y-61454868D01*
X182307765Y-62303660D01*
X181948555Y-62303660D01*
X181099763Y-61454868D01*
X180857471Y-61530389D01*
X180741635Y-61357028D01*
X180659870Y-61275263D01*
X181279368Y-61275263D01*
X182128160Y-62124055D01*
X182976952Y-61275263D01*
X182913817Y-61072709D01*
X182934877Y-61061452D01*
X183012512Y-60812377D01*
X182163720Y-59963585D01*
X181314928Y-60812377D01*
X181378063Y-61014931D01*
X181357003Y-61026188D01*
X181279368Y-61275263D01*
X180659870Y-61275263D01*
X180534792Y-61150185D01*
X180393385Y-61055700D01*
X180570352Y-60937455D01*
X180777195Y-60730612D01*
X180893031Y-60557251D01*
X181135323Y-60632772D01*
X181984115Y-59783980D01*
X181135323Y-58935188D01*
X180893031Y-59010709D01*
X180777195Y-58837348D01*
X180695430Y-58755583D01*
X181314928Y-58755583D01*
X182163720Y-59604375D01*
X183012512Y-58755583D01*
X182934877Y-58506508D01*
X182670837Y-58380609D01*
X182387309Y-58308641D01*
X182095189Y-58293369D01*
X181805701Y-58335381D01*
X181529973Y-58433061D01*
X181392563Y-58506508D01*
X181314928Y-58755583D01*
X180695430Y-58755583D01*
X180570352Y-58630505D01*
X180327131Y-58467990D01*
X180056878Y-58356048D01*
X179769980Y-58298980D01*
X179477460Y-58298980D01*
X179190562Y-58356048D01*
X178920309Y-58467990D01*
X178677088Y-58630505D01*
X178470245Y-58837348D01*
X178353720Y-59011740D01*
X178237195Y-58837348D01*
X178030352Y-58630505D01*
X177787131Y-58467990D01*
X177516878Y-58356048D01*
X177229980Y-58298980D01*
X176937460Y-58298980D01*
X176650562Y-58356048D01*
X176380309Y-58467990D01*
X176137088Y-58630505D01*
X175930245Y-58837348D01*
X175813720Y-59011740D01*
X175697195Y-58837348D01*
X175490352Y-58630505D01*
X175247131Y-58467990D01*
X174976878Y-58356048D01*
X174689980Y-58298980D01*
X174397460Y-58298980D01*
X174110562Y-58356048D01*
X173840309Y-58467990D01*
X173597088Y-58630505D01*
X173390245Y-58837348D01*
X173274409Y-59010709D01*
X173032117Y-58935188D01*
X172183325Y-59783980D01*
X173032117Y-60632772D01*
X173274409Y-60557251D01*
X173390245Y-60730612D01*
X173597088Y-60937455D01*
X173738495Y-61031940D01*
X173561528Y-61150185D01*
X173354685Y-61357028D01*
X173238849Y-61530389D01*
X172996557Y-61454868D01*
X172147765Y-62303660D01*
X172996557Y-63152452D01*
X173238849Y-63076931D01*
X173354685Y-63250292D01*
X173561528Y-63457135D01*
X173604790Y-63486042D01*
X173601099Y-63523521D01*
X173605380Y-63566990D01*
X173605381Y-81713260D01*
X161925289Y-81713260D01*
X161881820Y-81708979D01*
X161838351Y-81713260D01*
X161838343Y-81713260D01*
X161708330Y-81726065D01*
X161541507Y-81776671D01*
X161387761Y-81858849D01*
X161253003Y-81969443D01*
X161225286Y-82003216D01*
X161213112Y-82015390D01*
X161179344Y-82043103D01*
X161151631Y-82076871D01*
X161151628Y-82076874D01*
X161068750Y-82177861D01*
X160986572Y-82331607D01*
X160935965Y-82498430D01*
X160918879Y-82671920D01*
X160923161Y-82715399D01*
X160923160Y-83969004D01*
X160861528Y-84010185D01*
X160654685Y-84217028D01*
X160538160Y-84391420D01*
X160421635Y-84217028D01*
X160214792Y-84010185D01*
X159971571Y-83847670D01*
X159701318Y-83735728D01*
X159414420Y-83678660D01*
X159121900Y-83678660D01*
X158835002Y-83735728D01*
X158564749Y-83847670D01*
X158321528Y-84010185D01*
X158114685Y-84217028D01*
X157998160Y-84391420D01*
X157881635Y-84217028D01*
X157674792Y-84010185D01*
X157488160Y-83885482D01*
X157488160Y-83259545D01*
X157502562Y-83212066D01*
X157502636Y-83211316D01*
X157502853Y-83210595D01*
X157509980Y-83136751D01*
X157517236Y-83063081D01*
X157517162Y-83062333D01*
X157517235Y-83061581D01*
X157509812Y-82987701D01*
X157502562Y-82914095D01*
X157502343Y-82913374D01*
X157502268Y-82912624D01*
X157480660Y-82841891D01*
X157459106Y-82770834D01*
X157458749Y-82770166D01*
X157458530Y-82769449D01*
X157423669Y-82704536D01*
X157388534Y-82638804D01*
X157388053Y-82638217D01*
X157387699Y-82637559D01*
X157340871Y-82580726D01*
X157293561Y-82523079D01*
X157292976Y-82522599D01*
X157292499Y-82522020D01*
X157235422Y-82475365D01*
X157177836Y-82428106D01*
X157177167Y-82427749D01*
X157176588Y-82427275D01*
X157111480Y-82392637D01*
X157045806Y-82357534D01*
X157045083Y-82357315D01*
X157044420Y-82356962D01*
X156973363Y-82335559D01*
X156902545Y-82314078D01*
X156901800Y-82314005D01*
X156901074Y-82313786D01*
X156827085Y-82306646D01*
X156753559Y-82299404D01*
X156715484Y-82303154D01*
X138899315Y-82338128D01*
X138771199Y-66389253D01*
X138774577Y-66354960D01*
X138770600Y-66314576D01*
X138770575Y-66311524D01*
X138766947Y-66277489D01*
X138759903Y-66205974D01*
X138759008Y-66203025D01*
X138758682Y-66199963D01*
X138737312Y-66131499D01*
X138716446Y-66062713D01*
X138714991Y-66059991D01*
X138714075Y-66057056D01*
X138679775Y-65994107D01*
X138645874Y-65930684D01*
X138643917Y-65928299D01*
X138642445Y-65925598D01*
X138596520Y-65870546D01*
X138550901Y-65814959D01*
X138548516Y-65813002D01*
X138546545Y-65810639D01*
X138490760Y-65765603D01*
X138435176Y-65719986D01*
X138432454Y-65718531D01*
X138430061Y-65716599D01*
X138366563Y-65683311D01*
X138303147Y-65649414D01*
X138300195Y-65648519D01*
X138297470Y-65647090D01*
X138228683Y-65626826D01*
X138159886Y-65605957D01*
X138156816Y-65605655D01*
X138153864Y-65604785D01*
X138082419Y-65598327D01*
X138048233Y-65594960D01*
X138045169Y-65594960D01*
X138004766Y-65591308D01*
X137970510Y-65594960D01*
X134838418Y-65594960D01*
X134761267Y-65571557D01*
X134691109Y-65564647D01*
X134563675Y-65373928D01*
X134356832Y-65167085D01*
X134113611Y-65004570D01*
X133843358Y-64892628D01*
X133556460Y-64835560D01*
X133263940Y-64835560D01*
X132977042Y-64892628D01*
X132706789Y-65004570D01*
X132463568Y-65167085D01*
X132256725Y-65373928D01*
X132140200Y-65548320D01*
X132023675Y-65373928D01*
X131816832Y-65167085D01*
X131630200Y-65042382D01*
X131630200Y-64562722D01*
X131633876Y-64525399D01*
X131630200Y-64488076D01*
X131630200Y-64488067D01*
X131619203Y-64376414D01*
X131575746Y-64233153D01*
X131538138Y-64162794D01*
X131505174Y-64101123D01*
X131433999Y-64014397D01*
X131410201Y-63985399D01*
X131381203Y-63961602D01*
X130916603Y-63497002D01*
X130892801Y-63467999D01*
X130777076Y-63373026D01*
X130645047Y-63302454D01*
X130501786Y-63258997D01*
X130390133Y-63248000D01*
X130390122Y-63248000D01*
X130352800Y-63244324D01*
X130315478Y-63248000D01*
X119196682Y-63248000D01*
X119159359Y-63244324D01*
X119122036Y-63248000D01*
X119122027Y-63248000D01*
X119010374Y-63258997D01*
X118867113Y-63302454D01*
X118735084Y-63373026D01*
X118619359Y-63467999D01*
X118595561Y-63496997D01*
X117765878Y-64326681D01*
X117736880Y-64350479D01*
X117713082Y-64379477D01*
X117713081Y-64379478D01*
X117641906Y-64466204D01*
X117571334Y-64598234D01*
X117548922Y-64672119D01*
X117527878Y-64741494D01*
X117525784Y-64762755D01*
X117525715Y-64763459D01*
X117524999Y-64762755D01*
X117329634Y-64634630D01*
X117113027Y-64547081D01*
X117086624Y-64546677D01*
X116903880Y-64672119D01*
X116903880Y-65863480D01*
X116923880Y-65863480D01*
X116923880Y-66117480D01*
X116903880Y-66117480D01*
X116903880Y-66137480D01*
X116649880Y-66137480D01*
X116649880Y-66117480D01*
X115403880Y-66117480D01*
X115403880Y-66137480D01*
X115149880Y-66137480D01*
X115149880Y-66117480D01*
X114091880Y-66117480D01*
X114091880Y-66417480D01*
X114139426Y-66646222D01*
X114230684Y-66861293D01*
X114362146Y-67054428D01*
X114528761Y-67218205D01*
X114724126Y-67346330D01*
X114940733Y-67433879D01*
X114967136Y-67434283D01*
X115149878Y-67308842D01*
X115149878Y-67451700D01*
X112483070Y-67451700D01*
X112518425Y-67422685D01*
X112597777Y-67325994D01*
X112656742Y-67215680D01*
X112693052Y-67095982D01*
X112705312Y-66971500D01*
X112702240Y-66457250D01*
X112543490Y-66298500D01*
X111394240Y-66298500D01*
X111394240Y-66318500D01*
X111140240Y-66318500D01*
X111140240Y-66298500D01*
X111120240Y-66298500D01*
X111120240Y-66044500D01*
X111140240Y-66044500D01*
X111140240Y-64895250D01*
X111394240Y-64895250D01*
X111394240Y-66044500D01*
X112543490Y-66044500D01*
X112702240Y-65885750D01*
X112704165Y-65563480D01*
X114091880Y-65563480D01*
X114091880Y-65863480D01*
X115149880Y-65863480D01*
X115149880Y-64672119D01*
X115403880Y-64672119D01*
X115403880Y-65863480D01*
X116649880Y-65863480D01*
X116649880Y-64672119D01*
X116467136Y-64546677D01*
X116440733Y-64547081D01*
X116224126Y-64634630D01*
X116028761Y-64762755D01*
X116026880Y-64764604D01*
X116024999Y-64762755D01*
X115829634Y-64634630D01*
X115613027Y-64547081D01*
X115586624Y-64546677D01*
X115403880Y-64672119D01*
X115149880Y-64672119D01*
X114967136Y-64546677D01*
X114940733Y-64547081D01*
X114724126Y-64634630D01*
X114528761Y-64762755D01*
X114362146Y-64926532D01*
X114230684Y-65119667D01*
X114139426Y-65334738D01*
X114091880Y-65563480D01*
X112704165Y-65563480D01*
X112705312Y-65371500D01*
X112693052Y-65247018D01*
X112656742Y-65127320D01*
X112597777Y-65017006D01*
X112518425Y-64920315D01*
X112421734Y-64840963D01*
X112311420Y-64781998D01*
X112191722Y-64745688D01*
X112067240Y-64733428D01*
X111552990Y-64736500D01*
X111394240Y-64895250D01*
X111140240Y-64895250D01*
X110981490Y-64736500D01*
X110467240Y-64733428D01*
X110342758Y-64745688D01*
X110223060Y-64781998D01*
X110112746Y-64840963D01*
X110016055Y-64920315D01*
X109936703Y-65017006D01*
X109877738Y-65127320D01*
X109841428Y-65247018D01*
X109840597Y-65255461D01*
X109641999Y-65056863D01*
X109406967Y-64899820D01*
X109145814Y-64791647D01*
X108868575Y-64736500D01*
X108585905Y-64736500D01*
X108308666Y-64791647D01*
X108047513Y-64899820D01*
X107812481Y-65056863D01*
X107612603Y-65256741D01*
X107457240Y-65489259D01*
X107301877Y-65256741D01*
X107101999Y-65056863D01*
X106866967Y-64899820D01*
X106605814Y-64791647D01*
X106328575Y-64736500D01*
X106045905Y-64736500D01*
X105768666Y-64791647D01*
X105507513Y-64899820D01*
X105272481Y-65056863D01*
X105072603Y-65256741D01*
X104917240Y-65489259D01*
X104761877Y-65256741D01*
X104561999Y-65056863D01*
X104326967Y-64899820D01*
X104065814Y-64791647D01*
X103788575Y-64736500D01*
X103505905Y-64736500D01*
X103228666Y-64791647D01*
X102967513Y-64899820D01*
X102732481Y-65056863D01*
X102532603Y-65256741D01*
X102377240Y-65489259D01*
X102221877Y-65256741D01*
X102021999Y-65056863D01*
X101786967Y-64899820D01*
X101525814Y-64791647D01*
X101248575Y-64736500D01*
X100965905Y-64736500D01*
X100688666Y-64791647D01*
X100427513Y-64899820D01*
X100192481Y-65056863D01*
X99992603Y-65256741D01*
X99837240Y-65489259D01*
X99681877Y-65256741D01*
X99481999Y-65056863D01*
X99246967Y-64899820D01*
X98985814Y-64791647D01*
X98708575Y-64736500D01*
X98425905Y-64736500D01*
X98148666Y-64791647D01*
X97887513Y-64899820D01*
X97652481Y-65056863D01*
X97452603Y-65256741D01*
X97297240Y-65489259D01*
X97141877Y-65256741D01*
X96941999Y-65056863D01*
X96706967Y-64899820D01*
X96445814Y-64791647D01*
X96168575Y-64736500D01*
X95885905Y-64736500D01*
X95608666Y-64791647D01*
X95347513Y-64899820D01*
X95112481Y-65056863D01*
X94912603Y-65256741D01*
X94757240Y-65489259D01*
X94601877Y-65256741D01*
X94401999Y-65056863D01*
X94166967Y-64899820D01*
X93905814Y-64791647D01*
X93628575Y-64736500D01*
X93345905Y-64736500D01*
X93068666Y-64791647D01*
X92807513Y-64899820D01*
X92572481Y-65056863D01*
X92372603Y-65256741D01*
X92217240Y-65489259D01*
X92061877Y-65256741D01*
X91861999Y-65056863D01*
X91626967Y-64899820D01*
X91365814Y-64791647D01*
X91088575Y-64736500D01*
X90805905Y-64736500D01*
X90528666Y-64791647D01*
X90267513Y-64899820D01*
X90032481Y-65056863D01*
X89832603Y-65256741D01*
X89677240Y-65489259D01*
X89521877Y-65256741D01*
X89321999Y-65056863D01*
X89167240Y-64953457D01*
X89167240Y-64492362D01*
X89170916Y-64455039D01*
X89167240Y-64417717D01*
X89167240Y-64289162D01*
X89170916Y-64251839D01*
X89167240Y-64214517D01*
X89167240Y-64214507D01*
X89156243Y-64102854D01*
X89112786Y-63959593D01*
X89042214Y-63827564D01*
X88947241Y-63711839D01*
X88918238Y-63688037D01*
X88894844Y-63664643D01*
X88871041Y-63635639D01*
X88755316Y-63540666D01*
X88623287Y-63470094D01*
X88480026Y-63426637D01*
X88368373Y-63415640D01*
X88368362Y-63415640D01*
X88331040Y-63411964D01*
X88293718Y-63415640D01*
X74616802Y-63415640D01*
X74579479Y-63411964D01*
X74542157Y-63415640D01*
X74542147Y-63415640D01*
X74430494Y-63426637D01*
X74287233Y-63470094D01*
X74155204Y-63540666D01*
X74039479Y-63635639D01*
X74016579Y-63663543D01*
X73988680Y-63686439D01*
X73964882Y-63715437D01*
X73964881Y-63715438D01*
X73893706Y-63802164D01*
X73823134Y-63934194D01*
X73800746Y-64008000D01*
X73779678Y-64077454D01*
X73771845Y-64156985D01*
X73765004Y-64226440D01*
X73768681Y-64263772D01*
X73768680Y-70000018D01*
X73197879Y-70570820D01*
X65632833Y-70570820D01*
X65595500Y-70567143D01*
X65558167Y-70570820D01*
X65446514Y-70581817D01*
X65303253Y-70625274D01*
X65171224Y-70695846D01*
X65055499Y-70790819D01*
X65031700Y-70819818D01*
X64426638Y-71424881D01*
X64397640Y-71448679D01*
X64373842Y-71477677D01*
X64373841Y-71477678D01*
X64302666Y-71564404D01*
X64232094Y-71696434D01*
X64188638Y-71839695D01*
X64173964Y-71988680D01*
X64177641Y-72026012D01*
X64177640Y-79769478D01*
X64173964Y-79806800D01*
X64177640Y-79844122D01*
X64177640Y-79844132D01*
X64188637Y-79955785D01*
X64229629Y-80090919D01*
X64232094Y-80099046D01*
X64302666Y-80231076D01*
X64342511Y-80279626D01*
X64397639Y-80346801D01*
X64426643Y-80370604D01*
X64437336Y-80381297D01*
X64461139Y-80410301D01*
X64576864Y-80505274D01*
X64708893Y-80575846D01*
X64852154Y-80619303D01*
X64963807Y-80630300D01*
X65001140Y-80633977D01*
X65038473Y-80630300D01*
X66387422Y-80630300D01*
X66512125Y-80816932D01*
X66718968Y-81023775D01*
X66962189Y-81186290D01*
X67232442Y-81298232D01*
X67519340Y-81355300D01*
X67811860Y-81355300D01*
X68098758Y-81298232D01*
X68369011Y-81186290D01*
X68612232Y-81023775D01*
X68819075Y-80816932D01*
X68935600Y-80642540D01*
X69052125Y-80816932D01*
X69258968Y-81023775D01*
X69320601Y-81064957D01*
X69320600Y-81985301D01*
X69231720Y-82074182D01*
X64305687Y-82180308D01*
X62985460Y-80860082D01*
X62985460Y-69148853D01*
X63038778Y-69164497D01*
X63844369Y-68358906D01*
X63841263Y-68421912D01*
X63879888Y-68682597D01*
X63218383Y-69344102D01*
X63289966Y-69588071D01*
X63545476Y-69708971D01*
X63819664Y-69777700D01*
X64101992Y-69791617D01*
X64381610Y-69750187D01*
X64647772Y-69655003D01*
X64663572Y-69646558D01*
X64795476Y-69708971D01*
X65069664Y-69777700D01*
X65351992Y-69791617D01*
X65631610Y-69750187D01*
X65897772Y-69655003D01*
X66022994Y-69588071D01*
X66094577Y-69344102D01*
X65428901Y-68678426D01*
X65457780Y-68563216D01*
X65467886Y-68358201D01*
X66274182Y-69164497D01*
X66518151Y-69092914D01*
X66639051Y-68837404D01*
X66707780Y-68563216D01*
X66721697Y-68280888D01*
X66680267Y-68001270D01*
X66585083Y-67735108D01*
X66518151Y-67609886D01*
X66274182Y-67538303D01*
X65468591Y-68343894D01*
X65471697Y-68280888D01*
X65433072Y-68020203D01*
X66094577Y-67358698D01*
X66022994Y-67114729D01*
X65767484Y-66993829D01*
X65493296Y-66925100D01*
X65210968Y-66911183D01*
X64931350Y-66952613D01*
X64665188Y-67047797D01*
X64649388Y-67056242D01*
X64517484Y-66993829D01*
X64243296Y-66925100D01*
X63960968Y-66911183D01*
X63681350Y-66952613D01*
X63415188Y-67047797D01*
X63289966Y-67114729D01*
X63218383Y-67358698D01*
X63884059Y-68024374D01*
X63855180Y-68139584D01*
X63845074Y-68344599D01*
X63038778Y-67538303D01*
X62985460Y-67553947D01*
X62985460Y-66074100D01*
X70646481Y-66074100D01*
X70646480Y-66960890D01*
X70422815Y-66916400D01*
X70140145Y-66916400D01*
X69862906Y-66971547D01*
X69601753Y-67079720D01*
X69366721Y-67236763D01*
X69166843Y-67436641D01*
X69009800Y-67671673D01*
X68901627Y-67932826D01*
X68846480Y-68210065D01*
X68846480Y-68492735D01*
X68901627Y-68769974D01*
X69009800Y-69031127D01*
X69166843Y-69266159D01*
X69366721Y-69466037D01*
X69601753Y-69623080D01*
X69862906Y-69731253D01*
X70140145Y-69786400D01*
X70422815Y-69786400D01*
X70700054Y-69731253D01*
X70906480Y-69645749D01*
X71112906Y-69731253D01*
X71390145Y-69786400D01*
X71672815Y-69786400D01*
X71950054Y-69731253D01*
X72211207Y-69623080D01*
X72446239Y-69466037D01*
X72646117Y-69266159D01*
X72803160Y-69031127D01*
X72911333Y-68769974D01*
X72966480Y-68492735D01*
X72966480Y-68210065D01*
X72911333Y-67932826D01*
X72803160Y-67671673D01*
X72646117Y-67436641D01*
X72446239Y-67236763D01*
X72416480Y-67216879D01*
X72416480Y-65280829D01*
X72420761Y-65237360D01*
X72416480Y-65193891D01*
X72416480Y-65193883D01*
X72403675Y-65063870D01*
X72353069Y-64897047D01*
X72270891Y-64743301D01*
X72160297Y-64608543D01*
X72133791Y-64586789D01*
X72112037Y-64560283D01*
X71977279Y-64449689D01*
X71823533Y-64367511D01*
X71656710Y-64316905D01*
X71526697Y-64304100D01*
X71526689Y-64304100D01*
X71483220Y-64299819D01*
X71439751Y-64304100D01*
X62303945Y-64304100D01*
X62260479Y-64299819D01*
X62217013Y-64304100D01*
X62217003Y-64304100D01*
X62086990Y-64316905D01*
X61920167Y-64367511D01*
X61766421Y-64449689D01*
X61631663Y-64560283D01*
X61620000Y-64574494D01*
X61620000Y-62157400D01*
X147623160Y-62157400D01*
X147623160Y-62449920D01*
X147680228Y-62736818D01*
X147792170Y-63007071D01*
X147954685Y-63250292D01*
X148161528Y-63457135D01*
X148404749Y-63619650D01*
X148675002Y-63731592D01*
X148961900Y-63788660D01*
X149254420Y-63788660D01*
X149541318Y-63731592D01*
X149811571Y-63619650D01*
X150054792Y-63457135D01*
X150261635Y-63250292D01*
X150378160Y-63075900D01*
X150494685Y-63250292D01*
X150701528Y-63457135D01*
X150944749Y-63619650D01*
X151215002Y-63731592D01*
X151501900Y-63788660D01*
X151794420Y-63788660D01*
X152081318Y-63731592D01*
X152351571Y-63619650D01*
X152594792Y-63457135D01*
X152801635Y-63250292D01*
X152918160Y-63075900D01*
X153034685Y-63250292D01*
X153241528Y-63457135D01*
X153484749Y-63619650D01*
X153755002Y-63731592D01*
X154041900Y-63788660D01*
X154334420Y-63788660D01*
X154621318Y-63731592D01*
X154891571Y-63619650D01*
X155134792Y-63457135D01*
X155341635Y-63250292D01*
X155458160Y-63075900D01*
X155574685Y-63250292D01*
X155781528Y-63457135D01*
X156024749Y-63619650D01*
X156295002Y-63731592D01*
X156581900Y-63788660D01*
X156874420Y-63788660D01*
X157161318Y-63731592D01*
X157431571Y-63619650D01*
X157674792Y-63457135D01*
X157881635Y-63250292D01*
X157998160Y-63075900D01*
X158114685Y-63250292D01*
X158321528Y-63457135D01*
X158564749Y-63619650D01*
X158835002Y-63731592D01*
X159121900Y-63788660D01*
X159414420Y-63788660D01*
X159701318Y-63731592D01*
X159971571Y-63619650D01*
X160214792Y-63457135D01*
X160421635Y-63250292D01*
X160538160Y-63075900D01*
X160654685Y-63250292D01*
X160861528Y-63457135D01*
X161104749Y-63619650D01*
X161375002Y-63731592D01*
X161661900Y-63788660D01*
X161954420Y-63788660D01*
X162241318Y-63731592D01*
X162511571Y-63619650D01*
X162754792Y-63457135D01*
X162961635Y-63250292D01*
X163078160Y-63075900D01*
X163194685Y-63250292D01*
X163401528Y-63457135D01*
X163644749Y-63619650D01*
X163915002Y-63731592D01*
X164201900Y-63788660D01*
X164494420Y-63788660D01*
X164781318Y-63731592D01*
X165051571Y-63619650D01*
X165294792Y-63457135D01*
X165501635Y-63250292D01*
X165618160Y-63075900D01*
X165734685Y-63250292D01*
X165941528Y-63457135D01*
X166184749Y-63619650D01*
X166455002Y-63731592D01*
X166741900Y-63788660D01*
X167034420Y-63788660D01*
X167321318Y-63731592D01*
X167591571Y-63619650D01*
X167834792Y-63457135D01*
X168041635Y-63250292D01*
X168158160Y-63075900D01*
X168274685Y-63250292D01*
X168481528Y-63457135D01*
X168724749Y-63619650D01*
X168995002Y-63731592D01*
X169281900Y-63788660D01*
X169574420Y-63788660D01*
X169861318Y-63731592D01*
X170131571Y-63619650D01*
X170374792Y-63457135D01*
X170499870Y-63332057D01*
X171119368Y-63332057D01*
X171197003Y-63581132D01*
X171461043Y-63707031D01*
X171744571Y-63778999D01*
X172036691Y-63794271D01*
X172326179Y-63752259D01*
X172601907Y-63654579D01*
X172739317Y-63581132D01*
X172816952Y-63332057D01*
X171968160Y-62483265D01*
X171119368Y-63332057D01*
X170499870Y-63332057D01*
X170581635Y-63250292D01*
X170697471Y-63076931D01*
X170939763Y-63152452D01*
X171788555Y-62303660D01*
X170939763Y-61454868D01*
X170697471Y-61530389D01*
X170581635Y-61357028D01*
X170499870Y-61275263D01*
X171119368Y-61275263D01*
X171968160Y-62124055D01*
X172816952Y-61275263D01*
X172753817Y-61072709D01*
X172774877Y-61061452D01*
X172852512Y-60812377D01*
X172003720Y-59963585D01*
X171154928Y-60812377D01*
X171218063Y-61014931D01*
X171197003Y-61026188D01*
X171119368Y-61275263D01*
X170499870Y-61275263D01*
X170374792Y-61150185D01*
X170233385Y-61055700D01*
X170410352Y-60937455D01*
X170617195Y-60730612D01*
X170733031Y-60557251D01*
X170975323Y-60632772D01*
X171824115Y-59783980D01*
X170975323Y-58935188D01*
X170733031Y-59010709D01*
X170617195Y-58837348D01*
X170535430Y-58755583D01*
X171154928Y-58755583D01*
X172003720Y-59604375D01*
X172852512Y-58755583D01*
X172774877Y-58506508D01*
X172510837Y-58380609D01*
X172227309Y-58308641D01*
X171935189Y-58293369D01*
X171645701Y-58335381D01*
X171369973Y-58433061D01*
X171232563Y-58506508D01*
X171154928Y-58755583D01*
X170535430Y-58755583D01*
X170410352Y-58630505D01*
X170167131Y-58467990D01*
X169896878Y-58356048D01*
X169609980Y-58298980D01*
X169317460Y-58298980D01*
X169030562Y-58356048D01*
X168760309Y-58467990D01*
X168517088Y-58630505D01*
X168310245Y-58837348D01*
X168193720Y-59011740D01*
X168077195Y-58837348D01*
X167870352Y-58630505D01*
X167627131Y-58467990D01*
X167356878Y-58356048D01*
X167069980Y-58298980D01*
X166777460Y-58298980D01*
X166490562Y-58356048D01*
X166220309Y-58467990D01*
X165977088Y-58630505D01*
X165770245Y-58837348D01*
X165653720Y-59011740D01*
X165537195Y-58837348D01*
X165330352Y-58630505D01*
X165087131Y-58467990D01*
X164816878Y-58356048D01*
X164529980Y-58298980D01*
X164237460Y-58298980D01*
X163950562Y-58356048D01*
X163680309Y-58467990D01*
X163437088Y-58630505D01*
X163230245Y-58837348D01*
X163113720Y-59011740D01*
X162997195Y-58837348D01*
X162790352Y-58630505D01*
X162547131Y-58467990D01*
X162276878Y-58356048D01*
X161989980Y-58298980D01*
X161697460Y-58298980D01*
X161410562Y-58356048D01*
X161140309Y-58467990D01*
X160897088Y-58630505D01*
X160690245Y-58837348D01*
X160573720Y-59011740D01*
X160457195Y-58837348D01*
X160250352Y-58630505D01*
X160007131Y-58467990D01*
X159736878Y-58356048D01*
X159449980Y-58298980D01*
X159157460Y-58298980D01*
X158870562Y-58356048D01*
X158600309Y-58467990D01*
X158357088Y-58630505D01*
X158150245Y-58837348D01*
X158033720Y-59011740D01*
X157917195Y-58837348D01*
X157710352Y-58630505D01*
X157467131Y-58467990D01*
X157196878Y-58356048D01*
X156909980Y-58298980D01*
X156617460Y-58298980D01*
X156330562Y-58356048D01*
X156060309Y-58467990D01*
X155817088Y-58630505D01*
X155610245Y-58837348D01*
X155493720Y-59011740D01*
X155377195Y-58837348D01*
X155170352Y-58630505D01*
X154927131Y-58467990D01*
X154656878Y-58356048D01*
X154369980Y-58298980D01*
X154077460Y-58298980D01*
X153790562Y-58356048D01*
X153520309Y-58467990D01*
X153277088Y-58630505D01*
X153070245Y-58837348D01*
X152953720Y-59011740D01*
X152837195Y-58837348D01*
X152630352Y-58630505D01*
X152387131Y-58467990D01*
X152116878Y-58356048D01*
X151829980Y-58298980D01*
X151537460Y-58298980D01*
X151250562Y-58356048D01*
X150980309Y-58467990D01*
X150737088Y-58630505D01*
X150530245Y-58837348D01*
X150413720Y-59011740D01*
X150297195Y-58837348D01*
X150090352Y-58630505D01*
X149847131Y-58467990D01*
X149576878Y-58356048D01*
X149289980Y-58298980D01*
X148997460Y-58298980D01*
X148710562Y-58356048D01*
X148440309Y-58467990D01*
X148197088Y-58630505D01*
X147990245Y-58837348D01*
X147827730Y-59080569D01*
X147715788Y-59350822D01*
X147658720Y-59637720D01*
X147658720Y-59930240D01*
X147715788Y-60217138D01*
X147827730Y-60487391D01*
X147990245Y-60730612D01*
X148197088Y-60937455D01*
X148338495Y-61031940D01*
X148161528Y-61150185D01*
X147954685Y-61357028D01*
X147792170Y-61600249D01*
X147680228Y-61870502D01*
X147623160Y-62157400D01*
X61620000Y-62157400D01*
X61620000Y-59732495D01*
X62023000Y-59732495D01*
X62023000Y-60123505D01*
X62099282Y-60507003D01*
X62248915Y-60868250D01*
X62466149Y-61193364D01*
X62742636Y-61469851D01*
X63067750Y-61687085D01*
X63428997Y-61836718D01*
X63812495Y-61913000D01*
X64203505Y-61913000D01*
X64587003Y-61836718D01*
X64948250Y-61687085D01*
X65273364Y-61469851D01*
X65549851Y-61193364D01*
X65767085Y-60868250D01*
X65916718Y-60507003D01*
X65993000Y-60123505D01*
X65993000Y-59732495D01*
X135023000Y-59732495D01*
X135023000Y-60123505D01*
X135099282Y-60507003D01*
X135248915Y-60868250D01*
X135466149Y-61193364D01*
X135742636Y-61469851D01*
X136067750Y-61687085D01*
X136428997Y-61836718D01*
X136812495Y-61913000D01*
X137203505Y-61913000D01*
X137587003Y-61836718D01*
X137948250Y-61687085D01*
X138273364Y-61469851D01*
X138549851Y-61193364D01*
X138767085Y-60868250D01*
X138916718Y-60507003D01*
X138993000Y-60123505D01*
X138993000Y-59732495D01*
X138916718Y-59348997D01*
X138767085Y-58987750D01*
X138549851Y-58662636D01*
X138273364Y-58386149D01*
X137948250Y-58168915D01*
X137587003Y-58019282D01*
X137203505Y-57943000D01*
X136812495Y-57943000D01*
X136428997Y-58019282D01*
X136067750Y-58168915D01*
X135742636Y-58386149D01*
X135466149Y-58662636D01*
X135248915Y-58987750D01*
X135099282Y-59348997D01*
X135023000Y-59732495D01*
X65993000Y-59732495D01*
X65916718Y-59348997D01*
X65767085Y-58987750D01*
X65549851Y-58662636D01*
X65273364Y-58386149D01*
X64948250Y-58168915D01*
X64587003Y-58019282D01*
X64203505Y-57943000D01*
X63812495Y-57943000D01*
X63428997Y-58019282D01*
X63067750Y-58168915D01*
X62742636Y-58386149D01*
X62466149Y-58662636D01*
X62248915Y-58987750D01*
X62099282Y-59348997D01*
X62023000Y-59732495D01*
X61620000Y-59732495D01*
X61620000Y-59452279D01*
X61658909Y-59055455D01*
X61764780Y-58704792D01*
X61936744Y-58381375D01*
X62168254Y-58097516D01*
X62450486Y-57864035D01*
X62772695Y-57689817D01*
X63122614Y-57581498D01*
X63517443Y-57540000D01*
X195547721Y-57540000D01*
X195944545Y-57578909D01*
G36*
X148404749Y-83847670D02*
G01*
X148161528Y-84010185D01*
X147954685Y-84217028D01*
X147792170Y-84460249D01*
X147680228Y-84730502D01*
X147623160Y-85017400D01*
X147623160Y-85309920D01*
X147680228Y-85596818D01*
X147792170Y-85867071D01*
X147954685Y-86110292D01*
X148161528Y-86317135D01*
X148368906Y-86455700D01*
X148197088Y-86570505D01*
X147990245Y-86777348D01*
X147827730Y-87020569D01*
X147715788Y-87290822D01*
X147658720Y-87577720D01*
X147658720Y-87870240D01*
X147715788Y-88157138D01*
X147827730Y-88427391D01*
X147893211Y-88525390D01*
X139274607Y-88513448D01*
X136229694Y-85468536D01*
X136201977Y-85434763D01*
X136067219Y-85324169D01*
X135913473Y-85241991D01*
X135746650Y-85191385D01*
X135616637Y-85178580D01*
X135616629Y-85178580D01*
X135573160Y-85174299D01*
X135529691Y-85178580D01*
X135355502Y-85178580D01*
X134910492Y-85176884D01*
X135064837Y-85022539D01*
X135221880Y-84787507D01*
X135330053Y-84526354D01*
X135385200Y-84249115D01*
X135385200Y-83966445D01*
X135364261Y-83861180D01*
X137308844Y-83861180D01*
X137309580Y-83861251D01*
X137345748Y-83861180D01*
X137382753Y-83861180D01*
X137383506Y-83861106D01*
X138094882Y-83859709D01*
X138151554Y-83864832D01*
X138201566Y-83859500D01*
X148424639Y-83839431D01*
X148404749Y-83847670D01*
G37*
X148404749Y-83847670D02*
X148161528Y-84010185D01*
X147954685Y-84217028D01*
X147792170Y-84460249D01*
X147680228Y-84730502D01*
X147623160Y-85017400D01*
X147623160Y-85309920D01*
X147680228Y-85596818D01*
X147792170Y-85867071D01*
X147954685Y-86110292D01*
X148161528Y-86317135D01*
X148368906Y-86455700D01*
X148197088Y-86570505D01*
X147990245Y-86777348D01*
X147827730Y-87020569D01*
X147715788Y-87290822D01*
X147658720Y-87577720D01*
X147658720Y-87870240D01*
X147715788Y-88157138D01*
X147827730Y-88427391D01*
X147893211Y-88525390D01*
X139274607Y-88513448D01*
X136229694Y-85468536D01*
X136201977Y-85434763D01*
X136067219Y-85324169D01*
X135913473Y-85241991D01*
X135746650Y-85191385D01*
X135616637Y-85178580D01*
X135616629Y-85178580D01*
X135573160Y-85174299D01*
X135529691Y-85178580D01*
X135355502Y-85178580D01*
X134910492Y-85176884D01*
X135064837Y-85022539D01*
X135221880Y-84787507D01*
X135330053Y-84526354D01*
X135385200Y-84249115D01*
X135385200Y-83966445D01*
X135364261Y-83861180D01*
X137308844Y-83861180D01*
X137309580Y-83861251D01*
X137345748Y-83861180D01*
X137382753Y-83861180D01*
X137383506Y-83861106D01*
X138094882Y-83859709D01*
X138151554Y-83864832D01*
X138201566Y-83859500D01*
X148424639Y-83839431D01*
X148404749Y-83847670D01*
G36*
X77332481Y-65056863D02*
G01*
X77132603Y-65256741D01*
X76975560Y-65491773D01*
X76867387Y-65752926D01*
X76812240Y-66030165D01*
X76812240Y-66312835D01*
X76867387Y-66590074D01*
X76975560Y-66851227D01*
X77132603Y-67086259D01*
X77332481Y-67286137D01*
X77564999Y-67441500D01*
X77332481Y-67596863D01*
X77132603Y-67796741D01*
X76975560Y-68031773D01*
X76867387Y-68292926D01*
X76812240Y-68570165D01*
X76812240Y-68852835D01*
X76867387Y-69130074D01*
X76975560Y-69391227D01*
X77132603Y-69626259D01*
X77332481Y-69826137D01*
X77564999Y-69981500D01*
X77332481Y-70136863D01*
X77132603Y-70336741D01*
X76975560Y-70571773D01*
X76867387Y-70832926D01*
X76812240Y-71110165D01*
X76812240Y-71392835D01*
X76867387Y-71670074D01*
X76975560Y-71931227D01*
X77132603Y-72166259D01*
X77332481Y-72366137D01*
X77566368Y-72522415D01*
X77505726Y-72554829D01*
X77434143Y-72798798D01*
X78247240Y-73611895D01*
X79060337Y-72798798D01*
X78988754Y-72554829D01*
X78924248Y-72524306D01*
X78926967Y-72523180D01*
X79161999Y-72366137D01*
X79361877Y-72166259D01*
X79518920Y-71931227D01*
X79627093Y-71670074D01*
X79682240Y-71392835D01*
X79682240Y-71149561D01*
X93519620Y-71149561D01*
X93519620Y-71353439D01*
X93559394Y-71553398D01*
X93637415Y-71741756D01*
X93750683Y-71911274D01*
X93894846Y-72055437D01*
X94064364Y-72168705D01*
X94252722Y-72246726D01*
X94452681Y-72286500D01*
X94656559Y-72286500D01*
X94856518Y-72246726D01*
X95032417Y-72173866D01*
X95123128Y-72182800D01*
X95123138Y-72182800D01*
X95166604Y-72187081D01*
X95210071Y-72182800D01*
X99905846Y-72182800D01*
X99954044Y-72215005D01*
X100142402Y-72293026D01*
X100342361Y-72332800D01*
X100546239Y-72332800D01*
X100746198Y-72293026D01*
X100934556Y-72215005D01*
X101104074Y-72101737D01*
X101248237Y-71957574D01*
X101361505Y-71788056D01*
X101439526Y-71599698D01*
X101457779Y-71507935D01*
X101468895Y-71471290D01*
X101472649Y-71433178D01*
X101479300Y-71399739D01*
X101479300Y-71365645D01*
X101485982Y-71297800D01*
X101479300Y-71229955D01*
X101479300Y-71195861D01*
X101472649Y-71162422D01*
X101468895Y-71124310D01*
X101457779Y-71087665D01*
X101439526Y-70995902D01*
X101361505Y-70807544D01*
X101248237Y-70638026D01*
X101104074Y-70493863D01*
X100934556Y-70380595D01*
X100746198Y-70302574D01*
X100546239Y-70262800D01*
X100342361Y-70262800D01*
X100142402Y-70302574D01*
X99954044Y-70380595D01*
X99905846Y-70412800D01*
X95404211Y-70412800D01*
X95293795Y-70379305D01*
X95163782Y-70366500D01*
X95163774Y-70366500D01*
X95120305Y-70362219D01*
X95090988Y-70365106D01*
X95044876Y-70334295D01*
X94856518Y-70256274D01*
X94656559Y-70216500D01*
X94452681Y-70216500D01*
X94252722Y-70256274D01*
X94064364Y-70334295D01*
X93894846Y-70447563D01*
X93750683Y-70591726D01*
X93637415Y-70761244D01*
X93559394Y-70949602D01*
X93519620Y-71149561D01*
X79682240Y-71149561D01*
X79682240Y-71110165D01*
X79627093Y-70832926D01*
X79518920Y-70571773D01*
X79361877Y-70336741D01*
X79161999Y-70136863D01*
X78929481Y-69981500D01*
X79161999Y-69826137D01*
X79361877Y-69626259D01*
X79518920Y-69391227D01*
X79627093Y-69130074D01*
X79682240Y-68852835D01*
X79682240Y-68570165D01*
X79627093Y-68292926D01*
X79518920Y-68031773D01*
X79361877Y-67796741D01*
X79161999Y-67596863D01*
X78929481Y-67441500D01*
X79161999Y-67286137D01*
X79361877Y-67086259D01*
X79517240Y-66853741D01*
X79672603Y-67086259D01*
X79872481Y-67286137D01*
X80107513Y-67443180D01*
X80368666Y-67551353D01*
X80645905Y-67606500D01*
X80928575Y-67606500D01*
X81205814Y-67551353D01*
X81466967Y-67443180D01*
X81701999Y-67286137D01*
X81901877Y-67086259D01*
X82057240Y-66853741D01*
X82212603Y-67086259D01*
X82412481Y-67286137D01*
X82647513Y-67443180D01*
X82908666Y-67551353D01*
X83185905Y-67606500D01*
X83468575Y-67606500D01*
X83745814Y-67551353D01*
X84006967Y-67443180D01*
X84241999Y-67286137D01*
X84441877Y-67086259D01*
X84597240Y-66853741D01*
X84752603Y-67086259D01*
X84952481Y-67286137D01*
X85187513Y-67443180D01*
X85448666Y-67551353D01*
X85725905Y-67606500D01*
X86008575Y-67606500D01*
X86285814Y-67551353D01*
X86546967Y-67443180D01*
X86781999Y-67286137D01*
X86981877Y-67086259D01*
X87137240Y-66853741D01*
X87292603Y-67086259D01*
X87492481Y-67286137D01*
X87727513Y-67443180D01*
X87988666Y-67551353D01*
X88265905Y-67606500D01*
X88548575Y-67606500D01*
X88825814Y-67551353D01*
X89086967Y-67443180D01*
X89321999Y-67286137D01*
X89521877Y-67086259D01*
X89677240Y-66853741D01*
X89832603Y-67086259D01*
X90032481Y-67286137D01*
X90267513Y-67443180D01*
X90528666Y-67551353D01*
X90805905Y-67606500D01*
X91088575Y-67606500D01*
X91365814Y-67551353D01*
X91626967Y-67443180D01*
X91861999Y-67286137D01*
X92061877Y-67086259D01*
X92217240Y-66853741D01*
X92372603Y-67086259D01*
X92572481Y-67286137D01*
X92807513Y-67443180D01*
X93068666Y-67551353D01*
X93345905Y-67606500D01*
X93628575Y-67606500D01*
X93905814Y-67551353D01*
X94166967Y-67443180D01*
X94401999Y-67286137D01*
X94601877Y-67086259D01*
X94757240Y-66853741D01*
X94912603Y-67086259D01*
X95112481Y-67286137D01*
X95347513Y-67443180D01*
X95608666Y-67551353D01*
X95885905Y-67606500D01*
X96168575Y-67606500D01*
X96445814Y-67551353D01*
X96706967Y-67443180D01*
X96941999Y-67286137D01*
X97141877Y-67086259D01*
X97297240Y-66853741D01*
X97452603Y-67086259D01*
X97652481Y-67286137D01*
X97887513Y-67443180D01*
X98148666Y-67551353D01*
X98425905Y-67606500D01*
X98708575Y-67606500D01*
X98985814Y-67551353D01*
X99246967Y-67443180D01*
X99481999Y-67286137D01*
X99681877Y-67086259D01*
X99837240Y-66853741D01*
X99992603Y-67086259D01*
X100192481Y-67286137D01*
X100427513Y-67443180D01*
X100688666Y-67551353D01*
X100965905Y-67606500D01*
X101248575Y-67606500D01*
X101525814Y-67551353D01*
X101786967Y-67443180D01*
X102021999Y-67286137D01*
X102221877Y-67086259D01*
X102377240Y-66853741D01*
X102532603Y-67086259D01*
X102732481Y-67286137D01*
X102967513Y-67443180D01*
X103228666Y-67551353D01*
X103505905Y-67606500D01*
X103788575Y-67606500D01*
X104065814Y-67551353D01*
X104326967Y-67443180D01*
X104561999Y-67286137D01*
X104761877Y-67086259D01*
X104917240Y-66853741D01*
X105072603Y-67086259D01*
X105272481Y-67286137D01*
X105507513Y-67443180D01*
X105768666Y-67551353D01*
X106045905Y-67606500D01*
X106216904Y-67606500D01*
X106137459Y-67671699D01*
X106113661Y-67700697D01*
X93803136Y-80011223D01*
X93628575Y-79976500D01*
X93345905Y-79976500D01*
X93068666Y-80031647D01*
X92807513Y-80139820D01*
X92572481Y-80296863D01*
X92372603Y-80496741D01*
X92217240Y-80729259D01*
X92061877Y-80496741D01*
X91861999Y-80296863D01*
X91626967Y-80139820D01*
X91365814Y-80031647D01*
X91088575Y-79976500D01*
X90805905Y-79976500D01*
X90528666Y-80031647D01*
X90267513Y-80139820D01*
X90032481Y-80296863D01*
X89832603Y-80496741D01*
X89677240Y-80729259D01*
X89521877Y-80496741D01*
X89321999Y-80296863D01*
X89086967Y-80139820D01*
X88825814Y-80031647D01*
X88548575Y-79976500D01*
X88265905Y-79976500D01*
X87988666Y-80031647D01*
X87727513Y-80139820D01*
X87492481Y-80296863D01*
X87292603Y-80496741D01*
X87137240Y-80729259D01*
X86981877Y-80496741D01*
X86781999Y-80296863D01*
X86546967Y-80139820D01*
X86285814Y-80031647D01*
X86008575Y-79976500D01*
X85725905Y-79976500D01*
X85448666Y-80031647D01*
X85187513Y-80139820D01*
X84952481Y-80296863D01*
X84752603Y-80496741D01*
X84597240Y-80729259D01*
X84441877Y-80496741D01*
X84241999Y-80296863D01*
X84006967Y-80139820D01*
X83745814Y-80031647D01*
X83468575Y-79976500D01*
X83185905Y-79976500D01*
X82908666Y-80031647D01*
X82647513Y-80139820D01*
X82412481Y-80296863D01*
X82212603Y-80496741D01*
X82057240Y-80729259D01*
X81901877Y-80496741D01*
X81701999Y-80296863D01*
X81466967Y-80139820D01*
X81205814Y-80031647D01*
X80928575Y-79976500D01*
X80645905Y-79976500D01*
X80368666Y-80031647D01*
X80107513Y-80139820D01*
X79872481Y-80296863D01*
X79672603Y-80496741D01*
X79517240Y-80729259D01*
X79361877Y-80496741D01*
X79161999Y-80296863D01*
X78929481Y-80141500D01*
X79161999Y-79986137D01*
X79361877Y-79786259D01*
X79518920Y-79551227D01*
X79627093Y-79290074D01*
X79682240Y-79012835D01*
X79682240Y-78730165D01*
X79627093Y-78452926D01*
X79518920Y-78191773D01*
X79361877Y-77956741D01*
X79161999Y-77756863D01*
X78929481Y-77601500D01*
X79161999Y-77446137D01*
X79361877Y-77246259D01*
X79518920Y-77011227D01*
X79627093Y-76750074D01*
X79682240Y-76472835D01*
X79682240Y-76190165D01*
X79627093Y-75912926D01*
X79518920Y-75651773D01*
X79361877Y-75416741D01*
X79161999Y-75216863D01*
X78928112Y-75060585D01*
X78988754Y-75028171D01*
X79060337Y-74784202D01*
X78247240Y-73971105D01*
X77434143Y-74784202D01*
X77505726Y-75028171D01*
X77570232Y-75058694D01*
X77567513Y-75059820D01*
X77332481Y-75216863D01*
X77132603Y-75416741D01*
X76975560Y-75651773D01*
X76867387Y-75912926D01*
X76812240Y-76190165D01*
X76812240Y-76472835D01*
X76867387Y-76750074D01*
X76975560Y-77011227D01*
X77132603Y-77246259D01*
X77332481Y-77446137D01*
X77564999Y-77601500D01*
X77332481Y-77756863D01*
X77132603Y-77956741D01*
X76975560Y-78191773D01*
X76867387Y-78452926D01*
X76812240Y-78730165D01*
X76812240Y-79012835D01*
X76867387Y-79290074D01*
X76975560Y-79551227D01*
X77132603Y-79786259D01*
X77332481Y-79986137D01*
X77564999Y-80141500D01*
X77332481Y-80296863D01*
X77132603Y-80496741D01*
X76975560Y-80731773D01*
X76867387Y-80992926D01*
X76812240Y-81270165D01*
X76812240Y-81552835D01*
X76867387Y-81830074D01*
X76975560Y-82091227D01*
X77132603Y-82326259D01*
X77332481Y-82526137D01*
X77477627Y-82623120D01*
X75187080Y-82623120D01*
X75187080Y-78091533D01*
X75190757Y-78054200D01*
X75176083Y-77905214D01*
X75132626Y-77761953D01*
X75062054Y-77629924D01*
X74990879Y-77543197D01*
X74967081Y-77514199D01*
X74938084Y-77490402D01*
X74333023Y-76885342D01*
X74309221Y-76856339D01*
X74193496Y-76761366D01*
X74061467Y-76690794D01*
X73918206Y-76647337D01*
X73806553Y-76636340D01*
X73806542Y-76636340D01*
X73769220Y-76632664D01*
X73731898Y-76636340D01*
X71721604Y-76636340D01*
X71699928Y-76624754D01*
X71556667Y-76581297D01*
X71486509Y-76574387D01*
X71359075Y-76383668D01*
X71152232Y-76176825D01*
X70970066Y-76055105D01*
X71086955Y-75985478D01*
X71303188Y-75790569D01*
X71477241Y-75557220D01*
X71602425Y-75294399D01*
X71647076Y-75147190D01*
X71525755Y-74917300D01*
X70332600Y-74917300D01*
X70332600Y-74937300D01*
X70078600Y-74937300D01*
X70078600Y-74917300D01*
X67792600Y-74917300D01*
X67792600Y-74937300D01*
X67538600Y-74937300D01*
X67538600Y-74917300D01*
X66339350Y-74917300D01*
X66180600Y-75076050D01*
X66177528Y-75640300D01*
X66189788Y-75764782D01*
X66226098Y-75884480D01*
X66285063Y-75994794D01*
X66364415Y-76091485D01*
X66461106Y-76170837D01*
X66571420Y-76229802D01*
X66643980Y-76251813D01*
X66512125Y-76383668D01*
X66349610Y-76626889D01*
X66237668Y-76897142D01*
X66180600Y-77184040D01*
X66180600Y-77476560D01*
X66237668Y-77763458D01*
X66349610Y-78033711D01*
X66512125Y-78276932D01*
X66718968Y-78483775D01*
X66893360Y-78600300D01*
X66718968Y-78716825D01*
X66512125Y-78923668D01*
X66387422Y-79110300D01*
X65697640Y-79110300D01*
X65697640Y-73940300D01*
X66177528Y-73940300D01*
X66180600Y-74504550D01*
X66339350Y-74663300D01*
X67538600Y-74663300D01*
X67538600Y-73464050D01*
X67792600Y-73464050D01*
X67792600Y-74663300D01*
X70078600Y-74663300D01*
X70078600Y-73469486D01*
X70332600Y-73469486D01*
X70332600Y-74663300D01*
X71525755Y-74663300D01*
X71647076Y-74433410D01*
X71602425Y-74286201D01*
X71477241Y-74023380D01*
X71356879Y-73862012D01*
X76807023Y-73862012D01*
X76848453Y-74141630D01*
X76943637Y-74407792D01*
X77010569Y-74533014D01*
X77254538Y-74604597D01*
X78067635Y-73791500D01*
X78426845Y-73791500D01*
X79239942Y-74604597D01*
X79483911Y-74533014D01*
X79604811Y-74277504D01*
X79673540Y-74003316D01*
X79687457Y-73720988D01*
X79646027Y-73441370D01*
X79550843Y-73175208D01*
X79483911Y-73049986D01*
X79239942Y-72978403D01*
X78426845Y-73791500D01*
X78067635Y-73791500D01*
X77254538Y-72978403D01*
X77010569Y-73049986D01*
X76889669Y-73305496D01*
X76820940Y-73579684D01*
X76807023Y-73862012D01*
X71356879Y-73862012D01*
X71303188Y-73790031D01*
X71086955Y-73595122D01*
X70836852Y-73446143D01*
X70562491Y-73348819D01*
X70332600Y-73469486D01*
X70078600Y-73469486D01*
X69848709Y-73348819D01*
X69574348Y-73446143D01*
X69324245Y-73595122D01*
X69128098Y-73771926D01*
X69105102Y-73696120D01*
X69046137Y-73585806D01*
X68966785Y-73489115D01*
X68870094Y-73409763D01*
X68759780Y-73350798D01*
X68640082Y-73314488D01*
X68515600Y-73302228D01*
X67951350Y-73305300D01*
X67792600Y-73464050D01*
X67538600Y-73464050D01*
X67379850Y-73305300D01*
X66815600Y-73302228D01*
X66691118Y-73314488D01*
X66571420Y-73350798D01*
X66461106Y-73409763D01*
X66364415Y-73489115D01*
X66285063Y-73585806D01*
X66226098Y-73696120D01*
X66189788Y-73815818D01*
X66177528Y-73940300D01*
X65697640Y-73940300D01*
X65697640Y-72303481D01*
X65910302Y-72090820D01*
X73475358Y-72090820D01*
X73512680Y-72094496D01*
X73550002Y-72090820D01*
X73550013Y-72090820D01*
X73661666Y-72079823D01*
X73804927Y-72036366D01*
X73936956Y-71965794D01*
X74052681Y-71870821D01*
X74076484Y-71841818D01*
X75039684Y-70878618D01*
X75068681Y-70854821D01*
X75121206Y-70790819D01*
X75163654Y-70739097D01*
X75234226Y-70607067D01*
X75237896Y-70594968D01*
X75277683Y-70463806D01*
X75288680Y-70352153D01*
X75288680Y-70352143D01*
X75292356Y-70314820D01*
X75288680Y-70277498D01*
X75288680Y-64935640D01*
X77513904Y-64935640D01*
X77332481Y-65056863D01*
G37*
X77332481Y-65056863D02*
X77132603Y-65256741D01*
X76975560Y-65491773D01*
X76867387Y-65752926D01*
X76812240Y-66030165D01*
X76812240Y-66312835D01*
X76867387Y-66590074D01*
X76975560Y-66851227D01*
X77132603Y-67086259D01*
X77332481Y-67286137D01*
X77564999Y-67441500D01*
X77332481Y-67596863D01*
X77132603Y-67796741D01*
X76975560Y-68031773D01*
X76867387Y-68292926D01*
X76812240Y-68570165D01*
X76812240Y-68852835D01*
X76867387Y-69130074D01*
X76975560Y-69391227D01*
X77132603Y-69626259D01*
X77332481Y-69826137D01*
X77564999Y-69981500D01*
X77332481Y-70136863D01*
X77132603Y-70336741D01*
X76975560Y-70571773D01*
X76867387Y-70832926D01*
X76812240Y-71110165D01*
X76812240Y-71392835D01*
X76867387Y-71670074D01*
X76975560Y-71931227D01*
X77132603Y-72166259D01*
X77332481Y-72366137D01*
X77566368Y-72522415D01*
X77505726Y-72554829D01*
X77434143Y-72798798D01*
X78247240Y-73611895D01*
X79060337Y-72798798D01*
X78988754Y-72554829D01*
X78924248Y-72524306D01*
X78926967Y-72523180D01*
X79161999Y-72366137D01*
X79361877Y-72166259D01*
X79518920Y-71931227D01*
X79627093Y-71670074D01*
X79682240Y-71392835D01*
X79682240Y-71149561D01*
X93519620Y-71149561D01*
X93519620Y-71353439D01*
X93559394Y-71553398D01*
X93637415Y-71741756D01*
X93750683Y-71911274D01*
X93894846Y-72055437D01*
X94064364Y-72168705D01*
X94252722Y-72246726D01*
X94452681Y-72286500D01*
X94656559Y-72286500D01*
X94856518Y-72246726D01*
X95032417Y-72173866D01*
X95123128Y-72182800D01*
X95123138Y-72182800D01*
X95166604Y-72187081D01*
X95210071Y-72182800D01*
X99905846Y-72182800D01*
X99954044Y-72215005D01*
X100142402Y-72293026D01*
X100342361Y-72332800D01*
X100546239Y-72332800D01*
X100746198Y-72293026D01*
X100934556Y-72215005D01*
X101104074Y-72101737D01*
X101248237Y-71957574D01*
X101361505Y-71788056D01*
X101439526Y-71599698D01*
X101457779Y-71507935D01*
X101468895Y-71471290D01*
X101472649Y-71433178D01*
X101479300Y-71399739D01*
X101479300Y-71365645D01*
X101485982Y-71297800D01*
X101479300Y-71229955D01*
X101479300Y-71195861D01*
X101472649Y-71162422D01*
X101468895Y-71124310D01*
X101457779Y-71087665D01*
X101439526Y-70995902D01*
X101361505Y-70807544D01*
X101248237Y-70638026D01*
X101104074Y-70493863D01*
X100934556Y-70380595D01*
X100746198Y-70302574D01*
X100546239Y-70262800D01*
X100342361Y-70262800D01*
X100142402Y-70302574D01*
X99954044Y-70380595D01*
X99905846Y-70412800D01*
X95404211Y-70412800D01*
X95293795Y-70379305D01*
X95163782Y-70366500D01*
X95163774Y-70366500D01*
X95120305Y-70362219D01*
X95090988Y-70365106D01*
X95044876Y-70334295D01*
X94856518Y-70256274D01*
X94656559Y-70216500D01*
X94452681Y-70216500D01*
X94252722Y-70256274D01*
X94064364Y-70334295D01*
X93894846Y-70447563D01*
X93750683Y-70591726D01*
X93637415Y-70761244D01*
X93559394Y-70949602D01*
X93519620Y-71149561D01*
X79682240Y-71149561D01*
X79682240Y-71110165D01*
X79627093Y-70832926D01*
X79518920Y-70571773D01*
X79361877Y-70336741D01*
X79161999Y-70136863D01*
X78929481Y-69981500D01*
X79161999Y-69826137D01*
X79361877Y-69626259D01*
X79518920Y-69391227D01*
X79627093Y-69130074D01*
X79682240Y-68852835D01*
X79682240Y-68570165D01*
X79627093Y-68292926D01*
X79518920Y-68031773D01*
X79361877Y-67796741D01*
X79161999Y-67596863D01*
X78929481Y-67441500D01*
X79161999Y-67286137D01*
X79361877Y-67086259D01*
X79517240Y-66853741D01*
X79672603Y-67086259D01*
X79872481Y-67286137D01*
X80107513Y-67443180D01*
X80368666Y-67551353D01*
X80645905Y-67606500D01*
X80928575Y-67606500D01*
X81205814Y-67551353D01*
X81466967Y-67443180D01*
X81701999Y-67286137D01*
X81901877Y-67086259D01*
X82057240Y-66853741D01*
X82212603Y-67086259D01*
X82412481Y-67286137D01*
X82647513Y-67443180D01*
X82908666Y-67551353D01*
X83185905Y-67606500D01*
X83468575Y-67606500D01*
X83745814Y-67551353D01*
X84006967Y-67443180D01*
X84241999Y-67286137D01*
X84441877Y-67086259D01*
X84597240Y-66853741D01*
X84752603Y-67086259D01*
X84952481Y-67286137D01*
X85187513Y-67443180D01*
X85448666Y-67551353D01*
X85725905Y-67606500D01*
X86008575Y-67606500D01*
X86285814Y-67551353D01*
X86546967Y-67443180D01*
X86781999Y-67286137D01*
X86981877Y-67086259D01*
X87137240Y-66853741D01*
X87292603Y-67086259D01*
X87492481Y-67286137D01*
X87727513Y-67443180D01*
X87988666Y-67551353D01*
X88265905Y-67606500D01*
X88548575Y-67606500D01*
X88825814Y-67551353D01*
X89086967Y-67443180D01*
X89321999Y-67286137D01*
X89521877Y-67086259D01*
X89677240Y-66853741D01*
X89832603Y-67086259D01*
X90032481Y-67286137D01*
X90267513Y-67443180D01*
X90528666Y-67551353D01*
X90805905Y-67606500D01*
X91088575Y-67606500D01*
X91365814Y-67551353D01*
X91626967Y-67443180D01*
X91861999Y-67286137D01*
X92061877Y-67086259D01*
X92217240Y-66853741D01*
X92372603Y-67086259D01*
X92572481Y-67286137D01*
X92807513Y-67443180D01*
X93068666Y-67551353D01*
X93345905Y-67606500D01*
X93628575Y-67606500D01*
X93905814Y-67551353D01*
X94166967Y-67443180D01*
X94401999Y-67286137D01*
X94601877Y-67086259D01*
X94757240Y-66853741D01*
X94912603Y-67086259D01*
X95112481Y-67286137D01*
X95347513Y-67443180D01*
X95608666Y-67551353D01*
X95885905Y-67606500D01*
X96168575Y-67606500D01*
X96445814Y-67551353D01*
X96706967Y-67443180D01*
X96941999Y-67286137D01*
X97141877Y-67086259D01*
X97297240Y-66853741D01*
X97452603Y-67086259D01*
X97652481Y-67286137D01*
X97887513Y-67443180D01*
X98148666Y-67551353D01*
X98425905Y-67606500D01*
X98708575Y-67606500D01*
X98985814Y-67551353D01*
X99246967Y-67443180D01*
X99481999Y-67286137D01*
X99681877Y-67086259D01*
X99837240Y-66853741D01*
X99992603Y-67086259D01*
X100192481Y-67286137D01*
X100427513Y-67443180D01*
X100688666Y-67551353D01*
X100965905Y-67606500D01*
X101248575Y-67606500D01*
X101525814Y-67551353D01*
X101786967Y-67443180D01*
X102021999Y-67286137D01*
X102221877Y-67086259D01*
X102377240Y-66853741D01*
X102532603Y-67086259D01*
X102732481Y-67286137D01*
X102967513Y-67443180D01*
X103228666Y-67551353D01*
X103505905Y-67606500D01*
X103788575Y-67606500D01*
X104065814Y-67551353D01*
X104326967Y-67443180D01*
X104561999Y-67286137D01*
X104761877Y-67086259D01*
X104917240Y-66853741D01*
X105072603Y-67086259D01*
X105272481Y-67286137D01*
X105507513Y-67443180D01*
X105768666Y-67551353D01*
X106045905Y-67606500D01*
X106216904Y-67606500D01*
X106137459Y-67671699D01*
X106113661Y-67700697D01*
X93803136Y-80011223D01*
X93628575Y-79976500D01*
X93345905Y-79976500D01*
X93068666Y-80031647D01*
X92807513Y-80139820D01*
X92572481Y-80296863D01*
X92372603Y-80496741D01*
X92217240Y-80729259D01*
X92061877Y-80496741D01*
X91861999Y-80296863D01*
X91626967Y-80139820D01*
X91365814Y-80031647D01*
X91088575Y-79976500D01*
X90805905Y-79976500D01*
X90528666Y-80031647D01*
X90267513Y-80139820D01*
X90032481Y-80296863D01*
X89832603Y-80496741D01*
X89677240Y-80729259D01*
X89521877Y-80496741D01*
X89321999Y-80296863D01*
X89086967Y-80139820D01*
X88825814Y-80031647D01*
X88548575Y-79976500D01*
X88265905Y-79976500D01*
X87988666Y-80031647D01*
X87727513Y-80139820D01*
X87492481Y-80296863D01*
X87292603Y-80496741D01*
X87137240Y-80729259D01*
X86981877Y-80496741D01*
X86781999Y-80296863D01*
X86546967Y-80139820D01*
X86285814Y-80031647D01*
X86008575Y-79976500D01*
X85725905Y-79976500D01*
X85448666Y-80031647D01*
X85187513Y-80139820D01*
X84952481Y-80296863D01*
X84752603Y-80496741D01*
X84597240Y-80729259D01*
X84441877Y-80496741D01*
X84241999Y-80296863D01*
X84006967Y-80139820D01*
X83745814Y-80031647D01*
X83468575Y-79976500D01*
X83185905Y-79976500D01*
X82908666Y-80031647D01*
X82647513Y-80139820D01*
X82412481Y-80296863D01*
X82212603Y-80496741D01*
X82057240Y-80729259D01*
X81901877Y-80496741D01*
X81701999Y-80296863D01*
X81466967Y-80139820D01*
X81205814Y-80031647D01*
X80928575Y-79976500D01*
X80645905Y-79976500D01*
X80368666Y-80031647D01*
X80107513Y-80139820D01*
X79872481Y-80296863D01*
X79672603Y-80496741D01*
X79517240Y-80729259D01*
X79361877Y-80496741D01*
X79161999Y-80296863D01*
X78929481Y-80141500D01*
X79161999Y-79986137D01*
X79361877Y-79786259D01*
X79518920Y-79551227D01*
X79627093Y-79290074D01*
X79682240Y-79012835D01*
X79682240Y-78730165D01*
X79627093Y-78452926D01*
X79518920Y-78191773D01*
X79361877Y-77956741D01*
X79161999Y-77756863D01*
X78929481Y-77601500D01*
X79161999Y-77446137D01*
X79361877Y-77246259D01*
X79518920Y-77011227D01*
X79627093Y-76750074D01*
X79682240Y-76472835D01*
X79682240Y-76190165D01*
X79627093Y-75912926D01*
X79518920Y-75651773D01*
X79361877Y-75416741D01*
X79161999Y-75216863D01*
X78928112Y-75060585D01*
X78988754Y-75028171D01*
X79060337Y-74784202D01*
X78247240Y-73971105D01*
X77434143Y-74784202D01*
X77505726Y-75028171D01*
X77570232Y-75058694D01*
X77567513Y-75059820D01*
X77332481Y-75216863D01*
X77132603Y-75416741D01*
X76975560Y-75651773D01*
X76867387Y-75912926D01*
X76812240Y-76190165D01*
X76812240Y-76472835D01*
X76867387Y-76750074D01*
X76975560Y-77011227D01*
X77132603Y-77246259D01*
X77332481Y-77446137D01*
X77564999Y-77601500D01*
X77332481Y-77756863D01*
X77132603Y-77956741D01*
X76975560Y-78191773D01*
X76867387Y-78452926D01*
X76812240Y-78730165D01*
X76812240Y-79012835D01*
X76867387Y-79290074D01*
X76975560Y-79551227D01*
X77132603Y-79786259D01*
X77332481Y-79986137D01*
X77564999Y-80141500D01*
X77332481Y-80296863D01*
X77132603Y-80496741D01*
X76975560Y-80731773D01*
X76867387Y-80992926D01*
X76812240Y-81270165D01*
X76812240Y-81552835D01*
X76867387Y-81830074D01*
X76975560Y-82091227D01*
X77132603Y-82326259D01*
X77332481Y-82526137D01*
X77477627Y-82623120D01*
X75187080Y-82623120D01*
X75187080Y-78091533D01*
X75190757Y-78054200D01*
X75176083Y-77905214D01*
X75132626Y-77761953D01*
X75062054Y-77629924D01*
X74990879Y-77543197D01*
X74967081Y-77514199D01*
X74938084Y-77490402D01*
X74333023Y-76885342D01*
X74309221Y-76856339D01*
X74193496Y-76761366D01*
X74061467Y-76690794D01*
X73918206Y-76647337D01*
X73806553Y-76636340D01*
X73806542Y-76636340D01*
X73769220Y-76632664D01*
X73731898Y-76636340D01*
X71721604Y-76636340D01*
X71699928Y-76624754D01*
X71556667Y-76581297D01*
X71486509Y-76574387D01*
X71359075Y-76383668D01*
X71152232Y-76176825D01*
X70970066Y-76055105D01*
X71086955Y-75985478D01*
X71303188Y-75790569D01*
X71477241Y-75557220D01*
X71602425Y-75294399D01*
X71647076Y-75147190D01*
X71525755Y-74917300D01*
X70332600Y-74917300D01*
X70332600Y-74937300D01*
X70078600Y-74937300D01*
X70078600Y-74917300D01*
X67792600Y-74917300D01*
X67792600Y-74937300D01*
X67538600Y-74937300D01*
X67538600Y-74917300D01*
X66339350Y-74917300D01*
X66180600Y-75076050D01*
X66177528Y-75640300D01*
X66189788Y-75764782D01*
X66226098Y-75884480D01*
X66285063Y-75994794D01*
X66364415Y-76091485D01*
X66461106Y-76170837D01*
X66571420Y-76229802D01*
X66643980Y-76251813D01*
X66512125Y-76383668D01*
X66349610Y-76626889D01*
X66237668Y-76897142D01*
X66180600Y-77184040D01*
X66180600Y-77476560D01*
X66237668Y-77763458D01*
X66349610Y-78033711D01*
X66512125Y-78276932D01*
X66718968Y-78483775D01*
X66893360Y-78600300D01*
X66718968Y-78716825D01*
X66512125Y-78923668D01*
X66387422Y-79110300D01*
X65697640Y-79110300D01*
X65697640Y-73940300D01*
X66177528Y-73940300D01*
X66180600Y-74504550D01*
X66339350Y-74663300D01*
X67538600Y-74663300D01*
X67538600Y-73464050D01*
X67792600Y-73464050D01*
X67792600Y-74663300D01*
X70078600Y-74663300D01*
X70078600Y-73469486D01*
X70332600Y-73469486D01*
X70332600Y-74663300D01*
X71525755Y-74663300D01*
X71647076Y-74433410D01*
X71602425Y-74286201D01*
X71477241Y-74023380D01*
X71356879Y-73862012D01*
X76807023Y-73862012D01*
X76848453Y-74141630D01*
X76943637Y-74407792D01*
X77010569Y-74533014D01*
X77254538Y-74604597D01*
X78067635Y-73791500D01*
X78426845Y-73791500D01*
X79239942Y-74604597D01*
X79483911Y-74533014D01*
X79604811Y-74277504D01*
X79673540Y-74003316D01*
X79687457Y-73720988D01*
X79646027Y-73441370D01*
X79550843Y-73175208D01*
X79483911Y-73049986D01*
X79239942Y-72978403D01*
X78426845Y-73791500D01*
X78067635Y-73791500D01*
X77254538Y-72978403D01*
X77010569Y-73049986D01*
X76889669Y-73305496D01*
X76820940Y-73579684D01*
X76807023Y-73862012D01*
X71356879Y-73862012D01*
X71303188Y-73790031D01*
X71086955Y-73595122D01*
X70836852Y-73446143D01*
X70562491Y-73348819D01*
X70332600Y-73469486D01*
X70078600Y-73469486D01*
X69848709Y-73348819D01*
X69574348Y-73446143D01*
X69324245Y-73595122D01*
X69128098Y-73771926D01*
X69105102Y-73696120D01*
X69046137Y-73585806D01*
X68966785Y-73489115D01*
X68870094Y-73409763D01*
X68759780Y-73350798D01*
X68640082Y-73314488D01*
X68515600Y-73302228D01*
X67951350Y-73305300D01*
X67792600Y-73464050D01*
X67538600Y-73464050D01*
X67379850Y-73305300D01*
X66815600Y-73302228D01*
X66691118Y-73314488D01*
X66571420Y-73350798D01*
X66461106Y-73409763D01*
X66364415Y-73489115D01*
X66285063Y-73585806D01*
X66226098Y-73696120D01*
X66189788Y-73815818D01*
X66177528Y-73940300D01*
X65697640Y-73940300D01*
X65697640Y-72303481D01*
X65910302Y-72090820D01*
X73475358Y-72090820D01*
X73512680Y-72094496D01*
X73550002Y-72090820D01*
X73550013Y-72090820D01*
X73661666Y-72079823D01*
X73804927Y-72036366D01*
X73936956Y-71965794D01*
X74052681Y-71870821D01*
X74076484Y-71841818D01*
X75039684Y-70878618D01*
X75068681Y-70854821D01*
X75121206Y-70790819D01*
X75163654Y-70739097D01*
X75234226Y-70607067D01*
X75237896Y-70594968D01*
X75277683Y-70463806D01*
X75288680Y-70352153D01*
X75288680Y-70352143D01*
X75292356Y-70314820D01*
X75288680Y-70277498D01*
X75288680Y-64935640D01*
X77513904Y-64935640D01*
X77332481Y-65056863D01*
G36*
X130110200Y-64840202D02*
G01*
X130110200Y-65042381D01*
X129923568Y-65167085D01*
X129716725Y-65373928D01*
X129595005Y-65556094D01*
X129525378Y-65439205D01*
X129330469Y-65222972D01*
X129097120Y-65048919D01*
X128834299Y-64923735D01*
X128687090Y-64879084D01*
X128457200Y-65000405D01*
X128457200Y-66193560D01*
X128477200Y-66193560D01*
X128477200Y-66447560D01*
X128457200Y-66447560D01*
X128457200Y-66467560D01*
X128203200Y-66467560D01*
X128203200Y-66447560D01*
X128183200Y-66447560D01*
X128183200Y-66193560D01*
X128203200Y-66193560D01*
X128203200Y-65000405D01*
X127973310Y-64879084D01*
X127826101Y-64923735D01*
X127563280Y-65048919D01*
X127329931Y-65222972D01*
X127254166Y-65307026D01*
X127229702Y-65226380D01*
X127170737Y-65116066D01*
X127091385Y-65019375D01*
X126994694Y-64940023D01*
X126884380Y-64881058D01*
X126764682Y-64844748D01*
X126640200Y-64832488D01*
X124940200Y-64832488D01*
X124815718Y-64844748D01*
X124696020Y-64881058D01*
X124585706Y-64940023D01*
X124489015Y-65019375D01*
X124409663Y-65116066D01*
X124350698Y-65226380D01*
X124314388Y-65346078D01*
X124302128Y-65470560D01*
X124302128Y-67170560D01*
X124314388Y-67295042D01*
X124350698Y-67414740D01*
X124409663Y-67525054D01*
X124426859Y-67546007D01*
X120536880Y-67545711D01*
X120536880Y-67393278D01*
X120582521Y-67417673D01*
X120732552Y-67463185D01*
X120888580Y-67478552D01*
X121665180Y-67478552D01*
X121821208Y-67463185D01*
X121971239Y-67417673D01*
X122109510Y-67343766D01*
X122230704Y-67244304D01*
X122330166Y-67123110D01*
X122404073Y-66984839D01*
X122449585Y-66834808D01*
X122464952Y-66678780D01*
X122464952Y-65302180D01*
X122449585Y-65146152D01*
X122404073Y-64996121D01*
X122330166Y-64857850D01*
X122256428Y-64768000D01*
X130037999Y-64768000D01*
X130110200Y-64840202D01*
G37*
X130110200Y-64840202D02*
X130110200Y-65042381D01*
X129923568Y-65167085D01*
X129716725Y-65373928D01*
X129595005Y-65556094D01*
X129525378Y-65439205D01*
X129330469Y-65222972D01*
X129097120Y-65048919D01*
X128834299Y-64923735D01*
X128687090Y-64879084D01*
X128457200Y-65000405D01*
X128457200Y-66193560D01*
X128477200Y-66193560D01*
X128477200Y-66447560D01*
X128457200Y-66447560D01*
X128457200Y-66467560D01*
X128203200Y-66467560D01*
X128203200Y-66447560D01*
X128183200Y-66447560D01*
X128183200Y-66193560D01*
X128203200Y-66193560D01*
X128203200Y-65000405D01*
X127973310Y-64879084D01*
X127826101Y-64923735D01*
X127563280Y-65048919D01*
X127329931Y-65222972D01*
X127254166Y-65307026D01*
X127229702Y-65226380D01*
X127170737Y-65116066D01*
X127091385Y-65019375D01*
X126994694Y-64940023D01*
X126884380Y-64881058D01*
X126764682Y-64844748D01*
X126640200Y-64832488D01*
X124940200Y-64832488D01*
X124815718Y-64844748D01*
X124696020Y-64881058D01*
X124585706Y-64940023D01*
X124489015Y-65019375D01*
X124409663Y-65116066D01*
X124350698Y-65226380D01*
X124314388Y-65346078D01*
X124302128Y-65470560D01*
X124302128Y-67170560D01*
X124314388Y-67295042D01*
X124350698Y-67414740D01*
X124409663Y-67525054D01*
X124426859Y-67546007D01*
X120536880Y-67545711D01*
X120536880Y-67393278D01*
X120582521Y-67417673D01*
X120732552Y-67463185D01*
X120888580Y-67478552D01*
X121665180Y-67478552D01*
X121821208Y-67463185D01*
X121971239Y-67417673D01*
X122109510Y-67343766D01*
X122230704Y-67244304D01*
X122330166Y-67123110D01*
X122404073Y-66984839D01*
X122449585Y-66834808D01*
X122464952Y-66678780D01*
X122464952Y-65302180D01*
X122449585Y-65146152D01*
X122404073Y-64996121D01*
X122330166Y-64857850D01*
X122256428Y-64768000D01*
X130037999Y-64768000D01*
X130110200Y-64840202D01*
M02*
