G04 #@! TF.GenerationSoftware,KiCad,Pcbnew,(5.1.2)-2*
G04 #@! TF.CreationDate,2019-07-16T11:55:39+02:00*
G04 #@! TF.ProjectId,Airrohr_pcb,41697272-6f68-4725-9f70-63622e6b6963,rev?*
G04 #@! TF.SameCoordinates,Original*
G04 #@! TF.FileFunction,Copper,L1,Top*
G04 #@! TF.FilePolarity,Positive*
%FSLAX46Y46*%
G04 Gerber Fmt 4.6, Leading zero omitted, Abs format (unit mm)*
G04 Created by KiCad (PCBNEW (5.1.2)-2) date 2019-07-16 11:55:39*
%MOMM*%
%LPD*%
G04 APERTURE LIST*
%ADD10O,1.700000X1.950000*%
%ADD11C,0.100000*%
%ADD12C,1.700000*%
%ADD13O,1.700000X1.700000*%
%ADD14R,1.700000X1.700000*%
%ADD15C,1.740000*%
%ADD16O,1.600000X1.600000*%
%ADD17C,1.600000*%
%ADD18C,1.676400*%
%ADD19R,1.676400X1.676400*%
%ADD20O,1.100000X1.700000*%
%ADD21C,1.100000*%
%ADD22C,2.600000*%
%ADD23R,2.600000X2.600000*%
%ADD24C,0.500000*%
%ADD25C,0.250000*%
G04 APERTURE END LIST*
D10*
X202278000Y-80772000D03*
X199778000Y-80772000D03*
X197278000Y-80772000D03*
X194778000Y-80772000D03*
D11*
G36*
X192902504Y-79798204D02*
G01*
X192926773Y-79801804D01*
X192950571Y-79807765D01*
X192973671Y-79816030D01*
X192995849Y-79826520D01*
X193016893Y-79839133D01*
X193036598Y-79853747D01*
X193054777Y-79870223D01*
X193071253Y-79888402D01*
X193085867Y-79908107D01*
X193098480Y-79929151D01*
X193108970Y-79951329D01*
X193117235Y-79974429D01*
X193123196Y-79998227D01*
X193126796Y-80022496D01*
X193128000Y-80047000D01*
X193128000Y-81497000D01*
X193126796Y-81521504D01*
X193123196Y-81545773D01*
X193117235Y-81569571D01*
X193108970Y-81592671D01*
X193098480Y-81614849D01*
X193085867Y-81635893D01*
X193071253Y-81655598D01*
X193054777Y-81673777D01*
X193036598Y-81690253D01*
X193016893Y-81704867D01*
X192995849Y-81717480D01*
X192973671Y-81727970D01*
X192950571Y-81736235D01*
X192926773Y-81742196D01*
X192902504Y-81745796D01*
X192878000Y-81747000D01*
X191678000Y-81747000D01*
X191653496Y-81745796D01*
X191629227Y-81742196D01*
X191605429Y-81736235D01*
X191582329Y-81727970D01*
X191560151Y-81717480D01*
X191539107Y-81704867D01*
X191519402Y-81690253D01*
X191501223Y-81673777D01*
X191484747Y-81655598D01*
X191470133Y-81635893D01*
X191457520Y-81614849D01*
X191447030Y-81592671D01*
X191438765Y-81569571D01*
X191432804Y-81545773D01*
X191429204Y-81521504D01*
X191428000Y-81497000D01*
X191428000Y-80047000D01*
X191429204Y-80022496D01*
X191432804Y-79998227D01*
X191438765Y-79974429D01*
X191447030Y-79951329D01*
X191457520Y-79929151D01*
X191470133Y-79908107D01*
X191484747Y-79888402D01*
X191501223Y-79870223D01*
X191519402Y-79853747D01*
X191539107Y-79839133D01*
X191560151Y-79826520D01*
X191582329Y-79816030D01*
X191605429Y-79807765D01*
X191629227Y-79801804D01*
X191653496Y-79798204D01*
X191678000Y-79797000D01*
X192878000Y-79797000D01*
X192902504Y-79798204D01*
X192902504Y-79798204D01*
G37*
D12*
X192278000Y-80772000D03*
D13*
X187452000Y-38227000D03*
X189992000Y-38227000D03*
X192532000Y-38227000D03*
D14*
X195072000Y-38227000D03*
D13*
X187452000Y-26797000D03*
X189992000Y-26797000D03*
X192532000Y-26797000D03*
D14*
X195072000Y-26797000D03*
D13*
X187452000Y-21082000D03*
X189992000Y-21082000D03*
X192532000Y-21082000D03*
D14*
X195072000Y-21082000D03*
D12*
X169138600Y-44399200D03*
X169138600Y-49479200D03*
X169138600Y-46939200D03*
X169138600Y-67259200D03*
X169138600Y-64719200D03*
X169138600Y-59639200D03*
X169138600Y-62179200D03*
X169138600Y-77419200D03*
X169138600Y-57099200D03*
X169138600Y-52019200D03*
X169138600Y-54559200D03*
X169138600Y-69799200D03*
X169138600Y-74879200D03*
X169138600Y-72339200D03*
X169138600Y-41859200D03*
X146278600Y-77419200D03*
X146278600Y-74879200D03*
X146278600Y-72339200D03*
X146278600Y-69799200D03*
X146278600Y-67259200D03*
X146278600Y-64719200D03*
X146278600Y-62179200D03*
X146278600Y-59639200D03*
X146278600Y-57099200D03*
X146278600Y-54559200D03*
X146278600Y-52019200D03*
X146278600Y-49479200D03*
X146278600Y-46939200D03*
X146278600Y-44399200D03*
X146278600Y-41859200D03*
X171653200Y-41833800D03*
X171653200Y-44373800D03*
X171653200Y-46913800D03*
D15*
X171653200Y-49453800D03*
D12*
X171653200Y-51993800D03*
X171653200Y-54533800D03*
X171653200Y-57073800D03*
X171653200Y-59613800D03*
X171653200Y-62153800D03*
X171653200Y-64693800D03*
X171653200Y-67233800D03*
X171653200Y-69773800D03*
X171653200Y-72313800D03*
X171653200Y-74853800D03*
X171653200Y-77393800D03*
X143713200Y-77393800D03*
X143713200Y-74853800D03*
X143713200Y-72313800D03*
X143713200Y-69773800D03*
X143713200Y-67233800D03*
X143713200Y-64693800D03*
X143713200Y-62153800D03*
X143713200Y-59613800D03*
X143713200Y-57073800D03*
X143713200Y-54533800D03*
X143713200Y-51993800D03*
X143713200Y-49453800D03*
X143713200Y-46913800D03*
X143713200Y-44373800D03*
X143713200Y-41833800D03*
D13*
X187452000Y-32258000D03*
X189992000Y-32258000D03*
X192532000Y-32258000D03*
D14*
X195072000Y-32258000D03*
D13*
X205359000Y-57531000D03*
X205359000Y-54991000D03*
X205359000Y-52451000D03*
D14*
X205359000Y-49911000D03*
D13*
X201041000Y-57531000D03*
X201041000Y-54991000D03*
X201041000Y-52451000D03*
D14*
X201041000Y-49911000D03*
D13*
X205486000Y-72009000D03*
X205486000Y-69469000D03*
X205486000Y-66929000D03*
D14*
X205486000Y-64389000D03*
D13*
X201041000Y-72009000D03*
X201041000Y-69469000D03*
X201041000Y-66929000D03*
D14*
X201041000Y-64389000D03*
D16*
X188588000Y-60579000D03*
D17*
X196088000Y-60579000D03*
D18*
X196342000Y-49657000D03*
X196342000Y-52197000D03*
X196342000Y-54737000D03*
X196342000Y-57277000D03*
X188722000Y-57277000D03*
X188722000Y-54737000D03*
X188722000Y-52197000D03*
D19*
X188722000Y-49657000D03*
D20*
X178085000Y-22987000D03*
X176585000Y-22987000D03*
X175085000Y-22987000D03*
X173585000Y-22987000D03*
D11*
G36*
X172489149Y-22137779D02*
G01*
X172504846Y-22140107D01*
X172520239Y-22143963D01*
X172535180Y-22149309D01*
X172549525Y-22156093D01*
X172563136Y-22164251D01*
X172575881Y-22173704D01*
X172587639Y-22184361D01*
X172598296Y-22196119D01*
X172607749Y-22208864D01*
X172615907Y-22222475D01*
X172622691Y-22236820D01*
X172628037Y-22251761D01*
X172631893Y-22267154D01*
X172634221Y-22282851D01*
X172635000Y-22298700D01*
X172635000Y-23675300D01*
X172634221Y-23691149D01*
X172631893Y-23706846D01*
X172628037Y-23722239D01*
X172622691Y-23737180D01*
X172615907Y-23751525D01*
X172607749Y-23765136D01*
X172598296Y-23777881D01*
X172587639Y-23789639D01*
X172575881Y-23800296D01*
X172563136Y-23809749D01*
X172549525Y-23817907D01*
X172535180Y-23824691D01*
X172520239Y-23830037D01*
X172504846Y-23833893D01*
X172489149Y-23836221D01*
X172473300Y-23837000D01*
X171696700Y-23837000D01*
X171680851Y-23836221D01*
X171665154Y-23833893D01*
X171649761Y-23830037D01*
X171634820Y-23824691D01*
X171620475Y-23817907D01*
X171606864Y-23809749D01*
X171594119Y-23800296D01*
X171582361Y-23789639D01*
X171571704Y-23777881D01*
X171562251Y-23765136D01*
X171554093Y-23751525D01*
X171547309Y-23737180D01*
X171541963Y-23722239D01*
X171538107Y-23706846D01*
X171535779Y-23691149D01*
X171535000Y-23675300D01*
X171535000Y-22298700D01*
X171535779Y-22282851D01*
X171538107Y-22267154D01*
X171541963Y-22251761D01*
X171547309Y-22236820D01*
X171554093Y-22222475D01*
X171562251Y-22208864D01*
X171571704Y-22196119D01*
X171582361Y-22184361D01*
X171594119Y-22173704D01*
X171606864Y-22164251D01*
X171620475Y-22156093D01*
X171634820Y-22149309D01*
X171649761Y-22143963D01*
X171665154Y-22140107D01*
X171680851Y-22137779D01*
X171696700Y-22137000D01*
X172473300Y-22137000D01*
X172489149Y-22137779D01*
X172489149Y-22137779D01*
G37*
D21*
X172085000Y-22987000D03*
D16*
X196088000Y-63627000D03*
D17*
X196088000Y-73787000D03*
D16*
X192024000Y-63627000D03*
D17*
X192024000Y-73787000D03*
D16*
X179197000Y-49784000D03*
D17*
X179197000Y-59944000D03*
D16*
X183769000Y-49657000D03*
D17*
X183769000Y-59817000D03*
D16*
X179247800Y-73380600D03*
D17*
X179247800Y-63220600D03*
D13*
X185267600Y-71577200D03*
X185267600Y-69037200D03*
X185267600Y-66497200D03*
D14*
X185267600Y-63957200D03*
D13*
X150114000Y-25603200D03*
D14*
X150114000Y-23063200D03*
D22*
X156514800Y-23088600D03*
D23*
X161594800Y-23088600D03*
D24*
X188391800Y-71577200D02*
X185267600Y-71577200D01*
X188722000Y-57277000D02*
X188722000Y-71247000D01*
X188722000Y-71247000D02*
X188391800Y-71577200D01*
X199838919Y-52451000D02*
X199136000Y-51748081D01*
X201041000Y-52451000D02*
X199838919Y-52451000D01*
X199136000Y-51748081D02*
X199136000Y-46228000D01*
X199136000Y-46228000D02*
X199009000Y-46101000D01*
X192532000Y-39624000D02*
X199136000Y-46228000D01*
X192532000Y-38227000D02*
X192532000Y-39624000D01*
D25*
X167936519Y-44399200D02*
X169138600Y-44399200D01*
X167758719Y-44577000D02*
X167936519Y-44399200D01*
X191328000Y-80772000D02*
X190312000Y-79756000D01*
X192278000Y-80772000D02*
X191328000Y-80772000D01*
X190312000Y-79756000D02*
X166497000Y-79756000D01*
X166497000Y-79756000D02*
X166243000Y-79502000D01*
X166243000Y-79502000D02*
X166243000Y-44577000D01*
X166243000Y-44577000D02*
X167758719Y-44577000D01*
X175107600Y-50368200D02*
X175107600Y-74396600D01*
X171653200Y-46913800D02*
X175107600Y-50368200D01*
X175107600Y-74396600D02*
X177038000Y-76327000D01*
X177038000Y-76327000D02*
X177139600Y-76428600D01*
X177546000Y-76835000D02*
X177038000Y-76327000D01*
X192913000Y-76835000D02*
X177546000Y-76835000D01*
X194818000Y-78740000D02*
X192913000Y-76835000D01*
X194818000Y-79507000D02*
X194818000Y-78740000D01*
X194778000Y-80772000D02*
X194778000Y-79547000D01*
X194778000Y-79547000D02*
X194818000Y-79507000D01*
D24*
X142635570Y-46913800D02*
X140995400Y-48553970D01*
D25*
X143713200Y-46913800D02*
X142635570Y-46913800D01*
X146278600Y-77419200D02*
X146126200Y-77419200D01*
D24*
X140970000Y-48514000D02*
X140970000Y-80732030D01*
X201041000Y-64389000D02*
X205486000Y-64389000D01*
X201041000Y-49911000D02*
X205359000Y-49911000D01*
X205486000Y-63039000D02*
X207391000Y-61134000D01*
X205486000Y-64389000D02*
X205486000Y-63039000D01*
X207391000Y-50546000D02*
X206756000Y-49911000D01*
X207391000Y-61134000D02*
X207391000Y-50546000D01*
X205359000Y-49911000D02*
X206756000Y-49911000D01*
X151316081Y-25603200D02*
X152128881Y-26416000D01*
X150114000Y-25603200D02*
X151316081Y-25603200D01*
X168656000Y-26416000D02*
X172085000Y-22987000D01*
X152128881Y-26416000D02*
X168656000Y-26416000D01*
X199778000Y-80772000D02*
X199778000Y-86875000D01*
X199778000Y-86875000D02*
X199531000Y-87122000D01*
X206836000Y-64389000D02*
X205486000Y-64389000D01*
X207264000Y-64817000D02*
X206836000Y-64389000D01*
X207264000Y-82677000D02*
X207264000Y-64817000D01*
X199531000Y-87122000D02*
X202819000Y-87122000D01*
X202819000Y-87122000D02*
X207264000Y-82677000D01*
X189376600Y-87122000D02*
X199531000Y-87122000D01*
X189224200Y-87274400D02*
X189376600Y-87122000D01*
X146964400Y-87274400D02*
X189224200Y-87274400D01*
X140995400Y-81305400D02*
X146964400Y-87274400D01*
X146278600Y-78621281D02*
X146304000Y-78646681D01*
X146304000Y-78646681D02*
X146304000Y-78994000D01*
X146304000Y-78994000D02*
X144526000Y-80772000D01*
X144526000Y-80772000D02*
X140995400Y-80772000D01*
X146278600Y-77419200D02*
X146278600Y-78621281D01*
X140995400Y-80772000D02*
X140995400Y-81305400D01*
D25*
X199136000Y-57531000D02*
X201041000Y-57531000D01*
X196342000Y-54737000D02*
X199136000Y-57531000D01*
X201041000Y-54991000D02*
X198628000Y-54991000D01*
X198628000Y-54991000D02*
X198374000Y-54737000D01*
X198374000Y-54737000D02*
X198374000Y-47498000D01*
X186690000Y-52705000D02*
X188722000Y-54737000D01*
X186690000Y-47498000D02*
X186690000Y-52705000D01*
X189992000Y-39429081D02*
X189992000Y-47498000D01*
X189992000Y-38227000D02*
X189992000Y-39429081D01*
X198374000Y-47498000D02*
X189992000Y-47498000D01*
X189992000Y-47498000D02*
X186690000Y-47498000D01*
X175085000Y-26622000D02*
X175085000Y-22987000D01*
X177800000Y-29337000D02*
X175085000Y-26622000D01*
X189992000Y-26797000D02*
X189992000Y-29337000D01*
X189992000Y-29337000D02*
X177800000Y-29337000D01*
X199838919Y-72009000D02*
X199076919Y-71247000D01*
X201041000Y-72009000D02*
X199838919Y-72009000D01*
X199076919Y-71247000D02*
X196596000Y-71247000D01*
X196596000Y-71247000D02*
X196088000Y-70739000D01*
X196088000Y-70739000D02*
X196088000Y-63627000D01*
X202243081Y-72009000D02*
X205486000Y-72009000D01*
X201041000Y-72009000D02*
X202243081Y-72009000D01*
X193802000Y-54737000D02*
X196342000Y-52197000D01*
X196088000Y-63627000D02*
X193802000Y-61341000D01*
X193802000Y-61341000D02*
X193802000Y-54737000D01*
X205486000Y-69469000D02*
X201041000Y-69469000D01*
X192024000Y-62495630D02*
X191008000Y-61479630D01*
X192024000Y-63627000D02*
X192024000Y-62495630D01*
X191008000Y-54483000D02*
X188722000Y-52197000D01*
X191008000Y-61479630D02*
X191008000Y-54483000D01*
X202949200Y-80799400D02*
X202949200Y-80924400D01*
M02*
