M48
; DRILL file {KiCad (5.1.2)-2} date 16.07.2019 11:55:46
; FORMAT={-:-/ absolute / inch / decimal}
; #@! TF.CreationDate,2019-07-16T11:55:46+02:00
; #@! TF.GenerationSoftware,Kicad,Pcbnew,(5.1.2)-2
; #@! TF.FileFunction,Plated,1,2,PTH
FMAT,2
INCH
T1C0.0276
T2C0.0315
T3C0.0374
T4C0.0394
T5C0.0440
T6C0.0512
%
G90
G05
T1
X6.775Y-0.905
X6.8341Y-0.905
X6.8931Y-0.905
X6.9522Y-0.905
X7.0112Y-0.905
T2
X7.055Y-1.96
X7.055Y-2.36
X7.235Y-1.955
X7.235Y-2.355
X7.057Y-2.489
X7.057Y-2.889
X7.4247Y-2.385
X7.72Y-2.385
X7.56Y-2.505
X7.56Y-2.905
X7.72Y-2.505
X7.72Y-2.905
T3
X7.57Y-3.18
X7.6684Y-3.18
X7.7669Y-3.18
X7.8653Y-3.18
X7.9637Y-3.18
T4
X7.294Y-2.518
X7.294Y-2.618
X7.294Y-2.718
X7.294Y-2.818
X5.759Y-1.648
X5.759Y-1.748
X5.759Y-1.848
X5.759Y-1.948
X5.759Y-2.048
X5.759Y-2.148
X5.759Y-2.248
X5.759Y-2.348
X5.759Y-2.448
X5.759Y-2.548
X5.759Y-2.648
X5.759Y-2.748
X5.759Y-2.848
X5.759Y-2.948
X5.759Y-3.048
X6.659Y-1.648
X6.659Y-1.748
X6.659Y-1.848
X6.659Y-1.948
X6.659Y-2.048
X6.659Y-2.148
X6.659Y-2.248
X6.659Y-2.348
X6.659Y-2.448
X6.659Y-2.548
X6.659Y-2.648
X6.659Y-2.748
X6.659Y-2.848
X6.659Y-2.948
X6.659Y-3.048
X8.09Y-2.535
X8.09Y-2.635
X8.09Y-2.735
X8.09Y-2.835
X7.38Y-1.505
X7.48Y-1.505
X7.58Y-1.505
X7.68Y-1.505
X5.91Y-0.908
X5.91Y-1.008
X7.38Y-1.055
X7.48Y-1.055
X7.58Y-1.055
X7.68Y-1.055
X7.915Y-2.535
X7.915Y-2.635
X7.915Y-2.735
X7.915Y-2.835
X8.085Y-1.965
X8.085Y-2.065
X8.085Y-2.165
X8.085Y-2.265
X7.38Y-1.27
X7.48Y-1.27
X7.58Y-1.27
X7.68Y-1.27
X5.658Y-1.647
X5.658Y-1.747
X5.658Y-1.847
X5.658Y-1.947
X5.658Y-2.047
X5.658Y-2.147
X5.658Y-2.247
X5.658Y-2.347
X5.658Y-2.447
X5.658Y-2.547
X5.658Y-2.647
X5.658Y-2.747
X5.658Y-2.847
X5.658Y-2.947
X5.658Y-3.047
X6.758Y-1.647
X6.758Y-1.747
X6.758Y-1.847
X6.758Y-1.947
X6.758Y-2.047
X6.758Y-2.147
X6.758Y-2.247
X6.758Y-2.347
X6.758Y-2.447
X6.758Y-2.547
X6.758Y-2.647
X6.758Y-2.747
X6.758Y-2.847
X6.758Y-2.947
X6.758Y-3.047
X7.38Y-0.83
X7.48Y-0.83
X7.58Y-0.83
X7.68Y-0.83
X7.915Y-1.965
X7.915Y-2.065
X7.915Y-2.165
X7.915Y-2.265
T5
X7.43Y-1.955
X7.43Y-2.055
X7.43Y-2.155
X7.43Y-2.255
X7.73Y-1.955
X7.73Y-2.055
X7.73Y-2.155
X7.73Y-2.255
T6
X6.162Y-0.909
X6.362Y-0.909
T0
M30
